<svg id="Layer_1" data-name="Layer 1" xmlns="http://www.w3.org/2000/svg" viewBox="0 0 1920 1080"><defs><style>.cls-1{fill:#fff;}</style></defs><title>Artboard 1</title><path d="M246.28,616.85c5.08-2.51,12.16-3.69,8.05-12.27a1.82,1.82,0,0,1,.4-1.63c12.65-12.74,6.44-26.94,3.21-40.91a11.87,11.87,0,0,0-2.68-6.09c-1.22,4.15-2.44,8.3-3.81,12.94-.74-.78-1.33-1.21-1.27-1.36,6.58-16.13-.94-32.22-.14-48.33.1-2.11-1-4.27-1.37-6.43A115.87,115.87,0,0,1,246.93,500c-.41-8.92-.31-17.87-.68-26.79-.17-4.36-1.16-8.69-1.37-13.05-.65-13.68-.62-27.42-1.74-41.06-2.14-26.22-4.17-52.49-7.59-78.57-3.35-25.52-8.6-50.8-12.5-76.26-1-6.64-.16-13.57-.16-20.92l-5.23-4.54.93-1.49,8.32,1.93c-2.69-5.56-5-10.34-8-16.5l9.88,2.47-7-10.49,14.93,1-13.05-15.06c5.73-3.42,11.48,10.65,16.73.15l-7.73-4.43.23-1.42,16.83,1.17.66-2.23-6.11-5.17,25.51-4.34-.22-3-7-2.37,0-1.57c6-1.51,12.51-2,17.83-4.82,4.82-2.52,10-6.8,12.06-11.58,3.22-7.52,6.43-13.06,15.55-11.48.16-9.4,1.77-9.82,18.07-5.37l.1,2.38-14.1.64a15.22,15.22,0,0,0,2.33,2.52,18.27,18.27,0,0,0,3.33,1.34c-4.6,7.22-8.84,14.13-13.39,20.81-.93,1.36-3.07,1.9-4.64,2.82-.24-1.67-.47-3.33-.71-5,1.51,7.86-17,6-8.13,17-10,4.93-19.44,11.45-29.83,14.16-12.49,3.26-17.61,12.41-22.69,21.92-3.12,5.86-4.73,12.67-6.14,19.24-.57,2.64,1.71,5.78,1.82,8.72.16,4.35-.46,8.72-.76,13.25l5.37-3.45,1.43,1-6.55,11.64,8.68,2.22c1.25,7.44,2.56,15.17,4.13,24.48,1.7-2.87,2.55-4.32,4.83-8.16v18.63h-8.94v-8.08c-6.1,5.12-6.18,7.92-1,16.66l7.64-3.48,1.54,1.12c-1.58,3-3.16,6-5,9.52l5.14-.91c-.76,3.93-1.43,7.38-2.16,11.2,6.37-.16,3.15-11.48,11.23-7.12l0-.12C257.28,335,255,340.8,252,348.3l11.42-2.94,1.28,1.56L255,356.31h16.25c-1,2.7-1.85,4.88-2.9,7.63l7.81-.36c-1.85,6.23-3.49,11.76-5.12,17.29l1.56.62,7-10.77c.15,9.39-8.42,16.66-3.64,28.44l9.11-18.44c.44,10.37-8.39,18.71-5.5,29.41,4-5.31,7.52-10,11.05-14.65l2.57,1.35c-4,9.92-13.62,18.65-6.31,33.62,8.76-19.81,16.64-37.63,24.51-55.45l1,.25c-2.37,7.2-4.42,14.53-7.16,21.59-4,10.32-7.94,20.74-12.94,30.59-4.58,9,1,16.36,1,24.62l24.21-63.2,2.56,1c-4.81,12.79-9.85,25.5-14.37,38.4-3.56,10.17-8,20.41-9,30.93-.52,5.14.67,14.53,11.48,14.9-3.94,6.12-5.66,11.24,3.09,13,.5.1.3,2.94.67,4.44.8,3.25,1.75,6.46,2.64,9.69l2.44.32,4.36-8v21.23l2.47.42,5.94-14c2.85,8.71-7.39,17.05,1.5,26.92l4.07-14.54,1.34.25q-1.1,12.9-2.18,25.8l2.87.46c1.71-5.18,3.42-10.36,5-15.08.58,9-.16,18.48,2.16,27.1,2.19,8.17,7.74,15.41,11.54,23.19,2.37,4.85,3.93,10.09,6.41,14.87,4.4,8.5,9.22,16.78,15,27.27,2-6.25,3.93-9.72,4.15-13.3.46-7.34,5.05-8.5,10.88-8.81,7.48-.4,8.4,3.18,5.87,10.35l-5.73-6.73c-10.16,8.45-12.2,17.37-9.34,29.5,5.54,23.43,11,46.78,8.13,71.48-.88,7.71,4.28,16.4,7.67,24.21,1.74,4,5.66,7.09,9.08,11.16L411,732c6.41,7.08,12.61,13.64,18.41,20.53,1.92,2.28,2.69,5.51,4.19,8.19,4,7.06,7.62,14.34,12.15,21a81.72,81.72,0,0,1,13.19,32.16c1.47,8.19,5.14,16.26,9.1,23.7,9.13,17.12,16.24,35,18.41,54.21,1.13,9.93.18,19.18,8.7,27.08,2.62,2.43-.45,10.37.37,15.58.47,3,3.53,5.57,5.42,8.33,1.91-3.09,5-6,5.46-9.32.86-6.56.25-13.31.25-20.77l11.64,2.84c.3,2.53.63,5.37,1,8.28,11.25-5.36,15-1.9,16.75,17.07,1.33-3.76,2.13-6,3.24-9.13,5.64,5.84,3.72,12,.35,15.65-6.06,6.48-6,13-3.78,20.43C548,965.38,560,969,561.54,975.47a6.77,6.77,0,0,1-1.33,1c-4.22,1.93-8.46,3.83-12.69,5.74,3.05,3.63,5.39,8.71,9.28,10.63,16,7.87,33.3,7.27,50.38,4.69,3.56-.54,6.54-5,9.52-7.45l-16.36-17.65,15.72,6.43c-5.15-5.65-9.81-9.61-13-14.54-3.33-5.2-5.22-11.33-8.09-17.84-3.2,8.44-.1,13.93,4.61,19.32,1.26,1.44.67,4.5.92,6.82-3-.84-6.1-1.35-8.9-2.59-5.24-2.33-10.33-5-15.41-7.7a70.46,70.46,0,0,1-5.89-3.89c.42-1,.83-2.06,1.25-3.1l12.17,3.16c2.4-4.37,5.1-9.28,8-14.44-16.57-11.24-31.08-24.19-35.27-45.65-1.1-5.66-5.58-10.79-9-15.83-10-14.77-13.1-33.59-27.67-45.85-3.34-2.81-4.06-8.87-5.69-13.53q-7-19.89-13.7-39.86c-1.37-4.12-2-8.5-3.35-12.63-3.17-9.72-7.16-19.21-9.73-29.07A214.53,214.53,0,0,1,482,712.17c-1.8-15.39-2.69-30.88-4.44-46.28-.21-1.87-3.19-3.67-5.21-5-1.44-1-3.42-1.2-5.52-3.06,10.24-.59,11.73-6.68,11.85-14.47.15-9.13,1.08-18.24,1.74-28.46L471,617.66c5-14.63,9.2-27.89,14.13-40.87,5.88-15.48,10.41-30.83,8.12-47.9-1.12-8.38,1.05-17.2,1.74-25.82h2.64c0,7.52-.22,15.06.13,22.56.11,2.44,1.71,4.8,2.63,7.2,1.46-1.9,3.06-3.71,4.35-5.73,3.2-5,6.25-10.05,11.15-14.71L511.57,539c5.08-3.73,10.47-8,16.25-11.73,1.51-1,4.28.3,6.39,0a34.35,34.35,0,0,0,8.28-2.1c14.11-5.9,27.87-12.76,42.28-17.76,11.31-3.92,23.4-5.6,35.12-8.36,1.9-.45,4.91-.88,5.35-2.08,3.49-9.52,10.91-3.84,16.51-4.34,3.94-.35,8,1.15,12,1.34,6.16.3,13.09-2.08,17,5.95-19.41-5.75-37,1.67-54.85,6.32-11.91,3.1-23.72,6.7-35.41,10.55-13.76,4.53-27.32,9.65-41,14.38-5.58,1.92-7.64,5.44-5.4,10.9,3.65,8.94,7.51,17.79,11.38,26.63,1.18,2.71,2.67,5.28,4,7.92l3.56-2.89c-3.56-11-11.66-20.72-10.89-33,7.11,11.44,6.38,27.49,23.35,35l-12.36-25.66,2.26-1.14c4.61,9.06,8.15,18.93,14.14,27s14.27,14,23.07,19.51c-12.51-9.25-16.43-22.83-22-37.25L603.32,599l3.14-2.22L589.84,572l1-.58,28,28,2.33-1.88-13-18.69c16.29,11.51,19.17,36.33,41.3,41L626.7,588.59l2.45-1.84c4.91,6.48,9.05,13.79,14.9,19.27a343.42,343.42,0,0,0,30.7,25c8,5.88,16.67,10.7,25.4,15.52,9.94,3.51,17.34,10.73,24.88,19.06.53-2.12,1-3.86,1.53-6.08,8.51,2.84,11.56,15,22.84,12.29l-7-3.6c.06-.72.13-1.44.2-2.15l12.69.84-10.82-18.69c10.08,3.6,13,17.84,26.27,10.25l-33-29.4c8.7,4.55,19.38,5.56,24.55,17,3.21,7.06,8.59,13.69,19.88,11-4.91-7-9.42-13.33-13.93-19.71,9.26,4.61,11.26,18.53,25.36,16.15L790.16,645,803,651.29l1.67-2-7.86-13.48,1.39-.93,18.51,20.46,2.5-2.07-12.19-20.91c7.93,6.71,10.14,19.52,24.8,17.25l-12.6-16.88c11.49,3,12.07,20.35,27.79,17.58l-14-16.31,1-1.34,18.05,13.62,1.26-1.43-2.76-7.43,1.3-1,15.57,15.35,2.53-2.12-9.31-13.38,1-1,14.65,10.14,1.54-1.54-9.34-13.31,1.89-1.84c8.31,9.38,14.8,21.55,30.33,21L877,629.3l1.35-2c11.54,6.64,19.42,20.44,35.43,19l-19.07-17.06.78-.92,28,15.18,2-3.15-16.76-14.4,1.42-2c8.9,5.5,16.27,15.18,29.5,10.42l-15.93-10.9.45-.89L949.06,632l1.61-2.94-15.23-12c13.88,2.74,22.14,17.32,38.49,13.14l-15.51-5.74c-.13-1.87-.32-4.52-.54-7.67l22.11,9-4.69-6.94,19.21,3.27,1.15-5.78,32.24,12.88.67-1.42L1011,617l.88-2.24c4.45,1.53,9.08,2.67,13.3,4.68,4.7,2.23,9,5.24,13.32,7.8l-3.22,7.8-22.46-7.86,11.17,17-2.65,2.69c-6.4-12.36-15.93-20-30.07-20.64l10.7,5.89c-.19,1-.37,2-.56,3-2.67-.62-5.48-.92-8-1.93-3.32-1.33-6.41-3.22-9.6-4.87-.53.92-1.05,1.85-1.57,2.77l24,14.72,1.07-1.28-3.92-8.05c8.45.75,8,13.07,17.52,10.67,5.55-1.4,11.63-.72,17.47-1l.63-3.27,9.33,11.55c-3.74-18.15-1.54-40.16-30.6-40.2l2.94-3.15,14.51,3.18.91-1.27c-1.76-1.35-3.49-2.75-5.28-4.06-2-1.45-4-2.82-5.24-3.69l7-6.44c-3.59-3.44-7.18-6.88-10.22-9.81-.44-3.41-.46-7.27-1.48-10.85-3.24-11.26-6.38-22.61-10.59-33.52-1.39-3.59-5.92-6-10.14-10l8.76-2.31c.34-4.36.69-8.82,1-13.29l2-.06c.31,2.58.61,5.16,1,8l6.16-5.58c1.1,26.12,2.7,50.72,26.45,66.49-.28.89-.56,1.78-.85,2.68l-10.58.48,16.49,13.17-.66,2.23-9.87,1.41,9.26,22.51c10-14.67,14-17.39,20.55-13.29,2.16,1.34,3.08,4.67,4.56,7.09l-2.53,1.78c-1-.85-2.09-1.68-3.1-2.55s-2.16-2-3.16-2.86c-7.8,4.13-14,17.06-11.72,24.73.4,1.35,2.49,3.47,3.16,3.25a12.76,12.76,0,0,0,7.3-6l-8-1.49c2.7-5.65,4.3-6,15.06-3.28-.86,8.81-3.53,16-14.09,17.17.09,1.75-.23,3.36.3,4.62,6.55,15.78,13.45,31.41,19.66,47.32,1.2,3.08-.11,7.18-.45,10.79-1.09,11.84-2.27,23.66-3.51,36.5h10.34c-7.3,13.08,0,23.59,3,34.8.81,3.06-1.46,6.94-2.72,12.11l7.39-6,1.85,1.22-7.44,12,.85.68,5.4-4.65,1.34.61-9,23.52,2.45,1.27,6-8.29,2.45,1.24c-2,4.09-3.88,8.2-5.93,12.25-1,2.09-3.74,4.45-3.31,6,4.14,15-1.17,28.82-4.5,43-1,4.44-1.14,9.1.62,11.58l21,8.78c.58,3.18,1.18,6.52,2,11.16l7.77-6.93c-3,8.33,7,11.06,3.47,19.48-2.88,6.9-.71,15.74-2.68,23.23-2.18,8.29,1.52,12.71,7.23,16.94,8.37,6.2,18.1,7.91,28.16,8.53,3.83.23,7.66.43,13.1.74.17-3.64.23-7.35.57-11,.27-3,.88-5.87,1.35-8.81l2.71-1.52-9.12-4.73,2.25-3.33c-9.73,1-16.06-13.46-26.86-4.3-1.25-8.9,1-11.64,8.75-9.48,7.06,2,12.5,1.83,16.72-6-6.72-5.38-14.57-11-21.64-17.53-6.11-5.63-2.77-12.36-.56-18.77.94-2.72,2.63-6.48,1.55-8.39-10.82-19.14-12.29-40.09-12.94-61.3-.16-5.27-.34-10.74-1.88-15.69-1.15-3.72-4.48-6.77-6.84-10.11,4.22-6.27,7.9-15.81,14.84-21,8.93-6.75,6.75-14.33,6.62-22.5-.08-4.94.53-9.9.5-14.85a29.6,29.6,0,0,0-1.09-9.18c-1.45-4.29-3.13-8.72-5.75-12.33-2.2-3-5.89-5-8.72-7.24,12.57-4.18,10.47-15.33,12.11-25.59,2-12.39,7.06-24.26,9.43-36.62,2.69-14,4-28.32,5.67-42.52.75-6.29-.79-11.59-7.1-14.86-1.47-.77-1.87-3.6-2.76-5.49.62-.49,1.23-1,1.84-1.49l13.06,6.58c4.78-4.16-.13-15.18,11.12-17.58-3.32,15.57-15.34,28.47-7.48,44.64l7.08-10.45,1.91.4c-.27,3.23-.55,6.46-.89,10.61l9.09-11,2.33,1.62c-5.52,8.4-11.31,16.64-16.51,25.23-9.84,16.26-20.13,32.4-18.94,52.71.36,6.1.06,12.24.06,20.06,13.46,11.57,30.41,15.24,49.23,9,8.59-2.85,17.26-5.83,25.27-10,15.67-8.09,15.59-8.43,17-25.7.17-2.19-1.33-4.51-1.7-5.66l11.43-16c.88,5.86,1.58,10.48,2.23,14.82-2.7,3.67-6.37,7.35-8.37,11.78-1.66,3.68,1.13,7.33,5,4.93,5.69-3.53,10.36-8.71,15.54-13.1,2.37-2,4.88-5.42,7.39-5.47,9.69-.18,14.84-5.6,18.63-13.51.8-1.68,2.33-3,3.52-4.52l4.85,5.25c13.94-8.53,24.62-20.85,33.58-34.93,8.07-12.67,14.95-26.42,24.77-37.56,11.82-13.42,26-24.82,39.5-36.67,15-13.16,29.78-26.79,46-38.38,10.07-7.21,22.47-11.25,34-16.27a115.35,115.35,0,0,1,28.06-8.68c-3.09,1.34-6.27,2.51-9.25,4.06-9.3,4.84-18.51,9.86-27.8,14.73-5.67,3-11.43,5.82-17.13,8.75a26.71,26.71,0,0,0-5.29,3q-21.37,18.45-42.58,37.08c-10.73,9.44-21.72,18.61-31.82,28.68-6.38,6.37-11,14.41-17,21.26-17.24,19.86-28.82,44.62-51.56,59.7-2.67,1.77-5.5,3.3-8.26,4.94,3.58,5.84.18,20.94-8,25.54l5.55-23.32-1.64-1.07c-3.08,3.76-6.16,7.52-9.79,12-7.38-3.45-11.21.82-13.51,8.91-.49,1.71-4.58,2.46-7.07,3.52-6.25,2.67-13.79,3.87-18.57,8.16-10.12,9.09-22.39,12.89-34.57,17-14,4.76-16.92,6.5-15.65,20.21a134.55,134.55,0,0,1-3.4,45.79c-3.55,14.48-.84,30.81.86,46.13.72,6.55,6.1,12.51,9,18.91,3,6.63,6.7,13.27,7.78,20.26,1.2,7.74,3.29,13,10.41,17.53,6.07,3.88,10,11.11,14.83,16.93s9.48,11.66,13.9,17.11l19.63-10.4-8-5.94,1.54-2.46c5.07,2.26,10.09,4.63,15.22,6.75,4.55,1.88,9.18,3.61,13.85,5.18,3.88,1.3,7.85,2.36,11.83,3.35a21.93,21.93,0,0,0,5.25.55c12.27-.05,24.54-.19,36.82-.26,7.92,0,15.85,0,23.77,0,.37,1.06.74,2.13,1.12,3.2-2,.83-4,2.43-6,2.36-7-.24-14-1.16-21-1.58a7.41,7.41,0,0,0-6.2,2.84l16.89,1.93-.37,3.26c-6.82.38-13.64.75-20.48,1.16-38.57-3-47.18-2.37-50.6,4a12.07,12.07,0,0,0,3.29.86c14.16-.54,28.33-1.06,42.47-1.91,1.68-.1,3.25-2.08,4.87-3.19,3.78,1.14,7.53,2.41,11.36,3.35,3.1.77,6.3,1.16,9.46,1.71l-.5,3.06h-59.29l3.59,9-8.51,3.2c0,.61.11,1.23.16,1.85l15.6-.72c-.43-2.82-.7-4.65-1.11-7.35H1310l.24,2.54c-2,.32-4,.28-5.8,1s-3,3-4.8,3.47c-7.23,1.87-14.53,4.15-21.9,4.55-3.48.18-7.11-3.66-10.78-5.44-3.41-1.66-7-3-11-4.76l-2.65,6.09c3.15,1.45,5.72,3.47,8.48,3.76,9.64,1,13.37,5.59,10.41,14.17l-17.24-9.37-1.59,2.22c.71,1.91,1.41,3.83,2.4,6.49l-8.08-1c-8.15-10.92-21.07-6.64-31.65-9.16-8.22-2-17.56.75-26.4,1.38,3.06,2.16,6.77,3.89,9.81,3.1,16.77-4.39,32.27,3.36,48.43,4.41-5.72,1.2-11.49,3.59-17.13,3.33-9.56-.44-19-2.57-29.53-4.13,3.14,7.94-1.57,7.89-6.55,8.78-8,1.42-16.29,2.75-23.59,6-8.46,3.82-16.41,3.29-24.67,1.09-4.09-1.1-6.82-1.75-10.64,2.09-2.6,2.6-8.73,1.67-13.28,2.32L1121,985c2.54-1.47,5.09-2.93,8-4.59-7.91-7.38-18.55-6.89-29.16-6.48l.54-3.09,9.45-2.56-.09-2.25h-24.47c1.87-6.76,1.87-6.76,6.63-5.67,9.74,2.21,14.8.21,15.32-5.9.46-5.43-1.11-8.37-7.32-8.11-11.77.48-23.55.52-35.33.59a86.4,86.4,0,0,1-9-.88l.12-2.79h50c.59-5.61,1.36-9.69,1.32-13.76,0-2.6-.74-7-2.09-7.4-3-.89-6.53.26-9.85.57-4.12.4-9.42,2.52-12,.73-2.88-2-3.35-7.51-4.72-11.55-.25-.73.63-1.92.31-2.54-10.8-20.72,2.88-40.74,1.74-61.24-.92-16.45-.21-33-.57-49.48a92.35,92.35,0,0,0-2.16-17.85c-.4-1.81-3.63-4.42-5.4-4.29-14.29,1-15.35,0-11.49-13.58,1-3.44,2.46-6.73,3.71-10.1l3.77,1.34a110.17,110.17,0,0,0-3,10.71,8.65,8.65,0,0,0,1,5.36c.35.64,3.07.83,3.81.19a6.13,6.13,0,0,0,2.13-4.39c-2.29-23.65-4.22-47.35-7.52-70.86-1.2-8.51-4.16-17.8-9.28-24.45a36.82,36.82,0,0,0-20.22-12.5c-13.48-2.78-27.56-3.58-41.37-3.48a249.75,249.75,0,0,0-40.45,3.84c-34.59,6-69.42,4.27-104.2,4.43-9.63.05-19.44-2.49-28.85-1.31-16.56,2.07-33.37-.65-49.88,4.67-12.91,4.16-20.95,19.72-14.23,31.19,1.49,2.53.22,6.68.22,11.29-3.4-1.48-4.77-1.71-4.85-2.16-1.74-10.83-10.83-16.77-16.52-25a11.65,11.65,0,0,0-2.9-3.25c-11.72-7.58-23.56-15-35.25-22.6-5.2-3.39-10.15-7.19-15.21-10.81-.23-.17-.38-.49-.63-.61-14.94-7.39-29.8-14.93-44.85-22.06-10.66-5.05-21.5-9.76-32.42-14.21-7-2.87-14.39-5-21.58-7.47-23.28-8.1-46.54-16.27-69.84-24.3-4.69-1.61-9.51-3.24-14.38-3.76-2.14-.22-5.58,1.79-6.66,3.75-2.65,4.85-4.28,10.25-6.43,15.7,4.78,3.74,12.86,5.9,5.85,15.34-1.34-3.44-2.19-5.63-3.2-8.19-.92.48-2.14.78-2.18,1.19-.65,6.37-2,12.82-1.5,19.11,1.28,15.7,1.93,31.15-1.21,46.86-1.36,6.83.91,14.48,2,21.69,1.78,11.87,3.53,23.77,6.05,35.5,1.95,9,4.95,17.84,7.7,26.68,1.38,4.42,3.44,8.64,4.84,13.06,5.17,16.35,10.17,32.75,15.3,49.11,2.51,8,4.23,16.49,8,23.9,5.78,11.35,13.19,21.86,19.61,32.91,6,10.36,11.87,20.85,17.38,31.49,3,5.82,4,13.14,8.06,17.9,6.07,7.09,14.17,12.43,21.25,18.69,2.81,2.48,6.57,5,7.54,8.22,3.82,12.59,13.94,20,22.4,28.72,1.56,1.61,4.7,2.21,7.16,2.32a120.31,120.31,0,0,0,19.66-.65c-6-3-11.12-9.24-19.27-3.89-.93.6-4-.57-5-1.8a49.65,49.65,0,0,1-5.37-9.55c-.48-1,.07-3.75.33-3.77,3-.28,6.17-.73,9-.08,4.57,1.05,9,2.9,15.1,5-5.16-9-18.1-13.7-26.89-11.86-2.26.47-4.8-.43-7.21-.71,2-1.46,4.14-4.27,6.14-4.2,25.52.88,51,2.1,76.52,3.46,2.19.12,4.29,1.83,5.75,4.76l-8-1.71c6.81,8,13.62,6,20.82,4.17l-6-8.48c.42-1,.84-2.07,1.25-3.1l54.85,3.19-17.92-9.59,1.65-3.26,29.27,12,1.14-2.49-17.29-9.09,8.45-1c7.46,5.8,16,7.3,25.15,6.14-7.63-5.38-16.25-6.6-25.32-6,5.06-7.46,12.45-5.06,19.21-4.18,2.75.36,5.22,3.36,7.9,3.5,4.38.22,10.15,3.76,12.68-3.75.46-1.38,3.26-2.85,4.95-2.82,29.37.46,58.74,1.15,88.1,1.79.27,1.27.53,2.54.79,3.81-3.54,1.07-7.21,3.35-10.6,3-15.15-1.54-30.22-3.83-46.11-6,.87,2,1,2.58,1.33,2.93,3,2.79,6,5.53,9,8.28-3.4.15-6.8.33-10.21.43-2.07.06-4.14,0-7.23,0l4,7.06c-7.31,0-13.94,1.57-19.28-.39-6.94-2.55-14.13,3.63-20.65-1.91-.89-.75-4.71,1.93-7.17,3,.28.94.57,1.88.85,2.82h34.35l-.1.74c-5.75,1.54-11.46,4.15-17.26,4.36-8.06.29-16.35-2.48-24.25-1.53-5.73.69-12.7-4.58-17.57,2.62-.45.68-2.87.51-4.15.07-7.42-2.52-14.62-6-22.21-7.68-6.38-1.46-13.18-1.23-19.8-1.33-2.52,0-5.06,1.1-7.93,1.79,8.57,5.46.3,7.51-2,10.15l16.75,11.23c-13.73,5.86-27,3.38-40,3.27-.15-11.15-7.85-14.2-22.13-8.85l24.56,14.9c-.32,1.11-.65,2.23-1,3.34-2.58-.3-6.48.37-7.53-1.06-6.56-8.91-15.37-11.26-27.08-10.29L668.69,981,648,989.22c1.13,4.95-5.55,13.87-12.35,14.13-20.17.77-40.37,2.08-60.52,1.55-13.13-.36-25.32-5.17-33.41-16.9-5.14-7.44-10.48-14.74-15.71-22.07H437.9c-.6-2.87-1.11-5.37-1.62-7.85-5.49-.26-10.9-1.1-16.22-.68-21.23,1.67-30.61-15.28-42-27.81-3.66-4.05-2-13.71-1.35-20.67.9-10.16-5.43-15.67-11.87-21.27-1.14-1-3.53-.79-5.33-.72-4.94.19-13.26,2.34-14.16.58-2.43-4.71-2.05-11.06-2.1-16.77-.05-5.28.73-10.58,1.26-15.86.41-4.07,1.43-8.11,1.46-12.18.17-18.17.07-36.34.07-54.51l-2.37-.24-2.5,4.86-2-.49a62.55,62.55,0,0,0,1.22-7.86c.27-8.68.31-17.37.42-26.05,0-2.66-.34-5.38.07-8,2.07-13.08-1.85-24.39-7.76-36.08-3.65-7.22-3-16.64-4.18-25.09-.54-3.79.12-8.16-1.55-11.31-8.56-16.11-2-29.12,7.18-42.14,8.44-12,12.16-25.66,14.68-40.07,3.72-21.26-12.12-34.53-19.54-51.09-6.33-14.14-15.48-27-23-40.61-1.31-2.36-.45-5.82-1.29-8.57A141,141,0,0,0,300,480.63c-2.74-6.41-6.42-12.47-8.67-19-6.31-18.44-11.24-37.4-18.34-55.52-6.49-16.6-15.1-32.37-22.81-48.49a23.73,23.73,0,0,0-2.14-3c1.89,52.08,3.74,103.29,5.68,157l10.54-9.62,2.51,1.2c-1.22,3.32-2.11,9.32-3.71,9.51-11.81,1.41-8.9,10.62-7.66,16.25,3.73,16.89,9.1,33.41,13.93,50.43l-4.59,3.46c2.57,1.8,5.35,2.84,6.64,4.84,3.33,5.16,5.57,11,9,16.11,14.9,21.9,12.17,46,8.63,70s-7.52,48-12.61,71.68c-2.62,12.16-8.95,23.49-12.1,35.58-6.08,23.4-5.81,47.09-.6,70.71.49,2.22.3,4.6.51,8.44-2.73-1.59-5.24-2.16-5.73-3.48-5.25-14-15.51-27.09-8.39-44.14l4,6.66,1.34-10.64c-4.24.66-7.41,2.75-6.56-4.26,2.59-21.11,6.31-41.7,17-60.46a7.54,7.54,0,0,0,.22-6.24c-7.2,11.61-13.93,23.66-17,36.92-3.11,13.51-3.9,27.56-7,41.35-5.85-13.48,1.25-27,.66-40.49.73-2,1.44-4,2.2-6.05,8.73-22.95,17.78-45.79,26-68.91,2.53-7.09,2.91-14.94,4.27-22.45-10.19,22.35-20.11,44.09-28.12,66.53-3.44,9.62-2.89,20.66-4.15,31.06l-2.92,4.23-2.08-.79c-.13-2.4-.3-4.8-.36-7.2,0-1.44.69-3.78.07-4.2-11-7.31-5.57-17.39-3.6-26,3.12-13.62,8.38-26.73,12-40.25,2.16-7.92,6.08-15.41,2.54-24.71-1.7-4.44,2.24-11,3.64-16.67l-7.17-3.55c4.21,4.49-12.48,8.72,1.09,14.74-2.26,12.41-4.73,26-7.21,39.53l-4.1-.58,3.33-30.28-3.93-.72q-2.94,17.46-5.87,34.93c-4.63-18.83,5.74-35.19,9-52.68l-3.74-.77q-7.82,32.22-15.65,64.43l-2,.09c0-2.5-.47-5.11.07-7.49,5.69-25.05,9.47-50.66,21-74,2.87-5.81,2.31-11.14.28-17.52-3.49-11-4.23-22.68,2.7-33.15,3.79-5.72,3.87-11,.86-17.29-7.12-14.88-12.58-30.31-12.88-47.15-.11-6.11-.89-11.46-7.54-15.37-7.31-4.31-5.93-16.16,2.26-19.61,6.27-2.65,6.76-6.53,6.22-11.85-2.38-23.71-4.27-47.49-7.26-71.13q-5-39.39-11.66-78.55c-3.66-21.42-8.5-42.64-12.87-63.93-2.13-10.35-5.64-20.6-6.18-31-.36-6.84,3.46-13.9,5.44-21a36.21,36.21,0,0,1-5.08-1c-6.93-2.2-7.73-5.41-2.42-10.48,6.31-6,12.86-11.82,20.95-19.23l-13-3.15,13.62-10.11,2.67,1.16c0,4.62,1.32,9.82-.38,13.69s-6.41,6.11-10,9.25l11.48,3.49c-1.84,3.34-3.61,6.72-5.53,10-1.76,3-3.66,6-5.54,9-1.71,2.69-3.49,5.35-5.81,8.89l8-.79c-.6,2.4-.55,4.31-1.46,5.39-3.9,4.61-7.3,8.85-.83,14.21,1,.85.25,3.81.44,5.79.45,4.83-2.24,10.18,4.24,13.89,2,1.15,1.29,7.13,1.71,10.91,1,9.05,2,18.11,2.86,27.18.95,10.26,1.45,20.58,2.64,30.81,1.11,9.55,2.78,19.05,4.38,28.54.92,5.42,2.69,10.72,3.22,16.16,2,20.06,3.64,40.14,5.26,60.22,1.25,15.5,2.24,31,3.42,46.54a6.67,6.67,0,0,0,1.23,3.89c8,8.37,7.9,9.36-3.73,15.25l8.8,2.3c0,.47.34,1.43.13,1.56-10.84,6.7-7.5,15.79-4.62,25.09,1.15,3.7,1,7.81,3.55,12.56l2.43-5.49,1.75,1.21q-1.5,8.68-3,17.35l3,.6L246.64,546l2.52.8c-1.8,6.1-3.47,12.23-5.45,18.27-1.73,5.29-.92,8.44,7.47,8.14-4.32,14.73-8.57,29.23-12.91,44l8.34-.77,5.92,17.68-7.76-6.27v16.38l-4.47,8.47h12.52c.87-6.55,2.28-12.5,2.28-18.44C255.1,627.33,256.62,618.91,246.28,616.85Zm123.19,106.9c-6.16.49-12.39.61-18.45,1.67-1.8.32-4.48,3.31-4.43,5,.14,5.34,1.39,10.64,2.44,17.43l19.76-10.6c-.48-1-1-2-1.43-3.08l-17.12,3.73.4-1.5,18.59-12.89c7.6-3.39,13.14-8.72,15.4-17.29l-17.72,12.31ZM402.53,740c-2.3,7.86-4,14-5.89,20-.51,1.69-2,3.33-1.9,4.92,1.21,19.65,1.76,39.41,4.33,58.89,1.59,12,5.46,24,10,35.28,3.48,8.71,7.81,19.28,15,23.72,7.84,4.83,13.25,10,17.19,17.68,7.79,15.13,7.8,15.54,24.29,13.59,5.65-.67,11-3.85,16.49-5.89l-.72-3H462.38c-.16-1.15-.32-2.3-.49-3.45,4.28-.84,8.52-2.17,12.83-2.41,5.81-.32,8.16-2.57,6.14-8.26q-9.36-26.4-18.85-52.78c-2.95-8.22-5.8-16.47-8.93-24.62-3.44-9-6.56-18.12-10.92-26.63a126.15,126.15,0,0,0-14-21.25c-7.14-8.88-15-17.16-22.84-25.48A3.09,3.09,0,0,0,402.53,740Zm757.93,112.84-.75-1.42c5.57-4.77,11.28-9.38,16.58-14.42,1.26-1.2,1.14-3.84,1.66-5.81a36.52,36.52,0,0,0-5.65,2.3c-2.47,1.51-4.46,4.09-7.08,5-13.89,5-17.64,15-14.94,27.95,11.12,8.4,20.73,3.21,31-2.65-3,4.62-7.38,7.39-10.58,11.14-1.69,2-2.8,6.34-1.77,8.44,6.88,14,7.08,13.92.84,28.24a2.61,2.61,0,0,0-.22,1.72c1.79,5.19,2.69,11,5.69,15.38,7.26,10.53,33.5,14.83,46.59,7.79l-11.27-21.65,2.19-1.66,14.79,16.42,1-.59c-4.32-8.11-8.63-16.23-11.67-22-8.06,0-14.1.31-20-.23-1.46-.13-2.66-3.06-5-5.95,3.27-.19,4.45-.05,5.49-.36,3.55-1.05,7-2.26,10.57-3.42-2.31-3.29-4.41-6.78-7-9.84-4-4.77-8.42-9.24-13.17-14.41l-16.48,9.18-2.09-1.4c14-10.57,28.94-20.91,11.14-39.11Zm-697,84.64c-8-8.86-15.86-17.77-24-26.5-.65-.69-2.63-.38-3.95-.18-5,.76-6.46-.25-4.61-4.91,2.67-6.74-.35-10.64-5-14.36-3.22-2.54-7-4.67-9.48-7.78-3.95-4.87-7.2-3.49-11.23-.42-7.19,5.48-14.59,10.7-23.55,17.23,0,3.7-.38,9.88.1,16,.49,6.3.3,13.78,8.34,12.37,4,5.77,6.66,10.95,10.52,15,12.32,13,27.36,9,42.09,5.84a69.4,69.4,0,0,0,9.69-3.35c.34-.12.39-1,.72-2-3.51-4-7.53-7.89-10.75-12.37-7.4-10.26-7.24-10.37-5.6-14.1C445.33,924.75,448,939.05,463.42,937.52ZM1142,877.3c2-10.68,4.08-21.33,5.83-32,.46-2.84,0-5.88-.34-8.79-.91-7.85-1.78-15.7-3-23.49a111.52,111.52,0,0,0-3.82-16.81c-.65-2-3.42-3.26-5.23-4.86-1.33,2.36-3.63,4.65-3.83,7.1-.84,10.44-1.66,21-1.38,31.4C1130.63,846.41,1130.55,863.34,1142,877.3ZM270,601.35c12.55,24.46,4,51.34,8.81,76.64C289,633.76,287.2,617,270,601.35Zm896.61,156.73c-2.69,2.22-3.73,3.1-4.78,3.95-4.89,4-7.7,10.54-16,10.14-2.08-.1-6.53,6.63-6.24,9.89.44,4.87,3,11,6.7,13.77,5,3.69,17.35-5.77,18-12.81l-18.89,8.88-2.07-2.85c20.17-7.16,31.17-21.78,36.18-41.15a8.91,8.91,0,0,0-4.63,5.32c-4.51,14-14.45,22.83-27.34,28.73-1.15.52-3.33-1.22-6-2.31C1151.39,773.39,1163.34,772.51,1166.64,758.08Zm-3.45,152.25c8.27-17.07,8.27-17.07-19.93-26.53C1145,909,1145,909,1163.19,910.33Zm-795-50.59c3.28-2.78,5.9-5.47,9-7.48,5.26-3.45,11.1-6.08,16.08-9.87,1.92-1.46,2.17-5.14,3.31-8.14-10.22,4.86-19.35,7.92-27,13.16-9.14,6.29-19,12.94-21.15,25.23-.55,3.12.84,6.58,1.33,9.89l4.1-.57c-.4-4.29-.81-8.58-1.26-13.41,13.63,6.12,8-6.57,10.89-11.73ZM390,821.9l-38,20.49v11.92c10.76-5.91,21.23-11.26,31.27-17.33C388.6,833.77,393.25,829.35,390,821.9Zm81.56,136.59,1.78,2.34c16.12,0,32.24.09,48.35-.13,1.76,0,3.49-1.83,5.24-2.81-.35-1-.7-1.93-1.06-2.9h-36c2.77-2.3,3.49-2.92,4.24-3.51s1.72-1.26,4.9-3.59L484,940.44c-.75.57-1.5,1.14-2.24,1.72C488.16,953.47,478.53,955.19,471.53,958.49ZM390.18,728.88c-1.84.3-3.17.16-4.08.71-11.38,6.89-22.79,13.75-34,21-1.8,1.17-2.49,4-4,6.7,12.09.62,23.59-5.76,23.57-12.07A16.26,16.26,0,0,0,390.18,728.88ZM259,690.4c-11.81,9.56-25.72,61.67-20.46,71.45ZM1149.8,816.33c11.13-.69,21-9.35,22.57-18.81-9.28-8.56-15.33,2.32-23.28,3.11C1149.34,806.15,1149.57,811.23,1149.8,816.33Zm-750.9,29c-17.22,7.35-26.22,16-25.06,24C387.89,867.54,400.92,855.05,398.9,845.31Zm799.85,101.81.2-2.2-28.31-2.9c6.61,11.55,9.09,13.15,19.6,13.22,12.14.08,24.27,0,36.4,0l.73-2.59c-1.33-.89-2.65-2.5-4-2.54-4.09-.11-8.19.46-12.3.63-9.51.37-19,.77-28.53.81-1,0-2-2.34-3.7-4.44ZM388,817c-14.29-3.93-33.49,6.48-34.49,20.49Zm-8.38-151.87c-8.18,10.8-22.66,12.15-25.36,25.94C375.79,685.36,380.55,681,379.66,665.12Zm-4.25,223.6c17.87,5.31,17.9,1.77,28.28-9.12,1.83-1.91,1.35-6,1.95-9.23ZM360.22,628l10.68,14c.53-16.79-13-20.42-20.25-29.3-.78,3.06-1.5,5.9-2.23,8.78l9.35,1.59-16.95,9.57,1.28,2.52Zm14.19,249.86c.56.75,1.12,1.5,1.67,2.26,14,.74,28.85-12.07,25.17-21.69ZM354.76,668.21c.84-6.24,12.14-7.11,6.16-15.13-8,4.48-15.9,8.71-23.55,13.4-1.87,1.14-2.81,3.79-4.18,5.75l3.2,3.19L351.75,665Zm3.83-18.36c.17-1,.35-1.91.53-2.86-2.85-.83-6.6-3.24-8.39-2.22-7,4-16.79,5.31-19,15.74C344.74,665,349,651.17,358.59,649.85Zm966.29,271.81c-8.35-.37-14.49-.61-20.63-.93-6.43-.34-12.9-.46-19.29-1.26-5.78-.71-11.46-2.21-17.19-3.36l-.21,2.23C1291.53,925.62,1314.51,927.59,1324.88,921.66ZM383.58,804.34c-10.61-1.22-29.26,8.45-30.94,15.45C362.21,819.81,373.17,814.48,383.58,804.34ZM258.79,666l2.56,0v-54.6h-2.56ZM375.9,773.14c-11.54-6.64-18.39,4-27,2.07.57,3.7,1,6.23,1.63,10.64Zm-22,37.25,25.36-15-2-3.89c-8.19,3.54-16.44,7-24.45,10.87C352.27,802.61,353.35,806.3,353.94,810.39Zm817.41,4.48c-5.68-2-18.75,1.94-20.72,6.15a5.91,5.91,0,0,0,.5,5,5,5,0,0,0,4.27,1.64C1162.5,826.09,1169.15,823.72,1171.35,814.87ZM524.44,942.05c-.19-1.25-.39-2.5-.59-3.75-2.78.6-5.75.77-8.29,1.91a98.88,98.88,0,0,0-10.43,6.06c-1.94,1.19-3.79,2.5-6.65,4.4h28l.11-1.81-11.21-1.78.21-1.62ZM268,600.87l-4.33.43q4.19,21.5,8.36,43l3.52-.58Q271.72,622.29,268,600.87Zm100.24,99.77c-5-2-8-4.35-10.4-3.82-5.57,1.22-10.83,3.84-16.21,5.89.83,2.1,1.53,5.89,2.53,6,3.33.26,9.45-.23,9.71-1.46C355.38,700,361.39,703.33,368.19,700.64ZM652.46,948.32h-14c11.06,11.13,25.14,15,34.9,10.52C669.4,951.13,655.84,962.48,652.46,948.32ZM378.22,783.77c-10.3-3.83-26.25,5.21-25.75,13.58Zm-28.33-11.6,23.21-10.33C363.65,757.1,351.51,762.35,349.89,772.17ZM443,959.33l29.21,3.07C464.5,954.91,453,953.45,443,959.33Zm47.16-30.48c-5.88-7-21.28-6-30.08,0Zm661.49-92.3c.71.83,1.41,1.67,2.12,2.51,13.76-3.6,20.7-10.08,17.65-17.4ZM490.3,936.82l.11-2L473.16,932c-.84,4.41-1.56,8.19-2.27,12,3.8-.86,10,4,8.8-4.35C479.63,939.17,486.6,937.77,490.3,936.82Zm651.13-167.55c11.94-6.43,21-11.86,24.39-23.53-7.06,5-14,9.61-20.63,14.75C1143.62,761.72,1143.34,764.6,1141.43,769.27ZM458.9,920.49h29.42C485.05,914.72,474,914.55,458.9,920.49Zm77.88-359.65c-2.76-8.89-4.84-15.57-7-22.61C523.5,544.49,526,554.64,536.78,560.84ZM344,722.36,362.61,716l-.43-2.77c-5.32,0-10.71-.48-15.89.38C345.18,713.84,344.88,718.87,344,722.36Zm36.22-81.87-9.37-22.67C367.44,624.6,371.16,634.32,380.25,640.49ZM369.2,730.7c11,1.89,17.06-3.71,14.62-13.05Zm581.46-94.82,31.69,9.85C975.15,632.88,961.5,639.29,950.66,635.88Zm-599.4,54-1.63-2.23-11.89,1c.88,3.72,1.55,6.51,2.72,11.44Zm12.75,2.6c9.76,6.51,13.87,5.24,17.48-4Zm348.61,280,1.26-3.07-22.27-9.26c-.42,1-.84,2-1.27,3.08Zm534.22-35.33-13.62,8.65h18Zm-164.18-21.26,3.93,2.31c1.85-2.92,4.09-5.68,5.29-8.84.31-.84-2.61-2.89-4.05-4.39ZM356.78,669.61l3.17,5.51c10.45-4.71,10.45-4.71,5.41-11.57ZM1233,950.79c-.27,1.32-.53,2.64-.8,4l18.19,4.38c.29-1.2.57-2.4.85-3.61Zm24.14-11.22c5.92,5.21,12,9.37,19.45,4.83.11-.93.23-1.86.35-2.79Zm-112.2-186.46c7.74.38,16.32-9.67,13.8-15.88ZM266.28,675.89l2.33.29V652a4.73,4.73,0,0,0-2.29,3.77C266.22,662.5,266.28,669.2,266.28,675.89ZM389.1,764.61l-1.2-4.41L373,765.11l1.06,3.66Z"/><path d="M1072.18,172.81l10.23-5.72-.08-2.6-12.15-.65c-.3-.67-.61-1.33-.91-2l14.37-8.7c-6.68-8.32-10.22,1.76-15.85,2.61l-2.25-3.42-13.31,2c.75-1.75,1.5-3.51,2.07-4.82-6.48-.83-15.34-1.9-24.19-3.13-33.5-4.64-66.93-9.81-100.49-13.87-35.26-4.26-70.07-11.81-106-11.81-17.6,0-35.13-5.59-52.83-7.37-10.1-1-20.47.69-30.72.87-9.71.17-19.44.1-29.15-.15-15.75-.41-31.52-.55-47.22-1.74-17.92-1.36-35.75-3.77-53.64-5.63a36.92,36.92,0,0,0-6.1.32l-.47,2.24L624,113.86l-.29,1.25-30.15-4.4c.07-.85.15-1.71.22-2.56l5-.31c-19.09-11.21-39.91-9.3-62.85-8.6L574,107.31l-.27,1.41-33.84-4.44-.52,1.33,39.72,12.44L578,121.18,517.51,103c.27-.9.53-1.8.8-2.71l11.05,3.67c2-3.57,3.81-6.84,6.47-11.59-7.87-.36-14.89-.79-21.92-1-21.52-.57-43-1.74-64.56-1.28-12.75.27-25.41,3.53-38.18,4.78-11.06,1.1-22.47,0-33.27,2.16-13.64,2.73-26.87,7.64-40.18,11.9-9.51,3-19.14,6-28.19,10.1-6.12,2.78-11.33,7.56-16.94,11.45-3.34,2.31-6.64,4.69-10,6.94-2.43,1.6-5.86,2.44-7.34,4.64-6.64,9.86-16.57,8.94-27.91,7.62,1.92-2.29,3.4-5.29,5.82-6.77,25.54-15.63,52-29.35,80.27-39.55,22.53-8.13,44.93-14.79,69.44-14.27,20.3.43,40.65-2.45,61-3.39,25.34-1.16,50.69-1.64,75.73,3.58,23.18,4.83,46.24,10.34,69.52,14.68,11.69,2.17,23.72,2.84,35.64,3.37,16.44.74,32.92.73,49.38,1,17,.25,34.06.67,51.08.56,23.46-.16,46.77.5,70.05,4.38,14.36,2.4,29.14,2.21,43.71,3.48,7.33.65,14.61,1.89,21.9,3,42.17,6.4,84.23,13.72,126.55,19,38.28,4.78,76.7,9.36,115.48,7.61,17.42-.79,35-2.54,52.25-1.32,13.49,1,26.79,5.49,40,9.07,9.81,2.65,19.34,6.31,29,9.55q21.39,7.19,42.77,14.43c.54.18,1.33.54,1.44,1,2.1,7.7,4.11,15.42,6.14,23.13l-3.25,1.14c-1.31-2.65-3.65-5.26-3.75-7.95-.45-11.43-8.76-14.54-17.41-16.72-13.75-3.47-27.68-6.18-41.53-9.27a9.57,9.57,0,0,1-3.11-1.48c-8.45-5.79-15.47-5.29-21.49,3.87-1.55,2.35-5.23,3.31-7.94,4.91l-1.6-2.57,13.3-11c-2.58-2.82-3.38-4.55-4.47-4.76-15.23-2.94-31.07-9.69-45.63-7.6-28.1,4-57.92,5-82,23.85-.49.39-1.67-.11-2.53-.2Z"/><path d="M1583.14,213.51c-10.71,14.13-4.5,28,15,31.78-.36-1.75-.65-3.19-1.51-7.39,2.84,2.66,3.94,4.06,5.36,4.94a76,76,0,0,0,7.28,3.45c-8.23,1.72-14.53,6.66-23.07,5.37-7.32-1.11-10.34,4.8-14,10.08a19.69,19.69,0,0,1-10.2,7.08c-6.44,1.81-13.31,2.12-20.43,3.11,3.52-4.51,7.15-8.64,14.78-6.91,4.78,1.08,10.56,2.72,13.17-6l-12.8,3.14c-.22-2.91-.4-5.42-.65-8.89l-7.45,9.24-1.51-.55q.56-3.9,1.09-7.82l-1.31-.54c-2.47,4-4.2,8.91-7.64,11.71s-8.39,3.17-12.92,3.79c3.69-7.1,12.62-10.82,8-20.7h8L1535.8,262c8.47-8.08,10-13.23,7.55-21.26l8.62,4.41c-.76,1.29-1.78,3-2.79,4.77l2.66.73c.55-3,1.5-5.92,1.5-8.88,0-1.76-1.48-3.52-2.3-5.29l1.83-1.29c1.19,1.83,2.29,3.72,3.6,5.46s3,3.53,4.45,5.29l1.88-1.18c-.94-2.76-1.88-5.51-3.1-9.06l5.41,3c-.69-2.31-1.21-4.09-2.06-7l5.14,3.42c.19-2.5,1-4.71.32-6.21-1.55-3.33-3.63-8.72-5.92-8.95-5.95-.58-12.23.76-18.18,2.16a28.42,28.42,0,0,0-10.2,5.08c-3.44,2.58-6.21,6.05-10.5,10.37-7.43-1.95-17.6-5-28-7.1-2.81-.59-6.8.64-9.16,2.46-5.41,4.19-9,.39-13.54-1.43a22.69,22.69,0,0,0-10.75-1.3c-1.35.15-2.32,3.62-3.68,6l-4.57-4.87-2.85,5.62-8.47-7.3,1.34,8.2-8.43-3.7c.18,2.58.36,5.16.59,8.51l-4.08.56c-.5.53-1,1.07-1.48,1.6l7,3-7.5,9.05c-2.46-6-3.42-13.16-7.52-16.87-3.81-3.46-11-3.23-16.64-4.62-.48.81-1,1.62-1.42,2.43l-4.42-7.9c-.29.58-.67,2.2-1.2,2.25-4.81.46-6.1.83-3.79,6.8,2.67,6.91,2.34,15.24,1.93,22.88-.1,1.86-5.62,3.43-8.65,5.14l-3.07-4,9.06-3.12c-6.46-5.61-8.58-9.94-3.55-12.09-2.84-5.61-5.21-10.44-7.73-15.18-1.84-3.45-3.9-6.78-5.86-10.16l-3.18,1.16c.47,10.07.94,20.15,1.49,32.06l-9.17-12.14c.93-2.06,4.94-6.72,3.9-9.49-2.53-6.76-7.39-12.63-11.32-18.86l-2.48.37-2.19,35.4-.93.08c-1.34-7.51-1.81-15.31-4.27-22.43-2.59-7.49-7.08-14.31-11.77-23.4-1.75,8.2-3.05,14.27-4.35,20.34l-2.26,0c-6-20-24.39-28.36-39.37-39.91q1.17-1.87,2.32-3.75c6.31,2.7,12.58,5.5,18.93,8.08,12.76,5.17,25.71,9.9,38.3,15.46,6.9,3.05,12.93,8.12,19.88,11,8.28,3.46,17.06,5.77,25.72,8.24,19.79,5.64,39.32-.68,59-1.5,10.55-.44,21.36-1.56,31.65.13,16.69,2.73,31.21-3.08,46.07-8.41,6.26-2.24,12.75-4.24,18.45-7.53,5.36-3.09,9.73-7.85,14.69-11.67,8.18-6.3,15.74-14.22,27.38-13,5.09.53,10.08,1.94,15.11,3-.49,1.44-1,2.88-1.46,4.32-2.35-1.54-4.54-3.94-7.08-4.4-2.79-.51-6,.42-8.84,1.39-2.65.91-5,2.7-7.49,4.1l1.17,2,8.54-2.58c.22,1.06.45,2.12.67,3.18l-17.44,3c-1.23,5.91-2.76,13.28-4.29,20.65l2,1,9.58-14.51,2.2,1.13-3.6,8.92Zm-22.57-1.77c7.68,2,10.71-1.69,11.06-8.83h-9.69C1561.43,206.21,1561,209,1560.57,211.74Z"/><path d="M1543.39,340.08,1535,354.8c-3.94-1.62-6.43-14.18-2.38-20.08,2.69-3.92,6.55-7,9.92-10.48q9.32-9.51,18.68-19l-1.79-1.73-35.84,31.7c2,2.29,4.69,5.11,4.5,5.32-4.27,4.8-8.87,9.32-13.4,13.89l-2.77-2.16,10.25-21.35-1.7-.94q-3.93,6.13-7.84,12.29l-2.88-1.58c1.66-3.63,3.31-7.25,4.63-10.16L1494.12,339l-1.32-2.24c1.39-2.65,2.77-5.31,4.55-8.71l-8.06,1.79,8.22-12.48-10,2.48c3.57-5,6.09-8.48,8.6-12-5.09,3.17-14.7,2.23-9.91,14l-4.37-1.4c-.38-3.36-2.25-7.56-.91-10,7.9-14.12,18.68-24.06,36.18-25.84,7-.71,13.5-6,20.64-9.33-3.58,7-8.38,11.72-17,12.91-6.92,1-13.62,3.54-21.29,5.65,3.62,4.2,5.8,6.75,8.16,9.49,2.1.2,4.93.66,7.76.68,3.7,0,8.91,4.93,10.48-3.08.11-.6,3.12-1,4.73-.87,12.73,1.17,23-4.46,32.62-11.75,1.14-.86,1.07-3.31,1.79-5.86l6.56,4.31c-.29-2.21-.53-4-1-7.33l10.2,7.61,15.33-16.16,1.75,1.4-10.75,12.51,10.08.59c-.29,1-.34,2.34-.75,2.46-17.51,5.25-20.13,22.27-24.65,35.54-3,8.76-5.34,13.6-16.63,14.54l7.42,4.27q-7.58,12.61-15.14,25.18L1545,366.3c3-6,6-12,9.4-18.83l-6.52,2.14Zm9.55-16.93c7.88,1,18-12.72,18.2-28.48Z"/><path d="M1649.77,247c2.12.2,5.36-.41,6.17.72,5.5,7.72,9.92,16.25,15.78,23.66,8.72,11,17.69,21.77,21.66,35.61.8,2.79,1.9,5.74,1.68,8.52-1,12.77,6.18,22.65,12.29,32.32,8.3,13.12,18.62,24.95,27.83,37.51q13.42,18.29,26.34,36.95c4.61,6.62,6,13.79,1.46,21.09-1.85,3-5.15,5.28-6.2,8.43-5.18,15.41-19.81,18.26-31.88,24.08-7.65,3.69-16.31,5.27-23.8,7.58-1.87-3.51-3.21-6.05-4.77-9l14.94-1.12c-.08-1.55-.23-4.69-.5-10.17-6.11,12.09-10.23.95-15.55,1.88-.16,1.55-.34,3.25-.63,6l-4.23-4.56c.21-.88.41-1.76.62-2.65h45.86l-6.78-4.91,15.35-1.21-.12-2.57h-10.23l-.32-1.73,19.63-6.91-6.38-4.42c1.61-3.35,3.13-6.49,5.14-10.66l4.4,6.53,2.51-.67c-1.49-4-2.41-8.27-4.62-11.77-2.82-4.46-6.68-8.27-10.18-12.46-.16.74-.48,2.16-1.45,6.53-1.81-4.7-3.76-7.19-3.43-9.33,1.57-10.11-6.57-15.26-11.09-21.94-11-16.31-24.11-31.34-34.12-48.21-5.28-8.89-5.21-20.79-8.74-30.91a137.16,137.16,0,0,0-12.11-25.85c-7.6-12.48-16.29-24.28-24.51-36.37Z"/><path d="M1675.5,221.63c.86-3.31,1.42-6.79,2.75-9.94a5.94,5.94,0,0,1,4.2-2.8c2.89-.34,5.88.13,9.17.28v2.93l1.69.85,9.25-13.32,2,1.32-6.45-12.16a5.76,5.76,0,0,0-3.66-.26c-1.2.43-2.33,2.78-2.39,4.31-.14,4,.33,8,.56,11.93l-3.53.49-7.25-16.85,7.54-1.81-7.63-2.28,27-12.36-4.1-1.57c12.08-11.8,23.76-23.58,35.93-34.81,2.78-2.56,7.21-3.74,11.08-4.54,1.6-.33,4.12,1.69,5.44,3.29.42.5-1.32,4.13-2.63,4.55-13.17,4.2-16.28,15.67-20.13,26.78-9.68,27.93-28.27,46.88-56.68,55.8A5.44,5.44,0,0,1,1675.5,221.63Zm38.38-42.41,2.67,1.27,7-9.7-9.66-4.14Z"/><path d="M1309.57,897.88l-4.89-6.52,1.79-2.39c7.36,4.8,14.67,9.68,22.1,14.35,7.67,4.82,15.41,9.66,25.09,6.75l.47-2.38-18.54-2.82,6.47-6.93,20.64,4.65,4.85,9.72c-6.52.77-12.73,2.31-18.87,2.06-13.62-.57-27.79-4.94-40.61-2.3-11.68,2.42-21.32-6.78-32.34-1.88-1.44.64-4.49-1.69-6.48-3.08-4.49-3.14-8.78-6.56-13.15-9.86,2.83-3.5,2.91-3.65,11.89,1.38,4.28,2.39,8.17,5.46,12.24,8.22l1.56-2.24-5.9-5.31c10-1,16.25,10.64,28.16,5.22l-14.76-4c-.13-.73-.25-1.47-.38-2.21,3.16-.36,6.37-1.24,9.47-.94,3.49.34,6.88,1.74,10.32,2.68Zm2.36,3.07-1.35,4.71,18.33,4.27c.23-.9.47-1.8.7-2.7Z"/><path d="M573.7,283.32l7.8-7.07,1.9,1.42-8.81,16.41,9.61-4c-8.89,18.92-16.77,35.72-24.66,52.51l-2.65-.53c.24-3.95.49-7.89.78-12.7l-6.76,3.91,16.5-34.34-3-2q-8.39,12.88-16.76,25.79l-1.15-.66,28.18-54.92c-11.46,2-11.77,12.16-16.08,19.15s-7.55,14.52-13,20.88l32.07-71.47.75.21c-2.21,8.27-4.41,16.54-6.78,25.44l6.7-.84c-2.35,7.84-4.49,14.95-6.62,22.06Zm-.38,14L560.06,324.8C569.78,318.82,576.56,305.18,573.32,297.33Z"/><path d="M1225.62,643.61l16.3-3.62c.24,1.12.47,2.25.71,3.37-16,5.95-31.85,12.16-50,10.13L1203,655.2l-.09,2.19h-16.14c-3.72,17.8-5.46,19.39-21.9,20.31-1.7,5.58-3.44,11.32-5.18,17.06l-2.29.23c-.5-1.77-1.75-3.73-1.36-5.28,1.86-7.34,5-14.45,6.12-21.87,2.12-13.77,6.25-14.89,20-14.36,2.28.09,4.55.33,8.54.63-2.71-2.49-4.15-3.82-5.82-5.34l37.85-5.81c-.39-2-.77-4-.9-4.71l28.66-10.94,1.34,2.57c-7,7.43-17.86,8-27.17,11.41C1225,642.07,1225.29,642.84,1225.62,643.61Zm-44,21.25c-4.21-2.59-7.64-5.57-8.4-5a21.91,21.91,0,0,0-6,8c-.27.55,3.74,4.43,4.62,4.05C1174.76,670.66,1177.24,668.17,1181.6,664.86Z"/><path d="M700.25,577.47c4.79-2.64,9.36-5.88,14.44-7.71a21.82,21.82,0,0,1,11.95-.67c1.79.43,2.66,4.67,3.26,5.86-5.66-.36-10.58-2.16-13.76-.54-5,2.56-4.83,7.53-.27,12.24l7.42-3.85c4.11,7.92,3.23,9.91-4.22,10.78-3.51.4-7,1.28-10.35,1.92.26-2.43,1-5.29.75-8.07-.22-2.53-1.52-5-2.69-8.47l-10.49,8.27c2-3.9,2.89-5.73,3.82-7.56l-.86-1.12-8.59,6.39c-3.92-11.46-10-3.06-15.07-2.08-3-12.13,11.11-32.83,31.73-45.29L686.53,555.3c12.08,8.15,12.08,8.15,27.45-2l-17.34,19.9Z"/><path d="M646.57,548.13c-.18,1.18-.36,2.36-.55,3.54-10.42-1.69-12.41,6.06-15.1,13.27-.88,2.37-2.57,4.45-3.9,6.65l-3.56-1.75L637.62,538c-7.89-1-16-2.42-24.07-2.85-2.23-.12-4.61,2.65-6.93,4.09L611,544l5.13,5.7c-16.62-4.85-17.71,7.67-22.64,15.62l-2.18-1c.35-2.08.28-4.35,1.11-6.22,4.69-10.49,9.54-20.9,14.47-31.28.64-1.35,1.84-3,3.11-3.39,11.13-3.2,22.34-6.13,33.53-9.14l.65,2.43-36.82,10c5.21,3.52,8.73,4.41,14.13,1.07,4.73-2.92,11.1-3.27,16.79-4.56,10.48-2.38,21-4.63,31.5-6.93l.71,3-49.06,10.48,0,2.71c4.28.22,8.66,1.11,12.84.53,13.52-1.89,27-4.33,40.44-6.55.13.78.27,1.56.41,2.34-6.47,1.32-12.95,2.6-19.41,4-12.06,2.55-12.06,2.56-17.07,16.24l8-.91Z"/><path d="M1675.16,310.34c.82,11.68-4.2,17.56-14.25,19.05-2.2.32-4.26,1.68-6.46,2-5,.78-10.13.4-10.59-5.88-.39-5.51-3.09-5-6.6-3.94a47.4,47.4,0,0,0-5.46,2.44c-.87-2.51-1.74-5-2.79-8.07-8.29-1.3-12.69-3.88-13.82-8,4.51.49,9.54,2.19,13.93,1.16,4.05-.95,7.41-4.83,11.07-7.42l-.69-2.72,21.57,6.63c.14-2.36.35-5.93.56-9.5l.3,0-.73,14.8,8.63-8.65c2.64,9.08-1.65,14.72-9.72,18.25,5.21,4.3,7,4.38,10,0C1672.17,317.41,1673.49,313.75,1675.16,310.34ZM1648.94,325l1.67,2c2.31-2,5.94-3.75,6.55-6.21s-1.87-5.6-3-8.45a10.12,10.12,0,0,0-3.68,6C1649.94,320.56,1649.46,322.8,1648.94,325Z"/><path d="M587.43,132l-7.86,31.61-3.11-.59c1.7-8.58,3.4-17.15,5.32-26.86L572,134.07c-.43,3.34-1,6.66-1.28,10-.66,7.42-1.19,14.85-1.9,23.88l-9-12.84-7.77,14.52c-2.18-4.51-7.34-7.73-1.92-14.43A48.63,48.63,0,0,0,558,140.59c.72-2.06-1.76-5.22-2.8-7.92h6.75c.32-.69.65-1.39,1-2.09L551.67,123c7.45.48,14.88.14,20.76,6.18C576,132.76,580.08,137.65,587.43,132Z"/><path d="M178.88,525c-4.37,6.8-8.88,6.83-13.95,4.56-3.41-1.54-5.19-7.24-10.44-4.1-.69-1.43-2-2.88-2-4.29.13-4.35,1.31-8.72,1.1-13-.58-11.5,1.6-22,11.44-28.93,3.3-2.32,9.05-3.52,12.65-2.26,2.77,1,5.52,6.6,5.47,10.12-.16,11.51-3.67,22-13.78,29.09-1.87,1.32-3.12,3.52-4.66,5.32a69,69,0,0,0,6.92,2.73C173.47,524.74,175.44,524.67,178.88,525Zm-10.6-21.95c.28,3.34.41,4.84.54,6.34l2.7.45c1.91-7.51,4-15,5.54-22.55.33-1.64-1.13-4.71-2.57-5.37a8.18,8.18,0,0,0-6.53.62c-6.66,3.9-10.63,19.07-7.23,26.73Z"/><path d="M949.23,905.25c-11.82,0-23.65.37-35.45-.07-36.07-1.34-72.12-3-108.12-6.07,48-4,95.82.25,143.67,2.26Z"/><path d="M539.28,495.72c-3.3,4.4-.8,12.24-9,11.49-4.33,7.14-8.4,13.87-12.48,20.59.28-14,.54-27.79,13.24-37.51-.5,4.68-1,9-1.7,16,4.74-9.87,8.3-17.27,12.47-25.93l-9.06-6.52,1-1.77,12,.58c1.17-10.92,2.3-21.48,3.43-32.05l3.1,0c.36,6.6,1.75,13.34.84,19.76A185.84,185.84,0,0,1,546.16,489C545.33,491.7,541.65,493.51,539.28,495.72Z"/><path d="M797.27,975.62H733.05l-.23-3.2,10.73-2.1L720.68,960l.73-1,52.84,4.23c-2.28,6.15-2.25,6-11,4.27a55.59,55.59,0,0,0-14.72-.87C762.8,976.33,780.53,967.11,797.27,975.62Z"/><path d="M335.1,445.08c.55-4.83,1.11-9.67,1.71-14.84l-8-1.78c-1.16,3.44-2.29,6.8-3.19,9.49l-5.27-9.83-2.56,1.08c-1.11,2.82-2.23,5.64-4.11,10.4-.22-10.67-2.64-18.44,3.09-27.33,4.34-6.74,8.64-6.44,13.51-5.32,1.75.41,2.41,6.32,3.22,9.8a55.48,55.48,0,0,1,.76,7.44,60.73,60.73,0,0,0,5.7-5.88c1-1.28,1.12-3.16,3.34-4.42q-3.15,15.78-6.32,31.55Z"/><path d="M1592.36,474.86c-9.55-.37-19.1-.67-28.65-1.11-8.53-.4-17.38-2.59-25.52-1-10.4,2-20.24,7-30.31,10.7-1.07.4-2.09.91-4.75-.08,1.77-2,3.17-4.61,5.36-5.74,16.63-8.6,34.3-13.11,53.09-11.45,4.77.42,9.3,3.25,14.09,4,3.43.57,7.11-.42,10.68-.71.41-1,.81-2,1.22-2.95l4.76,8.29Z"/><path d="M720.86,919c-19.39,8.68-37.12,2.19-54.44,2.58v3l80.89,5.13-.14,1.75c-7.39,0-14.8.26-22.18,0q-30.81-1.32-61.61-3.14c-1.2-.07-3.35-2.19-3.22-3.1.27-2,1.33-5,2.76-5.48A42.27,42.27,0,0,1,675,918c12.87-.2,25.74-.09,38.6,0C715.24,918,716.85,918.4,720.86,919Z"/><path d="M1353.7,465.19c-10.32,17.05-20.63,34.11-32.12,53.09l-3.41-9c-2.92,4.28-5.77,8.45-8.61,12.63l-1.61-.66c.15-1.41-.1-3,.51-4.2,1.36-2.59,3.25-4.9,4.74-7.43,4.62-7.87,11.12-14.86,8-25.58-1.14-4,1-8.87,1.71-13.35h2.84c.34,4,.68,7.95,1,12.15l6.37-3.31c.76,8.94-11.51,13.13-6.68,23.65l24.43-39.82Z"/><path d="M1121.44,412.68l-19.5,16c4.33-.38,6.45-1.18,8.06-.58,4.49,1.65,10.78,2.76,12.66,6.14,2.88,5.15-4,15-10.43,14.41-10.89-.92-10.47,6.44-12.21,13a66.37,66.37,0,0,1-3,7.71l-2.4-1q2.94-15.15,5.89-30.3c.28-1.44,1.37-3.22.86-4.23-1.81-3.65-4.46-7.2-.14-10.64,5-4,10.17-7.62,15.37-11.27C1117.05,411.59,1118.2,412.16,1121.44,412.68Zm-4.2,21.27c-11.18-1.49-12.16-.63-11,9.64C1115.69,445.22,1117.52,443.62,1117.24,434Z"/><path d="M992.13,758.3c-12.48,3.25-10.48,14.08-18,19.45,1-5.8,1.93-11.6,3-17.9-9.85.71-9.81,8.32-12.56,13.74-.95,1.87-3.1,3.13-4.71,4.66a47.52,47.52,0,0,1,.13-6.65c.21-1.39,1.26-2.64,1.85-4,1.92-4.43,2.83-11.69,5.89-12.74,6.54-2.24,14.25-2,21.35-1.4,8,.72,10.84,6.6,7.45,13.71-1.74,3.65-4,7-6,10.55l-2.43-1C989.27,771.11,990.52,765.52,992.13,758.3Z"/><path d="M355.75,299.27c10.48,5.1,15,2.76,15.12-8.26-6.42-.27-13.39.27-12.27-10s5.16-13.29,23.84-14c-3,12-5.18,23.83-9.17,35-1.06,3-7.51,5.25-11.64,5.52-2.6.16-5.48-4-8.23-6.22ZM378.4,275c-3.87-2.17-6.7-4.23-7-3.87A78.36,78.36,0,0,0,362.62,282c-.21.3,3.84,4.09,4,3.94C370.19,283,373.47,279.75,378.4,275Z"/><path d="M387.56,200.26l20.88-18.07,2.07,1.59c-1.78,3.37-3.57,6.73-5.5,10.36l5.27,4.37c-2.1,1-4.49,1.73-6.21,3.2-2.28,1.94-5,4.2-5.84,6.86-2.43,7.46-4,15.21-6,22.79-.31,1.14-1.61,2-4.61,2.39,1.34-7.86,2.68-15.72,4.08-24l-11.15,2.36,5.77-12.43Z"/><path d="M542.6,280.76c7-16.07,12.89-32.35,15.11-49.6l-2.8-.86c-1.16,3.4-2.32,6.79-3.22,9.41-2-2.37-4.53-4.67-6.2-7.47-1.78-3-4.64-7.23-3.7-9.6,2-5.09,6-9.47,9.75-13.67.27-.29,5.73,2.76,7,5.18.63,1.2-2.3,5.12-4.43,6.73s-5.41,2.06-8.18,3c.55,1.28,1.34,3.71,1.6,3.65a43.76,43.76,0,0,0,9.55-2.81c1.64-.76,2.69-2.79,5-5.38C560.67,242.26,553.67,262.15,542.6,280.76Z"/><path d="M399.07,665.42l-1.8,5.94-1.64-.09-1.32-28.81,2.78-.32c.42,5.36.85,10.72,1.19,15l13.77,3.65-6.31,6.32,19.07,16.59c-2.13,4.43-4.31,8.94-6.49,13.49-4.11-7.54-7.65-14-11.25-20.65l-5.35,5.64V665.66Z"/><path d="M770.41,371.13c0,2.33.66,4.91-.11,6.95-3.29,8.76-7.27,17.26-10.48,26.05-2.64,7.24-7.35,11.7-14.42,7.78-3.58-2-6.77-8.28-6.63-12.5.22-6.59,4.85-13.9,12.19-12.08,10,2.48,11.08-3.95,13.76-9.75,1-2.24,1.82-4.59,2.72-6.89Zm-11,26.93c-4.3-2.89-8-5.94-8.4-5.57a39.16,39.16,0,0,0-7.49,10c-.34.66,4.42,5.16,4.94,4.83C751.77,405.25,754.55,402.35,759.41,398.06Z"/><path d="M645.19,559c2.74-1.7,5.28-4.22,8.26-4.93,8.17-1.95,11.2,4.46,14.57,10.24-7,3.77-8.83,8.73-.49,17.09-10.08-1.7-17.53-2.64-24.76-4.47-1.29-.33-2.92-5-2.17-6.56,1.34-2.84,4.1-5.33,6.82-7.1,1.38-.9,4,.27,6,.14a26.4,26.4,0,0,0,6-1.22c.15,0-.18-3-.48-3a18.39,18.39,0,0,0-6.49,0c-1.84.43-3.45,1.82-5.17,2.78Z"/><path d="M1049.9,777.71c-4.86,0-11.5.15-18.12-.11a6.63,6.63,0,0,1-4.42-2.46c-3.4-4.6,5.33-21.06,11.24-21.5,8.62-.63,11.45,3.05,9.79,11.42C1047.75,768.26,1049.12,771.85,1049.9,777.71Z"/><path d="M672.68,386.45c-4-10.06-9.24-3.55-14-3.39-.39-6.23,3.46-7,8.2-6.8s9.09,1,9,7.07c0,2.3-.86,4.59-1,6.9-.17,3.66,0,7.34,0,12.47-3.54,0-9.54,1.13-14.71-.43-3-.93-6.76-6.17-6.71-9.4.1-5.4,4.38-8.68,10.56-7.62C666.5,385.67,669,386,672.68,386.45Z"/><path d="M1136.55,447.46l-13.21,5.48-1.53-2.22,13.24-9.51,3.39.66c.77,4.62,1.68,9.23,2.28,13.88.47,3.65.56,7.36.91,12.31-4.18.43-10.68,1.74-17.1,1.43-2.32-.11-4.45-4.13-6.66-6.36,3.6-2.85,6.83-6.65,10.92-8.23C1132.09,453.62,1137.3,456.35,1136.55,447.46Z"/><path d="M288.13,252.54c3.44,8.47-1.74,12.55-6.52,16s-9.91,2.3-13.51-2.06c-9.12-11-15.29-22.42-3.1-37.79C276.45,232,276.45,232,275.82,236c-5.23,2.2-11,2.78-12.52,5.64-3.26,6,4.51,18.5,12.32,21.54C285,266.81,283.28,256.75,288.13,252.54Z"/><path d="M1365.33,367.09c-7.12-7.88-11-7.21-15.26,2.7-.8,1.88-2,4-1.81,5.83.52,4.57,1.77,9,2.72,13.55,3.65-1.62,7.29-3.26,10.94-4.87.77-.34,1.58-.6,3-1.16.94,8-4.79,11.19-9.91,12-3.37.56-9.19-2.57-11-5.72-5.17-9.09.83-28.05,10.26-32.67,3-1.47,8.23.06,11.69,1.75,1.69.83,1.65,5.17,2.4,7.93Z"/><path d="M621.22,933l105.23,5-.11,3.49-105.23-4.69Z"/><path d="M728.13,601.32c7.28-14.27,15-29.33,22.63-44.39l1.65.08c-.83,4.08-1.65,8.16-2.54,12.53,18,3,6.89,14.74,5.88,24l8.25-4,.56.88-8.18,8.26c-6.58-3.71-5.14-8.34-2.74-13.94,1.23-2.89.05-6.81,0-10.27-3.29,2.3-9.1,4.28-9.44,7C742.74,592.64,734.18,596.68,728.13,601.32Z"/><path d="M1331.2,680.73c2,7.19,4.89,8.57,10.15,5.86,1.54-.79,4,.11,6,.24-.87,1.68-1.46,3.6-2.66,5-4.69,5.41-11.54,4.35-14.81.56-2.93-3.39-3.7-10.6-2.33-15.22,1.56-5.29,5.35-12.13,13.34-8.62,2.84,1.26,4.58,5,6.83,7.61-2.82,2.05-5.43,4.6-8.55,6C1337.49,682.83,1335,681.47,1331.2,680.73Z"/><path d="M871.53,965c-25.63,2.33-51.29,4-77.08,1.16,0-1-.07-1.93-.1-2.89l76.74-2.72C871.23,962,871.38,963.5,871.53,965Z"/><path d="M1514.34,416.71c4-12.77,8-25.55,12.19-38.95l6.35,5.63V363.61l3.67.38c-.86,15.82-1.72,31.64-2.56,47.28-3.93,2.82-1.86-11.56-8.13-.35,1.77-9,3.17-16.05,4.57-23.13l-2.22-.57q-5.67,15.38-11.33,30.77Z"/><path d="M394.78,347.61c-5.09-8.86-11.13-6.34-14.86-.62s-5.5,12.7-7,19.4c-.34,1.49,4.19,5.9,6.21,5.73,4.22-.35,8.26-2.85,12.38-4.47-.23-1-.47-2-.7-3.08l-8.47-1.9,0-1.93,13.37-1.05c-.25,11.29-5.4,16.75-14.61,16.48-8.88-.26-12.28-5.19-11.89-15.62.31-8.3,3.49-15.21,10.08-19.53,3.4-2.23,8.76-2.29,13.08-1.86,1.74.18,3.08,4.3,4.61,6.62Z"/><path d="M848.09,918.8c29.07,4.36,58.85-5,87.67,4.47C906.64,919.77,877,927.34,848.09,918.8Z"/><path d="M395.18,495.15c-3.68-2.5-8.58-7.11-9.66-6.34-3.92,2.78-7,7.1-9.51,11.38-1.49,2.58-.76,6.35-1.87,9.28-2.11,5.58.13,10.13,4.84,11.08,3.31.66,7.46-2.82,11.23-4.45l-.87-2.53L381,510.23l.24-1.57h13.31c.42,1.26.85,1.84.72,2.24-2.47,7.38-6.24,13.8-15.13,13.35-2.81-.14-6.3-2.49-8-4.88-4.85-6.66-4.55-13.94.74-20.23,4.18-5,8.53-10.75,14.12-13.38C393.92,482.5,397.09,486.73,395.18,495.15Z"/><path d="M1361.92,517.27,1386,502.9l-2.23-4.08c9-3.49,17.54-7,26.27-9.84,1.15-.37,3.49,3,5.57,4.87-1,.71-1.65,1.59-2.23,1.54-11.55-1.14-16.86,8.09-24.65,13.79-6.85,5-15.85,7.11-24,10.31C1364.26,519.69,1363.1,518.22,1361.92,517.27Z"/><path d="M1121.68,649.25l13.71-6.3c.3,8.2-5.37,10.32-10.38,10.82-4.82.48-9.75-1.34-10.21-8.2-.54-7.92,6.2-17.94,13.4-17.84,2.49,0,4.94,2.9,7.41,4.47-1.61,2.36-2.74,5.43-4.93,6.87s-5.66,1.46-9,2.2Z"/><path d="M430.93,284.72l4.49,3.42c-5,.59-8.34,1.52-11.62,1.26a49.7,49.7,0,0,1-12.56-2.88c-.39-.14.07-6.53,1.62-7.42,3.67-2.1,8.23-2.62,12.43-3.78.62.78,1.23,1.56,1.85,2.33.27-2.5.53-5,1-9.3l-11.77,5.26-1.44-1.24c2.28-2.07,4.26-5.13,6.92-5.94s8.48.14,8.67,1.15C431.45,272.35,430.93,277.39,430.93,284.72Z"/><path d="M883.49,779.82c2.68-10.18,5.35-20.36,7.84-29.81l-9.58-5.49c.42-1,.84-2,1.25-3,7,0,14-.17,20.92.14,1.53.07,3,1.88,4.47,2.89-1.31,1.34-2.69,3.88-3.91,3.81-7.42-.42-8.69,4.17-9.53,10a127,127,0,0,1-3.8,17.12c-.62,2.15-2.68,3.88-4.09,5.8Z"/><path d="M1665.67,474.85c-9.61-9.93-20.17-2.7-29.29-.11-12.66,3.59-24.57,2.95-36.93.59a57.14,57.14,0,0,0-7.08-.47l0,0c11-1.86,22.05-3.84,33.11-5.49,1.85-.27,4,.57,5.85,1.37,5.15,2.29,9.48,4.15,12.81-3.18,2.06-4.53,14-3.79,16.92.38,1.59,2.27,3.08,4.62,4.61,6.93Z"/><path d="M931,423a66.89,66.89,0,0,0-7.57-.56,14.52,14.52,0,0,0-5.89,1.31c-.61.3-.82,3.3-.23,3.74,1.93,1.44,4.25,2.92,6.55,3.17,2.64.3,5.43-.7,9.7-1.39-4.52,7.63-10.11,7.81-15.15,5.42-3-1.45-6.56-5.53-6.67-8.55-.18-4.57-.94-10.88,6.23-12.68,3.24-.81,6.63-4,9.35-3.36C934.61,411.77,934.76,416.88,931,423Z"/><path d="M788.94,416.11c-3.87.79-8.53,3.29-11.41,1.94-3.28-1.53-7.15-6.66-6.86-9.89a26.7,26.7,0,0,1,6.67-15c4.19-4.42,9.55-3.6,12.83,2.76,2.81,5.47,1.42,8-4.66,9-3.91.64-11.4-3.79-10.89,3.93.44,6.62,7.27,3.23,11.6,3.12.71,0,1.44.72,2.16,1.1Z"/><path d="M504,608.64c.18,4.38.18,4.38,14.08,3.8-2.64,2-5.62,6.08-7.83,5.69-4.33-.75-10.21-3-11.86-6.4-3-6.08.49-12.57,6.1-15.85,2.7-1.58,7.91-.66,11,1,1.39.75,1.66,7.47.09,8.91C513.29,607.87,508.88,607.61,504,608.64Z"/><path d="M1006.87,768.89c5,5.7,5,5.7,13.69,1.76l1.77,1.74c-2.5,2.31-4.71,5.18-7.62,6.69-1.75.91-5.1.44-6.88-.72-6.22-4-6.59-10.7-3.6-16.16,2-3.7,7-6.62,11.23-7.9,1.85-.56,5.21,3.87,7.88,6-2.15,2-4,4.61-6.52,5.93C1014.12,767.69,1010.8,767.93,1006.87,768.89Z"/><path d="M612.68,374.13l-6.85,18.4-2.72-.81a44.09,44.09,0,0,1,1.13-5.67c2.37-7.17,4.86-14.29,7.36-21.41,3.42-9.71,8.26-12.6,16.79-9.29,5.15,2,9.18,5.36,7.06,12-2.53,8-10.35,11.54-19.2,8.62A27.85,27.85,0,0,1,612.68,374.13Zm4.51-18.62c0,7.45-.66,11.91.45,15.87.29,1.05,6.58,1.65,9.16.43,2.18-1,4.66-6.85,4.1-7.36C627.6,361.45,623.44,359.38,617.19,355.51Z"/><path d="M1625.63,361.05l-11.16,1.75c2.59-5.47,7.56-8.05,12.35-5.69,5.94,2.92,4.07,7.13,2.19,11.95-.93,2.37.65,5.72,1.38,10.53-4.56,0-11.41.29-18.21-.24-1.4-.11-4-3.88-3.55-4.93,1.12-2.68,3.2-5.69,5.69-6.9,3.49-1.69,7.71-1.88,11.62-2.7C1625.83,363.56,1625.73,362.31,1625.63,361.05Z"/><path d="M725.09,188.72c-3.76-7.94-7.28-8.74-12.12-1.73a46.14,46.14,0,0,0-6.33,15.36c-.49,2.08,1.79,6.29,3.8,7.11,2.74,1.13,6.46.19,9.68-.36,1.61-.27,3-1.63,5.65-3.12-3.56,9.24-6.9,10.74-15.13,9.68-7.67-1-10.13-6.56-8.76-12.12,1.92-7.76,5.14-15.82,10.08-21.9,2.16-2.66,10-.95,15.17-.56.51,0,.67,4.75,1,7.29Z"/><path d="M936.05,913.72c20.29-8.72,40.34,3.79,61.33-1.27C992.47,920.1,942.51,920.14,936.05,913.72Z"/><path d="M1061.84,247.88c-.55,8,1,8.69,13.12,6.27-.56,6.54-4.37,8.53-10,7.75-6.24-.86-11.54-7.47-9-12.57,2.43-4.89,6.89-9,11.19-12.59,1.39-1.15,6.09-.38,7.48,1.14s1.39,5.55.32,7.61-4.09,3.36-6.49,3.85C1066.47,249.74,1064.14,248.45,1061.84,247.88Z"/><path d="M807.88,220.53c.1,8.39-6.16,6.13-10.43,5.94-7.35-.33-7.9-5.82-7.44-11.46.73-9,7.24-13.79,17.81-13.19,4.31,10.65,3.39,11.9-7.62,12.49-2,.1-3.84,2.74-5.75,4.21l1.41,2.59Z"/><path d="M1091.13,241.08c.62,10.2,17.54,10.28,7.74,20.72-3.47,3.71-9.6,5.15-14.38.86-3.19-2.87-6.66-6.51-2.26-10.23l11.2,7,2.18-3c-2.18-2-4.89-3.59-6.41-6s-3.41-7.57-2.62-8.15c3-2.26,7.12-4.39,10.67-4.17,2.76.17,5.36,3.84,7.83,6.17.26.24-.89,2.81-1.33,2.79a11.16,11.16,0,0,1-4.37-1.31C1097,244.58,1094.76,243.17,1091.13,241.08Z"/><path d="M1554.3,385.36c.87,1.32,2.63,2.8,2.43,3.92-.8,4.36-2.23,8.61-3.42,12.89l3.3,1.21q3.3-7.8,6.58-15.6c.42,5.52,5.06,10.83-1.61,16.31-3.44,2.83-4.9,8.57-6.28,13.27-2.2,7.52-6.77,7.21-12.93,5.51,3.58-2.61,7.52-4.19,9.21-7.08s1.2-7.18,1.66-10.85l-2.64-1-9.55,10.71-1.62-.74c1.77-3.48,2.74-8.9,5.49-10,6.16-2.55,6-7.15,6.54-12Z"/><path d="M350.4,201.14c-2.09,8.27-8.39,14.88-14.1,14.59-5.43-.28-10.82-6.85-10.8-13.15,0-7.49,7.23-16.35,12.57-13.94C343.05,190.88,346.36,196.82,350.4,201.14ZM337,212.66c2.9-5.15,5.86-8,5.38-10.13-.67-3-3.87-5.4-6-8.06-2,2.18-5.73,4.48-5.6,6.52C330.94,204.14,333.8,207.12,337,212.66Z"/><path d="M396.49,136.59l-8.16,13.17c9.77,6.67,9.52-3.1,13.44-8,3.1,7.18.23,11.39-4.48,14.53-5.67,3.78-10.31.75-13.64-3.78-4-5.51-6-12.16-1.12-17.84C387.05,129.4,391.94,132.42,396.49,136.59Z"/><path d="M444,279.66c.65-4.88-.08-10.32,1.88-11.58,3.14-2,8.16-1.93,12.18-1.33,1.66.25,2.78,4.1,2.65,7.09l-8.61-5.06-2,2.85c2.24,1.82,4.94,3.31,6.56,5.57s3.1,7.09,2.63,7.36c-3.67,2.16-7.89,4.76-11.82,4.58-2.31-.1-4.41-5-6.6-7.77Z"/><path d="M391.82,427.32c-3,.26-7.85,1.15-12.68.91-2.65-.13-5.19-2.19-7.79-3.37,1.38-2.65,2.16-6,4.29-7.75,2.81-2.27,6.68-3.24,10.13-4.78-1.95-4.79-1.95-4.79-12.91,1.19,1.72-7.38,6.73-9.32,12.35-8.5,5.43.79,6.06,5.17,5.4,10.26C390.15,418.89,391.29,422.7,391.82,427.32Z"/><path d="M1395.83,376.75c-.09,10.16-8.39,20.72-14,18.42-4.14-1.7-7.85-8.11-8.82-13-1.5-7.6,5.57-13.23,13.83-13.27C1394.11,368.85,1395.77,373.18,1395.83,376.75Zm-15.5,13.74c9.22-3.68,12.31-8.47,8.59-14.69-.58-1-8.82.47-9.23,2C1378.64,381.66,1380,386.2,1380.33,390.49Z"/><path d="M653.58,152.79c.09-7,.09-7-11.8-1.94,1.72-7.08,6.27-9.85,13.06-7.87,7.33,2.14,3.76,7,3.1,11.44-.35,2.29.72,4.79,1.33,8.23-3.12.59-7.91,2.15-12.7,2.18-3.21,0-6.44-2.12-9.65-3.29,2.4-2.68,4.36-6.15,7.33-7.81C646.76,152.32,650.44,153,653.58,152.79Z"/><path d="M965.11,426.3c-3.09-3.18-4.37-5.15-6.19-6.19s-4.07-1.08-6.71-1.69c.34,8.44,15.39,7.94,8.83,17.3-2.95,4.21-9.4,6.79-14.95,2.55-2.32-1.78-3.52-5-5.22-7.59L946,426.4c.91,2.45,1.29,5.37,2.93,7.14.84.92,3.89-.2,5.95-.4a52.5,52.5,0,0,0-2.62-5.19c-1.91-3-4-5.79-6-8.67,3.58-1.94,7.17-5.45,10.72-5.41C961.89,413.92,965.85,417.35,965.11,426.3Z"/><path d="M1112.24,646.9c-1.59,1.21-3.06,3.19-4.8,3.48-3.72.62-8.37,1.7-11.15.06-2.23-1.31-2.89-6.31-3.11-9.75-.25-3.81.79-7.7,1.27-11.52l11.06-14.64c1.28,5.45,2.53,9.65,3.1,13.93.16,1.16-1.83,3.78-2.7,3.72-6.76-.46-6.05,5.27-7.39,8.91a5.94,5.94,0,0,0,1.53,5.39c1,.77,3.52-.43,5.36-.77,2.06-.39,4.11-.81,6.17-1.21Z"/><path d="M904.51,239.05c-6.78,1.1-10.19-3.35-10.9-9.88-.66-6.15,8-15.43,13.78-14.8,5.59.59,11.09,2.31,11,9.93C918.21,233.33,913.18,239.19,904.51,239.05Zm7.79-17.56c-5.69-.33-11.88-2.29-12,6,0,2.53,3.54,7.46,4.94,7.28C912.1,233.87,913.84,228.83,912.3,221.49Z"/><path d="M1454.06,382.25c4,12.55,11.43-.1,16.45,4.07-3.74,4.68-7.91,9.78-14.25,6.3-3.27-1.8-6.63-7.39-6.3-10.92.65-7,5.2-12.84,13-13.37,2.18-.15,4.64,3.72,7,5.75-1.89,2.05-3.45,4.77-5.78,6C1461.38,381.43,1458,381.46,1454.06,382.25Z"/><path d="M1270,441.43l-2.6-15.36-2.68,0c-.45,3.65-.89,7.3-1.39,11.33-5.29-8.56,6.15-22.15-9.79-27.1V392c2.4,6.53.53,15.27,12.48,14.65-.45,4.71-.85,8.92-1.07,11.15,4.25,3.91,10.16,6.82,10.82,10.65S1272,437.24,1270,441.43Z"/><path d="M871.39,402.61c1.68,2.22,6.4,5.74,7,9.89,1.22,8-7.52,17-14.62,15.22-3.75-.94-8.39-5.87-9.11-9.67C853.21,410.24,860.94,402.5,871.39,402.61ZM874.47,414c-3.28-2.78-5-5.43-6.91-5.62-6.27-.64-8,4.3-7.78,9.05.11,2.23,3.43,4.3,5.3,6.44C867.81,421,870.54,418.08,874.47,414Z"/><path d="M888.66,406.31l11.5-10.84c4.45,4.85-8.63,10.89,5.87,12.7l-9.08,5c.16.36-.39-.89-1-2.14l-1.46-.07q-.79,7.74-1.57,15.47l10.15-1.21,1.49,1.44c-3.34,2.12-7.26,6.54-9.89,5.87-5.12-1.29-10.29-4.65-7.74-12.33C888.32,416.22,888.07,411.68,888.66,406.31Z"/><path d="M1075.38,678.16c-.1-9-9-16.85-3.81-26.46,4.45-8.22,9.65-16,14.51-24,3.23,8.08-1.49,20.69-8.69,24.82-3.75,2.16-6.52,5.17-.83,9.11C1083,666,1082.74,668.43,1075.38,678.16Z"/><path d="M774.56,587.86c.32,8.43,1,8.88,11.32,8.24l.83,2.16c-2.84.87-5.7,2.54-8.52,2.47-6.92-.18-10-4.76-9.44-11.2.61-7.1,7.55-14.42,12.6-13.64,3.89.59,8.36.89,7.1,7.39-1.08,5.57-3.41,7.84-9,6.15C778.12,589,776.76,588.56,774.56,587.86Z"/><path d="M1001,238.62c-2.9.13-5.24.22-7.57.36s-4.58.31-7.1.49c1.21,10.38,8,5.94,14.28,5.28-1.43,7.55-6.83,7.09-11.3,6.52-6.87-.88-8-6.2-7.33-12,.83-7.16,7.59-13.36,13.56-12.77C1000.84,227,1002.22,229.83,1001,238.62Z"/><path d="M344.36,585c-2.46,10.92-4.49,22-7.8,32.64-.53,1.73-6.84,2.7-10.2,2.2-2.52-.38-5.59-3.26-6.69-5.78-2.65-6.11,2.13-15.85,8.66-15.54,9.13.44,10.29-5.08,12.36-11,.4-1.14,1.47-2,2.24-3.06ZM329,599.69c-2.35,4.44-4.89,7.46-5.29,10.74-.22,1.74,3.27,3.94,5.08,5.93,2.13-3.31,4.73-6.44,6.07-10C335.21,605.31,331.93,602.92,329,599.69Z"/><path d="M524.34,207.91c4.19,2.25,10.19,4,10.21,5.77.08,6.17-1.93,12.38-3.15,18.57l-3.38-.77c.85-4,1.87-8,2.46-12,.21-1.44-.61-3-1-4.57-1.52.37-3.65.23-4.46,1.19a53.72,53.72,0,0,0-6.08,9.06c-1.13,2.08-1.55,4.54-2.29,6.83l-3.24-.91q4.56-18.43,9.14-36.87l4.06.75C525.83,199.51,525,204.1,524.34,207.91Z"/><path d="M454.2,234.62c-4.68.5-11.44,1.52-18.21,1.67-1.35,0-4.1-3.53-3.86-5.06.44-2.81,2-6.39,4.24-7.73,2.8-1.67,6.75-1.4,11.55-2.18l4.23-8.15Z"/><path d="M1567,377.27c3.32-10.78,6-21.37,10.12-31.35.92-2.2,7.22-3.39,10.73-2.9,2.52.36,6.7,4.76,6.32,6.57-.84,4.08-4,10.87-6.31,10.91-11,.2-15.33,5.76-16.51,15.56,0,.45-.75.95-1.27,1.17S1569,377.27,1567,377.27Zm16.84-17.16c2.74-3.25,6.08-5.47,6.12-7.75,0-2.1-3.48-4.26-5.42-6.39-2,2.49-4.63,4.74-5.7,7.58C1578.4,354.68,1581.43,357.11,1583.82,360.11Z"/><path d="M1311.93,673.08c-1.92,1.45-4.44,2.51-5.64,4.41-2,3.18-3,7-4.83,10.34-.9,1.63-2.69,2.77-4.08,4.13-.38-2.08-1.39-4.28-1-6.21.71-3.71,2.27-7.25,3.36-10.89,2.19-7.3,8-7.92,13.91-6.83,7,1.3,5.89,7.18,4.93,12-.83,4.14-2.74,8.06-4.17,12.09l-3.81-.9,2.85-16.24Z"/><path d="M464.86,611.77c-3.9,7.3-9.05,8.39-13.27,5.47-2.82-2-5.16-7.34-4.67-10.77.9-6.39,3.83-13.09,12.53-11.26,2.34.49,4.13,3.62,6.17,5.54-1.9,1.76-3.63,3.78-5.77,5.15-1.06.68-3.11-.29-4.32.29-1.53.74-2.65,2.3-3.95,3.51,1.57.69,3.09,1.73,4.74,2C458.54,612,460.85,611.77,464.86,611.77Z"/><path d="M955.05,602l11.1,6.44c-.94-4.13-1.46-6.39-2.37-10.37l14.57,6.06c-.37-2.9-.69-5.45-1.19-9.44,3.67,2.46,6,4.52,8.77,5.76s5.59,1.47,8.53,4.2L978.18,607c.52,2,1,3.94,1.48,5.68-3.93,3.82-10.27-11-13.13,3.46l-13.26-11.79C953.86,603.59,954.45,602.8,955.05,602Z"/><path d="M1184.92,463.79c-1.76,4.5-7.12,6.41-11.91,4.45-2.74-1.12-5.08-6.83-5-10.45.13-10.73,8.53-16.92,15.74-12.27,1.79,1.16,3.53,4.28,3.26,6.22-.24,1.74-3.07,3.46-5.1,4.55-3.3,1.77-9.87-3.36-9.88,4.21C1172,461.5,1179.74,462.52,1184.92,463.79Z"/><path d="M418.74,532.35c-2,5.17-4.34,10.25-5.95,15.55s-2.5,10.76-3.78,16.52a29.28,29.28,0,0,1-4.31.6c-5.16,0-11.32,1.43-12.05-6.57-.6-6.48,6-15.1,12.08-14.58,9.83.84,8.32-7.41,10.59-12.75Zm-17.39,31.38c3.18-5.35,5.51-8.12,6.37-11.29.34-1.25-2.6-3.39-4.05-5.12-2.05,2.79-4.53,5.38-5.93,8.46C397.22,556.93,399.21,559.22,401.35,563.73Z"/><path d="M745.56,219.39c-9,.4-9.46-6.34-9.9-11.95-.54-7,5.9-13.16,12.46-13,6.75.15,10.12,3.63,10.13,10.37C758.26,213.07,752.51,219.5,745.56,219.39Zm.87-2.13c3.3-5.46,6.19-8.62,6.91-12.21.31-1.52-4-4-6.15-6-2.36,3.28-5.27,6.32-6.77,9.95C739.93,210.2,743.14,212.91,746.43,217.26Z"/><path d="M1202.15,671.52c1.14,1.39,5.28,4.12,5.56,7.21,1,10.85-4.09,16.13-13.31,16.52-5.86.25-8.29-2.92-8.6-7.73C1185.17,677.6,1190.49,671.51,1202.15,671.52Zm-3.53,3.65-3.52.27a111.35,111.35,0,0,0-3.46,12.3c-.12.68,3.91,3.13,4.43,2.72,2.62-2,6-4.47,6.59-7.31C1203.16,680.9,1200.1,677.86,1198.62,675.17Z"/><path d="M818.77,217.56l4.5,7.4c4.33-2.5,5.9-4.33,1.3-8.28-1.89-1.61-1.8-5.54-2.61-8.41l12-1.06c0,2.89.07,5.79-.14,8.66a14.8,14.8,0,0,1-1.2,5.71c-1.33,2.48-2.89,5.93-5.06,6.58-2.92.86-7.36.48-9.56-1.32-1.76-1.44-1.15-5.77-1.59-8.83Z"/><path d="M807.93,571.49c1.75,3.82,3.27,7.13,5,10.88-6.91,2.48-11.75,6.67-10,15.55l11.87-.68c-3,6.75-7.63,9-12.2,6.17-2.78-1.73-4.23-6.84-4.71-10.63-.52-4,.81-8.31,1.46-13.45Z"/><path d="M941.74,756.73l-3.83,18,4.38,1.49,12-22.47c1.72,11.07-3,22.19-9.69,26C939,782.94,933.47,781,932.7,775c-1-7.71,3.45-13.48,6.93-19.46Z"/><path d="M934.85,219.62l-4.68,17.12c14.14,2,11.89-12.07,19.48-17.8,2.82,9.88-6.37,15.16-6.5,23.28-6.36-.14-13.64,4.36-17.29-4.06s3.71-13.31,6.43-19.67Z"/><path d="M782.49,201.22c-9.89,2.42-12.1,5.63-9.53,16.34l7.62-2.12c1,7-3.24,7.82-8,7.39-5.07-.46-7-3.63-6.13-8.58.85-5.13,1.61-10.27,2.4-15.41l2.79,4.06c2.76-4.91,5.51-9.83,8-14.2C780.3,191.75,781.27,195.94,782.49,201.22Z"/><path d="M355.22,173.1c-6.58,6-.55,10.08,3.14,13.28,1.13,1,6.4-2.79,10.53-4.75,2.54,6.54-3.71,9-8,13l-17.2-13.43V164.78Z"/><path d="M461.89,519.69c-4.13,9-11.61,5.29-14.46,2-2.6-3-2.09-10.3-.58-14.93,1.87-5.71,7.79-7.21,13.34-5.06,1.76.68,3.16,4.17,3.28,6.45.06,1.16-2.94,3.16-4.83,3.58-2.76.62-5.77.16-8.82.16C447.55,525.44,458,516.46,461.89,519.69Z"/><path d="M574.13,214.65c-3.16,27.3-12.38,52.46-29,75,1.05-2.68,2-5.4,3.15-8,5.11-11.49,10.38-22.9,15.36-34.45a50.33,50.33,0,0,0,2.42-9.33c1.68-7.94,3.25-15.9,4.87-23.85Z"/><path d="M1242.94,462.76c2.39-6.07,3.71-13,7.6-17.85,2-2.51,9.42-3.09,12.86-1.41s5.3,7.25,7.83,11.12l-2.44,2.16-3.29-2.46c-1.88,3.9-3.62,7.53-5.37,11.15l-2.8-.84q1.83-8.92,3.65-17.87l-1.92-1.12c-2.94,2.65-6.49,4.9-8.63,8.09-2,3-2.48,6.94-3.63,10.47Z"/><path d="M195.44,494.59c-.76,1.47-2.34,3.06-2.14,4.38.54,3.63,1.84,7.14,2.84,10.7,5-1.5,10-2.89,10.05-9.66a9.9,9.9,0,0,1,1.13-4.08,39.06,39.06,0,0,1,3.35-5.45,5,5,0,0,1,2.15.84,44.51,44.51,0,0,1-1.57,6.24c-1.12,3.28-3.28,6.46-3.44,9.76-.48,9.37-7,8.63-13.13,8.51-8.21-.14-7.47-6.14-6.75-11.52C188.51,500,187.89,494.55,195.44,494.59Z"/><path d="M245.18,162.05c-7.4,15.09-18.63,10.27-28.7,9.42a5.44,5.44,0,0,1-3.57-2.95c-.37-.85.74-3.32,1.6-3.56a79.28,79.28,0,0,1,13.75-2.8C233.5,161.69,238.81,162.05,245.18,162.05Z"/><path d="M293.45,229.8,302.56,243c12.18-8-3.1-16.9,2.64-26.09,3.26,7.13,7.64,13.13,8.27,19.49.35,3.57-5.05,8.35-8.86,11.31-1.16.91-6.59-1.65-8.32-3.95C293.57,240.12,287.36,236.48,293.45,229.8Z"/><path d="M1037.75,234.22c3.32-4.29,6.51-8.39,10.6-13.66.74,5.5,1.35,10.08,2.09,15.58-8.22,1.18-10,7.49-9.36,15.79h7c-.16,1.25-.17,2.7-.38,2.74-3.5.51-8,2.28-10.25.77-1.9-1.28-1.69-6.43-1.57-9.83C1036,241.8,1037.08,238,1037.75,234.22Z"/><path d="M888.89,221.48,877,218c-.66,3.5-2.77,7.64-1.55,10.2s5.79,3.22,9.32,4.93c-1.75,6-6.52,3.89-11.07,2.21-8.26-3-4.51-9.71-3.14-14.26,1.59-5.3,4.46-11.57,12.22-10.26C888.06,211.73,891.68,214.26,888.89,221.48Z"/><path d="M1087.14,688l12-9.54c-4.14,8.61-7.75,16.11-11.43,23.79-3.41-5.84-6.78-11.59-10.55-18.06,3.7-5.48,6.6-13.34,16.44-14l-9.47,16Z"/><path d="M517.24,404.82,511,412.65l6,11.59-2.41,1.47-8.52-10.09v15.1l-11-5.77c4.76-6.7,14.38-12,5.12-20.13Z"/><path d="M471.23,278.73c3.31,6.23,7.07,8.95,12,3.55-.94-6.94-16-2.54-10.46-13.19,2-3.87,7.19-7.52,12.51-3,2,1.7,3.34,4.15,5,6.26l-1.9,1.19-10.8-6c1.19,9,16.48,7.53,8.8,17.55-1.68,2.19-6.27,3.52-9.16,3s-5.47-3.69-8.18-5.7C469.76,281.22,470.5,280,471.23,278.73Z"/><path d="M466.16,361.93c-2.94,0-6-.48-8.77.16-2.12.48-3.92,2.38-5.86,3.65,2.21,1.87,4.2,4.76,6.71,5.31s5.29-1.4,8.25-1.48c-3.41,5.17-8.83,8.1-13.85,4.38-3-2.21-4.48-8.66-3.92-12.85.73-5.49,4.5-11.15,11.37-9.49,3.3.8,5.78,5,8.64,7.64Z"/><path d="M846.41,407.4c-6.19-.71-10.42-2.37-13.5-1.14-2,.82-2.43,5.77-3.55,8.87l13.24,4.32c-2.17,5.9-8,5.89-13.43,4.21-6.68-2.07-6.28-8.15-4.84-13.35,2.28-8.2,10.42-13.34,16.68-10.38C843.57,401.14,844.83,405.09,846.41,407.4Z"/><path d="M587,269.44,604.66,259c-3.82,13.33-6.83,23.81-9.85,34.34l7.6,2.81-.21,2.4-13.05,1.68c3-10.87,5.58-20.31,8.42-30.62L589,272.8Z"/><path d="M517.35,281.54c-4.12,6.91-10.44,7.69-14.29,4-2.92-2.77-4.23-10.39-2.46-14,1.67-3.42,8.17-4.76,12.81-6.14.63-.19,3.27,4.57,3.89,7.29.18.76-3.41,2.67-5.49,3.56-1.25.53-3.08-.3-4.33.23-1.58.68-2.84,2.11-4.24,3.22,1.65,1.26,3.22,3.43,5,3.57C510.86,283.52,513.64,282.34,517.35,281.54Z"/><path d="M440.66,563.71c-4.65.66-9.39,2.17-13.9,1.64-2.21-.26-5.89-4.63-5.56-6.57a35.52,35.52,0,0,1,5.9-14c.91-1.3,6-.45,8.72.64,1.44.59,3.06,4.55,2.4,5.63-1.11,1.79-3.91,2.68-6.14,3.61a50.4,50.4,0,0,1-6.27,1.72c.44,1.6.52,4.31,1.39,4.59a17.7,17.7,0,0,0,7.23.37c1.81-.2,3.54-1.14,5.31-1.75C440,560.93,440.35,562.32,440.66,563.71Z"/><path d="M620.39,142.2l5.92,13.46,10.16-13.23,1.86,1.79a114,114,0,0,0-7,9.16c-3.68,5.94-6.46,12.52-10.69,18-2.43,3.16-6.78,5.25-10.68,6.67-1.48.53-4.13-2.15-6.12-4.66,9.51,4.22,14.46-1.08,16.23-8.08C621.66,158.91,620.39,151.78,620.39,142.2Z"/><path d="M986.48,952c18.88,5.84,39-1.29,57.72,6l-.25,2.47-58.07-2.69Z"/><path d="M1290.79,441.45a65.83,65.83,0,0,1-1.46,8.09c-3.69,12-7.34,24.06-11.49,35.93-1.33,3.81-3.06,9-9.77,5.06.52-1.6.65-3.52,1.64-4.73,6.08-7.46,11.25-15,9.34-25.55-.23-1.3,3.28-3.07,4.65-4.91a22.26,22.26,0,0,0,3.3-6.17,66,66,0,0,0,1.66-8.1Z"/><path d="M361.55,162.85c-.71-5.27-1.43-10.54-2.2-16.29,6.26.63,4.52,13.29,14.53,3.67-6.91,8.86-2.69,14.06,1.95,18.17,1,.86,5.9-2.73,8.8-4.16,1.48,6.34-2.08,12.23-8.05,10.82-2.77-.65-4.77-4.32-7.29-6.41S363.93,164.62,361.55,162.85Z"/><path d="M347,451.81l20.64-63.06,2.09.28c.22,1.47.91,3.06.58,4.39-2.51,10.19-4.33,20.69-8.24,30.33-2.09,5.18-7.67,8.81-8.68,15.24-.72,4.63-2.7,9.06-4.12,13.58Z"/><path d="M1219.41,457.79c0-8.9,5-14.12,12.56-14.25,5.59-.1,7.26,2.57,7.1,7.66-.24,7.6-5.86,15.53-11.78,15.37C1221.76,466.43,1218.59,463.44,1219.41,457.79Zm7.9,5c6.37-4,9.14-8.48,4.2-15.13C1223.36,452.37,1222.18,456.26,1227.31,462.75Z"/><path d="M610.8,151.52c-.09,8.71-5.22,14.14-14,13.88-5-.14-8.59-2.88-8.31-8.94.3-6.52,6.88-14.25,12.74-13.49C606.06,143.6,611.62,144.58,610.8,151.52Zm-15.08,9c7.57.26,11.39-1.67,10.53-7.44-.29-1.94-4.54-5.19-4.88-4.95a50.26,50.26,0,0,0-9,8.5C592.15,156.94,595.24,160,595.72,160.54Z"/><path d="M1146.54,229l22.2-31.45,2.71.92c-.41,3.15.14,6.92-1.42,9.32a237.45,237.45,0,0,1-15.46,20.74c-1.35,1.66-4,2.22-6.12,3.29Z"/><path d="M581.74,921.1h43.75v3.23c-5.43,0-10.91-.47-16.27.15-3.93.45-7.68,2.38-11.55,3.52-1.4.41-3.14,1-4.32.53-4.3-1.75-8.43-3.91-12.62-5.91Z"/><path d="M300.57,340c-2.71.9-3.74,1.47-4.82,1.55-2.53.21-5.09.18-7.63.25,1.46-1.76,3.34-3.32,4.31-5.32,2.13-4.41,3.76-9.06,5.68-13.57,1.54-3.63,3.2-7.2,4.81-10.8l2.4.92c-.79,2.11-1.51,4.27-2.4,6.34-2.65,6.16-6.73,11.76-1.52,19.12,1.68,2.38-.19,7.66-1.13,11.44a68,68,0,0,1-7.27,18.7c.9-4.55,1.58-9.16,2.75-13.64S298.55,346.18,300.57,340Z"/><path d="M431.56,500.29c-2.54,7-4.24,11.73-6.41,17.75l11.74-.72c-.55,7.82-5.86,7.65-9.57,5.85-2.83-1.38-5.05-5.58-5.93-8.95s.18-7.38.3-9.39l8.4-12.37C430.64,495.37,431.34,499.11,431.56,500.29Z"/><path d="M701.58,384.61c.18-.1-.3.3-.84.42-7.47,1.68-7.08,8.27-8.6,13.67l11.7,2.11c-1.9,4.77-5.9,7.15-11.3,4.94-5.61-2.3-6.16-6.41-3.4-12.05,3.07-6.27.65-14.53,6.68-20,1-.92,1.89-2,3.41-3.62C700.06,375.22,700.73,379.33,701.58,384.61Z"/><path d="M476.89,234.38c.7-6.66,1.3-12.22,1.94-18.3-13.68-.41-7.95,14-15.35,17.78-1.48-10.21,3-19.2,9.48-22,5.21-2.22,8.67-.45,11.35,3.37C486.55,218.48,481.86,230.79,476.89,234.38Z"/><path d="M449.61,416.78c-.09-6.72,6.19-14.3,11.79-13.77,7.05.68,8.88,6.26,9.32,11.91.53,6.94-5.18,12.31-12.17,12.44C453,427.47,449.69,423.51,449.61,416.78Zm18.79-1.47-6.55-8.21c-2.87,2.87-6.2,5.47-8.25,8.84-.41.69,4.06,6.18,6.09,6.07C462.32,421.87,464.76,418.32,468.4,415.31Z"/><path d="M1234.52,539.44c2.38-6.38,4.75-12.77,7.4-19.88h-9.48l-.63-2,19.63-10.71c-3.86,12.73-7.18,24.27-14.49,34.1Z"/><path d="M905.09,781.62c2-7.47,2.82-15.58,6.47-22.12,1.52-2.73,9-2.85,13.76-2.64,1.45.06,2.68,5.14,3,8.3-8.79-5.38-14.24-2.8-16.05,7.23-.64,3.56-2,7-3.06,10.48Z"/><path d="M1649.34,347.18c1.17,4.18,2.14,7.62,3.2,11.39-9.42,5.55-11.06,9.65-6.29,18.08l6.86-3.92,1.45,3c-3.32,1.32-6.84,4-9.89,3.55-2.44-.37-6.43-4.92-6.07-7C1640.11,363.47,1641.64,354.25,1649.34,347.18Z"/><path d="M1642.45,421.08l4.68-20.39,3.06.46c-.47,3.27-1.4,6.55-1.28,9.8s1.32,6.35,2,9.52c2.26-2.9,4.93-5.59,6.6-8.8.72-1.37-.61-3.83-1.29-7.11L1670,394c-4.42,9.19-7.67,17.94-12.74,25.45-1.89,2.81-8,2.74-12.25,4Z"/><path d="M1489.12,370.47c-3,6.69-5.91,13.38-9.09,20.59-3.55-6.06-.91-21.81,3.9-23.14,3.9-1.09,9.25-1.28,12.41.66,2.38,1.46,2.31,6.92,3.32,10.6l-3.17,1.18q-2.33-4.46-4.67-8.91Z"/><path d="M1192.71,600.62l16.9-19.1,1.21.63c-1.73,3.46-3.45,6.92-5.35,10.74l10.18,3.7c-.05.53-.09,1.06-.14,1.6h-14l3.42,6.15-13.55,4.48c-.16-1-.4-2.66-.65-4.28C1191.41,603.23,1192.06,601.92,1192.71,600.62Z"/><path d="M433,341c.76,4.44,1.48,8.71,2.23,13.12-6.46,1.71-7.66,4.35-6.18,16.8l8.41-1.25,1.05,2.16c-3.43,1.42-6.8,3.58-10.31,3.83-1.12.08-3.77-4.91-3.71-7.55C424.69,358.37,424.31,348.23,433,341Z"/><path d="M675.27,143.41c-1.13,5.69-2.25,11.39-3.52,17.77,12.52-.91,10.67-12.89,16.64-18.07,3.25,12.46-5.73,23.35-17,20.74-1.5-.35-4.06-2-3.94-2.58,1.24-6.25,2.94-12.42,4.5-18.61Z"/><path d="M966.62,235.28l13-11.81c.36,7.66-13,20.61-20.82,20.31,1.33-7.12,2.61-14,3.9-20.94l3,.24C966,226.84,966.28,230.61,966.62,235.28Z"/><path d="M1165.79,428.72c-3.88,13.74-7,25-10.37,36.23-.25.83-2.16,1.17-3.3,1.74-.52-1.15-1.72-2.48-1.48-3.43,2.79-10.78,5.72-21.52,8.88-32.19.38-1.25,2.29-2.48,3.72-2.86A3.58,3.58,0,0,1,1165.79,428.72Z"/><path d="M1004.54,252.23c3.77-8.36,6-14.78,9.55-20.37,1.27-2,5.76-2.86,8.69-2.68,2.59.17,6.28,2,7.18,4,.83,1.92-1.39,5.16-4.36,7.41-.45-2.12-.89-4.24-1.34-6.38C1012.61,233.57,1016.31,249.72,1004.54,252.23Z"/><path d="M1629.58,418.42c-.16,5.91-5.81,5.45-7.4,3.78-2.75-2.9-5.83-8.52-4.7-11.41,1.76-4.49,6.34-8.83,10.81-11.05,4.13-2,8.28,1.05,8,6.37-.31,5.09.94,11.56-7,12.63,1.12-3,3.42-6.18,3-9-.32-2.1-4.11-3.66-6.36-5.47q-2.41,5.71-4.82,11.41Z"/><path d="M323.05,229.08c-2.5-4.92-4.73-9.68-7.29-14.26-2.87-5.14-6.16-10-9-15.22-.65-1.2-.08-3.07-.07-4.63,1.29,0,3.47-.37,3.74.17,5.27,10.54,10.33,21.19,15.36,31.85A25,25,0,0,1,323.05,229.08Z"/><path d="M475.57,976.34c-13.51-.5-27.12-.32-40-5.27.13-1,.25-2,.38-3l40.32,3.8Z"/><path d="M1731.9,416c-1.38,9.18-2.44,16.23-3.81,25.31L1718.35,425l6.69,4.59c-.79-2.18-1-3.6-1.76-4.67-1-1.39-2.91-2.32-3.34-3.77s.42-3.38.86-6Z"/><path d="M435.31,426.19c.68-3.18,1.85-6.35,1.91-9.54.06-3-1.06-5.94-1.67-8.91-3,2.1-7.11,3.57-8.79,6.45-2,3.37-1.82,8-3.28,11.85-3.15-14.32-.31-21,9-22.58,5.93-1,10.38,1.11,9.84,7.69-.44,5.27-2.48,10.41-3.81,15.61Z"/><path d="M507.62,217.77c-3.66,0-7.8-1-10.79.39-1.73.81-3,7.38-2,8.2,2.68,2.14,6.75,2.53,11.33,4-1.11,5.12-6.82,4.12-10.19,2.93-3-1-6.53-5.07-6.76-8-.53-6.83,7-14.36,13-13.74,2.56.26,4.86,3,7.28,4.67Z"/><path d="M1587.26,429.44c2.14,1.81,5.33,5.57,6.25,5.08a15.26,15.26,0,0,0,6.74-7.17c2.31-5.85,3.42-12.17,5.24-18.23.86-2.83,2.24-5.51,3.38-8.26l3.4,1.17c-3.41,10.43-6.23,21.13-10.67,31.11-1.06,2.39-7.5,3.09-11.5,3.16-1.63,0-3.33-3.65-5-5.65Z"/><path d="M1418.25,352.74c-4.49,14.43-8.42,27.08-12.36,39.72C1401.82,383.22,1409.7,358.06,1418.25,352.74Z"/><path d="M1226.19,580.75c-7.67-.38-7.26,4.59-4.63,11.26l-8.62-1.14c-.72-9.22,10.85-14.35,4.76-25.12h8.65c0,2.56-.12,5.12-.15,7.68C1226.17,575.77,1226.19,578.11,1226.19,580.75Z"/><path d="M1213.73,453.44c-3.4-2.88-5.47-5.81-6.87-5.52-2.06.42-4.24,2.85-5.3,5-1.66,3.33-2.26,7.17-3.67,10.65-.62,1.51-2.15,2.66-4,4.79-1.5-13.77,6.29-25.8,15.36-25.11,2,.16,4.88,1.58,5.61,3.2S1214.28,450.7,1213.73,453.44Z"/><path d="M741.42,981.32l39.33,3.14c-.07,1-.14,2-.2,3.07-12,0-23.93.05-35.89-.15C744,987.37,743.41,985.14,741.42,981.32Z"/><path d="M404,617.79c1.73-6.54,3.47-13.09,5.7-21.53,5,.61,10.42.91,15.57,2.3.75.2.1,5.6.1,8.59l-2.2-.06L417.3,600c-2.23,2.94-4.87,5.66-6.57,8.88-1.56,2.94-2.11,6.42-3.1,9.66Z"/><path d="M1192.71,600.62c-.65,1.3-1.3,2.61-1.94,3.92l-20.16,24.93-2-1.5,24.29-36.19,1.49.67C1193.82,595.17,1193.26,597.89,1192.71,600.62Z"/><path d="M388.65,290.47c-1.23-13.88,2.54-22.81,9.75-24.23,6-1.18,9.78,1,11.2,9.3C389.93,264,396.15,284.68,388.65,290.47Z"/><path d="M259.62,329.3c.39-4.33.78-8.66,1.3-14.46L253.86,320c1.13-6.47,2-11.72,3-17l2.14-.09,3,5.41,10.18-4.23c-4.66,9.2-8.65,17.1-12.62,25Z"/><path d="M278.17,510.21c-1.11-3.35-4.17-8.26-3-9.77,3.8-4.77,9.2-8.27,14-12.27,1.79,2.53,4.91,5,5.1,7.6.37,5.12-2.38,8.27-9.12,5.92,1.49-2.52,2.8-4.71,4.2-7.06-9.82-1.09-13.46,4.28-10.4,14.7Z"/><path d="M890.45,909.68l36.85,2.2-.25,4.41-36.41-2.4Z"/><path d="M410.79,235c-6.38-11.4.06-23.09,10.39-22.37a7.3,7.3,0,0,1,5.15,3.41c1,1.92.46,4.59.61,7.3-3.92-2.41-7.53-5.85-8.78-5.14-2.56,1.46-4.27,5-5.55,8C411.46,228.87,411.36,232,410.79,235Z"/><path d="M1019.58,947c-8,0-15.67-.12-23.33.06-3.38.09-6.75,1.1-10.13,1.08-1.25,0-2.56-1.68-3.63-2.81-.12-.13,1.23-2.37,1.83-2.34,11.55.58,23.1,1.36,34.64,2.17C1019.17,945.17,1019.31,946.15,1019.58,947Z"/><path d="M428.85,985.42c-10.52,1-19.69,3.5-29.58-1.21C406.42,978.42,424.16,978.81,428.85,985.42Z"/><path d="M1652.56,199.54l5-5.81h-18.58l-.07-2.15,31.06-3.91-2.21,6.1-14.83,7.55Z"/><path d="M1416.72,391.32q4.8-18.26,9.62-36.53l3.26.22c0,2.54,1,5.64-.16,7.52-5.41,9.13-2.72,21.79-10.49,29.8Z"/><path d="M1097.81,935.85h-41.45l-.09-3c13.72-3.45,27.7,1,41.48-1Z"/><path d="M1096.16,955.24h-33.9C1067.58,948.34,1087.76,948.25,1096.16,955.24Z"/><path d="M1044.91,970.05c-3.52,6.77-27.32,5.87-35.65-2.11Z"/><path d="M1283.87,963.94c6.09-.28,13.22,1.32,18-1.32,6.2-3.43,9.63-1.26,14.22,1.45C1312.15,968.94,1293.28,969.77,1283.87,963.94Z"/><path d="M1709.73,407.42l-7.79-5.24-1.8,2.43c2.75,2.27,6.48,4.05,7.94,7,1.21,2.42-.25,6.18-.57,9.85-3-4.48-5-7.34-6.92-10.3s-3.44-5.75-5.15-8.63c4-1.05,8.11-2.87,12.12-2.76,1.54.05,3,4.49,4.44,6.93Z"/><path d="M634.65,397.67c5.24-12.9,10.17-25,15.46-38.05C653,367.15,641.54,395.73,634.65,397.67Z"/><path d="M1672.54,408c-.39,3.06-.66,5.2-1,8.16-5.25-6.87-1.61-11.55,2.85-14.56a14,14,0,0,1,11.05-1.26c1.74.61,1.8,6,2.62,9.22l-2.39.7-5.33-7.91c-.39,4-.57,5.85-.81,8.24Z"/><path d="M643.53,508l-56,17.27-.78-2.52,56-17.22C643,506.34,643.26,507.17,643.53,508Z"/><path d="M562.85,454.18c1.6,10.18-11.75,18.79,2.44,28.1-5.24,1-8.89,2-12.59,2.2-.85,0-3-3-2.62-3.71C554,472.14,558.21,463.68,562.85,454.18Z"/><path d="M1580.16,411.41l-3.51-5.94c-6.19,2.55-8.57,10.54-4.84,16.7-9.25.21-6.5-6.83-6.38-11,.15-5.47,8.66-11.9,12.41-9.66,2.54,1.5,3.66,5.4,5.41,8.23Z"/><path d="M1270.84,509.07q10.38-20.6,20.75-41.19L1294,469l-20.4,41.35Z"/><path d="M1078.71,343.34c-3.66,16.24-5.39,17.22-20.89,11.93Z"/><path d="M1364.42,525.69l-23.61,18c-.66-.77-1.33-1.54-2-2.32,4.55-3.82,9.11-7.63,13.64-11.48.83-.71,2.06-1.49,2.21-2.38C1356.06,519.43,1359.77,522.84,1364.42,525.69Z"/><path d="M1102.91,551.17l-22.36,26.63-2.52-2,21.75-27Z"/><path d="M1609.33,345.32l-10.58,33.08-3.56-1.16,11-32.93Z"/><path d="M1269.3,615.89c-8.27,5.63-17.27,8.86-28.27,5.57l27.48-8.11C1268.77,614.19,1269,615,1269.3,615.89Z"/><path d="M1029.14,476.92c-2,6.92-3.45,12.27-5.37,19.13C1016.82,487.25,1019,479.79,1029.14,476.92Z"/><path d="M1374.77,895.14c5.49.54,11,.88,16.44,1.79,1.07.18,1.77,2.57,2.64,3.93-1.52.9-3.27,2.82-4.5,2.53-5.17-1.23-10.19-3.11-15.25-4.76Z"/><path d="M259.8,153.43c-7.33,7.93-16.1,4.58-24.27,5.13-.44,0-1.63-2.09-1.35-2.65.52-1,1.85-2.34,2.88-2.37C244.63,153.34,252.21,153.43,259.8,153.43Z"/><path d="M1441.69,369.91q-1.62,10.77-3.23,21.56C1430.59,390.71,1431.23,381.42,1441.69,369.91Z"/><path d="M646.57,548.15c11-2.17,22.09-4.44,33.18-6.39,1.33-.23,3,1.23,4.57,2l-14.94,9.76c.22-1.71.46-3.63.68-5.36H646.57Z"/><path d="M1612,191.1c11-7.85,18.35-5.74,20.88,4.9Z"/><path d="M1224.26,670.25c-.67,5.15-.73,8.87-1.73,12.32s-3,6.87-4.52,10.29C1213.1,690.26,1216.21,675.73,1224.26,670.25Z"/><path d="M1020.82,464.18q-5.6,19-10.23,34.75C1007.63,494,1013,472.24,1020.82,464.18Z"/><path d="M741.22,886.74c-2.37,1.76-4,3.93-5.36,3.8a58.29,58.29,0,0,1-12.62-2.81c-.62-.2-.94-3.52-.26-4.79.57-1.08,2.76-1.46,4.3-1.78.73-.14,1.63.59,2.45.92Z"/><path d="M1388.9,906.8c-6.72,7.11-16.72,4.58-20.05-4.77Z"/><path d="M1298.94,512.93l-22,29.73-2.32-1.7q11-14.88,21.89-29.78Z"/><path d="M1097,699.57c-1.63,7-2.77,12-4.17,18l-10.21-9.35Z"/><path d="M1320.72,390.46c4.83,10.14,5,13.55-1.39,19.91l-2-19.8Z"/><path d="M1606.21,263c.7-2.27,1.39-4.53,2.46-8l-10.89,6.26c0-7.08,8-10.23,20.4-8.5-2.81,2.17-5,3.33-6.4,5.1s-2.09,4.2-3.09,6.34Z"/><path d="M740,641.37l-31.26-17.7,1.65-3,30.86,18.34Z"/><path d="M1298.72,271c-.73-1.82-2.13-3.66-2-5.45.15-3.46,1.14-6.88,1.78-10.32,2,2.46,5.23,4.7,5.75,7.44s-1.63,6-2.61,9.06Z"/><path d="M663.56,916.54,640,904.5c.48-1.06,1-2.11,1.46-3.17l23.75,11.59C664.67,914.13,664.11,915.33,663.56,916.54Z"/><path d="M1352.62,958c-6.66,5.34-14.45,3.27-22.47-4.28l.7-2.32Z"/><path d="M1021.93,473.06c2.76-7,4.75-12,7.07-17.86C1034.36,465.26,1033,469.88,1021.93,473.06Z"/><path d="M1292.87,205.37c5,6.87,5.64,14.11-.86,19.22l-1.59-18.87Z"/><path d="M1665.63,474.84l29.89,6.78c-.31,1-.62,2-.94,3.05l-28.91-9.81Z"/><path d="M1023.47,500.67c-1.15,7,2.61,13.76-4.46,18.55C1014.58,510.76,1015.76,504.94,1023.47,500.67Z"/><path d="M1037.57,430.19l7.72-19.53C1050.73,417.48,1047.89,425.11,1037.57,430.19Z"/><path d="M1081.09,343.1c-4.76-8.55-1.6-15.33,7.88-18.34C1086.66,330.15,1084.34,335.54,1081.09,343.1Z"/><path d="M652.25,896.17l19.91,11.12C664.55,910.26,653.35,904.77,652.25,896.17Z"/><path d="M307.38,358,294.77,393.9l-2-.69q5.88-18.34,11.74-36.69Z"/><path d="M1125.13,773.19c-2.44,9.74-8,16.81-15.71,22.12l-2.25-1.91Q1116.14,783.29,1125.13,773.19Z"/><path d="M1544.8,379.91l14.37-25.83,2.72,1.49q-7.11,12.93-14.24,25.85Z"/><path d="M1067.78,364.76c0,2.41.51,4.09-.09,5.15-2.2,3.89-4.76,7.57-7.19,11.33-1-.92-3.11-2.14-2.94-2.7C1059.17,373.18,1060.32,367.29,1067.78,364.76Z"/><path d="M1322,458.47c-1.73-5.84-5.6-11.66,2.49-17.75q.69,8.86,1.37,17.75Z"/><path d="M620.37,492.48c-8.4,5.66-12.86,4.74-16-4.31l16.38,1.2C620.61,490.41,620.49,491.44,620.37,492.48Z"/><path d="M619.58,911.11c-6.69-3.31-15.38-2.07-19.68-10.92l21.2,7.1C620.6,908.56,620.09,909.83,619.58,911.11Z"/><path d="M279,509.33l18.88-1.92c-.56,1.26-1.18,4.94-2.49,5.19-5.84,1.17-12.55,5.69-17.19-2.39Z"/><path d="M439.27,151.91c-2.29,4.1-4.29,8.43-7.07,12.17-.82,1.1-3.88.53-5.91.72.41-2,.15-4.87,1.35-5.76,3.67-2.7,7.9-4.62,11.92-6.85Z"/><path d="M586.7,330.4l17.59-30.86c.79.47,1.58.94,2.38,1.4q-9,15.35-17.89,30.69Z"/><path d="M1515.52,269.61l15.09-23c.74,3.3,2.75,7.21,1.7,8.39-4.87,5.49-10.6,10.22-16,15.22Z"/><path d="M1554.3,385.36l-2.84,6.53L1544,394.3c4.65-8.67,8.37-15.61,12.1-22.55l2,.94Q1556.2,379,1554.3,385.36Z"/><path d="M438.87,595.34c-1.33,7.16-2.45,13.59-3.82,20-.14.67-1.76,1.29-2.76,1.41a2.72,2.72,0,0,1-2-1.34C428.8,612.76,434.65,598.08,438.87,595.34Z"/><path d="M1208.53,521.59l15.54-2.64c.31,1.57.61,3.13.92,4.69l-15.42,3.62Z"/><path d="M1313.83,360.39c-1.35-5.1-2.71-10.21-4.21-15.84,8.53,1.14,10.17,5.77,6.74,15.22Z"/><path d="M723.28,301.27l20.13,1.18C735.6,309.86,730.73,309.56,723.28,301.27Z"/><path d="M1301.43,292.8l-3-12.42c1.85-.29,5.25-1,5.32-.8,1.18,4,2,8.14,2.82,12.24Z"/><path d="M1318.48,383.82c-1.43-2.17-2.76-3.28-2.81-4.45-.18-4.37.06-8.76.14-13.14,1.25.25,3.33.16,3.61.81C1321.61,372.33,1322.46,377.67,1318.48,383.82Z"/><path d="M593.16,490.63l-17.92-3.14.43-2.73c6.5-2.34,12.62-1.93,18.17,2.7C593.61,488.51,593.39,489.57,593.16,490.63Z"/><path d="M1103.22,591.56l-6.64-4.66c2.82-1.34,5.55-3.34,8.5-3.76,1.66-.24,3.69,2.14,5.55,3.33Z"/><path d="M1047.91,400.86q3.91-6.66,7.82-13.32l3.41,1.23c-1.25,4.16-2.09,8.52-4,12.36-.62,1.25-4,1.17-6.05,1.7Z"/><path d="M895.06,891.65l-17.35,1.79-.57-4.21,17.31-2.51C894.65,888.36,894.85,890,895.06,891.65Z"/><path d="M705.92,631.93,682.75,617l1.78-2.81,23.27,15.16Z"/><path d="M557.92,190.82q-.7-7.6-1.42-15.22l2.55-.27C562.64,180.05,566.37,184.75,557.92,190.82Z"/><path d="M1657,230.53c-.89-2.77-1.8-4.42-1.8-6.06,0-1.06,1.35-2.12,2.09-3.18.31.93.48,2.58,1,2.68a7.48,7.48,0,0,0,6.75-1.47l-3.47-1c.06-.67.13-1.35.2-2l10.29.59c.09,1,.17,2,.25,2.93Z"/><path d="M1316.86,547c6.6,10.69,5,18.05-2.9,19.34C1314.83,560.6,1315.66,555.07,1316.86,547Z"/><path d="M1041.58,433.61q-2.55,7.09-5.09,14.17c-5.74-7-3.83-11.74,1.88-15.41Z"/><path d="M1318.5,416c7.78,5.74,8.29,11.36,1.18,18.59C1319.32,428.88,1319,423.16,1318.5,416Z"/><path d="M1477.23,434.12q3.6-10.77,7.22-21.53l2.41.81C1488.14,421.82,1481.7,427.65,1477.23,434.12Z"/><path d="M604.9,333.17,587.75,360.3,586,359.23q8.28-13.75,16.57-27.49Z"/><path d="M1117.65,164.33,1097,170.89c-.4-1.21-.79-2.42-1.19-3.63l20.68-6.38Z"/><path d="M772.56,308.93c5.5-3.59,10.62-3.61,16.23,3.32H772.44Z"/><path d="M439.56,152.19c-2.43-8.67,3.71-10.44,9.94-12.11-.78,6.16-2.87,11.25-10.24,11.82Z"/><path d="M1310.14,334c-1.12-3.39-2.65-6.72-3.13-10.2-.18-1.3,2.11-2.94,3.27-4.42,1.17,1.36,3.1,2.6,3.36,4.12.53,3.08.16,6.32.16,9.49Z"/><path d="M685.32,497.26l14,2.76-.75,4.4-14.37-2Q684.79,499.86,685.32,497.26Z"/><path d="M1317.56,542.31c0-5.78-.13-10.86.2-15.92,0-.51,3.55-1.7,4.23-1.13C1324.81,527.63,1322.26,538.79,1317.56,542.31Z"/><path d="M1240,563.73,1257.14,547l1,.89-16.54,17.39Z"/><path d="M1087.05,317.56l8.32-14.94c1.32,4.45,3.07,7.2,2.32,8.44-2,3.27-5,5.87-7.64,8.74Z"/><path d="M410.08,179l12.84-12C425,175.76,420.85,180.13,410.08,179Z"/><path d="M878.71,396.48l-13.12-2.65c-.11-.9-.21-1.81-.31-2.72,3.69-.49,7.49-1.73,11-1.18,1.88.29,3.28,3.68,4.89,5.67Z"/><path d="M327.69,268.66c-3.49,3.68-4.6,10.93-12,8.73-.69-1.05-1.38-2.09-2.06-3.14l12.45-8Z"/><path d="M1110,284.82c3.24-6.41,5.51-10.92,8-15.8C1123.81,275.59,1121.77,280.38,1110,284.82Z"/><path d="M488.75,403c-1.85,8.39-3.44,15.63-5.2,23.65C479.33,420.73,482.62,406.29,488.75,403Z"/><path d="M253.29,595.63V567.38l3.43.22C253.36,577.09,263,588,253.29,595.63Z"/><path d="M1189.9,183.88,1179.56,196l-3.61-3L1186,180.72Q1188,182.3,1189.9,183.88Z"/><path d="M688.43,888.18l16.49,12.89L703,903.83,686.4,891.38C687.08,890.32,687.75,889.25,688.43,888.18Z"/><path d="M759.63,922.28l-18.49,1.19-.27-3.25L759.11,918C759.28,919.4,759.46,920.84,759.63,922.28Z"/><path d="M1361.59,469l-12.33,17.78-2.75-1.75q5.73-8.94,11.48-17.87Z"/><path d="M1598.68,233.08c.09-1.7.17-3.4.27-5.1a7.23,7.23,0,0,1,1.68-4.85c.68,3.76,1.37,7.53,2.06,11.34-10.9,3-13.5-1.52-9.57-16.82.66,5.27,1.33,10.7,2,16.13Z"/><path d="M1649.79,247l-5.91-2.92c6.28-4.37,4.76-10.36-3.37-14.62,6.24-3.74,9.85-2.34,10.24,4.47.26,4.32-.61,8.71-1,13.06Z"/><path d="M363.13,237.66,350.46,249l-2.32-2.49c1.09-6.95,7.57-8.44,12.57-11.42C361.52,236,362.33,236.81,363.13,237.66Z"/><path d="M1122.54,952.36c-6.83-5.87-2.84-10,.21-14.08a3.13,3.13,0,0,1,3.07-.29c.87.85,1.77,2.61,1.44,3.57C1126.08,945,1124.38,948.28,1122.54,952.36Z"/><path d="M424.63,971.34,406,972.79c-.13-1-.26-1.94-.38-2.91,5.53-4.48,12.28-1,18.31-2.21C424.18,968.89,424.4,970.12,424.63,971.34Z"/><path d="M538.5,125.76l-6.69-10.06,8.59-1.82c.3,4.32.59,8.39.88,12.47Z"/><path d="M362.42,322.4l15.29-1.65c.17,1,.34,2,.5,3-4.36,4.51-9.86,3.27-15.33,2.18C362.73,324.78,362.58,323.59,362.42,322.4Z"/><path d="M993,344c2.49-2.66,3-3.48,3.24-3.42,4.22.8,8.41,1.71,12.61,2.6-.56,1.23-1.28,3.58-1.67,3.52C1002.93,346.16,998.73,345.2,993,344Z"/><path d="M407,373l4.38-19.54,3,.54q-1.75,9.67-3.5,19.36Z"/><path d="M549.89,389.75c-.36-5.77-2.39-12,6.84-15l-3.84,15.68Z"/><path d="M297,310.51q-4.39,11.55-8.77,23.1l-2.8-1.08,8.81-23.1Z"/><path d="M1503.88,419.34l6.81-20.09,3.16,1q-3.25,10.39-6.49,20.8Z"/><path d="M761.9,310.8l-16.73-2.28C755.79,301.52,758.44,301.88,761.9,310.8Z"/><path d="M755.05,514.82c5.8-6.55,9.13-6.67,17.17,0Z"/><path d="M829.56,520.93,844,518.67C839.37,527.13,839.08,527.18,829.56,520.93Z"/><path d="M698.94,299.14c2.57-.74,5.26-2.32,7.68-2s4.53,2.6,6.78,4c-2.18.68-4.34,1.82-6.54,1.91-2.57.11-5.17-.69-7.76-1.09C699.05,301.05,699,300.09,698.94,299.14Z"/><path d="M334.6,258.51l11.72-9,2.18,1.67c-2.47,3.18-4.6,6.73-7.56,9.37-1.28,1.14-4.25.38-6.46.48Z"/><path d="M1582.88,213.8c1.11.66,3.1,1.21,3.19,2,.86,7.34,1.4,14.72,2.08,22.61-8.63-6.77-4.09-16.49-5-24.88Z"/><path d="M660.74,876.67c8.21-6.06,10.68-4.95,15.15,6Z"/><path d="M1106.47,178.44,1087,187c-.39-.82-.78-1.63-1.18-2.45l19.07-9.6C1105.38,176.12,1105.92,177.28,1106.47,178.44Z"/><path d="M1100,298.2c.92-1.94,1.58-4.07,2.84-5.75a32.21,32.21,0,0,1,5.23-5.07c.07-.06,2.33,1.7,2.18,2.27a19.13,19.13,0,0,1-2.78,6.9c-1.2,1.6-3.49,2.39-5.3,3.53C1101.41,299.46,1100.69,298.83,1100,298.2Z"/><path d="M1306.84,297.63c1.54,2.72,3.74,5.3,4.39,8.23.42,1.91-1.4,4.32-2.21,6.51-1.37-1.73-3.28-3.27-4-5.23-.89-2.54-.8-5.42-1.14-8.16Z"/><path d="M1133.23,252.18c.18.53.69,1.27.5,1.56-2.3,3.46-4.71,6.87-7.09,10.29-1.06-.76-3.11-2.08-3.05-2.18,2.24-3.89,4.68-7.67,7.08-11.47Z"/><path d="M564.58,199.83c1.78,5.11,6.7,9.91,2.37,15.63l-3.1.41-2.37-15.56Z"/><path d="M1668.92,199.86q4.36-7.71,8.74-15.4l2.76,1.52q-3.6,8-7.21,15.94Z"/><path d="M337.5,326.17c4.61-.78,9.21-1.65,13.84-2.22.47-.06,1.83,2,1.6,2.55-.49,1.15-1.72,2.7-2.75,2.78-4.08.32-8.21.13-12.31.13Z"/><path d="M324.71,328.31c-2.23,7.59-6.15,8.8-14.85,4Z"/><path d="M719.49,890l-14.6-2.37C708.17,879.73,711.87,880.25,719.49,890Z"/><path d="M1252.69,505.9c1.58-1.45,3.06-3,4.77-4.31,2.16-1.6,4.51-3,6.78-4.42.56.93,1.82,2.42,1.59,2.71A34.68,34.68,0,0,1,1260,506c-1.62,1.23-3.87,1.63-5.84,2.4Z"/><path d="M1311,589.76c0-3.92-.2-7.85.16-11.73.07-.84,2.18-2.14,3.27-2.06s2.66,1.87,2.55,2.72c-.47,3.83-1.48,7.58-2.29,11.36Z"/><path d="M449.57,657c3.75-.16,7.51-.44,11.25-.32.36,0,.65,2.46,1,3.78L450,662.18C449.86,660.44,449.72,658.7,449.57,657Z"/><path d="M463.32,123.21c-2.67,3.47-5.31,7-8.15,10.3a27.8,27.8,0,0,1-3.36-2.15l7.6-11Z"/><path d="M435.65,220.6c.58-8.67,3.56-10.37,14.37-7.13a51.27,51.27,0,0,0-6.52,2.28C441,217,438.71,218.68,435.65,220.6Z"/><path d="M1298.62,634c2.13,6.15.72,10.7-7.93,12l4.9-13.41Z"/><path d="M1300,615c8.15,4.11,4.75,8.52,3.13,12.34-.43,1-2.68,1.23-4.1,1.81C1299.29,624.71,1299.59,620.3,1300,615Z"/><path d="M294.21,288.23l14.73-9.36C307.62,288.35,303.8,291,294.21,288.23Z"/><path d="M1052.16,588.25h14.19c-.71,2.27-1.31,5.34-1.72,5.31-4.29-.26-8.55-1-12.82-1.64C1051.93,590.7,1052,589.47,1052.16,588.25Z"/><path d="M612.36,296.05c4.54,0,9.08-.13,13.59.15.62,0,1.78,2.41,1.47,3.24a3.86,3.86,0,0,1-3.24,1.76c-3.94-.45-7.84-1.34-11.75-2.06C612.41,298.11,612.39,297.08,612.36,296.05Z"/><path d="M404.16,521.15q3-9.71,5.93-19.39l3,1-5.79,19.8Z"/><path d="M1008.54,400q4.44-9.27,8.87-18.56l3,1.47-9.08,18.45Z"/><path d="M471.44,322.52c4.53.22,9.07.36,13.58.78.37,0,1,2.12.72,2.92a3.22,3.22,0,0,1-2.6,1.64c-3.76-.48-7.47-1.32-11.2-2C471.77,324.72,471.61,323.62,471.44,322.52Z"/><path class="cls-1" d="M402.53,740a3.09,3.09,0,0,1,2.77.35c7.8,8.32,15.7,16.6,22.84,25.48a126.15,126.15,0,0,1,14,21.25c4.36,8.51,7.48,17.67,10.92,26.63,3.13,8.15,6,16.4,8.93,24.62q9.45,26.39,18.85,52.78c2,5.69-.33,7.94-6.14,8.26-4.31.24-8.55,1.57-12.83,2.41.17,1.15.33,2.3.49,3.45h18.95l.72,3c-5.49,2-10.84,5.22-16.49,5.89-16.49,2-16.5,1.54-24.29-13.59-3.94-7.64-9.35-12.85-17.19-17.68-7.21-4.44-11.54-15-15-23.72-4.53-11.31-8.4-23.26-10-35.28-2.57-19.48-3.12-39.24-4.33-58.89-.1-1.59,1.39-3.23,1.9-4.92C398.48,754,400.23,747.9,402.53,740Z"/><path class="cls-1" d="M1160.46,852.88l19.81-11.27c17.8,18.2,2.83,28.54-11.14,39.11l2.09,1.4,16.48-9.18c4.75,5.17,9.13,9.64,13.17,14.41,2.59,3.06,4.69,6.55,7,9.84-3.52,1.16-7,2.37-10.57,3.42-1,.31-2.22.17-5.49.36,2.33,2.89,3.53,5.82,5,5.95,6,.54,12,.23,20,.23,3,5.72,7.35,13.84,11.67,22l-1,.59-14.79-16.42-2.19,1.66,11.27,21.65c-13.09,7-39.33,2.74-46.59-7.79-3-4.36-3.9-10.19-5.69-15.38a2.61,2.61,0,0,1,.22-1.72c6.24-14.32,6-14.22-.84-28.24-1-2.1.08-6.47,1.77-8.44,3.2-3.75,7.54-6.52,10.58-11.14-10.22,5.86-19.83,11-31,2.65-2.7-12.94,1-22.95,14.94-27.95,2.62-1,4.61-3.53,7.08-5a36.52,36.52,0,0,1,5.65-2.3c-.52,2-.4,4.61-1.66,5.81-5.3,5-11,9.65-16.58,14.42Zm-1.28,10.53c4.75.61,20.29-9.92,21.61-16.32Z"/><path class="cls-1" d="M463.42,937.52C448,939.05,445.33,924.75,436.7,918c-1.64,3.73-1.8,3.84,5.6,14.1,3.22,4.48,7.24,8.38,10.75,12.37-.33,1-.38,1.88-.72,2a69.4,69.4,0,0,1-9.69,3.35C427.91,953,412.87,957,400.55,944c-3.86-4.07-6.55-9.25-10.52-15-8,1.41-7.85-6.07-8.34-12.37-.48-6.11-.1-12.29-.1-16,9-6.53,16.36-11.75,23.55-17.23,4-3.07,7.28-4.45,11.23.42,2.52,3.11,6.26,5.24,9.48,7.78,4.7,3.72,7.72,7.62,5,14.36-1.85,4.66-.38,5.67,4.61,4.91,1.32-.2,3.3-.51,3.95.18C447.56,919.75,455.46,928.66,463.42,937.52Zm-37.51-30.11H407.07c1.54,4.79,2.82,8.8,3.83,11.94l15,2.81ZM408.86,921c-5.23-3.13-9.81-7.26-14.85.28l5.34,6.1Z"/><path class="cls-1" d="M1142,877.3c-11.44-14-11.36-30.89-11.79-47.5-.28-10.45.54-21,1.38-31.4.2-2.45,2.5-4.74,3.83-7.1,1.81,1.6,4.58,2.88,5.23,4.86a111.52,111.52,0,0,1,3.82,16.81c1.25,7.79,2.12,15.64,3,23.49.33,2.91.8,5.95.34,8.79C1146.08,856,1144,866.62,1142,877.3Z"/><path class="cls-1" d="M270,601.35C287.2,617,289,633.76,278.84,678,274,652.69,282.58,625.81,270,601.35Z"/><path class="cls-1" d="M1166.64,758.08c-3.3,14.43-15.25,15.31-25.16,21.56,2.72,1.09,4.9,2.83,6,2.31,12.89-5.9,22.83-14.73,27.34-28.73a8.91,8.91,0,0,1,4.63-5.32c-5,19.37-16,34-36.18,41.15l2.07,2.85q9.43-4.44,18.9-8.87c-.66,7-13.06,16.49-18,12.8-3.73-2.78-6.26-8.9-6.7-13.77-.29-3.26,4.16-10,6.24-9.89,8.34.4,11.15-6.18,16-10.14C1162.91,761.18,1164,760.3,1166.64,758.08Z"/><path class="cls-1" d="M243.13,775.5c1.26-10.4.71-21.44,4.15-31.06,8-22.44,17.93-44.18,28.12-66.53-1.36,7.51-1.74,15.36-4.27,22.45-8.26,23.12-17.31,46-26,68.91-.76,2-1.47,4-2.2,6.05Z"/><path class="cls-1" d="M1163.19,910.33C1145,909,1145,909,1143.26,883.8,1171.46,893.26,1171.46,893.26,1163.19,910.33Z"/><path class="cls-1" d="M368.22,859.74l-4.73-2.92c-2.88,5.16,2.74,17.85-10.89,11.73.45,4.83.86,9.12,1.26,13.41l-4.1.57c-.49-3.31-1.88-6.77-1.33-9.89,2.17-12.29,12-18.94,21.15-25.23,7.64-5.24,16.77-8.3,27-13.16-1.14,3-1.39,6.68-3.31,8.14-5,3.79-10.82,6.42-16.08,9.87C374.12,854.27,371.5,857,368.22,859.74Z"/><path class="cls-1" d="M390,821.9c3.28,7.45-1.37,11.87-6.69,15.08-10,6.07-20.51,11.42-31.27,17.33V842.39Z"/><path class="cls-1" d="M471.53,958.49c7-3.3,16.63-5,10.18-16.33.74-.58,1.49-1.15,2.24-1.72L499,947.89c-3.18,2.33-4.06,2.94-4.9,3.59s-1.47,1.21-4.24,3.51h36c.36,1,.71,1.93,1.06,2.9-1.75,1-3.48,2.79-5.24,2.81-16.11.22-32.23.13-48.35.13Z"/><path class="cls-1" d="M390.18,728.88A16.26,16.26,0,0,1,371.7,745.2c0,6.31-11.48,12.69-23.57,12.07,1.52-2.65,2.21-5.53,4-6.7,11.17-7.23,22.58-14.09,34-21C387,729,388.34,729.18,390.18,728.88Z"/><path class="cls-1" d="M259,690.4l-20.46,71.45C233.26,752.07,247.17,700,259,690.4Z"/><path class="cls-1" d="M1149.8,816.33c-.23-5.1-.46-10.18-.71-15.7,8-.79,14-11.67,23.28-3.11C1170.82,807,1160.93,815.64,1149.8,816.33Z"/><path class="cls-1" d="M246.28,616.85c10.34,2.06,8.82,10.48,8.82,17.49,0,5.94-1.41,11.89-2.28,18.44H240.3l4.47-8.47V627.93l7.76,6.27-5.92-17.68Z"/><path class="cls-1" d="M369.23,723.53l-18.59,12.89-.4,1.5,17.12-3.73c.48,1,.95,2.06,1.43,3.08L349,747.87c-1-6.79-2.3-12.09-2.44-17.43,0-1.71,2.63-4.7,4.43-5,6.06-1.06,12.29-1.18,18.45-1.67Z"/><path class="cls-1" d="M398.9,845.31c2,9.74-11,22.23-25.06,24C372.68,861.29,381.68,852.66,398.9,845.31Z"/><path class="cls-1" d="M1198.75,947.12h-19.91c1.69,2.1,2.7,4.44,3.7,4.44,9.51,0,19-.44,28.53-.81,4.11-.17,8.21-.74,12.3-.63,1.35,0,2.67,1.65,4,2.54l-.73,2.59c-12.13,0-24.26.07-36.4,0-10.51-.07-13-1.67-19.6-13.22l28.31,2.9Z"/><path class="cls-1" d="M388,817l-34.49,20.49C354.55,823.47,373.75,813.06,388,817Z"/><path class="cls-1" d="M379.66,665.12c.89,15.87-3.87,20.24-25.36,25.94C357,677.27,371.48,675.92,379.66,665.12Z"/><path class="cls-1" d="M375.41,888.72l30.23-18.35c-.6,3.2-.12,7.32-1.95,9.23C393.31,890.49,393.28,894,375.41,888.72Z"/><path class="cls-1" d="M360.22,628,342.1,635.1l-1.28-2.52L357.77,623l-9.35-1.59c.73-2.88,1.45-5.72,2.23-8.78,7.24,8.88,20.78,12.51,20.25,29.3Z"/><path class="cls-1" d="M1321.8,930.52c-1.62,1.11-3.19,3.09-4.87,3.19-14.14.85-28.31,1.37-42.47,1.91a12.07,12.07,0,0,1-3.29-.86c3.42-6.39,12-7,50.6-4A1.12,1.12,0,0,0,1321.8,930.52Z"/><path class="cls-1" d="M374.41,877.85l26.84-19.43c3.68,9.62-11.18,22.43-25.17,21.69C375.53,879.35,375,878.6,374.41,877.85Z"/><path class="cls-1" d="M354.76,668.21l-3-3.21-15.36,10.42-3.2-3.19c1.37-2,2.31-4.61,4.18-5.75,7.65-4.69,15.57-8.92,23.55-13.4C366.9,661.1,355.6,662,354.76,668.21Z"/><path class="cls-1" d="M358.59,649.85c-9.63,1.32-13.85,15.16-26.85,10.66,2.2-10.43,12-11.74,19-15.74,1.79-1,5.54,1.39,8.39,2.22C358.94,647.94,358.76,648.89,358.59,649.85Z"/><path class="cls-1" d="M1324.88,921.66c-10.37,5.93-33.35,4-57.32-3.32l.21-2.23c5.73,1.15,11.41,2.65,17.19,3.36,6.39.8,12.86.92,19.29,1.26C1310.39,921.05,1316.53,921.29,1324.88,921.66Z"/><path class="cls-1" d="M1247.85,968.13c-16.16-1-31.66-8.8-48.43-4.41-3,.79-6.75-.94-9.81-3.1,8.84-.63,18.18-3.34,26.4-1.38,10.58,2.52,23.5-1.76,31.65,9.16Z"/><path class="cls-1" d="M383.58,804.34c-10.41,10.14-21.37,15.47-30.94,15.45C354.32,812.79,373,803.12,383.58,804.34Z"/><path class="cls-1" d="M258.79,666V611.43h2.56V666Z"/><path class="cls-1" d="M375.9,773.14l-25.38,12.71c-.67-4.41-1.06-6.94-1.63-10.64C357.51,777.18,364.36,766.5,375.9,773.14Z"/><path class="cls-1" d="M353.94,810.39c-.59-4.09-1.67-7.78-1.08-8.06,8-3.9,16.26-7.33,24.45-10.87l2,3.89Z"/><path class="cls-1" d="M1171.35,814.87c-2.2,8.85-8.85,11.22-15.95,12.74a5,5,0,0,1-4.27-1.64,5.91,5.91,0,0,1-.5-5C1152.6,816.81,1165.67,812.86,1171.35,814.87Z"/><path class="cls-1" d="M524.44,942.05l-8.82,3.41-.21,1.62,11.21,1.78-.11,1.81h-28c2.86-1.9,4.71-3.21,6.65-4.4a98.88,98.88,0,0,1,10.43-6.06c2.54-1.14,5.51-1.31,8.29-1.91C524.05,939.55,524.25,940.8,524.44,942.05Z"/><path class="cls-1" d="M268,600.87q3.78,21.42,7.55,42.83l-3.52.58q-4.19-21.49-8.36-43Z"/><path class="cls-1" d="M368.19,700.64c-6.8,2.69-12.81-.69-14.37,6.59-.26,1.23-6.38,1.72-9.71,1.46-1-.09-1.7-3.88-2.53-6,5.38-2.05,10.64-4.67,16.21-5.89C360.15,696.29,363.16,698.68,368.19,700.64Z"/><path class="cls-1" d="M652.46,948.32c3.38,14.16,16.94,2.81,20.92,10.52-9.76,4.51-23.84.61-34.9-10.52Z"/><path class="cls-1" d="M378.22,783.77l-25.75,13.58C352,789,367.92,779.94,378.22,783.77Z"/><path class="cls-1" d="M600.53,972.63c-.25-2.32.34-5.38-.92-6.82-4.71-5.39-7.81-10.88-4.61-19.32,2.87,6.51,4.76,12.64,8.09,17.84,3.16,4.93,7.82,8.89,13,14.54l-15.72-6.43Z"/><path class="cls-1" d="M349.89,772.17c1.62-9.82,13.76-15.07,23.21-10.33Z"/><path class="cls-1" d="M443,959.33c10.06-5.88,21.54-4.42,29.21,3.07Z"/><path class="cls-1" d="M490.12,928.85H460C468.84,922.81,484.24,921.87,490.12,928.85Z"/><path class="cls-1" d="M1151.61,836.55l19.77-14.89c3,7.32-3.89,13.8-17.65,17.4C1153,838.22,1152.32,837.38,1151.61,836.55Z"/><path class="cls-1" d="M490.3,936.82c-3.7.95-10.67,2.35-10.61,2.76,1.19,8.35-5,3.49-8.8,4.35.71-3.77,1.43-7.55,2.27-12l17.25,2.83Z"/><path class="cls-1" d="M1141.43,769.27c1.91-4.67,2.19-7.55,3.76-8.78,6.59-5.14,13.57-9.78,20.63-14.75C1162.48,757.41,1153.37,762.84,1141.43,769.27Z"/><path class="cls-1" d="M458.9,920.49c15.07-5.94,26.15-5.77,29.42,0Z"/><path class="cls-1" d="M536.78,560.84c-10.77-6.2-13.28-16.35-7-22.61C531.94,545.27,534,552,536.78,560.84Z"/><path class="cls-1" d="M344,722.36c.85-3.49,1.15-8.52,2.26-8.71,5.18-.86,10.57-.38,15.89-.38l.43,2.77Z"/><path class="cls-1" d="M369.47,723.75l-2.56-5.2,17.72-12.31c-2.26,8.57-7.8,13.9-15.4,17.29Z"/><path class="cls-1" d="M380.25,640.49c-9.09-6.17-12.81-15.89-9.37-22.67Z"/><path class="cls-1" d="M766.68,934c9.07-.64,17.69.58,25.32,6-9.17,1.16-17.69-.34-25.15-6.14Z"/><path class="cls-1" d="M369.2,730.7l14.62-13.05C386.26,727,380.2,732.59,369.2,730.7Z"/><path class="cls-1" d="M950.66,635.88c10.84,3.41,24.49-3,31.69,9.85Z"/><path class="cls-1" d="M351.26,689.89l-10.8,10.24c-1.17-4.93-1.84-7.72-2.72-11.44l11.89-1Z"/><path class="cls-1" d="M364,692.49l17.48-4C377.88,697.73,373.77,699,364,692.49Z"/><path class="cls-1" d="M712.62,972.52l-22.28-9.25c.43-1,.85-2,1.27-3.08l22.27,9.26Z"/><path class="cls-1" d="M1246.84,937.19l4.41,8.65h-18Z"/><path class="cls-1" d="M1082.66,915.93l5.17-10.92c1.44,1.5,4.36,3.55,4.05,4.39-1.2,3.16-3.44,5.92-5.29,8.84Z"/><path class="cls-1" d="M356.78,669.61l8.58-6.06c5,6.86,5,6.86-5.41,11.57Z"/><path class="cls-1" d="M1233,950.79l18.24,4.74c-.28,1.21-.56,2.41-.85,3.61l-18.19-4.38C1232.45,953.43,1232.71,952.11,1233,950.79Z"/><path class="cls-1" d="M1257.12,939.57l19.8,2c-.12.93-.24,1.86-.35,2.79C1269.14,948.94,1263,944.78,1257.12,939.57Z"/><path class="cls-1" d="M1144.92,753.11l13.8-15.88C1161.24,743.44,1152.66,753.49,1144.92,753.11Z"/><path class="cls-1" d="M266.28,675.89c0-6.69-.06-13.39,0-20.09a4.73,4.73,0,0,1,2.29-3.77v24.15Z"/><path class="cls-1" d="M389.1,764.61,374,768.77,373,765.11l14.95-4.91Z"/><path class="cls-1" d="M1560.57,211.74c.43-2.76.86-5.53,1.37-8.83h9.69C1571.28,210.05,1568.25,213.73,1560.57,211.74Z"/><path class="cls-1" d="M1552.94,323.15l18.2-28.48C1570.93,310.43,1560.82,324.18,1552.94,323.15Z"/><path class="cls-1" d="M1713.88,179.22V166.65l9.66,4.14-7,9.7Z"/><path class="cls-1" d="M1311.93,901l17.68,6.28c-.23.9-.47,1.8-.7,2.7l-18.33-4.27Z"/><path class="cls-1" d="M573.32,297.33c3.24,7.85-3.54,21.49-13.26,27.47Z"/><path class="cls-1" d="M1181.6,664.86c-4.36,3.31-6.84,5.8-9.83,7.08-.88.38-4.89-3.5-4.62-4.05a21.91,21.91,0,0,1,6-8C1174,659.29,1177.39,662.27,1181.6,664.86Z"/><path class="cls-1" d="M1648.94,325c.52-2.22,1-4.46,1.55-6.68a10.12,10.12,0,0,1,3.68-6c1.12,2.85,3.59,6,3,8.45s-4.24,4.17-6.55,6.21Z"/><path class="cls-1" d="M168.28,503.07l-7.55,6.22c-3.4-7.66.57-22.83,7.23-26.73a8.18,8.18,0,0,1,6.53-.62c1.44.66,2.9,3.73,2.57,5.37-1.51,7.58-3.63,15-5.54,22.55l-2.7-.45C168.69,507.91,168.56,506.41,168.28,503.07Z"/><path class="cls-1" d="M1117.24,434c.28,9.67-1.55,11.27-11,9.64C1105.08,433.32,1106.06,432.46,1117.24,434Z"/><path class="cls-1" d="M378.4,275c-4.93,4.72-8.21,8-11.77,10.89-.17.15-4.22-3.64-4-3.94a78.36,78.36,0,0,1,8.74-10.82C371.7,270.8,374.53,272.86,378.4,275Z"/><path class="cls-1" d="M759.41,398.06c-4.86,4.29-7.64,7.19-10.95,9.23-.52.33-5.28-4.17-4.94-4.83a39.16,39.16,0,0,1,7.49-10C751.39,392.12,755.11,395.17,759.41,398.06Z"/><path class="cls-1" d="M617.19,355.51c6.25,3.87,10.41,5.94,13.71,8.94.56.51-1.92,6.33-4.1,7.36-2.58,1.22-8.87.62-9.16-.43C616.53,367.42,617.19,363,617.19,355.51Z"/><path class="cls-1" d="M337,212.66c-3.15-5.54-6-8.52-6.22-11.67-.13-2,3.6-4.34,5.6-6.52,2.13,2.66,5.33,5.07,6,8.06C342.81,204.63,339.85,207.51,337,212.66Z"/><path class="cls-1" d="M1380.33,390.49c-.37-4.29-1.69-8.83-.64-12.73.41-1.49,8.65-2.93,9.23-2C1392.64,382,1389.55,386.81,1380.33,390.49Z"/><path class="cls-1" d="M912.3,221.49c1.54,7.34-.2,12.38-7.08,13.27-1.4.18-5-4.75-4.94-7.28C900.42,219.2,906.61,221.16,912.3,221.49Z"/><path class="cls-1" d="M874.47,414c-3.93,4.12-6.66,7-9.39,9.87-1.87-2.14-5.19-4.21-5.3-6.44-.24-4.75,1.51-9.69,7.78-9.05C869.5,408.53,871.19,411.18,874.47,414Z"/><path class="cls-1" d="M329,599.69c3,3.23,6.24,5.62,5.86,6.64-1.34,3.59-3.94,6.72-6.07,10-1.81-2-5.3-4.19-5.08-5.93C324.08,607.15,326.62,604.13,329,599.69Z"/><path class="cls-1" d="M1583.82,360.11c-2.39-3-5.42-5.43-5-6.56,1.07-2.84,3.7-5.09,5.7-7.58,1.94,2.13,5.45,4.29,5.42,6.39C1589.9,354.64,1586.56,356.86,1583.82,360.11Z"/><path class="cls-1" d="M401.35,563.73c-2.14-4.51-4.13-6.8-3.61-8,1.4-3.08,3.88-5.67,5.93-8.46,1.45,1.73,4.39,3.87,4.05,5.12C406.86,555.61,404.53,558.38,401.35,563.73Z"/><path class="cls-1" d="M746.43,217.26c-3.29-4.35-6.5-7.06-6-8.23,1.5-3.63,4.41-6.67,6.77-9.95,2.19,2,6.46,4.45,6.15,6C752.62,208.64,749.73,211.8,746.43,217.26Z"/><path class="cls-1" d="M1198.62,675.17c1.48,2.69,4.54,5.73,4,8-.62,2.84-4,5.28-6.59,7.31-.52.41-4.55-2-4.43-2.72a111.35,111.35,0,0,1,3.46-12.3Z"/><path class="cls-1" d="M1227.31,462.75c-5.13-6.49-4-10.38,4.2-15.13C1236.45,454.27,1233.68,458.77,1227.31,462.75Z"/><path class="cls-1" d="M595.72,160.54c-.48-.55-3.57-3.6-3.34-3.89a50.26,50.26,0,0,1,9-8.5c.34-.24,4.59,3,4.88,4.95C607.11,158.87,603.29,160.8,595.72,160.54Z"/><path class="cls-1" d="M468.4,415.31c-3.64,3-6.08,6.56-8.71,6.7-2,.11-6.5-5.38-6.09-6.07,2-3.37,5.38-6,8.25-8.84Z"/><path class="cls-1" d="M1629.58,418.42l-8.53-2.7q2.42-5.7,4.82-11.41c2.25,1.81,6,3.37,6.36,5.47.43,2.78-1.87,6-3,9Z"/><path d="M1159.18,863.41l21.61-16.32C1179.47,853.49,1163.93,864,1159.18,863.41Z"/><path d="M425.91,907.41v14.75l-15-2.81c-1-3.14-2.29-7.15-3.83-11.94Z"/><path d="M408.86,921l-9.51,6.38-5.34-6.1C399.05,913.71,403.63,917.84,408.86,921Z"/></svg>