<svg id="Layer_1" data-name="Layer 1" xmlns="http://www.w3.org/2000/svg" viewBox="0 0 300 300"><defs><style>.cls-1{fill:#fff;}</style></defs><title>Artboard 1</title><path d="M57.67,175.38l-1.11.4-.39-6.25,1.73,1.56v-.8l.38-.36c1-.1.76.74,1,1.25a3.36,3.36,0,0,0,.35.57c.19-.16.53-.31.53-.48,0-1.6.51-3.25-.39-4.77-.15-.26-.33-.5-.39-.59.16-.58.47-1.08.37-1.5s-.66-.5-1-.73c2-.41,1-2.38,1.79-3.4.3-.25.63-.48.9-.75a4.39,4.39,0,0,0,.47-.66c.12.29.36.59.34.86-.05.75-.24,1.48-.32,2.23a11.08,11.08,0,0,0,.07,1.49c2.29-3,2.25-6,1.93-9.33l1.13.46-.3-2.28.57,0,.74,1.55.35-.13c-.35-.76.68-1.78-.61-2.42-.15-.07.06-.85.11-1.4.87.43,1.19.22,1.41-.69a10.93,10.93,0,0,1,1.46-3c0,.8-.6,1.61.34,2.3.14.1-.32,1-.43,1.48,0,.18.13.41.21.61l-.54.7-.39-.13.42-2.2c-1.39.77-1.75,3.71-.77,5.93.14-.35.17-.75.38-.87,1.28-.81.51-2.3,1.15-3.31l-.3-.08c2-1.85,2.88-4.35,4.06-6.82l1.22-.25-1.16,2.45.21.16c.16-.08.41-.12.46-.25a5.92,5.92,0,0,1,2.25-2.91c.69-.45.82-1.73,1.26-2.61.35-.71.78-1.38,1.17-2.07l.3.16-1.69,3.62.15.07,2.12-2.41c-.55,1-1.09,2-1.67,2.91s-1.59,2.07-1,3.59l-1-.37a5.77,5.77,0,0,0-.18,4.43,1,1,0,0,0,.62.59.84.84,0,0,0,.66-.41,18,18,0,0,0,.86-2.25c.76-2.58,1.49-5.18,2.19-7.78,0-.17-.34-.45-.53-.67.31-.51.58-1,.93-1.53.15-.2.45-.29.68-.44.08.32.3.69.2,1-.6,1.6-1.37,3.15-1.89,4.78a25.23,25.23,0,0,0-.56,3.39c-.15.83-.36,1.64-.54,2.46l.4.14c.36-.8.74-1.59,1.07-2.41.81-2,1.6-3.93,2.41-5.89a26.77,26.77,0,0,1,1.59-3.63c.82-1.35,1.15-3.17,3.11-3.53l-.78-1.27-2.1,3-.31-.2c.55-.91,1.12-1.8,1.64-2.72.38-.67.64-1.41,1.06-2.05.18-.27.64-.37,1-.55.41.88.68.07.83-.13.6-.81,1.13-1.67,1.47-2.19.62-.1,1.06,0,1.18-.21.43-.62.76-1.31,1.14-2l2.19-3.82.33.62,2.5-5,.23.1-.64,2,.37.18L98,117.86c-.22,1.42-1.21,2.9.18,4.25l-1.24-.54-.46,1.74,1.28-.59c-2.18,1.85-2.54,4.43-3.15,7.19L96,128.76l.26.12-1.18,2.86.31.22a9.15,9.15,0,0,0,.8-1c.49-.77.93-1.56,1.4-2.35L97,131.16c-2,1.36-3.26,3.1-3.22,4.44l1.6-1.8c.55-.6,1.13-1.16,1.62-1.8.13-.18,0-.58,0-.88,1.31-.67.59-2.05,1.06-3l-.48.57.7-3.57-.55.27a5.19,5.19,0,0,1,1-1.72c.76-.9-.45-1-.59-1.59,1.37.44,1.48-.67,1.76-1.49.2-.59.2-1.26.39-1.85.44-1.41,1-2.78,1.4-4.2a25.57,25.57,0,0,0,.33-2.65c.14-.95,1-1.69.76-2.77,0-.23.31-.64.57-.81.45-.3.61-.43.43-1.11a3.94,3.94,0,0,1,.54-2.32,4.41,4.41,0,0,0,.55-3.6l.32.09c.16-.38.51-.79.45-1.13-.26-1.52-.64-3-1-4.52l-.55,0-.22,1.54-.27.06L103,94.49c.59.3,1,.48,1.37.71s.59.34.67.59c.4,1.19.72,2.39,1,3.6a11.66,11.66,0,0,1,.24,1.39l1-1.62.19.07a2.87,2.87,0,0,1-.2.84c-1.17,2-.28,3.9.5,5.65,1,2.16,2.29,4.15,3.58,6.43a28.34,28.34,0,0,0-2.34-2.47c-.91-.75-1-2.05-2-2.73-.83-.52,0-2.32-1.64-2.52-.52,2.64-1,5.23-1.55,7.93-1,0-.65,1-.8,1.72a53,53,0,0,0-1.05,5.31c-.17,1.25-.26,2.52-.46,3.78,0,.24.23.53.36.8l.39,0,2.28-10.84-.12,0,.81-1.54a24.22,24.22,0,0,1-.66,5c-.5,1.58-.26,3.41-.35,5.25l-.81-.23.22,3.06.28,0,1-1.75.54,1.78c.89-1.61,2.17-2.68,1.67-4.49-.07-.22.38-.57.54-.88a3.45,3.45,0,0,0,.49-1.23c0-.81-.1-1.62-.16-2.54,1.88,1.12.77,3.46,2.26,4.66a2.29,2.29,0,0,0,.18,2.85l.17-2h2.28a10.62,10.62,0,0,0-1.05,2.25,16,16,0,0,0-.12,2.86c0,.34-.06.69-.1,1l-.6,0c0,1.43-.83,2.88.14,4.58.47-1.67,1.09-3,.43-4.58l1.12,1.25.75-2.58c1,1,.43,1.65,0,2.4a7.58,7.58,0,0,0-.79,2c1.06-.51,2-3.18,1.72-4.23a1.56,1.56,0,0,1,.08-.93c.9-2,1.9-4,2.71-6.09.22-.54-.08-1.29-.15-2l-1.16.25c.19-1.3-.67-2-1.27-2.88-1.09-1.52-2.24-3-3.37-4.46l.37-.3c.89,1,1.81,2.07,2.66,3.15.66.83,1.21,1.76,1.85,2.61.08.12.39.07.94.13l-1.89-2.67.06-.08,2.15,2.41.29-.28.65-.56.2.14-.44.9c.85-.19,1.48-.13,1.58,1,0,.45-.23,1.12.71,1.34.29.07.29,1.35.44,2.15l.56-.33,1.15,2,.37,0q2.25-5.66,4.49-11.29l-.25-.2-2.84,3.43-.33-.29c1-1.24,2.12-2.45,3.08-3.75a14.31,14.31,0,0,0,1.77-3,18.28,18.28,0,0,0,.88-3.46,5.68,5.68,0,0,0-.16-1.33c0-.16.11-.33.18-.49l.34,0a15.11,15.11,0,0,1,0,2.13c-.09.66-.64,1.36.49,1.64.06,0,.06.29.1.54-1.19-.27-1.26.7-1.5,1.35-.72,2-1.34,4-2,6-.49,1.51-.93,3-1.51,4.51a14.38,14.38,0,0,1-1.27,2.07,1.35,1.35,0,0,0-.21.72c2.76-2.33,3.39-6,5.17-8.91l.48.23-.69,3.53.26.06c.4-.69.79-1.38,1.22-2,.1-.16.35-.21.52-.32a2.83,2.83,0,0,0,.73-.52c.82-1.11,1.58-2.26,2.39-3.37a.57.57,0,0,1,.58,0,3.39,3.39,0,0,1,.74,1c0,.11-.23.54-.32.53-2.11-.29-2.09,1.67-2.8,2.75s-1.13,2.49-1.79,3.69c-.51.91-.6,2-1.24,2.85-.12.17.11.59.24,1.2l-.86-.79-.51,2.37c.8.28.25,1.17,0,1.68-.77,1.86.44,3.2.92,4.8l-.75.22-.35-1.21-.36,0-.91,3.78.17.11,1.41-1.93.26.17a11,11,0,0,1-1.25,1.79c-.87.85-1.23,1.69-.52,2.78l-1.18.43-.14-1.59-.24,0-.4,2-.33-2.33-.27,0-1.1,5.07c1.68-.46,1.93-.91,1.68-2.74l1,.17.1,1.27,1.51-1.43-.66-.93c.69.45,1.24.48,1.72-.37a14.21,14.21,0,0,1,1.41-1.81l-.32-.3-.85.46c-.06-.17-.15-.32-.12-.36a11.43,11.43,0,0,1,1.34-1.44,17.4,17.4,0,0,0,2.44-1.82,13,13,0,0,0,1.45-2.71l.36-.72v1.47l.22.09,1.31-2.22-.33-.32-2.73,2.06c-.66-1.18.17-2.67-.45-4l.3-.08.82,1.64a3.14,3.14,0,0,0,1.46-3.2c-.15-1-.45-2,.77-3.1v3l.3,0,.53-1.15.37,2.35c.89-2,.67-4,1.26-5.87s1.28-3.79,2-5.91v2.6c.95-.19,2-.74,2.61-.43s1,1.5,1.62,2.43a9,9,0,0,0,2.77-3.6c.54-1.42.66-3,1.11-4.49l.65,3.51a7.4,7.4,0,0,0,1.72-4c.08-.38.14-.76.21-1.14.18-1,.43-2,.55-3C151.66,100,150.78,98,150,96s-2.82-2.67-4.65-3.42c-1.32-.55-2.68-1-4-1.62a6.42,6.42,0,0,1-1.34-1.14l7.46,3c-.34-1.22-.64-2.31-2-2.64-.83-.2-1.08-.92-1.11-2,0-.29-.36-.59-.6-.84a8.33,8.33,0,0,0-.85-.7l.22-.32,3.08,2-1-.07c1,1.28,1.62,2.74,3.78,2.38a10.53,10.53,0,0,1-.93-.67,4.57,4.57,0,0,1-.45-.61l.76-.42-1-3.07.79.08-.21-1,1.56,1.78.15-.12-1.06-.33c.33,1,.58,1.77.8,2.52.29,1,.54,2,.83,2.93.15.5.36,1,.57,1.59,1.8-2.26,1.9-3.31.53-5.12.57,0,1.08,1,1.44-.08.41,1.28.77,2.38,1.21,3.73l5.2-5.27.28.26c-.71.81-1.41,1.62-2.13,2.41s-1.41,1.5-2.11,2.26c-1.19,1.33-1,3-.86,4.53.07.63,1,1.15,1.43,1.75,1.56,2,3.08,3.93,4.65,5.88a5.22,5.22,0,0,0,1,.73v2.08l-.63-.93c-.72.39-1,.79-.57,1.49.73,1.31,1.39,2.66,2.11,4,.07.13.31.18.7.38l-.12-1.79,1.13.51-.09,2.18,1-.43c-.5,1-.73,2.13-1.68,2.86a2.4,2.4,0,0,0-.55,1.58,8.72,8.72,0,0,0,.25,1.82c.84,0,1.21-.48,1.11-1.19a4.87,4.87,0,0,1,1-3.12c1.18-2.07,2.22-4.22,3.43-6.28a11.48,11.48,0,0,1,2.4-2.79L166.93,112l1.09-.49,0,0c-.66,1-1.35,2.09-2,3.16-.4.68-.72,1.41-1.07,2.12l.41.31,1.57-1.57c.34.84-.08,1.37-.69,1.94s-1.18,1.33-2.33,1.11c-.39-.08-.95.58-.38,1.23a7.76,7.76,0,0,1,.53.79l3.87-2.09.2.31c-1,.67-2,1.36-3,2-.78.5-2.35.42-1.39,2.11.1.18-.38.63-.37,1a4.33,4.33,0,0,0,.34,1.24,8.92,8.92,0,0,0,.82-.54c1.11-1,2.27-1.9,3.3-3,1.65-1.7,3.22-3.49,4.81-5.25.19-.2.3-.49.51-.65,2-1.47,2-3.54,1.65-5.69-.08-.57-.11-1.14-.16-1.71l.34-.06.81,4c.78-2.38,1.47-4.52,2.17-6.65l.22.07c-.77,3.33-1.54,6.65-2.35,10.13l1.43-.25c.27,1-.3,1.26-1,1.64a3.13,3.13,0,0,0-1.1,1.54,8.64,8.64,0,0,0,5.23-4.08l-.65-.31,2.59-1.36L181,115l1.86-.48c-.56.51-.35,1.44-1.3.91-.06,0-.31.24-.45.39-.4.4-.79.81-1.08,1.11,0,.35.14.8,0,1a18.66,18.66,0,0,1-1.36,1.46c-.4.44-.75.91-1.12,1.36l.24.23,2-1.68a2.43,2.43,0,0,0-.53,2.55l-.64-.17-1.09,1.47.28.27,1.41-1.61c.42-.26.85-.5,1.26-.78s1-.91,1.84-.73c.32.07.87-.4,1.14-.75,1-1.33,1.93-2.72,2.9-4.08.76-1.08,1.65-2.09,2.3-3.23a28.11,28.11,0,0,0,.91-2.68c.94-2.06,2-4.09,3-6.13.61-1.27,1.23-2.55,1.84-3.83l.32.14c-.51,1.16-1.08,2.3-1.53,3.48-.93,2.42-1.69,4.91-2.73,7.27a44.06,44.06,0,0,1-3.38,6.37c-1.1,1.7-2.62,3.11-3.89,4.71a12.14,12.14,0,0,0-1.78,3.1c.68-.51,1.69-.87,2-1.55.77-1.77,2.35-2.66,3.62-3.86a39.52,39.52,0,0,1,3.85-2.94c.19-.13.51-.09.68-.12L184,123.42l.14.21,1.4-.36.08.17a3.16,3.16,0,0,1-.5.34c-2.67,1.14-4.64,3.21-6.73,5.12-.59.54-1.31,1-.87,2.17,1.7-.95,3.84-.54,5.32-2.63,1-1.45,3.09-2.17,4.69-3.21l.65-.44-1.06-.25c1-2.8,3.54-3.42,5.93-4.26-.36.29-.69.61-1.07.86-1,.63-2,1.22-3,1.83l.28.46,4.7-3-1-.18,2.36-1.21.2.25-.79.43a2.17,2.17,0,0,0,2.55-1.6l1.68.65-2.33,1.7c-.42,0-.86-.21-1.12-.07a30.64,30.64,0,0,0-3.9,2.43c-2.07,1.65-4.05,3.42-6,5.2a6.75,6.75,0,0,0-1,1.57l.37.4,2.06-1.3.28.23.13-1.06a14,14,0,0,1,1.77-1.36c.37-.21.93,0,1.38-.17a10.94,10.94,0,0,0,3.23-1,7.93,7.93,0,0,0,1.87-2.46,6.64,6.64,0,0,1,.73-1.35l-.72,3.14h1l-1.43,1.18.19.35,1.91-.44.16.27c-1.9.83-1.74,2.83-2.86,4.49l2-.54c-1.65.69-3.36,1.25-3,3.79l1.37-.45-.05.69,2,.15v.26c-.87.07-1.74.2-2.62.2-1.1,0-1.42.62-1.56,1.53,2,.64,3.07,1,4.42-.1l.28.89a2.05,2.05,0,0,0,2.13-1.52,11.1,11.1,0,0,1,1.5-2.18c-.37-.79.58-.61,1.37-.85l-1.41,3.17.16.22a7.71,7.71,0,0,0,1-1c.73-1.09,1.38-2.22,2.09-3.32.12-.18.38-.27.58-.4,0,.14,0,.32,0,.42-.59.91-1.2,1.81-1.8,2.71-.46.69-.43.9.45,1.52l2.54-5-.34-.21-.85.58c.59-.79,1.19-1.57,1.76-2.38a9.5,9.5,0,0,1,1.59-1.9c-1.19,3.38-2.37,6.76-3.57,10.21,1.39-.23,1.34-.25,2-1.79.18-.44.73-.73,1.08-1.06.52,2.25-1.11,3.77-2.19,5.86l9.83-3,.12.42-3.63,1.21a46.33,46.33,0,0,0-5.94,2.07c-.83.41-1.25,1.67-1.83,2.56,0,.05.18.31.33.4.33.21.69.37,1,.55,1.26.65,2.69.83,3.92,1.68a6.47,6.47,0,0,0,3,.74c2.15.17,4.32.19,6.51.28l.14,1.44-2.24.17,0,.19,6.4,1.43-.06.49a6.54,6.54,0,0,1-1,0c-2.87-.35-5.74-.7-8.6-1.08-1.61-.22-2.93.46-4.53,1.38l5.1,1.25h-3.52c1.07,1.51,2.82,1,4.28,1.65a4.89,4.89,0,0,1-.49.24c-.13,0-.26,0-.37.34l3.88-.21,0,.28-2.27.71,2.29.62v.14h-4.77l0,.35,7.38,1.67-.08.37c-2.36-.41-4.72-.82-7.09-1.21a12.32,12.32,0,0,0-2-.19c-.26,0-.51.29-.91.54l-1.46-.1-.08.4c1.22.3,2.46.54,3.66.91a7.66,7.66,0,0,1,1.41.85c.5.3,1,.57,1.54.86-.14.07-.32.22-.44.18-.93-.3-1.82-.69-2.76-.95-.52-.14-1.26-.53-1.46.39,1.58.75,3,1.81,4.9,1.33l-.25-1a5.16,5.16,0,0,0,.71.43c.61.29,1.24.54,2.16.94l-3.16.34.7,1c-3-1.67-5.8.91-8.92,0,2,2.14,3.87,3.57,6.57,4a31,31,0,0,1,9.46,2.93l-10.38-2.67-.15.52,2.81.67v.17l-1.54.13,3.67,3.4c-2.43-1.09-4-3.59-6.71-4.1l-.33.38,1.37.73-.28.34-.62-.19c0,.07,0,.18,0,.21,1.8,1.5,3.58,3,5.44,4.46a3.62,3.62,0,0,0,1.85.59c1.05.09,2.12,0,3.17,0l0,.4-3.41.31,7.48,8.79-.23.21-3.54-2.57c0,.62-.16,1.17,0,1.53,1,2,2.17,3.94,3.27,5.91l-.3.22a21.59,21.59,0,0,1-1.74-2.35c-2-3.52-3.89-7-7.27-9.47-.71-.51-1.35-1.47-2.08-1.53-2.14-.17-4-2-6.39-.79,2.27,1.92,5.15,2.6,8,3.39l-.11.32-3.62-.87,6.35,8.71-.31.37a3,3,0,0,1-.82-.56,48.26,48.26,0,0,0-7.8-8.48c-1.75-1.54-3.84-1.54-5.84-1.78l1.08,2.31a9.21,9.21,0,0,0-5.87-1c.81,2.34,3.11,1.77,4.87,2.21l-.13.38h-1.8l2.91,2.58-.08.2-2.58-1.08-.19.26,2,1.63c-1-.14-1.68-.07-2.34-.83s-1.68-1.28-2.27-1.08a2.71,2.71,0,0,1-2.12-.14c.46.68.64,1.21,1,1.44,1.34.83,2.35,2.13,4.19,2.27.87.07,1.83,1.06,2.44,1.86,1.21,1.58,2.2,3.33,3.3,5,.69,1,1.43,2,2.14,3l-.32.26c-.94-1-1.8-2.16-2.83-3.11s-2.24-1.75-3.36-2.63-2.25-1.82-3.09-2.5l7.17,7.5-.34.36-10.7-9.67-.27.27,8.2,7.85-.35.38-5.33-5-.26.27,4.68,4.88-.17.24c-1.07-.74-2.19-1.42-3.22-2.22-1.7-1.31-3.34-2.71-5-4a2.06,2.06,0,0,0-1.06-.27c-.62,0-1.23,0-1.85,0l-.11.37,3.35,1.23c-.76,0-1.3.87-2.35.08-.88-.66-2.42-.4-3.72-.3,2.58,1.77,5.83,1.2,8.45,2.84l-6.55-1.33c0,.85.13.94,1.81,1.51l-.08.71L187,191.77l-.31.41a11.12,11.12,0,0,0,1.41,1.83c1.73,1.52,3.49,3,5.34,4.37a3.81,3.81,0,0,0,2.09.49c2.66,0,5.31,0,8,.29-1.06.07-2.11.16-3.16.21s-2,0-3,.1a6.28,6.28,0,0,0-1.3.4l.05.36-4.21-.68-.16.62-2.18-.31,1.05,2.21c-1.26-1-1.9-2.74-4-2.85l.74,3.1-.27.09a11.06,11.06,0,0,0-1-2.61,5.7,5.7,0,0,0-2.24-1.6c.8,5.07,2.6,9.88,1.81,15.32-.36-1.94-.66-3.59-1-5.24h-.2l-.44,3c-.34-4.32-.26-8.74-3.09-12.74.13,1.23.14,2.26.35,3.24.29,1.36.35,1.35-.22,3.12-.41-1.51-.17-3.08-1.51-4.19v5.67h-.35c-.08-1.05-.16-2.1-.22-3.16-.12-2.27-.21-4.54-1.46-6.55-.18-.29-.4-.68-.67-.76-1.28-.38-2.59-.63-3.87-1-.82-.24-1.6-.62-2.66-1,.35,1.9.62,3.44,1.93,4.6.16.15.06.57.14.85.48,1.56,1,3.11,1.44,4.64l-1.11.89c-.1-1.24,0-2.6-1.17-3.31v10.94c-.7-1.45-1.72-2.76-1.23-4.52a1.75,1.75,0,0,0-1.3-2.38,3.12,3.12,0,0,1-.92-.55c-.61-.43-1.12-.43-1.49.29a16.62,16.62,0,0,1,.72,1.55c.06.18-.1.44-.15.67-.2-.15-.5-.26-.57-.45-.26-.75-.45-1.52-.65-2.29a4,4,0,0,0-1.74-2.6c-1.13-.72-2.16-1.6-3.39-2.53l-.07,1.4c-.64-1.23-1.21-2.34-1.78-3.45l-.5,0a37.79,37.79,0,0,1-7.23,12.94l3.27-7.25-.29-.15-.53.45-.18-.1c.3-.87.66-1.72.9-2.61.35-1.36,0-1.87-.85-1.88-.5-.69-.78-1.49-1.26-1.65a9.14,9.14,0,0,1-4.39-3.09c-.79-1-1.71-.54-2.58-.32a1.26,1.26,0,0,0-.24,1.12c.71.92,1.56,1.73,2.33,2.56h-.81a41.64,41.64,0,0,0,1,22.31l-.35.08c-.2-.52-.42-1-.59-1.56a40.45,40.45,0,0,1-1.53-14.18c.09-1.85,0-3.7.05-5.55,0-.32.38-.63.66-.9.25-1.25-.76-1.57-1.77-2.13-.27,2.87-.54,5.64-.82,8.66l-.49-.93c-.25,1.89-1.27,3.62-.77,5.88l-1.89,3.26-.32-.16c.14-.43.27-.86.41-1.28a1.79,1.79,0,0,0-.41-2.07,2.15,2.15,0,0,1-.41-1.28c-.12-1.71-.15-3.42-.29-5.12a6.82,6.82,0,0,0-.52-1.45,1.43,1.43,0,0,1,0-.65c.35-2.32-.47-4.43-1-6.6l-.34,0-.34,1.27c-.28-.6-.38-1.28-.76-1.52a4,4,0,0,0-1.65-.2c0,2-.32,3.91.09,5.69s1.54,3.24,2.36,4.85l-.25.16-1.64-2.47-.92.74a6.65,6.65,0,0,0-.06-.94c-.22-1.21-.46-2.43-.69-3.64.17-.18.47-.35.48-.53a6.62,6.62,0,0,0-.1-2.56c-.34-.88,0-2.35-1.57-2.49a17.29,17.29,0,0,1-1.78-.38l2,1.42c-.73.45-.77.64-.39,1.48.48,1,.91,2.06,1.37,3.1a6.68,6.68,0,0,1-.94-1.07c-.67-1.23-1.27-2.49-1.9-3.74l-.28.15,3,6.3-.43.24a7.19,7.19,0,0,1-.64-1c-.43-.9-.74-1.86-1.25-2.7-.26-.44-.82-.69-1.39-1.14l.61-.5c.1-1.64-2-1.35-2.55-2.46l.46-.63-2.11-1.38-.33.42.86.55c-.09.46-.24.76-.16,1a32,32,0,0,0,4.61,8.07c1.12,1.28,2,2.81,3,4.19.46.62,1,1.17,1.52,1.75l-.4.34-5.4-6.44-.16.11c1.28,2.48,2.56,5,3.84,7.46-3.35-2.87-4.3-7.3-6.57-11a1.76,1.76,0,0,0,0-.76,22.46,22.46,0,0,0-1.37-4,8.51,8.51,0,0,0-2.17-2.19,12.29,12.29,0,0,0-2.06-1.33c-.51-.27-1.12-.59-1.5.23-.12-.35-.24-.7-.37-1.1l-1.84-1.89-.4,1.41a7.38,7.38,0,0,1-3.69-5.06l.87.44.28-.29-1.34-1.78-.39.25.54,1.09-1.56-1.28-.41.18.36,3.23.69,0c0,.35-.21.78-.1.87a23.94,23.94,0,0,0,3.2,2.52c.71.44,1.66.38,2.25,1.22.27.39,1,.49,1.49.67.07,0,.26-.35.39-.54a12.27,12.27,0,0,1,1.08.82c.47.44.85,1,1.36,1.37.78.6,1.63,1.1,2.45,1.65l-.17.33-1.88-.66a6.56,6.56,0,0,0,.8,1.59c.79,1,1.76,1.83,2.55,2.82a2,2,0,0,1,.06,1.56A15.33,15.33,0,0,0,125,196.2c-1.2-1.47-2.83-2.72-3.59-4.38-1.06-2.29-3.33-2.41-5-3.61-.78-.57-1.67-1-2.72-1.62,1.24,2.45,3.58,3,5.48,4.3l-3.07-.47.71,1.21-.87.11-.13,1,1.72,1.3-.16.24-1.86-.84a41.88,41.88,0,0,0,.49,5.23,48.22,48.22,0,0,0,1.75,5.25l-.27.12c-.63-1.64-1.37-3.23-1.84-4.91-.4-1.46-.38-3-.74-4.51a6.48,6.48,0,0,0-1.43-2.36c.29,2.92.34,5.87,2,8.46l-.32.2a7,7,0,0,1-1.14-1.77c-.37-1.45-.55-3-.8-4.44-.16-.93-.26-1.87-.49-2.78,0-.2-.49-.31-.76-.45s-.45-.13-.49-.25c-.54-1.85-2.58-2.19-3.71-3.56.11,1.12.19,2.24.34,3.35,0,.16.33.28.5.42.54.43,1.09.84,1.61,1.29.81.69.05,1.26-.14,1.89a1.72,1.72,0,0,0,.09.92c.39,1.23.81,2.46,1.2,3.7a3.82,3.82,0,0,1-.08.82c-.94-1.34-1.71-2.42-2.58-3.67v1.21l-.28.07-.85-2.68-.16,0,.1,1.54c-.89-1.17-.93-2.91-3.2-3l2.44,5.37-.18.13-5.45-4a5.37,5.37,0,0,0,2.6,3.83l-.54-1.54.4-.18,1.78,3.77a11.73,11.73,0,0,1-2.24-1c-1.37-1-2.65-2.09-4.14-3.29l1.25,4.34-.29.16a5.48,5.48,0,0,1-.87-1.45c-.32-1.38-.45-2.8-.74-4.18a11.09,11.09,0,0,0-.71-1.77l-.4.11.28,1.94-.34.09c-.24-1-.49-2.07-.74-3.11-.87,1.1-.57,2.27-.31,3.41.17.74.47,1.45.63,2.2,0,.14-.34.5-.55.53s-.49-.21-.78-.36l-.15.78-.63-.39c-.61-2.64-2.67-3.71-4.79-5.27a8.28,8.28,0,0,0,.38,1.9,12.51,12.51,0,0,1,.88,1.63l-1.39-1.31a15.4,15.4,0,0,0,3.74,6.55c-1.69-.79-3.25-1.52-4.79-2.28-.17-.08-.23-.35-.34-.54l2.7,1.1c-1.22-2.49-1.35-2.57-3-2l.29,1c-1.1-1.14-2.63-1.24-4-1.64a2.53,2.53,0,0,1-.83-.43c-1.12-.82-2.22-1.67-3.33-2.51l-.34.32.6,1.25-.12.16c-.63-.58-1.3-1.13-1.87-1.77-1.12-1.24-1.61-1.19-2.37.59l-3.25-2.49-.28,1.48c-1.77-.58-2.42-1.94-2.72-3.65l1.47,1.24.35-.36a16.41,16.41,0,0,0-1.46-1.32c-.13-.1-.7.1-.73.23a8.1,8.1,0,0,0,0,1.49l-.7-.55c-.62.65-1.11,1.36-1.4-.27-.18-1-1-1.92-1.67-3.05l-.8,1.79H62.29l.91-3.86-1.05.09c.24-1,1.84-1.37,1.1-2.6a20.05,20.05,0,0,1-3.22,3,15.14,15.14,0,0,1-4.29,1.53c-.89.22-1.09-1-.87-1.25.79-.94.09-1.78.29-2.57a12.74,12.74,0,0,1,1.08-2.19c1.07-1.43,2.24-2.8,3.41-4.16.54-.63.61-1-.26-1.42a10.63,10.63,0,0,1-1.75-1.35l1.56-.17.19-.4-2-2.29C56.92,173.75,56.58,174.66,57.67,175.38Zm45-40.22,1.59-3.34-.4-.17L102.47,135c-.63.71-1.26,1.41-.93,2.53ZM84.1,159.72a5.07,5.07,0,0,0-1,.78,6.34,6.34,0,0,0-.65,1.24l.4.23a6.14,6.14,0,0,0,1.17-1.1c.18-.28.06-.75.08-1.14l.63-.76-1.09-.26,1.19-1.89-.35-.23-2,2.85Zm76.79-38.5.8.91c.5-.82,1.36-1.49.8-2.76-.71.55-2,.41-1.58,1.87-.75-.62-1.06-.18-1.15.53a13.4,13.4,0,0,0,0,1.68c1-.23,1.53-.67,1-1.68C160.72,121.63,160.85,121.4,160.89,121.22Zm25.74,20.33-.28-1.28c-1.3.67-1.36.81-.72,2l1-.79c.2.18.47.56.59.52a9.81,9.81,0,0,0,1.69-.83c.17-.1.39-.42.35-.53a1.07,1.07,0,0,0-.57-.54C187.61,139.76,187.19,140.06,186.63,141.55ZM175.57,158l-2.48-.36c-.1.92.19,1.15.93.86.51-.19,1-.33,1.55-.49.13.19.22.47.4.54a6.19,6.19,0,0,0,1.65.56c1.35.19,2.7.29,4.06.43l.06-.51Zm-98.52,24.6a4.58,4.58,0,0,0-1.59-2.11l.18,3,1.46-.9c-.88,1.29.32,2.55,0,3.61l1.28.52L77.93,185c0-.72,0-1.48,0-2.23C77.88,181.9,77.45,182.27,77.05,182.59Zm11,9.09c-1.4-.31-.56-1.89-1.51-2.52a6.16,6.16,0,0,0,.06,1.55c0,.23,0,.47.1.7a11.59,11.59,0,0,0,.45,1.78c.19.48.92,1,.81,1.28-.37,1,.44,1.29.87,1.84a1.9,1.9,0,0,0,.11-1c-.28-1.21-.61-2.41-.92-3.62l1.81,1.16c0-.17,0-.43.12-.5,1.13-.7.4-.87-.28-1.16s-1.43-.75-2.08-1.09Zm99.6-53.74c-.43-1.08-1.34-.05-1.93-.43l-.54,1.89.43.28,2.07-1.77,1.83.46-1.05.85c2,.86,3.14.2,3.33-2C190.39,137.33,188.92,136.78,187.67,137.94Zm-99.95-.62L89,135.24l-.26-.32h1.32l.11-.2-1.09-.6,1.7-1.27-.08-.32c-.63-.1-1.53-.5-1.84-.23-.48.42-.56,1.29-.8,2-.12.34-.09.81-.32,1a1.22,1.22,0,0,0,0,2c-.79.07-1.55,1.37-1.41,2.44Zm116.79,8.41,1.37-.69c-.9-.53-1.68-.86-2.34.17l1,.52a7.36,7.36,0,0,1-1.19.43,1.36,1.36,0,0,0-1.33,1.41l6.49-1.14V146a15.9,15.9,0,0,0-2.14-.43A10.44,10.44,0,0,0,204.51,145.73ZM69.84,184.05l-.23-1.6-.31-.09-1.38,2.2.28.2,1.68-.75-1.76,2.41.35.26c-1.14,1.74-.56,2.54,2.21,3.14a11.89,11.89,0,0,0-.9-2.08,1.76,1.76,0,0,1,.12-2.34C70.11,185.11,69.87,184.51,69.84,184.05Zm69.67-64.24-1.28,2,.34.26,2.26-2.36-1.34.15a1.73,1.73,0,0,0,1.06-2q-.2-.82-.36-1.65c-.17-.79-.33-1.58-.5-2.37h-.3c-.28,2.11-1.66,4.06-.65,6.43ZM95,187.06c-.76,1.65-.53,2.47,1,3.71l.64-.89,1.17,3.36.6-.13a8.73,8.73,0,0,0-.31-2c-.49-1.19-1.13-2.32-1.69-3.49-.32-.66-.69-1.09-1.46-.56.53-1.1-.13-1.49-1.16-1.9l.25,2.28ZM69.4,164l.93-2.5c-1.1.29-1.44,1.13-.92,2.5l-1,2.71-.25-.07.19-3.28-.42,0c-.09.43-.22.86-.27,1.29a7.73,7.73,0,0,1-.17,2,12,12,0,0,0-1.18,5.11l1.12-.84.49-4,.46,0v3c1.38-.15.61-1.7,1.27-2.48l.62.82c.82-.55.74-1,.16-1.46,1.17.54.73-1,1.52-1.12L71.86,167l.19,0,.69-3c-.79,1-2.5,1.23-2.29,2.83-1.08-.34-1-1.17-.92-2A3.33,3.33,0,0,0,69.4,164ZM191,172.29c.42-1.08-.31-1.19-1.13-1.4l1-.56A2.43,2.43,0,0,0,188,169.1a6,6,0,0,0,1,1.2c.17.16.47.35.46.5-.11,1.13.85,1.12,1.49,1.46,1.16.85,2.3,1.73,3.49,2.54a18.15,18.15,0,0,0,1.86,1c-1.77-2.41-1.77-2.41-1.28-2.94.47,1.5.47,1.5,3.91.8l-1.5-.15.14-.6-1.22-.44c-.33-.13-.84-.46-1-.35-.86.78-1.44.11-2.07-.32A1.77,1.77,0,0,0,191,172.29ZM99.38,131.15l-.71,1.18-1.2,2,.39.24c.76-1.23,2.29-1.93,2.38-3.65l-.9.24.58-1a18.56,18.56,0,0,0,1.23-2.1,11.77,11.77,0,0,0,.65-2.34,7,7,0,0,0,0-1.37l-1.14.5-.12-1.32-.47,0-2,8.15Zm19.2-3.81a12.55,12.55,0,0,1-.67,1.19c-.72,1-1.5,2-2.21,3.08a10.44,10.44,0,0,0-.64,1.35c1,.37,1.5,0,1.82-1a12.31,12.31,0,0,1,1.15-2.18c.41-.78.83-1.55,1.33-2.47l-.81.1c.75-1,1.47-2.11,2.27-3.11s1-2.43.27-3.2c-.57-.58-1.33-1-1.59-1.83,0-.06-.33,0-.49,0-.81,3.66-.3,7.58-3.1,10.62l.31.11C117,129.06,117.79,128.2,118.58,127.34Zm34.35-20,.49-1.69c-1.18.84-1.23,1.09-.7,1.91a12.13,12.13,0,0,1-.92,2.11,34.33,34.33,0,0,0-2.24,2.8c-.86,1.59-.82,3.55-1.89,5.1,0,0,.06.13.24.47l2.42-2.28c.4-.06.76-.1,1.12-.17s.44-.12.66-.18a3,3,0,0,1-.47.69c-.68.58-1.41,1.12-2.11,1.68-.17.14-.28.34-.46.47a11.57,11.57,0,0,0-1.87,1.35,27.14,27.14,0,0,0-1.9,2.66l-.31-.17.4-1.42-.25-.16c-.6.92-1.23,1.82-1.79,2.76-.12.2,0,.53,0,.79.84,0,.4.34.21.66-.3.5-.59,1-.83,1.43l-2.43.22,1.91-3.56L141,123a5.11,5.11,0,0,0,2.06-3.34c.07-.23-.16-.54-.35-1.09-.27.71-.29,1.15-.52,1.33-1,.76-2,1.47-3,2.15s-1.16,1.12-.48,2.07l1.9-.76c-.73,1.06-2.53,1.47-1.75,3.34l-1.42-.76-.28.33,1.27,1.53.77-.6.31,1.75c-1-.71-1.44-.14-1.78.57-.54,1.13-1.14,2.21-2.48,2.55a4,4,0,0,1-1,0c3.61-2.21,4.27-3.68,2.15-5.52l-2.29,2.68c-.94-.31-1.95,1.44-2.79,5.38l1.42-1c1,.86,1.34-.49,2.11-.78-.23.72-.4,1.67-.92,1.93-1.42.72-1.94,2-2.5,3.26a25.63,25.63,0,0,0,3.56-2.7,20.13,20.13,0,0,0,1.51-2.08c1.18-1.44,2.28-3,4.57-3.1l-4.93,6.35a6.25,6.25,0,0,0,4.55-3.76,1,1,0,0,1-.06-.9c.5-.74,1.06-1.44,1.6-2.16l-.28-.23-1,.2,4.5-6c1.72,1,1-1.86,2.41-1.84,0,2.54-2.18,4.19-2.42,6.6,1.19-1.39,2.16-2.91,3.19-4.38a4.82,4.82,0,0,1,1-.85l.26.3c-1.53,2.35-3.07,4.69-4.69,7.16.38,0,.58.06.68,0a35.43,35.43,0,0,0,8.33-8.64c.29-.42.73-.93.69-1.35-.19-1.84-.53-3.67-.85-5.74l-.9,1.1-1.1-.57c.57-.67,1.53-1.28,1.63-2,.15-1.07-.31-2.22-.58-3.7-.52,2-1.15,3.68-2.55,4.85-.13-.19-.11-.3-.06-.39.88-1.85,1.8-3.68,2.62-5.56C153.28,108.25,153,107.73,152.93,107.3Zm48.28,53.86-2.09.72.1.35,3.47-.5,0-.41-1.48-.13.67-.76-1.45.19-.41-.94c.71-.18,1.15-.73,2,0a2.33,2.33,0,0,0,2.76.47,3.86,3.86,0,0,1,1.25-.18l0,.24-1.44.51.07.33c2,.66,4.07.2,6.11.25l.07-.45-4.09-1.06c-.06-.1-.15-.53-.34-.57a15.37,15.37,0,0,0-3.91-.72c-1.85.08-3.51,1.46-5.51,1-.15,0-.34.13-.58.22l.7,1.25c-1.68-1.39-1.68-1.39-2.61-.74a5.89,5.89,0,0,0,5.65.88A3.24,3.24,0,0,1,201.21,161.16ZM61.32,167.07l.83-.95.76,2a5.8,5.8,0,0,1-.52,2.39A20.56,20.56,0,0,1,61,172.74l.48.37c-1.07,1.08-1.09,1.15-.63,3.42l.76-2.91.27,0,.15,1.85.29.09c.64-.87,1.31-1.72,1.9-2.63.18-.28.06-1,.23-1,1.5-.54,1.28-1.93,1.74-3l-.31-.24-1.18,1.18c-.35-1.37,0-2.87.65-3.31l-1.06-5.36-.4-.06-1.08,4.11-.28-.06.09-1.7-.32,0-.6,2.1-.22,0-.37-3.07-.38.05c.07,1.38-1.23,2.92.62,4.12,0,0,0,.28-.07.42-.31,1.43-.84,2.84-.39,4.33C61.61,170,62.32,168.61,61.32,167.07Zm36.05,18.26,1,3.39-1-.78-.22.17,1.14,2,1-2.74.31.11-.31,2.81,1.47-.29c-.25,1.57-.9,3.09.53,4.28,1.16,1,2.34,1.91,3.51,2.86l.37-.33-1.06-2c-.76.64-1.17.54-1.35-.31-.37-1.78-.76-3.56-1.13-5.34,1.4-.47,1.55-1.34.54-2.26l-.93.62c0-.88.17-1.89-.21-2.56a7.89,7.89,0,0,1-1-3.82,1.31,1.31,0,0,0-.66-.94,15.27,15.27,0,0,0-2.27-.54l.52,2-1,.88-1.06-3.11c-.42,1.77-.11,2.56,1.14,3.34a.8.8,0,0,1,.32.46c.14.7.24,1.41.35,2.11l-1.57-.41.63-.32a9.78,9.78,0,0,1-1.09-1.24c-.48-.75-.86-1.56-1.43-2.63-.43.63-.82.95-.77,1.16a5.9,5.9,0,0,0,.9,2.28,16.08,16.08,0,0,0,2.44,2ZM86,166.17l-.09-.14c1.09-.44,2.21-.8,3.24-1.33a41.53,41.53,0,0,1,8.28-3,50.75,50.75,0,0,0,4.83-1.75l-.18-.42-2.22,1.17,1.4-1.9a9.94,9.94,0,0,0-2.47,0A17.08,17.08,0,0,0,96.27,160a5.4,5.4,0,0,1-4,.58c-.32-.1-.76.16-1.13.29s-1,.47-1.54.63c-1.94.6-3.6,1.81-5.74,2.1-1.44.19-2.7,1.6-4.11,2.36a30.11,30.11,0,0,1-4,2.17,26.48,26.48,0,0,0-3.69,2.21c-.61.35-1.4.41-2,.81-1.24.87-2.81,1.13-3.71,2.7-.77,1.34-2.25,2.29-3.44,3.37-.69.63-1.5,1.12-2.13,1.79-1.19,1.28-2.34,2.6-3.41,4a33.77,33.77,0,0,0-1.83,2.87c.73.27,1.37.74,1.91.65a5.49,5.49,0,0,0,2.24-1,19,19,0,0,0,5.73-6.38c.5-.91,1.1-1.9,2.46-1.72.12,0,.28-.2.42-.31,1.39-1.11,2.62-2.56,4.2-3.25,3.35-1.48,6.22-3.73,9.28-5.63a34.13,34.13,0,0,1,3.7-1.57A2.76,2.76,0,0,0,86,166.17Zm70.88-51c-.39-1.52-.72-2.76-1.08-4.18-.71,1-1.14,1.49-.81,2.72.53,2,.34,4.22.46,6.34l.49.16c1.13-1.41,2.27-2.81,3.38-4.22.44-.56.68-1.41,1.24-1.69.94-.47.82-1.17.61-1.8a14.45,14.45,0,0,0-1.39-3.23,13.75,13.75,0,0,1-1.74-2.71,8.79,8.79,0,0,0-.63-1.17l.63-.54,1,1.77.31-.29-3.67-4.28-.42.18a17.76,17.76,0,0,0-.19,4.35c.36,1.91,1.28,3.71,1.83,5.59A3.49,3.49,0,0,1,156.89,115.2Zm-23.34,39.28.09-.48c-.33-.16-.67-.47-1-.46-1.62.08-3.24.23-4.86.37-1.12.1-2.23.27-3.35.34-1.6.11-3.21.11-4.81.24-.69.06-1.36.36-2,.49a42.7,42.7,0,0,0-5.59,1c-2.66.87-5.22,2-7.8,3.14a6.27,6.27,0,0,0-1.11.72c4.27-.75,8.78-1.51,13.28-2.34,1.32-.25,2.75-.32,3.88-1.42l-1.62-.41,0-.3c1.83.44,3.51-.46,5.41-.34C127.21,155.25,130.39,154.71,133.55,154.48Zm31.2,40.61c.41,1.76.77,3.42,1.19,5.06.17.68.71,1.37.62,2a1.83,1.83,0,0,0,.88,1.9c.82.63,1.74,1.14,2.88,1.88,0-1.16,0-2,0-2.81A4.91,4.91,0,0,0,169,199a17.46,17.46,0,0,1-1.59-2.53A2.75,2.75,0,0,0,164.75,195.09Zm-71,1,.39-.07c-.46-3.73-.91-7.45-1.37-11.25l-.74,1-.84-1.66H90.9c-.29,1.59-1.17,3.12-.64,4.82A22.57,22.57,0,0,0,93.79,196.12Zm92.19-63c2.52-.47,4.35-1.39,5.34-3.64l.24.29-.17.82c1.71-1.15,2.1-1.77,1.84-3.05l-1.31,1.56c.15-.88.25-1.73,1.33-2,.4-.1.71-.58,1.06-.88l-.19-.3c-1.26.43-2.54.8-3.76,1.31-.62.26-1.69.26-1.34,1.5,0,.13-.31.48-.53.56C186.72,129.89,187.06,131.74,186,133.08ZM89,190.1l1.24-6.95c1.11-.15.61-.9.41-1.77l-.54.81-2-4.14a7.72,7.72,0,0,0-.53,4.93l1,0C87,185.64,87.31,189.14,89,190.1Zm93.64-8.85c.31.28.51.51.74.68q2.61,1.89,5.23,3.75a7.06,7.06,0,0,0,1.75,1.13,27.5,27.5,0,0,0,3.14.72l.1-.38c-1.39-1.73-1.89-4.5-5-4.17l1.14,2.17-.21.24C187.85,183.11,185.86,181.3,182.68,181.25Zm-99.47,8.06-.39-.56-.1.08,1.87,2.89c-.21-3.6-.43-7.28-.62-10.54-.79-.69-1.51-1.07-1.83-1.67a6.89,6.89,0,0,1-.4-2.22l-.45,0A3.8,3.8,0,0,0,81,178.8c.12.49.61.89,1.06,1.48l-1.59-.39v3.51l.2.09.89-1.5.23.1-.13,2.37.2,0,.9-2.51.43.06ZM70.94,152.86c-3.87,1.11-3.46,4.69-4.26,7.45.39.28.93.48,1.15.87s0,.89,0,1.68c1.7-2.16.82-4.68,1.92-6.69C70.74,156.13,71.41,154.35,70.94,152.86Zm46.7,24.78.17,1-.18.09-1.15-1.68a5.55,5.55,0,0,0-.26,1.22,4.12,4.12,0,0,0,.29,1.05c.32-.09.63-.22,1-.28a8,8,0,0,1,1-.12c-.75,1.54.85,1.43,1.54,2.23-1-.13-1.69-.25-2.43-.33a5.13,5.13,0,0,0-.86.09c.19.25.33.63.58.72a3.13,3.13,0,0,0,1.08-.06c1.29,1.79,3.79.67,5.25,2.22l.26-.3-.91-1.82.86.19c-.83-1.66-1.2-1.86-2.88-1.74-.62.05-1.4.21-1.46-.73C119.38,177.77,119.39,177.72,117.64,177.64Zm12.13,8.67c0,.16-.12.32-.07.38.84,1,1.13,2.45,2.5,3.05.29.13.49.49.71.76a11.33,11.33,0,0,0,1.52,1.77,8.4,8.4,0,0,0,1.92.87l.31-.28-.79-2.41.69-.23C134.14,188.84,132.55,186.62,129.77,186.31Zm-55.2-36c-2,2.53-4.1,4.88-3.39,8.33a14.81,14.81,0,0,0,2.37-2C74.94,154.86,76,152.88,74.57,150.35Zm45.32-20.06c-1.77,1.91-4.21,3.43-3.43,6.67l-.53-.79V138l1-.8.27-.27.54,1.1c1-1.51,1.85-2.88,2.69-4.28a1.43,1.43,0,0,0,.12-.94C120.36,132,120.11,131.14,119.89,130.29ZM78,158.18l.25.1c.57-1.05,1.13-2.1,1.72-3.14.43-.75.75-1.9,1.39-2.13,1.42-.51,1.74-1.17,1.2-2.5-.11-.26.11-.67.22-1,.41-1.25.84-2.5,1.26-3.74l-.4-.16c-.91,1.93-1.82,3.86-2.71,5.81-.3.67-.44,1.45-1.49,1.26-.17,0-.56.28-.6.47C78.5,154.83,78.24,156.5,78,158.18Zm62.52,37.89c.78,2.15,0,4.47,1.49,6.48,1.69-6.32.59-6.25-1.66-9.14-1.63,1-.69,2.33-.48,3.87Zm-17.62-72.19c-.55.83-1.07,1.65-1.63,2.43-.77,1.08.06,1.23.81,1.44a3.67,3.67,0,0,0-1,4.62c.39-1,.71-1.9,1.14-2.78a1.53,1.53,0,0,1,.86-.72c.8-.21,1.74-2.08,1.3-2.8S123.47,124.74,122.87,123.88ZM104.05,184c1.9.3,3.42,1.63,5.5,1.13a3.75,3.75,0,0,0-.45-.52c-.52-.39-1.06-.78-1.71-.22-.37-.51-.71-1-1.12-1.51s-.74-.68-1.11-1l.16-.17,4.38,2.16c.32-1.16-.35-1.51-1-1.68-1.51-.37-3-.65-4.57-.94-.18,0-.55.11-.59.24-.19.64-.3,1.3-.5,2.19l1.4-.84.2.25Zm106-31-.06-.33-2.55.24,0-.34,1.39-.4-.12-.36a17.09,17.09,0,0,0-6.52,2.11c1.58,1.3,3-.25,4.63.09l-.6.5h6.72c-1.78-1.18-3.66-.52-5.5-.43l-.07-.34ZM78.73,177.7c-1.45-.91-1.69-.8-2.17.87l1.48.3-.05.33-1.27.18c1.34,2.19,1.34,2.19,2.47,2.11l-.47,2.15,1.15.08a29.88,29.88,0,0,1,0-4.14c.18-1.31-.7-2-1.38-2.76Zm9.41-6.51.14.29c.94-.46,2.24-.67,2.76-1.42,1.29-1.86,3.57-1.55,5.18-2.78,1.39-1.06,3.38-1.32,5.1-2,.39-.14.73-.46,1.12-.57,1.22-.34,2.46-.6,3.69-.93.23-.06.43-.3.64-.45l-.18-.34a35.29,35.29,0,0,1-6.15,2c-2.15.3-3.76,1.66-5.73,2.23a17.53,17.53,0,0,0-3.24,1.49c-.32.17-.49.62-.75,1Zm-15.39,13.7c-.26-.35-.31-.47-.41-.52s-.27,0-.3,0c-.57,1.12.3,1.74.83,2.55l.58-.91.12,2.19.32,0c.62-1.06,1.48-2,1.09-3.44a17.36,17.36,0,0,0-.63-2.13c-.15-.34-.57-.56-.87-.84a3.59,3.59,0,0,0-.7,1A11.53,11.53,0,0,0,72.75,184.89Zm83.07-85.35c-.06.65-.45,1.63-.14,2,1.32,1.42,2.85,2.66,4.39,4,.45-.29.49-.81,0-1.56C158.91,102.34,158.07,100.43,155.82,99.54Zm44.66,63.12-.09.52,4.17,1.2c.1,0,.24.05.28.13.88,1.57,2.37,1.34,3.78,1.36a22.28,22.28,0,0,0-3.29-2.66,6.23,6.23,0,0,0-2.53-.92A8.37,8.37,0,0,0,200.48,162.66ZM88.39,197.87l-1.55-.34.09-.34,1.51.22.16-.3c-1.48-.92-1.5-3.65-4.19-3.09-.13,0-.31-.12-.71-.28.3,1.34.64,2.32,2.12,2.63l-1.23,1C85.65,198.7,87.17,197.45,88.39,197.87Zm12.16-61.38-.45-.35c-.72.79-1.4,1.62-2.16,2.37-1.91,1.89-1.61,4.55-2.39,6.83,0,.1,0,.23.14.79A13.2,13.2,0,0,0,97,144.46c.31-.6,0-1.5.13-1.88a26.33,26.33,0,0,1,2.29-4.06C99.78,137.85,100.16,137.17,100.55,136.49Zm41.76,42.14c.15,1.62,1.15,2.47,2.24,2.26l4.42,3.36.22-.27c-.44-1.27-2.09-1.42-2.48-3C146.24,179.06,144.47,178.25,142.31,178.63ZM72.86,167.28c1.09-.89,2.28-1.48,2.83-2.43a14,14,0,0,0,1-3.74l-.37-.12-1,1.85-1-.35.54-.88-.28-.12C73.28,163.11,73,165,72.86,167.28Zm85.38,18.22-.37.19c.27.57.55,1.14.81,1.72s.55,1.17.76,1.78c.14.4,0,.93.24,1.24a4.72,4.72,0,0,0,3.75,2.21A57.81,57.81,0,0,0,158.24,185.5Zm27.45-30.77-.06.28-5.49-.31a9.45,9.45,0,0,0,3.4.68c1.29,0,2.64-.56,3.84-.3s1.49-.8,2.56-1c-2.56-1.15-4.71-1-5.55.27Zm-44.06-36.79a6.38,6.38,0,0,1,1-1.63c1.14-.93,1.33-2.21.24-3.18a1.34,1.34,0,0,0-1.94.11C140.14,114.09,140.65,117.26,141.63,117.94Zm32.66,62.3c2.1,1.18,3,3.62,5.6,3.81.37-1.25-.36-2-1.75-3.15C177,180,175.87,180.09,174.29,180.24Zm-36.82-9.08c-.84-2.32-2.88-2.18-4.9-2.72.32,1,.51,1.75.81,2.45.07.16.48.21.74.27.74.18,1.51.29,2.23.52a4.44,4.44,0,0,1,1,.66l.18-.32-.73-.42Zm-31.66,16,.29,0c0,.65,0,1.31,0,2,.08,1,.33,1.18,1.24.87-.08-2.26.09-4.68-3-5.32l-.2,1.13.25,0,.41-.76h.38a2.83,2.83,0,0,0,.37,4.08Zm-25-39.94.43.19a44.19,44.19,0,0,0,5.11-11.52l-.35-.15Zm9-2.44c-1.13,1.82-2.33,3.4-1.22,5.42l-1.73,1.63,1.11.09-.87,2.15.54.24c.35-.75,1-1.54,1-2.25a2.36,2.36,0,0,1,1.16-2.37C88.88,148.05,90.74,146.51,89.81,144.78Zm119.82,29.57.14-.58-8.92-4.08-.19.36c.85.53,1.67,1.1,2.55,1.57s1.82.83,2.77,1.26l-.45,1.22ZM90.92,172a14.18,14.18,0,0,0-2.36,2.17,10.42,10.42,0,0,0-1,2.68l.34.18a9,9,0,0,0,1-.93c.28-.35.39-1,.7-1.13,1.41-.4.55-1-.07-1.64,1.28-.13,2.72.36,3-1.37l-.71-.38L93,170.24l-.26-.23-2.36,2.1Zm-2.74-29.08.3.12c.5-.66,1.06-1.28,1.49-2a10.78,10.78,0,0,0,1.08-2.31,12.65,12.65,0,0,0,.3-2.15l.3,0-.12,1.95a5.45,5.45,0,0,0,1.18-5.11ZM162,197.05l.22,1.68.3-.37a2.11,2.11,0,0,1,.82.12,9.66,9.66,0,0,1,1.1,1,3.09,3.09,0,0,0-1.47-3,4.15,4.15,0,0,1-1.12-1.38c-.55-.85-1-1.74-1.66-2.78C159.59,194.74,161,196,162,197.05Zm-70.67-50.3c2.59.1,1.62-2.24,2.81-3l-1.32-.59c2.06-1.44,2.69-3.44,3-5.58l-.39-.18ZM143.7,120l1.21-.25c.79-.17,1.36-.34,1.33-1.47a13.3,13.3,0,0,1,.71-3.22l-.39-.22-.93,1.24-.19-.18.27-.78-.42-.17a16.71,16.71,0,0,0-.89,1.92c-.12.39.08.88,0,1.3A13.66,13.66,0,0,1,143.7,120Zm21.89,12.4-6.46,5,.14.26a23.54,23.54,0,0,0,2.13-1.07,9.68,9.68,0,0,0,2.82-2.09,3.46,3.46,0,0,1,1.87-1.2c.74-.31,1.7-.5,2-1.46l-.25-.37-2.09,1.33Zm23.63,47.42a6.81,6.81,0,0,0-.82-.72c-.93-.54-2.2-.82-2.76-1.61-1.37-2-3.26-1.56-5.1-1.53a2.8,2.8,0,0,0,1.26.29,2.2,2.2,0,0,1,2.52,1.78,2.07,2.07,0,0,0,1.1,1.27A29.61,29.61,0,0,0,189.22,179.84Zm-40.37-50,.23.36c.65-.41,1.31-.81,1.95-1.24s1-1,1.6-1.1a3.22,3.22,0,0,0,2.54-3.08C153,126.45,150.31,127.37,148.85,129.82Zm7,58.61c-1.5-2.22-1.87-5.22-4.67-6.89A11.73,11.73,0,0,0,155.81,188.43Zm-9.3,2.26a15.88,15.88,0,0,0-.46-3.88c-.22-.58-1.35-.8-2.13-1.22C143.82,188,144.74,190,146.51,190.69Zm4.07,5.12.26-.26-3.44-6.89-.45.15.83,3.15-.45.32Zm14.14-47.06-.14-.54L156,149.84c1.24,1,2.38.61,3.42.44a23.57,23.57,0,0,0,2.91-.86Zm-44.24,19.93c-.82-1.21-3.24-1.76-5.43-1.12a3,3,0,0,0,1.06.63c.46.16.94.25,1.39.36l-.39.35c.39.2.81.6,1.17.55A13.19,13.19,0,0,0,120.48,168.68Zm69.1,22.93c-.13-1-2.17-2.63-3.35-2.64l.42.75-2.27-1.14C186.38,191.47,185.28,191,189.58,191.61ZM159.4,124.42l-1.4.23,1.1-2.5a6.15,6.15,0,0,0-3,4.71l.83.91-.18-.76C157.43,125.85,159.15,125.94,159.4,124.42Zm41.08,16.22L199,142.26c2.84.46,2.69-1.82,3.49-3.2-1.48-.79-2.61-.15-2.71,1.46ZM104.79,191.7c-.11-.21-.36-.75-.64-1.27s-.59-1-.91-1.58c-.94,1.48-.63,4.77.3,5.53Zm75.17-48c-2.06-.62-3.34,1.08-4.87,2.22a13.29,13.29,0,0,0,1.9-.09c.57,0,1.14,0,1.89,0a5.1,5.1,0,0,0,.76-.92A4.53,4.53,0,0,0,180,143.7Zm-28.11,46.36c-.81,2.51-.26,3.68,1.84,4.09A3.25,3.25,0,0,0,151.85,190.06Zm5.53-7.16,5,6.8C162.65,188,158.82,183,157.38,182.9ZM188,194.84l-.28.15c.32.81.41,2,1,2.34a24.92,24.92,0,0,0,4.34,1.48l.12-.24ZM71.41,181.77c1.41-2.42,1.41-2.42.9-3.42l-4,3.58.22.3,2.76-1Zm90.42-65h-.27l.5-2c-2.21,1.25-1.45,3.18-1.81,4.73,1,0,2-.1,2.17-1.28C162.49,117.79,162,117.29,161.83,116.82Zm36.8,55.41c.93,2,4.05,2.36,5.79,1.83C202.77,172.55,200.72,172.58,198.63,172.23Zm-75.18,14.58c.07-1.75-2-3.25-3.81-2.83A4.05,4.05,0,0,0,123.45,186.81Zm61.09-33.71c-1.24-.09-2.48-.13-3.72-.28s-2.47.56-3.69-.18c-.23-.14-.67.06-1.24.13C178.89,153.79,181.66,154.38,184.54,153.1Zm-33.42,36.48-2.87-.58-.17.25,2.74,3.92.41-.18c0-.53-.09-1.06-.11-1.59S151.12,190.31,151.12,189.58Zm-15-48.25a23.05,23.05,0,0,1-2.93.89A4.49,4.49,0,0,0,130,145a23.06,23.06,0,0,0,2.57-1.55,3.12,3.12,0,0,1,.86-.29C134.48,142.86,135.62,142.68,136.09,141.33ZM76.67,165l3.09-1.71a4.45,4.45,0,0,1-.37-1.1,4.38,4.38,0,0,1,.19-1.12C77.71,161.69,76.88,162.41,76.67,165ZM71,163.47l.3.12A26.89,26.89,0,0,0,74,159.1c.45-1.22,2-2.11,1.29-3.73-.75,1.26-1.57,2.49-2.25,3.78S71.66,162,71,163.47Zm44.61,15.79c-.23-1.95-1.11-2.75-2.69-2.62-.32,0-.89.16-.91.31a1.41,1.41,0,0,0,.31,1.05,3.27,3.27,0,0,0,1.13.63c.16.07.39,0,.56,0C114.5,178.82,115,179,115.6,179.26Zm-28.9,1.81-.4-.11c-1.43,1.07-1.5,4.65.1,6.3.08-1.18.14-2.15.22-3.37l-.83,1Zm50.24-39.62,4.08-3.54-.33-.47-4.51,2.61ZM109.23,180l.06-.4a6.52,6.52,0,0,0,1-.25,1,1,0,0,0,.53-.48.64.64,0,0,0-.32-.54c-1.16-.26-2.33-.46-3.63-.71l3.3,3.86C110.51,180.48,110.55,179.87,109.23,180Zm64.16-60.76-.41-.39c-1.69,1.22-3.62,2.18-4.52,4.2l.39.41ZM76.47,192.56a6.71,6.71,0,0,1,0-1.91,2.84,2.84,0,0,0-.89-3.59C75,189,75.44,191.86,76.47,192.56ZM107,131l-.17.24c-.69,1.15-1.13,2.67-2.14,3.35-1.28.86-1.56,2.13-2.3,3.21C104.37,135.85,107,134.36,107,131Zm8.76,7.94-.44-2.06c-.41.54-.62.77-.78,1-.32.51-.61,1-.91,1.57l1.68.7c1.85-1.16,1.85-1.16,1.58-1.85ZM169,144.72l.09.41a6.49,6.49,0,0,0,1.28-.47c1.42-.95,3.22,0,4.66-1a4.85,4.85,0,0,1,1.92-.29l-.12-.63c-1.28.23-2.59.39-3.85.71S170.35,144.29,169,144.72Zm22.55-1.26c-.3-.2-.56-.35-.78-.53a4.94,4.94,0,0,0-.72-.66c-.27-.15-.74-.32-.9-.2a2.38,2.38,0,0,0-.82,1.14,1.23,1.23,0,0,0,.38,1C189.22,144.62,191.06,144.09,191.57,143.46Zm-39.22,45.73a6,6,0,0,0-4.15-4C149.05,187.16,150.87,188,152.35,189.19Zm-86.83-30,.34,0a16,16,0,0,1,.65-2.1c.57-1.26.23-1.94-1.52-2.3Zm90.77-27.73.23.34c2.23-.62,4.14-2.29,4.13-4Zm8.44-5.55c-.82.41-1.64.84-2.48,1.23-1.17.56-1.28.76-1,2.25C162.24,127.92,164.45,128.12,164.73,125.92ZM158,189.79a12.93,12.93,0,0,0-2.29-5A5.56,5.56,0,0,0,158,189.79Zm-15.49,3.87.2-.11c0-.7,0-1.39,0-2.08,0-1.64-.15-1.86-2.19-2.43Zm-31.42-50c.58-.62,1-1.15,1.53-1.6.93-.82,1-1.08.09-2.08a26.3,26.3,0,0,1-1.85,2.09C110,143,110,143.21,111.12,143.65Zm27.23,5.93c1.67-.23,3.56.68,5.17-1.17C141.61,148.38,139.87,148.23,138.35,149.58ZM181,145l3.48-.25-.14-.35.91-.89h-3.82Zm6.33,31.25c1.51,1.77,3.8,1.79,5.73,2.61C191.66,176.86,189.3,177,187.31,176.27Zm7.37-8.2c.16-1.6-.18-1.93-2.26-2.19-.51,1.59.17,2.61,1.91,2.69l-1.39-1.2.15-.2Zm-85.09-34.91-.29-.28c-.32.19-.84.34-.92.6-.4,1.46-.7,3-1,4.43A8.39,8.39,0,0,0,109.59,133.16ZM201,165.28a3.86,3.86,0,0,0-2.78-2c-.3-.09-.84.56-1.24.91a1.45,1.45,0,0,0,.4.58c.56.42.84.1,1-.44,0-.09.26-.12.41-.19C199.12,165.51,199.52,165.73,201,165.28ZM185.3,187.36a3.43,3.43,0,0,0-3.93-2A3.78,3.78,0,0,0,185.3,187.36ZM83.55,180.31l.24-.07.43-4.56c-.35.33-.65.84-.91.82-1-.07-.86.84-.79,1.13A19,19,0,0,0,83.55,180.31Zm29.59,8.28c-.26,1.71.35,2.64,1.27,3.14l1.41-1.1ZM101.93,128c1.17-.21,2.22-.19,2.22-1.53,0-1-.66-1.38-1.49-1.56Zm-29.27,61.5c.53-1.11.35-1.75-.72-2.53-.73,1.06-.35,2.11.07,3.12,0,.12.4.11.68.18l.3.92.35-.12C73.3,190.5,74,189.7,72.66,189.51ZM108.36,140l.51.25c1-1.62,2.36-3.09,2-5.39-.87.27-.9.87-.88,1.52a2.07,2.07,0,0,1-.15,1C109.39,138.31,108.86,139.17,108.36,140Zm17.76-9.43c.41-1.86.81-3.63,1.26-5.62-.42.19-.6.22-.62.29-.41,1.29-.85,2.57-1.19,3.87C125.43,129.69,124.86,130.54,126.12,130.61Zm55.5,61.16c.8,1.78.42,4,3,4.28C183.55,194.72,183.5,192.81,181.62,191.77ZM152.46,96.46a3.62,3.62,0,0,0,1.59,3.51l1.14-.7ZM151,142.12l-.28,0,.07,1.1c-1.05.76-2.5.5-3.21,1.8,2,.25,4.81-1.44,4.48-2.75l-.69,1.18Zm6.64,54.65a13.39,13.39,0,0,0-1.87,5.58C156.47,200.51,157.79,198.87,157.65,196.77Zm-34.47-67.42-1.65,4.54C123.29,133.12,124.17,130.27,123.18,129.35Zm-31.75.25.4.27L95,124.13l-.3-.17C92.65,125.25,92.78,127.87,91.43,129.6ZM135,172.9c1,1.58,2.28,2.17,3.45,1.66C138.23,173.42,136.89,172.75,135,172.9ZM73.26,147.83h-.38c-.15,1.09-.3,2.19-.41,3.3,0,0,.7.24.85.11a8.66,8.66,0,0,0,1-1.27Zm83.24,48.42-1.84-.68-.13.21,1.3,1.08-.07.16-1.32-.3.82,2.46.49,0Zm11-3.27c-.4.86.8,4,1.9,5.06A8.41,8.41,0,0,0,167.46,193Zm4.88-.72c.42,1.54,1.29,2,3.33,1.89C174.78,193.17,174.09,191.92,172.34,192.26Zm34.37-16a4.81,4.81,0,0,0-5-1.23l-.07.34Zm-28.78-29-4.4,1.17C176,149.13,177.38,148.83,177.93,147.18Zm12.8,41.18c-.75-1-4-2.07-4.6-1.62A5.88,5.88,0,0,0,190.73,188.36Zm5.4-50.79c-1.07-.16-1.82-.28-2.58-.38-1.25-.17-1,1-1.54,1.6C193.73,139.37,194.53,137.75,196.13,137.57Zm-18.56-12.64.35.37c2.15-.59,2.62-2.94,4.24-4.09l-.27-.28ZM90.81,135l.31.13,3.17-6.62-.38-.19-3,6.26A2,2,0,0,0,90.81,135Zm55,48.8.25-.37-3.46-2.31C142.75,183.32,144.43,183.38,145.82,183.83Zm6-6.6,2.94,3.08C154.55,177.76,153.83,177,151.83,177.23Zm1.27-44.08-.29-.18c-.43.53-.83,1.08-1.3,1.57s-1.78.64-1.17,1.9c0,0-.21.19-.32.29C151.06,135.56,153.07,135.09,153.1,133.15ZM200.94,153l.21.38,5.24-2.26-.14-.33C204.16,150.73,202.74,152.31,200.94,153Zm-37-17.09c2,.07,4.38-1.67,4.23-3Zm42.12,35.17c-.36-1.36-2.37-2.23-4.6-1.93Zm-93.71,18.15c.85-1.9-1.29-2.33-1.68-3.67l-1,.46C111.31,186.57,111,188.59,112.35,189.22ZM158,119.78c-2.08,1.23-2.37,2-1.72,4Zm53,53.41.3-.42-4.44-3.3-.37.49ZM137.5,177l-.19.36.95,1.15c.5,0,.87,0,1.23-.07a8.11,8.11,0,0,0,.85-.21c-.18-.31-.3-.82-.55-.89A15.8,15.8,0,0,0,137.5,177Zm16.64-69.82c.09,1.69.16,3.21.25,4.94C155.57,110.53,155.48,109.17,154.14,107.2ZM109.36,124l-.51-.1-.8,4.5A5.33,5.33,0,0,0,109.36,124Zm15.27.33c.68-1.17,1.22-2.25,1.92-3.23.48-.67.25-1-.28-1.53C125.65,121.16,124.56,122.5,124.63,124.33Zm16.82,57.46c-.15-2.12-1.36-3-2.87-2.33Zm28.62-1.9c.51,1.32.67,2.86,2.39,3.66C172.5,181.65,170.82,181.06,170.07,179.89Zm25.87-38c.92.13.92.13,1.91-1.5l.44.62.42-1.07C196.48,139.85,196.35,139.94,195.94,141.89Zm-17.1,49.49c-.29-2.6-1-3.59-2.27-3.23Zm-16.33-7c.51,1.17,1,2.3,1.56,3.53C164.83,185.94,164.08,184.28,162.51,184.35Zm-44.49-64-.38-.1-1.5,4.81.81.06C117.31,123.46,117.67,121.89,118,120.32Zm-6.79,49.47,0,.39a12.26,12.26,0,0,0,1.22.36,3.75,3.75,0,0,0,1.11,0,5.53,5.53,0,0,0,1-.28c-.26-.3-.52-.85-.78-.85A16.17,16.17,0,0,0,111.23,169.79Zm6.64,5.59-1.4-1.59c-.23.21-.69.47-.67.64.12.64,0,1.54,1,1.57C117.08,176,117.34,175.71,117.87,175.38ZM149.71,134c-1.71,0-2.6,1.29-3.84,2.59C147.83,136.31,148.51,134.75,149.71,134ZM172,118.14a2.44,2.44,0,0,0,2.51-3.13Zm31.93,17.75c-1.28-.33-1.71,0-2.42,1.59C202.48,138,203.3,137.47,203.91,135.89ZM79.79,186.8l.29,0,.53-2.41c-1.78-.43-1.83-.4-1.39,1.13A9,9,0,0,0,79.79,186.8Zm76.63,8.93.28-.29-1.79-2.59-.26.1v1.94Zm-38-45.14c-1,0-1.69.4-1.75,1.68,1-.63,2.73.4,2.85-1.68l-1.45,1.27-.2-.17Zm59.36-32-.3-.32c-2.83,1.58-2.95,1.71-2.75,3.22Zm2.94,62.47c1.3,1.88,3.66,3.33,5,3.26Zm-76.85-36.45-.14-.24-2.89,2.2.18.43a5.29,5.29,0,0,0,1.69-.67A7.21,7.21,0,0,0,103.89,144.65Zm58.23,48.8-.28.21,2.2,3C164,194.36,163.87,194.12,162.12,193.45Zm9.7-55.8-4,1.25C169.81,139.44,171.27,139,171.82,137.65Zm27.39,29.9-3.21-1A2,2,0,0,0,199.21,167.55Zm-49.43,6c.66,1.17,1.66,1.12,2.72,1.07C151.93,173.28,151.12,173,149.78,173.56Zm-19.22-39.88-.21-.2a12.75,12.75,0,0,0-1.44,1.78c-.12.22.29.73.46,1.1l.68-.25Zm49.37,23.16,0,.3c1.13.12,2.25.25,3.38.32.17,0,.36-.31.53-.48-.18-.16-.36-.46-.53-.45C182.16,156.6,181.05,156.73,179.93,156.84Zm-54.29-16.25.08.31c2,.29,2.61.08,3.4-1.43Zm59.91-8.88a2.8,2.8,0,0,0-2.71,1.72C183.92,133.78,184.44,133.46,185.55,131.71ZM161.9,112.56l.56-.27a25.34,25.34,0,0,0-2.69-4.64c.31.84.8,1.59,1.18,2.39S161.59,111.72,161.9,112.56Zm-26.57,71.37c.33.39.88.75.95,1.18.18,1.26.25,1.43,1.46,1.39A3.69,3.69,0,0,0,135.33,183.93Zm-25.54-11.28-.19.49a12.61,12.61,0,0,0,1.54.9c.25.11.62-.06.93-.1-.15-.37-.21-1-.46-1.06A7.26,7.26,0,0,0,109.79,172.65Zm28.5,10.7,3.47,3A4.42,4.42,0,0,0,138.29,183.35Zm17.83-54.19-.2-.41c-1,.5-2.12,1-3.14,1.53-.18.1-.16.55-.3,1.09Zm-31.54,48.4a3.09,3.09,0,0,0,2.5,3.06ZM96,120.09l-1.34,3,.41.27,1.68-2.25Zm5.69,19.37-1.18,3.06.33.13,1.92-2.46ZM91.22,175.12c-.9.94-1.24,4-.71,5C90.74,178.56,91,176.92,91.22,175.12Zm5.66,2.32,2.45.25-1.74-1.86c-.21.2-.48.35-.57.57A3.85,3.85,0,0,0,96.88,177.44ZM95,193.72h.39c.6-2.14.54-2.39-1.12-3.87a6.68,6.68,0,0,1,.78,1.61A14.12,14.12,0,0,1,95,193.72Zm18.62-29.25.14.69,3.89-.83-.1-.47Zm83.71,10.09-.08.36a3.28,3.28,0,0,0,3.32.35l0-.47Zm-90.34,5-2.59-2C104.12,179.08,104.44,179.33,107,179.58Zm84-38.28c.6.95,1.21,1,1.79.62a4,4,0,0,0,.77-1.13l-.32-.29ZM86.28,172.63l-.2-.38c-1,.51-2.53.17-3,1.67l.21.37Zm31.17-.31-.22.37,3.69,2.45.28-.45ZM95.9,175.83l-2.35.7v.33l2.28.61Zm103.9-5.78c-1.09-.65-2.09-2-3.75-.92Zm-11.55-35.86.15.27a11.65,11.65,0,0,0,2-.22c.24-.07.48-.51.55-.81s-.17-.56-.18-.6ZM95.49,197.94l.37-.12-1-3.53C94.55,195.64,94.4,197,95.49,197.94ZM197,158.78l2.65-.51C198,157.14,197.15,157.3,197,158.78Zm-21-30.59c-2,.6-3,1.72-2.58,2.54Zm-47.16,56.43-2.35-2.26-.22.23C127.12,183.2,126.74,185.1,128.77,184.62Zm1.4-47.88-2.33,1.91C129.5,139.26,130.33,138.59,130.17,136.74Zm34.77-6.16.21.22c1-.69,2.29-1.15,2.64-2.58l-.27-.27Zm-45,6.51c2-.24,2.49-1,1.53-2ZM87.26,149.53l0-.23-.75-.23.38-.84-.45-.2-1.19,2.88.44.2.83-1.65Zm75.44,50.78.34-.23-2.38-2.87C160.53,198.85,161.86,199.39,162.7,200.31Zm13-26.36,2.64.53C177.58,172.82,177,172.67,175.73,174Zm-4.8-50.45c1.76-.33,2.24-.85,2.5-2.7Zm-84,9.58.38.2,1.89-3.55C88.56,130.9,86.86,131.43,87,133.08Zm125.29,29.23,0-.16H207.8l0,.42Zm-52.45-43.65c-1.59.38-1.28,1.85-2,2.75l.43.23Zm20,81.16c.6-1.16-.23-3.09-1.25-3.11Zm14-14.23-.35.25,3,3.19.31-.29Zm-85.22,8.69c1.19,0,.67-1,1-1.43l-1.16-.93-.19.25ZM93.68,158.94l-.16-.33-3.45,1.71.13.27C91.4,160.13,92.82,160.13,93.68,158.94Zm91.86-22.66.16.28,3.78-1.39C187.72,135,186.47,135.22,185.54,136.28Zm-42,58,.31,0c.14-1.24.29-2.47.44-3.7C143.09,191.72,143.78,193.07,143.55,194.29Zm-29.06-51.75-2.43,2.08c.62,0,1,.19,1.18.06C113.91,144.25,114.7,143.86,114.49,142.54Zm-2.09-5.76.38.11,1-2.28.37.12-.61-1-.38,0Zm2.67,31.78c-1.39-1.25-1.51-1.22-3.11.47Zm70.53-22.34,2-.4c-.13-.22-.21-.59-.4-.65C186.54,145,185.74,144.54,185.6,146.22ZM126.87,190l.29-.27c-.41-.46-.8-.94-1.23-1.38s-.66-.58-1-.87l-.37.42Zm45.22-18,.83-1.84-1.7-.34-.2.27Zm-78.21-2.3.33.52L97,168.35l-.23-.34Zm12.88-43.23.44.07.46-3.41A4,4,0,0,0,106.76,126.52Zm-6.91,53c-.72-1.26-1.73-1.54-2.87-.7Zm50.94-27.08,3.3-.27A2.54,2.54,0,0,0,150.79,152.46ZM145,139.24l3-1.34C146.47,137.44,145.8,137.73,145,139.24Zm.76,45.17-.31.35c.21,1.23,1.24,1.32,2.13,1.62l.25-.33ZM122,174.69l.14-.29c-.8-1-1.41-2.25-2.94-1.84ZM179,137l-.21-.42-3.53,1.75.21.43Zm-16.91-6.18-.14-.23-2.24,2,1.37.28ZM130,163.17a3.12,3.12,0,0,0-3.66,0Zm63.33,12a2.45,2.45,0,0,0,3.13,1.2Zm-75.22-34.29-.51-.41-1.66,2.3.47.36Zm63-9.2c-1.38-.57-2.22-.13-2.35,1.05Zm13.88,18.22,2.09-.76-.05-.42a14.18,14.18,0,0,0-2,0A5.78,5.78,0,0,0,194.91,149.86Zm7.62-7,.09.39c.34,0,.9.16,1,0a8,8,0,0,0,.58-1.62l-.46-.26ZM156,191.44l1.73,2.09C158,191.7,157.58,191.25,156,191.44Zm-88.8-10.52a3.56,3.56,0,0,0-2.68,2.93Zm95.54-58.43-.36-.16-1.35,1.61,1.5.52Zm27.64,13.62.2.33c1.85.05,1.91,0,1.87-1.49Zm2,12.71-.06-.55a19.79,19.79,0,0,0-2,0c-.18,0-.31.38-.47.59.19.12.39.37.55.35C191.08,149.15,191.75,149,192.42,148.82ZM152.26,94l1.22,1.37.35-.12-.28-2.09ZM140.77,207.35h.47l.52-2.49a5.05,5.05,0,0,0-.95.1C140.76,205.76,140.77,206.56,140.77,207.35Zm12.64-10.66.32-.34L152,194.73C151.87,196,152.32,196.65,153.41,196.69Zm-1.1-91.61c1.13-.75,1.1-1.46,0-2.49Zm6.27,21.8c2.56-.64,2.61-.69,2.09-1.67ZM123.76,165c.84,1.27,1.57,1.28,2.82.36ZM194,142.59l-.64.13v1.57l1.17-.35Zm-81,31.47c.29.18.57.51.82.48a4.37,4.37,0,0,0,1.3-.52,2.13,2.13,0,0,0-.2-.55C114.25,173.6,113.38,173,113,174.06Zm-46.15-13c-1.65.84,0,2.31-.72,3.33l.4.06Zm112-33.89c-.85-.26-1.88.59-2.62,2.23Zm-53,42.54.12-.45-2.7-.87-.15.53ZM74.12,148.11l.72-2.51C73.74,145.85,73.61,146.26,74.12,148.11Zm74.51-34.67-.35-.23c-1,.73-.77,1.91-.82,3Zm-29.69,62.34,3.32,1.16C121.33,176.21,120.54,175.06,118.94,175.78Zm28.14,2.71c-.57-1.34-.67-1.41-1.61-1.2C145.9,178.55,146.15,178.73,147.08,178.49Zm41.45-17.27-.1.31,2.57.63-.09-.31.85-.49Zm-66.24,17.64.29-.54L120.36,177l-.28.47Zm62-37.57-2,.89.16.25h2.21Zm-74.79-20.85-.33-.22c-1,.26-1.31.92-.75,2Zm65.32,5.91-.28-.41-2.37,1.48.29.44Zm-21.65-26,.58,2.39C154.78,101.41,154.75,101.3,153.2,100.33ZM106.31,128l-.43-.11-1.1,2.58.49.2Zm-22,26.46,1.3-2C84.62,152.81,83.7,153.15,84.26,154.44Zm18.55-14.83,1.44-2.53C102.32,138.42,102.1,138.85,102.81,139.61Zm43.11,9.61-.15-.63-2.33.71.13.47Zm12.24,24.39c-.61.94-.18,1.36,1.85,1.7Zm-72.2,5c-1,.55-.89,1.34-.83,2.48C85.73,180.13,86.56,179.64,86,178.58Zm100.88,17.21.21-.23-2.49-3.39a22.24,22.24,0,0,0,1.94,3.31A2.56,2.56,0,0,0,186.84,195.79ZM81.06,190.72l.62-.15L81,188.31l-.46.13Zm22.28-13.9-.67.07.2,1.71c.19-.06.55-.11.55-.17C103.43,177.89,103.37,177.35,103.34,176.82Zm17-7.55,0,.33.5.79,1.66-.22,0-.32Zm53.8,17.24c-.4-1.68-.72-2.07-1.94-2.19Zm-69-37.81c1.81.24,2.19,0,2.26-1.27Zm10.44,21.67,1.58-.57,0-.28-2-.55ZM81.9,156.68l-.52-.3-1.25,2,.43.28Zm70.52-63.44c1.3-1,1.33-1.42.35-2.68Zm44.29,45.2c1.48.41,1.79.16,1.69-1.21ZM93.26,133.39l.45.15,1.21-2.9-.39-.17Zm-22,16.16c-.91-.13-1.41.45-1.52,2.23Zm47.57-5.66.06.47c.83.54,1.43.23,1.86-.82Zm23.77-10.51,1.53-1.46-.3-.35-1.71.42Zm28.57,54.83-.25.21c.77,1.82.78,1.82,1.91,2Zm22.48-46.44c1.54.45,1.87.21,1.73-1.15ZM186,162.36l.12-.46-2.62-.52-.1.48ZM150.6,182.82l.08-.1c-.24-.64-.46-1.3-.74-1.93-.07-.14-.35-.19-.53-.28,0,.21-.13.47,0,.6C149.75,181.7,150.18,182.25,150.6,182.82Zm21,10.47L172,193,170.79,191l-.43.26Zm-8,6.09-.31.22,1.37,2.09.45-.32Zm-35.75-13.6c.09.68-.07,1.56,1.06,1.46C129.46,186,128.33,186.15,127.84,185.78Zm71.92-32.59-1.36-.74-.12,1.66.33.06ZM184.08,130.9v.25a2.54,2.54,0,0,1,1-.14c.92.26.91.29.9-.89Zm-44.34,27.23v.14h2.85v-.38Zm-24.89-22-.39-.28-1.56,2,.42.33Zm-15.1,4.34.44.16.72-2.46-.27-.08Zm29.87,37.08.29-.45-2.21-1.43-.19.32Zm70-25.38.2.5c.92.07,1.43-.74,2.15-1.12l-.15-.32Zm-5.39-1-.41-.31c-1.05-.07-1.15.5-.52,1.57Zm-103.87-1c-1.36.7-1.44.91-.87,2.3Zm-6.7,2.36c1.53-.49,1.18-1.42,1-2.28ZM204,157.36l0-.35-2.43-.18,0,.53ZM81.61,174.26c-1.26.1-1.49.65-.86,1.88Zm38.9-35.54-.4-.31-1.35,2,.36.25Zm-29.4,8.92c-1-.21-1.14.46-1.27,1.28C90.7,148.81,91.37,148.71,91.11,147.64Zm91.79-.06-.16-.61-1.57.38c.09.2.21.56.27.55A12.72,12.72,0,0,0,182.9,147.58Zm-23.65-2.25.1.33,2.45-.78-.13-.41ZM102.7,132l-.27-.21-1.71,2.75.29.18Zm63.49,22.13c-.12-.6-1.63-.72-3-.26Zm-63.41,4.67.28.41,2.23-1.89-.13-.22Zm86.49,7.34.24-.48-1.9-.9-.22.42ZM139.91,186l-.11.16,2,2,.31-.37ZM99.5,174v-1.18a4.17,4.17,0,0,1-.79.66,5.47,5.47,0,0,1-1,.29l.08.23Zm65.68,7.09c.35,1.78.59,2,1.71,1.55Zm-33.19.33.38-.28c-.53-.52-.33-1.7-1.76-1.61ZM166.45,178l.36-.53-1.65-1.09-.24.33Zm-65.17-57c-.66.62-1.1,1.29-.33,2.16Zm60.21,3.63.24,1.48,1.45-1.29Zm-31.35,65,.37-.33-1.34-1.61-.44.39Zm18.37-2.12-.3.54,1.75.84.22-.42Zm-44-46.3c.89-.46,1.25-1.05.53-2.13Zm81.7,34.05.45-.49-1.75-1.39-.23.27Zm-78.52-3-.16.26c.28.27.52.67.85.74s.54-.35.81-.56l-.09-.3Zm32.92,2c.42,1.54,1.27,1.07,2.38.92Zm-46.43,4.66-.6.32.88,1.41.45-.25Zm12.93-33.61-.34-.4-1.7,1.48.26.32ZM139,146.92l0-.27h-2.54v.27Zm17.54,43.69.29-.45-1.67-1-.26.4ZM207.4,150l.12.44,2.33-.63-.11-.45Zm-62.75,43.87,1.75-1C144.7,192.59,144.7,192.59,144.65,193.87Zm31.26-8.17-.33.18c0,.8.32,1.39,1.66,1.4Zm18.69-34.94.38,1.5,1.14-1.5ZM131,169.93l.38-.57a8.12,8.12,0,0,0-1.06-.65s-.29.37-.44.57Zm14,21.38,0,.31,1.15.7.24-.2c-.12-.33-.15-.8-.38-1S145.33,191.25,145,191.31Z"/><path d="M120.24,197.41l-.64-3.72.28-.13,3.12,7,.16,0v-.81l.26-.08,2.54,5.85-4.36-3.53a25.62,25.62,0,0,1-2.18-1.82c-.72-.72-.29-2,.86-2.74-.71,2,.34,3.88,2.67,4.59-.63-1.39-1.22-2.75-1.88-4.07C121,197.65,120.53,197.56,120.24,197.41Z"/><path d="M168,111.54a8.28,8.28,0,0,1,.7-1.67c1.48-2.11,3.47-3.87,4.34-6.42a15.27,15.27,0,0,1,1.45-3.06l-.22,1.81,1.46-1.76.2.13c-.4.73-.77,1.47-1.21,2.18-.81,1.34-1.39,3-2.54,3.89a21.79,21.79,0,0,0-3.18,3.64c-.34.41-.69.82-1,1.24Z"/><path d="M187.71,111.86c-.22.93-6,6.73-7.52,7.3Z"/><path d="M139.15,100.57,134.23,105C135.5,103.12,136.87,101.34,139.15,100.57Z"/><path d="M156.89,90.9l5.63-3.74.19.28-5.55,3.87Z"/><path d="M84,131.16l1.47-4,.55.21-1.58,3.94Z"/><path d="M58.28,169.93l-.38.36c-.94-1.15.2-1.91.4-2.85l.43.07Z"/><path d="M187.54,121.79l3-1.77.26.44-2.94,1.75Z"/><path d="M122.61,109.18c-.33,1.3-.66,2.59-1,3.89l-.39-.1,1-3.87Z"/><path class="cls-1" d="M179.22,121.86l-1.41,1.61-.28-.27,1.09-1.47.64.17Z"/><path d="M168.14,211.4,167,208.17l.37-.15,1.15,3.2Z"/><path class="cls-1" d="M86,166.17a2.76,2.76,0,0,1-.47.44,34.13,34.13,0,0,0-3.7,1.57c-3.06,1.9-5.93,4.15-9.28,5.63-1.58.69-2.81,2.14-4.2,3.25-.14.11-.3.33-.42.31-1.36-.18-2,.81-2.46,1.72a19,19,0,0,1-5.73,6.38,5.49,5.49,0,0,1-2.24,1c-.54.09-1.18-.38-1.91-.65A33.77,33.77,0,0,1,57.43,183c1.07-1.37,2.22-2.69,3.41-4,.63-.67,1.44-1.16,2.13-1.79,1.19-1.08,2.67-2,3.44-3.37.9-1.57,2.47-1.83,3.71-2.7.56-.4,1.35-.46,2-.81a26.48,26.48,0,0,1,3.69-2.21,30.11,30.11,0,0,0,4-2.17c1.41-.76,2.67-2.17,4.11-2.36,2.14-.29,3.8-1.5,5.74-2.1.53-.16,1-.44,1.54-.63s.81-.39,1.13-.29a5.4,5.4,0,0,0,4-.58,17.08,17.08,0,0,1,2.53-1.19,9.94,9.94,0,0,1,2.47,0l-1.4,1.9,2.22-1.17.18.42a50.75,50.75,0,0,1-4.83,1.75,41.53,41.53,0,0,0-8.28,3c-1,.53-2.15.89-3.24,1.33Z"/><path class="cls-1" d="M152.08,115.39l1.1.57.9-1.1c.32,2.07.66,3.9.85,5.74,0,.42-.4.93-.69,1.35a35.43,35.43,0,0,1-8.33,8.64c-.1.07-.3,0-.68,0,1.62-2.47,3.16-4.81,4.69-7.16l-.26-.3a4.82,4.82,0,0,0-1,.85c-1,1.47-2,3-3.19,4.38.24-2.41,2.39-4.06,2.42-6.6-1.37,0-.69,2.88-2.41,1.84l-4.5,6,1-.2.28.23c-.54.72-1.1,1.42-1.6,2.16a1,1,0,0,0,.06.9,6.25,6.25,0,0,1-4.55,3.76l4.93-6.35c-2.29.09-3.39,1.66-4.57,3.1a20.13,20.13,0,0,1-1.51,2.08,25.63,25.63,0,0,1-3.56,2.7c.56-1.29,1.08-2.54,2.5-3.26.52-.26.69-1.21.92-1.93-.77.29-1.12,1.64-2.11.78l-1.42,1c.84-3.94,1.85-5.69,2.79-5.38l2.29-2.68c2.12,1.84,1.46,3.31-2.15,5.52a4,4,0,0,0,1,0c1.34-.34,1.94-1.42,2.48-2.55.34-.71.76-1.28,1.78-.57l-.31-1.75-.77.6-1.27-1.53.28-.33,1.42.76c-.78-1.87,1-2.28,1.75-3.34l.4-.36,1.15-.22-1.91,3.56,2.43-.22c.24-.42.53-.93.83-1.43.19-.32.63-.69-.21-.66,0-.26-.07-.59,0-.79.56-.94,1.19-1.84,1.79-2.76l.25.16-.4,1.42.31.17a27.14,27.14,0,0,1,1.9-2.66,11.57,11.57,0,0,1,1.87-1.35c.18-.13.29-.33.46-.47.7-.56,1.43-1.1,2.11-1.68a3,3,0,0,0,.47-.69Z"/><path class="cls-1" d="M156.89,115.2a3.49,3.49,0,0,0,0-3c-.55-1.88-1.47-3.68-1.83-5.59a17.76,17.76,0,0,1,.19-4.35l.42-.18,3.67,4.28-.31.29-1-1.77-.63.54a8.79,8.79,0,0,1,.63,1.17,13.75,13.75,0,0,0,1.74,2.71,14.45,14.45,0,0,1,1.39,3.23c.21.63.33,1.33-.61,1.8-.56.28-.8,1.13-1.24,1.69-1.11,1.41-2.25,2.81-3.38,4.22l-.49-.16c-.12-2.12.07-4.32-.46-6.34-.33-1.23.1-1.76.81-2.72C156.17,112.44,156.5,113.68,156.89,115.2Z"/><path class="cls-1" d="M97.38,185.35c-.12-.71-.22-1.42-.36-2.12a.8.8,0,0,0-.32-.46c-1.25-.78-1.56-1.57-1.14-3.34l1.06,3.11,1-.88-.52-2a15.27,15.27,0,0,1,2.27.54,1.31,1.31,0,0,1,.66.94,7.89,7.89,0,0,0,1,3.82c.38.67.16,1.68.21,2.56l.93-.62c1,.92.86,1.79-.54,2.26.37,1.78.76,3.56,1.13,5.34.18.85.59.95,1.35.31l1.06,2-.37.33c-1.17-.95-2.35-1.89-3.51-2.86-1.43-1.19-.78-2.71-.53-4.28l-1.47.29.31-2.81-.31-.11-1,2.74-1.14-2,.22-.17,1,.78-1-3.39Z"/><path class="cls-1" d="M133.55,154.48c-3.16.23-6.34.77-9.47.56-1.9-.12-3.58.78-5.41.34l0,.3,1.62.41c-1.13,1.1-2.56,1.17-3.88,1.42-4.5.83-9,1.59-13.28,2.34a6.27,6.27,0,0,1,1.11-.72c2.58-1.09,5.14-2.27,7.8-3.14a42.7,42.7,0,0,1,5.59-1c.69-.13,1.36-.43,2-.49,1.6-.13,3.21-.13,4.81-.24,1.12-.07,2.23-.24,3.35-.34,1.62-.14,3.24-.29,4.86-.37.32,0,.66.3,1,.46Z"/><path class="cls-1" d="M61.32,167.07c0-.14.12-.39.07-.42-1.85-1.2-.55-2.74-.62-4.12l.38-.05.37,3.07.22,0,.6-2.1.32,0-.09,1.7.28.06,1.08-4.11.4.06,1.06,5.36c-.62.44-1,1.94-.65,3.31l1.18-1.18.31.24c-.46,1-.24,2.43-1.74,3-.17.07,0,.75-.23,1-.59.91-1.26,1.76-1.9,2.63l-.29-.09-.15-1.85-.27,0-.76,2.91c-.46-2.27-.44-2.34.63-3.42l-.48-.37a20.56,20.56,0,0,0,1.35-2.19,5.8,5.8,0,0,0,.52-2.39l-.76-2-.83.95Z"/><path class="cls-1" d="M164.75,195.09a2.75,2.75,0,0,1,2.67,1.37A17.46,17.46,0,0,0,169,199a4.91,4.91,0,0,1,1.32,4.12c-.05.82,0,1.65,0,2.81-1.14-.74-2.06-1.25-2.88-1.88a1.83,1.83,0,0,1-.88-1.9c.09-.62-.45-1.31-.62-2C165.52,198.51,165.16,196.85,164.75,195.09Z"/><path class="cls-1" d="M93.79,196.12a22.57,22.57,0,0,1-3.53-7.2c-.53-1.7.35-3.23.64-4.82h.33l.84,1.66.74-1c.46,3.8.91,7.52,1.37,11.25Z"/><path class="cls-1" d="M201.21,161.16a3.24,3.24,0,0,0-1.11,0,5.89,5.89,0,0,1-5.65-.88c.93-.65.93-.65,2.61.74l-.7-1.25c.24-.09.43-.25.58-.22,2,.47,3.66-.91,5.51-1a15.37,15.37,0,0,1,3.91.72c.19,0,.28.47.34.57l4.09,1.06-.07.45c-2-.05-4.09.41-6.11-.25l-.07-.33,1.44-.51,0-.24a3.86,3.86,0,0,0-1.25.18,2.33,2.33,0,0,1-2.76-.47c-.8-.74-1.24-.19-2,0l.41.94,1.45-.19-.67.76Z"/><path class="cls-1" d="M152.11,115.37c-.22.06-.43.14-.66.18s-.72.11-1.12.17L147.91,118c-.18-.34-.26-.44-.24-.47,1.07-1.55,1-3.51,1.89-5.1a34.33,34.33,0,0,1,2.24-2.8,12.13,12.13,0,0,0,.92-2.11l.21-.22c.08.43.35,1,.21,1.28-.82,1.88-1.74,3.71-2.62,5.56-.05.09-.07.2.06.39,1.4-1.17,2-2.82,2.55-4.85.27,1.48.73,2.63.58,3.7-.1.73-1.06,1.34-1.63,2Z"/><path class="cls-1" d="M186,133.08c1.08-1.34.74-3.19,2.51-3.84.22-.08.57-.43.53-.56-.35-1.24.72-1.24,1.34-1.5,1.22-.51,2.5-.88,3.76-1.31l.19.3c-.35.3-.66.78-1.06.88-1.08.28-1.18,1.13-1.33,2l1.31-1.56c.26,1.28-.13,1.9-1.84,3.05l.17-.82-.24-.29C190.33,131.69,188.5,132.61,186,133.08Z"/><path class="cls-1" d="M89,190.1c-1.73-1-2-4.46-.42-7.16l-1,0a7.72,7.72,0,0,1,.53-4.93l2,4.14.54-.81c.2.87.7,1.62-.41,1.77Z"/><path class="cls-1" d="M182.68,181.25c3.18.05,5.17,1.86,6.89,4.14l.21-.24L188.64,183c3.11-.33,3.61,2.44,5,4.17l-.1.38a27.5,27.5,0,0,1-3.14-.72,7.06,7.06,0,0,1-1.75-1.13q-2.62-1.86-5.23-3.75C183.19,181.76,183,181.53,182.68,181.25Z"/><path class="cls-1" d="M83.21,189.31V182l-.43-.06-.9,2.51-.2,0,.13-2.37-.23-.1-.89,1.5-.2-.09v-3.51l1.59.39c-.45-.59-.94-1-1.06-1.48a3.8,3.8,0,0,1,.27-1.54l.45,0a6.89,6.89,0,0,0,.4,2.22c.32.6,1,1,1.83,1.67.19,3.26.41,6.94.62,10.54l-1.87-2.89.1-.08Z"/><path class="cls-1" d="M70.94,152.86c.47,1.49-.2,3.27-1.15,3.31-1.1,2-.22,4.53-1.92,6.69,0-.79.16-1.34,0-1.68s-.76-.59-1.15-.87C67.48,157.55,67.07,154,70.94,152.86Z"/><path class="cls-1" d="M118.58,127.34l-2.36,2.57-.31-.11c2.8-3,2.29-7,3.1-10.62.16,0,.48,0,.49,0,.26.86,1,1.25,1.59,1.83.77.77.55,2.17-.27,3.2s-1.52,2.07-2.27,3.11Z"/><path class="cls-1" d="M117.64,177.64c1.75.08,1.74.13,1.84,1.79.06.94.84.78,1.46.73,1.68-.12,2,.08,2.88,1.74l-.86-.19.91,1.82-.26.3c-1.46-1.55-4-.43-5.25-2.22a3.13,3.13,0,0,1-1.08.06c-.25-.09-.39-.47-.58-.72a5.13,5.13,0,0,1,.86-.09c.74.08,1.47.2,2.43.33-.69-.8-2.29-.69-1.54-2.23a8,8,0,0,0-1,.12c-.33.06-.64.19-1,.28a4.12,4.12,0,0,1-.29-1.05,5.55,5.55,0,0,1,.26-1.22l1.15,1.68.18-.09Zm2.76,3.74,2,.62.06-.26-1.3-1.23Z"/><path class="cls-1" d="M97.6,128.65c-.46.78-.9,1.57-1.39,2.34a9.15,9.15,0,0,1-.8,1l-.31-.22,1.18-2.86-.26-.12-1.41,1.15c.61-2.76,1-5.34,3.15-7.19l-1.28.59.46-1.74,1.24.54,0,0c.14.55,1.35.69.59,1.59a5.19,5.19,0,0,0-1,1.72l.55-.27c-.24,1.2-.47,2.38-.7,3.56Z"/><path class="cls-1" d="M79.12,139.89c.19.22.57.5.53.67-.7,2.6-1.43,5.2-2.19,7.78a18,18,0,0,1-.86,2.25.84.84,0,0,1-.66.41,1,1,0,0,1-.62-.59A5.77,5.77,0,0,1,75.5,146l1,.37c-.61-1.52.31-2.51,1-3.59s1.12-1.94,1.67-2.91Z"/><path class="cls-1" d="M119.78,188.4c-.13.19-.32.56-.39.54-.52-.18-1.22-.28-1.49-.67-.59-.84-1.54-.78-2.25-1.22a23.94,23.94,0,0,1-3.2-2.52c-.11-.09,0-.52.1-.87l-.69,0-.36-3.23.41-.18,1.56,1.28,0,.29a7.38,7.38,0,0,0,3.69,5.06l.4-1.41,1.84,1.89c.13.4.25.75.37,1.1Z"/><path class="cls-1" d="M129.77,186.31c2.78.31,4.37,2.53,6.79,3.91l-.69.23.79,2.41-.31.28a8.4,8.4,0,0,1-1.92-.87,11.33,11.33,0,0,1-1.52-1.77c-.22-.27-.42-.63-.71-.76-1.37-.6-1.66-2.05-2.5-3.05C129.65,186.63,129.73,186.47,129.77,186.31Z"/><path class="cls-1" d="M74.57,150.35c1.4,2.53.37,4.51-1,6.32a14.81,14.81,0,0,1-2.37,2C70.47,155.23,72.55,152.88,74.57,150.35Z"/><path class="cls-1" d="M119.89,130.29c.22.85.47,1.66.63,2.48a1.43,1.43,0,0,1-.12.94c-.84,1.4-1.74,2.77-2.69,4.28l-.54-1.1-.27.27-1,.8v-1.79l.53.79C115.68,133.72,118.12,132.2,119.89,130.29Z"/><path class="cls-1" d="M78,158.18c.27-1.68.53-3.35.84-5,0-.19.43-.5.6-.47,1,.19,1.19-.59,1.49-1.26.89-2,1.8-3.88,2.71-5.81l.4.16c-.42,1.24-.85,2.49-1.26,3.74-.11.32-.33.73-.22,1,.54,1.33.22,2-1.2,2.5-.64.23-1,1.38-1.39,2.13-.59,1-1.15,2.09-1.72,3.14Z"/><path class="cls-1" d="M140.49,196.07l-.65,1.21c-.21-1.54-1.15-2.85.48-3.87,2.25,2.89,3.35,2.82,1.66,9.14C140.47,200.54,141.27,198.22,140.49,196.07Z"/><path class="cls-1" d="M122.87,123.88c.6.86,1.09,1.5,1.52,2.19s-.5,2.59-1.3,2.8a1.53,1.53,0,0,0-.86.72c-.43.88-.75,1.81-1.14,2.78a3.67,3.67,0,0,1,1-4.62c-.75-.21-1.58-.36-.81-1.44C121.8,125.53,122.32,124.71,122.87,123.88Z"/><path class="cls-1" d="M104.05,184l.56-.93-.2-.25-1.4.84c.2-.89.31-1.55.5-2.19,0-.13.41-.27.59-.24,1.53.29,3.06.57,4.57.94.68.17,1.35.52,1,1.68l-4.38-2.16-.16.17c.37.34.78.65,1.11,1s.75,1,1.12,1.51c.65-.56,1.19-.17,1.71.22a3.75,3.75,0,0,1,.45.52C107.47,185.62,106,184.29,104.05,184Z"/><path class="cls-1" d="M210,153l-2.73.74.07.34c1.84-.09,3.72-.75,5.5.43h-6.72l.6-.5c-1.58-.34-3.05,1.21-4.63-.09a17.09,17.09,0,0,1,6.52-2.11l.12.36-1.39.4,0,.34,2.55-.24Z"/><path class="cls-1" d="M78.73,177.7l-.2-.88c.68.81,1.56,1.45,1.38,2.76a29.88,29.88,0,0,0,0,4.14l-1.15-.08.47-2.15c-1.13.08-1.13.08-2.47-2.11L78,179.2l.05-.33-1.48-.3C77,176.9,77.28,176.79,78.73,177.7Z"/><path class="cls-1" d="M99.38,131.15l-1.28.54,2-8.15.47,0,.12,1.32,1.14-.5a7,7,0,0,1,0,1.37,11.77,11.77,0,0,1-.65,2.34,18.56,18.56,0,0,1-1.23,2.1l-.58,1Z"/><path class="cls-1" d="M88.14,171.19l2.58-1.48c.26-.34.43-.79.75-1a17.53,17.53,0,0,1,3.24-1.49c2-.57,3.58-1.93,5.73-2.23a35.29,35.29,0,0,0,6.15-2l.18.34c-.21.15-.41.39-.64.45-1.23.33-2.47.59-3.69.93-.39.11-.73.43-1.12.57-1.72.64-3.71.9-5.1,2-1.61,1.23-3.89.92-5.18,2.78-.52.75-1.82,1-2.76,1.42Z"/><path class="cls-1" d="M191,172.29a1.77,1.77,0,0,1,2.4-.53c.63.43,1.21,1.1,2.07.32.12-.11.63.22,1,.35l1.22.44-.14.6,1.5.15c-3.44.7-3.44.7-3.91-.8-.49.53-.49.53,1.28,2.94a18.15,18.15,0,0,1-1.86-1c-1.19-.81-2.33-1.69-3.49-2.54Z"/><path class="cls-1" d="M69.38,164a2.62,2.62,0,0,1,.15.81c-.11.88-.16,1.71.92,2h0c.58.46.66.91-.16,1.46l-.62-.82c-.66.78.11,2.33-1.27,2.48v-3l-.46,0-.49,4-1.12.84a12,12,0,0,1,1.18-5.11,7.73,7.73,0,0,0,.17-2c0-.43.18-.86.27-1.29l.42,0-.19,3.28.25.07,1-2.71Z"/><path class="cls-1" d="M72.75,184.89a11.53,11.53,0,0,1,0-2,3.59,3.59,0,0,1,.7-1c.3.28.72.5.87.84a17.36,17.36,0,0,1,.63,2.13c.39,1.41-.47,2.38-1.09,3.44l-.32,0-.12-2.19-.58.91c-.53-.81-1.4-1.43-.83-2.55,0,0,.22-.07.3,0S72.49,184.54,72.75,184.89Z"/><path class="cls-1" d="M155.82,99.54c2.25.89,3.09,2.8,4.23,4.45.51.75.47,1.27,0,1.56-1.54-1.38-3.07-2.62-4.39-4C155.37,101.17,155.76,100.19,155.82,99.54Z"/><path class="cls-1" d="M200.48,162.66a8.37,8.37,0,0,1,2.32-.37,6.23,6.23,0,0,1,2.53.92,22.28,22.28,0,0,1,3.29,2.66c-1.41,0-2.9.21-3.78-1.36,0-.08-.18-.1-.28-.13l-4.17-1.2Z"/><path class="cls-1" d="M88.39,197.87c-1.22-.42-2.74.83-3.8-.51l1.23-1c-1.48-.31-1.82-1.29-2.12-2.63.4.16.58.31.71.28,2.69-.56,2.71,2.17,4.19,3.09l-.16.3-1.51-.22-.09.34Z"/><path class="cls-1" d="M100.55,136.49c-.39.68-.77,1.36-1.17,2a26.33,26.33,0,0,0-2.29,4.06c-.15.38.18,1.28-.13,1.88a13.2,13.2,0,0,1-1.27,1.67c-.1-.56-.17-.69-.14-.79.78-2.28.48-4.94,2.39-6.83.76-.75,1.44-1.58,2.16-2.37Z"/><path class="cls-1" d="M142.31,178.63c2.16-.38,3.93.43,4.4,2.34.39,1.59,2,1.74,2.48,3l-.22.27-4.42-3.36C143.46,181.1,142.46,180.25,142.31,178.63Z"/><path class="cls-1" d="M72.86,167.28c.18-2.25.42-4.17,1.64-5.79l.28.12-.54.88,1,.35,1-1.85.37.12a14,14,0,0,1-1,3.74C75.14,165.8,74,166.39,72.86,167.28Z"/><path class="cls-1" d="M158.24,185.5a57.81,57.81,0,0,1,5.19,7.14,4.72,4.72,0,0,1-3.75-2.21c-.22-.31-.1-.84-.24-1.24-.21-.61-.49-1.19-.76-1.78s-.54-1.15-.81-1.72Z"/><path class="cls-1" d="M185.69,154.73l-1.3-.39c.84-1.23,3-1.42,5.55-.27-1.07.21-1.25,1.29-2.56,1s-2.55.3-3.84.3a9.45,9.45,0,0,1-3.4-.68l5.49.31Z"/><path class="cls-1" d="M141.63,117.94c-1-.68-1.49-3.85-.67-4.7a1.34,1.34,0,0,1,1.94-.11c1.09,1,.9,2.25-.24,3.18A6.38,6.38,0,0,0,141.63,117.94Z"/><path class="cls-1" d="M174.29,180.24c1.58-.15,2.71-.26,3.85.66,1.39,1.12,2.12,1.9,1.75,3.15C177.33,183.86,176.39,181.42,174.29,180.24Z"/><path class="cls-1" d="M137.47,171.16l-.63.44.73.42-.18.32a4.44,4.44,0,0,0-1-.66c-.72-.23-1.49-.34-2.23-.52-.26-.06-.67-.11-.74-.27-.3-.7-.49-1.45-.81-2.45C134.59,169,136.63,168.84,137.47,171.16Z"/><path class="cls-1" d="M105.81,187.16l-.29,2.05a2.83,2.83,0,0,1-.37-4.08h-.38l-.41.76-.25,0,.2-1.13c3.13.64,3,3.06,3,5.32-.91.31-1.16.16-1.24-.87,0-.65,0-1.31,0-2Z"/><path class="cls-1" d="M80.81,147.22,86,135.74l.35.15a44.19,44.19,0,0,1-5.11,11.52Z"/><path class="cls-1" d="M89.81,144.78c.93,1.73-.93,3.27,0,4.91a2.36,2.36,0,0,0-1.16,2.37c.07.71-.61,1.5-1,2.25l-.54-.24.87-2.15-1.11-.09,1.73-1.63C87.48,148.18,88.68,146.6,89.81,144.78Z"/><path class="cls-1" d="M209.63,174.35l-4.1-.25.45-1.22c-.95-.43-1.89-.79-2.77-1.26s-1.7-1-2.55-1.57l.19-.36,8.92,4.08Z"/><path class="cls-1" d="M95,187.11c.77-.53,1.14-.1,1.46.56.56,1.17,1.2,2.3,1.69,3.49a8.73,8.73,0,0,1,.31,2l-.6.13-1.17-3.36-.64.89c-1.53-1.24-1.76-2.06-1-3.71Z"/><path class="cls-1" d="M90.92,172l-.55.09,2.36-2.1.26.23-1.13,1.36.71.38c-.29,1.73-1.73,1.24-3,1.37.62.69,1.48,1.24.07,1.64-.31.09-.42.78-.7,1.13a9,9,0,0,1-1,.93l-.34-.18a10.42,10.42,0,0,1,1-2.68A14.18,14.18,0,0,1,90.92,172Z"/><path class="cls-1" d="M88.18,142.94l4.53-9.45a5.45,5.45,0,0,1-1.18,5.11l.12-1.95-.3,0a12.65,12.65,0,0,1-.3,2.15A10.78,10.78,0,0,1,90,141.08c-.43.7-1,1.32-1.49,2Z"/><path class="cls-1" d="M162,197.05c-1-1.08-2.43-2.31-1.81-4.71.62,1,1.11,1.93,1.66,2.78A4.15,4.15,0,0,0,163,196.5a3.09,3.09,0,0,1,1.47,3,9.66,9.66,0,0,0-1.1-1,2.11,2.11,0,0,0-.82-.12l-.3.37Z"/><path class="cls-1" d="M91.35,146.75l4.08-9.33.39.18c-.29,2.14-.92,4.14-3,5.58l1.32.59C93,144.51,93.94,146.85,91.35,146.75Z"/><path class="cls-1" d="M141,123l-.4.36-1.9.76c-.68-1-.57-1.39.48-2.07s2-1.39,3-2.15c.23-.18.25-.62.52-1.33.19.55.42.86.35,1.09A5.11,5.11,0,0,1,141,123Z"/><path class="cls-1" d="M143.7,120a13.66,13.66,0,0,0,.68-1.83c.1-.42-.1-.91,0-1.3a16.71,16.71,0,0,1,.89-1.92l.42.17-.27.78.19.18.93-1.24.39.22a13.3,13.3,0,0,0-.71,3.22c0,1.13-.54,1.3-1.33,1.47Z"/><path class="cls-1" d="M139.51,119.81l-.77.46c-1-2.37.37-4.32.65-6.43h.3c.17.79.33,1.58.5,2.37q.17.83.36,1.65a1.73,1.73,0,0,1-1.06,2Z"/><path class="cls-1" d="M165.59,132.42l.13.41,2.09-1.33.25.37c-.27,1-1.23,1.15-2,1.46a3.46,3.46,0,0,0-1.87,1.2,9.68,9.68,0,0,1-2.82,2.09,23.54,23.54,0,0,1-2.13,1.07l-.14-.26Z"/><path class="cls-1" d="M189.22,179.84a29.61,29.61,0,0,1-3.8-.52,2.07,2.07,0,0,1-1.1-1.27,2.2,2.2,0,0,0-2.52-1.78,2.8,2.8,0,0,1-1.26-.29c1.84,0,3.73-.44,5.1,1.53.56.79,1.83,1.07,2.76,1.61A6.81,6.81,0,0,1,189.22,179.84Z"/><path class="cls-1" d="M148.85,129.82c1.46-2.45,4.11-3.37,6.32-5.06a3.22,3.22,0,0,1-2.54,3.08c-.58.11-1.06.74-1.6,1.1s-1.3.83-1.95,1.24Z"/><path class="cls-1" d="M155.81,188.43a11.73,11.73,0,0,1-4.67-6.89C153.94,183.21,154.31,186.21,155.81,188.43Z"/><path class="cls-1" d="M146.51,190.69c-1.77-.65-2.69-2.66-2.59-5.1.78.42,1.91.64,2.13,1.22A15.88,15.88,0,0,1,146.51,190.69Z"/><path class="cls-1" d="M150.58,195.81l-3.25-3.53.45-.32-.83-3.15.45-.15,3.44,6.89Z"/><path class="cls-1" d="M69.84,184.05c0,.46.27,1.06.06,1.35a1.76,1.76,0,0,0-.12,2.34,11.89,11.89,0,0,1,.9,2.08c-2.77-.6-3.35-1.4-2.21-3.14l-.35-.26L69.88,184Z"/><path class="cls-1" d="M97.37,185.33l-.89.85a16.08,16.08,0,0,1-2.44-2,5.9,5.9,0,0,1-.9-2.28c0-.21.34-.53.77-1.16.57,1.07,1,1.88,1.43,2.63a9.78,9.78,0,0,0,1.09,1.24l-.63.32,1.58.41Z"/><path class="cls-1" d="M164.72,148.75l-2.35.67a23.57,23.57,0,0,1-2.91.86c-1,.17-2.18.6-3.42-.44l8.54-1.63Z"/><path class="cls-1" d="M204.5,145.73a10.65,10.65,0,0,1,1.85-.19,15.9,15.9,0,0,1,2.14.43v.46L202,147.57a1.36,1.36,0,0,1,1.33-1.41,7.36,7.36,0,0,0,1.19-.43Z"/><path class="cls-1" d="M120.48,168.68a13.19,13.19,0,0,1-2.2.77c-.36.05-.78-.35-1.17-.55l.39-.35c-.45-.11-.93-.2-1.39-.36a3,3,0,0,1-1.06-.63C117.24,166.92,119.66,167.47,120.48,168.68Z"/><path class="cls-1" d="M87.73,137.34a1.22,1.22,0,0,1,0-2c.23-.21.2-.68.32-1,.24-.69.32-1.56.8-2,.31-.27,1.21.13,1.84.23l.08.32-1.7,1.27,1.09.6-.11.2H88.77l.26.32-1.31,2.08Z"/><path class="cls-1" d="M133.48,198c-.46-1-.89-2.08-1.37-3.1-.38-.84-.34-1,.39-1.48l-2-1.42a17.29,17.29,0,0,0,1.78.38c1.61.14,1.23,1.61,1.57,2.49a6.62,6.62,0,0,1,.1,2.56c0,.18-.31.35-.48.53Z"/><path class="cls-1" d="M189.58,191.61c-4.3-.58-3.2-.14-5.2-3l2.27,1.14-.42-.75C187.41,189,189.45,190.57,189.58,191.61Z"/><path class="cls-1" d="M159.4,124.42c-.25,1.52-2,1.43-2.64,2.59l.18.76-.83-.91a6.15,6.15,0,0,1,3-4.71l-1.1,2.5Z"/><path class="cls-1" d="M200.48,140.64l-.67-.12c.1-1.61,1.23-2.25,2.71-1.46-.8,1.38-.65,3.66-3.49,3.2Z"/><path class="cls-1" d="M104.79,191.7l-1.25,2.68c-.93-.76-1.24-4-.3-5.53.32.55.63,1.06.91,1.58S104.68,191.49,104.79,191.7Z"/><path class="cls-1" d="M187.67,137.94c1.25-1.16,2.72-.61,4.14-.7-.19,2.18-1.33,2.84-3.33,2l1.05-.85-1.83-.46Z"/><path class="cls-1" d="M180,143.7a4.53,4.53,0,0,1-.32,1.2,5.1,5.1,0,0,1-.76.92c-.75,0-1.32,0-1.89,0a13.29,13.29,0,0,1-1.9.09C176.62,144.78,177.9,143.08,180,143.7Z"/><path class="cls-1" d="M88,191.65c.31,1.21.64,2.41.92,3.62a1.9,1.9,0,0,1-.11,1c-.43-.55-1.24-.83-.87-1.84.11-.28-.62-.8-.81-1.28a11.59,11.59,0,0,1-.45-1.78c0-.23-.07-.47-.1-.7a6.16,6.16,0,0,1-.06-1.55c1,.63.11,2.21,1.51,2.52Z"/><path class="cls-1" d="M151.85,190.06a3.25,3.25,0,0,1,1.84,4.09C151.59,193.74,151,192.57,151.85,190.06Z"/><path class="cls-1" d="M157.38,182.9c1.44.11,5.27,5.09,5,6.8Z"/><path class="cls-1" d="M188,194.84l5.17,3.73-.12.24a24.92,24.92,0,0,1-4.34-1.48c-.58-.32-.67-1.53-1-2.34Z"/><path class="cls-1" d="M68.81,150.71l.3.08c-.64,1,.13,2.5-1.15,3.31-.21.12-.24.52-.38.87-1-2.22-.62-5.16.77-5.93l-.42,2.2.39.13.54-.7Z"/><path class="cls-1" d="M71.41,181.77l-.12-.53-2.76,1-.22-.3,4-3.58C72.82,179.35,72.82,179.35,71.41,181.77Z"/><path class="cls-1" d="M161.83,116.82c.21.47.66,1,.59,1.4-.19,1.18-1.21,1.24-2.17,1.28.36-1.55-.4-3.48,1.81-4.73l-.5,2Z"/><path class="cls-1" d="M198.63,172.23c2.09.35,4.14.32,5.79,1.83C202.68,174.59,199.56,174.24,198.63,172.23Z"/><path class="cls-1" d="M123.45,186.81a4.05,4.05,0,0,1-3.81-2.83C121.5,183.56,123.52,185.06,123.45,186.81Z"/><path class="cls-1" d="M184.54,153.1c-2.88,1.28-5.65.69-8.65-.33.57-.07,1-.27,1.24-.13,1.22.74,2.47,0,3.69.18S183.3,153,184.54,153.1Z"/><path class="cls-1" d="M151.12,189.58c0,.73,0,1.28,0,1.82s.07,1.06.11,1.59l-.41.18-2.74-3.92.17-.25Z"/><path class="cls-1" d="M136.09,141.33c-.47,1.35-1.61,1.53-2.69,1.79a3.12,3.12,0,0,0-.86.29A23.06,23.06,0,0,1,130,145a4.49,4.49,0,0,1,3.19-2.74A23.05,23.05,0,0,0,136.09,141.33Z"/><path class="cls-1" d="M76.67,165c.21-2.56,1-3.28,2.91-3.93a4.38,4.38,0,0,0-.19,1.12,4.45,4.45,0,0,0,.37,1.1Z"/><path class="cls-1" d="M71,163.47c.67-1.44,1.29-2.91,2-4.32s1.5-2.52,2.25-3.78c.73,1.62-.84,2.51-1.29,3.73a26.89,26.89,0,0,1-2.68,4.49Z"/><path class="cls-1" d="M115.6,179.26c-.61-.23-1.1-.44-1.6-.6-.17-.06-.4,0-.56,0a3.27,3.27,0,0,1-1.13-.63A1.41,1.41,0,0,1,112,177c0-.15.59-.28.91-.31C114.49,176.51,115.37,177.31,115.6,179.26Z"/><path class="cls-1" d="M86.7,181.07l-.91,3.82.83-1c-.08,1.22-.14,2.19-.22,3.37-1.6-1.65-1.53-5.23-.1-6.3Z"/><path class="cls-1" d="M118.55,127.37l.81-.1c-.5.92-.92,1.69-1.33,2.47a12.31,12.31,0,0,0-1.15,2.18c-.32,1.08-.87,1.41-1.82,1a10.44,10.44,0,0,1,.64-1.35c.71-1,1.49-2,2.21-3.08a12.55,12.55,0,0,0,.67-1.19Z"/><path class="cls-1" d="M136.94,141.45l-.76-1.4,4.51-2.61.33.47Z"/><path class="cls-1" d="M109.23,180c1.32-.17,1.28.44.93,1.48l-3.3-3.86c1.3.25,2.47.45,3.63.71a.64.64,0,0,1,.32.54,1,1,0,0,1-.53.48,6.52,6.52,0,0,1-1,.25Z"/><path class="cls-1" d="M173.39,119.28l-4.54,4.22-.39-.41c.9-2,2.83-3,4.52-4.2Z"/><path class="cls-1" d="M76.47,192.56c-1-.7-1.48-3.6-.86-5.5a2.84,2.84,0,0,1,.89,3.59A6.71,6.71,0,0,0,76.47,192.56Z"/><path class="cls-1" d="M107,131c0,3.37-2.65,4.86-4.61,6.8.74-1.08,1-2.35,2.3-3.21,1-.68,1.45-2.2,2.14-3.35Z"/><path class="cls-1" d="M115.78,138.93l1.13-.6c.27.69.27.69-1.58,1.85l-1.68-.7c.3-.53.59-1.06.91-1.57.16-.27.37-.5.78-1Z"/><path class="cls-1" d="M169,144.72c1.33-.43,2.64-.93,4-1.28s2.57-.48,3.85-.71l.12.63a4.85,4.85,0,0,0-1.92.29c-1.44,1-3.24.06-4.66,1a6.49,6.49,0,0,1-1.28.47Z"/><path class="cls-1" d="M191.57,143.46c-.51.63-2.35,1.16-2.84.77a1.23,1.23,0,0,1-.38-1,2.38,2.38,0,0,1,.82-1.14c.16-.12.63.05.9.2a4.94,4.94,0,0,1,.72.66C191,143.11,191.27,143.26,191.57,143.46Z"/><path class="cls-1" d="M152.35,189.19c-1.48-1.18-3.3-2-4.15-4A6,6,0,0,1,152.35,189.19Z"/><path class="cls-1" d="M65.52,159.2,65,154.84c1.75.36,2.09,1,1.52,2.3a16,16,0,0,0-.65,2.1Z"/><path class="cls-1" d="M156.29,131.47l4.36-3.64c0,1.69-1.9,3.36-4.13,4Z"/><path class="cls-1" d="M164.73,125.92c-.28,2.2-2.49,2-3.44,3.48-.32-1.49-.21-1.69,1-2.25C163.09,126.76,163.91,126.33,164.73,125.92Z"/><path class="cls-1" d="M158,189.79a5.56,5.56,0,0,1-2.29-5A12.93,12.93,0,0,1,158,189.79Z"/><path class="cls-1" d="M205.11,131.06l.85-.58.34.21-2.54,5c-.88-.62-.91-.83-.45-1.52.6-.9,1.21-1.8,1.8-2.71.07-.1,0-.28,0-.42Z"/><path class="cls-1" d="M142.54,193.66l-2-4.62c2,.57,2.21.79,2.19,2.43,0,.69,0,1.38,0,2.08Z"/><path class="cls-1" d="M125,135.41c.25,1.84,0,2.29-1.68,2.75l1.1-5.07.27,0,.33,2.34Z"/><path class="cls-1" d="M111.12,143.65c-1.14-.44-1.17-.7-.23-1.59a26.3,26.3,0,0,0,1.85-2.09c.87,1,.84,1.26-.09,2.08C112.14,142.5,111.7,143,111.12,143.65Z"/><path class="cls-1" d="M138.35,149.58c1.52-1.35,3.26-1.2,5.17-1.17C141.91,150.26,140,149.35,138.35,149.58Z"/><path class="cls-1" d="M181,145l.43-1.49h3.82l-.91.89.14.35Z"/><path class="cls-1" d="M187.31,176.27c2,.73,4.35.59,5.73,2.61C191.11,178.06,188.82,178,187.31,176.27Z"/><path class="cls-1" d="M194.68,168.07l-1.59-.9-.15.2,1.39,1.2c-1.74-.08-2.42-1.1-1.91-2.69C194.5,166.14,194.84,166.47,194.68,168.07Z"/><path class="cls-1" d="M109.59,133.16a8.39,8.39,0,0,1-2.24,4.75c.33-1.48.63-3,1-4.43.08-.26.6-.41.92-.6Z"/><path class="cls-1" d="M201,165.28c-1.52.45-1.92.23-2.17-1.1-.15.07-.37.1-.41.19-.2.54-.48.86-1,.44a1.45,1.45,0,0,1-.4-.58c.4-.35.94-1,1.24-.91A3.86,3.86,0,0,1,201,165.28Z"/><path class="cls-1" d="M185.3,187.36a3.78,3.78,0,0,1-3.93-2A3.43,3.43,0,0,1,185.3,187.36Z"/><path class="cls-1" d="M215.65,160.32l.25,1c-1.86.48-3.32-.58-4.9-1.33.2-.92.94-.53,1.46-.39.94.26,1.83.65,2.76.95.12,0,.3-.11.44-.18Z"/><path class="cls-1" d="M83.55,180.31a19,19,0,0,1-1-2.68c-.07-.29-.22-1.2.79-1.13.26,0,.56-.49.91-.82l-.43,4.56Z"/><path class="cls-1" d="M113.14,188.59l2.68,2-1.41,1.1C113.49,191.23,112.88,190.3,113.14,188.59Z"/><path class="cls-1" d="M77.06,182.58c.39-.31.82-.68.86.23,0,.75,0,1.51,0,2.23l.41,1.64-1.28-.52c.36-1.06-.84-2.32,0-3.61Z"/><path class="cls-1" d="M101.93,128l.73-3.09c.83.18,1.48.56,1.49,1.56C104.15,127.82,103.1,127.8,101.93,128Z"/><path class="cls-1" d="M72.66,189.51c1.3.19.64,1,.68,1.57l-.35.12-.3-.92c-.28-.07-.63-.06-.68-.18-.42-1-.8-2.06-.07-3.12C73,187.76,73.19,188.4,72.66,189.51Z"/><path class="cls-1" d="M108.36,140c.5-.87,1-1.73,1.48-2.62a2.07,2.07,0,0,0,.15-1c0-.65,0-1.25.88-1.52.36,2.3-1,3.77-2,5.39Z"/><path class="cls-1" d="M126.12,130.61c-1.26-.07-.69-.92-.55-1.46.34-1.3.78-2.58,1.19-3.87,0-.07.2-.1.62-.29C126.93,127,126.53,128.75,126.12,130.61Z"/><path class="cls-1" d="M181.62,191.77c1.88,1,1.93,2.95,3,4.28C182,195.77,182.42,193.55,181.62,191.77Z"/><path class="cls-1" d="M191,172.26c-.64-.34-1.6-.33-1.49-1.46,0-.15-.29-.34-.46-.5a6,6,0,0,1-1-1.2,2.43,2.43,0,0,1,2.81,1.23l-1,.56c.82.21,1.55.32,1.13,1.4Z"/><path class="cls-1" d="M152.46,96.46l2.73,2.81-1.14.7A3.62,3.62,0,0,1,152.46,96.46Z"/><path class="cls-1" d="M151,142.12l.37,1.35.69-1.18c.33,1.31-2.43,3-4.48,2.75.71-1.3,2.16-1,3.21-1.8l-.07-1.1Z"/><path class="cls-1" d="M157.65,196.77c.14,2.1-1.18,3.74-1.87,5.58A13.39,13.39,0,0,1,157.65,196.77Z"/><path class="cls-1" d="M123.18,129.35c1,.92.11,3.77-1.65,4.54Z"/><path class="cls-1" d="M175.57,158l6.17,1-.06.51c-1.36-.14-2.71-.24-4.06-.43a6.19,6.19,0,0,1-1.65-.56c-.18-.07-.27-.35-.4-.54Z"/><path class="cls-1" d="M91.43,129.6c1.35-1.73,1.22-4.35,3.31-5.64l.3.17-3.21,5.74Z"/><path class="cls-1" d="M135,172.9c1.85-.15,3.19.52,3.45,1.66C137.32,175.07,136.05,174.48,135,172.9Z"/><path class="cls-1" d="M73.26,147.83l1,2.13a8.66,8.66,0,0,1-1,1.27c-.15.13-.85-.1-.85-.11.11-1.11.26-2.21.41-3.3Z"/><path class="cls-1" d="M156.5,196.25l-.75,2.91-.49,0-.82-2.46,1.32.3.07-.16-1.3-1.08.13-.21Z"/><path class="cls-1" d="M57.67,175.38c-1.09-.72-.75-1.63-.25-2.88l2,2.29-.19.4-1.56.17Z"/><path class="cls-1" d="M167.46,193a8.41,8.41,0,0,1,1.9,5.06C168.26,197,167.06,193.84,167.46,193Z"/><path class="cls-1" d="M172.34,192.26c1.75-.34,2.44.91,3.33,1.89C173.63,194.27,172.76,193.8,172.34,192.26Z"/><path class="cls-1" d="M206.71,176.23l-5-.89.07-.34A4.81,4.81,0,0,1,206.71,176.23Z"/><path class="cls-1" d="M177.93,147.18c-.55,1.65-1.93,1.95-4.4,1.17Z"/><path class="cls-1" d="M190.73,188.36a5.88,5.88,0,0,1-4.6-1.62C186.7,186.29,190,187.34,190.73,188.36Z"/><path class="cls-1" d="M196.13,137.57c-1.6.18-2.4,1.8-4.12,1.22.58-.58.29-1.77,1.54-1.6C194.31,137.29,195.06,137.41,196.13,137.57Z"/><path class="cls-1" d="M177.57,124.93l4.32-4,.27.28c-1.62,1.15-2.09,3.5-4.24,4.09Z"/><path class="cls-1" d="M90.81,135a2,2,0,0,1,.1-.42l3-6.26.38.19-3.17,6.62Z"/><path class="cls-1" d="M145.82,183.83c-1.39-.45-3.07-.51-3.21-2.68l3.46,2.31Z"/><path class="cls-1" d="M151.83,177.23c2-.25,2.72.53,2.94,3.08Z"/><path class="cls-1" d="M111.63,127.18c.66,1.53,0,2.91-.43,4.58-1-1.7-.1-3.15-.14-4.58l.6,0Z"/><path class="cls-1" d="M153.1,133.15c0,1.94-2,2.41-3.08,3.58.11-.1.34-.25.32-.29-.61-1.26.64-1.35,1.17-1.9s.87-1,1.3-1.57Z"/><path class="cls-1" d="M200.94,153c1.8-.68,3.22-2.26,5.31-2.21l.14.33-5.24,2.26Z"/><path class="cls-1" d="M163.94,135.9l4.23-3C168.32,134.23,166,136,163.94,135.9Z"/><path class="cls-1" d="M97,131.12c0,.3.17.7,0,.88-.49.64-1.07,1.2-1.62,1.8l-1.6,1.8c0-1.34,1.26-3.08,3.22-4.45Z"/><path class="cls-1" d="M206.06,171.07l-4.6-1.93C203.69,168.84,205.7,169.71,206.06,171.07Z"/><path class="cls-1" d="M186.64,141.53c.55-1.47,1-1.77,2.06-1.39a1.07,1.07,0,0,1,.57.54c0,.11-.18.43-.35.53a9.81,9.81,0,0,1-1.69.83c-.12,0-.39-.34-.59-.52Z"/><path class="cls-1" d="M112.35,189.22c-1.4-.63-1-2.65-2.73-3.21l1-.46C111.06,186.89,113.2,187.32,112.35,189.22Z"/><path class="cls-1" d="M126.92,134.5l.66.93-1.51,1.43-.1-1.27-1-.17,0,0c.13-.69.27-1.37.4-2l.24,0,.14,1.59,1.18-.43Z"/><path class="cls-1" d="M158,119.78l-1.72,4C155.63,121.76,155.92,121,158,119.78Z"/><path class="cls-1" d="M88.36,199.66l-.29-1c1.6-.54,1.73-.46,3,2l-2.7-1.1Z"/><path class="cls-1" d="M211,173.19,206.5,170l.37-.49,4.44,3.3Z"/><path class="cls-1" d="M137.5,177a15.8,15.8,0,0,1,2.29.34c.25.07.37.58.55.89a8.11,8.11,0,0,1-.85.21c-.36,0-.73,0-1.23.07l-.95-1.15Z"/><path class="cls-1" d="M88.07,191.68l-.46-1.62c.65.34,1.34.77,2.08,1.09s1.41.46.28,1.16c-.11.07-.09.33-.12.5L88,191.65Z"/><path class="cls-1" d="M154.14,107.2c1.34,2,1.43,3.33.25,4.94C154.3,110.41,154.23,108.89,154.14,107.2Z"/><path class="cls-1" d="M109.36,124a5.33,5.33,0,0,1-1.31,4.4l.8-4.5Z"/><path class="cls-1" d="M70.45,166.85c-.21-1.6,1.5-1.82,2.29-2.83l-.69,3-.19,0,.11-1.23c-.79.13-.35,1.66-1.52,1.12Z"/><path class="cls-1" d="M124.63,124.33c-.07-1.83,1-3.17,1.64-4.76.53.49.76.86.28,1.53C125.85,122.08,125.31,123.16,124.63,124.33Z"/><path class="cls-1" d="M141.45,181.79l-2.87-2.33C140.09,178.74,141.3,179.67,141.45,181.79Z"/><path class="cls-1" d="M170.07,179.89c.75,1.17,2.43,1.76,2.39,3.66C170.74,182.75,170.58,181.21,170.07,179.89Z"/><path class="cls-1" d="M195.94,141.89c.41-1.95.54-2,2.77-1.95l-.42,1.07-.44-.62C196.86,142,196.86,142,195.94,141.89Z"/><path class="cls-1" d="M178.84,191.38l-2.27-3.23C177.8,187.79,178.55,188.78,178.84,191.38Z"/><path class="cls-1" d="M162.51,184.35c1.57-.07,2.32,1.59,1.56,3.53C163.53,186.65,163,185.52,162.51,184.35Z"/><path class="cls-1" d="M118,120.32c-.35,1.57-.71,3.14-1.07,4.77l-.81-.06,1.5-4.81Z"/><path class="cls-1" d="M111.23,169.79a16.17,16.17,0,0,1,2.47-.36c.26,0,.52.55.78.85a5.53,5.53,0,0,1-1,.28,3.75,3.75,0,0,1-1.11,0,12.26,12.26,0,0,1-1.22-.36Z"/><path class="cls-1" d="M99.34,131.18l.9-.24c-.09,1.72-1.62,2.42-2.38,3.65l-.39-.24,1.2-2,.71-1.18Z"/><path class="cls-1" d="M117.87,175.38c-.53.33-.79.62-1,.62-1,0-.92-.93-1-1.57,0-.17.44-.43.67-.64Z"/><path class="cls-1" d="M149.71,134c-1.2.8-1.88,2.36-3.84,2.59C147.11,135.24,148,134,149.71,134Z"/><path class="cls-1" d="M160.92,121.25c-.47-1.47.86-1.33,1.57-1.88.56,1.27-.3,1.94-.8,2.76l-.8-.91Z"/><path class="cls-1" d="M172,118.14l2.51-3.13A2.44,2.44,0,0,1,172,118.14Z"/><path class="cls-1" d="M203.91,135.89c-.61,1.58-1.43,2.12-2.42,1.59C202.2,135.84,202.63,135.56,203.91,135.89Z"/><path class="cls-1" d="M61.32,167.07c1,1.54.29,2.94-.39,4.33-.45-1.49.08-2.9.39-4.33Z"/><path class="cls-1" d="M79.79,186.8a9,9,0,0,1-.57-1.31c-.44-1.53-.39-1.56,1.39-1.13l-.53,2.41Z"/><path class="cls-1" d="M156.42,195.73l-1.77-.84V193l.26-.1,1.79,2.59Z"/><path class="cls-1" d="M187.7,137.91l-2.07,1.77-.43-.28.54-1.89c.59.38,1.5-.65,1.93.43Z"/><path class="cls-1" d="M118.44,150.59l-.55,1.1.2.17,1.45-1.27c-.12,2.08-1.81,1-2.85,1.68C116.75,151,117.4,150.62,118.44,150.59Z"/><path class="cls-1" d="M177.8,118.63l-3.05,2.9c-.2-1.51-.08-1.64,2.75-3.22Z"/><path class="cls-1" d="M180.74,181.1l5,3.26C184.4,184.43,182,183,180.74,181.1Z"/><path class="cls-1" d="M193.07,120.3l1,.18-4.7,3-.28-.46c1-.61,2-1.2,3-1.83.38-.25.71-.57,1.07-.86Z"/><path class="cls-1" d="M84.1,159.71l-1.7-.27,2-2.85.35.23-1.19,1.89,1.09.26-.63.76Z"/><path class="cls-1" d="M103.89,144.65a7.21,7.21,0,0,1-1.16,1.72A5.29,5.29,0,0,1,101,147l-.18-.43,2.89-2.2Z"/><path class="cls-1" d="M162.12,193.45c1.75.67,1.91.91,1.92,3.17l-2.2-3Z"/><path class="cls-1" d="M171.82,137.65c-.55,1.34-2,1.79-4,1.25Z"/><path class="cls-1" d="M199.21,167.55a2,2,0,0,1-3.21-1Z"/><path class="cls-1" d="M149.78,173.56c1.34-.61,2.15-.28,2.72,1.07C151.44,174.68,150.44,174.73,149.78,173.56Z"/><path class="cls-1" d="M130.56,133.68l-.51,2.43-.68.25c-.17-.37-.58-.88-.46-1.1a12.75,12.75,0,0,1,1.44-1.78Z"/><path class="cls-1" d="M179.93,156.84c1.12-.11,2.23-.24,3.36-.31.17,0,.35.29.53.45-.17.17-.36.49-.53.48-1.13-.07-2.25-.2-3.38-.32Z"/><path class="cls-1" d="M125.64,140.59l3.48-1.12c-.79,1.51-1.38,1.72-3.4,1.43Z"/><path class="cls-1" d="M185.55,131.71c-1.11,1.75-1.63,2.07-2.71,1.72A2.8,2.8,0,0,1,185.55,131.71Z"/><path class="cls-1" d="M161.9,112.56c-.31-.84-.58-1.71-1-2.52s-.87-1.55-1.18-2.39a25.34,25.34,0,0,1,2.69,4.64Z"/><path class="cls-1" d="M135.33,183.93a3.69,3.69,0,0,1,2.41,2.57c-1.21,0-1.28-.13-1.46-1.39C136.21,184.68,135.66,184.32,135.33,183.93Z"/><path class="cls-1" d="M109.79,172.65a7.26,7.26,0,0,1,1.82.23c.25.09.31.69.46,1.06-.31,0-.68.21-.93.1a12.61,12.61,0,0,1-1.54-.9Z"/><path class="cls-1" d="M138.29,183.35a4.42,4.42,0,0,1,3.47,3Z"/><path class="cls-1" d="M156.12,129.16l-3.64,2.21c.14-.54.12-1,.3-1.09,1-.55,2.09-1,3.14-1.53Z"/><path class="cls-1" d="M124.58,177.56l2.5,3.06A3.09,3.09,0,0,1,124.58,177.56Z"/><path class="cls-1" d="M96,120.09l.75,1L95,123.35l-.41-.27Z"/><path class="cls-1" d="M101.64,139.46l1.07.73-1.92,2.46-.33-.13Z"/><path class="cls-1" d="M91.22,175.12c-.25,1.8-.48,3.44-.71,5C90,179.15,90.32,176.06,91.22,175.12Z"/><path class="cls-1" d="M96.88,177.44a3.85,3.85,0,0,1,.14-1c.09-.22.36-.37.57-.57l1.74,1.86Z"/><path class="cls-1" d="M95,193.72a14.12,14.12,0,0,0,.05-2.25,6.68,6.68,0,0,0-.78-1.61c1.66,1.48,1.72,1.73,1.12,3.87Z"/><path class="cls-1" d="M113.58,164.47l3.93-.61.1.47-3.89.83Z"/><path class="cls-1" d="M197.29,174.56l3.28.24,0,.47a3.28,3.28,0,0,1-3.32-.35Z"/><path class="cls-1" d="M107,179.58c-2.51-.25-2.83-.5-2.59-2Z"/><path class="cls-1" d="M77.1,182.55l-1.46.9-.18-3a4.61,4.61,0,0,1,1.59,2.1Z"/><path class="cls-1" d="M190.94,141.3l2.24-.8.32.29a4,4,0,0,1-.77,1.13C192.15,142.34,191.54,142.25,190.94,141.3Z"/><path class="cls-1" d="M86.28,172.63l-2.94,1.66-.21-.37c.42-1.5,1.94-1.16,3-1.67Z"/><path class="cls-1" d="M117.45,172.32l3.75,2.37-.28.45-3.69-2.45Z"/><path class="cls-1" d="M95.9,175.83l-.08,1.64-2.28-.61v-.33Z"/><path class="cls-1" d="M199.8,170.05l-3.75-.92C197.71,168.06,198.71,169.4,199.8,170.05Z"/><path class="cls-1" d="M188.25,134.19l2.49-1.36s.23.35.18.6-.31.74-.55.81a11.65,11.65,0,0,1-2,.22Z"/><path class="cls-1" d="M95.49,197.94c-1.09-1-.94-2.3-.62-3.65l1,3.53Z"/><path class="cls-1" d="M197,158.78c.17-1.48,1-1.64,2.65-.51Z"/><path class="cls-1" d="M175.93,128.19l-2.58,2.54C172.92,129.91,173.93,128.79,175.93,128.19Z"/><path class="cls-1" d="M128.77,184.62c-2,.48-1.65-1.42-2.57-2l.22-.23Z"/><path class="cls-1" d="M130.17,136.74c.16,1.85-.67,2.52-2.33,1.91Z"/><path class="cls-1" d="M164.94,130.58l2.58-2.63.27.27c-.35,1.43-1.6,1.89-2.64,2.58Z"/><path class="cls-1" d="M120,137.09l1.53-2C122.44,136.06,121.94,136.85,120,137.09Z"/><path class="cls-1" d="M160.89,121.22c0,.18-.17.41-.11.55.5,1,0,1.45-1,1.68a13.4,13.4,0,0,1,0-1.68c.09-.71.4-1.15,1.15-.53Z"/><path class="cls-1" d="M87.26,149.53l-.7-.07-.83,1.65-.44-.2L86.48,148l.45.2-.38.84.75.23Z"/><path class="cls-1" d="M162.7,200.31c-.84-.92-2.17-1.46-2-3.1l2.38,2.87Z"/><path class="cls-1" d="M175.73,174c1.24-1.28,1.85-1.13,2.64.53Z"/><path class="cls-1" d="M170.93,123.5l2.5-2.7C173.17,122.65,172.69,123.17,170.93,123.5Z"/><path class="cls-1" d="M87,133.08c-.11-1.65,1.59-2.18,2.27-3.35l-1.89,3.55Z"/><path class="cls-1" d="M212.26,162.31l-4.44.26,0-.42h4.44Z"/><path class="cls-1" d="M69.88,184l-1.68.75-.28-.2,1.38-2.2.31.09c.08.53.16,1.07.23,1.6Z"/><path class="cls-1" d="M159.81,118.66l-1.55,3-.43-.23C158.53,120.51,158.22,119,159.81,118.66Z"/><path class="cls-1" d="M179.82,199.82l-1.25-3.11C179.59,196.73,180.42,198.66,179.82,199.82Z"/><path class="cls-1" d="M193.78,185.59l3,3.15-.31.29-3-3.19Z"/><path class="cls-1" d="M108.56,194.28l-.32-2.11.19-.25,1.16.93C109.23,193.29,109.75,194.32,108.56,194.28Z"/><path class="cls-1" d="M93.68,158.94c-.86,1.19-2.28,1.19-3.48,1.65l-.13-.27,3.45-1.71Z"/><path class="cls-1" d="M185.54,136.28c.93-1.06,2.18-1.31,3.94-1.11l-3.78,1.39Z"/><path class="cls-1" d="M143.55,194.29c.23-1.22-.46-2.57.75-3.66-.15,1.23-.3,2.46-.44,3.7Z"/><path class="cls-1" d="M114.49,142.54c.21,1.32-.58,1.71-1.25,2.14-.19.13-.56,0-1.18-.06Z"/><path class="cls-1" d="M112.4,136.78l.73-3.07.38,0,.61,1-.37-.12-1,2.28Z"/><path class="cls-1" d="M115.07,168.56,112,169C113.56,167.34,113.68,167.31,115.07,168.56Z"/><path class="cls-1" d="M185.6,146.22c.14-1.68.94-1.25,1.57-1.05.19.06.27.43.4.65Z"/><path class="cls-1" d="M126.87,190l-2.3-2.1.37-.42c.33.29.69.56,1,.87s.82.92,1.23,1.38Z"/><path class="cls-1" d="M172.09,172.05,171,170.14l.2-.27,1.7.34Z"/><path class="cls-1" d="M93.88,169.75,96.72,168l.23.34-2.74,1.92Z"/><path class="cls-1" d="M106.76,126.52a4,4,0,0,1,.9-3.34l-.46,3.41Z"/><path class="cls-1" d="M99.85,179.54l-2.87-.7C98.12,178,99.13,178.28,99.85,179.54Z"/><path class="cls-1" d="M150.79,152.46a2.54,2.54,0,0,1,3.3-.27Z"/><path class="cls-1" d="M145,139.24c.76-1.51,1.43-1.8,3-1.34Z"/><path class="cls-1" d="M145.8,184.41l2.07,1.64-.25.33c-.89-.3-1.92-.39-2.13-1.62Z"/><path class="cls-1" d="M122,174.69l-2.8-2.13c1.53-.41,2.14.88,2.94,1.84Z"/><path class="cls-1" d="M179,137l-3.53,1.76-.21-.43,3.53-1.75Z"/><path class="cls-1" d="M162.11,130.77l-1,2-1.37-.28,2.24-2Z"/><path class="cls-1" d="M130,163.17h-3.66A3.12,3.12,0,0,1,130,163.17Z"/><path class="cls-1" d="M84.07,159.73c0,.39.1.86-.08,1.14a6.14,6.14,0,0,1-1.17,1.1l-.4-.23a6.34,6.34,0,0,1,.65-1.24,5.07,5.07,0,0,1,1-.78Z"/><path class="cls-1" d="M193.3,175.13l3.13,1.2A2.45,2.45,0,0,1,193.3,175.13Z"/><path class="cls-1" d="M118.08,140.84l-1.7,2.25-.47-.36,1.66-2.3Z"/><path class="cls-1" d="M181,131.64l-2.35,1.05C178.81,131.51,179.65,131.07,181,131.64Z"/><path class="cls-1" d="M201.17,161.19l1.48.13,0,.41-3.47.5-.1-.35,2.09-.72Z"/><path class="cls-1" d="M194.91,149.86a5.78,5.78,0,0,1,.08-1.13,14.18,14.18,0,0,1,2,0l.05.42Z"/><path class="cls-1" d="M95,187.11l0-.05-1,.43-.25-2.28C94.82,185.62,95.48,186,95,187.11Z"/><path class="cls-1" d="M202.53,142.85l1.19-1.47.46.26a8,8,0,0,1-.58,1.62c-.08.14-.64,0-1,0Z"/><path class="cls-1" d="M156,191.44c1.56-.19,1.93.26,1.73,2.09Z"/><path class="cls-1" d="M67.22,180.92l-2.68,2.93A3.56,3.56,0,0,1,67.22,180.92Z"/><path class="cls-1" d="M162.76,122.49l-.21,2-1.5-.52,1.35-1.61Z"/><path class="cls-1" d="M190.4,136.11l2.07-1.16c0,1.5,0,1.54-1.87,1.49Z"/><path class="cls-1" d="M192.42,148.82c-.67.15-1.34.33-2,.42-.16,0-.36-.23-.55-.35.16-.21.29-.57.47-.59a19.79,19.79,0,0,1,2,0Z"/><path class="cls-1" d="M152.26,94l1.29-.84.28,2.09-.35.12Z"/><path class="cls-1" d="M140.77,207.35c0-.79,0-1.59,0-2.38a5.05,5.05,0,0,1,.95-.1l-.52,2.49Z"/><path class="cls-1" d="M153.41,196.69c-1.09,0-1.54-.72-1.43-2l1.75,1.62Z"/><path class="cls-1" d="M152.31,105.08v-2.49C153.41,103.62,153.44,104.33,152.31,105.08Z"/><path class="cls-1" d="M158.58,126.88l2.09-1.67C161.19,126.19,161.14,126.24,158.58,126.88Z"/><path class="cls-1" d="M123.76,165l2.82.36C125.33,166.32,124.6,166.31,123.76,165Z"/><path class="cls-1" d="M194,142.59l.53,1.35-1.17.35v-1.57Z"/><path class="cls-1" d="M139.49,119.84l1.34-.15-2.26,2.36-.34-.26,1.28-2Z"/><path class="cls-1" d="M113,174.06c.4-1,1.27-.46,1.92-.59a2.13,2.13,0,0,1,.2.55,4.37,4.37,0,0,1-1.3.52C113.55,174.57,113.27,174.24,113,174.06Z"/><path class="cls-1" d="M66.83,161.07l-.32,3.39-.4-.06C66.8,163.38,65.18,161.91,66.83,161.07Z"/><path class="cls-1" d="M186.64,141.52l-1,.79c-.64-1.23-.58-1.37.72-2,.1.43.19.85.29,1.27Z"/><path class="cls-1" d="M178.78,127.18l-2.62,2.23C176.9,127.77,177.93,126.92,178.78,127.18Z"/><path class="cls-1" d="M125.78,169.72l-2.73-.79.15-.53,2.7.87Z"/><path class="cls-1" d="M74.12,148.11c-.51-1.85-.38-2.26.72-2.51Z"/><path class="cls-1" d="M102.47,135l1.39-3.38.4.17-1.59,3.34Z"/><path class="cls-1" d="M148.63,113.44l-1.17,2.77c0-1.09-.16-2.27.82-3Z"/><path class="cls-1" d="M118.94,175.78c1.6-.72,2.39.43,3.32,1.16Z"/><path class="cls-1" d="M147.08,178.49c-.93.24-1.18.06-1.61-1.2C146.41,177.08,146.51,177.15,147.08,178.49Z"/><path class="cls-1" d="M188.53,161.22l3.23.14-.85.49.09.31-2.57-.63Z"/><path class="cls-1" d="M122.29,178.86l-2.21-1.35.28-.47,2.22,1.28Z"/><path class="cls-1" d="M184.32,141.29l.34,1.14h-2.21l-.16-.25Z"/><path class="cls-1" d="M109.53,120.44l-1.08,1.73c-.56-1-.28-1.69.75-2Z"/><path class="cls-1" d="M174.85,126.35l-2.36,1.51-.29-.44,2.37-1.48Z"/><path class="cls-1" d="M153.2,100.33c1.55,1,1.58,1.08.58,2.39Z"/><path class="cls-1" d="M106.31,128l-1,2.67-.49-.2,1.1-2.58Z"/><path class="cls-1" d="M84.26,154.44c-.56-1.29.36-1.63,1.3-2Z"/><path class="cls-1" d="M102.81,139.61c-.71-.76-.49-1.19,1.44-2.53Z"/><path class="cls-1" d="M145.92,149.22l-2.35.55-.13-.47,2.33-.71Z"/><path class="cls-1" d="M158.16,173.61l1.85,1.7C158,175,157.55,174.55,158.16,173.61Z"/><path class="cls-1" d="M86,178.58c.6,1.06-.23,1.55-.83,2.48C85.07,179.92,85,179.13,86,178.58Z"/><path class="cls-1" d="M186.84,195.79a2.56,2.56,0,0,1-.34-.31,22.24,22.24,0,0,1-1.94-3.31l2.49,3.39Z"/><path class="cls-1" d="M81.06,190.72l-.51-2.28.46-.13.67,2.26Z"/><path class="cls-1" d="M103.34,176.82c0,.53.09,1.07.08,1.61,0,.06-.36.11-.55.17l-.2-1.71Z"/><path class="cls-1" d="M120.33,169.27l2.14.58,0,.32-1.66.22-.5-.79Z"/><path class="cls-1" d="M174.13,186.51l-1.94-2.19C173.41,184.44,173.73,184.83,174.13,186.51Z"/><path class="cls-1" d="M105.11,148.7l2.26-1.27C107.3,148.72,106.92,148.94,105.11,148.7Z"/><path class="cls-1" d="M115.55,170.37l-.37-1.4,2,.55,0,.28Z"/><path class="cls-1" d="M81.9,156.68l-1.34,1.94-.43-.28,1.25-2Z"/><path class="cls-1" d="M152.42,93.24l.35-2.68C153.75,91.82,153.72,92.23,152.42,93.24Z"/><path class="cls-1" d="M196.71,138.44l1.69-1.21C198.5,138.6,198.19,138.85,196.71,138.44Z"/><path class="cls-1" d="M93.26,133.39l1.27-2.92.39.17-1.21,2.9Z"/><path class="cls-1" d="M71.24,149.55l-1.52,2.23C69.83,150,70.33,149.42,71.24,149.55Z"/><path class="cls-1" d="M204.52,145.73l-1-.52c.66-1,1.44-.7,2.34-.17l-1.38.69Z"/><path class="cls-1" d="M118.81,143.89l1.92-.35c-.43,1.05-1,1.36-1.86.82Z"/><path class="cls-1" d="M142.58,133.38,142.1,132l1.71-.42.3.35Z"/><path class="cls-1" d="M171.15,188.21l1.66,2.24c-1.13-.21-1.14-.21-1.91-2Z"/><path class="cls-1" d="M193.63,141.77l1.73-1.15C195.5,142,195.17,142.22,193.63,141.77Z"/><path class="cls-1" d="M186,162.36l-2.6-.5.1-.48,2.62.52Z"/><path class="cls-1" d="M150.6,182.82c-.42-.57-.85-1.12-1.23-1.71-.09-.13,0-.39,0-.6.18.09.46.14.53.28.28.63.5,1.29.74,1.93Z"/><path class="cls-1" d="M171.58,193.29l-1.22-2.07.43-.26L172,193Z"/><path class="cls-1" d="M163.59,199.38l1.51,2-.45.32-1.37-2.09Z"/><path class="cls-1" d="M127.84,185.78c.49.37,1.62.23,1.06,1.46C127.77,187.34,127.93,186.46,127.84,185.78Z"/><path class="cls-1" d="M199.76,153.19l-1.15,1-.33-.06.12-1.66Z"/><path class="cls-1" d="M97,131.12l0,0,.57-2.51,0,0,.48-.56C97.59,129.07,98.31,130.45,97,131.12Z"/><path class="cls-1" d="M184.08,130.9l1.85-.78c0,1.18,0,1.15-.9.89a2.54,2.54,0,0,0-1,.14Z"/><path class="cls-1" d="M175.57,158c-.51.16-1,.3-1.55.49-.74.29-1,.06-.93-.86l2.48.37Z"/><path class="cls-1" d="M139.74,158.13l2.83-.24v.38h-2.85Z"/><path class="cls-1" d="M113.51,181.79l0-.29-.54-1.09.39-.25,1.34,1.78-.28.29Z"/><path class="cls-1" d="M114.85,136.17l-1.53,2-.42-.33,1.56-2Z"/><path class="cls-1" d="M99.75,140.51l.89-2.38.27.08-.72,2.46Z"/><path class="cls-1" d="M69.41,164c-.52-1.37-.18-2.21.92-2.5l-.94,2.5Z"/><path class="cls-1" d="M129.62,177.59,127.51,176l.19-.32,2.21,1.43Z"/><path class="cls-1" d="M199.64,152.21l2.2-.94.15.32c-.72.38-1.23,1.19-2.15,1.12Z"/><path class="cls-1" d="M194.25,151.25l-.93,1.26c-.63-1.07-.53-1.64.52-1.57Z"/><path class="cls-1" d="M90.38,150.25l-.87,2.3C88.94,151.16,89,151,90.38,150.25Z"/><path class="cls-1" d="M83.68,152.61l1-2.28C84.86,151.19,85.21,152.12,83.68,152.61Z"/><path class="cls-1" d="M204,157.36h-2.43l0-.53L204,157Z"/><path class="cls-1" d="M81.61,174.26l-.86,1.88C80.12,174.91,80.35,174.36,81.61,174.26Z"/><path class="cls-1" d="M120.51,138.72l-1.39,1.91-.36-.25,1.35-2Z"/><path class="cls-1" d="M91.11,147.64c.26,1.07-.41,1.17-1.27,1.28C90,148.1,90.06,147.43,91.11,147.64Z"/><path class="cls-1" d="M182.9,147.58a12.72,12.72,0,0,1-1.46.32c-.06,0-.18-.35-.27-.55l1.57-.38Z"/><path class="cls-1" d="M159.25,145.33l2.42-.86.13.41-2.45.78Z"/><path class="cls-1" d="M102.47,135l.2.13-1.13,2.4C101.21,136.44,101.84,135.74,102.47,135Z"/><path class="cls-1" d="M102.7,132,101,134.76l-.29-.18,1.71-2.75Z"/><path class="cls-1" d="M166.19,154.17l-3-.26C164.56,153.45,166.07,153.57,166.19,154.17Z"/><path class="cls-1" d="M102.78,158.84l2.38-1.7.13.22-2.23,1.89Z"/><path class="cls-1" d="M189.27,166.18l-1.88-1,.22-.42,1.9.9Z"/><path class="cls-1" d="M139.91,186l2.17,1.82-.31.37-2-2Z"/><path class="cls-1" d="M99.5,174H97.77l-.08-.23a5.47,5.47,0,0,0,1-.29,4.17,4.17,0,0,0,.79-.66Z"/><path class="cls-1" d="M165.18,181.1l1.71,1.55C165.77,183.08,165.53,182.88,165.18,181.1Z"/><path class="cls-1" d="M132,181.43l-1.38-1.89c1.43-.09,1.23,1.09,1.76,1.61Z"/><path class="cls-1" d="M166.45,178l-1.53-1.29.24-.33,1.65,1.09Z"/><path class="cls-1" d="M152.93,107.3l-.21.22c-.53-.82-.48-1.07.7-1.91Z"/><path class="cls-1" d="M101.28,121l-.33,2.16C100.18,122.32,100.62,121.65,101.28,121Z"/><path class="cls-1" d="M161.49,124.66l1.69.19-1.45,1.29Z"/><path class="cls-1" d="M130.14,189.61l-1.41-1.55.44-.39,1.34,1.61Z"/><path class="cls-1" d="M148.51,187.49l1.67,1-.22.42-1.75-.84Z"/><path class="cls-1" d="M104.49,141.19l.53-2.13C105.74,140.14,105.38,140.73,104.49,141.19Z"/><path class="cls-1" d="M186.19,175.24l-1.53-1.61.23-.27,1.75,1.39Z"/><path class="cls-1" d="M107.67,172.28l1.41.14.09.3c-.27.21-.6.62-.81.56s-.57-.47-.85-.74Z"/><path class="cls-1" d="M140.59,174.26l2.38.92C141.86,175.33,141,175.8,140.59,174.26Z"/><path class="cls-1" d="M94.16,178.92l.73,1.48-.45.25-.88-1.41Z"/><path class="cls-1" d="M87.72,137.32l-1.4,2.45c-.14-1.07.62-2.37,1.41-2.43Z"/><path class="cls-1" d="M107.09,145.31l-1.78,1.4-.26-.32,1.7-1.48Z"/><path class="cls-1" d="M139,146.92h-2.56v-.27H139Z"/><path class="cls-1" d="M156.54,190.61l-1.64-1.1.26-.4,1.67,1Z"/><path class="cls-1" d="M207.4,150l2.34-.64.11.45-2.33.63Z"/><path class="cls-1" d="M144.65,193.87c0-1.28,0-1.28,1.75-1Z"/><path class="cls-1" d="M175.91,185.7l1.33,1.58c-1.34,0-1.62-.6-1.66-1.4Z"/><path class="cls-1" d="M194.6,150.76h1.52l-1.14,1.5Z"/><path class="cls-1" d="M131,169.93l-1.12-.65c.15-.2.39-.59.44-.57a8.12,8.12,0,0,1,1.06.65Z"/><path class="cls-1" d="M145,191.31c.33-.06.77-.28,1-.15s.26.63.38,1l-.24.2-1.15-.7Z"/><path class="cls-1" d="M120.24,197.41c.29.15.71.24.83.48.66,1.32,1.25,2.68,1.88,4.07-2.33-.71-3.38-2.55-2.67-4.59Z"/><path d="M120.4,181.38l.74-.87,1.3,1.23-.06.26Z"/></svg>