<svg id="Layer_1" data-name="Layer 1" xmlns="http://www.w3.org/2000/svg" viewBox="0 0 300 300"><defs><style>.cls-1{fill:#fff;}</style></defs><title>Artboard 4</title><path d="M135.37,219.43c.67,1,1.27,2,2,2.89,1.6,2,3.23,3.94,4.93,5.83,1.19,1.32,2.52,2.5,3.66,3.87-6.75-4.78-13.5-9.57-18-16.82,2.71,6.44,7,11.76,11.6,16.77-1.13-.62-2.23-1.31-3.4-1.86a20,20,0,0,0-3.79-1.33l1.2,1-.19.29-5.66-3-.14.15,4.49,4.14-.16.23-5-2.72-.31.46,2.53,2.11c-2.37-.91-4-3-6.32-4l-.2.25,1.6,1.93-.14.21c-.27-.2-.65-.35-.8-.62-1-2-2.89-2.91-4.8-3.85a42,42,0,0,1-4.22-2.72l.19-.3,5.28,3,.31-.39a16.4,16.4,0,0,0-3-2.78,31.8,31.8,0,0,1-7.48-5.65,6,6,0,0,0-.78-.52,5.66,5.66,0,0,0,.48,1.33,72.14,72.14,0,0,0,4.75,6c2.89,3,6,5.87,9,8.77.94.9,2,1.72,2.83,2.7-4-2.37-7.15-5.93-10.76-8.84l-.2.25,3.15,5.18-.16.13-2.35-1.92-.17.16,3.58,4.44-.18.17L105,219.51l-.21.16,2.29,3.46-.22.17-1.92-2.18-.26.16a6.57,6.57,0,0,0,.72,1.13c.82.89,1.13,2.26,2.59,2.6.26.06.33,1,.56,1.78l-2-2.17-.24.19c.71,2.45,2.59,4.14,4.34,5.91l-.22.21c-.43-.37-.87-.72-1.27-1.11-2-2-3.08-4.49-4.42-6.89a46.74,46.74,0,0,0-4.39-5.64c-.26-.33-.46-.72-.69-1.08l0,0c.9.83,1.83,1.64,2.69,2.51a5.52,5.52,0,0,1,.67,1.25l.63-.55c-.54-.87-1.06-1.76-1.64-2.6-1.14-1.66-2.35-3.26-3.47-4.93-.8-1.2-1.53-2.47-2.21-3.75-.11-.22.2-.67.32-1l3.37,5.4.27-.14-1.78-4.18.28-.19a10.85,10.85,0,0,1,1.1,1.45,1.76,1.76,0,0,0,1.72,1.21c.63,0,1.43,1,1.8,1.71a24.65,24.65,0,0,0,5.1,6.55,7.11,7.11,0,0,0,1.65,1.21,19,19,0,0,1-2.3-4c-.79-2.69-3-4-4.81-5.74-1.52-1.44-3.19-2.73-4.78-4.09,1.26.85,2.57,1.63,3.78,2.55s2.47,2.06,3.9,3.27a6.64,6.64,0,0,0-.27-1.14c-1.69-3.29-3.31-6.63-5.13-9.85a22.39,22.39,0,0,0-2.87-3.29,6.54,6.54,0,0,1,1.51.63,5.52,5.52,0,0,1,1.41,1.6c1.63,3,3.17,6.14,4.78,9.19,1.09,2.06,1.76,4.4,3.87,5.79,1.22.8,2.4,1.66,3.6,2.49l.2-.26c-3.47-4.42-6.91-8.84-9.36-13.92a8.72,8.72,0,0,1,1.24,1.67,103.43,103.43,0,0,0,10.9,14c2.21,2.28,5.25,2.9,7.83,4.44l-3.62-5.29.31-.21c1,1.44,2.06,2.9,3.15,4.3s2.06,2.89,3.93,3.47l-1.37-2.8.42-.21L127,224a5.39,5.39,0,0,0,3.9,2.85,5.9,5.9,0,0,1,2,.73c1,.58,2,1.08,3.06,1.62a4.47,4.47,0,0,0-.94-1.5,41.21,41.21,0,0,1-6.54-9.1,73.31,73.31,0,0,1-3.72-7.28,2.66,2.66,0,0,0-.56-.76c-.69-.78-1.39-1.54-2.08-2.32-.37-.41-.73-.85-1.09-1.27l-.2.14.36,1.26a2,2,0,0,1-.75-.91,24,24,0,0,0-1.89-3.55c-2.26-3-4.65-5.83-7-8.75a1.65,1.65,0,0,1-.16-.57c-.36-1.34-1.5-2.12-3.26-2l1.66,1.31-.08.12-1.08-.36-.29.22,2,3.17-.51.16.54,1.62c-2-2.54-2-2.54-4.65-3.33a39.35,39.35,0,0,0,6.55,15.8,49.19,49.19,0,0,1-3.48-5,27.77,27.77,0,0,1-3.39-9.79,2.09,2.09,0,0,0-1.76-1.94,19.89,19.89,0,0,0-3.22-.9c-1.44-.09-2.86-1.33-4.2-2.21A10.92,10.92,0,0,0,92,189.69a7,7,0,0,0,1.12.58,11.82,11.82,0,0,1,2,1.21c.37.31.43,1,.8,1.27,1.63,1.31,3.31,2.54,5.12,3.9l-.53.49v-.35c-4.54-1.47-8.06-5-13-5.83l4,3.73-.3.31c-1.1-1-2.22-2-3.3-3.06-2.28-2.2-5.06-1.29-7.7-1.26,0,0-.06.11-.09.18L87.77,194l-.15.36-3.76-1.34-.15.33,1.85,1.42-.13.18-3.56-1.76c2.09,1.69,4.33,3.12,6.43,4.73,2.86,2.18,5.63,4.48,8.41,6.76a14.43,14.43,0,0,1,1.47,1.64c-1.23-.83-2.49-1.62-3.68-2.49-1.51-1.1-3-2.28-4.47-3.4a3.63,3.63,0,0,0-1-.34l.4-.87c-2.72-1.83-5.45-3.68-8.19-5.51a32.51,32.51,0,0,0-3.47-2.12,26.16,26.16,0,0,0-2.56-.76,6.06,6.06,0,0,1-1.42-1c-.21-.17-.31-.61-.51-.65-1.74-.31-3.49-.56-5.24-.83l-.14.59,2.66.69-1.82.39,3.67,2a6.25,6.25,0,0,0,.88,1.18c3.15,2.59,6.32,5.15,9.48,7.73a1.4,1.4,0,0,1,.53.95L82,200.92c-4-3.32-8-6.77-12.88-8.78A65.53,65.53,0,0,0,62,189.82a9.16,9.16,0,0,0-2.4,0v.35l9.92,2.69-.1.43-11.72-2.54-.11.28a20.29,20.29,0,0,1,7.8,4.47c-4.35-2.45-8.76-4.68-13.86-5a12.74,12.74,0,0,0-1.84.18l-.05.43,2.19.53,1.79.46h0c-.51.06-1,.17-1.53.19-.89,0-1.78,0-2.67,0l-.05.32,5.49,2.19c-2.25-.19-4.25-1.42-6.56-1.18,1,1.17,2.4,1.19,3.69,1.56a21.69,21.69,0,0,1,6.66,2.64l-7.83-2.56-.18.36c2.87,2.5,5.5,5.14,5.84,9.26-1-.92-2-1.87-3-2.75-1.57-1.3-3.18-2.55-4.78-3.81l-2.92-1.44c.68,1.62,1.23,1.86,2.94,1.42l-1.86.79,3.59,5.28-.22.16-1.14-1c-.78,4.17,1.67,7.6,2.35,11.2l2-.58L53,212l.38-.2,4.22,6.61.25-.09-1.15-5,.44-.14,3.09,7.05.32-.1a10.84,10.84,0,0,1-.21-1.69,3.36,3.36,0,0,1,.41-1l0,0c.43,3.84,1.15,7.56,3.73,10.16L65,230c-3-3.58-4.43-8-6.63-11.88l-.3.12c.56,1.42,1.07,2.87,1.69,4.27s1.38,2.82,2.13,4.33l-1.24-.54-.15.17,2,2.68.25-.13-.16-.95.15-.05.66,1.37c-1.68.57-1.91-1.2-3.13-1.69l1,1.89-.34.22-3.65-5.62-.3.18,1.71,3.26-.19.14-4.35-6.47-.19.09,1.86,4a29.5,29.5,0,0,1-2.62-3.22c-1.65-2.73-3.27-5.5-3.6-8.79a3.49,3.49,0,0,0-.62-1.77c-.64-.79-1.56-1.37-2.21-2.16a24.78,24.78,0,0,1-2-3c-.65-1.07-1.21-2.19-1.8-3.29l-.44.23,1.68,3.16a35.38,35.38,0,0,1-2.5-3.24A5,5,0,0,0,40.36,202c-1-.64-2.13-1.17-3.2-1.74,0,0-.13,0-.28.08l.42.64-1.07.28,1.7,1.28-.8-.18a2.15,2.15,0,0,0-.16.84c.2,1,.59,1.91.69,2.88s.4,1,1.14.54c.34,1.76.27,3.67,2.13,4.9a6.55,6.55,0,0,0-.2-1.08c-.82-2.31-1.68-4.61-2.51-6.91-.12-.34-.21-.68-.31-1a5.13,5.13,0,0,1,.82,1,40,40,0,0,0,4.68,7.42c.47.6,1.21,1.07,1.47,1.73a21.48,21.48,0,0,0,4.67,7.4c.08.07.09.2.14.31l-.8.2c.92,1.42,1.53,3,3.51,3.66l-4-7.33c1.67,2.06,3.06,4.26,4.52,6.41a14,14,0,0,0,1.92,2.09c.15.14.58,0,.88-.06l.64,1c-1.47.21-2.25-.67-3-1.48-.5-.53-.94-.7-1.6-.19l.88.76c-1.27,0-1.67-.42-2.45-1.71-.45-.73-1.37-1.17-2-1.83-.79-.84-2.21-1.15-2.27-2.62a.37.37,0,0,0-.26-.22c-1.53-.21-1.75-1.6-2.38-2.62a17.7,17.7,0,0,0-1.21-1.76,14.29,14.29,0,0,0-2.35-2.46c.52,1.14,1,2.33,1.58,3.41a31,31,0,0,0,2.38,3.44c.81,1,1.73,2,2.61,3l-.25.26a9.19,9.19,0,0,1-1.29-1.11c-1.4-1.77-2.8-3.55-4.09-5.4a21.77,21.77,0,0,1-1.91-3.48c-.26-.59-.1-1.35-.31-2-.39-1.14-.91-2.24-1.47-3.56l-.56,1.54c-.16-.31-.32-.47-.32-.62.16-2.8-.85-5.36-1.56-8a16.51,16.51,0,0,1-.37-3.07,3.42,3.42,0,0,1,.31-1.08c.36.43.55.85.8.9s.56-.29,1-.55c0,1.81.71,3.07,3,2.33a7.18,7.18,0,0,0-3.11-3.11l1.16-1c-1.57-.37-4.06.63-4.53,1.9h.84c-.32,2.76-1.24,5.54.28,8.29l1-.91a6.88,6.88,0,0,0,.82,5.66c1.66,3.19,3.25,6.42,4.84,9.64a5.2,5.2,0,0,1,.22,1.4c-2-1.48-4.58-6.54-6.16-11.39a16.33,16.33,0,0,0,0,2,11.69,11.69,0,0,0,.46,2.19A17.74,17.74,0,0,0,36,214.8c-2.33.36-1.09,1.9-1.34,3.07-.23-.22-.52-.36-.57-.56-.33-1.34-.56-2.71-.94-4-.17-.56-.7-1-.93-1.57-.39-1-.69-2-1-3-.17-.53-.29-1.07-.44-1.61-.36.45-.89.84-1.06,1.35a24.94,24.94,0,0,0-.63,3l-.49-1.93a8.2,8.2,0,0,0-.65,4.83c0,.33.61.61.93.91-1.44.4-2.23-.13-2-1.72.32-2.15.93-4.26,1.41-6.39.06-.23.28-.52.2-.67-1.05-2.15-.15-4.52-.93-6.7v3.72l-.32,0-.35-4.09c-2.38.7-4.53,1.45-6.73,1.94a37.54,37.54,0,0,1-5.09.54,1,1,0,0,1-.78-.41,1.33,1.33,0,0,1,.27-.93,15.79,15.79,0,0,1,6.88-5.87c.62-.24,1-1,1.51-1.56a11.32,11.32,0,0,1,5.43-3.85c.29-.09.49-.5.73-.76l-.2-.28-2.24,1.17-.13-.15c.82-1.23,1.72-2.41,2.43-3.69s1.21-2.67,1.8-4l-.31-.22-3.89,5.34-.24-.13c.38-.94.73-1.88,1.14-2.8.54-1.2,1.11-2.39,1.7-3.57a42.19,42.19,0,0,1,2.3-4.37c1.13-1.69,1.17-2.58.82-4.72l.85,1.41L35,169.9l.57,1.32c1-1.27,1.17-3.1,2.31-4.27l.44.23-.69,3.06.22.1L39,168.11l.43.18L36.85,175A98.08,98.08,0,0,0,47.48,160l.3.17-3.44,6.49.39.23c1-1.54,1.94-3.09,3-4.61a7.91,7.91,0,0,1,1.17-1.14,9.21,9.21,0,0,1-.22,1.6c-.14.46-.47.86-.59,1.38a41.45,41.45,0,0,1,8.39-5.86l-3.8,3.76.37.37c1.22-1.2,2.44-2.41,3.64-3.63,0,0-.15-.31-.24-.47a12.31,12.31,0,0,1,1.2-.84c.86-.44,1.42-1.81,2.77-.89.14.09.7-.28.95-.55a19,19,0,0,1,1.84-2c-.7,1.07-1.44,2.12-2.09,3.22-.25.41-.23,1-.47,1.4a10.16,10.16,0,0,1-1,1.15c-.84,1.14-1.68,2.29-2.49,3.45-.1.15,0,.42-.05.63.18,0,.43,0,.51-.07a34.63,34.63,0,0,0,2.64-3,30.25,30.25,0,0,0,1.57-2.92,6.4,6.4,0,0,1,.74-.91l.33.21-.2,1.14c1.94-2.25,3.84-4.48,5.79-6.66a2.05,2.05,0,0,1,1.75-.94c.74,0,1.51-.76,2.26-1.18l.22.25-1,.43.24.34,1.11.12c-1.26,1.09-3.44.61-4.27,2.58.16,0,.32.11.42.07,2.56-1.09,5.34-1.57,7.74-3.19s5.2-2.8,7.66-4.41,4.56-3.46,6.84-5.19c.66-.51,1.39-.94,2.06-1.44s1.45-.55,1.54-1.59c0-.31.68-.62,1.1-.84a6.38,6.38,0,0,0,3.39-3.82,6.26,6.26,0,0,1,1-1.82l-.61,2.6.28.14c1.32-.85,2.67-1.67,4-2.57s2.5-1.9,3.75-2.85l.33.38L104,132.48l.62.4c-3.77,2.57-3.77,2.57-4.43,6.28l1.1-1.34c1.46.17,3.43-1.72,4.12-3.42a9.46,9.46,0,0,1,1.22-2.63,7.55,7.55,0,0,1,2.25-1.32l.14.29a9.15,9.15,0,0,0-1.83,1.15,8.53,8.53,0,0,0-1,1.82l.35.21.93-1.16c-.32,2.64-2.5,4-3.39,6.1l-.35-.13-.18-1a1.18,1.18,0,0,0-.35,0,4.17,4.17,0,0,0-2.4,2.8c-.16.76-.83.55-1.15.87a21.62,21.62,0,0,0-2.38,2.86L99,143.28l.19.19a5.3,5.3,0,0,1-.82.82c-1.42.94-2.91,1.78-4.29,2.78a18,18,0,0,0-2.57,2.37,12.47,12.47,0,0,0-2.12,3.95,7.29,7.29,0,0,1-.55.87c-.4-1.56.73-2.38.81-3.61l-2,1.76.46-1.16-.28-.31-5.2,4.17-.22-.22c1.51-1.53,3-3.09,4.54-4.6,1-1,2.07-1.82,3.07-2.78.7-.67,1.33-1.42,2.1-2.26,0,0,.44.16.53,0,.73-.93,1.7-1.79,1.46-2.83l1.76-2.77C93,140.84,91.06,143,89,145l.15.25,1.58-.74.17.24c-.76.57-1.51,1.15-2.27,1.7q-3.31,2.43-6.65,4.84c-.91.67-1.82,1.3-3,.56-.21-.13-.67.08-1,.2-.86.34-1.65.77-2.63.29-.22-.11-.78.24-1,.52a60.4,60.4,0,0,0-8,11,14.67,14.67,0,0,1-1.46,1.71l0,0L67,161.27a28.54,28.54,0,0,0-2.77,2c-.78.71-1.82,1.55-2,2.46a3.85,3.85,0,0,1-1.32,2.4,2.2,2.2,0,0,0-.32.63l.28.23.47-1,.34.31c-1.31,1.7-3.43,2.77-4,5,1.43-1.33,2.73-2.76,4.1-4.14a3.29,3.29,0,0,1,1.11-.47l0,0c-1.43,1.69-2.84,3.4-4.29,5.07-.86,1-1.82,1.91-2.64,2.94a10.42,10.42,0,0,0-1,1.94l-.31-.79-2.43,2.57-.16-.15,3.1-5.78-.23-.23-1.58,1.12c.26-.53.32-.89.51-1,2.77-1.47,4.55-3.89,6.2-6.43.61-.95,1-2,1.69-2.92,1.36-1.93,2.81-3.77,4.18-5.68.84-1.16,1.61-2.38,2.4-3.57l-.36-.25-7.66,10.21-.37-.21.82-1.58-1-.71c-.74.74-1.45,1.5-2.22,2.21-.62.57-1.32,1.06-2.08,1.67a3.17,3.17,0,0,0-1.14.48,20.54,20.54,0,0,0-1.93,2.24c-.93,1.22-1.81,2.48-2.71,3.73-.17.24-.32.5-.64,1l1.18-.58.15.14c-.27.35-.53.71-.82,1-1.1,1.24-2.25,2.44-3.3,3.72-.24.29-.17.83-.24,1.25l.31.17-7.35,4.45.19.37c3-1.41,6-2.83,9.28-4.38l-2.2,3.75a13.75,13.75,0,0,0,1.57.07c2.52-.2,5.08-.26,7.56-.7,2.14-.38,4.24-.11,6.35-.26l0,.37-6,.41v.5H60v.59c-2-.25-4.06.72-6.06-.47-.27-.16-.84-.26-1-.11-1.27,1.39-3.05,1.26-4.58,1.27a38.64,38.64,0,0,0-11.16,2c-2.74.83-5.43,1.79-8.14,2.68-.21.07-.42.12-.78.21l.38-.79c-.15,0-.29,0-.37,0A32.67,32.67,0,0,0,24.92,192,2.54,2.54,0,0,0,24,193.6c-.15,1.1-1,1.44-1.72,2-1.59,1.18-3.21,2.3-4.8,3.46a1.56,1.56,0,0,0-.32.47c2.14,1.2,4.2,1.46,6.25-.09,1.67-1.27,3.41-2.43,5.07-3.72a25.11,25.11,0,0,1,7.19-4,1.24,1.24,0,0,1,.93,0c1.11.7,1.78,0,2.52-.65.16-.13.52,0,.74-.06,1.32-.53,2.58.12,3.86.2.39,0,.76.43,1.23.72l.24-1.13c.85,2,2.17.42,2.82.66l-2-.11L46,191a15.92,15.92,0,0,0,2.2-.24,3.08,3.08,0,0,0,1.43-1l-3.92.21a7.57,7.57,0,0,1,1-1.65,2.53,2.53,0,0,1,1.43-.71c2.21-.21,4.44-.3,6.66-.49,1.63-.13,3.25-.33,4.86-.59.31-.05.53-.73.82-.76a45,45,0,0,1,5.3-.37c1.74,0,3.48.41,5.23.41a15.94,15.94,0,0,0,3.22-.63l0-.38-6.82-1.21c3.41-1.78,7.17-2.67,8.38-6.91l1.06.41-1.14.77,1.21.24v2.06l3.16-1.63,0,.08L77.28,181c1,1.36,2.58.8,4.09,1.38l-8.36.92c1.85,1.05,5.11,1.12,6.57.24,2.51-1.5,5.29-1.18,8.18-1.33l-.64-1.48c1.65.76,2.52-.69,3.87-1L88.16,182l.12.35c.85-.27,1.7-.53,2.53-.83.43-.15.83-.42,1.26-.57,2.08-.75,4.15-1.57,6.26-2.2,3.17-.94,6.37-1.76,9.55-2.62,4.53-1.23,9.06-2.49,13.6-3.65,4-1,8-1.85,12-2.89a4.39,4.39,0,0,0,2-1.49,75.7,75.7,0,0,0,5.3-7.1l-4.81,5.35.14-1.64-3.74,4.18-.35-.26a35.6,35.6,0,0,0,2.33-3.6c2.17-4.37,6.33-6.92,9.43-10.43a.65.65,0,0,0,.2-.47c-1.49.53-2.45,1.75-3.55,2.8l-3.3,3.16-.32-.32,5-5.09c-5.58-.43-8.25,2.72-9.57,7.6l-.31-.26c.37-1.09.74-2.18,1.23-3.6l-6,5.43c1-2.76,4.35-4,4.78-7.09l-.36-.29L118.51,167.6l-.24-.19,6.93-9-.45-.37c-3.2,2-4.51,5.66-7.21,8.16l2.59-5.65-1.75.88a67.66,67.66,0,0,0-11,7c-1.46,1.14-3,2.16-4.55,3.22a2.89,2.89,0,0,1-.8.21l.13-.92c-1.65-.8-2.41.63-3.48,1.34a8.13,8.13,0,0,1-1.07.52l-.28-.46a8.64,8.64,0,0,0,1.2-.75c.78-.7,1.51-1.45,2.27-2.17l0,0c1-.4,1.67-.89,1.67-2.13a2.51,2.51,0,0,1,1-1.54c2-1.72,4-3.35,6-5.07a6.8,6.8,0,0,0,.87-1.35,5.86,5.86,0,0,1,1.07-1.37c1.11-.85,2.29-1.6,3.34-2.58l-3.7,1.52-.18-.26a7.35,7.35,0,0,0,4.3-4.56,2.86,2.86,0,0,0-.73.29,5.18,5.18,0,0,1-3.33,1.78c-.71.05-1.45.9-2,1.53-1.35,1.5-2.66,3-3.87,4.65-.29.39-.15,1.11-.21,1.67l.35.1L102.84,165l-.25-.12,2.56-5.91-.13-.18-4.11,3-.24-.28,3.11-2.76-1.37-.09,4.32-4.37-.18-.18-13,11.68-.39-.36,3.08-3.76c-.68-.37-1.75,1.24-1.8-.86l-.34.13L88,169.15l-.18-.11,4-6a3.78,3.78,0,0,0-3.41,1.81c-.71.92-1.69,1.65-2.31,2.62-1.26,2-2.35,4-3.6,6,.53-2.63,2-4.82,3.25-7.25a27.29,27.29,0,0,0-3,1.68c-1,.72-1.8,1.63-2.78,2.43a10.65,10.65,0,0,1,.64-.86c.4-.46.83-.81.5-1.61-.14-.37.42-1,.69-1.6l-6.71,5.26c.35-1,.62-1.74,1-2.86l-4,3,.54-1.36c-2.42,1.15-3.82,3.16-5.54,4.92l.72-2.07-.26-.24-4.89,3.82a18.35,18.35,0,0,1,1.06-2.08,44.34,44.34,0,0,1,3.19-4.45c1.51-1.72,3.21-3.27,4.82-4.89.54-.53,1.07-1.07,1.6-1.61l3.77-3.91.26.22-1.7,2.14c1.2.23,1.59-.8,2.59-1.08-.42.55-.71,1-1.06,1.39a5.76,5.76,0,0,0-1,1.25c3.2-2.59,5.73-5.94,9.35-8-1.23,1.28-2.43,2.59-3.69,3.85s-2.71,2.59-4,3.94-2.43,2.68-3.63,4l.31.49a5.35,5.35,0,0,0,1.4-.68c2.14-2,4.22-4.07,6.36-6.07,1.3-1.23,2.68-2.38,4-3.56l.23.21c-.69.76-1.4,1.51-2.06,2.29-.5.59-.93,1.23-1.43,1.82a5.58,5.58,0,0,1-.79.65c-.9.77-2.18,1.32-1.58,3.14l3-3.45.13.3c.37-.1.85-.08,1.08-.31,1.24-1.27,2.45-2.59,3.61-3.94a22.37,22.37,0,0,0,1.5-2.11l.43.43-2.8,3.5c2.14-.93,3.47-3.15,6.12-3.36l-3,2.48.13.46c.35,0,.92,0,1-.13.69-1.23,2.16-1.3,3.09-2.19s2.24-1.79,3.37-2.67l-.09-.3-1.83.68-.12-.11a6.56,6.56,0,0,1,1-.88,17.57,17.57,0,0,0,6.52-6.31c1.51-2.48,4.14-3.62,5.6-6,.29-.46.6-.91.9-1.36a19.23,19.23,0,0,0,4.51-6.66c-1.56,1.95-3,4-4.42,6-.12.16,0,.45-.06.68l-1.82,1.48-.15-.06,5.63-8.79-.26-.19q-6.25,6.48-12.5,12.95l-.16-.1.33-.79-.15-.18-2.86,1.93-.14-.17,11.4-10.05-.15-.27-1.3-.08-.08-.24c1-.59,2-1.18,3-1.8.23-.13.6-.37.58-.52-.16-1.32,1-1.38,1.7-1.93,1.44-1.22,3-2.25,3.75-4.16a19,19,0,0,1,2.36-3.5l.3.17-1.58,3.22.24.22,3.25-2.48.19.23a94.15,94.15,0,0,0-9.59,14.43l.29.22.53-.5c.67-.61,1-1.79,2.25-1.51.15,0,.42-.33.59-.55,2-2.46,3.87-4.94,5.82-7.4,1.07-1.35,2.15-2.67,3.25-4a.88.88,0,0,1,.79-.28L122.9,130l.43.4,1.41-1.81.2.21L117,138.86l.27.26a45.27,45.27,0,0,0,3.78-3.23,48.65,48.65,0,0,0,3.11-4c.35,1.35-.32,2.2-.88,3.15-1.79,3.05-3.49,6.14-5.22,9.22a2.69,2.69,0,0,0-.18.49c1.75-.13,2.36-1.51,3-2.67,2-3.5,4-7.06,6-10.58a2.82,2.82,0,0,1,1-.95c-.73,3.43-3.16,6-4.53,9.09,4.31-5.27,6.55-11.65,9.34-17.73l.33.15c-.27.72-.54,1.45-.82,2.17-.64,1.59-1.33,3.15-1.9,4.76-.22.63-.15,1.36-.33,1.95l-2.11,5.37.39.22a16.06,16.06,0,0,0,1.88-2.34c1.65-3,3.15-6.16,4.81-9.2a24.09,24.09,0,0,1,2.12-2.84v0l1,.84,3.14-5.51c-.23,3.61-2.06,6.59-3.4,9.81l8.77-5.66.17,0-1.67,2.47c2.14-1.17,3.06-4.06,6.07-4l-6.27,5.52.3.34a24.36,24.36,0,0,1,2.21-2,29,29,0,0,1,4.1-2.57,3.3,3.3,0,0,0,1.84-1.86,6.6,6.6,0,0,1,.8-1.2l.4.24-1,2.18,1.4.13a1,1,0,0,1-.08.21c-2.15,0-2.38,1.85-3,3.25-.33.7-.6,1.43-.89,2.15l.33.23,2-2.24.14.11-1.7,2.46.41.34,3-3.19.29.17-.68,1.76c2.16,1.12-.46,1.88-.2,3l2.81-2.13,0,.08q-3.51,3.87-7,7.75l.25.31a3.32,3.32,0,0,0,.63-.3c2.21-1.62,4.42-3.24,6.62-4.88,1.53-1.15,1.74-3.06,2.61-4.59,0-.08-.19-.3-.34-.54l2.17-1.74.13.22-1.58,2.87.37.27c.56-.72,1.16-1.42,1.66-2.18,1-1.5,1.93-3,2.89-4.57.36-.57.68-1.16,1.06-1.7a4.6,4.6,0,0,1,.84-.7l-2.34,4.31.32.24a4.67,4.67,0,0,0,2.3-2.41c.49-1,1-2,1.52-2.94l.39.06a4.35,4.35,0,0,1-.22,1.65c-.43.76-1.13,1.36-1.64,2.08a11.6,11.6,0,0,0-.67,1.37c-.44.84-1,1.64-1.34,2.51a16.88,16.88,0,0,0-.62,2.13l2.5.11a5.82,5.82,0,0,0-1.55,1.08,8,8,0,0,0-.8,2l.29.21,3.21-2.69-.3,1c1.15-.58,2.13-1.05,3.08-1.58a20.11,20.11,0,0,1,2.8-1.45l-4.09,3.82c.18-.76-.28-.78-.72-.49a10.06,10.06,0,0,0-2.08,1.69c-1.28,1.52-2.23,3.28-3.77,4.62a20.19,20.19,0,0,0-2.41,3.06l.62.55a10.28,10.28,0,0,1,.86-1.38c1.21-1.47,3-2.33,4.06-4a33.39,33.39,0,0,1,3.44-4c-1.59,2.26-3.2,4.51-4.78,6.77-.34.5-.93.91-.49,1.76.12.24-.56,1.16-1,1.36-.68.3-1,.57-1,1.35,0,.44-.45.86-.54,1.5a16.47,16.47,0,0,0,2.2-1,85.66,85.66,0,0,0,13.37-11.26,7,7,0,0,0,1.11-1.82c1-2.18,2-4.39,3.06-6.55s2-4,3-6l.36.17-5,10.12.31.2a16.35,16.35,0,0,0,3.28-4.73l.4.26c-.32.59-.59,1.22-1,1.78q-2.1,3-4.26,6c-.5.7-.2,2.17-1.1,2.17-1.54,0-1.91,1.31-2.81,2s-1.7,1.93-2.69,2.72c-1.23,1-2.61,1.76-3.92,2.64a.76.76,0,0,0-.27.73l2.73-1.56-1.14,2c2.67-2.1,5.36-3.68,6.73-6.47a4.94,4.94,0,0,0,1.36-.68c1.64-1.76,3.23-3.58,4.94-5.49l-.39,1.26.26.21c1.24-1.36,2.56-2.65,3.7-4.09,2.17-2.77,4.23-5.62,6.34-8.44a3.64,3.64,0,0,0,.32-.62c.71-1.64.83-1.71,2.67-1.56h0c-.42.56-.88,1.1-1.25,1.69-.77,1.22-1.5,2.46-2.24,3.7a2.82,2.82,0,0,1-.18.29q-4.32,5.46-8.65,10.9a17.33,17.33,0,0,0-1.83,2.41l3.65-2.18.15.22c-3,2-6,3.88-8.93,6s-6.2,3.64-8.53,6.57c3.92-1.91,7.83-3.85,11.77-5.72a38.12,38.12,0,0,1,12.43-3.91L186,135.66l.06.32c.5-.07,1-.17,1.51-.2a26,26,0,0,0,8.39-1.6c2.89-1.11,5.66-2.52,8.49-3.8l7.39-3.35c.08,0,.22,0,.72.15l-9.85,4.75c5.23-.92,9.87-3.24,14.45-5.81l-1.5,1.24.17.28,6.87-3.08A102.85,102.85,0,0,1,199,135.93l.11.31,3.76-1.08.06.26-5.12,2.11.11.47a20.66,20.66,0,0,0,3-.4c3.62-1,7.17-2.2,10.81-3.08a12.2,12.2,0,0,0,6.2-3.26,4.34,4.34,0,0,1,.77-.56,3.26,3.26,0,0,1,.62-.23l-10,9.28.31.36,7.53-6.64.26.29-5.37,5.08.14.17,10.65-7.68.24.34-13.29,10,.18.3c.89-.48,1.79-.93,2.65-1.46,2.23-1.36,4.48-2.7,6.66-4.14,2.48-1.65,4.89-3.41,7.35-5.1a13.64,13.64,0,0,1,1.66-.85c-.4.34-.77.69-1.19,1-2.75,2.08-5.49,4.18-8.28,6.22-2,1.44-3.92,2.88-6,4.16a20.8,20.8,0,0,1-3.22,1.15,9.67,9.67,0,0,0-1.63,1c-2.55,1.68-5.16,3.28-7.63,5.08-2.22,1.63-4.28,3.49-6.41,5.23-.68.55-1.37,1.08-2.25,1.76a4.35,4.35,0,0,0,.54,0,40,40,0,0,0,9.17-6c.17-.14.06-.61.11-1.19,3-.46,5.29-2.61,7.76-4.48l.21.31-4.07,3.16.23.32a10.34,10.34,0,0,0,6.82-3.71,20.75,20.75,0,0,1,5.18-4.69c2-1.16,3.23-3.24,5.58-4a10.93,10.93,0,0,0,5-4.27c.15-.22,0-.65,0-1l1-1.43.63.32.13,2,.81-.14L228.74,133c.48.95,1,1,1.65.25.92-1.17,1.76-2.41,2.75-3.51a41.18,41.18,0,0,0,8.11-12.14,14.15,14.15,0,0,0,.45-2.73,3.29,3.29,0,0,1,.33-1.13c1.42-2.24,1.74-4.77,2.07-7.31.4-3,.87-6.07,1.32-9.1.15-1,.31-2,.5-3a4.61,4.61,0,0,1,.36-.79l.35.07a4.56,4.56,0,0,1,0,1.28,37.69,37.69,0,0,0-1.23,9.21c0,.56.38,1.13.36,1.69s.25,1.06-.25,1.7-.33,1.6-.47,2.43c-.32,1.91-.59,3.84-1,5.74a8.89,8.89,0,0,1-1,1.86,3,3,0,0,0-.35,1.31c1-1.31,2.29-2.44,2.36-4.34a13.42,13.42,0,0,1,1-2.8c1.1-3.85,2.17-7.71,3.22-11.49.17,2.61-1.08,5.15-1.17,7.89,3.77-7,7.79-13.82,10.58-21.27l.34.08a7,7,0,0,1-.25,1.48c-.95,2.38-2.11,4.68-2.83,7.12a3.33,3.33,0,0,0,.21,3,1.11,1.11,0,0,1-.13,1c-.94,1.24-.71,2.27.55,3.27.21-.65.41-1.27.6-1.89l.3,0c-.08,1-.17,1.93-.25,2.9l.4.09c.46-1.06.92-2.12,1.36-3.19.77-1.87,1.55-3.73,2.25-5.62a8.2,8.2,0,0,0,.21-1.86l.72.09V97l-.8-.73L258,105l.4.19,2.27-3.67.29.09c-.12.4-.2.81-.35,1.2s-.56.88.28,1c.1,0,.14.29.21.45l-.36.14c-.24.08-.65.1-.7.25-.83,2.3-1.61,4.62-2.4,6.93l.46.2c.59-1.32,1.19-2.64,1.79-4l.23.1c-.36,1.1-.69,2.22-1.11,3.3-1.43,3.7-2.92,7.37-4.34,11.08-2.22,5.79-3.78,11.86-7,17.21-1,1.65-2.18,3.2-3.26,4.8a9.86,9.86,0,0,0-.53,1l.23.24,1.82-1.23.16.2c-1.2,1.19-2.43,2.35-3.58,3.59a7.25,7.25,0,0,0-.83,1.56,13.53,13.53,0,0,1-4.08,4.17c-2.19,1.68-4.57,3.11-6.8,4.74a39,39,0,0,0-3,2.72l.38.52,7.24-3.59c-3.46,3.34-8.06,4.4-12.24,6.32a29,29,0,0,0,9.49-3.19c5-2.95,10-5.81,14.95-8.77a16.09,16.09,0,0,0,3.62-2.75,24.79,24.79,0,0,0,2.5-3.86,1,1,0,0,1,.46-.52c-.11.68-.23,1.37-.35,2.09.9-.1,1.17-1.83,2.59-1-1,.91-1.93,1.77-2.87,2.66s-2.09,1.56-2.56,2.6c-1,2.1-2.79,3.28-4.14,5l5.34-2.61.19.39c-6.68,4.19-14.36,6.52-21.09,11.11a29.42,29.42,0,0,0,3.08-.77c2-.71,3.87-1.57,5.84-2.27.95-.35,2-.41,3-.74a45,45,0,0,0,13.59-7.31c3.82-3,7.88-5.69,11.6-8.8a21.89,21.89,0,0,0,5.7-6.36c.43-.82,1.54-1.29,2.4-2,0,.18,0,.32,0,.39a94.48,94.48,0,0,1-5.66,7.58c-2.25,2.5-4.88,4.66-7.36,6.95-.81.75-1.67,1.45-2.51,2.17-.05-.26-.09-.51-.15-.84l-6.12,3.87c1.63.22,4.18-1.58,5.24-2.43a8.78,8.78,0,0,1,1.06-.64,11.08,11.08,0,0,1-4.34,3.55c-1.42.81-3,1.24-4.52,1.94s-2.68,1.6-4.11,2.17c-3.22,1.28-6.55,2.27-9.73,3.63a26.15,26.15,0,0,0-5.51,3.48l21.73-8.1.12.24a33.19,33.19,0,0,1-3.2,1.63q-6.67,2.63-13.4,5.13c-2.5.93-5,1.76-7.53,2.7a15.87,15.87,0,0,0-2.9,1.41,3.81,3.81,0,0,1-3.5.47,2.12,2.12,0,0,0-1.16.09c-3.17.79-6.33,1.61-9.5,2.41a4.3,4.3,0,0,1-1,0l0-.33,4.38-1.26c-1.3-.68-4-.48-4.55.36-1.35,2.06-2.57,4.2-3.94,6.24a16.85,16.85,0,0,1-1.94,1.93,12.18,12.18,0,0,0-.89,1.15l.16.39c2.68.1,5.36.18,8.05.31a20.21,20.21,0,0,0,11.84-3c2.14-1.32,3.72-3.55,5.54-5.38.25-.25.47-.53.7-.8l.26.19-3.51,4.75c1.34-.63,2.77-1.3,4.21-2l.14.26-10.24,6a3.44,3.44,0,0,0,3-.2c1.92-1,3.85-2,5.77-3l.21.38-10,5.64c4.38-1.43,8.12-4.19,12.42-5.87l-8.74,5.36.09.23,3.89-.62.08.31a67.12,67.12,0,0,1-18.8,6.15l4.79,1.07,0,.22L200,192a9.58,9.58,0,0,0,5.94,2.7c2.42.23,4.86.24,7.29.44a15.18,15.18,0,0,1,2.33.63,3.07,3.07,0,0,0,.8.09,10,10,0,0,1,1.72.13c-2.66.88-5.41.43-8.46.45,3,1.68,6,.16,8.71,1.07l-5.07.53c2.27,1,4.54.63,6.8-.28l.06.37a9.05,9.05,0,0,0-1.14.4,3.69,3.69,0,0,0-1.08.81l2.85-.68.24.3a5.73,5.73,0,0,1-1.16.8c-2,.66-3.92,1.25-5.84,2l2.16-.18.08.31-5.61,1.68,0,.27h5.94l0,.36c-7.66.83-15.29.15-22.9-1l-.11.32a19.89,19.89,0,0,0,1.73,1.33c1.7,1,3.39,2.14,5.17,3a11.33,11.33,0,0,0,3.3.92c.84.13,1.4.3,1.32.85l-4,2.29.1.37,4.33.36,0,.22-3.56.37.54.39,0,.25-8.22-1.81-.28.46c-2.77-2.37-5.74-4-7.16-3.95,1.83,2.36,3.63,4.67,5.42,7l-.22.18-6-5.35-.34.35,3.47,3.48-.23.27-2.15-1.37c.4,1.42.77,2.73,1.13,4l-.2.1-1-.88-.21.11c.28.72.55,1.44.82,2.16-1.72-.85-1.61-3.36-3.8-4.13l.95,3.83-2.3-2.85-.24.12,1.5,3.16c-2.4-2.19-3.9-5.1-5.9-7.62,1.41,3.41,3.85,6.19,5.86,9.23l-.28.28a8.42,8.42,0,0,1-1.14-1.09c-2.31-3.29-4.58-6.61-6.87-9.91a1.35,1.35,0,0,0-.78-.64l5.14,8.59-.29.19L175,212.06l-.14.05.52,2.18-1,.2q-.69-3-1.4-6l-.36.1c.2,2.52.47,5.09,1.75,7.27.8,1.37,1.87,2.56,2.29,4.16.11.39.73.64,1.21,1-.52.7-1.24.47-1.69-.07-1-1.19-1.8-2.5-2.7-3.75-.4-.57-.83-1.12-1.4-1.89l.41,2.29-.15.07-1.22-2.56-.49,1.62-.37.13,2.54,2.85c-1.13-.15-2-.27-2.63-1.25a4,4,0,0,0-3.15-2.21,2.45,2.45,0,0,1-1-.55,36.22,36.22,0,0,1-6.57-6.58,11.79,11.79,0,0,0-1.89-1.77c2.14,4.07,5.72,7,8.56,10.45l-.21.23-2.58-3.1-.48.39.66,1.15-5.06-3.7-.16.14,4.54,5.42h-.9l.23,1-1.09-.77-.28.26c1.28,1.41,2.57,2.82,3.85,4.24l-.15.21-6.39-5.3-.27.15.49,1.73c-2.28-2.4-3.05-5.66-5.73-7.37l-.3.19,1.27,2-.87-.27c0,.36,0,.66,0,1,0,1.14,0,2.28.09,3.42a6.9,6.9,0,0,0,.61,1.52,12.28,12.28,0,0,0,3.62,4.8c1.06.92,1.15,2.25,2.05,3.19l-.29.32-2.64-1.45-.36,1-1.14-.61.46,1.64c-2.4-3.16-3.07-6.91-5.31-9.75l-.52.29,4.14,7.7-.2.24a4.19,4.19,0,0,1-1-.73c-.77-1-1.45-2.09-2.22-3.09a5.47,5.47,0,0,0-1.11-.81c-1.14-2-2.1-2.62-3.43-2.06l3.46,2-.37,1.74,2.23,2-.11.18c-.51-.32-1-.63-1.53-1-2.33-1.58-4.73-3.08-6.44-5.42a4.51,4.51,0,0,0-1.45-1.18,19.19,19.19,0,0,1-7.31-6.66,19.88,19.88,0,0,0-1.71-2c-2.08-2.47-4.17-4.95-6.24-7.44-.29-.35-.82-.71-.16-1.25.07-.05-.15-.5-.28-.74-.5-1-1-2-1.56-3a5.73,5.73,0,0,0-1.17-1.07l-.35.32,2.47,3.77-.34.22-3.09-4.75,1.18-.24c-.69-1-1.37-1-2.62.09a14.59,14.59,0,0,0,0-1.49c0-.39,0-1-.21-1.14-1.37-.85-2.81-1.6-4.5-2.55a12.25,12.25,0,0,0,3.25,5.61c2.11,2.29,4.19,4.61,6.13,7.08-2.94-1.95-5-4.81-7.39-7.38a11.66,11.66,0,0,0,4.79,7.45,29.47,29.47,0,0,1,3.59,3.48,50.87,50.87,0,0,0,3.74,3.75l-.56-.88c-.18-.3-.52-.62-.48-.89s.42-.58.68-.9l1.22.44-1.54.36c1,1.08,1.91,2,2.78,2.93q1.91,2.08,3.8,4.18l7.74,8.63a.57.57,0,0,1,.09.58c-.93-.78-1.92-1.5-2.78-2.35-1.22-1.19-2.3-2.52-3.53-3.7-.35-.34-1-.34-1.53-.5.45-.33.63-.59.16-1.14-1.21-1.42-2.32-2.91-3.48-4.37a8.61,8.61,0,0,0-.74-.74,1,1,0,0,0,.19.87C132.78,215.85,134.08,217.64,135.37,219.43ZM181.18,212c.11-.17.34-.45.3-.49-.74-.9-1.51-1.77-2.28-2.65l-.37.33L181.2,212l1.47,2.89C182.71,213.56,182.44,212.45,181.18,212Zm-75.67-22.21,1.76.94c.58-.36.8-1.3.14-1.65a33.16,33.16,0,0,0-3.25-1.35L104,188l1.52,1.78-3-1.62-.15.29c1.22.87,2.17,2.23,4.3,2.22Zm39-45.14-.75,1.83.42.26c.69-.74,1.25-1.86,2.1-2.14,1.19-.4,1.28-1.17,1.4-2.15a26.33,26.33,0,0,0-2.37,2,2,2,0,0,1-.84.25l2.1-4.69-.34-.15c-1.22,1.52-2.46,3-3.65,4.59-.12.15-.08.64,0,.69a1.3,1.3,0,0,0,.87.07A6.28,6.28,0,0,0,144.53,144.61Zm-30.16,50.46-1.58-.67a4.55,4.55,0,0,0,.33.92c.79,1.16,1.62,2.29,2.39,3.47.48.74,1,.76,1.56.29a4.28,4.28,0,0,0-2.69-4l1.39.5c-1.4-2.17-2.91-4.15-5.59-5.08a4,4,0,0,0,1.9,2.77C112.87,193.83,113.61,194.46,114.37,195.07Zm-65.46.1-4.37-.72,2.25-.35,0-.29-3.27.34-.14.37c.43.24.85.66,1.29.68,1.43.07,2.86,0,4.29,0l-2,.9,8.37,6.23a10.25,10.25,0,0,0-1.19-1.87C52.4,198.63,50.64,196.92,48.91,195.17ZM127,198.22c2.11,2.23,4.21,4.48,6.33,6.7a29.67,29.67,0,0,0,2.13,2.07c.71.62,1.5,1.16,2.25,1.73-3.06-4.29-6.18-8.54-10.91-11.67.11.6.17.9.22,1.19l-2.16-1.79A1.71,1.71,0,0,0,127,198.22Zm84.41-47.55c-.11.19-.18.46-.34.57-1.93,1.23-3.89,2.43-5.82,3.67-2.22,1.41-4.42,2.86-6.62,4.29l.16.32a18.24,18.24,0,0,0,4.22-1.43c2.22-1.37,4.24-3.06,6.32-4.65,1.14-.87,2.23-1.81,3.34-2.72l-.2-.33-1.1.32c2.26-1.53,4.57-3,6.76-4.62a32.16,32.16,0,0,0,3.11-3.07l-.24-.3a13.77,13.77,0,0,0-3.21,1.44c-1.78,1.44-3.33,3.16-5,4.7a9.58,9.58,0,0,1-2.09,1.35c-.4.2-1,0-1.35.26-1.45,1.13-2.84,2.36-4.25,3.55a32.38,32.38,0,0,0,3.14-1.66C209.28,151.78,210.36,151.23,211.43,150.67ZM39.62,175.85,39,175l-.7,1a5.27,5.27,0,0,0-.59-.29c-.41.65-.79,1.32-1.29,2.17-.17.14-.56.46-1,.74-.25.16-.59.38-.82.32s-.3-.49-.36-.77c-.16-.8-.27-1.62-.43-2.61a2.79,2.79,0,0,0-.57,2.94,1.05,1.05,0,0,1,.08.82c-1,1.51-2,3-3,4.49a12.9,12.9,0,0,0-.7,1.39l.25.17c.84-.73,1.65-1.49,2.52-2.19,1.06-.86,2.16-1.68,3.25-2.51-.39.56-.76,1.15-1.19,1.69-.94,1.18-1.91,2.34-2.87,3.5l.14.06L39,181.2l.27.38-4.53,3.69.2.25c1.5-.68,3-1.32,4.5-2.06a29.25,29.25,0,0,0,3.92-2.25c.49-.35,1.07-1.37.89-1.71a13.4,13.4,0,0,0-2.15-2.5l-.94,2.42-.1,0,.19-1.74-.34-.08-.62,2.51-.26,0,.2-2.82-3.1,3.95-1.39-.48c.19-.19.5-.36.55-.58.21-.92.79-1.11,1.65-1.31a2.7,2.7,0,0,0,1.7-3l.81.53c.58-1.52,1.13-2.86,1.6-4.22a5.76,5.76,0,0,0,.15-1.45A6.55,6.55,0,0,0,39.62,175.85ZM238.06,142c0,.36.14.86,0,1.05-1.54,1.6-3.15,3.15-4.73,4.71l.23.26,2.59-2.36.21.21-2.88,3,.27.26c1.7-1.64,3.44-3.25,5.1-4.93a5.18,5.18,0,0,0,.88-1.64c.06-.14-.14-.4-.28-.74l.72.25c.27-.39.52-.75.78-1.1,1.91-2.58,3.84-5.15,5.74-7.74.12-.17,0-.5,0-1-1.08,1.62-1.75,3.21-2.91,4.24a32.53,32.53,0,0,0-3.63,3.8,13.21,13.21,0,0,1-2.1,1.74,39.3,39.3,0,0,0,6.41-10.84l-.67.21c2.68-2.4,4-5.67,5.66-8.74-1.2,1.71-2.32,3.48-3.47,5.21a4.65,4.65,0,0,1-.94.81l-.28-.24a7.3,7.3,0,0,1,.43-1.44c1.15-2.18,2.32-4.34,3.55-6.48a51.89,51.89,0,0,1,2.94-4.78c2.24-3.05,2.26-6.53,2.14-10.1q-2.24,6-4.46,12l-.28-.06-.07-.77-.23-.06q-2.55,6-5.11,12l.64.17-1.5,2.49,1-.12a23.21,23.21,0,0,0-2.93,3.2c-.59.92-1.56,1.63-1.61,3,0,.75-1,1.49-1.67,2.18-.81.91-1.69,1.75-2.52,2.64-.44.48-.82,1-1.3,1.59A5.75,5.75,0,0,0,238.06,142Zm-67.9,43.91,2.88,2.9.32-.36a4.54,4.54,0,0,0-3.23-2.51,5,5,0,0,1,.81-.25c.46-.06.92-.06,1.46-.09,1,1.5,3,2.73,3.67,2.25l1.92,1.81-.1.14-3.44-1.4c2.13,3.81,5.93,4.92,9.17,6.84l.25-.27-6-7.94,2.85,1c.67,1.72,2.63,1.57,4.17,2.19a2.88,2.88,0,0,0-.93-.88c-1.63-1-3.29-1.86-4.91-2.85-3.57-2.15-7.13-4.32-10.66-6.54-1.81-1.14-3.48-2.53-5.35-3.56a24.37,24.37,0,0,0-4.87-1.9,17.94,17.94,0,0,0-3.22-.37V174l1.76-.34a34.92,34.92,0,0,0-5.8-.82c-.92-.06-1.94-.1-2.39-.92-.56-1-1.35-.81-2.17-.8-.2,0-.4-.07-.59-.06-1.67.11-3.43-.33-4.89.86-.65-.91-3.77-.93-5.1-.06l10.5,2.06,0-.14-2.33-1,.18-.4c4.37,1.89,8.88,3.48,12.93,6.08a2.28,2.28,0,0,1-1.11-.23c-2.65-1-5.28-2.16-8-3.08a27.71,27.71,0,0,0-4.28-.85,65,65,0,0,0-7.15-1.19,47.65,47.65,0,0,0-6.41.34,3.21,3.21,0,0,0,1.7.8c2.73.32,5.48.53,8.21.9a29.85,29.85,0,0,1,15.25,6.62c2.23,1.85,3.88,4.39,5.78,6.63.06.06,0,.2.07.42l-.73-.48c2.54,4.84,5.65,9.37,7.33,14.63-.3-2.23-.69-4.44-1.14-6.63-.38-1.85-.29-3.85-1.61-5.42-.34-.41-.61-.87-1-1.48,1.41.61,2,.19,1.79-1.17a9.2,9.2,0,0,0-.75-2,10.94,10.94,0,0,1,2.2,3.62c.49,1.93,2.5,3.08,2.45,5.22,0,.17.39.36.62.52l3.81,2.64-.1.18-3.24-1.68-.22.38L180,203l-1.83-3c-.11.08.2,0,.23-.17a4,4,0,0,0-1.62-3.12c-1.13-.73-2.21-1.55-3.27-2.38-.17-.13-.13-.52-.19-.79a4.05,4.05,0,0,1,.7.32c.36.23.69.5,1,.75l.2-.23c-5.37-4.83-9.1-11-13.6-16.48a32.91,32.91,0,0,1,2.92,2.59C166.46,182.22,168.31,184.07,170.16,185.92ZM135,175.42c-1.06.06-1.81.14-2.56.13-1,0-2.26.27-2.92-.23-1.15-.86-2.23-.65-3.38-.51-.41.06-.78.47-1.27.79l9.74,1.52-.07.43c-1.23-.21-2.45-.49-3.69-.62-2.59-.28-5.2-1.05-7.78.06a6.25,6.25,0,0,0-1.15.86,2.23,2.23,0,0,0-.88,0c-.24.09-.58.63-.52.71.53.77,1,1.58,2.16,1.62a21.29,21.29,0,0,1,8,1.71,9.8,9.8,0,0,1,1.73,1.24c.18.22.62.06.89.2.85.43,1.62,1,2.43,1.48s1.64.94,2.46,1.41l.19-.3-.84-1.63c1.17,1,2.44,2.14,3.76,3.22q6,5,12.08,9.93c.28.23.59.43,1.16.85l-.42-1.65a1.48,1.48,0,0,1,.89.68c1,1.58,2,3.19,3.13,4.74.56.8,1.29,1.47,1.89,2.25,1.16,1.52,2.29,3.06,3.42,4.6s2.31,3.23,3.51,4.82c.92,1.22,1.91,2.38,2.87,3.58l.33-.23a5.34,5.34,0,0,0,0-1.06c-.94-4.2-1.82-8.42-2.89-12.58a23.06,23.06,0,0,0-2.11-5.32c-2-3.54-4.07-7-6.23-10.43a22,22,0,0,0-8.67-8.35,29.33,29.33,0,0,0-11.94-3.5,35.88,35.88,0,0,0-4.3.32Zm1.56-5.42,6.38-1.11c1.17-.21,2.34-.4,3.49-.68a10.83,10.83,0,0,0,1.32-.66c2.66-1.05,5.67-1.11,8-3.12,1.79-1.55,3.74-2.89,5.62-4.32l-.1-.2-1.56.09a20.26,20.26,0,0,0,4.28-1.93c2-1.27,3.79-2.79,5.75-4.07,2.83-1.85,5.76-3.53,8.6-5.36a32.47,32.47,0,0,0,2.89-2.37l-.2-.3a1.57,1.57,0,0,0-.44,0c-2.34.88-4.7,1.7-7,2.68-2.77,1.18-5.68,2.07-8,4.17-2,1.79-3.86,3.83-6.54,4.58s-4.45,3.15-7.29,3.77c-1.87.4-3.52,1.8-5.27,2.74a4.65,4.65,0,0,1-.85.39c-2.37.74-4.68,1.59-6.44,3.45-.16.17-.45.44-.55.4-1.22-.57-1.72.68-2.64.93Zm37.36-11.59a2.25,2.25,0,0,0,.52-.09,3.67,3.67,0,0,0,.81-.5,16.67,16.67,0,0,1,7-3.68,38.81,38.81,0,0,0,5.05-1.79c2-.94,3.8-2.15,5.7-3.24a8.87,8.87,0,0,1,.89-.39l.11.25-5.45,3.85.18.24c2.08-1.57,4.67-2.41,6.47-4.56l-.64-.18.27.18c1.47-1.25,2.92-2.51,4.4-3.72a5.52,5.52,0,0,1,1.21-.62,11.63,11.63,0,0,0,1.72-.76,12,12,0,0,0,1.52-1.39l.17.69,9.48-7.79c-6.66,2.68-13.47,4.93-20.51,7l2.48-.27.05.32c-3,.93-6.09,1.63-8.73,3.61s-5.39,3.48-8.11,5.21l.17.27,8-3.68,0,.74,5.74-3.93.2.26a7.93,7.93,0,0,1-.92.82q-7.31,5-14.63,9.92A9.22,9.22,0,0,0,173.94,158.41Zm-59.59,30.28c-.21,1.29.58,1.87,1.38,2.38,1.13.73,2.32,1.38,3.47,2.09,1,.58,1.9,1.2,3,1.92l-.64-3.1.34-.06c.3.73.59,1.46.9,2.19s.33,1.74,1.85,1.42L121,190c1.14-.45.11-1,.07-1.53a6.26,6.26,0,0,0-.14-.73l.4-.13c.8,3.2,2.39,5.75,5.59,7.06l-.7.5,4.4,3.3.27-.3c-.74-1.27-.63-3.21-2.84-3.43l1.88-.16-4.46-5.63.24-.27,7.39,3.76a.76.76,0,0,0-.2-.67,68.46,68.46,0,0,0-5.15-4.64,9.36,9.36,0,0,0-5.21-2.2c-.56,0-1.21-.22-1.19.74A14.45,14.45,0,0,1,119,185a15.77,15.77,0,0,1-2.13-1.3l.1-.21,1.79.54.1-.33-5.37-2-.12.33,2.33.89-.09.34c-2.2-.62-4.38-1.41-6.79-.75l.74-1.07-.12-.24-3,1.19c.94.89,1.77,1.45,3,1a1.35,1.35,0,0,1,1.21.18,5.06,5.06,0,0,0,4.07,1.79,2.73,2.73,0,0,1,1,.33c1.5.71,3,1.45,4.47,2.19l-.32.14.65,1.39a32.2,32.2,0,0,0-3.46-1.95,35.39,35.39,0,0,0-4-1.21l-.16.28,5.65,4.17-.14.22ZM184,176l.13-.38,4.8,1.73a1.72,1.72,0,0,0-.87-.67c-2.78-1.38-5.62-2.67-8.32-4.19-1.91-1.08-2.7-1.25-4.45,0l.24-1-4.14-.93.08-.42,2.34.26a4.62,4.62,0,0,0-4.88-.69c-1.47.55-2.59,2-4,3.26,4,2.23,6.87,5.79,11.29,7.14-3.24-2.3-4.66-5.85-6.58-9.08a10.36,10.36,0,0,1,1.67,1.27c1,.86,1.91,1.73,2.85,2.6a26.33,26.33,0,0,0,7.89,4.89A14,14,0,0,0,188.6,181l-5.9-2.93.15-.36a3.43,3.43,0,0,1,.56.06c2.24.68,4.5,1.34,6.73,2.05.93.3,1.68.29,2.15-.76C189.56,177.92,186.4,177.87,184,176Zm-73.26,4.74.05.39c2.87-.42,5.3.74,7.62,2.16,1.18.73,2.19,1.72,3.77,1.11a2.48,2.48,0,0,1,1.29.16c.84.2,1.67.44,2.47.65l.16-.51c1.44,1.12,2.83,2.17,4.17,3.28s2.57,2.23,3.85,3.35l.4-.43-2.14-2.34.25-.31,5.54,4.2.23-.21a7.48,7.48,0,0,0-.65-.91c-1-1.11-2-2.14-2.94-3.3-1.9-2.47-4-4.61-7.07-5.64-1.49-.51-3-.91-4.51-1.36l-.12.32.73.82c-3.14-1.61-6.6-1.5-9.85-2.22C113,179.68,111.8,180.4,110.71,180.69Zm53.24-20,3.64-3.46-.16-.16-10.84,7.54.22.46,8.4-3.09.06.17-2.06,1,.07.24,3.55-.57-1,.81a8.33,8.33,0,0,0,.88,0,33.62,33.62,0,0,0,5-.89c.78-.26,2.07-.22,2.27-1.52,0-.05-.06-.11-.1-.18l-.42.38-.16-.11,1.31-1.92-1.51-.12-.35-1.81-1.21.25.72.82-4.92,2.81A21.26,21.26,0,0,1,169,159c.21-.28.33-.67.6-.85.94-.64,2-1.17,2.91-1.81,1.4-.94,2.76-1.94,4.14-2.91l.19.25-2,1.74a13.43,13.43,0,0,0,5.78-4.25.7.7,0,0,0-.6,0c-3.85,2.12-7.69,4.23-11.51,6.4-.31.18-.41.74-.59,1.09Zm25.92,0c1.35-.06,2.49-.09,3.61-.18a9.83,9.83,0,0,0,4.26-1.56c1.54-.89,2.36-2.4,3.72-3.39.63-.47,1.23-1,1.82-1.5,1.33-1.14,2.64-2.29,3.95-3.43l3.72-3.22-.29-.38L206,150.35v-.78c-2.78,1.71-5.45,3.38-8.16,5a28.84,28.84,0,0,1-3.68,2c-1.2.5-1.9,2.35-3.65,1.43l-4.87,2.57c2.13.89,3.53-.43,5.11-1.25Zm-19.11-11.83a5.34,5.34,0,0,0,1.11-.13c3.47-1.27,7-2.45,10.38-3.86,4.07-1.68,8.4-2.79,12.12-5.27.94-.63,1.91-1.21,2.86-1.81l-.14-.28a6.49,6.49,0,0,0-1.17.19c-2.48.88-5,1.68-7.42,2.71a46.76,46.76,0,0,0-4.57,2.57,5,5,0,0,1-.88.27l1.62-1.53C182.74,140.47,173.24,145.3,170.76,148.82Zm-3.33,20.63c-.56-.13-1.12-.09-1.26-.32-.85-1.31-2-1-3.12-.66s-2.08.7-3.13,1.05l-.11-.26,2.56-1.26c-2-.37-4,.44-5.56-1,0,0-.15,0-.23.05l-7.27,1c-.61.08-1.22.18-1.83.27v.33l3.37.53a32.19,32.19,0,0,1,3.29.5c3,.8,6,1.7,9.05,2.53.35.1.87.18,1.1,0C165.34,171.35,166.31,170.43,167.43,169.45ZM140.61,135l.28.21,6.18-5.19.28.31-5.55,5.2c5-3.26,9-7.38,10.33-13.65-2.37.59-3.73,2.37-5.57,3.78l1.3.07c-1.4,1.18-2.82,2.27-4.11,3.5-.65.6-1.53,1.49-1.47,2.17a2.28,2.28,0,0,1-.56,1.75C141.32,133.7,141,134.34,140.61,135Zm-19.49,1.68a22.5,22.5,0,0,0-3.2,2.77c-1.17,1.44-3,2.29-3.65,4.22-.07.23-.5.36-.79.5a5.91,5.91,0,0,0-1.29.61,14.9,14.9,0,0,0-1.44,1.72l-.25-.18,2.62-3.64c-1.89,1.74-4,3.3-4.93,5.8l.25.25,1.49-1.44.82.93,2.51-3.35.15.11-1.16,1.9.35.24C115.47,143.64,119.11,140.86,121.12,136.64Zm29.08,10.72c-2.22.32-3.84.38-6.69,3.93l-.35-.55c-.53.4-1,.77-1.53,1.17s-.89.75-1.34,1.13l.3.38C144.63,152.82,148.46,151.84,150.2,147.36Zm31.41,18.51c-2.87-1.25-8.48,0-9.43,2.18,1.61.12,3.18.21,4.74.37A4.38,4.38,0,0,0,181.61,165.87Zm-82,15.36c-2.23-.5-7.35.35-8.65,1.57,2.52-.26,4.75,1.5,7.08,0,.54,1.52,3.81,2.34,5.09,1L99.36,182ZM191,170.69a35.85,35.85,0,0,0-12.49-.62,2.72,2.72,0,0,0,1.41,1c1.6.3,3.23.46,4.84.74C186.89,172.13,189,172.32,191,170.69Zm29-14.9c3.4-.27,14.42-8.56,15.06-11.26-3.06,1.4-5.39,3.61-7.88,5.59l.18.25,1.18-.21.15.38Zm-175.2,48-.6.55,5,6.93.38-.24a11.35,11.35,0,0,1-1.12-2.5c-.3-1.57-.24-3.23-.59-4.79s-.75-3.14-2.48-4.26l.88,3.81.92,1.54-.64.8Zm27.66-16.41a15.57,15.57,0,0,0,12.26,2.36c-2.49-2.05-5.43-1.27-8.36-1.34l1.4-.77,0-.25ZM198,196.5a5.94,5.94,0,0,0,1.2.63c3.2.83,6.39,1.7,9.62,2.38,2.13.45,4.33.73,6.37-.47Zm-54.73-.21c-.29-2.81-1-5.29-3.7-6.59-.14-.06-.22-.22-.36-.31-1.45-1-2.92-1.95-4.38-2.93l-.17.21Zm-38.77-2c.2-2.6-.27-3.29-2.55-3.82-1-.22-2-.37-3-.55a9.55,9.55,0,0,0,1.74,1.27c.55.34,1.12.65,1.68,1l-.17.26a40.26,40.26,0,0,0-8.53-3.49l-.18.43Zm55.37,19.09c-1.37-3-9.21-12.7-11.08-13.81A69.37,69.37,0,0,0,159.88,213.33ZM96.06,159.71l.11.39a5.09,5.09,0,0,0,1.49-.58c1.3-1.1,2.52-2.29,3.78-3.43l3.19-2.86c.85-.76,1.7-1.5,2.52-2.29.12-.11,0-.42.07-.78a26.57,26.57,0,0,0-3.11,2c-2.65,2.32-5.22,4.73-7.81,7.11A1.38,1.38,0,0,0,96.06,159.71Zm50.17-17.63.42.36,10-10.47-.29-.29C152.37,134.51,148.69,137.7,146.23,142.08Zm41.42,26.83c2.89,1,5.76,1.77,8.63.19.35-.19.53-.7.78-1.06l-.25-.25a2.3,2.3,0,0,0,.45-.12,2.15,2.15,0,0,0,.32-.29l-.09-.31ZM148.6,194.05a2.59,2.59,0,0,0,.79,2.52c2.37,2.24,4.71,4.52,7.07,6.78a8.88,8.88,0,0,0,.91.65C155.69,199.47,151.92,197.09,148.6,194.05ZM45.71,177.17l.51.28a23.82,23.82,0,0,0,2.59-3.74c1-2.32,3.92-3.93,2.8-7.31L49.53,169l.27.24,1-.58-2.27,3.71-.82-.73Zm139.19-11-.08-.34-2.18.45.28.63c-.22.29-.41.54-.58.8,0,0,.09.1.19.2l.82-.25c.09.28.13.68.26.72,1.09.3,2.17.82,3.34.17a5.87,5.87,0,0,1,1.48-.4l3.51-1-.06-.45h-7.75s0,0,0,0ZM44.69,178.65c.4-4.29,2.36-7.88,4.84-11.34-.56.08-1.34.11-1.55.48-1.46,2.49-2.85,5-4.17,7.62A2.51,2.51,0,0,0,44.69,178.65ZM147.4,156l-.3-.26c-4,3.35-6.78,7.76-10.11,11.72a13.82,13.82,0,0,0,1.89-1.07c1.07-.65,2.31-1.14,2.21-2.75,0-.2.27-.44.45-.64Q144.47,159.49,147.4,156Zm42.43,16v.43h6.29l-.65-.94c1.46,1,2.69-.33,3.68-.29l2-1.81a7.84,7.84,0,0,0-6.14,2,1,1,0,0,1-.55.14ZM158.34,203.5l-.27.2c1.27,2.09,2.59,4.16,3.8,6.28a14.42,14.42,0,0,0,5,5.06Zm-39.59,18.82c2.72,2.61,5.12,5.71,9.27,6.57C125.62,225.53,122.22,223.89,118.75,222.32Zm109.73-88.81-.59-.31-6.7,7.26a3.83,3.83,0,0,0,1.17-.37c2.59-.88,4.25-2.85,5.74-5A4.7,4.7,0,0,0,228.48,133.51ZM94.74,142.83,95,143c.59-.39,1.19-1.11,1.78-1.1,1.52,0,1.7-1.08,2.11-2s.68-1.83,1-2.75a6,6,0,0,0,.17-1l-.41-.2C97.5,137.9,96.19,140.42,94.74,142.83Zm82.61,52.56.57-.42a16.59,16.59,0,0,0-1.9-2.89c-1.43-1.43-3.05-2.65-4.59-4l-2.15-1.87-.33.34Zm15.79,3.66c-3.53-1.36-5.88-4.62-9.42-5.91.85,1.58,1.59,3.19,3.42,3.82,1.5.51,3,1.11,4.47,1.65C192.1,198.79,192.62,198.91,193.14,199.05Zm58.51-78.31c-3.09,5.28-6.15,10.51-9.2,15.74C244.54,134.89,251.43,122.73,251.65,120.74ZM108.2,177.44A22.1,22.1,0,0,0,97.65,180C101.45,180.26,104.71,178.42,108.2,177.44Zm34.55-13.66c3.79-1.6,6.41-4.76,9.66-7.07.32-.22.65-.42,1-.62l-.35-.38C149.61,158.41,145.41,160.09,142.75,163.78Zm24.49-22.45c-1.81.54-3.83.61-5.21,2.3a2.07,2.07,0,0,1,.42.15c.06.05.08.16,0-.06l-3.93,3.16.24.31A42.71,42.71,0,0,0,167.24,141.33Zm-82,43.18a11.35,11.35,0,0,0,8-.18c-2.52-.8-4.8-1.25-7.15-.52C85.78,183.92,85.53,184.27,85.23,184.51Zm34.8,19c1.65,3.66,4.41,6.45,7.26,9.23a3.45,3.45,0,0,0-.74-2c-1.13-1.23-2.39-2.33-3.58-3.5-.36-.36-.9-.79-.91-1.21C122,204.61,120.83,204.25,120,203.54Zm38.1-36.76c1.3.44,1.49.39,2.5-.5a1.45,1.45,0,0,1,.73-.28c1.91-.26,3.83-.47,5.74-.76.25,0,.44-.47.8-.89C164.24,164.17,159.39,165.44,158.13,166.78Zm41,34.87c-2.86-1.79-6-1.75-9.09-1.85A14.88,14.88,0,0,0,199.11,201.65ZM237.84,150c3.57-1.28,4.84-4.1,6.16-6.87l-.32-.27Zm-54-21.92L175.65,136C178.92,134,182.25,131.94,183.83,128.11Zm38.22,43.3,0,.44c.37.1.78.35,1.11.28a27.65,27.65,0,0,0,7.81-3l-.11-.35Zm-47.58-8.95.22.56a24.35,24.35,0,0,0,2.53-1c1.94-1.05,3.69-2.55,6.1-2.36l.85-1.91Zm61.59,3-.09-.37-12.44,4.2.11.35A76.52,76.52,0,0,0,236.06,165.48ZM135.61,132.69c2.24-1.48,3.11-3.78,4.44-5.72C137.87,128.24,135.66,129.49,135.61,132.69Zm88.5,3.5c-3.24,1.47-5.21,4.31-7.38,6.94C219.88,141.57,221.56,138.41,224.11,136.19ZM187,207.64a11.84,11.84,0,0,0-5.22-4.79C183,204.94,184,207.27,187,207.64Zm-56.44-3.41-5.2-5.45-.29.28C126.22,201.3,127.14,203.76,130.56,204.23Zm2.34,15c-1.33-3.46-3.06-5.83-4.47-6.18A13.44,13.44,0,0,0,132.9,219.21ZM85.33,187.58c-1.55-2.75-3.9-1.89-6-2C81.29,186.19,82.88,188,85.33,187.58ZM196,176.69l-.05-.23c-1.28-.23-2.57-.44-3.85-.7s-2.5-.55-3.76-.82l-.16.26,4.26,2.54.29-1.05Zm-55.68,29.4c-.86-2.6-5.26-7.88-6.86-8.21C135.81,200.75,138,203.42,140.28,206.09ZM115.37,178.8l0,.55,5.52.52-1.27-2.06Zm28.23,34c0-2-3.65-6.93-5.42-7.5Zm-26.4-52.6c.33.09.69.29.78.21,1.67-1.52,3.31-3.08,5-4.63l-.29-.3-1.28,1-.2-1c-.45.91-1.8,1-1.74,2.44C119.45,158.57,118.1,159.29,117.2,160.16Zm26.27-22.58a3.18,3.18,0,0,1,.49-.77,23.73,23.73,0,0,0,2.17-1.79,6.23,6.23,0,0,0,2-3.17l-.28-.23-4.92,5.23Zm8.81,22.23c3-1.47,6.2-2.47,8.5-5l-.25-.39-5.24,3.49C153.9,157.47,153.34,159.15,152.28,159.81Zm46.48,25.59.13-.57-8.59-1.67C193,184.28,195.7,185.67,198.76,185.4Zm-98.1,4.11a7.67,7.67,0,0,0-6.75-1.72l-.08.36ZM178.51,204a10.66,10.66,0,0,0,3.7,5.24C181.65,207.06,180.8,205.11,178.51,204ZM201,189.51c-1-1.35-4.31-1.81-6.42-.93A18.31,18.31,0,0,0,201,189.51Zm-56.72-65.26-.43-.39c-2.41,1-3,3.44-4.33,5.29l.28.23ZM70.93,182.82c1.3.47,4.18-1,4.44-1.95,0-.2,0-.55-.11-.63a.83.83,0,0,0-.73-.07C73.38,181,72.26,181.83,70.93,182.82Zm105.9,1.08.2-.24-7.23-5.09C170,179.88,173.78,182.58,176.83,183.9ZM144,194.36l4.35,6.16C148.07,197.63,146.35,195.77,144,194.36ZM29.11,203.1l.32.07.79-6.2-1.27.72.89.59-1.47.23Zm183.77-.44,0-.54-10.94.76a24.26,24.26,0,0,0,4.66.21c.78,0,1.55-.36,2.33-.4C210.23,202.61,211.56,202.66,212.88,202.66ZM218,168l.19.36c1.46-.87,3.33.38,4.77-1l-.83-.08,1.53-.94c-1.63-.84-2.38.84-3.62.85l.61-.45-.23-.34ZM108.42,195.67c-.63-1.95-2.16-2.8-3.44-4.21C105,194.11,105.76,195.08,108.42,195.67ZM47.1,189h6.13C51.93,187.56,48.1,187.55,47.1,189ZM163.56,173.9c-1.1-1.57-4.65-2.28-6.29-1.25ZM50.21,166.34l.36.36c1.88-1.29,3.83-2.51,4.63-4.82l-.23-.23Zm131.11-10.87c-3.09.51-4.88,2.52-6.42,4.87Zm74.22-58.65-.33-.16c-2.16,3.47-3,5.57-2.41,7.17C253.71,101.49,254.63,99.16,255.54,96.82ZM112.39,187.34c-.59-.25-1.2-.52-1.82-.77s-1.47-.56-2.2-.84l-.19.36,5.12,3.27.19-.25Zm-15.17-1.48c-1.29-1.15-3.3-1.22-5.21-.38C92.8,186.18,96.37,186.49,97.22,185.86Zm42.06-37.53a23.86,23.86,0,0,0,3.25-.82c.31-.13.47-.84.51-1.3,0-.22-.43-.69-.61-.67a1.61,1.61,0,0,0-1,.59c-.45.66-.8,1.36-1.76,1.31C139.58,147.44,139.51,147.76,139.28,148.33Zm68.45,36.84c1.3,1.15,4.85,1.24,6.82,0Zm-19.22.54c2,1.39,4.06,2.7,6.87,1.75Zm-26-52.48c-1.55,1.18-3.31,2.15-3.91,4.47C160.5,136.48,162,135.23,162.55,133.23Zm-14.77,72.7.46-.38c-1.46-1.74-2.93-3.47-4.39-5.2l-.28.23A21.23,21.23,0,0,0,147.78,205.93Zm-78.06-37-.3-.26-3.8,4.53C68,172.56,69,170.83,69.72,168.89Zm45.65,7.92,5-1.91-.11-.44a8.46,8.46,0,0,0-2.62.44C116.86,175.29,115.64,175.21,115.37,176.81ZM59.59,189.27c-1.85-.43-3.69-1-5.58-.26C55.84,189.7,57.68,190.15,59.59,189.27Zm47.52-9.44.14.31a13.48,13.48,0,0,0,6.29-2.12l-.15-.44Zm147.62-73.4c1.68-.92,1.28-2.29,1.27-3.54,0-.17-.32-.5-.4-.47s-.57.28-.59.46C254.87,104.06,254.81,105.25,254.73,106.43ZM132.24,206.54l-.24.26c1.36,2.46,4,3.5,5.85,5.43l.23-.24Zm30-75.39c2-.3,3-1.63,3-3.94Zm-22.54,11.18.52,1.46,2.93-3.6-.36-.33ZM56.5,217.91l-.43.23,3.85,7.36.36-.19ZM161.81,129l-.46-.34-3.76,5.63.48.32ZM184,191.17c1.27,1.66,4.43,3.32,5.88,3.15ZM218.83,152,214.39,156C216.16,155,218.36,154.39,218.83,152Zm-109.66,1.87-.69-.71-4.38,4.75.48.49Zm55.16,22,4.48,2.95.24-.32c-.46-.37-.93-.73-1.38-1.11s-1.1-1-1.66-1.52S165,175,164.33,175.81ZM204,199.4l-6.2-1.71A8.45,8.45,0,0,0,204,199.4Zm-69.2-1.75c-.67-2.25-2.32-3.62-4-4.94l-.24.21Zm9.55-7.22-.27.26,3.21,3.6.34-.12c-.09-.43,0-1-.3-1.28C146.38,192,145.33,191.24,144.33,190.43Zm7.73,27.1a17.62,17.62,0,0,0,0-2.56,15.12,15.12,0,0,0-.77-2.26c-.85.71-.36,1.32-.11,1.93.09.22.26.57.17.68C150.47,216.34,151.41,216.73,152.06,217.53Zm-8.9-3.76.26-.23-3.83-4.43-.35.31C140.46,211,141.42,212.69,143.16,213.77Zm-26-55.13-.22-.26-4.15,3.13A5.61,5.61,0,0,0,117.16,158.64Zm21.36,58,.25-.25a7.46,7.46,0,0,0-3.49-3.36l-.24.26Zm-33.42.46-3.71-4.61-.28.25C102.09,214.49,103.15,216.19,105.1,217.07ZM81.61,148.73l-.16-.27-5.1,2.89.23.39C78.56,151.25,80,149.85,81.61,148.73Zm81.66,3-.21-.26-5,3.19.17.27C160,154,162,153.44,163.27,151.73ZM202,145.37l.31.38,4.5-4.05-.33-.36Zm-66.28,8.55,4-3.29C137.19,151.05,136.26,151.8,135.7,153.92Zm-33-3.53.21.22,4.83-4.88-.24-.24ZM127.58,144l-.3-.31-3.72,4.18A12,12,0,0,0,127.58,144ZM246,140.66c1.54-1.37,2.87-4.27,2.67-5.61Zm-40.55,8.47-.17-.33c-1.91,0-3.13,1.26-4.42,2.37l.18.33Zm-54.13-7.71-.4-.28c-1,1.24-2.72,1.93-2.7,4Zm3.78-5-.29-.31-5,4.68.25.26Zm-20.62-6.78.49.28,2.56-4.51-.48-.27ZM67.38,189.14l0-.35c-1.82-.81-3.77,0-5.63-.39l0,.49ZM183,202.64l-3.34-3.56-.29.28C180.16,200.75,180.92,202.16,183,202.64ZM42.92,201.22l-2-2.11-.35.29,1.71,3.2ZM193.32,162l0-.39-5.92,1.09.11.48Zm-136.61-.63.42.35c1-1.4,2.09-2.79,3.13-4.18l-.45-.33Zm136,47.49.27-.44-4.69-2.91L188,206Zm3.2-44.71-.14-.59-4.63,1.17.1.44Zm-44.35-8.43c1-.67,1.91-1.22,2.75-1.82.12-.09.13-.42.08-.61a.52.52,0,0,0-.5-.11C153,153.87,151.82,154.23,151.54,155.76ZM88.68,186.19a15,15,0,0,0,2.73.87,28.65,28.65,0,0,0,3.59,0v-.31H91.32C91,185.86,90.48,185.72,88.68,186.19Zm101.09-4.06,4.58,1.11.07-.3A5.55,5.55,0,0,0,189.77,182.13ZM87.58,145.83l-.3-.37L83.1,149l.31.37ZM53.22,167l.54.39,2.48-3.34-.48-.36Zm95.36-10.95,3.5-3.2A4.65,4.65,0,0,0,148.58,156.09Zm5.52-12.92.32.28c1-1.11,2-2.21,2.92-3.31l-.28-.25C156.06,141,154.51,141.58,154.1,143.17ZM125,150.55l.56.44,2.77-3.87-.28-.2Zm44.45-2-3.84,1.39.16.42C167.06,150,168.58,150.18,169.41,148.53Zm71.12,10.79a12.78,12.78,0,0,0,5.36-3.49ZM65.75,185.83l0,.41c1.63,0,3.12,1.21,4.83.43l0-.35ZM167.26,194l1.18,4.48.39-.1C168,197.09,169.37,195.2,167.26,194Zm20.79-39.36-.21-.35-5.34,3,.2.34Zm-22.79,12.6c1.31.9,3.08.53,3.34-.6Zm23.62-11.12-.22-.4-4.49,2.94.27.4Zm4.35,36.08.19-.39L188.79,190l-.18.45ZM37.92,199.57l2.61,2C40,199,39.8,198.85,37.92,199.57Zm-4.33,9.48L34,209l-.36-4.4-.61.07Zm170.65-64.16c2.16-.57,3.13-1.58,3-2.86Zm-68,60.22.38-.35L134,201.08l-.46.33Zm45.34-10.17-.3.54,3.43,1.79.29-.56ZM30.76,198.4c1.29,0,1.76-.94,1.18-2.37l-1.12.63.27.16ZM222.3,149.72l.27.33,3.51-2.85-.34-.41Zm-69-6.12-2.47,2.11C152.72,145.55,153.65,144.62,153.33,143.6Zm-55.15,41-.2.45,4.72,2.15.16-.37Zm48.1,31.53.36-.21-1.84-3.87-.49.25ZM106.65,187.6l.2-.43a8.28,8.28,0,0,0-4.4-1.29Zm105.16,3.92,0-.21h-5.94v.21Zm-67.23-44.15c1.65,0,1.65,0,2-2.59Zm19.87,1.25.17.35,4.28-2.72-.26-.41ZM139.9,197.08l.56-.53L136.84,193l-.22.22Zm4.24,2.44.46-.38L141.9,196l-.4.34Zm-33.76-22.46c1.74.81,3.23.26,3.67-1Zm4.1,15.43a3.15,3.15,0,0,0-2.78-2.93Zm1.9-43.12.4.32,3-3.62-.32-.27Zm56.49-3.65-3.18,2C171.5,148.18,171.93,146.57,172.87,145.72Zm-129,38.16c1.54.43,2-.58,2.63-1.49l-.2-.28Zm9.87,30.91-.39.19,2,4.23.36-.17ZM195.07,152l.19.29,4.38-3.49-.22-.27Zm-76.72-22.64-.34-.22a6.67,6.67,0,0,0-2.09,3.26l.29.19ZM96.82,162.05l2.89-2.42C98.23,159.7,97.41,160.37,96.82,162.05Zm85.79,22.64c1.32,1.58,2.26,2,3.5,1.85Zm-51.7,21.1-2.63-1.73C129.18,206.08,130.08,206.63,130.91,205.79Zm16.14,5.85.3-.21-2.1-3.5-.38.25ZM84.29,184.79c-.39-1.31-1.21-1.39-2.7-.16ZM180,168.43l.08.3,2.52.15c-1.34.17-.84-1-1.12-1.76Zm-47-24-2.41,1.84A2.21,2.21,0,0,0,132.92,144.43Zm65.93,48.4c-.46-1.48-1.62-1.47-2.69-1.64l-.14.29ZM31.54,202.61v-3.09A2,2,0,0,0,31.54,202.61Zm151.1-4.31-.25.45,3,1.66.24-.44ZM33.14,175.43c1-1.09.61-2.92,2.19-3.65C34,172,33.06,173.63,33.14,175.43Zm124-3.75,0-.51-3.63-.7-.1.53Zm26.32-9.88.16.6,3-.89-.14-.48Zm66.06-53c.69-1,1.39-2,2.08-3l-.37-.24C249.9,106.19,250,107.67,249.49,108.78ZM157.4,146.57l-1.79,2.15.16.21,1.95-1.09Zm-47.46,45.3-1.39-2.18C108,191.33,108.26,191.69,109.94,191.87Zm62.13,7.38,2,3.44C174,201.31,173,199.54,172.07,199.25ZM58,187.51l0,.43,3.74-.18v-.25Zm181.11-62.33v.35c.4-.1.91-.09,1.18-.34.43-.39.88-1,0-1.6Zm-52.37,19-.17-.35-3.67,1.79.19.38Zm-12.36,32.1-.38.36,2.28,2.23.39-.4ZM112.78,149l-.35-.33-2.7,3.11.27.23Zm56.63-9.65c-1.71-.66-1.93.66-2.7,1l.17.31Zm-97.51,15-.34-.28L69,156.81l.31.27ZM173.36,153l.24.31,2.83-2.17-.31-.41Zm20.79-17-3.31,1,.12.33C191.88,136.54,193.53,137.79,194.15,135.9ZM148.33,208l.9,2.66C150.06,209.22,150.06,209.19,148.33,208ZM104,180.42l.18.45,3.6-1.66-.12-.28Zm97.79-12.12.19.53,2.56-.92-.15-.43ZM40.06,186.08l.13.63,2.58-.55-.1-.49Zm139.67-2.85,2.55.45.06-.48C181.56,183.11,180.86,182.19,179.73,183.23Zm14.46-5.85-.1.41c.58.82,1.32.8,2.21.09Zm49.68-54.22-.36-.22c-.53,1-1.06,2-1.6,3.06l.34.16ZM177,170.42l.07-.56-2.85-.32-.07.48Zm-38.52,30.71.46-.43-1.85-1.92-.31.28Zm-107-15.7-.23-.28-2.6,2.29.3.32ZM173.15,205l.26-.19-1.68-2.45-.46.33Zm19.52-51.62-.34-.53-2.1,1.53.24.37Zm-61.49,51,.12-.17,2.38,2.66.26-.25Zm-96.31-5.46,1.47-.53-1.24-1.43-.23.16Zm151.62-1.53c.67,1.45,1.64,1.19,2.61.94Zm-77.42-9.18-.39.49,2.06,1.49.26-.33ZM88.22,163.3,88,163l-2.48,2.07.29.35Zm99.63,12.55c-.81-1.12-1.52-1.75-2.87-1.44Zm43.27-34.57-.2-.24-2.75,2.4.21.24Zm-82.38-9.8.33.26,1.75-2.61-.3-.19Zm29.09,27.93.19.37,2.87-1.5-.2-.39Zm40.32,8-.1-.4-2.56.92.13.4Zm-42,14.71.26-.55-2.31-1.16-.15.28Zm71.74-71-.34-.17-1.48,2.84.36.18Zm-58.24,76.6.13-.26-3.21-1.74-.15.31ZM42.69,193l.05.46,2.4-.31,0-.42ZM186.1,203.22l.42-.45-1.45-1.44-.47.48Zm-32.19.84.34-.3-2-2.21-.28.25Zm33.34-67.31-.09-.33-2.83.74.13.43Z"/><path d="M90.48,208.28c-.54,0-.84.12-.8-.74a7.28,7.28,0,0,0-.84-2.55c-.35-.93-.72-1.84-1.09-2.76l.25-.17a7.71,7.71,0,0,1,1.33,1.28c1.55,2.4,2.93,4.92,4.55,7.27,2.58,3.74,5.31,7.38,8,11.07a5.49,5.49,0,0,1,.88,1.66l-1.57-1.45L101,223l-.67-.55-.2.2c.44.45.87.91,1.33,1.33.24.22.68.32.8.57a14.26,14.26,0,0,0,5.22,5.48c2.39,1.67,5.06,2.94,7.58,4.44a2.69,2.69,0,0,1,1,1.4c-2.94-1.17-5.94-2-8.91-3s-5.62-2.83-8.42-4.32a8.53,8.53,0,0,0,0,2.52c.27.75.93,1.35,1.24,2.24l-3.77-3.62-.14.15.69,1-.14.17-2.42-1.72-.16.12a30.61,30.61,0,0,1,1.66,3.09c.17.42,1.29.94.15,1.56,0,0,.19.4.31.61.25.42.51.84.76,1.27l-.36.24q-2.85-4.17-5.71-8.32l-.3.2c.82,2.86,3.2,4.87,4.41,7.52l-.32.3-5.1-5c.85,1.68,1.58,3.09,2.3,4.5l-.94-.73-1.56.38v.74c-.09-.08-.19-.12-.24-.19-2.22-3.29-4.38-6.62-6.7-9.85a7.92,7.92,0,0,0-2.3-1.51l-.32.19a15.31,15.31,0,0,0,.26,2c.78,3.08,1.66,6.14,2.41,9.23a33.89,33.89,0,0,1,.81,5.26c-.78-2.43-1.28-4.93-2.76-7.1s-2.62-4.29-4.12-6.36l.26,1.4-1-.24-3-7.43.39-.18.66,1.28c.07-1,.34-.84-2.3-3.87l.88-.7c-1.13-2.39-2.16-4.86-3.46-7.17-.54-.95-1.25-1.73-1.13-3.19.78,1.21,1.44,2.17,2,3.16q2.88,4.72,5.71,9.49c.62,1,1.28,1.93,2.62,1.94.05,0,.16-.11.16-.15a20.86,20.86,0,0,0-2.85-7.66,17.8,17.8,0,0,1-1.35-3q-1.31-3.08-2.58-6.17a6.18,6.18,0,0,1-.2-1l.34-.13c.67,1.33,1.33,2.66,2,4,1,1.94,2,3.9,3,5.81.7,1.27.75,1.24,1.7,1.2L78,212.69c2.41,5,5.77,9.43,9,13.88l.27-.16-8.64-15,.28-.19,4,5.73.42-.24-1.31-3.36a11.44,11.44,0,0,0,4.06,4.06l-2-4.55.24-.15a11.55,11.55,0,0,1,1,1.46,21.12,21.12,0,0,0,4.21,5.6c1.69,1.68,3,3.71,4.81,5.31a39.56,39.56,0,0,0,4.94,3.38l1.41-1.05c-2.77-4.46-5.54-8.92-8.29-13.33l.7.37a1.6,1.6,0,0,0-.09-.4c-.76-1.52-1.55-3-2.29-4.56a5.56,5.56,0,0,1-.28-1.25,32.59,32.59,0,0,1,2,3.14,28.35,28.35,0,0,0,4.35,7.08c.68.73,1.27,1.54,1.9,2.32l.37-.18a3.78,3.78,0,0,0-.27-1.1c-.49-.78-1.06-1.5-1.59-2.24-1.34-1.87-2.81-3.67-4-5.64-1-1.76-1.75-3.73-2.67-5.58a15.07,15.07,0,0,0-1.27-1.84l-.27.17c.08.21.15.42.23.62C89.65,206.09,90.06,207.19,90.48,208.28ZM87.1,221c.22.26.41.53.64.78.52.57.89,1.43,2.12,1.16-1.07-1.47-1.68-3.13-3.47-4,.28.76.52,1.41.75,2.06l-1.94-2.82c.46,1.44.62,2.7,1.85,3.66Zm-12.4-.07A58.77,58.77,0,0,0,81,233.66C81,228.24,77.46,224.77,74.7,220.9Zm9.8,6.25-.28.2c1.33,2.09,2.64,4.19,4,6.26.34.52.58,1.44,1.44.93.16-.1,0-1.26-.38-1.69C87.74,230.9,86.1,229,84.5,227.15Zm-3.1-2.82.31-.22-2.53-3.63C78.84,222.23,79.7,223.53,81.4,224.33Zm-2.56,1.5c.2-2.26-.2-2.9-2-3.45Zm26.45,3.88-3.39-3.39C102.77,228,103.61,229.25,105.29,229.71Zm-3.68-1.87.34-.28c-.64-1-1-2.17-2-2.89l-.36.25ZM98,221.5c.48,1,.51,2.34,2,2.57Zm-9.52,4.24.42-.28-1.49-2.33-.4.26Z"/><path d="M63.45,214.38c.9,1.66,1.8,3.32,2.75,5.05.87-1.77-1.18-7-3.13-8.55.4,0,.91-.15,1.17,0A3.85,3.85,0,0,1,65,212.1c.23.4.44.81.75,1.38l.11-1.25.28-.08,2.46,6,.39-.12-.86-7.26c1.28,5.49,2.24,11.05,5.21,16.15l-.14-1.78c2.41,4.78,3.4,10,4.36,15.15l-1.32-3-.36.07,1,5.08-.16,0c-1.43-3.81-2.78-7.66-4.3-11.44s-3.19-7.44-4.9-11.13c-.24,3,1.87,5.54,1.93,8.76-2.19-4.87-4.28-9.54-6.37-14.2Zm7.21,10.84.25-.09-1.28-3.57-.35.14Zm4.47,9.88.42-.14L75,233l-.5.16Z"/><path d="M60.74,217.34c-.66-.51-1.1-1-.12-1.93l3,5.49.09-.06-2-7.74.13,0,4,10.85-1.68-2.65-.33.21a39.87,39.87,0,0,0,4.91,7.83l-.29.27-2.61-2.53,2.47,5.9-.24.12c-.7-1.37-1.46-2.72-2.09-4.13-1.14-2.54-2.18-5.13-3.32-7.68-.6-1.34-1.31-2.64-2-4Z"/><path d="M69.28,164l-1,1.55.92.6a4.74,4.74,0,0,0-1.55.62c-3.14,3.05-6.19,6.19-8.15,10.18-.94,1.92-1.86,3.86-2.78,5.79l-.28-.1c.59-1.51,1.2-3,1.76-4.51.51-1.35.95-2.72,1.43-4.08a1.39,1.39,0,0,1,.32-.48c2.52-2.71,5.07-5.39,7.56-8.14C68.68,164.13,68.62,164.08,69.28,164Z"/><path class="cls-1" d="M170.47,128.86a33.39,33.39,0,0,0-3.44,4c-1.06,1.71-2.85,2.57-4.06,4a10.28,10.28,0,0,0-.86,1.38l-.62-.55a20.19,20.19,0,0,1,2.41-3.06c1.54-1.34,2.49-3.1,3.77-4.62a10.06,10.06,0,0,1,2.08-1.69c.44-.29.9-.27.72.49Z"/><path d="M83.56,181.71,83,180.52c1.82-1.18,3.64-2.37,5.47-3.52.17-.1.48,0,.72.05l.9.09a13.89,13.89,0,0,1-1.55,2.13c-.34.32-1.1.15-1.58.39a23.42,23.42,0,0,0-2,1.3C84.55,181.23,84.09,181.43,83.56,181.71Z"/><path d="M257,97.5V95.86c1.65-1.51,4.6-9.4,3.83-10.14l1.4-1.5C262.41,86,258.69,95.58,257,97.5Z"/><path d="M217.71,132.88l8.48-6.94-1.11.35L225,126l2.8-1.08.23.4L218,133.14Z"/><path d="M72.69,179.86c-1.43.6-2.86,1.21-4.3,1.8-.47.2-1,.31-1.45.55-1,.52-1.92,1.07-3,.24l8.6-2.94Z"/><path class="cls-1" d="M260.85,154.67a8.78,8.78,0,0,0-1.06.64c-1.06.85-3.61,2.65-5.24,2.43l6.12-3.87c.06.33.1.58.15.84Z"/><path d="M73.55,155.07a9.94,9.94,0,0,1-.47.92c-1.37,2.22-2.75,4.43-4.24,6.57A17.66,17.66,0,0,1,73.55,155.07Z"/><path d="M94.91,177.36l5.42-3.22A7.65,7.65,0,0,1,94.91,177.36Z"/><path d="M100.79,169.37c-.52.36-1,.74-1.54,1.07a10.19,10.19,0,0,1-1.11.51l-.24-.43L101,168l.32.22-.56,1.19Z"/><path d="M137.13,122.08v0c-.07-.09-.23-.22-.21-.25.63-1.09,1.27-2.16,1.92-3.23l.39.21c-.44,1-.86,2.09-1.36,3.11C137.82,122.09,137.39,122,137.13,122.08Z"/><path d="M91,179.28c.06-.29,0-.7.19-.87,1.06-1,2.18-2,3.27-3l.27.24-3.48,3.68Z"/><path d="M138.46,222.7l3.82,3.84C141,226.31,138.56,224,138.46,222.7Z"/><path d="M246.37,103.17l-.13,1.07.26.07c.23-.69.47-1.38.71-2.07.32,1.48,0,2.09-1.71,2.91l.65-2.06Z"/><path d="M99.57,216.21l-2.83-2,.45-.53,2.35,2.55Z"/><path d="M110.38,173.66,107,175.74c.25-.92,2.29-2,3.41-2.05Z"/><path d="M64.78,165.51l.27.67-2.19,2.47,0,0a8.66,8.66,0,0,1,.24-1.39c1.22,0,1.13-1.17,1.68-1.74Z"/><path d="M196.24,113.55c-.36-1,.18-1.84,1.67-2.19l-1.71,2.17S196.24,113.55,196.24,113.55Z"/><path d="M84.69,139.57l-2.56,2.13-.29-.36,2.57-2.13Z"/><path d="M54.48,170.3l-1.76,2-.41-.37,1.8-1.93Z"/><path d="M115.22,171.51,117,170C117.27,170.86,116.75,171.37,115.22,171.51Z"/><path d="M110.4,173.69l3.06-1.77.23.48-3.31,1.26Z"/><path d="M53.6,192.06h3.95l0,.49L53.63,192Z"/><path class="cls-1" d="M98.18,206.36a14.43,14.43,0,0,0-1.47-1.64c-2.78-2.28-5.55-4.58-8.41-6.76-2.1-1.61-4.34-3-6.43-4.73L85.43,195l.13-.18-1.85-1.42.15-.33,3.76,1.34.15-.36-7.59-3.18c0-.07.06-.18.09-.18,2.64,0,5.42-.94,7.7,1.26,1.08,1,2.2,2,3.3,3.06l.3-.31-4-3.73c4.92.78,8.44,4.36,13,5.83v.35l.53-.49c-1.81-1.36-3.49-2.59-5.12-3.9-.37-.29-.43-1-.8-1.27a11.82,11.82,0,0,0-2-1.21,7,7,0,0,1-1.12-.58,10.92,10.92,0,0,1,4.23,1.79c1.34.88,2.76,2.12,4.2,2.21a19.89,19.89,0,0,1,3.22.9,2.09,2.09,0,0,1,1.76,1.94,27.77,27.77,0,0,0,3.39,9.79,49.19,49.19,0,0,0,3.48,5,39.35,39.35,0,0,1-6.55-15.8c2.66.79,2.66.79,4.65,3.33l-.54-1.62.51-.16-2-3.17.29-.22,1.08.36.08-.12-1.66-1.31c1.76-.12,2.9.66,3.26,2a1.65,1.65,0,0,0,.16.57c2.33,2.92,4.72,5.78,7,8.75a24,24,0,0,1,1.89,3.55,2,2,0,0,0,.75.91l-.36-1.26.2-.14c.36.42.72.86,1.09,1.27.69.78,1.39,1.54,2.08,2.32a2.66,2.66,0,0,1,.56.76,73.31,73.31,0,0,0,3.72,7.28,41.21,41.21,0,0,0,6.54,9.1,4.47,4.47,0,0,1,.94,1.5c-1-.54-2.07-1-3.06-1.62a5.9,5.9,0,0,0-2-.73A5.39,5.39,0,0,1,127,224l-.62-1.19-.42.21,1.37,2.8c-1.87-.58-2.85-2.09-3.93-3.47s-2.11-2.86-3.15-4.3l-.31.21,3.62,5.29c-2.58-1.54-5.62-2.16-7.83-4.44a103.43,103.43,0,0,1-10.9-14,8.72,8.72,0,0,0-1.24-1.67c2.45,5.08,5.89,9.5,9.36,13.92l-.2.26c-1.2-.83-2.38-1.69-3.6-2.49-2.11-1.39-2.78-3.73-3.87-5.79-1.61-3.05-3.15-6.15-4.78-9.19a5.52,5.52,0,0,0-1.41-1.6,6.54,6.54,0,0,0-1.51-.63,22.39,22.39,0,0,1,2.87,3.29c1.82,3.22,3.44,6.56,5.13,9.85a6.64,6.64,0,0,1,.27,1.14c-1.43-1.21-2.62-2.3-3.9-3.27s-2.52-1.7-3.78-2.55Z"/><path class="cls-1" d="M135,175.42l-1,.77a35.88,35.88,0,0,1,4.3-.32,29.33,29.33,0,0,1,11.94,3.5,22,22,0,0,1,8.67,8.35c2.16,3.43,4.27,6.89,6.23,10.43a23.06,23.06,0,0,1,2.11,5.32c1.07,4.16,1.95,8.38,2.89,12.58a5.34,5.34,0,0,1,0,1.06l-.33.23c-1-1.2-2-2.36-2.87-3.58-1.2-1.59-2.34-3.22-3.51-4.82s-2.26-3.08-3.42-4.6c-.6-.78-1.33-1.45-1.89-2.25-1.08-1.55-2.08-3.16-3.13-4.74a1.48,1.48,0,0,0-.89-.68l.42,1.65c-.57-.42-.88-.62-1.16-.85q-6-5-12.08-9.93c-1.32-1.08-2.59-2.22-3.76-3.22l.84,1.63-.19.3c-.82-.47-1.65-.92-2.46-1.41s-1.58-1.05-2.43-1.48c-.27-.14-.71,0-.89-.2a9.8,9.8,0,0,0-1.73-1.24,21.29,21.29,0,0,0-8-1.71c-1.2,0-1.63-.85-2.16-1.62-.06-.08.28-.62.52-.71a2.23,2.23,0,0,1,.88,0,6.25,6.25,0,0,1,1.15-.86c2.58-1.11,5.19-.34,7.78-.06,1.24.13,2.46.41,3.69.62l.07-.43-9.74-1.52c.49-.32.86-.73,1.27-.79,1.15-.14,2.23-.35,3.38.51.66.5,1.93.22,2.92.23C133.21,175.56,134,175.48,135,175.42Zm24.58,21-.43.19a36.35,36.35,0,0,0-13.89-13.13c6.11,4.26,11.39,9.29,15.05,15.83l-.42-1.95.57-.21q3.17,5.72,6.34,11.41l.37-.19a4.66,4.66,0,0,0-.16-.49,25,25,0,0,1-2.09-5.13,26.93,26.93,0,0,0-1.72-4l-.33.15-.06.8-5-7.4-.46.27Zm-2.63,2c-.58-2.37-1.7-3.85-2.87-4.23Zm-17.82-14.74-.24.29,2.93,2.49.21-.26Z"/><path class="cls-1" d="M170.16,185.92c-1.85-1.85-3.7-3.7-5.56-5.53a32.91,32.91,0,0,0-2.92-2.59c4.5,5.51,8.23,11.65,13.6,16.48l-.2.23c-.34-.25-.67-.52-1-.75a4.05,4.05,0,0,0-.7-.32c.06.27,0,.66.19.79,1.06.83,2.14,1.65,3.27,2.38a4,4,0,0,1,1.62,3.12c0,.15-.34.25-.23.17l1.83,3-9.45-5.78.22-.38,3.24,1.68.1-.18-3.81-2.64c-.23-.16-.62-.35-.62-.52,0-2.14-2-3.29-2.45-5.22a10.94,10.94,0,0,0-2.2-3.62,9.2,9.2,0,0,1,.75,2c.21,1.36-.38,1.78-1.79,1.17.42.61.69,1.07,1,1.48,1.32,1.57,1.23,3.57,1.61,5.42.45,2.19.84,4.4,1.14,6.63-1.68-5.26-4.79-9.79-7.33-14.63l.73.48c0-.22,0-.36-.07-.42-1.9-2.24-3.55-4.78-5.78-6.63a29.85,29.85,0,0,0-15.25-6.62c-2.73-.37-5.48-.58-8.21-.9a3.21,3.21,0,0,1-1.7-.8,47.65,47.65,0,0,1,6.41-.34,65,65,0,0,1,7.15,1.19,27.71,27.71,0,0,1,4.28.85c2.7.92,5.33,2,8,3.08a2.28,2.28,0,0,0,1.11.23c-4.05-2.6-8.56-4.19-12.93-6.08l-.18.4,2.33,1,0,.14-10.5-2.06c1.33-.87,4.45-.85,5.1.06,1.46-1.19,3.22-.75,4.89-.86.19,0,.39.06.59.06.82,0,1.61-.21,2.17.8.45.82,1.47.86,2.39.92a34.92,34.92,0,0,1,5.8.82L155,174v.12a17.94,17.94,0,0,1,3.22.37,24.37,24.37,0,0,1,4.87,1.9c1.87,1,3.54,2.42,5.35,3.56,3.53,2.22,7.09,4.39,10.66,6.54,1.62,1,3.28,1.89,4.91,2.85a2.88,2.88,0,0,1,.93.88c-1.54-.62-3.5-.47-4.17-2.19l-2.85-1,6,7.94-.25.27c-3.24-1.92-7-3-9.17-6.84l3.44,1.4.1-.14-1.92-1.81c-.69.48-2.71-.75-3.67-2.25-.54,0-1,0-1.46.09a5,5,0,0,0-.81.25Z"/><path class="cls-1" d="M136.58,170l-.56-.88c.92-.25,1.42-1.5,2.64-.93.1,0,.39-.23.55-.4,1.76-1.86,4.07-2.71,6.44-3.45a4.65,4.65,0,0,0,.85-.39c1.75-.94,3.4-2.34,5.27-2.74,2.84-.62,4.59-3,7.29-3.77s4.56-2.79,6.54-4.58c2.32-2.1,5.23-3,8-4.17,2.3-1,4.66-1.8,7-2.68a1.57,1.57,0,0,1,.44,0l.2.3a32.47,32.47,0,0,1-2.89,2.37c-2.84,1.83-5.77,3.51-8.6,5.36-2,1.28-3.78,2.8-5.75,4.07a20.26,20.26,0,0,1-4.28,1.93l1.56-.09.1.2c-1.88,1.43-3.83,2.77-5.62,4.32-2.32,2-5.33,2.07-8,3.12a10.83,10.83,0,0,1-1.32.66c-1.15.28-2.32.47-3.49.68Z"/><path class="cls-1" d="M173.94,158.41a9.22,9.22,0,0,1,3.11-3.21q7.32-4.95,14.63-9.92a7.93,7.93,0,0,0,.92-.82l-.2-.26-5.74,3.93,0-.74-8,3.68-.17-.27c2.72-1.73,5.55-3.29,8.11-5.21s5.71-2.68,8.73-3.61l-.05-.32-2.48.27c7-2.09,13.85-4.34,20.51-7l-9.48,7.79-.17-.69a12,12,0,0,1-1.52,1.39,11.63,11.63,0,0,1-1.72.76,5.52,5.52,0,0,0-1.21.62c-1.48,1.21-2.93,2.47-4.4,3.72l-.27-.18.64.18c-1.8,2.15-4.39,3-6.47,4.56l-.18-.24L194,149l-.11-.25a8.87,8.87,0,0,0-.89.39c-1.9,1.09-3.74,2.3-5.7,3.24a38.81,38.81,0,0,1-5.05,1.79,16.67,16.67,0,0,0-7,3.68,3.67,3.67,0,0,1-.81.5A2.25,2.25,0,0,1,173.94,158.41Z"/><path class="cls-1" d="M114.35,188.69l4.06,2.27.14-.22-5.65-4.17.16-.28a35.39,35.39,0,0,1,4,1.21,32.2,32.2,0,0,1,3.46,1.95l-.65-1.39.32-.14c-1.49-.74-3-1.48-4.47-2.19a2.73,2.73,0,0,0-1-.33,5.06,5.06,0,0,1-4.07-1.79,1.35,1.35,0,0,0-1.21-.18c-1.22.44-2-.12-3-1l3-1.19.12.24-.74,1.07c2.41-.66,4.59.13,6.79.75l.09-.34-2.33-.89.12-.33,5.37,2-.1.33-1.79-.54-.1.21A15.77,15.77,0,0,0,119,185a14.45,14.45,0,0,0,2.35.62c0-1,.63-.76,1.19-.74a9.36,9.36,0,0,1,5.21,2.2,68.46,68.46,0,0,1,5.15,4.64.76.76,0,0,1,.2.67l-7.39-3.76-.24.27,4.46,5.63-1.88.16c2.21.22,2.1,2.16,2.84,3.43l-.27.3-4.4-3.3.7-.5c-3.2-1.31-4.79-3.86-5.59-7.06l-.4.13a6.26,6.26,0,0,1,.14.73c0,.51,1.07,1.08-.07,1.53l3.72,5.57c-1.52.32-1.54-.71-1.85-1.42s-.6-1.46-.9-2.19l-.34.06.64,3.1c-1.13-.72-2.07-1.34-3-1.92-1.15-.71-2.34-1.36-3.47-2.09C114.93,190.56,114.14,190,114.35,188.69Z"/><path class="cls-1" d="M184,176c2.43,1.92,5.59,2,8.32,3.12-.47,1.05-1.22,1.06-2.15.76-2.23-.71-4.49-1.37-6.73-2.05a3.43,3.43,0,0,0-.56-.06l-.15.36,5.9,2.93a14,14,0,0,1-6.61-1.25,26.33,26.33,0,0,1-7.89-4.89c-.94-.87-1.89-1.74-2.85-2.6a10.36,10.36,0,0,0-1.67-1.27c1.92,3.23,3.34,6.78,6.58,9.08-4.42-1.35-7.32-4.91-11.29-7.14,1.44-1.22,2.56-2.71,4-3.26a4.62,4.62,0,0,1,4.88.69l-2.34-.26-.08.42,4.14.93-.24,1c1.75-1.25,2.54-1.08,4.45,0,2.7,1.52,5.54,2.81,8.32,4.19a1.72,1.72,0,0,1,.87.67l-4.8-1.73Z"/><path class="cls-1" d="M37.93,202.54l-1.7-1.28L37.3,201l-.42-.64c.15,0,.24-.1.28-.08,1.07.57,2.17,1.1,3.2,1.74a5,5,0,0,1,1.22,1.28,35.38,35.38,0,0,0,2.5,3.24l-1.68-3.16.44-.23c.59,1.1,1.15,2.22,1.8,3.29a24.78,24.78,0,0,0,2,3c.65.79,1.57,1.37,2.21,2.16a3.49,3.49,0,0,1,.62,1.77c.33,3.29,2,6.06,3.6,8.79a29.5,29.5,0,0,0,2.62,3.22l0,0c-.3,0-.73.2-.88.06a14,14,0,0,1-1.92-2.09c-1.46-2.15-2.85-4.35-4.52-6.41l4,7.33c-2-.68-2.59-2.24-3.51-3.66l.8-.2c0-.11-.06-.24-.14-.31a21.48,21.48,0,0,1-4.67-7.4c-.26-.66-1-1.13-1.47-1.73a40,40,0,0,1-4.68-7.42,5.13,5.13,0,0,0-.82-1Z"/><path class="cls-1" d="M110.71,180.69c1.09-.29,2.27-1,3.25-.79,3.25.72,6.71.61,9.85,2.22l-.73-.82.12-.32c1.5.45,3,.85,4.51,1.36,3,1,5.17,3.17,7.07,5.64.9,1.16,2,2.19,2.94,3.3a7.48,7.48,0,0,1,.65.91l-.23.21-5.54-4.2-.25.31,2.14,2.34-.4.43c-1.28-1.12-2.53-2.27-3.85-3.35s-2.73-2.16-4.17-3.28l-.16.51c-.8-.21-1.63-.45-2.47-.65a2.48,2.48,0,0,0-1.29-.16c-1.58.61-2.59-.38-3.77-1.11-2.32-1.42-4.75-2.58-7.62-2.16Z"/><path class="cls-1" d="M164,160.67l4-2c.18-.35.28-.91.59-1.09,3.82-2.17,7.66-4.28,11.51-6.4a.7.7,0,0,1,.6,0,13.43,13.43,0,0,1-5.78,4.25l2-1.74-.19-.25c-1.38,1-2.74,2-4.14,2.91-1,.64-2,1.17-2.91,1.81-.27.18-.39.57-.6.85a21.26,21.26,0,0,0-1.58,2.32l4.92-2.81-.72-.82,1.21-.25.35,1.81,1.51.12-1.31,1.92.16.11L174,161c0,.07.11.13.1.18-.2,1.3-1.49,1.26-2.27,1.52a33.62,33.62,0,0,1-5,.89,8.33,8.33,0,0,1-.88,0l1-.81-3.55.57-.07-.24,2.06-1-.06-.17-8.4,3.09-.22-.46,10.84-7.54.16.16Z"/><path class="cls-1" d="M189.87,160.65l.85-1.36c-1.58.82-3,2.14-5.11,1.25l4.87-2.57c1.75.92,2.45-.93,3.65-1.43a28.84,28.84,0,0,0,3.68-2c2.71-1.63,5.38-3.3,8.16-5v.78l4.69-3.36.29.38-3.72,3.22c-1.31,1.14-2.62,2.29-3.95,3.43-.59.51-1.19,1-1.82,1.5-1.36,1-2.18,2.5-3.72,3.39a9.83,9.83,0,0,1-4.26,1.56C192.36,160.56,191.22,160.59,189.87,160.65Z"/><path class="cls-1" d="M228.27,130.48c0,.34.16.77,0,1a10.93,10.93,0,0,1-5,4.27c-2.35.8-3.58,2.88-5.58,4a20.75,20.75,0,0,0-5.18,4.69,10.34,10.34,0,0,1-6.82,3.71l-.23-.32,4.07-3.16-.21-.31c-2.47,1.87-4.79,4-7.76,4.48,0,.58.06,1-.11,1.19a40,40,0,0,1-9.17,6,4.35,4.35,0,0,1-.54,0c.88-.68,1.57-1.21,2.25-1.76,2.13-1.74,4.19-3.6,6.41-5.23,2.47-1.8,5.08-3.4,7.63-5.08a9.67,9.67,0,0,1,1.63-1,20.8,20.8,0,0,0,3.22-1.15c2.06-1.28,4-2.72,6-4.16,2.79-2,5.53-4.14,8.28-6.22.42-.32.79-.67,1.19-1Z"/><path class="cls-1" d="M170.76,148.82c2.48-3.52,12-8.35,13.91-7.14l-1.62,1.53a5,5,0,0,0,.88-.27,46.76,46.76,0,0,1,4.57-2.57c2.42-1,4.94-1.83,7.42-2.71a6.49,6.49,0,0,1,1.17-.19l.14.28c-.95.6-1.92,1.18-2.86,1.81-3.72,2.48-8.05,3.59-12.12,5.27-3.41,1.41-6.91,2.59-10.38,3.86A5.34,5.34,0,0,1,170.76,148.82Z"/><path class="cls-1" d="M167.43,169.45c-1.12,1-2.09,1.9-3.15,2.72-.23.19-.75.11-1.1,0-3-.83-6-1.73-9.05-2.53a32.19,32.19,0,0,0-3.29-.5l-3.37-.53v-.33c.61-.09,1.22-.19,1.83-.27l7.27-1c.08,0,.2-.08.23-.05,1.56,1.44,3.57.63,5.56,1l-2.56,1.26.11.26c1.05-.35,2.08-.74,3.13-1.05s2.27-.65,3.12.66C166.31,169.36,166.87,169.32,167.43,169.45Z"/><path class="cls-1" d="M140.61,135c.37-.62.71-1.26,1.11-1.85a2.28,2.28,0,0,0,.56-1.75c-.06-.68.82-1.57,1.47-2.17,1.29-1.23,2.71-2.32,4.11-3.5l-1.3-.07c1.84-1.41,3.2-3.19,5.57-3.78-1.35,6.27-5.28,10.39-10.33,13.65l5.55-5.2-.28-.31-6.18,5.19Z"/><path class="cls-1" d="M243.83,131.39l-1,.12,1.5-2.49-.64-.17q2.55-6,5.11-12l.23.06.07.77.28.06q2.22-6,4.46-12c.12,3.57.1,7-2.14,10.1a51.89,51.89,0,0,0-2.94,4.78c-1.23,2.14-2.4,4.3-3.55,6.48a7.3,7.3,0,0,0-.43,1.44l.28.24a4.65,4.65,0,0,0,.94-.81c1.15-1.73,2.27-3.5,3.47-5.21-1.64,3.07-3,6.34-5.66,8.74Z"/><path class="cls-1" d="M35.69,180.71l1.39.48,3.1-3.95-.2,2.82.26,0,.62-2.51.34.08L41,179.39l.1,0,.94-2.42a13.4,13.4,0,0,1,2.15,2.5c.18.34-.4,1.36-.89,1.71a29.25,29.25,0,0,1-3.92,2.25c-1.47.74-3,1.38-4.5,2.06l-.2-.25,4.53-3.69L39,181.2l-7.15,4.73-.14-.06c1-1.16,1.93-2.32,2.87-3.5.43-.54.8-1.13,1.19-1.69Z"/><path class="cls-1" d="M243.83,131.39l-.06,0,.67-.21A39.3,39.3,0,0,1,238,142.05l0,0a5.77,5.77,0,0,1-4.26,2c.48-.58.86-1.11,1.3-1.59.83-.89,1.71-1.73,2.52-2.64.63-.69,1.64-1.43,1.67-2.18.05-1.38,1-2.09,1.61-3A23.21,23.21,0,0,1,243.83,131.39Z"/><path class="cls-1" d="M39.59,175.81a2.7,2.7,0,0,1-1.7,3c-.86.2-1.44.39-1.65,1.31-.05.22-.36.39-.55.58l0,0c-1.09.83-2.19,1.65-3.25,2.51-.87.7-1.68,1.46-2.52,2.19l-.25-.17a12.9,12.9,0,0,1,.7-1.39c1-1.51,2-3,3-4.49a1.05,1.05,0,0,0-.08-.82,2.79,2.79,0,0,1,.57-2.94c.16,1,.27,1.81.43,2.61.06.28.18.72.36.77s.57-.16.82-.32c.42-.28.81-.6,1-.74.5-.85.88-1.52,1.29-2.17a5.27,5.27,0,0,1,.59.29l.7-1,.58.89Z"/><path class="cls-1" d="M121.12,136.64c-2,4.22-5.65,7-8.52,10.44l-.35-.24,1.16-1.9-.15-.11-2.51,3.35-.82-.93-1.49,1.44-.25-.25c1-2.5,3-4.06,4.93-5.8l-2.62,3.64.25.18a14.9,14.9,0,0,1,1.44-1.72,5.91,5.91,0,0,1,1.29-.61c.29-.14.72-.27.79-.5.62-1.93,2.48-2.78,3.65-4.22A22.5,22.5,0,0,1,121.12,136.64Z"/><path class="cls-1" d="M150.2,147.36c-1.74,4.48-5.57,5.46-9.61,6.06l-.3-.38c.45-.38.88-.77,1.34-1.13s1-.77,1.53-1.17l.35.55C146.36,147.74,148,147.68,150.2,147.36Z"/><path class="cls-1" d="M238,142.05a13.21,13.21,0,0,0,2.1-1.74,32.53,32.53,0,0,1,3.63-3.8c1.16-1,1.83-2.62,2.91-4.24,0,.5.1.83,0,1-1.9,2.59-3.83,5.16-5.74,7.74-.26.35-.51.71-.78,1.1l-.72-.25c.14.34.34.6.28.74a5.18,5.18,0,0,1-.88,1.64c-1.66,1.68-3.4,3.29-5.1,4.93l-.27-.26,2.88-3-.21-.21L233.52,148l-.23-.26c1.58-1.56,3.19-3.11,4.73-4.71.18-.19,0-.69,0-1Z"/><path class="cls-1" d="M181.61,165.87a4.38,4.38,0,0,1-4.69,2.55c-1.56-.16-3.13-.25-4.74-.37C173.13,165.85,178.74,164.62,181.61,165.87Z"/><path class="cls-1" d="M99.66,181.23l-.3.8,3.82,1.8c-1.28,1.31-4.55.49-5.09-1-2.33,1.5-4.56-.26-7.08,0C92.31,181.58,97.43,180.73,99.66,181.23Z"/><path class="cls-1" d="M191,170.69c-2,1.63-4.12,1.44-6.24,1.08-1.61-.28-3.24-.44-4.84-.74a2.72,2.72,0,0,1-1.41-1A35.85,35.85,0,0,1,191,170.69Z"/><path class="cls-1" d="M211.43,150.67c-1.07.56-2.15,1.11-3.2,1.69a32.38,32.38,0,0,1-3.14,1.66c1.41-1.19,2.8-2.42,4.25-3.55.32-.25.95-.06,1.35-.26a9.58,9.58,0,0,0,2.09-1.35c1.7-1.54,3.25-3.26,5-4.7a13.77,13.77,0,0,1,3.21-1.44l.24.3a32.16,32.16,0,0,1-3.11,3.07c-2.19,1.63-4.5,3.09-6.76,4.62Z"/><path class="cls-1" d="M220,155.79l8.69-5.25-.15-.38-1.18.21-.18-.25c2.49-2,4.82-4.19,7.88-5.59C234.41,147.23,223.39,155.52,220,155.79Z"/><path class="cls-1" d="M44.79,203.79l1.76,1.84.64-.8-.92-1.54-.88-3.81c1.73,1.12,2.13,2.73,2.48,4.26s.29,3.22.59,4.79a11.35,11.35,0,0,0,1.12,2.5l-.38.24-5-6.93Z"/><path class="cls-1" d="M72.45,187.38h5.28l0,.25-1.4.77c2.93.07,5.87-.71,8.36,1.34A15.57,15.57,0,0,1,72.45,187.38Z"/><path class="cls-1" d="M198,196.5,215.2,199c-2,1.2-4.24.92-6.37.47-3.23-.68-6.42-1.55-9.62-2.38A5.94,5.94,0,0,1,198,196.5Z"/><path class="cls-1" d="M143.28,196.29l-8.61-9.62.17-.21c1.46,1,2.93,1.95,4.38,2.93.14.09.22.25.36.31C142.25,191,143,193.48,143.28,196.29Z"/><path class="cls-1" d="M211.39,150.71l1.1-.32.2.33c-1.11.91-2.2,1.85-3.34,2.72-2.08,1.59-4.1,3.28-6.32,4.65a18.24,18.24,0,0,1-4.22,1.43l-.16-.32c2.2-1.43,4.4-2.88,6.62-4.29,1.93-1.24,3.89-2.44,5.82-3.67.16-.11.23-.38.34-.57Z"/><path class="cls-1" d="M104.51,194.24l-11-4.92.18-.43a40.26,40.26,0,0,1,8.53,3.49l.17-.26c-.56-.33-1.13-.64-1.68-1A9.55,9.55,0,0,1,99,189.87c1,.18,2,.33,3,.55C104.24,191,104.71,191.64,104.51,194.24Z"/><path class="cls-1" d="M64.81,165.54c-.55.57-.46,1.76-1.68,1.74a8.66,8.66,0,0,0-.24,1.39,3.29,3.29,0,0,0-1.11.47c-1.37,1.38-2.67,2.81-4.1,4.14.6-2.25,2.72-3.32,4-5l-.34-.31-.47,1-.28-.23a2.2,2.2,0,0,1,.32-.63,3.85,3.85,0,0,0,1.32-2.4c.15-.91,1.19-1.75,2-2.46a28.54,28.54,0,0,1,2.77-2Z"/><path class="cls-1" d="M127.05,198.24l-.23-1.19c4.73,3.13,7.85,7.38,10.91,11.67-.75-.57-1.54-1.11-2.25-1.73a29.67,29.67,0,0,1-2.13-2.07c-2.12-2.22-4.22-4.47-6.33-6.7Z"/><path class="cls-1" d="M159.88,213.33a69.37,69.37,0,0,1-11.08-13.81C150.67,200.63,158.51,210.35,159.88,213.33Z"/><path class="cls-1" d="M96.06,159.71a1.38,1.38,0,0,1,.24-.41c2.59-2.38,5.16-4.79,7.81-7.11a26.57,26.57,0,0,1,3.11-2c0,.36,0,.67-.07.78-.82.79-1.67,1.53-2.52,2.29l-3.19,2.86c-1.26,1.14-2.48,2.33-3.78,3.43a5.09,5.09,0,0,1-1.49.58Z"/><path class="cls-1" d="M146.23,142.08c2.46-4.38,6.14-7.57,10.18-10.4l.29.29-10,10.47Z"/><path class="cls-1" d="M187.65,168.91l9.84-1.84.09.31a2.15,2.15,0,0,1-.32.29,2.3,2.3,0,0,1-.45.12l.25.25c-.25.36-.43.87-.78,1.06C193.41,170.68,190.54,169.9,187.65,168.91Z"/><path class="cls-1" d="M148.6,194.05c3.32,3,7.09,5.42,8.77,9.95a8.88,8.88,0,0,1-.91-.65c-2.36-2.26-4.7-4.54-7.07-6.78A2.59,2.59,0,0,1,148.6,194.05Z"/><path class="cls-1" d="M45.71,177.17l2-5.56.82.73,2.27-3.71-1,.58-.27-.24,2.08-2.57c1.12,3.38-1.77,5-2.8,7.31a23.82,23.82,0,0,1-2.59,3.74Z"/><path class="cls-1" d="M184.9,166.14l-.76.53s0,.07,0,0h7.75l.06.45-3.51,1a5.87,5.87,0,0,0-1.48.4c-1.17.65-2.25.13-3.34-.17-.13,0-.17-.44-.26-.72l-.82.25c-.1-.1-.2-.19-.19-.2.17-.26.36-.51.58-.8l-.28-.63,2.18-.45Z"/><path class="cls-1" d="M44.69,178.65a2.51,2.51,0,0,1-.88-3.24c1.32-2.58,2.71-5.13,4.17-7.62.21-.37,1-.4,1.55-.48C47.05,170.77,45.09,174.36,44.69,178.65Z"/><path class="cls-1" d="M147.4,156q-2.93,3.5-5.86,7c-.18.2-.47.44-.45.64.1,1.61-1.14,2.1-2.21,2.75a13.82,13.82,0,0,1-1.89,1.07c3.33-4,6.11-8.37,10.11-11.72Z"/><path class="cls-1" d="M189.83,172l4.6-.46a1,1,0,0,0,.55-.14,7.84,7.84,0,0,1,6.14-2l-2,1.81c-1,0-2.22,1.33-3.68.29l.65.94h-6.29Z"/><path class="cls-1" d="M158.34,203.5,166.87,215a14.42,14.42,0,0,1-5-5.06c-1.21-2.12-2.53-4.19-3.8-6.28Z"/><path class="cls-1" d="M118.75,222.32c3.47,1.57,6.87,3.21,9.27,6.57C123.87,228,121.47,224.93,118.75,222.32Z"/><path class="cls-1" d="M228.48,133.51a4.7,4.7,0,0,1-.38,1.6c-1.49,2.13-3.15,4.1-5.74,5a3.83,3.83,0,0,1-1.17.37l6.7-7.26Z"/><path class="cls-1" d="M48.92,195.17c1.72,1.75,3.48,3.46,5.14,5.26a10.25,10.25,0,0,1,1.19,1.87l-8.37-6.23,2-.9Z"/><path class="cls-1" d="M94.74,142.83c1.45-2.41,2.76-4.93,4.89-6.83l.41.2a6,6,0,0,1-.17,1c-.3.92-.6,1.86-1,2.75s-.59,2.06-2.11,2c-.59,0-1.19.71-1.78,1.1Z"/><path class="cls-1" d="M177.35,195.39l-8.4-8.8.33-.34,2.15,1.87c1.54,1.31,3.16,2.53,4.59,4a16.59,16.59,0,0,1,1.9,2.89Z"/><path class="cls-1" d="M193.14,199.05c-.52-.14-1-.26-1.53-.44-1.5-.54-3-1.14-4.47-1.65-1.83-.63-2.57-2.24-3.42-3.82C187.26,194.43,189.61,197.69,193.14,199.05Z"/><path class="cls-1" d="M251.65,120.74c-.22,2-7.11,14.15-9.2,15.74C245.5,131.25,248.56,126,251.65,120.74Z"/><path class="cls-1" d="M108.2,177.44c-3.49,1-6.75,2.82-10.55,2.55A22.1,22.1,0,0,1,108.2,177.44Z"/><path class="cls-1" d="M142.75,163.78c2.66-3.69,6.86-5.37,10.29-8.07l.35.38c-.33.2-.66.4-1,.62C149.16,159,146.54,162.18,142.75,163.78Z"/><path class="cls-1" d="M167.24,141.33a42.71,42.71,0,0,1-8.5,5.86l-.24-.31,3.93-3.16c.1.22.08.11,0,.06a2.07,2.07,0,0,0-.42-.15C163.41,141.94,165.43,141.87,167.24,141.33Z"/><path class="cls-1" d="M37.91,202.51c.1.34.19.68.31,1,.83,2.3,1.69,4.6,2.51,6.91a6.55,6.55,0,0,1,.2,1.08c-1.86-1.23-1.79-3.14-2.13-4.9-.74.45-1,.38-1.14-.54s-.49-1.91-.69-2.88a2.15,2.15,0,0,1,.16-.84l.8.18Z"/><path class="cls-1" d="M85.23,184.51c.3-.24.55-.59.89-.7,2.35-.73,4.63-.28,7.15.52A11.35,11.35,0,0,1,85.23,184.51Z"/><path class="cls-1" d="M120,203.54c.8.71,2,1.07,2,2.49,0,.42.55.85.91,1.21,1.19,1.17,2.45,2.27,3.58,3.5a3.45,3.45,0,0,1,.74,2C124.44,210,121.68,207.2,120,203.54Z"/><path class="cls-1" d="M158.13,166.78c1.26-1.34,6.11-2.61,9.77-2.43-.36.42-.55.85-.8.89-1.91.29-3.83.5-5.74.76a1.45,1.45,0,0,0-.73.28C159.62,167.17,159.43,167.22,158.13,166.78Z"/><path class="cls-1" d="M199.11,201.65A14.88,14.88,0,0,1,190,199.8C193.12,199.9,196.25,199.86,199.11,201.65Z"/><path class="cls-1" d="M237.84,150l5.84-7.14.32.27C242.68,145.93,241.41,148.75,237.84,150Z"/><path class="cls-1" d="M114.38,195.07a4.28,4.28,0,0,1,2.69,4c-.59.47-1.08.45-1.56-.29-.77-1.18-1.6-2.31-2.39-3.47a4.55,4.55,0,0,1-.33-.92l1.58.67Z"/><path class="cls-1" d="M183.83,128.11c-1.58,3.83-4.91,5.85-8.18,7.91Z"/><path class="cls-1" d="M222.05,171.41l8.79-2.68.11.35a27.65,27.65,0,0,1-7.81,3c-.33.07-.74-.18-1.11-.28Z"/><path class="cls-1" d="M174.47,162.46l9.7-4.74-.85,1.91c-2.41-.19-4.16,1.31-6.1,2.36a24.35,24.35,0,0,1-2.53,1Z"/><path class="cls-1" d="M114.38,195.07h0c-.76-.61-1.5-1.24-2.29-1.81a4,4,0,0,1-1.9-2.77c2.68.93,4.19,2.91,5.59,5.08Z"/><path class="cls-1" d="M236.06,165.48a76.52,76.52,0,0,1-12.42,4.18l-.11-.35,12.44-4.2Z"/><path class="cls-1" d="M135.61,132.69c0-3.2,2.26-4.45,4.44-5.72C138.72,128.91,137.85,131.21,135.61,132.69Z"/><path class="cls-1" d="M224.11,136.19c-2.55,2.22-4.23,5.38-7.38,6.94C218.9,140.5,220.87,137.66,224.11,136.19Z"/><path class="cls-1" d="M187,207.64c-3-.37-4-2.7-5.22-4.79A11.84,11.84,0,0,1,187,207.64Z"/><path class="cls-1" d="M130.56,204.23c-3.42-.47-4.34-2.93-5.49-5.17l.29-.28Z"/><path class="cls-1" d="M132.9,219.21a13.44,13.44,0,0,1-4.47-6.18C129.84,213.38,131.57,215.75,132.9,219.21Z"/><path class="cls-1" d="M85.33,187.58c-2.45.37-4-1.39-6-2C81.43,185.69,83.78,184.83,85.33,187.58Z"/><path class="cls-1" d="M196,176.69h-3.27l-.29,1.05-4.26-2.54.16-.26c1.26.27,2.51.57,3.76.82s2.57.47,3.85.7Z"/><path class="cls-1" d="M140.28,206.09c-2.24-2.67-4.47-5.34-6.86-8.21C135,198.21,139.42,203.49,140.28,206.09Z"/><path class="cls-1" d="M115.37,178.8l4.29-1,1.27,2.06-5.52-.52Z"/><path class="cls-1" d="M143.6,212.76l-5.42-7.5C140,205.83,143.62,210.79,143.6,212.76Z"/><path class="cls-1" d="M117.2,160.16c.9-.87,2.25-1.59,2.23-2.25-.06-1.44,1.29-1.53,1.74-2.44l.2,1,1.28-1,.29.3c-1.65,1.55-3.29,3.11-5,4.63C117.89,160.45,117.53,160.25,117.2,160.16Z"/><path class="cls-1" d="M144.53,144.61a6.28,6.28,0,0,1-1,.53,1.3,1.3,0,0,1-.87-.07c-.11,0-.15-.54,0-.69,1.19-1.55,2.43-3.07,3.65-4.59l.34.15-2.1,4.69Z"/><path class="cls-1" d="M143.47,137.58l-.58-.73,4.92-5.23.28.23a6.23,6.23,0,0,1-2,3.17,23.73,23.73,0,0,1-2.17,1.79A3.18,3.18,0,0,0,143.47,137.58Z"/><path class="cls-1" d="M152.28,159.81c1.06-.66,1.62-2.34,3-1.88l5.24-3.49.25.39C158.48,157.34,155.24,158.34,152.28,159.81Z"/><path class="cls-1" d="M39.62,175.85a6.55,6.55,0,0,1,2.53-5.18,5.76,5.76,0,0,1-.15,1.45c-.47,1.36-1,2.7-1.6,4.22l-.81-.53Z"/><path class="cls-1" d="M198.76,185.4c-3.06.27-5.73-1.12-8.46-2.24l8.59,1.67Z"/><path class="cls-1" d="M100.66,189.51l-6.83-1.36.08-.36A7.67,7.67,0,0,1,100.66,189.51Z"/><path class="cls-1" d="M178.51,204c2.29,1.15,3.14,3.1,3.7,5.24A10.66,10.66,0,0,1,178.51,204Z"/><path class="cls-1" d="M201,189.51a18.31,18.31,0,0,1-6.42-.93C196.65,187.7,199.93,188.16,201,189.51Z"/><path class="cls-1" d="M144.24,124.25l-4.48,5.13-.28-.23c1.34-1.85,1.92-4.32,4.33-5.29Z"/><path class="cls-1" d="M70.93,182.82c1.33-1,2.45-1.84,3.6-2.65a.83.83,0,0,1,.73.07c.12.08.16.43.11.63C75.11,181.85,72.23,183.29,70.93,182.82Z"/><path class="cls-1" d="M176.83,183.9c-3.05-1.32-6.83-4-7-5.33l7.23,5.09Z"/><path class="cls-1" d="M144,194.36c2.35,1.41,4.07,3.27,4.35,6.16Z"/><path class="cls-1" d="M29.11,203.1l-.74-4.59,1.47-.23-.89-.59,1.27-.72-.79,6.2Z"/><path class="cls-1" d="M212.88,202.66c-1.32,0-2.65,0-4,0-.78,0-1.55.37-2.33.4a24.26,24.26,0,0,1-4.66-.21l10.94-.76Z"/><path class="cls-1" d="M218,168l2.42-1.59.23.34-.61.45c1.24,0,2-1.69,3.62-.85l-1.53.94.83.08c-1.44,1.37-3.31.12-4.77,1Z"/><path class="cls-1" d="M108.42,195.67c-2.66-.59-3.47-1.56-3.44-4.21C106.26,192.87,107.79,193.72,108.42,195.67Z"/><path class="cls-1" d="M47.1,189c1-1.47,4.83-1.46,6.13,0Z"/><path class="cls-1" d="M163.56,173.9l-6.29-1.25C158.91,171.62,162.46,172.33,163.56,173.9Z"/><path class="cls-1" d="M50.21,166.34,55,161.65l.23.23c-.8,2.31-2.75,3.53-4.63,4.82Z"/><path class="cls-1" d="M181.32,155.47l-6.42,4.87C176.44,158,178.23,156,181.32,155.47Z"/><path class="cls-1" d="M255.54,96.82c-.91,2.34-1.83,4.67-2.74,7-.54-1.6.25-3.7,2.41-7.17Z"/><path class="cls-1" d="M112.39,187.34l1.1,1.77-.19.25-5.12-3.27.19-.36c.73.28,1.47.54,2.2.84S111.8,187.09,112.39,187.34Z"/><path class="cls-1" d="M97.22,185.86c-.85.63-4.42.32-5.21-.38C93.92,184.64,95.93,184.71,97.22,185.86Z"/><path class="cls-1" d="M139.28,148.33c.23-.57.3-.89.36-.89,1,.05,1.31-.65,1.76-1.31a1.61,1.61,0,0,1,1-.59c.18,0,.63.45.61.67,0,.46-.2,1.17-.51,1.3A23.86,23.86,0,0,1,139.28,148.33Z"/><path class="cls-1" d="M207.73,185.17h6.82C212.58,186.41,209,186.32,207.73,185.17Z"/><path class="cls-1" d="M188.51,185.71l6.87,1.75C192.57,188.41,190.5,187.1,188.51,185.71Z"/><path class="cls-1" d="M162.55,133.23c-.6,2-2.05,3.25-3.91,4.47C159.24,135.38,161,134.41,162.55,133.23Z"/><path class="cls-1" d="M105.55,189.78,104,188l.13-.31a33.16,33.16,0,0,1,3.25,1.35c.66.35.44,1.29-.14,1.65l-1.76-.94Z"/><path class="cls-1" d="M147.78,205.93a21.23,21.23,0,0,1-4.21-5.35l.28-.23c1.46,1.73,2.93,3.46,4.39,5.2Z"/><path class="cls-1" d="M69.72,168.89c-.76,1.94-1.76,3.67-4.1,4.27l3.8-4.53Z"/><path class="cls-1" d="M115.37,176.81c.27-1.6,1.49-1.52,2.23-1.91a8.46,8.46,0,0,1,2.62-.44l.11.44Z"/><path class="cls-1" d="M59.59,189.27c-1.91.88-3.75.43-5.58-.26C55.9,188.27,57.74,188.84,59.59,189.27Z"/><path class="cls-1" d="M107.11,179.83l6.28-2.25.15.44a13.48,13.48,0,0,1-6.29,2.12Z"/><path class="cls-1" d="M144.49,144.63a2,2,0,0,0,.84-.25,26.33,26.33,0,0,1,2.37-2c-.12,1-.21,1.75-1.4,2.15-.85.28-1.41,1.4-2.1,2.14l-.42-.26.75-1.83Z"/><path class="cls-1" d="M254.73,106.43c.08-1.18.14-2.37.28-3.55,0-.18.36-.38.59-.46s.4.3.4.47C256,104.14,256.41,105.51,254.73,106.43Z"/><path class="cls-1" d="M132.24,206.54l5.84,5.45-.23.24c-1.84-1.93-4.49-3-5.85-5.43Z"/><path class="cls-1" d="M110.44,140.61c0-.23-.06-.52.06-.68,1.42-2,2.86-4.05,4.42-6a19.23,19.23,0,0,1-4.51,6.66Z"/><path class="cls-1" d="M162.22,131.15l3-3.94C165.19,129.52,164.18,130.85,162.22,131.15Z"/><path class="cls-1" d="M139.68,142.33l3.09-2.47.36.33-2.93,3.6Z"/><path class="cls-1" d="M56.5,217.91l3.78,7.4-.36.19-3.85-7.36Z"/><path class="cls-1" d="M48.92,195.17c-1.43,0-2.86.1-4.29,0-.44,0-.86-.44-1.29-.68l.14-.37,3.27-.34,0,.29-2.25.35,4.37.72Z"/><path class="cls-1" d="M161.81,129l-3.74,5.61-.48-.32,3.76-5.63Z"/><path class="cls-1" d="M184,191.17l5.88,3.15C188.4,194.49,185.24,192.83,184,191.17Z"/><path class="cls-1" d="M218.83,152c-.47,2.44-2.67,3-4.44,4.07Z"/><path class="cls-1" d="M109.17,153.82l-4.59,4.53-.48-.49,4.38-4.75Z"/><path class="cls-1" d="M135.37,219.43c-1.29-1.79-2.59-3.58-3.88-5.38a1,1,0,0,1-.19-.87,8.61,8.61,0,0,1,.74.74c1.16,1.46,2.27,3,3.48,4.37.47.55.29.81-.16,1.14Z"/><path class="cls-1" d="M164.33,175.81c.68-.83,1.19-.43,1.68,0s1.1,1,1.66,1.52.92.74,1.38,1.11l-.24.32Z"/><path class="cls-1" d="M204,199.4a8.45,8.45,0,0,1-6.2-1.71Z"/><path class="cls-1" d="M134.78,197.65l-4.28-4.73.24-.21C132.46,194,134.11,195.4,134.78,197.65Z"/><path class="cls-1" d="M144.33,190.43c1,.81,2,1.58,3,2.46.27.25.21.85.3,1.28l-.34.12-3.21-3.6Z"/><path class="cls-1" d="M152.06,217.53c-.65-.8-1.59-1.19-.73-2.21.09-.11-.08-.46-.17-.68-.25-.61-.74-1.22.11-1.93A15.12,15.12,0,0,1,152,215,17.62,17.62,0,0,1,152.06,217.53Z"/><path class="cls-1" d="M143.16,213.77c-1.74-1.08-2.7-2.82-3.92-4.35l.35-.31,3.83,4.43Z"/><path class="cls-1" d="M117.16,158.64a5.61,5.61,0,0,1-4.37,2.87l4.15-3.13Z"/><path class="cls-1" d="M138.52,216.61,135,213.26l.24-.26a7.46,7.46,0,0,1,3.49,3.36Z"/><path class="cls-1" d="M105.1,217.07c-1.95-.88-3-2.58-4-4.36l.28-.25Z"/><path class="cls-1" d="M81.61,148.73c-1.61,1.12-3,2.52-5,3l-.23-.39,5.1-2.89Z"/><path class="cls-1" d="M163.27,151.73c-1.25,1.71-3.26,2.24-5,3.2l-.17-.27,5-3.19Z"/><path class="cls-1" d="M202,145.37l4.48-4,.33.36-4.5,4.05Z"/><path class="cls-1" d="M135.7,153.92c.56-2.12,1.49-2.87,4-3.29Z"/><path class="cls-1" d="M102.66,150.39l4.8-4.9.24.24-4.83,4.88Z"/><path class="cls-1" d="M127.58,144a12,12,0,0,1-4,3.87l3.72-4.18Z"/><path class="cls-1" d="M246,140.66l2.67-5.61C248.82,136.39,247.49,139.29,246,140.66Z"/><path class="cls-1" d="M205.4,149.13,201,151.5l-.18-.33c1.29-1.11,2.51-2.34,4.42-2.37Z"/><path class="cls-1" d="M151.27,141.42l-3.1,3.68c0-2,1.69-2.72,2.7-4Z"/><path class="cls-1" d="M155.05,136.4,150,141l-.25-.26,5-4.68Z"/><path class="cls-1" d="M134.43,129.62l2.57-4.5.48.27-2.56,4.51Z"/><path class="cls-1" d="M67.38,189.14l-5.63-.25,0-.49c1.86.34,3.81-.42,5.63.39Z"/><path class="cls-1" d="M183,202.64c-2.08-.48-2.84-1.89-3.63-3.28l.29-.28Z"/><path class="cls-1" d="M42.92,201.22l-.62,1.38-1.71-3.2.35-.29Z"/><path class="cls-1" d="M193.32,162l-5.85,1.18-.11-.48,5.92-1.09Z"/><path class="cls-1" d="M56.41,158.33c.09.16.28.43.24.47-1.2,1.22-2.42,2.43-3.64,3.63l-.37-.37,3.8-3.76Z"/><path class="cls-1" d="M56.71,161.41l3.1-4.16.45.33c-1,1.39-2.09,2.78-3.13,4.18Z"/><path class="cls-1" d="M192.69,208.9,188,206l.26-.41,4.69,2.91Z"/><path class="cls-1" d="M195.89,164.19l-4.67,1-.1-.44,4.63-1.17Z"/><path class="cls-1" d="M151.54,155.76c.28-1.53,1.47-1.89,2.33-2.54a.52.52,0,0,1,.5.11c0,.19,0,.52-.08.61C153.45,154.54,152.57,155.09,151.54,155.76Z"/><path class="cls-1" d="M88.68,186.19c1.8-.47,2.36-.33,2.64.6H95v.31a28.65,28.65,0,0,1-3.59,0A15,15,0,0,1,88.68,186.19Z"/><path class="cls-1" d="M189.77,182.13a5.55,5.55,0,0,1,4.65.81l-.07.3Z"/><path class="cls-1" d="M105.51,189.75l1.15.92c-2.13,0-3.08-1.35-4.3-2.22l.15-.29,3,1.62Z"/><path class="cls-1" d="M87.58,145.83l-4.17,3.49L83.1,149l4.18-3.49Z"/><path class="cls-1" d="M53.22,167l2.54-3.31.48.36-2.48,3.34Z"/><path class="cls-1" d="M148.58,156.09a4.65,4.65,0,0,1,3.5-3.2Z"/><path class="cls-1" d="M154.1,143.17c.41-1.59,2-2.2,3-3.28l.28.25c-1,1.1-2,2.2-2.92,3.31Z"/><path class="cls-1" d="M125,150.55l3-3.63.28.2L125.52,151Z"/><path class="cls-1" d="M169.41,148.53c-.83,1.65-2.35,1.49-3.68,1.81l-.16-.42Z"/><path class="cls-1" d="M240.53,159.32l5.36-3.49A12.78,12.78,0,0,1,240.53,159.32Z"/><path class="cls-1" d="M65.75,185.83l4.81.49,0,.35c-1.71.78-3.2-.45-4.83-.43Z"/><path class="cls-1" d="M167.26,194c2.11,1.19.71,3.08,1.57,4.38l-.39.1Z"/><path class="cls-1" d="M188.05,154.65l-5.35,3-.2-.34,5.34-3Z"/><path class="cls-1" d="M165.26,167.25l3.34-.6C168.34,167.78,166.57,168.15,165.26,167.25Z"/><path class="cls-1" d="M188.88,156.13l-4.44,2.94-.27-.4,4.49-2.94Z"/><path class="cls-1" d="M170.13,186a4.54,4.54,0,0,1,3.23,2.51l-.32.36-2.88-2.9Z"/><path class="cls-1" d="M193.23,192.21l-4.62-1.76.18-.45,4.63,1.82Z"/><path class="cls-1" d="M37.92,199.57c1.88-.72,2-.61,2.61,2Z"/><path class="cls-1" d="M33.59,209.05l-.53-4.41.61-.07L34,209Z"/><path class="cls-1" d="M204.24,144.89l3-2.86C207.37,143.31,206.4,144.32,204.24,144.89Z"/><path class="cls-1" d="M136.25,205.11l-2.67-3.7.46-.33,2.59,3.68Z"/><path class="cls-1" d="M181.59,194.94l3.42,1.77-.29.56-3.43-1.79Z"/><path class="cls-1" d="M30.76,198.4l.33-1.58-.27-.16,1.12-.63C32.52,197.46,32.05,198.36,30.76,198.4Z"/><path class="cls-1" d="M222.3,149.72l3.44-2.93.34.41-3.51,2.85Z"/><path class="cls-1" d="M153.33,143.6c.32,1-.61,2-2.47,2.11Z"/><path class="cls-1" d="M98.18,184.6l4.68,2.23-.16.37L98,185.05Z"/><path class="cls-1" d="M146.28,216.13l-2-3.83.49-.25,1.84,3.87Z"/><path class="cls-1" d="M148.87,223.09l-3.46-2c1.33-.56,2.29.05,3.43,2.06Z"/><path class="cls-1" d="M106.65,187.6l-4.2-1.72a8.28,8.28,0,0,1,4.4,1.29Z"/><path class="cls-1" d="M211.81,191.52h-5.89v-.21h5.94Z"/><path class="cls-1" d="M144.58,147.37l2-2.59C146.23,147.33,146.23,147.33,144.58,147.37Z"/><path class="cls-1" d="M164.45,148.62l4.19-2.78.26.41L164.62,149Z"/><path class="cls-1" d="M139.9,197.08l-3.28-3.82.22-.22,3.62,3.51Z"/><path class="cls-1" d="M181.19,212l-2.36-2.81.37-.33c.77.88,1.54,1.75,2.28,2.65,0,0-.19.32-.3.49Z"/><path class="cls-1" d="M144.14,199.52l-2.64-3.18.4-.34,2.7,3.14Z"/><path class="cls-1" d="M110.38,177.06l3.67-1C113.61,177.32,112.12,177.87,110.38,177.06Z"/><path class="cls-1" d="M114.48,192.49l-2.78-2.93A3.15,3.15,0,0,1,114.48,192.49Z"/><path class="cls-1" d="M116.38,149.37l3-3.57.32.27-3,3.62Z"/><path class="cls-1" d="M172.87,145.72c-.94.85-1.37,2.46-3.18,2Z"/><path class="cls-1" d="M43.84,183.88l2.43-1.77.2.28C45.88,183.3,45.38,184.31,43.84,183.88Z"/><path class="cls-1" d="M53.71,214.79l2,4.25-.36.17-2-4.23Z"/><path class="cls-1" d="M195.07,152l4.35-3.47.22.27-4.38,3.49Z"/><path class="cls-1" d="M118.35,129.31l-2.14,3.23-.29-.19a6.67,6.67,0,0,1,2.09-3.26Z"/><path class="cls-1" d="M96.82,162.05c.59-1.68,1.41-2.35,2.89-2.42Z"/><path class="cls-1" d="M182.61,184.69l3.5,1.85C184.87,186.72,183.93,186.27,182.61,184.69Z"/><path class="cls-1" d="M130.91,205.79c-.83.84-1.73.29-2.63-1.73Z"/><path class="cls-1" d="M147.05,211.64l-2.18-3.46.38-.25,2.1,3.5Z"/><path class="cls-1" d="M84.29,184.79l-2.7-.16C83.08,183.4,83.9,183.48,84.29,184.79Z"/><path class="cls-1" d="M180,168.43l1.48-1.31c.28.76-.22,1.93,1.12,1.76l-2.52-.15Z"/><path class="cls-1" d="M132.92,144.43a2.21,2.21,0,0,1-2.41,1.84Z"/><path class="cls-1" d="M198.85,192.83,196,191.48l.14-.29C197.23,191.36,198.39,191.35,198.85,192.83Z"/><path class="cls-1" d="M31.54,202.61a2,2,0,0,1,0-3.09Z"/><path class="cls-1" d="M182.64,198.3l3,1.67-.24.44-3-1.66Z"/><path class="cls-1" d="M33.14,175.43c-.08-1.8.85-3.42,2.19-3.65C33.75,172.51,34.09,174.34,33.14,175.43Z"/><path class="cls-1" d="M157.11,171.68l-3.68-.68.1-.53,3.63.7Z"/><path class="cls-1" d="M183.43,161.8l3-.77.14.48-3,.89Z"/><path class="cls-1" d="M249.49,108.78c.52-1.11.41-2.59,1.71-3.25l.37.24C250.88,106.77,250.18,107.77,249.49,108.78Z"/><path class="cls-1" d="M157.4,146.57l.32,1.27-1.95,1.09-.16-.21Z"/><path class="cls-1" d="M109.94,191.87c-1.68-.18-1.91-.54-1.39-2.18Z"/><path class="cls-1" d="M172.07,199.25c.89.29,1.93,2.06,2,3.44Z"/><path class="cls-1" d="M58,187.51h3.75v.25l-3.74.18Z"/><path class="cls-1" d="M239.08,125.18l1.22-1.59c.85.65.4,1.21,0,1.6-.27.25-.78.24-1.18.34Z"/><path class="cls-1" d="M186.71,144.22,183.06,146l-.19-.38,3.67-1.79Z"/><path class="cls-1" d="M174.35,176.32l2.29,2.19-.39.4L174,176.68Z"/><path class="cls-1" d="M112.78,149,110,152l-.27-.23,2.7-3.11Z"/><path class="cls-1" d="M169.41,139.36l-2.53,1.34-.17-.31C167.48,140,167.7,138.7,169.41,139.36Z"/><path class="cls-1" d="M48.68,198.25c-1.71.44-2.26.2-2.94-1.42l2.92,1.44Z"/><path class="cls-1" d="M71.9,154.34l-2.57,2.74-.31-.27,2.54-2.75Z"/><path class="cls-1" d="M173.36,153l2.76-2.27.31.41-2.83,2.17Z"/><path class="cls-1" d="M194.15,135.9c-.62,1.89-2.27.64-3.19,1.35l-.12-.33Z"/><path class="cls-1" d="M148.33,208c1.73,1.16,1.73,1.19.9,2.66Z"/><path class="cls-1" d="M104,180.42l3.66-1.49.12.28-3.6,1.66Z"/><path class="cls-1" d="M201.76,168.3l2.6-.82.15.43-2.56.92Z"/><path class="cls-1" d="M40.06,186.08l2.61-.41.1.49-2.58.55Z"/><path class="cls-1" d="M179.73,183.23c1.13-1,1.83-.12,2.61,0l-.06.48Z"/><path class="cls-1" d="M194.19,177.38l2.11.5c-.89.71-1.63.73-2.21-.09Z"/><path class="cls-1" d="M243.87,123.16l-1.62,3-.34-.16c.54-1,1.07-2,1.6-3.06Z"/><path class="cls-1" d="M177,170.42l-2.85-.4.07-.48,2.85.32Z"/><path class="cls-1" d="M138.49,201.13l-1.7-2.07.31-.28L139,200.7Z"/><path class="cls-1" d="M127,198.22a1.71,1.71,0,0,1-2.14-1.77l2.17,1.79Z"/><path class="cls-1" d="M31.54,185.43,29,187.76l-.3-.32,2.6-2.29Z"/><path class="cls-1" d="M181.18,212c1.26.49,1.53,1.6,1.49,2.89-.49-1-1-1.93-1.48-2.89Z"/><path class="cls-1" d="M173.15,205l-1.88-2.31.46-.33,1.68,2.45Z"/><path class="cls-1" d="M192.67,153.34l-2.2,1.37-.24-.37,2.1-1.53Z"/><path class="cls-1" d="M131.18,204.31l2.76,2.24-.26.25-2.38-2.66Z"/><path class="cls-1" d="M34.87,198.85v-1.8l.23-.16,1.24,1.43Z"/><path class="cls-1" d="M186.49,197.32l2.61.94C188.13,198.51,187.16,198.77,186.49,197.32Z"/><path class="cls-1" d="M109.07,188.14l1.93,1.65-.26.33-2.06-1.49Z"/><path class="cls-1" d="M88.22,163.3l-2.46,2.13-.29-.35L88,163Z"/><path class="cls-1" d="M187.85,175.85,185,174.41C186.33,174.1,187,174.73,187.85,175.85Z"/><path class="cls-1" d="M231.12,141.28l-2.74,2.4-.21-.24,2.75-2.4Z"/><path class="cls-1" d="M148.74,131.48l1.78-2.54.3.19-1.75,2.61Z"/><path class="cls-1" d="M177.83,159.41l2.86-1.52.2.39-2.87,1.5Z"/><path class="cls-1" d="M218.15,167.36l-2.53.92-.13-.4,2.56-.92Z"/><path class="cls-1" d="M176.2,182.07l-2.2-1.43.15-.28,2.31,1.16Z"/><path class="cls-1" d="M247.94,111.11,246.48,114l-.36-.18,1.48-2.84Z"/><path class="cls-1" d="M189.7,187.71,186.47,186l.15-.31,3.21,1.74Z"/><path class="cls-1" d="M42.69,193l2.4-.27,0,.42-2.4.31Z"/><path class="cls-1" d="M186.1,203.22l-1.5-1.41.47-.48,1.45,1.44Z"/><path class="cls-1" d="M153.91,204.06,152,201.8l.28-.25,2,2.21Z"/><path class="cls-1" d="M187.25,136.75l-2.79.84-.13-.43,2.83-.74Z"/><path class="cls-1" d="M74.7,220.9c2.76,3.87,6.32,7.34,6.32,12.76A58.77,58.77,0,0,1,74.7,220.9Z"/><path class="cls-1" d="M90.48,208.28c-.42-1.09-.83-2.19-1.25-3.29-.08-.2-.15-.41-.23-.62l.27-.17A15.07,15.07,0,0,1,90.54,206c.92,1.85,1.62,3.82,2.67,5.58,1.18,2,2.65,3.77,4,5.64.53.74,1.1,1.46,1.59,2.24a3.78,3.78,0,0,1,.27,1.1l-.37.18c-.63-.78-1.22-1.59-1.9-2.32a28.35,28.35,0,0,1-4.35-7.08,32.59,32.59,0,0,0-2-3.14Z"/><path class="cls-1" d="M84.5,227.15c1.6,1.89,3.24,3.75,4.78,5.7.34.43.54,1.59.38,1.69-.86.51-1.1-.41-1.44-.93-1.36-2.07-2.67-4.17-4-6.26Z"/><path class="cls-1" d="M87.14,221,86.39,219c1.79.83,2.4,2.49,3.47,4-1.23.27-1.6-.59-2.12-1.16-.23-.25-.42-.52-.64-.78Z"/><path class="cls-1" d="M81.4,224.33c-1.7-.8-2.56-2.1-2.22-3.85l2.53,3.63Z"/><path class="cls-1" d="M78.84,225.83l-2-3.45C78.64,222.93,79,223.57,78.84,225.83Z"/><path class="cls-1" d="M105.29,229.71c-1.68-.46-2.52-1.73-3.39-3.39Z"/><path class="cls-1" d="M101.61,227.84l-2-2.92.36-.25c1,.72,1.32,1.92,2,2.89Z"/><path class="cls-1" d="M87.1,221l0,.88c-1.23-1-1.39-2.22-1.85-3.66L87.14,221Z"/><path class="cls-1" d="M98,221.5l2,2.57C98.54,223.84,98.51,222.5,98,221.5Z"/><path class="cls-1" d="M88.51,225.74,87,223.39l.4-.26,1.49,2.33Z"/><path class="cls-1" d="M70.66,225.22l-1.38-3.52.35-.14,1.28,3.57Z"/><path class="cls-1" d="M75.13,235.1l-.66-1.91L75,233l.58,1.93Z"/><path d="M159.6,196.46l-2.24-3.85.46-.27,5,7.4.06-.8.33-.15a26.93,26.93,0,0,1,1.72,4,25,25,0,0,0,2.09,5.13,4.66,4.66,0,0,1,.16.49l-.37.19q-3.16-5.7-6.34-11.41l-.57.21.42,1.95c-3.66-6.54-8.94-11.57-15.05-15.83a36.35,36.35,0,0,1,13.89,13.13Z"/><path d="M157,198.45l-2.87-4.23C155.27,194.6,156.39,196.08,157,198.45Z"/><path d="M139.15,183.71l2.9,2.52-.21.26L138.91,184Z"/></svg>