<svg id="Layer_1" data-name="Layer 1" xmlns="http://www.w3.org/2000/svg" viewBox="0 0 720 720"><defs><style>.cls-1{fill:#fff;}</style></defs><title>Artboard 2</title><path d="M537,608.14c9.54,22,19.09,44.06,28.42,65.61l24.94,7.69a66.58,66.58,0,0,0-1.83-8.22c-3.52-10.22-7.3-20.35-10.85-30.56-1.18-3.39-2.38-6.42-6.32-7.6-1.44-.43-2.54-2-3.38-3.81l6.6,2.86c-1.24-3.68-1.88-6.6-3.15-9.19-12.23-24.93-23.51-50.38-39.2-73.47-1.4-2.05-2-4.74-6-2.81-1.41.68-4.94-2.11-7-3.9-1.56-1.36-2.31-3.65-3.81-6.2l11.78,7.34.66-.75c-3.75-5.4-7.24-11-11.29-16.15-9-11.49-18.31-22.79-27.59-34.09-1-1.17-2.68-2.48-4-2.45-8,.17-11.84-7.18-18.73-8.89.14-.44.28-.88.43-1.32l3.28-.85.39-1.48-18.21-6.35,27,37.26-.52.38c-2.84-3.44-6.14-6.61-8.43-10.39-9.09-15-21.07-27.33-34.81-38.09a21.82,21.82,0,0,1-5.21-5.95c-5.32-9-13.26-14.62-22.72-18.68-9.14-3.93-18-8.49-27-12.71a84,84,0,0,0-9.6-4.07c-12.51-4-24.93-8.46-37.68-11.51-7-1.67-14.52-1.08-21.81-1.13-13.09-.1-26.22-.38-39.28.34-7.7.43-15.26,3-23,3.85a15,15,0,0,1-9-2.22,275.73,275.73,0,0,1-23.2-16.34c-3.29-2.61-4.89-7.3-8.14-10-6.08-5-12.86-9.24-19.25-13.92-4.92-3.6-10.17-6.92-14.42-11.21-9.85-9.93-19.36-20.24-25.42-33.13a14.79,14.79,0,0,1-1.52-3.13c-2.13-10.75-4.18-21.51-6.24-32.27-1.81-9.52-4.1-18-12.61-25-13.93-11.48-28.74-22-40.91-35.71-8.22-9.26-11.59-19.89-12.54-31.27-1.66-20,3.73-38.5,17.61-53.4,11.06-11.88,23-23,35-33.94,9.16-8.35,21-10.87,32.89-11.61,17.2-1.08,34.46-1.11,51.7-1.61,2.82-.09,5.67-.69,8.46-.46,11.22.94,22.41,2.38,33.64,3.11,12.07.77,24.2.77,36.27,1.52,3.49.22,6.85,2.06,10.35,2.78,10.88,2.26,21.92,3.87,32.67,6.62,12.37,3.17,25,6.14,36.61,11.24,19,8.36,39.25,14.54,55.26,28.9,6,5.4,13.17,9.51,19.55,14.54,5.77,4.56,10.83,9.76,13.47,17,5.83,15.89,18.71,26.91,28.2,40.27,3.74,5.27,7.26,10.7,10.88,16,.56.83,1.06,1.7,1.69,2.47,6.2,7.57,12.66,15,18.55,22.77A35.06,35.06,0,0,1,524,276c5.32,18.42,7.67,37,3.9,56.2a326.77,326.77,0,0,0-5.81,43,131.34,131.34,0,0,1-13.52,51.28A162.78,162.78,0,0,1,492.26,452c-4.36,5.76-11,9.05-18.3,10.34-1.74.31-3.49.57-7,1.14,5.85,7.11,10.79,13.28,15.92,19.3,7,8.2,14.44,16,21.18,24.44,21.8,27.24,42,55.68,56.46,87.54,10.91,24.05,21.23,48.45,28.47,74,1.35,4.76,3.07,9.49,3.71,14.36.62,4.67-2.87,6.79-7.39,5.58-6.52-1.73-13.09-3.35-19.71-4.64-3.84-.74-5.64-2-5.47-6.45.36-10.14-4.54-19-8.24-28q-8.32-20.37-16.55-40.77Zm-115.6-329.6c.46,2,.59,4.2,1.55,5.92.38.66,2.66.25,4.07.33.28-.69.56-1.37.85-2.06l-6.62-4.18c.12-1.45.88-3.42.22-4.21-.86-1-2.84-1.14-4.34-1.65l-1,2Zm-239.79,3.34,5.21,7.62,1.3-.69a21.63,21.63,0,0,0-.78-3.52,17.23,17.23,0,0,0-1.82-3.24c-.57-.85-1.28-1.6-1.92-2.4l-2,2.45c-1.62-1.27-3.76-3-4.09.57-.19,2,1.35,4.26,2.38,6.25.34.64,1.56.82,2.38,1.2a9.7,9.7,0,0,0,.55-2.93A53.47,53.47,0,0,0,181.56,281.88Zm232.92,23.28,7.9,1.4L423,304c-1.64-.66-3.25-1.69-4.95-1.9-2.05-.25-4.11.27-3.58,3.24l-7.65-3.27c.33,5.47,2.88,6.45,6.34,6.33-1.68,1.12-3,2.59-.81,4.13,1.33.95,3.26,1.05,4.91,1.53.34-.76.68-1.52,1-2.28l-5.36-3.39C413.45,307.33,414,306.26,414.48,305.16Zm-6.42-134.44-2.53,3,4.19,2.07c-1,.51-2.74,1.51-2.76,1.47-2.53-4.27-5.69-4.51-10.07-2.58-2.36,1-5.65-.19-8.16.67-3,1-4.4.92-5.31-2.42-.28-1-2.46-1.52-4.85-2.87.49,2.83.7,4,.79,4.52-1.86-1-3.77-1.93-5.71-2.91,3-4.9-3.49-6.43-3.82-10.21,0-.1-2.46,0-4.41.05,2.19,4.74,3.71,8.79,8.45,10.19l-2.42,3.33-7.75-12.36-1.09.56,2.55,7.14c-5.26-4.5-5.55-11.19-10.31-14.23l-1.36.85c1.64,3.95,3.27,7.91,4.69,11.34-2.51.07-4.72-.23-6.74.26C346,170,340.71,171.85,335.25,173c-2.22.46-4.84-1.05-7.07-.6-5.56,1.12-11.07,4.26-16.47,4-8.15-.4-15.53,2.86-23.47,3-4.06.09-8.07,1.81-12.15,2.51a4.67,4.67,0,0,1-3.7-1c-3.11-3.44-3.94-3.58-7.66-.76l11.63,14.13-10.25-2.59c2-3.89-1.18-9.18-7.38-12.49l6.47-2.08c-2.36-7-7.86-3.52-12.2-5.24l7.43-2c-2.54-1.35-4.28-3.05-5.92-3-2.54.14-5,1.51-8.62,2.74-2.93-1.91-5.6-10-12.88-3.38.3.9.76,2.32,1.29,3.95-2.9-.79-3.65-8-8-1.94-2.51-3.06-4.4-2.3-5.48,1L216,167.17c.09,2.26.14,3.54.19,4.82-1.85-3.65-4.51-3.49-7.75-2.74-5.34,1.25-10.76,2.19-16.16,3.14-5,.88-10,1.6-15.33,2.45.56,1.92.94,3.26,1.55,5.36l-3.11-3.77-17.88,1.17,11.71-2.88.39-1.79c-1.71-.59-3.39-1.6-5.13-1.68a44.06,44.06,0,0,0-7.18.74l8.9-2.76c-2.49-3.42-12.66-2.81-21.08,1.44a8.48,8.48,0,0,0,4.65,2,60.44,60.44,0,0,0,7.79-.7l-10,3.13,5,4.22L149,183.27l-4.38-2.46-.73,1.14c.44,1.26.89,2.52,1.34,3.8l-6-3.73-.91,1.19c.53,1.23,1.07,2.45,1.85,4.23l-5.89-4.52-1.54,1.65,10.81,13.12-1.42,1.11L130,184l-1.44,1.11,6.28,8.85-5.09,1.78,7.06,11.33-.36.28-5.06-5.58L130.34,203l8.59,8.35-11.86,2.39c0,.43.07.85.1,1.28l7.19-.26,0,.77-5,1.46-.54,1.39,6.43,3.74-6.94,1.74.21,1.1,11.66-1.16.06.69-14.43,3.93c.88,4.12,3.47,3.24,6.16,2.69,3.44-.72,6.94-1.12,10.42-1.66.06.42.12.83.19,1.24L137,232.46c.07.34.15.68.22,1l10.61-1.85c.07.49.15,1,.22,1.45l-9.7,2.22c-.12.63-.24,1.26-.37,1.89,2,.87,4.09,2.68,5.94,2.46,6.92-.86,9.08-.09,12.63,5.66a20.06,20.06,0,0,0,3.22,3.23l1-.91L157,240.43l13.62,7.15L169,250.35l4.8,1.7c-.11,2-.24,4.18-.41,7.1,6.74-4.09,12.47-5.25,18.71-1.7a60.94,60.94,0,0,1-7,2.14c-.93.28-1.65,1.22-2.46,1.86.85.49,1.69,1,2.58,1.45a18.64,18.64,0,0,0,2.71.68l-6.47,2.33c1.4,2.63,4,5.27,3.56,7.2-.77,3.35,2.35,4.7,2.25,8-.2,6.33,2.72,7.67,9.24,6.54a7.07,7.07,0,0,1,1.79.39l-6.5,2.32c0,.58,0,1.15,0,1.73l9.24.8c0,.2,0,.4,0,.61L188.8,295.3c-.1.51-.21,1-.32,1.53l7.41,1.19-4.74,2.12c.08.34.17.68.25,1l15.93-2.6c.12.57.23,1.13.34,1.7l-14.89,3.49c.15.64.3,1.28.44,1.91l11.2-1.25a89.51,89.51,0,0,1-10.51,4c-1.27.44-2.5,1-3.74,1.49l3.93,2.75v-.18c-2.08,4.05,0,4.53,3.37,4,7.44-1.26,14.89-2.49,22.33-3.74.09.41.17.82.26,1.22l-22.8,4.51.31,1.36L225,315.33c.07.41.14.82.22,1.24l-32.77,7,.33,1.86,12.24-.78v-.17l-12.41,3.86c0,.72,0,1.44,0,2.15,2.1.38,4.3,1.32,6.3,1,3.08-.47,6-2.1,9.05-2.68,2.68-.51,5.55,0,8.27-.38,6.64-1,13.24-2.3,19.85-3.47l.25,1.21-25.94,5.42c1.43,5,4.67,4,7.52,3.49,7.23-1.33,14.42-2.81,22.77-4.46l-3.16,3.52c6,6.55,6,6.55,9.6,4.8-1.08-2.22-2.16-4.45-3.25-6.67l1.12-.61c2.29,3.91,4.39,7.95,6.92,11.69,4.3,6.38,4.84,8.73,9.89,5-1.59-2.76-3.2-5.56-4.86-8.46,4.95,1.12,3.31,11.48,12,7.44l-6.9-14.75,1.3-.59c1.55,3.55,3,7.16,4.68,10.64,2.53,5.22,4.37,5.63,9.71,2.33-1.13-2.06-2.26-4.14-3.4-6.21,2.73,2.58,4.93,5.49,7.4,8.13.86.92,2.4,1.2,3.63,1.77.32-1.43,1.26-3.05.87-4.24a94,94,0,0,0-4.58-11c-1.54-3.24-3.39-6.33-5.11-9.48l1.21-.62c3.33,6.44,6.6,12.92,10,19.3.62,1.15,1.9,2.67,2.9,2.69a4.85,4.85,0,0,0,3.66-2.16c.46-.85-.3-2.75-1.06-3.77-2.34-3.16-4.95-6.13-7.45-9.17,3.49,2.57,6,5.89,8.81,8.9,1.09,1.17,3.09,2.53,4.36,2.27,3.66-.75,7.17-2.29,10.89-3.58l-9.53-13.65c4.21,4.95,7.7,10.39,14.58,12.58l-10.41-15.61,1.1-.71c3.56,4.91,7.53,9.58,10.51,14.82,1.58,2.79,2.74,3,5.57,1.77L313,321.4c7,6.59,8.91,18.92,22.12,18.35-9.42-1.37-9.5-10.16-13.24-16l8.74,11.76,1.53-1.09q-3.27-6.11-6.53-12.2c2.34,2,3.46,4.66,5,7,3.4,5.13,3.49,5.07,6.74,3.9-.63-1.69-1.25-3.4-1.88-5.1a15.14,15.14,0,0,1,2.58,3.66c1.81,2.77,3.3,2.36,4.65-1.33,2,1.8,4,4.78,6.48.6.18-.31.81-.44,1.25-.49,7.33-.82,14.66-1.54,22-2.47a33.93,33.93,0,0,0,5.44-1.56L375.25,319l5.14,2.09c-1.22-3-2.19-5.34-3.16-7.69l1.21-.53a44,44,0,0,0,1.88,4.06c.86,1.47,1.94,2.83,3,4.24L379,323.36c.85,5.95,5.36.07,7.17,2.39l1-1.57-4.14-3c1.94-3.62-.69-10.55-5.36-13.23l4.49-3.69,6.71,1L385.72,298l8.39.79c-2.25-5.32-3.95-9.38-5.66-13.43,2.57,3.34,4.33,7.09,6.49,10.58.54.86,2.4.9,3.65,1.32.17-1,.81-2.57.43-2.88-3.86-3.11-3.28-8.65-6.77-12-1.23-1.18-1.78-3.08-2.64-4.65l1.23-.65a108.47,108.47,0,0,1,5.62,9.79c1.62,3.58,3.55,3.84,6.7,1.61l-7.23-16.22A65.32,65.32,0,0,1,403,283.73c2.75,5.56,4.18,6.08,10.74,2.59l-4.82-5.84,1.05-.14q-1.67-4.62-3.34-9.23a12.14,12.14,0,0,1,4,5.63c1.06,3.53,3.05,3.09,5.87,2L406.86,258a31.68,31.68,0,0,1,5.33,8.41c2.52,5.46,2.88,5.74,6.68,3.76l-10.64-19.82,5.52.2c-.42,1.39-1.34,2.85-1.13,4.13.25,1.54,1.49,2.91,2.25,4.38,2.74,5.33,4.08,5.7,9.74,2.51-.07-2.87-5.47-3.5-3.31-7.33a10.28,10.28,0,0,0-2.64-.85,26.18,26.18,0,0,0-3.82.34l0-.5,4.37-1.81-.29-.78-5.26-.38,12.18-3.44-4.67-8,6.51,2.35.54-1.31L418,222.57l1.42-.78c1.19,2.27,2.38,4.53,3.63,6.78,1.91,2.55,3.07,6.72,7.65,3.68-.89-5.26-4.75-3.52-7.8-3.6l3.91-2.58c-4.37-7.43-8.45-14.35-12.5-21.22,5.88,2.58,5.32,12.42,15,12.78-2.78-4.51-4.73-7.91-6.92-11.16s-4.67-6.39-6.94-9.47l6.49-1.87-3.93-5.72,7.75-2.71c-3.91-4.55-8.36,1.21-12.3-2l8.74-2.22c-.12-.51-.24-1-.35-1.52l-16.11,2.46-.21-1,14.07-3.21c.15-.53.31-1.06.47-1.59A15.61,15.61,0,0,0,416.3,176a62.15,62.15,0,0,0-6.85-.22l7.36-3.93-9-1.19c.28-1,.55-2.09.83-3.13a23.32,23.32,0,0,0-4.53-.86c-.48,0-1,1.35-1.46,2.08,1.17.58,2.31,1.23,3.52,1.72A6.78,6.78,0,0,0,408.06,170.72Zm33,68.58c-1.55,3.73-.6,4.82,4.68,5.2l-2.45,2.71,5.83-1.53c-1.8-4.23-4.16-6.52-8.31-6.4,1.92-1.08,2.88-2.69.78-4.13-1.76-1.21-4.08-1.61-6.82-2.62C435.3,237.9,437.89,238.93,441,239.3ZM202.51,338.5l6.84-2.44c-1.33-4.36-4.55-4.71-12.66-1,2.39,1.38,4.13,2.38,5.94,3.38,1.83,5.15,3.4,5.52,11.68,1.8-2.49-.87-3.91-1.65-5.39-1.8A50.82,50.82,0,0,0,202.51,338.5ZM89.26,195.93a50.18,50.18,0,0,1-6.53,2.21c-5,1-5.53,3.71-3.45,8.1l6.9-2.33-3-2.23a25.18,25.18,0,0,0,4.59-2.59c.76-.68.87-2.1,1.26-3.18l4.11-2.24-.37-1.38c-4.94-1.13-8.59,3.37-13.06,4.26Zm161.27-65.64,3.69.32c-1.33,3.4.73,4.63,3.49,5,3.51.44,7.07.52,10.61.75l.59-1.46a21.35,21.35,0,0,0-3.91-2.19c-2.32-.74-4.76-1.11-7.15-1.64l1.7-3.34c1.51,1.15,3.77,3.61,4.42,3.24,3.41-1.94,5,1,7.38,2l3.79,4c-.49,2.16-1,4.33-1.33,5.91-3.18-4.61-11.41-6.93-16.54-3.72l4.24,2.32c-.64,1.23-1.27,2.42-1.92,3.66-3.54-4.28-8.47-4.56-13-4.16-3.86.34-5.16-1.77-6.94-4.07-1.31-1.69-2.84-3.21-4.28-4.81l-1.11,1c.45,1.26.9,2.53,1.34,3.79l-.7.37L217.32,112.3l-1.53,1.09,15.56,25.12L212,130.37c-.21.4-.41.81-.61,1.21.94.8,1.76,2,2.83,2.33,10.13,2.91,18.16,9.54,26.89,14.93.19.12.61-.11,1-.21-.14-.45-.27-.88-.41-1.31l-.51-1.61.85-1.24c5.36,8.48,13.42,10.06,22.55,10.72l-3.26-6.77,1-.52,7.83,8.34c-.32-2.62-.46-3.74-.8-6.41,4,4.64,6.73,9,13,6.88l-5.36-6.51.45-.5,6,4.42.45-.68-2.38-4.92.8-.4,6.16,7.47L286.31,157c.07.32.15.65.23,1l7-.41-3.37-5.71,7.33,5.58.82-1.12-6-8.22.85-.59,9.73,9.8.86-.83-5.57-8.35c8.76,8,8.76,8,12.6,7.31-1.57-1.75-2.89-3.1-4.07-4.55s-2-2.79-3-4.2l1-.75,6.56,8,.44-.34-3.54-7.06.91-.4,8.24,8.71,1-.92c-1.39-2.53-2.79-5.06-4.82-8.73,5.18,2.9,4.74,10.66,12.27,8.93l-3.3-6,6.82,5.71,1.06-1.11q-2.25-4.9-4.52-9.8l1.1-.53a57,57,0,0,1,4.21,6.6c2,4.18,4.4,4.2,7.73,1.39L336,143l1.06-.43,4.42,7.22,1.43-.49c-.49-2.14-1-4.27-1.48-6.48l5.13,5.3,1-.71L345,141.12l.93-.56,5.16,6.27.73-.47c-.24-1.69-.48-3.37-.83-5.88l3.69,4.92.84-.49c-.18-1.12-.36-2.24-.63-4l3.09,2.46c.21-1,.34-1.71.27-1.37,3.06-.09,5.46-.31,7.83-.21,8.57.39,17.13.89,26.08,1.37L377,128c2,4.93,3.66,8.83,5.41,13.07-6.89.54-5.1-7.63-10.11-9.27.76,1.91,1.33,3.36,1.91,4.81l-.87.4L367.53,130l-.36.52c1.1,2.47,2.21,4.93,3.31,7.4l-.86.37-4.93-6-.77.49c.34,1.17.67,2.34,1.2,4.17L362.07,135c-.29.74-.55,1.41-.84,2.13-3.34-3.29-7.87-4-9.62-1.66-4-3.76-7.45-4.14-9.46-2.25l-11.81-2.33,7.1-.82.45-1.51-8.37-3.75c-.08,2.47-.12,3.79-.19,5.84-1.36-2.15-2.31-3.66-3.27-5.16a4.6,4.6,0,0,0-.12,3.5c.2.93.25,1.9.36,2.86l-.61,0-3.23-6.53-1.22.57c1,2.66,2.09,5.32,3,7.61l-13.13.64c.58,2,1.1,3.66,1.62,5.38l-1.15.47L308,133.17c-3-4.73-4.74-10.42-9.93-14.72.61,6.55,5.66,13.57,9.95,14.71l-2.6,4.32-3.83-3.92c.1,2.39.15,3.47.19,4.56-2.22-6.13-6.55-.93-9.55-1.81-.42-.12-1.77,2.87-2.8,4.62-2.05-2.16-.64-7.76-6.54-7.56.57,2.07.95,3.49,1.7,6.23-11.33-18-11.33-18-16-16.91l3.25,4.71-12.94-2.85c.33,1.49.53,2.42.73,3.36-2.36-3.31-5.29-5-9.38-3.58.18,2.13.34,4,.49,5.87-1.08-3.26-1.79-6.92-6.11-6.88l-1.31,1.57Zm186.69,72.14c2.51,2.91,5.12,2.73,8.77-.64a46.81,46.81,0,0,0-6.91-1.9c-.5-.06-1.23,1.79-1.85,2.76-4.92-4.35-9.52.62-14.64.42.8,1.81,1.8,3.72,3.08,3.94s2.93-1.2,5-2.21C434,207,436.77,206.44,437.22,202.43Zm14.48,32.88c-2.13-4.19-5.11-5.24-9.12-2.46,2.33,5.26,4.22,5.73,9.14,2.25.54.82,1.09,1.63,1.64,2.43l-7.2,2.35L455,250.67l1.41-.42c-.15-6.62-.3-13.24-.47-20.36l-6.3.91C450.53,232.71,451.11,234,451.7,235.31ZM170,283.41c3-7.58,9.31-13.82,10.12-23.54-2.76,1.51-4.64,2.25-6.17,3.44-4.75,3.66-9.25,7.64-14.05,11.23-7.49,5.62-10.24,5.62-17.95.69-.18-.11-.59.14-2.05.52,4.89,3.06,5.26,7.38,4,12.13l2.33-.53c.54,21.43,14.43,34.71,27,48.38-10.81-6.85-17.17-18.11-24.68-28.54a59.44,59.44,0,0,0,4.64,11.66c4.81,9.36,15.64,14.52,17.95,25.65,0,.15.19.41.26.41,4.4-.4,5.11,4.35,8.25,6s5.27,5.33,7.88,8.16c.5-.85.91-1.56,1.59-2.74,1.62,3.38,3,6.25,4.51,9.41.7-1.21,1.09-1.88,1.39-2.38,3,1.78.5,8.86,7.19,5.92,1.3,2.85,2.54,5.75,4,8.52.23.44,1.45.37,3.05.71l3.92,6.82.89-.52c-.47-1.61-.93-3.21-1.4-4.81,3.67,5.61,5.18,12.55,11.75,16.21q-2.51-5.39-5-10.78a4.72,4.72,0,0,1,3.77.65c3,2.06,5.81,4.33,8.84,6.29,5.73,3.69,11.55,7.25,17.37,10.82,1.55.95,3.15,2.29,4.85,2.49,8.12.95,16.46,2.18,24.25-.85,4.7-1.83,10.27.77,14.28-3.38.14-.15.65,0,1,.09,5.61,1.61,10.46,0,15.42-2.78,2.11-1.18,5.33-.63,8-.44a20.89,20.89,0,0,1,5.86,1.54c2.64,1,4.74,1.29,5.8-2.1.09-.3,2.17-.39,3,0,2.83,1.34,5.56,2.91,8.28,4.48,1.9,1.09,3.73,2.3,5.58,3.46.25-.34.49-.68.74-1l-4.53-4.28.5-.65,8.21,5.05c-.42-1.41-.71-2.36-1-3.31l.84-1,12,6.62.78-.94-4.45-4.71c2.09.86,4.26,1.61,6.28,2.64,2.18,1.12,4.22,2.5,7,4.17l-4.53.24,17.88,10,.9-1-13-12.17a9.64,9.64,0,0,1,1.9.46c3.84,2.06,7.74,4,11.47,6.29s7.1,4.74,10.64,7.12l-2.64-.09,8.32,10.1,1.41-1.19L397,419.15l14.6,15.29.9-.7-14.05-17.07,1.45-1.12,17.44,21.19c-3.78-8.06-7.47-16.12-11.35-24.07-2.83-5.8-6.71-10.45-13-13.15-9-3.85-17-9.82-27.1-11a5.5,5.5,0,0,1-3.64-3.28c-.31-1,1.38-2.57,2.13-3.92.57-1,1-2.14,1.62-3.12a16.2,16.2,0,0,1,2.27-2.87c1.18-1.14,2.52-2.11,3.91-3.26l2.22,2.41c-.65-5.77,2-7.95,8-8.39,3.29-.25,6.51-1.52,10.25-2.45l2.11,1.89c.71-1.66,1.18-2.77,1.61-3.76l2.81,1.76c-.27-2.77-.47-4.89-.73-7.61l4.4,2.58c.32-1.86.56-3.22.93-5.31l3.57,4.33c-1.51-10.71,4.47-14.83,13-16.35-.07-2.09-.14-3.93-.22-6.45l6.42,3.4c-1.09-2.79-1.62-4.16-2.07-5.3l12.14-9.33,1.12,1.1c-.11-2.05-.22-4.1-.27-5,2.11-.83,3.64-1.09,4.7-1.94a25.33,25.33,0,0,0,3.3-3.94,44.68,44.68,0,0,1,6-6.64c1.1-1,2.47-1.79,3.55-2.84,1.86-1.82,3.25-4.59,5.45-5.53,11.95-5.11,28.8,1.69,34,13.38,3.1,7,6.55,13.85,9.06,21,1.56,4.48,1.77,9.45,2.36,14.23.52,4.23,2.64,8,2.84,12.42.28,6.1,2.43,12.11,2.81,18.22a46.88,46.88,0,0,1-1.41,15.12c-2.31,8.43-5.52,16.62-8.45,24.87a40.43,40.43,0,0,1-3.41,7.72,5.44,5.44,0,0,1-3.88,2.26c-.85,0-2-1.8-2.58-3a36,36,0,0,1-1.68-5.05l-2,.39,3.12,17.46L490,438l-2.1-4.56-1.45.22.63,10.83-1,.05-2.59-4.1c-.85,2.74.24,7.11-5.52,3.23,1.29,3.39,2,5.29,3.26,8.56l-20,8.94c13.6.09,24.44-5.3,30.25-19.05l1.58,2.51,2.78.09q-.7-5.39-1.42-10.76l1.6.16c.23,2.16.47,4.32.7,6.48l3.14.08q-.6-4.85-1.22-9.69l1.12.15c.2,1.56.41,3.12.61,4.67l1.52.26c-.22-5.87-1.89-12.11,3.17-16.46l1.36,3c.59-4.81,1.13-9.19,1.82-14.84,1.23,2.7,1.84,4,2.45,5.34l.78-.26c-.23-3.77-.45-7.54-.71-11.94l2.94,3.57c-.33-3.26-.56-5.53-.85-8.36l4.06,2.29c0-3.8-.09-6.92.15-10,.68-8.77,1.35-17.54,2.32-26.27,1.48-13.19,3.27-26.35,4.76-39.53a16.92,16.92,0,0,0-.7-6.42c-3.2-11.2-6.19-22.49-10.06-33.46-1.34-3.82-.17-9.3-5.61-11.31-.49-.18-.32-1.85-.69-2.74-1.18-2.88-2-6.08-3.85-8.48-2-2.66-5.34-4.33-7.57-6.88-2.61-3-4.65-6.47-6.93-9.74-3.17-4.54-6.27-9.13-9.53-13.59-1.71-2.35-4.58-4.21-5.38-6.77-1.21-3.86-4.62-7.34-2.85-12,.24-.63-.83-1.75-1.73-3.49l-1.6,7.68-13.94-16.94a5.8,5.8,0,0,0-.14,3.61c1.53,7,3.57,13.87,4.48,20.91a213.59,213.59,0,0,1,1.69,25.9,73.11,73.11,0,0,1-2.08,16.76c-2.17,9.27-8.05,16.63-13.88,23.88-7,8.69-14,17.35-17.72,28.1-3.27,9.38-7,18.52-16.47,23.6a9.78,9.78,0,0,0-2.47,2.46c-10.48,12.23-24.58,14.95-39.64,15.11a8.35,8.35,0,0,1-3.4-.73c-9.56-4.27-19.63-7.73-28.49-13.15-14-8.56-27.3-6.46-40.12,1C284.7,352,274.94,360,264.6,366.92c-13.64,9.18-26.72,9-39.58-1.18-7-5.55-12.62-12.85-19.66-18.33-12.84-10-23.79-21.68-34.19-34.08-3.87-4.6-5.8-9.26-4.66-15.05,1-5,2.3-10,3.47-15.06ZM282.88,164.24l1.3-.84,11,7.38c-.18-.82-.4-1.83-.49-2.22,2.19.63,4.44,2.1,6.2,1.65,5.88-1.51,11.53-3.88,17.36-5.6,7.48-2.22,15-4.13,22.58-6.18.05-.5.09-1,.13-1.51-1.46-.25-3.06-1-4.36-.67-4.8,1.26-9.43,3.16-14.24,4.32-13.38,3.23-26.84,4-40.45,1.1-3.17-.68-6.61-.13-10.31-.14,2.82,8.22,7.28,13,10.81,12-1.7-2.73-3.35-5.4-5.3-8.55,5.26,1.1,4.3,9,11.57,7.93C286.41,169.53,284.65,166.88,282.88,164.24Zm-63-31.77,1.51-1.14-18.93-27.25,1.14-.83L225.05,134l1.31-.81a31.38,31.38,0,0,0-1.83-3.78c-5-7.64-10.17-15.2-15.16-22.87-4.83-7.44-5.05-7.6-15-5.38C202.88,112,209,124.16,219.88,132.47ZM107.06,225.25l1.07-.7-15.19-29c-1.3,2.38-.94,11.35.63,13.18.11.12.21.26.33.37,2,1.79,4.2,3.36,5.82,5.42C102.38,218,104.63,221.67,107.06,225.25Zm335.72,48.19c.21-.45.42-.9.64-1.35-1.48-1-3.09-3.12-4.41-3-5.5.69-10.92,2.06-16.54,3.21.9,3.77,2.5,5.2,5.85,4.37C433.11,275.52,438,274.52,442.78,273.44Zm-141.73-165a53.58,53.58,0,0,1,5.77,5.3c1.77,2.16,2.8,4.93,4.61,7,1.2,1.4,3.2,2.14,4.84,3.17C313.9,112.54,309,108.08,301.05,108.48Zm-103.38,61c-1.56-4.71-5.27-4.67-18,.41,1.19,1.2,2.73,2.56,4.07,2.38C188.28,171.65,192.76,170.5,197.67,169.47Zm-34.95-4.87.1-2.34c-1.51-.26-3.08-.9-4.53-.71a103.79,103.79,0,0,0-11.19,2.18c-2,.5-5.63,1.84-5.55,2.31.71,4.25,3.13.71,4.87.76.14,0,.29.27.41.25C152.13,166.25,157.42,165.42,162.72,164.6Zm58.63-62.79c5.47,3.59,10.07,3.16,10.56-.35l5.31,4.5c-1.51-6.8-1.58-7-4.89-6.79-4.73.32-9.44.89-14.71,1.41l4,6.07.77-.41C222.09,105,221.82,103.85,221.35,101.81Zm-1.25,10,1.48-1.09c-3.37-10.12-6.64-12.49-14-9.62l6.59,9.58,1.45-1L212,102.29l.69-.43ZM415.62,316.55c.06,1.69.11,3.1.16,4.54l-5.12,2-.18,1.65c2,.31,4.17,1.29,5.95.81,4.87-1.32,5-6,7.17-10.58ZM291.33,105.77l.95-.64,10.41,14.05c.14-9-9.08-17-15-14.15l4.86,5.91.92-.59C292.74,108.82,292,107.29,291.33,105.77Zm88.4,59.2-5.63-.14c2.72,5.56,5.74,6,11.75,2.64-2.58-5.41-5.66-8.25-8.59-7.61C378.15,161.69,379,163.48,379.73,165ZM283.52,131.9c-1.25-6.53-9.08-15.8-13.13-15.52C275.58,121.49,277.41,128.48,283.52,131.9Zm-41-14.56,1.51-1.56c-1.44-1.74-2.59-4.52-4.38-5-3.38-.94-7.13-.57-11.07-.77C231.21,117.64,238.68,113.34,242.47,117.34ZM453,223.41l-6.33,2.15c1.22,5.16,4.37,4,6.74,2.75,4.52-2.39,1.2-6.21,1.66-10.43l-4.68,2.36ZM130.15,206c-.37-4.29-3.11-5.38-5.74-3.69-2.07,1.33-4,1-6,1.48-1.36.31-2.73.52-4.1.78-.1.5-.19,1-.29,1.52,1.4.56,3.87,1.85,4,1.59,1.85-2.75,4.41-.6,6.52-1.17A33.44,33.44,0,0,1,130.15,206Zm290.48-17c3.38,6.86,3.51,6.88,14.58,2.87l-3.84-3.54-1.6,1.86Zm17.18,93c-2.22-5.74-4.85-6.29-11-2.63C429.19,285,429.21,285,437.81,282Zm-210,61.72c-3.61-3.65-14.82-2.27-19.52,1.85C214.6,346.59,220.5,343.79,227.85,343.72Zm15.09-231.5c2.1,2.55,5,4.49,4.89,6.22-.48,6.62,3.9,3.73,7,4.52C248.08,111.8,248.08,111.8,242.94,112.22Zm-33.72,44.56c1.33,5.06,4.47,5.1,15.53.82C219.48,153.16,214.53,157.77,209.22,156.78ZM161.07,268.17c1.21-1,3.19-2.73,5.27-4.32,3.61-2.74,3.65-2.82-.07-5.59-.73,8.58-9.22,4-13.07,7.7Zm258.65,3.11,9.72-2.21c-2.87-5.21-5.48-6.69-8.57-4.38C419.74,265.54,420.14,268.45,419.72,271.28Zm21.81,14.91-.87-1.62-9.14,1-.54,1.34,6.54,6ZM132.47,247.84c1.29,6.06,1.29,6.06,11.43,2.57l-1.53-3.31Zm-22.42-76.52c0,.65-.08,1.31-.11,2L121.88,172c-2.14-6.41-3-7.23-6.7-6l2.59,3.52Zm246.23-21.41c-.2-.35-.4-.7-.59-1.06a89.78,89.78,0,0,0-8.44,3.17c-.52.25-.63,2.31-.22,3.23.26.61,1.85,1,2.72.88,1.29-.24,2.48-1.07,4.57-2.06a3,3,0,0,1,.3-1.51A18,18,0,0,1,356.28,149.91Zm-185.36,15-.48,1.29c1.53.63,3,1.72,4.6,1.79a12.5,12.5,0,0,0,5.21-1.28c1.06-.45,1.84-1.55,2.75-2.37-1.07-.51-2.21-1.56-3.19-1.42C176.81,163.3,173.88,164.17,170.92,164.87ZM352.3,167.1c-3.53-8.41-4.87-9-12.66-5l6.28.16C347.24,164.5,347.26,168.74,352.3,167.1ZM407,290.51c1.41,5.6,2,5.8,8.82,2.82C415,288.15,413.86,287.78,407,290.51Zm22.28-26.78c1.2,5.86,1.86,6.08,9.13,3.27C436.84,261.88,436.12,261.59,429.29,263.73Zm-175,93.49c5.34,7.45,5.68,8.72,10.23,5.55C257.37,356.09,257.37,356.09,254.33,357.22Zm-66-254.43c-2.94-4-7.71-4.54-17-.51,3.76.56,6.22,1.18,8.68,1.22A78.29,78.29,0,0,0,188.37,102.79ZM452.53,251.62c-1.94-4.13-10.5-3.84-14.46,1.17ZM180.67,161.35c.15-.55.31-1.1.47-1.65-3.53-.71-2.58-8.22-8.85-4.73-.46.26-.76.8-1.53,1.64l3.18.78c.12,1.41.06,3.69.35,3.74A43.66,43.66,0,0,0,180.67,161.35Zm77.67-4.58c1.12,8.34,6.55,4.6,10.06,5.22,1,.17,2.11-.76,4.52-1.72Zm33.2-39.66,1.43-1-8.18-12.25-2.12,1.48C286.25,108.82,286,115,291.54,117.11ZM84,158.17c.48,3,.3,5.07,1,5.38a42.93,42.93,0,0,0,7.17,2.11c.11-1.3.75-3.45.24-3.76C90.15,160.55,87.65,159.74,84,158.17ZM239.1,342.71c-.36.41-.72.83-1.07,1.25.86,1,1.82,3,2.55,3a106.63,106.63,0,0,0,10.68-2.21C247.61,337.81,242.76,345.32,239.1,342.71Zm53-208.37c-2.65-3.67-3.48-9-8.88-10C286.63,127.35,285.43,134.43,292.11,134.34ZM134.44,241.1c-2.32-5.86-4.95-6.45-8.7-2.18C128.37,243,128.37,243,134.44,241.1Zm302.68,34.76c1.59,5.07,3.67,7,7.29,5.28.93-.43,1.11-2.49,1.64-3.81Zm3.4-59.46c4.28,3.72,12.9,1.67,13.41-2.09ZM115.93,195.86c-3.53-7.43-7.63-2-12.12-2.06C107.57,199.69,111.68,195.93,115.93,195.86ZM248.8,165c-3.08-2.23-3.42-8.08-9.9-7.48C241.83,161.63,242.91,166.34,248.8,165Zm16.54-51.7c-1-5.75-5-10.12-8.93-9.1C261.27,105.45,258.22,113.28,265.34,113.29Zm121,217.79c-2.28-1.72-3.49-3.3-4.91-3.53-1.66-.26-3.57.5-5.24,1.16-.83.32-1.35,1.42-2,2.17.9.54,1.82,1.57,2.68,1.53C379.39,332.29,381.92,331.74,386.34,331.08ZM398,146.88l10.25,9.26C409.1,151.39,404.4,146.7,398,146.88ZM230.38,349.41c-1.69-4.61-4.92-4.83-11.08-1.54C222.31,354,226.44,348.1,230.38,349.41Zm190.24-64.15c-2.13-5.88-3.29-6.38-7.58-3.31C415.39,287.5,416.15,287.83,420.62,285.26Zm-207.51,52.4c3,5.13,6.3,2.32,9.1,2,.7-.08,1.29-1.16,1.94-1.78-.81-.63-1.67-1.85-2.43-1.79C219.16,336.31,216.64,337,213.11,337.66ZM89,218.67l.86-.56c-1.59-2.66-3.06-5.42-4.89-7.9-.29-.4-2.39.11-3.28.73-.41.29-.31,2.34.22,2.78C84.09,215.54,86.57,217.05,89,218.67Zm181,141.94c-5.8-5.58-5.8-5.58-8.51-4.64C264.67,362,266.22,362.87,269.92,360.61Zm71.15-24.56c1.91,2.91,4.28,3,9.91.68C349.22,332.86,348.58,332.8,341.07,336.05Zm99.1,104.08c-.84-3.42-1.65-6.79-2.52-10.15,0-.08-.81-.15-.92,0-.6.83-1.71,1.89-1.53,2.58a75.32,75.32,0,0,0,2.83,8.18S438.91,440.49,440.17,440.13Zm12.44-171.67-1-.91-8.38.63c-.2.52-.41,1-.62,1.56,1.51,1.07,3.39,3.31,4.45,3C449.15,272.05,450.79,270,452.61,268.46Zm-57.18,44.36c1.16,5.56,1.83,5.81,8.24,3.1C402.22,311.35,399.4,310.61,395.43,312.82Zm39.93-90.69c.15.82.3,1.64.44,2.46L449,222.15c-.12-.73-.25-1.46-.38-2.19Zm-17.05,84.95c0,4.82,1.24,6.94,4.77,5.74,1.12-.37,1.72-2.27,2.56-3.47Zm9.86-71.52c1.76,5.5,2.06,5.64,7.28,3.31C433.3,233.26,432.88,233.06,428.17,235.56ZM254,165.15c-2-6.26-5.57-9.38-9-7.93C247.72,160,249,164.19,254,165.15ZM446.46,265.51c-1.29-5.38-4.58-4.76-8.46-3.58C439.47,266.4,442,267.74,446.46,265.51ZM213.41,145l1.38-1.57-9.48-8.67c-.61.69-1.22,1.39-1.84,2.08C208.36,137.77,208.09,144.63,213.41,145Zm191,165c1,6.93,1.93,7.25,8.2,3.25ZM407,295.32c-2.05-5.2-2.6-5.44-7.1-3.14C402,297.53,402.39,297.7,407,295.32Zm9.76-8.43c1.47,7,2.94,7.46,9.55,3.16ZM182.49,105.83c3.08,2,2.19,8.66,8.47,6.86C187.46,111.2,188.16,104.75,182.49,105.83ZM335.2,124l-5.61-2.15,1.08-2.54-5.56-2.36C326.52,122.61,328.09,126.1,335.2,124ZM444.64,428.31c1,3.82,1.84,7.1,2.68,10.38a10.17,10.17,0,0,0,2-.72q-.76-4.75-1.86-9.45C447.44,428.35,446.33,428.42,444.64,428.31Zm40.52,3.29,2.31-.17c-.38-3.17-.71-6.35-1.2-9.51-.06-.38-1.18-1-1.46-.87-.62.32-1.48,1.14-1.41,1.63C483.86,425.67,484.55,428.63,485.16,431.6ZM399.61,309.85c-1.14-5.47-4.15-4.34-7.35-3.19C392.6,312.39,395.82,311.08,399.61,309.85Zm32.44-8.68-1.18-2-7.38,2c-.09.53-.18,1.06-.26,1.58,1.36.79,3,2.49,4,2.16C429.06,304.27,430.47,302.47,432.05,301.17Zm2.24-39.54c-1.53-6-4.47-5-7.11-4-.63.24-.8,1.73-1.18,2.64ZM113.64,232c1.5,3.09-2,8.07,3.59,9.82C119.32,237.26,117.79,234.17,113.64,232ZM438,226.84c1.68,5.52,5.12,3.39,8.63,2.81C445,224.94,442,225.43,438,226.84ZM428.06,431.9l-2.52.76c.94,3.2-.13,7.09,3.18,9.49l1.95-.6ZM268,171.88l3.83,4.66.82-.56-.49-2.33,5.07,2.24C275.71,169.7,272.69,169.43,268,171.88ZM143.28,258.34c-1.17-5.08-2.52-5.58-7-2.63C138.32,259.89,138.32,259.89,143.28,258.34Zm8.29-9c-1.47-4.75-2-5-6.78-3.25C146,251.25,146.71,251.6,151.57,249.3ZM321.39,131c-1.25-5.72-1.89-6.24-6.66-5.35C316.49,131.19,316.77,131.42,321.39,131Zm-180.33-8.4c-.35.09,1.05-.14,1-.29a25.82,25.82,0,0,0-.86-6.66c-.52-1.54-2-2.76-3.05-4.12-.49.38-1.46,1-1.39,1.12.59,1.48,1.42,2.85,2.06,4.31C139.58,118.62,140.19,120.34,141.06,122.59ZM448.49,379l-2.79.19c.24,2.67.39,5.35.85,8,0,.27,1.92.21,2.95.31C449.18,384.78,448.86,382.09,448.49,379ZM134.06,209.23c-3.93-3.88-7,.32-10.51-.32C125.46,212.27,128.11,212.34,134.06,209.23Zm285.63,86.3c2.88,5.22,6.17,2.36,9.71,1.66C426.63,292.43,423.39,294.92,419.69,295.53ZM189.33,149.18c-2.53-5.55-6-.59-9-1.17C182.79,152.68,186.39,148.51,189.33,149.18ZM409.87,296.82c3.28,4.54,4.87,4.55,9-.32ZM191,130.15l-.8,1c4.36,6.5,4.36,6.5,9.36,5.07Zm6-20.25c-1.17-4-2.59-7.76-5.8-10.13L189.6,101Zm-75.49,86.27,1.3-2.92-6.19-2.82c-.23,1.11-1,3-.62,3.19A38.38,38.38,0,0,0,121.44,196.17Zm238.79,136a55.64,55.64,0,0,0-6.81,1.24c-.36.12-.21,1.87-.3,2.87a38.17,38.17,0,0,0,6-.25C359.53,335.92,359.67,334.15,360.23,332.14Zm86.61-72.76-1.17,2.94,5.92,2.68c.3-1.09,1.08-3,.82-3.15A42.82,42.82,0,0,0,446.84,259.38Zm-49-98.12c1.57,4.23,4,4.77,7.61,2.84C403.94,160.62,402.1,158.59,397.83,161.26ZM300.57,133.4l1.57-1.14c-1.34-3-1.36-7.08-7.12-6.57ZM426.76,242.94c2.07,5.91,3,6.63,7.26,5.43C429.84,248.67,433.51,239.94,426.76,242.94ZM139.7,176.41c2,6,5.24,2.91,8.28,1.63C146,173.18,142.86,175.69,139.7,176.41Zm122.68-56,1.2-1.33c-1.69-5.71-1.84-5.83-7.31-4.91ZM439.52,246.82c-1.4-6.66-2.57-7.13-8.45-3.41Zm57.13,173.61,1.54.27a39.17,39.17,0,0,0,1.9-6.45c.09-.62-1.62-1.48-2.5-2.23-.63.79-1.8,1.59-1.8,2.38A40.35,40.35,0,0,0,496.65,420.43ZM396.16,303.68c-1.09-4.5-1.18-4.53-6.32-2.55C390.65,305.39,391,305.52,396.16,303.68Zm41-71.38c.28-.65.56-1.31.83-2-1.23-3.73-3.52-4.06-7.11-.43Zm-29,137.75a63.57,63.57,0,0,0,1.39,7.46c.11.38,2,.24,3,.34a68.2,68.2,0,0,0-1.08-6.87C411.39,370.57,409.89,370.51,408.16,370.05Zm-1.81-61.78.69-1.91-7.16-2.57C400.62,309.81,403,310.14,406.35,308.27ZM160.25,118.66l-.05-1.46c-4.28-2.06-8.47-1.45-10.45,2.45ZM394.44,317.78c-1.24-4.85-1.35-4.92-5.57-3.62C389.87,319.54,390,319.61,394.44,317.78Zm-245.56-164c1.44,4,1.92,4.11,7.48,1.4C155.73,153.06,155.73,153.06,148.88,153.74ZM409.43,327.15c-1.39-5.72-4.26-4.12-6.59-3.4-.57.17-.72,1.7-1.06,2.61Zm-3.3-5,.35-2.21c-2.29-3.36-5-1.1-7.61,0l-.15,1.81ZM237.9,121.25l-1.58,2.34,6.2,4.2,1.46-2.06Zm188.17,74.6c0,1.09-.07,2.19-.11,3.29a61,61,0,0,0,6.2-.11c.3,0,.44-1.53.66-2.34Zm-3,56.43-.18,2.13c2.32,2.51,4.8,2.22,7.38.22.06-.55.11-1.1.16-1.65Zm13.69-36.87c-2.15-4.9-4.85-2.76-7.78-2C430.62,218.21,433.53,215.84,436.75,215.41ZM109,148.74c-2.16,3.32-4.21,6.47-6.27,9.62C107.89,156.35,110.32,152.09,109,148.74Zm10,74.14-3.16-3.51-2.43,2.57-2.23-1.84C111.7,226.69,115.74,223.14,118.93,222.88ZM253.5,351.7l.76-1.81c-1.21-4-3.68-3.66-7.09-.32Zm194.62-93.24.57-2.15c-1.64-3.63-4.21-2.48-7.21.62Zm50.46,145,1.56-.09a59.62,59.62,0,0,0-.21-6.28c0-.35-1.5-.53-2.31-.79,0,1.86,0,3.73.14,5.59C497.8,402.42,498.3,402.92,498.58,403.45ZM385.2,163.76c1.4,2.93,2.81,5.1,6.73,2.65C390.57,163.31,389.29,160.84,385.2,163.76Zm-90.64,13.6.39-2.09c-2.49-3.33-5.45-.28-8.22.17l-.12,1.77Zm147.3,82.19c-1.73-4.69-4-4.59-6.39-3.29-.47.25-.32,1.64-.46,2.5Zm-288.06-2,1-1.65c-1.47-4.6-1.47-4.6-7.2-2.26ZM271.37,119.28l-5.77-5.37-1.25,1.39C265.36,118.23,266.38,121.16,271.37,119.28Z"/><path d="M557.66,642.49q-9.31-22.4-18.64-44.77l1.17-.49,18.71,44.66Z"/><path d="M510.31,560.85q11.8,20.32,23.59,40.66l-1.79,1c-2.52-4.95-4.9-10-7.59-14.84-4.49-8.12-9.19-16.13-13.73-24.22a7.57,7.57,0,0,1-.4-2.57Z"/><path d="M477.7,499.52q12.75,18.13,25.51,36.25l-1,.73q-12.76-18.11-25.52-36.23Z"/><path d="M510.39,560.89c-4.2-6.32-8.46-12.61-12.58-19-5.19-8-10.27-16.13-15.4-24.2l1.16-.72q13.35,21.93,26.72,43.86Z"/><path d="M486.11,501.5c5.39,1.48,10.83,2.89,12.4,10.35l-13.26-9C485.54,502.39,485.83,502,486.11,501.5Z"/><path d="M498.84,521c6.47-2.05,8,4.1,12.16,6l-.74,1.2Z"/><path d="M568.72,624l-2.82-.65,4.74,4.35L569.35,629l-8.21-8.21,1.11-1.45,7,3.59Z"/><path d="M568.08,668.36A13.8,13.8,0,0,1,583,673.74Z"/><path d="M542.93,585.72c5.72,1.38,8.79,4.55,7.51,9.12Z"/><path d="M544.65,584.15l-6-5.5,1.17-1.3c2.85.86,6.45.81,6.33,5.19Z"/><path class="cls-1" d="M194.1,312.67l-3.93-2.75c1.24-.5,2.47-1.05,3.74-1.49a89.51,89.51,0,0,0,10.51-4l-11.2,1.25c-.14-.63-.29-1.27-.44-1.91l14.89-3.49c-.11-.57-.22-1.13-.34-1.7l-15.93,2.6c-.08-.34-.17-.68-.25-1l4.74-2.12-7.41-1.19c.11-.51.22-1,.32-1.53l12.13-1.84c0-.21,0-.41,0-.61l-9.24-.8c0-.58,0-1.15,0-1.73l6.5-2.32a7.07,7.07,0,0,0-1.79-.39c-6.52,1.13-9.44-.21-9.24-6.54.1-3.26-3-4.61-2.25-8,.45-1.93-2.16-4.57-3.56-7.2l6.47-2.33a18.64,18.64,0,0,1-2.71-.68c-.89-.42-1.73-1-2.58-1.45.81-.64,1.53-1.58,2.46-1.86a60.94,60.94,0,0,0,7-2.14c-6.24-3.55-12-2.39-18.71,1.7.17-2.92.3-5.06.41-7.1l-4.8-1.7,1.61-2.77L157,240.43l3.82,7.19-1,.91a20.06,20.06,0,0,1-3.22-3.23c-3.55-5.75-5.71-6.52-12.63-5.66-1.85.22-3.95-1.59-5.94-2.46.13-.63.25-1.26.37-1.89l9.7-2.22c-.07-.48-.15-1-.22-1.45l-10.61,1.85c-.07-.33-.15-.67-.22-1l5.51-1.81c-.07-.41-.13-.82-.19-1.24-3.48.54-7,.94-10.42,1.66-2.69.55-5.28,1.43-6.16-2.69l14.43-3.93-.06-.69-11.66,1.16-.21-1.1,6.94-1.74-6.43-3.74.54-1.39,5-1.46,0-.77-7.19.26c0-.43-.07-.85-.1-1.28l11.86-2.39L130.34,203l1.08-1.17,5.06,5.58.36-.28-7.06-11.33,5.09-1.78-6.28-8.85L130,184,142.2,198.8l1.42-1.11-10.81-13.12,1.54-1.65,5.89,4.52c-.78-1.78-1.32-3-1.85-4.23l.91-1.19,6,3.73c-.45-1.28-.9-2.54-1.34-3.8l.73-1.14,4.38,2.46,3.63-3.91,4.89-1.76,17.88-1.17,3.11,3.77c-.61-2.1-1-3.44-1.55-5.36,5.33-.85,10.34-1.57,15.33-2.45,5.4-.95,10.82-1.89,16.16-3.14,3.24-.75,5.9-.91,7.75,2.74,0-1.28-.1-2.56-.19-4.82l4.83,2.17c1.08-3.3,3-4.06,5.48-1,4.3-6,5.05,1.15,8,1.94-.53-1.63-1-3.05-1.29-3.95,7.28-6.57,10,1.47,12.88,3.38,3.62-1.23,6.08-2.6,8.62-2.74,1.64-.09,3.38,1.61,5.92,3l-7.43,2c4.34,1.72,9.84-1.77,12.2,5.24l-6.47,2.08c6.2,3.31,9.39,8.6,7.38,12.49l10.25,2.59-11.63-14.13c3.72-2.82,4.55-2.68,7.66.76a4.67,4.67,0,0,0,3.7,1c4.08-.7,8.09-2.42,12.15-2.51,7.94-.17,15.32-3.43,23.47-3,5.4.26,10.91-2.88,16.47-4,2.23-.45,4.85,1.06,7.07.6,5.46-1.15,10.76-3.05,16.19-4.37,2-.49,4.23-.19,6.74-.26-1.42-3.43-3.05-7.39-4.69-11.34l1.36-.85c4.76,3,5,9.73,10.31,14.23l-2.55-7.14,1.09-.56,7.75,12.36,2.42-3.33-.19,0c1.91,1,3.82,1.94,5.68,2.9-.09-.51-.3-1.69-.79-4.52,2.39,1.35,4.57,1.85,4.85,2.87.91,3.34,2.29,3.45,5.31,2.42,2.51-.86,5.8.37,8.16-.67,4.38-1.93,7.54-1.69,10.07,2.58,0,0,1.8-1,2.74-1.47h-.22a61.84,61.84,0,0,1,6.82.22,15.61,15.61,0,0,1,3.85,1.57c-.16.53-.32,1.06-.47,1.59l-14.07,3.21.21,1L421.93,181c.11.51.23,1,.35,1.52l-8.74,2.22c3.94,3.19,8.39-2.57,12.3,2l-7.75,2.71,3.93,5.72L415.53,197c2.27,3.08,4.72,6.19,6.94,9.47s4.14,6.65,6.92,11.16c-9.72-.36-9.16-10.2-15-12.78,4,6.87,8.13,13.79,12.5,21.22l-3.91,2.58.09-.06-3.57-6.8-1.42.78,10.14,17.32-.54,1.31-6.51-2.35,4.67,8-12.18,3.44.13.29-5.52-.2,10.64,19.82c-3.8,2-4.16,1.7-6.68-3.76a31.68,31.68,0,0,0-5.33-8.41l9.62,20.7c-2.82,1.09-4.81,1.53-5.87-2a12.14,12.14,0,0,0-4-5.63q1.67,4.61,3.34,9.23l-1.05.14,4.82,5.84c-6.56,3.49-8,3-10.74-2.59a65.32,65.32,0,0,0-7.09-11.45l7.23,16.22c-3.15,2.23-5.08,2-6.7-1.61a108.47,108.47,0,0,0-5.62-9.79l-1.23.65c.86,1.57,1.41,3.47,2.64,4.65,3.49,3.33,2.91,8.87,6.77,12,.38.31-.26,1.89-.43,2.88-1.25-.42-3.11-.46-3.65-1.32-2.16-3.49-3.92-7.24-6.49-10.58,1.71,4.05,3.41,8.11,5.66,13.43l-8.39-.79,3.19,7.22-6.71-1-4.49,3.69c4.67,2.68,7.3,9.61,5.36,13.23h.17c-1-1.41-2.06-2.77-2.92-4.24a44,44,0,0,1-1.88-4.06l-1.21.53c1,2.35,1.94,4.7,3.16,7.69L375.25,319l2.64,7.45a33.93,33.93,0,0,1-5.44,1.56c-7.32.93-14.65,1.65-22,2.47-.44.05-1.07.18-1.25.49-2.52,4.18-4.47,1.2-6.48-.6-1.35,3.69-2.84,4.1-4.65,1.33a15.14,15.14,0,0,0-2.58-3.66c.63,1.7,1.25,3.41,1.88,5.1-3.25,1.17-3.34,1.23-6.74-3.9-1.56-2.36-2.68-5-5-7q3.25,6.1,6.53,12.2l-1.53,1.09-8.74-11.76c3.74,5.86,3.82,14.65,13.24,16-13.21.57-15.08-11.76-22.12-18.35L321.79,337c-2.83,1.25-4,1-5.57-1.77-3-5.24-7-9.91-10.51-14.82l-1.1.71L315,336.7c-6.88-2.19-10.37-7.63-14.58-12.58L310,337.77c-3.72,1.29-7.23,2.83-10.89,3.58-1.27.26-3.27-1.1-4.36-2.27-2.82-3-5.32-6.33-8.81-8.9,2.5,3,5.11,6,7.45,9.17.76,1,1.52,2.92,1.06,3.77a4.85,4.85,0,0,1-3.66,2.16c-1,0-2.28-1.54-2.9-2.69-3.44-6.38-6.71-12.86-10-19.3l-1.21.62c1.72,3.15,3.57,6.24,5.11,9.48a94,94,0,0,1,4.58,11c.39,1.19-.55,2.81-.87,4.24-1.23-.57-2.77-.85-3.63-1.77-2.47-2.64-4.67-5.55-7.4-8.13,1.14,2.07,2.27,4.15,3.4,6.21-5.34,3.3-7.18,2.89-9.71-2.33-1.7-3.48-3.13-7.09-4.68-10.64l-1.3.59,6.9,14.75c-8.7,4-7.06-6.32-12-7.44,1.66,2.9,3.27,5.7,4.86,8.46-5.05,3.71-5.59,1.36-9.89-5-2.53-3.74-4.63-7.78-6.92-11.69l-1.12.61c1.09,2.22,2.17,4.45,3.25,6.67-3.55,1.75-3.55,1.75-9.6-4.8l3.16-3.52c-8.35,1.65-15.54,3.13-22.77,4.46-2.85.52-6.09,1.54-7.52-3.49l25.94-5.42-.25-1.21c-6.61,1.17-13.21,2.47-19.85,3.47-2.72.41-5.59-.13-8.27.38-3.08.58-6,2.21-9.05,2.68-2,.31-4.2-.63-6.3-1,0-.71,0-1.43,0-2.15L205,324.47l21.7-3.14c-.13-.64-.26-1.29-.38-1.94L205,324.64l-12.24.78-.33-1.86,32.77-7c-.08-.42-.15-.83-.22-1.24l-27.43,4.47-.31-1.36,22.8-4.51c-.09-.4-.17-.81-.26-1.22-7.44,1.25-14.89,2.48-22.33,3.74-3.37.57-5.45.09-3.37-3.95l17-1.82-.33-1.89Zm85.16-96.78c1-5.72-3.42-6.79-6.87-8.68l-1.07,1c2.71,2.56,5.42,5.11,8.09,7.66l-2.82-.12,2.15,3.13-3,.54,5.78,3.73,1.08-1ZM337.39,253l5.33,2,2.9-11.73-9.66,3C336.5,248.84,337.05,251.41,337.39,253Zm20,28.59c-.87,4.74-6.19,9-1.48,14.5-.06-4.36.47-7.79,6.16-6.86-.86-4.22-1.6-7.9-2.34-11.58l-1.13.18c.36,2.73.73,5.46,1.09,8.19l-1.15.1C358.12,284.61,357.74,283.1,357.36,281.59Zm-4.85-41.33c1.68-.65,5-1.19,5.16-2.15.33-2.6-.7-5.39-1.19-8.1C354.29,233.42,348.9,235.15,352.51,240.26Zm38.07-29.47L387,197.71l-1.82.42c.56,4.67,1.12,9.33,1.68,14ZM217.43,278.22c5.11-1.17,10.56,2.9,15.51-.67C227.74,277.3,222.32,273.65,217.43,278.22ZM200.55,263l-.44-.67-10,3.73c6.61,3.5,10.66,3.19,15.26-1.44l-9.27,2.55L195.7,266ZM372.2,279.91c3-1.55-.61-5.4,3.8-5.88l-1.56-8.44-2.08.13Q372.29,272.81,372.2,279.91ZM239,283.05l.18,2.17,15-.78c0-.44,0-.89,0-1.33-1.4,0-2.81-.18-4.21-.11s-3.08.31-4.74.49l.47-2.62ZM194.8,236.36c-3.11-5.27-4-5.36-7.14-.83l5.27,5.53.64-.52c-.46-1.24-.91-2.48-1.38-3.79ZM366,216.78l-1.43.57,6.37,18.21,1.31-.48Zm28.66-13.59,1.15-.54-1.32-6,3.14,2.08,1.1-4.29-8,.72C392.19,198.15,393.43,200.67,394.66,203.19Zm-21.53,14.65h-1.92c-.31,2.17-1,4.4-.71,6.5.1.74,2.53,1.18,3.89,1.75l.92-1.14Q374.23,221.4,373.13,217.84Zm-189,22.92-1,.73,7.6,11.56,1.41-1Zm95.53-37.3,1-1.25L268,193.68l-1,1.41Zm105,4.23-2.6-.21q0,4.92-.07,9.84l2.41,0C384.42,214.13,384.5,210.91,384.59,207.69ZM192.13,246.25l1.14-.78L185.44,236l-.57.48Zm110.39,90.91.65-.77-6.77-8.22-.74.65Zm87.42-141-1.48.48q2,6.21,4,12.42l1.28-.41Z"/><path class="cls-1" d="M397.18,419.19c-3.54-2.39-7-4.92-10.64-7.13s-7.63-4.23-11.47-6.29a9.64,9.64,0,0,0-1.9-.46l13,12.17-.9,1-17.88-10,4.53-.24c-2.77-1.67-4.81-3.05-7-4.17-2-1-4.19-1.78-6.28-2.64l4.45,4.71-.78.94-12-6.62-.84,1c.28.95.57,1.9,1,3.31l-8.21-5.05-.5.65,4.53,4.28c-.25.33-.49.67-.74,1-1.85-1.16-3.68-2.37-5.58-3.46-2.72-1.57-5.45-3.14-8.28-4.48-.87-.42-3-.33-3,0-1.06,3.39-3.16,3.11-5.8,2.1a20.89,20.89,0,0,0-5.86-1.54c-2.68-.19-5.9-.74-8,.44-5,2.78-9.81,4.39-15.42,2.78-.31-.1-.82-.24-1-.09-4,4.15-9.58,1.55-14.28,3.38-7.79,3-16.13,1.8-24.25.85-1.7-.2-3.3-1.54-4.85-2.49-5.82-3.57-11.64-7.13-17.37-10.82-3-2-5.87-4.23-8.84-6.29a4.72,4.72,0,0,0-3.77-.65q2.52,5.38,5,10.78c-6.57-3.66-8.08-10.6-11.75-16.21.47,1.6.93,3.2,1.4,4.81l-.89.52-3.92-6.82c-1.6-.34-2.82-.27-3.05-.71-1.45-2.77-2.69-5.67-4-8.52-6.69,2.94-4.23-4.14-7.19-5.92-.3.5-.69,1.17-1.39,2.38-1.52-3.16-2.89-6-4.51-9.41-.68,1.18-1.09,1.89-1.59,2.74-2.61-2.83-4.71-6.5-7.88-8.16s-3.85-6.41-8.25-6c-.07,0-.22-.26-.26-.41-2.31-11.13-13.14-16.29-17.95-25.65a59.44,59.44,0,0,1-4.64-11.66c7.51,10.43,13.87,21.69,24.68,28.54-12.54-13.67-26.43-27-27-48.38l-2.33.53c1.28-4.75.91-9.07-4-12.13,1.46-.38,1.87-.63,2.05-.52,7.71,4.93,10.46,4.93,17.95-.69,4.8-3.59,9.3-7.57,14.05-11.23,1.53-1.19,3.41-1.93,6.17-3.44-.81,9.72-7.1,16-10.12,23.55l-.9-8.29-1.12-.12-5.75,19.91c4.17-3.19,2.07-9.69,7.8-11.7-1.17,5-2.47,10-3.47,15.06-1.14,5.79.79,10.45,4.66,15.05,10.4,12.4,21.35,24.08,34.19,34.08,7,5.48,12.66,12.78,19.66,18.33,12.86,10.2,25.94,10.36,39.58,1.18,10.34-7,20.1-14.88,30.85-21.13,12.82-7.45,26.13-9.55,40.12-1,8.86,5.42,18.93,8.88,28.49,13.15a8.35,8.35,0,0,0,3.4.73c15.06-.16,29.16-2.88,39.64-15.11a9.78,9.78,0,0,1,2.47-2.46c9.51-5.08,13.2-14.22,16.47-23.6,3.75-10.75,10.72-19.41,17.72-28.1,5.83-7.25,11.71-14.61,13.88-23.88a73.11,73.11,0,0,0,2.08-16.76,213.59,213.59,0,0,0-1.69-25.9c-.91-7-2.95-13.94-4.48-20.91a5.8,5.8,0,0,1,.14-3.61l13.94,16.94,1.6-7.68c.9,1.74,2,2.86,1.73,3.49-1.77,4.68,1.64,8.16,2.85,12,.8,2.56,3.67,4.42,5.38,6.77,3.26,4.46,6.36,9.05,9.53,13.59,2.28,3.27,4.32,6.75,6.93,9.74,2.23,2.55,5.53,4.22,7.57,6.88,1.85,2.4,2.67,5.6,3.85,8.48.37.89.2,2.56.69,2.74,5.44,2,4.27,7.49,5.61,11.31,3.87,11,6.86,22.26,10.06,33.46a16.92,16.92,0,0,1,.7,6.42c-1.49,13.18-3.28,26.34-4.76,39.53-1,8.73-1.64,17.5-2.32,26.27-.24,3.09-.11,6.21-.15,10L512.84,396c.29,2.83.52,5.1.85,8.36l-2.94-3.57c.26,4.4.48,8.17.71,11.94l-.78.26c-.61-1.32-1.22-2.64-2.45-5.34-.69,5.65-1.23,10-1.82,14.84l-1.36-3c-5.06,4.35-3.39,10.59-3.17,16.46l-1.52-.26c-.2-1.55-.41-3.11-.61-4.67l-1.12-.15q.62,4.85,1.22,9.69l-3.14-.08c-.23-2.16-.47-4.32-.7-6.48l-1.6-.16q.7,5.37,1.42,10.76l-2.78-.09-1.58-2.51c-5.81,13.75-16.65,19.14-30.25,19.05l20-8.94c-1.25-3.27-2-5.17-3.26-8.56,5.76,3.88,4.67-.49,5.52-3.23l2.59,4.1,1-.05-.63-10.83,1.45-.22L490,438l1.23-.21-3.12-17.46,2-.39a36,36,0,0,0,1.68,5.05c.59,1.21,1.73,3,2.58,3a5.44,5.44,0,0,0,3.88-2.26,40.43,40.43,0,0,0,3.41-7.72c2.93-8.25,6.14-16.44,8.45-24.87A46.88,46.88,0,0,0,511.49,378c-.38-6.11-2.53-12.12-2.81-18.22-.2-4.45-2.32-8.19-2.84-12.42-.59-4.78-.8-9.75-2.36-14.23-2.51-7.19-6-14.05-9.06-21-5.19-11.69-22-18.49-34-13.38-2.2.94-3.59,3.71-5.45,5.53-1.08,1-2.45,1.8-3.55,2.84a44.68,44.68,0,0,0-6,6.64,25.33,25.33,0,0,1-3.3,3.94c-1.06.85-2.59,1.11-4.7,1.94.05.87.16,2.92.27,5l-1.12-1.1-12.14,9.33c.45,1.14,1,2.51,2.07,5.3l-6.42-3.4c.08,2.52.15,4.36.22,6.45-8.56,1.52-14.54,5.64-13,16.35l-3.57-4.33c-.37,2.09-.61,3.45-.93,5.31l-4.4-2.58c.26,2.72.46,4.84.73,7.61l-2.81-1.76c-.43,1-.9,2.1-1.61,3.76l-2.11-1.89c-3.74.93-7,2.2-10.25,2.45-6,.44-8.6,2.62-8,8.39L372.18,372c-1.39,1.15-2.73,2.12-3.91,3.26a16.2,16.2,0,0,0-2.27,2.87c-.63,1-1.05,2.1-1.62,3.12-.75,1.35-2.44,2.94-2.13,3.92a5.5,5.5,0,0,0,3.64,3.28c10.09,1.22,18.14,7.19,27.1,11,6.28,2.7,10.16,7.35,13,13.15,3.88,7.95,7.57,16,11.35,24.07l-17.44-21.19-1.45,1.12,14.05,17.07-.9.7L397,419.15Zm-115.59-46,22.34,15.39.84-1.2-9.13-6.24.58-.91,9.38,5.31.54-1.08C298.43,380.12,293.07,371.24,281.59,373.16Zm3.74,16.7.3-.91L269.15,377.4c-2,4-.3,5.67,2.21,7.24,3.49,2.19,6.84,4.62,10.28,6.9.33.21.89.06,1.44.09-.47-.92-.86-1.66-1.49-2.87ZM168.42,316.17l-1.09,1.07c1.35,1.64,2.69,3.3,4.07,4.92.65.77,2,1.46,2,2.19.08,6.3,5.24,7.31,9.5,9.4a32.2,32.2,0,0,0-4.68-8c-.68-.9-2.49-1.43-2.56-2.22C175.29,318.83,171.2,318.22,168.42,316.17Zm183.46,79.57-7.15-7.43c-.16,1.33-.23,2-.38,3.19-3-3.1-4.8-7.58-10-4.46C339,392.21,343.38,397.32,351.88,395.74ZM226.3,380c5.32,7.86,12.82,10.73,20.7,12.94l1-1.81Zm91.75-19.45-1.36,1.88,23.82,15.73.91-1.34Zm-107.21,10,12.25,11.73c.46-.48.92-1,1.37-1.46l-20-17.72-.64.45,5.42,8.94ZM517,322.19c-4.24,11.76-4.24,11.76,1.81,13.67ZM324,360.06l-1.08,1.57,24.59,16.68.77-1.13Zm-13.29-5.26.31-.69-4.46-2.32.31-.89,15.85,3.45c-3.24-3.31-14.61-6.25-17.43-4.54-.95.58-1.13,2.43-1.83,4.09Zm-13.68,10.3-.93,1.39,20.3,14.08,1.22-1.84Zm63.67,13.61c.33-.51.67-1,1-1.51l-23-15.44-.85,1.26Zm-53.52-16-.89,1.19,25.5,17.36.79-1.16ZM274.88,376l-1.35,1.94,17.39,11.49.86-1.29ZM476.42,269.91c1.92-11.34,1.43-13.64-2.95-17.13l4.65,10.74-1.2.55-2.58-4.44-.86.37ZM297,388.35l.83-1.2-17.86-12.42-1,1.38ZM323.55,387l-.91,1.83c3.74,2.45,6.56,6.76,11.9,6l.75-1.4Zm.11-6.47.8-1.2-18.07-12.23-.86,1.28Zm-46.05,13.37c.23-.45.47-.9.7-1.36l-13.22-9.36c-.38.55-.75,1.11-1.12,1.66ZM292,368.49l-.79,1L308,381.16l.78-1.05c-.74-.58-1.45-1.21-2.22-1.73Q299.28,373.42,292,368.49ZM152.64,297.2l2.07-1,.92-8.34-1.55-.31c-.58,2.1-1.17,4.19-1.91,6.84-.68-2-1.13-3.32-1.59-4.64l-1.57.82Zm363.14,14.29-7.09-11.89C509,309.21,509.82,310.85,515.78,311.49Zm-322.27,49,.84-.43-7.88-14.55-1.77,1Zm277.93-95.18-1.11,9.37,2.11.21C477.18,272,473,268.6,471.44,265.28ZM362.31,398l1.72-1.86L353.34,388l-1,1.08ZM384,409.26l1.37-.9L378.53,397l-1.44.89Zm-24.07-36,1.13-1.56-13.28-7.83-.68,1.08ZM161.84,283.14l-1.57-.47q-1.92,6.33-3.85,12.66l1.77.52Q160,289.51,161.84,283.14Zm318.92-23.58c-1.28-4.91-2.23-10.08-7.43-12.62Zm-19.69,8.14-2-.07q-.3,6.48-.58,13l1.66,0Q460.6,274.13,461.07,267.7ZM337.54,381.45l.83-1.19-16.05-10.78-.51.73ZM476.62,240.27l-1.06.53,5.61,11.47,1.34-.68Q479.56,245.94,476.62,240.27Z"/><path class="cls-1" d="M271.35,132.92c-2.33-.94-4-3.92-7.38-2-.65.37-2.91-2.09-4.42-3.24l0,.2c-.2-.93-.4-1.86-.73-3.35l12.94,2.85-3.25-4.71c4.71-1.09,4.71-1.09,16,16.91-.75-2.74-1.13-4.16-1.7-6.23,5.9-.2,4.49,5.4,6.54,7.56,1-1.75,2.38-4.74,2.8-4.62,3,.88,7.33-4.32,9.55,1.81,0-1.09-.09-2.17-.19-4.56l3.83,3.92,2.6-4.32h0l3.59,6.88,1.15-.47c-.52-1.72-1-3.43-1.62-5.38l13.13-.64c-.9-2.29-2-4.95-3-7.61l1.22-.57,3.23,6.53.61,0c-.11-1-.16-1.93-.36-2.86a4.6,4.6,0,0,1,.12-3.5c1,1.5,1.91,3,3.27,5.16.07-2.05.11-3.37.19-5.84l8.37,3.75-.45,1.51-7.1.82,11.81,2.33c2-1.89,5.42-1.51,9.46,2.25,1.75-2.38,6.28-1.63,9.62,1.66.29-.72.55-1.39.84-2.13l3.05,1.91c-.53-1.83-.86-3-1.2-4.17l.77-.49,4.93,6,.86-.37c-1.1-2.47-2.21-4.93-3.31-7.4l.36-.52,5.82,7.07.87-.4c-.58-1.45-1.15-2.9-1.91-4.81,5,1.64,3.22,9.81,10.11,9.27-1.75-4.24-3.37-8.14-5.41-13.07l15.1,15.15c-8.95-.48-17.51-1-26.08-1.37-2.37-.1-4.77.12-7.83.21.07-.34-.06.33-.27,1.37l-3.09-2.46c.27,1.73.45,2.85.63,4l-.84.49-3.69-4.92c.35,2.51.59,4.19.83,5.88l-.73.47-5.16-6.27-.93.56,2.59,6.24-1,.71-5.13-5.3c.5,2.21,1,4.34,1.48,6.48l-1.43.49-4.42-7.22L336,143l2.84,7.44c-3.33,2.81-5.76,2.79-7.73-1.39a57,57,0,0,0-4.21-6.6l-1.1.53q2.26,4.9,4.52,9.8l-1.06,1.11-6.82-5.71,3.3,6c-7.53,1.73-7.09-6-12.27-8.93,2,3.67,3.43,6.2,4.82,8.73l-1,.92-8.24-8.71-.91.4,3.54,7.06-.44.34-6.56-8-1,.75c1,1.41,2,2.86,3,4.2s2.5,2.8,4.07,4.55c-3.84.7-3.84.7-12.6-7.31l5.57,8.35-.86.83-9.73-9.8-.85.59,6,8.22-.82,1.12-7.33-5.58,3.37,5.71-7,.41c-.08-.32-.16-.65-.23-1l2.25-1.45-6.16-7.47-.8.4,2.38,4.92-.45.68-6-4.42-.45.5,5.36,6.51c-6.26,2.17-9-2.24-13-6.88.34,2.67.48,3.79.8,6.41l-7.83-8.34-1,.52,3.26,6.77c-9.13-.66-17.19-2.24-22.55-10.72l-.85,1.24.51,1.61c.14.43.27.86.41,1.31-.44.1-.86.33-1,.21-8.73-5.39-16.76-12-26.89-14.93-1.07-.31-1.89-1.53-2.83-2.33.2-.4.4-.81.61-1.21l19.31,8.14-15.56-25.12,1.53-1.09,17.59,24.84.7-.37c-.44-1.26-.89-2.53-1.34-3.79l1.11-1c1.44,1.6,3,3.12,4.28,4.81,1.78,2.3,3.08,4.41,6.94,4.07,4.52-.4,9.45-.12,13,4.16.65-1.24,1.28-2.43,1.92-3.66l-4.24-2.32c5.13-3.21,13.36-.89,16.54,3.72.35-1.58.84-3.75,1.33-5.91l4.44,3.8,1.26-1.24c-2.25-2.73-4.45-5.49-6.84-8.09C273.86,131.19,272.27,132.37,271.35,132.92Z"/><path class="cls-1" d="M282.88,164.24c1.77,2.64,3.53,5.29,5.77,8.64-7.27,1.08-6.31-6.83-11.57-7.93,1.95,3.15,3.6,5.82,5.3,8.55-3.53,1.06-8-3.75-10.81-12,3.7,0,7.14-.54,10.31.14,13.61,2.94,27.07,2.13,40.45-1.1,4.81-1.16,9.44-3.06,14.24-4.32,1.3-.35,2.9.42,4.36.67,0,.51-.08,1-.13,1.51-7.53,2-15.1,4-22.58,6.18-5.83,1.72-11.48,4.09-17.36,5.6-1.76.45-4-1-6.2-1.65.09.39.31,1.4.49,2.22l-11-7.38Z"/><path class="cls-1" d="M219.88,132.47c-10.85-8.31-17-20.52-25.54-31.31,10-2.22,10.2-2.06,15,5.38,5,7.67,10.14,15.23,15.16,22.87a31.38,31.38,0,0,1,1.83,3.78l-1.31.81L203.6,103.25l-1.14.83,18.93,27.25Z"/><path class="cls-1" d="M451.7,235.3c-.59-1.29-1.17-2.59-2-4.5l6.3-.91c.17,7.12.32,13.74.47,20.36l-1.41.42-8.88-10.79,7.2-2.35c-.55-.8-1.1-1.61-1.64-2.43Z"/><path class="cls-1" d="M107.06,225.25c-2.43-3.58-4.68-7.3-7.34-10.7-1.62-2.06-3.86-3.63-5.82-5.42-.12-.11-.22-.25-.33-.37-1.57-1.83-1.93-10.8-.63-13.18l15.19,29Z"/><path class="cls-1" d="M442.78,273.44c-4.82,1.08-9.67,2.08-14.46,3.27-3.35.83-4.95-.6-5.85-4.37,5.62-1.15,11-2.52,16.54-3.21,1.32-.16,2.93,1.91,4.41,3C443.2,272.54,443,273,442.78,273.44Z"/><path class="cls-1" d="M413.75,250.59l-.13-.29,5.26.38.29.78-4.37,1.81,0,.5a26.18,26.18,0,0,1,3.82-.34,10.28,10.28,0,0,1,2.64.85c-2.16,3.83,3.24,4.46,3.31,7.33-5.66,3.19-7,2.82-9.74-2.51-.76-1.47-2-2.84-2.25-4.38C412.41,253.44,413.33,252,413.75,250.59Z"/><path class="cls-1" d="M157.55,177.6l-4.89,1.76-5-4.22,10-3.13-.25,0a43.83,43.83,0,0,1,7.17-.74c1.74.08,3.42,1.09,5.13,1.68l-.39,1.79Z"/><path class="cls-1" d="M157.6,172a60.44,60.44,0,0,1-7.79.7,8.48,8.48,0,0,1-4.65-2c8.42-4.25,18.59-4.86,21.08-1.44L157.35,172Z"/><path class="cls-1" d="M301.05,108.48c8-.4,12.85,4.06,15.22,15.52-1.64-1-3.64-1.77-4.84-3.17-1.81-2.12-2.84-4.89-4.61-7A53.58,53.58,0,0,0,301.05,108.48Z"/><path class="cls-1" d="M197.67,169.47c-4.91,1-9.39,2.18-13.95,2.79-1.34.18-2.88-1.18-4.07-2.38C192.4,164.8,196.11,164.76,197.67,169.47Z"/><path class="cls-1" d="M162.72,164.6c-5.3.82-10.59,1.65-15.89,2.45-.12,0-.27-.24-.41-.25-1.74-.05-4.16,3.49-4.87-.76-.08-.47,3.54-1.81,5.55-2.31a103.79,103.79,0,0,1,11.19-2.18c1.45-.19,3,.45,4.53.71Z"/><path class="cls-1" d="M221.35,101.81c.47,2,.74,3.23,1,4.43l-.77.41-4-6.07c5.27-.52,10-1.09,14.71-1.41,3.31-.23,3.38,0,4.89,6.79l-5.31-4.5C231.42,105,226.82,105.4,221.35,101.81Z"/><path class="cls-1" d="M220.1,111.79l-7.44-9.93-.69.43,3.69,7.41-1.45,1-6.59-9.58c7.32-2.87,10.59-.5,14,9.62Z"/><path class="cls-1" d="M415.62,316.55l8-1.54c-2.14,4.62-2.3,9.26-7.17,10.58-1.78.48-4-.5-5.95-.81l.18-1.65,5.12-2C415.73,319.65,415.68,318.24,415.62,316.55Z"/><path class="cls-1" d="M291.33,105.77c.71,1.52,1.41,3,2.12,4.58l-.92.59L287.67,105c5.94-2.84,15.16,5.13,15,14.15l-10.41-14.05Z"/><path class="cls-1" d="M379.73,165c-.72-1.49-1.58-3.28-2.47-5.11,2.93-.64,6,2.2,8.59,7.61-6,3.38-9,2.92-11.75-2.64Z"/><path class="cls-1" d="M437.22,202.47c-.45,4-3.19,4.54-6.51,2.33-2.11,1-3.71,2.43-5,2.21s-2.28-2.13-3.08-3.94c5.12.2,9.72-4.77,14.64-.42Z"/><path class="cls-1" d="M283.52,131.9c-6.11-3.42-7.94-10.41-13.13-15.52C274.44,116.1,282.27,125.37,283.52,131.9Z"/><path class="cls-1" d="M242.47,117.34c-3.79-4-11.26.3-13.94-7.35,3.94.2,7.69-.17,11.07.77,1.79.5,2.94,3.28,4.38,5Z"/><path class="cls-1" d="M453,223.41l-2.61-3.17,4.68-2.36c-.46,4.22,2.86,8-1.66,10.43-2.37,1.26-5.52,2.41-6.74-2.75Z"/><path class="cls-1" d="M130.15,206a33.44,33.44,0,0,0-5.52.51c-2.11.57-4.67-1.58-6.52,1.17-.18.26-2.65-1-4-1.59.1-.51.19-1,.29-1.52,1.37-.26,2.74-.47,4.1-.78,2-.44,3.89-.15,6-1.48C127,200.62,129.78,201.71,130.15,206Z"/><path class="cls-1" d="M420.63,189l9.14,1.19,1.6-1.86,3.84,3.54C424.14,195.86,424,195.84,420.63,189Z"/><path class="cls-1" d="M437.81,282c-8.6,3-8.62,3-11-2.63C433,275.71,435.59,276.26,437.81,282Z"/><path class="cls-1" d="M257.85,131c2.39.53,4.83.9,7.15,1.64a21.35,21.35,0,0,1,3.91,2.19l-.59,1.46c-3.54-.23-7.1-.31-10.61-.75-2.76-.34-4.82-1.57-3.49-5Z"/><path class="cls-1" d="M227.85,343.72c-7.35.07-13.25,2.87-19.52,1.85C213,341.45,224.24,340.07,227.85,343.72Z"/><path class="cls-1" d="M242.94,112.22c5.14-.42,5.14-.42,11.9,10.74-3.11-.79-7.49,2.1-7-4.52C248,116.71,245,114.77,242.94,112.22Z"/><path class="cls-1" d="M257.85,131l-3.63-.43-3.69-.32.15-.09c-.15-1.87-.31-3.74-.49-5.87,4.09-1.42,7,.27,9.38,3.57l0-.2Z"/><path class="cls-1" d="M89,195.91c-.4,1.08-.51,2.5-1.27,3.18a25.18,25.18,0,0,1-4.59,2.59l3,2.23-6.9,2.33c-2.08-4.39-1.56-7.12,3.45-8.1a50.18,50.18,0,0,0,6.53-2.21Z"/><path class="cls-1" d="M209.22,156.78c5.31,1,10.26-3.62,15.53.82C213.69,161.88,210.55,161.84,209.22,156.78Z"/><path class="cls-1" d="M161.07,268.17,153.2,266c3.85-3.66,12.34.88,13.07-7.7,3.72,2.77,3.68,2.85.07,5.59C164.26,265.44,162.28,267.17,161.07,268.17Z"/><path class="cls-1" d="M202.56,338.46l-5.87-3.39c8.11-3.72,11.33-3.37,12.66,1l-6.84,2.44Z"/><path class="cls-1" d="M419.72,271.28c.42-2.83,0-5.74,1.15-6.59,3.09-2.31,5.7-.83,8.57,4.38Z"/><path class="cls-1" d="M441.53,286.19l-4,6.67-6.54-6,.54-1.34,9.14-1Z"/><path class="cls-1" d="M132.47,247.84l9.9-.74,1.53,3.31C133.76,253.9,133.76,253.9,132.47,247.84Z"/><path class="cls-1" d="M110.05,171.32l7.72-1.84L115.18,166c3.69-1.24,4.56-.42,6.7,6l-11.94,1.33C110,172.63,110,172,110.05,171.32Z"/><path class="cls-1" d="M356.28,149.91a18,18,0,0,0-1.66,2.65,3,3,0,0,0-.3,1.51c-2.09,1-3.28,1.82-4.57,2.06-.87.16-2.46-.27-2.72-.88-.41-.92-.3-3,.22-3.23a89.78,89.78,0,0,1,8.44-3.17C355.88,149.21,356.08,149.56,356.28,149.91Z"/><path class="cls-1" d="M170.92,164.87c3-.7,5.89-1.57,8.89-2,1-.14,2.12.91,3.19,1.42-.91.82-1.69,1.92-2.75,2.37A12.5,12.5,0,0,1,175,168c-1.56-.07-3.07-1.16-4.6-1.79Z"/><path class="cls-1" d="M352.3,167.1c-5,1.64-5.06-2.6-6.38-4.8l-6.28-.16C347.43,158.07,348.77,158.69,352.3,167.1Z"/><path class="cls-1" d="M407,290.51c6.85-2.73,8-2.36,8.82,2.82C409,296.31,408.42,296.11,407,290.51Z"/><path class="cls-1" d="M429.29,263.73c6.83-2.14,7.55-1.85,9.13,3.27C431.15,269.81,430.49,269.59,429.29,263.73Z"/><path class="cls-1" d="M254.33,357.22c3-1.13,3-1.13,10.23,5.55C260,365.94,259.67,364.67,254.33,357.22Z"/><path class="cls-1" d="M188.37,102.79a78.29,78.29,0,0,1-8.31.71c-2.46,0-4.92-.66-8.68-1.22C180.66,98.25,185.43,98.77,188.37,102.79Z"/><path class="cls-1" d="M452.53,251.62l-14.46,1.17C442,247.78,450.59,247.49,452.53,251.62Z"/><path class="cls-1" d="M373.87,171.74c-4.74-1.4-6.26-5.45-8.45-10.19,1.95,0,4.4-.15,4.41-.05.33,3.78,6.78,5.31,3.84,10.21Z"/><path class="cls-1" d="M180.67,161.35a43.66,43.66,0,0,1-6.38-.22c-.29,0-.23-2.33-.35-3.74l-3.18-.78c.77-.84,1.07-1.38,1.53-1.64,6.27-3.49,5.32,4,8.85,4.73C181,160.25,180.82,160.8,180.67,161.35Z"/><path class="cls-1" d="M258.34,156.77l14.58,3.5c-2.41,1-3.56,1.89-4.52,1.72C264.89,161.37,259.46,165.11,258.34,156.77Z"/><path class="cls-1" d="M291.54,117.11c-5.55-2.09-5.29-8.29-8.87-11.78l2.12-1.48L293,116.1Z"/><path class="cls-1" d="M84,158.17c3.7,1.57,6.2,2.38,8.37,3.73.51.31-.13,2.46-.24,3.76a42.93,42.93,0,0,1-7.17-2.11C84.25,163.24,84.43,161.14,84,158.17Z"/><path class="cls-1" d="M239.1,342.71c3.66,2.61,8.51-4.9,12.16,2a106.63,106.63,0,0,1-10.68,2.21c-.73.08-1.69-1.92-2.55-3C238.38,343.54,238.74,343.12,239.1,342.71Z"/><path class="cls-1" d="M292.11,134.34c-6.68.09-5.48-7-8.88-10C288.63,125.34,289.46,130.67,292.11,134.34Z"/><path class="cls-1" d="M308,133.16c-4.29-1.14-9.34-8.16-9.95-14.71,5.19,4.3,6.89,10,9.93,14.72Z"/><path class="cls-1" d="M134.44,241.1c-6.07,1.92-6.07,1.92-8.7-2.18C129.49,234.65,132.12,235.24,134.44,241.1Z"/><path class="cls-1" d="M437.12,275.86l8.93,1.47c-.53,1.32-.71,3.38-1.64,3.81C440.79,282.83,438.71,280.93,437.12,275.86Z"/><path class="cls-1" d="M440.52,216.4l13.41-2.09C453.42,218.07,444.8,220.12,440.52,216.4Z"/><path class="cls-1" d="M115.93,195.86c-4.25.07-8.36,3.83-12.12-2.06C108.3,193.87,112.4,188.43,115.93,195.86Z"/><path class="cls-1" d="M248.8,165c-5.89,1.35-7-3.36-9.9-7.48C245.38,156.91,245.72,162.76,248.8,165Z"/><path class="cls-1" d="M265.34,113.29c-7.12,0-4.07-7.84-8.93-9.1C260.35,103.17,264.29,107.54,265.34,113.29Z"/><path class="cls-1" d="M386.34,331.08c-4.42.66-6.95,1.21-9.49,1.33-.86,0-1.78-1-2.68-1.53.67-.75,1.19-1.85,2-2.17,1.67-.66,3.58-1.42,5.24-1.16C382.85,327.78,384.06,329.36,386.34,331.08Z"/><path class="cls-1" d="M398,146.88c6.45-.18,11.15,4.51,10.25,9.26Z"/><path class="cls-1" d="M230.38,349.41c-3.94-1.31-8.07,4.54-11.08-1.54C225.46,344.58,228.69,344.8,230.38,349.41Z"/><path d="M271.35,132.92c.92-.55,2.51-1.73,2.65-1.58,2.39,2.6,4.59,5.36,6.84,8.09l-1.26,1.24-4.44-3.8Z"/><path class="cls-1" d="M420.62,285.26c-4.47,2.57-5.23,2.24-7.58-3.31C417.33,278.88,418.49,279.38,420.62,285.26Z"/><path class="cls-1" d="M213.11,337.66c3.53-.68,6-1.35,8.61-1.56.76-.06,1.62,1.16,2.43,1.79-.65.62-1.24,1.7-1.94,1.78C219.41,340,216.12,342.79,213.11,337.66Z"/><path class="cls-1" d="M451.72,235.1c-4.92,3.48-6.81,3-9.14-2.25,4-2.78,7-1.73,9.12,2.46Z"/><path class="cls-1" d="M89,218.67c-2.38-1.62-4.86-3.13-7.09-4.95-.53-.44-.63-2.49-.22-2.78.89-.62,3-1.13,3.28-.73,1.83,2.48,3.3,5.24,4.89,7.9Z"/><path class="cls-1" d="M269.92,360.61c-3.7,2.26-5.25,1.41-8.51-4.64C264.12,355,264.12,355,269.92,360.61Z"/><path class="cls-1" d="M440.8,239.28c4.14-.12,6.5,2.17,8.3,6.4l-5.83,1.53,2.45-2.71c-5.28-.38-6.23-1.47-4.68-5.2Z"/><path class="cls-1" d="M341.07,336.05c7.51-3.25,8.15-3.19,9.91.68C345.35,339.06,343,339,341.07,336.05Z"/><path class="cls-1" d="M440.17,440.13c-1.26.36-2.12.64-2.14.61a75.32,75.32,0,0,1-2.83-8.18c-.18-.69.93-1.75,1.53-2.58.11-.15.89-.08.92,0C438.52,433.34,439.33,436.71,440.17,440.13Z"/><path class="cls-1" d="M452.61,268.46c-1.82,1.5-3.46,3.59-5.55,4.25-1.06.34-2.94-1.9-4.45-3,.21-.52.42-1,.62-1.56l8.38-.63Z"/><path class="cls-1" d="M395.43,312.82c4-2.21,6.79-1.47,8.24,3.1C397.26,318.63,396.59,318.38,395.43,312.82Z"/><path class="cls-1" d="M435.36,222.13,448.63,220c.13.73.26,1.46.38,2.19l-13.21,2.44C435.66,223.77,435.51,223,435.36,222.13Z"/><path class="cls-1" d="M418.31,307.08l7.33,2.27c-.84,1.2-1.44,3.1-2.56,3.47C419.55,314,418.35,311.9,418.31,307.08Z"/><path class="cls-1" d="M428.17,235.56c4.71-2.5,5.13-2.3,7.28,3.31C430.23,241.2,429.93,241.06,428.17,235.56Z"/><path class="cls-1" d="M254,165.15c-4.94-1-6.23-5.15-9-7.93C248.38,155.77,251.9,158.89,254,165.15Z"/><path class="cls-1" d="M446.46,265.51c-4.49,2.23-7,.89-8.46-3.58C441.88,260.75,445.17,260.13,446.46,265.51Z"/><path class="cls-1" d="M213.41,145c-5.32-.4-5-7.26-9.94-8.16.62-.69,1.23-1.39,1.84-2.08l9.48,8.67Z"/><path class="cls-1" d="M441,239.3c-3.15-.37-5.74-1.4-6.29-6.77,2.74,1,5.06,1.41,6.82,2.62,2.1,1.44,1.14,3-.78,4.13Z"/><path class="cls-1" d="M202.51,338.5a50.82,50.82,0,0,1,6.41-.05c1.48.15,2.9.93,5.39,1.8-8.28,3.72-9.85,3.35-11.72-1.79A.19.19,0,0,0,202.51,338.5Z"/><path class="cls-1" d="M404.36,310l8.2,3.25C406.29,317.24,405.39,316.92,404.36,310Z"/><path class="cls-1" d="M407,295.32c-4.65,2.38-5.05,2.21-7.1-3.14C404.44,289.88,405,290.12,407,295.32Z"/><path class="cls-1" d="M416.8,286.89l9.55,3.16C419.74,294.35,418.27,293.92,416.8,286.89Z"/><path class="cls-1" d="M182.49,105.83c5.67-1.08,5,5.37,8.47,6.86C184.68,114.49,185.57,107.82,182.49,105.83Z"/><path class="cls-1" d="M335.2,124c-7.11,2.12-8.68-1.37-10.09-7l5.56,2.36-1.08,2.54Z"/><path class="cls-1" d="M407.85,170.7l9,1.19c-3.34,1.78-5.35,2.85-7.35,3.93h.24l-4.17-2.07,2.53-3Z"/><path class="cls-1" d="M444.64,428.31c1.69.11,2.8,0,2.84.21q1.09,4.69,1.86,9.45a10.17,10.17,0,0,1-2,.72C446.48,435.41,445.63,432.13,444.64,428.31Z"/><path class="cls-1" d="M485.16,431.6c-.61-3-1.3-5.93-1.76-8.92-.07-.49.79-1.31,1.41-1.63.28-.15,1.4.49,1.46.87.49,3.16.82,6.34,1.2,9.51Z"/><path class="cls-1" d="M413.17,308.43c-3.44.11-6-.87-6.32-6.34l7.65,3.27,0-.18c-.51,1.08-1,2.15-1.54,3.23Z"/><path class="cls-1" d="M414.5,305.36c-.53-3,1.53-3.49,3.58-3.24,1.7.21,3.31,1.24,4.95,1.9l-.65,2.54-7.9-1.39Z"/><path class="cls-1" d="M399.61,309.85c-3.79,1.23-7,2.54-7.35-3.19C395.46,305.51,398.47,304.38,399.61,309.85Z"/><path class="cls-1" d="M432.05,301.17c-1.58,1.3-3,3.1-4.81,3.7-1,.33-2.65-1.37-4-2.16.08-.52.17-1,.26-1.58l7.38-2Z"/><path class="cls-1" d="M434.29,261.63,426,260.25c.38-.91.55-2.4,1.18-2.64C429.82,256.64,432.76,255.59,434.29,261.63Z"/><path class="cls-1" d="M113.64,232c4.15,2.16,5.68,5.25,3.59,9.82C111.65,240.08,115.14,235.1,113.64,232Z"/><path class="cls-1" d="M181.56,281.9a51.84,51.84,0,0,1,1.22,5.29,9.7,9.7,0,0,1-.55,2.93c-.82-.38-2-.56-2.38-1.2-1-2-2.57-4.24-2.38-6.25.33-3.53,2.47-1.84,4.09-.57Z"/><path class="cls-1" d="M438,226.84c4-1.41,7-1.9,8.63,2.81C443.13,230.23,439.69,232.36,438,226.84Z"/><path class="cls-1" d="M428.06,431.9l2.61,9.65-1.95.6c-3.31-2.4-2.24-6.29-3.18-9.49Z"/><path class="cls-1" d="M268,171.88c4.7-2.45,7.72-2.18,9.23,4l-5.07-2.24.49,2.33-.82.56Z"/><path class="cls-1" d="M143.28,258.34c-5,1.55-5,1.55-7-2.63C140.76,252.76,142.11,253.26,143.28,258.34Z"/><path class="cls-1" d="M151.57,249.3c-4.86,2.3-5.58,1.95-6.78-3.25C149.56,244.29,150.1,244.55,151.57,249.3Z"/><path class="cls-1" d="M321.39,131c-4.62.43-4.9.2-6.66-5.35C319.5,124.75,320.14,125.27,321.39,131Z"/><path class="cls-1" d="M141.06,122.59c-.87-2.25-1.48-4-2.2-5.64-.64-1.46-1.47-2.83-2.06-4.31-.07-.16.9-.74,1.39-1.12,1.05,1.36,2.53,2.58,3.05,4.12a25.82,25.82,0,0,1,.86,6.66C142.11,122.45,140.71,122.68,141.06,122.59Z"/><path class="cls-1" d="M397,419.15l7.28,8.85-1.41,1.19-8.32-10.1,2.64.09Z"/><path class="cls-1" d="M448.49,379c.37,3.09.69,5.78,1,8.47-1-.1-2.91,0-2.95-.31-.46-2.62-.61-5.3-.85-8Z"/><path class="cls-1" d="M134.06,209.23c-5.95,3.11-8.6,3-10.51-.32C127,209.55,130.13,205.35,134.06,209.23Z"/><path class="cls-1" d="M419.69,295.53c3.7-.61,6.94-3.1,9.71,1.66C425.86,297.89,422.57,300.75,419.69,295.53Z"/><path class="cls-1" d="M189.33,149.18c-2.94-.67-6.54,3.5-9-1.17C183.37,148.59,186.8,143.63,189.33,149.18Z"/><path class="cls-1" d="M409.87,296.82l9-.32C414.74,301.37,413.15,301.36,409.87,296.82Z"/><path class="cls-1" d="M421.2,278.55l6.62,4.18c-.29.69-.57,1.37-.85,2.06-1.41-.08-3.69.33-4.07-.33-1-1.72-1.09-3.91-1.55-5.92Z"/><path class="cls-1" d="M191,130.15l8.56,6.09c-5,1.43-5,1.43-9.36-5.07Z"/><path class="cls-1" d="M196.93,109.9,189.6,101l1.53-1.23C194.34,102.14,195.76,105.92,196.93,109.9Z"/><path class="cls-1" d="M121.44,196.17a38.38,38.38,0,0,1-5.51-2.55c-.34-.22.39-2.08.62-3.19l6.19,2.82Z"/><path class="cls-1" d="M360.23,332.14c-.56,2-.7,3.78-1.14,3.86a38.17,38.17,0,0,1-6,.25c.09-1-.06-2.75.3-2.87A55.64,55.64,0,0,1,360.23,332.14Z"/><path class="cls-1" d="M446.84,259.38a42.82,42.82,0,0,1,5.57,2.47c.26.15-.52,2.06-.82,3.15l-5.92-2.68Z"/><path class="cls-1" d="M397.83,161.26c4.27-2.67,6.11-.64,7.61,2.84C401.85,166,399.4,165.49,397.83,161.26Z"/><path class="cls-1" d="M300.57,133.4,295,125.69c5.76-.51,5.78,3.57,7.12,6.57Z"/><path class="cls-1" d="M426.76,242.94c6.75-3,3.08,5.73,7.26,5.43C429.76,249.57,428.83,248.85,426.76,242.94Z"/><path class="cls-1" d="M437.23,202.65c.62-1,1.35-2.82,1.85-2.76a46.81,46.81,0,0,1,6.91,1.9c-3.65,3.37-6.26,3.55-8.77.66C437.22,202.47,437.23,202.65,437.23,202.65Z"/><path class="cls-1" d="M139.7,176.41c3.16-.72,6.33-3.23,8.28,1.63C144.94,179.32,141.68,182.38,139.7,176.41Z"/><path class="cls-1" d="M262.38,120.43l-6.11-6.24c5.47-.92,5.62-.8,7.31,4.91Z"/><path class="cls-1" d="M181.56,282.1l2-2.45c.64.8,1.35,1.55,1.92,2.4a17.23,17.23,0,0,1,1.82,3.24,21.63,21.63,0,0,1,.78,3.52l-1.3.69q-2.6-3.81-5.21-7.61Z"/><path class="cls-1" d="M439.52,246.82l-8.45-3.41C437,239.69,438.12,240.16,439.52,246.82Z"/><path class="cls-1" d="M496.65,420.43a40.35,40.35,0,0,1-.86-6c0-.79,1.17-1.59,1.8-2.38.88.75,2.59,1.61,2.5,2.23a39.17,39.17,0,0,1-1.9,6.45Z"/><path class="cls-1" d="M412.94,308.41l5.36,3.39c-.33.76-.67,1.52-1,2.28-1.65-.48-3.58-.58-4.91-1.53-2.15-1.54-.87-3,.8-4.13A1.85,1.85,0,0,1,412.94,308.41Z"/><path class="cls-1" d="M396.16,303.68c-5.19,1.84-5.51,1.71-6.32-2.55C395,299.15,395.07,299.18,396.16,303.68Z"/><path class="cls-1" d="M89.26,195.93l-9.55.62c4.47-.89,8.12-5.39,13.06-4.26l.37,1.38L89,195.91Z"/><path class="cls-1" d="M437.2,232.3l-6.28-2.39c3.59-3.63,5.88-3.3,7.11.43C437.76,231,437.48,231.65,437.2,232.3Z"/><path class="cls-1" d="M408.16,370.05c1.73.46,3.23.52,3.33.93a68.2,68.2,0,0,1,1.08,6.87c-1.05-.1-2.91,0-3-.34A63.57,63.57,0,0,1,408.16,370.05Z"/><path class="cls-1" d="M406.35,308.27c-3.37,1.87-5.73,1.54-6.47-4.48l7.16,2.57Z"/><path class="cls-1" d="M160.25,118.66l-10.5,1c2-3.9,6.17-4.51,10.45-2.45Z"/><path class="cls-1" d="M394.44,317.78c-4.47,1.83-4.57,1.76-5.57-3.62C393.09,312.86,393.2,312.93,394.44,317.78Z"/><path class="cls-1" d="M148.88,153.74c6.85-.68,6.85-.68,7.48,1.4C150.8,157.85,150.32,157.76,148.88,153.74Z"/><path class="cls-1" d="M250.68,130.2l-.15.09-7.27-5.4,1.31-1.57C248.89,123.28,249.6,126.94,250.68,130.2Z"/><path class="cls-1" d="M409.43,327.15l-7.65-.79c.34-.91.49-2.44,1.06-2.61C405.17,323,408,321.43,409.43,327.15Z"/><path class="cls-1" d="M406.13,322.14l-7.41-.44.15-1.81c2.61-1.06,5.32-3.32,7.61,0Z"/><path class="cls-1" d="M237.9,121.25l6.08,4.48-1.46,2.06-6.2-4.2Z"/><path class="cls-1" d="M426.07,195.85l6.75.84c-.22.81-.36,2.31-.66,2.34a61,61,0,0,1-6.2.11C426,198,426,196.94,426.07,195.85Z"/><path class="cls-1" d="M421.35,278.54,416,274.73l1-2c1.5.51,3.48.62,4.34,1.65.66.79-.1,2.76-.22,4.21Z"/><path class="cls-1" d="M423.06,252.28l7.36.7c-.05.55-.1,1.1-.16,1.65-2.58,2-5.06,2.29-7.38-.22Z"/><path class="cls-1" d="M436.75,215.41c-3.22.43-6.13,2.8-7.78-2C431.9,212.65,434.6,210.51,436.75,215.41Z"/><path class="cls-1" d="M383.07,321.14l4.14,3-1,1.57c-1.81-2.32-6.32,3.56-7.17-2.39l4.22-2.21Z"/><path class="cls-1" d="M422.94,228.65c3.05.08,6.91-1.66,7.8,3.6-4.58,3-5.74-1.13-7.68-3.67Z"/><path class="cls-1" d="M109,148.74c1.35,3.35-1.08,7.61-6.27,9.62C104.76,155.21,106.81,152.06,109,148.74Z"/><path class="cls-1" d="M118.93,222.88c-3.19.26-7.23,3.81-7.82-2.78l2.23,1.84,2.43-2.57Z"/><path class="cls-1" d="M253.5,351.7l-6.33-2.13c3.41-3.34,5.88-3.68,7.09.32Z"/><path class="cls-1" d="M448.12,258.46l-6.64-1.53c3-3.1,5.57-4.25,7.21-.62Z"/><path class="cls-1" d="M498.58,403.45c-.28-.53-.78-1-.82-1.57-.13-1.86-.1-3.73-.14-5.59.81.26,2.27.44,2.31.79a59.62,59.62,0,0,1,.21,6.28Z"/><path class="cls-1" d="M385.2,163.76c4.09-2.92,5.37-.45,6.73,2.65C388,168.86,386.6,166.69,385.2,163.76Z"/><path class="cls-1" d="M294.56,177.36l-7.95-.15.12-1.77c2.77-.45,5.73-3.5,8.22-.17Z"/><path class="cls-1" d="M441.86,259.55l-6.85-.79c.14-.86,0-2.25.46-2.5C437.87,255,440.13,254.86,441.86,259.55Z"/><path class="cls-1" d="M408.06,170.72a6.78,6.78,0,0,1-1.88-.21c-1.21-.49-2.35-1.14-3.52-1.72.49-.73,1-2.09,1.46-2.08a23.32,23.32,0,0,1,4.53.86c-.28,1-.55,2.09-.82,3.13Z"/><path class="cls-1" d="M153.8,257.55l-6.21-3.91c5.73-2.34,5.73-2.34,7.2,2.26Z"/><path class="cls-1" d="M271.37,119.28c-5,1.88-6-1-7-4l1.25-1.39Z"/><path d="M337.39,253c-.34-1.59-.89-4.16-1.43-6.72l9.66-3L342.72,255Z"/><path d="M357.36,281.59c.38,1.51.76,3,1.15,4.53l1.15-.1c-.36-2.73-.73-5.46-1.09-8.19l1.13-.18c.74,3.68,1.48,7.36,2.34,11.58-5.69-.93-6.22,2.5-6.16,6.86C351.17,290.57,356.49,286.33,357.36,281.59Z"/><path d="M352.51,240.26c-3.61-5.11,1.78-6.84,4-10.25.49,2.71,1.52,5.5,1.19,8.1C357.54,239.07,354.19,239.61,352.51,240.26Z"/><path d="M390.58,210.79l-3.76,1.37c-.56-4.7-1.12-9.36-1.68-14l1.82-.42Z"/><path d="M217.43,278.22c4.89-4.57,10.31-.92,15.51-.67C228,281.12,222.54,277.05,217.43,278.22Z"/><path d="M200.55,263l-4.85,3,.38,1.17,9.27-2.55c-4.6,4.63-8.65,4.94-15.26,1.44l10-3.73Z"/><path d="M372.2,279.91q.07-7.1.16-14.19l2.08-.13L376,274C371.59,274.51,375.24,278.36,372.2,279.91Z"/><path d="M239,283.05l6.7-2.18-.47,2.62c1.66-.18,3.2-.43,4.74-.49s2.81.07,4.21.11c0,.44,0,.89,0,1.33l-15,.78Z"/><path d="M194.8,236.36l-2.61.39c.47,1.31.92,2.55,1.38,3.79l-.64.52-5.27-5.53C190.79,231,191.69,231.09,194.8,236.36Z"/><path d="M366,216.78l6.25,18.3-1.31.48-6.37-18.21Z"/><path d="M394.66,203.19c-1.23-2.52-2.47-5-3.92-8l8-.72-1.1,4.29-3.14-2.08,1.32,6Z"/><path d="M373.13,217.84q1.1,3.56,2.18,7.11l-.92,1.14c-1.36-.57-3.79-1-3.89-1.75-.27-2.1.4-4.33.71-6.5Z"/><path d="M205,324.64l21.33-5.25c.12.65.25,1.3.38,1.94L205,324.47Z"/><path d="M184.1,240.76l8,11.3-1.41,1-7.6-11.56Z"/><path d="M279.63,203.46l-12.54-8.37,1-1.41,12.61,8.53Z"/><path d="M384.59,207.69c-.09,3.22-.17,6.44-.26,9.66l-2.41,0q0-4.92.07-9.84Z"/><path d="M279.45,215.92l-8.13-7.67,1.07-1c3.45,1.89,7.87,3,6.87,8.68Z"/><path d="M279.26,215.89l3.34,6.26-1.08,1-5.78-3.73,3-.54-2.15-3.13,2.84.13Z"/><path d="M192.13,246.25l-7.26-9.81.57-.48,7.83,9.51Z"/><path d="M194.1,312.67l16.68-3.88.33,1.89-17,1.82Z"/><path d="M302.52,337.16l-6.86-8.34.74-.65,6.77,8.22Z"/><path d="M389.94,196.21l3.81,12.49-1.28.41q-2-6.21-4-12.42Z"/><path d="M281.59,373.16c11.48-1.92,16.84,7,24.55,11.27l-.54,1.08-9.38-5.31-.58.91,9.13,6.24-.84,1.2Z"/><path d="M285.33,389.86l-3.74-1.1c.63,1.21,1,1.95,1.49,2.87-.55,0-1.11.12-1.44-.09-3.44-2.28-6.79-4.71-10.28-6.9-2.51-1.57-4.23-3.26-2.21-7.24L285.63,389Z"/><path d="M168.42,316.17c2.78,2.05,6.87,2.66,7.23,7.4.07.79,1.88,1.32,2.56,2.22a32.2,32.2,0,0,1,4.68,8c-4.26-2.09-9.42-3.1-9.5-9.4,0-.73-1.34-1.42-2-2.19-1.38-1.62-2.72-3.28-4.07-4.92Z"/><path d="M351.88,395.74c-8.5,1.58-12.89-3.53-17.48-8.7,5.15-3.12,7,1.36,10,4.46.15-1.23.22-1.86.38-3.19Z"/><path d="M226.3,380,248,391.15,247,393C239.12,390.75,231.62,387.88,226.3,380Z"/><path d="M318.05,360.57l23.37,16.27-.91,1.34-23.82-15.73Z"/><path d="M210.84,370.58l-1.58,1.94-5.42-8.94.64-.45,20,17.72c-.45.49-.91,1-1.37,1.46Z"/><path d="M517,322.19l1.81,13.67C512.76,334,512.76,334,517,322.19Z"/><path d="M324,360.06l24.28,17.12-.77,1.13-24.59-16.68Z"/><path d="M310.73,354.8l-7.25-.9c.7-1.66.88-3.51,1.83-4.09,2.82-1.71,14.19,1.23,17.43,4.54l-15.85-3.45-.31.89,4.46,2.32Z"/><path d="M297.05,365.1l20.59,13.63-1.22,1.84-20.3-14.08Z"/><path d="M360.72,378.71,337.93,363l.85-1.26,23,15.44C361.39,377.7,361.05,378.2,360.72,378.71Z"/><path d="M307.2,362.73l25.4,17.39-.79,1.16-25.5-17.36Z"/><path d="M170,283.22c-5.73,2-3.63,8.51-7.8,11.7L167.93,275l1.12.12.9,8.29Z"/><path d="M274.88,376l16.9,12.14-.86,1.29-17.39-11.49Z"/><path d="M476.42,269.91,473.48,260l.86-.37,2.58,4.44,1.2-.55-4.65-10.74C477.85,256.27,478.34,258.57,476.42,269.91Z"/><path d="M297,388.35l-18-12.24,1-1.38,17.86,12.42Z"/><path d="M323.55,387l11.74,6.38-.75,1.4c-5.34.81-8.16-3.5-11.9-6Z"/><path d="M323.66,380.54l-18.13-12.15.86-1.28,18.07,12.23Z"/><path d="M277.61,393.91,264,384.85c.37-.55.74-1.11,1.12-1.66l13.22,9.36C278.08,393,277.84,393.46,277.61,393.91Z"/><path d="M292,368.49q7.32,4.93,14.65,9.89c.77.52,1.48,1.15,2.22,1.73l-.78,1.05-16.88-11.64Z"/><path d="M152.64,297.2,149,290.59l1.57-.82c.46,1.32.91,2.65,1.59,4.64.74-2.65,1.33-4.74,1.91-6.84l1.55.31-.92,8.34Z"/><path d="M515.78,311.49c-6-.64-6.8-2.28-7.09-11.89Z"/><path d="M193.51,360.46l-8.81-14,1.77-1L194.35,360Z"/><path d="M471.44,265.28c1.54,3.32,5.74,6.74,1,9.58l-2.11-.21Z"/><path d="M362.31,398l-9.93-8.89,1-1.08L364,396.15Z"/><path d="M384,409.26l-6.88-11.34,1.44-.89,6.81,11.33Z"/><path d="M359.9,373.22l-12.83-8.31.68-1.08L361,371.66Z"/><path d="M161.84,283.14q-1.82,6.36-3.65,12.71l-1.77-.52q1.94-6.33,3.85-12.66Z"/><path d="M480.76,259.56l-7.43-12.62C478.53,249.48,479.48,254.65,480.76,259.56Z"/><path d="M461.07,267.7q-.48,6.44-.95,12.86l-1.66,0q.29-6.48.58-13Z"/><path d="M337.54,381.45l-15.73-11.24.51-.73,16.05,10.78Z"/><path d="M476.62,240.27q2.94,5.65,5.89,11.32l-1.34.68-5.61-11.47Z"/></svg>