<svg id="Layer_1" data-name="Layer 1" xmlns="http://www.w3.org/2000/svg" viewBox="0 0 720 720"><defs><style>.cls-1{fill:#d6c3aa;}.cls-2{fill:#3e2d26;}.cls-3{fill:#b19372;}.cls-4{fill:#cab497;}.cls-5{fill:#a18367;}.cls-6{fill:#a89680;}.cls-7{fill:#eddec9;}.cls-8{fill:#d79f89;}.cls-9{fill:#bda385;}.cls-10{fill:#160c0a;}.cls-11{fill:#c7b192;}.cls-12{fill:#392720;}.cls-13{fill:#533f38;}.cls-14{fill:#e5c1ad;}</style></defs><title>Artboard 1</title><path class="cls-1" d="M266.73,386.4c-3.45.52-6.64.38-8.56-3.19,4-.44,2.22-2.2.67-3.52-3.69-3.14-6.15-7.22-8.77-11.16-5.57-8.35-11.9-10-20.25-4.47-11.35,7.58-22.67,15.32-30.88,26.6a5.74,5.74,0,0,1-4.9,2.7c-8.82-7-18.57-9.36-28.87-4.15a38.81,38.81,0,0,1-17.45,4.57c.36-8.06.22-16.87,5.39-23.09,7.08-8.53,11.82-18.11,16.57-27.83,2.54-5.19,3.69-11.12,8.16-15.27,2.09,1.13,1.23,3.42,2,5.07l.36,3.58c-.6,2.38-2,5.33,1.32,6.43,2.69.89,3.47-2.12,4.69-3.89,1.87-2.7,4.16-4.61,7.7-3.63,2.84.78,4,2.78,3.68,5.71s-2.05,6.49,1.61,8.24c3.85,1.85,7.14-.59,9.75-3.11a43.83,43.83,0,0,1,21.82-11.64c8.67-1.89,10.67-9.81,13.37-16.79,2.48-6.42-2.84-8.84-6.46-12.11a60.44,60.44,0,0,1-4.87-4.59c-5.46-6.1-4.65-9.72,3.32-10.34,9.54-.73,9.2-5.13,6.47-11.88-2.48-6.14-4.2-13.32.77-18.14,4.66-4.51,4.8-7.18.55-11.21-3.82-3.6-2.8-7,1.79-8,13-2.79,14.09-12.54,14.52-23,4.13-1.61,8.18-4.3,12.43-4.66,21.66-1.85,43.29.17,64.9,1.58,3.68.24,6.33,2.56,2.27,5.83s-1.77,6-.06,8.68c5.72,8.88,20.86,12.95,31.26,8.64,3.16,3.7,0,6.9-1.14,10-2.69,7.45-3.36,14.15,4,19.42,1.7,1.23,3.27,3.34,1.84,5-6.71,7.65-2.1,12.35,2.18,19.54,5.13,8.62,11.25,9.24,18.79,8.16,8.32-1.19,10.75-7.34,11.39-15.16,1.91-23,6.71-24.21,24.56-20.12,6.3,1.44,10.21-1.26,11.66-7.58.5-2.17,1.11-4.32,1.76-6.46,1.6-5.32,4.12-7.4,9.74-4,7.17,4.37,11.56,2.46,12.36-6,.77-8,5.19-12.53,11.4-16.25,10.46-.42,19.72-5.52,29.75-7.61,9.81-2,14.46,1.4,14.66,11.27.26,12.19,1.12,13,13.51,13.33-2.9,2.88-5,5.79-1.87,9.93,2.49,3.31,1.07,5.38-2.54,6.64s-7.12,2.77-10.68,4.17c-1.2-6.43-4.87-11.86-8-17.27-3.32-5.67-8.8-8.58-16.13-8.72-14.87-.29-22.59,9.14-29.52,20-3.05,4.77-5.8,9.82,1.55,15.05-8.81-3.58-9.26,3.51-12.09,7.29-5.27-4.83-9.92-6-13.38,2-.6,1.4-2.12,2.52-3.41,3.51-9.29,7.13-8.81,11.87,1.88,17.91-7.44,5.77-13.63,13.5-23.69,15.19-3-5.88-5.94-14.26-13.73-11.41s-15,2.65-22.69,2.12c-5.46-.37-10,1-10.87,7.54a9.58,9.58,0,0,0-7.68,5.86c-6,14.46-16.83,25-27.49,35.81-6.53,3.33-6.3,8.25-3.26,13.83-7-.65-11.12,2.58-12.17,9.49-1.66,10.91-3.19,21.85-4.78,32.77-10.8,18.91-8.17,39.71-8.39,60.09,0,3.94.67,8.14-5,8.73-6.62-1-13.49,1.21-20-1.59,1-7.8,5-14.62,7.19-22,3.36-11.15,4.51-22.21,1.25-33.52-3-10.37-1.12-21-1.69-31.49-.17-3.19,1.17-6.77-1.93-9.38.85-4.62,2.94-9.3,1.5-13.93a50.68,50.68,0,0,1-1.36-26.08c4.33-5.36,3.31-10.53-2.91-15.75-3-2.47-5.78-3.34-8.56,0-3.37,4-3,13.38.57,16.46-7.91,4.32-8.8,10.63-6.16,18.71,2.38,7.3,4,15-4.55,20.13C266.46,384.23,266.75,385.58,266.73,386.4ZM278,238.67c.09,1.89,1.27,4.3-.7,5.5-10.91,6.69-5.52,23.77-18.59,29-.17.07-.18.51-.28.78-3.37,9.51,7.29,34.39,16.46,38.88,5.76,2.83,9.9,1.19,12.27-4.34a101.45,101.45,0,0,0,4.93-15.05c2-8,5.47-12.25,15.05-11.42s19.2-1.54,22-13.48c.81-3.5,3.95-3.92,6.7-5.34,5.86-3,10.73-7.4,9-15.16-1.64-7.33-4.06-15.21-12.92-15.15-6.25,0-9.85-2.42-13.66-6.27-14.72-14.89-27.74-14.7-42.65.13-4.26,4.24-4.32,7.31.95,10.29C277,237.57,277.47,238.12,278,238.67Zm61.14,65.86c.21-6.3-10.19-7.32-10.45-14.82,0-.58-2.36.58-3.51,1.31-1.85,1.16-3.73,2.31-5.66,3.34-6.56,3.51-8.05,9.79-4.12,16.1,3.32,5.34,11.94,3,13.94,10,1-.44,2.2-.64,2.84-1.37C335.47,315.28,338.48,311.28,339.1,304.53Z"/><path class="cls-2" d="M260.23,218.32c-.43,10.43-1.55,20.18-14.52,23-4.59,1-5.61,4.4-1.79,8,4.25,4,4.11,6.7-.55,11.21-5,4.82-3.25,12-.77,18.14,2.73,6.75,3.07,11.15-6.47,11.88-8,.62-8.78,4.24-3.32,10.34a60.44,60.44,0,0,0,4.87,4.59c3.62,3.27,8.94,5.69,6.46,12.11-2.7,7-4.7,14.9-13.37,16.79A43.83,43.83,0,0,0,209,346c-2.61,2.52-5.9,5-9.75,3.11-3.66-1.75-1.88-5.33-1.61-8.24s-.84-4.93-3.68-5.71c-3.54-1-5.83.93-7.7,3.63-1.22,1.77-2,4.78-4.69,3.89-3.33-1.1-1.92-4.05-1.32-6.43l-.36-3.58c-.77-1.65.09-3.94-2-5.07-2.67-3.32-6.15-1.2-9.29-1.38,17.1-34.31,35.66-67.72,62-96,7.62-8.16,16.5-15,27.49-18.45Q259.14,215,260.23,218.32Z"/><path class="cls-2" d="M479.55,225c-6.21,3.72-10.63,8.21-11.4,16.25-.8,8.44-5.19,10.35-12.36,6-5.62-3.43-8.14-1.35-9.74,4-.65,2.14-1.26,4.29-1.76,6.46-1.45,6.32-5.36,9-11.66,7.58-17.85-4.09-22.65-2.86-24.56,20.12-.64,7.82-3.07,14-11.39,15.16-7.54,1.08-13.66.46-18.79-8.16-4.28-7.19-8.89-11.89-2.18-19.54,1.43-1.63-.14-3.74-1.84-5-7.34-5.27-6.67-12-4-19.42,1.12-3.1,4.3-6.3,1.14-10-1.3-2.63-3.82-2.67-6.26-3.13-5.61-1.06-8.9-3-4.37-9.31,2.17-3,3-7,4.35-10.59,18,4.39,36.37,6.37,54.84,7.48l3.57-.1c14.72-.91,29.37-2.26,43.71-6a8.24,8.24,0,0,1,6.51.51Z"/><path class="cls-2" d="M522.38,262.69c3.56-1.4,7.08-2.91,10.68-4.17s5-3.33,2.54-6.64c-3.11-4.14-1-7,1.87-9.93,6.34-3.37,14.62-.76,20.18-6.53,6.25,2.28,12.61,4.42,15.88,11l-2.37,15.73q-6.3,31.66-12.59,63.34c-3.63,1.83-6.86,6.38-11.39,1.17-1.45-1.67-3.32-.32-4.11,1.18-5.21,9.91-11.13,6.55-17.23,1.07-12,.05-18.21,3.16-21.67,6.21-1.46,1.3-5.34,5-9.15,4.28a5.1,5.1,0,0,1-2.69-1.51,13.17,13.17,0,0,1-2.39-16.22,19,19,0,0,1,4-5.34c3.17-2.82,3.49-6.14,2.6-9.9a2.25,2.25,0,0,1-1.36-.57c-1.23-1.17-.84-4.14,1.17-7.32,7.48-5.08,8.5-7.78,8.07-9.31-.66-2.34-2.76-4.73-7.71-6.87-1.68-.73-1.76-2.84-1-4.44.92-2,2.73-2.63,4.88-2.38,2.7.3,6.76,1.83,7.69-.86C510.73,267.61,517.46,266.38,522.38,262.69Z"/><path class="cls-3" d="M496.53,306.44c.89,3.76.57,7.08-2.6,9.9a19,19,0,0,0-4,5.34,13.17,13.17,0,0,0,2.39,16.22,5.1,5.1,0,0,0,2.69,1.51c1.3.23,3.46.27,9.15-4.28,4.44-3.54,4.48-4.6,7.08-6.19a18.19,18.19,0,0,1,9.37-2.48,34.71,34.71,0,0,1,4.54,1.61c7,3.07,8.57,6.68,11.39,6,1.84-.44,4.33-2.06,6.52-6.23.79-1.5,2.66-2.85,4.11-1.18,4.53,5.21,7.76.66,11.39-1.17,1.13,5.92-1.66,10.83-4.08,15.84-5.1-3-10.26-.57-15.39-.14l0-.06a317.66,317.66,0,0,1-9.54,37.58c-.64,2-.81,4.57-3.93,4.44-.2-2.31.71-4.9-1.67-6.66.37-5.22-1.36-10.13-3.62-14.49-6.17-11.93-19.32-23.5-33.71-14.31a15,15,0,0,0-9.17,3.45c-7.6,5.86-15,12-22.44,18.05-18.92,16.25-41,15.34-63.64,11.81-12.68-2-25.36-4-38-6-6.79.3-12.89-3.17-19.55-3.57-3-5.58-3.27-10.5,3.26-13.83,20.75,4.38,41.51,6.9,62.84,3.95,16.62-2.3,33.22-4.68,47.93-12.9,16.3-9.1,27.83-23.92,40.45-37.27,2.09-2.21,3.28-5.25,6.86-5.48A5.6,5.6,0,0,1,496.53,306.44Z"/><path class="cls-4" d="M539.1,341.2c5.13-.43,10.29-2.82,15.39.14-5.5,13.17-5.31,26.82-1.66,40.13,3.25,11.84-1,22.64-2.55,33.78-2.2,16.18-1.56,32.31-.08,48.37.49,5.25-.19,8.38-4.63,10.74-5.54.52-11.13,3.39-16.59-.33,1.29-10,6.76-19.3,5.18-29.91-1.37-9.26-2.24-18.61-3.35-27.92a4.5,4.5,0,0,0-3.36-4.25c-1.51-8.34-2.58-16.72-1.88-25.23,0-1.19.07-2.37.1-3.56,3.12.13,3.29-2.4,3.93-4.44a317.66,317.66,0,0,0,9.54-37.58Z"/><path class="cls-5" d="M333.83,371.4c6.66.4,12.76,3.87,19.55,3.57a77.69,77.69,0,0,0-6.17,26.72A38.54,38.54,0,0,1,345.08,414c-7.87,20-9.94,41-11.53,62.14-.07,1-.84,2-1.28,3-6.63,1.23-13.26,2.11-19.92.16,3.46-12.83,10.28-24.72,9.88-38.65-.27-9.37-4.77-17.76-5.35-27,1.59-10.92,3.12-21.86,4.78-32.77C322.71,374,326.8,370.75,333.83,371.4Z"/><path class="cls-1" d="M145.61,474.14c-5,3.54-10.06,5.69-15.28.33l.06-2.11,1.68-1.68c2.61-.15,3.87-1.47,3.66-4.24-3.2-.16-3.34,2.12-3.66,4.24l-1.68,1.69c-1.16-4.31-6.62-6.27-6.62-11,0-8.86-4.59-9.6-11.42-7.22,2-7.51-.44-16.31,6.63-22.3,6.51-.66,9.28,2.8,9.24,8.82,0,4,.52,7.75,2.56,11.21,3.51,5.94,8.24,6.46,12.53,1,5.48-7,11.13-13.58,19.85-16.7,1.66-.6,3.06-2.51,2.32-4-3.45-6.8,2.14-11.39,3.74-16.94,7.38-.25,12.51-5.1,18.14-8.91,6.67,12.73-3.51,32.69-14.9,37.39C158.59,449.47,148.3,458.48,145.61,474.14Z"/><path class="cls-6" d="M571.16,262.16l2.37-15.73c9.22,9.57,10,22,10.87,34.09,1.42,19.1-1.73,37.92-5.33,56.58-1.27,6.6-1.34,13.45,1.21,18.95,6.35,13.65,4,27.5,2.35,41.14-1.25,10.07-1.84,19.77.07,29.74.75,3.88.13,8,.13,12.05l-2.19.14c-2.38-11.79-5.33-23.5-7-35.38-2.72-19-7.16-38.21-2.22-57.4,4.07-15.78,6.92-31.64,7.23-47.9.22-10.88-.18-21.78-3.5-32.29C574.54,264.33,574.78,261.17,571.16,262.16Z"/><path class="cls-5" d="M525.57,386.72c-.7,8.51.37,16.89,1.88,25.23-1,17.41-5.65,34.63-2.91,52.24.66,4.25-4.55,2.49-5.29,5.27-6.21-1.66-12.6,4.44-18.73-.43,3.43-12.24,7.2-24.33,8.67-37.11,1.41-12.18-.54-23.69-3.84-35.19l.18-3.41,0,.05C512.91,393.37,518.8,388.71,525.57,386.72Z"/><path class="cls-7" d="M364.75,215.36c-1.4,3.56-2.18,7.57-4.35,10.59-4.53,6.31-1.24,8.25,4.37,9.31,2.44.46,5,.5,6.26,3.13-10.4,4.31-25.54.24-31.26-8.64-1.71-2.66-4-5.43.06-8.68s1.41-5.59-2.27-5.83c-21.61-1.41-43.24-3.43-64.9-1.58-4.25.36-8.3,3.05-12.43,4.66q-1.1-3.28-2.17-6.55c19.84-10.79,40.72-8.85,61.72-5C334.79,209.59,349.76,212.5,364.75,215.36Z"/><path class="cls-7" d="M145.61,474.14c2.69-15.66,13-24.67,26.85-30.38,11.39-4.7,21.57-24.66,14.9-37.39l5.44-7.75c2.12-1.35,1.37-3.38,1.24-5.26a5.74,5.74,0,0,0,4.9-2.7c8.21-11.28,19.53-19,30.88-26.6,8.35-5.58,14.68-3.88,20.25,4.47,2.62,3.94,5.08,8,8.77,11.16,1.55,1.32,3.33,3.08-.67,3.52-2.45-2.27-5.77-4.09-7.19-6.89-4.38-8.65-10.32-7.5-16.49-3.05-13.64,9.83-25.41,21.73-36.68,34.14-1.92,2.11-1.53,4.62-2,7.06-2.63,14.07-8.64,25.73-22.39,32.32-10,4.78-18.7,11.21-22.93,22.17C149.63,471.21,148.78,473.87,145.61,474.14Z"/><path class="cls-7" d="M557.65,235.42c-5.56,5.77-13.84,3.16-20.18,6.53-12.39-.29-13.25-1.14-13.51-13.33-.2-9.87-4.85-13.32-14.66-11.27-10,2.09-19.29,7.19-29.75,7.61,3.5-7-4.85-4.55-6.17-7.71,2.9-4.79,8.32-4.69,12.58-5.15,19-2,37.93-.8,55,8.62C547.32,224.21,552.14,230.44,557.65,235.42Z"/><path class="cls-8" d="M455.06,369.2c7.46-6,14.84-12.19,22.44-18.05a15,15,0,0,1,9.17-3.45c-.39,12.43,2.92,23.47,12.14,32.29-3.26,5.1,1.08,10.44-.47,15.6-2.25-3.42-4.39-9.34-7.11-.23a3.34,3.34,0,0,1-2.24,2.07c-1.72.14-2.19-1.5-2.21-2.86-.07-6.52-4.51-10.3-8.72-14.25,3.24-3.33,1.09-5.73-1.88-6.79-2.45-.87-5.43-.25-8.17-.3C463.72,371.8,459.81,369.15,455.06,369.2Z"/><path class="cls-9" d="M266.73,386.4c0-.82-.27-2.17.11-2.4,8.51-5.16,6.93-12.83,4.55-20.13-2.64-8.08-1.75-14.39,6.16-18.71,3.74,1.44,7.26-.58,10.9-.7a50.68,50.68,0,0,0,1.36,26.08c1.44,4.63-.65,9.31-1.5,13.93C281.27,386.84,274,387.06,266.73,386.4Z"/><path class="cls-7" d="M168.55,326.21c3.14.18,6.62-1.94,9.29,1.38-4.47,4.15-5.62,10.08-8.16,15.27-4.75,9.72-9.49,19.3-16.57,27.83-5.17,6.22-5,15-5.39,23.09l-.05,0-1.95-.57c-1.48-6.28-4.61-10.54-11.9-9.69l-1.88-.63c.95-6.58,7.49-8.52,11-13,5.45-7.1,10.35-14.38,14-22.61C160.13,339.93,163.63,332.66,168.55,326.21Z"/><path class="cls-7" d="M119,431.89c-7.07,6-4.68,14.79-6.63,22.3a12.27,12.27,0,0,0-.47,1.37l-3.36,0c-.88-6.32,2.26-11.94,3.12-17.91,1.74-12.06,2.67-24.22,3.94-36.34,4.43-3.26,5.6-10.87,13.2-9.89,10,1.15,5.93,9.87,8.16,15.19-12.25-1-17.35,1.95-19.44,11.38A20.78,20.78,0,0,0,119,431.89Z"/><path class="cls-9" d="M111.88,455.56a12.27,12.27,0,0,1,.47-1.37c6.83-2.38,11.42-1.64,11.42,7.22,0,4.69,5.46,6.65,6.62,11h0l-.06,2.11c-5.44,1.47-10.68,4.92-16.61,1.75-.33-1.05-.85-1.89-2.12-1.91l-.06,0Q111.72,465,111.88,455.56Z"/><path class="cls-2" d="M283.49,480.89c6.47,2.8,13.34.64,20,1.59-.83,3.65,2.44,8.8-3.71,10.51-6.81,1.9-14.58,3.54-20.1-.55C276.18,489.88,280.13,484.21,283.49,480.89Z"/><path class="cls-10" d="M312.35,479.29c6.66,1.95,13.29,1.07,19.92-.16-.14,3.92,2.21,9.79-2.36,11-6.22,1.68-13.74,4.45-19.57.56C305.28,487.33,311.27,483.13,312.35,479.29Z"/><path class="cls-2" d="M529,474c5.46,3.72,11,.85,16.59.33-.4,3.64,2.19,9-1.85,10.53a31.17,31.17,0,0,1-19.48,1.25c-2.35-.64-2.32-2.19-1.25-3.69C525,479.64,525,475.38,529,474Z"/><path class="cls-6" d="M128.78,391.39c-7.6-1-8.77,6.63-13.2,9.89-5.49-6-9.8-1.69-14.09,2.32-1.35-7.11,3.13-14.37,10.61-14.34,7.75,0,13.28-4.19,19.84-6.34l1.88.63C133.63,387.12,128.11,387.26,128.78,391.39Z"/><path class="cls-2" d="M500.52,469c6.13,4.87,12.52-1.23,18.73.43-.1,3.29,2.61,8-2.62,9.06-6.12,1.24-13.06,4-18.54-.07C495.2,476.3,499,472.1,500.52,469Z"/><path class="cls-3" d="M498.34,395.59c1.55-5.16-2.79-10.5.47-15.6l9.79,1.83c1.53,4.54-1.66,7.81-3.12,11.55l0-.05c-2.42,0-3.45,1.28-3.33,3.61-.17,2.12-.33,4.23-.5,6.34a5,5,0,0,0-1.39.25h.06l-1.75-1.82Z"/><path class="cls-3" d="M468,373.23c2.74,0,5.72-.57,8.17.3,3,1.06,5.12,3.46,1.88,6.79-5.72,2.75-.57,8.82-4.67,13.26C469.11,387.17,470.64,379.53,468,373.23Z"/><path class="cls-4" d="M111.88,455.56q-.16,9.39-.34,18.79c-7.18-3.47-8.14-7-4.62-17.05l1.59-1.76h0Z"/><path class="cls-8" d="M502.2,396.93c-.12-2.33.91-3.61,3.33-3.61l-.18,3.41Z"/><path class="cls-4" d="M111.6,474.31c1.27,0,1.79.86,2.12,1.91C112.14,476.56,111.77,475.55,111.6,474.31Z"/><path class="cls-7" d="M108.51,455.54l-1.59,1.76Z"/><path class="cls-8" d="M500.31,403.52a5,5,0,0,1,1.39-.25C501.4,404.31,500.91,404.2,500.31,403.52Z"/><path class="cls-8" d="M498.62,401.71l1.75,1.82A1.75,1.75,0,0,1,498.62,401.71Z"/><path class="cls-11" d="M495.17,305.87c-3.58.23-4.77,3.27-6.86,5.48-12.62,13.35-24.15,28.17-40.45,37.27-14.71,8.22-31.31,10.6-47.93,12.9-21.33,3-42.09.43-62.84-3.95,10.66-10.78,21.5-21.35,27.49-35.81a9.58,9.58,0,0,1,7.68-5.86c3.35,9,3.3,16-7.82,20.29-5.72,2.21-3.56,10.68,3.26,12.36,8,2,16.37,3.71,23.6-2.74,3.06-2.73,6.24-3.79,9.26.11,3.35,4.32,7.11,3.67,10.85.75,4.45-3.48,11-6,9.2-13.32-1.31-5.29-.94-10.45-1.06-15.7,10.06-1.69,16.25-9.42,23.69-15.19,5.45-1.62,5.78-8.57,11.25-10.47,6.91-2.4,7.64-7.16,3.66-12.95.83-1.47,2.06-3.72,3.43-6.54,3.73-7.7,4.1-10.62,6-14.72.57-1.27,6.7-14.3,19.81-19.26a28.2,28.2,0,0,1,10.86-1.82c7.33.14,12.81,3.05,16.13,8.72,3.17,5.41,6.84,10.84,8,17.27-4.92,3.69-11.65,4.92-14.13,12-.93,2.69-5,1.16-7.69.86-2.15-.25-4,.41-4.88,2.38-.74,1.6-.66,3.71,1,4.44,12.35,5.34,8,11,.46,16.77C494.92,300.92,495.54,303.54,495.17,305.87Z"/><path class="cls-2" d="M276.5,237c-5.27-3-5.21-6.05-.95-10.29,14.91-14.83,27.93-15,42.65-.13,3.81,3.85,7.41,6.31,13.66,6.27,8.86-.06,11.28,7.82,12.92,15.15,1.72,7.76-3.15,12.14-9,15.16-2.75,1.42-5.89,1.84-6.7,5.34-2.77,11.94-12.27,14.32-22,13.48s-13.05,3.44-15.05,11.42a101.45,101.45,0,0,1-4.93,15.05c-2.37,5.53-6.51,7.17-12.27,4.34-9.17-4.49-19.83-29.37-16.46-38.88.1-.27.11-.71.28-.78,13.07-5.22,7.68-22.3,18.59-29,2-1.2.79-3.61.7-5.5C277.47,238.12,277,237.57,276.5,237Z"/><path class="cls-12" d="M419.55,317.65c.12,5.25-.25,10.41,1.06,15.7,1.81,7.29-4.75,9.84-9.2,13.32-3.74,2.92-7.5,3.57-10.85-.75-3-3.9-6.2-2.84-9.26-.11-7.23,6.45-15.58,4.73-23.6,2.74-6.82-1.68-9-10.15-3.26-12.36,11.12-4.3,11.17-11.25,7.82-20.29.85-6.5,5.41-7.91,10.87-7.54,7.69.53,14.86.75,22.69-2.12S416.56,311.77,419.55,317.65Z"/><path class="cls-2" d="M194,393.36c.13,1.88.88,3.91-1.24,5.26-5.41-5.2-13.6-6.35-17.13-1.41-6.81,9.5-15.35,10-25,9.66l-1.42-1.73c-.49-3.78-3.08-7.27-1.57-11.33l.05,0a38.81,38.81,0,0,0,17.45-4.57C175.47,384,185.22,386.34,194,393.36Z"/><path class="cls-12" d="M339.1,304.53c-.62,6.75-3.63,10.75-7,14.52-.64.73-1.88.93-2.84,1.37-2-7-10.62-4.62-13.94-10-3.93-6.31-2.44-12.59,4.12-16.1,1.93-1,3.81-2.18,5.66-3.34,1.15-.73,3.49-1.89,3.51-1.31C328.91,297.21,339.31,298.23,339.1,304.53Z"/><path class="cls-12" d="M458.15,279c4,5.79,3.25,10.55-3.66,12.95-5.47,1.9-5.8,8.85-11.25,10.47-10.69-6-11.17-10.78-1.88-17.91,1.29-1,2.81-2.11,3.41-3.51C448.23,273,452.88,274.21,458.15,279Z"/><path class="cls-2" d="M288.45,344.46c-3.64.12-7.16,2.14-10.9.7-3.55-3.08-3.94-12.44-.57-16.46,2.78-3.33,5.61-2.46,8.56,0C291.76,333.93,292.78,339.1,288.45,344.46Z"/><path class="cls-13" d="M237.88,278.75l.92-.6c-.2.31-.4.62-.59.93Z"/><path class="cls-14" d="M508.6,381.82,498.81,380c-9.22-8.82-12.53-19.86-12.14-32.29,14.39-9.19,27.54,2.38,33.71,14.31,2.26,4.36,4,9.27,3.62,14.49A21.66,21.66,0,0,1,508.6,381.82Z"/><path class="cls-8" d="M508.6,381.82A21.66,21.66,0,0,0,524,376.5c2.38,1.76,1.47,4.35,1.67,6.66,0,1.19-.07,2.37-.1,3.56-6.77,2-12.66,6.65-20.09,6.65C506.94,389.63,510.13,386.36,508.6,381.82Z"/><path class="cls-13" d="M149.24,405.14l1.42,1.73c4.11,7.38,10.86,8.94,18.56,8.41-1.6,5.55-7.19,10.14-3.74,16.94.74,1.48-.66,3.39-2.32,4-8.72,3.12-14.37,9.72-19.85,16.7-4.29,5.47-9,4.95-12.53-1-2-3.46-2.58-7.22-2.56-11.21,0-6-2.73-9.48-9.24-8.82A20.78,20.78,0,0,1,117.5,418c2.09-9.43,7.19-12.35,19.44-11.38l6.4-1.21Zm1.7,10.32c-8.07,0-16.22-1.46-24.31,1.26-2.58.86-5.32,2.12-4.23,5,1.39,3.72,3.24,7.36,7.82,8.94,4,1.37,6.84,1.2,9.53-2.1C143.25,424.29,146.91,420.16,150.94,415.46Z"/><path class="cls-10" d="M169.22,415.28c-7.7.53-14.45-1-18.56-8.41,9.66.29,18.2-.16,25-9.66,3.53-4.94,11.72-3.79,17.13,1.41l-5.44,7.75C181.73,410.18,176.6,415,169.22,415.28Z"/><path class="cls-9" d="M132.07,470.68c.32-2.12.46-4.4,3.66-4.24.21,2.77-1,4.09-3.66,4.24Z"/><path class="cls-9" d="M130.39,472.37l1.68-1.69h0l-1.68,1.68Z"/><path class="cls-5" d="M143.34,405.37l-6.4,1.21c-2.23-5.32,1.84-14-8.16-15.19-.67-4.13,4.85-4.27,5-7.84,7.29-.85,10.42,3.41,11.9,9.69C145.55,397.4,145.52,401.59,143.34,405.37Z"/><path class="cls-1" d="M143.34,405.37c2.18-3.78,2.21-8,2.38-12.13l1.95.57c-1.51,4.06,1.08,7.55,1.57,11.33Z"/><path class="cls-1" d="M475.2,279l-.71-.41.73.39Z"/><path class="cls-4" d="M493.73,295.73l.69.42-.75-.36Z"/><path class="cls-2" d="M150.94,415.46c-4,4.7-7.69,8.83-11.19,13.1-2.69,3.3-5.57,3.47-9.53,2.1-4.58-1.58-6.43-5.22-7.82-8.94-1.09-2.88,1.65-4.14,4.23-5C134.72,414,142.87,415.43,150.94,415.46Z"/></svg>