<svg id="Layer_1" data-name="Layer 1" xmlns="http://www.w3.org/2000/svg" viewBox="0 0 720 720"><defs><style>.cls-1{fill:#392720;}.cls-2{fill:#b19372;}.cls-3{fill:#eddec9;}.cls-4{fill:#d6c3aa;}.cls-5{fill:#cab497;}.cls-6{fill:#b2987c;}.cls-7{fill:#e5c1ad;}.cls-8{fill:#a89680;}.cls-9{fill:#3e2d26;}.cls-10{fill:#bda385;}.cls-11{fill:#d79f89;}.cls-12{fill:#160c0a;}.cls-13{fill:#533f38;}.cls-14{fill:#a18367;}.cls-15{fill:#c7b192;}</style></defs><title>Artboard 1_1</title><path class="cls-1" d="M419.92,435.43c-1-6.52-1.86-13.05-3-19.55-2.16-12.64-3.73-14-16.46-14.54q.61-5.82,1.22-11.62l.06-1.71c-.68-12.41,5.72-19.67,16.85-23.89,7.5-2.85,13.31-8.19,13.34-16.49,0-6.72,2.92-8.27,8.45-8.27,3.08,0,6.15-.18,9.22-.09,6.7.19,10.14-4.06,12.53-9.38,2.3-5.13,4.51-10.43-.79-15.33-2.57-2.39-3.59-6.15-.86-8.12,7.39-5.36,6.43-10.11.33-15.43-1.21-1.06-2.62-2.47-1-4.24s3.11-.39,4.57.24c1.27.54,2.43,1.34,3.65,2,4.61,2.48,9.21,8.84,14.53,3.11,4.72-5.07-1.3-9.49-3.46-14-1.16-2.45-4.36-4.3-1.19-8,7-8.16,3.6-18.18-7.05-21.51-7.16-2.24-14.9-2.1-21.81-5.37a3.9,3.9,0,0,1,6.27-2.79c8.35,6.17,14.85-2.6,22.36-2.17,7.13,4.05,14,4.66,20.29-1.62l4.79-1.62,9.18,8c-6.1-1.32-9.7,2.57-6.7,5.11,5.77,4.87,5.16,12.66,10.27,17.3l-1.11,3.1c-5.34-.85-3,4.5-5.1,6.3-1.45.13-3.15.1-3-1.8.51-6.4-3.5-12.14-1.77-20-6.35,10.92-4,26.56,4.68,37.5.62,2.88,1.76,5.57,1,8.77-1.05,4.52,1.39,7.18,5.77,8.18.1,1.6.21,3.2.31,4.8-2.78-.19-5.66,0-8.32-.66-5.18-1.3-10.15-2.16-13.25,3.47-3,5.43-1.41,10.61,2.78,14.47,6.35,5.85,4.59,11.25.11,16.85a43.74,43.74,0,0,1-17.22,13,55,55,0,0,0-21.58,16.72l-8.15,7.3c-6.73,1.85-5.63,8.17-6.79,12.81-2.13,8.52.13,18.23-7.15,25.31C428.52,423.05,425.87,431.26,419.92,435.43Z"/><path class="cls-2" d="M401.71,389.72q-.6,5.8-1.22,11.62A392.48,392.48,0,0,1,338.82,413a60.83,60.83,0,0,1-43.57-11.68c-1.82-1.34-3.49-2.85-5.93-2.8-4.1-7.25-11.84-10.45-17.66-15.8-2.58-2.37-5.06-5.48-9.35-4.64-15-7.62-26.51-2.75-35.52,15.05-6.62-.87-8.1-9.24-14.74-10.07-3.08-6.78-5.7-14.09-15.27-13.54.47-4.71-2.74-5.9-6.38-6.68-.25-1.38-.51-2.76-.77-4.15-.37-.84-.74-1.67-1.1-2.51-2.6-22.59-7.92-44.69-12.11-67,.61-1.2,1.22-2.4,1.82-3.6l1.76-.2,3.31.13c15.54,3.63,19.46,15.12,20.45,29.17.43,6,2.39,12,4,17.88,2.62,9.36,9.16,12.88,18,9.58a43.45,43.45,0,0,0,9.44-5.19c10.1-7.06,15.69-6.83,23.3,3,7.77,10,17.11,18.44,26,27.27a70,70,0,0,0,24.22,15.91c19.81,7.63,40.79,8,61.5,10C381,394.15,391.21,390.73,401.71,389.72ZM254.84,363.59c-4.89-6-7.94-12.68-10.84-19.52-1.32-3.1-4.33-3.73-7.76-1.44-6.3,4.19-13,7.71-20.73,8.51-3,.31-3.76,2.19-3.54,4.64.28,3.23-1.56,7.14,1.36,9.53,2.3,1.9,4.86-.31,6.57-2.06s4-1.61,6.09-2.15C235.67,358.62,244.44,363.63,254.84,363.59Z"/><path class="cls-3" d="M514.43,268.62l1.11-3.1c8.6-14.57,3.25-27.66-4.28-40.53-1.48-10.16-1-19.43,10.62-23.74.41-.15.61-.88.92-1.35,13.18-2.93,25.65-.73,37.61,5.19q1.05,3.32,2.08,6.63l1,3.23,0,0c-6.41,2.23-6.34,9.15-9.64,13.63-1.06,1.45.88,2.95,2.81,3,2.23.1,4.46.08,6.68.11a15.19,15.19,0,0,1,3.8,8.45l-.33,1.64c-2.27-.92-4-4.31-7-1.72-.93.81-2.08,2.54-1.78,3.36.89,2.5,3.63,1.27,5.49,2-.24,2.2.55,4.55-1,6.53-9.94,3.19-12.4,7.45-10.22,17.73,1.25,5.9,2.53,11.78-.53,17.54-3.46-3-8.22-2.81-12.05-4.93l-9.84-1.45c-1.91-3-4.89-3.69-8.15-3.79-.17-3.28-.33-6.56-.55-10.88C519,268.4,516.84,269.09,514.43,268.62Z"/><path class="cls-4" d="M458.86,376.29a55,55,0,0,1,21.58-16.72,43.74,43.74,0,0,0,17.22-13c4.48-5.6,6.24-11-.11-16.85-4.19-3.86-5.76-9-2.78-14.47,3.1-5.63,8.07-4.77,13.25-3.47,2.66.67,5.54.47,8.32.66,4.31,2.27,8.78,3.39,13.61,1.86-5.71,21.18-11.31,42.38-17.18,63.52-2.17,7.8-5.17,15.32-12,20.51-6.34-3.66,2.09-6.72.42-10.18,7.36-10.94,7.58-23.59,9.83-37.1-4.05,3.05-6.74,5.39-9.73,7.23-2.56,1.58-5.95,2.19-5.25,6.35-3-1.08-4.76.06-6.84,2.46-4.73,5.46-10,10.45-15.08,15.63q1.73,1.6,3.47,3.19c2.74-3.39,5.21-7.06,8.31-10.08s5.21-7.39,10.24-7.89c10.47-1.49,11.44-.35,7.51,9.93-1.29,3.37-2.93,6.53-2.48,10.26-6.88,5.45-10.62,13.28-15.35,20.35L481,411.66c-3.62,0-7.28.28-10.85-.17s-6.39-2.06-5.6-6.6c.89-5.17,1.25-10.45,2.48-15.53C468.75,382,466.92,377.32,458.86,376.29Z"/><path class="cls-5" d="M196.78,369.49c9.57-.55,12.19,6.76,15.27,13.54-.06,8.66,2.65,15.58,11.65,18.56-1.79,5.27-3.35,10.63-5.4,15.81-11.59,29.27-15.07,58.63-1.3,88.26-2.74,1.47-5.69.54-8.54.76L202,504.35c-4.25-2.68-4.5-6.14-4.12-11.15,1.63-21.94,2.49-44-3.5-65.51-2.77-9.93,2.09-18.65,2.81-28a73.37,73.37,0,0,0-2.68-26.28A4.2,4.2,0,0,0,196.78,369.49Z"/><path class="cls-6" d="M265.65,414.68a20.72,20.72,0,0,1-.67,9.94c-6.23,18.67-5.27,37.39-.25,56.14.57,2.14.78,4.37,1.16,6.56-7.67,1.24-4.6,7.17-5.05,11.56-2.84,1.44-6-2.95-8.72.43-5.42-2.54-7.09-6.18-6-12.52,2.77-16.7-2.1-32.42-8-47.84-2.17-5.7-4.26-11.42-6.38-17.13l12.09,1.61c0,3.08.48,6,3.28,7.82a2.87,2.87,0,0,0,2.73-.79c1.62-3.3.68-6.27-1.74-8.88a7.45,7.45,0,0,1-.82-1.4c.7-3.56-1.87-5.84-3.37-8.55,3.64-.22,6-2.56,8.42-4.94,5.51-1.33,11.59,3.26,16.76-1.61C270,409,266.14,411.25,265.65,414.68Z"/><path class="cls-7" d="M252.33,406.69c-2.38,2.38-4.78,4.72-8.42,4.94-4.07-.15-9,1.1-12-.73-8.18-4.88-8.63-.84-8.11,5.64-3.46,10.17-4.11,21-6,31.41-2.49,13.94-6.22,28.15-2.69,42.67,1.11,4.56,3.77,8.71,3.55,13.6a3,3,0,0,1-.08,1.51,1.91,1.91,0,0,1-1.57-.07c-13.77-29.63-10.29-59,1.3-88.26,2-5.18,3.61-10.54,5.4-15.81l3.09-8.49c9-17.8,20.51-22.67,35.52-15.05C261.42,388.45,259.72,398.56,252.33,406.69Z"/><path class="cls-8" d="M178.24,285.56c-.6,1.2-1.21,2.4-1.82,3.6C167.89,294,168,303,166.79,310.79c-2.92,19.24-2.34,38.75,3.27,57.36,7,23.14,4.49,45.94.68,68.9-2,12-4.66,23.83-7,35.61-2.35,0-2.4-1.47-2.24-2.35,2.77-15.29-.8-30.56-1.1-45.77a147.51,147.51,0,0,1,4.17-36.89c3.54-15.43-2.86-30.42-4-45.69-1.18-16-2.21-31.88,2.52-47.47,2.11-6.94,4.38-13.92,11.12-18.09.21.23.43.45.65.67-.24,2.92,2.32,4.46,3.34,6.77Z"/><path class="cls-9" d="M267.53,245.45l4.91-.73,1.68.21a194.45,194.45,0,0,0,89.68,4c-2.15,7.56-7,10.8-15,11.84-8.63,1.13-17.91-.41-25.83,4.74-7,3.32-13.85,6.92-21,9.9-5.61,2.34-10.46,1.21-12.62-5.29-1.21-3.65-2.61-5.21-6-1.74-1.28,1.33-3.5,2.68-5.28,1.68-2.38-1.35-.52-3.35.22-5,1.78-3.92-.41-6.22-3.27-8.28-1.78-2.26-4.26-2.26-6.78-2.11l.08.46c-.22-1.56-1.52-1.58-2.64-1.86l.23,0C264.71,250.34,265.66,247.81,267.53,245.45Z"/><path class="cls-3" d="M323,265.52c7.92-5.15,17.2-3.61,25.83-4.74,8-1,12.82-4.28,15-11.84,25.47-4.38,50.56-10.92,76.32-13.65,1.6-.17,3.29.4,4.94.63-5.85,2.53-.87,4.24.46,6.23-4.61,3.09-10.56-.45-15.09,3-11-4.9-30.39,1-34.07,11-2.88,7.9-8.08,11.48-15.93,12.68-4.62.71-9.12,2.11-13.67,3.2-6.72-2.57-13.8-1.06-20.65-1.87C338.32,269.31,330,270.49,323,265.52Z"/><path class="cls-4" d="M436.77,421.71c7.28-7.08,5-16.79,7.15-25.31,1.16-4.64.06-11,6.79-12.8-1,10.31-5.86,20.45-1.48,31-.59.91-1.76,1.86-1.69,2.72,1.47,19.3-3.73,38.22-3.42,57.36.17,10.41,3.2,20.77,4.94,31.16-4.4.87-4.84,7.44-10.13,7l-4.91-.3c-3.73-2.3-4.64-5.93-4.8-10-.51-13,.47-26-1.87-38.9,2,1.11,2.84-.71,4.26-1.39,5.81-2.77,2.06-9.68,5.71-12.95,4.36-3.91,3.71-8.15,2.51-12.93S437.77,426.63,436.77,421.71Z"/><path class="cls-6" d="M472,507.51c-1.18-10.21-3.11-20.4-3.36-30.63-.37-14.62-8.12-27.18-10.15-41.29-.81-5.56-1-11.1-1.41-16.65l19-2.27c4.68-.51,7.09.69,7,6.3a65.72,65.72,0,0,1-3.83,20.41A53.19,53.19,0,0,0,478,474.56c2.65,10.75,6.23,21.39,6.21,32.67l-3.3.51Z"/><path class="cls-3" d="M267.53,245.45c-1.87,2.36-2.82,4.89-1.55,7.87-9.64,1.14-17.72-4.48-26.73-6.14-10.78-2-15.49,1.46-15.54,11.89-.07,11.7-.88,12.41-12.77,13-9.47.49-18.86,1.49-27.91,4.74-2,.72-4.51,3.21-6.74.05.07-.42.15-.84.25-1.25a5.63,5.63,0,0,1,2.57-5c20.17-11.27,36.66-30,62.35-30.07C250.58,240.52,259.6,239.74,267.53,245.45Z"/><path class="cls-9" d="M445.52,242.15c-1.33-2-6.31-3.7-.46-6.23,4.93-.81,9.85-1.69,14.79-2.4,4.24-.61,10.1.09,4.7-7-.44-.58,0-2.19.47-3.05,3.84-6.64,18.5-11.28,24.54-6.64,4.75,3.65,8.65,3,13.3,1.49,2.51,3.82-.73,8.39,1.6,12.24l-1.67,4.53L498,236.69l-.11-.11c-.43-2.19-1-4.1-3.44-1.45-5.27-.81-7.2-5.92-11-8.59s-7.88-2.39-10.89.38c-3.88,3.58.75,5.7,2.55,8.15.82,1.12,1.76,2.16,2.64,3.24-7.51-.43-14,8.34-22.36,2.17a3.9,3.9,0,0,0-6.27,2.79Z"/><path class="cls-10" d="M476,416.67l-19,2.27c-1.93-2.68-4.85-3.55-7.83-4.32-4.38-10.57.43-20.71,1.48-31l8.15-7.31c8.06,1,9.89,5.7,8.13,13.07-1.23,5.08-1.59,10.36-2.48,15.53-.79,4.54,2.06,6.15,5.6,6.6s7.23.14,10.85.17C480.43,414.42,477,414.36,476,416.67Z"/><path class="cls-3" d="M476,416.67c1-2.31,4.39-2.25,4.92-5l4.89-3.22c5.49.33,6.71-6.91,12.06-6.79-11.57,15.11-6.67,34.27-12.31,50.58-6.71,19.37.45,35.78,6.6,52.88a16.45,16.45,0,0,1-8,2.12c0-11.28-3.56-21.92-6.21-32.67a53.19,53.19,0,0,1,1.17-31.18A65.72,65.72,0,0,0,483,423C483.13,417.36,480.72,416.16,476,416.67Z"/><path class="cls-11" d="M252.33,406.69c7.39-8.13,9.09-18.24,10-28.64,4.29-.84,6.77,2.27,9.35,4.64,5.82,5.35,13.56,8.55,17.66,15.8l-9.39,4.91c-3.73-.17-7.5-.62-10.84,1.68C263.92,410,257.84,405.36,252.33,406.69Z"/><path class="cls-9" d="M567.14,240.15a15.19,15.19,0,0,0-3.8-8.45c-.37-3.2-3.6-6.33-.26-9.63,2.62,6.28,7.47,5.83,12.45,3.77,10.37-4.27,20.06-3.11,29.06,3.36,3.07,2.21,6.47,4.8,3.16,9.38-7.48-5.77-14.68-7.74-22.7-.29C580,243,573.43,242.54,567.14,240.15Z"/><path class="cls-9" d="M436.77,421.71c1,4.92,1.84,9.87,3.06,14.73s1.85,9-2.51,12.93c-3.65,3.27.1,10.18-5.71,12.95-1.42.68-2.3,2.5-4.26,1.39-1-9.81-7.64-18.15-7.43-28.28C425.87,431.26,428.52,423.05,436.77,421.71Z"/><path class="cls-12" d="M567.14,240.15c6.29,2.39,12.85,2.85,17.91-1.86,8-7.45,15.22-5.48,22.7.29C594.31,253.48,579,256.2,566.18,246l.63-4.16Z"/><path class="cls-8" d="M504.46,230.54c-2.33-3.85.91-8.42-1.6-12.24l.09-5.16c6.18-2.16,3.28-4.67-.08-6.3-2.13-1-4.45-1.73-6.68-2.74-9.33-4.21-9.55-13.06-11.57-21.06,1.62-5,4.51-8.72,9.5-10.26,1.91,1.67.91,2.94.42,4.13-5.8,14-3.71,19.41,9.72,25.91,2.67,1.29,4.45,1.87,7.37-.23a16.63,16.63,0,0,1,11.17-2.69c-.31.47-.51,1.2-.92,1.35-11.65,4.31-12.1,13.58-10.62,23.74C507.18,224.61,507.1,229.14,504.46,230.54Z"/><path class="cls-4" d="M551.72,287.19c3.06-5.76,1.78-11.64.53-17.54-2.18-10.28.28-14.54,10.22-17.73,1.62,16.61-6.94,31.94-6,48.57.31,5.57-3.07,10.14-9.78,10.31,0-1.13,0-2.25,0-3.37h-.06c1.91-1.23,1.67-3.17,1.68-5C552.73,298.05,554.07,293,551.72,287.19Z"/><path class="cls-2" d="M546.73,307.43c0,1.12,0,2.24-.05,3.37-4.43,6.68-10.46,5.66-16.73,3.46-4.83,1.53-9.3.41-13.61-1.86-.1-1.6-.21-3.2-.31-4.8,2.76-.29,7-1.28,4.79-4.3-3.84-5.3-.58-11-2.72-16.13l3.32-3.39,8.41-3,9.85,1.45a3.92,3.92,0,0,1-3.7,1.52c-5.26-.37-11,.32-13.59,4.76s5.69,4.45,5.71,8.76c-1.36.72-1.46,2-1.44,3.31-2.32,1.64-3,4.16-1.81,6.36,1,1.8,3.4.76,5.32.66C535.68,307.34,541.21,307.47,546.73,307.43Z"/><path class="cls-8" d="M562.49,211.72q-1-3.32-2.08-6.63a47.77,47.77,0,0,0,5-.59c8.95-2,10.65-5.35,7.75-14.17-1.14-3.46-5.46-8.33-1.87-10.3,4-2.24,6.2,4.05,9,6.81a12.88,12.88,0,0,1,1.67,2.82,2.89,2.89,0,0,0-1.6,3.45c3.19,8.12-2.5,11.44-8,14.6C569.3,209.46,565.79,210.41,562.49,211.72Z"/><path class="cls-11" d="M223.76,416.54c-.52-6.48-.07-10.52,8.11-5.64,3.07,1.83,8,.58,12,.73,1.5,2.71,4.07,5,3.37,8.55-2.81-.77-3.7-5-7.51-4.25-1.1,4,4.78,3.93,4.06,7.5l-12.09-1.61Z"/><path class="cls-9" d="M484.21,507.23a16.45,16.45,0,0,0,8-2.12c.81,4,6.07,7.65,2.42,11.74-4.53,5.07-10.19.1-15.36.11,0-3.16.1-6.32,1.65-9.22Z"/><path class="cls-13" d="M438.93,512.88c5.29.42,5.73-6.15,10.13-7,.47,1.1.95,2.2,1.43,3.3-1.1.4-1.89,1.08-1.07,2.24,1,1.34,2.21.9,3.38.15l.21.59-.53.33q0,5.68,0,11.37c-4.58.59-9.2,1.59-13.5-1.15Q438.94,517.78,438.93,512.88Z"/><path class="cls-14" d="M484.62,183c2,8,2.24,16.85,11.57,21.06,2.23,1,4.55,1.71,6.68,2.74,3.36,1.63,6.26,4.14.08,6.3-6.2-2.73-11.9-6.15-15.95-11.8S482.28,189.55,484.62,183Z"/><path class="cls-14" d="M562.49,211.72c3.3-1.31,6.81-2.26,9.86-4,5.48-3.16,11.17-6.48,8-14.6a2.89,2.89,0,0,1,1.6-3.45c6.28,10.79,4.47,16.73-6.76,21.36-3.8,1.57-7.81,2.63-11.73,3.93Z"/><path class="cls-2" d="M269.09,405.08c3.34-2.3,7.11-1.85,10.84-1.68-2.59,6.24-1.49,13.54-5.1,19.53-3.12-.85-2.57-3.16-2.4-4.85.72-7.32-1.94-7.41-6.77-3.4C266.14,411.25,270,409,269.09,405.08Z"/><path class="cls-14" d="M252.12,499.31c2.75-3.38,5.88,1,8.72-.42,2.72,0,3-1.88,3-3.91,0-5.71,3.14-3.56,5.89-2.31q.47,3.19.91,6.39c-4.17,2.17-11.3.07-11.53,8C254,507,246.82,508.82,252.12,499.31Z"/><path class="cls-9" d="M259.12,507c.23-7.89,7.36-5.79,11.53-8-.19,3.16,5,6.07,1.76,8.75C268.39,511.14,263.58,507.64,259.12,507Z"/><path class="cls-4" d="M563.08,222.07c-3.34,3.3-.11,6.43.26,9.63-2.22,0-4.45,0-6.68-.11-1.93-.09-3.87-1.59-2.81-3,3.3-4.48,3.23-11.4,9.64-13.63Q563.3,218.49,563.08,222.07Z"/><path class="cls-15" d="M497.91,401.65c-5.35-.12-6.57,7.12-12.06,6.79,4.73-7.07,8.47-14.9,15.35-20.35l0,0c1.67,3.46-6.76,6.52-.42,10.18C501,400.37,499.59,401.15,497.91,401.65Z"/><path class="cls-13" d="M217,505.66a1.91,1.91,0,0,0,1.57.07c0,3.35.07,6.71.1,10.07l-8.47-.16-1.74-9.22C211.31,506.2,214.26,507.13,217,505.66Z"/><path class="cls-9" d="M208.46,506.42l1.74,9.22c-10.57,1.91-8-5.66-8.16-11.29Z"/><path class="cls-1" d="M218.67,515.8c0-3.36-.07-6.72-.1-10.07a3,3,0,0,0,.08-1.51c5.83,1,6.07,6.57,6.36,10.14C225.32,518.14,221.2,516.59,218.67,515.8Z"/><path class="cls-12" d="M480.91,507.74c-1.55,2.9-1.62,6.06-1.65,9.22-9.52,2.32-6.26-5.21-7.28-9.45Z"/><path class="cls-9" d="M452.47,523.84q0-5.69,0-11.37c5.91-.49,5.76,4.84,6.19,7.88C459.14,523.63,455.2,523.69,452.47,523.84Z"/><path class="cls-5" d="M269.74,492.67c-2.75-1.25-5.85-3.4-5.89,2.31,0,2-.29,3.92-3,3.91.45-4.4-2.62-10.33,5.05-11.57C267.19,489.1,271.7,488.56,269.74,492.67Z"/><path class="cls-13" d="M566.81,241.79l-.63,4.16-2.67-.56c-1.86-.69-4.6.54-5.49-2-.3-.82.85-2.55,1.78-3.36C562.79,237.48,564.54,240.87,566.81,241.79Z"/><path class="cls-9" d="M438.93,512.88q0,4.9,0,9.81c-7.91-.31-4-6.39-5-10.11Z"/><path class="cls-10" d="M196.78,369.49a4.2,4.2,0,0,1-2.23,3.93c-2.65-3-4.6-6.35-4.15-10.61C194,363.59,197.25,364.78,196.78,369.49Z"/><path class="cls-4" d="M452.8,511.55c-1.17.75-2.42,1.19-3.38-.15-.82-1.16,0-1.84,1.07-2.24C451.92,509.32,452.5,510.3,452.8,511.55Z"/><path class="cls-3" d="M274.12,244.93l-1.68-.21C273.11,243.92,273.65,244.13,274.12,244.93Z"/><path class="cls-10" d="M188.53,356.15c.36.84.73,1.67,1.1,2.51C189.26,357.83,188.89,357,188.53,356.15Z"/><path class="cls-8" d="M176.54,275.62c-.1.41-.18.83-.25,1.25-.46.08-.94.15-1.41.2-.22-.22-.44-.44-.65-.67Z"/><path class="cls-15" d="M401.71,389.72c-10.5,1-20.75,4.43-31.47,3.39-20.71-2-41.69-2.39-61.5-10a70,70,0,0,1-24.22-15.91c-8.92-8.83-18.26-17.25-26-27.27-7.61-9.81-13.2-10-23.3-3a43.45,43.45,0,0,1-9.44,5.19c-8.8,3.3-15.34-.22-18-9.58-1.64-5.89-3.6-11.85-4-17.88-1-14.05-4.91-25.54-20.45-29.17,2.88-6.15,7.27-3.86,11-1.46,3.93,2.56,7.27,6,10.93,9,8.57,7,16,5.49,21-4.28,1-2,1.59-4.18,2.64-6.13,3.85-7.15,7.57-14.36,17-15.65,19.77-2.71,32.65,11.8,36.44,30.77-5.15-4.95-12.1-8.19-15-15.25-3.79-9.15-11.38-11.41-19.62-5.45-4.5,3.26-8.47,7.15-13,10.47-5.28,3.89-2.59,10.31-2,15.68.5,4.53,3.29,6.72,8.09,6.4,4-.26,6.17,2.06,6.52,6,.62,7.11,4,12.2,10.08,16.2,4.35,2.87,8,6.46,13.42,2.84s2.13-8,.88-12c-1.54-4.92-1.7-8.4,4.57-9.9,4.27-1,6.87-4.59,8.32-8.78,6.5,6,8.85,15,14.66,21.43,5.39,6,9.2,14,18.35,15.57-1,6.91-2.11,13.77-.4,20.78,1.57,6.43,4.46,9.06,11.37,6.39,6.22-2.39,12.87-3.63,19.26-5.59,2.85-.87,5.11-1.35,7.42,1.42,3.43,4.11,7.12,3.28,10.83-.13,5.33-4.89,11.87-7.22,18.95-8.14,4.56,11.32,11.1,21.61,16.82,32.32ZM294.23,349.13c1.09,3.89-1,10.61,6.82,10.45,5.91-.11,9.74-4,11.12-9.56.66-2.64-9-9.4-12.66-9.23C294.29,341,294.38,344.88,294.23,349.13Z"/><path class="cls-4" d="M401.77,388c-5.72-10.71-12.26-21-16.82-32.32,1.57-1.58,4.3-2.06,5.41-1.21,11.6,8.76,17.77-.62,24.35-7.32,6.05-6.17,11.3-13.11,17.1-19.54,2.86-3.18,6.07-6.39,10.34-1.53,1.85,2.11,3.6.77,5-.59,4-3.93,6.35-8.83,5.11-14.37-1.31-5.84-6.74-4.13-10.51-4-7,.33-7.69-2.77-5.39-8.12,1.77-4.1,3.85-8.07,5.48-12.21.62-1.58,1.54-3.55-1.33-4.76-8.39-3.55-10.35-10.19-5.84-18.19,1.42-2.53,4.73-6.86,2-7.92-5.77-2.24-3.92-7.43-6.23-10.78,4.53-3.49,10.48.05,15.09-3l3.56,1.12c6.91,3.27,14.65,3.13,21.81,5.37C481.54,252,485,262,477.94,270.15c-3.17,3.66,0,5.51,1.19,8,2.16,4.52,8.18,8.94,3.46,14-5.32,5.73-9.92-.63-14.53-3.11-1.22-.66-2.38-1.46-3.65-2-1.46-.63-3.06-1.89-4.57-.24s-.21,3.18,1,4.24c6.1,5.32,7.06,10.07-.33,15.43-2.73,2-1.71,5.73.86,8.12,5.3,4.9,3.09,10.2.79,15.33-2.39,5.32-5.83,9.57-12.53,9.38-3.07-.09-6.14.09-9.22.09-5.53,0-8.42,1.55-8.45,8.27,0,8.3-5.84,13.64-13.34,16.49C407.49,368.34,401.09,375.6,401.77,388Z"/><path class="cls-13" d="M504.46,230.54c2.64-1.4,2.72-5.93,6.8-5.55,7.53,12.87,12.88,26,4.28,40.53-5.11-4.64-4.5-12.43-10.27-17.3-3-2.54.6-6.43,6.7-5.11l-9.18-8Z"/><path class="cls-5" d="M518.1,287.17c2.14,5.09-1.12,10.83,2.72,16.13,2.18,3-2,4-4.79,4.3-4.38-1-6.82-3.66-5.77-8.18.74-3.2-.4-5.89-1-8.77,2.15-5.23-.5-10.49.09-15.73,2.07-1.8-.24-7.15,5.1-6.3,2.41.47,4.58-.22,6.7-2.48.22,4.32.38,7.6.55,10.88l-1.77.16c-.18-1.23-.37-2.46-.72-4.74C516.54,278,515.21,282.49,518.1,287.17Z"/><path class="cls-12" d="M477.71,238.31c-.88-1.08-1.82-2.12-2.64-3.24-1.8-2.45-6.43-4.57-2.55-8.15,3-2.77,7.14-3,10.89-.38s5.77,7.78,11,8.59a3.38,3.38,0,0,0,3.44,1.45l.11.11C491.7,243,484.84,242.36,477.71,238.31Z"/><path class="cls-8" d="M509.33,274.92c-.59,5.24,2.06,10.5-.09,15.73-8.65-10.94-11-26.58-4.68-37.5-1.73,7.83,2.28,13.57,1.77,20C506.18,275,507.88,275.05,509.33,274.92Z"/><path class="cls-4" d="M282.27,297.75c-3.79-19-16.67-33.48-36.44-30.77-9.4,1.29-13.12,8.5-17,15.65-1.05,1.95-1.62,4.16-2.64,6.13-5.07,9.77-12.45,11.27-21,4.28-3.66-3-7-6.45-10.93-9-3.69-2.4-8.08-4.69-11,1.46l-3.31-.13c-.6-.5-1.19-1-1.78-1.52-1-2.31-3.58-3.85-3.34-6.77.47-.05,1-.12,1.41-.2,2.23,3.16,4.74.67,6.74-.05,9.05-3.25,18.44-4.25,27.91-4.74,11.89-.6,12.7-1.31,12.77-13,0-10.43,4.76-13.86,15.54-11.89,9,1.66,17.09,7.28,26.73,6.14l-.23,0,2.64,1.86-.08-.46c1.78,2.25,4.25,2.29,6.78,2.11,2.86,2.06,5.05,4.36,3.27,8.28-.74,1.64-2.6,3.64-.22,5,1.78,1,4-.35,5.28-1.68,3.37-3.47,4.77-1.91,6,1.74,2.16,6.5,7,7.63,12.62,5.29,7.13-3,14-6.58,21-9.9,7,5,15.32,3.79,23.11,4.71,6.85.81,13.93-.7,20.65,1.87-1.26,1.61-2.54,4.19.36,4.32,7.33.33,8.48,9.87,16.27,10.29,1.38.07,5.55,4.85,9.79,6.25,2.42.81,3.17,4.78-.91,6.23-8.1,2.89-5.71,8.47-3.34,13.63,2.61,5.7,7,5.49,11.81,2.58,2.4-1.43,5.62-3.06,7.51-.22,1.66,2.5-.63,5.23-2.24,7.57-5.26,7.64-13.9,6.15-21.3,7.73-8.91,1.91-14.88-1.15-11.73-12.4,1.7-6.05.32-9.95-6.85-9.78-5.21.13-7.63-1.78-6.28-7.47.48-2,.66-6.61-3-5-7.74,3.38-7.43-2.31-8.87-6.51-3.57-10.47-7.35-13.22-16.94-12.34-10.31.95-25.8,16.26-26.45,26.26a10.49,10.49,0,0,0,4.47,9.4c11.37,8.78,13.37,15.52,8.5,28.31-9.15-1.6-13-9.56-18.35-15.57C293.36,318.91,291,310,284.51,304Z"/><path class="cls-14" d="M254.84,363.59c-10.4,0-19.17-5-28.85-2.49-2.13.54-4.28.31-6.09,2.15s-4.27,4-6.57,2.06c-2.92-2.39-1.08-6.3-1.36-9.53-.22-2.45.54-4.33,3.54-4.64,7.72-.8,14.43-4.32,20.73-8.51,3.43-2.29,6.44-1.66,7.76,1.44C246.9,350.91,250,357.6,254.84,363.59Z"/><path class="cls-6" d="M226.79,393.1l-3.09,8.49c-9-3-11.71-9.9-11.65-18.56C218.69,383.86,220.17,392.23,226.79,393.1Z"/><path class="cls-15" d="M178.22,283.84c.59.51,1.18,1,1.78,1.52l-1.76.2C178.23,285,178.22,284.41,178.22,283.84Z"/><path class="cls-11" d="M528.1,297.3c0-4.31-8.31-4.34-5.71-8.76s8.33-5.13,13.59-4.76a3.92,3.92,0,0,0,3.7-1.52c3.82,2.12,8.58,1.93,12,4.93,2.35,5.84,1,10.86-3.38,15.21-2.11,1.16-1.67,3.17-1.68,5h.06c-5.51,0-11-.09-16.55.2-1.92.1-4.31,1.14-5.32-.66-1.22-2.2-.51-4.72,1.81-6.36,3.84,0,7.69,0,11.54-.1,2.42-.07,3.39-1.56,3.07-3.85s-1.9-2.1-3.66-1.64C534.46,295.86,531.28,296.55,528.1,297.3Z"/><path class="cls-4" d="M519.91,277.18l1.77-.16c3.26.1,6.24.8,8.15,3.79l-8.41,3C520.92,281.58,520.41,279.38,519.91,277.18Z"/><path class="cls-15" d="M496.07,364.59c-.7-4.16,2.69-4.77,5.25-6.35,3-1.84,5.68-4.18,9.73-7.23-2.25,13.51-2.47,26.16-9.83,37.1l0,0c-.45-3.73,1.19-6.89,2.48-10.26,3.93-10.28,3-11.42-7.51-9.93C496.14,366.8,496.1,365.7,496.07,364.59Z"/><path class="cls-7" d="M496.07,364.59c0,1.11.07,2.21.1,3.31-5,.5-7.18,4.89-10.24,7.89s-5.57,6.69-8.31,10.08q-1.74-1.59-3.47-3.19c5.06-5.18,10.35-10.17,15.08-15.63C491.31,364.65,493.09,363.51,496.07,364.59Z"/><path class="cls-2" d="M243.83,423.43c.72-3.57-5.16-3.53-4.06-7.5,3.81-.79,4.7,3.48,7.51,4.25a7.45,7.45,0,0,0,.82,1.4c2.42,2.61,3.36,5.58,1.74,8.88a2.87,2.87,0,0,1-2.73.79C244.31,429.46,243.82,426.51,243.83,423.43Z"/><path class="cls-3" d="M275.09,256.8c-2.53.18-5,.14-6.78-2.11C270.83,254.54,273.31,254.54,275.09,256.8Z"/><path class="cls-3" d="M268.39,255.15l-2.64-1.86C266.87,253.57,268.17,253.59,268.39,255.15Z"/><path class="cls-1" d="M317.52,341c4.87-12.79,2.87-19.53-8.5-28.31a10.49,10.49,0,0,1-4.47-9.4c.65-10,16.14-25.31,26.45-26.26,9.59-.88,13.37,1.87,16.94,12.34,1.44,4.2,1.13,9.89,8.87,6.51,3.7-1.62,3.52,3,3,5-1.35,5.69,1.07,7.6,6.28,7.47,7.17-.17,8.55,3.73,6.85,9.78-3.15,11.25,2.82,14.31,11.73,12.4,7.4-1.58,16-.09,21.3-7.73,1.61-2.34,3.9-5.07,2.24-7.57-1.89-2.84-5.11-1.21-7.51.22-4.85,2.91-9.2,3.12-11.81-2.58-2.37-5.16-4.76-10.74,3.34-13.63,4.08-1.45,3.33-5.42.91-6.23-4.24-1.4-8.41-6.18-9.79-6.25-7.79-.42-8.94-10-16.27-10.29-2.9-.13-1.62-2.71-.36-4.32,4.55-1.09,9.05-2.49,13.67-3.2,7.85-1.2,13.05-4.78,15.93-12.68,3.68-10.06,23.06-15.93,34.07-11,2.31,3.35.46,8.54,6.23,10.78,2.75,1.06-.56,5.39-2,7.92-4.51,8-2.55,14.64,5.84,18.19,2.87,1.21,2,3.18,1.33,4.76-1.63,4.14-3.71,8.11-5.48,12.21-2.3,5.35-1.63,8.45,5.39,8.12,3.77-.17,9.2-1.88,10.51,4,1.24,5.54-1.07,10.44-5.11,14.37-1.41,1.36-3.16,2.7-5,.59-4.27-4.86-7.48-1.65-10.34,1.53-5.8,6.43-11.05,13.37-17.1,19.54-6.58,6.7-12.75,16.08-24.35,7.32-1.11-.85-3.84-.37-5.41,1.21-7.08.92-13.62,3.25-18.95,8.14-3.71,3.41-7.4,4.24-10.83.13-2.31-2.77-4.57-2.29-7.42-1.42-6.39,2-13,3.2-19.26,5.59-6.91,2.67-9.8,0-11.37-6.39C315.41,354.73,316.53,347.87,317.52,341Z"/><path class="cls-1" d="M497.89,236.58a3.38,3.38,0,0,1-3.44-1.45C496.92,232.48,497.46,234.39,497.89,236.58Z"/><path class="cls-2" d="M546.66,307.43c0-1.86-.43-3.87,1.68-5C548.33,304.26,548.57,306.2,546.66,307.43Z"/><path class="cls-7" d="M528.1,297.3c3.18-.75,6.36-1.44,9.51-2.28,1.76-.46,3.32-.75,3.66,1.64s-.65,3.78-3.07,3.85c-3.85.1-7.7.07-11.54.1C526.64,299.29,526.74,298,528.1,297.3Z"/><path class="cls-6" d="M519.91,277.18c.5,2.2,1,4.4,1.51,6.6l-3.32,3.39c-2.89-4.68-1.56-9.15,1.09-14.73C519.54,274.72,519.73,276,519.91,277.18Z"/><path class="cls-1" d="M282.27,297.75l2.24,6.21c-1.45,4.19-4.05,7.76-8.32,8.78-6.27,1.5-6.11,5-4.57,9.9,1.25,4,4.37,8.51-.88,12s-9.07,0-13.42-2.84c-6-4-9.46-9.09-10.08-16.2-.35-4-2.48-6.3-6.52-6-4.8.32-7.59-1.87-8.09-6.4-.58-5.37-3.27-11.79,2-15.68,4.51-3.32,8.48-7.21,13-10.47,8.24-6,15.83-3.7,19.62,5.45C270.17,289.56,277.12,292.8,282.27,297.75Z"/><path class="cls-1" d="M294.23,349.13c.15-4.25.06-8.11,5.28-8.34,3.65-.17,13.32,6.59,12.66,9.23-1.38,5.59-5.21,9.45-11.12,9.56C293.28,359.74,295.32,353,294.23,349.13Z"/></svg>