<svg id="Layer_1" data-name="Layer 1" xmlns="http://www.w3.org/2000/svg" viewBox="0 0 1920 1080"><defs><style>.cls-1{fill:#feaeb1;}.cls-2{fill:#fe908d;}.cls-3{fill:#fe918e;}.cls-4{fill:#fe736d;}</style></defs><title>Artboard 1</title><path class="cls-1" d="M1919.43,1a858,858,0,0,1-30,135.14c-2.86,9.38-6.13,18.64-9.21,28-2.32-1.13-4.89-.69-5.46,1.54-.47,1.88,2.18,1.19,3.53,1.43-4.95,18-12.79,34.8-20.06,51.87,1.26-9.18.39-17.4-8.14-23.43-2.73-1.93.55-4.06,2-5.67,4.2-4.71,9.51-8.46,13.06-15.06-1.81.59-3,.61-3.6,1.22-11.77,12.22-27.45,17-42.57,23.05-10,4.05-20.88,6-30.25,11.87-4.35,2.73-8.28,5.14-9.13,10.72-.43,2.79-1,5.82-2.39,8.17-14,23.07-25.69,47.46-40.88,69.8-6.46,9.5-13.53,18-26,20.88a396.19,396.19,0,0,1-48.29,8.19c-11.87,1.26-24,3.26-35.62,1.11-10.33-1.91-17.19,1.12-23.18,8.54a19.93,19.93,0,0,1-12.5,7.19c-19.43,3.6-39.07,5.32-58.75,6.63-13,.87-25.82,2.57-38.28,6.46-6.13,1.91-6.76,5.29-2.23,10.26,4.37,4.82,9.08,9.4,12.92,14.61,7,9.54,8.51,15.69-2.1,26.31-11.3,11.3-26.12,16-40.14,21.51-18.46,7.27-37.67,12.6-55.72,21.14-9.47,4.47-16,11.66-3.79,22a43.63,43.63,0,0,0,5.1,3.47c9,5.67,9.82,12.47,2.6,20.28a26.94,26.94,0,0,1-4.65,4.16c-8.64,5.71-17.08,11.82-26.14,16.77-7.26,4-15.13,7.56-23.38,8.47-24.8,2.71-49.82,2.23-74.66,4.81-13.9,1.44-25.66,4.54-31.08,19.59-2.58,7.15-4,14.82-9.07,21.2-6.28,8-13.93,8-19.17-.6-5.64-9.27-11-18.8-17.38-27.53-10.58-14.42-25.09-22.75-43.23-21.62-16.21,1-32.16,3.83-45.26,15.27-4.65,4.06-17.07,2.15-19.16-2.52-3.53-7.88-9-15.15-8.81-24.42a8.79,8.79,0,0,0-5.39-8.72c-3.25-1.39-5.88.69-8.25,3.06-2,2-4.43,3.6-6.61,5.44-8.37,7-14.57,5.94-22.66-1.74-10.92-10.36-21.95-20.67-31.62-32.14-6.12-7.24-12.54-14.28-18.45-21.76-4.45-5.63-7.43-13.21-15.16-15.88l0,0a8.57,8.57,0,0,0-2.34-6.38,192.18,192.18,0,0,1-22.27-33.12,129,129,0,0,0-33.06-40.65c-9.88-8-21.35-10.31-33.6-5.06-9.41,4-12.52,13.75-16.54,21.39a138.1,138.1,0,0,0-11.73,30.32c-3.81,15.13-13.53,25.79-29.68,28.49-11.26,1.88-22.49-.79-33-4.09-28.75-9-54.84-24.42-82.66-35.76-8.53-3.48-16.68-7.77-26-9.1-9-1.28-13,1.72-13.2,11-.26,13.3,4,26.17,3.26,39.58-1.3,22.13-12.73,37.19-31.72,47.1-22.68,11.86-47.45,19.53-68.83,34-12.68,8.58-24.21,17-27.72,34.43-3.74,18.57-16,27.2-36.59,28.93-18.62,1.56-36-3.57-52.75-10.91C448.52,564.38,435,558.62,423,550.75c-12.31-8-24.76-15.85-37.47-23.17-13.47-7.75-23.29-20.49-37.83-26.69-1.86-.79-3.06-3.44-4.27-5.42-4.36-7.09-6-15.43-11.72-22.07-9.15-10.58-16.51-22.63-26.1-32.95-17.14-18.46-39.52-28-61.88-37.92-12.26-5.42-24.88-10.06-35.78-18.45-11.14-8.57-19.54-19.57-29-29.64q-26.38-28-50.26-58.19c-21.6-27.22-43-54.56-61.67-84-1.1-1.73-2.18-7.48-7.16-4.11-10.08-19.72-16-41-23.12-61.85-12.12-35.64-20.91-72.19-28-109.14C6.45,25.22,5.24,13.07,3.55,1H447.24c-.13,3.94-3.38,5.78-5.75,8a306.12,306.12,0,0,0-32.58,36.67c-16.19,21.27-29.84,44.4-47.26,64.71-6.46,7.53-13.51,15.84-24.6,15.85-16.73,0-33.09,2-49.6,4.63-20.11,3.23-37.21,12.72-53.51,23.48-19.64,13-38.83,26.6-59.38,38.16-4.49,2.52-9.51,4.41-12.86,8.68-.83,1.06-1.51,2.18-.92,3.56.66,1.53,2,1.36,3.31,1.17A163.49,163.49,0,0,0,210,192.36c12.72-5.88,25-12.68,38-18,20-8.21,40.14-15.84,62.31-14.92,3,.12,6.95-1.41,8.7,1.79s-.57,6.38-2.52,9.16c-17.08,24.34-25.7,52.28-33.61,80.42-6.48,23-17.44,43.76-30.38,63.67-3.6,5.54-9.23,10.22-9.06,17.74.06,2.67.25,5,4,2.7a91.51,91.51,0,0,0,27.71-25.81c7.05-10.19,14.21-20.58,20.36-31.63a471,471,0,0,0,22.16-46.19c10.16-24.05,23.78-45.57,42.39-63.63,20.28-19.69,38.19-41.41,56.54-62.78,1.35-1.57,2.59-3.67,5-3.12,2.84.64,2.28,3.32,2,5.2-1.27,10.35,1.64,20.46,3.89,30.05,5.2,22.17,12.74,43.81,19.48,65.61,3.35,10.86,7.93,21.42,10.37,32.46,4.18,18.84,5.58,37.7-7.76,54.29-5.33,6.63-10,13.83-15.55,20.24C415.23,331.26,406,356,406.06,385c0,10.55-.56,21.31-1.35,31.93-.28,3.74,3.59,6.37.9,10.89-4.55,7.66-5.59,16.6-5.41,25.54,0,2-.48,4.46,2.25,5.2,3,.82,4.12-1.5,5.2-3.63,5.51-10.84,11.66-21.4,13.28-33.82.72-5.54,1.08-11.54,3.55-16.33a33.27,33.27,0,0,0,3.94-17.17,16.83,16.83,0,0,1,1.72-9.1c7.3-13.32,14.44-26.63,24.2-38.54,8.76-10.68,18.94-20.71,22.71-34.75.34-1.28.48-2.7,2.18-2.73,2.18,0,2.33,1.66,2.44,3.25,1,14.61,6.83,28.39,7.53,43,.7,14.8,3.58,29.39,3.59,44.26a677.19,677.19,0,0,1-4.64,80.16A75.15,75.15,0,0,0,490,500.37c3.89,15.24,9,30.2,13.83,45.17,1.26,3.87,3.62,7.39,5.58,11,.74,1.35,1.66,2.83,3.64,2.08,1.49-.56,1.59-2,1.54-3.27-.34-7.51,1-15.09-1.6-22.5-7.09-19.82-7-40.11-4.22-60.72,2.38-17.45,3.49-35.06,5.58-52.57,1.41-11.82,3.56-23.56,4.25-35.53,1-17.58,3.84-35,5.36-52.6,2.92-33.79-9.07-64.82-18.57-96.24-7.56-25-16.27-49.73-23.58-74.84-5.44-18.64-8.16-37.93-11.38-57.08-6.58-39.22,13.25-74.17,49.77-86,10.6-3.44,20.58-8.25,30.86-12.41C553.21,4,556.81,5,557,1h12.54c-2.64,7-7.84,12.38-11.12,19.16-11.71,24.23-11.69,49.46-8.27,74.95,3.5,26.19,19.47,46.93,33.81,67.73,8.76,12.7,18.85,24.39,24.79,38.85l0,0c4.1,4.95,9.16,9.21,11,15.77a481.24,481.24,0,0,1,12.59,56.89c2.73,18.11,8.07,35.39,17.55,51.09,2.91,4.8,5.83,13.5,11.73,11.51,4.76-1.6,1.91-10.05.89-15.58a445.19,445.19,0,0,1-6.66-59.51c-.38-7.89.79-16.05-5.32-22.65a5.19,5.19,0,0,1-.61-5.93c1.37-2.38,3.41,2.56,5.27-.13,0-2.57-2.07-4.43-2.68-7-2.36-9.89-2.41-20.07-7.15-29.77a256.18,256.18,0,0,0-24.43-40.95c-2.42-3.24-4-6-2.73-9.94-3.09.11-3.32,2.42-4.62,3.58s-1.84,4.26-4.73,2.29a4.09,4.09,0,0,1-1.34-5.58c4-5.41,0-9-2.41-12.9-8.37-13.44-13.78-27.76-13.56-43.82.28-21.58,10.45-40.27,17.18-60,3.26-9.54,9-18.07,11-28H806.27c-2.69,9.32-9.36,16.53-13.33,25.21C787.11,39,779.06,50.64,775.43,64.37c-.56,2.1-.86,4.18.85,5.85,2,2,3.93.25,5.68-.6a54.81,54.81,0,0,0,10.45-6.69c14-11.22,26.45-24.2,38.63-37.22,7-7.48,15.22-14.58,19.13-24.69H1243.7c-2.76,17.45-15.07,27.09-29.35,34.39-8.26,4.22-17.4,6.84-27.07,6.1-22.5-1.75-44.7-5.82-67.42-6.39-24-.62-44,9.74-64.44,19.13-16.61,7.66-31.56,18.76-49.53,23.81-6.95,2-13.56,5.15-20.27,7.88-2.19.89-4.38,2.43-4.46,4.85-.08,2.25,2.07,3.7,4.18,4a108.08,108.08,0,0,0,46.26-2.2c17.75-4.78,34.25-13.17,51.8-18.7,18.71-5.9,38-5.5,56.59-3.15,21.69,2.73,43.25,4.89,65.11,5.95,22.23,1.09,40.64-7,58.43-18.06,18.14-11.27,30.87-27.48,39.85-46.74.82-1.78,1.29-4.52,3.94-4.21,3,.36,1.92,3.15,2.22,5.06,1.43,9,2.61,18,4.35,26.85,2.46,12.57,1.2,25.28,2,37.9.16,2.6-1.15,4.16-2.82,6-2.17,2.41-3.94,5.38-1.86,9.06,5,8.94.94,24.22-8.58,29.27-9.31,4.94-18,11.64-29.13,12.4l-.64-.37.66.35c.42,4.62-2.42,7.56-6.3,7.19-8.21-.79-14.57,1.56-20.38,7.35-3.63,3.62-8,4.16-10.27-2.69-1,3.35-.55,6.46-4.3,8-25.6,10.67-50.46,23-75.54,34.81-10.67,5-22.15,8.84-32.41,14.33-13.88,7.43-28,14.49-42,21.7-22.93,11.83-45.7,23.93-67.69,37.42-10.65,6.53-20.88,13.76-31.32,20.64-13.44,8.87-29.05,13.95-41.83,24-2,1.56-6.56,1.54-4.55,5.72,1.58,3.28,5.09,1.83,7.74,1.41,11.77-1.86,23.68-3.21,35.2-6.09,12.41-3.12,24.9-6.13,33.17-18.12,7.72-11.18,17.55-21.09,29.36-27.92,10.92-6.32,22.78-11.15,34.56-15.79,7.77-3.05,16.13-4.6,25.14-7.08a110.36,110.36,0,0,0-15.23,32.27c-5.87,20.72-15.43,39.6-29.94,55.3-10.39,11.24-21.56,21.79-31.88,33.15-6.72,7.4-10.88,16.37-16,24.75-1.25,2-1.66,5.52.47,7.29,2,1.64,3.9-1.06,5.27-2.22,6-5,11.59-10.44,17.43-15.62,14-12.41,30.51-21.34,45.09-33,20.2-16.21,35.6-35.54,42.29-60.67,6.55-24.65,19.44-43.81,42.61-55.36.63,1.22-2,5.33,2.62,3,2.26-1.15,5.23-4.11,6.51-3.48,6,2.95,11.42-.8,16.67-1.54,4.83-.67,11.4-1.82,14.86-7.19,7.78,2.53,14.76-2.19,22.1-1.86.75-3.18-5.29-4.38-1.38-7.59,3.07-2.52,5.72-1.1,8.26,1.11a9,9,0,0,0,3.23,2.08c3.55,1,7.33,2.65,10.13-1.56h0c15.8-2.16,30.54-7.72,45.17-13.74,1.69-.7,3.86-2.5,5.77-.75a4.16,4.16,0,0,1,.4,5.15c-4,5.25-3.85,11.78-6,17.58-7.79,20.94-12.49,42.83-18.26,64.35-4.12,15.34-8.55,30.32-15.8,44.41-10.66,20.7-24.26,39.64-36.65,59.28-13.05,20.67-21.52,42.95-27.7,66.3-1.17,4.42-2.66,9.08-1.63,13.86.38,1.77.72,3.88,2.6,4.52,2.37.81,2.81-1.62,3.89-3,7.82-9.83,10.94-22,16.75-32.89,11.45-21.39,27.37-39.23,43.45-57.17,15.2-16.95,28.06-35.79,36.43-57.26.66-1.68.51-3.7,3-3.94,2.74-.26,4.5,1.3,5.76,3.35a127.89,127.89,0,0,1,17.65,46.15c4,24.28,5.55,48.94,8.33,73.42A142.83,142.83,0,0,0,1338,476c.81,2,2.07,4.24,4.28,4,2.77-.36,3-3.26,3.27-5.55.71-5.26-1.39-10.35-1.33-15.49.27-21.88,1-43.76,1.51-65.64A12.11,12.11,0,0,1,1346,391c4.06-19.73,0-39.08-5-57.76-4.82-18.23-13-35.58-22.4-52.13a22.91,22.91,0,0,1-2.9-11.95c.13-14.11,5.59-26.88,11.2-39.15,6.87-15,12.47-30.57,19-45.72,9.41-21.79,15.45-44.78,19-68.52a208.61,208.61,0,0,0-1.61-70.46c-2.79-14.75-9.07-28.86-8.33-44.27h76.83c2.56,10.26,7.41,19.6,11.42,29.29S1453.87,48.49,1454,59.9c.19,15.76-2.3,31-5.58,46.26-3.74,17.43-10.91,34.37-8.73,52.78.25,2.08-1.39,5.4,1.91,5.86,2.34.33,4.26-2.29,5.08-4.36,5.6-14.16,11.35-28.28,16.24-42.69,2.82-8.33,4.27-17,8.33-25.07,4.18-8.27,5.33-8.63,13.51-4.22,8.8,4.75,16.69,11.5,27,13.14,1.91.31,4.09,2.41,5.62,0,1.42-2.25-1-3.65-2.06-5.35-5.09-8-13.18-13.37-18.86-20.84a155.73,155.73,0,0,1-23.17-44.61c-3.27-9.66-8.81-19-8.56-29.75Z"/><path class="cls-2" d="M1273.48,134.3c11.13-.76,19.82-7.46,29.13-12.4,9.52-5.05,13.61-20.33,8.58-29.27-2.08-3.68-.31-6.65,1.86-9.06,1.67-1.87,3-3.43,2.82-6-.78-12.62.48-25.33-2-37.9-1.74-8.89-2.92-17.9-4.35-26.85-.3-1.91.76-4.7-2.22-5.06-2.65-.31-3.12,2.43-3.94,4.21-9,19.26-21.71,35.47-39.85,46.74-17.79,11.05-36.2,19.15-58.43,18.06-21.86-1.06-43.42-3.22-65.11-5.95-18.62-2.35-37.88-2.75-56.59,3.15-17.55,5.53-34.05,13.92-51.8,18.7a108.08,108.08,0,0,1-46.26,2.2c-2.11-.35-4.26-1.8-4.18-4,.08-2.42,2.27-4,4.46-4.85,6.71-2.73,13.32-5.92,20.27-7.88,18-5,32.92-16.15,49.53-23.81,20.39-9.39,40.45-19.75,64.44-19.13,22.72.57,44.92,4.64,67.42,6.39,9.67.74,18.81-1.88,27.07-6.1,14.28-7.3,26.59-16.94,29.35-34.39H1355c-.74,15.41,5.54,29.52,8.33,44.27a208.61,208.61,0,0,1,1.61,70.46c-3.55,23.74-9.59,46.73-19,68.52-6.53,15.15-12.13,30.68-19,45.72-5.61,12.27-11.07,25-11.2,39.15a22.91,22.91,0,0,0,2.9,11.95c9.39,16.55,17.58,33.9,22.4,52.13,4.93,18.68,9,38,5,57.76a12.11,12.11,0,0,0-.32,2.32c-.55,21.88-1.24,43.76-1.51,65.64-.06,5.14,2,10.23,1.33,15.49-.31,2.29-.5,5.19-3.27,5.55-2.21.28-3.47-2-4.28-4a142.83,142.83,0,0,1-9.57-38.41c-2.78-24.48-4.36-49.14-8.33-73.42A127.89,127.89,0,0,0,1302.42,318c-1.26-2.05-3-3.61-5.76-3.35-2.47.24-2.32,2.26-3,3.94-8.37,21.47-21.23,40.31-36.43,57.26-16.08,17.94-32,35.78-43.45,57.17-5.81,10.85-8.93,23.06-16.75,32.89-1.08,1.36-1.52,3.79-3.89,3-1.88-.64-2.22-2.75-2.6-4.52-1-4.78.46-9.44,1.63-13.86,6.18-23.35,14.65-45.63,27.7-66.3,12.39-19.64,26-38.58,36.65-59.28,7.25-14.09,11.68-29.07,15.8-44.41,5.77-21.52,10.47-43.41,18.26-64.35,2.16-5.8,2-12.33,6-17.58a4.16,4.16,0,0,0-.4-5.15c-1.91-1.75-4.08.05-5.77.75-14.63,6-29.37,11.58-45.17,13.74-.56-3.21,3.63-4.3,3.38-7.57-3.29,0-7.56-1.76-8.82,2.4-.94,3.11,2.39,4.67,5.43,5.18-2.8,4.21-6.58,2.51-10.13,1.56a9,9,0,0,1-3.23-2.08c-2.54-2.21-5.19-3.63-8.26-1.11-3.91,3.21,2.13,4.41,1.38,7.59-7.34-.33-14.32,4.39-22.1,1.86l0,0-1.61-1.61.05,0c-.63-1.32-1.82-1.57-3.12-1.57l-1.59-1.5c-3.47-3.07-16.94-3.62-20.25-.82-.15.13-.11.5-.16.75l0,0c-2.1,0-3.09,1.16-3.24,3.17h-1.51a3.45,3.45,0,0,0-1.56,3.15l0,0c-2.06.07-3,1.28-3.39,3.18l-4.38,4.46c-23.17,11.56-36.06,30.72-42.61,55.37-6.69,25.13-22.09,44.46-42.29,60.67-14.58,11.7-31.1,20.63-45.09,33-5.84,5.18-11.46,10.61-17.43,15.62-1.37,1.16-3.3,3.86-5.27,2.22-2.13-1.77-1.72-5.25-.47-7.29,5.1-8.38,9.26-17.35,16-24.75,10.32-11.36,21.49-21.91,31.88-33.15,14.51-15.7,24.07-34.58,29.94-55.3a110.36,110.36,0,0,1,15.23-32.27c-9,2.48-17.37,4-25.14,7.08-11.78,4.64-23.64,9.47-34.56,15.79-11.81,6.83-21.64,16.74-29.36,27.92-8.27,12-20.76,15-33.17,18.12-11.52,2.88-23.43,4.23-35.2,6.09-2.65.42-6.16,1.87-7.74-1.41-2-4.18,2.57-4.16,4.55-5.72,12.78-10,28.39-15.11,41.83-24,10.44-6.88,20.67-14.11,31.32-20.64,22-13.49,44.76-25.59,67.69-37.42,14-7.21,28.07-14.27,42-21.7,10.26-5.49,21.74-9.3,32.41-14.33,25.08-11.83,49.94-24.14,75.54-34.81,3.75-1.56,3.3-4.67,4.3-8,2.32,6.85,6.64,6.31,10.27,2.69,5.81-5.79,12.17-8.14,20.38-7.35,3.88.37,6.72-2.57,6.3-7.19Z"/><path class="cls-3" d="M557,1c-.18,4-3.78,3-5.9,3.83-10.28,4.16-20.26,9-30.86,12.41-36.52,11.86-56.35,46.81-49.77,86,3.22,19.15,5.94,38.44,11.38,57.08,7.31,25.11,16,49.8,23.58,74.84,9.5,31.42,21.49,62.45,18.57,96.24-1.52,17.56-4.33,35-5.36,52.6-.69,12-2.84,23.71-4.25,35.53-2.09,17.51-3.2,35.12-5.58,52.57-2.81,20.61-2.87,40.9,4.22,60.72,2.65,7.41,1.26,15,1.6,22.5,0,1.29,0,2.71-1.54,3.27-2,.75-2.9-.73-3.64-2.08-2-3.63-4.32-7.15-5.58-11-4.88-15-9.94-29.93-13.83-45.17a75.15,75.15,0,0,1-1.88-27.17A677.19,677.19,0,0,0,492.79,393c0-14.87-2.89-29.46-3.59-44.26-.7-14.65-6.49-28.43-7.53-43-.11-1.59-.26-3.28-2.44-3.25-1.7,0-1.84,1.45-2.18,2.73-3.77,14-13.95,24.07-22.71,34.75-9.76,11.91-16.9,25.22-24.2,38.54a16.83,16.83,0,0,0-1.72,9.1,33.27,33.27,0,0,1-3.94,17.17c-2.47,4.79-2.83,10.79-3.55,16.33-1.62,12.42-7.77,23-13.28,33.82-1.08,2.13-2.18,4.45-5.2,3.63-2.73-.74-2.21-3.19-2.25-5.2-.18-8.94.86-17.88,5.41-25.54,2.69-4.52-1.18-7.15-.9-10.89.79-10.62,1.38-21.38,1.35-31.93-.1-29,9.17-53.74,28-75.41,5.57-6.41,10.22-13.61,15.55-20.24,13.34-16.59,11.94-35.45,7.76-54.29-2.44-11-7-21.6-10.37-32.46-6.74-21.8-14.28-43.44-19.48-65.61-2.25-9.59-5.16-19.7-3.89-30.05.24-1.88.8-4.56-2-5.2-2.41-.55-3.65,1.55-5,3.12-18.35,21.37-36.26,43.09-56.54,62.78-18.61,18.06-32.23,39.58-42.39,63.63a471,471,0,0,1-22.16,46.19c-6.15,11.05-13.31,21.44-20.36,31.63a91.51,91.51,0,0,1-27.71,25.81c-3.74,2.26-3.93,0-4-2.7-.17-7.52,5.46-12.2,9.06-17.74,12.94-19.91,23.9-40.64,30.38-63.67,7.91-28.14,16.53-56.08,33.61-80.42,1.95-2.78,4.29-5.94,2.52-9.16s-5.69-1.67-8.7-1.79c-22.17-.92-42.3,6.71-62.31,14.92-13,5.34-25.29,12.14-38,18A163.49,163.49,0,0,1,164.09,206c-1.34.19-2.65.36-3.31-1.17-.59-1.38.09-2.5.92-3.56,3.35-4.27,8.37-6.16,12.86-8.68,20.55-11.56,39.74-25.19,59.38-38.16,16.3-10.76,33.4-20.25,53.51-23.48,16.51-2.65,32.87-4.61,49.6-4.63,11.09,0,18.14-8.32,24.6-15.85C379.07,90.12,392.72,67,408.91,45.72A306.12,306.12,0,0,1,441.49,9.05c2.37-2.25,5.62-4.09,5.75-8Z"/><path class="cls-2" d="M608.74,201.71c-5.94-14.46-16-26.15-24.79-38.85-14.34-20.8-30.31-41.54-33.81-67.73-3.42-25.49-3.44-50.72,8.27-74.95C561.69,13.4,566.89,8,569.53,1H619.7c-2.08,10-7.77,18.48-11,28-6.73,19.75-16.9,38.44-17.18,60-.22,16.06,5.19,30.38,13.56,43.82,2.41,3.87,6.45,7.49,2.41,12.9a4.09,4.09,0,0,0,1.34,5.58c2.89,2,3.36-1.06,4.73-2.29s1.53-3.47,4.62-3.58c-1.28,3.94.31,6.7,2.73,9.94a256.18,256.18,0,0,1,24.43,40.95c4.74,9.7,4.79,19.88,7.15,29.77.61,2.57,2.64,4.43,2.68,7-1.86,2.69-3.9-2.25-5.27.13a5.19,5.19,0,0,0,.61,5.93c6.11,6.6,4.94,14.76,5.32,22.65a445.19,445.19,0,0,0,6.66,59.51c1,5.53,3.87,14-.89,15.58-5.9,2-8.82-6.71-11.73-11.51-9.48-15.7-14.82-33-17.55-51.09a481.24,481.24,0,0,0-12.59-56.89c-1.82-6.56-6.88-10.82-11-15.77,1.14-.19,2.51-.1,2.38-1.87a.76.76,0,0,0-.5-.5C608.84,199.21,608.91,200.56,608.74,201.71Z"/><path class="cls-3" d="M1464.76,1c-.25,10.77,5.29,20.09,8.56,29.75a155.73,155.73,0,0,0,23.17,44.61c5.68,7.47,13.77,12.79,18.86,20.84,1.08,1.7,3.48,3.1,2.06,5.35-1.53,2.44-3.71.34-5.62,0-10.33-1.64-18.22-8.39-27-13.14-8.18-4.41-9.33-4-13.51,4.22-4.06,8-5.51,16.74-8.33,25.07-4.89,14.41-10.64,28.53-16.24,42.69-.82,2.07-2.74,4.69-5.08,4.36-3.3-.46-1.66-3.78-1.91-5.86-2.18-18.41,5-35.35,8.73-52.78,3.28-15.3,5.77-30.5,5.58-46.26-.14-11.41-6.76-19.95-10.75-29.59s-8.86-19-11.42-29.29Z"/><path class="cls-3" d="M850.17,1C846.26,11.13,838,18.23,831,25.71c-12.18,13-24.59,26-38.63,37.22A54.81,54.81,0,0,1,782,69.62c-1.75.85-3.64,2.59-5.68.6-1.71-1.67-1.41-3.75-.85-5.85,3.63-13.73,11.68-25.42,17.51-38.14,4-8.68,10.64-15.89,13.33-25.21Z"/><path class="cls-2" d="M980.32,440c7.73,2.67,10.71,10.25,15.16,15.88,5.91,7.48,12.33,14.52,18.45,21.76,9.67,11.47,20.7,21.78,31.62,32.14,8.09,7.68,14.29,8.78,22.66,1.74,2.18-1.84,4.61-3.43,6.61-5.44,2.37-2.37,5-4.45,8.25-3.06a8.79,8.79,0,0,1,5.39,8.72c-.2,9.27,5.28,16.54,8.81,24.42,2.09,4.67,14.51,6.58,19.16,2.52,13.1-11.44,29-14.26,45.26-15.27,18.14-1.13,32.65,7.2,43.23,21.62,6.41,8.73,11.74,18.26,17.38,27.53,5.24,8.61,12.89,8.58,19.17.6,5-6.38,6.49-14.05,9.07-21.2,5.42-15,17.18-18.15,31.08-19.59,24.84-2.58,49.86-2.1,74.66-4.81,8.25-.91,16.12-4.5,23.38-8.47,9.06-5,17.5-11.06,26.14-16.77a26.94,26.94,0,0,0,4.65-4.16c7.22-7.81,6.43-14.61-2.6-20.28a43.63,43.63,0,0,1-5.1-3.47c-12.21-10.33-5.68-17.52,3.79-22,18-8.54,37.26-13.87,55.72-21.14,14-5.52,28.84-10.21,40.14-21.51,10.61-10.62,9.12-16.77,2.1-26.31-3.84-5.21-8.55-9.79-12.92-14.61-4.53-5-3.9-8.35,2.23-10.26,12.46-3.89,25.28-5.59,38.28-6.46,19.68-1.31,39.32-3,58.75-6.63a19.93,19.93,0,0,0,12.5-7.19c6-7.42,12.85-10.45,23.18-8.54,11.63,2.15,23.75.15,35.62-1.11a396.19,396.19,0,0,0,48.29-8.19c12.42-2.89,19.49-11.38,26-20.88,15.19-22.34,26.91-46.73,40.88-69.8,1.42-2.35,2-5.38,2.39-8.17.85-5.58,4.78-8,9.13-10.72,9.37-5.89,20.21-7.82,30.25-11.87,15.12-6.1,30.8-10.83,42.57-23.05.59-.61,1.79-.63,3.6-1.22-3.55,6.6-8.86,10.35-13.06,15.06-1.45,1.61-4.73,3.74-2,5.67,8.53,6,9.4,14.25,8.14,23.43-8.34,21.66-19.12,42.18-30,62.6a755,755,0,0,1-46.07,75.17,767.23,767.23,0,0,1-61,77.12,668,668,0,0,1-135,115.22c-6.77,4.35-13.9,8.13-20.87,12.17-.51-3.53-3-4.15-5.79-3.45-7.78,2-15.72,3.65-23.21,6.46-15.34,5.78-27.6,16.1-39.18,27.52-15.33,15.11-27.3,32.67-36.91,51.63-5.56,11-11.16,22.1-13.66,34.57-2.18,10.85-11.7,17.41-18.27,25.62-3.91,4.89-6.36,9.81-6.06,16.32.58,12.21,1.24,24.57.5,36.63a254,254,0,0,0,1.8,45.13c2.11,18-2.21,33.3-12.52,47.44-4,5.56-10.93,6.67-14.78,2.2-3.5-4.07-7.48-7.85-9.67-13a177.15,177.15,0,0,1-12-43c-2.35-16-.71-17.4,14.84-23,5.33-1.91,11.1-2.49,16-5.89,4.59-3.19,4.14-5.16-.42-7.77-5.74-3.29-12-4.65-18.25-6.54-11.21-3.43-12.33-6.1-9.16-17.1,1.86-6.44,3.31-13,4.66-19.57,2-9.73,3.86-11,13.84-12.2,5.18-.63,13,.94,14.94-3.46,2.25-5-3.6-10.08-7-14.55-11.83-15.53-23.82-31.05-20.18-52.43,2.13-12.54-9.13-20.07-20.77-20.39a392.53,392.53,0,0,0-76.14,5.12c-9.53,1.6-19.7,1.79-28.38,7.19-7.53-.27-14.64-3.66-22.29-3-9.26-7-21.4-7.87-30.8-14.8-2.91-2.14-5.36,0-4.82,4.11,1.69,12.72-2.52,24.6-6.45,36.19a227.34,227.34,0,0,0-8.06,30.73c-3.44,18.12-.06,37.14-8.85,54.73-2.94,5.88-4.89,13-7.47,19.36-1.62,4-4.66,9.11-10.55,9.39s-7.48-4.52-10.29-8.26c-4.46-6-3.32-13.58-6.64-19.72-2-3.65-.94-6,1.51-9,6.72-8.24,15.59-14.09,23.09-21.44,2.74-2.68,4.07-5.27,3.5-8.9-.69-4.4-4.25-2.74-6.82-3.19-6.65-1.14-13.42-1.83-19.86-3.67-2.61-.75-6.19-1.68-7.49-4.95-5.67-14.27,2.36-27.38,17.69-29a23.36,23.36,0,0,1,3.13,0,6.55,6.55,0,0,0,6.74-4.37c1-2.72-1.24-4.26-2.81-6-3.63-3.91-8.44-6-13-8.36-7.3-3.67-11.42-9.22-10.21-17.49.94-6.35,1.38-12.79,4.46-18.81,4.06-7.92,1.74-13-6.5-16.51-8.51-3.58-17.32-6.39-25.92-9.75-7.59-3-15-8-24-6.46-5.59-5.42-13-7.64-19.8-10.65-26-11.48-50.69-25.25-73-43-10.21-8.11-19.8-16.91-26.8-28.05-2.84-4.51-4.84-4.65-8.91-1.09-40.35,35.2-84.78,64.52-131.54,90.45-5.92,3.29-13.2,5.24-15.29,13.1-2.63-3.31-5.44-1.64-8.41-.48-9.33,3.61-18.46,8-28.82,7.93-1.57,0-3.31.15-3.72,2.09-2.26,10.56-6.81,22,.87,31.32,6.08,7.41,4.17,13.3,1.68,20.63-5.1,15.1-10.32,30-9.4,46.64.81,14.73,1.51,29.67-1.33,44.38-2,10.43-4.38,20.68-11.09,29.41-4,5.25-7.74,5.39-12.12.62-6.69-7.29-9.43-16.59-13.32-25.33-1.77-4-.74-6.79,2.16-9.77,6-6.11,11.48-12.67,17.45-18.79,6.29-6.45,5.66-16.49,12.19-22.74-.08-5.17-3-7.93-7.77-9.13,4.63-3.08.93-6.63-.73-8.07-4.47-3.86-6.52-9.28-10-13.4-4.66-5.53-7.64-13.46-16.58-15.06-9.28-1.65-12.16-8.7-12-17.4,0-2.34-.21-4.71.07-7,.76-6-2.71-7.63-7.44-6.37-7.16,1.92-14.68,2.79-21.28,6.56-15.24,1.59-30.54,2.72-45.68,4.92-10.75,1.57-22-1-32.3,4-2.29-1.87-4.9-2.13-7.82-2.42-5.55-.54-10.36,2.11-15.62,2.8-18.22,2.38-34.35,10.37-43.16,26.8-7.8,14.56-13.94,30.13-24.43,43a40,40,0,0,0-9,32.42c1.89,13.05.79,26,1.3,39,.18,4.42-.05,8.92.72,13.23,4,22.62,4.36,44.39-10.92,63.8-4.57,5.8-11.39,7.68-16.2,2.48-3.5-3.8-7.25-7.9-9.12-12.58a205.59,205.59,0,0,1-13-51.6c-.44-3.57-.1-7.45,3.64-8.66,6.38-2.06,11.74-6.81,18.73-7.06,4.14-.15,7.32-2.67,10.59-4.52s4.79-5.74-.07-7.63c-6.25-2.43-12-6.23-19-6.78-9.19-.7-12.43-5.28-10.45-14.25a176.6,176.6,0,0,1,5.56-21c4.88-13.8,1.67-14,18.83-14.89,3.16-.16,7.26,1.82,9.26-1.91,2.09-3.9-1.43-6.78-3.19-9.85-.63-1.12-1.77-1.93-2.47-3-7.39-11.46-17.33-21.48-19.86-35.66-1.35-7.53,0-15.14-.76-22.64a51,51,0,0,0-15.51-32c-7.16-6.84-15.45-12.91-25.25-16.27-15.25-5.24-30.57-10.06-46.58-12.55-4.33-.67-3.09,2.22-3.67,4.15-27.82-16.88-55.6-33.83-81.67-53.39a656.24,656.24,0,0,1-100.37-93.64,747.16,747.16,0,0,1-78.32-107.07A897.29,897.29,0,0,1,63.07,216.93c-1.24-2.86-2.18-5.85-3.27-8.78,5-3.37,6.06,2.38,7.16,4.11,18.62,29.43,40.07,56.77,61.67,84q23.91,30.15,50.26,58.19c9.48,10.07,17.88,21.07,29,29.64,10.9,8.39,23.52,13,35.78,18.45,22.36,9.88,44.74,19.46,61.88,37.92,9.59,10.32,16.95,22.37,26.1,32.95,5.74,6.64,7.36,15,11.72,22.07,1.21,2,2.41,4.63,4.27,5.42,14.54,6.2,24.36,18.94,37.83,26.69,12.71,7.32,25.16,15.12,37.47,23.17,12,7.87,25.56,13.63,38.81,19.45,16.72,7.34,34.13,12.47,52.75,10.91,20.62-1.73,32.85-10.36,36.59-28.93,3.51-17.47,15-25.85,27.72-34.43,21.38-14.47,46.15-22.14,68.83-34,19-9.91,30.42-25,31.72-47.1.79-13.41-3.52-26.28-3.26-39.58.19-9.31,4.17-12.31,13.2-11,9.37,1.33,17.52,5.62,26,9.1,27.82,11.34,53.91,26.76,82.66,35.76,10.54,3.3,21.77,6,33,4.09,16.15-2.7,25.87-13.36,29.68-28.49a138.1,138.1,0,0,1,11.73-30.32c4-7.64,7.13-17.36,16.54-21.39,12.25-5.25,23.72-2.9,33.6,5.06a129,129,0,0,1,33.06,40.65,192.18,192.18,0,0,0,22.27,33.12,8.57,8.57,0,0,1,2.34,6.38,2.37,2.37,0,0,0-.53.26c-.08.08-.07.27-.1.41Zm-76.83,76.82,14.8-7.3c-8.9-3.25-12.51.86-14.83,7.28a2,2,0,0,0-.54.27c-.09.08-.08.28-.11.43Z"/><path class="cls-4" d="M1259.57,624.68c8.68-5.4,18.85-5.59,28.38-7.19a392.53,392.53,0,0,1,76.14-5.12c11.64.32,22.9,7.85,20.77,20.39-3.64,21.38,8.35,36.9,20.18,52.43,3.4,4.47,9.25,9.55,7,14.55-2,4.4-9.76,2.83-14.94,3.46-10,1.21-11.85,2.47-13.84,12.2-1.35,6.57-2.8,13.13-4.66,19.57-3.17,11-2,13.67,9.16,17.1,6.2,1.89,12.51,3.25,18.25,6.54,4.56,2.61,5,4.58.42,7.77-4.88,3.4-10.65,4-16,5.89-15.55,5.6-17.19,7-14.84,23a177.15,177.15,0,0,0,12,43c2.19,5.19,6.17,9,9.67,13,3.85,4.47,10.73,3.36,14.78-2.2,10.31-14.14,14.63-29.48,12.52-47.44a254,254,0,0,1-1.8-45.13c.74-12.06.08-24.42-.5-36.63-.3-6.51,2.15-11.43,6.06-16.32,6.57-8.21,16.09-14.77,18.27-25.62,2.5-12.47,8.1-23.62,13.66-34.57,9.61-19,21.58-36.52,36.91-51.63,11.58-11.42,23.84-21.74,39.18-27.52,7.49-2.81,15.43-4.48,23.21-6.46,2.77-.7,5.28-.08,5.79,3.45-15.53,9.42-32.19,17-45.43,30.1-10.89,10.81-18.76,23.24-22.16,37.88-11.27,48.43-19.66,97.28-22.55,147.1-1.87,32.13-2.12,64.59-10.6,96-3.47,12.89-8.12,25.31-15.87,36.34-11.07,15.75-27.64,17.48-41.33,4.1-3.7-3.61-6.74-7.88-10.08-11.85-1.82-4.21,3.83-8,.88-12.13-3.4-4.79-6.6-9.92-12.91-11.49a3.67,3.67,0,0,1-.57-1.37c0-3.8.38-7.77-4.17-9.59-8.9-24.65-12.08-50.51-16.11-76.19-5.48-35-7.09-70.47-14.26-105.13-3.76-18.22-12.17-34.82-26.85-47.43-6.35-5.45-13.56-9.25-21.8-9.27A282.35,282.35,0,0,1,1259.57,624.68Z"/><path class="cls-4" d="M376.51,573.59c.58-1.93-.66-4.82,3.67-4.15,16,2.49,31.33,7.31,46.58,12.55,9.8,3.36,18.09,9.43,25.25,16.27a51,51,0,0,1,15.51,32c.79,7.5-.59,15.11.76,22.64,2.53,14.18,12.47,24.2,19.86,35.66.7,1.09,1.84,1.9,2.47,3,1.76,3.07,5.28,5.95,3.19,9.85-2,3.73-6.1,1.75-9.26,1.91-17.16.87-14,1.09-18.83,14.89a176.6,176.6,0,0,0-5.56,21c-2,9,1.26,13.55,10.45,14.25,7,.55,12.77,4.35,19,6.78,4.86,1.89,3.48,5.7.07,7.63s-6.45,4.37-10.59,4.52c-7,.25-12.35,5-18.73,7.06-3.74,1.21-4.08,5.09-3.64,8.66a205.59,205.59,0,0,0,13,51.6c1.87,4.68,5.62,8.78,9.12,12.58,4.81,5.2,11.63,3.32,16.2-2.48,15.28-19.41,15-41.18,10.92-63.8-.77-4.31-.54-8.81-.72-13.23-.51-13,.59-26-1.3-39a40,40,0,0,1,9-32.42c10.49-12.83,16.63-28.4,24.43-43,8.81-16.43,24.94-24.42,43.16-26.8,5.26-.69,10.07-3.34,15.62-2.8,2.92.29,5.53.55,7.82,2.42-25.75,16.55-35.5,42.17-39,70.75-5.87,48.09-10.24,96.45-21,143.74-5.76,25.37-14.51,49.87-35.08,68.39-15,13.53-30.78,7.61-39.69-6-14.08-21.49-19.41-46-21.66-71-3.81-42.56-4.06-85.48-11.35-127.69-4.81-27.87-8.63-55.93-16.62-83.27-6.19-21.16-19.92-35.54-36.95-47.83C380.57,576.79,378.56,575.16,376.51,573.59Z"/><path class="cls-4" d="M1086.86,565.52c8.94-1.53,16.36,3.49,24,6.46,8.6,3.36,17.41,6.17,25.92,9.75,8.24,3.47,10.56,8.59,6.5,16.51-3.08,6-3.52,12.46-4.46,18.81-1.21,8.27,2.91,13.82,10.21,17.49,4.61,2.32,9.42,4.45,13,8.36,1.57,1.7,3.85,3.24,2.81,6a6.55,6.55,0,0,1-6.74,4.37,23.36,23.36,0,0,0-3.13,0c-15.33,1.57-23.36,14.68-17.69,29,1.3,3.27,4.88,4.2,7.49,4.95,6.44,1.84,13.21,2.53,19.86,3.67,2.57.45,6.13-1.21,6.82,3.19.57,3.63-.76,6.22-3.5,8.9-7.5,7.35-16.37,13.2-23.09,21.44-2.45,3-3.48,5.36-1.51,9,3.32,6.14,2.18,13.77,6.64,19.72,2.81,3.74,4.52,8.55,10.29,8.26s8.93-5.39,10.55-9.39c2.58-6.36,4.53-13.48,7.47-19.36,8.79-17.59,5.41-36.61,8.85-54.73a227.34,227.34,0,0,1,8.06-30.73c3.93-11.59,8.14-23.47,6.45-36.19-.54-4.08,1.91-6.25,4.82-4.11,9.4,6.93,21.54,7.83,30.8,14.8-4.93,16.9-7.73,34.25-10.78,51.53a17.91,17.91,0,0,1-2,6.6c-3.82,1.85-5.55,5.83-8.62,8.47-2.4,2.06-3.21,5.7-1.19,7.56,2.68,2.47,3.95-1.79,5.92-3A27,27,0,0,0,1223,691c-3.76,30.47-6.58,61.16-15.6,90.65-4.39,14.33-9.59,28.65-19.24,40.65-16,19.91-34.54,18.51-48.74-3-13-19.64-19.28-41.49-22.54-64.33-5.39-37.76-7-75.82-8-113.91-.33-12.27-.45-24.55-1.35-36.77-.72-9.91-5.77-18.27-11.48-26.18Q1091.46,571.83,1086.86,565.52Z"/><path class="cls-4" d="M757.65,692.2c-6.53,6.25-5.9,16.29-12.19,22.74-6,6.12-11.48,12.68-17.45,18.79-2.9,3-3.93,5.8-2.16,9.77,3.89,8.74,6.63,18,13.32,25.33,4.38,4.77,8.1,4.63,12.12-.62,6.71-8.73,9.07-19,11.09-29.41,2.84-14.71,2.14-29.65,1.33-44.38-.92-16.6,4.3-31.54,9.4-46.64,2.49-7.33,4.4-13.22-1.68-20.63-7.68-9.35-3.13-20.76-.87-31.32.41-1.94,2.15-2.1,3.72-2.09,10.36.07,19.49-4.32,28.82-7.93,3-1.16,5.78-2.83,8.41.48-4.35,8.1-.26,16.41-.58,24.62-1.93,48.73-2.67,97.57-9.69,145.9-3.64,25.05-10.28,49.55-27.81,69.38-12.53,14.18-29.71,13.56-41.35-1.54C715,802.46,708,776.53,703.94,749.47c.33-4.36,2.32-7.8,5.26-11,4.68-5.12,4.39-11-.47-15.8a26.79,26.79,0,0,0-10.27-6.8c-7.3-30.86-7.79-62.92-16.51-93.53,6.6-3.77,14.12-4.64,21.28-6.56,4.73-1.26,8.2.32,7.44,6.37-.28,2.3,0,4.67-.07,7-.18,8.7,2.7,15.75,12,17.4,8.94,1.6,11.92,9.53,16.58,15.06,3.47,4.12,5.52,9.54,10,13.4,1.66,1.44,5.36,5,.73,8.07C749.87,695.82,749.87,695.82,757.65,692.2Z"/><path class="cls-3" d="M698.46,715.85a26.79,26.79,0,0,1,10.27,6.8c4.86,4.81,5.15,10.68.47,15.8-2.94,3.22-4.93,6.66-5.26,11Q701.21,732.66,698.46,715.85Z"/><path class="cls-2" d="M1385.33,877.31c6.31,1.57,9.51,6.7,12.91,11.49,3,4.15-2.7,7.92-.88,12.13C1392.36,893.56,1387.17,886.29,1385.33,877.31Z"/><path class="cls-3" d="M1223,691a27,27,0,0,1-2.44,1.85c-2,1.16-3.24,5.42-5.92,3-2-1.86-1.21-5.5,1.19-7.56,3.07-2.64,4.8-6.62,8.62-8.47A20.58,20.58,0,0,1,1223,691Z"/><path class="cls-2" d="M1380.59,866.35c4.55,1.82,4.17,5.79,4.17,9.59A19,19,0,0,1,1380.59,866.35Z"/><path class="cls-2" d="M1878.34,167.08c-1.35-.24-4,.45-3.53-1.43.57-2.23,3.14-2.67,5.46-1.54Z"/><path class="cls-2" d="M1196.68,211.19l1.59,1.5a3.27,3.27,0,0,0,3.12,1.57l-.05,0,1.61,1.61,0,0c-3.46,5.37-10,6.52-14.86,7.19-5.25.74-10.68,4.49-16.67,1.54-1.28-.63-4.25,2.33-6.51,3.48-4.61,2.33-2-1.78-2.62-3l4.38-4.47c2.12,0,3.29-1,3.39-3.18l0,0c1.3-.67,1.54-1.85,1.56-3.15h1.51c2-.09,3.19-1.06,3.24-3.17l0,0C1183.08,208.53,1189.87,214.51,1196.68,211.19Z"/><path class="cls-2" d="M1273.5,134.28l-.66-.35.64.37Z"/><path class="cls-1" d="M1245.26,208c-3-.51-6.37-2.07-5.43-5.18,1.26-4.16,5.53-2.39,8.82-2.4.25,3.27-3.94,4.36-3.38,7.57Z"/><path class="cls-1" d="M1196.68,211.19c-6.81,3.32-13.6-2.66-20.41-.07,0-.25,0-.62.16-.75C1179.74,207.57,1193.21,208.12,1196.68,211.19Z"/><path class="cls-1" d="M1170,217.36c-.1,2.16-1.27,3.17-3.39,3.18C1167,218.64,1168,217.43,1170,217.36Z"/><path class="cls-1" d="M1176.3,211.1c0,2.11-1.21,3.08-3.24,3.17C1173.21,212.26,1174.2,211.11,1176.3,211.1Z"/><path class="cls-1" d="M1171.55,214.26c0,1.3-.26,2.48-1.56,3.15A3.45,3.45,0,0,1,1171.55,214.26Z"/><path class="cls-1" d="M1201.39,214.26a3.27,3.27,0,0,1-3.12-1.57C1199.57,212.69,1200.76,212.94,1201.39,214.26Z"/><path class="cls-1" d="M1203,215.83l-1.61-1.61Z"/><path class="cls-1" d="M608.74,201.71c.17-1.15.1-2.5,1.86-2.39a.76.76,0,0,1,.5.5c.13,1.77-1.24,1.68-2.38,1.87Z"/><path class="cls-1" d="M757.65,692.2c-7.78,3.62-7.78,3.62-7.77-9.13C754.64,684.27,757.57,687,757.65,692.2Z"/><path class="cls-1" d="M903.46,516.83c2.32-6.42,5.93-10.53,14.83-7.28l-14.8,7.3Z"/><path class="cls-1" d="M903.49,516.85l-.68.68c0-.15,0-.35.11-.43a2,2,0,0,1,.54-.27Z"/><path class="cls-1" d="M980.32,440l-.67.64c0-.14,0-.33.1-.41a2.37,2.37,0,0,1,.53-.26Z"/></svg>