<svg id="Layer_1" data-name="Layer 1" xmlns="http://www.w3.org/2000/svg" viewBox="0 0 360 360"><defs><style>.cls-1{fill:#ede2d1;}.cls-2{fill:#dac6ab;}.cls-3{fill:#d9c6ac;}.cls-4{fill:#d5c2a9;}.cls-5{fill:#f2e9de;}.cls-6{fill:#dccfbb;}.cls-7{fill:#e6daca;}</style></defs><title>Artboard 1</title><path class="cls-1" d="M147.71,184.73c16.87,6.65,33.66,6.65,52,5.61,15.42-.87,34.07,4.79,45.19,20.31a3.59,3.59,0,0,1-.19,5.27A56.61,56.61,0,0,1,230.8,222c-11.2,2.15-22.53,1.26-33.82,1.53-6.08-.4-12.19.06-18.26-.59-26.93-4.71-52.33-14.3-77.38-24.84-6.8-2.86-13.19-6.78-17.13-13.53,5.43-6.07,13.06-5.12,18.63-2.72,12.46,5.36,25.24-.31,37.5,2.91C142.8,185.91,145.28,190.31,147.71,184.73Z"/><path class="cls-2" d="M84.21,184.57c29.67,15.28,61,25.87,93.39,33.66,11.7,11.92-2.12,11-7.25,14.36-22.87-12.44-50.37-13.91-71.66-29.75C92.58,198.3,82.53,195.73,84.21,184.57Z"/><path class="cls-3" d="M196.23,218.27l37.3-.14c4.29-2.18,7.94-3.11,7.58,3.85-15.78,19.33-33.73,22.73-60.31,11.42C184.52,226.91,190.21,222.42,196.23,218.27Z"/><path class="cls-4" d="M196.23,218.27c-3.53,6.68-5.54,14.92-15.43,15.13l-10.45-.81c3.19-4.39,13-5.46,7.25-14.36Z"/><path class="cls-5" d="M244.86,214.36c0-1.24,0-2.47,0-3.71,9.7,1.66,18.39-4.07,31.12-5.55-10,8.57-18.52,9.6-27.46,9.37Q246.63,216.4,244.86,214.36Z"/><path class="cls-6" d="M244.86,214.36c1.22.09,2.44.13,3.66.11-.34,4.6,1.78,11.63-7.41,7.51-1.64-3-4.47-3.7-7.58-3.85C236.32,213.89,240.75,214.6,244.86,214.36Z"/><path class="cls-7" d="M147.71,184.73l5.54,9.69c-7.76.13-10-5.21-12.91-9.66Z"/></svg>