<svg id="Layer_1" data-name="Layer 1" xmlns="http://www.w3.org/2000/svg" viewBox="0 0 360 360"><defs><style>.cls-1{fill:#ece1d0;}.cls-2{fill:#d9c6aa;}.cls-3{fill:#dbc9af;}.cls-4{fill:#d9c5aa;}.cls-5{fill:#d2bea5;}.cls-6{fill:#d1bda4;}.cls-7{fill:#f4f1ea;}.cls-8{fill:#d0bea4;}.cls-9{fill:#ded5c4;}.cls-10{fill:#e1d6c6;}.cls-11{fill:#f2eae1;}.cls-12{fill:#f8f4f0;}.cls-13{fill:#dfd5c4;}.cls-14{fill:#d3bfa8;}.cls-15{fill:#e4d9c8;}</style></defs><title>Artboard 1</title><path class="cls-1" d="M258,268.94c-9.51,4.6-19.05,9.22-29.79,10-7,.51-7.15.14-7.25-6.91.95-1.18,2.31-1.27,3.63-1.28,12.31-.09,23.45-4.51,34.46-9.32,2.87-1.25,6.19-2.54,6.29-6.35.1-3.62-3-5.36-5.39-7.33a6.17,6.17,0,0,0-3.68-1.42c-6.08-1.26-12.34-1.64-18.21-3.88-1.31-6.17-5.85-8-11.43-9-10.62-2-21.25-4.07-31-9-5.09-1.7-10.36-2.78-15.41-4.63-9.82-8.73-21.45-14.3-33.51-19.12A15.06,15.06,0,0,0,136,193.63c-8.56-7.09-16.48-14.9-24.78-22.28-11.28-10-22.83-19.79-33.79-30.16-7.7-7.28-15.85-14.11-22.83-22.17-5.4-6.24-11.21-12.15-18.65-16.08,6.55-7.79,15.07-9.08,23.69-2.4C74.07,111.73,90.9,118,107.41,124.92c8.73,3.67,17.17,7.91,25.61,12.16,1.76,2.15,1.63,5,2.61,7.42a29.93,29.93,0,0,0,8.44,11.28c-2.16-4.43-4.58-9-6.8-13.62-.76-1.59-2.06-3.1-1.27-5.1,15.3,2.66,22.89,13.39,28.11,26.7.54,1.35.24,4.11,2.39,3.64s1.72-3,1.2-4.72-.59-3.39.84-4c1.82-.74,2.2,1.58,3,2.62,2.93,3.81,5.66,7.76,8.47,11.66,2.27,1,2.12,3.13,2.21,5.06a9.16,9.16,0,0,0,3.81,7.39c-.44-5.4-2.5-10-5-14.47,4.25-5.36,7.24-5.37,12,0-.05,1.61-1,3.13-.33,4.81,1.17,3.15,3.92,4,7.28,2.24,8,3.77,16.72,2.66,25.09,3.94,4.26.65,8.36,1.44,11.91,4,2.53,2.2,2.65,5.58,4.09,8.31a39.7,39.7,0,0,0,11.58,13.23,59.94,59.94,0,0,1,7.26,15.08,34.92,34.92,0,0,0,1.95,7.07c1.48,3.21,3,3.16,4.36-.17,2-3.95.58-7.37-1.59-10.7-1.89-2.9-4.49-5.39-5.61-8.73-.57-1.69-2.56-4,1-5.11,8.76,5.13,13.14,13.82,18,22.12,5.5,9.43,11.55,18.22,22,23,3.56,1.64,7.48,1.4,11,2.91a2.17,2.17,0,0,1,0,3.06c-6.7.28-13.6-1.37-19.91,2.46-5.73,3.49-7,9.25-8.06,15.16-.22,1.24.27,2.83-1.56,3.19s-2.73-1-3.17-2.48c-.65-2.2-.92-4.52-1.6-6.72-1-3.17-2.56-4.79-5.42-1.46-1.39,1.63-2.84,3.21-4.27,4.8C263.41,272.92,261.25,268.52,258,268.94Z"/><path class="cls-2" d="M36,102.94c9.27,1.59,14,9.35,19.54,15.41,6.88,7.47,14.62,14,21.75,21.13,6.87,6.91,14.71,12.84,22,19.37,11.59,10.42,23.06,21,34.56,31.49A25.11,25.11,0,0,1,136,193c-1.55,4.38-5.41,4.82-9.18,5.25-4.26.5-8.5-.73-12.77-.37-6.57-3.56-13.17-7.08-19.7-10.72-1.49-.84-4.06-.94-3.93-3.23s2.45-2.91,4.27-3.72c.59-.26,1.2-.47,2.64-1-4.91-1.89-9.14-3.41-13.28-5.13-18.39-7.6-30.29-21.68-38.49-39.22a144.55,144.55,0,0,1-9.89-29.2C35.46,104.66,34.89,103.74,36,102.94Z"/><path class="cls-3" d="M196,223.07c10.93,5.85,23.11,7.37,34.95,10,5.17,1.14,8.11,3.26,7.12,8.93-14.51,7.68-29.48,13.64-46.38,12.38A5.85,5.85,0,0,1,188,253c-2.23-3.09-5.49-3-8.85-3.16-6-.23-12.12-.38-14.1-7.86,1.76-1.72,4-1.32,6.1-1.25,10.42.35,17.7-4.23,22-13.68A10.14,10.14,0,0,1,196,223.07Z"/><path class="cls-4" d="M147,200c10.53,3.51,20.46,8.18,29.23,15.11a13.72,13.72,0,0,1,3.79,3.84c.34,3.42-2.36,4.56-4.61,5.75-8.89,4.73-18.61,5.89-28.47,6.38-9.66-7.68-18.61-16.06-25.9-26.09a3.84,3.84,0,0,1,2.77-1.94C131.51,201.74,139.16,200.11,147,200Z"/><path class="cls-3" d="M257,245.05c4.44.54,7,3.88,9.23,7s.76,6.64-2.56,8.42A110.4,110.4,0,0,1,235.31,271c-4.75,1-9.54,1-14.35,1H193.33c3.33-3.12,7.07-3.73,10.44-5.15,3-1.26,6.42-2.37,6-6.76,4-4.7,9-8.12,15.1-6.61C237.36,256.59,247.14,251,257,245.05Z"/><path class="cls-5" d="M147,231.07c6.11-2.74,13-2,19.21-4.07,5.2-1.71,10.61-3,13.87-8.06L196,223.07C191.34,237.17,184.71,242,170,242l-5,0C157.87,240.24,151.21,237.65,147,231.07Z"/><path class="cls-6" d="M257,245.05c.52,1,.52,1.72-.73,2.33-6.52,3.15-12.78,6.89-20,8.43-3.25.68-6.29-.19-9.27-.9-5.72-1.36-10.27.49-14.52,4a10.35,10.35,0,0,1-2.66,1.18c-3.52-.46-6.93.35-10.39.75-7.15.83-9.47-.9-11.41-7.88,15.42,1.41,29.69-2.62,43.43-9.17A15.39,15.39,0,0,1,238,242Z"/><path class="cls-7" d="M260,205c-2.1,2.59,0,4.64,1.12,6.58,1.53,2.69,3.74,5,5.32,7.64,2,3.43,3.71,7.06.54,10.82-4.39-.37-5.85-4.09-8-7l-7-15c-2.4-3.64-4.71-7.32-3.94-12C257.11,194.59,257.11,194.59,260,205Z"/><path class="cls-8" d="M147,200c-6.54,3.11-13.84,2.22-20.64,4-1.75.45-3.55.68-5.32,1a30.79,30.79,0,0,1-7-7.1c1.25-2.29,3.06-1.76,5.17-1.37,6,1.12,11.92,1.14,16.78-3.51C141.22,192.9,145,195,147,200Z"/><path class="cls-9" d="M248,196q2,6,3.94,12c-8.48-5-12.72-12.8-15-22C242.59,187.2,245.1,191.83,248,196Z"/><path class="cls-10" d="M136,137.06l10.6,21.14c-7.9-5-13.47-11.36-13.58-21.12Z"/><path class="cls-1" d="M311,256.05V253l23.06.09c.91,1.14,2.22,2.07,2,3.8L314.2,257C313.05,257,311.85,257.07,311,256.05Z"/><path class="cls-11" d="M258,268.94c3.68-2.29,5.79,2.32,9,2.06-1.18,2.16-1.87,4.62-3.82,6.29-1.59,1.35-3.39,3.57-5.46,2-1.59-1.16-.79-3.62-.1-5.54C258.17,272.24,260,270.72,258,268.94Z"/><path class="cls-12" d="M181,171c5.62,4,5.1,10.49,7.15,16.62-4.74-1.47-6.87-4.2-7.15-8.36-.15-2.13.17-4.3-1-6.24A2.16,2.16,0,0,0,181,171Z"/><path class="cls-13" d="M200,178c-1,1.06-.62,3.81-2.11,3.46a9.53,9.53,0,0,1-6.45-5c-1-2-.88-4.25,1.61-5.51A35.13,35.13,0,0,1,200,178Z"/><path class="cls-14" d="M336.06,256.88c-1.24-1-2.5-1.93-2-3.81,5.12.27,10.45-1.68,15.79,1.51C345.48,258.35,340.58,256.58,336.06,256.88Z"/><path class="cls-15" d="M259,223l8,7c-.36,1.76-.62,4.17-2.57,4.25-1.68.07-3-1.95-3.57-3.69C260.07,228.1,259.61,225.52,259,223Z"/></svg>