<svg id="Layer_1" data-name="Layer 1" xmlns="http://www.w3.org/2000/svg" viewBox="0 0 360 360"><defs><style>.cls-1{fill:#ece1d0;}.cls-2{fill:#d9c6ab;}.cls-3{fill:#d9c6ac;}.cls-4{fill:#f0e7d9;}.cls-5{fill:#d2bea5;}.cls-6{fill:#d2bfa6;}.cls-7{fill:#f5f2ec;}.cls-8{fill:#e2d7c7;}.cls-9{fill:#e6dbca;}.cls-10{fill:#d2bfa5;}.cls-11{fill:#f4efe7;}.cls-12{fill:#e1d7c5;}.cls-13{fill:#e8ddcc;}</style></defs><title>Artboard 1</title><path class="cls-1" d="M225.05,148l43.95,0c3.92,3.48,4.11,5.67.95,11-7.5,3.57-11.83,10.88-18.36,15.61a33.47,33.47,0,0,0-11.28,10c-7.51,1.69-12.91,6.26-17.27,12.4-1.56,2.2-4.16,3.27-6.43,4.66-3.63,2.23-7.09,4.71-10.62,7.09-6.48,3.34-12.7,7.14-19,10.72a32.36,32.36,0,0,1-12,4.31,20.19,20.19,0,0,1-3,.56c-24.41,9.39-49.52,16.43-74.94,22.45-8.81,2.08-16.91,5.91-24.92,10-5.7-7.29-4.16-13.82,4.81-18.26C87.6,233.31,98.16,227.84,108,221c5.15-3.59,10.31-7.16,15.38-10.86a9.16,9.16,0,0,1,6.41-2.15c2.11.2,3.93-.19,5.2-2.06,10,1.49,20.17-.21,30.21,1.09-6.91-.93-13.91-1.13-20.71-2.77-2.38-.58-4.87-1.18-6.53-3.3,4.32-6.44,11.22-6.58,17.8-6.84S169,193.29,175,190c1.95-1.37,3.78-.35,5.61.32,2.63,1,5.26,1.91,8.33.3-4.36-1.87-9.12-1.9-12.89-4.58-3-4.63-3-4.63,4-7.93,3.95,2.51,7.67,5.49,12.52,6.16a24.7,24.7,0,0,0,9.84,0,2.52,2.52,0,0,1,.44-.16c.5-.15.59-.43.14-.61-2.76-1.07-5.48-2.22-8.29-3.17-1.68-.57-3.58-.77-4.76-2.37,4.65-7.58,8.62-15.7,16.43-20.76a21.87,21.87,0,0,1,2.63-1.25,3.75,3.75,0,0,1,2.43-.41,62.38,62.38,0,0,0,33.4,1.68c-5.31-.3-12.05,1.39-18.58-.81-.44-3.4,2.37-2.54,3.91-2.65,4.93-.36,9.89,0,15.06-.18-3.89-1-7.64.24-11.26-.36S226.09,153,225.05,148Z"/><path class="cls-2" d="M72.1,256.86c.12-2.19,2.1-2.34,3.46-3.11,11.46-6.42,24.18-8.92,36.73-12A537.23,537.23,0,0,0,172,223c2.07,2.76,1.39,5.67.11,8.38A33.94,33.94,0,0,1,165,241.93c-16.95,9.38-34.76,16.52-54.11,18.74A93.88,93.88,0,0,1,72.1,256.86Z"/><path class="cls-3" d="M216,201a30.4,30.4,0,0,0,10.24-9.62c3.15-5.06,8.51-6.18,13.79-7.37,3.74,4.65,5.69,9.78,2.94,15.5a105.7,105.7,0,0,0-6.86,16.76c-1.59,6.26-4.72,9.09-10.76,9.72l-8.3.89c-.87-2.09.23-3.87.92-5.69C220.63,214.11,220.76,207.31,216,201Z"/><path class="cls-3" d="M175,223c9.53-2.17,17.19-8.11,25.55-12.66,1.73-.94,3.62-1.59,5.44-2.38,3.39,2.94,4.69,7,2.54,11.36-2.41,4.83-4.54,9.75-6.47,14.77-9,5.06-18.94,6.34-29,6.91-1.56-4.58,1.66-8.06,2.91-12C176.67,226.68,177.37,224.67,175,223Z"/><path class="cls-4" d="M269,159.05c2.49-3.67,2.62-7.33,0-11,6.2-2.1,9-7.56,12.22-12.53,2.75-4.24,5.94-7.78,11.36-9.33-.24,3.47-1.22,6.19-3.54,8.24-4.2,3.73-6.3,8.9-9.42,13.37-2.38,3.41-1.85,6.54,1.07,9.37.95.93,1.89,1.88,2.82,2.83,1.51,1.54,3.57,3.09,3,5.4s-3.08,1.22-4.74,1.67c-4.55,1.25-4.62,5-4.77,8.75-.49,12.89-6.4,22.36-18.11,28a3.08,3.08,0,0,1,0-3.3A92.45,92.45,0,0,0,269,159.05Z"/><path class="cls-3" d="M269,159.05c2.42,8.13.11,15.91-1.79,23.7-1.8,7.41-5.25,14.19-8.32,21.1L251,210.91c-3-1.49-4.15-4.21-5-7.19-.14-3.86,1.94-7,3.85-10,3.87-6,5.62-11.89,1.08-18.29a1.66,1.66,0,0,1,0-1.44C257.2,169.26,260.87,161.49,269,159.05Z"/><path class="cls-5" d="M202,234.07c-.73-4.36.93-8.2,3.33-11.5,3.56-4.91,3.5-9.63.6-14.63,2.87-3,6.48-4.92,10-6.95,4.16,1.21,4.54,4.78,5,8.2.87,6.37-1.32,12.09-4,17.68C211.9,229,208.53,234.82,202,234.07Z"/><path class="cls-6" d="M251,174c5.47,7.07,5.51,11,.81,18.81-2.09,3.48-4.58,6.9-4.83,11.22-1.78,4.58-3.75,9-8,11.93l-2.87.29a15.72,15.72,0,0,1,2.4-11c4.05-6,6.47-12,1.85-18.85-.41-.61-.23-1.62-.33-2.44C242.14,179,246.43,176.34,251,174Z"/><path class="cls-7" d="M211,156l-2-.07c4.86-3.65,10.92-4.87,16.07-7.91,3.86,4.49,9,4.2,14.15,3.73,3.62-.33,7.07-.16,11.25,3.25-7.14,0-13-.07-18.8,0-1.91,0-4-.72-5.68.93C221,159.17,216,156.74,211,156Z"/><path class="cls-8" d="M137.93,201c9.31,3.76,19.74,2.58,29,7H137.3a2.12,2.12,0,0,1-2.34-2.05A5,5,0,0,1,137.93,201Z"/><path class="cls-9" d="M189.92,178c6,.79,11.13,3.68,16.77,5.66-1,2-2.52,1.14-3.69,1.39a26.48,26.48,0,0,1-11,0c-5.1-.41-9.19-2.54-12-6.94Z"/><path class="cls-10" d="M175,223c3.1-.16,4.78.35,3.08,4.15-2,4.48-3.39,9.22-5,13.85-2.54,1.34-5.29.92-8,1,.15-2.47,1.77-4.25,3.11-6.06,2.86-3.85,4.55-8,3.89-12.84Z"/><path class="cls-7" d="M239,216c2.87-3.85,4.71-8.39,8-11.93q2,3.44,4,6.87C248.36,215.84,243.23,214.89,239,216Z"/><path class="cls-11" d="M176,186c4.88,0,9.17,2.63,13.94,3.2a1.87,1.87,0,0,1,1.31,1.23c0,.41-.63,1.16-1.13,1.35-2.48.9-4.87,1.63-7.68.61-2.45-.89-4.68-2.64-7.49-2.43A6.54,6.54,0,0,0,176,186Z"/><path class="cls-12" d="M211,156l15,0h22C235.6,161.3,223.29,161.82,211,156Z"/><path class="cls-13" d="M192,185h11A13.06,13.06,0,0,1,192,185Z"/></svg>