<svg id="Layer_1" data-name="Layer 1" xmlns="http://www.w3.org/2000/svg" viewBox="0 0 360 360"><defs><style>.cls-1{fill:#ece0d0;}.cls-2{fill:#d9c6ab;}.cls-3{fill:#d1bda5;}</style></defs><title>Artboard 1</title><path class="cls-1" d="M114,177c.48-7,4.52-10.54,11-8.74,15.05,4.16,30.39,4.49,45.84,4.92,10.4.29,20.87,1.77,30.15,7.32a15.31,15.31,0,0,0,14.8,1c13.56-6.21,26.26-3.45,38.58,3.32,7,3.83,13.77,8,20.55,12.21,3,1.86,5.58,4.29,6.79,7.74,2.64,7.5-4.31,16.84-12.81,17.25-2,.1-4-.08-6-.13-.42-2.37,1.2-4.05,2.06-6,2.49-5.59,1.06-8.06-5.13-8.4a55.74,55.74,0,0,0-11.4.35,67,67,0,0,1-17.33.16,20.49,20.49,0,0,0-8.41-.61c-13.91,1.18-26.94-2.72-40.2-6.08-18.85-4.78-36.05-13.71-54.28-20C123.54,179.67,118.37,179.62,114,177Z"/><path class="cls-2" d="M114,177c10,.39,19.14,4.13,28,8.12a318.4,318.4,0,0,0,62.88,20.29c6.88,1.5,13.94.27,20.91.64,1.76.09,3.7-.64,5.2.95-2.09,1.94-4.69,1.24-7.12,1.39-4.86-.62-8.74.22-12.1,4.64-2.62,3.45-6.86,5.68-10.77,7.91-15.42-5.51-30.79-11.17-46.27-16.48-7.82-2.69-15.95-4.45-23-9.1C124.46,190.55,118.25,184.72,114,177Z"/><path class="cls-2" d="M223,207l8,0c9,.64,17.88-1,26.85-1,10.75,0,12.63,3.22,7.32,12.59-.65,1.15-1.49,2.19-2.24,3.28-17,10.61-34,6.95-51,.19a4.16,4.16,0,0,1,2.22-1.83,11.87,11.87,0,0,0,7.39-9.64A6,6,0,0,1,223,207Z"/><path class="cls-3" d="M223,207c-.13,9.12-2.71,12.62-11.08,15A48.55,48.55,0,0,1,201,220.94a17.62,17.62,0,0,1,5.72-5.41c1.69-1,3.91-2,4.64-3.61C213.85,206.51,218.29,206.67,223,207Z"/></svg>