<svg id="Layer_1" data-name="Layer 1" xmlns="http://www.w3.org/2000/svg" viewBox="0 0 360 360"><defs><style>.cls-1{fill:#ece1d0;}.cls-2{fill:#d9c6ab;}.cls-3{fill:#d2bfa6;}.cls-4{fill:#d2bea5;}.cls-5{fill:#e5daca;}.cls-6{fill:#d1bda5;}.cls-7{fill:#e2d7c7;}.cls-8{fill:#f4ede4;}.cls-9{fill:#e1d8c8;}.cls-10{fill:#f6f2ea;}.cls-11{fill:#e3d7c7;}</style></defs><title>Artboard 1</title><path class="cls-1" d="M55.06,270.05c-1.85-6.71.54-11.79,5.64-16.22,11.77-10.24,23.36-20.68,35-31L118,203a114,114,0,0,0,31.71-5.42c.42-.14,1.09,0,1.08-.28-6.6-.31-12.88,2-19.41,2.59-3.7.32-7.32-.23-9.47-3.95,7.5-9.82,17.95-12.28,29.57-11.86,1.1,0,2.77,1.75,3.23-.49.32-1.61-1.49-2-2.68-2.42s-3.52.18-3.19-2c.23-1.48,2.22-2,3.67-2.07,3.15-.19,6.31-.09,9.46-.12,3.12-2.32,6.73-1.11,10.12-1.38,2.77-.22,5.63,0,7.8-2.85-2.73-2-5.63-1.08-8.31-1.37-3.88-.4-8,1.09-11.62-1.37-.53-2.46,1.79-2.82,3-4,2.13-1.81,4.72-1.39,7.18-1.4,10-.05,19.92,0,31,0-5.28-4.5-10.76-4.51-16.06-5.09-2.42-.26-5.06.52-7.11-1.49,2.27-12.59,6.77-23.76,19-30a12.86,12.86,0,0,0,12.78-.78c2-1.2,4.4-1,7.45-2.23-.34.1-1.35-.48-1,.07.17.25.12.43-.17.46-2.06.18-4.21,1.4-6.09-.52.81-8,.81-8,9-7.94,2.74,2.22,6,2.51,9.33,2.58,3.94.07,7.93-.53,11.77.85,2.43,1.72.14,2.13-.85,2.41-2.74.79-5.6.19-8.53.45,3.11.85,6,1.63,9.19.66,2.74-.84,2-2,.54-3.38-4.78-2-9.78-2.27-14.87-2.3-1.94,0-4.78,1.09-5.51-2.27,9.4-6.32,20.57-5.75,31-8,12.29-2.63,21.15-9.24,24.94-21.66,1.26-4.13,2.63-8.16,7.37-10.27.15,8.56-3.74,15.25-7.79,21.87-4.26,7-4.72,10.53-1.17,14.58a33.93,33.93,0,0,0,6.09,5.09,11.46,11.46,0,0,1,3,3.22c.83,1.27,2,2.55,1.13,4.07-.95,1.68-2.4.15-3.58,0-6.42-.52-8.27.92-8.06,7.43a131.59,131.59,0,0,1-3,32.11c-1.28,5.93-3.78,7.9-10,8.56-.89-3.7,1.41-6.67,2.41-9.89,2.53-8.13,4.49-16.26,3.23-24.89a42.06,42.06,0,0,0-4-12.64c-4.33,3.16-8.9,5.75-11.47,10.6-2.78,4.18-5.44,8.44-8.84,12.17a60.75,60.75,0,0,0-14,15.17,73,73,0,0,1-11.78,13.94,64.84,64.84,0,0,0-14.08,14.08c-8.5,7.49-18,13.65-27.26,20.1-5.78,2.65-11.35,5.6-15.22,10.92-13.56,7.12-27.64,13.14-41.42,19.78-14.38,6.93-28.95,13.49-43.35,20.41-5,2.37-10.09,4.34-15,6.88C58,270.41,56.56,271.09,55.06,270.05Z"/><path class="cls-2" d="M55.06,270.05c11-5,22.06-10,33-15.11q34.5-16.14,68.95-32.43A11.93,11.93,0,0,1,159,222c5.49-.85,8.74,2,8.12,7.26-.34,2.84-1.72,5.34-2.89,7.9-4.56,5.78-10.66,9.41-17.22,12.44-7.4,3.43-14.36,7.34-20.48,13-7.37,6.88-17.38,7.84-26.89,9.24-7.4,1.09-14.68,2.51-22,4.24C69.2,278.12,61.1,277.57,55.06,270.05Z"/><path class="cls-2" d="M215,177c8.15-7.89,13.09-18.43,21.53-26.06,1.34-1.21,2.35-2.9,4.44-3a5,5,0,0,1,1.49,4.1c-.09,12.63.8,25.28-.56,37.9-6.23,10-15.29,16.4-25.92,20.9a2.65,2.65,0,0,1-.32-2.8c3.12-8.06,2.2-16.13.18-24.23C215.3,181.6,214.62,179.36,215,177Z"/><path class="cls-2" d="M249.05,136c2-6,8.18-7.95,12.22-12,1.17-1.16,1.84,1.26,2.31,2.25,4.8,10.35,4.93,21,1.79,31.8-1.47,5.07-3.51,10-5.29,15a47.88,47.88,0,0,0-3,5c-2.4,5.19-6.15,7.86-12,6.92-.46-9.27-2.53-19,3-27.28,4.46-6.71,5.44-12.84,1.64-19.82A19,19,0,0,1,249.05,136Z"/><path class="cls-2" d="M174,211l27-20a17.23,17.23,0,0,1,4.38,12.81c-.37,6.5-1.5,12.82-5.34,18.32-7.88,5.52-16.39,9.56-26,11A32.67,32.67,0,0,1,174,211Z"/><path class="cls-3" d="M200,222.11c.88-3.18,1.54-6.43,2.67-9.52,2.74-7.51.82-14.56-1.71-21.61a39.42,39.42,0,0,1,14-14c4.4,11.16,6.19,22.4,1,33.84C211.87,216.3,208,222.15,200,222.11Z"/><path class="cls-4" d="M249.05,136c5.56,5.47,6.35,14.46,1.47,20A18.76,18.76,0,0,0,246,169.3c.13,5.26.31,10.55-1,15.73l-3.1,4.92c-1.53-1.52-.87-3.45-.88-5.2C241,172.48,241,160.22,241,148Z"/><path class="cls-5" d="M177.94,158c8.57.07,17.29-.5,24.61,5.35.63.5,1.19,1.11,2.83,2.66H162.94C165.66,159,171.57,158.08,177.94,158Z"/><path class="cls-6" d="M174,211l0,22.09c-3.19,1.6-6.3,3.35-9.85,4.06-1.31-1.46-.12-2.81.34-4,2.8-7.57,2.16-8.92-5.57-11.1C161.86,215.45,168,213.36,174,211Z"/><path class="cls-7" d="M121.93,195.94c5.28,3.57,10.87,2.93,16.61,1.39,4.45-1.2,9-2.38,14.25-.05-6.34,3.6-12.81,4.54-19.15,5.63-5.15.88-10.41,2.36-15.62.09C118.07,200,118.2,197,121.93,195.94Z"/><path class="cls-8" d="M160,170c5.6,0,11.21,0,16.82,0,2.14,0,5.39.3,5.49,2,.16,2.8-2.91,4.48-5.47,4.72-4.91.45-9.88.2-14.83.23Z"/><path class="cls-9" d="M210,125h6.88l.18.63c-4.1,1.67-8.16,3.48-12.33,5A6.11,6.11,0,0,1,197,128C200.45,123.26,205.52,125.51,210,125Z"/><path class="cls-10" d="M220.06,116c3.67,2.08,7.64.71,11.45.9s7.08.94,9.48,4.06h0c-5.16,0-10.32.06-15.48,0-2.9,0-5.77-.3-6.53-4Z"/><path class="cls-11" d="M241,121c1.47.22,3.37.45,3.36,2.16,0,1.39-1.92,1.45-3.17,1.86a13.67,13.67,0,0,1-13.67-2.53c4.77-1.4,9.38.85,13.49-1.49Z"/></svg>