<svg id="Layer_1" data-name="Layer 1" xmlns="http://www.w3.org/2000/svg" viewBox="0 0 360 360"><defs><style>.cls-1{fill:#ebe0d0;}.cls-2{fill:#dac6ac;}.cls-3{fill:#d9c6ab;}.cls-4{fill:#d2bfa6;}.cls-5{fill:#e9dfcf;}</style></defs><title>Artboard 1</title><path class="cls-1" d="M113,252c-5.42-5-5.14-10.88.66-14.29,17-10,31.45-23.76,48.74-33.38,3.47-1.93,7.52-2.7,10.63-5.34,5.53-.89,11.13,0,17-.54-3.59-2.23-7.9.24-11-2.46,8.15-11.65,18.23-20.41,32.94-22.55a23,23,0,0,1,6.9-.35A29.61,29.61,0,0,0,230.1,173c3.72-.8,5.73.83,6.72,4.63,2.43,9.42,1.79,12-4.67,15.46-2.18-2-1-4.69-1.43-7-.28-1.57-.84-3.64-2.63-1.71-8.09,8.74-19.8,13.6-26,24.29-2.12,3.09-5.08,5.23-8.15,7.25C170,226.76,146.34,238.05,121,245.25,117.08,246.38,114.87,248.83,113,252Z"/><path class="cls-2" d="M113,252c-.34-3.69,1.35-6.11,4.84-7.07,26-7.17,50.16-18.9,74.72-29.67A6.86,6.86,0,0,1,194,215c1.88,3.61,1.9,8.08,5.13,11.07-22.24,9.41-43.34,21.93-67.72,25.53C125.37,252.49,119.13,251.92,113,252Z"/><path class="cls-3" d="M201,208a51.64,51.64,0,0,1,16.61-16.11c3.72-2.34,6.43-5.72,9.6-8.62.92-.83,1.66-2.55,3.2-1.67,1.13.65,1.49,2.14,1.53,3.52.07,2.66.11,5.31.17,8a23.3,23.3,0,0,1-11.38,20.41c-5,3.2-10.07,6.47-15.75,8.52C201.34,218,201,213.1,201,208Z"/><path class="cls-4" d="M201,208q2,7,4,14c-1.87,1.47-3.49,3.32-5.89,4-5.93-1.73-4.79-6.74-5.13-11.07C196,212.35,199.37,211,201,208Z"/><path class="cls-5" d="M179,196c4.41.07,8.87-.45,13.18,1,.85.29,1.64.66,1.48,1.6-.09.48-.84,1.22-1.27,1.21-6.47-.27-13,1.36-19.42-.82C174.34,196.66,176.56,196.07,179,196Z"/></svg>