<svg id="Layer_1" data-name="Layer 1" xmlns="http://www.w3.org/2000/svg" viewBox="0 0 360 360"><defs><style>.cls-1{fill:#ece1d0;}.cls-2{fill:#d9c6ab;}.cls-3{fill:#d8c5aa;}.cls-4{fill:#ddd0bb;}.cls-5{fill:#d2bea4;}.cls-6{fill:#d2bea5;}.cls-7{fill:#e2d8c8;}.cls-8{fill:#d1bea4;}.cls-9{fill:#f0e7d9;}.cls-10{fill:#f6f3ed;}.cls-11{fill:#e5dac9;}.cls-12{fill:#e0d7c8;}.cls-13{fill:#e4d9c9;}.cls-14{fill:#e1d6c6;}</style></defs><title>Artboard 1</title><path class="cls-1" d="M76.87,99.1c-1.65-3.83-1.24-7.87-.39-11.67,1.14-5.07,4.81-6.57,10.57-4.86,10.51,3.11,18.53,9.81,24.34,18.74,5,7.69,11.15,14.38,16.62,21.65.29.41.67.9.55,1.35-2.15,8.72,1.26,16.28,4.89,23.8a10.73,10.73,0,0,1,.37,1c-1.49-4.48-1.06-9.82-1.93-15-.39-2.38-.82-5,1.11-7.11,8.67,1.35,14.59,6.69,19.05,13.73a12,12,0,0,0,6,5.25c-4.7,4.19-4.73,4.49-1.47,15.17.88-4.86-1.29-10.24,1.46-15.17,10.35,5.89,13.38,16,14.85,26.7.42,3.1,1.75,6.1,1.71,9.58,1.49-2.56,3-5.12,5.12-8.84.53,5.1.93,8.82,1.3,12.53.12,1.29-.25,3,1.36,3.36,1.26.29,2-1.07,2.49-2.1,2.25-4.81,4.64-3.88,7.17-.27,3,6.15,2.1,13,3.33,19.46,1.1,5.8,1,11.78,2.62,17.55,1-6.41.4-12.85.62-19.26.08-2.27-.44-4.7,1.38-6.62,5.32,4.33,11.73,6.47,17.93,9.1C224.5,210,230.56,213.56,233,221c-3,4.73-3.16,9.51-.69,14.59a20.62,20.62,0,0,1,2,10.14c.36,6.64,3.11,12.77,3.92,20.18,1.73-3.78-.75-7.34,1.74-10,2,.08,1.71,1.6,1.93,2.81,1.37-4.08.4-8-1-12-.93-2.71-1.79-5.51-.33-8.24.89-1.65,1.91-4,4.33-1.38q5.51,19.74,11,39.48c1.05,3.8,2,7.62,3.05,11.43,1.09,2.08.69,3.35-1.86,3.56-1.72.14-3.52-.46-5.17.48l-.92.12c-4.12-3-8.84-5.34-11.91-9.67-2.62-3.42-7.28-2.55-10.39-4.93-6.77-6.09-13.07-12.84-22-15.92-5.54-9.61-14.38-15.72-23.21-21.83-4.76-3.7-9.59-7.31-14.22-11.18-8.41-8.92-16.33-18.3-24.43-27.51a14.29,14.29,0,0,1-2.61-4.76,12,12,0,0,0-3.22-5.12c-10.38-17.24-19.66-35.11-29.65-52.58-8.18-14.29-15.85-28.86-24-43.17-1-1.76-1.65-4.53-4.39-4.09s-2.61,3.06-2.91,5.18A3.25,3.25,0,0,1,76.87,99.1Z"/><path class="cls-2" d="M76.87,99.1c0-1.5.13-3,.11-4.49a5.33,5.33,0,0,1,3.85-5.29c2.38-.81,3.41,1.42,4.4,3.17,4.56,8.12,9.14,16.22,13.66,24.35q20.6,37,41.16,74.12c-1.23,3.41-4.1,4.42-7.2,4.07-4-.46-8-.38-11.93-.93a177.57,177.57,0,0,1-31.74-47.23C82.3,131.71,77.46,115.93,76.87,99.1Z"/><path class="cls-2" d="M184,239c9,6,18.44,11.43,23,22-1.61,3.95-5.17,4.78-8.8,5.28a46.19,46.19,0,0,1-8.4.13c-5.82-.29-11.48.19-16.85,2.66-11.12-5-17.53-14.18-22-25.05,1.27-1.24,2.79-.91,4.18-.43,9,3.14,17.23,1.34,25.18-3.21A7.85,7.85,0,0,1,184,239Z"/><path class="cls-2" d="M143,196c4.48,7.78,11.4,13.55,16.94,20.47,3.19,4,6.68,7.72,10,11.57-3.25,4.3-7.87,5.3-12.8,4.85-5.74-.52-11.44-1.57-17.23-.81A64.86,64.86,0,0,1,125,202c1.44-1.47,3.35-1.21,5.14-1.39C134.86,200.15,139.36,199.21,143,196Z"/><path class="cls-3" d="M229.07,277c3.62,1.75,8.67.34,11,5,1.06,2.21-.54,3.25-2.07,3.72-15.83,4.87-31.56,5.79-47-1.69a15,15,0,0,0-6.54-1.92c-9.45-.08-10.55-2.29-11.32-12,2.25-.48,4.48-1,6.7-1.68,8.89-2.74,17.78-1.88,26.25,1.4,6.79,2.63,13.29,5.94,20.76,6.19A3.87,3.87,0,0,1,229.07,277Z"/><path class="cls-4" d="M191,284c8.61,2.06,17.25,4,26.17,4,6.78,0,13.34-1.59,19.87-3.18,1.43-.34,2.88-1,3-2.84,1.86,2.88,5.11,4.06,7.53,6.22,1.29,1.15,3.38,1.69,3.51,3.9-1.83,5.05-4.27,9.74-8.22,13.49-1.86,1.75-3.16,2.24-3.9-1.18-1.68-7.83-4-9.38-12-9.51-7.8-.13-15.6.44-23.41-.48C196.89,293.63,193.09,290,191,284Z"/><path class="cls-5" d="M140,232c3.66-3.1,7.72-1.83,11.73-1,6.47,1.28,12.62.6,18.3-3a130.47,130.47,0,0,1,14,11c-8.05,6.64-17,9.28-27.32,6.41-1.89-.53-3.81-.92-5.71-1.38Z"/><path class="cls-6" d="M229.07,277c-7,.72-13.45-1.36-19.69-4.28-10.63-5-21.47-6.62-32.53-1.56-1.92.88-2.7,0-3.71-1.1-.06-.33-.12-.66-.17-1a10.21,10.21,0,0,1,8.64-4c4.16,0,8.34-.27,12.47.06A17.84,17.84,0,0,0,207,261C216.61,263.23,222.89,270,229.07,277Z"/><path class="cls-7" d="M200,198.07c0,8.63,0,17.27-.21,25.9,0,1.18.51,3.58-1.64,3.61-2.31,0-2-2.15-2.13-3.77-1.2-12.31-3.37-24.5-4-36.87C197.77,188.43,198.78,193.31,200,198.07Z"/><path class="cls-8" d="M143,196c.25,2.54-1.41,3.35-3.43,4.06A36.41,36.41,0,0,1,125,202c-1.28-2.67-3.41-4.91-4.12-7.89,2.66-2.14,6-1.55,8.56-.82,4.24,1.21,7.44.24,10.57-2.32C142,192,143.23,193.58,143,196Z"/><path class="cls-9" d="M252,292c1.14-1.42,2.75-1,4.18-1,2.27.07,2.92-1.12,2.85-3.09,9.73,3.22,18.58,8.41,28.48,12.16-6,2.86-14.26,1.64-21.44-3.56C261.76,293.4,257.49,291.06,252,292Z"/><path class="cls-10" d="M245,237c-5.11-.44-3.95,3.4-3.69,6,.23,2.42,1.62,4.7,2.2,7.1.86,3.57,1.27,7.16-1.61,10.27-1.68-1.17-.13-3.46-1.86-4.4-6-8.78-5.43-18.27-3-28A12.18,12.18,0,0,1,245,237Z"/><path class="cls-11" d="M133,127c-.25,8.37,1.71,16.61,1.58,25-5-9.06-10.8-17.91-6.57-29Z"/><path class="cls-12" d="M233,246c.49-4.84-1.48-9.1-3.18-13.42-1.94-4.94-.88-8.71,3.21-11.6a12.52,12.52,0,0,1,3,6c1,5.77.34,11.59.42,17.38C236.45,246.84,234.87,247,233,246Z"/><path class="cls-13" d="M233,246c2.9.24,3.05-1.62,3-3.78-.06-5.07,0-10.14,0-15.21.32.34.65.67,1,1,0,2.79.37,5.64-.06,8.36-1.09,6.92,1.79,13.12,3.1,19.6-.34,4.13,1.45,8.38-1.41,13.83A156.19,156.19,0,0,1,233,246Z"/><path class="cls-14" d="M158,146v20.23c-3.52-5.7-5.32-10.61-5-16.19.18-3.12,2-4.39,5-4Z"/></svg>