<svg id="Layer_1" data-name="Layer 1" xmlns="http://www.w3.org/2000/svg" viewBox="0 0 360 360"><defs><style>.cls-1{fill:#ece1d0;}.cls-2{fill:#dac6ac;}.cls-3{fill:#d8c5aa;}.cls-4{fill:#d9c5aa;}.cls-5{fill:#dbcfbc;}.cls-6{fill:#d1bda4;}.cls-7{fill:#d2c0a8;}.cls-8{fill:#f1eade;}.cls-9{fill:#e5daca;}.cls-10{fill:#e4d9c7;}.cls-11{fill:#e4d9c9;}.cls-12{fill:#e4d9c8;}.cls-13{fill:#f1e9de;}</style></defs><title>Artboard 1</title><path class="cls-1" d="M123,64c7.07-.73,14.3,3.8,18.06,12.48A225.66,225.66,0,0,0,154,101c-3.3,5.11-3.17,10.54-1.48,16.11,0,.4,0,.81,0,1.22a1.4,1.4,0,0,0,.06.41c-.35-.57,1-.18.31-.3-.09-5.88-1.56-11.79,1.08-17.44,7.27,1.62,8.74,8.52,12.14,13.57,3.55,5.27,6.66,10.83,10.06,16.19a6.17,6.17,0,0,1,.91,4.65c-.89,5.66,1.1,10.45,5.14,14.38a83.48,83.48,0,0,1,9.8,11.2c-5.65,6.27-3.28,14-3.42,21.34,1.07-6.33,1.82-12.79,5.37-18.35,1.38,7.44,7.37,10.8,13,14.37,4.73,3,7.27,7,7,12.66-1.87,0-1.84,1.41-2.18,2.68-1.51,5.6-1,11.21-.11,16.81q.9,5.55,1.62,11.11c-1.29-9.13-.68-18.31-.62-27.47A4.16,4.16,0,0,1,214,191c5,5.43,6.16,12.33,6.94,19.24,1.19,10.57-.52,21.17.07,31.76.78,1.36,1.23,2.73,0,4.08l-3.91,0c-1.89-5.29-4.69-9.62-10.9-10.38-6.27-5.75-10.91-12.9-16.34-19.37-6.3-7.5-12.73-14.91-18.39-22.94-1.06-2.08-2.3-4.06-3.56-6-4.71-8-10.42-15.4-14.72-23.67-.55-6.57-2.25-12.67-7.12-17.49-4.46-10.75-6.64-22.2-9.86-33.32-4.43-15.28-8.58-30.64-12.84-46A9.17,9.17,0,0,1,123,64Z"/><path class="cls-2" d="M123,64c2.87,2.92,2.88,6.94,3.9,10.52Q137.08,110.2,147.05,146c.2,2.84-1,5-3.69,5.76-3.21.9-6.26.44-8.3-2.7-10.41-17.11-17.38-35.27-18.36-55.59-.27-5.49.32-10.86.31-16.29A17,17,0,0,1,123,64Z"/><path class="cls-3" d="M172,193c11.49,13.89,23.21,27.59,34,42-2.31,4.56-6.64,5.61-10.91,4.92A138.14,138.14,0,0,1,176.05,235c-11.82-11.67-21.36-24.8-26.11-41,2.09-.89,3.87.3,5.6,1.05C161.51,197.67,167,197.28,172,193Z"/><path class="cls-4" d="M154,164l15,23c-2.55,2.09-5.38,1.37-8,.48-5-1.68-9.89-2.41-14.95-.52-6-8-7.5-17.33-7.94-27C144,159.11,149.48,159.59,154,164Z"/><path class="cls-5" d="M176.05,235a27.53,27.53,0,0,1,13.44,2.34c6,2.48,11.5,1.72,16.55-2.33,7.84.61,10.71,3.5,11.05,11.11-2.63,4.43-6.12,4.77-10,1.87-5.45-4.06-12.07-4.36-18.28-6C184,240.69,179.07,239.55,176.05,235Z"/><path class="cls-6" d="M146,187c2.39-2.9,5.45-3.32,8.91-2.51,4.64,1.08,9.09,3.24,14,2.55,1.16,1.9,2.8,3.56,3.05,5.94-2.09,4.55-8.13,6.59-13.9,4.53-2.79-1-5.46-2.3-8.19-3.47Z"/><path class="cls-7" d="M154,164c-5-2.51-10.61-2.75-15.94-4-3.41-3-3.21-7-3-11,8,3.14,8.55,3,12-3.06C152.71,150.68,154.16,157,154,164Z"/><path class="cls-8" d="M221,246.05l0-4.08L244,258.21C235.25,259.73,225.65,254.41,221,246.05Z"/><path class="cls-9" d="M194,164c-.7,6.66-4,12.63-4.85,19.33-2.44-6.47-3.36-12.85-.64-19.32.66-1.58,1.52-3,3.54-3A3.16,3.16,0,0,1,194,164Z"/><path class="cls-10" d="M214,191v34.49c-4.63-13.8-6.59-28.5-1.75-36.68L214,191Z"/><path class="cls-11" d="M164.82,150.73c.78-6.29-.51-11.66-.84-17.1-.24-4,2.11-6.48,4.8-8.81a2,2,0,0,1,2.29-.48,1.79,1.79,0,0,1,.71,2.58c-4.68,5.56-1.62,12.62-3.72,18.68C167.48,147.27,167.48,149.13,164.82,150.73Z"/><path class="cls-12" d="M154,101q-.11,10-.21,19.92c0,.09-.22.23-.35.24A1.28,1.28,0,0,1,153,121c-.73-.86-1.55-1.69-1-3-3.23-8.24-2.67-13,2-17Z"/><path class="cls-13" d="M152,118c.34,1,.67,2,1,3C150.88,120.6,150.34,119.67,152,118Z"/></svg>