<svg id="Layer_1" data-name="Layer 1" xmlns="http://www.w3.org/2000/svg" viewBox="0 0 360 360"><defs><style>.cls-1{fill:#ece1d0;}.cls-2{fill:#d9c6ab;}.cls-3{fill:#d5c1a7;}.cls-4{fill:#d1bda4;}.cls-5{fill:#eee7dc;}.cls-6{fill:#d1bfa6;}.cls-7{fill:#efe7d9;}.cls-8{fill:#e2d7c6;}.cls-9{fill:#e4d8c7;}.cls-10{fill:#d9c5aa;}.cls-11{fill:#e1d6c5;}</style></defs><title>Artboard 1</title><path class="cls-1" d="M286.05,125c3.34,6.31-2.44,14.88-9.06,18.56-9,5-18.66,8.29-28,12.51-5.08.86-10.24-.14-16,.7,4.53,2.1,9.63-.84,12.91,3.24-.75,4.79-3.73,8.16-7.5,10.7-4,2.67-8.29,4.86-12.45,7.26-9-3.93-18.18-2.31-27.35-.66-.65.06.14,1,0,.39a.18.18,0,0,1,.14-.26c7.54-1.46,15.13-.75,22.71-.62A3.32,3.32,0,0,1,224,178a24.18,24.18,0,0,1-16,7.46c-11.56,1.1-20.23,8.56-27.75,17-7,7.92-13.74,16.1-22.45,22.37a10.61,10.61,0,0,1-6.85,2.18,1.26,1.26,0,0,1-.14-1.2c1-1.59-.52-1.54-1.26-1.81-6.15-2.21-11.28.53-16.36,3.46-3.31,0-6.6-.2-9.85.81-2.84.88-5.33,2.34-6.26,5.18-1.18,3.59-3.53,4.13-6.85,4.05-3.75-.08-7.56-.62-11.29.41-3.55.29-6.73,1.78-10,3-.33.46-.65.48-1,0-6.06-10.09-5.28-20.22-.31-30.44,2.89-6,6.15-11.73,7.82-18.3,1.47-5.77,5.22-10,11.52-11.16,1.09,1.1,1,2.39.63,3.73a2,2,0,0,1-.45.87c-10.2,8.42-10.67,19.88-10,31.72.09,1.46-.22,3.26,1.39,4,1.84.82,3.08-.68,4.27-1.8,1.92-1.81,3.12-4.29,5.27-5.9,5.41-3.56,9.23-8.78,13.75-13.25,6.29-.61,10.61-4.4,14.16-9.13a24,24,0,0,1,8.21-7c3.55-2.21,6.74-4.94,10.29-7.16,7.72-5.1,15.42-10.24,23.43-14.88,5.46-1.31,10.72-3,14.76-7.21,8.7-4.26,18.17-6.24,27.3-9.21,20.65-6.72,41.3-13.48,62.06-19.87A30.2,30.2,0,0,1,286.05,125Z"/><path class="cls-2" d="M286.05,125a3.87,3.87,0,0,1-2.62,2.08q-39.35,12.46-78.66,25c-3.94,1.25-7.84,2.65-11.76,4-2.93-3.67-6.57-6.94-7-12.06a154.94,154.94,0,0,1,62.38-23c9-1.3,17.93-3.14,27.08-1.12A22,22,0,0,1,286.05,125Z"/><path class="cls-2" d="M145,185c-5.13,2.43-7.91,7.32-11.6,11.23A13.83,13.83,0,0,1,122,201c-4.34-3.69-4.11-8.66-2.66-13.2,1.94-6.08,4.21-12.09,6.58-18.05,3.5-7.83,11.15-8.64,18.08-10.66,1.16,1.38.6,2.9,0,4.19C140.76,170.73,140.92,177.94,145,185Z"/><path class="cls-2" d="M178,163c-7.26,5.62-15.25,10.13-23,15-4.31-5.27-3.9-10.94-1.48-16.8,1.26-3,3.38-5.76,3.37-9.26,7.94-3.83,16.11-6.83,25-7.1C184.57,150.36,182.72,158.85,178,163Z"/><path class="cls-3" d="M125.93,169.78c.56,4.32-1,8.27-2.89,11.86-3.38,6.43-4.14,12.74-1,19.39a35,35,0,0,1-13,13c-2.11-.07-2.32-1.81-2.36-3.19-.19-8.62-.83-17.25.32-25.85,0-1.31,0-2.61.07-3.92Z"/><path class="cls-4" d="M156.9,152c1.94.21,2.07,1.19,1.26,2.72-1.15,2.2-2.09,4.51-3.33,6.65-3.27,5.63-1.44,11.15.18,16.69l-10,7c-4.24-3.64-5.54-8.42-4.55-13.64.79-4.16,2.34-8.18,3.55-12.25C147.84,155.89,151.42,152.2,156.9,152Z"/><path class="cls-5" d="M99,238c3.92-2,8.11-.49,12.15-1,1.57-.18,3,.24,3.91-2,3.14-7.9,10.43-10.84,18.93-8a21.22,21.22,0,0,0,11.49-1.3c1.79-.69,3.77-1.36,5.51.32l0,1c-5.3,6-12.79,7.36-20,8.78C120.5,237.93,109.75,238.3,99,238Z"/><path class="cls-6" d="M178,163A33,33,0,0,0,182,144.85c1.15-1.21,2.66-.73,4-.88,2,4.24,5.9,7.33,7,12.06C189.19,160.9,183.84,162.47,178,163Z"/><path class="cls-7" d="M88.05,241l1,0c-1.92,8.92-7.83,15.42-13.89,23.28C74.9,253,80.34,246.39,88.05,241Z"/><path class="cls-8" d="M224,178H196c8.13-5.41,24.28-5.36,29.94-.09Z"/><path class="cls-9" d="M245.91,160c-4-1.44-8.14-.86-12.23-1-1.56,0-3.23-.23-3.37-2.11-.17-2.38,1.89-1.95,3.2-1.83,5.17.46,10.48-1.31,15.52,1Z"/><path class="cls-10" d="M107,185c2.15,7.58.4,15.33,1,23,.16,2-.81,4.31,1,6.07-2.22,2.67-4.34,5.43-6.71,7.95a4.59,4.59,0,0,1-4.54,1.42c-1.69-.6-1.76-2.62-1.77-4.3,0-5.15-.37-10.33.07-15.45A24.36,24.36,0,0,1,107,185Z"/><path class="cls-11" d="M151,226c-3.4-.35-6.33,1.32-9.39,2.3-2.89.93-5.39,1-7.61-1.32,4.3-6,14-6.79,20.27-1.56C153.3,226.38,152.08,225.85,151,226Z"/></svg>