<svg id="Layer_1" data-name="Layer 1" xmlns="http://www.w3.org/2000/svg" viewBox="0 0 360 360"><defs><style>.cls-1{fill:#ece1d1;}.cls-2{fill:#d9c6ab;}.cls-3{fill:#dac7ac;}.cls-4{fill:#d9c5aa;}.cls-5{fill:#d8c5aa;}.cls-6{fill:#d1bda4;}.cls-7{fill:#cfbca3;}.cls-8{fill:#ded5c4;}.cls-9{fill:#f4f0e8;}.cls-10{fill:#f9f6f1;}.cls-11{fill:#e1d7c7;}.cls-12{fill:#f3efe8;}.cls-13{fill:#d2bea5;}.cls-14{fill:#e5d8c6;}.cls-15{fill:#f6f3ec;}.cls-16{fill:#e5d9c9;}.cls-17{fill:#e4d9c9;}.cls-18{fill:#f1e9db;}</style></defs><title>Artboard 1</title><path class="cls-1" d="M346.1,192.94c-.06,5.64-4.66,8.26-8.14,11.28a18.06,18.06,0,0,1-12.86,4.65c-25-2-48.55,5-72.16,11.61-7.15,2-14.31,4-21.95,3.63a19.4,19.4,0,0,1-12.53-5.21c-5.33-4.79-6.62-5-12.56-1.18-1.54,1-3,2.15-4.89,2.25-2.95-.75-4.52-3.94-7.67-4.33-1-.12-1.91-.65-2.88-.09,0,3.25,5.79,5.52,1.54,9.45-2.07.48-3.52,2.77-6,2-1.27-1.15-1.28-3-2.24-4.28a7.06,7.06,0,0,0-6.16-3.31c-3.06.13-1.11,3.34-2.58,4.51-6.53,1.37-11.77,5.3-17.18,8.83a44.42,44.42,0,0,1-14.67,6c-1.45.34-3,.64-4.18-.73-8.94-6.69-18.39-12.16-29.91-12.78-3.68.27-6.95-2.12-10.73-1.74,3.71,5.47,6.92,6.27,12.59,3.2,4.45,1.75,8.81,3.61,11.07,8.28-8.83,3.95-17.54,2.43-26-1.09a75.17,75.17,0,0,1-13.59-7.34c-12-8.29-23.67-7.2-35.27.69-4.8,3.27-9.52,6.69-14.42,9.8a16,16,0,0,1-10.32,2.83c2.82-6.95,8.33-10.51,14.14-13.6,5.41-2.88,11.27-4.84,16.33-8.5,7.5-5.41,8.85-9.95,4.8-18.36a24.89,24.89,0,0,1-2.11-4.51c-.48-1.94-.19-4.37,1.38-5.4s3.44.55,4.76,1.81c4.69,4.49,4.58,4.47,7.74-1.21,4.89-8.81,12.76-14.77,20.33-21,2.82-2.32,6-4.28,8.38-7,3.26-3.82,6.35-5.83,10.83-2.09.34,2-1.29,2.57-2.44,3.34-5.4,3.64-9.85,8.32-14.54,12.77-5.86,5.55-8.39,13-12,19.87a4.5,4.5,0,0,0,1.27,5.83,6.17,6.17,0,0,0,6.93,1.11c3.41-1.42,5.89-4.28,9.19-5.89a140.8,140.8,0,0,1,17.54-4c10.41,1.94,19.95-.72,29.07-5.54a93.71,93.71,0,0,1,12.21-5.42,18.33,18.33,0,0,1,5.06-.51c3.19.17,6.39-.19,9.57.27,10.67,5.24,22,3.68,31.92,3-4.2-.71-9.74-.28-15.25-.39a19.19,19.19,0,0,1-7.8-1.35c-1.22-.55-2.72-1.19-2.64-2.66.07-1.26,1.57-1.53,2.71-1.78.81-.18,1.57-.54,2.39-.7a25.2,25.2,0,0,1,6.37-.39c17.46-.05,34.92-.4,52.37,0a48.79,48.79,0,0,1,15.15,4.6c-.3,2-1.54,1.74-2.93,1.39,3.39,2.61,7.05,2.61,10.9.91,1.66-.72,3-2,4.89-2.37,14.85,1.33,29.53,4,44.32,5.77,9,1.11,18,2.59,27.08,3.62A49.63,49.63,0,0,1,346.1,192.94Z"/><path class="cls-2" d="M346.1,192.94c-5.59,1.16-11-.66-16.42-1.31-13.74-1.63-27.44-3.72-41.15-5.64-6.85-1-13.7-2-20.55-3-4,1.62-8,2.6-11.94-.05L242,179a20.64,20.64,0,0,0-10.92-2.65c-1.65,0-3.31.05-5,0-2.65-.14-5.62-.12-6.7-3.12-1.16-3.24,1.3-5.2,3.41-7.07,2.34-2.06,5.31-3.37,7.21-6,8.4-.72,16.92-.39,25.06-3.24,4.3-1.5,4,.93,3.21,3.93-.39,1.51-2.15,3.29-.71,4.61,1.68,1.55,3.51-.26,4.89-1.16,8.9-5.8,18.31-5,27.85-2.33,19.88,5.6,38.66,13.32,53.56,28.34C344.68,191.09,345.36,192,346.1,192.94Z"/><path class="cls-3" d="M156,183c-10.94,5.29-21.25,12.3-34.17,12.07A31.18,31.18,0,0,1,115,194c-1-4.62,1.34-8.35,3.36-12.12,2.5-4.68,5.83-8.88,8.15-13.67a15.62,15.62,0,0,0,2-7.13,8,8,0,0,1,3.59-5l8.93-3.16c.33-.12.7-.19.92,0,5.52,4.8,5.52,4.81,11.17.19,3,.18,5.83-.73,8.65-1.48,3.35-.89,6.42-.72,9.26,1.41-.41,2-2.14,2.81-3.66,3.74-2.39,1.47-4.78,2.93-7,4.61-5.74,4.33-7.19,9.23-5,16.08C155.87,179.22,157.47,180.93,156,183Z"/><path class="cls-4" d="M171,183l-10,0a1.89,1.89,0,0,1,0-.47c5.33-1.48,6.32-6.11,7.85-10.49.88-2.54,3.16-4.22,5-6.11,4.29-4.36,8.93-8.41,12.14-13.72,14.06.71,28.06,1.7,41.11,7.78a3.28,3.28,0,0,1-1.87,2.22c-7,3.43-13.41,8-20.24,11.83A39.12,39.12,0,0,1,188,179l-6,.08C177.75,178.74,174.78,182,171,183Z"/><path class="cls-5" d="M97,198a28.37,28.37,0,0,1-8.29,6.16c-3.57,1.73-6.4.56-9-1.95s-1.58-5-.47-7.75c6-14.93,16.86-25.57,29.8-34.45,3.34-1.84,6.66-1.08,10,.06a6.25,6.25,0,0,1,4.44,4.39c-.57,4.56-3.06,7.95-6.59,10.67-2.62,2-5.31,4-8,5.85A28.17,28.17,0,0,0,97,198Z"/><path class="cls-6" d="M186,152.16c.13,2.72-1.3,4.69-3.12,6.49-3.41,3.38-6.69,6.9-10.23,10.14a12.2,12.2,0,0,0-4.3,8.16c-.21,4.08-1.67,5.63-5.63,5.15-.52-.06-1.12.55-1.69.85l-5,0c-5-15.32-3.45-19.31,10.79-27.38,1.43-.81,2.8-1.72,4.2-2.59,3.06.33,5.92-.69,8.78-1.46C182,151,184,150.89,186,152.16Z"/><path class="cls-7" d="M188,179c14.82-2.63,25.83-13.08,39.05-19l2.92.18c1.24,2.18-.56,2.88-1.86,3.81-1.86,1.35-3.83,2.57-5.58,4.06-1.48,1.25-3.31,2.68-2.24,5,.88,1.86,2.85,2,4.71,2,3,0,6-.14,8.92,0,3.15.2,6.28.69,8,3.92Z"/><path class="cls-8" d="M109,224c11.53.38,20.92,5.91,29.9,12.42.56.4.84,1,.11,1.61l-17-3-11-8C109.57,226.53,108.47,225.83,109,224Z"/><path class="cls-9" d="M123,164a10.71,10.71,0,0,1-4-4c1.93-6.92,2.31-7.16,8.69-4.71a13.79,13.79,0,0,0,4.37.68c-1,1.65-1.29,3.77-3.09,4.93A5.2,5.2,0,0,1,123,164Z"/><path class="cls-10" d="M192,225c1.49-2.08.21-3.68-.87-5.38-1-1.51-1.77-3.11-2.69-4.74,5.73-1.54,8-.58,12.57,5.09A35.91,35.91,0,0,1,192,225Z"/><path class="cls-11" d="M175,224c.14-1.92-2.56-4.06.27-5.74,2.27-1.35,7.81.82,9.59,3.57A8.18,8.18,0,0,1,186,227Z"/><path class="cls-12" d="M153.08,153.08c-4,7.84-6.7,7.8-12.09-.2C145.12,146.93,149.08,151.14,153.08,153.08Z"/><path class="cls-13" d="M123,164l6-3.05c2.12,1.67.36,3.41-.13,4.91a43,43,0,0,1-5.92,10.76A51.12,51.12,0,0,0,115,194l-18,4c-.85-9.09,5.57-13.67,11.63-18.28C114.4,175.33,121,171.79,123,164Z"/><path class="cls-14" d="M171,183A11.23,11.23,0,0,1,182,179c-1,1.48-2.78.66-4.65,1.41,9.25,5.5,19.86-.29,29.55,5.14C194.12,186.71,182.25,189.42,171,183Z"/><path class="cls-15" d="M109,224l2.08,3c-1.83,4.13-5.12,3.41-8.3,2.29a13.24,13.24,0,0,1-3.6-2.55c-1.29-1.06-4.2-1.58-3.21-3.58,1.06-2.15,3.8-1.23,5.85-.68C104.16,223.09,106.4,224.28,109,224Z"/><path class="cls-16" d="M274.49,203.64c-10.22.78-15.58-1.06-19.78-6.34C262.05,196,267.89,198.75,274.49,203.64Z"/><path class="cls-17" d="M219.91,202c2.26.14,4.85,1.71,7.51,2.87,2.2,1,.83,1.95-.46,2.6-2.71,1.37-9.2-.38-10.83-2.88-.37-.56-.77-1.12-.21-1.74C216.79,201.85,218,202,219.91,202Z"/><path class="cls-18" d="M256,183,268,183c-5.76,5.48-11.73,5.67-16.21.5C253.09,182.52,254.63,183.23,256,183Z"/></svg>