<svg id="Layer_1" data-name="Layer 1" xmlns="http://www.w3.org/2000/svg" viewBox="0 0 360 360"><defs><style>.cls-1{fill:#ece1d0;}.cls-2{fill:#d9c6ab;}.cls-3{fill:#d3c0a7;}.cls-4{fill:#d9c5aa;}.cls-5{fill:#d2bea6;}.cls-6{fill:#f3eee5;}.cls-7{fill:#dfd5c5;}.cls-8{fill:#dccab2;}.cls-9{fill:#e2d6c7;}.cls-10{fill:#e4dac9;}</style></defs><title>Artboard 1</title><path class="cls-1" d="M187,172c7.93,2.32,16.13,3.62,23.88,6.75,9.51,3.85,16.81,9.83,21.12,19.24,4,5.64,5.46,12.34,7.93,18.61.39,3.41.35,6.89,1.63,10.16.47,1.2.87,2.85,2.44,2.66,1.73-.21,1.35-2,1.44-3.21a16.9,16.9,0,0,1,.13-2.46c1.85-3.57,0-6.55-1.41-9.69-1.16-2.53-3.46-5-1.17-8.08,6.37,3.12,9.5,9.1,12.84,14.81,2.94,5,5.58,10.21,8.19,15.41,3.73,7.39,10.32,10.2,17.91,10.68a79.2,79.2,0,0,0,16.4-.56A33.66,33.66,0,0,1,320,250c-4,2.3-9.12,1.09-13,4-9.71-.88-19.47-1.66-28.92-4.15-7.93-2.1-12.68-.12-16.05,7.45-1.22,2.73-2.4,5.49-3.81,8.12-.59,1.11-.5,3.39-2.78,2.68-1.6-.5-1.86-2.13-2.42-3.53-.83-2.05,2.55-5-.82-6.09-2.26-.74-4,2-6.07,3A34.12,34.12,0,0,1,231.79,265c-8.32,0-16.66-.31-25,.08-5,.23-6.77-1.37-5.73-6.18a2.93,2.93,0,0,1,2.78-.7c12.13,2.31,22.7-3.33,33.71-6.64a8.61,8.61,0,0,0,4-2.87c3.17-3.77,2-7.45-2.79-8.3-7.55-1.33-14.6-4.35-22-6.24a8.21,8.21,0,0,1-4-1.95c-1.06-9.21-1-9.06-10.64-8.48A37.75,37.75,0,0,1,186.28,221c-5.09-4.78-11.55-7.17-17.68-10.14-7.61-4.3-15.13-8.77-22.74-13.09a17.08,17.08,0,0,1-5.36-4.3,21.89,21.89,0,0,0-13.58-9.88,200.62,200.62,0,0,1-20-20.17c-2.59-3.06-5.48-5.81-8.3-8.64-9.74-9.79-19.44-19.64-29.33-29.29C60.34,116.78,52,107.5,44,98c7.86-7.16,14.7-5.62,22.59-.8,6.41,3.92,10.57,10.5,16.92,14.61,11.44,7.38,24.36,11.3,36.88,16.11,8.73,3.36,16.74,8,24.8,12.62a13,13,0,0,1,6.73,11c.31,5,3.19,7.8,7.12,10s8.38,3.37,10.35,8.05c.72,1.72,1.89.76,2.68-.19,1.25-1.51,1.91-3.55,4-4.34,2.86,2.82,4.08,6.64,6.08,10,.63,1.05.81,2.84,2.5,2.5,1.37-.27,1-1.85,1.25-2.92A3.81,3.81,0,0,1,187,172Z"/><path class="cls-2" d="M44,98c5.24,1.57,7.13,6.74,10.39,10.27,4.62,5,9.37,9.88,14.16,14.72,11.58,11.72,23.62,23,34.8,35.11,7.79,8.41,16.19,16.23,23.65,24.93-1.8,3.4-5.55,3.82-8.47,5.47A56.06,56.06,0,0,1,112,192c-4.48-2.53-8.94-5.08-13.43-7.57a10.86,10.86,0,0,1-5.51-6.75c-1.34-4.78-4.19-8.45-8.9-10.06C73.71,164,67.58,156.23,62.34,147c-5.47-9.67-12-18.72-17.74-28.25C40.62,112.1,38.19,105.07,44,98Z"/><path class="cls-3" d="M213.05,231.93q11.19,3.18,22.39,6.36a11.36,11.36,0,0,0,2.89.64c2.84,0,5.39.55,6.34,3.65,1,3.27-.49,5.8-2.77,8-2.76,2.66-6.42,3.28-9.9,4.29-7.43,2.14-14.5,5.67-22.58,5.25-2.85-.15-5.54-.87-8.32-1.2-1.07-1.2-2.27-.66-3.52-.34-2.07.53-3.43-.15-3.64-2.46-.72-1.33-.49-2.87-1-4.28-1.1-3.09-3-4.64-6.34-4-2.63.51-5.23.65-7.67-.79l-1.88-.16c-.15-2.78,2.16-3,3.93-3.67a34.23,34.23,0,0,1,9.76-1.82C199.32,240.88,206.85,238,213.05,231.93Z"/><path class="cls-4" d="M213.05,231.93c-3.56,7.08-10.13,9-17.22,10.07-5.22.79-10.53,1-15.59,2.77-1.29.44-2.58.72-3.19,2.11-5.76-.83-10.24-4-14.48-7.72-2.82-2.47-5.8-4.74-8.71-7.1,9.94-2.18,18.56-7.6,27.81-11.46a9,9,0,0,1,4.38-.67c6.49,1.53,12.87,2.95,19.74,2.21C213.54,221.3,215.5,224.38,213.05,231.93Z"/><path class="cls-4" d="M141.05,192.94c7.72,5.79,16.46,9.89,24.64,14.93,1.11.69,2.2,1.43,3.29,2.14-2.59,6.3-7.9,8.22-14,8.25-5.84,0-11.6.1-17,2.81A75.32,75.32,0,0,1,115.06,195C123.55,192,132.27,192.14,141.05,192.94Z"/><path class="cls-3" d="M138,221.07c2.12-2.91,5.11-4,8.56-4.06a47.86,47.86,0,0,1,6.45,0c6.73.73,11.66-2.46,16-7,6,2.81,12.73,4.29,17.07,9.92q-11.2,5.35-22.42,10.7c-3.1,1.47-6.44,1.46-9.77,1.43C148,229.23,141.3,227.57,138,221.07Z"/><path class="cls-5" d="M141.05,192.94c-.72.35-1.46,1-2.15,1-8-.62-15.87,1.22-23.84,1a7.28,7.28,0,0,1-3-3c1.51-3.73,5.54-3.73,8.33-5.57A64.42,64.42,0,0,1,127,183,16.47,16.47,0,0,1,141.05,192.94Z"/><path class="cls-6" d="M239,217c-2.36-6.33-5.42-12.4-7-19,7.48-2.92,10.36-.82,11,8-.43,4.14,2.35,7.13,3.8,10.6,1.1,2.63,2.58,5.28-.79,7.42C242.64,222.69,240.79,219.88,239,217Z"/><path class="cls-7" d="M187,172c-.55,2.59,1.59,6.54-1.85,7.53-3.94,1.13-3.39-3.53-4.84-5.62A25.72,25.72,0,0,1,176,165C181.55,164.38,184.87,167.25,187,172Z"/><path class="cls-8" d="M178.93,247a47.81,47.81,0,0,0,6.35-.33c6.78-1.25,8.67.18,8.72,6.94,0,.82,0,1.64-.06,2.46-1.22-3.39-3.36-5.18-7.21-5.53C184,250.33,180.66,250.1,178.93,247Z"/><path class="cls-9" d="M307,254c3.2-5,8.29-3.79,13-4,.39,3.72-1.05,5.18-5.24,4.94C312.17,254.8,309.6,254.31,307,254Z"/><path class="cls-10" d="M239,217a30,30,0,0,1,7,7,8.44,8.44,0,0,1,.6,1.34c.66,2.55.38,5.58-2,6.27-2.55.73-3.67-2.3-4.34-4.45A25.63,25.63,0,0,1,239,217Z"/></svg>