<svg id="Layer_1" data-name="Layer 1" xmlns="http://www.w3.org/2000/svg" viewBox="0 0 360 360"><defs><style>.cls-1{fill:#ece1d0;}.cls-2{fill:#d9c6ab;}.cls-3{fill:#dbc8af;}.cls-4{fill:#deceb7;}.cls-5{fill:#ddd0be;}.cls-6{fill:#d9c6ad;}.cls-7{fill:#d5c3ab;}.cls-8{fill:#efe6d8;}.cls-9{fill:#d2bfa7;}.cls-10{fill:#e1d8c7;}.cls-11{fill:#dac8ae;}.cls-12{fill:#f3eee6;}.cls-13{fill:#e0d6c5;}.cls-14{fill:#d3bfa6;}.cls-15{fill:#f6f2ec;}.cls-16{fill:#e2d3be;}.cls-17{fill:#d9c6ac;}.cls-18{fill:#d1bda4;}.cls-19{fill:#d1bea5;}.cls-20{fill:#e2d7c8;}.cls-21{fill:#e1d6c6;}.cls-22{fill:#deceb8;}</style></defs><title>Artboard 1</title><path class="cls-1" d="M131,227c4.5-10.49,13.61-13.7,23.86-14.9a90,90,0,0,1,9.44-.11c1,0,2.2.14,2.26-1.24,0-.88-.81-1.35-1.66-1.6a17.8,17.8,0,0,1-3.22-1.13,1.84,1.84,0,0,1-1.11-2c.25-1.06,1.23-.94,2-1a17.42,17.42,0,0,1,3,0c4.08.54,6.2-1.38,7.07-5.22.47-2,.42-4.35,2.34-5.83a5.9,5.9,0,0,1,4.16-1.36c9.11-.09,18.22-.06,26.72,0-3.56-.92-7.89-1.25-12.06-2.35-2.7-.71-5.57-1.29-6.84-4.32,4.25-8.8,7-18.58,15.42-24.73A15.26,15.26,0,0,1,205,160c1.54-1.75,3.58-2.11,5.78-2.35a110,110,0,0,0,15.63-2.47c2.4-.61,4.8-1.3,6.39-3.45a6.66,6.66,0,0,0,2.79-6.94c-.19-1.26-.64-2.63.47-3.76,9.24-2.12,18.9-1.92,28-5,3.4,1.18,7.53,1,9.43,5,.25,2.23-.23,4.44-.24,6.66-.77,5-3.85,8.64-7.57,11.73a31.16,31.16,0,0,0-7.53,9,100.75,100.75,0,0,1-7.77,10.94c-8.78,6.13-16,13.67-20.89,23.29a8.93,8.93,0,0,1-2,2.78,49.06,49.06,0,0,0-13.89,14.16c-9.1,7.12-18.38,14-28.1,20.26-4.28,2.63-8.94,4.56-13.33,7-22.67,12.15-45.78,23.48-68.23,36.06a109,109,0,0,1-17.27,7.7A45.9,45.9,0,0,0,71,299.27c-1.12,1-2.21,2.07-3.91,1.77-5.34-9.15.55-20.6,9.57-24.58,11.22-4.95,20.12-13.2,28.32-22.27,8.4-9.31,15.55-19.84,26-27.22,4,2.21,8,3.54,12.82,1.53C139.35,227.66,134.9,229.45,131,227Z"/><path class="cls-2" d="M67.09,301c6.52-6.79,15-9.94,23.52-13.41,16.61-6.78,31.68-16.63,47.74-24.55,11.28-5.56,22.44-11.37,33.65-17.07,4.34,1.56,5.11,5.2,5.27,9.15.13,3-.79,5.9-.2,8.87-6.88,5.8-15.07,10.15-20,18.07-2.72,1.11-3.42-1-4.31-2.72s-.66-3.89-1.88-5.69c-1.93,3.38-2,7.5-4.93,10.26-18.79,14.19-39.79,21.42-63.47,19.93C77.26,303.55,71.91,303.56,67.09,301Z"/><path class="cls-3" d="M227,204.94a62.43,62.43,0,0,1,20.74-25.05A9.78,9.78,0,0,1,250,179c3.42-1.4,5.61,1.14,8.16,2.53,2.73,4.69,2.8,4.7,7.08,1.18,2.14-1.77,4.27-3.55,6.44-5.29,1.42-1.14,3-2.79,5.05-.83,2,9.86-2.87,17.66-7.65,25.48,0,2,.09,4.1-1,5.94a2.09,2.09,0,0,1-1.9.28,9.25,9.25,0,0,0-9.36.75c-1.35-1.83-.77-3.81-.42-5.75.57-3.16,0-5.93-2.66-8-5.54-1.21-9.06,2.17-12.23,5.74-2.74,3.08-5.3,6.34-8.43,9-1.53,1.32-3.08,3.2-5.53,1.59A10.83,10.83,0,0,1,227,204.94Z"/><path class="cls-4" d="M228,212c4.75-2.26,7.9-6.27,11.11-10.21,3.85-4.71,7.93-9,14.89-7.79a3.17,3.17,0,0,1,.63,2.78c-4.95,7.23-12.58,11.55-18.89,17.3a13.27,13.27,0,0,0-4.17,5.95c-6.61,5.52-13.33,10.93-17.92,18.42-7,5.36-13.93,10.86-18.56,18.62-2.77,3.95-6.88,4.08-11.11,3.87-2.3-3.46.38-6.36,1-9.5,2.58-6.13,8.5-9.11,13-13.36,6.71-6.34,13.81-12.26,20.55-18.57C222.34,217.82,223.85,213.24,228,212Z"/><path class="cls-5" d="M269,202.06c1.19-3.07,2.2-6.24,3.6-9.21A32.09,32.09,0,0,0,276,176c-2.1-2.41-1.25-5.33-1.39-8.07-.34-5.21,1.37-10.4.13-15.65-.42-1.79-.6-3.6-2.7-4.27,0-2.38-.4-4.82,1-7,1.95-2.8,4.22-4.76,7.89-2.92,1.74,2.93,5.07,3.57,7.65,5.29,4.21,2.82,4.66,5.33.88,8.7-9.77,8.7-11.1,19.25-7.5,31.09a14.35,14.35,0,0,1-6.55,16.12C273.36,200.39,271.15,201.14,269,202.06Z"/><path class="cls-6" d="M231,220c-.81-4,2.32-5.3,4.71-7.29,6.17-5.15,12.2-10.47,18.29-15.71,1.93,2.7.05,5.07-.85,7.39-1.47,3.77-1.93,7.29.89,10.62-.42,5.41-3.8,9.05-7.76,12.06-3.51,2.66-7.44,4.76-11.18,7.11C230.1,230.51,230.52,225.26,231,220Z"/><path class="cls-7" d="M231,220c1.69,4.63,1,10,4.1,14.18-6.6,5.59-14,10-21.17,14.79-3.48,1-3.85-1.33-3.66-3.76.21-2.62,1.46-4.94,2.73-7.21A45.31,45.31,0,0,1,231,220Z"/><path class="cls-8" d="M280.89,138.08c-3.09-.29-5.26,1.94-7.89,2.92-2.18-3.15-7-1.55-9-5,13.62-1.77,17.3-13.49,23-23.12,2.65-4.49,4.35-9.56,8.55-13.17-.62,6.24-2.8,12-5.21,17.61C287.34,124.33,282.66,130.54,280.89,138.08Z"/><path class="cls-9" d="M186,251c.07,3.46-2.47,6.39-2,9.93L177.07,264c-2.4-.36-2.22-2-1.71-3.67,1.64-5.44.71-10.26-3.36-14.35,4-3,8.68-4.66,13-7,4.37-.92,4.09,2.11,3.75,4.71S186.68,248.48,186,251Z"/><path class="cls-10" d="M186.92,185.93c7.45,4.76,16.6,3.56,24.45,8.06H174.94C176.77,188.08,181.07,185.86,186.92,185.93Z"/><path class="cls-11" d="M213,238c.3,2.41-.63,4.59-1.43,6.75-.9,2.45-.33,3.88,2.36,4.22a119.24,119.24,0,0,1-18.84,8.1c1.19-6.21,6-9.74,10.26-13.62C207.64,241.35,210.43,239.8,213,238Z"/><path class="cls-12" d="M236,141c.56,2.35,1.33,4.67.94,7.14-.35,2.27-1.19,4.07-4,3.86a13,13,0,0,1-13-.08C221.68,143,229,142.21,236,141Z"/><path class="cls-13" d="M220,151.94l13,.08c1.18,3-1.7,2.8-3,3.34-5.8,2.51-12.13,2.7-18.28,3.53-2.27.31-4.54.62-6.78,1.1C207.68,153.06,213.6,152.09,220,151.94Z"/><path class="cls-14" d="M254,215c-3.46-.82-4-3-3.5-6.29.69-4.07,3.45-7.49,3.46-11.72v-3c3.76,2.28,4.73,5.67,3.56,9.68A20.87,20.87,0,0,0,257,209c.35.22.47.45.36.67s-.23.34-.35.34Z"/><path class="cls-15" d="M145.91,284l4.14-12.51c2.93,1.09,2.67,3.2,3.14,5.1.55,2.23.38,5.23,3.84,5.56-1,4-3.62,4.53-7.06,3.35C148.61,285,147.26,284.45,145.91,284Z"/><path class="cls-16" d="M257,210c0-.33,0-.67,0-1,1.05-3.37,2.93-4.68,6.37-2.79A36.54,36.54,0,0,0,268,208l-4.34,8.57C260.35,215.05,260.5,210.7,257,210Z"/><path class="cls-17" d="M272,148c2.7-2.92,3.37.12,3.57,1.59.5,3.79,1.91,7.53.52,11.53-.61,1.76-.12,3.9-.13,5.87-3.67,4.87-7.67,9.27-14.16,10.23-2-2.87-2.16-6.68-4.79-9.21a26.06,26.06,0,0,1,7.25-9C267.88,156.14,271.15,152.86,272,148Z"/><path class="cls-6" d="M186,251a13.4,13.4,0,0,1,1.41-7c1.15-2.4.83-4.51-2.42-5l28-20c2.11-.21,4.27-.74,6,1-7.91,9.35-17.94,16.41-26.8,24.74C190.06,246.77,188,248.83,186,251Z"/><path class="cls-18" d="M219,220c-2-.35-4.28.82-6-1a32.18,32.18,0,0,1,14-14c2,2.11.66,4.71,1.05,7.06C225.14,214.82,223.27,218.76,219,220Z"/><path class="cls-19" d="M257.05,168c5.14,1.07,3.93,5.64,4.95,9,.21,2.9-1.76,4.06-4,5l-8-3C251.61,174.88,254.9,171.81,257.05,168Z"/><path class="cls-20" d="M258.4,148.44c-3.72,4-10.1,4.75-13.84,1.8-.49-.38-1.31-.6-1-1.44a2.55,2.55,0,0,1,2.33-1.54,37.75,37.75,0,0,1,6.38,0C254.18,147.46,256.08,148,258.4,148.44Z"/><path class="cls-21" d="M131,227h16.73c-6,5.41-12.23,5.19-16.73,0Z"/><path class="cls-22" d="M258,182q2-2.49,4-5c5.38-2.33,9.35-6.64,14-10v9c-4.39,2-7.39,5.87-11.15,8.73-1.59,1.2-2.88,2.9-5.12,2S258.08,183.75,258,182Z"/></svg>