<svg id="Layer_1" data-name="Layer 1" xmlns="http://www.w3.org/2000/svg" viewBox="0 0 360 360"><defs><style>.cls-1{fill:#ece1d0;}.cls-2{fill:#d9c5aa;}.cls-3{fill:#d8c5ab;}.cls-4{fill:#d4c1a9;}.cls-5{fill:#f1e9de;}.cls-6{fill:#dccfbc;}.cls-7{fill:#e5d9c9;}</style></defs><title>Artboard 1</title><path class="cls-1" d="M149,186a110,110,0,0,0,40.08,5.76c8.79-.33,17.49-1.29,26.19.5A51.5,51.5,0,0,1,246,211.05a3.38,3.38,0,0,1,.37,4c-4.11,1.74-8.64,2.46-12.41,5.06-11.78,1-23.57.33-35.36.41-3.32,0-6.64-.08-10-.06-2.93.15-5.87.05-8.8-.07-11.71-1.8-22.92-5.56-34.19-9a337.1,337.1,0,0,1-57.25-23.15,13,13,0,0,1-3.32-2.17c3.62-5.45,9.24-6.37,14.55-4.5,10.5,3.7,21,4,31.86,2.81A18.58,18.58,0,0,1,142,186c2.67,3,4.66,6.78,9.31,8C151.87,190.83,148.2,189,149,186Z"/><path class="cls-2" d="M85.06,186.05c2.71-.29,4.73,1.4,6.92,2.5,27.69,13.92,56.92,23.47,87,30.5,3.15,3.14,2.43,6.19-.17,9.24-1.6,1.89-4,3.07-4.88,5.58-5.6-.51-10.07-4-15.14-5.89-13.66-5.11-27.9-8.48-41.42-14-9.92-4-18.53-10.25-27.23-16.3C86.25,195,84.22,191,85.06,186.05Z"/><path class="cls-3" d="M188,219.05l47-.09c3.31-.36,6.55-.6,7,4-13.41,17.77-31.79,22.61-53.72,14.15-2.76-1.07-5.56-2.06-8.34-3.09a1.83,1.83,0,0,1,1.18-.85c7.54-.24,11.1-5.14,13.46-11.48C192.7,220.11,189,222.87,188,219.05Z"/><path class="cls-4" d="M188,219.05c2.43,2.1,5.51.12,8.08,1.3-2.56,10.05-6.73,13.58-16.17,13.68l-6-.16c-2.36-1.68-.74-2.28.72-3.31,4-2.81,6.89-6.18,4.33-11.51Z"/><path class="cls-5" d="M246,215c0-1.31,0-2.63,0-3.94,5.92,2.3,11.28-.66,16.8-1.9,4.45-1,8.75-2.67,14.28-3.17-7,6.71-14.85,9.11-23.28,9.94-2.19.21-4,.25-3.83,3.11C247.57,218.72,247.45,216.21,246,215Z"/><path class="cls-6" d="M246,215c3.44-.72,2.55,2.78,3.95,4-1,5.56-2,6.07-8,3.94-1.2-3.32-4.71-2.6-7-4C237.61,214.75,241.87,215.05,246,215Z"/><path class="cls-7" d="M149,186c1.32,2.3,2.69,4.58,3.92,6.92.42.79,1.34,1.74.29,2.66-.72.62-1.57.22-2.33-.15-4.13-2-8.06-4.27-8.86-9.44C144.35,185.8,146.68,183.84,149,186Z"/></svg>