<svg id="Layer_1" data-name="Layer 1" xmlns="http://www.w3.org/2000/svg" viewBox="0 0 360 360"><defs><style>.cls-1{fill:#ece1d0;}.cls-2{fill:#d9c6ab;}.cls-3{fill:#d9c5aa;}.cls-4{fill:#deceb9;}.cls-5{fill:#d9c6ac;}.cls-6{fill:#d2bea5;}.cls-7{fill:#e2d7c6;}.cls-8{fill:#ded5c5;}.cls-9{fill:#eee5d5;}.cls-10{fill:#d3bfa6;}.cls-11{fill:#e1d7c6;}.cls-12{fill:#efe7db;}.cls-13{fill:#f8f4ee;}.cls-14{fill:#f0e8dd;}.cls-15{fill:#d3c0a7;}.cls-16{fill:#e5dbca;}.cls-17{fill:#f6f2ed;}.cls-18{fill:#e3d5c2;}.cls-19{fill:#d2bfa6;}.cls-20{fill:#d2c0aa;}</style></defs><title>Artboard 1</title><path class="cls-1" d="M98,211c-5.57.06-10.61-2.05-15.71-3.92-6.64-2.43-13.23-5-20.28-6.16-1-1.32-3.75.84-4-2,1.73-4,1.18-7.72-1.09-11.34a29.52,29.52,0,0,1-3.7-9.68,3.75,3.75,0,0,1,1.22-4.06c1-.71,2.18.37,3,1.1,3.12,2.75,5.65,1.63,8.14-1a35.44,35.44,0,0,0,5.55-8.18c2.4-4.54,4.71-9.12,7.3-13.55,5.26-9,13.17-13.14,23.64-12.17.23,1.67-1.12,2.3-2.14,3-11,8-17.47,19.36-23.43,31.12A15.64,15.64,0,0,0,74.94,179c-.73,4.72,3,7.75,7.42,5.88s7.81-5,11.7-7.53c5.67-1.13,10.44-4.16,15.25-7.13,2.2-.69,4.57-.42,6.75-1.23,4.76-2.06,9.69-3,14.81-1.86,3.76.86,3.67-2.26,4.73-4.24,3.13-2.88,7.35-2.75,11.08-4a139.48,139.48,0,0,1,15.85-4.06c3.49-.35,6.82-.09,9.93,1.87,2,1.3,4.41,1,7,.59-1.73-1.11-3.67-1.24-5-2.44-1.17-1-2.93-2.17-.46-3.75,13.86.25,27.45-2.4,41.16-3.63,24-2.16,47.83,1.46,71.71,2.82,6.83.39,13.67.27,20.49.13,7.38-.16,14.64.31,21.72,2.5,2.15,3-.69,4.25-2.28,5.52-3.94,3.16-8.73,4.82-13.39,6.51-20.31,7.36-41,13.32-62.39,16.79-3.59.58-7.32.23-11,.32-3.48.62-6.57-.86-9.59-2.11-8.51-3.54-16.82-7.64-26.43-7.24-.61-.27.26.87,0,.26-.08-.2.06-.25.44-.24,5.34.19,9.81,2.89,14.36,5.2,6.7,3.4,14,4.85,21.1,7-5.39,6.17-12.34,6.82-19.8,5.55-6.79-1.16-13.08-4.5-20.11-4.56a76.72,76.72,0,0,1-21.47-2.49c2,2.3,2,2.36,6.2,4.14,2.07.88,3.52,1.88,2.27,4.38-.86,3.76-3.67,4.77-7,5-5.79-4-11.69-7.83-19-9.34,2.87,3.2,5.57,6.28,9.76,7.5.79.23,1.47.76,1.2,1.81-2.64-.23-4.77.8-6.91,2.29-7.5,5.21-15.06,10.35-23.53,13.9C136.91,215.1,132.12,217,128,212c.44-1.33,1.59-2.67-.71-3.6-7.87-3.17-15.61-6.73-24.34-6.8-2.14.29-5.73-1.59-6.11.8-.45,2.75,3.45,2.59,5.64,3.36.77.27,1.6.34,2.4.58,1.29.74,3.7.59,3,3-.55,1.87-2.28,2.24-4,2.08C101.86,211.31,99.85,212,98,211Z"/><path class="cls-2" d="M329.1,152.92c-.26,1.91-1.24,2-2.79,1.23-4.31-2-8.91-2.34-13.6-2.17A314.42,314.42,0,0,1,271,150.75q-20.26-2-40.57-2.51c-11.66-.31-23.36,1.18-35,3.23-7.26,1.28-14.9.44-22.37.56-.64.3-1,.1-1.18-.6,1.28-2.07,3.41-1.66,5.34-1.84,5.63-.52,11.39,1.11,16.92-1.05a9.26,9.26,0,0,1,4.29-1.84c8.54-1.61,11-8.7,13.92-15.59a61.41,61.41,0,0,1-6.52.09c-1.19-.3-2.68-.21-2.74-2,17.61.66,35-2.43,52.65-2.4,19.2,0,37.56,3,55.16,10.73,3.48,1.53,7.09,2.78,10.61,4.23C326.46,143.77,328.93,147.57,329.1,152.92Z"/><path class="cls-3" d="M177,151c-1.68.24-3.6-.67-5,1-.55,5.42-4.76,2.85-7.52,3.45-4.95-3.17-6.16-8.59-3-13.68a57.36,57.36,0,0,1,3.67-4.72c3.75-4.9,3.77-4.89-1.18-8.07,8.61-5,17.71-4.57,27-2.47,4,.92,8.09,1.77,12.13,2.65.77,1,1.91.8,2.95.88-.46,6.72-4,12.25-7,18a6.72,6.72,0,0,0-4,1c-3.92.83-7.9.13-11.85.43C181,149.59,178.87,149.77,177,151Z"/><path class="cls-2" d="M94,178c-2.92,3.78-7.2,5.7-11.17,8-2.31,1.34-4.72,1.59-6.84-.54s-3.5-4.19-2.19-7.47C79.9,162.9,88.22,149.46,102,140.09L113,133c1.25,1.31.78,2.65.07,4,.09,1.39-.64,3,.91,4.05-1,3.61.44,7.31-.37,10.94-1.88,3.18-5.38,4.29-8.21,6.22-5.94,4-11.35,8.26-10.21,16.63A3.92,3.92,0,0,1,94,178Z"/><path class="cls-4" d="M136,163c0,6.25,0,6.32-6.09,5.13-4.88-1-9.34.79-13.9,1.9-.46-5.44,2.35-9.64,5.93-13,5.76-5.46,11.51-10.93,17.09-16.57a12.37,12.37,0,0,0,2.82-3.42c1.44-3.16.6-4.89-2.86-5.77-1.11-.28-2.33-.23-3.1-1.29,8.35-1.14,16.67-3.43,25.15-.82,1.29,2.52-.69,4.06-1.92,5.61a54.53,54.53,0,0,1-9.42,9.42C143.18,149.07,138.34,155.1,136,163Z"/><path class="cls-5" d="M135.89,129.94c2.79.62,6.84-1.6,7.89,3,.95,4.2-2.31,6.27-4.67,9.14-7.65,9.35-20,14.83-23.1,27.9-2.13,1.83-4.69.57-7,1-2.47-3.5-.62-6.59,1-9.63,1.85-3.47,4.61-6.44,5.66-10.35a8.49,8.49,0,0,1,3.64-5.21c3.28-2.12,4.53-5.16,4.58-8.89C127.1,133.23,130.61,130.06,135.89,129.94Z"/><path class="cls-6" d="M136,163c-1-5.94,2.88-9.87,6.31-13.62,4.24-4.63,9.17-8.63,13.76-13a16.82,16.82,0,0,0,5-7.3L164,129c2.15,0,4.63-.23,5.71,2,1.2,2.51-1.21,3.8-2.54,5.4s-2.42,3.13-3.69,4.65c-3.56,4.26-3.42,8,.57,13.94-.07.6-.71.62-1,1Z"/><path class="cls-7" d="M239.94,185c-7.47.74-13.95-2.51-20.45-5.36-5.43-2.39-10.64-5.28-16.4-7,6.85-1.4,13.22-.21,19.5,2.58,5.71,2.54,11.64,4.59,17.47,6.86Z"/><path class="cls-8" d="M103,201c2.16-2.39,4.43-.28,6.48.08,7.2,1.28,13.86,4.28,20.58,7.06.53.23,1.35.92,1.29,1.26-.32,1.77-2.18,1.77-3.34,2.59l-1,0a77.38,77.38,0,0,1-18.59-4.17C106,206,103,204.69,103,201Z"/><path class="cls-9" d="M58,199c.85,1.66,3.12.44,4,2-3.22-.29-5.69.46-7.44,3.65s-5.49,4.76-8.55,6.7c-4,2.53-8.48,4.27-12.5,6.92,3.24-8.06,9.87-12.42,17.21-16C53.09,201.07,55.54,200,58,199Z"/><path class="cls-10" d="M123.89,136.91c2.6,3.81.41,6.46-2.34,8.71-1.89,1.54-4.22,2.58-4.55,5.38-1,1.53-2.23,2.41-4,1,.62-3.61-3.33-7.64,1-10.92A46.15,46.15,0,0,1,123.89,136.91Z"/><path class="cls-11" d="M172,197c-6-1.39-9.55-5.94-13.16-10.53,8.07,1.49,15.86,3.47,21.15,10.56C177.32,198.93,174.66,198.13,172,197Z"/><path class="cls-12" d="M108.06,207c6.6.57,12.65,3.28,19,5-3.81-.12-7.45.08-10.71,2.66a4.29,4.29,0,0,1-4.63.73c-4.29-2.32-9-3.32-13.7-4.33,3.18-.51,7,1.38,9.47-2.18-.92-1.34-2.77-.41-3.45-1.82C105.34,205.75,106.7,206.19,108.06,207Z"/><path class="cls-13" d="M187,192c.17-2-.76-2.86-2.8-3.17-3.79-.57-6.51-2.85-9.1-7L200,186A17,17,0,0,0,187,192Z"/><path class="cls-14" d="M113.07,137c0-1.34,0-2.67-.07-4,0-2.27,1.84-3.39,3.23-4.69,1.11-1,2.5-2.79,4.1-1.11s.71,3.67-.58,4.88A65.3,65.3,0,0,1,113.07,137Z"/><path class="cls-15" d="M113,152a6.72,6.72,0,0,0,4-1c-.56,3.53-2.74,6.27-4.7,9-2.37,3.34-3.77,6.83-3.3,11a21.87,21.87,0,0,1-15,7c-2.38-11.9,5-17.9,13.9-23C109.62,154.07,111.3,153,113,152Z"/><path class="cls-16" d="M265,168.28c-8.24,3.9-15.11-.49-23.49-3.33C251.16,160.39,257.6,167.34,265,168.28Z"/><path class="cls-17" d="M108.06,207,104,207a12.44,12.44,0,0,1-7.91-2.36c-.88-.66-2.2-1.09-1.86-2.6s1.57-2,3-2c2-.08,4-.15,5.76,1Z"/><path class="cls-18" d="M163,156l1-1c3,0,6.34.67,8-3l1,0c2,3.58,6.53,2.64,9.63,5.39-4.53,1.82-8.46,2.93-12.47-.54C168.13,155.11,165.4,156.29,163,156Z"/><path class="cls-19" d="M199,148c1.19-6.43,4.6-12,7-18,8.08-.07,8.1-.06,5.05,7.17C208.75,142.69,205,146.64,199,148Z"/><path class="cls-20" d="M177,151c5.5-5.23,11.82-3,18-2-.33,2.41-2.2,2-3.78,2C186.48,151,181.74,151,177,151Z"/></svg>