<svg id="Layer_1" data-name="Layer 1" xmlns="http://www.w3.org/2000/svg" viewBox="0 0 360 360"><defs><style>.cls-1{fill:#ece0d0;}.cls-2{fill:#d9c6ac;}.cls-3{fill:#d9c6ab;}.cls-4{fill:#dbc9af;}.cls-5{fill:#d3bfa5;}.cls-6{fill:#d2bea4;}.cls-7{fill:#d1bea6;}.cls-8{fill:#e5d9c9;}.cls-9{fill:#e3d8c8;}.cls-10{fill:#e1d9c9;}.cls-11{fill:#f0e6d8;}</style></defs><title>Artboard 1</title><path class="cls-1" d="M175,170.91c7.36.6,14.82-.86,22.11,1.09,3.18.85,6.37,1.67,8.91,3.95,1.26,6.46,2.54,7.74,9,9,1,4.66,3.88,6.92,8.64,8,7.85,1.71,11.62,8.34,15.5,14.55,3.25,5.2,5.81,10.83,9.81,15.55,6.86,1.17,13.77.16,20.65.53,3.09.17,6.23-.58,9.28.49v3c-7.19,1.1-14.42.19-21.63.52-2.76.13-5.58-.52-8.29.47a10.9,10.9,0,0,0-3,8.65,11.82,11.82,0,0,1-1.38,7.23c-.86,1.38-1.34,3.3-3.52,2.92-2-.35-2.41-2.18-2.89-3.73-.55-1.78.4-4.55-2.39-4.81s-3.8,2.25-5,4.24c-.75,1.27-1.17,2.78-2.68,3.48a2.86,2.86,0,0,1-2.83.16c-1.15-.65-1-1.48-.66-2.53.68-1.94.42-3.62-1.66-4.61-.79-2.85,1.4-4.06,3.09-5.47,2.55-2.11,2.42-4-.27-5.8-5.32-4.88-12.13-5.72-18.78-7-2.48-4.3-6.83-4.62-11.09-5.49-6.34-1.29-12.14-4.38-18.4-6-3.39-1.41-6.77-2.88-10.47-3.34-5.62-.72-9.66-4.79-14.6-7-6.15-2.74-12.74-4.52-18.47-8.22a22.12,22.12,0,0,0-11.11-8.11c-4.75-6.17-11-10.5-17.54-14.56-9.37-5.85-17.28-13.46-25.41-20.82C69.09,137.37,58.69,127,45,121c0-4.21,5.5-7.71,10.66-6.67,9.32,1.87,17.76,6.23,26.47,9.77,12.58,5.11,25,10.64,37.39,16.16,1.84.82,4.07,0,5.58,1.67-1.49,6.18,2.21,10.14,6,14.48.49-4.22-2.25-7.67-1-11.51,5.36,1.2,9.44,3.64,12.37,8.82,5.24,9.28,14.94,11.34,24.47,13.22,1.12.22,2.35-.05,3.2,1,0,4.91,2.91,8,6.53,11C176.46,176.07,173.74,173.87,175,170.91Z"/><path class="cls-2" d="M45,121c1.5-1.82,2.75-.12,3.89.43,7.67,3.71,14.3,9,20.58,14.59,14.68,13.1,28.66,27,45.76,37.14A19,19,0,0,1,123,182c-.83,6.48-5.66,8.11-11,9.06-15.89-8.36-31.2-17.64-43.8-30.63C57.29,149.23,49.17,136.24,45,121Z"/><path class="cls-3" d="M178,208.07l19.35,6.18a14.61,14.61,0,0,0,1.4.5c2.48.52,7.36,3.58,8.3,5.23-4.86,3.55-10.61,5.14-16.15,7.18-3.84,1.41-7.69,2.75-11.06,5.24,1.31,1.09,3.91-.21,4.14,2.48C169.73,235.35,158,229.76,148,220c2.07-1.74,4.5-.5,6.73-.7C164,218.47,171.52,214.47,178,208.07Z"/><path class="cls-3" d="M134.07,190c9.12,4.05,18.89,6.67,27.21,12.52,1.67,1.17,3.83,1.67,5.76,2.48-9.8,3.22-18.83,8.46-28.95,10.83-9.54-5.32-16.73-13.14-23.14-21.79A30.65,30.65,0,0,1,134.07,190Z"/><path class="cls-4" d="M226.94,227.06c3.66,2.34,3.58,4.88.12,7.18A10,10,0,0,0,223,239c-9.36,7.42-19.93,6.74-30.73,4.61a32.77,32.77,0,0,0-3.41-.57c-7.81-.74-8.14-1.41-3.91-8a3.39,3.39,0,0,1,2.61-1.25c8.93-.25,17.3-3,25.67-5.75A28.93,28.93,0,0,1,226.94,227.06Z"/><path class="cls-5" d="M226.94,227.06c-14.36.77-27.29,9.09-42,8a4.56,4.56,0,0,1-1-.15c-2.09-1.91-4.85-.11-7.76-1.61,9.56-6.82,20.5-9.39,30.83-13.29C214.49,220,221.26,222,226.94,227.06Z"/><path class="cls-6" d="M138.09,215.81c9.38-4.33,18.38-9.67,28.95-10.83,4.07-.49,7.38,1.73,10.94,3.09-3.87,7.77-11.27,10.1-18.85,11.79-3.58.8-7.39,1.53-11.1.13Z"/><path class="cls-7" d="M134.07,190,115,194l-3-3c4-2.59,9.13-3.88,11-9.06C128.12,182.68,132.06,185,134.07,190Z"/><path class="cls-8" d="M130,144.93c1.08,4.27,2.15,8.53,3.29,13-5.28-1.58-10.6-9-10.3-13.73a2.1,2.1,0,0,1,2-2.29C127.43,141.77,129,143,130,144.93Z"/><path class="cls-9" d="M175,170.91c1.18,3.16,2.37,6.31,3.8,10.14-6.43-2.13-8.56-6.88-10.42-11.78-.39-1,.88-1.12,1.65-1.31C172.42,167.77,174,169,175,170.91Z"/><path class="cls-10" d="M215.05,185c-3.15,2.49-5.34.12-7.23-1.77s-4.26-4.08-1.77-7.23A17.21,17.21,0,0,1,215.05,185Z"/><path class="cls-11" d="M278.93,224c-8.43,0-16.86,0-25.29,0-1.58,0-3.35.55-4.64-1,8.43,0,16.87,0,25.3.05C275.87,223.06,277.65,222.44,278.93,224Z"/><path class="cls-11" d="M249,228c2.34-1.91,5.09-.87,7.62-.92,7.43-.16,14.87-.06,22.3-.07-2,1.89-4.41.91-6.61.94C264.55,228.06,256.78,228,249,228Z"/></svg>