<svg id="Layer_1" data-name="Layer 1" xmlns="http://www.w3.org/2000/svg" viewBox="0 0 360 360"><defs><style>.cls-1{fill:#ece0d0;}.cls-2{fill:#dac7ac;}.cls-3{fill:#d6c3a9;}.cls-4{fill:#dac7ad;}.cls-5{fill:#d9c5aa;}.cls-6{fill:#d1bda4;}.cls-7{fill:#ddd0bb;}.cls-8{fill:#e0cfb8;}.cls-9{fill:#e4d9c9;}.cls-10{fill:#f0e7d7;}.cls-11{fill:#d3c1a8;}.cls-12{fill:#e4dac9;}</style></defs><title>Artboard 1</title><path class="cls-1" d="M145,201.07a15.5,15.5,0,0,1,10.2,4.9c7,7.19,15.79,8.22,25.19,6.35,1.32-.26,2.61-.62,3.63.66.43,2.7,0,5.65,2.25,7.82,1.08,1,2.34,2.25,3.85,1.45,1.68-.89.3-2.28,0-3.44-.24-.94-.72-1.85-.12-2.81,18.93-6.74,35.25-1.58,49.64,11.27,4.92,4.4,10,8.85,13.36,14.73a3.6,3.6,0,0,1-3.11,1.25c-4.7-.36-8.66,1.62-12.6,3.77a113.85,113.85,0,0,1-23.85,0c-7.54-4.81-16-3.39-24.25-3.64-1.83-.06-3.66,0-5.48,0-6.52-.65-12.36-3.62-18.55-5.4-1.75-.51-3.47-1.11-5.26-1.46-1.52-.22-3.07-.2-4.57-.57-5.74-1.31-10.94-4-16.15-6.54C119.72,220,100,211.17,80.57,201.64c-1.86-.92-3.63-1.7-5.65-.57-1.27-4.59,3.1-8.75,9.11-7.94,15.07,2,30.2,3.61,45.17,6.38,4.22.78,8.53,1.05,12.8,1.56,3.95,9.8,4.74,10.72,12.63,14.11-2.82-3.78-5.1-6.9-7.54-9.91C146.09,204,144.45,203.09,145,201.07Z"/><path class="cls-2" d="M74.92,201.07c0-2.5.78-3.25,3.26-2,5.79,2.87,11.67,5.55,17.51,8.3q27,12.74,53.92,25.46c1.76.83,3.61,1.45,5.42,2.17-4.51,2.36-8.63,5.35-13,7.92-16.93-3.48-33-9-46.82-19.79A144.41,144.41,0,0,1,78.64,208,14.43,14.43,0,0,1,74.92,201.07Z"/><path class="cls-3" d="M213,246l25,0c4.13,2,4.13,4.28,0,8a37.72,37.72,0,0,1-7,7c-9.27,6-18.58,3.61-27.9.18-1-2.45,1.22-3.56,2.28-5.07a69.59,69.59,0,0,0,3.78-7C210,247.58,210.54,245.54,213,246Z"/><path class="cls-4" d="M213,246c-2.4,1.3-2.91,3.84-3.86,6-1.38,3.22-3.1,6.09-6.15,8-1.67,5.1-2.32,5.34-11.05,4-6-.36-11.48-1.95-16.13-5.91,1-1.81,2.89-2,4.62-2.43a15.23,15.23,0,0,0,11.69-11.13c-3-.89-6.26.55-9-1.19A.92.92,0,0,1,183,242c6.26,0,12.52.07,18.78-.07C206.11,241.86,209.9,242.9,213,246Z"/><path class="cls-5" d="M183,242v1c-4.88,4.78-9.08,10.28-15,14-7.41-2.29-14.42-5.32-20-11,1.76-6.07,7.58-7.71,11.94-10.94C167.8,236.89,175.07,240.55,183,242Z"/><path class="cls-6" d="M168,257c4.74-4.93,8.67-10.72,15-14a50.63,50.63,0,0,0,7-.05c4-.53,3.68,1.94,2.8,4.13-2.1,5.25-6.17,8.48-11.64,9.89-1.75.45-3.54.77-5.31,1.15Z"/><path class="cls-7" d="M238,254c.93-2.69,4.11-5.37,0-8,4-5.09,9.71-3.79,15-4l0,0c1.56,3.68.34,7.36,0,11-1.67,4.42-5.25,3.08-8.37,2.62C242.41,255.31,240.39,253.88,238,254Z"/><path class="cls-8" d="M192,264c4.17,0,8.66.88,11.05-4,9.22,3.47,18.53,4.33,28,1-6.36,8.14-12,10.32-21.24,6.66C203.91,265.34,197.81,265.56,192,264Z"/><path class="cls-9" d="M145,201.07l10.53,13c.5.61,1.33,1.13,1,2.08-.25.75-.93.74-1.62.69-6.44-.51-13.34-8.9-12.92-15.75Z"/><path class="cls-10" d="M253,253c0-3.68,0-7.36,0-11,2.63-.95,5.33-1.77,7.9-2.88,4-1.73,7.64-.83,11.92,1-4.09,3.09-8.59,3.36-12.75,4.3-4,.89-7,2-6.2,7C254,251.83,253.34,252.45,253,253Z"/><path class="cls-11" d="M160,235c-3,4.73-9.12,6-11.94,10.94l-6-3.08c3.39-4.18,7.37-7.41,13-7.92Z"/><path class="cls-12" d="M190,216a29.19,29.19,0,0,1,1.53,3.13c.52,1.43,2.49,3.07.58,4.37a4.45,4.45,0,0,1-5.55-.55c-3-2.73-4.91-5.83-2.54-10Z"/></svg>