<svg id="Layer_1" data-name="Layer 1" xmlns="http://www.w3.org/2000/svg" viewBox="0 0 360 360"><defs><style>.cls-1{fill:#ece1d0;}.cls-2{fill:#d9c6ab;}.cls-3{fill:#d9c6ac;}.cls-4{fill:#d9c5aa;}.cls-5{fill:#d8c5aa;}.cls-6{fill:#d2bfa6;}.cls-7{fill:#e5dccd;}.cls-8{fill:#f5efe7;}.cls-9{fill:#efe6d9;}.cls-10{fill:#e2d7c7;}.cls-11{fill:#e1d7c6;}.cls-12{fill:#cfbca4;}.cls-13{fill:#e1d5c5;}</style></defs><title>Artboard 1</title><path class="cls-1" d="M21,264c-5.77-9.06-2.14-15.73,4.94-20.89C38.47,234,52.21,227,66,220c4.61,2.13,9.27,3.57,13.85,1.19C75.44,221,70.57,222.32,66,220c6.26-10.16,14.24-18.28,26-22a2.81,2.81,0,0,1,1.94,0,39.26,39.26,0,0,0,25.51.23c-6.39.46-14.48.13-22.57.1A8.41,8.41,0,0,1,92.1,197c5.43-8.29,13.61-10.88,23-11,2,0,4,0,5.94,0,7.88,2.65,14.92,0,22-3.27A18.8,18.8,0,0,1,154.8,181C151,176.9,145,177.2,140,175c-4.37-3.28-2.2-5.72,1-8,5.52,3.22,11.5,3.94,17.79,3.7,4.22-.16,8.54-.61,11.82.5-3-.86-7.12-1.27-11.1-2.13-3-.65-6.91-.56-7.5-5,4.94-3.36,7.9-8.29,10.71-13.36,2.55-4.61,6-8.22,11.32-9.6,14.72-1.1,29.45-.24,44.17-.52a10.56,10.56,0,0,0,1.49,0c2.83-.38,7.12,1.37,8.07-1.79,1-3.48-4.29-2.5-5.82-4.76-3-3.92-7.51-3.74-11.73-3.89-3.63-.13-7.15-.26-10.25-2.73,10.67.28,20.79-2.75,31.14-4.23A28.44,28.44,0,0,1,248,126c1.65.49,3.63-.77,5,1l12.3,14.84c.81,1,2.19,1.91.79,3.34a3,3,0,0,1-3.69.41c-1-.51-1.93-1.29-3-1.79-3-1.46-4.81-.3-4.27,2.86,1.73,10-2.09,18.79-5.85,27.6-1.81,4.26-4,8.4-5.39,12.8s-3.48,6.15-7.94,4.16a5.72,5.72,0,0,0-2-.13c-.76-2.15.94-3.39,1.9-4.81,7.89-11.58,10-24.29,7.64-37.93-.27-1.54-.71-3-2.36-3.48-2.19-.68-3.92.35-5.28,1.91-3,3.49-6.06,7-9.14,10.47-3.36,2.55-7,4.76-10.22,7.47q-12.12,10.65-23.35,22.21a15.87,15.87,0,0,1-5.17,3.79c-6.29,1.55-10,6.41-14,10.94-9.45,3.87-17.84,9.56-26.2,15.3-4.45,1.81-9.18,2.75-13.72,4.28A461.19,461.19,0,0,1,77.53,243C62.17,247.85,47,253.24,31.17,256.55,26.42,257.55,24.2,261.24,21,264Z"/><path class="cls-2" d="M21,264c1.14-5,4.56-7.39,9.26-8.61,35-9.07,69.5-19.55,102.27-35.08A5.89,5.89,0,0,1,134,220c2.69.94,3.21,3.07,3,5.56a34,34,0,0,1-.88,4.36c-1.12,5.34-.47,6.18,5.22,6.74,1.37.07,2.72.19,3.7,1.34-19.51,4.71-36.19,16.16-54.84,22.91-10.19,3.69-20.5,6.58-31.48,6.13C48,266.63,37.17,268,26.46,266,24.53,265.65,22.52,265.51,21,264Z"/><path class="cls-3" d="M188,190c5.13-4.94,10.21-9.94,15.42-14.8,4.11-3.84,8.38-7.5,12.58-11.24,5.66,7.21,5.05,15,2,22.94a36.19,36.19,0,0,1-2.62,5.34,11.51,11.51,0,0,0-.29,11.81c-3.19,9.51-10.63,13.78-19.77,15.84-2.39.55-4.86.73-7.29,1.08.82-4.35,3.39-8.15,3.67-12.73A35,35,0,0,0,188,190Z"/><path class="cls-4" d="M145.06,238,141,238c-1.7-2-1.5-4.4-.83-6.63,1.68-5.57,3.92-10.91,7.85-15.36,7.86-6.4,16.17-12,26-15,4.29,2.26,5.36,6,4.65,10.44-.58,3.67-2.43,6.85-4,10.13-1.32,2.67-2.83,5.28-2.6,8.43C163.54,234.41,154.66,237.42,145.06,238Z"/><path class="cls-5" d="M225.94,157c3-3.74,5.89-7.54,9-11.2,1.81-2.16,4.26-3.37,7.09-2.51s2.72,3.55,3.11,6.09c1.77,11.63.51,22.72-5.33,33.07-1.7,3-3.8,5.78-5.71,8.67-.53,1-1,2.07-1.6,3.09-3.59,6.48-6.14,7.23-13.43,4-.35-6.09,1.67-11.75,3.59-17.33,1-3,2.5-2.53,5.53,1.81C229.71,173.77,230.32,165.16,225.94,157Z"/><path class="cls-6" d="M172,230c-3.21-.52-1.31-2.62-.86-3.71,1.42-3.51,3.16-6.9,4.87-10.3,2.75-5.48,1.94-10.44-2-15,3.18-5.55,7.11-10.13,14-11,.58.26,1.42.35,1.71.8,4.67,7.19,5,24.05-1.67,30.17Z"/><path class="cls-7" d="M221.94,134c2.16,0,4.35-.15,6.27,1.15,1.38.94,3,1.88,2.54,3.86a3.9,3.9,0,0,1-4.09,3c-3.32,0-6.65,0-10,0-12.48,0-25,0-37.45,0-1.75,0-3.7.66-5.2-.92,8.38-8.32,18.56-8.93,29.54-7.49C209.6,134.35,215.81,133.88,221.94,134Z"/><path class="cls-6" d="M225.94,157c5.31,3.94,4.77,10,4.78,15.36,0,3.19-.66,6.54-.75,9.85,0,1.2.67,3.08-1.15,3.31-1.34.18-2.25-1.22-2.67-2.57-.32-1.06,0-2.39-1.78-3.41-2.91,6-2.51,12.85-5.34,18.68l-4,5.86c-4.76-2.33-3.42-6.2-2.13-9.7,1.36-3.7,3.68-7.06,4.89-10.79,1.81-5.63,1.85-11.34-1.33-16.72a8.53,8.53,0,0,1-.53-2.88A39.56,39.56,0,0,1,225.94,157Z"/><path class="cls-8" d="M140,175c7-.48,12.94,1.6,18.32,8.09-8.78-2.91-15.27.89-21.84,3.76C131,189.24,126,189.31,121,186A29.11,29.11,0,0,1,135.56,178C137.32,177.52,139.1,176.9,140,175Z"/><path class="cls-9" d="M253,127c-1.7-.21-3.61.68-5-1,4.89-4,7.24-9.8,10.41-15,3.56-5.82,7.45-11.26,13.93-16.35-2.74,10.21-6.71,18.34-12.9,25.36C257.36,122.41,255.18,124.67,253,127Z"/><path class="cls-10" d="M152,164c2.28,3.18,5.77,3.68,9.22,3.94A29.3,29.3,0,0,1,173,171.52c-8.78-.06-17.56,1.66-26.23-.53-2.25-.57-5-1-5.73-4C143.78,162.73,148.15,164.32,152,164Z"/><path class="cls-11" d="M92.1,197H126c-11.28,4.1-22.55,7.58-34,.94A5,5,0,0,1,92.1,197Z"/><path class="cls-12" d="M148,216c-.57,3.19-2.41,5.83-3.87,8.61-2.2,4.23-3.61,8.57-3.15,13.39-6.82-.13-7.72-1.37-6.11-8.19.78-3.33,2.34-6.78-.86-9.78Z"/><path class="cls-13" d="M66,220H82.86c-4,5.08-12.71,5.19-16.89,0Z"/></svg>