<svg id="Layer_1" data-name="Layer 1" xmlns="http://www.w3.org/2000/svg" viewBox="0 0 360 360"><defs><style>.cls-1{fill:#ece0d0;}.cls-2{fill:#d9c6ac;}.cls-3{fill:#d9c5aa;}.cls-4{fill:#d3bfa5;}.cls-5{fill:#d1bda4;}.cls-6{fill:#dfceb8;}.cls-7{fill:#efe7da;}.cls-8{fill:#e1d8c7;}.cls-9{fill:#d1bda3;}.cls-10{fill:#e5daca;}.cls-11{fill:#e6dbcb;}</style></defs><title>Artboard 1</title><path class="cls-1" d="M48.13,200.09c4.53-9.58,12-14,21.07-10.92,12.29,4.13,24.32,2.49,36.17-.61,14.82-3.87,29.39-2.89,44.17-.31,8.53,1.48,17.18.63,25.82.24,9.17-.42,17.58-3,25.82-6.67,3.48-1.56,7.23-.63,10.86-.75,5.44,3.76,11.32,6.38,18,6.88,16.27,1.18,32,4.14,45,15.05a1.86,1.86,0,0,1,1,1c4.11,15.64-2.37,23.32-18.89,25.11a3.45,3.45,0,0,1-1.23-2.86c.13-3.13,1.85-5.94,1.74-9.13s-1.57-4.83-5-4.12-6.54,2.22-10,2.35c-12.09-1-23.35,2.61-34.64,6.13a56.35,56.35,0,0,1-7.28,1.76,76.13,76.13,0,0,1-10.89.21c-7.52.23-15,.13-22.56.1-6.13-.36-12.28.5-18.4-.36-30.54-6.83-61.18-13.27-91.74-20C54,202.49,50.82,201.93,48.13,200.09Z"/><path class="cls-2" d="M48.13,200.09c10.64,1.45,21,4.42,31.43,6.64q33.64,7.11,67.25,14.43c.44.09.8.55,1.19.84,2.76,4.66-2.06,6.25-4,9.7,4.16.22,7.38-1.59,10.62-3.28,4.09-2.15,7.62-5.35,12.3-6.36l23,0c1.5,5.17-2,8.5-4.81,11.73A107.6,107.6,0,0,1,175,244c-11.4-2.08-22.66-4.34-33.41-9.16-4.57-2-10.4-1.45-15.67-1.73-16.68-.9-33-3.7-48.32-10.44-10.18-4.48-20-9.73-27.2-18.71A32.37,32.37,0,0,1,48.13,200.09Z"/><path class="cls-3" d="M201,222c13.79-3.7,27.16-9.69,42-7.94-.45,3.17-3.33,4.31-5.31,6.11a79.89,79.89,0,0,1-8.8,6.46c-6.06,4.18-8.74,10.08-8.89,17.3-11,3.56-22,2.64-33,.08-.33-2,1.37-2.48,2.52-3.23,6.06-3.93,11.33-8.29,10.41-16.6A3.07,3.07,0,0,1,201,222Z"/><path class="cls-4" d="M220,243.93c-2.62-7.77,1.52-13.32,8.24-18.32,5-3.74,10-7.46,14.76-11.55,3.2-.8,6.4-1.63,9.61-2.4,4.72-1.12,6.27.24,6.46,5.15.13,3.3-1.5,6.09-2.12,9.15-5.75,5.73-11.42,11.54-18.94,15l-1.93.05c-.14.09-.31.27-.41.23-5.17-1.92-9.85-1.47-13.75,2.81Z"/><path class="cls-5" d="M201,222c2.32,11.78-5.81,16.92-14,22L175,244c.94-3.35,3.58-5.38,6-7.54,4.41-3.93,7.85-8.42,9-14.37Z"/><path class="cls-6" d="M238,241c6.35-5,12-10.87,18.94-15l.15,3.14c-1.69,2.47-3.39,4.93-5.07,7.4C248,242.36,245,243.34,238,241Z"/><path class="cls-7" d="M276,204l-1-1c6.7-5.72,14.53-9,23.81-11.07C293,200.53,284.79,202.83,276,204Z"/><path class="cls-6" d="M221.91,244.09a14.58,14.58,0,0,0,1.7-2.35c1.74-3.82,4.29-4.6,7.93-2.52a33.77,33.77,0,0,0,4.53,1.83,22.91,22.91,0,0,0-2.28,1.87C228.73,248.28,228,248.36,221.91,244.09Z"/><path class="cls-8" d="M230,188c-5.39,1.86-13.37-1.19-18-6.88C219.1,180.6,225.51,181.83,230,188Z"/><path class="cls-9" d="M167,222.06c-5.35,3.52-10.57,7.24-16.51,9.8a16.36,16.36,0,0,1-8.86.9c1.67-4.1,7.37-5.51,6.41-10.76Z"/><path class="cls-10" d="M152.24,200.17c-9.88,1.24-12.62-.24-16.48-8.75C142.33,193.32,146.79,197.7,152.24,200.17Z"/><path class="cls-11" d="M103.67,198.78c5.29-2.77,9.33-2.1,13.27.2.93.55,2.69.72,2.43,2.06-.33,1.7-2.16,2-3.61,1.89C111.81,202.5,108.37,200.52,103.67,198.78Z"/></svg>