<svg id="Layer_1" data-name="Layer 1" xmlns="http://www.w3.org/2000/svg" viewBox="0 0 360 360"><defs><style>.cls-1{fill:#ece1d0;}.cls-2{fill:#d9c5ab;}.cls-3{fill:#d9c6ab;}.cls-4{fill:#d2bea5;}.cls-5{fill:#d2c0a7;}.cls-6{fill:#d3c0a8;}.cls-7{fill:#ddd4c5;}.cls-8{fill:#f9f6f2;}.cls-9{fill:#e0d5c4;}.cls-10{fill:#dfd4c4;}.cls-11{fill:#dfd1bf;}.cls-12{fill:#e3daca;}.cls-13{fill:#e4d8c7;}.cls-14{fill:#c7b59d;}.cls-15{fill:#f0e7d9;}.cls-16{fill:#f6f2ec;}.cls-17{fill:#e3d8c8;}.cls-18{fill:#e8e0d1;}</style></defs><title>Artboard 1</title><path class="cls-1" d="M28.93,290c-4.75-8.81-.2-18.8,8.44-24.16,12.15-7.53,23.67-15.78,33.5-26.25a161.38,161.38,0,0,0,15.7-19.16A39.11,39.11,0,0,1,101,208c10-1.63,20.32-1.22,29.78-5.49-2.45,1.25-5.13.93-7.73.87-6.51-.15-12.92.1-18.73,3.6a2.61,2.61,0,0,1-3.23.07c1.34-9,8.23-16.12,18.34-17.83A56.86,56.86,0,0,0,149,175c3.71-1.94,7.78-.86,11.66-1.29a35.27,35.27,0,0,0,11.64-3c-5.15-.63-9.61-.05-14-.44-5.57-.51-8.33-4.05-7.35-9.25,1.5-2.88,4.29-3.4,7.1-3.91,5.64,4.38,6.46,4.43,12.11.78-.78-2-4.42-.91-4.19-4,7.54-10.89,11.77-23.74,20.15-34.14,1.15-1.43,2.19-2.94,4-3.66,7.86,2.57,15.53,1.8,23.13-1.22,4.11-1.63,8.06-3.81,12.59-4.19,3.64-.1,7.28,0,10.91-.08,3.83-.12,6.77-1.48,7.66-5.6-2.05-3.9-5.31-2.84-8.43-2-1.93.52-3.28,2-4.79,3.26-3.81.19-6.27,3.78-10.08,4-3.87,0-7.82.47-11.1-2.31,4.82-10.53,14.15-13.18,24.5-14,8.24-.62,16.58-.54,24.48-3.51,13.58-5.09,21.6-15.49,26.87-28.42,1.43-3.51,2.42-7.21,3.6-10.83.26-.79.46-1.6.74-2.38.87-2.32,2.75-4.78,4.83-4.15s2.3,3.76,1.82,6.11a44.07,44.07,0,0,1-6.94,16.89C288.25,70,287,72.55,285.49,75c-7.06,11.53-2.6,20.84,7.91,27.19,1.57.95,3.26,1.71,4.39,3.21,1,1.28,2.63,2.66,1.61,4.33a4.39,4.39,0,0,1-5.2,1.9c-2.76-.75-6.15-3.41-8.26-.48s.89,6.15,2.17,9.09c1,2.29,2.22,4.47,3.3,6.72.59,1.23,1.09,2.67-.2,3.64s-2.55.42-3.64-.55c-.62-.55-1.2-1.15-1.8-1.72s-1.55-1.42-2.63-1c-1.45.5-1.16,1.86-1.16,3,0,6.82.22,13.65-.05,20.47-.36,9.25-3.91,17-11.71,22.47a8.38,8.38,0,0,1-2.3.74c-1.28-1.55-.67-3.18-.05-4.71,7.72-19,8.93-38.32,3.1-58a15.35,15.35,0,0,1-.36-2.94c-2.73-2.33-3.48,1.88-5.55,1.69-6.9,2.3-9.36,5.47-9.38,12.12a12.8,12.8,0,0,1-4.24,6.43c-2.64,1.77-5.37,3.41-7.91,5.35-5.27,4.64-10.86,8.92-15.66,14.09a60,60,0,0,1-7.2,9.39A50.56,50.56,0,0,0,209,178.21c-3.73,6-8.41,11.34-12.47,17.12-12.21,6.32-21.51,16.51-32.46,24.5a16.84,16.84,0,0,1-3.14,3c-22.28,11.89-43.58,25.51-65.92,37.3-20.28,10.7-40.66,21.22-62.19,29.28A7.12,7.12,0,0,1,28.93,290Z"/><path class="cls-2" d="M28.93,290C47.57,282.17,66,273.9,84,264.56c22.67-11.79,44.6-24.9,66.71-37.68,3.3-1.91,6.58-3.88,10.28-5,1.57,1.53,1,3.38.76,5.15-.52,3.61-1,7.24-1.67,10.81a16.61,16.61,0,0,0,1,10.17c-11.89,6.64-22.38,15.34-33.49,23.11A145.06,145.06,0,0,1,64.88,296c-7.84,1.17-15.74,2-23.62,2.87C33.09,299.78,29.2,297,28.93,290Z"/><path class="cls-3" d="M243,133c2.49-2,4.86-4.12,8-5,1.62,1.72,1.08,3.74.6,5.65-3.4,13.46-4.22,27.18-4.1,41,0,4.82-.65,9.61-.43,14.43-2.6,10.4-10.51,15-19.75,18.29A41.43,41.43,0,0,0,222,210.1a2.74,2.74,0,0,1-1-2.65c2-10.06-1.65-19.17-4.64-28.39a22.76,22.76,0,0,1-.9-3.33,7,7,0,0,1,1.67-5c5.37-7.12,10.86-14.16,16.14-21.36C237.56,144.5,241.32,139.37,243,133Z"/><path class="cls-3" d="M163.05,219c11.29-7.56,19.85-18.83,32.85-24,6.08-2.27,10.81,1.26,10.23,8-.41,4.94-.57,9.93-1.62,14.81-.73,3.42-.86,6.9-1.31,10.35C192.1,233.81,181.87,241.46,169,243c-2-2.24-1.3-5-1.35-7.57C167.52,229.52,166.68,223.88,163.05,219Z"/><path class="cls-3" d="M271.93,106c-.32,6.24,2.34,11.94,3.26,18,2.41,15.89-.21,30.94-6,45.67-.53,1.37-.84,2.83-1.25,4.25-2.09,4.78-5.19,7.25-10.71,5.18a5.54,5.54,0,0,0-5.14,1.11c-2.81-4.29-1.74-9.08-1.17-13.54,2-15.53,5.91-30.68,9.86-45.8C264.09,115.61,267.35,110.3,271.93,106Z"/><path class="cls-4" d="M203.2,228.17c-3.07-4.33.12-8.58.27-12.86s1.21-8.8,1.46-13.22c.29-5.08-2.26-6.94-9-7.12,3.22-6.23,8.19-11.22,12.12-16.95,2.49-1.44,4.89-3.13,8-3,4.88,11.21,8.83,22.58,6,35.11-4.07,4.52-7.16,9.87-11.7,14C208.28,226,206.18,227.86,203.2,228.17Z"/><path class="cls-5" d="M262,120l-6.63,29.35c-2.3,10.15-4.07,20.36-3.3,30.84-1.39,3.11-2.42,6.42-5,8.85a7.63,7.63,0,0,1-1.41-6.89c.63-3,.33-6.28.34-9.43,0-13.94.83-27.79,4.7-41.3A17.86,17.86,0,0,0,251,128l4-5.88c.87-2.22,2.14-4,4.72-4.45A2.9,2.9,0,0,1,262,120Z"/><path class="cls-6" d="M163.05,219c6.47,2.52,4.93,8.66,5.83,13.51.62,3.37.11,6.95.11,10.44-2.27,2.26-4.26,4.94-7.89,5.09-4.29-1.61-3.2-5.21-2.82-8.29.72-6,1.77-11.89,2.68-17.84Z"/><path class="cls-7" d="M226,112c-7.11.92-13,5.63-20.09,6.48-5.42.65-11.12,2.17-15.82-2.36L210,108c4,.22,7.94,1.57,12,1C223.22,110.15,226.49,108.55,226,112Z"/><path class="cls-8" d="M150.94,161c1.2,6.32,3.1,7.83,9.15,8.07,5,.2,10.25-1.13,16.07,1.41-9.07,4.91-18,5.45-27.15,4.54a26,26,0,0,0-.7-6.77A6.07,6.07,0,0,1,150.94,161Z"/><path class="cls-9" d="M101.05,207c9.88-6.69,21-4.93,31.92-4.55-6,3.08-12.34,5.59-19,5.33-4.35-.16-8.65,2.92-13,.17C101,207.65,101,207.33,101.05,207Z"/><path class="cls-10" d="M166,153.91l6.45,3.43c-6.42,6.22-11.37,6.09-14.37-.25Z"/><path class="cls-11" d="M216,175c-2.39,1.7-4.76,3.48-8,3,1.79-10.12,8.34-17.48,14.52-25.07,1.56-1.92,3-4,4.47-5.94,1.79-1.09,3.08-.78,3.73,1.33a6.64,6.64,0,0,1-2.32,5.33A38.33,38.33,0,0,0,218,171Z"/><path class="cls-12" d="M226,112c-.52-2.08-3-1.55-4-3,3.33,0,4.82-5.54,9-3,4.8-2.16,9.92-1.84,15-2-1,6-3.26,7.93-9.14,8C233.23,112,229.61,112,226,112Z"/><path class="cls-13" d="M230,149c-.1-2-1.54-2-3-2a166.06,166.06,0,0,1,16-14c.79,7.67-4.79,12-9,17C232.46,150.49,231.35,149.27,230,149Z"/><path class="cls-14" d="M262,120a3.57,3.57,0,0,1-2.07-2.1c-.68-4.31,2.4-6.49,5.05-8.9,2.55-.48,3.07-5.62,6.95-3C269.66,111.4,265.73,115.63,262,120Z"/><path class="cls-15" d="M265,109l-5.05,8.9L255,122.09C253.14,116,257.45,110.31,265,109Z"/><path class="cls-16" d="M246,104c-4.74,2.64-9.91,2-15,2C234,100.18,241.05,99.24,246,104Z"/><path class="cls-17" d="M90.27,236.64c3.17-4.11,6.33-6.57,11.23-4.91.87.3,2.24.27,2,1.6-.1.63-1,1.32-1.65,1.67A17.05,17.05,0,0,1,90.27,236.64Z"/><path class="cls-18" d="M230,149c1.73-1.3,2.71.45,4,1a212.61,212.61,0,0,1-16,21c-.55-6.6,3.26-11.22,7.26-15.68C227,153.32,229.05,151.58,230,149Z"/></svg>