<svg id="Layer_1" data-name="Layer 1" xmlns="http://www.w3.org/2000/svg" viewBox="0 0 360 360"><defs><style>.cls-1{fill:#ece0d0;}.cls-2{fill:#dac7ae;}.cls-3{fill:#d9c6ac;}.cls-4{fill:#d9c5ab;}.cls-5{fill:#d3bfa6;}.cls-6{fill:#efe6d9;}.cls-7{fill:#ece1d4;}</style></defs><title>Artboard 1</title><path class="cls-1" d="M190,146c2.49,1.23,5,2.43,7.45,3.68,7.46,3.78,9.06,8.08,5.9,15.67-.5,1.21-.93,2.45-1.39,3.68-3.74.08-4.62-3.29-6.5-5.43-1.35-1.53-2.67-3.11-5-2.33a4.2,4.2,0,0,0-2.9,4.25c-.08,15.09-5.17,29.36-7.19,44.13a13.51,13.51,0,0,1-.41,2.27c-5.34,15.72-12.41,30.74-18.69,46.08-1.6,3.91-5.57,6.09-8,9.46-11.45,15.26-22.2,31-33.59,46.35a22,22,0,0,1-3.58,4.12c-5.4-4.05-6.89-7.28-3.47-12.68,7.88-12.43,10.17-26.51,13.52-40.37a149.44,149.44,0,0,1,5.56-17c2-5.39,5.05-9.89,10.33-13s6.74-8.72,7-14.61c.47-9.77-1.28-19.62,1.45-29.31,2.87-10.18,8.58-18.61,15.48-26.39,6.08-6.86,13.66-12.09,20.1-18.56A2.77,2.77,0,0,1,190,146Z"/><path class="cls-2" d="M179,210c2.11-11.17,4.07-22.38,6.41-33.5a44.79,44.79,0,0,0,.52-10.38c-.08-3.26,1-5.51,4.08-6.58s4.86.79,6.44,3.17,2.87,4.89,5.46,6.33c5.48,9.88,6.09,20.1,2.33,30.71a230.61,230.61,0,0,1-10.12,24.31c-2.08.47-2.64-1.29-3.12-2.51C188.77,215.81,185.08,211.7,179,210Z"/><path class="cls-3" d="M152,267c11.84-11,14.32-26.81,20.92-40.5,2.28-4.71,4-9.69,6-14.55,1.3,1,1.56,2.56,1.79,4,1.21,7.49,3.32,14.54,9,20-5.11,10-12,18.75-19.47,27a21.08,21.08,0,0,0-5.31,9.93c-.6,2.79-1.54,5.44-4,7.26-2.56-.06-2-2.19-2.28-3.62-.4-2.15-.8-4.22-2.77-5.55A21.21,21.21,0,0,1,152,267Z"/><path class="cls-4" d="M152,267c2,.1,3.13,1.44,4,3.07,2.58,6.32,2.21,12.65,0,19-6.63,7.36-11.85,16-19.75,22.24-6,4.75-12.58,7.26-20.27,6.65,3.33-7.08,8.69-12.79,13.1-19.12C136.62,288.1,144.39,277.6,152,267Z"/><path class="cls-5" d="M189.79,235.92c-4.21-1.63-6.4-5.06-7.68-9.1A65.56,65.56,0,0,1,179,212l0-2c5.41-.56,8.71,2.13,11,6.79,1.21,2.51,2,5.31,4.16,7.27A58.9,58.9,0,0,1,189.79,235.92Z"/><path class="cls-6" d="M190,146h-3.9V113.22C191.81,123.65,189.5,135,190,146Z"/><path class="cls-7" d="M156.07,289.05q0-9.49,0-19c3.26.38,3.61,2.91,4,5.4.24,1.58-.47,3.36,1.05,4.65C159.53,283.17,159.78,287.21,156.07,289.05Z"/></svg>