<svg id="Layer_1" data-name="Layer 1" xmlns="http://www.w3.org/2000/svg" viewBox="0 0 360 360"><defs><style>.cls-1{fill:#ece1d0;}.cls-2{fill:#d9c6ac;}.cls-3{fill:#d8c5a9;}.cls-4{fill:#d2bea5;}.cls-5{fill:#d0bca2;}.cls-6{fill:#efe6d9;}.cls-7{fill:#e5dac9;}.cls-8{fill:#efe3d8;}.cls-9{fill:#e0d5c4;}.cls-10{fill:#d2bea6;}.cls-11{fill:#e3d9c7;}</style></defs><title>Artboard 1</title><path class="cls-1" d="M90,189c9.42-7.94,19.54-14.41,32-16.53,5.92-1,11.43.29,17,1.59a19.14,19.14,0,0,1,4.94,2c5.15,2.7,6.57,2.1,8.65-3.45A6,6,0,0,1,154,170c1.62-3.54,3.82-6.42,8-7,4.38,1.07,7.29,5.61,12.22,5.52,1-2.44-2.35-3.45-1.27-5.6,11.18-10.76,24.59-16.06,40-17.08,15.68-1,30.79,2.2,46,5.12,1.17.95,3.31,0,4,2,3.15,8.05,1.53,15.2-4,21.64-2.77,3.2-4.34,7.11-5.64,11-2.85,8.54-7.55,14.72-17.32,15.3-.55-1.78.75-2.8,1.73-3.83,5.38-5.66,8.39-12.7,11.58-19.64,1.6-3.48,1.79-6.75-1.68-9.34-3.3-2.46-5.92-.52-8.54,1.34-2.18,1.54-3.77,3.74-6,5.26-3.43,1.87-7.32,2.53-10.85,4.13-7.89,3.34-15.13,8-23.13,11.1-5.88.68-10.7,3.59-15.21,7.18-4.82,2.12-10.06,2.18-15.13,2.9A66.54,66.54,0,0,0,150.53,205c-3.51.73-7.07.48-10.62.44a399.07,399.07,0,0,1-40.11,3.72c-9.15.47-18.35,1-27.38.06A70.24,70.24,0,0,0,43,212c-1.45-6.57,3.55-12.93,12-15,11-2.72,22-5.31,33.08-8,8.43,4.94,17.44,6.82,25.47,5.44C106.54,193.46,98,192.27,90,189Z"/><path class="cls-2" d="M43,212c4.57-4.78,10.89-4.9,16.55-4.8,11.56.19,23.16,1.46,34.7.62,13.62-1,27.42-.17,40.84-3.63A23.23,23.23,0,0,1,140,204a16.11,16.11,0,0,0,1.08,2.21c4,5.64,3.85,7.78-1.06,12.64-19.06,4.92-38.33,8.57-58.12,7C67.78,224.77,54.58,220.46,43,212Z"/><path class="cls-2" d="M233,174a27.55,27.55,0,0,1,7.19-6.76c2.79-1.88,5.58-2.31,8.22-.17s4.37,4.78,2.87,8.67c-3.62,9.34-8.2,18-15.28,25.27-15,6.8-30.55,11.93-47,14-.59-1.54.42-2.55,1.29-3.49a27.58,27.58,0,0,0,7.87-20.23A3.06,3.06,0,0,1,199,189c7.7-3.62,15-8.08,23-11.05,2.55,1.88,2.21,4.55,1.95,7.19-.22,2.25-1.13,4.44-.62,7.11,0,.32,1.12-.24.46-.14-.2,0-.22-.1-.27-.36-.54-2.87,1.47-4.56,3.46-5.34C233,184.05,235.29,180.2,233,174Z"/><path class="cls-3" d="M151,203.94c6.75-4.81,14.85-4.48,22.48-5.93L184,196c2.7,4.4.91,8.56-1.5,12.05a50.78,50.78,0,0,1-9.5,10.8H150a4.45,4.45,0,0,1-.62-4.69C150.5,210.84,150.11,207.3,151,203.94Z"/><path class="cls-4" d="M173,218.88a16.11,16.11,0,0,1,5-7.24c4.79-4.26,6.47-9.46,6-15.61a21.19,21.19,0,0,1,15-7c1.44,8.93-1.47,16.44-7.47,23-.88,1-1.68,2-2.52,3C184,217.76,178.91,220,173,218.88Z"/><path class="cls-5" d="M151,203.94c2,3.21.57,6.4,0,9.6-.33,1.78-.63,3.56-1,5.33l-10,0c0-1.27.83-2.1,1.48-3,2.19-3.25,2.06-6.38-1.29-8.61-1.92-1.27-1.61-2-.21-3.19Z"/><path class="cls-6" d="M263,153l-4-2a5.79,5.79,0,0,0,5.44-2.52,67.27,67.27,0,0,1,13.6-13.09c.95-.67,1.95-1.89,3-1.09,1.52,1.15,0,2.44-.53,3.47-3.26,6.22-7.77,11.11-14.68,13.39A13.71,13.71,0,0,0,263,153Z"/><path class="cls-7" d="M90,189c8.89.63,17.3,3.55,26.51,5.06-8.41,4.29-22.79,1.56-28.44-5Z"/><path class="cls-8" d="M154,170c-.12,3.34-.14,7.25-3.68,8.51-4.62,1.64-8-1.93-11.32-4.5C143.75,171.73,148.54,169.59,154,170Z"/><path class="cls-9" d="M173,163c.26.42.53.83.78,1.25,1,1.67,4.41,2.79,2.51,5.07-1.5,1.79-4.46.93-6.39-.44-2.65-1.87-5.84-3.05-7.85-5.8Z"/><path class="cls-10" d="M233,174c4.38,6.82,4,8.47-3.23,12.12-3.06,1.55-5.67,3.35-6.17,7.59-3.76-5.31,1.4-10.9-1.59-15.69C225.39,175.92,229.26,175.14,233,174Z"/><path class="cls-11" d="M140.27,182.85c-7.69,4.28-13.55,2.64-18.79-4.71Z"/></svg>