<svg id="Layer_1" data-name="Layer 1" xmlns="http://www.w3.org/2000/svg" viewBox="0 0 360 360"><defs><style>.cls-1{fill:#ece0d0;}.cls-2{fill:#d9c6ac;}.cls-3{fill:#dbcab2;}.cls-4{fill:#f3ece3;}.cls-5{fill:#d1bda5;}.cls-6{fill:#e5dbcb;}</style></defs><title>Artboard 1</title><path class="cls-1" d="M192,204c3.63,20.59-.34,30.94-17.61,45.77C173,251,171.48,251.94,170,253c-2.74.22-3.43-1.52-3.61-3.75a57,57,0,0,1,1-22.78c1.9-8.2,1-16.59,1.23-24.9a20.31,20.31,0,0,1,.23-4.12c9.12-27.41,19.43-54.3,34.87-78.92.86-1.38,1.47-3,3.29-3.54,3.25,7.46,2.45,15.37,1.68,23-1.22,12-4.3,23.74-7.26,35.46a52.65,52.65,0,0,1-6.71,15.44c-1,1.57-1.89,3.15-1.71,5.1a4.67,4.67,0,0,1-1.82,3.86C188.22,200.42,189.54,202.26,192,204Z"/><path class="cls-2" d="M207,115A332.23,332.23,0,0,0,180,170c-3.38,9-6.71,18-10.07,27.06-2.44,1.42-3.71-.59-4.93-1.94a29.2,29.2,0,0,1-5.94-9c6.62-12.68,11.62-26.07,17.13-39.24,5.26-12.56,14.25-22.28,24-31.41A4.92,4.92,0,0,1,207,115Z"/><path class="cls-3" d="M170,201c.2,11.44.31,22.85-2.69,34.09a19.07,19.07,0,0,0,.21,9.88c.48,1.76,1.14,3.54-.51,5.09-6-2.22-9.46-7.18-12.91-12.14-3.55-9-6.55-18.07-4.17-28.06A42.74,42.74,0,0,1,158,193c2.76,4.46,4.23,9.85,9.52,12.61C168.78,204.47,166.74,201.16,170,201Z"/><path class="cls-4" d="M154.07,237.92,167,250.06a6.6,6.6,0,0,0,3,3c1.15,4.65,2.34,9.3,3.46,14,.73,3.08,1.09,6.16-1.15,10-.27-8.31-4.76-13.32-9.76-17.9C156.29,253.37,152.65,246.69,154.07,237.92Z"/><path class="cls-5" d="M170,201a6.64,6.64,0,0,0-.83,1.18c-.65,1.61.93,4.21-.92,4.87s-3.22-1.78-4.69-3A15.4,15.4,0,0,1,158,193c.2-2.33-.26-4.77,1.12-6.91,2.91,1.66,3.74,5,5.83,7.26,1.4,1.54,2.57,3.56,5.05,3.71Z"/><path class="cls-6" d="M192,204c-2,.18-3.73-.48-4.49-2.34-.82-2,1.35-2.73,2.29-3.94s2.12-2.48,3.18-3.72C197.58,197.82,193.69,200.8,192,204Z"/></svg>