<svg id="Layer_1" data-name="Layer 1" xmlns="http://www.w3.org/2000/svg" viewBox="0 0 360 360"><defs><style>.cls-1{fill:#ece1d0;}.cls-2{fill:#d9c6ac;}.cls-3{fill:#d8c5aa;}.cls-4{fill:#d9c6ab;}.cls-5{fill:#d1bea5;}.cls-6{fill:#d1bda4;}.cls-7{fill:#f0e6da;}.cls-8{fill:#e5dbcb;}.cls-9{fill:#e5dac9;}.cls-10{fill:#f3ece3;}.cls-11{fill:#f6f2ec;}.cls-12{fill:#e0d6c5;}.cls-13{fill:#e1d6c6;}.cls-14{fill:#f0e9dd;}</style></defs><title>Artboard 1</title><path class="cls-1" d="M172,186c-3-5.66,1.83-5.72,5-7,3.71,2.25,7.53,3.64,11.83,1.44-2.25-.71-5,.57-6.89-1.48,3.61-2.29,5.67-5.83,7.82-9.36C193,164.24,196.45,159,203,157c7.3,2.77,14.66,2.57,22.05.45.61,0,1.22.07,1.82.06s1.1-.23.45-.09c0,0-.09-.22-.2-.32a127.66,127.66,0,0,1-14.49.33c-2,0-4,.24-5.61-1.4,9-6.11,19.35-8.18,29.77-9.94,8.34-1.41,16.8-1.16,25.24-1,2.51,1.74,5.61-1.48,8,.95,3.44,4,6.91,8,10.31,12.05,1.33,1.58,1.45,2.73-1.07,3.41-7,1.89-9.85,7.4-11.17,13.9-1.18,5.83-2.07,11.72-3.14,17.57-.93,5.08-3.76,6.62-9,5-1.31-2.26.6-3.73,1.41-5.41A39.76,39.76,0,0,0,261,168.33c-1-6-3.08-6.72-7.85-2.78-4.59,3.81-9.1,7.77-13.3,12-6.1,6.13-12.76,11.63-18.87,17.73a14.14,14.14,0,0,1-6.49,3.48c-3.85,1-5.94,4.11-8.21,7-8.71,5.27-17.5,10.37-26.49,15.15-4.76,1.78-9.74,2.84-14.52,4.55-19.18,7-38,14.9-57.58,20.94a288.83,288.83,0,0,1-29,7.34c-2.27.45-4.59,1.07-6.66-.65,1.82-10.15,8.72-15.62,17.7-19.13,6.33-2.49,13.09-3.8,19.17-7,3.62-.75,7.3-.07,10.94-.38,4.5-.37,8.92-1.05,13-3.89-5.6.76-11,.87-16.31,1.54-2.22.29-4.69.62-6.62-1.24,3.8-7.4,9-13.14,17.75-14.35,2.26-.32,3.22-2,4.3-3.59a5.83,5.83,0,0,0,4.73,2.38,177.23,177.23,0,0,0,20.35-.42c-6-.72-11.93-.43-17.9-.56-2.46,0-5,.39-7.16-1.42a33.15,33.15,0,0,1,11.52-8.32c3.62-1.58,7.24-2.35,11.05-.76,4.43,1.86,7.94,1.23,10.34-3.38,1.2-2.32,3.15-3.86,6-3.51,4.14-1.15,8,2.67,12.61.81C180.34,185.87,175.26,188.71,172,186Z"/><path class="cls-2" d="M72.09,253.07c11.61-.85,22.68-4.24,33.73-7.55,20.14-6,39.54-14.13,59.22-21.46a13.59,13.59,0,0,1,4,15.09l-18,11c-5.71-4.07-9.24-1.22-12.09,3.8-19.23,9-39.74,7.18-60,6.94C74.34,260.82,71.48,258.16,72.09,253.07Z"/><path class="cls-3" d="M214,198c7.08-2.62,11.45-8.74,16.76-13.51,7.76-7,15-14.56,23.24-21,4.73-3.69,6.88-2.58,8.05,3.12,2.31,11.31-.46,21.58-6.1,31.31-9.39,12-22.43,18.38-36.2,23.67-1.53.59-3.13,1-4.7,1.54-1.4-1.72-.45-3.48,0-5.2a54.85,54.85,0,0,0,1.65-12.77C216.65,202.35,216.06,200,214,198Z"/><path class="cls-4" d="M180,220c8.34-5.56,17.17-10.27,26-15,2.19,2.75,1.74,6.05,1.1,9-1.38,6.25-3.69,12.21-8.08,17.12-8.47,4.43-17.29,7.64-27,7.81C173.56,232.09,175.9,225.67,180,220Z"/><path class="cls-5" d="M199,231.05c.09-2.07,1.27-3.73,2.2-5.42,3.57-6.45,5.69-13.19,4.78-20.66,1.62-3.52,3.89-6.3,8-7,2.88-.33,4,.73,4.1,3.84a63.94,63.94,0,0,1-3.05,21.3C210.39,227.16,206,231.7,199,231.05Z"/><path class="cls-6" d="M180,220c-2.42,6.39-4.39,13-8,18.87l-3,.29a30.13,30.13,0,0,0-4-15.09Z"/><path class="cls-7" d="M270.05,146c-2.67-.39-5.55,1-8-.95,3,.35,4.79-1.07,6.41-3.59,4-6.25,8.36-12.28,12.56-18.41.64-1,1.09-2.07,2.33-2.27C283.8,131.74,277.07,138.94,270.05,146Z"/><path class="cls-8" d="M110,223c8.75.19,17.37-1.38,26.31-2-5.13,6.33-18.84,9.21-27.33,6C109.13,225.59,108.55,224,110,223Z"/><path class="cls-9" d="M226,158c-7.81,2.53-15.6,4.83-23-1,1.09-1.35,2.64-.82,4-1,7.63.06,15.27.11,22.9.19.09,0,.23.22.24.35a1.51,1.51,0,0,1-.15.47C228.72,157.59,227.71,159.15,226,158Z"/><path class="cls-10" d="M172,186c3.63.12,7.34-.47,10.82,1.1,1.29.58,3.22.77,2.9,2.79-.34,2.18-2.24,2.08-3.93,2.12-3.9.09-7.16-2.14-10.81-2.94C172.17,188.31,172,187.11,172,186Z"/><path class="cls-11" d="M138.9,253.94c.39-1.06.71-2.17,1.2-3.18,2.79-5.76,4.68-6.1,9.33-1.79a18.12,18.12,0,0,0,1.56,1.17C147.63,253.55,143.52,254.55,138.9,253.94Z"/><path class="cls-12" d="M182,179h10.8c-6.1,5.4-11.32,5.22-15.74,0Z"/><path class="cls-13" d="M132.05,205c8.44,0,16.88,0,25.32,0,1.4,0,3.31-.42,3.44,1.78.15,2.62-2,2.17-3.54,2.18-7.11,0-14.23-.1-21.34.07-3,.08-4.33-1-3.9-4Z"/><path class="cls-14" d="M226,158l4-1C229,158.62,227.91,160,226,158Z"/></svg>