<svg id="Layer_1" data-name="Layer 1" xmlns="http://www.w3.org/2000/svg" viewBox="0 0 360 360"><defs><style>.cls-1{fill:#ece1d0;}.cls-2{fill:#d9c5aa;}.cls-3{fill:#d9c6ac;}.cls-4{fill:#d5c2ab;}.cls-5{fill:#e5daca;}</style></defs><title>Artboard 1</title><path class="cls-1" d="M240.07,157.08a45.52,45.52,0,0,1-16.46,13.35c-20.17,9.95-40,20.66-61.56,27.61-4.33-2.87-8.81-3.33-13-1.18,4,.13,8.61-1.19,13,1.17-19.54,15.34-40.84,23.8-66,16.44-6-1.75-7.16-4.59-5.91-12.17,1.09-6.59,2.68-8.1,8.81-8.35a2.86,2.86,0,0,1,1,1.65c1.86,7,3.09,7.43,9.41,3.34,8.11-5.26,15.54-11.45,23.66-16.7,3.7-1.65,7.59-2.8,11.28-4.47,21.19-10.63,44.11-14.82,67.27-18.08,7.75-1.1,15.49-2.31,23.26-3.25C236.63,156.22,238.5,155.52,240.07,157.08Z"/><path class="cls-2" d="M240.07,157.08c-23.14,3.43-46.45,5.82-69.13,11.91-9.3,2.5-18,6.66-26.93,10-2.95-5,.48-8.7,2.64-12.51,1.3-2.3,2.07-4-.69-5.53,8.75-1.48,17.54-2.71,26.19-4.87,11.56-2.89,23.19-5.5,35.09-6.66,8.29-.8,16.59-.88,24.71,1.19C235.42,151.53,239.32,152.48,240.07,157.08Z"/><path class="cls-3" d="M133,183.06a246.29,246.29,0,0,1-25.93,18.81c-4.4,2.82-7.6.86-8.07-4.45-.1-1.15,0-2.31-.07-3.47,2.69-10.76,9.65-17.73,19.51-22.26A114.46,114.46,0,0,1,136,165C137.79,171.47,135.63,177.3,133,183.06Z"/><path class="cls-4" d="M133,183.06q1.48-9,3-18.08a18.28,18.28,0,0,1,10-4c1.52.32,3.73-.86,4.4,1,.34.93-1,2.59-1.83,3.79-2.68,4-5.21,8.09-4.52,13.26A38.65,38.65,0,0,1,133,183.06Z"/><path class="cls-5" d="M162,198H145.93c5.83-5.42,11.55-5.35,16.12,0Z"/></svg>