<svg id="Layer_1" data-name="Layer 1" xmlns="http://www.w3.org/2000/svg" viewBox="0 0 300 300"><defs><style>.cls-1{fill:#fff;}</style></defs><title>Artboard 3</title><path d="M132,166.75l2.74,1.2c-1.07-1.68-2-3.39-4.32-3.55l-.28.56c-.16-.14-.31-.2-.32-.29-.1-.65-.53-.82-1.11-1.12-2.36-1.2-4.63-2.56-6.93-3.88-.18-.11-.27-.37-.4-.56l.18-.27,3.72,2.15a28.34,28.34,0,0,0-1.88-2.28c-2-2-4-4.07-6.19-5.91a22.35,22.35,0,0,0-4-2.33c-1-.55-2.1-1-3.08-1.58a6.71,6.71,0,0,1-1.24-1.35l.65-.73a5.38,5.38,0,0,0,1.08,1.44c1.25.82,2.58,1.53,3.91,2.23.21.11.55-.06.84-.09a4.07,4.07,0,0,1,1.06.54c1.28,1.21,2.45,2.54,3.79,3.68,1.94,1.64,4,3.14,6,4.71.59.46,1.16,1,1.74,1.42l.3-.3-1.17-1.73.12-.12,2.11,1.57a2.68,2.68,0,0,0-.83-1.62c-.68-.48-1.55-.68-2.28-1.1-1.12-.64-2.18-1.37-3.44-2.18,1.22-.17,2.16,1,3.32-.14-1.14-1-2.2-2-3.33-2.85-3.73-3-7.45-6-11.24-8.84a9.17,9.17,0,0,0-2.63-1l-.22.45a9.56,9.56,0,0,0,2.46,1.65,1.65,1.65,0,0,1,1.17,1.09c.08.17.09.41.22.51,1.35,1.08,2.73,2.13,4.09,3.2.33.27.63.58.94.87l-.15.17-1.66-.64-.33.66a23.1,23.1,0,0,0-2-2.55,30.17,30.17,0,0,0-4.36-3.64,67.91,67.91,0,0,0-7.48-3.9l1.09.12,0-.14-5.48-2.74-.29.45,4.12,3.12-.12.21c-1.18-.81-2.42-1.54-3.52-2.44-2-1.66-3.94-3.43-5.95-5.1a7.85,7.85,0,0,0-1.62-.79l.13-.34,1.14.38c-.19-1.48-1.78-1.51-2.41-2.68l9.47,5.46.32-.12a10.49,10.49,0,0,0-.84-2.28,11.18,11.18,0,0,1-2.17-4.92c-.09-.82-1.1-1.51-1.52-2.35a33.34,33.34,0,0,1-1.51-3.65c-.26-.7-.3-1.49-.58-2.18-.64-1.59-.68-3.43-2.08-4.71-.31-.28-.38-.85-.54-1.29a2.31,2.31,0,0,0-1.72-1.76,2,2,0,0,1-1.25-1c-1-2-2-4-2.8-6-1-2.42-2-4.86-2.8-7.33a9.24,9.24,0,0,1-.07-6.86l.21,1.82.3,0c-.24-1,.75-2-.28-3a.48.48,0,0,1,0-.41c.68-2.24-.65-3.89-1.63-5.64-.42-.76-.82-1.56-2-1.42-.16,0-.6-.65-.57-1,.33-2.67.79-5.32,1.07-8a14.08,14.08,0,0,0-.3-2.93l.37.12a8.25,8.25,0,0,0,.81-1.44c.37-1.09.4-2.23,2-2.57.64-.14,1.2-1.26,1.53-2a8.71,8.71,0,0,1,4.25-4.41l.09,1.44c2.5,1.37,4,4.13,6.31,6,.53-1.19-.34-1.88-.91-2.69s-1.27-2-1.9-3l-1-1.55a34.3,34.3,0,0,1,5.09-5.91c1.5-1.37,2.83-2.92,4.29-4.33a7.81,7.81,0,0,1,1.73-1c.17-.09.47-.19.55-.12,1,.95,2.31.31,3.43.61a13.27,13.27,0,0,1,1.78.94,3.12,3.12,0,0,0,1.55.4c1-.15,1.91-.57,2.88-.8,3.31-.76,6.53,1.08,8.27,3.55.23.33.09.92.31,1.25a2.38,2.38,0,0,0,.86.62,4.64,4.64,0,0,0,0,1.42,12.43,12.43,0,0,0,1.31,3.3c1,1.38.74,2.92,1,4.38a34.05,34.05,0,0,1,.27,4.63c0,1.24-.08,2.47-.15,3.71a9.84,9.84,0,0,1-.33,1.41l1.21-1.35.11.7.31.06c.26-1.2.58-2.38.77-3.59s.27-2.41.52-3.62l.15.91c.23-.12.43-.16.48-.26,1.44-3.29.74-7.2-1.75-9.08l.73,3.8-.76-.26-1.24-2.1.79.1-.43-3.71a2.54,2.54,0,0,0,2.41,2.27l-.79-1.35.13-.24c.86.42,1.71.86,2.59,1.24a4.84,4.84,0,0,0,1,.19l.09-.36-.83-.78,1.75-.66c.91.43,1.71.77,2.46,1.17a11.86,11.86,0,0,1,1.52,1,6.68,6.68,0,0,1,.64.66c.76.77,1.84,1.4,2.25,2.32,1.31,2.95,2.74,5.89,2.1,9.35-.4,2.18-.29,4.45-.58,6.66a37.81,37.81,0,0,1-1.1,5.26c-.74,2.68-1.74,5.29-2.38,8a19.35,19.35,0,0,0-.05,4.24l.51.08,2.67-10.18h.21a15.62,15.62,0,0,0,0,1.81,4.23,4.23,0,0,0,.42,1c-.11.33-.24.66-.34,1s-.24.73-.34,1.1-.12.51-.18.76l.6.07.23-2.89c.5-2.15,1-4.3,1.48-6.46.4-2,.69-4,1-6,0-.13.18-.23.39-.46v2l.38.1A21.94,21.94,0,0,0,141.94,73a23.34,23.34,0,0,0-.65-4.59,8.67,8.67,0,0,1,1.69,5c-1.47,1.57-.11,4-1.89,5.39l.35.16.76-.12c-.07.95.16,2-.27,2.67s.32.74.18,1.11c1-.12.63.62.64,1a34.18,34.18,0,0,1-.09,4c-.07.66-.6,1.26-.76,1.92-.52,2.17-.92,4.37-1.45,6.53-.47,1.91-1.07,3.78-1.59,5.68a8.18,8.18,0,0,0-.15,1l.43.11q2.43-7.93,4.88-15.88l.35.09c-.26,5-2.31,9.57-3.33,14.38l.33.09L144,93.34l.23,0-1.23,8,.31.06c1.12-4,2.57-8,2.91-12.22l-.41-.12-.62,1.58-.3-.06a15.39,15.39,0,0,1,.22-1.66,7.94,7.94,0,0,0-.26-4.89,2.53,2.53,0,0,1-.07-.48c-.37-3.72-.75-7.44-1.11-11.16a4,4,0,0,1,.12-1.45,46.58,46.58,0,0,1,1.57,11.41l.35,0a24.79,24.79,0,0,0-.3-4c-.31-1.44,1-2.27,1.08-3.53V82c.62-.47.87-1.31,1.25-4.46.19-1.6.33-3.2.53-5.11l.81,2.37,0,0c-.21.21-.59.41-.61.63-.18,2.85-.25,5.71-.46,8.56-.12,1.49-.47,3-.71,4.44,0,.13.05.27.34.43l.31-1.7.26,0c-.13,1.49.26,3.41-.53,4.37-1,1.24-.06,1.76.08,2.61a12.51,12.51,0,0,1,.13,2.12c0,.63-.1,1.26-.16,1.91a4.85,4.85,0,0,1,1.09-.66c1.66-.44,2.11-1.74,1-3.57-.09.62-.14,1.07-.22,1.51a2.82,2.82,0,0,1-.55,1.33,4,4,0,0,1-.29-1.22c.23-2,.61-3.94.77-5.92a26.58,26.58,0,0,0-.16-3.67c-.15-2.6-.69-5.19.23-7.83l.89,6.7.65-2c.91,0,1.06.4,1,1.18-.17,1.81-.24,3.64-.33,5.47a5.37,5.37,0,0,0,.24,1l2.07-5.16.45.41c1.72-2,.79-5,2.43-7l.31.1-1.18,3.3,1.21-1.06c-1.64,3.66-3.42,6.95-3.93,10.63s-.79,7.54-1,11.32l2.07-10.38h.28l.23,1.6c1.11-4.26,1.56-8.65,3.45-12.75,0,3,0,6,0,9.07,0,2.17,0,4.35.11,6.53A26.52,26.52,0,0,0,159,100a4.71,4.71,0,0,1,0,1.06,67.81,67.81,0,0,0-.49,7l.41-.8c-.25,2.24-.49,4.37-.73,6.5l.36,0a8.86,8.86,0,0,0,.85-6,8.69,8.69,0,0,1,0-2.73c0-1.94.14-3.88.27-5.82,0-.75.2-1.5.31-2.25l.39,0v7.43h.3c.46-4.65.07-9.31,0-14,.14,1.2.25,2.4.46,3.59.06.34-.18,1.13.71.88,0,0,.13.11.14.17.26,1.29.6,2.56.73,3.86s0,2.4.09,3.62a31.48,31.48,0,0,1,5.52-13.79l-2.21,5.9.4.19,3.88-7,.25.13c-1,2.14-2,4.26-3,6.41a5,5,0,0,0-.12,1.46,3.22,3.22,0,0,1-.17.76c-.54,1.29-1.15,2.55-1.62,3.86a22.46,22.46,0,0,0-1.43,4.74c-.42,3.48-1.82,6.69-2.52,10.08-.4,2-.61,4-.87,6a4.72,4.72,0,0,0,.16,1.1l.31,0A8.17,8.17,0,0,0,162,121a48.59,48.59,0,0,0,1.33-6.67c.21-2.71,2.38-6.13,3.79-7.79,2-2.36,3.84-4.87,5.76-7.3a2.27,2.27,0,0,1,1.06-.8l-.92,2,2-.89-3,4.3,1.14-2.44-.39-.24-2.53,3.65.28.2,1.54-1.21c-2.35,3.77-4.85,9.83-4.73,11.52l1.11-.27a17.38,17.38,0,0,0-2.12,2.78,9.94,9.94,0,0,0-.82,3.61l2-4.55.43.16-.77,2.32.15.08c.57-.68,1.09-1.4,1.71-2,1.89-1.89,3.82-3.64,4.71-6.38.48-1.49,1.84-2.75,3-3.94,2.25-2.35,4.63-4.59,7-6.86a7.19,7.19,0,0,1,1-.69l.41.45-2.53,1.51.46.54,3.42-1.69.13.21c-1,.57-2,1.19-3,1.7a15.78,15.78,0,0,0-6.06,5.37c-1.85,2.66-3.66,5.36-5.28,8.16-1.37,2.38-2.5,4.9-3.64,7.41-.51,1.11-.46,2.45-1.59,3.3-.26.18-.21.77-.3,1.18l.4.17,3-5,.19.1-.57,1.36a3,3,0,0,0,2.7-2.23,15.06,15.06,0,0,0,7.17-2,25.19,25.19,0,0,1,4.39-1.58c.15,0,.38.16.79.35-4.67,1.17-8.17,3.79-11.49,7.38.51-.12.83-.11,1-.26,1.29-1,2.55-2.06,3.82-3.1l.38.41-1.81,1.48.12.16,8.56-4.82.17.28c-5.2,3-10.26,6.08-14.14,10.75,3.87-2.8,7.58-5.86,12.39-7.77-1.46,1-2.68,1.78-3.84,2.63q-3.69,2.7-7.31,5.49c-.3.24-.39.76-.57,1.16a5.48,5.48,0,0,1-.91,1.55l.24-1.25-.35-.13-1.12,2.67,1.14-.53a.72.72,0,0,1,0,.23c-.48,1.67-1,3.35-1.45,5a1.52,1.52,0,0,0-.11.92c.66,1.37-.3,2.47-.48,3.7-.3,2-.41,4-.53,6a12.71,12.71,0,0,0,.26,3.66l1.27-2.29.26,1.28c.52-.63.88-1.08,1.24-1.54s.51-1.42,1.41-1.81c.38-.17.37-1.25.53-1.92L173,148l-.89,1.2a29.36,29.36,0,0,1,.52-3c.5-1.72,1.09-3.41,1.68-5.1.07-.2.35-.34.56-.47,0,0,.28.13.27.16a5.83,5.83,0,0,1-.25.7,8.59,8.59,0,0,0-.53,1.35,14,14,0,0,0-.4,3.29c1.33-3.8,3.91-6.78,6-10.22,0-.22-.14-.82.09-1.09a25.3,25.3,0,0,1,2.27-2.11c.41-.36.84-.69,1.26-1l1-.86-1.07,6-.23-1.51c-1.45,1-3.23,5.69-2.77,7.48,1.35-1,.89-2.9,2.09-4-.26,2.23-.08,4.42-1.37,6.35-.19.29.16.89.06,1.3a12.46,12.46,0,0,1-.86,2.16c-.3.65-.7,1.24-1.06,1.86l.35.24,1.49-1.83.18.12-3.27,6.77.29.37c.39-1.76,1.3-1.12,2.13-.76L178,159l.32.43c.39-.12,1-.12,1.14-.38,1.53-2.11,3.84-3.2,5.87-4.62s3.65-2.88,4.42-5.39a56.79,56.79,0,0,1,3.17-7.05c.36-.77,1-1,2.18-.8a24.86,24.86,0,0,0-2.71,3.18,20.15,20.15,0,0,0-1.28,3.59l1,.66-1.89,5.44-.23,0-.14-.79c-.39.53-1.09,1.05-1.09,1.58,0,2.91-1.69,5.43-1.8,8.34,1.57-1.4,3.32-2.61,3.67-5l1,.49c-.92,1.64-1.78,3.24-2.71,4.8a20.16,20.16,0,0,1-1.33,1.75c-.59.8-1.2,1.59-.66,2.71.13.25-.05.74-.23,1-1.77,3.06-3.49,6.16-5.42,9.13-.67,1-.31,1.88,0,3l3.84-6.84.51.67,1.79-2.16,1.11,1.24,3.15-4.38,5.48,3.1-.14.29-4.58-1.54c0,.06,0-.17.11-.4-.22,0-.54-.16-.65-.06-.61.56-1.66,1.18-1.66,1.78,0,2.23-2.25,2.82-2.9,4.5a12.3,12.3,0,0,1-.66,1.24l.27.2,1.73-1.6.19.14-.2.93.25.22c1.24-.93,2.47-1.88,3.73-2.77a13.07,13.07,0,0,1,1.51-.83l-.85.73.14.15,1.44-.53a3.31,3.31,0,0,1-1.26.94c-.33.15-1,.3-1,.36.18,1-.8,1-1.27,1.41-.66.54-1.47.91-2.13,1.46s-.8,2.14-2.33,1.54a.18.18,0,0,0-.09.07l-2.07,2.18.22.2.86-.24-2.56,3.41c2.8-1.47,4.24-4.19,6.07-6.54l.27.22-1.25,2.22c1.5,0,2.66-.69,2.66-1.81,0-.7.35-.91.79-1.25,1.88-1.44,3.73-2.91,5.58-4.36a4.58,4.58,0,0,1-1.58-.36,1.15,1.15,0,0,0-1.67.23c.31-.86.84-1.06,1.75-.79a23.92,23.92,0,0,0,3.1.53c-1.76,1.38-3.52,2.68-5.18,4.09a17,17,0,0,0-2.37,2.64c-.19.24,0,.76,0,.83l-1.13,1.82c.79.19.84-1.68,1.8-.31l2.46-4,.26.13-2,4.13c2.46-.72,4.45-2.24,6.74-3.79-.57,1.54-2.9,1.34-2.49,3-.64.39-1.21.78-1.8,1.11a16,16,0,0,0-1.61.78,8.46,8.46,0,0,0-2.16,1.86,21.43,21.43,0,0,0-1.76,3.56c-.1.21.11.55.25,1.14,1-2.1,2-3.79,3.95-4.68,1.48,1.21,1.92-.89,3.11-1-3.1,2.7-6.36,5.28-7.13,9.72l.52-.55-1.65,3.31c1-.48,1.69-1.44,2.6-1.66,1.93-.45,2.05-2.1,3.1-3.53a4.93,4.93,0,0,0-3.71,1.53,6.77,6.77,0,0,0,.48-1.16c.31-1.45,1.65-1.3,2.54-1.4,1.19-.14,1.74-.36,1.87-1.6a1.53,1.53,0,0,1,.34-.64c1.54-2.06,3.7-3.43,5.63-5.06a3,3,0,0,1,1.18-.76c-.64.83-1.33,1.63-1.93,2.5a17.31,17.31,0,0,0-1.89,4.94c-1,3.3-1,3.29-3.88,6.06a3.89,3.89,0,0,0,1.2-.11c2.14-.88,2.13-.9,3,1.49l2.89-2.3.28,1c-1.12,1.26-3.82,1.44-2.93,4.35l-.44-.21c0-.22.09-.56,0-.66s-.75-.38-.82-.3c-.57.68-1.28,1.34-.79,2.42A10.8,10.8,0,0,1,198,205h2.6l0,.18-3,.45c-1.07.16-2.19-.22-3,1.15-.45.77-1.82,1-2.76,1.48-1.1.58-2.18,1.19-3.36,1.83,2.09,1.14,2.89,1,3.42-.42h-1c0-.12,0-.23.05-.24a27.24,27.24,0,0,1,9.45-1.32c-1.48.25-3,.49-4.43.75-1.07.19-2.14.37-3.19.64-.24.06-.38.48-.68.91l1-.08.16.21-.92.49.21.44,2.34-.58c-.24,1.47-2.15,1.55-2.81,2.84l8,.38v.29c-.91,0-1.82,0-2.72,0a2.48,2.48,0,0,0-2.39,1.95l-2,1.28.15.39,1.54-.11c-2.84.49-5.38,2.22-8.41,1.81a6.72,6.72,0,0,0-3.68.25c-.16.07-.42-.08-.69-.42l2.08-.6-1.08-2.44-2.72,3.84c1.55.64,1,1.3.29,2-.42.38-.59,1.15-1.41.86l-.42,2.25c-.41-.51-.81-1-1.22-1.52l-.37.21.91,2.34.34,0,.31-1c.72.44,1.1.09,1.53-.52a8.1,8.1,0,0,1,1.88-1.76c-.31,1.27-1.94,1.95-1.32,3.79.51-.22,1.31-.31,1.45-.65.51-1.34.92-.58,1.41-.06,0,.06.14.06.19.09l4.05-2.36-4.58-.4,2.05-1.48c0,.79.23,1,1.05.75a16.78,16.78,0,0,1,4.13-1l-1.58.77.06.23,3.37-1c1.08-.34,1.85-1.57,3.53-1.29-2.68,2.26-6.21,2.18-8.47,4.57a20.93,20.93,0,0,0,10.06-2.3l.15.28L190,226.69l-.2-.31.58-.5-.07-.19-4.67,1.85.09.42c3.74.65,7.26-.84,10.93-1.25l-7.25,2.71c1.27.55,2.45,1.12,3.77.28a8.44,8.44,0,0,1,2-.65l.22.38-4.24,3,.7.75-1.22.71,2.62,2.18-.09.07-3.31-1.67,0,0c-.32-.18-.64-.5-1-.51a7,7,0,0,1-4.28-1.6,1.58,1.58,0,0,0-1-.22,19.59,19.59,0,0,0-2.1.43l6.86,5.42c-3-1.42-6-3-7.92-5.85l-.39.29,4.42,9.34-1.14-.44,1.83,7.18c.62-1-.88-2.1.39-3.3,0,1.79,1.18,3.29.14,5.17l.87-.44.92,5.3c-.29-.06-.46-.05-.5-.12a47.62,47.62,0,0,1-3.43-5.59c-1.47-3.26-2.68-6.64-3.9-10-.29-.79,0-1.78-.31-2.56-.72-2-1.63-3.86-2.44-5.79a82.39,82.39,0,0,1-3.6-10.8c-.59-2.18-1.22-4.35-1.82-6.53s-1.06-4.31-1.75-6.42c-.81-2.49-1.79-4.93-2.74-7.37-.13-.33-.49-.78-.78-.81-1.3-.15-1.74-.91-1.76-2.1a2.55,2.55,0,0,0-.25-.66c.2-.18.54-.32.6-.54.47-1.72-.38-3.17-1.08-4.63s-1.52-2.79-2.18-4.24-1-2.79-1.62-4.1c-.41-.83-1.13-1.35-1.33-2.48-.22-1.31-1.4-2.45-2.16-3.66l-.42.27,2.14,3.33-.29.22-1.71-2.32-.33.16,3.56,7.84.29-.1v-.82c.42,2.22,2.23,3.84,2.21,6.36,0,1.58,1.54,3.17,2.39,4.75l-2-1.35L162,196l-1.31-2.88-.3.12c0,2.24,1.22,4,2.09,6l.39-.12a6.14,6.14,0,0,1-.38-1.22,3.46,3.46,0,0,1,.22-1c.3.26.76.46.88.78a11.7,11.7,0,0,1,.41,2,1,1,0,0,1,0,.47c-.77,2.07,1,3.36,1.53,5a4.08,4.08,0,0,1,.36.88,3,3,0,0,1-.19.88l1.25,4.21,1.21.28-1.06,1.46-.91-.23-.28.2a6.44,6.44,0,0,0,.74,1.25c.19.2.62.16,1.05.25a1.26,1.26,0,0,0-.22.53c0,.33,0,.84.2,1,1.21.86,1.23.83.58,1.82l1,.47-.09.25-.87-.11c.89,1.63,1,3.55,2.67,4.76.25.56-1.23,1.53,0,2,.16,1,.32,1.82.43,2.67,0,.3.06.76-.12.92-1,.91-.11,1.59.36,2.1s1.12,1.64,2.53,1.09c.12,3.52,1.9,6.49,2.93,9.69s3.16,6.07,5.17,9.25l-1.38-.21a11.34,11.34,0,0,0,.79,1.31c.54.7,1.13,1.35,1.7,2,.72.84,1.47,1.65,2.16,2.51a16.43,16.43,0,0,1,1,1.68,18.54,18.54,0,0,1-6.12-5.56,35,35,0,0,1-2.72-4.34c-1-2.05-1.86-4.21-2.75-6.33-.44-1.06-.79-2.16-1.25-3.21-.25-.58-.76-1-.09-1.74.17-.18-.18-.87-.3-1.34-1.18-.24-1,.69-1.11,1.25-.32,1.19-.52,2.4-.88,3.58a3.21,3.21,0,0,1-1.12,1.53c0-.13,0-.3.05-.39,1.32-1.6,1.2-3.56,1.34-5.44a3,3,0,0,0-.36-1.09c-.36.2-.82.33-1,.63-1.72,2.34-3.35,4.76-5.1,7.08-.94,1.23-2.06,2.32-3.12,3.46-.11.11-.4,0-.6.06l0,0c1.27-1.56,2.56-3.1,3.81-4.68.84-1.07.78-1.32-.39-2.44a5.52,5.52,0,0,0,3.36-3.52,2.45,2.45,0,0,0-.07-.84c-.27.14-.68.21-.8.43a20.34,20.34,0,0,1-1.3,2.34c.12-.71.27-1.41.36-2.12,0-.24,0-.62-.19-.72a.75.75,0,0,0-.72.16c-.66.72-1.26,1.49-1.88,2.25l-.51-.47c1.09-1.28,2.17-2.57,3.25-3.85-1.08-.93-1.67-.79-2,.39-.07.22-.17.53-.34.61-1.68.75-3.37,1.46-5.07,2.17a11.38,11.38,0,0,1-2.81.89l6.39-4.47-.25-.46-.75.22c-2,.73-4,1.51-6.07,2.13-.47.14-1.13-.28-1.68-.49a5.77,5.77,0,0,0-3.74-.07,3.9,3.9,0,0,1-1.73,0c1.42-.35,2.84-.74,4.27-1,.22,0,.53.29.79.44s.24.2.37.22a7.23,7.23,0,0,0,6.9-2.34s0-.15,0-.32l-6.84,2.38-.19-.45,7.21-3.23,0-.45c-.46-.1-1.06-.43-1.33-.26-1.81,1.16-4,1-5.89,1.63a1.61,1.61,0,0,1-1.19.05l5.94-2.51c-1.21-1.29-1.9-1.49-3.37-.75-.62.31-1.61.23-1.77,1.27a10.84,10.84,0,0,1-1.24,0l1.37.93-2.72-.4,1.31,1c-4.94-2.83-10.68-2.83-16-4.25l.11-.39,10.33,1.9c-1.22-2.14-3.84-1.77-5.27-3.52A40.42,40.42,0,0,1,145,225.1c2.12,1.12,2.58,1.12,4.27-.72a10.19,10.19,0,0,0-2-.91c-1-.21-2.07-.16-3.09-.32a5.18,5.18,0,0,1-1.26-.6l-.56-.26-.18.58c-.15-.05-.56-.07-.62-.24-.55-1.35-2.86-.56-2.94-2.48,0-.75-.06-1.4.55-1.62.14.8,0,1.79.46,2.27s1.46.57,2.36.72c-.82-1.26-1.48-2.51-.94-4.12l-.43,0-.84.65-.29-.31,1.21-1.17,1.11,1.34c.31-1.56-.93-1.91-1.48-2.61a.76.76,0,0,0-1.37.12c-.07.12-.4.1-.61.15.06-.17.22-.41.16-.49a2.81,2.81,0,0,0-.65-.49l2-1c-.06-1.11-1.06-1.55-1.92-1.86-1.45-.53-2.85-.93-3.85-2.33a2.5,2.5,0,0,0-3.78-.71l.19-1.24,3.67-.51a22.64,22.64,0,0,1-2.37-2.83c-.69-1.13-1.86-1.24-3-1.92l1.17.05L130,202l-5-2.61.63-.33-3.42-2.13.11-.22c1.85.93,3.74,1.79,5.53,2.81.75.41,1.27.84,1.87-.11.09-.16.41-.18.55-.24l2,3.07.17-.11-.53-1.85.85-.35-.84-.91c0-.33.21-.77.07-.94-.6-.71-1.33-1.32-2-2-1.26-1.36-2.5-2.74-3.74-4.11l2.27,1.13c.8.4,1.61.8,2.4,1.22a1,1,0,0,1,.39.41,5.25,5.25,0,0,0,4.28,2.73c-.38-.71-.83-1.55-1.47-1.74-1.12-.33-1.24-1.34-1.86-2l3,2.11.26-.4c-1.08-.73-2.09-1.88-3.25-2.06a7.47,7.47,0,0,1-2.52-1.21,10.55,10.55,0,0,0-2.43-.88c-.19,0-.5.49-.77.73-.06,0-.22,0-.33,0a2.81,2.81,0,0,0-.52-.46c-.64-.33-1.31-.63-2-.94l.09-.29h1.59l.16-.34a70,70,0,0,0-6-3.77c-2.14-1.09-4.48-1.8-6.7-2.73,5.74,1.08,10.81,4.23,16.54,5.3l.23-.47c-1.54-.88-3-1.84-4.63-2.62s-3.28-1.38-4.85-2.28l3.7,1.09-.65-.82c1.61-.78,2.76.49,4.06,1l.14-.27-4.09-3.13c-.72-.56-1.57-.84-2.06-1.82-.38-.74-1.49-1.12-2-1.77l-2-3.18c1.56,1.45,3.06,3,4.7,4.35a32.3,32.3,0,0,0,3.49,2.21,15.27,15.27,0,0,0-.31-1.7,3.11,3.11,0,0,0-.71-1.43c-2-1.65-4.08-3.25-6.16-4.82a5.46,5.46,0,0,0-1.36-.55l-.29.22.65,1.68-1.86-2.33,2-.31c-.53-.58-1-1.16-1.56-1.69s-.33-.92.2-1.26c.73.27.93,1,1.39,1.48a13,13,0,0,0,3,1.76l.26-.47a18.27,18.27,0,0,1-2.08-1.17c-.68-.52-1.24-1.19-1.87-1.78-.11-.11-.32-.24-.4-.2s-.21.26-.31.41c-.45-.51-.77-1-1.71-.88-.71.07-1.5-.76-2.26-1.45l2,.19a42.62,42.62,0,0,0-5.61-6.13c-2.72-2.5-5.77-4.81-7.53-8.23l2.08.66c-.27,1,.9,2.54,2.55,3.34l.45-1.11,7.83,4.35c-1.51-2.36-4.18-3.15-6.37-4.57l.17-.26,1.36.69a1.3,1.3,0,0,0-.69-1.83,21.17,21.17,0,0,1-1.91-1.21c-.59-.41-1.19-.84-.81-1.61l2.13-.22-1.1.81,6.23,3.47-.79.17-.1.34,3.89,1.72c-1.17-2.29-3.6-3.54-4.5-5.93l.29-.24c.64.74,1.25,1.51,1.94,2.2s1.62,1.42,2.36,2.19c.54.56,1.78.42,1.62,1.78,0,.33,1.06.71,1.5,1.19a22.56,22.56,0,0,0,5.91,5,20.24,20.24,0,0,1,3.1,2.57,5.56,5.56,0,0,0,.79.45l.27-.31-1.67-1.5.19-.32,4.29,2.57h-1.35a18.91,18.91,0,0,1,3.71,3.31,5.93,5.93,0,0,0,1.84.82l.21-.36c-.42-.3-.83-.61-1.26-.89s-.9-.43-.87-.51c.26-1-.71-.9-1.13-1.28S132.39,167.12,132,166.75ZM120.19,149l3,2.42.29-.43-3.36-2L117,146.52l-.33.48Zm3-36.8c.48-1.44-.76-2.17-1.16-3.24l-.33.14,1.49,3.1,2.27,4.35a20.7,20.7,0,0,0-1.6-4C123.79,112.34,123.42,112.31,123.2,112.21ZM143.5,208c-.24-.3-.42-.72-.72-.85a5.7,5.7,0,0,0-1.47-.23c.33,1.37,1.17,1.79,2.22,1,.28,2,2.25,1.65,3.5,2.76A4.9,4.9,0,0,0,143.5,208Zm-20.93-41.11c.34.19.68.37,1,.59,1.07.73,2.12,1.49,3.21,2.18.21.14.58.05.88.06a3.46,3.46,0,0,0-.64-.68c-1-.64-2.06-1.27-3.13-1.83a5.15,5.15,0,0,0-1.33-.28c.1-1.08-1.32-2-2.83-1.68a16.69,16.69,0,0,0,1.47,1.11A8.09,8.09,0,0,0,122.57,166.92ZM99.11,77.25c-1-1.31-1-3.32-2.88-4.18.58,1.14,1,2.2,1.64,3.17a4.88,4.88,0,0,0,1.27,1c.22,1.59,1.56,2.07,2.9,3.06l-.8-1.63.64.24.24-.18-1-1.54-.23.13v.79ZM184,191.52l1.31-1.79c-1.62.27-2.35,1-2.37,2.35l1.09-.59-.79,1.37c3.14-.44,3.63-3.44,5.19-5.44a31.75,31.75,0,0,0-2.52,2.4C185.32,190.43,184.65,191,184,191.52Zm-55.39-34.1L127,155.55l-.31.3a2,2,0,0,0,2,1.54c.24.26.42.62.71.77,1,.54,1.36,1.21.68,2.27-.12.19.08.58.14.88l.24,1.16-.28.12,1.84,1-.18-.85c.91,0,.41-.6.36-1-.13-1-1.5-1.61-1-2.86Zm1.86-58.26c-.23,1.65-.43,3.3-.7,4.94-.16,1-.42,2-.69,3.33l1-.5c-.45,1.3-1.06.67-1.71.07l-.19,1.06a1.11,1.11,0,0,1,1.08,1.52c-.32,1,.07,1.54.77,2.36l1-2.39c-.13,1.77-1.05,3.5,0,5.22.93,1.53.86,3.64,2.35,4.56.49,1.27.83,2.4,1.35,3.42a30.17,30.17,0,0,0,1.8,2.75c.54.85,1.07,1.71,1.6,2.56l.22-.05v-5.9c-2.28-1.3-1.82-3.41-2.4-5l-.81,1.75-.38-.09-.36-4.13h-.27l-.5,4.26c-.16-.25-.33-.41-.3-.5.6-1.79-.17-3.58.07-5.43.29-2.25-.32-4.62-.57-7.15l-.83.72v-.82L130.07,107c.12-.58.24-1.15.35-1.73.3-1.63.65-3.26.86-4.91.05-.43.37-1.45-.83-1.13-.36-.13-.89-.47-1-.35a13.58,13.58,0,0,0-1.41,1.69,7.46,7.46,0,0,0-1.21,2.7,8.17,8.17,0,0,0-.15,1.93l.48.12a7.43,7.43,0,0,0,.83-1.21c.64-1.47,1.21-3,1.85-4.44C129.89,99.43,130.24,99.32,130.48,99.16Zm56.37,103.48c-.21-.25-.4-.69-.62-.7-1.5-.07-2.33,1.12-3.37,1.91-.07.06,0,.3,0,.58,1.61.11,3.17.23,4.74.32,1.11.06,1.41-.32,1.32-1.55l-1.46.17-.89,1.13-.32-.19c.19-.57.39-1.13.59-1.69.83.71,1.27-.21,1.85-.46a2.69,2.69,0,0,0,1.45-3.2l-.52.22C188,199.79,187.66,201.4,186.85,202.64Zm-53.28-11c-.13-.33-.17-.81-.41-1a11.92,11.92,0,0,0-2.23-1c-.89-.31-1.82-.5-2.73-.74l-.2.53c1.26.58,2.52,1.19,3.81,1.73a11.8,11.8,0,0,0,1.77.46l-.75.23,5.53,3.43c-.13,1.07.5,1.82,2.5,2.77,0-.07.08-.16,0-.21a14.91,14.91,0,0,0-6.17-6.36C134.47,191.29,134,191.54,133.57,191.6ZM116.74,85.94l1.85,2.88a9.25,9.25,0,0,0,.37-1.07c.32-1.85.63-3.71.91-5.57.07-.42.18-1.1,0-1.26-.94-.71-.48-1.54-.43-2.38.06-1.09,0-2.19,0-3.67-.46,1-.83,1.66-1.09,2.37-.46,1.29-.74,2.64-1.3,3.88a5.17,5.17,0,0,0-.31,4L116,85c-1.07-1.65.83-3.33-.41-4.93,0,0,.1-.22.11-.33.45-2.67,1-5.32,1.31-8a30.25,30.25,0,0,0,0-3.81l-.45,0-1.26,8.63-.26,0v-2.9h-.19l-.88,3.1-.22,0-.2-3.31-.54,0V79.2l-.27,0-1.14-6.69a7.15,7.15,0,0,1-.76.3.49.49,0,0,1-.24,0c.46-3.56-1.45-6.62-2-9.8l-1.24-1.5-.23.09,2.26,6.24c-.3.47-.69.8-.66,1.09a28.79,28.79,0,0,0,.89,6.39c.46,1.36.38,3.14,1.89,4.1.12.08-.06.6-.12,1.06.27.59.71,1.41,1,2.29.62,1.74,2.2,3.15,1.83,5.26,0,.27.31.62.51.91s.48.68.81,1.14l-1.13.14-.25,1.94,1.64,2.53.39-.21c-.24-.59-.51-1.18-.71-1.8s-.29-1.15-.43-1.73c2.64,4.19,3.93,8.93,6.44,13.09l.27-.11-.17-1.81c.1.05.2.07.22.12a12.74,12.74,0,0,1,.45,1.36c1.09,4.64,3.46,8.65,6.13,12.53a23.76,23.76,0,0,1,1.4,2.7l-.29.2-.8-1.14a11,11,0,0,0,.06,1.77c0,1.27.18,2.36,1.71,2.62.21,0,.41.35.53.59a21,21,0,0,1,1.06,2.38,1.22,1.22,0,0,1-.14,1.1,1.57,1.57,0,0,0-.34,1.93,19.37,19.37,0,0,0,.93,2.15c.7,1.52,1.37,3.05,2.11,4.54,1,2,2,3.93,3,6l.57-.79c.69,1.76,1.35,3.38,2,5a12.59,12.59,0,0,1,.63,2.15c.1.52-.17,1.14,0,1.6,1.18,2.78,2.4,5.55,3.71,8.27,1.1,2.29,2.35,4.51,3.53,6.77l.3-.13L147,159.37c2.73,5.45,4.35,11.46,8.26,16.29l.3-.16-.83-1.66c0-.08.29-.36.24-.53-.51-1.59-1.08-3.16-1.61-4.74-.17-.52-.22-1.07-.41-1.58-.51-1.34-.44-2.88-1.61-4a5.1,5.1,0,0,1-2-3.28A11.93,11.93,0,0,0,148.3,156c-1-2.22-2.08-4.38-3.08-6.58-1.69-3.7-3.32-7.42-5-11.12-.74-1.61-1.7-3.12-2.42-4.75-1.31-3-2.51-6-3.77-9l-.63.43a9.48,9.48,0,0,0-.33-2c-.67-1.66-1.39-3.31-2.2-4.9-.55-1.07-1.38-2-2-3.07-1.15-2.17-2-4.5-3.37-6.53a20.52,20.52,0,0,1-3.26-6.57,10.43,10.43,0,0,0-.78-2.13c-.2-.41-.76-.66-.88-1.06-.37-1.3-.55-2.65-.92-3.94a15,15,0,0,0-1-2.17c-.1-.2-.14-.43-.23-.63-.21-.45-.43-.89-.65-1.34a14.68,14.68,0,0,0-.64-1.94,4.89,4.89,0,0,1-.32-1C116.78,87.08,116.78,86.5,116.74,85.94Zm-6-19.87c.22-2-.44-3.93.32-5.81l.32,0,.63,6.49h.2l1.21-6.55.47,0c1.31,3.93.44,8,.69,12.06a1.7,1.7,0,0,0,.5-.84c.38-1.79.73-3.59,1.11-5.39.62-2.85-.77-5.21-1.85-7.65-.38-.87-.75-1.76-1.12-2.64l.36-.17,1,1.78.84-2c-.85-1.1-2.35-1.37-3.75-1.77-2-.58-2-.52-2.21,1.5,0,0,0,.09,0,.12-.84,1.16-.08,2.26.12,3.38.12.65.52,1.39.34,1.94C109.15,62.55,110.39,64.23,110.71,66.07ZM98.15,130.3l-.23.27c1.67,1.47,3.3,3,5,4.4,1.9,1.55,3.87,3,5.84,4.48.8.59,1.3,1.49,2,2.09,1.47,1.25,3.13,2.28,4.72,3.39,1,.67,1.94,1.28,2.87,2,1.68,1.28,3.34,2.55,5.46,2.82-1-2.25-3.73-2.88-4.94-5.15a15.65,15.65,0,0,0-3.64-4,47.45,47.45,0,0,0-4.16-3l-.26.33.54.75-.08.07L104.13,133l-.32.4a17.28,17.28,0,0,1,1.77,1.4,4.83,4.83,0,0,1,.67,1.18c-.47,0-1,.09-1.37-.15-1.09-.79-2.08-1.72-3.13-2.58S99.35,131.29,98.15,130.3Zm54.81,21h-2.55l.06,1.11-1.19-.93-.25.19,2.52,5.54.39-.09c-.12-.75,0-1.8-.43-2.17-.6-.51-.56-.73-.16-1.17,1.17-1.29,2.35-2.56,3.54-3.83,1.74-1.84,3.64-3.55,5.18-5.54a74.27,74.27,0,0,0,4.32-6.7c.94-1.51,1.77-3.09,2.67-4.63.45-.79.94-1.56,1.41-2.34l-.29-.2c-.66.72-1.38,1.4-2,2.16-1.07,1.33-1.95,2.83-3.14,4.05a10.11,10.11,0,0,0-2.71,4.63,4.28,4.28,0,0,1-.89,1.48c-.31.39-.82.64-1.09,1.05-.48.71-.84,1.49-1.25,2.25l-.4-.18.49-1.83C155.84,146.59,153.09,148.13,153,151.32Zm34.74,2.56a49.37,49.37,0,0,1-3.36,3.84c-1.62,1.52-1.37,4.08-3.24,5.42-.15.1,0,.53-.12.79a5.25,5.25,0,0,1-.53,1.27c-.29.43-.89.72-1,1.17-.38,1.24-1.41,2.31-1,3.77,0,.14-.12.37-.24.53-.5.65-1.07,1.25-1.51,1.93a6,6,0,0,0-.5,1.35,10.15,10.15,0,0,0,2.68-2.76,19.39,19.39,0,0,0,1.2-3.77l.49,1.34c.45-.84.74-1.42,1.08-2s.74-1.16,1.11-1.75l.26.07-.36,1.76c1.39-.08,2.55-2.86,2.13-4.39C186.42,159.69,186.91,156.76,187.7,153.88ZM121.8,89.75l-.25,0c0-.5-.06-1-.07-1.52s0-.92,0-1.38l-.33,0c-.84,2.28-2.82,4.52-.14,6.93l1.62-.68c0,1.1-1,2.4,0,3.69,1.06-1.09,3.76-13.57,3.2-14.9-.78,1.74-.25,3.81-1.5,5.41-.88-1.48,1-2.81-.06-4.25-1.09,2-2.3,3.75-.6,6l-.42.1-1.17-1.41ZM141,118.22l-.6-.13c-.19.87-.42,1.73-.56,2.61-.22,1.42-.28,2.89-.6,4.29a12.78,12.78,0,0,0,1.91,10.16A2.53,2.53,0,0,0,142,132l.87-1.05c-1.06.07-1.24-.1-1.18-1.1.09-1.6.26-3.2.4-4.87l1.5-.2-1.28-.57,1.17-1.46c-1,.13-1.86-.12-2.18,1-.07.26-.39.45-.59.68-.17-.31-.48-.62-.47-.92a15.83,15.83,0,0,1,.36-1.74C140.73,120.6,140.85,119.41,141,118.22Zm-6.84-48.73-.25.08c.31,1.81.7,3.61.91,5.42s.23,3.66.34,5.66c-.27-.22-.51-.32-.53-.45-.11-.88-.15-1.76-.26-2.64a3.92,3.92,0,0,0-.31-.91c-.12.28-.37.57-.34.84a30.5,30.5,0,0,1,.42,3.54c0,.77.34,1.1.86,1.14.26,0,.72-.54.84-.91a15.52,15.52,0,0,0,.61-6.87,3.57,3.57,0,0,1,0-.79,19.19,19.19,0,0,0,.37-4,25.56,25.56,0,0,0-1.2-4.37c-.35-1.18-.73-2.36-1.1-3.53l-.48.13,2.28,11.06-.19,0-1.87-6.36-.36.1.82,3.43-.18.07Zm-30.49-7.37c-.09,0-.05,0,0,0l-.33-2.81.32-.08,2.27,7.14c1.58-.69-.12-2,.63-2.72a8.11,8.11,0,0,1,.84,4.13,2.14,2.14,0,0,0,.92,2.38c-.1-2.17,0-4.14-.88-6-.64-1.3-1.37-2.84-1.21-4.17.25-2.18-.8-3.68-1.53-5.23l-1.19,2.09-.89-2.71c-1.39,1.53.78,2.35.49,3.55-.42-.26-.8-.52-1.21-.74a1.32,1.32,0,0,0-.53,0,1.85,1.85,0,0,0,0,.58C102.09,59,102.85,60.5,103.65,62.12Zm89.77,140.93.38.37,1.26-1.06c-.76-.68,0-.67.38-.83a3.51,3.51,0,0,0,2.19-4c-.4.22-.81.39-1.16.63-1.45,1-2.82,2.13-4.35,3s-1.8,2-2,3.49l1.73-.22c-.75.61-2.5.19-1.71,2.12a1.94,1.94,0,0,0,.54,0l5.09-1.66c1.6-.54,1.73-.93.9-2.39l-4.08,1.7c-.09-2.6.13-2.89,1.45-2.38Zm-39-59.37c1.3-.76,2.43-2.85,1.92-3.91a2.61,2.61,0,0,1,.08-2.19c.33-1,.54-2.08.8-3.13l-.49-.15-2.24,5.51-.3-.52a4.43,4.43,0,0,0-2.33,3.06c0,.27-.73.44-1.26.73-.15.63-.31,1.49-.57,2.31-.09.28-.44.47-.67.7-.62-.67-.45.32-.73.35a5.25,5.25,0,0,0,.19,1.05,3.34,3.34,0,0,0,.42.66c.14.2.26.41.39.62.24-.15.6-.24.7-.46.49-1.07.88-2.19,1.39-3.25a15.81,15.81,0,0,1,1.17-1.76l.21.18-.2,1.07.26.14,1.59-2.26Zm28.19,67-.13.31-1.09.16.45,1.34.75-.45,2.08,1.14.31-.42-.89-.71.85-1.38-1.43.41,0-1.09a5.7,5.7,0,0,1,1.8-.12c1.52.45,1.47-.46,1.45-1.46a4.77,4.77,0,0,1,.16-1c0-.09.11-.16.19-.27l.35,1c.36-1.07.6-1.82.84-2.55-1.65-.17-3.15-.34-4.65-.46-.15,0-.4.26-.47.44-.24.63-.41,1.27-.6,1.91,0,.06.05.14.1.25l.43-.5.29,1.28-1.41-.29-.38,2Zm-15.18-46.92c-2.42,3-3,4.87-2.22,6.82l.74-1.48.26.23-2.15,4.76.21.14.79-.43a3.48,3.48,0,0,0-.45,3.92,1.11,1.11,0,0,0,.39-.55c.92-2,1.85-4,2.73-6a3,3,0,0,0,.07-1.09c0-.58-.16-1.27.09-1.73C168.85,166.6,167.17,165.31,167.46,163.74Zm-17,35.18c.64,1.42,1.16,2.6,1.71,3.77a1.39,1.39,0,0,0,.51.48,10.1,10.1,0,0,0,5.82,1.64c.12,0,.39-.82.34-.86a11.84,11.84,0,0,0-2-1c-.9-.34-1.83-.57-2.75-.85l.1-.42a13,13,0,0,0,1.61.29,12.11,12.11,0,0,0,1.69-.12c-1.41-2.41-3-3.2-4.34-1.95l1.12.3-.37.35ZM156,156c-.8-1.45.51-2.24.82-3.24a13.62,13.62,0,0,1,1.74-3.1c.57-.9,1.25-1.73,1.88-2.58-3.8,3.23-5.79,7.19-5.33,10l.54-.86c.12.13.21.19.21.25a2.3,2.3,0,0,1-.05.45c-.56,2.46-1.86,4.81-.84,7.52a10.35,10.35,0,0,0,.83-2.54c.17-1-.15-2.17,1.16-2.68.15-.06.24-.31.31-.5q.93-2.28,1.83-4.58c.08-.22.12-.46.26-1l-1.51,1.7-.69-.51Zm44.24,30.72c-.32.18-.63.26-.78.46-1.61,2.14-3.73,4-4,6.94a1.94,1.94,0,0,1-.58,1c-.28.32-.72.5-1,.83a13.61,13.61,0,0,0-.86,1.41,5.89,5.89,0,0,0,5.14-3.9C198.9,191.26,199.51,189.05,200.22,186.69ZM126.58,69.11l-.31,0c-.67,5-2.26,9.83-3.65,14.72,1.37-1.1,1.69-2.79,2.47-4.22s2-2.77,2-4.6c0-1.58.19-3.15.3-4.73h-.09L127,71.54l-.22-.05Zm21.7,124.53-.26.19a9,9,0,0,1,.81,1.73,4.45,4.45,0,0,0,5.81,3.19l-.93-.79.84-.38c0-1.76-1.82-1.06-2.29-2,0-.52,0-1.11-.32-1.35a24.18,24.18,0,0,0-3-1.9c-.66-.35-1.24-.61-1.39-1.47-.07-.42-.51-.77-.79-1.16,0,2.23.94,3.11,5.07,5.15l-.31,1Zm-27.87-26.33.3-.52-9.26-5.49-.11.13,2.66.73-6.8-3.88c1,1.95,3.06,2.57,4.3,4.17a30.29,30.29,0,0,0,3.43,3.14,5.13,5.13,0,0,0,3.94,1.36l-1.19-1.09.06-.1Zm61.87-8.42c-3.18.57-9.09,8.4-9.28,12.22a13.94,13.94,0,0,0,1.37-1.51,12.58,12.58,0,0,0,2.76-3.8,32.25,32.25,0,0,1,2-3.79c.09-.16.23-.39.38-.41C181,161.36,181.36,160.06,182.28,158.89Zm-6.38-10.52c.72-.78,1.38-1.43,2-2.14a4.69,4.69,0,0,0,1-1.49c.81-2.64,1.53-5.3,2.28-8,0,0-.08-.11-.2-.24-1.34,2.13-2.69,4.2-4,6.33a7.57,7.57,0,0,0-1,2.51A16.47,16.47,0,0,0,175.9,148.37Zm-70.18-30.91.11-.43c-1.58-1.25-3.13-2.54-4.74-3.75-.66-.5-1.53-.73-2.18-1.25-1-.82-1.9-1.77-2.88-2.7,0,0,.27-.41.23-.45-.76-.68-1.56-1.31-2.34-2l-.43.35a27.11,27.11,0,0,0,2,3.34,11.84,11.84,0,0,0,2.15,1.64c.74.59,1.4,1.27,2.16,1.82,1,.68,2,1.24,2.94,1.89.72.47,1.38,1,2.12,1.48C105.05,117.58,105.42,117.46,105.72,117.46Zm47.11,8.26c-.47,1.92-.88,3.84-1.43,5.73-1,3.36-2,6.71-3.05,10a5.64,5.64,0,0,0,0,4.22,8.4,8.4,0,0,0,.74-1.68c.43-2.58,2.21-4.86,1.58-7.72-.17-.77.44-1.76.82-2.58A19.09,19.09,0,0,0,152.83,125.72ZM159,159.13c-.24,2-2.42,3.07-1.78,4.86.5,1.41-.58,3.28,1.44,4.45.55-4.49,1.08-8.82,1.62-13.16l-.3-.11-2.08,4.9.27.14Zm-2.85,49.75.07-.22a20.87,20.87,0,0,0,2.36.2c.33,0,.91-.26.95-.48a1.66,1.66,0,0,0-.29-1.31,7.28,7.28,0,0,0-4-2,2,2,0,0,0-.72.18,2.27,2.27,0,0,0,.4.59c1,.7,1.95,1.37,2.92,2.05a2,2,0,0,1-1.24-.15c-.78-.24-1.66-.22-1.78.67-.06.47.63,1.09,1.07,1.56.18.18.62.08.93.16s.57.18.59.31c.14,1.23,1.1.74,1.93,1l-.55-.62,1.13-.23,0-.33Zm-58.3-94.22-.28.35c.24,1,1.08,1.34,1.9,1.74a8.84,8.84,0,0,1,1.74,1.07c1.36,1.12,2.62,2.36,4,3.44,1.76,1.39,3.59,2.7,5.44,4,.36.24.94.15,1.42.21a83.74,83.74,0,0,0-6.9-5.73C102.76,118,100.27,116.34,97.82,114.66Zm30.47-34a19.76,19.76,0,0,0-.78-16.25c0,1.56-.3,3.36.38,4.62.94,1.75,0,3.42.54,5.2C129.06,76.14,128.39,78.51,128.29,80.62ZM100.81,65.53l.43-.19-2.12-4.7.24-.17L102.11,64l-1.65-6-.31.09.24,1.51-1.85-2.06s0-.24,0-.69c-.38.22-.75.33-.74.44a18.52,18.52,0,0,0,.2,3.73A7.89,7.89,0,0,0,100.81,65.53Zm41,154.66c.7.91,1.28,1.72,1.94,2.47.11.13.53.06.78,0s.44-.35.66-.36c1.61-.06,3.23,0,4.84-.11a11.29,11.29,0,0,0,1.72-.31l0-.42c-1.45-.56-2.79-1.54-4.65-1.1l1,1.34C144.36,219.76,143.51,219.87,141.82,220.19Zm-.91-44.66.35-.19c-.24-2.24-2.75-4.91-4.61-4.43l2.3,1.66-.16.23-5-2.45a4.65,4.65,0,0,0,2,2.73l3.3,2.11a1.29,1.29,0,0,0,.4.12v-1.79l.35-.06Zm23.94-46.29.55.26c.27-.68.59-1.35.79-2a38.23,38.23,0,0,1,1.07-3.84c1-2.31,2.12-4.54,3.24-6.89a10.06,10.06,0,0,0-1.58,1.53,50.14,50.14,0,0,0-3.32,5.59c-.46,1-1.39,2.12-.31,3.38.17.2,0,.74-.08,1.1A6.49,6.49,0,0,1,164.85,129.24ZM167,155.36h-.33c-1,2.07-.37,4.41-.92,6.57l-.19-1h-.28l-1.08,5.67.34.17a10.64,10.64,0,0,0,.74-.92c.57-.89,1.14-1.79,1.63-2.72a2.53,2.53,0,0,0,.11-2.89,2.12,2.12,0,0,1-.2-1.22C166.88,157.8,167,156.58,167,155.36Zm-29.24-46.42-.14,0v-2.21c-1.52,1.09-1.34,6.6-1.17,9.85,1.24-1.09,2.4-7.1,1.61-8.64Zm29.11,21.29.26.27,9.36-8.19-.15-.29c-1.2.46-2.66.64-3.54,1.44a58.12,58.12,0,0,0-4.55,5.21C167.83,129.2,167.36,129.71,166.9,130.23Zm17.75,66.36v-3.42c-.35.12-.65.2-.94.33s-.57.38-.88.41c-1.32.16-1.8.84-1.84,2.24a4.5,4.5,0,0,1-.72,1.95c-.39.68-.58,1.26,0,2a14.73,14.73,0,0,0,1.81-2.63c.95-2.37.88-2.4,1.65-2.52l-.35,1.19Zm-88.89-76c.5,2.09,6.67,8.07,8.43,8.23C101.7,125.81,99.2,122.86,95.76,120.63Zm70.48,57.57.23.33c.44-.23,1.09-.35,1.28-.71a9.4,9.4,0,0,0,1.05-3,15.43,15.43,0,0,0-.3-3.32,24.76,24.76,0,0,0-1.47,2.17,19.94,19.94,0,0,0-1.14,2.59c-.08.2.17.53.27.8l.23-.05Zm-24.52,36.65c.63,2.9,2.93,2.64,4.91,3.17l-1.12.19,0,.35,3.08-.2C147.12,215.59,144.21,215.91,141.72,214.85Zm43.95-34.91-.38-.28c-.11,0-.28,0-.33.06-1.21,1.46-2.87,2.59-3.31,4.62a1.49,1.49,0,0,1-.63.72c-1.3.87-1.74,1.81-1,3.07l.49-1.54a.76.76,0,0,0,.86-.12,3.24,3.24,0,0,0,.49-.75Zm-52.15,4.22c-.27-.73-.32-1.76-.85-2.14-1.59-1.14-3.36-2-5.07-3C128.31,182.24,131.14,182.88,133.52,184.16Zm-9.39-83.91c1.27-2,2.56-7.73,1.84-8.67a23.05,23.05,0,0,1-1,2.85c-.61,1.21-.58,2.87-2.35,3.49Zm61,131.07,1.23-.41c1,.72,1.95,1.89,3.78,1.84l-.63-.76.18-.18.92.61.79-1.2c-.68-.26-1.4-.55-2.14-.81a24.1,24.1,0,0,0-2.37-.74C185.79,229.41,185.38,230.21,185.11,231.32Zm-20.74-19.69c.5,0,.94.13,1.18,0s.75-.74.68-1a13.55,13.55,0,0,0-1.44-3.41,5.57,5.57,0,0,0-2.1-1.33c-.06,0-.58.57-.55.61.59.74.61,2.05,2,2.07.05,0,.1.1.19.2l-.44.63.7.37Zm6-14.94a7.59,7.59,0,0,0-1,1.43c-.55,1.29-.2,2.4,1.05,3.65.63-2.38,1.19-4.49,1.74-6.62,0-.15-.07-.47-.15-.49s-.55,0-.62.11C170.93,195.42,170.62,196.1,170.33,196.69ZM91.61,105.58c-.57-2.17-2.18-3.58-3.74-5.08l-.88.57,2.58,3.45-1.16-.24C89.09,106.07,90,106.44,91.61,105.58Zm9.29-38.84-.49.42,4.23,6,.46-.25c-.32-1.16-.55-2.35-1-3.46s-1.08-2.19-1.63-3.27l-.34.15.86,2.78ZM179,193.87c.17-.12.44-.22.46-.35.24-2,2.55-2.29,3.21-4a9.17,9.17,0,0,1,1.52-1.94c-2.35,0-3.74,1.28-4.19,3.62C178.75,191.3,178.56,191.79,179,193.87ZM156,150.3c-4.3,3.51-4.46,6.5-3.05,9.28C152.78,156.1,154.72,153.33,156,150.3Zm4.48-17.85c.15-1.42,1.68-2.44.61-4-.15-.22.32-.84.47-1.29.36-1.08.7-2.18,1-3.26-2.47,1.84-1.52,4.72-2.43,7.42L160,130l-.25,0-1.29,4.67.41.14,1.11-2.68ZM108.29,51.72l0,.32,7.91.56C114.46,50.56,110.7,50.26,108.29,51.72Zm-7.07,78.5.21-.22-8.07-7.88-.22.23C95,125.86,98,128.1,101.22,130.22Zm86.15,68.7-.24-.21c1.4-.62,1.6-1.79,1.67-3.07-2,.15-1.71.67-3.81,4.36l1.59-.9.18.19L185.25,201c1.62-.43,2.77-1.59,2.63-2.42ZM154.9,225.69c-.92-.44-5.74.17-6.94.87C149.14,228.09,153.27,227.57,154.9,225.69ZM137.34,178l-.16.31c1.34,1.65,2,4.09,4.79,4.15a3.14,3.14,0,0,0-1.59-2.83Zm9.56,19.61-.25.24a16.9,16.9,0,0,0,1.68,2.83,20,20,0,0,0,2.74,2.15l.34-.35a12,12,0,0,1-1.81-2.85C149.14,198.08,147.91,198.09,146.9,197.59Zm11.25-10.42.4-.46-4.26-8.59-.35.17c.24.6.49,1.21.72,1.81.81,2.1,1.59,4.21,2.46,6.28C157.26,186.72,157.79,186.91,158.15,187.17ZM126.43,94.43c-.43,2.91-1.87,5.43-1.08,8.19l.45.1,1.39-4-.31-.12L126,99.81C125.91,97.9,127.85,96.44,126.43,94.43Zm-7.35,37c-.26-1.42-2.34-3.15-6.47-5.46a5.49,5.49,0,0,0-1.94-.27C113.76,127.32,116.3,129.57,119.08,131.47Zm44.06,72.46a7.06,7.06,0,0,1-1.55-1,6.65,6.65,0,0,1-.77-1.61l-.29.15c.43,2.71,1.3,3.47,3.23,2.8,0-1.85-1.68-4.73-3.12-4.86C161.52,201,162.3,202.39,163.14,203.93ZM134,183c.28,2.07,1.19,2.83,2.29,2a4.39,4.39,0,0,0,3.81,3.07,15.54,15.54,0,0,0-1.94-2.39,39.61,39.61,0,0,0-3.52-2.4A3.85,3.85,0,0,0,134,183ZM83.42,94c-.83,1.74,1.91,6.15,3.83,6.34Zm61.57,96c.09-1.89-1.85-4-4-4.43A5.73,5.73,0,0,0,145,190.08Zm-18.16-17.61c-1.26-.92-2.55-1.82-3.78-2.79-.55-.43-1.57-.53-1.32-1.67,0-.18-.46-.48-.7-.72l-.21.19.1.61-1.54-.56C119.52,168.55,125.07,172.33,126.83,172.47Zm49.31,7.65.22.28c.24-.22.56-.39.7-.66a28,28,0,0,0,1.9-4,9.06,9.06,0,0,0,0-2.76,19.56,19.56,0,0,0-1.17,2.64,10.1,10.1,0,0,1-1,1.46,5.83,5.83,0,0,0-.6.83C177,178.7,176.5,179.4,176.14,180.12Zm9.2,38.46,4.9-1.76-.1-.33c-.95-.1-1.89-.26-2.83-.3C185.22,216.11,185.22,216.14,185.34,218.58Zm-54.75-89.1c-.58-1.19-1-2.12-1.5-3-.18-.33-.5-.74-.81-.79-1.2-.18-2.41-.22-3.74-.33ZM146.4,162l-.59.27q2.24,4.77,4.46,9.55l.62-.29Zm6.08,50.6,3.28.22.1-.35c-.91-.53-1.81-1.06-2.73-1.58-.51-.3-1.77.35-1.36-1.11a.92.92,0,0,0-.47-.27c-.54-.09-1.09-.14-1.63-.21l-.16.28a7.82,7.82,0,0,0,1.73,1.25C152.07,211.1,152.62,211.47,152.48,212.55Zm-14-1.55a12.87,12.87,0,0,0,1.69.74c.7.19,2,.08,2.06.41.4,1.16,1.34.79,2.1,1.24C143.63,211,140.49,209.61,138.51,211Zm24.69-61.85,2.56-6.46-1.6-.72c1,2.91-1.48,4.82-2,7.42Zm-62.84-38.79c-.07-1.27-5.87-6.8-7.17-6.73Zm76.78,106.17.46.11a14,14,0,0,0,.63-2.13c.09-.71.15-1,.92-.54.21.12.85-.32,1.11-.64.13-.15-.16-.64-.26-1-.86.27-2.08.27-2.49.85A3.46,3.46,0,0,0,177.14,216.53Zm11.75-33.42c-.16.51-.16,1-.41,1.25-.56.55-1.35.88-1.84,1.46a25.85,25.85,0,0,0-1.72,2.63,36.81,36.81,0,0,0,3.61-2.28c.18-.12.43-.46.38-.56-.4-.79.39-1,.64-1.52.15-.3.33-.58.55-1Zm-42.06,10.73a9.44,9.44,0,0,0-3.8-3.72c.14.63.56,1.1.71,1.65C144.27,193.65,144.86,194.12,146.83,193.84ZM87.69,69.35l-.54.4c1.41,2.19,2.73,4.46,5.06,5.91l.27-.21Zm45.89,9.94-.4-.12c-.88,3.76-2.67,7.3-2.56,11.31.57-1.84,1.07-3.69,1.54-5.55S133.11,81.17,133.58,79.29Zm11.76,125.33c-.27,1,0,1.62.73,1.66,1.26.08,2.53.09,3.79.1.63,0,1.26-.08,1.89-.12l0-.35c-1.71-.37-3.42-.75-5.14-1.08-.1,0-.27.38-.42.6Zm-.85,1.73c.41-2.06.19-2.57-1-2.78a6.53,6.53,0,0,0-1.25,0,6.31,6.31,0,0,0-.73.15c.08.28.07.69.25.83C142.58,205.15,143.46,205.68,144.49,206.35Zm33-3.79a3.12,3.12,0,0,0-.42,0c-.76,1.14-1.55,2.25-2.25,3.43-.13.22.08.67.18,1,0,.06.41.08.42.06a8.44,8.44,0,0,0,.2-.87c0-.14.08-.29.12-.46,1.22.62,1.24-.71,1.68-1.13S177.45,203.28,177.45,202.56Zm-48.26-120,.47.23a7.1,7.1,0,0,0,.83-1.32,26.6,26.6,0,0,0,1-3.15,22.12,22.12,0,0,0,.28-2.45l-.47-.09ZM91.49,95l.24-.22-4.21-5.32C87.19,91.05,89.76,94.37,91.49,95Zm95.58,114.47.42.14,4.68-2.39-.11-.31-2.86.43-.46-1Zm-8.94-27.61c-1.45,1.48-1.58,3-.44,5.33C178.48,186.11,178.75,182.85,178.13,181.81Zm-19.34-45.93-.33,0a7.75,7.75,0,0,0-.62,4.86c1-.7,1.84-2.45,2.08-4.37l-.32-.32-.9,1.52-.14-.18Zm-27.09-34,.31,0c1-2.59,1.35-6.69.5-8.3ZM120.24,85l.45.07c.13-1.09.26-2.18.38-3.26s.28-2.29.37-3.44c.22-2.76.2-2.76-.29-3.36Zm45,138.7c-.79-1.66-1.8-1-2.82-.45a2,2,0,0,1-.22.08c-.75.31-.65.71-.1,1.12C163.45,225.48,164.33,225.26,165.27,223.73Zm-29.41-55.22L139.5,171c-.12-2.2-1.73-3.1-3.45-3.93Zm39.93,45.94-1.43.14c0,1.1.59,1.47,1.76,1.51.2-1.18.4-2.31.6-3.44l-.21-.22c-.59.48-1.74-.38-1.87.95C174.61,213.69,175.35,214.06,175.79,214.45Zm-42.28-6.54a8.24,8.24,0,0,0,4.6,3.19A4.71,4.71,0,0,0,133.51,207.91Zm21.73-82.51A31.23,31.23,0,0,0,157.12,115l-.29,0Zm28.7,73c-1.32-.14-1.89.55-1.62,2.51a32.39,32.39,0,0,0,2.75-2.49,10.4,10.4,0,0,0,1.14-2.11l-.44-.25Zm-76-73.13.19-.29-6.67-5.12C101.52,121.07,105.11,123.82,107.94,125.27Zm27.74,40.63.49-.22c-.52-1.16-1-2.33-1.57-3.47a5.91,5.91,0,0,0-.81-1.07l-.26.15-.32-1-.35.15C133.7,162.31,134.07,164.43,135.68,165.9ZM91.13,96.14c1.78,1.82,3.22,4,5.66,5.15C95.59,98.83,92.88,98,91.13,96.14ZM87.8,76.05c0,.25-.09.42,0,.52,1,1.76,2,3.52,3.1,5.24.12.19.66.1,1.23.17Zm43.27,55.68c-.42-1.57-2.89-3.44-4.49-3.54C127.52,130.06,129.26,130.73,131.07,131.73ZM157.59,168c-.34,2.09.64,5.7,1.73,6.22C158.32,172.31,159.4,169.89,157.59,168Zm-45.23-37.56,5.61,3.71C117.33,132.45,113.89,130.17,112.36,130.43Zm7.5,34.15.28-.5L114.5,161l-.24.45C115.75,163.15,118,163.5,119.86,164.58Zm23.19,30.9.23-.23-4.08-4C139.28,193.34,140.61,194.7,143.05,195.48Zm11.71-95.65a12,12,0,0,0-.86,6.07A8.51,8.51,0,0,0,154.76,99.83Zm27.66,69.05-1.64,1.18-.2-.9-.26,0-.5,3.24C182.05,172.23,181.82,170.28,182.42,168.88Zm9,31.88c1.66-.43,2.32-1.83,3.3-3C192.28,197.75,191.76,198.05,191.4,200.76Zm-27-86a14.93,14.93,0,0,0-.78,3.08c0,.92-1.25,1.8-.16,2.84A6.41,6.41,0,0,0,164.41,114.75Zm-42,3.91c.53,2.27,2.93,2.25,4.18,3.57A7.1,7.1,0,0,0,122.42,118.66Zm37,98.81,0-.34-1.95-.26,0-.21,1.17-.42c-.81-1.09-1.71-.87-2.92-.29l1.29.77-.78.4C157.28,218.1,158.34,217.59,159.37,217.47Zm2.24-50.33v5.15C163.07,170.4,162.75,168.79,161.61,167.14ZM165,229.19l-.07,1,1.6-1.81-.19-.27-1.25.63.45-1.26c-1.07-.16-1.78.4-2.71,2.29Zm-7.11-16c.8,1.73,2.15,1.27,3.12,1.64v-2Zm7.4-61.3-.53-.15c-.64,2.43-1.29,4.87-1.93,7.31l.31.08C164.57,157,164.45,154.31,165.29,151.93Zm-9.46,65.82c-.55-1.77-1-2.05-2.85-1.78C153.19,217.71,153.86,218.13,155.83,217.75Zm5.36,6.38L159,225.91l.19.33-.8-.19c.18.48.62,1,.77.91a14.25,14.25,0,0,0,2.49-1.56C161.73,225.32,161.38,224.66,161.19,224.13ZM130.3,63.86l.35-.2-2.09-4.06.16-.06,1,.77a7.68,7.68,0,0,0-.21-.83c-.22-.59-.59-1-1.26-.65s-.54.86-.2,1.39C128.78,61.43,129.54,62.64,130.3,63.86ZM131,71c-.24,1.6-.49,3.2-.73,4.81C131.87,74.19,132.11,72.71,131,71Zm30.17,42c1.19-3.49,1.25-4.31.32-4.86C160.92,109.68,160.18,111.21,161.14,113Zm-9.65-28.17-.47,0c-.14,2.38-.27,4.75-.41,7.13l.56,0ZM134.4,189.22l.28-.32c-1.23-2.07-3.36-3-5.38-4.15Zm42.39-33.41c1.44-1.7,2.58-5.12,1.89-6.26Zm-34.7,42.07c-.18,1,1.16,1.91,3.69,2.49C144.87,198.94,143.83,197.9,142.09,197.88Zm-3-101.54-.62-.11-1.33,7.12.39.09ZM168.37,197c1.2-.45,1.51-1.2.93-2.21l-.87.75.11-1.17-1.12-.39c-.26,1.66.05,2.29,1.09,2.23ZM130.17,70.85c1.26-2.56.2-4.45-.74-6.7ZM166,227.39c.36-.59.89-1.07.82-1.41a6.05,6.05,0,0,0-.92-1.65l-1.46,1ZM135.05,96.88l.51.13c.47-1.72.94-3.43,1.4-5.15l-.45-.12C134.81,93.11,136,95.29,135.05,96.88Zm4.3,85.33-.25.31,4.05,3.52.24-.27C142.76,183.78,140.92,183.15,139.35,182.21ZM118,57.92l-.28.07,1.47,6.14C120.1,61.5,118.71,59.79,118,57.92Zm25.93,123.16c2.1,2.75,2.22,2.83,3.39,2C146.33,182.22,145.61,181.07,143.92,181.08Zm-33.4-48.19-.29.41c.82.79,1.61,1.61,2.47,2.36.18.16.61,0,.93,0-.08-.31,0-.73-.25-.9a14.22,14.22,0,0,0-1.71-1.26C111.3,133.3,110.9,133.1,110.52,132.89Zm48.05,59.72c.66,2,1.33,3.94,2.05,6.06C161.26,197.76,160.07,194.27,158.57,192.61Zm-13.79,2,3.53,2.39C147.79,194.82,147.36,194.52,144.78,194.64ZM144.67,175c-1.11,2,.84,2.73,1.36,4A4.67,4.67,0,0,0,144.67,175ZM136.4,140.6l2.55,5.15C139.34,144.09,138.12,141.72,136.4,140.6Zm-5.25-5.39.37-.3a2.42,2.42,0,0,0-.77-2.46c-.26-.19-.92.16-1.74.34Zm54.75,78.64c2.4-.49,1.15-1.69,1-3.08-.59.63-1.22,1-1.36,1.52S185.78,213.39,185.9,213.85ZM128,87.54l.46.12c.41-1.37.82-2.74,1.2-4.12,0-.12-.22-.46-.34-.46s-.5.18-.54.33C128.46,84.78,128.22,86.16,128,87.54Zm-7.68-14.65c1.13-2.53,1.29-4.82.33-6.11Zm15.24,29.19c-1.41,1.8-1.45,4.15-.29,5.08C135.32,105.56,135.42,103.86,135.52,102.08Zm-24.4-20.3-1.47.48,2.51,2.68.39-.27Zm44,139.91c-.77-1.72-2-2-4.14-1.15Zm.57,2.05c-.89-1.45-2.77-1.54-4.38-.22Zm19.82-14.13-.63,2.6c1.81,0,2.24-.46,1.67-2C176.21,210.14,175.38,210.68,175.56,209.61Zm-48.17-31.73-4.24-2.72-.2.31C124.24,176.57,125.32,178,127.39,177.88ZM93.58,71.15c-.53-1,.1-3.05-2.22-2.46C91.24,70.22,92.81,70.36,93.58,71.15ZM156.06,164l-.36,0c-.29,1.39-.63,2.78.67,3.88l.38-.07Zm-3.9-67.54c-1.21,1.59-1.1,3.35-1,5.12l.37.05Zm-3.46,129,.05.29,4.59-1.08C151.22,223.43,150.12,225.14,148.7,225.5Zm17.74-7.84c-.62,1.12-2.32,1.06-1.65,2.84l2.23-1.32ZM128.7,90.52c-.8,1.32-2.07,2.52-1.27,4.2l.41.08Zm9.4,93.36c.22-1.14-1.75-1-1-2.33-.17-.07-.35-.23-.51-.22-.45,0-.89.18-1.45.3C135.63,182.94,136.89,183.35,138.1,183.88Zm12.47,23.83c.28,1.25.86,1.58,2.61,1.56C152.29,207.72,151.73,207.36,150.57,207.71Zm5.17,7.42,1.54-.77a9.76,9.76,0,0,0-1.55-1c-.1,0-.59.55-.68.9C155,214.47,155.44,214.78,155.74,215.13Zm-22.21-76a3.79,3.79,0,0,0,2.89,3.18l-1.52-2.8-.55,1.18Zm48.05,73.67-.81,1.47.23.44c.54-.09,1.37,0,1.56-.31C183,213.7,182.76,213,181.58,212.84Zm-36.12,1.75,0-.32c-1.57-.25-3.13-.52-4.7-.74-.07,0-.2.38-.36.69Zm-33.54-83.26-.27.35,4.42,3.35.27-.38Zm49.45,26.59c-.48.28-1.13,2.87-1.07,4.86a9.09,9.09,0,0,0,.86-2.33A19.33,19.33,0,0,0,161.37,157.92Zm7.81,70.58c-.92.85-1.61,1.5-2.31,2.16-.08.08-.21.17-.22.27a4.9,4.9,0,0,0,0,.66c.25,0,.6.06.73-.08a12.09,12.09,0,0,0,1.51-1.76A3.76,3.76,0,0,0,169.18,228.5Zm-6-13.34.3-.23v-2.12a4.12,4.12,0,0,0-1.07-.08,1,1,0,0,0-.52.43C162.29,213.84,162.74,214.5,163.18,215.16ZM148.4,186.33c-.89-1.25-2.51-1.9-3.38-1.32C146.23,185.27,146.86,186.8,148.4,186.33ZM136,111.4c-1.46,1.37-1.66,2.62-.63,4.14Zm56.39,103.38c1.25,1.43,2.06,1.36,2.92-.34ZM132.08,67.9l-.54.08,1,5.61.32,0Q132.45,70.72,132.08,67.9Zm-38,12.49c0-1.93-.91-3.19-2.41-3.52Zm72.12,111,.82-2.34C164.9,189.21,164.83,189.38,166.2,191.43Zm-45.7-47.27c.49,1.51,1.78,2.49,2.92,2.2Zm47.13,13.57h.4v-4.39h-.4Zm-50.95-98a2.44,2.44,0,0,0-1.58-3.31ZM96.81,120.25l.75-.73-3.38-3.15-.29.31Zm39.59,80.68.32-.48-3-1.72-.2.35C134,200.45,135.44,200.29,136.4,200.93ZM129.57,97.38c1.1-1,1.82-3.5,1.35-4.64Zm36.52,119.8-.09-.41a9.82,9.82,0,0,0-1.78-.21c-.19,0-.53.49-.5.71s.48.67.65.63A10.63,10.63,0,0,0,166.09,217.18Zm-11.87-2.38c-.41-1.39-1.61-.93-2.52-1.47C152.1,214.83,152.84,215.31,154.22,214.8Zm-9.1-104c1.4-1.12,1-2.45,1.3-3.57,0-.08-.22-.27-.37-.33s-.29.15-.31.26C145.54,108.31,145.36,109.42,145.12,110.85Zm35.23,69.09c-1,1.16-.69,2.32-.62,3.52C181,182.49,180.73,181.33,180.35,179.94Zm-60.06-7.08-.2.4c.67.3,1.33.66,2,.89a22,22,0,0,0,2.17.49l.1-.29ZM95.74,79.79l-.31.26,2.3,3.24.33-.24A8,8,0,0,0,95.74,79.79Zm68.13,147.8-.22-.4a11.77,11.77,0,0,0-1.77.45c-.25.1-.39.48-.58.74.31.14.71.48.89.39A12.73,12.73,0,0,0,163.87,227.59ZM134.53,98.25c-1.06,1.76-1.29,3.72-.67,4.8C134.09,101.35,134.31,99.8,134.53,98.25Zm-.92-14.39-.54-.14-.94,4.57.39.09Zm45,64.83.34.14c1.2-1.06,1-2.65,1.61-3.93l-.39-.15Zm12.42,63.21-.32-.31-1,.77-1-.28-.19.38c.49.32,1.12,1,1.43.87C190.43,213.14,190.7,212.4,191.06,211.9ZM121.69,80.25l.31.09,1-5.5-.4-.07Zm-16,59.36.25-.34-4-3-.22.3Zm75.84,87.9a11.88,11.88,0,0,0-1.56-.73,1,1,0,0,0-.83.06.91.91,0,0,0-.19.82.85.85,0,0,0,.73.34A15.75,15.75,0,0,0,181.57,227.51Zm6.16-51.66c-.59,0-1.08-.18-1.17,0a18.49,18.49,0,0,0-1.09,1.94l.38.24ZM91.81,70.44l-.33.32c1.1.84,1.62,2.3,3.27,2.92Zm80.66,161.64c-1.22,1.34-1.12,1.67.62,2.25Zm9.23-3.17c-.57-.1-.92-.18-1.28-.21-.21,0-.49,0-.61.08a.69.69,0,0,0-.16.63,6.08,6.08,0,0,0,.69,1Zm-9.48-53.35a14.19,14.19,0,0,0,.59-1.73,1.9,1.9,0,0,0-.2-.94s-.46,0-.5.06a2,2,0,0,0-.31,1A10.62,10.62,0,0,0,172.22,175.56Zm2.37,24.66.62.3,1.44-2.87a3.25,3.25,0,0,0-1.16,1.1C175.17,199.23,174.89,199.73,174.59,200.22Zm.44-53.78-.34-.17a8.76,8.76,0,0,0-1.05,1.33c-.11.22.12.61.19.93.24-.15.6-.25.7-.47A11.25,11.25,0,0,0,175,146.44ZM109.78,89.11l-.35.23,2,3.16.41-.26Zm40.83,85.94-.41.41a14.67,14.67,0,0,0,.89,1.33c.13.16.44.17.66.25.07-.23.27-.57.19-.67A16.57,16.57,0,0,0,150.61,175.05Zm-16.25,6.69.45-.34-1.57-1.89C132.66,181.11,133.68,181.3,134.36,181.74Zm27-76.94.4,0c.59-1.4.13-2.88,0-4.33C161.6,101.94,161.48,103.37,161.35,104.8ZM97.28,77.56c-.86,1.16-.29,1.6.28,2,.14.09.46-.08.69-.14Zm65.9,103.67.15,1.92.51-.39-.17,1.17C165.39,182.66,163.81,182,163.18,181.23ZM100.43,71.08l-.49.39,1.92,2.42.42-.33Zm42.31,45.52.64.15.66-3-.46-.12Zm25,104.69c-.53,2-.17,2.83.73,2.47ZM128.79,95l.41.07a3.16,3.16,0,0,0,.19-3Zm40.47,98.29-.21-3C168.06,191.3,168.05,191.84,169.26,193.28Zm9.66,27.12c1.19-.4,1.42-1.29,1.77-2.23C179,218.1,179.48,219.52,178.92,220.4Zm-15.17,1.73a2,2,0,0,0-2.79,1.19Zm-82.7-128-.51,0,.36,3.66.43,0Zm67.83,87.16-.3.38,2.42,1.88.3-.38Zm22.92,50.23c-1.36.18-1.77,1.07-1,2.21ZM142.18,83.27l-.54-.13-.55,3.11.46.09Zm-7.88,2.42c1.13-1.87,1.21-2.79.38-3.13Zm46.1,108.93c-1.34-.14-1.12.84-1.3,1.48,0,.16.09.36.14.54.19-.09.48-.13.54-.28C180,195.83,180.18,195.27,180.4,194.62Zm-14.06,29.51L167,224a5.89,5.89,0,0,0-.3-1.41c-.05-.12-.58,0-.89,0Zm-29.89-78.42-.21.07a9.88,9.88,0,0,0-.24,1.78c0,.23.42.45.65.68.14-.15.43-.34.4-.46C136.89,147.08,136.65,146.4,136.45,145.71ZM98.11,64.92l.25-.12-1.43-3.35-.45.21ZM92,58.77c-.46,1.54-.14,2.4,1,2.91Zm68.92,105.61-.48-.16-.7,2.57.52.13Zm-14.19,38.81c-.75-1.35-1.77-1.71-2.36-1ZM141,209.81c-.58-.94-1.25-1.65-2.49-1.05ZM81.19,81.06l-.49.08c0,.41,0,.93.17,1.2s.76.33,1.16.48l.15-.25Zm2,4.52.4-.16-1-2C82,84.28,82.08,84.54,83.16,85.58Zm63.76,126.75,2,2.07.27-.27C148.62,213.46,148.53,212.33,146.92,212.33Zm-3.74-78.79.4,0,.22-4-.33,0Zm-1.26,25.1A9.77,9.77,0,0,0,141,157c-.15-.17-.62-.05-1-.07,0,.22-.07.55,0,.63C140.58,157.87,141.11,158.15,141.92,158.64Zm7,14.73.34-.19-1.69-3.34-.34.17Zm16.77,23a1.32,1.32,0,0,0,.66,2.29ZM126,148a2,2,0,0,0,2.35,1.78Zm3.3,25.41.3-.37L127,171l-.26.33Zm15.61-55.32-.45-.13-.86,2.93.48.14Zm26.54,51.53-.13-1.49c-.7.55-1.37,1-.93,2ZM162.9,211.8l.2-.43-1.94-.83C161.32,212,162.13,211.87,162.9,211.8ZM91.19,106.65l1.36,1.73C92.33,106.44,92,106.15,91.19,106.65Zm49.67,60.25-.31.34,2,1.72.38-.47Zm-6.19,10-.26.33,2.39,1.61C136.76,177.17,135.23,177.64,134.67,176.88Zm-35.84-88-1.67-2C97.35,88.56,97.62,88.88,98.83,88.92Zm67.06,92.9c1.24-.2,1.74-.81,1.21-2.07Zm23.76,37-.08-.51-2.42.3.07.53ZM92.33,82.2c-.57.83-.13,1.8,1,2.44ZM87,107.13l.45-.23-1.2-2.34-.49.25ZM98.34,67.19c.65,2.11.65,2.11,1.55,2.15Zm46.77,70.35-.37,0-.46,2.59.48.06Zm1.17-50.77.51.11L147.2,84l-.39-.07ZM94.55,67.41l-.54.41,1.46,1.72.33-.23ZM181,193.81l1-2.19-.35-.16C181.43,192.25,180.34,192.63,181,193.81ZM95.94,65.09l.38-.22-1.19-2.68-.4.19ZM118.56,102l.23-.12c-.24-.68-.45-1.37-.73-2-.06-.13-.37-.16-.56-.23-.06.16-.21.39-.15.49C117.73,100.72,118.15,101.34,118.56,102ZM102.24,89.75l.37-.2-1.24-2.27-.39.22Zm35.08,86.67c0,1.29.51,1.6,1.74,1.05Zm30.45,50.1-.69-.18-.46,1.37c.28,0,.78.16.81.09A6.89,6.89,0,0,0,167.77,226.52ZM146.16,129c-1.33.73-1.15,1.45-.6,2.44ZM138.9,86.72l.41.12.74-2.6-.42-.11Zm1.45,23.07-.52-.06-.48,2.2.52.11Zm-.79,90.15.19-.34L137.48,198l-.29.45ZM119.13,59.09l.4-.09L118,55.61l-.25.11ZM161.41,219.2l-1.47-1.27-.39,1.56ZM148.8,206.62l-.49.45,1.51,1.58.37-.34Zm5.69-49.74-.42,0-.37,3,.41,0ZM101,84.44c.1-1.17-.59-2.1-1.33-2.13ZM89.34,88.37c-.32-1.65-.5-1.88-1.73-2Zm28.38,10.14-1.22-1.92a3.59,3.59,0,0,0-.33.25c.3.57.63,1.12,1,1.67C117.16,98.54,117.28,98.51,117.72,98.51Zm63.81,109.93-.26-.16a6.46,6.46,0,0,0-1.05.8,1.18,1.18,0,0,0-.11.76c0,.07.45.19.48.15C180.93,209.49,181.22,209,181.53,208.44Zm16.16-8.26c1.18-.54,1.26-.89.45-2ZM103.89,77.06l.44-.37L103,75.11l-.45.37Zm36.68,89,.29-.35-1.74-1.46-.28.33ZM124.79,148.3l.48-.37L124,146.38l-.41.33Zm-7.49-24.81-.33.37,2.11,1.81.24-.28Zm-1.33-19-.28.23,1.7,2.35.35-.26ZM130,102l-.52-.16-.81,2.5.38.14Z"/><path d="M120.05,181l1.23,1.53c-1.19-.59-2.26-1.08-3.29-1.64-5.25-2.86-10.51-5.7-15.72-8.63-1.18-.66-2.1-1.82-3.29-2.49-2.91-1.62-5.91-3.09-8.87-4.64a1.61,1.61,0,0,1-.67-.65c5.46,2.1,10.29,5.4,15.44,8.07s10.25,5.36,15.37,8Z"/><path class="cls-1" d="M164.25,196.53c-.85-1.58-2.41-3.17-2.39-4.75,0-2.52-1.79-4.14-2.21-6.36v.82l-.29.1-3.56-7.84.33-.16,1.71,2.32.29-.22L156,177.11l.42-.27c.76,1.21,1.94,2.35,2.16,3.66.2,1.13.92,1.65,1.33,2.48.66,1.31,1,2.76,1.62,4.1s1.49,2.81,2.18,4.24,1.55,2.91,1.08,4.63c-.06.22-.4.36-.6.54Z"/><path class="cls-1" d="M117.35,174.49l-.65-1.68.29-.22a5.46,5.46,0,0,1,1.36.55c2.08,1.57,4.15,3.17,6.16,4.82a3.11,3.11,0,0,1,.71,1.43,15.27,15.27,0,0,1,.31,1.7,32.3,32.3,0,0,1-3.49-2.21c-1.64-1.36-3.14-2.9-4.7-4.35Z"/><path d="M172.53,121.42l.94-2.36-.18-.14c-.23.35-.47.7-.69,1a2.26,2.26,0,0,1-.88.91c2.14-4.78,6-8.35,8.74-12.7l.44.27c-.64,1.09-1.26,2.2-1.93,3.27q-2.94,4.68-5.92,9.34c-.1.16-.22.3-.33.45Z"/><path class="cls-1" d="M190.84,194.83a4.93,4.93,0,0,1,3.71-1.53c-1.05,1.43-1.17,3.08-3.1,3.53-.91.22-1.64,1.18-2.6,1.66l1.65-3.31Z"/><path d="M189.85,234.45l-1.34,1.42,2.77,1.13,0,.12a3,3,0,0,1-.52-.05c-1.61-.55-3.23-1-4.8-1.68a2,2,0,0,1-1.5-2.07c.61.47,1.23,1,1.87,1.45a2.12,2.12,0,0,0,2.92-.08,1.87,1.87,0,0,1,.64-.22Z"/><path d="M102.61,146.85c2.53,2,5.56,2.58,8.55,3.29.13,0,.21.29.43.63A18.21,18.21,0,0,1,102.61,146.85Z"/><path d="M164.39,105.78l4.44-8.51.36.19-4.45,8.5Z"/><path d="M149,74.83c.31.46.61.93.92,1.4l2.63,4.11-.67.23a11,11,0,0,0-1.8-2.86c-1-.86-.85-1.9-1.05-2.91Z"/><path class="cls-1" d="M172.05,103.79,170.51,105l-.28-.2,2.53-3.65.39.24L172,103.83Z"/><path d="M127,211.24l-1.3,3.39-.34-.1.79-3.65Z"/><path d="M128.53,207.82l.62,1.14-2.65,1.22c-.11-.29-.23-.57-.34-.86a1.8,1.8,0,0,1,0-.34Z"/><path d="M161.45,246.13c0,.22,0,.53-.12.64-1.13.94-2.29,1.84-3.45,2.75l-.18-.23,3.77-3.13Z"/><path d="M127,197l-3.19-2.29.25-.34,3.12,2.37Z"/><path d="M123.19,63l-.28,3.76h-.24l.18-3.77Z"/><path d="M160.76,236.81l-2.22,2-.12-.13,1.91-2.27Z"/><path d="M116.38,176.65l-3.22-1.47.11-.25,3.27,1.37Z"/><path class="cls-1" d="M116.74,85.94c0,.56,0,1.14.12,1.7a4.89,4.89,0,0,0,.32,1,14.68,14.68,0,0,1,.64,1.94c.22.45.44.89.65,1.34.09.2.13.43.23.63a15,15,0,0,1,1,2.17c.37,1.29.55,2.64.92,3.94.12.4.68.65.88,1.06a10.43,10.43,0,0,1,.78,2.13,20.52,20.52,0,0,0,3.26,6.57c1.34,2,2.22,4.36,3.37,6.53.57,1.06,1.4,2,2,3.07.81,1.59,1.53,3.24,2.2,4.9a9.48,9.48,0,0,1,.33,2l.63-.43c1.26,3,2.46,6.07,3.77,9,.72,1.63,1.68,3.14,2.42,4.75,1.71,3.7,3.34,7.42,5,11.12,1,2.2,2.12,4.36,3.08,6.58a11.93,11.93,0,0,1,1.09,3.64,5.1,5.1,0,0,0,2,3.28c1.17,1.15,1.1,2.69,1.61,4,.19.51.24,1.06.41,1.58.53,1.58,1.1,3.15,1.61,4.74.05.17-.21.45-.24.53l.83,1.66-.3.16c-3.91-4.83-5.53-10.84-8.26-16.29l1.36,4.45-.3.13c-1.18-2.26-2.43-4.48-3.53-6.77-1.31-2.72-2.53-5.49-3.71-8.27-.2-.46.07-1.08,0-1.6a12.59,12.59,0,0,0-.63-2.15c-.62-1.64-1.28-3.26-2-5l-.57.79c-1-2.05-2.06-4-3-6-.74-1.49-1.41-3-2.11-4.54a19.37,19.37,0,0,1-.93-2.15,1.57,1.57,0,0,1,.34-1.93,1.22,1.22,0,0,0,.14-1.1,21,21,0,0,0-1.06-2.38c-.12-.24-.32-.56-.53-.59-1.53-.26-1.71-1.35-1.71-2.62a11,11,0,0,1-.06-1.77l.8,1.14.29-.2a23.76,23.76,0,0,0-1.4-2.7c-2.67-3.88-5-7.89-6.13-12.53a12.74,12.74,0,0,0-.45-1.36s-.12-.07-.22-.12l.17,1.81-.27.11c-2.51-4.16-3.8-8.9-6.44-13.09.14.58.25,1.17.43,1.73s.47,1.21.71,1.8l-.39.21-1.64-2.53.25-1.94,1.13-.14c-.33-.46-.59-.79-.81-1.14s-.56-.64-.51-.91c.37-2.11-1.21-3.52-1.83-5.26-.31-.88-.75-1.7-1-2.29.06-.46.24-1,.12-1.06-1.51-1-1.43-2.74-1.89-4.1a28.79,28.79,0,0,1-.89-6.39c0-.29.36-.62.66-1.09l-2.26-6.24.23-.09,1.24,1.5c.6,3.18,2.51,6.24,2,9.8a.49.49,0,0,0,.24,0,7.15,7.15,0,0,0,.76-.3l1.14,6.69.27,0V73.41l.54,0,.2,3.31.22,0,.88-3.1h.19v2.9l.26,0,1.26-8.63.45,0a30.25,30.25,0,0,1,0,3.81c-.36,2.68-.86,5.33-1.31,8,0,.11-.15.28-.11.33,1.24,1.6-.66,3.28.41,4.93l.7.12C116.73,85.4,116.73,85.67,116.74,85.94Zm16.32,42.4h.41V126h-.41Zm2.44,5.87-.41.2,1.47,2.72.22-.11Z"/><path class="cls-1" d="M110.71,66.07c-.32-1.84-1.56-3.52-.87-5.58.18-.55-.22-1.29-.34-1.94-.2-1.12-1-2.22-.12-3.38,0,0,0-.08,0-.12.17-2,.22-2.08,2.21-1.5,1.4.4,2.9.67,3.75,1.77l-.84,2-1-1.78-.36.17c.37.88.74,1.77,1.12,2.64,1.08,2.44,2.47,4.8,1.85,7.65-.38,1.8-.73,3.6-1.11,5.39a1.7,1.7,0,0,1-.5.84c-.25-4,.62-8.13-.69-12.06l-.47,0-1.21,6.55H112l-.63-6.49-.32,0C110.27,62.14,110.93,64.11,110.71,66.07Z"/><path class="cls-1" d="M130.07,107l1.94-1.29v.82l.83-.72c.25,2.53.86,4.9.57,7.15-.24,1.85.53,3.64-.07,5.43,0,.09.14.25.3.5l.5-4.26h.27l.36,4.13.38.09.81-1.75c.58,1.62.12,3.73,2.4,5V128l-.22.05c-.53-.85-1.06-1.71-1.6-2.56a30.17,30.17,0,0,1-1.8-2.75c-.52-1-.86-2.15-1.35-3.42-1.49-.92-1.42-3-2.35-4.56-1.07-1.72-.15-3.45,0-5.22l-1,2.39c-.7-.82-1.09-1.37-.77-2.36a1.11,1.11,0,0,0-1.08-1.52l.19-1.06c.65.6,1.26,1.23,1.71-.07Z"/><path class="cls-1" d="M98.15,130.3c1.2,1,2.41,2,3.6,3s2,1.79,3.13,2.58c.32.24.9.11,1.37.15a4.83,4.83,0,0,0-.67-1.18,17.28,17.28,0,0,0-1.77-1.4l.32-.4,7.18,5.76.08-.07-.54-.75.26-.33a47.45,47.45,0,0,1,4.16,3,15.65,15.65,0,0,1,3.64,4c1.21,2.27,3.89,2.9,4.94,5.15-2.12-.27-3.78-1.54-5.46-2.82-.93-.71-1.92-1.32-2.87-2-1.59-1.11-3.25-2.14-4.72-3.39-.72-.6-1.22-1.5-2-2.09-2-1.47-3.94-2.93-5.84-4.48-1.72-1.41-3.35-2.93-5-4.4Z"/><path class="cls-1" d="M115.39,150.41l.33-.66,1.66.64.15-.17c-.31-.29-.61-.6-.94-.87-1.36-1.07-2.74-2.12-4.09-3.2-.13-.1-.14-.34-.22-.51a1.65,1.65,0,0,0-1.17-1.09,9.56,9.56,0,0,1-2.46-1.65l.22-.45a9.17,9.17,0,0,1,2.63,1c3.79,2.88,7.51,5.87,11.24,8.84,1.13.9,2.19,1.87,3.33,2.85-1.16,1.14-2.1,0-3.32.14,1.26.81,2.32,1.54,3.44,2.18.73.42,1.6.62,2.28,1.1a2.68,2.68,0,0,1,.83,1.62l-2.11-1.57-.12.12,1.17,1.73-.3.3c-.58-.47-1.15-1-1.74-1.42-2-1.57-4-3.07-6-4.71-1.34-1.14-2.51-2.47-3.79-3.68a4.07,4.07,0,0,0-1.06-.54Z"/><path class="cls-1" d="M153,151.32c.13-3.19,2.88-4.73,4.24-7.15l-.49,1.83.4.18c.41-.76.77-1.54,1.25-2.25.27-.41.78-.66,1.09-1.05a4.28,4.28,0,0,0,.89-1.48,10.11,10.11,0,0,1,2.71-4.63c1.19-1.22,2.07-2.72,3.14-4.05.61-.76,1.33-1.44,2-2.16l.29.2c-.47.78-1,1.55-1.41,2.34-.9,1.54-1.73,3.12-2.67,4.63a74.27,74.27,0,0,1-4.32,6.7c-1.54,2-3.44,3.7-5.18,5.54-1.19,1.27-2.37,2.54-3.54,3.83-.4.44-.44.66.16,1.17.44.37.31,1.42.43,2.17l-.39.09L149,151.69l.25-.19,1.19.93-.06-1.11Z"/><path class="cls-1" d="M187.7,153.88c-.79,2.88-1.28,5.81-2.94,8.58.42,1.53-.74,4.31-2.13,4.39l.36-1.76-.26-.07c-.37.59-.76,1.16-1.11,1.75s-.63,1.15-1.08,2l-.49-1.34a19.39,19.39,0,0,1-1.2,3.77,10.15,10.15,0,0,1-2.68,2.76,6,6,0,0,1,.5-1.35c.44-.68,1-1.28,1.51-1.93.12-.16.28-.39.24-.53-.41-1.46.62-2.53,1-3.77.14-.45.74-.74,1-1.17a5.25,5.25,0,0,0,.53-1.27c.08-.26,0-.69.12-.79,1.87-1.34,1.62-3.9,3.24-5.42A49.37,49.37,0,0,0,187.7,153.88Z"/><path class="cls-1" d="M121.8,89.75l.29-2,1.17,1.41.42-.1c-1.7-2.21-.49-4,.6-6,1,1.44-.82,2.77.06,4.25,1.25-1.6.72-3.67,1.5-5.41.56,1.33-2.14,13.81-3.2,14.9-1-1.29,0-2.59,0-3.69l-1.62.68c-2.68-2.41-.7-4.65.14-6.93l.33,0c0,.46,0,.92,0,1.38s0,1,.07,1.52Z"/><path class="cls-1" d="M141,118.22c-.13,1.19-.25,2.38-.41,3.57a15.83,15.83,0,0,0-.36,1.74c0,.3.3.61.47.92.2-.23.52-.42.59-.68.32-1.12,1.13-.87,2.18-1l-1.17,1.46,1.28.57-1.5.2c-.14,1.67-.31,3.27-.4,4.87-.06,1,.12,1.17,1.18,1.1L142,132a2.53,2.53,0,0,1-.84,3.13A12.78,12.78,0,0,1,139.22,125c.32-1.4.38-2.87.6-4.29.14-.88.37-1.74.56-2.61Z"/><path class="cls-1" d="M134.14,69.49l.43.71.18-.07-.82-3.43.36-.1L136.16,73l.19,0-2.28-11.06.48-.13c.37,1.17.75,2.35,1.1,3.53a25.56,25.56,0,0,1,1.2,4.37,19.19,19.19,0,0,1-.37,4,3.57,3.57,0,0,0,0,.79,15.52,15.52,0,0,1-.61,6.87c-.12.37-.58.93-.84.91-.52,0-.87-.37-.86-1.14a30.5,30.5,0,0,0-.42-3.54c0-.27.22-.56.34-.84a3.92,3.92,0,0,1,.31.91c.11.88.15,1.76.26,2.64,0,.13.26.23.53.45-.11-2-.13-3.84-.34-5.66s-.6-3.61-.91-5.42Z"/><path class="cls-1" d="M103.65,62.12c-.8-1.62-1.56-3.14-2.3-4.68a1.85,1.85,0,0,1,0-.58,1.32,1.32,0,0,1,.53,0c.41.22.79.48,1.21.74.29-1.2-1.88-2-.49-3.55l.89,2.71,1.19-2.09c.73,1.55,1.78,3.05,1.53,5.23-.16,1.33.57,2.87,1.21,4.17.93,1.9.78,3.87.88,6a2.14,2.14,0,0,1-.92-2.38,8.11,8.11,0,0,0-.84-4.13c-.75.75,1,2-.63,2.72l-2.27-7.14-.32.08.33,2.81S103.56,62.09,103.65,62.12Z"/><path class="cls-1" d="M193.42,203.05l.64-1.21c-1.32-.51-1.54-.22-1.45,2.38l4.08-1.7c.83,1.46.7,1.85-.9,2.39l-5.09,1.66a1.94,1.94,0,0,1-.54,0c-.79-1.93,1-1.51,1.71-2.12l-1.73.22c.18-1.52.54-2.7,2-3.49s2.9-2,4.35-3c.35-.24.76-.41,1.16-.63a3.51,3.51,0,0,1-2.19,4c-.39.16-1.14.15-.38.83l-1.26,1.06Z"/><path class="cls-1" d="M154.45,143.68l.33-1.25-1.59,2.26-.26-.14.2-1.07-.21-.18a15.81,15.81,0,0,0-1.17,1.76c-.51,1.06-.9,2.18-1.39,3.25-.1.22-.46.31-.7.46-.13-.21-.25-.42-.39-.62a3.34,3.34,0,0,1-.42-.66,5.25,5.25,0,0,1-.19-1.05c.28,0,.11-1,.73-.35.23-.23.58-.42.67-.7.26-.82.42-1.68.57-2.31.53-.29,1.22-.46,1.26-.73a4.43,4.43,0,0,1,2.33-3.06l.3.52,2.24-5.51.49.15c-.26,1.05-.47,2.11-.8,3.13a2.61,2.61,0,0,0-.08,2.19C156.88,140.83,155.75,142.92,154.45,143.68Z"/><path class="cls-1" d="M182.64,210.66l-1-.46.38-2,1.41.29-.29-1.28-.43.5c0-.11-.12-.19-.1-.25.19-.64.36-1.28.6-1.91.07-.18.32-.45.47-.44,1.5.12,3,.29,4.65.46-.24.73-.48,1.48-.84,2.55l-.35-1c-.08.11-.18.18-.19.27a4.77,4.77,0,0,0-.16,1c0,1,.07,1.91-1.45,1.46a5.7,5.7,0,0,0-1.8.12l0,1.09,1.43-.41-.85,1.38.89.71-.31.42L182.62,212l-.75.45-.45-1.34,1.09-.16Z"/><path class="cls-1" d="M167.46,163.74c-.29,1.57,1.39,2.86.46,4.56-.25.46-.07,1.15-.09,1.73a3,3,0,0,1-.07,1.09c-.88,2-1.81,4-2.73,6a1.11,1.11,0,0,1-.39.55,3.48,3.48,0,0,1,.45-3.92l-.79.43-.21-.14,2.15-4.76-.26-.23-.74,1.48C164.43,168.61,165,166.79,167.46,163.74Z"/><path class="cls-1" d="M116.74,85.94c0-.27,0-.54,0-.81a5.2,5.2,0,0,1,.32-4c.56-1.24.84-2.59,1.3-3.88.26-.71.63-1.39,1.09-2.37,0,1.48,0,2.58,0,3.67,0,.84-.51,1.67.43,2.38.21.16.1.84,0,1.26-.28,1.86-.59,3.72-.91,5.57a9.25,9.25,0,0,1-.37,1.07Z"/><path class="cls-1" d="M194.18,174.93a1.15,1.15,0,0,1,1.67-.23,4.58,4.58,0,0,0,1.58.36c-1.85,1.45-3.7,2.92-5.58,4.36-.44.34-.79.55-.79,1.25,0,1.12-1.16,1.84-2.66,1.81l1.25-2.22-.27-.22c-1.83,2.35-3.27,5.07-6.07,6.54l2.56-3.41-.86.24-.22-.2,2.07-2.18A.18.18,0,0,1,187,181c1.53.6,1.61-.93,2.33-1.54s1.47-.92,2.13-1.46c.47-.39,1.45-.38,1.27-1.41,0-.06.67-.21,1-.36a3.31,3.31,0,0,0,1.26-.94l-1.44.53-.14-.15.85-.73Z"/><path class="cls-1" d="M150.46,198.92l3.48,1.6.37-.35-1.12-.3c1.34-1.25,2.93-.46,4.34,1.95a12.11,12.11,0,0,1-1.69.12,13,13,0,0,1-1.61-.29l-.1.42c.92.28,1.85.51,2.75.85a11.84,11.84,0,0,1,2,1s-.22.86-.34.86a10.1,10.1,0,0,1-5.82-1.64,1.39,1.39,0,0,1-.51-.48C151.62,201.52,151.1,200.34,150.46,198.92Z"/><path class="cls-1" d="M156,156l1.16-1.65.69.51,1.51-1.7c-.14.56-.18.8-.26,1q-.9,2.29-1.83,4.58c-.07.19-.16.44-.31.5-1.31.51-1,1.68-1.16,2.68a10.35,10.35,0,0,1-.83,2.54c-1-2.71.28-5.06.84-7.52a2.3,2.3,0,0,0,.05-.45c0-.06-.09-.12-.21-.25l-.54.86c-.46-2.85,1.53-6.81,5.33-10-.63.85-1.31,1.68-1.88,2.58a13.62,13.62,0,0,0-1.74,3.1C156.49,153.73,155.18,154.52,156,156Z"/><path class="cls-1" d="M200.22,186.69c-.71,2.36-1.32,4.57-2.05,6.74a5.89,5.89,0,0,1-5.14,3.9,13.61,13.61,0,0,1,.86-1.41c.27-.33.71-.51,1-.83a1.94,1.94,0,0,0,.58-1c.25-2.94,2.37-4.8,4-6.94C199.59,187,199.9,186.87,200.22,186.69Z"/><path class="cls-1" d="M126.58,69.11l.17,2.38.22.05.33-1.24h.09c-.11,1.58-.26,3.15-.3,4.73,0,1.83-1.19,3.12-2,4.6s-1.1,3.12-2.47,4.22c1.39-4.89,3-9.68,3.65-14.72Z"/><path class="cls-1" d="M148.28,193.64l3.23,2.24.31-1c-4.13-2-5-2.92-5.07-5.15.28.39.72.74.79,1.16.15.86.73,1.12,1.39,1.47a24.18,24.18,0,0,1,3,1.9c.3.24.34.83.32,1.35.47.93,2.28.23,2.29,2l-.84.38.93.79a4.45,4.45,0,0,1-5.81-3.19,9,9,0,0,0-.81-1.73Zm4.79,4.15.19-.4-3-1.46-.16.35Z"/><path class="cls-1" d="M120.41,167.31l-2.67-1.55-.06.1,1.19,1.09a5.13,5.13,0,0,1-3.94-1.36,30.29,30.29,0,0,1-3.43-3.14c-1.24-1.6-3.34-2.22-4.3-4.17l6.8,3.88-2.66-.73.11-.13,9.26,5.49Z"/><path class="cls-1" d="M182.28,158.89c-.92,1.17-1.26,2.47-2.73,2.71-.15,0-.29.25-.38.41a32.25,32.25,0,0,0-2,3.79,12.58,12.58,0,0,1-2.76,3.8,13.94,13.94,0,0,1-1.37,1.51C173.19,167.29,179.1,159.46,182.28,158.89Z"/><path class="cls-1" d="M175.9,148.37a16.47,16.47,0,0,1,0-3,7.57,7.57,0,0,1,1-2.51c1.27-2.13,2.62-4.2,4-6.33.12.13.21.2.2.24-.75,2.65-1.47,5.31-2.28,8a4.69,4.69,0,0,1-1,1.49C177.28,146.94,176.62,147.59,175.9,148.37Z"/><path class="cls-1" d="M105.72,117.46c-.3,0-.67.12-.89,0-.74-.45-1.4-1-2.12-1.48-1-.65-2-1.21-2.94-1.89-.76-.55-1.42-1.23-2.16-1.82a11.84,11.84,0,0,1-2.15-1.64,27.11,27.11,0,0,1-2-3.34l.43-.35c.78.65,1.58,1.28,2.34,2,0,0-.21.41-.23.45,1,.93,1.88,1.88,2.88,2.7.65.52,1.52.75,2.18,1.25,1.61,1.21,3.16,2.5,4.74,3.75Z"/><path class="cls-1" d="M152.83,125.72a19.09,19.09,0,0,1-1.34,8c-.38.82-1,1.81-.82,2.58.63,2.86-1.15,5.14-1.58,7.72a8.4,8.4,0,0,1-.74,1.68,5.64,5.64,0,0,1,0-4.22c1.08-3.32,2.08-6.67,3.05-10C152,129.56,152.36,127.64,152.83,125.72Z"/><path class="cls-1" d="M159,159.13l-.83,1.08-.27-.14,2.08-4.9.3.11c-.54,4.34-1.07,8.67-1.62,13.16-2-1.17-.94-3-1.44-4.45C156.55,162.2,158.73,161.1,159,159.13Z"/><path class="cls-1" d="M156.12,208.88l3.86,1.4,0,.33-1.13.23.55.62c-.83-.27-1.79.22-1.93-1,0-.13-.38-.26-.59-.31s-.75,0-.93-.16c-.44-.47-1.13-1.09-1.07-1.56.12-.89,1-.91,1.78-.67a2,2,0,0,0,1.24.15c-1-.68-2-1.35-2.92-2.05a2.27,2.27,0,0,1-.4-.59,2,2,0,0,1,.72-.18,7.28,7.28,0,0,1,4,2,1.66,1.66,0,0,1,.29,1.31c0,.22-.62.48-.95.48a20.87,20.87,0,0,1-2.36-.2Z"/><path class="cls-1" d="M97.82,114.66c2.45,1.68,4.94,3.3,7.33,5.06a83.74,83.74,0,0,1,6.9,5.73c-.48-.06-1.06,0-1.42-.21-1.85-1.28-3.68-2.59-5.44-4-1.39-1.08-2.65-2.32-4-3.44a8.84,8.84,0,0,0-1.74-1.07c-.82-.4-1.66-.75-1.9-1.74Z"/><path class="cls-1" d="M128.29,80.62c.1-2.11.77-4.48.14-6.43-.58-1.78.4-3.45-.54-5.2-.68-1.26-.38-3.06-.38-4.62A19.76,19.76,0,0,1,128.29,80.62Z"/><path class="cls-1" d="M100.81,65.53A7.89,7.89,0,0,1,98.05,61a18.52,18.52,0,0,1-.2-3.73c0-.11.36-.22.74-.44,0,.45,0,.72,0,.69l1.85,2.06-.24-1.51.31-.09,1.65,6-2.75-3.49-.24.17,2.12,4.7Z"/><path class="cls-1" d="M126.29,192c.11,0,.27.08.33,0,.27-.24.58-.77.77-.73a10.55,10.55,0,0,1,2.43.88,7.47,7.47,0,0,0,2.52,1.21c1.16.18,2.17,1.33,3.25,2.06l-.26.4-3-2.11c.62.66.74,1.67,1.86,2,.64.19,1.09,1,1.47,1.74a5.25,5.25,0,0,1-4.28-2.73,1,1,0,0,0-.39-.41c-.79-.42-1.6-.82-2.4-1.22L126.29,192Z"/><path class="cls-1" d="M141.82,220.19c1.69-.32,2.54-.43,6.23,1.5l-1-1.34c1.86-.44,3.2.54,4.65,1.1l0,.42a11.29,11.29,0,0,1-1.72.31c-1.61.07-3.23,0-4.84.11-.22,0-.43.3-.66.36s-.67.14-.78,0C143.1,221.91,142.52,221.1,141.82,220.19Z"/><path class="cls-1" d="M140.91,175.53l-1-2.07-.35.06v1.79a1.29,1.29,0,0,1-.4-.12l-3.3-2.11a4.65,4.65,0,0,1-2-2.73l5,2.45.16-.23-2.3-1.66c1.86-.48,4.37,2.19,4.61,4.43Z"/><path class="cls-1" d="M164.85,129.24a6.49,6.49,0,0,0,.36-.92c.08-.36.25-.9.08-1.1-1.08-1.26-.15-2.41.31-3.38a50.14,50.14,0,0,1,3.32-5.59,10.06,10.06,0,0,1,1.58-1.53c-1.12,2.35-2.27,4.58-3.24,6.89a38.23,38.23,0,0,0-1.07,3.84c-.2.7-.52,1.37-.79,2Z"/><path class="cls-1" d="M167,155.36c-.07,1.22-.15,2.44-.18,3.66a2.12,2.12,0,0,0,.2,1.22,2.53,2.53,0,0,1-.11,2.89c-.49.93-1.06,1.83-1.63,2.72a10.64,10.64,0,0,1-.74.92l-.34-.17,1.08-5.67h.28l.19,1c.55-2.16-.13-4.5.92-6.57Z"/><path class="cls-1" d="M137.79,108.94l.3-1c.79,1.54-.37,7.55-1.61,8.64-.17-3.25-.35-8.76,1.17-9.85v2.21Z"/><path class="cls-1" d="M166.9,130.23c.46-.52.93-1,1.38-1.56a58.12,58.12,0,0,1,4.55-5.21c.88-.8,2.34-1,3.54-1.44l.15.29-9.36,8.19Z"/><path class="cls-1" d="M184.65,196.59l-1.24-.5.35-1.19c-.77.12-.7.15-1.65,2.52a14.73,14.73,0,0,1-1.81,2.63c-.61-.69-.42-1.27,0-2a4.5,4.5,0,0,0,.72-1.95c0-1.4.52-2.08,1.84-2.24.31,0,.58-.29.88-.41s.59-.21.94-.33Z"/><path class="cls-1" d="M95.76,120.63c3.44,2.23,5.94,5.18,8.43,8.23C102.43,128.7,96.26,122.72,95.76,120.63Z"/><path class="cls-1" d="M166.24,178.2l.15-1.17-.23.05c-.1-.27-.35-.6-.27-.8a19.94,19.94,0,0,1,1.14-2.59,24.76,24.76,0,0,1,1.47-2.17,15.43,15.43,0,0,1,.3,3.32,9.4,9.4,0,0,1-1.05,3c-.19.36-.84.48-1.28.71Z"/><path class="cls-1" d="M141.72,214.85c2.49,1.06,5.4.74,6.91,3.51l-3.08.2,0-.35,1.12-.19C144.65,217.49,142.35,217.75,141.72,214.85Z"/><path class="cls-1" d="M185.67,179.94l-3.84,5.78a3.24,3.24,0,0,1-.49.75.76.76,0,0,1-.86.12l-.49,1.54c-.71-1.26-.27-2.2,1-3.07a1.49,1.49,0,0,0,.63-.72c.44-2,2.1-3.16,3.31-4.62,0-.07.22-.05.33-.06Z"/><path class="cls-1" d="M133.52,184.16c-2.38-1.28-5.21-1.92-5.92-5.15,1.71,1,3.48,1.87,5.07,3C133.2,182.4,133.25,183.43,133.52,184.16Z"/><path class="cls-1" d="M124.13,100.25l-1.52-2.33c1.77-.62,1.74-2.28,2.35-3.49a23.05,23.05,0,0,0,1-2.85C126.69,92.52,125.4,98.2,124.13,100.25Z"/><path class="cls-1" d="M133.56,191.61c.4-.07.91-.32,1.18-.17a14.91,14.91,0,0,1,6.17,6.36s0,.14,0,.21c-2-.95-2.63-1.7-2.5-2.77l-5.53-3.43.75-.23Z"/><path class="cls-1" d="M185.11,231.32c.27-1.11.68-1.91,1.76-1.65a24.1,24.1,0,0,1,2.37.74c.74.26,1.46.55,2.14.81l-.79,1.2-.92-.61-.18.18.63.76c-1.83.05-2.81-1.12-3.78-1.84Z"/><path class="cls-1" d="M164.37,211.63l.18-1.89-.7-.37.44-.63c-.09-.1-.14-.2-.19-.2-1.35,0-1.37-1.33-2-2.07,0,0,.49-.65.55-.61a5.57,5.57,0,0,1,2.1,1.33,13.55,13.55,0,0,1,1.44,3.41c.07.25-.36.78-.68,1S164.87,211.63,164.37,211.63Z"/><path class="cls-1" d="M170.33,196.69c.29-.59.6-1.27,1-1.92.07-.12.42-.15.62-.11s.19.34.15.49c-.55,2.13-1.11,4.24-1.74,6.62-1.25-1.25-1.6-2.36-1.05-3.65A7.59,7.59,0,0,1,170.33,196.69Z"/><path class="cls-1" d="M91.61,105.58c-1.6.86-2.52.49-3.2-1.3l1.16.24L87,101.07l.88-.57C89.43,102,91,103.41,91.61,105.58Z"/><path class="cls-1" d="M100.9,66.74,103,69.16l-.86-2.78.34-.15c.55,1.08,1.19,2.14,1.63,3.27s.66,2.3,1,3.46l-.46.25-4.23-6Z"/><path class="cls-1" d="M186.83,202.61l-.59,1.7.32.19.89-1.13,1.46-.17c.09,1.23-.21,1.61-1.32,1.55-1.57-.09-3.13-.21-4.74-.32,0-.28-.06-.52,0-.58,1-.79,1.87-2,3.37-1.91.22,0,.41.45.62.7Z"/><path class="cls-1" d="M179,193.87c-.4-2.08-.21-2.57,1-2.64.45-2.34,1.84-3.66,4.19-3.62a9.17,9.17,0,0,0-1.52,1.94c-.66,1.68-3,2-3.21,4C179.4,193.65,179.13,193.75,179,193.87Z"/><path class="cls-1" d="M156,150.3c-1.25,3-3.19,5.8-3.05,9.28C151.51,156.8,151.67,153.81,156,150.3Z"/><path class="cls-1" d="M160.45,132.45l-.49-.33-1.11,2.68-.41-.14,1.29-4.67.25,0,.16,1.31c.91-2.7,0-5.58,2.43-7.42-.34,1.08-.68,2.18-1,3.26-.15.45-.62,1.07-.47,1.29C162.13,130,160.6,131,160.45,132.45Z"/><path class="cls-1" d="M108.29,51.72c2.41-1.46,6.17-1.16,7.94.88L108.32,52Z"/><path class="cls-1" d="M101.22,130.22c-3.19-2.12-6.26-4.36-8.08-7.87l.22-.23,8.07,7.88Z"/><path class="cls-1" d="M187.37,198.92l.51-.38c.14.83-1,2-2.63,2.42l1.51-1.67-.18-.19L185,200c2.1-3.69,1.82-4.21,3.81-4.36-.07,1.28-.27,2.45-1.67,3.07Z"/><path class="cls-1" d="M154.9,225.69c-1.63,1.88-5.76,2.4-6.94.87C149.16,225.86,154,225.25,154.9,225.69Z"/><path class="cls-1" d="M137.34,178l3,1.63a3.14,3.14,0,0,1,1.59,2.83c-2.78-.06-3.45-2.5-4.79-4.15Z"/><path class="cls-1" d="M146.9,197.59c1,.5,2.24.49,2.7,2a12,12,0,0,0,1.81,2.85l-.34.35a20,20,0,0,1-2.74-2.15,16.9,16.9,0,0,1-1.68-2.83Z"/><path class="cls-1" d="M158.15,187.17c-.36-.26-.89-.45-1-.79-.87-2.07-1.65-4.18-2.46-6.28-.23-.6-.48-1.21-.72-1.81l.35-.17,4.26,8.59Z"/><path class="cls-1" d="M130.47,99.17c-.23.15-.58.26-.67.47-.64,1.47-1.21,3-1.85,4.44a7.43,7.43,0,0,1-.83,1.21l-.48-.12a8.17,8.17,0,0,1,.15-1.93,7.46,7.46,0,0,1,1.21-2.7,13.58,13.58,0,0,1,1.41-1.69c.15-.12.68.22,1,.35Z"/><path class="cls-1" d="M126.43,94.43c1.42,2-.52,3.47-.41,5.38l.86-1.19.31.12-1.39,4-.45-.1C124.56,99.86,126,97.34,126.43,94.43Z"/><path class="cls-1" d="M119.08,131.47c-2.78-1.9-5.32-4.15-8.41-5.73a5.49,5.49,0,0,1,1.94.27C116.74,128.32,118.82,130.05,119.08,131.47Z"/><path class="cls-1" d="M163.14,203.93c-.84-1.54-1.62-2.94-2.5-4.54,1.44.13,3.07,3,3.12,4.86-1.93.67-2.8-.09-3.23-2.8l.29-.15a6.65,6.65,0,0,0,.77,1.61A7.06,7.06,0,0,0,163.14,203.93Z"/><path class="cls-1" d="M134,183a3.85,3.85,0,0,1,.64.27,39.61,39.61,0,0,1,3.52,2.4,15.54,15.54,0,0,1,1.94,2.39A4.39,4.39,0,0,1,136.3,185C135.2,185.84,134.29,185.08,134,183Z"/><path class="cls-1" d="M83.42,94l3.83,6.34C85.33,100.19,82.59,95.78,83.42,94Z"/><path class="cls-1" d="M145,190.08a5.73,5.73,0,0,1-4-4.43C143.14,186.08,145.08,188.19,145,190.08Z"/><path class="cls-1" d="M126.83,172.47c-1.76-.14-7.31-3.92-7.45-4.94l1.54.56-.1-.61.21-.19c.24.24.74.54.7.72-.25,1.14.77,1.24,1.32,1.67C124.28,170.65,125.57,171.55,126.83,172.47Z"/><path class="cls-1" d="M176.14,180.12c.36-.72.9-1.42.08-2.2a5.83,5.83,0,0,1,.6-.83,10.1,10.1,0,0,0,1-1.46A19.56,19.56,0,0,1,179,173a9.06,9.06,0,0,1,0,2.76,28,28,0,0,1-1.9,4c-.14.27-.46.44-.7.66Z"/><path class="cls-1" d="M185.34,218.58c-.12-2.44-.12-2.47,2-2.39.94,0,1.88.2,2.83.3l.1.33Z"/><path class="cls-1" d="M128.62,157.42l2.51,1.53c-.47,1.25.9,1.83,1,2.86.05.38.55.94-.36,1l.18.85-1.84-1,.28-.12-.24-1.16c-.06-.3-.26-.69-.14-.88.68-1.06.37-1.73-.68-2.27-.29-.15-.47-.51-.71-.77Z"/><path class="cls-1" d="M130.59,129.48l-6-4.13c1.33.11,2.54.15,3.74.33.31,0,.63.46.81.79C129.59,127.36,130,128.29,130.59,129.48Z"/><path class="cls-1" d="M146.4,162l4.49,9.53-.62.29q-2.22-4.78-4.46-9.55Z"/><path class="cls-1" d="M152.48,212.55c.14-1.08-.41-1.45-1.24-1.77a7.82,7.82,0,0,1-1.73-1.25l.16-.28c.54.07,1.09.12,1.63.21a.92.92,0,0,1,.47.27c-.41,1.46.85.81,1.36,1.11.92.52,1.82,1,2.73,1.58l-.1.35Z"/><path class="cls-1" d="M138.51,211c2-1.39,5.12,0,5.85,2.39-.76-.45-1.7-.08-2.1-1.24-.11-.33-1.36-.22-2.06-.41A12.87,12.87,0,0,1,138.51,211Z"/><path class="cls-1" d="M163.2,149.15l-1.08.24c.56-2.6,3-4.51,2-7.42l1.6.72Z"/><path class="cls-1" d="M100.36,110.36l-7.17-6.73C94.49,103.56,100.29,109.09,100.36,110.36Z"/><path class="cls-1" d="M177.14,216.53a3.46,3.46,0,0,1,.37-3.33c.41-.58,1.63-.58,2.49-.85.1.34.39.83.26,1-.26.32-.9.76-1.11.64-.77-.44-.83-.17-.92.54a14,14,0,0,1-.63,2.13Z"/><path class="cls-1" d="M188.89,183.11h1.21c-.22.4-.4.68-.55,1-.25.48-1,.73-.64,1.52.05.1-.2.44-.38.56a36.81,36.81,0,0,1-3.61,2.28,25.85,25.85,0,0,1,1.72-2.63c.49-.58,1.28-.91,1.84-1.46C188.73,184.11,188.73,183.62,188.89,183.11Z"/><path class="cls-1" d="M146.83,193.84c-2,.28-2.56-.19-3.09-2.07-.15-.55-.57-1-.71-1.65A9.44,9.44,0,0,1,146.83,193.84Z"/><path class="cls-1" d="M87.69,69.35l4.79,6.1-.27.21c-2.33-1.45-3.65-3.72-5.06-5.91Z"/><path class="cls-1" d="M133.58,79.29q-.71,2.82-1.42,5.64c-.47,1.86-1,3.71-1.54,5.55-.11-4,1.68-7.55,2.56-11.31Z"/><path class="cls-1" d="M130.45,99.2c1.2-.32.88.7.83,1.13-.21,1.65-.56,3.28-.86,4.91-.11.58-.23,1.15-.35,1.73l0,0-1,.5c.27-1.3.53-2.31.69-3.33.27-1.64.47-3.29.69-4.93Z"/><path class="cls-1" d="M186.85,202.64c.81-1.24,1.16-2.85,2.76-3.46l.52-.22a2.69,2.69,0,0,1-1.45,3.2c-.58.25-1,1.17-1.85.45Z"/><path class="cls-1" d="M145.34,204.62l.87.81c.15-.22.32-.62.42-.6,1.72.33,3.43.71,5.14,1.08l0,.35c-.63,0-1.26.12-1.89.12-1.26,0-2.53,0-3.79-.1C145.35,206.24,145.07,205.58,145.34,204.62Z"/><path class="cls-1" d="M144.49,206.35c-1-.67-1.91-1.2-2.74-1.8-.18-.14-.17-.55-.25-.83a6.31,6.31,0,0,1,.73-.15,6.53,6.53,0,0,1,1.25,0C144.68,203.78,144.9,204.29,144.49,206.35Z"/><path class="cls-1" d="M177.45,202.56c0,.72.28,1.73-.07,2.06s-.46,1.75-1.68,1.13c0,.17-.08.32-.12.46a8.44,8.44,0,0,1-.2.87s-.4,0-.42-.06c-.1-.33-.31-.78-.18-1,.7-1.18,1.49-2.29,2.25-3.43A3.12,3.12,0,0,1,177.45,202.56Z"/><path class="cls-1" d="M129.19,82.56l2.07-6.78.47.09a22.12,22.12,0,0,1-.28,2.45,26.6,26.6,0,0,1-1,3.15,7.1,7.1,0,0,1-.83,1.32Z"/><path class="cls-1" d="M91.49,95c-1.73-.58-4.3-3.9-4-5.54l4.21,5.32Z"/><path class="cls-1" d="M187.07,209.42l1.67-3.11.46,1,2.86-.43.11.31-4.68,2.39Z"/><path class="cls-1" d="M178.13,181.81c.62,1,.35,4.3-.44,5.33C176.55,184.83,176.68,183.29,178.13,181.81Z"/><path class="cls-1" d="M184,191.53c.65-.57,1.32-1.1,1.92-1.71a31.75,31.75,0,0,1,2.52-2.4c-1.56,2-2.05,5-5.19,5.44l.79-1.37Z"/><path class="cls-1" d="M158.79,135.88l-.23,1.46.14.18.9-1.52.32.32c-.24,1.92-1,3.67-2.08,4.37a7.75,7.75,0,0,1,.62-4.86Z"/><path class="cls-1" d="M131.7,101.92l.81-8.25c.85,1.61.47,5.71-.5,8.3Z"/><path class="cls-1" d="M120.24,85l.91-10c.49.6.51.6.29,3.36-.09,1.15-.24,2.29-.37,3.44s-.25,2.17-.38,3.26Z"/><path class="cls-1" d="M165.27,223.73c-.94,1.53-1.82,1.75-3.14.75-.55-.41-.65-.81.1-1.12a2,2,0,0,0,.22-.08C163.47,222.71,164.48,222.07,165.27,223.73Z"/><path class="cls-1" d="M135.86,168.51l.19-1.47c1.72.83,3.33,1.73,3.45,3.93Z"/><path class="cls-1" d="M175.79,214.45c-.44-.39-1.18-.76-1.15-1.06.13-1.33,1.28-.47,1.87-.95l.21.22c-.2,1.13-.4,2.26-.6,3.44-1.17,0-1.77-.41-1.76-1.51Z"/><path class="cls-1" d="M133.51,207.91a4.71,4.71,0,0,1,4.6,3.19A8.24,8.24,0,0,1,133.51,207.91Z"/><path class="cls-1" d="M155.24,125.4,156.83,115l.29,0A31.23,31.23,0,0,1,155.24,125.4Z"/><path class="cls-1" d="M183.94,198.4l1.83-2.34.44.25a10.4,10.4,0,0,1-1.14,2.11,32.39,32.39,0,0,1-2.75,2.49C182.05,199,182.62,198.26,183.94,198.4Z"/><path class="cls-1" d="M107.94,125.27c-2.83-1.45-6.42-4.2-6.48-5.41l6.67,5.12Z"/><path class="cls-1" d="M135.68,165.9c-1.61-1.47-2-3.59-2.82-5.47l.35-.15.32,1,.26-.15a5.91,5.91,0,0,1,.81,1.07c.55,1.14,1.05,2.31,1.57,3.47Z"/><path class="cls-1" d="M133.58,191.58a11.8,11.8,0,0,1-1.77-.46c-1.29-.54-2.55-1.15-3.81-1.73l.2-.53c.91.24,1.84.43,2.73.74a11.92,11.92,0,0,1,2.23,1c.24.15.28.63.4,1C133.56,191.61,133.58,191.58,133.58,191.58Z"/><path class="cls-1" d="M91.13,96.14c1.75,1.86,4.46,2.69,5.66,5.15C94.35,100.17,92.91,98,91.13,96.14Z"/><path class="cls-1" d="M87.8,76.05,92.1,82c-.57-.07-1.11,0-1.23-.17-1.08-1.72-2.08-3.48-3.1-5.24C87.71,76.47,87.78,76.3,87.8,76.05Z"/><path class="cls-1" d="M131.07,131.73c-1.81-1-3.55-1.67-4.49-3.54C128.18,128.29,130.65,130.16,131.07,131.73Z"/><path class="cls-1" d="M157.59,168c1.81,1.9.73,4.32,1.73,6.22C158.23,173.69,157.25,170.08,157.59,168Z"/><path class="cls-1" d="M112.36,130.43c1.53-.26,5,2,5.61,3.71Z"/><path class="cls-1" d="M119.86,164.58c-1.85-1.08-4.11-1.43-5.6-3.16l.24-.45,5.64,3.11Z"/><path class="cls-1" d="M143.05,195.48c-2.44-.78-3.77-2.14-3.85-4.25l4.08,4Z"/><path class="cls-1" d="M154.76,99.83a8.51,8.51,0,0,1-.86,6.07A12,12,0,0,1,154.76,99.83Z"/><path class="cls-1" d="M182.42,168.88c-.6,1.4-.37,3.35-2.6,3.55l.5-3.24.26,0,.2.9Z"/><path class="cls-1" d="M132,166.75c.39.37.78.76,1.18,1.12s1.39.24,1.13,1.28c0,.08.58.31.87.51s.84.59,1.26.89l-.21.36a5.93,5.93,0,0,1-1.84-.82,18.91,18.91,0,0,0-3.71-3.31H132Z"/><path class="cls-1" d="M191.4,200.76c.36-2.71.88-3,3.3-3C193.72,198.93,193.06,200.33,191.4,200.76Z"/><path class="cls-1" d="M164.41,114.75a6.41,6.41,0,0,1-.94,5.92c-1.09-1,.14-1.92.16-2.84A14.93,14.93,0,0,1,164.41,114.75Z"/><path class="cls-1" d="M122.42,118.66a7.1,7.1,0,0,1,4.18,3.57C125.35,120.91,123,120.93,122.42,118.66Z"/><path class="cls-1" d="M159.37,217.47c-1,.12-2.09.63-3.17-.35l.78-.4-1.29-.77c1.21-.58,2.11-.8,2.92.29l-1.17.42,0,.21,1.95.26Z"/><path class="cls-1" d="M161.61,167.14c1.14,1.65,1.46,3.26,0,5.15Z"/><path class="cls-1" d="M165,229.19l-2.17.59c.93-1.89,1.64-2.45,2.71-2.29l-.45,1.26,1.25-.63.19.27-1.6,1.81Z"/><path class="cls-1" d="M157.89,213.23l3.12-.33v2C160,214.5,158.69,215,157.89,213.23Z"/><path class="cls-1" d="M165.29,151.93c-.84,2.38-.72,5-2.15,7.24l-.31-.08c.64-2.44,1.29-4.88,1.93-7.31Z"/><path class="cls-1" d="M155.83,217.75c-2,.38-2.64,0-2.85-1.78C154.82,215.7,155.28,216,155.83,217.75Z"/><path class="cls-1" d="M161.19,224.13c.19.53.54,1.19.44,1.27a14.25,14.25,0,0,1-2.49,1.56c-.15.08-.59-.43-.77-.91l.8.19-.19-.33Z"/><path class="cls-1" d="M130.3,63.86c-.76-1.22-1.52-2.43-2.29-3.64-.34-.53-.5-1,.2-1.39s1,.06,1.26.65a7.68,7.68,0,0,1,.21.83l-1-.77-.16.06,2.09,4.06Z"/><path class="cls-1" d="M131,71c1.14,1.71.9,3.19-.73,4.81C130.48,74.2,130.73,72.6,131,71Z"/><path class="cls-1" d="M161.14,113c-1-1.75-.22-3.28.32-4.86C162.39,108.65,162.33,109.47,161.14,113Z"/><path class="cls-1" d="M151.49,84.79l-.32,7.13-.56,0c.14-2.38.27-4.75.41-7.13Z"/><path class="cls-1" d="M134.4,189.22l-5.1-4.47c2,1.11,4.15,2.08,5.38,4.15Z"/><path class="cls-1" d="M176.79,155.81l1.89-6.26C179.37,150.69,178.23,154.11,176.79,155.81Z"/><path class="cls-1" d="M142.09,197.88c1.74,0,2.78,1.06,3.69,2.49C143.25,199.79,141.91,198.86,142.09,197.88Z"/><path class="cls-1" d="M139.14,96.34l-1.56,7.1-.39-.09,1.33-7.12Z"/><path class="cls-1" d="M168.37,197l.14-.79c-1,.06-1.35-.57-1.09-2.23l1.12.39-.11,1.17.87-.75C169.88,195.82,169.57,196.57,168.37,197Z"/><path class="cls-1" d="M130.17,70.85l-.74-6.7C130.37,66.4,131.43,68.29,130.17,70.85Z"/><path class="cls-1" d="M166,227.39l-1.56-2,1.46-1a6.05,6.05,0,0,1,.92,1.65C166.89,226.32,166.36,226.8,166,227.39Z"/><path class="cls-1" d="M135.05,96.88c.9-1.59-.24-3.77,1.46-5.14l.45.12c-.46,1.72-.93,3.43-1.4,5.15Z"/><path class="cls-1" d="M139.35,182.21c1.57.94,3.41,1.57,4,3.56l-.24.27-4.05-3.52Z"/><path class="cls-1" d="M118,57.92c.72,1.87,2.11,3.58,1.19,6.21L117.71,58Z"/><path class="cls-1" d="M143.92,181.08c1.69,0,2.41,1.14,3.39,2C146.14,183.91,146,183.83,143.92,181.08Z"/><path class="cls-1" d="M110.52,132.89c.38.21.78.41,1.15.65a14.22,14.22,0,0,1,1.71,1.26c.2.17.17.59.25.9-.32,0-.75.12-.93,0-.86-.75-1.65-1.57-2.47-2.36Z"/><path class="cls-1" d="M158.57,192.61c1.5,1.66,2.69,5.15,2.05,6.06C159.9,196.55,159.23,194.58,158.57,192.61Z"/><path class="cls-1" d="M144.78,194.64c2.58-.12,3,.18,3.53,2.39Z"/><path class="cls-1" d="M144.67,175a4.67,4.67,0,0,1,1.36,4C145.51,177.69,143.56,176.94,144.67,175Z"/><path class="cls-1" d="M136.4,140.6c1.72,1.12,2.94,3.49,2.55,5.15Z"/><path class="cls-1" d="M99.11,77.25l1.76.84V77.3l.23-.13,1,1.54-.24.18-.64-.24.8,1.63c-1.34-1-2.68-1.47-2.9-3.06Z"/><path class="cls-1" d="M131.15,135.21,129,132.79c.82-.18,1.48-.53,1.74-.34a2.42,2.42,0,0,1,.77,2.46Z"/><path class="cls-1" d="M185.9,213.85c-.12-.46-.5-1.08-.36-1.56s.77-.89,1.36-1.52C187.05,212.16,188.3,213.36,185.9,213.85Z"/><path class="cls-1" d="M128,87.54c.26-1.38.5-2.76.78-4.13,0-.15.35-.32.54-.33s.37.34.34.46c-.38,1.38-.79,2.75-1.2,4.12Z"/><path class="cls-1" d="M120.28,72.89l.33-6.11C121.57,68.07,121.41,70.36,120.28,72.89Z"/><path class="cls-1" d="M116.16,168.93c.1-.15.17-.35.31-.41s.29.09.4.2c.63.59,1.19,1.26,1.87,1.78a18.27,18.27,0,0,0,2.08,1.17l-.26.47a13,13,0,0,1-3-1.76c-.46-.44-.66-1.21-1.39-1.48Z"/><path class="cls-1" d="M122.56,167a5.15,5.15,0,0,1,1.33.28c1.07.56,2.1,1.19,3.13,1.83a3.46,3.46,0,0,1,.64.68c-.3,0-.67.08-.88-.06-1.09-.69-2.14-1.45-3.21-2.18-.32-.22-.66-.4-1-.59Z"/><path class="cls-1" d="M135.52,102.08c-.1,1.78-.2,3.48-.29,5.08C134.07,106.23,134.11,103.88,135.52,102.08Z"/><path class="cls-1" d="M111.12,81.78l1.43,2.89-.39.27-2.51-2.68Z"/><path class="cls-1" d="M155.17,221.69,151,220.54C153.19,219.66,154.4,220,155.17,221.69Z"/><path class="cls-1" d="M155.74,223.74l-4.38-.22C153,222.2,154.85,222.29,155.74,223.74Z"/><path class="cls-1" d="M175.56,209.61c-.18,1.07.65.53,1,.58.57,1.56.14,2.07-1.67,2Z"/><path class="cls-1" d="M127.39,177.88c-2.07.14-3.15-1.31-4.44-2.41l.2-.31Z"/><path class="cls-1" d="M93.58,71.15c-.77-.79-2.34-.93-2.22-2.46C93.68,68.1,93.05,70.13,93.58,71.15Z"/><path class="cls-1" d="M156.06,164l.69,3.86-.38.07c-1.3-1.1-1-2.49-.67-3.88Z"/><path class="cls-1" d="M152.16,96.48l-.6,5.17-.37-.05C151.06,99.83,151,98.07,152.16,96.48Z"/><path class="cls-1" d="M148.7,225.5c1.42-.36,2.52-2.07,4.64-.79l-4.59,1.08Z"/><path class="cls-1" d="M166.44,217.66l.58,1.52-2.23,1.32C164.12,218.72,165.82,218.78,166.44,217.66Z"/><path class="cls-1" d="M128.7,90.52l-.86,4.28-.41-.08C126.63,93,127.9,91.84,128.7,90.52Z"/><path class="cls-1" d="M138.1,183.88c-1.21-.53-2.47-.94-3-2.25.56-.12,1-.25,1.45-.3.16,0,.34.15.51.22C136.35,182.83,138.32,182.74,138.1,183.88Z"/><path class="cls-1" d="M150.57,207.71c1.16-.35,1.72,0,2.61,1.56C151.43,209.29,150.85,209,150.57,207.71Z"/><path class="cls-1" d="M143.5,208a4.9,4.9,0,0,1,3.53,2.72c-1.25-1.11-3.22-.79-3.5-2.76Z"/><path class="cls-1" d="M155.74,215.13c-.3-.35-.74-.66-.69-.84.09-.35.58-.94.68-.9a9.76,9.76,0,0,1,1.55,1Z"/><path class="cls-1" d="M133.53,139.17l.82,1.56.55-1.18,1.52,2.8A3.79,3.79,0,0,1,133.53,139.17Z"/><path class="cls-1" d="M99.14,77.22a4.88,4.88,0,0,1-1.27-1c-.61-1-1.06-2-1.64-3.17,1.93.86,1.88,2.87,2.88,4.18Z"/><path class="cls-1" d="M181.58,212.84c1.18.16,1.44.86,1,1.6-.19.31-1,.22-1.56.31l-.23-.44Z"/><path class="cls-1" d="M145.46,214.59l-5-.37c.16-.31.29-.7.36-.69,1.57.22,3.13.49,4.7.74Z"/><path class="cls-1" d="M111.92,131.33l4.42,3.32-.27.38-4.42-3.35Z"/><path class="cls-1" d="M161.37,157.92a19.33,19.33,0,0,1-.21,2.53,9.09,9.09,0,0,1-.86,2.33C160.24,160.79,160.89,158.2,161.37,157.92Z"/><path class="cls-1" d="M169.18,228.5a3.76,3.76,0,0,1-.27,1.25,12.09,12.09,0,0,1-1.51,1.76c-.13.14-.48.06-.73.08a4.9,4.9,0,0,1,0-.66c0-.1.14-.19.22-.27C167.57,230,168.26,229.35,169.18,228.5Z"/><path class="cls-1" d="M122.56,167v0a8.09,8.09,0,0,1-1.37-.53,16.69,16.69,0,0,1-1.47-1.11C121.24,165,122.66,165.88,122.56,167Z"/><path class="cls-1" d="M163.18,215.16c-.44-.66-.89-1.32-1.29-2a1,1,0,0,1,.52-.43,4.12,4.12,0,0,1,1.07.08v2.12Z"/><path class="cls-1" d="M148.4,186.33c-1.54.47-2.17-1.06-3.38-1.32C145.89,184.43,147.51,185.08,148.4,186.33Z"/><path class="cls-1" d="M136,111.4l-.63,4.14C134.36,114,134.56,112.77,136,111.4Z"/><path class="cls-1" d="M192.41,214.78l2.92-.34C194.47,216.14,193.66,216.21,192.41,214.78Z"/><path class="cls-1" d="M132.08,67.9q.38,2.82.73,5.64l-.32,0-1-5.61Z"/><path class="cls-1" d="M94.08,80.39l-2.41-3.52C93.17,77.2,94,78.46,94.08,80.39Z"/><path class="cls-1" d="M166.2,191.43c-1.37-2.05-1.3-2.22.82-2.34Z"/><path class="cls-1" d="M120.5,144.16l2.92,2.2C122.28,146.65,121,145.67,120.5,144.16Z"/><path class="cls-1" d="M167.63,157.73v-4.39h.4v4.39Z"/><path class="cls-1" d="M116.68,59.68l-1.58-3.31A2.44,2.44,0,0,1,116.68,59.68Z"/><path class="cls-1" d="M96.81,120.25l-2.92-3.57.29-.31,3.38,3.15Z"/><path class="cls-1" d="M136.4,200.93c-1-.64-2.43-.48-2.92-1.85l.2-.35,3,1.72Z"/><path class="cls-1" d="M129.57,97.38l1.35-4.64C131.39,93.88,130.67,96.41,129.57,97.38Z"/><path class="cls-1" d="M166.09,217.18a10.63,10.63,0,0,1-1.72.72c-.17,0-.61-.38-.65-.63s.31-.71.5-.71a9.82,9.82,0,0,1,1.78.21Z"/><path class="cls-1" d="M154.22,214.8c-1.38.51-2.12,0-2.52-1.47C152.61,213.87,153.81,213.41,154.22,214.8Z"/><path class="cls-1" d="M145.12,110.85c.24-1.43.42-2.54.62-3.64,0-.11.24-.28.31-.26s.39.25.37.33C146.15,108.4,146.52,109.73,145.12,110.85Z"/><path class="cls-1" d="M180.35,179.94c.38,1.39.66,2.55-.62,3.52C179.66,182.26,179.35,181.1,180.35,179.94Z"/><path class="cls-1" d="M120.29,172.86l4.09,1.49-.1.29a22,22,0,0,1-2.17-.49c-.69-.23-1.35-.59-2-.89Z"/><path class="cls-1" d="M95.74,79.79a8,8,0,0,1,2.32,3.26l-.33.24-2.3-3.24Z"/><path class="cls-1" d="M163.87,227.59a12.73,12.73,0,0,1-1.68,1.18c-.18.09-.58-.25-.89-.39.19-.26.33-.64.58-.74a11.77,11.77,0,0,1,1.77-.45Z"/><path class="cls-1" d="M134.53,98.25c-.22,1.55-.44,3.1-.67,4.8C133.24,102,133.47,100,134.53,98.25Z"/><path class="cls-1" d="M133.61,83.86l-1.09,4.52-.39-.09.94-4.57Z"/><path class="cls-1" d="M178.64,148.69l1.56-3.94.39.15c-.63,1.28-.41,2.87-1.61,3.93Z"/><path class="cls-1" d="M191.06,211.9c-.36.5-.63,1.24-1.11,1.43-.31.13-.94-.55-1.43-.87l.19-.38,1,.28,1-.77Z"/><path class="cls-1" d="M121.69,80.25l.94-5.48.4.07-1,5.5Z"/><path class="cls-1" d="M184,191.49l-1.09.59c0-1.31.75-2.08,2.37-2.35l-1.32,1.8Z"/><path class="cls-1" d="M105.73,139.61l-4-3,.22-.3,4,3Z"/><path class="cls-1" d="M123.19,112.22c.23.09.6.12.68.29a20.7,20.7,0,0,1,1.6,4l-2.27-4.35Z"/><path class="cls-1" d="M181.57,227.51a15.75,15.75,0,0,1-1.85.49.85.85,0,0,1-.73-.34.91.91,0,0,1,.19-.82,1,1,0,0,1,.83-.06A11.88,11.88,0,0,1,181.57,227.51Z"/><path class="cls-1" d="M143.53,208c-1.05.75-1.89.33-2.22-1a5.7,5.7,0,0,1,1.47.23c.3.13.48.55.72.85Z"/><path class="cls-1" d="M187.73,175.85,185.85,178l-.38-.24a18.49,18.49,0,0,1,1.09-1.94C186.65,175.67,187.14,175.82,187.73,175.85Z"/><path class="cls-1" d="M91.81,70.44l2.94,3.24c-1.65-.62-2.17-2.08-3.27-2.92Z"/><path class="cls-1" d="M172.47,232.08l.62,2.25C171.35,233.75,171.25,233.42,172.47,232.08Z"/><path class="cls-1" d="M181.7,228.91l-1.36,1.46a6.08,6.08,0,0,1-.69-1,.69.69,0,0,1,.16-.63c.12-.12.4-.1.61-.08C180.78,228.73,181.13,228.81,181.7,228.91Z"/><path class="cls-1" d="M172.22,175.56a10.62,10.62,0,0,1-.42-1.63,2,2,0,0,1,.31-1c0-.09.49-.1.5-.06a1.9,1.9,0,0,1,.2.94A14.19,14.19,0,0,1,172.22,175.56Z"/><path class="cls-1" d="M174.59,200.22c.3-.49.58-1,.9-1.47a3.25,3.25,0,0,1,1.16-1.1l-1.44,2.87Z"/><path class="cls-1" d="M175,146.44a11.25,11.25,0,0,1-.5,1.62c-.1.22-.46.32-.7.47-.07-.32-.3-.71-.19-.93a8.76,8.76,0,0,1,1.05-1.33Z"/><path class="cls-1" d="M109.78,89.11l2,3.13-.41.26-2-3.16Z"/><path class="cls-1" d="M150.61,175.05a16.57,16.57,0,0,1,1.33,1.32c.08.1-.12.44-.19.67-.22-.08-.53-.09-.66-.25a14.67,14.67,0,0,1-.89-1.33Z"/><path class="cls-1" d="M134.36,181.74c-.68-.44-1.7-.63-1.12-2.23l1.57,1.89Z"/><path class="cls-1" d="M161.35,104.8c.13-1.43.25-2.86.38-4.28.15,1.45.61,2.93,0,4.33Z"/><path class="cls-1" d="M97.28,77.56l1,1.83c-.23.06-.55.23-.69.14C97,79.16,96.42,78.72,97.28,77.56Z"/><path class="cls-1" d="M163.18,181.23c.63.79,2.21,1.43.49,2.7l.17-1.17-.51.39Z"/><path class="cls-1" d="M100.43,71.08l1.85,2.48-.42.33-1.92-2.42Z"/><path class="cls-1" d="M142.74,116.6l.84-3,.46.12-.66,3Z"/><path class="cls-1" d="M167.76,221.29l.73,2.47C167.59,224.12,167.23,223.3,167.76,221.29Z"/><path class="cls-1" d="M128.79,95l.6-2.88a3.16,3.16,0,0,1-.19,3Z"/><path class="cls-1" d="M169.26,193.28c-1.21-1.44-1.2-2-.21-3Z"/><path class="cls-1" d="M178.92,220.4c.56-.88.1-2.3,1.77-2.23C180.34,219.11,180.11,220,178.92,220.4Z"/><path class="cls-1" d="M163.75,222.13,161,223.32A2,2,0,0,1,163.75,222.13Z"/><path class="cls-1" d="M178.56,225.34l-.31,1-.34,0-.91-2.34.37-.21c.41.5.81,1,1.22,1.52Z"/><path class="cls-1" d="M81.05,94.16l.28,3.65-.43,0-.36-3.66Z"/><path class="cls-1" d="M148.88,181.32l2.42,1.88-.3.38-2.42-1.88Z"/><path class="cls-1" d="M171.8,231.55l-1,2.21C170,232.62,170.44,231.73,171.8,231.55Z"/><path class="cls-1" d="M142.18,83.27l-.63,3.07-.46-.09.55-3.11Z"/><path class="cls-1" d="M134.3,85.69l.38-3.13C135.51,82.9,135.43,83.82,134.3,85.69Z"/><path class="cls-1" d="M180.4,194.62c-.22.65-.38,1.21-.62,1.74-.06.15-.35.19-.54.28-.05-.18-.18-.38-.14-.54C179.28,195.46,179.06,194.48,180.4,194.62Z"/><path class="cls-1" d="M166.34,224.13l-.54-1.59c.31,0,.84-.08.89,0A5.89,5.89,0,0,1,167,224Z"/><path class="cls-1" d="M136.45,145.71c.2.69.44,1.37.6,2.07,0,.12-.26.31-.4.46-.23-.23-.65-.45-.65-.68a9.88,9.88,0,0,1,.24-1.78Z"/><path class="cls-1" d="M98.11,64.92l-1.63-3.26.45-.21,1.43,3.35Z"/><path class="cls-1" d="M92,58.77l1,2.91C91.88,61.17,91.56,60.31,92,58.77Z"/><path class="cls-1" d="M120.19,149l-3.5-2,.33-.48,3.14,2.52Z"/><path class="cls-1" d="M160.94,164.38l-.66,2.54-.52-.13.7-2.57Z"/><path class="cls-1" d="M146.75,203.19l-2.36-1C145,201.48,146,201.84,146.75,203.19Z"/><path class="cls-1" d="M141,209.81l-2.49-1.05C139.75,208.16,140.42,208.87,141,209.81Z"/><path class="cls-1" d="M81.19,81.06l1,1.51-.15.25c-.4-.15-.93-.2-1.16-.48s-.12-.79-.17-1.2Z"/><path class="cls-1" d="M83.16,85.58c-1.08-1-1.17-1.3-.61-2.18l1,2Z"/><path class="cls-1" d="M146.92,212.33c1.61,0,1.7,1.13,2.25,1.8l-.27.27Z"/><path class="cls-1" d="M143.18,133.54l.29-4,.33,0-.22,4Z"/><path class="cls-1" d="M141.92,158.64c-.81-.49-1.34-.77-1.81-1.12-.11-.08,0-.41,0-.63.33,0,.8-.1,1,.07A9.77,9.77,0,0,1,141.92,158.64Z"/><path class="cls-1" d="M148.9,173.37,147.21,170l.34-.17,1.69,3.34Z"/><path class="cls-1" d="M165.67,196.36l.66,2.29A1.32,1.32,0,0,1,165.67,196.36Z"/><path class="cls-1" d="M126,148l2.35,1.78A2,2,0,0,1,126,148Z"/><path class="cls-1" d="M129.26,173.45l-2.53-2.1L127,171l2.57,2.06Z"/><path class="cls-1" d="M144.87,118.13l-.83,2.94-.48-.14.86-2.93Z"/><path class="cls-1" d="M171.41,169.66l-1.06.48c-.44-1,.23-1.42.93-2Z"/><path class="cls-1" d="M162.9,211.8c-.77.07-1.58.23-1.74-1.26l1.94.83Z"/><path class="cls-1" d="M91.19,106.65c.83-.5,1.14-.21,1.36,1.73Z"/><path class="cls-1" d="M140.86,166.9l2.06,1.59-.38.47-2-1.72Z"/><path class="cls-1" d="M134.67,176.88c.56.76,2.09.29,2.13,1.94l-2.39-1.61Z"/><path class="cls-1" d="M98.83,88.92c-1.21,0-1.48-.36-1.67-2Z"/><path class="cls-1" d="M165.89,181.82l1.21-2.07C167.63,181,167.13,181.62,165.89,181.82Z"/><path class="cls-1" d="M189.65,218.84l-2.43.32-.07-.53,2.42-.3Z"/><path class="cls-1" d="M92.33,82.2l1,2.44C92.2,84,91.76,83,92.33,82.2Z"/><path class="cls-1" d="M87,107.13l-1.24-2.32.49-.25,1.2,2.34Z"/><path class="cls-1" d="M98.34,67.19l1.55,2.15C99,69.3,99,69.3,98.34,67.19Z"/><path class="cls-1" d="M145.11,137.54l-.35,2.6-.48-.06.46-2.59Z"/><path class="cls-1" d="M146.28,86.77l.53-2.85.39.07-.41,2.89Z"/><path class="cls-1" d="M120.16,149l3.36,2-.29.43-3-2.42Z"/><path class="cls-1" d="M123.2,112.21l-1.49-3.1L122,109c.4,1.07,1.64,1.8,1.15,3.25Z"/><path class="cls-1" d="M94.55,67.41l1.25,1.9-.33.23L94,67.82Z"/><path class="cls-1" d="M181,193.81c-.65-1.18.44-1.56.64-2.35l.35.16Z"/><path class="cls-1" d="M137.52,88l-.23,2.89-.6-.07c.06-.25.11-.51.18-.76s.22-.74.34-1.1.23-.66.34-1Z"/><path class="cls-1" d="M95.94,65.09l-1.21-2.71.4-.19,1.19,2.68Z"/><path class="cls-1" d="M118.56,102c-.41-.63-.83-1.25-1.21-1.9-.06-.1.09-.33.15-.49.19.07.5.1.56.23.28.67.49,1.36.73,2Z"/><path class="cls-1" d="M102.24,89.75,101,87.5l.39-.22,1.24,2.27Z"/><path class="cls-1" d="M137.32,176.42l1.74,1.05C137.83,178,137.34,177.71,137.32,176.42Z"/><path class="cls-1" d="M167.77,226.52a6.89,6.89,0,0,1-.34,1.28c0,.07-.53-.06-.81-.09l.46-1.37Z"/><path class="cls-1" d="M146.16,129l-.6,2.44C145,130.46,144.83,129.74,146.16,129Z"/><path class="cls-1" d="M138.9,86.72l.73-2.59.42.11-.74,2.6Z"/><path class="cls-1" d="M140.35,109.79l-.48,2.25-.52-.11.48-2.2Z"/><path class="cls-1" d="M139.56,199.94l-2.37-1.46.29-.45,2.27,1.57Z"/><path class="cls-1" d="M119.13,59.09l-1.37-3.37.25-.11L119.53,59Z"/><path class="cls-1" d="M161.41,219.2l-1.86.29.39-1.56Z"/><path class="cls-1" d="M148.8,206.62l1.39,1.69-.37.34-1.51-1.58Z"/><path class="cls-1" d="M154.49,156.88l-.38,3-.41,0,.37-3Z"/><path class="cls-1" d="M101,84.44l-1.33-2.13C100.39,82.34,101.08,83.27,101,84.44Z"/><path class="cls-1" d="M89.34,88.37l-1.73-2C88.84,86.49,89,86.72,89.34,88.37Z"/><path class="cls-1" d="M117.72,98.51c-.44,0-.56,0-.58,0-.34-.55-.67-1.1-1-1.67a3.59,3.59,0,0,1,.33-.25Z"/><path class="cls-1" d="M181.53,208.44c-.31.52-.6,1.05-.94,1.55,0,0-.47-.08-.48-.15a1.18,1.18,0,0,1,.11-.76,6.46,6.46,0,0,1,1.05-.8Z"/><path class="cls-1" d="M197.69,200.18l.45-2C199,199.29,198.87,199.64,197.69,200.18Z"/><path class="cls-1" d="M103.89,77.06l-1.33-1.58.45-.37,1.32,1.58Z"/><path class="cls-1" d="M140.57,166.09l-1.73-1.48.28-.33,1.74,1.46Z"/><path class="cls-1" d="M128.65,157.39a2,2,0,0,1-2-1.54l.31-.3,1.61,1.87Z"/><path class="cls-1" d="M124.79,148.3l-1.25-1.59.41-.33,1.32,1.55Z"/><path class="cls-1" d="M117.3,123.49l2,1.9-.24.28L117,123.86Z"/><path class="cls-1" d="M116,104.46l1.77,2.32-.35.26-1.7-2.35Z"/><path class="cls-1" d="M130,102l-.95,2.48-.38-.14.81-2.5Z"/><path d="M133.06,128.34V126h.41v2.35Z"/><path d="M135.5,134.21l1.28,2.81-.22.11-1.47-2.72Z"/><path d="M153.07,197.79l-3-1.51.16-.35,3,1.46Z"/></svg>