<svg id="Layer_1" data-name="Layer 1" xmlns="http://www.w3.org/2000/svg" viewBox="0 0 400 400"><defs><style>.cls-1{fill:#fff;}</style></defs><title>Artboard 2</title><path d="M193.61,214.72a3.16,3.16,0,0,1,3.22-2.51,29.34,29.34,0,0,0,6.23-1.45c2.8-.88,5.54-1.94,8.38-2.94l.2,1.15c2.47-1.79,4.27.06,6.24,1,3,1.36,5.87,2.84,8.85,4.16,1,.44,2.23.38,3.2.87,1.38.68,2.54,1.79,3.93,2.45a7.67,7.67,0,0,0,3.5.48c-3-2-6-4.1-9.09-6-.67-.42-1.71-.21-2.51-.47a3.43,3.43,0,0,1-1.64-1.33l6.45,1.64c-.95-1.32-1.79-2.56-2.72-3.74a28.06,28.06,0,0,0-8-6.74c-2.82-1.68-5.5-3.59-8.27-5.34-.73-.46-1.61-.68-2.36-1.12-.36-.22-.57-.69-.85-1h0c1.79.59,1.91.53,2.37-1.18l-4.32.43-.09-.42,4.24-1c-1.12-.53-2.28-1.47-3.48-1.52-1.5-.06-3,.62-4.67.61l6.35-1.8-1.5-.74h3.32l1.9-2.9,6.32,6.06c1,.82,3.12.21,2.7,2.7l2.89.53-6.65-7c.13.59.25,1.09.45,2L216.53,188l.51-.18a5.88,5.88,0,0,0-.65-2.24,35.33,35.33,0,0,1-3.5-4l3.62,3,.27-.31c-1.35-2-2.63-4.08-4.11-6a2.56,2.56,0,0,0-2.19-.65c-3.39.86-6.74,1.9-10.24,2.76a13.57,13.57,0,0,1,1.75-.87c2.77-.87,5.55-1.65,8.31-2.55.45-.15.76-.71,1.14-1.08-.52-.18-1.09-.59-1.56-.49-2.45.5-4.87,1.14-7.3,1.73l-.28-.43c.28-.24.53-.63.84-.69a19.57,19.57,0,0,0,2.58-.3,11.46,11.46,0,0,0,2.25-1.38l2.3.46.29-.55-1.63-2.12.76-.71-2.48-1.2.08-.35a28.5,28.5,0,0,1,3.79-.32c1.33.05,1.67-.39,1.46-1.66a10.14,10.14,0,0,1,.15-2.3l1.71,1.28c-1.37-3.35-1.38-3.41-4.52-2.86-1.6.28-3.42,0-4.62,1.6-.21.28-1,.2-1.46.21-1.38,0-2.77,0-4,0l4.07-1.79-.07-.55c-3.62,1.93-6.09-1.29-9.21-1.65,1.46-.93,2.59,0,3.92.36s2.73-.46,4.1-.76l-.1-.53-3.67.44-.09-.41a19.94,19.94,0,0,1,4.49-.93,27.39,27.39,0,0,1,4.87.92l-8.08,1.89,0,.57c.7,0,1.39,0,2.09,0,1.32,0,2.64-.15,4-.18,1.81,0,3.63.05,5.42-.16.37,0,.87-1.13.88-1.75,0-1,0-2.2-1.45-2.26s-3.14,0-4.71,0a17.86,17.86,0,0,1-3.41-.21l2-.19-1.54-1,6.7.67.06-.65c-3.89-1.37-8-.59-12-.63v-.78c3.75-.26,7.5-.6,11.25-.74,1.63-.06,2.15-.53,2.79-2.19a21.2,21.2,0,0,0,.93-6.54c.09-1.53-.3-3.09-.18-4.62s.69-3,.89-4.58a4.12,4.12,0,0,0-.36-2.3,18,18,0,0,0-1.86-2.54l.35-.29,3.61,4.18h.36l-1.16-4.56c2.07,2.56,1.21,7,5.5,8,0-.14.08-.38,0-.44-2.24-2-2.82-4.79-3.74-7.46a25.87,25.87,0,0,0-2.6-4.55c-.31-.54-.66-1-1-1.56l.4-.28,1.79,2.42c-.22-2.8-2.17-5.67-3.81-4.52l-.36-.34,1.71-1.74c-2.36-2.52-4.85-4.85-8.73-5.32l-.15,1.17-2.6.37,3.53,1.64-5.7.68c-.51-.53-.81-1.09-1.26-1.25-1.69-.6-3.43-1.07-5.16-1.59l.11-.47,6.54,1.8-.72-1.13,4.28-.42L197.37,115l.06-.26,3.12.38.17-.6L196.08,113l-.12-.41,2.49-.62c-.31-2.73-4.14-2.95-4.22-6-.07-2.48-.33-5-.51-7.44l.64-.06.3,3.37c.41,2.39,1.41,3.22,3.24,2.82-.82-1-1.67-1.94-2.56-2.89-.09-.1-.46.06-.7.09l1.7-4.08a6.31,6.31,0,0,0-.76-1.62,4.68,4.68,0,0,1-1.18-3.87c.11-1.84.39-3.69.34-5.52a33.38,33.38,0,0,0-.68-4.49,9,9,0,0,0,.77-2.41c.06-2-.19-4.08-.13-6.12,0-1.15.49-2.28.64-3.44.36-2.92.67-5.85.95-8.79.08-.73-.11-1.49-.08-2.24.06-1.73.18-3.45.29-5.18.05-.68.4-1.45.18-2-1.25-3.24-.48-6.47,0-9.69a5.59,5.59,0,0,0-.37-3.74c-.55-1.09-.1-3.07.56-4.3a7.37,7.37,0,0,0,.69-6c-.84-2.38-.33-4.57-.05-6.86.53-4.43.92-8.87,1.52-13.29a29,29,0,0,1,1.43-5.11c.11-.33.74-.45,1.09-.73a10.09,10.09,0,0,0,.92-.93h.76c-.33,1.76-.34,3.67-1.05,5.26-1.1,2.46-.37,4.81-.27,7.21,0,.8,0,1.61,0,2.41-.15,2.77-.37,5.53-.47,8.3-.08,2.12,0,4.24,0,6.59-1-3.59-2-6.82-2.89-10l-.52.11c.38,1.86.71,3.74,1.16,5.59.51,2.08,1.47,4.1,1.64,6.19.19,2.38-.35,4.8-.43,7.21-.09,2.57-.11,5.15,0,7.71.11,1.85.56,3.69.83,5.53a17.19,17.19,0,0,1,.37,3.55,6.08,6.08,0,0,1-1,2.47c-1.27,2.16-.37,4.39-.38,6.59,0,4,.74,8.07-.89,12-.57,1.41-.14,3.22-.27,4.83a10.88,10.88,0,0,1-.75,2.18l-2-7.88-.66.13c.19,2.47-.69,4.88,1.12,7.4A9.77,9.77,0,0,1,198,92.91l-2.3-5.73c-.75,1.85-1.29,3.52.42,5,.5.44.52,1.47.64,2.25a17.12,17.12,0,0,1,0,2.31l1.92-2.33c-.09,1-.17,1.94-.26,2.9-.19,0-.45-.2-.54-.13-1.83,1.45-1.9,3.22.12,5.12l-.91-3.39,1.79.43-.5-2.06c.86-.61,2.35-.77,1.3-3L201.57,96c-.21-1.3-.41-2.52-.64-3.89l-2.3,2.35A16,16,0,0,1,206,87c-1.58,1.17-.56,2,.42,2.84,0-.54-.08-1.08-.13-1.7l1.33,1.09c-.17-1.31-.27-2.15-.41-3.2,1.16-.94,1.16-.94,2.22.83.93-.53,2.83-.08,1.87-2.66l2.35,1.57-1.48-2.95c1.37-1.12,2.21-1.09,4.39.47l.11-.5c1.07.16,2.3,0,3.17.53,2.09,1.21,3.93,2.86,6,4a10.17,10.17,0,0,0,4.71,1.48c1.56,0,2.24.42,2.5,1.8.35,2,.53,3.87-.95,5.55-.3.34-.22,1-.39,1.91L233.1,97a18.56,18.56,0,0,1,4.59,11.85c.19,7.13-1.21,14-2.79,20.89.21-1.59.44-3.19.64-4.79s.38-3.12.53-4.35c.4-2.13.75-4,1.16-6.22l-2.94.74.54,1.37-1.74-.79.24,1.48-1.28-.2c.43.77.72,1.27,1,1.84l-3-1.13c1.35,1.82,2.32,3.11,3.29,4.41l-.15.22-2.5-1.42-.39.39,2.4,2.52c.07,0,0,.07-.14.08a3.79,3.79,0,0,1-.67-.06l.43,1-1.14.17.67,2.25-.37.16-1.36-2-.37.16c.08.41.17.82.29,1.42l-1.43-.8-.34.48,3,2.24-2.21-.26,2.11,1.89-1.76,2.29-1.93-.67c1,1.36,2.27,2.11,3.54,1.48,1.1-.56,1.9-1.75,3-2.8-.6,1.56-.65,3.2-2.76,3.68-.44.11-.87,1.53-.81,2.31.29,4.1.74,8.18,1.13,12.27,0,.5,0,1,0,1.7l-1.24-.72c.1,1.82.11,1.8,1.44,2.51.18.09.19.5.29.75,2.46,6.18,4.86,12.39,7.4,18.55,2.7,6.52,5.56,13,8.28,19.49a28,28,0,0,1,.92,3.66,21.08,21.08,0,0,0,9.58,13.19,69,69,0,0,1,12,10.31c2.75,2.81,4.83,6.28,7.08,9.55a10.84,10.84,0,0,1,1.38,3.65c-1.59-2-1.83-5.2-5.16-5.55-.54,2.12,1,2.86,3,3.74l-1.83.25c.32.44.49,1,.8,1a11.19,11.19,0,0,1,7.56,7.19c.92,2.37,2.74,4.38,4.05,6.6,3.21,5.42,4.14,11.41,3.72,17.54-.26,3.91-1.29,7.76-1.95,11.64-.76,4.47-1.64,8.93-2.22,13.43-.66,5.12-.83,10.31-1.61,15.41a162.88,162.88,0,0,1-3.4,17.42,38.35,38.35,0,0,1-9.16,15.95c-1,1.09-2.64,1.57-4,2.35a6,6,0,0,0-2.66,3.64c-.92,2.73-.67,6.12-3.48,7.94a45.71,45.71,0,0,1-5.68,2.86,16.27,16.27,0,0,0-5.48,3.61c-2,2.14-4.67,3.63-7.12,5.32-.33.23-1-.06-1.26.25a33.82,33.82,0,0,1-3.3,2.32c-5.05,2.76-10.31,2.26-15.67,1.05a42.06,42.06,0,0,1-13.82-5.4c-.32-.2-.64-.4-.95-.62-.09-.06-.11-.21,0-.71l6.64,3.49.34-.3a10.12,10.12,0,0,1-.89-1.81,5.26,5.26,0,0,1-.31-2.33c.49-2.34,1.59-4.64,1.64-7,.07-3.75,1.68-6.84,3-10.13.81-1.95.78-4.24,1-6.4-2.32,4.88-5.23,9.49-5.7,15.07-.1,1.12-.08,2.75-1.72,3.3-.16.05-.24.43-.29.67-.39,1.74-.75,3.48-1.15,5.33l-4.15-1.67.39,1.2c-2.23.26-4.53.95-6.72.69s-4.56-1.37-6.78-2.25a47.72,47.72,0,0,1-6.24-3c5.43,1.17,10,5.61,16,4.44l-.51-3.57-1,.75c-1.4-4.66.14-9,1.14-13.4q-.54,5.77-1.07,11.56l.69.09q.79-3.53,1.58-7c1.65,1.15.45,2.31.17,3.5a20.73,20.73,0,0,0-.63,3.9c0,.54.54,1.11.87,1.73,1-4.2,1.82-8.07,2.7-11.93l.7.12-2,10.39.32.09c1-2.63,2-5.25,3-7.89s.54-5.67,3.13-7.64c-1.41,4.93-2.79,9.73-4.17,14.53l.83.27q3.54-9.72,7.07-19.43l-.6-.26-2.31,4.29-.31-.13c.11-1.08.22-2.15.38-3.67l.35,1.51.33.08q.66-2.64,1.3-5.28l-.33-.11c-1.07,2.11-2.14,4.22-3.34,6.57a19.53,19.53,0,0,0,.26-2.82c-.06-.88,1.06-2-.49-2.67a1.75,1.75,0,0,1,.14-.67q2.2-5.08,4.42-10.15a10.15,10.15,0,0,1,.86-1.2l-4.35,12.95.84.28,3.3-10.45.36.11L216.81,327l.33.11,1-2.84.38.1c-.6,2.41-1.2,4.83-1.79,7.24l.48.13q1.31-4.35,2.63-8.72l.6.18q-3.83,13.94-7.64,27.86l.55.16c1.44-4,2.74-8.14,4.37-12.11s3.57-7.77,5.52-11.63c-.63,2.38-1.34,4.74-1.85,7.15-.34,1.64-.16,3.4-.6,5-1,3.54-2.35,7-3.25,10.52a42.8,42.8,0,0,0-.63,6.66l1.07-1.17c-.21,2.57-2.07,4.77-.33,7.47l9.37,2.06.16-.61c-2-1.38-5.28.34-6.7-2.52.08-.09.2-.27.25-.25,2.51,1,2.52,1,2.21-1.83-.52-4.65.93-9,2.18-13.33.59-2.05,1.43-3.94,1.43-6.26s1.21-4.73,2-7.06c1.36-4.14,2.82-8.25,4.16-12.4a8.89,8.89,0,0,0,.36-3.35L230,327l-.54-.17c.11-.46.22-.91.32-1.37,1-4.41,2-8.82,3-13.23a14.83,14.83,0,0,1,.84-2.7c1.46-3.22.47-6.07-1.38-9l2.09.36c.15-1.46,1-1.53,2.33-.67,0-1,.31-1.89.07-2-.48-.31-1.23-.19-2-.49l2.87-.87v2.77l6.17-5.61a8.36,8.36,0,0,0,2.28-.75,13.69,13.69,0,0,0,4-4.49c1.2-2.16,3.29-3.87,5.14-5.63,1.22-1.16,2.63-2.23,4.54-1.7a15.55,15.55,0,0,1,1.56.59l.05.58-7,3.21v-.86l-.41-.23c-1.11,1.57-2.23,3.15-3.47,4.88a61.31,61.31,0,0,1,5.38-3.16c2.6-1.19,4-.2,5.72,2.12,1.3,1.77,0,3.4.62,5a8.19,8.19,0,0,1,0,2.29,12.62,12.62,0,0,0,0-9.82,4.18,4.18,0,0,1,3.05,3.54c.45,3.77.77,7.58.93,11.38.14,3.54.09,7.09,0,10.64-.07,1.82-.57,3.62-.72,5.44-.29,3.49-.47,7-.69,10.5a2.38,2.38,0,0,1-.09.94c-1.65,2.95-.13,6-.33,9.22a5.67,5.67,0,0,0,3.2-4.09c.93-4.06,1.66-8.17,2.54-12.24a7.66,7.66,0,0,1,.7-1.72,14.51,14.51,0,0,1-.51-2.55c0-5.93.34-11.88,0-17.79a92.32,92.32,0,0,0-2.17-14.3,10.8,10.8,0,0,0-3-5.06c-.84-.82-2.64-.66-4.23-1,1.43-.12,2.69-.29,4-.32a1.69,1.69,0,0,1,1.14.53c2.93,3.3,5.83,6.63,8.72,9.95a3.64,3.64,0,0,1,.31.8c-.59-.46-.95-.72-1.29-1,.22,1.1.43,2.18.67,3.39,1.9.06,1.72,1.65,1.59,2.93-.32,3.14-.44,6.38-1.37,9.34-1.19,3.78-.61,7.42-.37,11.15s.19,7.72-1.42,11.37a21.92,21.92,0,0,0-1.12,3.22c-.09.32.22.74.35,1.11.37-.24,1-.43,1.08-.75,1.18-4.58,2.37-9.15,3.39-13.76s1.85-9.34,2.76-14c0-.16,0-.32-.25-.57q-.94,3.42-1.91,6.82l-.48-.11c.22-.86.38-1.73.66-2.56a38.79,38.79,0,0,0,1.92-14.39,22.12,22.12,0,0,1,.29-4.52c.59-4-.28-7.63-1.7-11.38-1.15-3-3.41-4.25-5.92-5a4,4,0,0,0-4,.78,8.32,8.32,0,0,1-7.17,1.94c-4.05-.73-8.4-.76-11.7,1.57-1.91,1.35-5.24,3-4.27,6.76.05.19-.3.49-.78,1.2-.34-3,.6-5.19,1.81-7.6h-5.14c1.16-1.58,2.32-1.59,3.73-1.47,1.85.15,3.88.88,5.84-1-1.76-.12-3.21-.19-4.65-.33-1.09-.11-2.17-.39-3.26-.4-.48,0-1,.44-1.73.83.33-1.15.65-2.25,1-3.35.66-2.37,1.13-4.82,2-7.1s2.27-4.06,3.15-6.2c1.05-2.53,1.8-5.18,2.64-7.8a4.81,4.81,0,0,0,0-1.37l-.52-.11q-1.94,5.24-3.88,10.46l-.48-.1c.14-.92.29-1.83.43-2.75l-.06.07c.75-2.42,1.6-4.81,2.2-7.27a7.54,7.54,0,0,0-.42-2.74l0,.05,1,.19.7-1.81c-.11,1.18-.22,2.38-.34,3.57l.22,0,1.68-4.94.34.11-.93,3.95.47.13c.11-.27.23-.52.31-.79.85-2.94,1.73-5.87,2.51-8.84.12-.44-.26-1-.41-1.53l-.43.06c-.35,1.69-.69,3.38-1.12,5.47-.19-.92-.29-1.4-.47-2.32l-1.88,5.16,2-6.25c.46-1.48,1.57-2.92-.79-4.06-1-.5-1.6-2-2.37-3l-.42.21a3.93,3.93,0,0,0,.13.92,5.81,5.81,0,0,1,0,5.11,13.09,13.09,0,0,0-.68,3.13q-1.2,5.3-2.44,10.57l-.52-.09c.1-.66.2-1.33.32-2s.26-1.5.42-2.24l2.37-10.34a7.34,7.34,0,0,0-.82-6.15c.37,6.4-2,12.21-2.52,18.27-.22,2.52-1.38,5-2.3,7.38.47-2.77,1-5.54,1.41-8.32.5-3.08,1.09-6.15,1.38-9.26a76.85,76.85,0,0,0,.21-8.32c0-.49-.67-1-1-1.46l-.44.22v3.13c.39-.54.6-.84.85-1.2-.89,7.08-1.78,14.06-2.66,21l-.43,0c.24-2.22.9-4.49.62-6.65-.48-3.68.78-7,1.14-10.56a3.93,3.93,0,0,0-.42-2c-1.67,5.1-1.69,10.48-3.07,15.68v-8c-.13-.06-.19-.12-.24-.11s-.07.11-.12.14a4.54,4.54,0,0,1-.44.28c.36-2.9.69-5.64,1-8.37l-.65-.09c-2.15,6.9-1.17,14.34-3.27,21.26.28-3.22.55-6.44.83-9.66l-.5-.07-1.25,8.69-.28,0,.82-13.09-.44-.07c-.2.54-.4,1.08-.59,1.62l-.22,0,.18-2.55-.49,0c-.18,1.5-.35,3-.53,4.52l.31,0,.7-1c-.24,2.66-.42,4.76-.61,6.86h-.48v-4.51l-.48,0c-.11.66-.21,1.32-.32,2l-.26,0,.82-9.65-.31-.09-.91,1.53c.35-2,.61-3.44.9-5a28.52,28.52,0,0,0-3.34.83,1.55,1.55,0,0,0-.72,1.19c0,5.53.19,11.07.21,16.61a10.78,10.78,0,0,1-.83,4V239l-.41-.06q-.47,6.76-.92,13.51l-.44,0V240.77l-.46,0c-.41,4.2-.81,8.39-1.23,12.72-.54-3.31.29-6.61-.62-9.74-.27-3,.54-6.17-1-9.14-.64,3.2.44,6.57-1.17,9.67v-9.43h-.68V248.2l-.77,0c-.07-1-.18-2-.19-3,0-2,.15-4.06,0-6.06-.2-2.22-.71-4.41-1.09-6.6-1.6,3.67.75,7.5-.54,11.27l-1.73-13.3-.69.06.75,8.61-.53.07c-.15-1.06-.29-2.12-.44-3.17H214v4.78c0,.49.18,1.19-.06,1.41-1.53,1.4-1.09,3.16-1.23,4.9-.3,3.83-1.1,7.62-1.29,11.44a57.72,57.72,0,0,0,.72,11.18c.31-.91.62-1.83,1.1-3.27.31,2.26-1.32,4.65,1.74,5.46l-.8.72c1.45,2.19,3.31.85,5,.66,4-.45,8-1.48,12.13-.58a8.57,8.57,0,0,1,2.6.79,33.71,33.71,0,0,0-4.25-.22,58.14,58.14,0,0,0-9.34,1,15,15,0,0,0-5.74,3,40.07,40.07,0,0,1-9.23,5.15c-1.51.67-2,1.85-2.63,3.2a8.53,8.53,0,0,0-.16,6.82,33.42,33.42,0,0,0,1.54,3.59c.1.22.48.3.73.44.13-.3.41-.64.36-.9-.17-.8-.47-1.57-.71-2.35l.58-.22c.45,1,1,1.94,1.36,2.95a10.63,10.63,0,0,0,5.47,5.77,7.07,7.07,0,0,0,2.93.54c1.29,0,2.59-.23,4.34-.41-1.09,1-1.7,1.63-2.39,2.16-3.13,2.36-6.76,4.13-8.74,7.77-1.14,2.08-2.3,4.15-3.46,6.22l.48.3,3.45-5.08.73,2.28,2.45-3.59.5.24c-.61,1.37-1.17,2.78-1.87,4.11-.82,1.57-1.72,3.09-2.66,4.59s-1.84,2.7-2.76,4.05l-.62-.4,5.43-8.32-.44-.3c-1.28,1.88-2.56,3.76-3.92,5.74l-.49-.85-1.77,2.22-.29-.15,1.44-2.82-1.39-.63,2-3.13-.56-.45c-1.32,1.63-2.68,3.23-4,4.9-1.95,2.55-3.93,5.08-5.72,7.74-2.25,3.34-4.33,6.8-6.49,10.2a8,8,0,0,1-.8.94,19.12,19.12,0,0,0,.92-2.19,5.77,5.77,0,0,0,0-1.5h-.61L186,340.37l1.38-.7c-1.63,2.83-.26,5.61.4,8.91-3.3-3.78-3.11-7.48-1.53-11.36-3,3.34-3.53,8.64-1,9.69l-1,.93,0,.5,2.26-.23,1.85,3.78c-3.51-1.13-5.05-3.41-6.76-6.37l1.79.71c-.32-1.12-.59-2.08-1-3.61a34.87,34.87,0,0,0-2.61,3.33c-.16.26.3,1.1.67,1.47,1.24,1.2,2.58,2.31,3.75,3.61-2.86-1.22-4.49-4.55-8.24-4.42l3.18-2.13-.32-.48c-.68.43-1.35.87-2,1.31l-.2-.16,1.5-2.15,0,.06c1-1,2-2,3-3a16.94,16.94,0,0,1,2-1.92L180,343l.69.4c2.6-1.65,2.77-4.78,4.42-7l-.41-.36c-4,2.48-8,4.95-12.25,7.56l1.56,1.85c-5.1.68-16.25-6-20.93-12.69l2-.39c-.06.61-.12,1.16-.15,1.44,3.45.13,4.91-2.28,6.4-4.64l.37.39-.7,1.24,5.65-2.8-5.18,4,.52.69c2.91-.77,4.26-3.84,6.8-5.17l-2.18.52,7.78-5,.24.38-4.13,3,.23.35,2.06-1,.24.34c-.72.46-1.46.89-2.17,1.37a36.08,36.08,0,0,0-3.69,2.62c-.68.61-1,1.66-1.59,2.35a24.38,24.38,0,0,1-2.49,2.14l.41.53,1.95-.77.11.17-2.49,2c-1.44-1.9-2.56-.09-3.79.22l2.68-2.41-.58-.64-3.51,2.82.28.42,1.18-.22,1.57.38-1.52.88,0,.41,2.05.11.14,1c2.22-.95,2.72-4.39,5.67-3.46-1.39,1.2-2.9,2.52-4.42,3.85,1.67,2,2.27,2,4.23.48,2.14-1.67,4.33-3.27,6.54-4.84.29-.21.87,0,1.25,0l-4.24,4.14.47.55,6.16-3.57.23.51c-1.2,1.43-2.39,2.87-3.61,4.28a1.35,1.35,0,0,1-1.05.43l1.6-2.35-.35-.42-5.77,4,3.22,1.06,7.89-6.21c3.54,0,4.32-3.75,6.94-5-.24.28-.47.57-.73.84s-.51.49-1.14,1.09c3.06-.76,3.93-3,5.24-4.9l-.49,1.67.31.16c1.08-2,2.17-4,3.28-6l-6.23,4.4-.16-.31,13.5-12.85-1.52-.08-.53-.46c0-1.27-.65-.55-1-.29-1.84,1.33-3.66,2.69-5.48,4a4.29,4.29,0,0,1-1.95.94,18.58,18.58,0,0,1,1.59-1.49c3.17-2.37,6.4-4.66,9.55-7.07a17.73,17.73,0,0,0,3.1-3,3.31,3.31,0,0,1,2.49-1.62c.64-.06,1.17-1.24,2.09-2.3-1.82.23-2.2,2.89-3.67,1.26L201,310.34l-.11-.12c.51-2.55,2.95-3.62,4.29-5.55.72-1,1.62-1.93,2.51-3l-1.07-1.31c-.25.09-.47.11-.58.23-2.47,2.67-4.9,5.39-7.41,8a18,18,0,0,1-2.54,1.92l-.37-.43,1.73-1.84-.18-.26-1.86,1.17-.2-.16,1.39-2-2.27,1.27-.15-.19,2.41-2.56-6.92,4c3.2-3.45,8.11-4.87,10.09-9.65l.44.4-.77,1.48.49.31,3.88-5.69-.61-.52c-1,.94-2.07,1.84-3,2.84s-1.9,2.2-2.87,3.29c-.79.88-1.36,2.1-3,1.49-.43-.16-1.12.39-2,.75l2.19-2.69-1.92.33c2.33-2.1,4.49-4,6.64-6l-.36-.41-9.16,7.06-.4-.52,2.18-1.79-.17-.26-1.53.83-.36-.37c1.39-1.51,2.77-3,4.28-4.65l-1.09-.5,1.29-1.77-1.65.39,2.1-2.47-3.71,2.29c-.86-2.22,2.92-.88,1.84-3.15l-1.87.9-.28-.23c.85-1.21,1.72-2.4,2.54-3.64a1.11,1.11,0,0,0,.13-1,1,1,0,0,0-.94-.26c-4.2,2.36-9.51,2.15-13.18,5.7a1.64,1.64,0,0,1-.66.36c-2.19.69-4.34,1.54-6.58,2-5.17,1.11-10.39,2-15.59,3a32.86,32.86,0,0,1-3.43.31l-.05-.55c2.88-.61,5.75-1.24,8.64-1.81s6.13-1,9.12-1.7,5.73-1.78,8.58-2.68l-.13-.52-3.88.62-.14-.34a4.93,4.93,0,0,1,1.15-.57,63.91,63.91,0,0,0,18.61-7.15c.73-.43,2,0,2.71-.4,2-1.21,3.88-2.57,4.86-4.83.08-.18.11-.5.23-.54,2.11-.7,1-1.47-.17-2.45,3.32,1.08,3.11-3.27,5.8-3.29-.19,1.2-2.41,2.12,0,3.65-1.34.85-2.5,1.56-3.63,2.32s-1.28,1.63-.29,2.82c3.51-1.76,8.46-.49,10.77-5.44-3.43-2.82-5.32-6.48-4.52-11.24-1.53,1.65-.62,7,1.37,9.72a5,5,0,0,1-2-.3,1.86,1.86,0,0,1-.52-1.63c.32-1.16.22-1.8-1.24-1.68a27.78,27.78,0,0,1,1.88-10.29,27.92,27.92,0,0,0,1.14-14.75,14.33,14.33,0,0,1,.39-5.73c.13-.56.2-1.12.29-1.68l-.55-.14c-.19.56-.38,1.12-.57,1.7-.1,0-.29,0-.29,0-.73-3.8-3-6.84-5-10-.9-1.38-2-2.76-.84-4.6.2-.31-.08-.94-.18-1.68,1.28-.27,2.49-.52,3.7-.79a5.69,5.69,0,0,1,1-.28c.81,0,1.83-.32,2.42.05,2.41,1.5,4.72,3.19,7,4.89a2,2,0,0,1,.58,1.42c.06,2.46,0,4.92,0,7.38l.57,0,.39-7.15.22-.06c.17.85.34,1.69.61,3.12l.54-1.75c.34,1.42.74,3.11,1.18,5l2.07-.77c.34,2,.65,3.93,1,5.83h.25c.14-1.67.2-3.35.45-5s-.37-2.23-2-2a5.66,5.66,0,0,1-1,0l-.07-.62c1-.09,2-.27,2.95-.27a23.05,23.05,0,0,0,11.51-3.49c2.67-1.51,5.24-2.32,7.74.26,2.24-.68,3.28,1.6,4,2.54a28.51,28.51,0,0,0,5.17,4.74c2,1.5,4.33,2.57,6.4,4,2.6,1.8,5.08,3.78,7.61,5.69.2.15.37.45.57.47,2.71.33,2.78,2.5,2.91,4.42a7.33,7.33,0,0,1-1.67,5.82c-3.23,3.44-6.1,7.29-9.7,10.27-2.72,2.26-5,5.42-8.8,6.21-.26,0-.48.33-.63.81a6.37,6.37,0,0,0,1.31-.19,20,20,0,0,0,8.41-5.54c2.53-2.9,5.32-5.57,7.94-8.4a17.45,17.45,0,0,0,2.24-3c1-1.73,1.87-1.74,3.43-.53,3.89,3,3.93,7.51,5.17,11.7,1.17,3.94,1.18,7.84,1.49,11.79a2,2,0,0,0,.08.75c1.93,3.36,1.52,7.48,4.1,11.23a22.52,22.52,0,0,0,0-3.63c-.81-4.32-1.84-8.61-2.53-12.95-.35-2.13.28-4.47-.28-6.51-.87-3.12-2.46-6-3.58-9.08a8.57,8.57,0,0,0-3.16-4,8.31,8.31,0,0,1-1.57-2.24,28.58,28.58,0,0,1,4.27,3.22,26.47,26.47,0,0,1,3.13,4.74,13.07,13.07,0,0,1,.88,2.41l.61-.1a6.39,6.39,0,0,0-.29-1.89c-1.36-2.71-2.81-5.38-4.24-8.05a2.4,2.4,0,0,0-.46-.6q-2.79-2.77-5.59-5.54c-.18-.17-.44-.28-.57-.48-1.87-2.85-5.34-4-7.22-6.87-.23-.36-.92-.41-1.41-.6l-.41.59c-4.61-4.67-9.17-9.4-13.85-14-2.49-2.44-4.9-4.81-8.72-5.65a35.57,35.57,0,0,1-5.76-1.48c-3.06-1.28-5.89-3.14-9-4.35-5-1.94-9.55-5.32-15.33-4.57a9.41,9.41,0,0,0-1.69.21c-5,1.61-9.9,3.26-14.86,4.9ZM235.08,109l-1.69-.43-.23.43,2.49,2-1.23.24,1.52,2.09-.2.35-3-1.84a2.43,2.43,0,0,0,2.74,2.24c1.37,0,1.34-1.1,1.47-2.17.19-1.67-.87-2.32-2-3l1.79.13c-.25-1.4-.47-2.6-.69-3.8l.11-.07-.43-1.93-1.89,2.39C234.27,106.66,234.67,107.82,235.08,109Zm3,120.75v-.93c-2.14.33-1.71,1.79-1.7,3.42l1.75-2.55c1.27,1.23.77,2.75.73,4.2,0,1,0,2,0,3a30.35,30.35,0,0,0,1.09-5.75,2.53,2.53,0,0,1,.51-.89,7.91,7.91,0,0,0,1-1.53c.11-.3-.26-1.09-.39-1.08a3.27,3.27,0,0,0-1.74.45A7,7,0,0,0,238.13,229.72Zm22,11.47c-.23,1.06-.46,2.12-.79,3.62.83-.32,1.7-.4,1.87-.78a6,6,0,0,0,.29-2.52,7.38,7.38,0,0,0-1.43-.26l-4.74-4.06-.55.45c.1.87.21,1.75.36,3l.82-1.47c.67,1.83,1.27,3.49,2,5.36a11,11,0,0,1,.82-1.82A14.5,14.5,0,0,1,260.11,241.19Zm-26.06-73.26,1.91.91.44-.22-3-7-.4.15c.17.73.34,1.46.57,2.39l-5.81-7.6-.6.42,6.59,9.63-1.14-.09L234.1,168c-1.39-.19-1,.65-.5,1.12,1.16,1,2.47,1.87,3.73,2.79l.32-.38c-.54-.57-1.06-1.16-1.62-1.71S234.71,168.55,234.05,167.93ZM258.88,312l-.94-1.37c0,2.75,0,4.89,0,7,0,3.34.76,6.72-.71,9.79-.21-2.57-.43-5.3-.65-8a49.57,49.57,0,0,0-.4,8.51c.05,2,.3,4,.4,6.07.06,1.25,0,2.5,0,3.76v3.61l.5,0a9.43,9.43,0,0,0,.39-1.61q.6-11.22,1.16-22.42c.1-1.81.13-3.62.17-5.44a2.92,2.92,0,0,0,.41-.83,38.55,38.55,0,0,0-1.35-15.57c0,1.32,0,2.14,0,2.95.21,3.46.45,6.91.69,10.37C258.65,309.92,258.78,311,258.88,312Zm2.64,11.81c1.61-4,1-8.19.88-12.32l-.63,0q-.13,6.16-.25,12.33c-.46,2-.93,4.09-1.39,6.13,0-3.16.47-6.27.55-9.39s-.19-6.13-.31-9.2a13.59,13.59,0,0,0-1.28,5,128.45,128.45,0,0,0,.18,14.95,18.72,18.72,0,0,1-.5,5.54,24.88,24.88,0,0,0-.7,3.14c-.12,1.7,0,3.43,0,5.14l.7.24c.32-.62.89-1.21.93-1.84.14-2.25-.11-4.53.19-6.75.41-3,1.3-5.92,1.78-8.91A20.78,20.78,0,0,0,261.52,323.82Zm-33.46,19.29c.76-2.94,1.53-5.87,2.26-8.81.26-1,.43-2.09.63-3.13-1.78,4-4.07,7.84-3.74,12.64l.87-.75c-2,4.92-4.77,9.6-4.39,15.26l2.12-5.92.23.1c-.8,3.25-1.61,6.49-2.4,9.68l6.72.84c.06,0,.47.43.83.39,2.32-.25,4.64-.56,6.95-.91,1.92-.29,3.81-.61,4.69-2.79a4.61,4.61,0,0,1,1.69-1.77c3.35-2.36,6.79-4.59,10.1-7,1.9-1.38,4.15-2.44,5.23-4.72l-.38-.53-4,2.9c.26-1.86.49-3.53.72-5.2l.47.06c-.09.89-.18,1.79-.3,2.88,1.54-1.39,1.58-2.56.42-3.72a3,3,0,0,1-.76-1.43c-.23-1-.31-2.08-.45-3.12h-.23l-.82,11.09h-.25V341.9l-.24-.06c-.38,1.52-.77,3.05-1.18,4.69l-.79-1.41-.46.1v4.18H251V342c-1.6,1.49-.65,3.67-1.52,5.5-.22-5.45-.43-10.72-.65-16l.51,0c.12,2.24.25,4.48.4,7.26.49-.87.88-1.26.92-1.67a84.55,84.55,0,0,0,.53-8.54c-.08-3.13-.51-6.27-.89-9.39a26.79,26.79,0,0,0-1.2-6.49,9.32,9.32,0,0,1-1-4c.09-1.82-.12-3.66-.2-5.49l-.62,0v4.07l-.29,0c-.3-1.39-.59-2.77-.89-4.15-.23,1.82-.66,4.11.29,5.19,1.9,2.15.46,4.53,1.59,6.56l-.55.16c-.44-1.23-.87-2.46-1.31-3.68l-.19.06,1.65,10.09-.7.11c-.76-4.27-1.53-8.54-2.32-13l1.26.53c-.31-2.58-.59-4.93-.9-7.43l-1.26.61c-.22-1.58-.41-3-.61-4.43l-.53,0a16.29,16.29,0,0,0,0,2.52c.39,2.33.85,4.66,1.32,7,1.05,5.21,2.14,10.41,3.17,15.62.3,1.51.47,3.05.73,4.8-.53-.18-.92-.22-.95-.34-1.36-5.59-2.68-11.19-4-16.79l-.48,0,1,10.25-.53.13-3.66-14.38.25-.08c0,.73-.09,1.47-.14,2.2h-.44q-.21-3.47-.43-6.94l-.7.05c.22,2.74.44,5.49.67,8.41l-1.19-1.7a8,8,0,0,0-.07,1.49c1.08,4.86,2.16,9.72,3.27,14.58a50.63,50.63,0,0,1,1.26,5.32,87.94,87.94,0,0,1-.15,22.05c-.83,6-2.23,7.48-7.05,8.29l3.63-15.82-.81-.22q-2.48,8.12-4.94,16.23a57.48,57.48,0,0,1,.86-8c.13-.81.57-1.73.33-2.4-.74-2.11.38-3.77,1-5.57.41-1.17.78-2.35,1.17-3.53l-.81-.26c-1.18,3.5-2.32,7-3.56,10.48-.48,1.34-1.18,2.61-1.78,3.91l-.32-.17,2.36-8.46-.72-.22-1.16,2.43c2-5.66,1.27-12,4.5-17.41-.79,3.88-1.55,7.67-2.31,11.45,3.36-2.63,4.65-6.12,4.75-12-.83,2.15-1.54,4-2.25,5.79.1-1.84,1-3.76.56-5.24-.76-2.36.78-3.79,1.23-5.65A8.68,8.68,0,0,1,236,328c-.1.73-.15,1.46-.22,2.19,1-3.16,3.81-5.89,2.19-9.6l-1.32,4.13c-.25-3,1.75-5.86.22-8.87-.46,1.74-.65,3.51-1,5.25s-.94,3.54-1.41,5.31c-1.14,4.3-1.14,4.3-2,4.73.93-3.47,1.83-6.82,2.78-10.34l-1.1.24,2.51-7.3-.22-.1-1.15,1.85a3.31,3.31,0,0,0-.22-.76c-.07-.1-.25-.14-.37-.19-.61,3-1.2,6-1.77,8.86l.62-.45c-.16.92-1,1.51-1.07,2.2-.34,2.67-.43,5.37-.68,8.05-.09,1,0,2.47-.63,2.86-1.31.86-1.23,2-1.3,3.17-.12,1.79-.76,3.38-.33,5.44.52,2.44-.78,5.26-1.28,7.92-.37,2-.71,3.95-1.07,5.92,0,.16-.11.32-.25.77l-.45-1.62c-.33.66-.51,1-.7,1.38.41-2.33,1.24-4.6,1.46-6.93a20.9,20.9,0,0,1,.82-5C228.41,345.94,228.07,344.46,228.06,343.11ZM216.13,95.23c-.79.7-1.82,1.19-2.15,2-1,2.3-2,3.08-4.32,2.69-.08,0-.18.11-.27.18l.73,1.78L208.05,100l-.45.28,1.17,2.7-1.57-1.23-.31.16.71,2-.34.21L205.43,102l-.31.18c.61,1.15,1.23,2.29,1.93,3.6l-3,.34c.54,1.29,1.07,2.52,1.66,3.91.05-.07-.1.14-.27.32-2.07,2.1-2.13,2.17.11,4,3.12,2.64,6.35,5.15,9.52,7.73,1.52,1.23,3,2.5,4.91,4.08.3-3.2.15-5.92.78-8.5l.49.09.11,1.41c1.25-.47,2.21-.88.7-2,.19-.13.43-.37.47-.33.76.55,1.49,1.13,2.22,1.7l.46-.44c-1-1.07-2.05-2.15-3.08-3.23l1.06-.49-1.94-1.47.23-.45,2.37,1.07.41-.53-2.84-3,1.09.24c.41.08.82.14,1.23.2a4.15,4.15,0,0,0-.53-1.21,20.42,20.42,0,0,0-1.76-1.58l.31-.4,2.51,1.8.45-.39a18.75,18.75,0,0,0-1.89-2.25,25,25,0,0,0-2.59-1.82l1.34-1.24-1.43-.69a4.89,4.89,0,0,0,.87-1.26c.72-2.19,1.34-4.41,2-6.6.29-.91-1-3.54-1.78-4-1-.56-2.36-1.17-2.7-2.08a14.83,14.83,0,0,0-3.33-5.11V87.1c1.84,1.17,2.25,4.39,5.07,4.59v1.84a4.68,4.68,0,0,0-5.19,1.61Zm34.52,129.61c-.11.29-.22.58-.32.87,4,2.07,8.48,3.15,12.54,5.18l-5.6-1.59L257,230l9.52,4-.1.24-3-.86c0,.51.17.72.37.82,1.34.67,3.26,1,3.89,2.06s1.68,1.67,2.27,2.83c.72,1.43,2.67,2.25,4.1,3.32.53.4,1.6,1,1.54,1.13-.73,1.78.87,2.18,1.68,3.29l.06-1,4.31,4,.41-.24a26.36,26.36,0,0,0-1.68-4.29c-1.31-2.13-3.06-4-4.31-6.16-.93-1.6-2.37-2.13-3.83-2.84a6.4,6.4,0,0,1-1.67-1.37c-.62-.65-1-1.68-1.75-2-3.89-1.86-7.11-4.93-11.34-6.14C255.2,226.19,252.93,225.51,250.65,224.84Zm1.83,18.66-.66-.1a25,25,0,0,1-.66,3.47c-.87,2.6-1.87,5.15-2.82,7.72-.77,2.07-1.54,4.14-2.35,6.19-1.16,3-2.4,5.92-3.48,8.92a5.62,5.62,0,0,0,.12,2.14,10.2,10.2,0,0,0,1.06-1.75c1-2.83,2-5.69,2.94-8.54l.84.28a6.85,6.85,0,0,1-.54,1.85c-1.41,2.24-2.74,6.62-2.32,8.61,1.56-2.81.77-6.39,4-8.4-.92,2.68-1.74,5.09-2.56,7.49l.47.18.95-1.33c.09.49.17.95.25,1.41l.46,0c.22-1,.44-2,.75-3.42l-1,1-.29-.2,2.16-4.07.54.24-.84,3.19.57.17,3.84-9.85-.58-.24-1.5,3.29-.32-.13v-4.06c-.87,2-1.59,3.58-2.3,5.2l-.42-.17,1.68-5.63-1.06-.29-1.31,4.79c-1.15-1.05-.45-2.33,0-3.48,1.33-3.78,2.84-7.5,4.14-11.29A12.39,12.39,0,0,0,252.48,243.5Zm-13.95,81.93-.95,4.55.48.23c.57-.65,1.14-1.29,2-2.31v4.38h-.42l.15-1.66-.21,0-5.37,18.1.71.21c1.51-5.13,3-10.26,4.46-15.13a8.5,8.5,0,0,0,.79,2.56c1.08,1.55.32,2.83-.37,4.17l.48-2.92-.52-.1c-.56,1.67-1.13,3.33-1.7,5l.49.24,1.22-1-.55,3.37c3.66-7,2-13.45,0-19.92,0,.55.1,1.09.17,1.78C239.18,326.51,239,326.24,238.53,325.43Zm46.57-41.67.71,0a27.88,27.88,0,0,0-.08-10.38c-.35-1.57-.11-3.35,1-4.07v6.21c1.61-2.18,1.7-2.91,1-4.53a10.71,10.71,0,0,1-.43-1.62c-.78-2.72-1.42-5.49-2.4-8.13-.45-1.22-1.58-2.18-2.39-3.26a6.39,6.39,0,0,0,.69,2.58c1.35,3,2.45,5.94,1.8,9.46-.54,2.94-.27,6-.26,9.08C284.72,280.63,285,282.19,285.1,283.76Zm-34.92,21.3-.57.07q1.06,10.81,2.14,21.64l.78,0q-.59-6.09-1.18-12.19l.29,0,.24,2.42.28,0c.07-.38.14-.76.22-1.14h.25l.63,11.65.9-.08c-.61-6.12-.36-12.33-2.09-18.37l.32,4.45-.28,0-.47-2.38-.52,1.24C250.78,309.62,250.48,307.34,250.18,305.06ZM228.93,98.34l0-.63-5.1-3.42V96.7c-2.21.63-.45,2.86-1.44,4a.84.84,0,0,0,0,.81c1.17,1.29,2.38,2.55,3.51,3.74-.1-1-.21-2-.32-3.13l1.64.31c-.79-1-1.28-1.59-1.76-2.18l.21-.3,2,1.13.33-.2-1.61-2.57ZM248,220.2c-6.3-1.14-11.05-5.35-16.82-7.69.09.38.08.55.14.58,3.53,2,7.05,4.07,10.61,6,1.54.85,3.74,1.16,4.63,2.43,1.79,2.54,4.37,1.5,5.79,2.25l-5.17-5.6Zm24.25,84.48.51.22c.38-.6,1.09-1.2,1.1-1.81.09-5.19-.16-10.36-2.42-15.18-.24-.51-.82-.85-1.25-1.28l-.42.3c.61,3.08,1.19,6.17,1.83,9.24C272.15,299,274,301.65,272.21,304.68ZM238.8,346.57c-1.08,4.24-2.18,8.54-3.25,12.76,1-.4,2.36-.26,2.43-2.67s1.58-4.74,2.23-7.17c.59-2.19.88-4.46,1.3-6.7l-.59-.13c-.59,1.63-1.18,3.25-1.85,5.12C238.93,347.18,238.85,346.79,238.8,346.57Zm15.42-34.71h.13v17.88l-.5-.6-.59,7.66.77,0c2-6.86,1.17-13.9,1-20.93l.46,1.32v-5.85l-.3,0c-.14.8-.29,1.6-.43,2.4l-.26,0Zm1.63-100.64c2,.1,2.28-.17,1.71-1.47-.27-.62-.66-1.49-1.17-1.64-2-.59-2.83-2.6-4.53-3.5-.45-.24-.88-.52-1.31-.78l-.34.47,2.86,2.22-.27.37L248.46,205c1.51,2.25,4.53,2.12,5.95,4.5.37.62,1.65.7,2.62,1.07Zm32.36,42.44c1.51-1.4,1-2.75.29-3.93-2.11-3.77-4.29-7.51-6.56-11.19-.44-.71-1.39-1.12-2.17-1.71,3.14,5.21,6.16,10.2,9.17,15.2l-.44.26-1.07-.57ZM232.43,94.78c0-1.64.07-2.87,0-4.09a1.45,1.45,0,0,0-.86-1.06c-1.8-.28-3.62-.4-6-.63Zm24.45,168.79-.31-.14c-.58.76-1.61,1.49-1.66,2.28a6.44,6.44,0,0,1-2.78,5.36c-.09.06-.08.26-.11.39l.44.37c2-1.88,3.93-3.76,6-5.81,1.39.29,2-.89,2.24-2.48L258.51,265l-.56-.81c-.55.94-1,1.71-1.44,2.49l-.26-.13ZM223.77,120.38l.19-.73c-.56-.09-1.36-.46-1.62-.22a5.42,5.42,0,0,0-1.31,2.08c-.19.5.05,1.15,0,1.72-.47,3.74,1,6.55,4.13,7.77a33.17,33.17,0,0,1-1.87-3.13c-.57-1.22-.94-2.53-1.4-3.79l1.35-1.42-1.25-.6.79-1.93Zm17.29,59.09-.3.26q3.12,6.39,6.23,12.76l.44-.17c-1.36-3.43-2.65-6.89-4.14-10.25A11.76,11.76,0,0,0,241.06,179.47Zm26,69.4c2.09-2.18-.71-5.37-4.28-6.09v1.66l.48-.34Zm-17.59,22c3.88-2.45,5.57-7.44,5-9.52ZM222.37,161.22c-2-6.06-2-6.06-3.15-6.35C219.1,158.91,220.21,161.16,222.37,161.22Zm31,192.31-.39-.76-10.14,7.42.43.6ZM197,61.71c-.74,2.39,0,5,2.16,7.35C199.61,66.74,198.88,64.24,197,61.71Zm30.5,69.39c-1.31-2.2-.43-5.19-3.79-5.89C224.12,127.7,224.53,129.92,227.52,131.1ZM196.18,70.15c-.84,3.1,1.24,4.78,2.63,6.76C199.36,74.17,197.64,72.33,196.18,70.15Zm62,185.31c2.53-3.15,1.08-6.29,1-9.32-1.5,1.88-1.57,3.26-.4,3.45C258.59,251.44,258.41,253.28,258.21,255.46ZM216.4,145.29C218,140,218,140,215.92,138,216.1,140.67,216.25,143,216.4,145.29Zm20.23,31,.47-.65c-1.9-2.14-4.51-3.28-6.84-4.83l-.53.75Zm2.5-.05c-.66-2.76-2.93-4-5.16-5.86C234.38,173.85,237.4,174.44,239.13,176.2ZM212.49,351.51c-3.24,5.25-3.25,5.29-1,6.22C211.84,355.63,212.16,353.57,212.49,351.51Zm5-178.35c-1.81-1.64-1.75-4.59-4.26-6.1C213.26,170.32,214.9,172.09,217.52,173.16Zm12.57,25.64L228,195.94c0,3.33,1.39,4.65,4.36,4.54l-1.15-1.43,1.19.07,0-.53Zm-9.25-49.27,1.08-2.27-2.18-3.69-.65.41,1.84,2.86c-.68.31-1.52.43-1.66.82C218.76,149,219.67,149.42,220.84,149.53Zm51.29,73.75c-.19-2-4.49-4.16-7.24-3.56Zm-17.88,13.47c-1.75.06-2.46,4-1,6.89C253.62,241.2,253.93,239,254.25,236.75Zm-22.47-47.64c-2.19-1.72-3.52-4.57-7.06-4.77l4.29,2.54-.23.37-2.5-1.11-.22.56Zm38.47,137c-.51,2.06-1,4.11-1.57,6.35C270.48,332,271.13,329.43,270.25,326.14ZM230.91,96c.11-2-.82-2.94-3.17-3.33.24,1.21.47,2.3.69,3.4l.46-.11-.3-2.18.38-.07L230.08,97l.29-.1c-.09-.62-.19-1.23-.29-1.85l.24,0Zm33.15,228.69L263,324.5l-1.2,7.23.66.1C263,329.46,263.53,327.08,264.06,324.71Zm-13.71-68.32,1,.24c-.48-2.88,2.55-4.92,1.34-8ZM277.2,232.9l-.45.51,3.89,3.42C280.74,234.18,279.18,233.31,277.2,232.9Zm-7.52,14.83v7.55C271.25,254,271.44,249.94,269.68,247.73Zm-43.7-51-.56,1.29,1.59.6c.07-.78.44-1.7.16-2.32-.6-1.34-1.06-1.38-2.17-.66ZM207.4,226.83l-.58.2c.92,2.62,1.85,5.23,2.78,7.85l.64-.23Q208.82,230.74,207.4,226.83Zm6.07,3.28-.91,0,.45,6,.46,0Zm38.63,27.95,1,.13.6-5.44-.77-.1C252.65,254.46,252.37,256.26,252.1,258.06Zm0,77.58.42-.05c.15-2.54.29-5.09.44-7.63l-.86,0Zm9.14.59-.56,0a4,4,0,0,0-.12.9c.14,1.78.31,3.55.48,5.4C263,340.36,260.88,338.29,261.23,336.23ZM214.94,151.49l-.53.44,4,6,.59-.39Zm37.12,192.32c2.4-3.68,2.62-4.74,1.61-6-.24,1.1-.43,2.11-.7,3.1S252.37,342.86,252.06,343.81Zm6.5-134.47c-.09,2,.75,2.91,2.76,3.25C261.3,210.7,259.67,210.42,258.56,209.34Zm-43.75-34-.27.32,3.21,2.45,1.28-1.42Zm47.5,163,.83,0,.38-5.44-.72-.05C262.64,334.76,262.47,336.59,262.31,338.41ZM230.21,146.8c.87-1.56.45-4.85-1.05-6.11C229.55,142.94,229.87,144.83,230.21,146.8ZM262,216.14c.42-2.3-.23-2.92-2.92-2.79Zm-6.37,34.07.59.08c.14-2.34.29-4.67.43-7l-.69-.05Zm-32.11-8.33.34,0,.32-6-.66,0Zm56.84,9.71c-.5-2.46-2.16-3.34-3.88-4.17l-.34.37Zm-54.26-51.93,0-.43-3.64-.25c.7,1.27,1.09,2,1.53,2.71a1.78,1.78,0,0,0,.61-.17c-.12-.56-.27-1.11-.44-1.72ZM166.61,341.9c2.15.22,3.08-.94,3.3-2.9ZM271,311.46l.66.05.66-5.43-.72-.09Zm10.07-56.9-.54.6,3.27,3,.56-.61Zm-24.82,43.9-.68,0c.11,2.57.23,5.15.34,7.73l.34,0Zm-3,3.84-.64.08q.25,3.24.53,6.48l.59-.05ZM234.1,191.53l.27-.71-5.1-1.89-.23.62ZM287,253.05l-.62.34c.87,1.8,1.73,3.6,2.6,5.41l.46-.2ZM198.8,38.41l.78-.07-.37-4.43-.79.07C198.55,35.46,198.68,36.93,198.8,38.41Zm-.17,12.92.73-.09-.79-5.43-.51.06Zm1.57,5.74h.43V50.8l-.43,0Zm-1.22,3,.54-.09-1.61-5.34-.58.18ZM264.37,236.9c.67,2.43,2.71,1.84,4,2.67l.28-.55Zm11.29,91-.84-.29c-.22.86-.39,1.72-.67,2.56s-.64,1.55-1,2.32l.63.24Q274.74,330.28,275.66,327.86ZM235,202.07l-.28.59,3.42,1.78c.13-.28.27-.57.4-.86Zm5.32,151.6-.88-.22-1,3.26.87.26C239.62,355.87,240,354.77,240.27,353.67Zm-15.9-246.78.59-.7L222.34,104l-.55.65Zm10.57,101.18.49-.8-2.32-1.79-.39.5,1.27.65-1.12.41v.42Zm37.73,23.24-.62.65,3.81,3.46.36-.36Z"/><path d="M136.07,247.47c-.72,3.39-1.49,6.76-2.15,10.15a35.69,35.69,0,0,0-.74,7.31l1-5.23.36,0c-.16,1.2-.33,2.39-.46,3.59-.13,1.38-.28,2.76-.32,4.15s-.3,2.66,1.33,3.42c-.14-1.45-.27-2.74-.41-4.13l1.39-.28-.94-2.23h1.23a14.69,14.69,0,0,1-.93-2.92,13.72,13.72,0,0,1,.47-3.11l16.19,13.24-.33.4-14.9-11.94c-1.41,1.49-.42,3.7,3.35,7.89l-3-2c.17.78.14,1.22.35,1.47a12.84,12.84,0,0,0,5,3.8,15.9,15.9,0,0,1,5.15,4.16l-11-6.56-.26.28,5.53,5-1.24.58a73.16,73.16,0,0,1,8.18,6.21l-.48.54-11.46-8.2-.36.36,4.27,4-.51.55L136.42,275l-.3.39c2.6,2.73,5.89,4.56,9.23,6.45-1,.62-1,.62-3.72-1.37l.09,1.4-3.25-2.56,2.19,1,.08-.25L136,276.39l-.38.49,2.93,2.45c-.37,1-.74,2-1.29,3.53,1.78-1.19,2.62-.47,3.65.56,1.39,1.4,3.09,2.5,4.43,4.09-1.13-.73-2.24-1.52-3.43-2.17-.47-.26-1.33-.46-1.61-.22a3.31,3.31,0,0,0-.79,1.79,3.26,3.26,0,0,0,.23,1.27l-.59.15a19.16,19.16,0,0,0-.51-2,16.84,16.84,0,0,0-.85-1.7l-.74.22c.07,1.36.15,2.71.22,4.12l-1.1-.79-.33.4,1.94,1.55-2,.09c.42,2.88.82,3.33,2.18,2.33,1.46,2.57,4,2.48,6.45,2.52a12.22,12.22,0,0,1,3.15.09c4.16,1.16,8.12.23,12.1-.87a7,7,0,0,1,1.95-.23c-6.62,3.21-13.56,2.19-20.48,1.6l-3.77-.58c.15,1.21.67,2.85.34,3-1.56.93-.39,1.64-.18,2.86a13.72,13.72,0,0,1,.8-2.52c.66-1.18.86-2.92,2.83-2.81,2.12.45,4.24,1,6.38,1.33a21.09,21.09,0,0,0,3.28,0l.07.71c-1.43.26-2.88.48-4.3.81-1.12.26-2.22.65-3.33,1l.13.81h8.52l0,.24-7,1.32.13.72,5-.64.14.36-2.17.75.06.27,2.77-.39.08.23c-.81.39-1.63,1.12-2.44,1.1-1.36,0-1.72.52-1.94,1.92l8.37-1.48.08.44c-1.75.35-3.51.68-5.26,1.07-1.4.32-1.88,1.11-1.29,2.16l4.17-1.33.27.58L148.17,310l.07.19,5-1,.06.26-5.7,1.7.24.77,2.18-.57c.14.73.3,1.55.48,2.45l2-.38.09.2-2.44,1.19.15.48,6.19-1.69.15.43-3.6,1.43.29.7,7.47-2.59.15.29-8,3.66.91,2,7.11-2.91.21.4-12.54,6.72.41.76c6.06-2,11.33-5.77,17.15-8.38-3.62,2.26-7.3,4.41-9.57,8.38l3.65-2.09.26.34-4,3.18.36,1.81c2.7-1.07,4.51-3.6,7.23-4.51l.26.42-9.77,6.77,1.13.64c-.63,1-3.55,1.29-4.67.41-2.13-1.65-4.24-3.34-6.35-5a1,1,0,0,1-.27-.26,5.33,5.33,0,0,0-2.28-2.54,10.13,10.13,0,0,1-3.64-5,51,51,0,0,1-2.55-10.24,41.61,41.61,0,0,0-3.22-12.16c-1.63-3.53-2.06-7.63-2.9-11.51-.56-2.61-.88-5.28-1.38-7.91-.44-2.3-.47-4.87-1.59-6.79-1.52-2.63-.84-5.4-1.43-8.05.23.88.45,1.76.68,2.66.11-.06.27-.1.27-.14.26-5.08.41-10.17.78-15.24.23-3,1.1-6,1.14-9.08.08-6.14,2.48-11.69,4.28-17.34,1.58-5,4.13-9.67,6.25-14.49l.57.26c-1.71,3.87-3.58,7.68-5.08,11.63s-2.64,8.11-3.94,12.18l.54.19c.53-1.55,1-3.14,1.63-4.65.29-.69,1.05-1.17,1.41-1.85.62-1.16,1.07-2.41,1.65-3.6a12.41,12.41,0,0,1,1-1.51l.81.46c.63-1.22,1.26-2.44,1.88-3.66l-.44-.25-2.28,3.49h-1.48c1.18-2.51,7.19-7.26,11.63-8.91l-6.54,4.67.41.54a48.58,48.58,0,0,1,4.1-2.93,28.07,28.07,0,0,1,4.16-1.83c1.46-.55,3-.91,3.1-2.93l-4.05,2a50.34,50.34,0,0,1,17.72-8.62l-2,1.44.32.21,8.53-2.62-.74,1.81,2.06-.54.18.36-3,1.33.08.4a8.19,8.19,0,0,0,2.79-.55,8.77,8.77,0,0,0,1.85-2.28h-2l10.91-3.78-.18,1.1c2.15-1.72,5.16-1.27,6.79-3.74.25-.37,1.2-.33,1.83-.37s.71-.27.68-1.13c0-.16.06-.41.18-.47.8-.37,1.88-1.21,2.41-1,1.76.85,2.87-.95,4.36-.75,1.78.24,3.54.59,5.31.88.74.12,1.49.22,2.23.32v0a16.8,16.8,0,0,1-3.22.27c-2.56-.29-5.08-.89-7.54.48-1.33.73-2.92,1.08-4.06,2-2.4,2-4.6,4.19-6.84,6.34a4.34,4.34,0,0,0-1.24,2.28l2.08-1,.3.41-3.64,2.4.41.64L189,204.6c.17,1.19-1.14,2.59-2.51,3-1.78.52-3.42,1.51-5.17,2.14s-3.12,1.59-3.31,3.79l-.51-.35c.46-1.27.92-2.55,1.39-3.82-1.73,1.08-4.49.76-4.88,3.62l.39-1.9-.35-.25-1.59,1.77.25-1.62c-3.25.42-6.38.73-9.17,2.3l.2.54,1.41-.71c.5,1.17,1,2.33,1.57,3.64l1.12-.8c.52.39,1,1.37,2,.11.24-.33,1.44.13,2.19.09,1.36-.07,3.22.75,3.57-1.74V216l.42.21,1.22-1.43.36,1.53,1-1.25,2.49.61,0,.26-6.52.76.76,1c-5.11-1.52-9.46.24-13.8,2.14l2.49-.32v.13c-2.88,1-5.77,1.89-8.65,2.85-3.79,1.27-6.53,3.92-9,6.89a17.48,17.48,0,0,1-1.07,1.54c-4.2,4-5.94,9.28-7.68,14.55-.54,1.63-.74,3.38-1.45,5,0-1-.09-1.93-.13-2.88a21.9,21.9,0,0,1,.79-4.4,27.49,27.49,0,0,1,2.38-4c.07-.11,0-.29,0-.51l-1.47,1.29,3.15-7.48-1.5.86a4.1,4.1,0,0,1,.35-.76,3.43,3.43,0,0,1,.72-.6,12.91,12.91,0,0,0,6.54-7.87c0-.08.18-.14.28-.21.07.41.13.83.26,1.61l2.77-2.64a1.18,1.18,0,0,0,2.19-.59c.07-1.89,1.16-2.45,2.56-3a13.26,13.26,0,0,0,1.78-1.13c-3.49-.15-7.57,2.46-9.59,5.8l.09-1.26c-.44.3-.71.44-.93.62a39.6,39.6,0,0,0-4.61,4c-1.1,1.27-3.34,1.93-2.81,4.3,0,.06-.09.16-.18.3-.13-.47-.24-.89-.39-1.46a20.26,20.26,0,0,0-4.57,11l-.25-2.53h-.41c-1.11,3.7-2.22,7.39-3.26,10.83l-.39-.52a35.42,35.42,0,0,0,0,15.87l-.56.06c-.46-3.27-.93-6.54-1.39-9.82-.63,6.72,1.59,13.07,2.17,19.63l.8.06c.4-1.25.8-2.49,1.21-3.74.07.74.14,1.48.2,2.22l.87,0,.27-3.81-.36-.06-1,1.69a18,18,0,0,0,.19-2.63,29,29,0,0,1,1.36-11.17,7.14,7.14,0,0,0,.08-2C133.37,252.54,133.68,249.65,136.07,247.47Zm24.37-37.15c2.38-.17,4.54-.36,6.71-.44.44,0,.92.67,1.34.63,1.59-.14,3.17-.44,4.89-.7a3.46,3.46,0,0,0-3.66-1.14,29.44,29.44,0,0,1-3.89.27C164,209.08,162.14,209.15,160.44,210.32ZM135,277.38c.49-3.46.13-5.14-1.26-6.16C132.63,275.72,132.63,275.72,135,277.38ZM146.2,326c2.58,1.58,7.82-1.45,9.51-3.34Zm11.36-119-4.94,3.22.3.52a3.54,3.54,0,0,0,.86-.17,24,24,0,0,1,3.59-1.55c1.59-.37,2.15-.95,1.86-3.07l-1.67,2.8Zm-7.5,122.82.25.5,4.07-2-.75,1.09.28.38,2.36-1.45-.79-1.82Zm-14.68-47c-.17-1.09-.3-2.16-.52-3.22a21.51,21.51,0,0,0-.78-2.17c-1.14,2.83,0,6.08,2.26,7.13-.64-.73-1-1.18-1.5-1.74Zm4.3,36.89.75-.27-2.34-6.95-.89.31Q138.45,316.25,139.68,319.71Zm7.26-1.75c-.6.08-1.09.09-1.55.2a3.66,3.66,0,0,0-1.38.49,1.73,1.73,0,0,0-.7,1.15c0,.29.48.78.83.86C145,320.88,146.83,319.13,146.94,318Zm9,7.14-.55-.77c-1.27,1.49-3.93,1.16-4.27,3.88Zm-17-24.87c2.06.41,3.68-.42,3.55-1.68l-1.46-.37-.66,1.94-.45-1.85h-.35C139.42,298.87,139.23,299.48,139,300.23Zm9.94-81.49-.37-.71-5.31,3.46.36.62Zm26.8-14.69.43,1,5.14-3.21-.57-.84-3.25,2.49.28.26Zm-29.38,11.5c-3,.32-4.83,1.67-5.06,3.06Zm13.09-3.17-6,2.3C156.19,215.35,157.73,213.68,159.44,212.38ZM144.52,315.72c-1.05-1.5-1.73-.55-2.48.17.29.83.57,1.59.93,2.6l1.49-2.05h-2ZM140.84,312c.08.56,0,1.1.24,1.38a1.59,1.59,0,0,0,1.2.42,1.18,1.18,0,0,0,.81-.81,6.77,6.77,0,0,0-.36-1.81ZM184,207.64l-.48-.79-4,2.39.4.62Zm-16.66-3.23L163.54,206l.05.25,4.86-.77ZM142.94,225l-.66-.59-2.37,3,.46.38Zm3.58,97.16,3.42-2.53-.48-.57C148.45,319.87,146.79,320,146.52,322.14Z"/><path d="M155.39,237.3c-1.79-2.44-3.68-4.87-3.32-8.16a2.36,2.36,0,0,1,1-1.66,96.64,96.64,0,0,1,10.49-4.12,21,21,0,0,1,7.33-.62c1.11.09,2.12,1.5,3.25,2.37l.67-1.17c.14.69.38,1.13.25,1.37-1.15,2.22.19,4,1,5.86.69,1.7,1.26,3.45,1.89,5.18l-.51.23-6-11.58c.41,4.23,3,7.66,3.45,11.82-.22-.41-.48-.8-.66-1.22-1.68-3.87-3.33-7.74-5.05-11.59a1.55,1.55,0,0,0-1.11-.77,1.36,1.36,0,0,0-1.1.7c-.36,1.5-.62,3.06.85,4.43v-3.89c1.76,4.4,3.56,8.88,5.36,13.36-2.06-2.84-2.8-6.59-6.74-8.66,2.33,4.63,4.45,8.87,6.58,13.1l-.54.27c-.62-1.23-1.19-2.5-1.88-3.69-1.86-3.18-3.86-6.28-5.62-9.51-.58-1.06-.57-2.42-.9-3.63a7.91,7.91,0,0,0-.69-1.4l-.57.28,1.53,3.27-1.73-1.42c.53,6.35,3,11.65,4.81,17.2-.86-1.74-1.79-3.45-2.56-5.23-1.07-2.48-1.58-5.39-3.22-7.38a6.91,6.91,0,0,1-1.53-3.14,10.45,10.45,0,0,1,.11-2.69c-2.05,1.27-.66,2.94-.75,4.36l-.49.08c-.27-1.2-.53-2.39-.79-3.59l-.46-.13c-.14.76-.68,1.82-.37,2.23,1.39,1.81.72,3.34-.44,5l-2.8-3.13c-.74,1.77-.05,3.33,1.15,4.92.39.52.07,1.57.07,2.38Zm6.7-12.4-.71,0c-.79,1.31-.1,2.48.71,4.13Z"/><path d="M138.65,259c.11-.25.38-.58.3-.72a20.6,20.6,0,0,0-1.81-3,4,4,0,0,1-.38-4.31c2.08-5,4.11-10,6.54-14.84,1.51-3,4.34-4.95,7.51-7v2l-.24,0-.33-.87-.4,0-.4,4.57-.4,0v-3.41l-.42-.1c-.53,1-1.06,2-1.68,3.12l-.57-.76c-2.94,2-3.29,3.62-1.22,6.45,1.16,1.6,2.49,3.08,3.52,4.82l-2-1.74-.32.26,3.56,5.41-.2.2c-.57-.64-1.13-1.29-1.71-1.92s-1.22-1.26-1.86-1.87-1.33-1.21-2-1.81l-.6.56,8.15,9.81c-3.66-3.52-8.43-6.21-8.65-12.12l1.55,1.82,1.3-1L143.28,238c-1,2.05-2.84,3.64-.94,6.29,1.47,2,2.23,4.6,3.17,7.11l-2.42-2.74c1.4,4.23,5.25,6.47,7.76,9.81-1.63.83-1.81-.7-2.54-1.45-1.62-1.66-3.37-3.19-5.06-4.77a2.06,2.06,0,0,0-1-.62l3,4.85-3.93-4.41-1.67-4.68.57-.37,1.38,2.17.44-.33c-.4-1-.81-2-1.21-3l.23-.08,1.57,1.81.17-.21L141,242.85l-.39.12.12,1.46a7.57,7.57,0,0,0-1.24,1.46,56.51,56.51,0,0,1-2.18,5.79c-.88,1.66-.19,2.51,1.14,3.69.07-.74.37-1.45.14-1.73-1.34-1.63.18-2.64.56-3.82l2.07,2.42a3.64,3.64,0,0,0,0,.74c.4,2,2.65,3.91,4.08,3.54.24.17.69.33.7.52a17.19,17.19,0,0,1-.18,2.31L139,253.29c.56,4,4.05,4.85,5.85,7.11l-.39.48a26,26,0,0,1-3.08-1.9,27.1,27.1,0,0,1-2.54-2.7l-.38.3c.52.64,1.07,1.25,1.55,1.91a17.25,17.25,0,0,0,1.29,1.91,11.5,11.5,0,0,0,1.89,1.33c1.37,2.71,4.49,4.07,6.4,6.49l-.32.35-10.74-9.52Z"/><path d="M192.92,224.87l-.76-2.59c-.4.91-1.27,1.9-1.13,2.71.46,2.71,1.29,5.35,2,8,.15.56.23,1.14.34,1.71l-.86.16q-1.51-5.18-3.05-10.35l-.37.06a10.84,10.84,0,0,0,0,2.55c.71,2.87,1.56,5.71,2.33,8.56a2.42,2.42,0,0,1-.07,1.71c-1.34-3.49-2.77-6.94-4-10.47a11.26,11.26,0,0,1-.47-4.29c.11-1.68,1.72-1.14,2.62-1.14,2.7,0,5.4.23,8.09.48a10.12,10.12,0,0,1,2.25.76c-1.3,1.52,0,2.75.49,4.06-.16-1.35,1.23-2.89-.52-4.06l1.24.14V229l-1.25-1.12c.77,4.33,1.53,8.54,2.28,12.75l-.47.1c-.5-2.34-1-4.69-1.51-7-.34-1.53-.85-3-1.13-4.57a32.91,32.91,0,0,1-.29-3.73c0-.74-.09-1.48-.13-2.21l-2.56-.35.44,2.49.48-.2c1.12,6.21,2.24,12.47,3.36,18.72l-.13,0c-1.1-4-2.2-8-3.33-12.13l-1,.72c-.35-1.72-.66-3.28-1-4.83l-.69.15,1.46,7.16-.5.15c-1-3.11-1.93-6.21-2.83-9.33-.06-.25.46-.66.7-1,.08.88.15,1.75.23,2.62l.39,0c.21-1.51.41-3,.62-4.53l-.36,0Z"/><path d="M190.54,133.53l4.1.58.12-.27-1-.64,3.38-1.61,0-.47-5.78-.64v-.14c2.45-.15,4.9-.4,7.35-.42,1.21,0,1.37-.44,1.19-1.45-3.87,1.33-7.4-.28-11-.86l9.62.69.05-.76-8.84-.62c2.75-.92,5.85,1.07,8.66-1.44l-3.23-.79,2.56-.75-.07-.51-7.2-1.08,0-.33c1.21.08,2.42.11,3.62.26,2.45.3,2.45.33,3.37-.83l-3.47-.73,0-.28,7.87.67a12.36,12.36,0,0,1-1.38,7.94l6.32.86,0,.59c-1.35-.17-2.69-.38-4-.5a9.1,9.1,0,0,0-2.39.05,9.61,9.61,0,0,0-2,.78c.9,2.46-2.1,1-2.59,2.47h2.77C196.07,134.41,193.57,135.32,190.54,133.53Zm7.31-10.46h4.09C200.36,121.83,199.16,121.47,197.85,123.07Z"/><path d="M222.25,294.31l-1,2.28.49.39c1-2,1.57-4.48,4.8-4l-1.09,2,1.91-.44a15.21,15.21,0,0,1-8.58,3.51c-1.39.11-2.89-1.13-4.35-1.74-.46-.2-.94-.35-1.46-.54.16-.38.41-1,.71-1.75-2.09-1-1.64,1.29-2.32,1.69-.8-1.59-1.62-3.13-2.36-4.7a4.69,4.69,0,0,1,3.19-6.58c1.89-.49,3.82-.89,5.66-1.52a8.62,8.62,0,0,0,2.12-1.57l.51.55c-.48.47-.89,1.2-1.46,1.37-2.3.67-4.64,1.18-7,1.73-1.42.33-2,1.31-2.26,2.95l1.95-1.08c-.68,1.76-2.84,2.82-1.11,4.89l.14-1.82c1.3,1.95,2.47,4.09,5,4.34C218,294.47,220.14,294.31,222.25,294.31Z"/><path d="M185.11,221.4c1.36,4.92,2.67,9.71,4,14.49l-.43.17-2.76-6.93-.82.27v-4.12h-.54v3.08c-1.94-2.08.49-4.28-.73-6.49-.33.46-.83.83-.79,1.14a51.41,51.41,0,0,0,.88,5.67,40.64,40.64,0,0,1,1.17,4.78A25.43,25.43,0,0,1,181.76,222l-1.16,1.37-.57-1-.65.19c.48,1.59,1,3.17,1.44,4.77a27.92,27.92,0,0,1,1.07,5.37l-4-10.75Z"/><path d="M231.39,312.63c.34-1.47.67-2.95,1-4.43l-.34-.11-5,16.48-.71-.19c.24-1,.54-1.95.71-2.95.57-3.39.94-6.83,1.67-10.19a38.91,38.91,0,0,1,2.24-6.46c.24-.56,1.09-.86,1.66-1.28.27.69.84,1.42.75,2.05-.33,2.43-.88,4.82-1.35,7.23Z"/><path d="M177.24,167.53l-6.09,1.93.19.59c.95-.34,1.89-.73,2.86-1a9.06,9.06,0,0,1,2.84-.38l-8.44,3.42.21.55,4.17-1.38.07.31-7.59,3.56.28.75,3.23-.82.11.25-7.4,3.5,3-3.91-1.16-.32c1-1,3.22.16,3.48-2.31l-2.93.76-.15-.29,3.53-1.68-.15-.52-2.94.34,0-.24,12.83-3.58Z"/><path d="M195.05,350.47c.19-2.21.39-4.42.58-6.62l-.49-.13-2.64,8.66-.56-1.08-2.58,1.24-.18-.17a7.87,7.87,0,0,0,.82-.71,9.55,9.55,0,0,0,2-2.5c1.92-5,3.67-10.14,5.54-15.2a18.28,18.28,0,0,1,1.71-2.76,6,6,0,0,1,0,1.23,41.31,41.31,0,0,0-2.37,10.19c-.17,2.63-1.11,5.21-1.71,7.81Z"/><path d="M244.88,255.15l.06-.07c-1.47,1.06-2.69,4.36-2.17,5.89.09.29.29.64.21.86-.91,2.36-1.86,4.7-2.78,7-.1-.23-.23-.53-.51-1.22-.58,2.5-1.07,4.62-1.55,6.75l-.55-.13c.84-3.6,1.48-7.26,2.57-10.78,1.64-5.28,4.27-10.25,4.69-15.89a5,5,0,0,1,.42-1c.09.75.15,1.1.16,1.46a10.58,10.58,0,0,1-.09,1.08l.62-.53C245.59,250.8,245.24,253,244.88,255.15Z"/><path d="M227.12,331.4c-.59,2.92-1.59,5.84-1.61,8.77a10.71,10.71,0,0,1-.73,4.85,8,8,0,0,1-.53.83c.19-1.69.38-3.28.56-4.86l-.52-.17a64.89,64.89,0,0,0-2.44,7.2c-.73,3.39-1,6.87-1.56,10.31-.09.58-.2,1.15-.3,1.73l-.74-.05c.06-.75.09-1.49.18-2.23.31-2.52.48-5.06,1-7.54a57.55,57.55,0,0,1,2-6.47c1.23-3.69,2.5-7.36,3.76-11,.16-.47.37-.91.55-1.37Z"/><path d="M232.07,270.92c.74-2.92,1.37-5.87,2.25-8.75a73.25,73.25,0,0,1,3.27-8.43q-1.05,8.46-2.09,16.92l-.72-.07.73-8.55-.33-.09c-.86,3.08-1.73,6.16-2.59,9.24Z"/><path d="M175.37,222.74c3.22,2.3,3.51,5.74,4.21,9.09l-1.29-1.71-.28,0c.48,1.59.94,3.2,1.45,4.78s1.08,3.36,1.7,5,1.31,3.22,2,4.82l-.58.23c-1.41-3.74-2.72-7.52-4.23-11.22C176.9,230.27,176.3,226.58,175.37,222.74Z"/><path d="M177.84,196.87l-10.67,3.22.06.39,4.59-.5c-1.17,2.47-3.65,1.92-5.08,3.17l-.26-.46,3.62-1.63-.22-.62-10,3.4.17-1.45a10.42,10.42,0,0,0,1.49-.39c2.94-1.18,5.87-2.41,8.81-3.59,1.81-.73,3.62-1.46,5.48-2C176.24,196.21,176.88,196.61,177.84,196.87Z"/><path d="M228.92,244.6v3.1h-.32c0-3.88-.1-7.76.07-11.63.05-1,1-1.93,1.69-2.76l-1.23,8.1.77.12.41-3.85c.75,2.39-.87,17.93-1.57,18.86.26-3.66.56-7.81.86-12Z"/><path d="M141.71,204.61c.62-2.89,10-18.47,12.88-20.88-1.05,1.77-2.06,3.56-3.16,5.29a48.09,48.09,0,0,0-3.28,5.56l3.49-3,.48.37c-2.61,2.42-6.16,4.22-5.81,8.59l-.61-.23c.24-1.13.47-2.27.71-3.4l-.31-.17Z"/><path d="M202.55,331.42c-.93,2.66-2,5.28-2.75,8a43.62,43.62,0,0,0-1.6,8.58l1.64-4.68.41.13a41.82,41.82,0,0,1-1.7,5.47c-.84,1.82-1.63,3.51-.41,5.76l-3.91-.28,0-.65c.32,0,.64,0,1,0,1,.09,1.52-.07,1.56-1.4A54.5,54.5,0,0,1,200.53,335c.48-1.26,1.17-2.45,1.76-3.67Z"/><path d="M184.28,158.18l-6.17,2,.08.43,4.1-.5c-4.09,3.14-8.88,4-13.87,4.25.4-.12.79-.26,1.2-.34,1.85-.34,4.18.24,4.8-2.48C177.48,160.26,180.12,157.74,184.28,158.18Z"/><path d="M167.86,153.66l-13.17,28.72C154.61,179.55,165.89,154.92,167.86,153.66Z"/><path d="M157.43,185.22l8.26-1.19.07.41a50.84,50.84,0,0,0-5.13.87c-1.72.47-4,.12-4.45,2.86-.07.51-1.28.84-2.12,1.08,3.59-4,5.07-10.19,12.06-11.19L160,181.6l.1.25,2.5-.76-.58,1,2-.17C161.83,183,159.13,182.68,157.43,185.22Z"/><path d="M227.71,306.34l1.59-.48c-1,3.77-1.85,7.33-2.76,11l-1.75-1.09c1-3.76,2.13-8,3.26-12.18l.21.05Z"/><path d="M222,317.49l1.26-4.16-.42-.17-2.22,4.92c-.19-.43-.33-.59-.29-.69,1.28-3.5,2.55-7,3.92-10.48a7.55,7.55,0,0,1,1.48-1.81l.56.21q-1.86,6.13-3.7,12.29Z"/><path d="M192.26,340l-.71.38-.31-.21,4.23-8.48c1.12,1.6,1.12,1.6-.62,4.9l-.94-1c-.07,1.05-.12,1.74-.16,2.44a3.34,3.34,0,0,1-.06.78c-.51,1.49-1.29,2.78-.89,4.61.24,1.1-.93,2.51-1.83,3.69C191.4,344.76,191.83,342.4,192.26,340Z"/><path d="M214.92,320.57a3.46,3.46,0,0,1,0,1.11c-1,2.89-2,5.75-3,8.64-.63,1.91-1.18,3.84-1.8,5.86-1.35-3.1,1.5-5.42,1.51-8.78L208.53,333c.83-5.18,4.49-8.33,6.44-12.39Z"/><path d="M210.75,165.72l-.61,1.68h-4.59l0,.51h4.63l.06.58-6.72,1.13.88-.82-2.68-.8,0-.66Z"/><path d="M168.82,334.7c2.35-.53,3.24-4.26,6.37-4.54l.41.53-6.09,4.78.28.46,1.21-.11c-2.17,1.79-4.14,3.4-6.11,5l-.47-.45C165.42,338.45,168.49,337.92,168.82,334.7Z"/><path d="M234.13,281.63c-.07-.64,0-1.46-.17-1.51-1.93-.62-3.39.37-4.84,1.7l-.84-1c3.75-2.44,7.45-1.52,11.34-.26l-1.91,2.24C237.18,280.18,235.64,280.74,234.13,281.63Z"/><path d="M236.27,272.32c.54-3.1,1.11-6.19,1.6-9.3.2-1.27.13-2.59.37-3.84.09-.44.76-.76,1.17-1.13l.55.35-3.15,14Z"/><path d="M225.84,326c-.75,2.79-1.57,5.56-2.23,8.37-.21.9.19,1.94,0,2.83a28.23,28.23,0,0,1-2.05,5.71C222.71,337.16,223,331.22,225.84,326Z"/><path d="M198.11,135.37l-2.93,1.18.1.48,2.17-.31c-1.18,1.37-4.21,2.8-5.07,2.52l2-1.37-.1-.49-9.58-1.13c4.46-.12,9,1.3,13.28-1.51Z"/><path d="M204.27,239.6c-.86-4.18-1.74-8.36-2.56-12.55a1.74,1.74,0,0,1,.56-1.33C204.39,230.21,203.86,235,204.27,239.6Z"/><path d="M229.84,299.32l.93,2.55c-1.78.92-5.76,1.13-6.49.22Z"/><path d="M143.09,211.48c5.38-2.33,9.47-7,15.89-8.5l-15.54,9Z"/><path d="M232.84,258.05l-2.19,12.07L230,270c.38-2.09.76-4.18,1.2-6.62-.51.84-.84,1.41-1.18,2l-.27-.1,2.76-7.4Z"/><path d="M205.1,141.89c-.65.09-1.29.21-1.93.27a45,45,0,0,0-6.61.76c-1.11.3-2,1.59-3,2.47-.85-.63-.82-.6.44-1.88.65-.67,1.21-1.44,1.65-2,3.23,1,6.3-.43,9.36-.18Z"/><path d="M153.67,246.2c-1.55-3.53-5.93-5.4-5.4-10.59,2.07,3.64,3.94,6.95,5.82,10.27Z"/><path d="M201,310.34l-6.5,5.31-.28-.21.65-1.32-1.5.08,6.27-4.6.27.27-2.67,2.54.19.21,3.46-2.4Z"/><path d="M203.88,184.54l-10.09,2,5.7-2.41,0-.23-4.05.56C198.41,182.24,201.15,184.07,203.88,184.54Z"/><path d="M147.64,205.87c3.17-3,11.29-6.78,12.4-6.08Z"/><path d="M153.53,248q-4.46-5-8.92-10l.46-.4c3.52,2.8,5.81,6.72,8.9,9.92Z"/><path d="M171.34,196.3l-1.7.89c.77-2,8.81-5.28,11.82-4.61a20,20,0,0,0-2.54.73c-1.87.79-3.71,1.68-5.56,2.52Z"/><path d="M196.13,200.07c.37-1.3.48-1.38,3.91-1.59,1.56-.09,3.12,0,4.8,0l.23.85Z"/><path d="M164.71,168.29l14-2.87.13.66-14,2.83Z"/><path d="M215,320.62v-1.23l-1.68,2.76-.4-.2,3.75-7.9.28.06-1.08,3.67.3.18,1.28-1.41.43.32-2.93,3.7Z"/><path d="M193.6,214.72c-4,1-8,2-12.07,2.88a6.47,6.47,0,0,1-2.61-.16c3.19-.6,6.37-1.21,9.56-1.8,1.7-.32,3.42-.61,5.13-.92Z"/><path d="M166.86,166.59l12.91-3.44.19.72c-1,.22-2.1.39-3.13.67-3.26.89-6.51,1.82-9.77,2.73Z"/><path d="M204.78,201.15l-11.71,2.41-.1-.4c.94-.26,1.87-.56,2.82-.76C198.64,201.78,201.28,199.91,204.78,201.15Z"/><path d="M181.77,211.11l9.56-4c-.27,1.26-3.21,2.67-9.34,4.51Z"/><path d="M220.8,309.62c.59-1.24,1.17-2.49,1.8-3.71a2.14,2.14,0,0,1,1.1-1l-3.36,9.84-.29-.12c.27-1.72.53-3.43.8-5.14Z"/><path d="M137.29,261.49l4.33,3.67v2.78l-4.73-6.14Z"/><path d="M175.19,141.43,181.31,129l.57.28-6.23,12.43Z"/><path d="M213.26,312.38l1.35-3-.49-.39c-.29.59-.58,1.18-.86,1.77l-.53-.47,4.06-5.25.42.22c-1.1,2.37-2.19,4.75-3.31,7.12,0,.08-.43,0-.66,0Z"/><path d="M190.49,114.19l-6.82,12.11-.46-.25Q186.6,120,190,113.92Z"/><path d="M166.92,334.29l-.68-.86,8-5.61.29.41Z"/><path d="M160.27,194.17l.26,1-10.31,4.45-.21-.42Z"/><path d="M213.24,312.37a13.64,13.64,0,0,1-.82,3.67c-1.19,2.28-2.7,4.39-4,6.6a10.64,10.64,0,0,1-1.17,2,6.29,6.29,0,0,1,.39-1.89c1.15-1.94,2.49-3.78,3.59-5.75a31.83,31.83,0,0,0,1.47-3.78,4.38,4.38,0,0,1,.61-.84Z"/><path d="M158.52,328.72l9.66-6.23.4.62c-1.75,1-3.55,2-5.23,3.11-1.25.83-2.34,1.91-3.54,2.82a3,3,0,0,1-1.13.26Z"/><path d="M200.37,149.08l3,.63-1.89.48,3.17.59c-3.07,1.18-4.32-1-6.14-2.86l3.43-.32,0,.26-1.54.54Z"/><path d="M180.6,214.23l12.26-3.87.19.62-12.31,3.72Z"/><path d="M201.38,344.23c-.48,3.12-1,6.25-1.43,9.28C198.65,350.31,199.79,347.25,201.38,344.23Z"/><path d="M190.19,181.74l7.5-.65,1.81,1.11h-9.33Z"/><path d="M185.83,187.84l-2-.26-.16-.4,3.59-1.56c-.86,2.76-1.67,5.37-2.47,8l-.38-.11Z"/><path d="M204.89,140.57h-7.22c-.63-1.16.42-2.24.64-3.15l5.07.51v.24c-1.14,0-2.28,0-3.42,0s-1.73.49-1.44,1.89h6.32Z"/><path d="M163.68,192l-12,4.12-.15-.41,12-4.37Z"/><path d="M223.57,211.1l-10.85-4.81.26-.59,10.79,5Z"/><path d="M182.51,154.35,184,153l-.41-.48,5.82-.63.12.56Z"/><path d="M201.52,182.05c3.42-1.32,6.67-3.4,10.82-2.82Z"/><path d="M222.21,321.88q-1,5.44-1.93,10.87l-.67-.12q1.06-5.43,2.11-10.86Z"/><path d="M220.8,309.62l0-.13c-.68,1.63-1.35,3.27-2,4.9a10.77,10.77,0,0,1-.7,1.23l-.43-.19,2.61-7.27.52,0Z"/><path d="M148.69,197.92c1.33-3.69,3.87-5.85,7.88-6.18C153,192.56,150.57,194.93,148.69,197.92Z"/><path d="M222.43,207.81l-8.65-4.56.33-.62,8.64,4.72Z"/><path d="M246.66,245.14l-1,.61c.77-2.92,1.47-5.64,2.21-8.36a6.4,6.4,0,0,1,1.2,0,24.72,24.72,0,0,0-1.24,2.85c-.48,1.63-.84,3.31-1.24,5Z"/><path d="M181.62,177.34c1.34-.26,2.66-.58,4-.77,1.52-.2,2.85-.54,3.08-2.39,0-.26.29-.49.68-1.11-.27,1.67-.47,2.88-.58,3.57l-7.12,1.08Z"/><path d="M232.11,314.62l-2.4,7.92-.63-.18q1.13-4,2.24-7.95Z"/><path d="M215.85,311.61q1.93-2.64,3.86-5.3l.51.24c-.62,1.46-1.23,2.91-1.84,4.37l-.31-.08c.08-.43.15-.85.23-1.27l-.26-.18L216.28,312Z"/><path d="M138.57,259.05l-2.7-1.49-1.69.9,2.11-3.06c.79,1.2,1.58,2.38,2.36,3.57Z"/><path d="M201.51,342.78c-1.14-3,1.35-4.75,1.55-7.1l.57.15Z"/><path d="M207.68,293.6c-2.45-2.19-2.61-5.24-.28-7.45C206.31,288.86,206.23,291.26,207.68,293.6Z"/><path d="M247.24,288.15l-7.07,7.18,7.22-7Z"/><path d="M165,248q-1.75-3.47-3.52-6.91l.51-.25,3.58,6.87Z"/><path d="M176.94,190.38l6-2.47-.49.8,1.69-.09.06.39L177,190.59Z"/><path d="M197.2,146.78c2.85-1.48,5.16-1.42,5.85,0Z"/><path d="M160.48,242c-1.25-1.68-2.5-3.36-3.71-5.07-.11-.15.11-.51.18-.78.3.14.75.18.88.41,1,1.72,1.95,3.47,2.91,5.21Z"/><path d="M158.57,190.72l5.81-1.58.1.26-1.42.78,1.92.15,0,.39Z"/><path d="M178.1,343c-.73.41-1.44.87-2.2,1.23a4.39,4.39,0,0,1-1.22.2l-.24-.68,4.16-2.5c-.25.84-.4,1.32-.55,1.81Z"/><path d="M191,341.66c-.87,2.82-1.61,5.22-2.37,7.71C188.06,347.49,188.87,344.8,191,341.66Z"/><path d="M176.69,156.28l9-1.21C182.67,155.65,179.75,157.3,176.69,156.28Z"/><path d="M221.12,208.66l-6.81-3.26.28-.6,6.8,3.27Z"/><path d="M153.72,250.72l-4.17-4.67.54-.49,4,4.82Z"/><path d="M171.34,196.3l2-.47,5.81-1,.16.62a2.09,2.09,0,0,1-.66.37c-2.07.31-4.15.61-6.23.84C172.09,196.72,171.71,196.44,171.34,196.3Z"/><path d="M209.18,197.36l-1.53,1.46.2.64a11.84,11.84,0,0,1-1.78-1.34c-.13-.13.25-1.07.38-1.06A22.35,22.35,0,0,1,209.18,197.36Z"/><path d="M200.8,131.35l6.23.53-.08.73-6.18-.74Z"/><path d="M181.1,147.65h6.8V148h-6.76Z"/><path d="M197.87,316.35l.53.46L195,320.33l-.14-.27c.57-1.05,1.08-2.15,1.75-3.14C196.8,316.59,197.42,316.53,197.87,316.35Z"/><path d="M201.55,134.28l5.42.44,0,.26h-5.52Z"/><path d="M201.88,136.36h5.25v.55h-5.3Z"/><path d="M142.31,207.13c.85-1.83,1.69-3.67,2.54-5.51l.45.21q-1.12,2.8-2.24,5.62Z"/><path d="M177.19,296.5l5.9-2.53C181.34,295,180.06,297.15,177.19,296.5Z"/><path d="M202.69,203.63l-6.6,1.4-.1-.45,6.63-1.55Z"/><path d="M180.43,145.23h8v.24h-7.94Z"/><path d="M210.52,337.66l-1.68,5.64-.7-.21,1.89-5.55Z"/><path d="M225.89,318.07l-1.72,2.27-.55-.31c.17-1,.35-1.92.54-2.94Z"/><path d="M188.81,322l-5.24,4.29-.34-.4,5.14-4.35Z"/><path d="M208.56,122l-5.16-.58C204.67,120.35,206.3,120.45,208.56,122Z"/><path d="M155.34,237.34l1.95,4-.45.24-2.46-3.42,1-.83Z"/><path d="M170.29,303.28l-6.35,2.92-.21-.45,6.37-2.89Z"/><path d="M179.42,198.77l-3.9,1.47-.26-.83,4-1.28Z"/><path d="M191.23,335.62q1.23-2.52,2.47-5l.43.21-2.36,5.09Z"/><path d="M173.48,145.49l-3.39,5.58-.47-.27c1.13-1.88,2.25-3.77,3.37-5.65Z"/><path d="M151.29,273.23l-4.71-3.67.37-.49,4.66,3.69Z"/><path d="M229.38,261.47l-1.68,6.23-.38-.09,1.52-6.27Z"/><path d="M209.41,334.85l-2.1,4.88-.41-.17c.58-1.67,1.16-3.33,1.73-5Z"/><path d="M173.69,302.77l-5.8,3.07-.21-.4,5.78-3.1Z"/><path d="M173.14,158.73l5.19-.82C177.49,159,176.27,159.22,173.14,158.73Z"/><path class="cls-1" d="M228.07,343.1c0,1.36.34,2.84-.07,4.06a20.9,20.9,0,0,0-.82,5c-.22,2.33-1.05,4.6-1.46,6.93.19-.36.37-.72.7-1.38l.45,1.62c.14-.45.22-.61.25-.77.36-2,.7-3.95,1.07-5.92.5-2.66,1.8-5.48,1.28-7.92-.43-2.06.21-3.65.33-5.44.07-1.12,0-2.31,1.3-3.17.59-.39.54-1.86.63-2.86.25-2.68.34-5.38.68-8.05.09-.69.91-1.28,1.07-2.2l-.62.45c.57-2.85,1.16-5.82,1.77-8.86.12.05.3.09.37.19a3.31,3.31,0,0,1,.22.76l1.15-1.85.22.1-2.51,7.3,1.1-.24c-1,3.52-1.85,6.87-2.78,10.34.89-.43.89-.43,2-4.73.47-1.77,1-3.52,1.41-5.31s.56-3.51,1-5.25c1.53,3-.47,5.85-.22,8.87l1.32-4.13c1.62,3.71-1.2,6.44-2.19,9.6.07-.73.12-1.46.22-2.19a8.68,8.68,0,0,0,.15-2.34c-.45,1.86-2,3.29-1.23,5.65.47,1.48-.46,3.4-.56,5.24.71-1.82,1.42-3.64,2.25-5.79-.1,5.91-1.39,9.4-4.75,12,.76-3.78,1.52-7.57,2.31-11.45-3.23,5.4-2.54,11.75-4.5,17.41l1.16-2.43.72.22L229.18,355l.32.17c.6-1.3,1.3-2.57,1.78-3.91,1.24-3.47,2.38-7,3.56-10.48l.81.26c-.39,1.18-.76,2.36-1.17,3.53-.61,1.8-1.73,3.46-1,5.57.24.67-.2,1.59-.33,2.4a57.48,57.48,0,0,0-.86,8q2.47-8.12,4.94-16.23l.81.22-3.63,15.82c4.82-.81,6.22-2.28,7.05-8.29a87.94,87.94,0,0,0,.15-22.05,50.63,50.63,0,0,0-1.26-5.32c-1.11-4.86-2.19-9.72-3.27-14.58a8,8,0,0,1,.07-1.49l1.19,1.7c-.23-2.92-.45-5.67-.67-8.41l.7-.05q.23,3.48.43,6.94h.44c.05-.73.09-1.47.14-2.2l-.25.08,3.66,14.38.53-.13-1-10.25.48,0c1.33,5.6,2.65,11.2,4,16.79,0,.12.42.16.95.34-.26-1.75-.43-3.29-.73-4.8-1-5.21-2.12-10.41-3.17-15.62-.47-2.32-.93-4.65-1.32-7a16.29,16.29,0,0,1,0-2.52l.53,0c.2,1.43.39,2.85.61,4.43l1.26-.61c.31,2.5.59,4.85.9,7.43l-1.26-.53c.79,4.43,1.56,8.7,2.32,13l.7-.11-1.65-10.09.19-.06c.44,1.22.87,2.45,1.31,3.68l.55-.16c-1.13-2,.31-4.41-1.59-6.56-.95-1.08-.52-3.37-.29-5.19.3,1.38.59,2.76.89,4.15l.29,0v-4.07l.62,0c.08,1.83.29,3.67.2,5.49a9.32,9.32,0,0,0,1,4,26.79,26.79,0,0,1,1.2,6.49c.38,3.12.81,6.26.89,9.39a84.55,84.55,0,0,1-.53,8.54c0,.41-.43.8-.92,1.67-.15-2.78-.28-5-.4-7.26l-.51,0c.22,5.28.43,10.55.65,16,.87-1.83-.08-4,1.52-5.5v7.45h.59v-4.18l.46-.1.79,1.41c.41-1.64.8-3.17,1.18-4.69l.24.06v7.25h.25l.82-11.09h.23c.14,1,.22,2.1.45,3.12a3,3,0,0,0,.76,1.43c1.16,1.16,1.12,2.33-.42,3.72.12-1.09.21-2,.3-2.88l-.47-.06c-.23,1.67-.46,3.34-.72,5.2l4-2.9.38.53c-1.08,2.28-3.33,3.34-5.23,4.72-3.31,2.41-6.75,4.64-10.1,7a4.61,4.61,0,0,0-1.69,1.77c-.88,2.18-2.77,2.5-4.69,2.79-2.31.35-4.63.66-6.95.91-.36,0-.77-.36-.83-.39l-6.72-.84c.79-3.19,1.6-6.43,2.4-9.68l-.23-.1-2.12,5.92c-.38-5.66,2.4-10.34,4.39-15.26Zm22.44,7.78a12.6,12.6,0,0,0-.89-2.1c-2.22.51-2.08-.72-1.73-2.18.75-3.18,1.39-6.36,0-9.55a7.14,7.14,0,0,1-.24-1.49q-.57-3.27-1.15-6.54l-.63.08c.6,4.75,2,9.45,1.16,14.3l-.83-4.52-.76.13c1.33,4.4.1,9.07,2,13.47l.43-1.4,1.07,1.66L253,351l-.18-.46ZM239.76,314l-.59.17q3,10.16,6.1,20.31C245.55,327.08,242,320.7,239.76,314Zm8.08,2.59,1.86,10.33.73-.13C249.55,323.37,250.48,319.65,247.84,316.56Zm-18,42.39.52.08,1-4.89-.74-.13Z"/><path class="cls-1" d="M216.13,95.23l-1-.09a4.68,4.68,0,0,1,5.19-1.61V91.69c-2.82-.2-3.23-3.42-5.07-4.59V83.58a14.83,14.83,0,0,1,3.33,5.11c.34.91,1.7,1.52,2.7,2.08.81.47,2.07,3.1,1.78,4-.7,2.19-1.32,4.41-2,6.6a4.89,4.89,0,0,1-.87,1.26l1.43.69-1.34,1.24a25,25,0,0,1,2.59,1.82,18.75,18.75,0,0,1,1.89,2.25l-.45.39-2.51-1.8-.31.4a20.42,20.42,0,0,1,1.76,1.58,4.15,4.15,0,0,1,.53,1.21c-.41-.06-.82-.12-1.23-.2l-1.09-.24,2.84,3-.41.53-2.37-1.07-.23.45,1.94,1.47-1.06.49c1,1.08,2.05,2.16,3.08,3.23l-.46.44c-.73-.57-1.46-1.15-2.22-1.7,0,0-.28.2-.47.33,1.51,1.15.55,1.56-.7,2l-.11-1.41-.49-.09c-.63,2.58-.48,5.3-.78,8.5-1.9-1.58-3.39-2.85-4.91-4.08-3.17-2.58-6.4-5.09-9.52-7.73-2.24-1.88-2.18-1.95-.11-4,.17-.18.32-.39.27-.32-.59-1.39-1.12-2.62-1.66-3.91l3-.34c-.7-1.31-1.32-2.45-1.93-3.6l.31-.18,1.83,2.17.34-.21-.71-2,.31-.16,1.57,1.23-1.17-2.7.45-.28,2.07,1.82-.73-1.78c.09-.07.19-.2.27-.18,2.3.39,3.35-.39,4.32-2.69C214.31,96.42,215.34,95.93,216.13,95.23Z"/><path class="cls-1" d="M250.65,224.84c2.28.67,4.55,1.35,6.83,2,4.23,1.21,7.45,4.28,11.34,6.14.74.36,1.13,1.39,1.75,2a6.4,6.4,0,0,0,1.67,1.37c1.46.71,2.9,1.24,3.83,2.84,1.25,2.16,3,4,4.31,6.16a26.36,26.36,0,0,1,1.68,4.29l-.41.24-4.31-4-.06,1c-.81-1.11-2.41-1.51-1.68-3.29.06-.14-1-.73-1.54-1.13-1.43-1.07-3.38-1.89-4.1-3.32-.59-1.16-1.65-1.77-2.27-2.83s-2.55-1.39-3.89-2.06c-.2-.1-.34-.31-.37-.82l3,.86.1-.24L257,230l.24-.69,5.6,1.59c-4.06-2-8.52-3.11-12.54-5.18C250.43,225.42,250.54,225.13,250.65,224.84Z"/><path class="cls-1" d="M252.48,243.5a12.39,12.39,0,0,1-.24,3.24c-1.3,3.79-2.81,7.51-4.14,11.29-.41,1.15-1.11,2.43,0,3.48l1.31-4.79,1.06.29-1.68,5.63.42.17c.71-1.62,1.43-3.24,2.3-5.2v4.06l.32.13,1.5-3.29.58.24-3.84,9.85-.57-.17.84-3.19-.54-.24-2.16,4.07.29.2,1-1c-.31,1.45-.53,2.43-.75,3.42l-.46,0c-.08-.46-.16-.92-.25-1.41l-.95,1.33-.47-.18c.82-2.4,1.64-4.81,2.56-7.49-3.23,2-2.44,5.59-4,8.4-.42-2,.91-6.37,2.32-8.61a6.85,6.85,0,0,0,.54-1.85l-.84-.28c-1,2.85-1.93,5.71-2.94,8.54a10.2,10.2,0,0,1-1.06,1.75,5.62,5.62,0,0,1-.12-2.14c1.08-3,2.32-5.94,3.48-8.92.81-2,1.58-4.12,2.35-6.19.95-2.57,1.95-5.12,2.82-7.72a25,25,0,0,0,.66-3.47Z"/><path class="cls-1" d="M261.51,323.84a19.82,19.82,0,0,1,.13,4.06c-.48,3-1.37,5.92-1.78,8.91-.3,2.22-.05,4.5-.19,6.75,0,.63-.61,1.22-.93,1.84l-.7-.24c0-1.71-.09-3.44,0-5.14a24.88,24.88,0,0,1,.7-3.14,18.72,18.72,0,0,0,.5-5.54,128.45,128.45,0,0,1-.18-14.95,13.59,13.59,0,0,1,1.28-5c.12,3.07.39,6.14.31,9.2s-.51,6.23-.55,9.39c.46-2,.93-4.09,1.39-6.13Z"/><path class="cls-1" d="M238.53,325.43c.49.81.65,1.08.88,1.48-.07-.69-.12-1.23-.17-1.78,2,6.47,3.66,12.94,0,19.92l.55-3.37-1.22,1-.49-.24c.57-1.67,1.14-3.33,1.7-5l.52.1-.48,2.92c.69-1.34,1.45-2.62.37-4.17a8.5,8.5,0,0,1-.79-2.56c-1.44,4.87-3,10-4.46,15.13l-.71-.21,5.37-18.1.21,0-.15,1.66h.42V327.9c-.88,1-1.45,1.66-2,2.31l-.48-.23Z"/><path class="cls-1" d="M285.1,283.76c-.13-1.57-.38-3.13-.39-4.7,0-3-.28-6.14.26-9.08.65-3.52-.45-6.45-1.8-9.46a6.39,6.39,0,0,1-.69-2.58c.81,1.08,1.94,2,2.39,3.26,1,2.64,1.62,5.41,2.4,8.13a10.71,10.71,0,0,0,.43,1.62c.74,1.62.65,2.35-1,4.53v-6.21c-1.12.72-1.36,2.5-1,4.07a27.88,27.88,0,0,1,.08,10.38Z"/><path class="cls-1" d="M258.84,312c-.06,1.8-.09,3.61-.19,5.42q-.56,11.21-1.16,22.42a9.43,9.43,0,0,1-.39,1.61l-.5,0v-3.61c0-1.26,0-2.51,0-3.76-.1-2-.35-4-.4-6.07a49.57,49.57,0,0,1,.4-8.51c.22,2.72.44,5.45.65,8,1.47-3.07.74-6.45.71-9.79,0-2.15,0-4.29,0-7l.94,1.37Z"/><path class="cls-1" d="M250.18,305.06c.3,2.28.6,4.56.94,7.23l.52-1.24.47,2.38.28,0-.32-4.45c1.73,6,1.48,12.25,2.09,18.37l-.9.08-.63-11.65h-.25c-.08.38-.15.76-.22,1.14l-.28,0-.24-2.42-.29,0q.59,6.09,1.18,12.19l-.78,0q-1.06-10.81-2.14-21.64Z"/><path class="cls-1" d="M228.93,98.34h-2.5l1.61,2.57-.33.2-2-1.13-.21.3c.48.59,1,1.19,1.76,2.18l-1.64-.31c.11,1.1.22,2.17.32,3.13-1.13-1.19-2.34-2.45-3.51-3.74a.84.84,0,0,1,0-.81c1-1.17-.77-3.4,1.44-4V94.29l5.1,3.42Z"/><path class="cls-1" d="M248,220.2l-.82-2,5.17,5.6c-1.42-.75-4,.29-5.79-2.25-.89-1.27-3.09-1.58-4.63-2.43-3.56-2-7.08-4-10.61-6-.06,0-.05-.2-.14-.58C236.91,214.85,241.66,219.06,248,220.2Z"/><path class="cls-1" d="M272.21,304.68c1.75-3-.06-5.7-.65-8.51-.64-3.07-1.22-6.16-1.83-9.24l.42-.3c.43.43,1,.77,1.25,1.28,2.26,4.82,2.51,10,2.42,15.18,0,.61-.72,1.21-1.1,1.81Z"/><path class="cls-1" d="M238.8,346.57c0,.22.13.61.27,1.21.67-1.87,1.26-3.49,1.85-5.12l.59.13c-.42,2.24-.71,4.51-1.3,6.7-.65,2.43-2.16,4.76-2.23,7.17s-1.43,2.27-2.43,2.67C236.62,355.11,237.72,350.81,238.8,346.57Z"/><path class="cls-1" d="M254.22,311.86l.31,1.87.26,0c.14-.8.29-1.6.43-2.4l.3,0v5.85l-.46-1.32c.14,7,1,14.07-1,20.93l-.77,0,.59-7.66.5.6V311.86Z"/><path class="cls-1" d="M234.11,168l-1.47-1.5,1.14.09-6.59-9.63.6-.42,5.81,7.6c-.23-.93-.4-1.66-.57-2.39l.4-.15,3,7-.44.22-1.91-.91Z"/><path class="cls-1" d="M255.85,211.22l1.18-.69c-1-.37-2.25-.45-2.62-1.07-1.42-2.38-4.44-2.25-5.95-4.5l4.34,1.93.27-.37-2.86-2.22.34-.47c.43.26.86.54,1.31.78,1.7.9,2.52,2.91,4.53,3.5.51.15.9,1,1.17,1.64C258.13,211.05,257.86,211.32,255.85,211.22Z"/><path class="cls-1" d="M288.21,253.66l-.78-1.94,1.07.57.44-.26c-3-5-6-10-9.17-15.2.78.59,1.73,1,2.17,1.71,2.27,3.68,4.45,7.42,6.56,11.19C289.16,250.91,289.72,252.26,288.21,253.66Z"/><path class="cls-1" d="M232.43,94.78,225.54,89c2.37.23,4.19.35,6,.63a1.45,1.45,0,0,1,.86,1.06C232.5,91.91,232.43,93.14,232.43,94.78Z"/><path class="cls-1" d="M256.88,263.57l-.63,3,.26.13c.44-.78.89-1.55,1.44-2.49l.56.81,2.24-1.45c-.28,1.59-.85,2.77-2.24,2.48-2.12,2.05-4.08,3.93-6,5.81l-.44-.37c0-.13,0-.33.11-.39a6.44,6.44,0,0,0,2.78-5.36c.05-.79,1.08-1.52,1.66-2.28Z"/><path class="cls-1" d="M223.77,120.38l-1-.25-.79,1.93,1.25.6-1.35,1.42c.46,1.26.83,2.57,1.4,3.79a33.17,33.17,0,0,0,1.87,3.13c-3.1-1.22-4.6-4-4.13-7.77.07-.57-.17-1.22,0-1.72a5.42,5.42,0,0,1,1.31-2.08c.26-.24,1.06.13,1.62.22Z"/><path class="cls-1" d="M248.25,243.63l1.88-5.16c.18.92.28,1.4.47,2.32.43-2.09.77-3.78,1.12-5.47l.43-.06c.15.51.53,1.09.41,1.53-.78,3-1.66,5.9-2.51,8.84-.08.27-.2.52-.31.79l-.47-.13.93-3.95-.34-.11-1.68,4.94-.22,0c.12-1.19.23-2.39.34-3.57Z"/><path class="cls-1" d="M260.11,241.2a13.52,13.52,0,0,0-1.39,1.55,11,11,0,0,0-.82,1.82c-.69-1.87-1.29-3.53-2-5.36l-.82,1.47c-.15-1.29-.26-2.17-.36-3l.55-.45,4.74,4.06Z"/><path class="cls-1" d="M241.06,179.47a11.76,11.76,0,0,1,2.23,2.6c1.49,3.36,2.78,6.82,4.14,10.25l-.44.17q-3.12-6.37-6.23-12.76Z"/><path class="cls-1" d="M267.08,248.87l-3.8-4.77-.48.34v-1.66C266.37,243.5,269.17,246.69,267.08,248.87Z"/><path class="cls-1" d="M228.08,343.06l-.87.75c-.33-4.8,2-8.64,3.74-12.64-.2,1-.37,2.1-.63,3.13-.73,2.94-1.5,5.87-2.26,8.8C228.07,343.1,228.08,343.06,228.08,343.06Z"/><path class="cls-1" d="M238.14,229.72a6.71,6.71,0,0,1,1.21-1.63,3.27,3.27,0,0,1,1.74-.45c.13,0,.5.78.39,1.08a7.91,7.91,0,0,1-1,1.53,2.53,2.53,0,0,0-.51.89,30.35,30.35,0,0,1-1.09,5.75c0-1,0-2,0-3,0-1.45.54-3-.73-4.2Z"/><path class="cls-1" d="M235,108.91c1.11.7,2.17,1.35,2,3-.13,1.07-.1,2.14-1.47,2.17a2.43,2.43,0,0,1-2.74-2.24l3,1.84.2-.35-1.52-2.09,1.23-.24-2.49-2,.23-.43,1.69.43Z"/><path class="cls-1" d="M249.49,270.83l5-9.52C255.06,263.39,253.37,268.38,249.49,270.83Z"/><path class="cls-1" d="M261.52,323.81q.12-6.17.25-12.33l.63,0c.16,4.13.73,8.29-.89,12.33Z"/><path class="cls-1" d="M222.37,161.22c-2.16-.06-3.27-2.31-3.15-6.35C220.35,155.16,220.35,155.16,222.37,161.22Z"/><path class="cls-1" d="M258.88,312c-.1-1.05-.23-2.09-.3-3.13-.24-3.46-.48-6.91-.69-10.37-.05-.81,0-1.63,0-2.95a38.55,38.55,0,0,1,1.35,15.57,3.39,3.39,0,0,1-.4.84Z"/><path class="cls-1" d="M253.41,353.53l-10.1,7.26-.43-.6L253,352.77Z"/><path class="cls-1" d="M197,61.71c1.86,2.53,2.59,5,2.16,7.35C197.05,66.74,196.28,64.1,197,61.71Z"/><path class="cls-1" d="M227.52,131.1c-3-1.18-3.4-3.4-3.79-5.89C227.09,125.91,226.21,128.9,227.52,131.1Z"/><path class="cls-1" d="M235.08,109c-.41-1.15-.81-2.31-1.18-3.34l1.89-2.39.43,1.93-.11.07c.22,1.2.44,2.4.69,3.8l-1.79-.13Z"/><path class="cls-1" d="M196.18,70.15c1.46,2.18,3.18,4,2.63,6.76C197.42,74.93,195.34,73.25,196.18,70.15Z"/><path class="cls-1" d="M258.21,255.46c.2-2.18.38-4,.55-5.87-1.17-.19-1.1-1.57.4-3.45C259.29,249.17,260.74,252.31,258.21,255.46Z"/><path class="cls-1" d="M216.4,145.29c-.15-2.31-.3-4.62-.48-7.34C218,140,218,140,216.4,145.29Z"/><path class="cls-1" d="M166.58,328l2.18-.52c-2.54,1.33-3.89,4.4-6.8,5.17l-.52-.69,5.18-4Z"/><path class="cls-1" d="M236.63,176.25l-6.9-4.73.53-.75c2.33,1.55,4.94,2.69,6.84,4.83Z"/><path class="cls-1" d="M239.13,176.2c-1.73-1.76-4.75-2.35-5.16-5.86C236.2,172.19,238.47,173.44,239.13,176.2Z"/><path class="cls-1" d="M212.49,351.51c-.33,2.06-.65,4.12-1,6.22C209.24,356.8,209.25,356.76,212.49,351.51Z"/><path class="cls-1" d="M217.52,173.16c-2.62-1.07-4.26-2.84-4.26-6.1C215.77,168.57,215.71,171.52,217.52,173.16Z"/><path class="cls-1" d="M230.09,198.8l2.24-.21,0,.53-1.19-.07,1.15,1.43c-3,.11-4.38-1.21-4.36-4.54Z"/><path class="cls-1" d="M220.84,149.53c-1.17-.11-2.08-.53-1.57-1.87.14-.39,1-.51,1.66-.82L219.09,144l.65-.41,2.18,3.69Z"/><path class="cls-1" d="M198.43,97.33c.09-1,.17-1.93.26-2.9l-.07.07,2.31-2.35c.23,1.37.43,2.59.64,3.89l-1.88-1.74c1.05,2.23-.44,2.39-1.3,3Z"/><path class="cls-1" d="M272.13,223.28l-7.24-3.56C267.64,219.12,271.94,221.31,272.13,223.28Z"/><path class="cls-1" d="M254.25,236.75c-.32,2.29-.63,4.45-1,6.89C251.79,240.73,252.5,236.81,254.25,236.75Z"/><path class="cls-1" d="M231.78,189.11l-5.72-2.41.22-.56,2.5,1.11.23-.37-4.29-2.54C228.26,184.54,229.59,187.39,231.78,189.11Z"/><path class="cls-1" d="M270.25,326.14c.88,3.29.23,5.88-1.57,6.35C269.23,330.25,269.74,328.2,270.25,326.14Z"/><path class="cls-1" d="M230.91,96l-.59-1-.24,0c.1.62.2,1.23.29,1.85l-.29.1L229,93.73l-.38.07.3,2.18-.46.11c-.22-1.1-.45-2.19-.69-3.4C230.09,93.08,231,94,230.91,96Z"/><path class="cls-1" d="M264.06,324.71c-.53,2.37-1.07,4.75-1.6,7.12l-.66-.1,1.2-7.23Z"/><path class="cls-1" d="M250.35,256.39l2.31-7.73c1.21,3.05-1.82,5.09-1.34,8Z"/><path class="cls-1" d="M277.2,232.9c2,.41,3.54,1.28,3.44,3.93l-3.89-3.42Z"/><path class="cls-1" d="M269.68,247.73c1.76,2.21,1.57,6.22,0,7.55Z"/><path class="cls-1" d="M226,196.74l-1-1.09c1.11-.72,1.57-.68,2.17.66.28.62-.09,1.54-.16,2.32l-1.59-.6Z"/><path class="cls-1" d="M207.4,226.83q1.41,3.9,2.84,7.82l-.64.23c-.93-2.62-1.86-5.23-2.78-7.85Z"/><path class="cls-1" d="M260.05,241.25a7.38,7.38,0,0,1,1.43.26,6,6,0,0,1-.29,2.52c-.17.38-1,.46-1.87.78l.79-3.61Z"/><path class="cls-1" d="M213.47,230.11v6l-.46,0-.45-6Z"/><path class="cls-1" d="M252.1,258.06c.27-1.8.55-3.6.82-5.41l.77.1-.6,5.44Z"/><path class="cls-1" d="M198.39,97.3l.5,2.06-1.79-.43.91,3.39c-2-1.9-1.95-3.67-.12-5.12.09-.07.35.08.54.13Z"/><path class="cls-1" d="M252.09,335.64v-7.7l.86,0c-.15,2.54-.29,5.09-.44,7.63Z"/><path class="cls-1" d="M261.23,336.23c-.35,2.06,1.8,4.13-.2,6.26-.17-1.85-.34-3.62-.48-5.4a4,4,0,0,1,.12-.9Z"/><path class="cls-1" d="M214.94,151.49l4.05,6.06-.59.39-4-6Z"/><path class="cls-1" d="M252.06,343.81c.31-.95.65-1.9.91-2.87s.46-2,.7-3.1C254.68,339.07,254.46,340.13,252.06,343.81Z"/><path class="cls-1" d="M258.56,209.34c1.11,1.08,2.74,1.36,2.76,3.25C259.31,212.25,258.47,211.33,258.56,209.34Z"/><path class="cls-1" d="M234.05,167.93c.66.62,1.34,1.22,2,1.86s1.08,1.14,1.62,1.71l-.32.38c-1.26-.92-2.57-1.78-3.73-2.79-.54-.47-.89-1.31.51-1.11Z"/><path class="cls-1" d="M214.81,175.37l4.22,1.35-1.28,1.42-3.21-2.45Z"/><path class="cls-1" d="M262.31,338.41c.16-1.82.33-3.65.49-5.47l.72.05-.38,5.44Z"/><path class="cls-1" d="M230.21,146.8c-.34-2-.66-3.86-1.05-6.11C230.66,142,231.08,145.24,230.21,146.8Z"/><path class="cls-1" d="M194.64,101.92c.24,0,.61-.19.7-.09.89,1,1.74,1.94,2.56,2.89-1.83.4-2.83-.43-3.24-2.82Z"/><path class="cls-1" d="M262,216.14,259,213.35C261.72,213.22,262.37,213.84,262,216.14Z"/><path class="cls-1" d="M255.58,250.21l.33-7,.69.05c-.14,2.34-.29,4.67-.43,7Z"/><path class="cls-1" d="M223.47,241.88v-6.07l.66,0-.32,6Z"/><path class="cls-1" d="M280.31,251.59l-4.22-3.8.34-.37C278.15,248.25,279.81,249.13,280.31,251.59Z"/><path class="cls-1" d="M226.05,199.66l-1.9.14c.17.61.32,1.16.44,1.72a1.78,1.78,0,0,1-.61.17c-.44-.7-.83-1.44-1.53-2.71l3.64.25Z"/><path class="cls-1" d="M166.61,341.9l3.3-2.9C169.69,341,168.76,342.12,166.61,341.9Z"/><path class="cls-1" d="M271,311.46l.6-5.47.72.09-.66,5.43Z"/><path class="cls-1" d="M281.07,254.56l3.29,2.95-.56.61-3.27-3Z"/><path class="cls-1" d="M256.25,298.46v7.67l-.34,0c-.11-2.58-.23-5.16-.34-7.73Z"/><path class="cls-1" d="M253.23,302.3l.48,6.51-.59.05q-.27-3.24-.53-6.48Z"/><path class="cls-1" d="M234.1,191.53l-5.06-2,.23-.62,5.1,1.89Z"/><path class="cls-1" d="M187.39,339.67l-1.38.7,1.66-4.34h.61a5.77,5.77,0,0,1,0,1.5,19.12,19.12,0,0,1-.92,2.19Z"/><path class="cls-1" d="M287,253.05l2.44,5.55-.46.2c-.87-1.81-1.73-3.61-2.6-5.41Z"/><path class="cls-1" d="M198.8,38.41c-.12-1.48-.25-2.95-.38-4.43l.79-.07.37,4.43Z"/><path class="cls-1" d="M198.63,51.33l-.57-5.46.51-.06.79,5.43Z"/><path class="cls-1" d="M200.2,57.07V50.82l.43,0v6.28Z"/><path class="cls-1" d="M199,60.07l-1.65-5.25.58-.18L199.52,60Z"/><path class="cls-1" d="M159.3,336.62l-1.18.22-.28-.42,3.51-2.82.58.64-2.68,2.41Z"/><path class="cls-1" d="M264.37,236.9l4.26,2.12-.28.55C267.08,238.74,265,239.33,264.37,236.9Z"/><path class="cls-1" d="M275.66,327.86q-.93,2.42-1.84,4.83l-.63-.24c.32-.77.69-1.53,1-2.32s.45-1.7.67-2.56Z"/><path class="cls-1" d="M235,202.07l3.54,1.51c-.13.29-.27.58-.4.86l-3.42-1.78Z"/><path class="cls-1" d="M240.27,353.67c-.32,1.1-.65,2.2-1,3.3l-.87-.26,1-3.26Z"/><path class="cls-1" d="M224.37,106.89l-2.58-2.23.55-.65,2.62,2.18Z"/><path class="cls-1" d="M238.18,229.66l-1.75,2.55c0-1.63-.44-3.09,1.7-3.42v.93Z"/><path class="cls-1" d="M234.94,208.07l-2.08-.61V207l1.12-.41-1.27-.65.39-.5,2.32,1.79Z"/><path class="cls-1" d="M272.67,231.31l3.55,3.75-.36.36L272.05,232Z"/><path class="cls-1" d="M147.24,223.84c-.09.07-.25.13-.27.21a12.91,12.91,0,0,1-6.54,7.87,3.43,3.43,0,0,0-.72.6,4.1,4.1,0,0,0-.35.76l1.5-.86-3.15,7.48,1.47-1.29c0,.22.06.4,0,.51a27.49,27.49,0,0,0-2.38,4,21.9,21.9,0,0,0-.79,4.4l.06-.07c-2.38,2.17-2.69,5.06-2.74,8a7.14,7.14,0,0,1-.08,2,29,29,0,0,0-1.36,11.17,18,18,0,0,1-.19,2.63l.05-.06-1.2,3.74-.8-.06c-.58-6.56-2.8-12.91-2.17-19.63.46,3.28.93,6.55,1.39,9.82l.56-.06a35.42,35.42,0,0,1,0-15.87l.39.52c1-3.44,2.15-7.13,3.26-10.83h.41l.25,2.53a20.26,20.26,0,0,1,4.57-11c.15.57.26,1,.39,1.46.09-.14.2-.24.18-.3-.53-2.37,1.71-3,2.81-4.3a39.6,39.6,0,0,1,4.61-4c.22-.18.49-.32.93-.62l-.09,1.26Z"/><path class="cls-1" d="M147.22,223.88c2-3.34,6.1-5.95,9.59-5.8a13.26,13.26,0,0,1-1.78,1.13c-1.4.56-2.49,1.12-2.56,3a1.18,1.18,0,0,1-2.19.59l-2.77,2.64c-.13-.78-.19-1.2-.26-1.61Z"/><path class="cls-1" d="M160.44,210.32c1.7-1.17,3.55-1.24,5.39-1.38a29.44,29.44,0,0,0,3.89-.27,3.46,3.46,0,0,1,3.66,1.14c-1.72.26-3.3.56-4.89.7-.42,0-.9-.65-1.34-.63C165,210,162.82,210.15,160.44,210.32Z"/><path class="cls-1" d="M135,277.38c-2.37-1.66-2.37-1.66-1.26-6.16C135.13,272.24,135.49,273.92,135,277.38Z"/><path class="cls-1" d="M146.2,326l9.51-3.34C154,324.57,148.78,327.6,146.2,326Z"/><path class="cls-1" d="M157.56,207v1.75l1.67-2.8c.29,2.12-.27,2.7-1.86,3.07a24,24,0,0,0-3.59,1.55,3.54,3.54,0,0,1-.86.17l-.3-.52Z"/><path class="cls-1" d="M150.06,329.84l5.42-3.32.79,1.82-2.36,1.45-.28-.38.75-1.09-4.07,2Z"/><path class="cls-1" d="M135.38,282.82h-.54c.48.56.86,1,1.5,1.74-2.3-1.05-3.4-4.3-2.26-7.13a21.51,21.51,0,0,1,.78,2.17C135.08,280.66,135.21,281.73,135.38,282.82Z"/><path class="cls-1" d="M139.68,319.71q-1.23-3.46-2.48-6.91l.89-.31,2.34,6.95Z"/><path class="cls-1" d="M141.17,295.68c-2-.11-2.17,1.63-2.83,2.81a13.72,13.72,0,0,0-.8,2.52c-.21-1.22-1.38-1.93.18-2.86.33-.2-.19-1.84-.34-3l3.77.58Z"/><path class="cls-1" d="M146.94,318c-.11,1.17-1.92,2.92-2.8,2.7-.35-.08-.84-.57-.83-.86a1.73,1.73,0,0,1,.7-1.15,3.66,3.66,0,0,1,1.38-.49C145.85,318.05,146.34,318,146.94,318Z"/><path class="cls-1" d="M156,325.1l-4.82,3.11c.34-2.72,3-2.39,4.27-3.88Z"/><path class="cls-1" d="M139,300.23c.24-.75.43-1.36.63-2H140l.45,1.85.66-1.94,1.46.37C142.67,299.81,141.05,300.64,139,300.23Z"/><path class="cls-1" d="M148.93,218.74l-5.32,3.37-.36-.62,5.31-3.46Z"/><path class="cls-1" d="M175.73,204.05l2-.32-.28-.26,3.25-2.49.57.84L176.16,205Z"/><path class="cls-1" d="M146.35,215.55l-5.06,3.06C141.52,217.22,143.39,215.87,146.35,215.55Z"/><path class="cls-1" d="M159.44,212.38c-1.71,1.3-3.25,3-6,2.3Z"/><path class="cls-1" d="M144.52,315.72l-2,.72h2L143,318.49c-.36-1-.64-1.77-.93-2.6C142.79,315.17,143.47,314.22,144.52,315.72Z"/><path class="cls-1" d="M140.84,312l1.89-.82a6.77,6.77,0,0,1,.36,1.81,1.18,1.18,0,0,1-.81.81,1.59,1.59,0,0,1-1.2-.42C140.85,313.05,140.92,312.51,140.84,312Z"/><path class="cls-1" d="M184,207.64l-4.06,2.22-.4-.62,4-2.39Z"/><path class="cls-1" d="M138.53,279.33l-2.93-2.45.38-.49,4.76,3.65-.08.25-2.19-1Z"/><path class="cls-1" d="M167.29,204.41l1.16,1.07-4.86.77-.05-.25Z"/><path class="cls-1" d="M136.7,221.07l2.28-3.49.44.25c-.62,1.22-1.25,2.44-1.88,3.66l-.81-.46Z"/><path class="cls-1" d="M142.94,225l-2.57,2.75-.46-.38,2.37-3Z"/><path class="cls-1" d="M146.52,322.14c.27-2.18,1.93-2.27,2.94-3.1l.48.57Z"/><path class="cls-1" d="M131.69,271.29l1-1.69.36.06-.27,3.81-.87,0c-.06-.74-.13-1.48-.2-2.22Z"/><path class="cls-1" d="M162.09,224.9v4.15c-.81-1.65-1.5-2.82-.71-4.13Z"/><path class="cls-1" d="M141.17,252.24l-2.07-2.42c-.38,1.18-1.9,2.19-.56,3.82.23.28-.07,1-.14,1.73-1.33-1.18-2-2-1.14-3.69a56.51,56.51,0,0,0,2.18-5.79,7.57,7.57,0,0,1,1.24-1.46l-.12-1.46.39-.12,1.86,4.58-.17.21-1.57-1.81-.23.08c.4,1,.81,2,1.21,3l-.44.33-1.38-2.17-.57.37,1.67,4.68Z"/><path class="cls-1" d="M145.26,256.52c-1.43.37-3.68-1.57-4.08-3.54a3.64,3.64,0,0,1,0-.74l.16-.13,3.93,4.41Z"/><path class="cls-1" d="M199.83,222.74c1.75,1.17.36,2.71.52,4.06-.53-1.31-1.79-2.54-.49-4.06Z"/><path class="cls-1" d="M192.92,224.87l.91-2,.36,0c-.21,1.51-.41,3-.62,4.53l-.39,0c-.08-.87-.15-1.74-.23-2.62Z"/><path class="cls-1" d="M197.85,123.07c1.31-1.6,2.51-1.24,4.09,0Z"/><path d="M250.51,350.88l2.32-.32.18.46-4.09,1.72-1.07-1.66-.43,1.4c-1.87-4.4-.64-9.07-2-13.47l.76-.13.83,4.52c.81-4.85-.56-9.55-1.16-14.3l.63-.08q.59,3.27,1.15,6.54a7.14,7.14,0,0,0,.24,1.49c1.38,3.19.74,6.37,0,9.55-.35,1.46-.49,2.69,1.73,2.18A12.6,12.6,0,0,1,250.51,350.88Z"/><path d="M239.76,314c2.26,6.73,5.79,13.11,5.51,20.48q-3-10.15-6.1-20.31Z"/><path d="M247.84,316.56c2.64,3.09,1.71,6.81,2.59,10.2l-.73.13Z"/><path d="M229.84,359l.76-4.94.74.13-1,4.89Z"/></svg>