<svg id="Layer_1" data-name="Layer 1" xmlns="http://www.w3.org/2000/svg" viewBox="0 0 523.26 791.51"><defs><style>.cls-1{fill:#fff;}</style></defs><title>Artboard 1</title><path d="M379.1,512l-7.92-8.74c.46-.65,1-1.48,1.8-2.54l11.12,8.78.58-.43-8-8.92.92-.87c4.11,1.33,6.81,7.63,12.22,3.37l2.19,6.68-4.61-1.85-4.45,14.59,14.61,15.24.82-.74L385.5,522.37l3.27-8.5,25,23.73.75-.81-24.3-24.55c.78-2.48,3.76-3.05,6.34-.76a57,57,0,0,0,9,6.74l-5.26-8.1-.26.51L392.85,505l3.23-2.51v3.63c1.3-1.38,1.92-2.09,2.6-2.73a15.35,15.35,0,0,1,2.33-1.95c4.91-3,8,.27,11.13,3.29,2.6,2.51,5.1,5.13,7.69,7.66a3.1,3.1,0,0,0,2,.77c-5.56-2.84-2.47-8.73-5.1-13.35v6.61c-.92-.61-1.93-1-1.89-1.29.69-4.72-3-9.13-.42-14.14,2-4,2.49-8.82,4.42-12.9,4.05-8.6,8.51-17,17.29-22a5,5,0,0,0,1.75-2.93c1-3.84,2.55-4.81,6.25-3.76a14.35,14.35,0,0,0,2.86.25c.57-4-11.85-25.23-17.7-29.74l8.44,15-.79.75-3.82-4.16c0,3.73-.17,6.78,0,9.79.17,2.53-1.4,3.15-3.24,3.76-2.65.89-5.5,1.43-7.87,2.81-6.77,3.93-13.29,8.29-20,12.27-1,.6-2.66.08-4.17-.79l-3.6,3.06c.42-2.35.66-3.7.73-4L383.71,466l-1.06-1.49,4.94-3.46-.66-1.18-7.53,3.81c2.13,2.86,1.6,3.68-4.7,6.7l2.67-4.6-2.78-1.16c4.31-2.51,7.91-4.78,11.66-6.75,5.58-2.93,11.26-5.65,17.17-8.59l2.49,1.31-.6-1c1.35-1.7,2.48-3.66,4.11-5a24.12,24.12,0,0,1,5.52-2.95c2.4-1.11,4.49-2.2,4.94-5.34.16-1.1,1.9-2.12,3.1-2.89a24.85,24.85,0,0,1,4-1.72c-.47,2,.4,3.05,3.08,2-.25-1.49-.51-3-.79-4.61l-.92.08c-1.53-3.49-2.85-6.47-4.4-10,0,0,.71-1.29.35-1.76-3.49-4.66-6.49-10-13.17-10.8-.6-.08-1.45-.28-1.69-.71-2.79-5-8.36-6.2-12.48-9.36a11.2,11.2,0,0,1-1.53-1.81h4.64c-2.14-2.6-3.95-4.56-5.47-6.71-1.72-2.43-4-4.56-1.53-8.26,1-1.53.1-4.85-3.46-4.75l1.13-4.48.86-.52c2.41,4.24,5.08,8.36,7.18,12.75a99.52,99.52,0,0,0,13,20.85c1.15,1.4,3.52,1.71,5.15,2.8,6.59,4.43,14,8.09,18.42,14.89,4.57,7.06,8.27,14.71,12,22.26,1.79,3.6,2.61,7.66,4.26,11.34,1,2.33,3,4.24,4.2,6.52a93.35,93.35,0,0,1,5.68,11.91,193.85,193.85,0,0,1,6.05,19.7c1.07,4.39,1.12,9,1.65,13.54.36,3.05.25,6.26,1.23,9.09,2.86,8.25,1.38,16.75,2,25.12.44,6.18.45,12.39.56,18.59.26,14.33-3.7,27.77-8.73,41-4.1,10.79-8.14,21.6-12.38,32.33-.9,2.26-2.58,4.19-3.85,6.31-5.57,9.34-10.73,18.95-16.81,27.94-4.54,6.73-10.43,12.52-15.42,19-4,5.17-9.62,8-14.84,11.48s-10.16,7.93-15.63,11.25c-9.77,5.94-19.81,11.64-30.72,15.08-6.27,2-13.21,1.75-19.8,2.79s-13.08,2.39-19.61,3.63q-14,2.67-27.92,5.37l-21.85,4.2c-7,1.35-14,3.27-21.11,3.84-5.36.42-10.88-.68-16.27-1.5-6.2-1-12.33-2.35-18.49-3.54-.49-.09-1.27.08-1.44-.18-3.08-4.8-7.87-2.5-11.93-2.74-4.46-.25-8.41-.63-12.58-3.19-6.67-4.1-14.15-7-21.42-10-3-1.27-6.48-1.56-9.68-2.49a29.8,29.8,0,0,1-12.79-6.92c-5.54-5.23-11.8-9.68-17.69-14.55a67,67,0,0,1-9-8.8c1.32.25,2.94.08,3.93.8,7.1,5.18,14.1,10.5,21.07,15.87a17.21,17.21,0,0,1,2.33,2.9c4.28,5.11,9.64,7.71,16.23,9.48,9.22,2.46,18,6.74,26.84,10.4A47.08,47.08,0,0,0,200.12,733c1.81,0,3.64.1,5.44.29,11.64,1.22,23.43,1.68,34.84,4,8.2,1.67,15.59-.91,23.33-1.46,6.84-.49,13.63-2,20.39-3.4,3.69-.75,7.2-2.45,10.9-3.07,7.13-1.2,14.36-1.76,21.49-2.94,5.12-.85,10.13-2.38,15.24-3.39,2.5-.49,5.14-.27,7.63-.78,3.2-.65,6.27-1.9,9.46-2.56,14.13-2.95,25.44-11.71,37.78-18.33,5.3-2.84,10.84-5.51,15.47-9.25,6.29-5.09,11.48-11.54,17.74-16.68,7.54-6.17,10.75-15.24,16.36-22.68,4.78-6.34,7.81-14.06,11.21-21.35,2.84-6.07,5-12.45,7.62-18.63,3.21-7.57,6.7-15,9.79-22.63a34.71,34.71,0,0,0,2.06-8.8c.71-5.9,1.11-11.85,1.62-17.78.4-4.65,1-9.29,1.11-14,.4-13.55-.17-27-3.88-40.2-.83-2.95,0-6.32-.34-9.46a54.74,54.74,0,0,0-1.57-9,171.45,171.45,0,0,0-5.13-17.18,53.23,53.23,0,0,0-6.24-11.16,5,5,0,0,0-4.57-1.4c-1.95.72-2,2.62-.74,4.61.73,1.15.74,2.8.92,4.25.86,7.22,3.94,13.6,7.27,19.91-.71-7.27-5.18-13.68-4.88-21.13l1-.36c1.73,4.23,3.54,8.42,5.15,12.69,1,2.65,1.73,5.41,2.52,8.13.57,2,1.18,4-2.32,3.49-.67-.1-1.52,1-2.77,1.89-2.85-7.63-5.6-15-8.34-22.31l-.9.28L448.84,487l-1.37.39-6.62-23.05c-3.81-.68-9.35,4.73-9.47,8.88-.06,2.17-1.73,4.28-2.91,7l-2.79-2.93c-4.54,1.66-5.79,3.34-3.76,6.76,4.62,7.81,5,17,9,25,1.15,2.3,2.09,4.69,3.95,6.79-1.95-7.11-3.9-14.22-6.08-22.15,1.11.62,1.53.71,1.59.91,2,6.91,4.71,13.74,5.59,20.79.48,3.87,1.75,7.76,1.53,11.59-.25,4.35-1.88,8.61-2.5,13-.24,1.66.78,3.46.94,5.22a11.47,11.47,0,0,1-.22,5c-2.61,6.65-1.75,13.37-1.2,20.22.59,7.36-.11,14.68-3.94,21.36-.58,1-.33,2.53,0,3.93,1.46-5.48,5.79-9.44,5.38-16.16-.54-8.87.12-18.05,3.16-26.76.55-1.57,0-3.51.07-5.28.19-5.52.52-11,.61-16.55,0-3-.3-5.94-.47-8.91l1.36-.06c0,4.11.19,8.23,0,12.33-.66,12.12-1.56,24.23-2.17,36.36-.16,3.06.65,6.16.57,9.23a30,30,0,0,1-1.26,7.12c-1.44,5.22-3,10.42-4.68,15.57-.39,1.19-1.47,2.83-2.49,3-3.51.7-4.37,3.17-4.94,6.06-.19.95,0,2.26-.6,2.82-5.34,5.31-5.4,12.84-8.34,19.13a9,9,0,0,1-3.83,4.33c-5.86,2.61-12,4.66-17.89,7.11-2.73,1.14-5.24,2.82-7.94,4-4.33,2-8.72,3.78-13.09,5.65-1.28.55-2.57,1.07-4.55,1.88,5,.86,8.84-.66,21.58-6.83,6.41-3.09,13.23-5.33,18-7.21-2,2.28-5,6.12-8.34,9.56-4.49,4.56-9.23,8.89-14,13.17a133.34,133.34,0,0,1-10.6,8.69c-1.35,1-3.37,1-4.55,1.37-5.3,3.92-10.05,8.31-15.62,11.06-1.86.92-4.57,1.12-6.44,3l3.3-1.22c-1.35,3.57-1.64,3.51-5.52,2.57-1.46-.35-3.19.56-4.8.66-6.75.43-13.5.77-20.21,1.64,3.63,2.34,3.61,2.26,7.4,1.25a24.28,24.28,0,0,1,8.27-.9,193.17,193.17,0,0,1-38.56,16.95l-.66-2.94a67.62,67.62,0,0,1-8.78-.08c-4-.52-7.81-.75-11.58,1.17-7,3.55-14.29,2.65-21.66,1.34-2.94-.52-6-.16-9-.53-5.68-.69-11.35-1.58-17-2.44-3.64-.55-7.27-1.19-11.4-1.87l2.59-2.45L200,693.82l-.34.58,17.23,9.89.24.83c-3.92.38-7.82,1-11.74,1.06a38.85,38.85,0,0,1-10.63-.87,100.37,100.37,0,0,1-14-5.26,81.22,81.22,0,0,1-7.63-4.43,19.79,19.79,0,0,1-5.47-4.41,18.93,18.93,0,0,0-14.47-7.06c-1.18,0-2.51-1.17-3.48-2.11a13.28,13.28,0,0,1-1.81-3.1q-3.86-3.68-7.67-7.35c-.23.26-.46.51-.68.77,2.75,2.26,4.07,6.15,8.39,6.6v3.64a33.17,33.17,0,0,1-4.11-2.76c-4.53-4.21-9.25-8.28-13.34-12.89-2.85-3.23-4.61-7.41-7.21-10.9-2.45-3.31-4.88-6.95-8.16-9.26-5.94-4.18-9.75-9.67-12.71-16-.55-1.19-1.79-2.06-2.39-3.24-2.73-5.35-6-10.56-7.77-16.22-1.18-3.68-3.38-5.91-5.86-8.29-.7-.67-1.84-1.18-2.08-2-1.43-4.93-4.79-7.85-9.09-10.45A26.92,26.92,0,0,1,64,577.86c-.36,6.14,4.19,9.93,7.18,14.45l-1.09.75c-3-3.59-6-7.17-9.19-10.91-1,1.3-2,1.92.26,3.46,2.81,1.87,3.74,5.31,4.88,8.34l-1.26.79-5-6.52c0,1.61,0,2.72,0,3.83,0,3.77.92,7.93-.34,11.23-1.56,4.07-.12,7.23,1,10.56,2,6.17,4.44,12.21,6.75,18.28.69,1.81,1.18,3.41,4,3.54,1.53.07,3.49,2.36,4.3,4.09,1.66,3.56,4.85,5.26,7.44,7.77,5.26,5.1,9.71,11,14.48,16.62.24.28.31.73.58,1,3.53,2.94,3.75,6.72,2.59,11.4-3-2.54-6.16-4.64-8.64-7.35-3.91-4.25-8.22-8.49-10.75-13.54-1.6-3.18-4.07-5.39-5.75-8.31a48.87,48.87,0,0,0-2.89-4.09L74,640.75c-.37-.34-.56-.65-.73-.64-5.72.38-6.38-4.51-8.22-8A70.53,70.53,0,0,1,60.59,622c-1.76-5.22-3.26-10.55-4.6-15.91-2-8,.48-15.75,1.63-23.51.82-5.56,3.11-10.89,4.55-16.38.72-2.78,1-5.67,1.57-9l3.14-.72c.54,2.21-.53,5.65,3.82,5.21.52,0,1.19,1.88,1.88,2.83,1.06,1.46,1.37,4.11,4.26,2.82-1.61-3.81-1-7.38,1.65-8.57-1.22-2.37-3.06-5,1.09-6.45.17-.06.16-.8.14-1.22-.24-3.45.61-4,4.7-2.17-1.2-1.81-2.31-2.87-2.57-4.1-.22-1.06.54-2.32.86-3.49l1.21.05c.57,1.16,1.12,2.34,1.73,3.49s1.21,2.16,1.82,3.24l1.79-1.42-3.81-6.49c2.88-3.15,4.62.92,7.59,1a39.34,39.34,0,0,0-2.69-3.45,5.58,5.58,0,0,1,.31-8.41,3.92,3.92,0,0,1,2.61-.61,43,43,0,0,1,4.83,1c-.75-1.74-1.58-2.8-1.53-3.82s1-2,1.52-2.93l3.83,2.66.63-.73-3-4.29,6.25-2.39c-.53-.63-2-1.79-2.59-3.3-.46-1.29.18-3,.33-4.5h1.27c1.43,1.84,2.87,3.67,4.31,5.51l.67-.42c-.48-2.35-1-4.7-1.43-7l1.18-.33c1.92,5.05,3.84,10.1,5.79,15.21-3.52,3-3.29-3.14-6.19-2,.79,2.42,1.62,4.94,2.44,7.46l-1,.51c-1.57-1.8-3.14-3.59-4.7-5.39l-.79.34c.72,1.88,1,4.19,2.26,5.56,3.09,3.28,2,5.69-1.26,8.42l-7.26-8c-.39,5.47,4.79,7.3,5.93,11.09L104,542,97.44,537l-.69.55c1.25,1.5,2.24,3.43,3.81,4.38,2.68,1.62,2.11,3.22.81,5.22-.8,1.21-1.51,2.48-2.27,3.75l-6.88-5.53-.92,1.09a56.4,56.4,0,0,1,4.64,4.5c.64.78.61,2.11.88,3.18a9.9,9.9,0,0,1-3.23-.53,26.13,26.13,0,0,1-3.68-2.78l-.67.68a26.19,26.19,0,0,1,3.43,3.9c.5.85.17,2.2.21,3.33-1.06-.23-2.29-.18-3.13-.74a44.77,44.77,0,0,1-4.35-3.7l-.9.87a45.4,45.4,0,0,0,3.3,3.35c3.41,2.85,3.4,3.81-.37,6.7l-6.19-3.93c1.14,4,7.46,5.85,4.08,11.49l2.07,2-8,1.21c2,4.39,6.74,2.26,10.21,3.11,2.23.55,4.43-.4,6.52,2.07,1,1.14,4.61,0,7-.09,1.13,0,2.27.12,3.38,0a28.93,28.93,0,0,0,3.54-.85c.93-.24,1.84-.55,2.77-.74,2.27-.46,5.26-.11,4.33-3.69l7.6-3.86c-.89-1.77-1.3-3.74,1.87-5.21,1.84-.85,3-3,4.68-4.34,8-6.31,14.7-13.69,19.27-22.88a15.73,15.73,0,0,1,1.52-2.13c4.26,4,2.64,8.62,2.33,12.74-.34,4.5-3.24,8.67-1.84,13.54.25.87-.83,2.12-1.71,4.16-.44-2.78-.7-4.42-1.19-7.48a50.64,50.64,0,0,0-3.95,4.62c-2.95,4.52-5.76,9.12-8.82,14l3.24,1.86L135.93,586l2.74.8c-1.33,1.53-2.37,2.74-3.57,4.14,1.77.36,3.54.79,5.33,1,.18,0,.91-1.44.69-1.8a12.77,12.77,0,0,0-2.33-2.32c4.76-2.24,5.24-4.41,3-7.76.56-2.13.82-3.51,1.3-4.81a5.3,5.3,0,0,1,1.39-2.09c2-1.78,4.1-3.46,6.34-5.32l6.79,8.5-1.26,1.06L151,570.63c-.81,1.89-2,3.32-1.93,4.72.06,5-.65,10.43,1.13,14.81,2.38,5.86,6.81,10.89,10.36,16.28l1.63-1.08-9.33-12.71,1.18-.82a79.22,79.22,0,0,1,5.54,7.2c2.17,3.57,5.09,4.35,9.54,3.17a14.08,14.08,0,0,0-2.43-2.72c-6.57-4.08-11.19-8.67-14.68-15.72a91.2,91.2,0,0,0,7,7.7,108.1,108.1,0,0,0,9,6.68c5.2,3.71,11.79,3,17.38,5.41,2.64,1.17,3.47.1,3.27-2.45L170,596.23l.19-1.4a33.68,33.68,0,0,1,4.28.29c4.59.89,9.6,1.06,13.59,3.15,3.12,1.63,6.25,3.08,9.08,2,6.53-2.44,14.6-2.27,18.53-9.76.38-.73,1.25-1.19,1.82-1.84,2.14-2.43,4.14-5,6.39-7.3C228,577.18,232,572.9,236.41,569c5.46-4.87,11.24-9.37,16.87-14,3.75-3.1,7.5-6.2,11.19-9.38a2.88,2.88,0,0,0,.69-1.87c.1-2.51,1.4-2.92,3.43-2.22,2.21,5.36-3.1,6.11-5.34,8.51s-5.57,4.15-8.24,6.39c-3.37,2.84-6.56,5.89-10.14,9.14,8.45,7.73,19.57,10.54,29.77,15.85a7.86,7.86,0,0,1-2.34-.14c-9-3.42-18.17-6.39-25.85-12.43-2.62-2.06-4.77-1.47-6.84.55-3.59,3.51-8.12,6.56-10.39,10.8-3.09,5.76-9,8.09-13.72,13.44l13-.86.15-1.44-5.64-2c4.07-1.59,14.07,1.76,21.72,7.37-1.55,0-2.45.23-3.14-.05a19,19,0,0,1-3.87-2.14c-2.78-2-5.36-2.65-6.92-.21-2.52.17-5.48-.16-5.7.47-1,3,2,2.94,3.7,3.69,2.09.91,4.27,1.62,6.41,2.41l-.14,1.19a6.25,6.25,0,0,1-2.41,0c-3.88-1.78-7.67-3.77-11.57-5.5a6.53,6.53,0,0,0-3.83-.52,28.15,28.15,0,0,0-7.29,2.42c-2.2,1.2-6.07.7-5.81,5.13,0,.65-2.54,1.46-4.08,3.12l7,1.74c-.43-1.58-.64-2.37-1.18-4.34,1.46,1.12,2.1,2,2.91,2.18,2,.57,4.33,1.6,6.17,1.11,4.82-1.27,9.36-.78,15.05.42l-9.41,2.75,4.71,1.32v.67l-9.48,1.26,0,1.21a14.35,14.35,0,0,0,3.13.11c3.21-.57,6.32-1,9.29,1.06a3.11,3.11,0,0,0,2.81-.22,30.91,30.91,0,0,0,3.78-3.51l-4.55-1.24,0-.49,7.59-1.21s.27.93.78,1.07c10.31,2.94,17.86,10.65,27,15.62,3.19,1.73,5.67,3.61,9.54.93,2-1.36,5.33-.48,7.94-1.13,3.59-.89,7.05-2.27,10.58-3.43.45-.14.95-.14,1.4-.27,1.56-.45,3.1-.93,4.65-1.39l-.42-.93-11.31-3.28-.19.47L293.2,621l-.61,1.11c-2.44-1-4.92-2-7.3-3.15-4.08-2-8.22-3.86-12.09-6.2-3.54-2.15-6.75-4.85-10.12-7.28-1.05-.76-2.21-1.37-3.22-2.18s-1.91-1.79-2.85-2.7a24.71,24.71,0,0,1,3.72-3.32,3.44,3.44,0,0,1,2.83.4c12.12,7.49,24.26,15,37.33,20.72.17.08.46-.1,1.13-1-4.07-2.07-8.27-3.92-12.18-6.26-4.68-2.81-9.81-4.75-13.09-9.92-1.55-2.43-5.95-3.06-9.09-4.46a11.67,11.67,0,0,0-2.22-.41l2.43-2.31c-1.89-2.89-6.21-4-8.61-1.27-5.24,5.87-12.24,7.16-19.17,8.58.12,1.82.24,3.55.38,5.59h2.12l.12.52-3.14,1.24c-2-3.89-2.69-4-8.37-1a24.87,24.87,0,0,1,18.47-10.2c3.8-.22,4.49-3.72,6.4-5.93l-.12.12c6.16-2.78,12.28-5.68,18.52-8.28,3-1.24,5.75-2.44,7.62-5.25a2.93,2.93,0,0,1,2.6-.78c7.29,2.22,14.67,4.28,20.94,8.91a1.48,1.48,0,0,1,.47.52c-7.16-2.37-14.58-4.85-22.05-7.21-.43-.14-1.15.63-1.89,1.54,7.51,2.28,14.93,4.52,20.81,10.25-11.76-8.25-23.53-9.36-35.68-.34,8.79,1.39,16.71,4.52,23,11.06-3.12-1.78-6.11-3.87-9.4-5.24s-6.66-1.91-10-2.82l-.61,1.51,34.53,20.92,1.92-3.61c-5.7.22-13-4.87-15-10.59,5.35,3.23,10.31,6.35,15.42,9.21,1.19.67,2.88.45,4.91.72-5.41-5-12.73-5.56-16.1-11.73l.58-1,21.35,11.86.59-.88c-5.48-5.72-14.87-6.82-19-14.11l.85-1.17c4.51,2.62,9.05,5.19,13.52,7.87,1.8,1.08,3.37,2.54,5.21,3.52.81.43,2,.07,3.07.07l.2-1c-5-2.73-10.16-5.33-15.09-8.25-1.48-.89-2.42-2.69-3.14-4.48,7.79,3,15,6.49,21.6,12,3.16,0,7.29.15,11.4-.09,1.11-.07,2.15-1.33,2.72-1.7l-18-8.23-.43.68,11.15,6.37c-5.44,1.92-13.92-2.84-24.71-13.62l12.94,7.15c-1-2.76-1.6-4.31-2.2-5.93l4-.66-5.45-5.36,1-1,3.23,3.48,6.1-1.09-5.32-8.2,1.11-.79c2.69,3.42,8.31,3.74,8.73,8.74l14.09,7.9c-5.93,1.68-9.95-4.11-16.21-3.68,3.78,2.35,7.13,4.17,10.17,6.4,2.66,2,4.19,2.68,6.84-.63,2.43-3,6.5-4.74,9.88-7L355.55,586c2.19-2.37,4-4.54,6.07-6.5,2.94-2.83.73-5.32,0-8.13a58.59,58.59,0,0,1-1.82-12.68c7,2.14,11,7.57,16.62,11.32-1.24-1.87-2.25-4-3.78-5.58-3.07-3.24-6.37-6.27-9.74-9.2-.51-.45-1.89.09-3.23.2L354.7,548l1.13-.95,20.55,17.42.78-.87L358.24,545l1-1L378.37,561l1-.88-10.93-13.56.6-.64,3.27,2.54c.21-1.85.37-3.19.53-4.53l-.08.06,13.95,14.6,1-.85-8.47-10.52c3,.75,3.58,4.22,7.29,3l-10.47-11.09.3-.29c.4-.41,1.18-.88,1.12-1.22a30.59,30.59,0,0,0-1.1-3.79c-8.35-1.46-14.84-6.68-20.48-13.24l.54-.82L371.75,531l.92-1.08-7.62-7.75.47-.48,7.84,6.18c.34-.33.68-.66,1-1L364.34,514.6l.24-.33,6.42,5.11,1-.93L353.44,496l.53-.51,21.37,22,1.09-1L356.8,492.05a37.51,37.51,0,0,1,11.3,10.44c2.43,3.39,5.59,6.26,8.56,9.21.46.46,1.67.14,2.54.17-.22,1.68-.32,3.38-.68,5-.6,2.78-2.48,5.87-1.75,8.18.77,2.47,1.73,4.3-.16,6.41l13.5,12.31,3.44,4.33c-6.4-.65-6.76-8.62-13.37-8.11a16.3,16.3,0,0,0,1.79,2.77c2.82,2.75,5.7,5.43,8.59,8.1,1.16,1.06,2.63,1.67,1.45,3.89-.85,1.6-.72,3.72-1,5.49,6.12-.69,8.43,5.73,13.44,6-1.66-1.94-3.62-3.43-5.31-5.18a27.36,27.36,0,0,1-4.71-5.79c-1-1.95-1.25-4.35-1.95-7l4.16,1.18c-1.77-3-2.8-5.89-6.53-5.56,0-1.17.36-2.55-.13-3.47-.68-1.26-2-2.14-3.05-3.21-2.08-2.17-4.14-4.36-6.22-6.53l.94-.86,17.05,16.49c-1-2.83-1.89-5.64-3.71-7.61-4.33-4.71-9.08-9-13.69-13.47-2.25-2.17-2.34-4.87-.57-7.42a59.68,59.68,0,0,0,3.46-6.7ZM249.43,620.71c-2.52-4.58-7.42-5.27-11.16-7.85l-.8,1.33,12,6.44c.36.7.54,1.68,1.11,2.06,3.51,2.29,7.33,4.16,10.61,6.73,2.49,1.94,4.52,1.46,7.73.29-1.84-.7-3-1-4-1.53-4.09-2-8.14-4-12.22-6C251.65,621.65,250.53,621.19,249.43,620.71ZM367.6,651.36c1.22-.46,2.46-.87,3.66-1.39,4.93-2.14,9.84-4.32,14.76-6.48-.17-.4-.35-.79-.52-1.19a19.7,19.7,0,0,0-2.18.85c-6.67,3.53-12.94,5.44-19.58-.77-3.4-3.18-8.18-4.88-12.33-7.25l-.69,1.17,18.62,11.75-1.74,3.32-8.05-4.22C361.13,651.19,363.84,652.28,367.6,651.36ZM247.53,671.22l9.63,2.71-1.76-2.7,4.54-.65-.07-.75-4.06-1.19-2.41,3.29-2.87-3.68-3,3c-.4-.84-.73-2.36-1.21-2.41-4.48-.45-9-.51-13.47-.95-4.76-.46-9.49-1.22-14.24-1.84-3.34-.44-6.69-.86-10-1.29l-.12,1a14.45,14.45,0,0,0,2,.7c7.37,1.55,14.73,3.11,22.11,4.54a6.78,6.78,0,0,0,3.67-.39C240.11,668.94,243.86,668.93,247.53,671.22ZM120.6,594.6h7.07l-4.75,3.09c3.56-.14,6.12,1.06,7.92,4a5.39,5.39,0,0,0,2,2.17,17,17,0,0,0,3.85.72l.28-1.42-5.86-4c4.41-1.62,9.47,1.31,13.35-2.26a9.76,9.76,0,0,1,1.19,2.22,5.13,5.13,0,0,1-.34,1.94l.87-.78,6.25,3.76.8-.78c-2.28-2.18-4.33-4.7-6.91-6.44s-5.45-3.32-8.32-3.58-6,1.17-9.58,2l2-3.94-.67-1.14-9.38,4L113,595.71c.21.69.4,1.34.62,2.08l-5-2c-.89,5,1.66,5.72,5.31,5.46a39.15,39.15,0,0,1,5.39.31l.45-.72-5.09-2.89Zm275.26,11.69c11.38-3.73,19.39-11,20-25.15a16.66,16.66,0,0,0,2.71,2.14c.63.32,2,.45,2.2.15,1.46-2.49,4.14-5.32,3.77-7.62-1-6.37,1-12.13,1.81-18.14.22-1.63-.29-3.36-.47-5.07,4.13-1.13,4-6.06,6.59-9.2-5.47-4.08-5.73-9.55-4.41-15.5l-1.32-.75c-.27,1.1-.55,2.2-.8,3.17l-8-7.14-1.07,1a91.65,91.65,0,0,0,6.33,6.86,4.31,4.31,0,0,1,1.31,5.24c-1.86,5.52-3.79,11-5.42,16.62a70.53,70.53,0,0,0-1.45,8.36l.79.19-3,2.3c1.16,1.81,2.13,3.3,3.09,4.79l-.92.76c-2.16-2-4.28-3-6.38-.49l5,6.09-1.08.94a19.88,19.88,0,0,0-3.52-3.07c-.8-.44-2.09,0-3.16.11.12,1-.11,2.23.42,2.8,1.17,1.24,2.83,2,4.06,3.19.57.54.62,1.63.9,2.47l-1.05.23c-2-3.61-4.74-4.32-8.2-2l3.16,3.67-.45.54-5.93-2c1.28-3.58,2.57-7.16,4.14-11.54-4.64,1.77-6.36-1-8.64-3.21-1.92-1.85-4.44-3.09-6.69-4.61l-1,1.42c3.26,2.46,6.41,5.1,9.83,7.33,3.13,2.06,3.33,3.68.06,6-3.33-2.63-6.64-5.37-10.12-7.88-.89-.64-2.33-.52-3.52-.75a74.32,74.32,0,0,0,11.34,8.74c2.71,1.73,3,3.5.4,6.5l-15.16-11.49-1.18,1.5c2.54,1.89,5,3.82,7.63,5.65s5.52,3.73,8.34,5.64c-1.08,3.08-2.46,6.36-3.36,9.78-.52,1.94-1,2.85-3.22,2.3-.78-.18-1.88,1-2.84,1.49a10.35,10.35,0,0,0,1.51,2.17C391.07,602.6,393.21,604.21,395.86,606.29ZM212.52,658.72c-1.44-3.8-5.48-4.5-8.46-6.33-3.31-2-6.9-3.61-10.54-5.47l4.22-1.69-15-1.79,15.76,8c-.15.35-.31.7-.47,1.05l-18.57-8.14-.55,1.11,7.45,4.37-.57,1.07-11.64-4-.4,1,9.78,5.23-.41,1.08-19.33-6.91-.25.87,7.38,3.81-.58.95-3.64-1.32-.55,1.38c3.84,1.49,7.61,3.23,11.55,4.34,1.72.49,3.9-.79,5.7-.43a36,36,0,0,1,7.91,2.81c4.28,2,8.44,4.21,12.65,6.33l.71-1.25-4.79-3.28,2.85-.68-.13-1-7.9.69-.09-.68,2.32-.5-2.34-2.73,14,2.73.14-.62-7.15-2.29.38-1.13C206.1,654.05,208.53,658.55,212.52,658.72Zm9.26-42,25.58,15.83c-6.31,1.25-10.34-2.76-14.93-5.32s-8.9-5.44-13.46-8a48,48,0,0,0-6.45-2.47l-.44,1c12.73,5.2,22.94,15.05,36.67,19.58-.34-1.33-.53-2.09-.55-2.15l12.67-3.68L233.6,615.75l-.9,1.49L256,631.51l-.48,1.09c-4.05-1.52-8.14-2.94-12.13-4.59-2-.84-4.57-1.62-5.68-3.24C233.82,619.11,227.7,618.24,221.78,616.72Zm-83.87,42.5a7,7,0,0,0-.82-1.23,38.1,38.1,0,0,1-12-16.37c-.26-.65-1.07-1.08-1.59-1.65a19,19,0,0,1-1.54-1.8c-.79-1.11-1.43-2.33-2.27-3.4-1.89-2.39-3.89-4.69-5.77-7.07-.9-1.14-1.54-2.5-2.48-3.59-1.83-2.1-3.9-4-5.67-6.14-1.47-1.77-2.64-3.79-4-5.7l-.83.6q16.16,22.75,32.32,45.52l-.51.47-2.71-2.19c2.08,5.63,16.54,19.7,21.2,20.09L135,661.25Zm59.5,20.72-.71,1.39c3.23,1.6,6.37,3.43,9.72,4.74,4.88,1.9,9.94,3.34,14.84,5.2,1,.38,1.55,1.9,2.52,2.62a75.27,75.27,0,0,0,7.09,4.79c.32.19,1.4-.92,2.13-1.42a10.16,10.16,0,0,0-2.11-1.59c-2-.82-4-1.46-6-2.17l.29-.83h4.05l0-.85-3.85-2.56.38-.69,5,1.26.45-1.16L220.08,683l-.56,1,4.51,3.32-.48.81c-8.65-2.49-15.34-8.9-23.62-12.27l15.15,10.66c-.2.29-.39.59-.58.89Zm-58.24-73.07-.93,1.09c1,1.3,1.78,3,3.09,3.85,9.18,6,18.4,11.86,27.75,17.52A59.35,59.35,0,0,0,179.39,634a32.35,32.35,0,0,0,7.43,1.64,28.75,28.75,0,0,0,5.38-.33l0-1.16c-1.17-.2-2.34-.37-3.5-.6-4.19-.84-8.7-1-12.47-2.73-5.19-2.4-9.85-6-14.68-9.12C154,616.77,146.62,611.8,139.17,606.87Zm-36.32-6.75c-3.78-2.3-7.09-4.3-10.4-6.3-1-.64-2.15-1.82-3.13-1.73-1.37.12-3.78,1.24-3.76,1.87.08,2.69,0,6.36,1.64,7.83,3.08,2.77,7.31,4.28,11.07,6.31l.84-1-6.34-7.85Zm79.26,31.44.9-1.4-44.2-30.26a4.41,4.41,0,0,0,1.22,2.66c5,6,11.84,9.49,18.33,13.5,5.2,3.22,10.1,6.93,15.2,10.32C176.33,628.22,179.25,629.84,182.11,631.56Zm167.36,27.58-44-26C308.49,638.78,344.36,659,349.47,659.14Zm-195.25-4.89c-.19.54-.38,1.09-.56,1.63,4.52,1.28,9.05,2.55,13.57,3.85q15.9,4.56,31.78,9.12a11.05,11.05,0,0,0,2.24.17,19.11,19.11,0,0,0-5-2.92c-5-2.3-9.74-5-15.57-5.19a56.12,56.12,0,0,1-12.47-2.12C163.47,657.55,158.87,655.78,154.22,654.25Zm14.85-23.47c-13.28-4.73-23.13-13.11-34.24-19.37,9.31,8.6,18.66,17.13,31.42,20.42C166.77,632,167.47,631.4,169.07,630.78Zm204.23,21.5.28.77c2.55-1.06,5.12-2.07,7.64-3.19,7.85-3.5,15.74-6.92,23.5-10.61,3.35-1.58,6.44-3.74,9.64-5.63l-.56-1c-4.82,1.14-8.33,6.92-14,4.7ZM99.56,619.59l.71-.19c1.14,1.67,3.28,3.38,3.23,5a9.32,9.32,0,0,0,9.5,9.25L96.79,611.31c-1.19,5.62-.23,8.85,3.27,10.65Zm234.05,38.25.7-1.31-36.88-20.6-.58,1.07C308.37,645.3,320.89,651.75,333.61,657.84Zm54.25-50.13c-6.34,1.83-10.12-5.32-16.07-3.75l6.55,5.36a73.19,73.19,0,0,1,8.89,1.68c2.61.81,4-.45,4.59-2.36.86-2.79-5.55-7.73-9.33-6.42C384.3,604.06,385.82,605.63,387.86,607.71ZM76,582.91l1.25-1.18c-.75-1.18-1.49-2.36-2.25-3.54-2-3.09-5.07-5.66-3.45-10.2.33-1-1.58-2.85-2.72-4.08a2.41,2.41,0,0,0-2.28.3,8.51,8.51,0,0,0-1.07,4c.18,4.76,3.72,7.68,6.46,11A36.86,36.86,0,0,0,76,582.91Zm277.61,74.57.93-1.3a10.94,10.94,0,0,0-2.15-1.85c-2-1-4.21-1.46-6.06-2.61-5.26-3.3-10.43-6.75-15.55-10.28a26.5,26.5,0,0,1-5.87-5c-2.33-2.92-5.87-1.79-8.31-3.88-.18.38-.37.76-.55,1.15Zm-113.19,24.9-.68,1.21c.93.7,1.82,1.47,2.79,2.1,4.51,2.92,9.34,5.43,13.49,8.8,3.66,3,7.38,2.34,11.39,1.72Zm-51.76-53.89-34.48-24C158,610.39,184.73,628.75,188.63,628.49Zm55,65.22.78-.87c3.1,1.41,4.56,7.34,10.57,3.21l-12.54-6.39a16.78,16.78,0,0,0-.27,2.09,17.94,17.94,0,0,0,.53,2.35c-2.23-1.22-3.62-2.26-5.19-2.76a34.13,34.13,0,0,0-5.51-.85c2.84,4.9,11.13,8,14.12,5.9Zm46.8-54.1c9.67,7.62,20.68,12.47,32.46,15.75C311.65,650.87,302.28,642.65,290.38,639.61Zm-49.76-1.68.48-1.52c-11.42-4.31-20.37-13.38-32.62-16.08,3.18,2.28,6.69,3.91,10,5.88,6.12,3.61,12.09,7.48,18.22,11.08C237.78,637.91,239.31,637.73,240.62,637.93ZM397,551.69l-1,1.15,12.52,10.27,1.19-1.24-8.8-6.34,1-1,2.57-4.64,9.67,7.54c-2.85-5.19-9.51-7.6-10-14.54-1.15,3.47-2.3,7-3.54,10.72ZM207.43,702.42l-24.89-6.31-.37,1.15c2.29,1.36,4.46,3.07,6.92,4,3.41,1.26,7.26,1.46,10.53,3C202.44,705.51,204.37,705.11,207.43,702.42ZM281.55,640l-.75,1.26c8.15,8.32,20.17,8.12,29.69,13.44l.48-1.05ZM129.2,613l-1,1.41c6,4.5,11.95,9.08,18.07,13.41.92.64,2.68.09,4.05.09l.39-1.14Zm99.74,28.22c9.52,6.43,12.56,7.33,29.87,8.87-3.76-5.19-9.79-2.43-14.5-4.26S234.32,642.84,228.94,641.26Zm80.86,55.29c0,2.79-.82,3.18-4.25,2.54l-1.43-2.63a7.07,7.07,0,0,1-1,1.73,3.9,3.9,0,0,1-1.94,1.18,32.41,32.41,0,0,1-4.3.06c0,.53,0,1.06,0,1.59,3.82,0,7.69-.38,11.45.09,5,.63,8.49-2.05,12.12-5.36ZM192,669.56l.3-1.14a8.85,8.85,0,0,0-1.21-.46l-14.25-3.31c-3.37-.78-6.72-1.61-10.11-2.28a8.21,8.21,0,0,0-2.61.31A17.71,17.71,0,0,0,166,665a3.51,3.51,0,0,0,1.72.64Q179.84,667.6,192,669.56ZM422.44,491.43l-2.63-4.21c-1,.91-2.95,2-2.8,2.68,1.05,4.36,2.54,8.61,3.88,12.9l1.28-.39c-.38-1.63-.74-3.27-1.12-4.9-.31-1.31-.63-2.62-.95-3.93l1.39-.35,3.69,8.66C423.63,498.46,426.89,493.14,422.44,491.43ZM336,660.75c3.64,2,6.24,3.47,8.9,4.83a3,3,0,0,0,1.84,0c4.83-1.13,9.64-2.3,14.46-3.46a3.19,3.19,0,0,0-2.77-.79c-2.91.47-5.54,1.06-8.75.17C345.58,660.41,341,661,336,660.75ZM291.09,650,270,640.36l-.48,1.06C275.72,646.54,282.45,650.4,291.09,650ZM177.16,616.27l-.89,1.18c5.46,3.6,10.88,7.26,16.43,10.7.63.38,2.06-.52,4.09-1.11Zm97.7,37.25-.14-.83c-1.93-.68-3.82-1.7-5.8-1.93-1.63-.2-3.39.5-5.07.87-3.47.77-3.47.79-3.6,1.82l10.07,2.78.18-.77-2.84-1,.12-.57ZM136.15,624.73l.67-1.09-17-10.87C122,617.65,133,625.33,136.15,624.73ZM383,656.34c-5.53,2.16-11.3,2-16.59,6C373.17,663.05,381.78,660.1,383,656.34Zm-155.31,7.51c-3.29-4.17-7.54-4.66-15.6-2.08C217,665.44,222.43,662.51,227.73,663.85Zm-97.48-20.91c.69,3.73,4.15,4.79,6.74,6.65,3.66,2.64,4.3,2.46,6.34-.94Zm263-52.66c.28-.37.55-.75.82-1.13-5.85-3.56-9.6-10.07-16.68-11.89l-.75,1ZM262.58,707c5,2.52,15.82.07,19.24-4.62Zm1.14-61.41,17.79,8.27C281.34,650.85,268.66,644.83,263.72,645.57ZM95.25,666.33l.33-.74-10.12-13.2c.72,3.28.69,7,2.38,9.54C89.26,664.09,92.7,664.92,95.25,666.33Zm87.18,22.41-.45.91,15.94,9.25a15.27,15.27,0,0,0-2.95-5.53,7.2,7.2,0,0,0-3.17-1.55c-1.69-.53-3.49-.75-5.18-1.29A45.06,45.06,0,0,1,182.43,688.74Zm-15.31-4.28L185.21,696l.72-1.07c-5.3-5.22-13.74-6.5-17.6-13.49C167.87,682.57,167.49,683.52,167.12,684.46ZM146.4,666.75l8.41.8.33-.78-14.54-7c-1.06,1.56-.68,2.4,1.76,3.15C144,663.39,147.23,663.39,146.4,666.75Zm55-46.17c6.32,7.86,10.8,10,13.66,6.61Zm171.32-72.34,10.69,13.51C382.9,555.87,377.06,548.79,372.72,548.24Zm16.43,46,.79-1c-4.64-3.7-9.24-7.44-13.95-11-.36-.27-1.43.38-2.82.8ZM238.36,700.81c.5.7.65,1.15.92,1.24,3.33,1.14,6.64,2.38,10,3.24,1.11.28,2.48-.47,3.72-.76C248.65,700.06,243.58,701.22,238.36,700.81Zm-85.18-29.12-.44,1c5.29,2.33,10.38,5.41,16.83,3.46ZM364.1,560.47l-1.62,1.59c.51,3.17,7.23,9.63,10.6,10.18l1.55-1.55ZM162,664.42l.29-1.46a68.32,68.32,0,0,0-7.49-3.57c-1.45-.51-3.21-.11-4.84-.12,1.2,1,2.25,2.27,3.61,2.78C156.29,663.07,159.18,663.66,162,664.42Zm274-205.8.55.79c3-1.3,6-2.49,8.92-4,.81-.41,1.19-1.65,1.76-2.51-1.19-.16-2.75-.88-3.51-.37C441,454.36,438.58,456.57,436,458.62ZM181.25,683.55c-2.7-4.67-8-6.16-14.25-4.17ZM402.77,502.74l-1.45,1.57,13.52,11.19c.27-.31.54-.62.82-.92ZM272,694.6c-3-6.4-9.51-5.85-14.26-8.79l-.5,1ZM85.28,586.69c-.69-2.19-.71-5.09-4-3.51-1.83.87-3.18,2.74-5.14,4.51l3.6,4.21.81-.69-3.36-3.9ZM348.62,648c.32-.51.65-1,1-1.54l-15.72-9.87-.61.91Zm-159.89-29.6-.3.84c3.2,2,6.36,4.05,9.63,5.9.57.33,1.62-.21,2.45-.34-.21-.77-.2-2.05-.65-2.23C196.2,621.1,192.45,619.8,188.73,618.44Zm-75-3.87-1,1.26c3.66,2.67,7.29,5.4,11,8,.42.28,1.48-.38,2.24-.61a8.39,8.39,0,0,0-1.66-1.7c-.82-.46-2-.39-2.72-.92C118.92,618.65,116.35,616.58,113.74,614.57ZM415.42,443.94l.43.77c3.2-1.67,6.46-3.25,9.58-5.07.75-.44,1-1.68,1.52-2.56-1.07.08-2.42-.24-3.17.29C420.89,439.41,418.19,441.72,415.42,443.94ZM197.71,686.57a12.54,12.54,0,0,0-14.62-2.92Zm207.82-51.85.57-1.14-16.27-8.44A56,56,0,0,0,405.53,634.72Zm-60.31,4.61-.66.94c4.45,2.4,8.9,4.8,13.4,7.12.12.06.72-.8,1.32-1.49ZM202.5,609.8l-.18,1.75,14,1.27c.05-.57.11-1.14.16-1.7Zm213.69,8.78.52-1c-3.51-3.09-7.33-5.53-12.14-5.89l-.48,1ZM100,602l-1.14,1.27c3,2,3.65,7,8.41,6.83.33-.4.66-.81,1-1.21Zm124.23,45.27c2.31,2.47,9.49,4.48,13.63,3.76l-11.11-4.62Zm62.38,55.25v1.07c4.81.19,9.59,2.55,14.45-1.07ZM177,694.23l.79-1.24-15.43-9.63-.62,1ZM419,535.27l.91-1c-3.89-3-5.16-8.52-10.23-10.31l-.82.81ZM331,628.85c-.49-3-7.16-6.69-13.58-7.21Zm33.17,1.09c.09-.3.17-.6.26-.9l-13-7.62c0,1.31.23,2.49.95,2.94,2.89,1.79,5.89,3.4,8.92,4.95A11.7,11.7,0,0,0,364.15,629.94Zm20.61-1.84-.83,1.2,12.44,7.53c.26-.43.52-.85.77-1.28Zm-6.46,3-.93,1.24,13.09,8.75.61-.88c-2.07-1.52-4.13-3.06-6.22-4.55S380.48,632.62,378.3,631.1Zm7.5,23.65.51,1c3.78-1,8-1.1,9.56-6.13Zm-20.16-69.81,10.68,6.58C372.16,586.22,370.05,583.82,365.64,584.94Zm-1.82,21.61-9.65-2.64C358.43,608.65,361,609.36,363.82,606.55Zm-172.73-3.9-.26.65,5,1.43-5,1.85c4.53,2.11,6.35-1.31,9.26-3.16Zm-60.2,7.21c-.22-4.07-4.83-7.25-8.86-7.5Zm129.81-8.75L271.52,607C269.23,602.64,266,600.92,260.7,601.11Zm171.2-63.47,1.19-.29-2.85-14-1.38.31Q430.38,530.64,431.9,537.64Zm-366,36.67c-.24,5.4,3,10.5,6.44,10.64ZM432,576.48l-1.26-.25q-1.12,5.74-2.23,11.5C429.82,584,433.54,580.77,432,576.48Zm-51.21,65.3.84-1-10.08-7.4c-.3.42-.61.83-.92,1.25Zm-48.64-47-.36.62,10.39,6.49L343.9,600ZM282,614.31l1-1.43-9.63-5.43-.74,1.29Zm40.58,46,.52-.8-8.92-4.69,1.33,3.8ZM429,560.55l1.5.47,2.93-9.76-1.3-.39Q430.54,555.72,429,560.55ZM158.89,683.06l.43-.64c-1.18-1.11-3.12-2-3.39-3.35-.89-4.26-2.52-2.72-4.91-1Zm-45-61.2c1.41,4.56,4.41,5.34,8.31,4.51Zm100.59,72.82,6.44,2.47.49-1.27C219.63,694.33,218.23,691.79,214.51,694.68Zm91.37-38.48-.16.89c1.82.56,3.62,1.21,5.48,1.65a5.23,5.23,0,0,0,2.05-.39c-.47-.71-.87-2-1.42-2.05A47.17,47.17,0,0,0,305.88,656.2Zm-132.68,17-.51,1.13c2,1,4.06,2.12,6.15,3.06.3.13,1.2-.39,1.35-.78a1.56,1.56,0,0,0-.64-1.4C177.46,674.42,175.32,673.82,173.2,673.17ZM400.34,531.28,399,532.63l10.51,7-.33.39Zm-24.65,71c.47-2.93-1.86-4.66-6.64-4.34Zm-25.21,45.22-.66,1.09,7.69,4.68.79-1.28C356.53,649.12,352.92,649.26,350.48,647.48ZM116.57,583.29l-.35,1.21L125.7,588l.48-1.43ZM277.47,688.7l-.45.86,8.56,4.11.66-1.35c-1.37-.68-2.71-1.43-4.12-2S279,689.23,277.47,688.7ZM132.06,628.55l.44-1.84L125.78,625l-.47,1.86Zm-15.78-25.26-.78.87,8.72,7,.86-1.09ZM373.9,594.7l-.35,1c6.36,4.61,7.4,5,9.1,3.77ZM270.55,671.63l-1.11.28.38,3.51h5.66ZM92.83,584.73l-1,.52c.27,2-.06,4.4,3.37,3.86l1-5.76-.66-.12-2.13,4.46C93.07,586.07,93,585.4,92.83,584.73Zm332.94-60.8-5.23-6.23C419.78,522,423.58,522.34,425.77,523.93Z"/><path d="M167,85.9c5.85-6.41,12.81-9.62,21.65-7.54A3,3,0,0,0,190.8,78c3.26-2.22,6.25-4.45,10.46-1.4,1.11.8,4,.1,5.42-.84.85-.55.8-3,.69-4.47-.51-6.87-1.37-13.72-1.74-20.6-.21-3.9,1.38-8,4.67-9.58,2.59-1.26,6.37-.15,9.6.08.47,0,1,1,1.28,1.69,2,4.7,4.06,9.38,4.32,14.64.17,3.31,1.29,6.6,1.17,9.87s-1.24,6.39-1.91,9.51a18.49,18.49,0,0,0,3.56-.79c4.81-1.83,8.59,0,9.89,5,2,7.59,4.26,15.12,5.76,22.8a180.73,180.73,0,0,1,2.37,20.27c.1,1.33-1.32,2.77-2.16,4.39,1.56,4.52.49,9.65.52,14.76,0,5.62,1,11.26.82,16.86-.17,4.6,2.64,8.14,3.21,12.4.6,4.51,1.7,9,2.09,13.47.53,6.2.44,12.44.91,18.65.63,8.48,2.68,16.39,8.57,23.09,2.62,3,3.89,7.13,6.21,10.44,2.76,3.95,5.55,8.05,9.09,11.24,6.69,6,14,11.36,20.92,17.08,6,4.91,11.84,9.93,17.71,15a82.09,82.09,0,0,1,7.9,7.22c2.62,2.92,4.5,6.51,7.2,9.33A139.26,139.26,0,0,0,341.22,309c8.25,6.81,17.38,12.73,24.78,20.34,5.73,5.9,9.5,13.74,13.92,20.85,3.71,6,7.11,12.13,11.1,19h-6.6l2.54-1.6c-1-2.63-1.63-5.75-3.33-8.06s-4.59-4-7.51-5.58l3.11,5.91-5.14,2.24,4.57.3-5.45,5.69c-.92-1.61-2-3.48-3-5.35-.12-.21-.11-.56-.28-.67-3.54-2.3-6.87-5.1-10.69-6.74-5.74-2.47-12.16-3.38-16.86-8.09-.68-.68-2-.72-3-1-2.95-.92-5.9-1.83-9-2.6-1.66-.46-3.34-.85-5-1.41-4.39-1.52-8.75-3.12-13.33-4.76-2,5.87-6,2.77-8.79,2.71-5.36-.13-10.68-1.54-16.06-2.13-2.42-.26-4.92.29-7.38.24-.86,0-1.7-.74-2.55-1.13.86-.48,1.71-1.35,2.58-1.36,7.84-.11,15.68-.07,23.52-.07h2.21l.05-.94c-9.22-2.14-18.73.64-28.06-1.73l18.34-.9,0-.61H275.83c-.3-4-3.61-3.22-6-3.21-7.05,0-14.11.41-21.17.63-1,0-2.23.31-2.94-.15a18.52,18.52,0,0,1-3-3.15c1.15-.65,2.3-1.85,3.45-1.85,10.65,0,21.3.21,31.95.29a22.29,22.29,0,0,0,4.16-.86c-1.07-1.35-1.61-2.55-2.54-3.11a88.4,88.4,0,0,0-22.57-9.34c-1.9-.51-3.18-3.32-4.75-5.08l.74-.85-2.53.18c.48,3.46-.57,4.5-3.63,3.34-2.75-1-5.38-2.4-8.06-3.65-7-3.27-14.51-3.07-21.87-2.61-3.78.24-7.64,1.78-11.14,3.4-6.65,3.07-13.42,6.1-19.47,10.16-4.65,3.13-8.21,7.87-12.37,11.78-3.77,3.54-7.68,6.93-11.51,10.36l1.89.57c-2.83,5.69-5.8,11.17-8.32,16.85-5.05,11.34-9.66,22.82-12.55,35s-8.4,23.54-14.21,34.66c-4.27,8.18-8.4,16.43-12.92,24.47-2.84,5-6.51,9.61-9.4,14.62-4.32,7.46-8.06,15.25-12.45,22.66-3.88,6.54-7.84,13.14-12.62,19-4.52,5.55-6.28,12.18-9.22,18.36-1.21,2.54-2.13,5.34-3.85,7.48-3.2,4-3,8.52-2.22,12.82.75,3.94.25,7-3,10-.14-2.48-.57-4.68-.32-6.8.62-5.28,1-10.71,2.51-15.74,2.2-7.08,5.28-13.9,8.21-20.73,2.39-5.54,5.43-10.82,7.59-16.44,1.9-5,2.73-10.33,4.51-15.35,2.12-6,4.84-11.79,7.11-17.74,2.42-6.3,4.69-12.67,6.86-19.07,1.43-4.19,2.72-8.45,3.77-12.75.55-2.22.26-4.63.66-6.89.92-5.21,2-10.38,3.06-15.56,2-10.27,4-20.55,6.09-30.8,1.07-5.19,2.55-10.28,3.57-15.48a63.74,63.74,0,0,0,.73-8.65c.58-10.53,1-21.06,1.71-31.57a110.21,110.21,0,0,1,1.57-12c.15-.85,1.42-1.49,2.16-2.24.36,1,1.1,1.94,1,2.83-.73,6.26-1.68,12.48-2.41,18.73-.15,1.25.37,2.57.65,4.23,15.55-6.5,31.07-11.17,47.31-12.88l.38,1.48c-6.55,1.66-13.13,3.18-19.63,5-5.64,1.59-11.22,3.43-16.76,5.36-3,1-5.84,2.63-8.84,3.71-.88.32-2.07-.24-3.65-.48-.17,3.45-.38,7.53-.59,11.61l1.2.1c1.18-1.3,2.68-2.13,1-4.68-1-1.57-1.3-4.13,2.06-5.17,10.33-3.21,20.49-7,30.85-10.07,4.63-1.37,9.6-1.61,14.91-1.7-.73.69-1.36,1.8-2.21,2-6.44,1.64-13,2.85-19.36,4.69-6.67,1.93-13.19,4.37-19.74,6.69a4.81,4.81,0,0,0-2.45,2.46q15.57-4.71,31.14-9.39a15.35,15.35,0,0,1,4-.75c6.39-.17,10-4.76,13.86-8.8,2.21-2.33,3.75-5.29,6.22-7.39-19.33,4.14-39.44,7.55-58.55,15.35l-.74-1.63c1.56-.88,3-2.12,4.7-2.61,12.06-3.52,24.06-7.25,36.26-10.16,6.73-1.61,13.87-1.42,20.69-2.73,3-.58,5.68-2.87,8.51-4.38l-.12.12L207,301c-26.8,5.69-55,7.33-81.61,17.15l-.64-1.33a25,25,0,0,1,3.49-2.1c9.1-3.64,18.71-5.17,28.29-6.84,7.85-1.37,15.64-3,23.49-4.42,10-1.77,20-3.43,30-5.09a13.27,13.27,0,0,1,3.72-.12c.45.05.8.91.7.79,4.32,0,8.41.19,12.46-.08,1.83-.13,3.59-1.18,5.32-2.26C196,296.31,161,304,126.08,312.92l-.52-1.5c3-1.37,5.83-3.16,8.95-4,5.93-1.64,12-2.88,18-4,4.82-.91,9.73-1.32,14.57-2.15,8.29-1.43,16.51-3.42,24.84-4.43,10.56-1.28,21.19-2,31.81-2.6,5.14-.29,10.33.28,15.5.41,8.47.22,16.94.29,25.41.61,8.06.31,16.11.83,24.16,1.34a12.25,12.25,0,0,1,2.92,1l.25-1.27c-2.94-.32-5.88-.69-8.83-1-8.46-.78-16.93-1.65-25.41-2.23-4.43-.31-8.9,0-13.35-.15-7.31-.19-14.65-1-21.94-.63-11.6.58-23.22,1.49-34.72,3s-22.9,4-34.29,6.27c-8.19,1.65-16.28,3.75-24.43,5.57a7.14,7.14,0,0,1-2.44-.39c.6-.61,1.12-1.59,1.84-1.79,10-2.7,19.82-6.49,30-7.61,12-1.32,23.57-4.34,35.43-6.08a241.39,241.39,0,0,1,38.55-2.15c11.37.17,22.76-.15,34.13.13,5.28.13,10.54,1.2,15.8,1.8a4.82,4.82,0,0,0,3-.53c-26.21-4.49-52.67-4.75-79-2.62s-52.39,7.57-78.83,14.12c.79-1.2,1.22-2.66,2.1-3a76.34,76.34,0,0,1,10.74-3.75c5.83-1.46,11.73-2.73,17.67-3.7,6.21-1,12.51-1.48,18.74-2.42S188.85,286.73,195,286c6.85-.82,13.77-1.1,20.66-1.53,7.14-.45,14.29-1.05,21.44-1.13,8.58-.1,17.16.32,25.75.46a108.12,108.12,0,0,0,12.15-.39c-4-.53-8-1.33-12.09-1.52-6.35-.29-12.73-.26-19.1-.19-8.88.09-17.76.2-26.63.58s-17.62.82-26.38,1.74c-5.13.54-10.12,2.22-15.22,3.13-9.9,1.77-19.85,3.22-29.73,5.08-4.82.9-9.52,2.46-14.29,3.64a8.79,8.79,0,0,1-2.54-.13c.52-.68.92-1.77,1.59-2,7.83-2.36,15.64-4.8,23.57-6.77,6.31-1.57,12.73-2.74,19.16-3.68,14.35-2.1,28.6-4.83,43.25-4.8,14.12,0,28.25-1.1,42.46-2.17-2.91-.25-5.82-.75-8.72-.71-9.1.15-18.2.44-27.3.8-10.64.43-21.38.2-31.88,1.68C176,280.26,161,283.7,146,286.49c-2.43.45-4.94.36-7.4.66-.63.08-1.17.78-1.8,1.09-1.94,1-3.9,1.9-6.14,3-1-3.53,1.19-4.21,3.07-4.95,12.19-4.8,25.13-6.57,37.89-8.84,12-2.14,24.22-3.3,36.37-4.65,5-.57,10.14-.52,15.22-.74,9.14-.4,18.28-.79,27.38-1.66-36.68-1.76-72.78,2.83-109.33,9.86.7-.74,1.3-2,2.12-2.15,10.9-2.38,21.78-4.92,32.76-6.81,9.79-1.69,19.69-2.86,29.58-3.84,8.38-.82,16.81-1,25.22-1.51,4.09-.24,8.17-.74,12.25-.67,5.16.09,10.31.64,15.7.47a25.34,25.34,0,0,0-5.11-1.23c-9.49-.36-19-1.06-28.47-.68-12.45.5-25.07.83-37.24,3.18-12.94,2.51-26.38,2.36-38.89,7.12a5.75,5.75,0,0,1-1.8-.07c.29-3.76,3.52-4.39,5.7-4.87,5.52-1.23,11.22-1.71,16.85-2.49,3.78-.52,7.56-1.1,11.36-1.56,8.42-1,16.85-2,25.29-2.92,5.29-.58,10.7-.5,15.86-1.63,11.33-2.48,22.62-1.7,33.95-.62a8,8,0,0,0,2.34-.15c-11.27-3.46-22.81-2.55-34.24-2-10.86.54-21.69,1.77-32.49,3.05-6.2.74-12.3,2.22-18.45,3.34a11.86,11.86,0,0,1-2.22.23,77.41,77.41,0,0,0-20.62,3.05,9,9,0,0,1-2.32-.16c2.83-4.27,7-4.4,10.65-5q16-2.76,32.2-4.69c8.77-1,17.63-1.36,26.44-2.21,6-.59,11.94-1.75,17.95-2.26,4.2-.36,8.47-.07,13.14-.07-.82-.46-1.62-1.29-2.42-1.28-8,.07-16,.13-24,.52-4.58.23-9.12,1.14-13.69,1.62-12,1.26-24.06,2.44-36.09,3.69-4.42.46-8.86.87-13.25,1.62a61.49,61.49,0,0,0-7.58,2.28l-1-1.05c1-1.14,1.92-3,3.17-3.29a98.18,98.18,0,0,1,12.76-2.25c10.21-1.19,20.44-2.15,30.65-3.31a7.21,7.21,0,0,0,3.92-2c-8.16-1.9-15.95,1.4-23.94,1.59s-15.84,2-24.32,2.3c1.2-.86,2.3-2.28,3.61-2.5q11.5-1.92,23.08-3.34c7.84-1,15.71-1.77,23.57-2.53,2.85-.27,5.73-.14,8.59-.32,1.72-.12,3.42-.48,5.13-.73-.06-.51-.12-1-.17-1.53-10.22.79-20.45,1.55-30.66,2.39s-20.12,1.73-30.46,2.62c.5-.7.87-1.83,1.44-1.93,4.18-.77,8.4-1.35,12.61-1.92.55-.08,1.25.52,1.73.36,13.17-4.38,27.06-3.26,40.53-5.37a18.79,18.79,0,0,0,2.77-1.09c-15-1.86-28.76,2-42.51,2l-6.27,2-.82-1.44c1.27-.88,2.46-2.34,3.84-2.55,8.06-1.22,16.17-2.12,24.26-3.17,7.32-.95,14.63-1.94,21.89-3.45-16-1.29-31.62,2.89-47.44,4.19l-.57-1.14c1-.7,2-1.86,3.09-2,6.56-1.06,13.17-1.89,19.75-2.8,5.14-.71,10.26-1.72,15.43-2,4-.26,8.13.39,12.21.51a10,10,0,0,0,3.68-.82c-20.7-4.94-40.4,2.29-60.92,3.93a2.35,2.35,0,0,1-.22-1,7.8,7.8,0,0,1,.3-1.58c23.26-5,46.46-7.91,70.09-6.5l.15-1a16.91,16.91,0,0,0-3.34-.91c-5.82-.39-11.65-1-17.46-.89-7.36.16-14.72.79-22,1.57-5.51.6-11,1.74-16.43,2.67-1.57.27-3.11.81-4.68,1a8.54,8.54,0,0,1-5-.84c21.53-6.53,43.66-8,65.95-8.75-10.8-.54-21.54-1.89-32.33-.4s-21.65,2.94-32.48,4.4l-.51-.95c1.06-.64,2.05-1.66,3.2-1.88,10.89-2.08,21.74-4.52,32.73-5.88,9.31-1.15,18.79-1,28.2-1.44a3.9,3.9,0,0,0,1.75-.32c-4.51-2.28-9.29-1-13.94-1.09-2.37,0-4.75.3-7.12.49-9.24.76-18.5,1.35-27.71,2.37-4.06.44-8,1.82-12.05,2.6-.77.15-1.7-.54-2.56-.84.56-.65,1-1.71,1.68-1.88a107.52,107.52,0,0,1,10.78-2.27c6.35-.91,12.73-1.75,19.12-2.29,7.62-.64,15.26-.92,22.9-1.37a7.27,7.27,0,0,0,3.49-.91c-20.83-2.5-41.1,1.66-62.17,4.35.87-.7,1.65-1.81,2.64-2,5-1.14,10.09-2.26,15.2-3,10.88-1.58,21.78-3.11,32.71-4.3,4.63-.51,9.35-.09,14.05-.56-3.6-3-7.83-1.8-11.72-1.65-8.19.32-16.38,1-24.52,1.87-5,.54-9.91,1.82-14.88,2.72-5.3.95-10.62,1.84-15.93,2.75l-.47-.84c.82-.74,1.54-2,2.48-2.16,7.71-1.65,15.42-3.38,23.21-4.55,8.94-1.34,18-2.21,26.94-3.12,3-.31,6.09,0,9.14-.12a9.08,9.08,0,0,0,4.55-1.17c-10.63-1.68-21.29-1.23-31.81.17s-21.19,3.86-31.78,5.85l-.65-1.07c.82-.7,1.54-1.84,2.47-2,8.66-1.87,17.32-3.77,26-5.27a210.31,210.31,0,0,1,22.19-2.84c5.23-.32,10.53.54,15.8.89,1.13.08,2.26.25,3.39.38l.16-1.12c-3-.62-6-1.61-9.06-1.79a173.25,173.25,0,0,0-44.91,3.55c-4.2.86-8.35,2-12.55,2.89-.67.14-1.49-.44-2.23-.69.49-.72.84-1.9,1.48-2.09,4.48-1.36,8.95-2.92,13.55-3.64q14.54-2.28,29.2-3.7c4.25-.41,8.61.21,12.92.34a7.59,7.59,0,0,0,4-.71c-6.4-1.88-13.11-1.7-19.6-1.68-6.73,0-13.45,1.67-20.18,2.61s-13.23,1.85-20.22,2.26c1-.68,1.9-1.81,3-2q14.68-2.51,29.42-4.69c5.5-.8,11.05-1.33,16.59-1.88,1.18-.12,2.41.31,3.61.26a102.91,102.91,0,0,0,15.58-1.55,4.08,4.08,0,0,0-1.36-.57c-8.6,0-17.24-.58-25.79.08-10.19.79-20.3,2.65-30.46,4a9.05,9.05,0,0,1-2.82-.56c.83-.67,1.59-1.8,2.5-1.94,10-1.6,20-3.33,30-4.42,5.78-.63,11.69-.14,17.54-.16H224l.1-1.18a46.5,46.5,0,0,0-6.38-1c-5.62-.15-11.29-.53-16.86,0-8.86.93-17.64,2.63-26.48,3.84-1.14.16-2.41-.6-3.62-.94,1-.69,1.93-1.85,3-2,12.22-1.79,24.43-3.65,36.7-5,4.48-.49,9.1.33,13.65.54l.15-1.14c-3.62-.47-7.25-1.41-10.85-1.31-8.78.23-17.57.75-26.32,1.56-3.88.37-7.64,1.86-11.51,2.54a9,9,0,0,1-5.54-1c16.9-4,33.78-7.28,51.21-6.09l.13-1.35a36,36,0,0,0-5-1c-12.57-.78-24.91,1.08-37.21,3.41a26.85,26.85,0,0,1-8.69.23c.93-.72,1.77-1.9,2.79-2.08,8.9-1.6,17.78-3.49,26.75-4.34,7.54-.71,15.2-.14,22.81-.14l.19-1.3c-2.36-.42-4.74-1.28-7.08-1.19-9.79.39-19.61.74-29.34,1.8-3.45.38-6.67,1.64-10.35.89-1.43-.3-3.3,1.54-5,2.41l-1-1.54c1-.77,2-2.06,3.13-2.22,11-1.51,22.07-2.94,33.13-4.16,3.45-.38,7,0,10.45-.1a10.15,10.15,0,0,0,4.41-1.28c-14.47-2.44-28.73-.91-43,2.31-.74-2.94.73-3.37,2.68-3.54q19.89-1.69,39.79-3.46a1.5,1.5,0,0,0,1.26-.84c-16.82-3.07-33.27.81-49.79,3.15l-.55-1c1.36-.88,2.64-2.35,4.09-2.55,9.2-1.23,18.42-2.31,27.66-3.16,5.68-.53,11.4-.54,17.1-.8a2.49,2.49,0,0,0,1.6-.73c-18.83-3.82-37.29,1.28-55.87,3.09-.08-.59-.16-1.18-.25-1.77,6-1.15,11.94-2.5,18-3.4s12.19-1.64,18.31-2c6.3-.32,12.64-.07,18.78-.07,1.06-3-.12-3.73-2.1-3.38-6.59,1.16-11.67-1.84-16.4-5.71a13.69,13.69,0,0,1-3,1.14q-13.92,1.69-27.86,3.2c-.28,0-.64-.68-1.38-1.51,10-4.56,20.32-4.53,31.24-3.88l-4.25-7.56-23.65,2.48-.19-1.82,22-3.34c-.83-5.7-1.79-12.26-2.77-19-5.57,1.23-10.85,2.41-16.13,3.56-.85.19-1.93.63-2.56.3-3.64-1.93-4.63,2.09-7,3-.31.13-.42,1.11-.41,1.69.22,8.44.53,16.87.65,25.31,0,1.27-.76,2.55-1.49,4.79,8.4-1.39,16.3-3.08,24.29-3.9,5.93-.62,12-1.83,18,.56.32.13.61.33,1.5.81a12.28,12.28,0,0,1-2.3.79c-9.75.7-19.5,1.27-29.24,2.09a48.87,48.87,0,0,0-9.39,1.9c-3.71,1.07-6.14,3.61-6.4,7.62-.58,8.83-1.38,17.68-1.43,26.52,0,10.7-1.07,21.15-4.51,31.35-1.21,3.59-1.62,7.44-2.56,11.13-.58,2.29-.19,2.81,2.14,1.93a53.51,53.51,0,0,1,6.73-1.55c-1.17,1.76-.58,4.1-4,3.09-2.45-.74-7,3.55-7.75,6-1.81,6.23-3.92,12.37-5.93,18.55-.56,1.73-1.16,3.45-1.83,5.41l10.6-3c-1.18,3.4-7.85,6.11-11.33,4.92l-1.52,4.12,6.47-2c-1.18,3.29-3.21,4.33-6,4.45-.68,0-1.8.24-1.94.64-2,5.63-3.83,11.31-6,17.95l8-4.32c-.73,4.63-2.92,5.87-8.31,5-1.57,5.48-2.85,11.13-4.82,16.53s-.8,11.52-4.47,16.21l-1.26-.2a18.16,18.16,0,0,1,.25-3.63c1.55-5.81,3-11.66,4.89-17.37,3.37-10.24,7.08-20.38,10.5-30.61,1.66-5,2.93-10.09,4.43-15.13,2.22-7.47,4.62-14.9,6.69-22.41C150.68,211,151.17,207,152,203a56,56,0,0,1,1.64-7.44,35.69,35.69,0,0,0,1.28-17.83c-.24-1.48-1.52-2.78-2.2-4.21q-2.37-5-4.61-10c-2.36-5.27-4.48-10.64-7.05-15.8-2.23-4.46-4.33-8.84-4.12-14a10.86,10.86,0,0,0-1-3.52c-1.16-3.56-2.14-7.2-3.58-10.64-1.05-2.5-3-4.62-4.05-7.11-1.42-3.31,1.39-8.76,4.81-10.14.6-.24,1.46-.83,1.49-1.31.29-4.14,3.61-4.77,6.53-6,3.11-1.35,6-3.12,9.12-4.5,2.65-1.19,5.42-2.12,8.17-3.08a40.55,40.55,0,0,1,5.16-1.5,21.32,21.32,0,0,1,3.58-.18c0,3,0,6,0,9.52l9.17-6.44Zm42.23,14.77c-.85,3.38,2.36,4.25,4.06,5.2s4.37.21,6.61.21l-.11-.89-6.23-1.78.2-1,7.76-1.35-.1-1.08c-2,0-4.06-.1-6.08,0s-4.14.49-6.2.74c.34-.53.6-1.46,1-1.54,2.95-.6,5.94-1,8.91-1.52a16.5,16.5,0,0,0,2.71-1l-.41-1.79c-4.35.57-8.72,1-13,1.81-.91.17-1.58,1.67-2.36,2.56ZM103.35,458.18a16.61,16.61,0,0,0,2-2.27,109.81,109.81,0,0,1,13.53-21.19c.9-1.13.62-1.83.16-3.2-.68-2.06-1.74-4.68.59-6.88.68-.64.59-2.11.92-3.51-1.17,0-1.78.06-2.37,0a14.26,14.26,0,0,1-1.87-.5c3.73-1.77,3.83-1.75,5-6.66s2.14-9.93,3.26-15.22l-6.89,1-.32-1.46,6.87-2.1,1.16-3.67-7.59,1.33-.35-1.11,6.54-3.15.13-.89-5.55-1.44a18.75,18.75,0,0,0,2.51-1.14c1.24-.84,2.39-1.8,3.59-2.71-1.52-.18-3-.35-4.55-.57-.16,0-.27-.33-.31-.37l3.68-3.42-2.77-2.12c3.28-1.26,3.57-2.89.74-4.55l1.76-3.32-4.14-1.22,2.68-1.53V349.12l-1,0c-.37,3-.62,6-1.12,9-1.69,10.05-3.3,20.11-5.29,30.1-1,5-3.38,9.84-4.07,14.89-1.93,13.95-3.28,28-4.9,42a24.59,24.59,0,0,1-.64,3c-1.52-.87-3-2.4-3.87-2.09-1.56.56-1,6.62.49,7.87-7.27,11.37-15.53,31.07-15,35.68,1.19-1.25,2.89-2.35,3.55-3.9.85-2,.44-4.53,1.31-6.5,2.32-5.21,3.52-11.07,8.09-15-1.39-4.34,2.42-6.34,4.26-9.26Zm28.32-347.85c4.84,14.09,9.47,27.61,14.28,41.63l4.78-2.76c-4.65-.49-6.87-4.38-5.31-7.42L142,139.56l5.24-3.23c-1.54,0-2.15,0-2.75,0-1-.06-1.92-.17-2.88-.26a15.45,15.45,0,0,1,1.79-2.4,25.82,25.82,0,0,1,3-2.09l-.32-.61-4.88.6c-2.21-4.35,4.27-3.14,3.76-6.45l-5.46,1.13-.28-.88L146,122l-.4-.58L138,123.58l-.73-1.54,7.9-4.85-.27-.7-6.23,2.17-.32-.5,6.37-4.3-.46-.85h-4.9c1.51-1.22,3.61-1.55,4.84-2.77s1.36-3.23,2-4.9c-1.24-.18-2.71-.87-3.69-.44C138.65,106.59,135,108.64,131.67,110.33Zm85.11,11.72v-1.28c-2.68-1.54-5.57-2.83-8-4.73-1-.84-.94-3-1.64-4.44-1.33-2.72-3.44-5.17-4.2-8-2.17-8.12-3.84-16.38-5.83-25.11-.59,1.65-1.75,3.35-1.68,5,.25,5.48.15,11.17,1.63,16.37,2.47,8.69,5.37,17.58,14.73,21.72C213.27,122.2,215.12,121.91,216.78,122.05ZM184.39,91.61a59.8,59.8,0,0,0,7-.09,2.69,2.69,0,0,0,1.68-2c0-3.11-.4-6.22-.66-9.55l-3.66,3.11-.49-.53,1.27-2c-5-2.9-12.21-.28-14.19,5.05l9.42-2.19L176.5,91.6l12.2-2.95.27,1.19ZM241,156.35l-2.51,2.79c-.64-2.57-1.14-4.54-1.63-6.51l-1.18.27c1.12,5.69,2.35,11.35,3.31,17.06s1.7,11.69,2.53,17.52l-3.19.77,4.15,3.57V174.75l1.18,0q.36,5.7.71,11.4c1.06-1.28,1.14-2.7,1.63-3.95.38-1,.23-1.79-.08-1.86a61.14,61.14,0,0,0-.53-7.07c0-.29-2.1-.24-3.35-.35-.23-1.14-.54-2.64-1-4.68l3.2,1.38ZM218.32,85.58l-.35-.4c-2.8.8-5.58,1.74-8.43,2.39-4.16,1-5.58-.27-5.4-5,2.45,4,4.91,3.71,7.52.48l-10.21-2.79c1.13,5.89,2.12,11,3,15.4l18.15-3.36c-.1-.55-.2-1.09-.31-1.64l-17,1.77.19-2.67H220l.39-1.48-4.17-1.36ZM220,71.48c2.4-8.14,3-16.2.5-23.77l-6.44.62c-1.65,6.32,1.88,12.47,2,19l1.24-.13c-.29-3.27-.59-6.54-.88-9.81l1.11-.15Zm83.13,249.66,0-1c-8.07-1.45-16.77-.11-24-5.77l19.43.92c-12.68-3.27-26.43-1.35-38.55-8.39l3-2.2-7.18.57-.12,1c2,1,4,2.05,6,3q11.88,5.85,23.79,11.66c.65.32,1.32.94,1.95.89,4-.28,7.91-.78,11.87-1.07A23.46,23.46,0,0,1,303.12,321.14Zm-14.49-55.57c-.35-.74-.52-1.71-1.09-2.17a61.67,61.67,0,0,0-6.56-4.85c-9.89-6.05-17-14.54-22.4-24.67-2.15-4-4.81-7.8-7.24-11.69-.45.26-.9.52-1.34.79,3.11,5.64,6.13,11.34,9.37,16.91C266.17,251.56,277.18,258.64,288.63,265.57ZM308.27,327l.06-1-18.14-2.78-.3,1.35,42.46,14.73.18-.3-5.86-3.32,3.8-1.34c-5.51-1.09-10.22-1.89-14.88-3-4.48-1-8.89-2.37-13.33-3.58l.33-1.06ZM135.09,105.6c5.1-5,11.7-3.6,17.86-3.91l-.08-1-3-1.47L149.69,98c2-.43,4.56-1.84,5.81-1.07,2.81,1.73,3.66-.4,5.22-2.14l-6.93-.61.27-2.18c-3,2.68-5.15,5.94-9.32,3.66-.58-.32-2,.91-3,1.42l.17.44,3.2-.34C141.08,99.19,136.47,100,135.09,105.6ZM109,457.36l-1.36-.83c-7.21,7.68-12.94,16.19-15.28,26.58l.92.5ZM248.27,246.55l-.62-.9H214.26l-.13,1,2.1,1-.15,1.16H205.92l.1,1.4h14.39l-3.62-2.85c10.2,0,19.73,0,29.26,0A7.09,7.09,0,0,0,248.27,246.55ZM165,334.05c-1.48-.46-1.87-.73-2.16-.65q-14.67,4.22-29.3,8.49a72.29,72.29,0,0,0-6.91,2.24c-.71.29-1.09,1.39-1.9,2.5Zm-7,11.33c-3.63.86-6.76,1.43-9.78,2.34-6.92,2.07-13.79,4.26-20.65,6.51-.74.24-1.28,1.12-1.92,1.7,6.81-1.52,13.07-3.42,19.36-5.23,2.93-.84,5.92-2.1,8.86-2.05C156.3,348.69,157,347.68,157.92,345.38Zm-32.63,14.46c.71.94.88,1.29,1,1.27,8.76-2.14,17.53-4.25,26.23-6.58.81-.21,1.25-1.81,1.87-2.77l-.72-.6Zm124.16-138,1.16-.35c-1.72-7-3.45-14-5.13-20.87l2.17-.23L243,194,238.2,195c6.11,2.12,5.67,7.15,6.8,11.46C246.35,211.64,248,216.74,249.45,221.86ZM144,376.72l-16.82,4.93.39,1.3,14.19-3.49c-.94,6.92-7.51,4.25-10.46,8.13,2-.37,3.5-.66,5-.89s3.18-.44,5.21-.72C142.18,383.25,143.07,380,144,376.72Zm17.23-36.5-.77-.89c-8.2,2.7-17,3.49-24.62,8.05,3.06-.17,5.87-1.21,8.76-1.88,4.86-1.13,9.8-1.94,14.67-3.08C160,342.23,160.54,341,161.19,340.22ZM125.59,365c3.53,1.76,23.43-4.09,24.82-6.88Zm23-1.4c-7.25,4.52-16.43,3.13-22.69,9.06l21.34-5.84C147.44,366.45,148,365.13,148.62,363.64ZM221.08,85.39h8.16c.42,1.68.72,2.86,1,4,3-1.44,2.29,1.65,3.13,2.71a17.2,17.2,0,0,1,1.76,3.69c2.24-4-.14-7-2-9.32C230,82.78,225.44,83.28,221.08,85.39Zm11.12-5.88.07-1.16c-1.79,0-3.65-.32-5.35.07-4.33,1-8.5,2.8-13.09,1.1-1.05-.39-2.38-.06-3.57-.06C217.68,83.14,225,81.92,232.2,79.51Zm28,220.48-.1,1.24L293,303.06l.06-1.27Zm-135,99.3c9.43,1.11,16-4,15-10.89l-10,4.2.43,1.11,7.46-2.49c.7,2.59.36,4-2.29,4.72C132.48,396.78,129.23,398,125.26,399.29ZM288.85,266.81c4.59,3.92,9,7.82,13.57,11.51,1.13.9,2.82,1.1,4.26,1.63a52.5,52.5,0,0,0-10.54-9.65C294,268.84,292.44,265.22,288.85,266.81Zm35.45,61.42v.56l7.42,1.11c-.16-3.21-.31-6.09-.48-9.29l1.75-1.45h-5.42v4.68l2.56,3.63Zm-84-192.51-1.06-.35c-.37,1.22-.73,2.43-1.35,4.5a19,19,0,0,0-.47-2.18,17.37,17.37,0,0,0-1.36-1.92c-.44,5-.77,8.87-1.11,12.73l1,.1.78-5.72.87,0,.9,3.66,1.21.09C239.91,143,240.11,139.36,240.3,135.72Zm-2-25.73q.79,9.66,1.58,19.31C242.26,121.63,241.56,114.11,238.34,110Zm68.11,171.1c5.17,4.7,10,9.11,14.53,13.18C320,290,310.34,280.39,306.45,281.09ZM120.21,430l1.34.69,9.21-17.78-1.61-.83ZM230.79,97.39c2.63,5,.92,11.16,4.08,16.31C236.26,110.88,233.79,99.72,230.79,97.39Zm0,36.29,2.11-.07c-.75-5.5,2-11.06-1.14-17.61C231.44,122.62,231.13,128.15,230.83,133.68Zm96.41,167.49c3.84,6.08,9.61,9.53,16,12.13Q335.26,307.23,327.24,301.17Zm-95.92-60.74v-1.07h-17.1l0,1.07ZM129.38,375.7l.25,1.28c5-1.06,10-2.09,14.94-3.25.3-.07.35-1.16.64-2.21Zm217.55-59.83.44-.41q7.8,8.54,15.62,17.06l.67-.71ZM231.65,300.06l0,1.31h14.95v-1.31Zm58,28.14.44-1.24L284,324.78c.29,1.9.58,3.81.95,6.2ZM163.43,93.28c-.54-1.83-1-3.39-1.51-5.14l-6.44,3.69.13.83Zm53.33,19.36-9.85-6.14C209.27,111.64,213.69,114.39,216.76,112.64Zm-5,121.17,0,1,15.71-.72c0-.46-.06-.92-.08-1.37ZM223.73,87.44l-.78.91c2.1,1.77,4.19,3.55,6.91,5.87C229.9,88.67,225.65,89.41,223.73,87.44Zm80,227.2c0,.47,0,.93,0,1.4l12,.92.12-1.09Zm21.88,9.2.13-1.4-8.51-.93-.12,1.26Z"/><path d="M267.65,475.35q3,4.65,5.89,9.31c.57.91,1,1.88,1.85,3.34-4.25-1.24-4.64-7.2-10.33-6.06,3.32,4.42,9.43,5.66,9.74,12.48l-6.54-7.72-1.23-.09-.51,2.05-4.45-3-.72.72,14.11,17.15-1.14,1.1c-4.56-3.59-7-9.94-14.15-11.71l12.17,13.72-.75.88-3.7-2.25-.59.41,4.23,7.35-1.23,1.08-6.58-5-1.31,1.38,6.32,7.87c-.35.36-.7.73-1.06,1.09-4.51-.69-6.36-5.81-11.55-7.51.91,1.63,1.3,2.53,1.86,3.3,2,2.75,4.13,5.4,6,8.19.42.62.15,1.71.19,2.58a8,8,0,0,1-2.58-.85,73.18,73.18,0,0,0-8.73-6.41c1.43,5.07,8.94,6.43,7.76,13.52l-9.79-7.2-.61.68c1.83,2.41,3.78,4.75,5.4,7.29.38.59-.08,2.49-.59,2.69a4.22,4.22,0,0,1-3.17-.34c-.78-.43-1.15-1.58-1.77-2.36a24.08,24.08,0,0,0-2.67-3.1c-.52-.47-1.42-.52-2.61-.91,2.22,3,4.06,5.45,5.86,7.87-2.83,4.3-5.19,2.66-7.9-.1l1,3.64c-1.61,1.28-3.18,2.53-5,.28-1.15-1.43-2.27-2.87-3.41-4.3l-1.05.9a14.08,14.08,0,0,1,1.59,2.53,31.67,31.67,0,0,1,.93,3.93,39.72,39.72,0,0,1-3.88-1.72,30,30,0,0,1-3.25-2.61c.69,2.8,1.17,4.75,1.64,6.69l-1.22.46-5.64-5,2,6.05c-4.59,1.52-5.35-4-9.07-4,.55,1.61,1.07,3.16,1.87,5.51l-15.65-9.53.14.14c-.67-4.13-4.81-4.95-7.26-7.31-7.52-7.23-15.43-14.05-20.79-23.42l28.68,25.72.82-.88c-1-.92-2-1.84-3-2.74-7.51-6.83-15.08-13.6-22.46-20.57-.82-.77-.56-2.69-.8-4.07h1L208,531l.89-1-18.23-16.67c-2.75-2.51-6-4.68-8.09-7.63-1-1.34-.55-4.62.47-6.24,1.48-2.34,4.27-1.5,6.17-.06,3.44,2.59,6.64,5.51,9.93,8.31q8.84,7.51,17.65,15a22.49,22.49,0,0,0,5.7,3.82c-12.59-11.13-25.53-21.87-38.08-34.49l7-1.1-17.91-17.25.89-.94c2.48,2.22,5.16,4.26,7.4,6.7,3.41,3.74,6.49,7.35,11.73,9.18,3.47,1.21,5.91,5.23,9,7.75,6.89,5.61,13.89,11.08,20.86,16.59a2.73,2.73,0,0,0,2,.64l-36.58-32c7.24-.2,11.23,4.46,15.63,8.55,2.13,2,4.53,3.67,6.8,5.48l.9-.93c-1.17-1.15-2.28-2.36-3.51-3.44-3.32-2.92-6.73-5.73-10-8.7a15.89,15.89,0,0,1-2.88-3.64c-.23-.38.29-1.77.62-1.83,1-.17,2.33-.3,3,.23,2.64,2.07,5,4.5,7.6,6.63,7.31,6,14.69,11.92,22,17.87l1-1.12L200.05,476c.23-.51.47-1,.7-1.51,2.19.6,4.81.62,6.49,1.89,7,5.28,13.65,11,20.46,16.46,1.77,1.43,3.64,2.72,5.46,4.08l.55-.72c-4.38-3.64-8.82-7.19-13.11-10.94-3.49-3-6.78-6.32-10.15-9.51-.23-.21-.41-.83-.49-.81-2.23.6-3-.51-2.19-2.32.17-.4,2.61-.45,3.46.13,4,2.71,7.72,5.68,11.52,8.6,3.65,2.81,7.25,5.67,10.87,8.5l.91-1.12L209.72,467.9a10.3,10.3,0,0,1,9,2.46c5.36,4.31,10.71,8.64,16.11,12.9a8,8,0,0,0,2.25.86l.62-.83-21-18.16c12,3.33,19.58,13.57,30.38,18.76l-21.7-19.25c9.3,3.86,16.63,10.55,24.46,16.5l.75-.77-21.31-19.54c5.54-.07,24.08,14.09,24.08,17.82l4.48.7.62-.68L236.27,458.8l.51-1a21.86,21.86,0,0,1,4.7,1.69,92,92,0,0,1,8.27,6c5.37,4.35,10.63,8.83,16.88,14-1.23-2.16-1.74-3.72-2.77-4.75-2.52-2.53-5.34-4.76-7.9-7.25-.49-.48-.27-1.63-.54-2.4a11.64,11.64,0,0,0-1.09-1.9l-1.39,2.83-6.08-7.64c.18-.05-2.51-1.64-5.49-4,2.69-1.22,6.4,1.06,12.88,6.94,3.82,3.46,8.22,6.27,11.57,9.9l1.94,4.19Zm-41.49,62.5.84-1-41.91-35.46-.8.95C197.2,515.41,211.93,526.33,226.16,537.85Zm-5.95-19.4.65-.68a25.16,25.16,0,0,0-1.79-2.06c-7-6.47-14-13-21-19.34a16.74,16.74,0,0,0-3.64-1.9l-.81,1.42Zm6.19-11.55.26-.54c-3.5-3.07-7-6.18-10.55-9.15-.56-.46-1.64-.29-2.48-.41.32.67.47,1.56,1,2,2.56,2.09,5.19,4.12,7.89,6A31.26,31.26,0,0,0,226.4,506.9Z"/><path d="M330.62,494.29c-1.13-9-.14-11,5.28-11.65,0-4.07,3.26-8.15,6.39-7.79-.74-.86-1.45-1.68-1.8-2.1l3.95-9.79,3.61,2.94.46-.4a15.28,15.28,0,0,1-1.88-2.32,14.12,14.12,0,0,1-.85-2.79,22,22,0,0,1,2.54.8c.46.2.8.68,1.73.64-.93-1.67-1.87-3.33-2.55-4.54,1.87-3.41,3.6-6.59,4.94-9-.6-2-1-3.37-1.45-4.77l.84-.24,8,6,1.56-3c-.66.16-1.05.35-1.16.25-.61-.58-1.78-1.57-1.65-1.81,2.81-5.15,5.87-10.16,8.65-15.32a27,27,0,0,0,2.09-6c.74-2.79,1.27-5.63,1.89-8.46l-2.59,1.61c.92-4.09,1.9-7.29,2.28-10.56.23-2-.4-4.07-.79-6.07s-1-3.91-1.48-5.87l1.79-.56c1.81,4.66,3.63,9.31,5.36,13.76,1.67-3.62,4.35-7.64,5.25-12,.55-2.69-1.59-5.95-2.57-8.94a16.2,16.2,0,0,1-1.18-5.28l5.3,10.21c2.41-3.84,4.75-1.74,6.71.18A83.51,83.51,0,0,1,395,398l-.82.77L389,393.25c1.71,6.94,8,10.24,11.64,15.76l-2.55-2.17-.52.4,2.84,4.45-17.85,18.92,1,1.11c1.14-1.12,2.31-2.21,3.42-3.37,1.37-1.43,2.65-3,4.07-4.37,1.17-1.15,2.48-2.17,3.73-3.25l1.09,1.14-42.25,48.82,2.83-1,.67.8L351,476.14V473.6l-15,12.52,1.69,2.17c3.92-1.84,8.09-3.31,11.72-5.63A162.34,162.34,0,0,0,365.58,471c1.93-1.59,2.59-4.63,4.25-6.68s3.73-3.55,5.91-5.57c-1.19,4.85-2.17,8.87-3.24,13.21L369.76,470c-5.83,8.85-16,11.25-24.27,16.38C340.85,489.24,335.84,491.53,330.62,494.29Zm54.29-80.61-1-.65-14.05,18.6,1.17,1.14c2-2,4-4,6-6,2.17-2.27,4.26-4.61,6.38-6.92l.73.35q-1,3.65-2.05,7.29l-.94-1.08c3-2.32,6-4.56,8.87-7,.39-.33.1-2.05-.42-2.69a9.73,9.73,0,0,0-2.63-1.8c-.67,1.52-1.3,3-1.94,4.46C380.92,417.2,383.59,415.45,384.91,413.68Zm-7.57,16.82-1-.66L360.9,452l1.06.72C367,445.26,374,439.08,377.34,430.5Zm1.09-17.16,1,.45a99.91,99.91,0,0,0,4.69-9.66c.36-1-.85-2.59-1.54-3.8-.12-.21-1.41-.08-1.83.28s-.54,1.25-.81,2H383C381.42,406.37,379.92,409.85,378.43,413.34Z"/><path d="M203.57,539.53c2.41,2,4.84,4,7.23,6.1a10.19,10.19,0,0,1,1.25,1.63l-.57.87-12.67-6.46c.11-.13-.36.66-.53.6-3.38-1.21-7.36-1.77-9.94-4-3.36-2.88-5.61-7.06-8.33-10.68a9.42,9.42,0,0,1-2.15-4.29l13.34,12.48.64-.68c-2.81-2.88-5.7-5.68-8.39-8.66-.9-1-1.19-2.52-1.94-3.67-.53-.83-1.4-2.07-2.08-2-3.53.12-4.34-3.21-6.48-4.8-.37-.27-.23-1.23-.33-1.86.74,0,1.74-.19,2.17.21,4,3.52,7.75,7.25,11.74,10.75,5.66,5,11.45,9.75,17.18,14.62Z"/><path d="M249.47,605.2l-2.55.69.78-2.14-3-.64c3.24-2.19,6.15-2.61,9.07-.72,6.93,4.48,13.72,9.19,20.71,13.57,4,2.53,8.33,4.59,12.51,6.86l-.48,1.17-17.42-7.72-.48.81,12.09,7.28-.26.83c-2.74-1.08-5.66-1.83-8.17-3.3-5.7-3.34-11.19-7-16.79-10.55-1.24-.77-2.86-1.05-3.87-2S250.32,607,249.47,605.2Zm3.14-.85c-.25.39-.51.77-.77,1.15l12.64,8.76.73-1.1Z"/><path d="M193.26,307.92c-11.29,2-22.66,3.63-33.83,6.13-10.19,2.29-20.15,5.59-30.25,8.31-1.62.44-3.43.17-5.16.22,1.29-1.11,2.4-2.77,3.88-3.23A192.16,192.16,0,0,1,147.48,314c14.25-2.78,28.6-5.09,42.9-7.61.81-.14,1.6-.4,2.76-.7V308Z"/><path d="M257.81,356.18a20.25,20.25,0,0,1-2.7,0,48.87,48.87,0,0,1-5.78-1,7.75,7.75,0,0,1-3.73-1.75c-.76-.83-.72-2.4-1-3.65a22.19,22.19,0,0,1,3.76.29c5,1.26,10,2.51,14.92,4,5.85,1.8,11.64,3.81,17.41,5.86q8,2.83,16,5.94c3.66,1.43,7.39,3,6.2,9.2l-10.16-8.79c-.09.9-.15,1.46-.26,2.52-1-.44-2.3-.66-3.08-1.4-4.31-4.08-9.74-5.58-15.22-7.12-2.59-.73-5-2-7.55-3a3.38,3.38,0,0,0-1.71-.44c-3.66.79-3.65.82-6.64-1.83Z"/><path d="M320.53,577.1c-1.5-2.64-2.12-5-3.64-6.17-3.72-2.88-7.64-4.69-12.64-1.7-2.54,1.52-6.14,1.17-9.17,2-1.64.45-3.08,1.63-4.84,2.62l17,6.75-.37.9-22.14-6.43,6.53-5.94c-.24-2.44-.46-4.58-.67-6.73l1-.42,2.39,3.31,8.42-2.41.33.57-4.53,3.67c4.55-.43,8.54-1,12.54-1.14,3.27-.16,9.31,4,10.21,7.07C321.27,574.28,320.68,575.78,320.53,577.1Z"/><path d="M260.15,395.34c21.94,16.51,40.3,36.7,58.84,56.71l-.65,1c-1.22-.68-2.7-1.11-3.62-2.07q-8.42-8.71-16.6-17.64c-2-2.18-3.49-4.83-5.6-6.87-10.49-10.15-21.11-20.17-31.67-30.24A7.4,7.4,0,0,1,260.15,395.34Z"/><path d="M312.93,492.55a12.44,12.44,0,0,1-3.12-1.76c-5.24-5.51-10.19-11.3-15.59-16.64-5-4.92-10.49-9.3-15.6-14.09-1.56-1.47-4.22-3.1-1.46-6.24l36.49,37.65Z"/><path d="M334.12,570.57c.49,0,1.25-.27,1.44,0,4.64,5.66,12.45,6.42,17.56,11.35.48.47,1.35.52,2,.77l-.94,1.32-5.1-.81c.67,1.53,1.09,2.51,1.66,3.8-3.06-.5-4.13-2-4.69-4.69-1-5-4.95-7-10.14-4.93l8.73,5.79c-.13.31-.26.63-.38.94-1.36-.27-2.74-.46-4.05-.85a11.59,11.59,0,0,1-2.2-1.21c.05.91.09,1.82.16,3.37l-4-.56V570.43Z"/><path d="M242.84,417.06c6.5,2.52,40,33,43.47,40.42-1.34-1-2.76-1.94-4-3.05-2.81-2.52-5.63-5-8.26-7.74-3.06-3.12-5.92-6.44-8.88-9.66a21.68,21.68,0,0,0-1.78-1.67q-9.49-8.08-19-16.16A15.43,15.43,0,0,1,242.84,417.06Z"/><path d="M266.68,409c19.33,12.09,31.07,31.29,47.53,45.61l-.74,1.12A15.09,15.09,0,0,1,310,453.7c-6.23-6.4-12.9-12.48-18.39-19.47-7.18-9.15-16.32-16.07-24.71-23.84C266.79,410.26,266.84,409.93,266.68,409Z"/><path d="M353.44,692.38c-6,7-12.77,12.41-22.67,12.44-3.79,0-7.59,1.52-11.55,1.74Z"/><path d="M250.88,452.88c3.41,2.67,6.81,5.37,10.25,8a73.75,73.75,0,0,0,11.1,7.42l-14-12.54.92-1,17.1,14.9-.55,1.07-2.66.45c.09,1,.2,2,.29,2.82-7.89-6.69-15.69-13.3-23.48-19.92Z"/><path d="M309.65,497.29c-10-9-21.76-16.41-27.47-29.49q4.74,4.74,9.48,9.49c3.25,3.25,6.6,6.41,9.76,9.76C304.43,490.23,308.39,492.69,309.65,497.29Z"/><path d="M107.65,504.65l8-7c2.16,5.47,3.94,10,5.73,14.54l-1.39.65L113.84,501l-1.38.59c.69,1.66,1.39,3.31,2.06,5,1.41,3.51,2.84,7,4.15,10.56.13.33-.72,1.4-.79,1.37-.81-.36-1.86-.68-2.27-1.35-1-1.62-1.49-3.54-2.52-5.12C111.55,509.6,109.71,507.41,107.65,504.65Z"/><path d="M236.72,403.13c13.57,13.56,30.26,23.65,42.53,38.66l-.62.7L235.76,404.3Z"/><path d="M364.63,421.74l-3.24-.63c.66-2.51,1.33-5,2-7.52l1.11.08c1,2.17,1.91,4.35,3.14,7.17-5.6,16.9-8.51,22.6-11.43,22.36Z"/><path d="M273.85,626.58c-11.57-1.53-18.74-11.31-29-15.34l.42-1.44c1.91.38,4.12.28,5.69,1.23,6.58,4,13,8.4,19.44,12.59,1.23.8,2.61,1.37,3.92,2Z"/><path d="M251.8,409.12c10.83,11.46,25.28,19,34,32.73l-35.11-31.48Z"/><path d="M271.9,450.63,239.74,422C244.12,422.32,270,444.89,271.9,450.63Z"/><path d="M366.15,379.91c6.47,2.6,12.93,17.72,9.38,21.91-1.29-3.33-2.43-6.61-3.83-9.79a9,9,0,0,0-2.72-3.71C365.58,386,364.77,384.15,366.15,379.91Z"/><path d="M224.19,446.31a14.69,14.69,0,0,1-3.45-1.74c-5.78-5.22-11.35-10.67-17.21-15.8-4.81-4.21-9.94-8.07-14.91-12.11a2.62,2.62,0,0,1-1-1.94c13.09,9.22,24.88,20,36.95,30.48Z"/><path d="M367.32,545.84l-42-30.45.89-1.21q21,15.29,42,30.55Z"/><path d="M189.67,564.11l33,8.48C212.48,574.42,189.92,568.67,189.67,564.11Z"/><path d="M209.37,595.21c-5.24-.82-10.52-1.41-15.68-2.52s-10-2.7-15-4.09l.28-1.9c1.8.09,3.91-.41,5.34.36,7.1,3.86,15.09,4,22.65,5.9a16.53,16.53,0,0,1,2.74,1.27Z"/><path d="M372.83,543.9a10.66,10.66,0,0,1-2.88-1.08c-8.42-6.35-16.79-12.78-25.17-19.21a7.12,7.12,0,0,1-.92-1l.61-.8,31.34,21.44-.05.36-4.14-1.46c.49.82.8,1.35,1.12,1.86Z"/><path d="M358.7,576.18l-3.63-3.37c-1.22,1.44-1.22,1.44,2.28,6.83-2.75.33-12.73-6.89-13.44-10.23l7,3.57.73-1-2.95-4.85C352,566.82,358.44,572.13,358.7,576.18Z"/><path d="M210.61,562.82c-9-2.55-18.32-4.06-26.84-10.81,1.72-.14,3.2-.74,3.81-.25,4.75,3.79,10.77,4.4,16.11,6.66,1.32.56,2.9.49,4.24,1a19.51,19.51,0,0,1,3.26,2.08Z"/><path d="M235.39,436l2.18,5.64-.92.69-24.88-22.78.56-.78c1.51,1.07,3.1,2,4.51,3.22,5.19,4.35,10.3,8.82,15.53,13.13C233.1,435.74,234.35,435.72,235.39,436Z"/><path d="M213,589.54c-10.8,1.16-20.78-1.19-30.33-5.56l0-1.31c.88-.11,1.86-.54,2.63-.29,3.64,1.17,7.14,2.84,10.83,3.73,5.13,1.24,10.4,1.95,15.6,2.91A8,8,0,0,1,213,589.54Z"/><path d="M286.44,434.91l-27.52-24.68.86-.94C269.48,416.92,279.27,424.45,286.44,434.91Z"/><path d="M217.55,577.45q-10.34-2-20.66-4.08a31.38,31.38,0,0,1-6.08-1.47c-.88-.37-1.28-1.89-1.9-2.88a10.32,10.32,0,0,1,2.84.07c7.61,2.34,14.87,5.95,23.1,5.89a10.88,10.88,0,0,1,3.08.93C217.81,576.42,217.68,576.94,217.55,577.45Z"/><path d="M455.89,523.4c-2.05-11.44-4.1-22.88-6.18-34.45C455.36,499.81,456.71,511.41,455.89,523.4Z"/><path d="M188.83,574.15l28.29,7C211.5,583.69,190.05,578.5,188.83,574.15Z"/><path d="M173.27,591c9.87-.49,18.58,4.33,27.92,6.33C191.5,597,182.29,594.48,173.27,591Z"/><path d="M295.87,445.54l19.59,19.14c-1.36-.26-2.93-.08-3.6-.77-5.25-5.37-10.33-10.89-15.41-16.42C296,447.05,296.06,446.21,295.87,445.54Z"/><path d="M215.54,586.11c-10.62.4-19.69-2.09-28.46-5.92.12-.53.23-1.06.35-1.59Z"/><path d="M172.69,122c2.72-3.68,22.11-6.26,25.53-3.24Z"/><path d="M185.24,556.11a10.53,10.53,0,0,1,2.63.75c6.47,3.94,13.28,6.86,20.9,7.75.84.1,1.56,1.19,2.35,1.82-.91.11-1.94.55-2.71.29-7.06-2.44-14.09-4.94-21.08-7.57-1-.37-1.71-1.49-2.55-2.26Z"/><path d="M217.27,432.65l-27.94-24.14.69-.8,28.35,23.43Z"/><path d="M318.17,443.76c-1.23-.23-2.83-.05-3.62-.77a128.34,128.34,0,0,1-11.46-11.85c8.23.11,10,8.31,15.74,11.42Z"/><path d="M253.16,594c-2,.25-3.21.8-4.17.48-4.71-1.56-9.35-3.32-14-5.1a34.19,34.19,0,0,1-5.29-2.52c-.79-.48-1.24-1.5-1.85-2.28a7.83,7.83,0,0,1,2.58.12c3.87,1.62,7.65,3.46,11.52,5.06C245.33,591.13,248.78,592.32,253.16,594Z"/><path d="M172.05,576.47c-8.91-3.48-18-13.17-17.61-18.13Z"/><path d="M304.69,422.09c-.88-.15-2.06,0-2.58-.48-6-5.87-11.89-11.85-17.8-17.79l1-1.07,20,18Z"/><path d="M240.4,429.7c7.84,3.3,13.66,8.95,18.86,15.28l-1.16,1.3Z"/><path d="M256.07,591.51A113.31,113.31,0,0,1,231.5,580.4l.42-1,24.87,10.86-.84,1.37Z"/><path d="M228.86,426.64c1,.25,2.26.19,2.91.8,4.9,4.57,10.89,8.06,14.95,13.48l-1.32,1.43-16.74-15Z"/><path d="M303.89,429.64c-1.12-.37-2.62-.4-3.3-1.16-4.48-5.05-8.79-10.25-13.38-15.68,7.75,3.38,11.39,10.72,17.38,15.53Z"/><path d="M238.94,421.36l-24.2-21.91,1-1.11,24.09,22C239.53,420.7,239.24,421,238.94,421.36Z"/><path d="M180.23,537.51c2.72,2.51,5.41,4.58,7.5,7.13.82,1,.3,3.08.39,4.67l-1.39.47c-1.08-1.76-2.17-3.51-2.91-4.69l-5.78-1.3C178.92,541.27,179.53,539.54,180.23,537.51Z"/><path d="M191.41,548.17c2.67,1,5.34,1.89,8,2.89,3.19,1.19,6.38,2.38,9.51,3.72.57.24.82,1.22,1.22,1.86-.72.23-1.59.85-2.12.63-3.91-1.62-8.36-1.89-11.53-5.43-1.16-1.31-3.69-1.4-5.6-2.05C191.06,549.25,191.24,548.71,191.41,548.17Z"/><path d="M242.69,572.87c9,2.52,16.08,10,26.11,9.84l.13,1.24c-1.31.22-2.88,1-3.9.57-7.7-3.37-15.29-7-22.92-10.52Z"/><path d="M241.31,416,217.23,394.2l.79-.89L242.2,415Z"/><path d="M237.05,575.8l25.53,11.25c-1.13.15-2.66.87-3.65.41-7-3.25-13.94-6.72-20.87-10.16C237.79,577.17,237.67,576.75,237.05,575.8Z"/><path d="M352.91,541.62l-22.58-17.49.63-.85L354,540Z"/><path d="M194.86,427.77c3,2.43,5.88,4.9,8.87,7.3,4,3.17,8,6.26,11.89,9.47a3.16,3.16,0,0,1,1,2.91c-4.45-3.54-8.92-7.05-13.33-10.63-2.16-1.76-4.27-3.59-6.28-5.52a22.8,22.8,0,0,1-2.41-3.23Z"/><path d="M286.39,568c-9-2.45-17.54-5.83-25.29-11.26L286.73,567Z"/><path d="M286,481.6l15.18,14.59C297.63,495.56,285.83,484,286,481.6Z"/><path d="M335.52,509.84l24,18.18C349.82,524.17,342.44,517.19,335.52,509.84Z"/><path d="M261.82,563.56,284,573.21l-.44,1c-7.49-3.06-15.46-5-22.34-9.47Z"/><path d="M206.15,455.58l-17.49-15.7.78-.83c5.64,5.43,12.92,9.12,17.7,15.48Z"/><path d="M194.84,462.38l-19.08-17.17.86-.94,19.29,17Z"/><path d="M216.59,556.8,235.47,559C232.62,561.89,220.74,560.79,216.59,556.8Z"/><path d="M138.85,475.59c-1.91,3.75-3.76,7.53-5.78,11.21a5,5,0,0,1-2.3,1.57c-.22.1-1.09-.51-1.06-.64a9.1,9.1,0,0,1,.86-2.1c1.55-2.87,3-5.78,4.74-8.55a14.52,14.52,0,0,1,2.84-2.61Z"/><path d="M200.62,458.8l-12.21-11.28.93-1c4.51,3.33,10.19,5.39,12.11,11.54Z"/><path d="M285.06,486.06,300,501.41c-.32.32-.64.65-1,1-5-4.78-10-9.55-14.93-14.39C284,487.87,284.57,487,285.06,486.06Z"/><path d="M185.81,102.85l-2.1,2.57-1.33-1.52c-.49.72-1,1.49-1.56,2.26-.5-.58-1.52-1.35-1.4-1.71.29-.79,1.07-1.83,1.79-2a61.07,61.07,0,0,1,8.53-.89c.94,0,1.9.8,2.86,1.24-.26.53-.46,1.46-.79,1.51a17.61,17.61,0,0,1-4.41.17C186.9,104.46,186.47,103.58,185.81,102.85Z"/><path d="M346.38,555.83l-6-6,.84-1a7.08,7.08,0,0,0,2.28,1.23,5.93,5.93,0,0,0,2.29-.69l-2-4.75,1.16-.37C348,547.35,347.79,551.12,346.38,555.83Z"/><path d="M411.72,502.66c-1.34-1.61-2.46-3.55-4.11-4.74-1.29-.93-3.26-.93-4.92-1.34l-.78,1c0-.64-.26-1.46,0-1.88,1.53-2.1,6.95-1.16,8.13,1.14a32.51,32.51,0,0,0,3.37,4.47Z"/><path d="M179,109.82c4.58-2.87,9.7-2.21,15.07-2.09-2,2.49-2.77,2.31-7.64,2-2.28-.17-4.67,1.22-7,1.9Z"/><path d="M275,589.18c8.51-.54,13.66,5.62,19.86,9.51C288.41,595.59,281.92,592.49,275,589.18Z"/><path d="M187.07,446.41,168.49,431.6l.79-1,18.65,14.73Z"/><path d="M306.44,472.36l-15.9-17.08.89-.84q8,8.46,16.07,16.91Z"/><path d="M156,552.25l10.4,12.42C162.36,565,155.91,557.25,156,552.25Z"/><path d="M173.66,524.58c.89,1,1.72,2.12,2.68,3.08,2.46,2.47,5.06,4.81,7.42,7.37.54.6.36,1.86.51,2.82l-1.15.17L172.53,525.5Z"/><path d="M267.76,475.45c-.09-1-.17-1.94-.26-2.91a23.94,23.94,0,0,1,2.37,1c2.83,1.61,4.49,4.3,6.2,6.91a17.18,17.18,0,0,1,1.29,3.22l-1,.64a37.48,37.48,0,0,0-2.88-3.62c-1.88-1.88-3.91-3.61-5.87-5.39Z"/><path d="M311.08,484.47c-3.38-3.6-6.76-7.2-10.54-11.21C304.33,473.33,311.78,480.85,311.08,484.47Z"/><path d="M131.46,527.4l8.62,15.47-.9.55c-4.94-3.83-5.59-10.36-9-15.16Z"/><path d="M385.57,481.63c6.75,3.91,13.91,12.52,12.75,15.47Z"/><path d="M211.54,552l13.14.87c-2.9,2.88-10,2.58-13.29.51Z"/><path d="M170.65,449c1.66,1.15,3.4,2.22,5,3.48,4.56,3.67,9.06,7.41,13.32,11.46a63.5,63.5,0,0,1-18.22-15Z"/><path d="M147.7,234.33c2.79-4.36,7-4.57,10.67-6.27C158.16,231.75,155.31,233.37,147.7,234.33Z"/><path d="M311.63,469.6c-5.36-3-8-8.77-12.7-12.46l1-1.05,12.47,12.49Z"/><path d="M232.12,441.77c-7.36.48-9.74-4.39-12.41-8.86Z"/><path d="M376.07,539.08c-5.84-.11-8.64-4.87-12.64-7.8l.76-1.16,12.18,8.67Z"/><path d="M195.63,547.32c-3.3-1.94-6.67-3.77-9.86-5.89-.66-.45-.63-1.94-1.22-4l11.8,8.9Z"/><path d="M167.92,475.75l12.29,9.1c-2.41,1.2-11-5.9-12.19-9.19Z"/><path d="M121.09,495.4l3.35-2.83c1.19,3.13,2.86,5.71.31,9.41Z"/><path d="M203.07,441.77l8.78,6.94c-2.74,1.65-7.48-1.58-9.52-6.08C202.58,442.34,202.82,442.05,203.07,441.77Z"/><path d="M239.23,428.58,226,417.63l1.08-1.26L240,427.69Z"/><path d="M313.16,378.23c-4.82.46-5.79-4.68-9.11-6.4l.83-1.24,9.18,6.31Z"/><path d="M160.63,222.6a35.44,35.44,0,0,1-3.73,3.53,9.32,9.32,0,0,1-3.42,1.26,13.75,13.75,0,0,1-2.8.07c.62-.91,1-2.22,1.9-2.66,2.26-1.15,4.72-1.93,7.1-2.86Z"/><path d="M376.61,498.14c-1.17-.34-2.84-.31-3.43-1.09a46.85,46.85,0,0,1-4.93-8.55l8.82,8C376.91,497.07,376.76,497.6,376.61,498.14Z"/><path d="M146.48,240.72c1.35-4.06,6.5-6,9.87-3.9Z"/><path d="M180.64,423.75l12.18,9.84-.87,1.09-12.3-9.88Z"/><path d="M353.25,359.94l-8.63-7.33C347.81,350.8,351.6,354,353.25,359.94Z"/><path d="M222.34,391c4.79,2.43,8.13,6.64,12.26,9.88l-.82,1-12-10.16Z"/><path d="M352,551.89c-1.38-3.21-2.48-5.8-3.85-9C353.05,544.15,354,546.59,352,551.89Z"/><path d="M396.52,399l10.57,8.9-.94,1.12-10.7-8.75Z"/><path d="M216.21,598.89l13.55,5.33-.5,1.29-13.59-5.31Z"/><path d="M226,568.9l-13.23-1.36.18-1.65,13.19,1.62C226.08,568,226,568.44,226,568.9Z"/><path d="M154.72,581q4.74,4.93,9.46,9.88l-.9.83C160.24,588.3,155.58,586.37,154.72,581Z"/><path d="M140.6,273.79c-1,3.38-1,3.38-6.94,4Q135.13,272.89,140.6,273.79Z"/><path d="M215.81,406.32c4.17,1.4,5.9,6.14,9.83,7.88l-1,1.28-9.54-8.16Z"/><path d="M181.34,99c-2.4,3.42-6.66,1.7-9.74,3.26l-.39-1,9.42-3.58Z"/><path d="M169,108.3c.92-3.62,3.78-4,6.21-4.69.35-.1,1.22,1.64,1.74,2.37Z"/><path d="M143,261c.51,4.39-3,4.07-5.52,5C137.29,262.67,138.84,261.28,143,261Z"/><path d="M295.36,592.81,281.66,587l.54-1.23,13.87,6C295.83,592.1,295.59,592.45,295.36,592.81Z"/><path d="M165.75,584.19c-2.89.43-8.38-3.23-8.45-4.72,0-.42.29-1.15.56-1.21a2.12,2.12,0,0,1,1.64.3C161.4,580.17,163.21,581.88,165.75,584.19Z"/><path d="M128.18,488.27c1,2.81,2.84,5,.91,7.76C125.19,493.5,124.94,492,128.18,488.27Z"/><path d="M157.88,444.72l9.45,7.6-.92,1.14-9.57-7.5Z"/><path d="M191.85,97.84c-2.19.54-4.36,1.16-6.57,1.54-.5.09-1.15-.66-1.73-1,.51-.6,1-1.65,1.55-1.7,2.16-.21,4.35-.09,6.53-.09Z"/><path d="M287.21,561.94l-10.44-3.2.61-1.78,10.21,3.76Z"/><path d="M153.07,515.22q-1.42-6.72-2.86-13.45l1.38-.27q1.33,6.75,2.66,13.51Z"/><path d="M107.75,569.68c.47,2.21,1,4.41,1.34,6.64.06.43-.78,1.1-1.33,1.45-.19.12-1.11-.36-1.14-.64-.28-2.37-.44-4.75-.63-7.12Z"/><path d="M272.8,576.06l-12.32-5.16.56-1.33,12.28,5.31Z"/><path d="M194.58,428.07,183.28,420l1-1.25,10.6,9.06Z"/><path d="M176.46,428.72l11.92,9.33-.76.95q-6-4.58-12-9.13Z"/><path d="M280.56,442.49l6.9,7.34-8.08-6.23Z"/><path d="M156.44,451.21,168.57,461l-.66.83-12.21-9.66Z"/><path d="M169.11,484.62,158,475.88l.79-1,11.07,8.76Z"/><path d="M218.71,604.59c-3.84,1.29-8.51-.76-10.65-4.23Z"/><path d="M220.44,418.91c4-.34,5,4,7.81,5.42l-.67,1-7.83-5.38Z"/><path d="M145.9,254.57a51.66,51.66,0,0,1-4,3.84c-.47.37-1.46.09-2.21.1.13-.87-.05-2.22.44-2.53a37.56,37.56,0,0,1,5.09-2.39Z"/><path d="M285.64,412.16l-10.43-9.81.69-.74,10.65,9.55C286.25,411.5,285.94,411.83,285.64,412.16Z"/><path d="M306.21,576.74l-11.31-3.36.25-1,11.41,2.84Z"/><path d="M154.76,519.94l-10.55,3.62-.38-1.15,10.46-3.86Z"/><path d="M199.6,543.1l6.86,5.87-1,1.16-7.1-5.61Z"/><path d="M357.86,568.67l-6.14-4.91C356.07,563.18,358,564.81,357.86,568.67Z"/><path d="M170.73,448.9,160,440.83c4.8,1.15,7.91,4.4,10.62,8.15Z"/><path d="M334.25,570.43l-3.21-.37,3.31-5.56,1.78,2.34-2,3.72Z"/><path d="M180.7,469.91l8.49,7.62-1,1-8.35-7.76Z"/><path d="M159,549.84c.89.69,1.63,1,1.95,1.56.74,1.29,1.28,2.71,1.89,4.07-.42.17-1.14.58-1.22.48a37.59,37.59,0,0,1-2.89-4C158.53,551.57,158.87,550.85,159,549.84Z"/><path d="M154.13,492.7c1.31,2.15,2.37,3.87,3.5,5.73C153.38,499.54,152.78,498.54,154.13,492.7Z"/><path d="M172.73,457.13l8.48,6.9-.72,1-8.59-6.81Z"/><path d="M166.52,547.64l-3.61-3.31c.47-.43,1.23-1.32,1.37-1.23,1.31.82,2.51,1.82,3.75,2.76Z"/><path d="M154.75,565.61l5.53,7.17c-4.23-.32-4.53-4.08-6.48-6.39Z"/><path d="M275.24,550c-4.71-2-3.36-4.24-2.12-6.42l1.21-.19C274.59,545.31,274.86,547.23,275.24,550Z"/><path d="M132.39,284.55c.21-5.12,4.5-2.91,5.94-4.88C138.16,283.21,134.84,282.59,132.39,284.55Z"/><path d="M168,475.66c-4.72-1-7.06-5-10.25-7.82.22-.26.43-.52.65-.77q4.74,4.35,9.49,8.69Z"/><path d="M224.21,564.11h-7.43C219.62,560.57,221.94,562.16,224.21,564.11Z"/><path d="M121.53,506.38q-1.19-4.41-2.36-8.81l1.52-.42,2.33,9Z"/><path d="M338.88,504.78l7.44,6.75-.18.17q-3.45-3.65-6.91-7.3Z"/><path d="M309.3,535.85l7.19,4.85L314,542.79Z"/><path d="M251.8,394.57l7.32,6.48-.9,1L251,395.37Z"/><path d="M186.38,570,181.81,565C186.82,565.08,188.16,566.41,186.38,570Z"/><path d="M112.26,688.91l-5.2-3.33c3.56-1.75,4.91,0,6,2.29Z"/><path d="M163.57,528.19q1.1,2.71,2.18,5.44l-1.39.73-2.68-5.24Z"/><path d="M330.64,528.67l5.87,4.62-.89,1.12-5.86-4.64Z"/><path d="M168.09,437.57l7.59,5.58-.82,1.06-7.45-5.66Z"/><path d="M310.12,429.08l-4.65-3.89.77-1c2.23.38,4.09,1.3,4.87,3.75Z"/><path d="M269.3,491.43l6.64,6.07-1,1.07-6.56-6.32Z"/><path d="M87.72,532.05l-3.54,6.22-1.39-.75q1.69-3.18,3.38-6.36Z"/><path d="M157.55,241.38l5-3,1,1.62-4.89,3.17Z"/><path d="M165.15,234.2c-1.32.82-2.63,1.66-4,2.36a14.94,14.94,0,0,1-1.15-1.7l4.24-2.25Z"/><path class="cls-1" d="M395.86,606.29c-2.65-2.08-4.79-3.69-6.82-5.43a10.35,10.35,0,0,1-1.51-2.17c1-.53,2.06-1.67,2.84-1.49,2.26.55,2.7-.36,3.22-2.3.9-3.42,2.28-6.7,3.36-9.78-2.82-1.91-5.62-3.72-8.34-5.64s-5.09-3.76-7.63-5.65l1.18-1.5,15.16,11.49c2.62-3,2.31-4.77-.4-6.5a74.32,74.32,0,0,1-11.34-8.74c1.19.23,2.63.11,3.52.75,3.48,2.51,6.79,5.25,10.12,7.88,3.27-2.34,3.07-4-.06-6-3.42-2.23-6.57-4.87-9.83-7.33l1-1.42c2.25,1.52,4.77,2.76,6.69,4.61,2.28,2.18,4,5,8.64,3.21-1.57,4.38-2.86,8-4.14,11.54l5.93,2,.45-.54-3.16-3.67c3.46-2.33,6.18-1.62,8.2,2l1.05-.23c-.28-.84-.33-1.93-.9-2.47-1.23-1.19-2.89-1.95-4.06-3.19-.53-.57-.3-1.85-.42-2.8,1.07-.07,2.36-.55,3.16-.11a19.88,19.88,0,0,1,3.52,3.07l1.08-.94-5-6.09c2.1-2.52,4.22-1.49,6.38.49l.92-.76c-1-1.49-1.93-3-3.09-4.79l3-2.3-.79-.19a70.53,70.53,0,0,1,1.45-8.36c1.63-5.59,3.56-11.1,5.42-16.62a4.31,4.31,0,0,0-1.31-5.24,91.65,91.65,0,0,1-6.33-6.86l1.07-1,8,7.14c.25-1,.53-2.07.8-3.17l1.32.75c-1.32,6-1.06,11.42,4.41,15.5-2.56,3.14-2.46,8.07-6.59,9.2.18,1.71.69,3.44.47,5.07-.83,6-2.83,11.77-1.81,18.14.37,2.3-2.31,5.13-3.77,7.62-.18.3-1.57.17-2.2-.15a16.66,16.66,0,0,1-2.71-2.14C415.25,595.32,407.24,602.56,395.86,606.29Z"/><path class="cls-1" d="M212.52,658.72c-4-.17-6.42-4.67-10.61-3.41l-.38,1.13,7.15,2.29-.14.62-14-2.73,2.34,2.73-2.32.5.09.68,7.9-.69.13,1-2.85.68,4.79,3.28-.71,1.25c-4.21-2.12-8.37-4.35-12.65-6.33a36,36,0,0,0-7.91-2.81c-1.8-.36-4,.92-5.7.43-3.94-1.11-7.71-2.85-11.55-4.34l.55-1.38,3.64,1.32.58-.95-7.38-3.81.25-.87,19.33,6.91.41-1.08-9.78-5.23.4-1,11.64,4,.57-1.07-7.45-4.37.55-1.11L198,652.46c.16-.35.32-.7.47-1.05l-15.76-8,15,1.79-4.22,1.69c3.64,1.86,7.23,3.43,10.54,5.47C207,654.22,211.08,654.92,212.52,658.72Z"/><path class="cls-1" d="M221.78,616.72c5.92,1.52,12,2.39,15.93,8,1.11,1.62,3.65,2.4,5.68,3.24,4,1.65,8.08,3.07,12.13,4.59l.48-1.09-23.3-14.27.9-1.49,27.27,15.81-12.67,3.68c0,.06.21.82.55,2.15C235,632.86,224.81,623,212.08,617.81l.44-1a48,48,0,0,1,6.45,2.47c4.56,2.52,8.91,5.43,13.46,8s8.62,6.57,14.93,5.32Z"/><path class="cls-1" d="M390.1,543.81l-13.49-12.32c1.89-2.11.93-3.94.16-6.41-.73-2.31,1.15-5.4,1.75-8.18.36-1.65.46-3.35.68-5l-.1.11,5.08-.92a59.68,59.68,0,0,1-3.46,6.7c-1.77,2.55-1.68,5.25.57,7.42,4.61,4.44,9.36,8.76,13.69,13.47,1.82,2,2.73,4.78,3.71,7.61l-17.05-16.49-.94.86c2.08,2.17,4.14,4.36,6.22,6.53,1,1.07,2.37,2,3.05,3.21.49.92.12,2.3.13,3.47Z"/><path class="cls-1" d="M137.91,659.22l-2.91,2,16.3,15.51c-4.66-.39-19.12-14.46-21.2-20.09l2.71,2.19.51-.47Q117.15,635.64,101,612.87l.83-.6c1.31,1.91,2.48,3.93,4,5.7,1.77,2.15,3.84,4,5.67,6.14.94,1.09,1.58,2.45,2.48,3.59,1.88,2.38,3.88,4.68,5.77,7.07.84,1.07,1.48,2.29,2.27,3.4a19,19,0,0,0,1.54,1.8c.52.57,1.33,1,1.59,1.65a38.1,38.1,0,0,0,12,16.37A7,7,0,0,1,137.91,659.22Z"/><path class="cls-1" d="M197.41,679.94l17.09,7.5c.19-.3.38-.6.58-.89l-15.15-10.66c8.28,3.37,15,9.78,23.62,12.27l.48-.81L219.52,684l.56-1,11.16,5.67-.45,1.16-5-1.26-.38.69,3.85,2.56,0,.85h-4.05l-.29.83c2,.71,4.08,1.35,6,2.17a10.16,10.16,0,0,1,2.11,1.59c-.73.5-1.81,1.61-2.13,1.42a75.27,75.27,0,0,1-7.09-4.79c-1-.72-1.5-2.24-2.52-2.62-4.9-1.86-10-3.3-14.84-5.2-3.35-1.31-6.49-3.14-9.72-4.74Z"/><path class="cls-1" d="M139.17,606.87c7.45,4.93,14.87,9.9,22.35,14.79,4.83,3.15,9.49,6.72,14.68,9.12,3.77,1.74,8.28,1.89,12.47,2.73,1.16.23,2.33.4,3.5.6l0,1.16a28.75,28.75,0,0,1-5.38.33,32.35,32.35,0,0,1-7.43-1.64,59.35,59.35,0,0,1-10.31-4.63c-9.35-5.66-18.57-11.56-27.75-17.52-1.31-.86-2.07-2.55-3.09-3.85Z"/><path class="cls-1" d="M120.3,594.16l9.38-4,.67,1.14-2,3.94c3.54-.81,6.63-2.24,9.58-2s5.84,1.9,8.32,3.58,4.63,4.26,6.91,6.44l-.8.78-6.25-3.76-.87.78a5.13,5.13,0,0,0,.34-1.94,9.76,9.76,0,0,0-1.19-2.22c-3.88,3.57-8.94.64-13.35,2.26l5.86,4-.28,1.42a17,17,0,0,1-3.85-.72,5.39,5.39,0,0,1-2-2.17c-1.8-2.91-4.36-4.11-7.92-4l4.75-3.09H120.6Z"/><path class="cls-1" d="M102.85,600.12l-10.08-.87,6.34,7.85-.84,1c-3.76-2-8-3.54-11.07-6.31-1.64-1.47-1.56-5.14-1.64-7.83,0-.63,2.39-1.75,3.76-1.87,1-.09,2.09,1.09,3.13,1.73C95.76,595.82,99.07,597.82,102.85,600.12Z"/><path class="cls-1" d="M182.11,631.56c-2.86-1.72-5.78-3.34-8.55-5.18-5.1-3.39-10-7.1-15.2-10.32-6.49-4-13.31-7.51-18.33-13.5a4.41,4.41,0,0,1-1.22-2.66L183,630.16Z"/><path class="cls-1" d="M390.1,543.84c3.73-.33,4.76,2.6,6.53,5.56l-4.16-1.18c.7,2.7.91,5.1,1.95,7a27.36,27.36,0,0,0,4.71,5.79c1.69,1.75,3.65,3.24,5.31,5.18-5-.24-7.32-6.66-13.44-6,.29-1.77.16-3.89,1-5.49,1.18-2.22-.29-2.83-1.45-3.89-2.89-2.67-5.77-5.35-8.59-8.1a16.3,16.3,0,0,1-1.79-2.77c6.61-.51,7,7.46,13.37,8.11l-3.44-4.33Z"/><path class="cls-1" d="M349.47,659.14c-5.11-.1-41-20.36-44-26Z"/><path class="cls-1" d="M154.22,654.25c4.65,1.53,9.25,3.3,14,4.54a56.12,56.12,0,0,0,12.47,2.12c5.83.16,10.57,2.89,15.57,5.19a19.11,19.11,0,0,1,5,2.92,11.05,11.05,0,0,1-2.24-.17q-15.9-4.53-31.78-9.12c-4.52-1.3-9-2.57-13.57-3.85C153.84,655.34,154,654.79,154.22,654.25Z"/><path class="cls-1" d="M169.07,630.78c-1.6.62-2.3,1.18-2.82,1.05-12.76-3.29-22.11-11.82-31.42-20.42C145.94,617.67,155.79,626.05,169.07,630.78Z"/><path class="cls-1" d="M373.3,652.28l26.49-15c5.68,2.22,9.19-3.56,14-4.7l.56,1c-3.2,1.89-6.29,4-9.64,5.63-7.76,3.69-15.65,7.11-23.5,10.61-2.52,1.12-5.09,2.13-7.64,3.19Z"/><path class="cls-1" d="M99.56,619.59l.5,2.37c-3.5-1.8-4.46-5-3.27-10.65L113,633.66a9.32,9.32,0,0,1-9.5-9.25c0-1.63-2.09-3.34-3.23-5Z"/><path class="cls-1" d="M333.61,657.84c-12.72-6.09-25.24-12.54-36.76-20.84l.58-1.07,36.88,20.6Z"/><path class="cls-1" d="M387.86,607.71c-2-2.08-3.56-3.65-5.37-5.49,3.78-1.31,10.19,3.63,9.33,6.42-.58,1.91-2,3.17-4.59,2.36a73.19,73.19,0,0,0-8.89-1.68L371.79,604C377.74,602.39,381.52,609.54,387.86,607.71Z"/><path class="cls-1" d="M247.52,671.22c-3.66-2.29-7.41-2.28-11.34-.65a6.78,6.78,0,0,1-3.67.39c-7.38-1.43-14.74-3-22.11-4.54a14.45,14.45,0,0,1-2-.7l.12-1c3.34.43,6.69.85,10,1.29,4.75.62,9.48,1.38,14.24,1.84,4.48.44,9,.5,13.47.95.48.05.81,1.57,1.21,2.41Z"/><path class="cls-1" d="M76,582.91a36.86,36.86,0,0,1-4.06-3.72c-2.74-3.31-6.28-6.23-6.46-11a8.51,8.51,0,0,1,1.07-4,2.41,2.41,0,0,1,2.28-.3c1.14,1.23,3,3.13,2.72,4.08C69.9,572.53,73,575.1,75,578.19c.76,1.18,1.5,2.36,2.25,3.54Z"/><path class="cls-1" d="M353.58,657.48,316,633.76c.18-.39.37-.77.55-1.15,2.44,2.09,6,1,8.31,3.88a26.5,26.5,0,0,0,5.87,5c5.12,3.53,10.29,7,15.55,10.28,1.85,1.15,4.08,1.65,6.06,2.61a10.94,10.94,0,0,1,2.15,1.85Z"/><path class="cls-1" d="M240.39,682.38l27,13.83c-4,.62-7.73,1.26-11.39-1.72-4.15-3.37-9-5.88-13.49-8.8-1-.63-1.86-1.4-2.79-2.1Z"/><path class="cls-1" d="M188.63,628.49c-3.9.26-30.68-18.1-34.48-24Z"/><path class="cls-1" d="M243.58,693.71l2.49,2.68c-3,2.1-11.28-1-14.12-5.9a34.13,34.13,0,0,1,5.51.85c1.57.5,3,1.54,5.19,2.76a17.94,17.94,0,0,1-.53-2.35,16.78,16.78,0,0,1,.27-2.09l12.54,6.39c-6,4.13-7.47-1.8-10.57-3.21Z"/><path class="cls-1" d="M290.38,639.61c11.9,3,21.27,11.26,32.46,15.75C311.06,652.08,300.05,647.23,290.38,639.61Z"/><path class="cls-1" d="M240.62,637.93c-1.31-.2-2.84,0-3.9-.64-6.13-3.6-12.1-7.47-18.22-11.08-3.33-2-6.84-3.6-10-5.88,12.25,2.7,21.2,11.77,32.62,16.08Z"/><path class="cls-1" d="M397,551.69l3.61,1.93c1.24-3.77,2.39-7.25,3.54-10.72.46,6.94,7.12,9.35,10,14.54l-9.67-7.54-2.57,4.64-1,1,8.8,6.34-1.19,1.24L396,552.84Z"/><path class="cls-1" d="M207.43,702.42c-3.06,2.69-5,3.09-7.81,1.79-3.27-1.51-7.12-1.71-10.53-3-2.46-.91-4.63-2.62-6.92-4l.37-1.15Z"/><path class="cls-1" d="M367.6,651.37l1.74-3.32L350.72,636.3l.69-1.17c4.15,2.37,8.93,4.07,12.33,7.25,6.64,6.21,12.91,4.3,19.58.77a19.7,19.7,0,0,1,2.18-.85c.17.4.35.79.52,1.19-4.92,2.16-9.83,4.34-14.76,6.48-1.2.52-2.44.93-3.66,1.39Z"/><path class="cls-1" d="M281.55,640,311,653.68l-.48,1.05c-9.52-5.32-21.54-5.12-29.69-13.44Z"/><path class="cls-1" d="M129.2,613l21.5,13.77-.39,1.14c-1.37,0-3.13.55-4.05-.09-6.12-4.33-12.07-8.91-18.07-13.41Z"/><path class="cls-1" d="M228.94,641.26c5.38,1.58,10.52,2.73,15.37,4.61s10.74-.93,14.5,4.26C241.5,648.59,238.46,647.69,228.94,641.26Z"/><path class="cls-1" d="M309.8,696.55l10.65-.8c-3.63,3.31-7.1,6-12.12,5.36-3.76-.47-7.63-.09-11.45-.09,0-.53,0-1.06,0-1.59a32.41,32.41,0,0,0,4.3-.06,3.9,3.9,0,0,0,1.94-1.18,7.07,7.07,0,0,0,1-1.73l1.43,2.63C309,699.73,309.78,699.34,309.8,696.55Z"/><path class="cls-1" d="M192,669.56q-12.16-2-24.32-4A3.51,3.51,0,0,1,166,665a17.71,17.71,0,0,1-1.84-2.27,8.21,8.21,0,0,1,2.61-.31c3.39.67,6.74,1.5,10.11,2.28L191.1,668a8.85,8.85,0,0,1,1.21.46Z"/><path class="cls-1" d="M422.44,491.43c4.45,1.71,1.19,7,2.74,10.46l-3.69-8.66-1.39.35c.32,1.31.64,2.62.95,3.93.38,1.63.74,3.27,1.12,4.9l-1.28.39c-1.34-4.29-2.83-8.54-3.88-12.9-.15-.63,1.81-1.77,2.8-2.68Z"/><path class="cls-1" d="M336,660.75c5.07.21,9.61-.34,13.68.8,3.21.89,5.84.3,8.75-.17a3.19,3.19,0,0,1,2.77.79c-4.82,1.16-9.63,2.33-14.46,3.46a3,3,0,0,1-1.84,0C342.21,664.22,339.61,662.74,336,660.75Z"/><path class="cls-1" d="M291.09,650c-8.64.41-15.37-3.45-21.54-8.57l.48-1.06Z"/><path class="cls-1" d="M177.16,616.27,196.79,627c-2,.59-3.46,1.49-4.09,1.11-5.55-3.44-11-7.1-16.43-10.7Z"/><path class="cls-1" d="M120.6,594.6l-5.83,3.33,5.09,2.89-.45.72a39.15,39.15,0,0,0-5.39-.31c-3.65.26-6.2-.42-5.31-5.46l5,2c-.22-.74-.41-1.39-.62-2.08l7.26-1.55Z"/><path class="cls-1" d="M274.86,653.52l-7.08.36-.12.57,2.84,1-.18.77-10.07-2.78c.13-1,.13-1.05,3.6-1.82,1.68-.37,3.44-1.07,5.07-.87,2,.23,3.87,1.25,5.8,1.93Z"/><path class="cls-1" d="M136.15,624.73c-3.14.6-14.11-7.08-16.31-12l17,10.87Z"/><path class="cls-1" d="M383,656.34c-1.26,3.76-9.87,6.71-16.59,6C371.74,658.31,377.51,658.5,383,656.34Z"/><path class="cls-1" d="M227.73,663.85c-5.3-1.34-10.74,1.59-15.6-2.08C220.19,659.19,224.44,659.68,227.73,663.85Z"/><path class="cls-1" d="M130.25,642.94l13.08,5.71c-2,3.4-2.68,3.58-6.34.94C134.4,647.73,130.94,646.67,130.25,642.94Z"/><path class="cls-1" d="M393.22,590.28l-16.61-12,.75-1c7.08,1.82,10.83,8.33,16.68,11.89C393.77,589.53,393.5,589.91,393.22,590.28Z"/><path class="cls-1" d="M249.43,620.71c1.1.48,2.22.94,3.3,1.46,4.08,2,8.13,4,12.22,6,1,.5,2.16.83,4,1.53-3.21,1.17-5.24,1.65-7.73-.29-3.28-2.57-7.1-4.44-10.61-6.73-.57-.38-.75-1.36-1.11-2.06Z"/><path class="cls-1" d="M262.58,707l19.24-4.62C278.4,707.05,267.55,709.5,262.58,707Z"/><path class="cls-1" d="M263.72,645.57c4.94-.74,17.62,5.28,17.79,8.27Z"/><path class="cls-1" d="M95.25,666.33c-2.55-1.41-6-2.24-7.41-4.4-1.69-2.56-1.66-6.26-2.38-9.54l10.12,13.2Z"/><path class="cls-1" d="M182.43,688.74a45.06,45.06,0,0,0,4.19,1.79c1.69.54,3.49.76,5.18,1.29a7.2,7.2,0,0,1,3.17,1.55,15.27,15.27,0,0,1,2.95,5.53L182,689.65Z"/><path class="cls-1" d="M167.12,684.46c.37-.94.75-1.89,1.21-3,3.86,7,12.3,8.27,17.6,13.49l-.72,1.07Z"/><path class="cls-1" d="M146.4,666.75c.83-3.36-2.39-3.36-4-3.87-2.44-.75-2.82-1.59-1.76-3.15l14.54,7-.33.78Z"/><path class="cls-1" d="M201.4,620.58l13.66,6.61C212.2,630.61,207.72,628.44,201.4,620.58Z"/><path class="cls-1" d="M372.72,548.24c4.34.55,10.18,7.63,10.69,13.51Z"/><path class="cls-1" d="M389.15,594.25l-16-11.21c1.39-.42,2.46-1.07,2.82-.8,4.71,3.61,9.31,7.35,13.95,11Z"/><path class="cls-1" d="M238.36,700.81c5.22.41,10.29-.75,14.68,3.72-1.24.29-2.61,1-3.72.76-3.4-.86-6.71-2.1-10-3.24C239,702,238.86,701.51,238.36,700.81Z"/><path class="cls-1" d="M153.18,671.69l16.39,4.49c-6.45,2-11.54-1.13-16.83-3.46Z"/><path class="cls-1" d="M364.1,560.47l10.53,10.22-1.55,1.55c-3.37-.55-10.09-7-10.6-10.18Z"/><path class="cls-1" d="M162,664.42c-2.82-.76-5.71-1.35-8.43-2.37-1.36-.51-2.41-1.83-3.61-2.78,1.63,0,3.39-.39,4.84.12a68.32,68.32,0,0,1,7.49,3.57Z"/><path class="cls-1" d="M436,458.62c2.55-2.05,5-4.26,7.72-6.06.76-.51,2.32.21,3.51.37-.57.86-.95,2.1-1.76,2.51-2.89,1.48-5.93,2.67-8.92,4Z"/><path class="cls-1" d="M181.25,683.55,167,679.38C173.27,677.39,178.55,678.88,181.25,683.55Z"/><path class="cls-1" d="M402.77,502.74l12.89,11.84c-.28.3-.55.61-.82.92l-13.52-11.19Z"/><path class="cls-1" d="M272,694.6l-14.76-7.82.5-1C262.48,688.75,269,688.2,272,694.6Z"/><path class="cls-1" d="M85.28,586.69l-8.08.62,3.36,3.9-.81.69-3.6-4.21c2-1.77,3.31-3.64,5.14-4.51C84.57,581.6,84.59,584.5,85.28,586.69Z"/><path class="cls-1" d="M348.62,648l-15.36-10.5.61-.91,15.72,9.87C349.27,647,348.94,647.53,348.62,648Z"/><path class="cls-1" d="M247.5,671.21l3-3,2.87,3.68,2.41-3.29,4.06,1.19.07.75-4.54.65,1.76,2.7-9.63-2.71Z"/><path class="cls-1" d="M188.73,618.44c3.72,1.36,7.47,2.66,11.13,4.17.45.18.44,1.46.65,2.23-.83.13-1.88.67-2.45.34-3.27-1.85-6.43-3.91-9.63-5.9Z"/><path class="cls-1" d="M113.74,614.57c2.61,2,5.18,4.08,7.86,6,.74.53,1.9.46,2.72.92a8.39,8.39,0,0,1,1.66,1.7c-.76.23-1.82.89-2.24.61-3.74-2.56-7.37-5.29-11-8Z"/><path class="cls-1" d="M415.42,443.94c2.77-2.22,5.47-4.53,8.36-6.57.75-.53,2.1-.21,3.17-.29-.49.88-.77,2.12-1.52,2.56-3.12,1.82-6.38,3.4-9.58,5.07Z"/><path class="cls-1" d="M197.71,686.57l-14.62-2.92A12.54,12.54,0,0,1,197.71,686.57Z"/><path class="cls-1" d="M405.53,634.72a56,56,0,0,1-15.7-9.58l16.27,8.44Z"/><path class="cls-1" d="M345.22,639.33l14.06,6.57c-.6.69-1.2,1.55-1.32,1.49-4.5-2.32-8.95-4.72-13.4-7.12Z"/><path class="cls-1" d="M202.5,609.8l14,1.32c0,.56-.11,1.13-.16,1.7l-14-1.27Z"/><path class="cls-1" d="M416.19,618.58l-12.1-5.94.48-1c4.81.36,8.63,2.8,12.14,5.89Z"/><path class="cls-1" d="M100,602l8.27,6.89c-.34.4-.67.81-1,1.21-4.76.17-5.38-4.85-8.41-6.83Z"/><path class="cls-1" d="M224.18,647.28l2.52-.87L237.81,651C233.67,651.75,226.49,649.74,224.18,647.28Z"/><path class="cls-1" d="M286.56,702.52H301c-4.86,3.62-9.64,1.26-14.45,1.07Z"/><path class="cls-1" d="M177,694.23l-15.26-9.89.62-1L177.75,693Z"/><path class="cls-1" d="M419,535.27,408.9,524.78l.82-.81c5.07,1.79,6.34,7.35,10.23,10.31Z"/><path class="cls-1" d="M331,628.85l-13.58-7.21C323.82,622.16,330.49,625.84,331,628.85Z"/><path class="cls-1" d="M364.15,629.94a11.7,11.7,0,0,1-2.89-.63c-3-1.55-6-3.16-8.92-4.95-.72-.45-1-1.63-.95-2.94l13,7.62C364.32,629.34,364.24,629.64,364.15,629.94Z"/><path class="cls-1" d="M384.76,628.1l12.38,7.45c-.25.43-.51.85-.77,1.28l-12.44-7.53Z"/><path class="cls-1" d="M378.3,631.1c2.18,1.52,4.38,3,6.55,4.56s4.15,3,6.22,4.55l-.61.88-13.09-8.75Z"/><path class="cls-1" d="M385.8,654.75l10.07-5.14c-1.55,5-5.78,5.18-9.56,6.13Z"/><path class="cls-1" d="M365.64,584.94c4.41-1.12,6.52,1.28,10.68,6.58Z"/><path class="cls-1" d="M363.82,606.55c-2.8,2.81-5.39,2.1-9.65-2.64Z"/><path class="cls-1" d="M191.09,602.65l9,.77c-2.91,1.85-4.73,5.27-9.26,3.16l5-1.85-5-1.43Z"/><path class="cls-1" d="M130.89,609.86l-8.86-7.5C126.06,602.61,130.67,605.79,130.89,609.86Z"/><path class="cls-1" d="M260.7,601.11c5.33-.19,8.53,1.53,10.82,5.88Z"/><path class="cls-1" d="M431.9,537.64q-1.51-7-3-14l1.38-.31,2.85,14Z"/><path class="cls-1" d="M65.9,574.31,72.34,585C68.89,584.81,65.66,579.71,65.9,574.31Z"/><path class="cls-1" d="M432,576.48c1.53,4.29-2.19,7.53-3.49,11.25q1.11-5.76,2.23-11.5Z"/><path class="cls-1" d="M249.5,620.63l-12-6.44.8-1.33c3.74,2.58,8.64,3.27,11.16,7.85Z"/><path class="cls-1" d="M380.8,641.78l-10.16-7.19c.31-.42.62-.83.92-1.25l10.08,7.4Z"/><path class="cls-1" d="M332.16,594.76,343.9,600l-1.71,1.83-10.39-6.49Z"/><path class="cls-1" d="M282,614.31l-9.39-5.57.74-1.29,9.63,5.43Z"/><path class="cls-1" d="M322.54,660.26l-7.07-1.69-1.33-3.8,8.92,4.69Z"/><path class="cls-1" d="M429,560.55q1.56-4.83,3.13-9.68l1.3.39L430.49,561Z"/><path class="cls-1" d="M158.89,683.06l-7.87-5c2.39-1.75,4-3.29,4.91,1,.27,1.3,2.21,2.24,3.39,3.35Z"/><path class="cls-1" d="M367.6,651.36c-3.76.92-6.47-.17-8.05-4.21l8.05,4.22Z"/><path class="cls-1" d="M113.92,621.86l8.31,4.51C118.33,627.2,115.33,626.42,113.92,621.86Z"/><path class="cls-1" d="M214.51,694.68c3.72-2.89,5.12-.35,6.93,1.2l-.49,1.27Z"/><path class="cls-1" d="M305.88,656.2a47.17,47.17,0,0,1,5.95.1c.55.07.95,1.34,1.42,2.05a5.23,5.23,0,0,1-2.05.39c-1.86-.44-3.66-1.09-5.48-1.65Z"/><path class="cls-1" d="M173.2,673.17c2.12.65,4.26,1.25,6.35,2a1.56,1.56,0,0,1,.64,1.4c-.15.39-1.05.91-1.35.78-2.09-.94-4.11-2-6.15-3.06Z"/><path class="cls-1" d="M400.34,531.28l8.81,8.74.33-.39-10.51-7Z"/><path class="cls-1" d="M375.69,602.26l-6.64-4.34C373.83,597.6,376.16,599.33,375.69,602.26Z"/><path class="cls-1" d="M350.48,647.48c2.44,1.78,6,1.64,7.82,4.49l-.79,1.28-7.69-4.68Z"/><path class="cls-1" d="M116.57,583.29l9.61,3.29L125.7,588l-9.48-3.51Z"/><path class="cls-1" d="M277.47,688.7c1.55.53,3.14,1,4.65,1.61s2.75,1.33,4.12,2l-.66,1.35L277,689.56Z"/><path class="cls-1" d="M132.06,628.55l-6.75-1.7.47-1.86,6.72,1.72Z"/><path class="cls-1" d="M116.28,603.29l8.8,6.74-.86,1.09-8.72-7Z"/><path class="cls-1" d="M373.9,594.7l8.75,4.8c-1.7,1.23-2.74.84-9.1-3.77Z"/><path class="cls-1" d="M270.55,671.63l4.93,3.79h-5.66l-.38-3.51Z"/><path class="cls-1" d="M148,679c-4.32-.45-5.64-4.34-8.39-6.6.22-.26.45-.51.68-.77q3.83,3.67,7.67,7.35Z"/><path class="cls-1" d="M92.83,584.73c.12.67.24,1.34.55,3l2.13-4.46.66.12-1,5.76c-3.43.54-3.1-1.9-3.37-3.86Z"/><path class="cls-1" d="M425.77,523.93c-2.19-1.59-6-1.94-5.23-6.23Z"/><path class="cls-1" d="M103.35,458.18l.21-3.2c-1.84,2.92-5.65,4.92-4.26,9.26-4.57,3.89-5.77,9.75-8.09,15-.87,2-.46,4.51-1.31,6.5-.66,1.55-2.36,2.65-3.55,3.9-.49-4.61,7.77-24.31,15-35.68-1.51-1.25-2-7.31-.49-7.87.85-.31,2.35,1.22,3.87,2.09a24.59,24.59,0,0,0,.64-3c1.62-14,3-28,4.9-42,.69-5.05,3.07-9.85,4.07-14.89,2-10,3.6-20,5.29-30.1.5-3,.75-6,1.12-9l1,0v17.15l-2.68,1.53,4.14,1.22-1.76,3.32c2.83,1.66,2.54,3.29-.74,4.55l2.77,2.12-3.68,3.42s.15.35.31.37c1.51.22,3,.39,4.55.57-1.2.91-2.35,1.87-3.59,2.71a18.75,18.75,0,0,1-2.51,1.14l5.55,1.44-.13.89-6.54,3.15.35,1.11,7.59-1.33-1.16,3.67-6.87,2.1.32,1.46,6.89-1C123.47,404,122.5,409,121.33,414s-1.27,4.89-5,6.66a14.26,14.26,0,0,0,1.87.5c.59.07,1.2,0,2.37,0-.33,1.4-.24,2.87-.92,3.51-2.33,2.2-1.27,4.82-.59,6.88.46,1.37.74,2.07-.16,3.2a109.81,109.81,0,0,0-13.53,21.19A16.61,16.61,0,0,1,103.35,458.18Z"/><path class="cls-1" d="M131.67,110.33c3.31-1.69,7-3.74,10.81-5.43,1-.43,2.45.26,3.69.44-.63,1.67-.84,3.75-2,4.9s-3.33,1.55-4.84,2.77h4.9l.46.85-6.37,4.3.32.5,6.23-2.17.27.7-7.9,4.85.73,1.54,7.61-2.15.4.58-6.75,3.35.28.88,5.46-1.13c.51,3.31-6,2.1-3.76,6.45l4.88-.6.32.61a25.82,25.82,0,0,0-3,2.09,15.45,15.45,0,0,0-1.79,2.4c1,.09,1.92.2,2.88.26.6,0,1.21,0,2.75,0L142,139.56l3.43,2.22c-1.56,3,.66,6.93,5.31,7.42L146,152C141.14,137.94,136.51,124.42,131.67,110.33Z"/><path class="cls-1" d="M216.78,122.05c-1.66-.14-3.51.15-4.95-.49-9.36-4.14-12.26-13-14.73-21.72-1.48-5.2-1.38-10.89-1.63-16.37-.07-1.64,1.09-3.34,1.68-5,2,8.73,3.66,17,5.83,25.11.76,2.84,2.87,5.29,4.2,8,.7,1.43.59,3.6,1.64,4.44,2.39,1.9,5.28,3.19,8,4.73Z"/><path class="cls-1" d="M184.39,91.61,189,89.84l-.27-1.19L176.5,91.6l8.28-8.17-9.42,2.19c2-5.33,9.23-8,14.19-5.05l-1.27,2,.49.53L192.43,80c.26,3.33.62,6.44.66,9.55a2.69,2.69,0,0,1-1.68,2A59.8,59.8,0,0,1,184.39,91.61Z"/><path class="cls-1" d="M241,156.35l3.28,13.25-3.2-1.38c.42,2,.73,3.54,1,4.68,1.25.11,3.3.06,3.35.35a61.14,61.14,0,0,1,.53,7.07c.31.07.46.88.08,1.86-.49,1.25-.57,2.67-1.63,3.95q-.36-5.7-.71-11.4l-1.18,0v17.07l-4.15-3.57,3.19-.77c-.83-5.83-1.55-11.7-2.53-17.52s-2.19-11.37-3.31-17.06l1.18-.27c.49,2,1,3.94,1.63,6.51Z"/><path class="cls-1" d="M218.32,85.58l-2.08,1.36,4.17,1.36L220,89.78H205.48l-.19,2.67,17-1.77c.11.55.21,1.09.31,1.64l-18.15,3.36c-.84-4.35-1.83-9.51-3-15.4l10.21,2.79c-2.61,3.23-5.07,3.54-7.52-.48-.18,4.71,1.24,5.94,5.4,5,2.85-.65,5.63-1.59,8.43-2.39Z"/><path class="cls-1" d="M220,71.48l-2.46-14.19-1.11.15c.29,3.27.59,6.54.88,9.81l-1.24.13c-.13-6.58-3.66-12.73-2-19l6.44-.62C223,55.28,222.39,63.34,220,71.48Z"/><path class="cls-1" d="M303.12,321.14a23.46,23.46,0,0,0-3.81-.34c-4,.29-7.91.79-11.87,1.07-.63.05-1.3-.57-1.95-.89q-11.89-5.84-23.79-11.66c-2-1-4-2-6-3l.12-1,7.18-.57-3,2.2c12.12,7,25.87,5.12,38.55,8.39l-19.43-.92c7.23,5.66,15.93,4.32,24,5.77Z"/><path class="cls-1" d="M288.63,265.57c-11.45-6.93-22.46-14-29.26-25.68-3.24-5.57-6.26-11.27-9.37-16.91.44-.27.89-.53,1.34-.79,2.43,3.89,5.09,7.65,7.24,11.69C264,244,271.09,252.5,281,258.55a61.67,61.67,0,0,1,6.56,4.85C288.11,263.86,288.28,264.83,288.63,265.57Z"/><path class="cls-1" d="M308.27,327l-5.68-.28-.33,1.06c4.44,1.21,8.85,2.54,13.33,3.58,4.66,1.08,9.37,1.88,14.88,3l-3.8,1.34,5.86,3.32-.18.3-42.46-14.73.3-1.35L308.33,326Z"/><path class="cls-1" d="M135.09,105.6c1.38-5.57,6-6.41,10-8.38l-3.2.34-.17-.44c1-.51,2.46-1.74,3-1.42,4.17,2.28,6.28-1,9.32-3.66l-.27,2.18,6.93.61c-1.56,1.74-2.41,3.87-5.22,2.14-1.25-.77-3.83.64-5.81,1.07l.15,1.17,3,1.47.08,1C146.79,102,140.19,100.56,135.09,105.6Z"/><path class="cls-1" d="M109,457.36,93.27,483.61l-.92-.5c2.34-10.39,8.07-18.9,15.28-26.58Z"/><path class="cls-1" d="M248.27,246.55a7.09,7.09,0,0,1-2.22.8c-9.53.06-19.06,0-29.26,0l3.62,2.85H206l-.1-1.4h10.16l.15-1.16-2.1-1,.13-1h33.39Z"/><path class="cls-1" d="M165,334.05l-40.27,12.58c.81-1.11,1.19-2.21,1.9-2.5a72.29,72.29,0,0,1,6.91-2.24q14.64-4.27,29.3-8.49C163.09,333.32,163.48,333.59,165,334.05Z"/><path class="cls-1" d="M157.92,345.38c-.94,2.3-1.62,3.31-4.13,3.27-2.94,0-5.93,1.21-8.86,2.05-6.29,1.81-12.55,3.71-19.36,5.23.64-.58,1.18-1.46,1.92-1.7,6.86-2.25,13.73-4.44,20.65-6.51C151.16,346.81,154.29,346.24,157.92,345.38Z"/><path class="cls-1" d="M125.29,359.84l28.35-8.68.72.6c-.62,1-1.06,2.56-1.87,2.77-8.7,2.33-17.47,4.44-26.23,6.58C126.17,361.13,126,360.78,125.29,359.84Z"/><path class="cls-1" d="M249.45,221.86c-1.49-5.12-3.1-10.22-4.45-15.37-1.13-4.31-.69-9.34-6.8-11.46L243,194l4.63,6.44-2.17.23c1.68,6.84,3.41,13.86,5.13,20.87Z"/><path class="cls-1" d="M144,376.72c-.89,3.27-1.78,6.53-2.52,9.26-2,.28-3.63.47-5.21.72s-2.93.52-5,.89c3-3.88,9.52-1.21,10.46-8.13L127.53,383l-.39-1.3Z"/><path class="cls-1" d="M161.19,340.22c-.65.76-1.18,2-2,2.2-4.87,1.14-9.81,1.95-14.67,3.08-2.89.67-5.7,1.71-8.76,1.88,7.62-4.56,16.42-5.35,24.62-8.05Z"/><path class="cls-1" d="M125.59,365l24.82-6.88C149,361,129.12,366.8,125.59,365Z"/><path class="cls-1" d="M167,85.9l9.29,2.95-9.17,6.44c0-3.48,0-6.5,0-9.52Z"/><path class="cls-1" d="M148.62,363.64c-.63,1.49-1.18,2.81-1.35,3.22l-21.34,5.84C132.19,366.77,141.37,368.16,148.62,363.64Z"/><path class="cls-1" d="M221.08,85.39c4.36-2.11,8.93-2.61,12,1.13,1.89,2.28,4.27,5.34,2,9.32a17.2,17.2,0,0,0-1.76-3.69c-.84-1.06-.12-4.15-3.13-2.71-.29-1.19-.59-2.37-1-4Z"/><path class="cls-1" d="M209.27,100.66,206,99.27c.78-.89,1.45-2.39,2.36-2.56,4.31-.8,8.68-1.24,13-1.81l.41,1.79a16.5,16.5,0,0,1-2.71,1c-3,.55-6,.92-8.91,1.52-.43.08-.69,1-1,1.54Z"/><path class="cls-1" d="M232.2,79.51c-7.24,2.41-14.52,3.63-21.94-.05,1.19,0,2.52-.33,3.57.06,4.59,1.7,8.76-.1,13.09-1.1,1.7-.39,3.56-.07,5.35-.07Z"/><path class="cls-1" d="M260.22,300l32.87,1.8-.06,1.27-32.91-1.83Z"/><path class="cls-1" d="M209.16,100.77c2.06-.25,4.13-.61,6.2-.74s4,0,6.08,0l.1,1.08-7.76,1.35-.2,1,6.23,1.78.11.89c-2.24,0-4.9.75-6.61-.21s-4.91-1.82-4.05-5.2Z"/><path class="cls-1" d="M125.26,399.29c4-1.28,7.22-2.51,10.58-3.35,2.65-.67,3-2.13,2.29-4.72l-7.46,2.49-.43-1.11,10-4.2C141.21,395.31,134.69,400.4,125.26,399.29Z"/><path class="cls-1" d="M288.85,266.81c3.59-1.59,5.1,2,7.29,3.49A52.5,52.5,0,0,1,306.68,280c-1.44-.53-3.13-.73-4.26-1.63C297.84,274.63,293.44,270.73,288.85,266.81Z"/><path class="cls-1" d="M324.3,328.23l5.83-.76-2.56-3.63v-4.68H333l-1.75,1.45c.17,3.2.32,6.08.48,9.29l-7.42-1.11Z"/><path class="cls-1" d="M240.3,135.72c-.19,3.64-.39,7.28-.58,10.93l-1.21-.09-.9-3.66-.87,0L236,148.6l-1-.1c.34-3.86.67-7.73,1.11-12.73a17.37,17.37,0,0,1,1.36,1.92,19,19,0,0,1,.47,2.18c.62-2.07,1-3.28,1.35-4.5Z"/><path class="cls-1" d="M238.34,110c3.22,4.12,3.92,11.64,1.58,19.31Q239.13,119.66,238.34,110Z"/><path class="cls-1" d="M306.45,281.09c3.89-.7,13.55,8.88,14.53,13.18C316.49,290.2,311.62,285.79,306.45,281.09Z"/><path class="cls-1" d="M120.21,430,129.15,412l1.61.83-9.21,17.78Z"/><path class="cls-1" d="M230.79,97.39c3,2.33,5.47,13.49,4.08,16.31C231.71,108.55,233.42,102.44,230.79,97.39Z"/><path class="cls-1" d="M230.83,133.68c.3-5.53.61-11.06,1-17.68,3.14,6.55.39,12.11,1.14,17.61Z"/><path class="cls-1" d="M327.24,301.17q8,6.06,16,12.13C336.85,310.7,331.08,307.25,327.24,301.17Z"/><path class="cls-1" d="M231.32,240.43H214.23l0-1.07h17.1Z"/><path class="cls-1" d="M129.38,375.7l15.83-4.18c-.29,1.05-.34,2.14-.64,2.21-5,1.16-10,2.19-14.94,3.25Z"/><path class="cls-1" d="M346.93,315.87l16.73,15.94-.67.71q-7.82-8.53-15.62-17.06Z"/><path class="cls-1" d="M231.65,300.06h14.92v1.31H231.62Z"/><path class="cls-1" d="M289.64,328.2,285,331c-.37-2.39-.66-4.3-.95-6.2l6.07,2.18Z"/><path class="cls-1" d="M163.43,93.28l-7.82-.62-.13-.83,6.44-3.69C162.43,89.89,162.89,91.45,163.43,93.28Z"/><path class="cls-1" d="M216.76,112.64c-3.07,1.75-7.49-1-9.85-6.14Z"/><path class="cls-1" d="M211.78,233.81l15.59-1.13c0,.45,0,.91.08,1.37l-15.71.72Z"/><path class="cls-1" d="M223.73,87.44c1.92,2,6.17,1.23,6.13,6.78-2.72-2.32-4.81-4.1-6.91-5.87Z"/><path class="cls-1" d="M303.78,314.64l12.05,1.23-.12,1.09-12-.92C303.75,315.57,303.77,315.11,303.78,314.64Z"/><path class="cls-1" d="M325.66,323.84l-8.5-1.07.12-1.26,8.51.93Z"/><path class="cls-1" d="M226.16,537.85c-14.23-11.52-29-22.44-41.87-35.52l.8-.95L227,536.84Z"/><path class="cls-1" d="M220.21,518.45l-26.64-22.56.81-1.42a16.74,16.74,0,0,1,3.64,1.9c7.07,6.39,14.06,12.87,21,19.34a25.16,25.16,0,0,1,1.79,2.06Z"/><path class="cls-1" d="M226.4,506.9a31.26,31.26,0,0,1-3.88-2.07c-2.7-1.92-5.33-3.95-7.89-6-.53-.43-.68-1.32-1-2,.84.12,1.92-.05,2.48.41,3.58,3,7,6.08,10.55,9.15Z"/><path class="cls-1" d="M384.91,413.68c-1.32,1.77-4,3.52.06,5.67.64-1.49,1.27-2.94,1.94-4.46a9.73,9.73,0,0,1,2.63,1.8c.52.64.81,2.36.42,2.69-2.84,2.48-5.88,4.72-8.87,7l.94,1.08q1-3.64,2.05-7.29l-.73-.35c-2.12,2.31-4.21,4.65-6.38,6.92-1.94,2-4,4-6,6l-1.17-1.14L383.89,413Z"/><path class="cls-1" d="M377.34,430.5C374,439.08,367,445.26,362,452.72L360.9,452l15.48-22.16Z"/><path class="cls-1" d="M378.43,413.34c1.49-3.49,3-7,4.61-10.76h-3.13c.27-.72.35-1.56.81-2s1.71-.49,1.83-.28c.69,1.21,1.9,2.84,1.54,3.8a99.91,99.91,0,0,1-4.69,9.66Z"/><path class="cls-1" d="M252.61,604.35l12.6,8.81-.73,1.1-12.64-8.76C252.1,605.12,252.36,604.74,252.61,604.35Z"/></svg>