<svg id="Layer_1" data-name="Layer 1" xmlns="http://www.w3.org/2000/svg" viewBox="0 0 400 400"><defs><style>.cls-1{fill:#fff;}</style></defs><title>Artboard 1_1</title><path d="M144.78,117.28c2,2.29,4.91,1.64,7.39,2.4s4.86,1.48,7.32,2.1c1.09.27,2.28.1,3.36.39,6.14,1.7,10.5,5.66,13.46,11.15a2.94,2.94,0,0,0,2.74,1.78c3.6.29,7.28.47,10.4,2.51,4.11,2.68,8.16,5.47,12.06,8.45,1.35,1,2.18,2.75,3.24,4.16l4.41,5.93a2.36,2.36,0,0,0,2.64,1c1.66-.39,3.35-.64,5-1a13.09,13.09,0,0,1,8.47,1c4.08,1.81,8.2,3.47,12.44,4.91,2.74.94,5.18,2.78,7.72,4.28a32,32,0,0,1,4.86,3.44l-1.54-.45,0,1-4.38-2.18-.41.44,1.47,2.15.07,2.12c-.33-.31-.78-.56-1-.94-.73-1.46-1.28-3-2.08-4.44a10.11,10.11,0,0,0-2-1.88c.76,2.2,1.36,4,2,5.72l-.4.18c-.59-1.25-1.17-2.5-1.81-3.87l-.63.82-.74-3.1-2.41-1.71.22,2.76-.23.07a9,9,0,0,1-.32-1.16,9.38,9.38,0,0,0-.11-1.31,2.2,2.2,0,0,0-.94-1.14,38,38,0,0,0,4,13.15l-.72.24c-1.16-3.23-2.35-6.44-3.47-9.68-.37-1.06-.22-2.48-.87-3.23A28.1,28.1,0,0,0,229.8,160l-.62.78,2.1,1.71c.3,2,.43,4.07.91,6s1.29,3.78,1.82,5.71c-2.19-3-2.81-6.5-3.14-10.1l-.67.13c.37,2,.68,4.05,1.12,6.05s1.06,4,1.49,6.06a34.13,34.13,0,0,1,.77,6.34c-.31-1.18-.62-2.37-.94-3.55-1.09-4.12-2.24-8.22-3.23-12.36-.47-1.94-.58-4-1-5.92A3,3,0,0,0,227.3,159a8.18,8.18,0,0,0-3.5-1c4.38,2.08,3.87,6.32,4.53,10l-1.79-5.44v3.64l-.23.08-.76-2.18h-.16l.34,2.64-.48.09-.51-3.07-.31.05v5.42l-.6-3.65-.62.09,1.7,12.12.38,0V175c1,.25.94.25,1.48,2.87.25,1.24.56,2.47.85,3.7l-.55.13c-.24-1.11-.48-2.22-.73-3.33l-.45-.36-.79,1.27-1.69-3.78c-.23-3.54-.45-7.07-.68-10.61-.44,3.59-1.11,7.19.72,10.58.52,2.77.67,5.7,1.68,8.28.86,2.2,2.71,4,3.9,6.14l-1.22-.83.82,2.45-.14.12-4.53-7,1.07.56a29,29,0,0,1-1.46-3.63c-.65-2.44-1.12-4.93-1.68-7.39-.3-1.34-.65-2.66-1-4l-.49.09.78,5.5-.25.06a63.23,63.23,0,0,0-1.71-7c-1.27-3.56-2.82-7-4.31-10.49-.12-.28-.64-.38-1-.56-.17.41-.55.85-.48,1.22.38,2,.86,4,1.18,6.07-1.71-2-.51-5.35-2.8-7.12l-.66.22q1.37,5,2.74,10l-.46.13-2.55-8.92-.43.11q1,3.78,1.9,7.55l-.44.14-1.85-6.4-.48.08.73,5.05-.44.08c-.43-2.2-.86-4.4-1.31-6.67-1.15.75-1.24.76-1,4.47a38.38,38.38,0,0,0,1.07,5.18l-1-1.37-.41,0c.13,2,.21,4,.38,6.05.18,2.19.44,4.38.66,6.57l-.47.07-1.52-11.52-.69,0c0,1.31,0,2.63,0,3.94a13,13,0,0,1-.14,3.88l-.66-10.17h-.32v4.36l-.19,0-.37-1.9-2,2.31a7.54,7.54,0,0,1,.4,6.94c-.56,1.4-.13,3.22-.1,4.85a5.84,5.84,0,0,1-.15,2.25l-.59-1.19c-.17.2-.31.29-.31.37.2,2.29.36,4.58.62,6.86a20,20,0,0,0,.65,2.7c.15.54.63,1.16.49,1.58-.87,2.61,1.34,3.08,2.74,4a11.61,11.61,0,0,0,2.57,1c1.19,1.53-3.37,2-.25,3.56l1-2.34.22.13a48.59,48.59,0,0,0,.06,5.79,15,15,0,0,0,1.34,3.56l0-.05-1.08.49-5.23-12.09-.77.29c.3,1.15.59,2.29.88,3.43l-.38.14-2.11-6.1-.84.25,1.47,8.13.43-.07v-1.2c2,1-.34,4,2.42,4.59l.77-1c-.73,2.2,1.85,3.27,1.73,5.36a2.24,2.24,0,0,0,2.39,2.29c.37,0,.69.75,1.11,1a10.85,10.85,0,0,0,1.73.73c1.63,2.86,3.53,6.16,5.41,9.47.46.81.87,1.65,1.3,2.47l-7.63-10.37-.29.16q3.66,7.17,7.34,14.34l2.47-.7-2.33,2a15.29,15.29,0,0,1,1.72.15c.62.11,1.21.33,1.82.47,2.17.49,2.77-.09,2.56-2.36l-3.83-.26,3-.91-.11-.54c-1,.13-1.93.32-2.9.36-.56,0-1.45,0-1.63-.36a5,5,0,0,1-.21-2c.61.19,1.21.4,1.83.57a9.22,9.22,0,0,0,2.83.66c2.45-.2,4.88-.64,7.42-1l-1.22-.46.09-.47,3.43.47c.16-2.41-2.4-4-2.85-6.37,1.74,2,3.84,3.85,3.81,6.31l6,2.07L241,232c-1.91.21-3.86,1-5.48-1-.3-.38-1.18-.45-1.76-.39-1.61.16-3.2.48-5.22.65l1.37-.08c-3.64,1.84-4.16,3-3.15,5.5l1.56.44a5.1,5.1,0,0,1-1.36.64c-4,.66-8.67,4.23-8.16,8.23,1.45-.73,2.89-1.35,4.2-2.17a4.37,4.37,0,0,1,5,.08,3.34,3.34,0,0,0,2,.3c2.93-.33,5.84-.76,8.76-1.13a2.34,2.34,0,0,1,1.53.38c-2.54.75-4,3.64-7.14,3.15a2.07,2.07,0,0,0-1.37.48c-1.29,1-2.51,2-3.79,3-.25.19-.64.17-1,.28a48.22,48.22,0,0,0-6.2,2.27c-1.38.71-2.43,2-4,3.45l.11-1.62c-2.16,3.23-5.77,3.86-9,5.09l.19.62,8.83-2.66.25.54-1.19.87,1.48,1L219.8,257l.41.27-2.35,3.61,2.37,1.58-2,3.5.49.28,1-1.75,1.14.9,2.72-4.45-.43,2.22.26.1,1.09-2.82.29.07-.6,2.94c.26-1.31,2.14-2.35.91-3.95,0,0,.81-.72,1.25-1.11l.4.34-2.09,6.3c3.38.21,6.37.39,9.36.54a.79.79,0,0,0,.55-.42c.65-1.35,1.26-2.71,2-4.43l.89,1.3,4.45-5.27.35.23c-.69,1.17-2.23,2.85-1.89,3.42,1,1.72-.74,2.39-.5,3.78l3.16-4.64.33.16c-.77,1.53-1.54,3.07-2.17,4.3l1.11,1c1.07-1,2.24-2.16,3.41-3.28l.34.14-1,2.38,1.32-.77-1.6,4.49.15.08,4.52-6.21.37.24c-1,2.39-2,4.78-3.12,7.33,2.09.34,3.23-.11,3.82-2a52,52,0,0,1,2.24-5.23l.68.3-2.71,5.83.65.3c2.43-3.37,3.38-7.49,5.09-11.21s3.25-7.44,4.87-11.17l-.55-.32-3.06,4.77-.62-.36,2.14-4.07-.27-.23-5.75,7.07-.47-.34,2.22-3.94-.19-.24-1.46,1.31c-.57-1-2.56-.85-3.59.42-1.32,1.61-2.52,3.31-4,5.22V254.1l-2.25,3.09-.3-.16,1.34-3.3-2.19.76-.15-.28c1.07-.8,2.09-1.67,3.21-2.39,2.22-1.41,2.29-4.08,3.64-6,.82-1.18,1.47-2.48,2.22-3.7.56-.91.6-1.52-.9-1.46l1-1.81c1,1.45,1.81.31,2.58-.14,1.36-.79,2.67-1.67,4-2.49.43-.27.91-.44,1.35-.68,2.71-1.45,5.43-2.9,8.13-4.37A2.13,2.13,0,0,0,268.5,230l-11.56,2.18-.11-.58c2.27-.42,4.56-.73,6.78-1.29,2.67-.68,5-1.94,5.76-5,1.61.58,1.71-.22,1.84-1.64a21.23,21.23,0,0,0-2.3-12.1,18.77,18.77,0,0,1-1.05-3.86l-.5,0-.44.85-.44-.21.81-1.82-2.74-3c.34-1.48.72-3.13,1.09-4.77l.28,0-.31,4.13c1.31-1.27,1.44-3.66.8-5.28a17.5,17.5,0,0,1-.55-3c-.66-3.26-1.29-6.51-2-9.75-.34-1.51-1-3-1.27-4.49-.52-2.62-2.44-4-4.38-5.47a40,40,0,0,1-4.57-3.83c.93.41,1.88.8,2.79,1.26,4.11,2.08,8.4,3.86,11.53,7.47a21.93,21.93,0,0,0,2.33,2.07c-.27.29-.83.73-.77.85a10.81,10.81,0,0,0,1.52,2.36c.23.27.86.21,1.39.32l-2.2-3.59,3,3.07c.1-4.17-2.58-6.75-5.11-9.59a10.39,10.39,0,0,1,5.84,7c.21,1.17.75,2.28,1,3.45.17.87,1.42,1.92-.25,2.66-.11.05-.15.52-.06.73,1.23,2.9-1.34,3.85-2.26,5.08-.19-2.12-.4-4.5-.62-6.88h-.44v3.65l-1.4-4.72-.43.11-.13,2.79-.46.1-.87-6-.42,0-.44,1.65c-.17-.83-.35-1.66-.52-2.48l-.19,0v3.35h-.26c-.33-1.7-.67-3.41-1-5.11l-.53.11,1.9,12.38.57,0V185c.18,3,.43,6,.5,9,.06,2.59-.11,5.19-.16,7.78a3.73,3.73,0,0,0,.09,1.5c.19.44.68.76,1,1.13.24-.44.68-.86.7-1.31.11-2,.08-4,.16-6a2.8,2.8,0,0,1,.58-1.54l-.33,7.32.48.06c.15-2.39.29-4.78.44-7.17l.83.05c-.75,3.22,1.23,6.45-.43,9.72-.32.65.06,1.73.3,2.56.85,3,1.85,6,2.64,9,.68,2.62,1.15,5.29,1.77,8.21,3.42.68,5.15,3.79,6.95,7.37-3.44-1.77-4.12,1.85-6.34,2.63l2.76-3.39-.21-.3c-1.18,1-2.38,1.94-3.54,2.94s-2.06,2.52-3.28,2.77a5.82,5.82,0,0,0-2.94,1.89c-2.91,2.59-4.44,6.07-6.21,9.42l3.94-4.44c-.91,3.34-1.67,6.16-2.43,9l-.22,0,.09-1.81c-.81,1.19-1.72,2-1,3.49.27.56-.45,1.59-.8,2.65,2.19.08,2.17-2.36,4-3.28l-1.6,3.46.18.1,2.32-2.6,0,0a21.71,21.71,0,0,1-4.45,9.16l1.2-3.24-.59-.21c-.49,1.56-.89,3.15-1.49,4.66a10.07,10.07,0,0,1-1.55,2.51,7.64,7.64,0,0,0-1.55,2l1.41-.13c.78,2.05,2.83.69,4.23,2l-3,.18c-.1,5.14-.95,10.65,1,16.41a5.08,5.08,0,0,0,.42-.72,2.61,2.61,0,0,0,.06-.59l2.9,6.47-.17.18-1.48-1.67-.45.24c.51,1.06,1,2.11,1.72,3.53a44.24,44.24,0,0,1-6.33,1.79c-2.26.35-4.62,0-6.91.17s-4.78.52-7.31.64l4-1.44c-4,0-5.75-2.61-7.22-5.7l.91-.13c-.37-1-.73-1.91-1.09-2.87l-.41.13c.05.51.09,1,.14,1.51l-.37.14-1.59-4.5-.47.15c.33,3.55,2.49,6.57,3.54,9.91l-.47.18-1.42-2.72-.35.15,1.85,4.2-.4.2-3.8-7.73c-.11,1-.2,1.87-.29,2.77l-.42.05-1-2.11-.45.17,1.44,3.88-1.09-.2c1.05,1.67,2,3.15,2.9,4.63l-.23.23c-.78-1-1.49-2-2.35-2.86a5.06,5.06,0,0,0-1.94-1.13c-2.91-2-1.56-5.41-2.34-8.2l-.62.05c0,.73-.07,1.47-.13,2.52l-1.11-2.22-.4,2.93-1.32-2.3-.65,1.42-.31,0V284.4l-.52,0c-.13,2.43.06,4.92-.47,7.26-.45,2,.39,3.19,1.58,4.57-.44-1.75-.86-3.39-1.27-5l.69-.29c1.24,3.59,1.7,7.64,5.62,10-1.52-3.41-2.91-6.52-4.29-9.63l.58-.25,1.86,3.71.19-.06c-.2-1.17-.41-2.34-.61-3.51l.22,0c1.28,2.76,2.55,5.52,4.06,8.77l-3-3.76-.56.44c1,1.34,1.83,3.22,3.2,3.85s3.26,0,4.93-.16l0,.63c-2.68.09-5.43-.15-8,.38-2.08.43-2.95-.86-4.33-1.63a7.56,7.56,0,0,0-3.36-.71c-3.55-.09-6.36-1.87-9-3.9-2.29-1.75-4.44-3.69-6.75-5.62l-1,1.2-3-5.77.33,2.63c-2.41-1.32-4.61-2.64-6.91-3.74s-4.56-1.93-6.88-2.79c-.81-.3-1.63-.26-1.67-1.54,0-.5-1-.94-1.46-1.46a3.45,3.45,0,0,1-.91-1.32c-.68-3-1.22-6-1.94-9-.45-1.87-1.12-3.7-1.69-5.55l-.5.11.26,1.75-.25.13-1.32-2.75a46.59,46.59,0,0,0-.29,6.62c.23,2.35,1,4.66,1.23,7.07l-1.08-3.33A7.55,7.55,0,0,0,184,278c-5-3-10.07-5.86-13.91-10.44l.9.5c-2.55-2.57-1.87-6.43-3.49-9.36l-.73.2q.86,3.45,1.7,6.9l-.35.13A24.05,24.05,0,0,1,167,263c-.54-2.19-.91-4.44-1.48-6.63a2.65,2.65,0,0,0-1.48-1.46l2,8.39-.69.17-2.95-12.29c-.53.35-.55.35-.07,3.39a20.71,20.71,0,0,1,.41,4.12c-.55-2-1.09-3.93-1.63-5.9l-.35.05c.22,1.15.41,2.31.66,3.45a12.79,12.79,0,0,0,1,3.62c.47.81,1.61,1.22,2.45,1.82l-.38.62-5.08-3.07.43-.22c-1-.64-2.07-1.21-3-1.93-3-2.32-6-4.72-9.1-7-4.75-3.59-9.54-7.13-14.37-10.74,0,.29,0,.59,0,.5-2.31-2.32-4.75-4.77-7.2-7.21l.39-.43,4.34,4.14-1-3.57.95.41c-1.07-2-2.14-4.07-3.3-6.3l.3,2.11-.37.17-1.51-3.74-.41.13,1.41,4.9-2.51-4.62c.63-.6.46-1.26-.59-1.82s-1.81-1-2.73-1.6l-.52.74c-.7-1.74-1.37-3.39-2-5l-.6.15.85,4.17-.51.2c-.14-3-1.71-5.41-3.32-7.74l-.53.08,1.13,5.63-1.83-2.35c1.16-1.76.07-3.33-.81-4.93l.26,3.19-.55.12c-.48-1.74-.95-3.5-1.47-5.24a3.14,3.14,0,0,0-.55-1l-6.12-7.81-.79,1c.12.19.18.37.26.39a2.51,2.51,0,0,1,2,3c-.22,1.18-.21,2.1,1.19,2.52.29.08.57.64.62,1,.51,3.69,3,6.1,5.36,8.66q1.86,2.06,3.84,4c1.36,1.35,2.77,2.65,4.16,4l-.44.5c-1.31-1.15-2.62-2.31-4-3.45-5.22-4.47-8.42-10.47-12.32-16-3.27-4.62-5.06-9.86-7.42-14.87-.14-.3,0-.7-.13-1a13.52,13.52,0,0,0-.94-3.07c-.66-1.19-1.92-2.09-2.39-3.32-1.21-3.13-2.13-6.38-3.16-9.59s-2-6.15-3-9.22c-.83-2.59-1.68-5.18-2.52-7.77l.48-.2.75,1.1,1.9-3.87.6,1.8.84-.67a7.64,7.64,0,0,1-.06,1.07,13,13,0,0,0,.54,7.75c1.32,3.13,2.09,6.49,3.23,9.7.62,1.75,1.51,3.42,2.28,5.12l.48-.18-2.67-9.52.57-.15q1.67,5.44,3.34,10.89l.68-.19-.66-3.26c1.33,4.05,2.64,8.05,6.44,10.58l-.45-7h-.33l-.22,1.38c-.49-3.5-2.78-6.78-1.14-10.73.19.56.36,1,.47,1.39s.16.86.26,1.29c1.06,4.3,1.79,8.72,3.32,12.85.77,2.11.9,5,3.77,6,.28.1.38.72.84,1.66.67-1.48,1.44-2.52,1.59-3.63a46.73,46.73,0,0,0,.19-5.92c0-5.28,0-10.56,0-15.84v-5.12h.68c0,3.91,0,7.81,0,11.72a14.39,14.39,0,0,0,.48,3.32c.11.42.66.73,1.15,1.25a2,2,0,0,1-.46.87c-1.71,1.28-1.15,3-1.11,4.69.07,2.39,0,4.79,0,7.18,0,1.85-.49,3.86.08,5.51.51,1.47,2.15,2.56,3.33,3.78.23.24.7.23,1,.45,1.65,1.42,3.25,2.91,4.93,4.29.33.27.94.2,1.23.25.86.89,2.2,1.67,2.54,2.76,1,3.13,3.57,4.47,6,6.06a4.09,4.09,0,0,1,.45.42l.82-.86a20.82,20.82,0,0,0,1.84,2.88,15.82,15.82,0,0,0,2.4,1.86l.51-.34c-.16-1.8-.35-3.6-.45-5.4a42.57,42.57,0,0,0-.23-5.55c-.83-4.29-.93-4.27-.4-4.66a37.63,37.63,0,0,0,1.14,4.88c1.18,3.19.6,6.48.92,9.71.1,1,1.41,2,2.33,2.83,1.19,1.06,2.54,1.93,3.57,2.69-.21-1.28-.51-3-.8-4.78l.47-.13.5.66v-2.82l.55,1.3.23,0a71.42,71.42,0,0,0,0-7.17c-.34-3.3-1-6.58-1.54-9.85a8.54,8.54,0,0,0-.71-2.14c-.16-.35-.56-.6-.85-.89l-.72.79-2.12-2.47c.28,3,.5,5.41.73,7.82l-.57.07c-.19-1.88-.36-3.77-.58-5.64a5.34,5.34,0,0,0-.52-2.18c-.24-.38-1.36-.7-1.55-.52a2.56,2.56,0,0,0-.84,1.89,42.54,42.54,0,0,0,1.4,4.12,22.3,22.3,0,0,1,.46,2.49c-1-1.84-1.88-3.34-2.66-4.88-.93-1.82-1.78-3.68-2.68-5.51-.21-.45-.39-1-.76-1.28-1.29-.84-.93-1.75-.22-2.82l3.88,4.44.48-.54,1.94,1.27-1.38-5,.49-.14.72,1.61.23,0-.21-2.61c1.63,2.21.14,5.09,2.13,6.92l1.74-1.48c-.34-2.84-.71-5.9-1.08-9l.54-.12.84,4.36.18,0V180.37h.14l1.4,15.3.49,0V182h.23c0,.95-.05,1.9,0,2.85.23,3.78.5,7.56.73,11.34.07,1,.17,2,1.53,1.87s1.37-1,1.2-2.08a15.39,15.39,0,0,1-.18-3.72c1.27,2.64.66,5.52.85,8.34l-.87-1.85c-.27.58-.4.93-.59,1.25a14.34,14.34,0,0,0-1.67,8.75c.34,4.53,1,9,1.56,13.54.22,1.86.47,3.72.69,5.37a18.29,18.29,0,0,0,2.08.57c1.28.22,2.57.35,3.92.52l-.3.9c1.24-1,2.28-2,1.48-3.86a7.56,7.56,0,0,1-.44-3.76c.39,1.47.79,2.95,1.29,4.84.94-3.47-.5-10.65-1.92-11.31.33-3.18.65-6.32,1-9.45h.21v2.78l.37.08,1.21-2.6-1.31,8.06.44,0,.14-1.32.5,0c0,3-.17,6.09.05,9.11.32,4.51,2.38,8.42,4.54,12.3.76,1.36.72,3.13,1.35,4.58a5.12,5.12,0,0,0,4.28,2.91,1.36,1.36,0,0,1,.6.27,14.33,14.33,0,0,0,2.07,1.52c2.58,3.26,6.31,4.84,10.19,6.47l-1.39-3.52.16-.12,2.36,3,.25-.14-.67-2.05.2-.11,2.26,4.56,2.19-.72-1.15-3.62.33-.13c.35.89.66,1.8,1.06,2.67.59,1.27,1.39,1.77,2.86,1a22.18,22.18,0,0,1,4.13-1.35,9.59,9.59,0,0,0,5.57-4.52,5.33,5.33,0,0,1,1.22-1.29c-1,4-4.52,5.37-7.5,7.32a7.66,7.66,0,0,0-1.2,1.27l.33.34.72-.07,1.8,2.66c1-1.53-2-3.3.82-4.46l.31,1.9,1.47-2.36,0-.05c.28,1.23-.34,2.72,1.08,3.78,6.1-7.9,7.31-16.78,5.89-26.17-.29-2-.15-4.32-2.19-5.79l1.26,8-.24,0c-.84-2.8-1.75-5.59-2.48-8.42a4.73,4.73,0,0,1,.09-2.84c.83-2,.92-3.75-.66-5.52l.65-.17,1.37,2.89c2.93-2.6,3-3.4,1.25-7.17a33.55,33.55,0,0,1-2.71-6.93c-1-4.6-1.72-9.28-2.35-13.95-.47-3.53-.62-7.1-.94-10.86L195,178.8l-.38-.09.45-6.48.6,0,.16,1.57.37.17,1.64-3.43c0,.38.08.86.12,1.35-2.48,4.35-.55,8.9-.81,13.36.3-.12.47-.27.47-.42q.16-6.5.3-13c.19-.82.43-1.64.56-2.47.22-1.4.3-2.82.55-4.21s.7-3,1-4.5l-.69-.25L198,163.34,197,162l-.42,1.86c-.19-.29-.51-.56-.46-.73.48-1.84,1-3.66,1.55-5.49.12-.42.3-.82.41-1.25.5-2.11.84-4.28,1.51-6.34.75-2.32-.57-3.35-2.26-4.29-2,1.31.46,2.62.15,4l.85-1.24c.06.21.17.38.14.52-.48,2.3-1,4.59-1.47,6.89-.29,1.33-.56,2.67-.81,4-.19,1-.34,1.95-1.73,1.64l0,0c.68-1.73,1.36-3.45,2-5.18l-.48-.18-1.89,3.66-1-.45,2.6-5.75-.45-.23-.89,1.6L194,155c.2-.8.14-1.88.64-2.34,1-.9.78-1.77.09-2.9l-2,6.78-.56-.14c.24-1.65.41-3.32.73-5a17.86,17.86,0,0,1,1-3c.19-.48.5-1.19.86-1.26,1.6-.32,2-1.36,1.83-3.33l3.72,3,.33-.46c-1.91-2.86-5.27-3.76-8.11-5.38l1.45,1.19h-2l-.82-1.6c-.41,2.29-.76,4.24-1.1,6.18l.34.2,1.79-4,.4.06v1.91l1.61-1-2.12,7.29-.49-.12c.2-1.16.41-2.32.64-3.58-2.7,1-2.27,3.53-3.26,5.41a10.41,10.41,0,0,1,0-1.25c.06-.42.21-.83.31-1.24l-.56-.15a21.86,21.86,0,0,1-.85,3.46,31,31,0,0,1-1.95,3.45l.06,0,.24-2.49-1.08.38a36.25,36.25,0,0,0,2.47-4.46c1.06-2.75,2.7-5.4,2.23-8.52a18.12,18.12,0,0,0-1.14-3.24l-.67.25a14.77,14.77,0,0,1,.67,1.66,2.54,2.54,0,0,1,0,1.13c-.28,1.45-.62,2.88-.88,4.33,0,.13.39.35.65.57l-2.18,2.4c.25-2.23.49-4.3.74-6.56-1.75,1.23-3,5.62-2.54,7.57a18.22,18.22,0,0,1,.24,3.32l-.66,0,.28-2.42-.41-.12-.78,1.85-.39-.06.6-6-.57-.1-2.26,9.62-.71-.17c.27-1.16.55-2.32.83-3.47l-.3-.1-2.53,5-.67-.28c-.85-2.23,0-4.19,1.28-6.1l-1,4.59.52.19c.32-.64.65-1.28,1-1.92.71-1.45.46-3.37,2.25-4.33.29-.15.26-1,.26-1.59a12.08,12.08,0,0,1-.13-2.38c.46-2.18,1.07-4.32,1.68-6.71-.42.36-1.07.63-1.19,1a21.64,21.64,0,0,0-.87,4.35c-.17,2.13-1.61,3.36-2.77,4.9a13.64,13.64,0,0,0-1.81,4.46,34.79,34.79,0,0,0-.66,4.21l-.66-.07q.66-7,1.33-13.95l-.17-.15c-.46,1.14-.93,2.28-1.37,3.35v-4.78l-.62-.09c-1.72,3-.68,6.39-1,9.71l1-.84.53.28-1.52,3.75c-.28-.24-.8-.49-.8-.73,0-3.53,0-7.07.22-10.6a4.06,4.06,0,0,1,1.22-2.2,5.43,5.43,0,0,0,.64-6.25c-1.2-2-2.19-4.07-3.27-6.11l-.52.21.46,1.31c-2.3-1.14-3.51-.17-3.4,2.63.11,0,.29,0,.33,0,.4-.54.92-1.63,1.15-1.57.86.21,1.12.91,1,1.94a35.09,35.09,0,0,0,.28,4.68,2.56,2.56,0,0,1-.12.65l-.48,0v-4.33l-.55-.06-.59,2.57-.36,0v-2.94l-.45-.08L167,138.48l-.32,0,.16-2.5-.7-.06c-.15,2.42-.29,4.83-.43,7.25h-.49c0-2.18.12-4.38-.05-6.55a30.53,30.53,0,0,0-1-4.47l0,0q.6-2.56,1.22-5.14h.78c.44,1.42.88,2.84,1.31,4.26l.47-.13c-.51-1.79-1-3.58-1.5-5.32l4.66,2.2c-1.44-2.63-4-2.76-6.41-4.15l-1.71,7.5.06-.06L162,133.6l-.29,0,.54-3.93-.43-.06c-.57,4-1.14,8.07-1.75,12.46,0-2.85.11-5.34,0-7.81s-.58-4.68-.79-7a17.9,17.9,0,0,1,.33-2c.05-2.51,0-2.51-2.82-2.48.21,4.61.42,9.2.64,13.8l-.4,0-1.65-13.35.17-.11.84,2.29c.31-1.51.27-2.87-1.82-3.58l.63,6.35-.57.1-.66-4.84-.41,0a24.78,24.78,0,0,0-.14,2.58c.12,2.5.46,5,.41,7.48a13,13,0,0,1-1.09,3.52V125.11l-.66-.06c-.27,3.93.34,8-1.61,11.68.17-2.85.33-5.7.5-8.55l-.53-.05-.3,2.58-.45,0,.6-7.68-.6-.06c-.25,2.17-.51,4.34-.76,6.51h-.25v-4.29l-.61,0v10.76h-.34c-.49-2.52-1-5-1.54-8v7.57l-.37,0-.51-7.93-.35,0-.51,5.08c-1.52-.27-1.83-1.19-1.83-2.58a35.72,35.72,0,0,0-.72-6.48c-1.73,2.61.34,5.41-.62,8.33-.18-1.71-.33-3.18-.5-4.79-3.47,1.53-.65,4.59-2.14,6.54a17.46,17.46,0,0,1-.23-6.54l-1,1.94-.6-.26c.66-1.82,1.36-3.64,2-5.48.45-1.39.78-2.82,1.2-4.38l.39,1.47c2.17-2.48,1.64-4.19-1.81-5.58l-.61,3.26-.28,0-.16-3.33-1.75-.36q-.57,5.73-1.14,11.42h-.13c-.17-2.13-.4-4.27-.49-6.41s1.2-4.24-.63-6l-.77,0,.43,6.89-.25.07-.45-2.47H132l-1.28,10.21-.58.05-1.11-7.4-.4-.11-1.14,5.92h-.32l.78-10.6-.58-.08-.83,4.25-.18,0c-.14-1.9-.62-3.84-.35-5.68.49-3.41-2.12-4.09-4.36-5.76l.2,3.76-.59.08c-.12-.83-.27-1.65-.35-2.48-.2-1.94-1.09-2.46-3-1.6l.55,1.92.58-1.59.5,0,1.47,9.79-.79.13-.79-4.58h-.29l-.22,2.09-.18,0-1.26-6-.65.13,2,13.6-.73.06-.15-3.36-.41-.08-.56,2.06-.54-3.44c1.3-.59,1.3-.59-.13-3.87-1.41,2.07-.47,4.39-.35,6.75.16,3.11-.23,6.25-.3,9.38a6.3,6.3,0,0,0,.56,1.81c.06.18.19.45.13.52-1.92,1.89-.38,4.16-.66,6.23-.42,3-.68,6.06-.89,9.1-.18,2.51-.16,5-.27,7.53a20.11,20.11,0,0,1-.32,2.14l-.59,0c0-2.72,0-5.44,0-8.15,0-3.6.54-7.27,0-10.79a23.62,23.62,0,0,1-.29-7.11,1.68,1.68,0,0,1,.8-1.24l-.24,3h.38V117.64l-.6-.09c-1.38,1.53-.77,3.61-1.19,5.41l-.51.11-.63-4.18-.56,0v3.59l-.61,0,.26-5.81c-1.71,1.46-.25,3.62-1.35,5.54v-1.87c-2.61,5.87-6.25,11.42-5,18.38l-.49,0L102.7,137c-.36,3.25-1.17,6-.32,9,.3,1-.29,2.3-.7,3.48l-.31-1.64-.77,1.6c-.11-.33-.22-.48-.2-.62.46-3.17,1.08-6.33,1.37-9.52a50.08,50.08,0,0,0-.12-7.54c-.28,1.42-.46,2.87-.86,4.26-.37,1.24.82,2.87-1,3.8,1.61-2.25-.06-4-.75-6.33l-1.39,5.31-.63-.06.46-6.28-.13-.06-2,7.71-.31-.06a13,13,0,0,0,.24-2.39c0-.46-.42-.9-.65-1.35-.35.32-.95.61-1,1-.15,1.24-.09,2.51-.14,3.76a1.67,1.67,0,0,1-.45,1.1l-.36-1.85-.29-.07-1.05,3.48-.57,0a6.73,6.73,0,0,1-.17-2.16c.45-1.74.74-3.68,1.75-5.07a39.2,39.2,0,0,1,5.9-6.25c1.1-1,2.89-1.11,4.1-2a11.58,11.58,0,0,0,4.5-6.93,18.19,18.19,0,0,1,5-9.13c.14-.13.3-.23.5-.39l2.19,1.55c.11-1.24.16-2.25.29-3.24,0-.27.34-.51.52-.76l.68.82,1.26-1.73-1.6-.14-.07-.44,3.51-.84-5.18-3.81c-.26.12-.43.14-.47.23-1.25,2.74-1.25,2.77-4.34,2.41a16,16,0,0,1-4.61-.89,4,4,0,0,1-1.6-2.58,8.58,8.58,0,0,1,.09-3.34v2.53c1.18-2.14,1.07-2.77-.66-3.49l-.35,4.82h-.2V97.76l-.4-.07-.76,4.75-.34-3-.62.08.65,4-9.35-1.19c2,.87,3.41,3.56,5.1,2.45-3.92-.34-7.3,3-11.13,5.37L84.56,109l-.85,1.62-.45-2.49.46.23a8,8,0,0,0,1.1-1.73c.3-.87.3-1.84.59-2.72.13-.38.66-.63,1-.94l1.18,1.43.69-3.9c.25-.46.88-1.09.85-1.68-.09-2,1.09-3.69.74-5.77-.29-1.74,1.24-3,3.06-2.76,3.29.35,6.57.84,10.26,1.32l-.88,1.21,14,3.5-1-1.23c1.86.43,3.39,2.23,5.6,1.17l-.81.48,3.55,1.13c-10.11-.66-19.57-4.59-29.52-5.93l-.14.72,1.92.35a12.12,12.12,0,0,1,2.59.5c3.62,1.62,7.1,3.64,10.85,4.89,2.69.9,4.08,2.86,5.84,4.67,2.82,2.88,6.57,3.75,10.3,4.84,6.27,1.82,12.8,3.12,18,7.55a9.53,9.53,0,0,1,1.36,1.91l-1-.56-.27.25,2.08,3-.19,1.86.55,0c.46-1.2,1-2.38-.57-3.36C145.08,118.35,145,117.72,144.78,117.28Zm82.69,162.37.54,3.87.67,0a26.39,26.39,0,0,0-.05-3.21c0-.25-.79-.4-1.21-.6.55-2.74,1.09-5.47,1.64-8.21l-.3-.08c-1,2.87-2,5.75-2.95,8.67Zm-4.42,12.06c.24-2.22.49-4.44.73-6.67l-.65-.05a37.46,37.46,0,0,0-.47,3.94,14.76,14.76,0,0,0,.42,2.76l1.71,5.65.63-.21-1.27-3.75.3-.12,2.1,3.07a17.28,17.28,0,0,1-1.81-9.59c-.34,1-.34,2.06-.6,3A9.06,9.06,0,0,1,223.05,291.71ZM180.3,273.57l.67,1.54.23-.1-2.31-11,.34-.14,1.07,1,.26-.19c-1.3-2.63-2.59-5.27-3.89-7.9l-.19.08.75,4.77.33-.54c.9,4.06,1.84,8.27,2.77,12.48-1-3-1.91-6-2.84-9a15,15,0,0,1-.34-1.91l-.58.1q1,4.89,2.05,9.76c-.37-.85-.78-1.67-1.08-2.54-1.48-4.28-.82-9-3.1-13.15-.57-1-1-2.16-1.44-3.24l-.57.22c3.28,6.18,2.4,13.55,6.15,19.64,0-.33,0-.66,0-1,.38.69.76,1.38,1.21,2.17Zm14.74,6c.5.75,1,1.51,1.37,2.05.4-.06.71-.21.83-.11a4.45,4.45,0,0,1,.71.84l.19-.13-1.85-6-.47.15c.35,1.21.71,2.42,1.06,3.63-3.77-6.44-2.85-13.77-4-20.72q.23,8.06,1,16a24.49,24.49,0,0,0,1.23,4.34l-2.62-5.68-.64.25,2.46,6.61.55-.16Zm69.65-42.51-2.6,2.37-3.82,3.51.64.76,15.47-11.6-.79,1.31.47.39,3.15-3.45-.34-.31-.87.21,1.28-2.53-.62-.5c-.84.68-1.69,1.33-2.5,2-2.8,2.43-5.58,4.88-8.36,7.32.63-.66,1.24-1.34,1.91-2,1.72-1.64,3.46-3.25,5.19-4.88l-.39-.41a20.25,20.25,0,0,1-3.08,2.28,58.07,58.07,0,0,1-6.27,2.57c-3.46,1.23-5,4.52-7.3,7l5.63-3.82.23.36-2.05,1.83.24.36ZM209,245.17c-.75,3.13-1.44,6-2.13,8.86l-1.37-.77-1.06,2.39a6.07,6.07,0,0,0,2.59-1.43,24,24,0,0,0,1.91-2.45l.4.29-2.72,4.2c.6-.35.82-.4.9-.53.85-1.49,2.41-2.39,2.2-4.73-.16-1.73,1.57-3.57,2.2-5.44.94-2.86,1.65-5.79,2.54-9l-1,.61v-5.65l.93,1.42.36-.2c-.1-2-.21-3.93-.31-5.89l-.59-.27L212.53,228c-.37-2.24-.75-4.6-1.14-7l-.6.11v1.92c-1.17-2.58-2.25-5-3.34-7.32-.21,1.08.61,2.58-1.54,1.61,0,0-.67.78-.58.94a19.93,19.93,0,0,0,1.52,1.94c.68.87,1.34,1.77,2,2.66l-.46.3-1.07-1.2-.38.18,2.21,6.91,1.47-1.38c.7,3.05,1.3,5.69,1.91,8.32l-.32.08-.81-2.35-.26,0c-.42,4.07-.85,8.14-1.29,12.32Zm-16.82,35.42c-1.35-4-3.26-7.87-3.79-11.9s.26-8.32.48-12.48l-.31-.09-.83,1.57-.44-.19,1.36-3.8,2.09.51.12-.47c-2.13-.12-3.6-2.37-6.34-1.72l2.18,1.91c-3-.59-4.35.19-3.79,2.23,1.15,4.23,2.19,8.59,4.07,12.51,1.62,3.38,2.45,7,3.78,10.4C191.09,279.83,190.49,281,192.22,280.59Zm10.15-27.65.6.3c1.49-2.58,3.39-5,4.36-7.79,1.11-3.17,1.34-6.63,2-10s-.61-6-1.93-8.81l.27,2.68h-.36l-.35-1.79-.29,0q-.8,8.82-1.6,17.65l.88-.5.37.33ZM213,279.55c.48-3.66.45-6.88,2.14-9.76a51.12,51.12,0,0,0,2.57-5.63c.1-.23-.06-.56-.1-.84-.35.12-.91.16-1,.39-.65,1.57-1.38,1.07-2.17.17L212.75,262c-.65,2.86-1.21,5.36-1.84,8.18l1.25-.41C212.12,272.93,211.14,276.06,213,279.55Zm-62.19-46.43-.42-.05c0,2.28-.35,4.64.07,6.84.79,4.07,2,8.05,3.06,12.07.51,2,.62,2.19,2.61,2.81a14.53,14.53,0,0,1-1.07-2.26,32.13,32.13,0,0,1-1.63-6.36c-.17-2-1.8-3.91-.26-6,.11-.14-.15-.57-.24-.86-.3-1-.59-2-.9-3a2.21,2.21,0,0,0-.2-.43l-.25,1.29h-.23ZM259.3,285.46c-.1-1.12-.24-2.24-.3-3.36s0-2.13,0-3.2-.21-2.26-.17-3.39a28.53,28.53,0,0,1,.44-3c.26,5.4-.41,10.77,1.7,15.92a21.77,21.77,0,0,0,.11-2.79c0-4.1-.18-8.2-.07-12.29,0-1.87-1-2-2.28-2.14C257.67,274.18,257.89,282.49,259.3,285.46Zm-56.21-63.55,1.69.45.49,3.18c1.18-2.86,1-5-1.22-6.65l-1.88,2c.66,5.3,1.31,10.42,1.94,15.41C205.71,234.64,205.63,233.27,203.09,221.91Zm2-67.45c-3.4,2-3.09,5.38-4.28,8.39l2.13-.75-1.09,3c.63-.47.86-1.15,1.3-1.63,1.56-1.72,3.24-3.33,4.75-5.09.32-.36.25-1.18.16-1.75-.23-1.45-1.42-.34-2.11-.66-.1,0-.61.59-.8,1-.61,1.28-1.16,2.6-1.74,3.9l-.67-.28c0-1-.59-2,1.15-2.76C204.67,157.44,204.74,155.62,205.12,154.46ZM217,236.82l-.45.08-.31-1.15c-.4,2.12-.12,4.26-.48,6.28a29.12,29.12,0,0,1-2.06,5.45l.42.14,1.69-1.49c-.31,1.51-.54,2.58-.77,3.66,3.08-4.84,3.62-17.11.6-19.73C216.13,232.31,216.58,234.57,217,236.82Zm-5.8,46.46c-1-4.79-2-9.29-2.92-13.79l-.75.13a23.06,23.06,0,0,0,.32,4.87c.84,3.1,2,6.1,3,9.16.51,1.61,1.18,1.72,2.24.19.05,1.06.1,1.9.15,2.89a5,5,0,0,0,.81-.46,4.66,4.66,0,0,0,.53-.6C212.6,281.6,212.45,281.47,211.23,283.28Zm47.33,7.77-.39.11.62,3.54-.32,0c-.57-1.68-1.14-3.37-1.87-5.55-.82,3.23.5,5.32,2.1,7.09.51.57,2,.26,3.24.36-.86-2.65-1.61-4.94-2.36-7.23l-.51.13,1.3,5.41L260,295ZM200,197.64c-.43-2.35-.87-4.66-1.3-7l.47-.12,1.8,6.19.89-.26c-.9-3.42-1.79-6.83-2.77-10.58C197.34,190,198,196.18,200,197.64Zm48.48,76.66c-1.19,2.26-.38,3.94,1.29,5.6a18.89,18.89,0,0,0,.91-2.83,19.88,19.88,0,0,0,0-2.67,18.16,18.16,0,0,0,.13-2.64c-.07-.49-.63-.9-1-1.35-.45.34-1,.59-1.29,1a5.16,5.16,0,0,0-.29,1.66l.34.07,1-1.35v6.27l-.31.05C249,276.89,248.74,275.65,248.48,274.3Zm-49,8.88q-1.76-8.18-3.5-16.36A32.06,32.06,0,0,0,199.52,283.18Zm1.64-119.07-.75-.11q-.9,4.5-1.79,9l.42.11,1-2.44.73,1.19,1.51-4.7-.19-.1-.89,1.34Zm53.92,106.77c-2,2.49-1.61,10.31,1.28,13a22.32,22.32,0,0,0-1.29-3.85,3.73,3.73,0,0,1-.43-1.35C254.76,275.93,254.94,273.23,255.08,270.88Zm17.07-44.67.69.32c.59-1.5,1.49-3,1.67-4.51.12-1.07-.76-2.25-1.19-3.38l-.33.22Zm-15.2,55,.56,0V270.56A20.14,20.14,0,0,0,257,281.21Zm-.17,15.3c-3.07.41-3.29-1.85-3.85-3.75-.16-.54-.13-1.13-.27-1.68-.21-.75-.5-1.49-.75-2.23a20.1,20.1,0,0,0,.48,6.33C253,297.35,254.28,297.7,256.78,296.51ZM213.9,248.74a8.34,8.34,0,0,0-1.41,1.63c-.41.83-.45,2.45-.91,2.56-1.92.43-1.25,1.32-.71,2.36C212.62,253.55,214.54,252,213.9,248.74Zm-2.31,41.66-4.45-8.27C206.81,285.51,209.12,290.06,211.59,290.4Zm-10.85-18.68c0,3.88-.9,7.85,1.39,11.37-.13-1.18-.44-2.32-.64-3.48-.13-.77-.79-1.66-.25-2.36l.73,0ZM252.54,283q-.28-5.73-.58-11.46A18.37,18.37,0,0,0,252.54,283ZM147.09,240.83l-.51.23c1.34,3.91,1,8.63,6,11.32-1.45-2.07-2.87-3.61-3.7-5.43A38.8,38.8,0,0,1,147.09,240.83Zm40.41,30.52-.81.08.42,4.67.52-.05.42-1,1.66,3.79.34-.15Zm17.26-10.6c-.9.64-1.91,1-1.95,1.45a3.84,3.84,0,0,0,1.95,4Zm-13.32,15.57.47-.09c-.86-3.89-1.73-7.79-2.64-11.92C188.33,268.82,190.93,272.36,191.44,276.32Zm-61-156.49.86-.08V113h-.51v3.19l-.33,0-.61-1.16-.26.1Zm51.2,18.63c-1.68,1.07-3.93,7.42-3.14,8.92C179.52,144.45,180.58,141.43,181.63,138.46ZM157.79,241.07l-.48.15c.89,2.63,1.76,5.27,2.71,7.89.1.29.61.44,1,.72C159.88,246.69,158.84,243.88,157.79,241.07Zm-13.24.25.66-.17-2.8-9.06-.62.2Zm-47-139.11-.19-3.67-2.11,2.69L94.69,99C93,103.29,96.22,101.47,97.51,102.21Zm.19-8.16c-2.56-1-4.08,0-4.76,3.16.93-1,1.36-2.89,3-1.28ZM172,268.82l.63-.19-2.13-8.83-.65.17Zm-3.3-10.18.71-.24c-1.25-2.71-2.51-5.41-3.76-8.12l-.63.29Q166.88,254.61,168.71,258.64Zm-8.27-134.38v8.35a27.67,27.67,0,0,0,1-4.53C161.55,126.82,162.23,125.21,160.44,124.26ZM98.85,102.4l.7-6.24A5,5,0,0,0,98.85,102.4ZM255.93,272.25a7.46,7.46,0,0,0,0,7ZM140.25,233.48l-.49.18,3.11,10,.58-.18Zm58,28.19-.67.06.79,8.86.62,0C198.77,267.58,198.53,264.63,198.28,261.67Zm49.53,30.47.49-.13c-.19-.77-.39-1.53-.56-2.31a14.22,14.22,0,0,1-.47-2.72,24.74,24.74,0,0,1,.42-3.18C245.77,286.69,247,289.4,247.81,292.14Zm-42-19.5-.47.14,2.34,7.53C208.45,277.37,206.51,275.19,205.84,272.64ZM97.73,191.52l-.52.25q1.83,3.67,3.67,7.35l.53-.26C100.18,196.42,99,194,97.73,191.52ZM217,286.4v-6.21A4.77,4.77,0,0,0,217,286.4Zm36.24-9.06c.25-2.24.51-4.49.76-6.74C252.21,272.65,252.82,275,253.2,277.34Zm-32.54.13.8.18,1.26-6.86-.44-.1c-.23,1-.46,2.05-.68,3.07-.1.47-.07,1.32-.27,1.37C219.51,275.61,220.69,276.66,220.66,277.47Zm-22.43-6.76-.73.13,1.41,7.74.53-.11C199,275.88,198.63,273.3,198.23,270.71Zm-53.76-67.33c.84-1.55,2.67-2.58,1.33-4.52C143.45,199.93,144.78,201.71,144.47,203.38ZM87.88,164.47l-.66.3,3,6,.63-.31Zm133.74-3.15h-.46V168h.46ZM200.89,263.8l-.59,0c.36,2.85.71,5.69,1.07,8.54l.58-.07Zm-4.1-3.36h-.73q.39,3.89.77,7.77l.55-.05C197.18,265.59,197,263,196.79,260.44Zm-2,10.52.58,0c-.34-3.16-.67-6.33-1-9.49l-.4,0Zm6.66-120.79v5C203.15,153.22,203.25,151.83,201.47,150.17Zm-54.73,98.67.61-.31c-.88-2.07-1.77-4.13-2.65-6.2l-.66.3Zm87.71,40.42-1,.32,1.66,4.57.66-.22C235.36,292.37,234.9,290.82,234.45,289.26Zm-7.74-23.49-4.64-.73C222.84,266.67,224.91,267,226.71,265.77Zm-72.39-20-.39.12,2.22,7.52.56-.17C155.91,250.75,155.12,248.26,154.32,245.77Zm19.58,23,.65-.12-1.83-7.13-.52.13C172.77,264,173.33,266.38,173.9,268.75Zm69.76,13.66.8-.1c-.24-1.71-.47-3.43-.71-5.14l-.75.1Zm-13-14.28c-.15-1.85-1.5-1.8-2.44-2.11-.38-.12-.91.25-1.73.51ZM199.52,154.27l.78.16.79-5-.63-.12C200.15,151,199.83,152.63,199.52,154.27Zm-7.75,107.34a12.92,12.92,0,0,0,.55,7.8Zm-17.65-12.87.18,2,1-.73.79,2.58h.39l.69-1.93Zm58.48,26-.44.15a10.36,10.36,0,0,0,.05,2.16c.07.35.6.6.92.9.23-.42.76-.93.65-1.24A9.1,9.1,0,0,0,232.6,274.78ZM206.86,168.92c-.21-2-.37-3.67-.53-5.3A4.28,4.28,0,0,0,206.86,168.92Zm3,117.3.64-.22-1.6-4.67-.64.22Zm53,9.77.41-.26-2.35-5.51C261.24,292.28,261.35,294.43,262.84,296ZM169.06,254.7l.75-.33-2.18-4.75-.43.18ZM104.59,104.25,104.9,99C103.68,100.93,103.55,102.84,104.59,104.25Zm60.14,144.88.55-.23-2.18-5.31-.5.21Zm64.2,38.8.85-.06-.25-3.87-.79.05Zm-25.58-4.19.67-.22-1.31-5-.48.12C202.6,280.35,203,282,203.35,283.74ZM185.17,143l1.83-3.81C184.91,139.28,184.79,139.54,185.17,143ZM169.79,250.57l-.54.17q.94,2.77,1.87,5.55l.4-.13C171,254.3,170.37,252.43,169.79,250.57Zm21,10.59-.42-.07v6.2h.42Z"/><path d="M272,286.68c-1.33-1.93-1.32-4.74.24-5L271.15,279l-.43.1.12,1.37-.25.11c-1.47-3.91-2.93-7.83-4.43-11.84-1.12.35-1.69,2.35-3.73.93l3.91-5.38.4.24c-.31,1-.63,2.07-1.08,3.56l2.25-.92c-.12.44-.25.93-.49,1.86,2.07-2,3.88-3.57,5.53-5.31,2.09-2.19,4-4.56,6.11-6.71.52-.54,1.58-.55,2.45-.81l.25,1.49.35,0c.18-1.21.36-2.43.55-3.65l.61.07v.93c2.43-4.23,4.93-8.6,7.47-13,.36-.62,1.19-1.08,1.31-1.7.32-1.71-.89-2.44-2.29-3s-1.73,0-2.39,1.18a44.48,44.48,0,0,1-4.15,5.57,2.41,2.41,0,0,1-1.62.59c2.83-2.45,5.4-4.92,4.32-9.6,1,.39,1.74.66,2.46,1s1.7.79,2.54,1.17c2.35,1.07,2.61,2.73.83,4.61a3.25,3.25,0,0,0-.75,1.89c-.18,3.71-.25,7.42-.4,11.13a17.78,17.78,0,0,1-.36,1.88,7,7,0,0,0-.13,1.82c.09.62.46,1.19.58,1.8.86,4.48,1.8,8.94,2.51,13.44.65,4.13-.31,5.5-4.17,7.19-1.54.68-2.53.4-3.19-1.12a13.52,13.52,0,0,0-.84-1.9,6.55,6.55,0,0,0-1.24-1.09c.14-2.71-1-5.08-1.89-7.51a.76.76,0,0,0-.24.58c.11,1.89.26,3.78.34,5.67.07,1.66.74,3.23,1.95,3.76-.46-1.33-.86-2.46-1.4-4L283.8,277l2,5c-1.88,1.11-2.51-1.12-3.89-1.87l-1,1.85-2-2.21-.35.31,2,2.29c-1.44,1.25-3.14,2.77-4.9,4.2a4.37,4.37,0,0,1-2.24,1.28c-2.08,0-3,1.3-3.83,2.84a15.34,15.34,0,0,1-2.46,3.23c1.47-2.52,2.17-5.54,4.81-7.28a3.2,3.2,0,0,0,1,.48,2.1,2.1,0,0,0,1-.28c.05,0,0-.34,0-.51l-1,.17-.68-3.64-.54.09C271.79,284.18,271.91,285.43,272,286.68Zm16.76-23.52.06,0V250.63l-.31,0-.67,5.24h-.23v-4a10,10,0,0,0-.76,3.4c-.12,1.1-.28,2.2-.43,3.29l-.31,0v-4.2h-.27l-.57,4.24-.28,0V256l-.52-.06c-.25,2-.51,4-.76,6l-.31,0v-4h-.17c-.19,1.23-.37,2.47-.63,4.19l-.48-1.84-.36,0v7.16l.21.06c.17-1,.33-2,.49-3.05-.62,4.53,1.25,8.47,3,12.43-.57-2.84-1.13-5.68-1.7-8.52l.39-.06c.9,3.84,1.79,7.69,2.77,11.91a2.49,2.49,0,0,0,3.58-1c-.33-.88-.67-1.76-1-2.65l.35-.17,1.35,1.66c1.49-1.62,1.15-9.38-.44-12.73-.47,3.79,1.52,7.56.76,11.42l-1-.05a19.89,19.89,0,0,0,.39-3.89c-.22-2.64-.63-5.26-1.09-7.87A6.47,6.47,0,0,0,288.8,263.16Zm-7.82-.27-.3,0-.27,4.69.57,0Z"/><path d="M172.41,190c-.31-.42-.8-.8-.91-1.27-.39-1.76-1.65-1.55-2.57-.91-1.1.75-3,1.5-1.15,3.54.46.51-.1,1.91-.22,3.3L166,190l-3.69,3.59.06-.06c-.15-.17-.46-.45-.43-.5.45-.68.82-1.67,1.46-1.92,3-1.2,3.38-4.46,5.07-5.91-.3-1.73-.52-3-.75-4.33l.61-.12.24,2.21.37,0,1-4,.89.16-.71-3,1.21.7.25-1.26,1.64,5.35-1.27.52,2.92,1.45-.44-2.48c.92,2.17,1.66,3.91,2.54,6l1.34-2.35a16.79,16.79,0,0,0,3.07,5.4c.51.67.25,1.91.37,2.88a13.67,13.67,0,0,1,.18,3.58,38,38,0,0,1-.9-3.72c-.25-1.71-1-2.79-2.81-3-.08,1.65-.16,3.33-.24,5l-.46.07-2.4-7.66-.49,1.57-1-1.75L172,188.19l.38,1.79Z"/><path d="M201.2,135c-1.07,1-2,.52-3.13-.07-6.23-3.34-12.5-6.58-18.76-9.87a3.75,3.75,0,0,1-1.51-1.28l2.15,1,.19-.32c-2.11-1.07-4.23-2.12-6.32-3.22-2.34-1.23-4.65-2.54-7-3.75s-4.78-2.3-7.13-3.52-4.61-2.51-6.91-3.77l.26-.48,2.94,1.64.27-.4-3.38-2.24.12-.25a2.74,2.74,0,0,1,.87.14c5.32,2.74,10.65,5.45,15.93,8.26a32.44,32.44,0,0,1,6.09,3.8c1.89,1.64,4.48,1.68,6.27,3.29a8.83,8.83,0,0,1,2,2.46l9.63,5.65.24-.27-2.5-1.87.18-.27,9.48,5.42Z"/><path d="M147.91,150.5c1.45.08,1.61.44,1.45,5l-1.79-3.67-.42.06.9,9.72-.26.09-1-6.81-.27,0-.68,4.1-.37-.19c-.47.82-1.29,1.62-1.35,2.48-.37,4.77-.55,9.55-.79,14.32a5.52,5.52,0,0,1-.6,2.62c0-2.79-.1-5.6,0-8.39.14-3,.41-6.11.79-9.14.11-.86.84-1.65,1.47-2.81l-.92-.66a9.59,9.59,0,0,0,2.08-7.66,15.83,15.83,0,0,0-1.36,2.91,19.26,19.26,0,0,1-.43,3c-.18-5-1.63-10-.28-15.19A15.36,15.36,0,0,0,147.91,150.5Z"/><path d="M242.76,196.36c-.72-.47-1.56-1.27-1.81-1.12a13.77,13.77,0,0,0-3,2.57c-.19.22.47,1.13.66,1.74a20.26,20.26,0,0,1,.85,4.1l-.85-1.3-.42.12c.35,1.44.71,2.89,1.07,4.37l-1.17-.7c.9,1.76,1.62,3.15,2.34,4.55l-.51.31-2.28-3.86-.41.1c.32,1.75.63,3.5,1,5.26l-.64.12c-1-2.48-2-5-3-7.46l.28-.18,1.65,2.54.48-.23-1.37-3.36.19-.22,2.16,2.63c-.24-2-.44-3.69-.69-5.76l-2.1,2.47c-.32-2.11-2.22-3.61-1-6,.28-.52-.07-1.43-.25-2.12-.26-1-.63-2-1-2.94l.52-.18,2.43,6.4.52,0c.15-.73.3-1.45.48-2.28,1.69.24,2.52-.6,2.24-2.75l1.27,1.71v-2.86l3,2.54Z"/><path d="M135.63,146.88v5l-.14,0-.64-2.47-.44-.11q-1.14,5.55-2.29,11.11l-.6-.09c.3-2.58.5-5.18.93-7.74.74-4.33,1.65-8.63,2.42-13a36.59,36.59,0,0,1,.81-4.67c.46,2.5.91,5,1.37,7.5l-.33-.16-.53,1.68.58-.31,4.58,3.29.35-.81.42.06-.33,3.13-.47,0-.61-1.36-.4.07.15,2.62-.34,0-.36-3-.37-.08c-.3,1.26-.59,2.52-1,4.23-.2-1.66-.34-2.95-.51-4.23,0-.4-.14-.79-.21-1.19a3.94,3.94,0,0,0-1,.78c-.21.34-.19.81-.52,1.22L136,147Z"/><path d="M264.89,172.79a37.23,37.23,0,0,0-4.6-3.78c-4-2.42-8.21-4.61-12.34-6.87-6-3.29-12.06-6.5-18-9.86a44.68,44.68,0,0,1-4.69-3.47l.23-.41c1,.55,2.08,1.08,3.1,1.66,5.11,2.87,10.18,5.79,15.31,8.62,3.42,1.89,7,3.57,10.37,5.5s6.46,3.86,9.62,5.92a8.26,8.26,0,0,1,1.64,2.16Z"/><path d="M84.48,121l1.62-.88.22.33-3.64,2.77c-.64-3.68-1.36-7-1.77-10.33-.6-4.83.67-6.11,4.22-10.18-1.29,1.22-.11,3.5-2.1,4.45-.18.08-.18.58-.24.89-.38,1.79-.21,3.63-1.22,5.4-.52.92.2,2.54.58,3.81,1-4.22,8.62-11.08,12.36-11.5-2.35,1.91-5.14,4.07-7.81,6.36S83.38,117.49,84.48,121Z"/><path d="M88.73,122.46l1.1-.18-5,7.28-.35-3.48h-.5v9.41c-.54-.39-.72-.46-.73-.54-.24-3.37-.5-6.75-.66-10.13a2.1,2.1,0,0,1,.79-1.35,30.56,30.56,0,0,1,3-2.26,10,10,0,0,1,1.84-.74Z"/><path d="M212.94,204.16c2.91,1.45,2.17,5.29,4.67,7.3.52-3-.62-5.91,1.7-8a12,12,0,0,0,1.66,2.24,9.18,9.18,0,0,0,2.22,1.09l-.3.61-2.77-1.21.22,1.71-1.77-.25c1.16,2.35-1.37,5.26.61,7.43-.18.85-.6,1.6-.4,2.12.68,1.76,1.58,3.44,2.38,5.15a7.36,7.36,0,0,1,.71,2.26c-1.86-3.45-4.21-6.71-4.24-10.9,0-.52-.53-1-.8-1.57-.79-1.56-1.56-3.13-2.35-4.68-.39-.77-.16-2-1.54-2.07C212.92,205.43,212.94,204.63,212.94,204.16Z"/><path d="M129.58,187.35l-1.25-5.3.35-.12.54.9.41-.08-.29-4.32H129l-.19,1.38c-.08-1.66-.56-3.14.57-4.88.88-1.34.36-3.6.48-5.78a10.41,10.41,0,0,0-3.45,7l-.61-.17,1.77-8.79,3.18,1.45c-.28,6-.59,12.3-.89,18.66Z"/><path d="M126.72,98.82c8.34.41,15,3.79,21.55,8.91Z"/><path d="M232.58,237.92c1.64-.64,3.27-1.34,4.93-1.89,1.23-.4,2.37-1.34,3.83,0,.5.48,2.12-.23,3.23-.39a17,17,0,0,1,1.73-.2c.07,0,.29.55.23.61-.5.45-1,1.15-1.58,1.21-3.59.38-7.2.61-10.8.88-.52,0-1.05,0-1.57,0Z"/><path d="M152.4,198.76c-.17-.22-.34-.43-.5-.66s-.28-.4-.51-.73L150,198.81c-.1-1.78-.18-3.24-.27-4.7l.57-.48.48,2,1-.63c-.31-1.41-.24-3.09-1-4.17-1.72-2.39-.25-4.75-.84-7.06l.87,0v5.18l.44.06.22-1.44c.42,3.83.83,7.47,1.23,11.11Z"/><path d="M122.53,174l2,.69c-2.64,7.21-1.31,14.78-.68,22.32l-.59.14a6.18,6.18,0,0,1-.5-1.66c0-6,.07-12.08.07-18.12A32.88,32.88,0,0,0,122.53,174Z"/><path d="M205.33,137.5c6.12,2.15,11,6.75,17.2,8.76l-.25.64a24.26,24.26,0,0,1-3-1.09c-4-2.08-8-4.21-12-6.35-.79-.42-1.53-.92-2.3-1.38Z"/><path d="M204.77,194.05a8.85,8.85,0,0,1-1.39.13c-.54-2.06-1-4.13-1.47-6.21,0-.17.22-.41.47-.85.54,1.19,1,2.19,1.45,3.19l.26-.08L203,184.68l.32-.06,2.83,11.13-.27.14Z"/><path d="M100.52,171.42c-.83-5.63-1.15-11.26.62-16.88v16.88Z"/><path d="M182.9,265.49l.47,2.1.22-.8c1.06,4,2.18,8.33,3.33,12.7-.41-.34-1.37-.73-1.54-1.34-1.15-4.16-2.14-8.36-3.18-12.54Z"/><path d="M252.38,232.39H242.32a8.82,8.82,0,0,1-.23-2.36c.12-.82.71-1.31,1.62-.61a40.46,40.46,0,0,0,3.35,2.36,3.32,3.32,0,0,0,1.59.29c1.24,0,2.49,0,3.73,0Z"/><path d="M164.18,132.12v15.17h.12c-.22-1.89-.38-3.79-.69-5.67-.12-.73-.68-1.38-.82-2.11a10.19,10.19,0,0,1-.11-2.59c.1-1.87.28-3.73.43-5.6l-.06.06,1.18.78Z"/><path d="M193.65,209.81l.72,1.8.53-.12c-.24-1.21-.49-2.42-.72-3.57,1.08.1,3.47,3.39,3.17,4.78l-1.91-1.15.61,4.23C194.83,214,193.18,212.63,193.65,209.81Z"/><path d="M154.64,202.87q-1.26-7.47-2.53-14.92l.58-.14c.34,1.38.71,2.76,1,4.14.58,2.54,1.2,5.07,1.66,7.63a17.71,17.71,0,0,1,0,3.26Z"/><path d="M158.25,138.87c0-2.32.35-4.71-.1-6.93a45.46,45.46,0,0,1-.45-6.46,7.89,7.89,0,0,1,.41-2.1l.63,0c.1.77.51,1.66.25,2.28-1.09,2.64-.33,5.16,0,7.76a28.79,28.79,0,0,1-.22,5.39Z"/><path d="M107,127.86l-.33,1.19c-.12-.18-.23-.28-.22-.35a10.87,10.87,0,0,1,1.13-3.38c1.79,3.56,0,7.36,1.26,10.88l-.54.13a8.88,8.88,0,0,1-.62-2.11c-.06-1.51.12-3,.09-4.53a9.78,9.78,0,0,0-.44-2Z"/><path d="M110.66,132.54V126.7l-.69,0-.5,5.31c-1-3.59-.19-6.22,2-6.17v6.74Z"/><path d="M186.29,173.83c.38-2.28.75-4.57,1.16-6.85.15-.87.44-1.71.58-2.58.11-.62.56-1.46-.62-1.62l1.53-3.17.41.13L186.94,174Z"/><path d="M123.09,134.53c.35-3.41.69-6.82,1.07-10.63l2.16,2.86-.2.24-1.14-.87.46,4.63-.63.06v-2.91l-.66,0v6.69Z"/><path d="M259.61,187l-2.7-8,1.7-.91c.48,3,.93,6,1.39,8.88Z"/><path d="M217.1,219.76,216,217.67l-.43.17,1.65,4.46-.49.18a29.4,29.4,0,0,1-1.65-4.69,17.75,17.75,0,0,1,.15-5.06c.72,2.29,1.45,4.58,2.17,6.88Z"/><path d="M265.47,287.27c.48,1.67,1,3.34,1.53,5.36-2.75-2.95-4.9-13.06-3.87-16.17.42,3.1.84,6.59,1.37,10.06.19,1.22.31,1.2,1,.71Z"/><path d="M262.1,204.4c-1-1.08-1.92-2.2-3-3.19-.27-.25-.95,0-1.55,0l-2.46-2.67C257.24,198.05,261.1,201.17,262.1,204.4Z"/><path d="M185.88,210.6c1.12,2.79,2.45,5.9,3.63,9.07a7.23,7.23,0,0,1,.23,3.26C189.19,218.45,185.34,215,185.88,210.6Z"/><path d="M151.92,141.4l.84,16.67a19.12,19.12,0,0,1-.91-8.13,63.27,63.27,0,0,0-.34-8.46Z"/><path d="M155.06,155.91l.87-6.5.52,1.91,1.77-2,.38.2-2.95,6.5Z"/><path d="M121.32,134.26l1.62-12,.64.08-1.5,12Z"/><path d="M161.11,197.43v11.8c-.16-.25-.68-.66-.69-1.08-.07-3.56,0-7.13,0-10.7Z"/><path d="M178,223.6l1.56,8.61C177.92,230.35,177.31,227.17,178,223.6Z"/><path d="M114.64,107.68c-3.22-.24-5.45,3-8.74,2.52l-.21-.68,8.74-2.79Z"/><path d="M158.18,197.78c.25,2.78.49,5.55.78,8.74C157.29,202.73,157.29,202.73,158.18,197.78Z"/><path d="M88.85,156.3c1.71-3.71-1.13-7.79.58-11.41.29,2.68.71,5.39.83,8.11a13.3,13.3,0,0,1-.83,3.56Z"/><path d="M226.9,261.3a19,19,0,0,1,1.34-3.48c.24-.4,1.11-1.41,2.08-.26.23.28,1.36-.19,2.28-.34Z"/><path d="M155.65,158.57l-1,13.67-.6,0,1.11-13.7Z"/><path d="M162.29,193.63c1.76.07,1.31,1.44,1.56,2.88l-.77-1.32-.42,0v9.86h-.49a31.16,31.16,0,0,1,.18-11.51Z"/><path d="M177.61,160.2,175.09,170h-.22a18,18,0,0,1-.28-2.91c0-.47.68-.87.86-1.38.36-1,.61-2.12.89-3.18.23-.85.45-1.71.68-2.56Z"/><path d="M193.62,173.59c.51-3.38,1-6.75,1.55-10.37,1.19,1.1,1,1.69.45,2.78-.72,1.57-.67,3.5-1,5.27-.15.82-.4,1.62-.61,2.43Z"/><path d="M201.05,241.61c-2-2.84,0-5.83-.83-8.73h.83Z"/><ellipse cx="126.12" cy="143.56" rx="0.25" ry="8.58"/><path d="M83.81,147.35c.22-2-2-3.75-.51-5.83C84.73,142.16,84.91,144.1,83.81,147.35Z"/><path d="M133.08,214.05q-1.19-6.45-2.38-12.9l.56-.1q1.14,6.51,2.29,13Z"/><path d="M191.13,160.15l-2,9.1-.57-.13C189.69,166.29,188.3,162.88,191.13,160.15Z"/><path d="M245.46,172.79l-.07-2.12-.23-1,.64-.17,2,7.73-.43.18Z"/><path d="M130.47,131.84c-.42,3.77-.84,7.65-1.26,11.48C128.39,142.2,129.41,133.22,130.47,131.84Z"/><path d="M211.34,203.15l.71,6.68C210.51,208,209.91,204.6,211.34,203.15Z"/><path d="M185.9,157.18,184.81,163h-.32l-.28-1.3-1.13,2.83c.37-2.68,1-5.26,2.88-7.29Z"/><path d="M160.67,145.73l.9-10.29.55.05-.84,10.29Z"/><path d="M237.35,181.23l2.58,9.34-.61.16-2.52-9.36Z"/><path d="M122.11,120.46l-.59-6.32.76-.06A10,10,0,0,1,122.11,120.46Z"/><path d="M240.48,229.85c.45-2.41,3-4.08,1-6.6l.84,0c.16,1.15.33,2.3.46,3.46C242.91,228.16,242,228.92,240.48,229.85Z"/><path d="M262.39,285l-.5-10,.71,0v10Z"/><path d="M183.19,154.23l-2.46,7.26C180.61,158.74,181.05,156.18,183.19,154.23Z"/><path d="M173,164c-1.51-1.92-1.67-4.62,0-7.82Z"/><path d="M83.76,149.18c.8,2.28,1.53,4.14,2.09,6.06a5.44,5.44,0,0,1-.21,1.92l-.71,0Z"/><path d="M275.51,249.25l5.37-4.12.43.56c-1.84,1.34-3.21,3.31-5.46,4.1Z"/><path d="M265.51,287.23a40.07,40.07,0,0,1-1-10.16l.93,0v10.23S265.51,287.23,265.51,287.23Z"/><path d="M191.8,152.26c-.54,2.33-1.09,4.67-1.68,7.19C189.47,158.23,190.31,154.24,191.8,152.26Z"/><path d="M154.56,185.05V178.7l.32-.06.63,6.42Z"/><path d="M167.07,199.71l.63,7.93-.57,0q-.31-4-.62-7.93Z"/><path d="M204.54,180c0,1.79,1.6,3.48,0,5.55-.28-1.94-.54-3.71-.8-5.48Z"/><path d="M181.29,172.35v7.39l-.37,0-.43-7.41Z"/><path d="M118.53,187.5v-9.16H119v9.15Z"/><path d="M124.48,206.61c-1.55-2-1.34-4.34-1.55-6.62l.5-.09Z"/><path d="M267.4,255.09c1.15-1.55,2.31-3.07,4.9-3.1-1.62,1.44-2.89,2.82-4.94,3.06Z"/><path d="M229.34,192c1.47,1.43,2.87,2.79,4.26,4.16l-.77.79a13.07,13.07,0,0,0-1.2-1.71,3.45,3.45,0,0,0-1.6-1.18C228.49,193.85,228.71,193.14,229.34,192Z"/><path d="M145.94,181.4c.34,3,.67,6.1,1,9.16l-.6,0q-.36-4.66-.71-9.33Z"/><path d="M191.27,176.59c-.89-2.58.16-4.64,1.66-7.08C192.3,172.19,191.79,174.39,191.27,176.59Z"/><path d="M195.63,250.52l2.63-3.14.61.44-2.23,4-1-1.31Z"/><path d="M268.36,243.29l1.93-4.52.72.32c.16,1.85-1.44,2.94-2.12,4.43Z"/><path d="M126.85,129c-.12,2.59-.23,4.91-.34,7.24C125.63,135.18,125.74,130.84,126.85,129Z"/><path d="M115.2,176.62c.46-2.91.93-5.82,1.39-8.73l.57.09-1.62,8.7Z"/><path d="M233.81,169.62l-2.05-5.82h1.13c.5,2,1,3.83,1.41,5.67Z"/><path d="M221.6,253.72l2.52.54-2.94,2.35-.5,0c.1-.43.16-.88.3-1.31S221.35,254.34,221.6,253.72Z"/><path d="M228.63,180.27q-.52-4.12-1-8.27l.42-.06,1.23,8.24Z"/><path d="M134.28,182.62c.24,2.43.47,4.86.71,7.3l-.48.05c-.29-2.43-.58-4.85-.88-7.28Z"/><path d="M194.42,161.57c-.52,2.47-1,5-1.57,7.42l-.84-.23,2.43-7.17Z"/><path d="M256.22,181l-3.09-6.11c2.65,1.19,2.28,4,3.53,5.9Z"/><path d="M255.2,174.24l-4.77-2.81.37-.65,4.79,2.81Z"/><path d="M149.25,173.9v-7.21h.11l.57,7.23Z"/><path d="M244.49,206.18l-2.66-7.29.48-.17c.93,2.46,1.86,4.91,2.8,7.37Z"/><path d="M151,150v8l-.22,0-.48-7.95Z"/><path d="M238,294.21l3.64,5.8-.63.36-3.48-5.9Z"/><path d="M280.61,235.81c.41,1.52-.69,3.41-2.89,4.44Z"/><path d="M268,279.78v7.51l-.39,0v-7.55Z"/><path d="M161,147.73l-1.09,6.84-.56-.09c.36-2.28.73-4.56,1.09-6.84Z"/><path d="M102.3,157.9l.93-7,.55.08q-.47,3.48-1,7Z"/><path d="M214.32,196.75l-1.91-7.59.49-.13,1.89,7.59Z"/><path d="M159,152.3c-.1,1.41-.82,2.88.88,3.71.1.05-.13.73-.23,1.25C157.86,155.26,157.68,153.88,159,152.3Z"/><path d="M100,182.37q-.58-3.54-1.16-7.08l.53-.08c.34,2.37.69,4.73,1,7.1Z"/><path d="M210.58,211.44c.93,1.54,2.52,2.85,2,4.89l-.64.2c-.42-1.71-.85-3.43-1.27-5.14Z"/><path d="M211.59,186.38l-1.83-6.7.48-.14,1.84,6.7Z"/><path d="M82,150.39l-.9-7.21.48-.07.85,7.26Z"/><path d="M144.73,174.86l.51-7.14.49,0-.56,7.11Z"/><path d="M266.12,211l-3-5.12.63-.34q1.44,2.59,2.87,5.19Z"/><path d="M268.72,244.84l3.69-5.62.49.33-3.72,5.6Z"/><path d="M194,234l2.19,6.07-.62.2-1.92-6.16Z"/><path d="M187.39,159.16c.4-1.73.79-3.46,1.28-5.63,1.64,2.61-1.29,3.82-.52,5.79Z"/><path d="M125.83,176.72l-.38,4.61-.5,0v-4.64Z"/><path d="M182.69,193.15l-.56-6.75.1,0c.27,1.08.61,2.14.79,3.24s.19,2.32.28,3.48Z"/><path d="M106.64,130.78c.12,2.22.23,4.45.35,6.67l-.64,0v-6.63Z"/><path d="M180.72,170.56a19.23,19.23,0,0,0,0-2,14.12,14.12,0,0,0-.42-1.82l1.79-.77-1.14,4.64Z"/><path d="M116.85,166.48l.57-5.38.48,0c-.1,1.81-.19,3.62-.29,5.43Z"/><path d="M164.68,205.76,164.3,199l.46,0c.18,2.24.37,4.49.56,6.73Z"/><path d="M168.62,201.87c.42,2.75.84,5.51,1.27,8.26l-.36.06c-.44-2.76-.87-5.52-1.31-8.28Z"/><path d="M121.84,228.7l-1.29-4.81.58-.16,1.48,4.7Z"/><path d="M231,183.32l-.78-3.91C231.82,180.21,231.82,180.21,231,183.32Z"/><path d="M213.25,185.18l-.93-4.93.51-.11,1.16,4.91Z"/><path d="M168.7,190.06c.54,1.35,1.08,2.7,1.73,4.3-2.21-.92-1.75-2.7-2.23-4.08Z"/><path d="M192.77,190.38l1,5.29-.34.06-1.26-5.34Z"/><path d="M122.89,111.31c2,2.38.71,4.82.79,7.1Z"/><path d="M156.46,182.6l-.26-3.93C157.3,179.2,157.3,179.2,156.46,182.6Z"/><path d="M251.68,178l-1.12-5.37.44-.16a16.54,16.54,0,0,1,.87,2.6,15.88,15.88,0,0,1,0,2.76Z"/><path d="M183.8,181.84c.21,2.13.41,4.26.62,6.39l-.24,0-1-6.26Z"/><path d="M201.14,135.08l3,1.69-.24.52-3.22-1,.5-1.2Z"/><path d="M137.05,148.92v7.35h-.29V149Z"/><path d="M178.84,206.17c-.49-2-1-4.09-1.48-6.13l.46-.11q.77,3.07,1.51,6.17Z"/><path d="M148.79,148.83l-.51-7.82h.21q.34,3.94.68,7.89Z"/><path d="M136.1,121.89c-.08-1.88-.17-3.76-.26-5.64l.43,0,.52,5.63Z"/><path d="M172.4,190c.43,2.12.87,4.24,1.3,6.37a9,9,0,0,1-1.3-6.39S172.4,190,172.4,190Z"/><path d="M213.52,207l1.2,5.06-.62.13q-.54-2.6-1.06-5.19Z"/><path d="M174.83,229.16l2,6.51-.39.13-2-6.5Z"/><path d="M117.64,158c.2-1.86.41-3.72.61-5.58l.49,0-.63,5.58Z"/><path class="cls-1" d="M209,245.17l.81.93c.44-4.18.87-8.25,1.29-12.32l.26,0,.81,2.35.32-.08c-.61-2.63-1.21-5.27-1.91-8.32l-1.47,1.38-2.21-6.91.38-.18,1.07,1.2.46-.3c-.66-.89-1.32-1.79-2-2.66a19.93,19.93,0,0,1-1.52-1.94c-.09-.16.53-1,.58-.94,2.15,1,1.33-.53,1.54-1.61,1.09,2.37,2.17,4.74,3.34,7.32v-1.92l.6-.11c.39,2.36.77,4.72,1.14,7l1.35-1.38.59.27c.1,2,.21,3.93.31,5.89l-.36.2-.93-1.42v5.65l1-.61c-.89,3.19-1.6,6.12-2.54,9-.63,1.87-2.36,3.71-2.2,5.44.21,2.34-1.35,3.24-2.2,4.73-.08.13-.3.18-.9.53l2.72-4.2-.4-.29a24,24,0,0,1-1.91,2.45,6.07,6.07,0,0,1-2.59,1.43l1.06-2.39,1.37.77C207.6,251.16,208.29,248.3,209,245.17Z"/><path class="cls-1" d="M192.22,280.59c-1.73.4-1.13-.76-1.42-1.52-1.33-3.44-2.16-7-3.78-10.4-1.88-3.92-2.92-8.28-4.07-12.51-.56-2,.8-2.82,3.79-2.23L184.56,252c2.74-.65,4.21,1.6,6.34,1.72l-.12.47-2.09-.51-1.36,3.8.44.19.83-1.57.31.09c-.22,4.16-1,8.41-.48,12.48S190.87,276.56,192.22,280.59Z"/><path class="cls-1" d="M202.37,252.94l4-7.85-.37-.33-.88.5q.79-8.83,1.6-17.65l.29,0,.35,1.79h.36l-.27-2.68c1.32,2.81,2.58,5.6,1.93,8.81s-.91,6.79-2,10c-1,2.77-2.87,5.21-4.36,7.79Z"/><path class="cls-1" d="M213,279.55c-1.82-3.49-.84-6.62-.8-9.79l-1.25.41c.63-2.82,1.19-5.32,1.84-8.18l1.64,1.89c.79.9,1.52,1.4,2.17-.17.1-.23.66-.27,1-.39,0,.28.2.61.1.84a51.12,51.12,0,0,1-2.57,5.63C213.41,272.67,213.44,275.89,213,279.55Z"/><path class="cls-1" d="M265.8,236.57c2.78-2.44,5.56-4.89,8.36-7.32.81-.7,1.66-1.35,2.5-2l.62.5L276,230.25l.87-.21.34.31-3.15,3.45-.47-.39.79-1.31-15.47,11.6-.64-.76,3.82-3.51,2.6-2.37Z"/><path class="cls-1" d="M265.8,236.57l-1.11.49-4.78,2.82-.24-.36,2.05-1.83-.23-.36-5.63,3.82c2.34-2.47,3.84-5.76,7.3-7a58.07,58.07,0,0,0,6.27-2.57,20.25,20.25,0,0,0,3.08-2.28l.39.41c-1.73,1.63-3.47,3.24-5.19,4.88C267,235.23,266.43,235.91,265.8,236.57Z"/><path class="cls-1" d="M150.77,233.12l.54,4.07h.23l.25-1.29a2.21,2.21,0,0,1,.2.43c.31,1,.6,2,.9,3,.09.29.35.72.24.86-1.54,2.06.09,4,.26,6a32.13,32.13,0,0,0,1.63,6.36,14.53,14.53,0,0,0,1.07,2.26c-2-.62-2.1-.79-2.61-2.81-1-4-2.27-8-3.06-12.07-.42-2.2-.07-4.56-.07-6.84Z"/><path class="cls-1" d="M259.3,285.46c-1.41-3-1.63-11.28-.57-14.29,1.26.18,2.32.27,2.28,2.14-.11,4.09,0,8.19.07,12.29a21.77,21.77,0,0,1-.11,2.79c-2.11-5.15-1.44-10.52-1.7-15.92a28.53,28.53,0,0,0-.44,3c0,1.13.13,2.26.17,3.39s-.05,2.13,0,3.2S259.2,284.34,259.3,285.46Z"/><path class="cls-1" d="M203.09,221.91c2.54,11.36,2.62,12.73,1,14.38-.63-5-1.28-10.11-1.94-15.41l1.88-2c2.2,1.61,2.4,3.79,1.22,6.65l-.49-3.18Z"/><path class="cls-1" d="M205.12,154.46c-.38,1.16-.45,3-1.2,3.33-1.74.8-1.17,1.74-1.15,2.76l.67.28c.58-1.3,1.13-2.62,1.74-3.9.19-.38.7-1,.8-1,.69.32,1.88-.79,2.11.66.09.57.16,1.39-.16,1.75-1.51,1.76-3.19,3.37-4.75,5.09-.44.48-.67,1.16-1.3,1.63l1.09-3-2.13.75C202,159.84,201.72,156.45,205.12,154.46Z"/><path class="cls-1" d="M217,236.82c-.45-2.25-.9-4.51-1.36-6.76,3,2.62,2.48,14.89-.6,19.73.23-1.08.46-2.15.77-3.66l-1.69,1.49-.42-.14a29.12,29.12,0,0,0,2.06-5.45c.36-2,.08-4.16.48-6.28l.31,1.15Z"/><path class="cls-1" d="M219.85,229.62a5,5,0,0,0,.21,2c.18.33,1.07.38,1.63.36,1,0,1.93-.23,2.9-.36l.11.54-3,.91.06,0-2.47.7q-3.67-7.17-7.34-14.34l.29-.16,7.63,10.37Z"/><path class="cls-1" d="M211.23,283.28c1.22-1.81,1.37-1.68,3.4,2.39a4.66,4.66,0,0,1-.53.6,5,5,0,0,1-.81.46c0-1-.1-1.83-.15-2.89-1.06,1.53-1.73,1.42-2.24-.19-1-3.06-2.18-6.06-3-9.16a23.06,23.06,0,0,1-.32-4.87l.75-.13C209.26,274,210.22,278.49,211.23,283.28Z"/><path class="cls-1" d="M164.23,132.17l-1.18-.78,1.71-7.5c2.37,1.39,5,1.52,6.41,4.15l-4.66-2.2c.49,1.74,1,3.53,1.5,5.32l-.47.13c-.43-1.42-.87-2.84-1.31-4.26h-.78Q164.83,129.61,164.23,132.17Z"/><path class="cls-1" d="M195.1,279.63a24,24,0,0,1-1.24-4.35q-.77-8-1-16c1.16,6.95.24,14.28,4,20.72-.35-1.21-.71-2.42-1.06-3.63l.47-.15,1.85,6-.19.13a4.45,4.45,0,0,0-.71-.84c-.12-.1-.43.05-.83.11-.37-.54-.87-1.3-1.37-2.05Z"/><path class="cls-1" d="M258.56,291.05l1.43,4,.38-.08-1.3-5.41.51-.13c.75,2.29,1.5,4.58,2.36,7.23-1.25-.1-2.73.21-3.24-.36-1.6-1.77-2.92-3.86-2.1-7.09.73,2.18,1.3,3.87,1.87,5.55l.32,0-.62-3.54Z"/><path class="cls-1" d="M200,197.64c-2-1.46-2.66-7.63-.91-11.74,1,3.75,1.87,7.16,2.77,10.58l-.89.26-1.8-6.19-.47.12C199.13,193,199.57,195.29,200,197.64Z"/><path class="cls-1" d="M178.58,272.52v1c-3.75-6.09-2.87-13.46-6.15-19.64l.57-.22c.48,1.08.87,2.21,1.44,3.24,2.28,4.1,1.62,8.87,3.1,13.15.3.87.71,1.69,1.08,2.54Z"/><path class="cls-1" d="M180.34,273.6c-.94-4.21-1.88-8.42-2.78-12.48l-.33.54-.75-4.77.19-.08c1.3,2.63,2.59,5.27,3.89,7.9l-.26.19-1.07-1-.34.14,2.31,11-.23.1c-.23-.51-.45-1-.68-1.54Z"/><path class="cls-1" d="M248.48,274.3c.26,1.35.51,2.59.75,3.84l.31-.05v-6.27l-1,1.35-.34-.07a5.16,5.16,0,0,1,.29-1.66c.26-.44.84-.69,1.29-1,.33.45.89.86,1,1.35a18.16,18.16,0,0,1-.13,2.64,19.88,19.88,0,0,1,0,2.67,18.89,18.89,0,0,1-.91,2.83C248.1,278.24,247.29,276.56,248.48,274.3Z"/><path class="cls-1" d="M199.52,283.18a32.06,32.06,0,0,1-3.5-16.36Q197.76,275,199.52,283.18Z"/><path class="cls-1" d="M267.12,185v8.31l-.57,0-1.9-12.38.53-.11c.33,1.7.67,3.41,1,5.11h.26v-3.35l.19,0c.17.82.35,1.65.52,2.48Z"/><path class="cls-1" d="M201.16,164.11v4.29l.89-1.34.19.1-1.51,4.7-.73-1.19-1,2.44-.42-.11q.88-4.5,1.79-9Z"/><path class="cls-1" d="M223.05,291.71a9.06,9.06,0,0,0,1.09-1.93c.26-1,.26-2,.6-3a17.28,17.28,0,0,0,1.81,9.59l-2.1-3.07-.3.12,1.27,3.75-.63.21-1.71-5.65Z"/><path class="cls-1" d="M255.08,270.88c-.14,2.35-.32,5.05-.44,7.76a3.73,3.73,0,0,0,.43,1.35,22.32,22.32,0,0,1,1.29,3.85C253.47,281.19,253,273.37,255.08,270.88Z"/><path class="cls-1" d="M221.69,233.12l3.83.26c.21,2.27-.39,2.85-2.56,2.36-.61-.14-1.2-.36-1.82-.47a15.29,15.29,0,0,0-1.72-.15l2.33-2Z"/><path class="cls-1" d="M272.15,226.21l.84-7.35.33-.22c.43,1.13,1.31,2.31,1.19,3.38-.18,1.55-1.08,3-1.67,4.51Z"/><path class="cls-1" d="M197.88,171.88q-.13,6.5-.3,13c0,.15-.17.3-.47.42.26-4.46-1.67-9,.81-13.36Z"/><path class="cls-1" d="M257,281.21a20.14,20.14,0,0,1,.56-10.65v10.63Z"/><path class="cls-1" d="M256.78,296.51c-2.5,1.19-3.83.84-4.39-1.33a20.1,20.1,0,0,1-.48-6.33c.25.74.54,1.48.75,2.23.14.55.11,1.14.27,1.68C253.49,294.66,253.71,296.92,256.78,296.51Z"/><path class="cls-1" d="M213.9,248.74c.64,3.21-1.28,4.81-3,6.55-.54-1-1.21-1.93.71-2.36.46-.11.5-1.73.91-2.56A8.34,8.34,0,0,1,213.9,248.74Z"/><path class="cls-1" d="M211.59,290.4c-2.47-.34-4.78-4.89-4.45-8.27Z"/><path class="cls-1" d="M200.74,271.72l1.23,5.56-.73,0c-.54.7.12,1.59.25,2.36.2,1.16.51,2.3.64,3.48C199.84,279.57,200.71,275.6,200.74,271.72Z"/><path class="cls-1" d="M252.54,283A18.37,18.37,0,0,1,252,271.5Q252.25,277.23,252.54,283Z"/><path class="cls-1" d="M147.09,240.83a38.8,38.8,0,0,0,1.76,6.12c.83,1.82,2.25,3.36,3.7,5.43-4.92-2.69-4.63-7.41-6-11.32Z"/><path class="cls-1" d="M187.5,271.35l2.55,7.34-.34.15-1.66-3.79-.42,1-.52.05-.42-4.67Z"/><path class="cls-1" d="M204.76,260.75v5.41a3.84,3.84,0,0,1-1.95-4C202.85,261.74,203.86,261.39,204.76,260.75Z"/><path class="cls-1" d="M191.44,276.32c-.51-4-3.11-7.5-2.17-12,.91,4.13,1.78,8,2.64,11.92Z"/><path class="cls-1" d="M130.43,119.83l-.85-4.71.26-.1.61,1.16.33,0V113h.51v6.79Z"/><path class="cls-1" d="M178.62,272.57q-1-4.87-2.05-9.76l.58-.1a15,15,0,0,0,.34,1.91c.93,3,1.89,6,2.84,9l0,0c-.13.31-.27.62-.49,1.12-.45-.79-.83-1.48-1.22-2.17Z"/><path class="cls-1" d="M223.45,175.47c-1.83-3.39-1.16-7-.72-10.58.23,3.54.45,7.07.68,10.61Z"/><path class="cls-1" d="M227.45,279.66l-1.64.41c1-2.92,2-5.8,2.95-8.67l.3.08c-.55,2.74-1.09,5.47-1.64,8.21Z"/><path class="cls-1" d="M181.63,138.46c-1,3-2.11,6-3.14,8.92C177.7,145.88,180,139.53,181.63,138.46Z"/><path class="cls-1" d="M157.79,241.07c1.05,2.81,2.09,5.62,3.26,8.76-.42-.28-.93-.43-1-.72-1-2.62-1.82-5.26-2.71-7.89Z"/><path class="cls-1" d="M144.55,241.32l-2.76-9,.62-.2,2.8,9.06Z"/><path class="cls-1" d="M97.51,102.21c-1.29-.74-4.49,1.08-2.82-3.2l.52,2.22,2.11-2.69Z"/><path class="cls-1" d="M97.7,94.05,96,95.93c-1.68-1.61-2.11.32-3,1.28C93.62,94.05,95.14,93.07,97.7,94.05Z"/><path class="cls-1" d="M172,268.82,169.86,260l.65-.17,2.13,8.83Z"/><path class="cls-1" d="M168.71,258.64q-1.83-4-3.68-8.07l.63-.29c1.25,2.71,2.51,5.41,3.76,8.12Z"/><path class="cls-1" d="M160.44,124.26c1.79.95,1.11,2.56,1,3.82a27.67,27.67,0,0,1-1,4.53v-8.35Z"/><path class="cls-1" d="M98.85,102.4a5,5,0,0,1,.7-6.24Z"/><path class="cls-1" d="M255.93,272.25v7A7.46,7.46,0,0,1,255.93,272.25Z"/><path class="cls-1" d="M195,279.57l-.2,1.07-.55.16-2.46-6.61.64-.25c.87,1.89,1.75,3.79,2.62,5.69Z"/><path class="cls-1" d="M140.25,233.48l3.2,10-.58.18-3.11-10Z"/><path class="cls-1" d="M198.28,261.67c.25,3,.49,5.91.74,8.87l-.62,0-.79-8.86Z"/><path class="cls-1" d="M247.81,292.14c-.82-2.74-2-5.45-.12-8.34a24.74,24.74,0,0,0-.42,3.18,14.22,14.22,0,0,0,.47,2.72c.17.78.37,1.54.56,2.31Z"/><path class="cls-1" d="M205.84,272.64c.67,2.55,2.61,4.73,1.87,7.67l-2.34-7.53Z"/><path class="cls-1" d="M97.73,191.52c1.23,2.45,2.45,4.9,3.68,7.34l-.53.26q-1.84-3.68-3.67-7.35Z"/><path class="cls-1" d="M217,286.4a4.77,4.77,0,0,1,0-6.21Z"/><path class="cls-1" d="M253.2,277.34c-.38-2.33-1-4.69.76-6.74C253.71,272.85,253.45,275.1,253.2,277.34Z"/><path class="cls-1" d="M220.66,277.47c0-.81-1.15-1.86.67-2.34.2-.05.17-.9.27-1.37.22-1,.45-2,.68-3.07l.44.1-1.26,6.86Z"/><path class="cls-1" d="M198.23,270.71c.4,2.59.81,5.17,1.21,7.76l-.53.11-1.41-7.74Z"/><path class="cls-1" d="M144.47,203.38c.31-1.67-1-3.45,1.33-4.52C147.14,200.8,145.31,201.83,144.47,203.38Z"/><path class="cls-1" d="M87.88,164.47l3,6-.63.31-3-6Z"/><path class="cls-1" d="M221.62,161.32V168h-.46v-6.64Z"/><path class="cls-1" d="M200.89,263.8l1.06,8.49-.58.07c-.36-2.85-.71-5.69-1.07-8.54Z"/><path class="cls-1" d="M196.79,260.44c.19,2.58.39,5.15.59,7.73l-.55.05q-.37-3.89-.77-7.77Z"/><path class="cls-1" d="M194.81,271l-.83-9.5.4,0c.34,3.16.67,6.33,1,9.49Z"/><path class="cls-1" d="M201.47,150.17c1.78,1.66,1.68,3.05,0,5Z"/><path class="cls-1" d="M146.74,248.84l-2.7-6.21.66-.3c.88,2.07,1.77,4.13,2.65,6.2Z"/><path class="cls-1" d="M234.45,289.26c.45,1.56.91,3.11,1.36,4.67l-.66.22-1.66-4.57Z"/><path class="cls-1" d="M226.71,265.77c-1.8,1.27-3.87.9-4.64-.73Z"/><path class="cls-1" d="M154.32,245.77c.8,2.49,1.59,5,2.39,7.47l-.56.17-2.22-7.52Z"/><path class="cls-1" d="M173.9,268.75c-.57-2.37-1.13-4.75-1.7-7.12l.52-.13,1.83,7.13Z"/><path class="cls-1" d="M144.78,117.28c.21.44.3,1.07.64,1.29,1.56,1,1,2.16.57,3.36l-.55,0,.19-1.86-2.08-3,.27-.25,1,.56Z"/><path class="cls-1" d="M243.66,282.41l-.66-5.14.75-.1c.24,1.71.47,3.43.71,5.14Z"/><path class="cls-1" d="M230.66,268.13l-4.17-1.6c.82-.26,1.35-.63,1.73-.51C229.16,266.33,230.51,266.28,230.66,268.13Z"/><path class="cls-1" d="M199.52,154.27c.31-1.64.63-3.28.94-4.92l.63.12-.79,5Z"/><path class="cls-1" d="M191.77,261.61l.55,7.8A12.92,12.92,0,0,1,191.77,261.61Z"/><path class="cls-1" d="M223.08,291.69a14.76,14.76,0,0,1-.42-2.76,37.46,37.46,0,0,1,.47-3.94l.65.05c-.24,2.23-.49,4.45-.73,6.67Z"/><path class="cls-1" d="M174.12,248.74l3.08,1.95-.69,1.93h-.39l-.79-2.58-1,.73Z"/><path class="cls-1" d="M270.21,181.89l2.2,3.59c-.53-.11-1.16,0-1.39-.32a10.81,10.81,0,0,1-1.52-2.36c-.06-.12.5-.56.77-.85Z"/><path class="cls-1" d="M232.6,274.78a9.1,9.1,0,0,1,1.18,2c.11.31-.42.82-.65,1.24-.32-.3-.85-.55-.92-.9a10.36,10.36,0,0,1-.05-2.16Z"/><path class="cls-1" d="M206.86,168.92a4.28,4.28,0,0,1-.53-5.3C206.49,165.25,206.65,166.87,206.86,168.92Z"/><path class="cls-1" d="M227.42,279.69c.42.2,1.18.35,1.21.6a26.39,26.39,0,0,1,.05,3.21l-.67,0c-.18-1.29-.36-2.58-.55-3.86Z"/><path class="cls-1" d="M209.83,286.22l-1.6-4.67.64-.22,1.6,4.67Z"/><path class="cls-1" d="M262.84,296c-1.49-1.56-1.6-3.71-1.94-5.77l2.35,5.51Z"/><path class="cls-1" d="M169.06,254.7l-1.86-4.9.43-.18,2.18,4.75Z"/><path class="cls-1" d="M104.59,104.25c-1-1.41-.91-3.32.31-5.26Z"/><path class="cls-1" d="M164.73,249.13l-2.13-5.33.5-.21,2.18,5.31Z"/><path class="cls-1" d="M228.93,287.93l-.19-3.88.79-.05.25,3.87Z"/><path class="cls-1" d="M203.35,283.74c-.37-1.7-.75-3.39-1.12-5.09l.48-.12,1.31,5Z"/><path class="cls-1" d="M185.17,143c-.38-3.48-.26-3.74,1.83-3.81C186.38,140.49,185.78,141.76,185.17,143Z"/><path class="cls-1" d="M169.79,250.57c.58,1.86,1.16,3.73,1.73,5.59l-.4.13q-.93-2.78-1.87-5.55Z"/><path class="cls-1" d="M190.76,261.16v6.13h-.42v-6.2Z"/><path class="cls-1" d="M288.8,263.16a6.47,6.47,0,0,1,1.09,1.83c.46,2.61.87,5.23,1.09,7.87a19.89,19.89,0,0,1-.39,3.89l1,.05c.76-3.86-1.23-7.63-.76-11.42,1.59,3.35,1.93,11.11.44,12.73l-1.35-1.66-.35.17c.33.89.67,1.77,1,2.65a2.49,2.49,0,0,1-3.58,1c-1-4.22-1.87-8.07-2.77-11.91l-.39.06c.57,2.84,1.13,5.68,1.7,8.52-1.75-4-3.62-7.9-3-12.43-.16,1-.32,2-.49,3.05l-.21-.06v-7.16l.36,0,.48,1.84c.26-1.72.44-3,.63-4.19h.17v4l.31,0c.25-2,.51-4,.76-6l.52.06v2.5l.28,0,.57-4.24h.27v4.2l.31,0c.15-1.09.31-2.19.43-3.29a10,10,0,0,1,.76-3.4v4h.23l.67-5.24.31,0q0,6.28,0,12.58c-1.82,2.37.31,4.34.57,6.49C289.21,267.52,289,265.34,288.8,263.16Zm-1.64-4-.37,0,.68,10.42.58,0C287.75,266.11,287.46,262.66,287.16,259.21Z"/><path class="cls-1" d="M283.8,277l-1.28-1.46c.54,1.55.94,2.68,1.4,4-1.21-.53-1.88-2.1-1.95-3.76-.08-1.89-.23-3.78-.34-5.67a.76.76,0,0,1,.24-.58c.93,2.43,2,4.8,1.89,7.51Z"/><path class="cls-1" d="M272,286.68c-.13-1.25-.25-2.5-.37-3.75l.54-.09.68,3.64,1-.17c0,.17.09.48,0,.51a2.1,2.1,0,0,1-1,.28,3.2,3.2,0,0,1-1-.48Z"/><path class="cls-1" d="M281,262.89v4.7l-.57,0,.27-4.69Z"/><path d="M287.16,259.21c.3,3.45.59,6.9.89,10.35l-.58,0-.68-10.42Z"/><path d="M288.8,263.16c.21,2.18.41,4.36.62,6.54-.26-2.15-2.39-4.12-.57-6.49Z"/></svg>