<svg id="Layer_1" data-name="Layer 1" xmlns="http://www.w3.org/2000/svg" viewBox="0 0 1920 1080"><defs><style>.cls-1{fill:#fff;}</style></defs><title>Artboard 1</title><path d="M1601,552c-37.81-.84-75.62-1.53-113.42-2.56-43.37-1.18-86.58-.09-129.39,7.71a21,21,0,0,0-6.7,2.94,56.09,56.09,0,0,0-7.25,5.3c-5.83,5-11.4,6.7-19.88,5.18-11.55-2.08-23.79-.33-35.73-.11-3,0-6,.5-9.67.84,0,4.45.09,9,0,13.62-.2,8.48-.77,8.67-9.13,8.44-43.3-1.22-86.6-3-129.9-3.22-109.64-.48-219.29-.1-328.93-.29-22.49,0-45-1-67.46-1.56-4.15-.09-8.31,0-13.29,0-.71,4.69-2.09,9.54-2,14.37.15,14.32,1.16,28.62,1.23,42.94a184,184,0,0,1-1.75,27.27c-1,7.22-4,9.56-8.26,9.18-6.52-.58-10.56-4.6-10.52-11.6.09-15.31.9-30.62.85-45.93,0-10.79-1-21.57-1.54-32.21-7.52-2.23-13.72-.56-19.51,3.35-2.9,2-5.68,4.12-8.74,5.78-5.24,2.85-9.89,1.29-12.11-4.3a38.64,38.64,0,0,1-2.65-11.08c-.32-4.15-2.44-6.46-5.86-7.86s-6.88-2.43-10.36-3.54c-6.14-2-10.86-5.2-10.94-12.57-1.4-.1-2.54-.26-3.68-.26q-90,0-180-.06c-8.24,0-8,.11-11.4,7.53-1,2.25-3.6,5.17-5.54,5.23s-5.32-2.51-6.1-4.65c-2.14-5.87-6.7-7.17-11.75-7-1.52,0-3.38,3-4.36,5-1.56,3.14-2.37,6.63-6.72,7.13-4.12.49-6.95-.69-8.73-4.79-3.12-7.2-3.44-7.51-10.7-4.72-9,3.44-18,7-26.37,11.6-11,6-17.3,15.83-19.63,28.09-.48,2.49-1.13,3.6-3.9,4s-5.19,2-7.8,3.08c-3.77,1.52-6.42.92-7.22-3.65-1-5.52-2.11-11-3.17-16.53V498c1-6.21,2.21-12.4,3.09-18.63.62-4.3,3.16-5.19,7-4.82,4.92.48,9,2.34,11.83,6.48,1.85,2.75,4,5.49,5,8.56,5.47,15.83,17.63,23,33,26.35,2.28.48,4.56.95,6.82,1.47,7,1.61,7.65,1.32,10.92-5,2.67-5.14,9.43-5.36,12.94-.23,1.48,2.17,1.88,5.21,3.63,7,2,2.06,5,4.39,7.53,4.34,2.18,0,4.31-3.23,6.42-5.09a3.48,3.48,0,0,0,.64-1.34c2.92-7.71,7.45-8.55,12.46-1.73,3.8,5.17,8.34,6.68,14.54,6.66,57.49-.17,115,0,172.47-.18,3.12,0,6.37-1.24,9.33-2.45a40.73,40.73,0,0,0,9.65-5.18c5.58-4.34,10.93-9,16-13.88,3.12-3,5.41-6.78,8.48-9.79,4.38-4.29,10-3.75,12.22,1.78,2.73,6.77,7.18,7.53,13.33,6.42,2.87-.51,5.91-.08,9.38-.08.1-1.32.33-2.88.32-4.44-.25-21.32-.6-42.65-.75-64,0-6.31.37-12.63.81-18.93a22.07,22.07,0,0,1,1.64-6.23c1.43-3.73,4.12-6.05,8.28-6.09,4.31-.05,7.6,2,8.81,6,1.42,4.74,3,9.7,3,14.56,0,14-.83,27.95-1.24,41.93-.33,11.47-.44,22.95-.83,34.41-.16,4.61,2.09,5.29,6.13,5.28,49-.16,98-.36,147-.13,107.82.49,215.64,1.5,323.45,1.64,21.25,0,42.52-2.64,63.74-4.5,10-.88,11.06-.26,10,9.63-.21,2-.6,3.9-1.11,7.18,12.35.46,24.38,1.4,36.39,1.11,5-.12,10-2.91,15.07-4.31a6.26,6.26,0,0,1,4.06.06c8.81,4.21,17.34,9.09,26.37,12.76,5.09,2.07,10.93,2.48,16.49,3.2,47.44,6.22,95.2,8.14,143,10.31q35.43,1.6,70.83,4.11c4,.28,8,2.41,12,3.68ZM729,578.51c1.87.13,3.49.32,5.12.36,27.82.55,55.63,1.48,83.45,1.54q123,.27,246-.07c6.71,0,13.33-.38,18.6,4.86.24.24.9,0,1.37,0-.15-4.83-.15-4.83,4.76-4.83h37.5c-.55,2.27-.9,3.68-1.48,6.07,2.79-.57,5-.93,7.13-1.48,9.08-2.31,18.17-4.54,27.65-4,5.79.31,11.59,1.17,17.37,1,17.8-.52,35.6-1.37,53.4-2.19,6.23-.29,12.44-.85,18.9-1.3,0-13.1,0-25.57,0-38,0-7.5.33-15,.23-22.49-.06-5.4-2.21-7.14-7.21-6.36l2.75,2.3c-8.94,2.76-18.16-2.33-27.55,2.39,11.09,2.3,16,9.58,18.48,18.86a33.81,33.81,0,0,1,1.26,9.37c-.28,15.1-6.93,29.47-28,28.61-20.79-.85-41.64-.47-62.46-.52-47.32-.11-94.64,0-142-.25-56.32-.29-112.64-1-168.95-1.24-17.49-.07-35,.64-52.47,1.25-20.92.74-28.63-11.1-31.36-25.42-2.77-14.52,3.4-31.38,24.51-30a83.13,83.13,0,0,0,11.49,0c3.67-.28,7-1.5,8.11-5.44L729,515.08Zm496.78-47.74c-16.32-.48-32.42-1-48.51-1.38-2.85-.07-6-.64-7.92,2.74-.28.49-2.3.23-3.44,0-4.47-1-8.86-2.59-13.37-3.07-6.44-.68-13-.55-19.43-.8-3.54-.14-7.3-1.58-10.07,2.25-.41.57-2.13.33-3.23.23-6.11-.56-12.21-1.66-18.32-1.73-18-.19-35.94.06-53.91,0-3.23,0-6.47-.62-9.85-1-.91,4.82.65,7.61,5.14,8.3,2.77.43,5.62.38,8.42.7s5.5.82,8.25,1.24c-7.19,5.53-14.27,0-21.62,1,.12,6.74-.48,13.26,2.36,18.47,2.82-.78,4.54-1.7,6.25-1.66,23.58.52,47.21-1.7,70.75,2,8.82,1.39,17.93,1.11,26.91,1.45,23.94.91,47.9,2.19,71.53-.75l-2.59-2.75c1.35-.7,2.7-2,4.05-2a50,50,0,0,1,7.62.94C1231.39,547,1225.89,539.39,1225.76,530.77ZM767,552.73h40.25l-4.09,4.84H815c-.15-1.91-.27-3.44-.44-5.53,26,1.22,51.75-2,77.15,1.63-.39,1.83-.61,2.84-.87,4.06h8.89c0-1,.05-1.81,0-2.61s-.24-1.72-.38-2.72c4.56-.21,3.36,2.74,3.77,5.05.26,1.41,1.8,2.6,2.76,3.88,1-1.22,2.33-2.32,2.79-3.71s.11-3.21.11-4.84l1.59-.15c.58,1.46,1.27,2.88,1.71,4.37,1.75,5.88,3.3,6.34,8.78,3.41,1.81-1,4.29-.72,5.9-.95a66.94,66.94,0,0,1,3.34-6.88c.3-.48,2.07-.07,3.16-.07l.44,1.18L929,555.85a14,14,0,0,0,4,2.42c3.77,2.12,6.2,2,6.52-3.19.08-1.15,1.57-2.21,3-4.12.52,7.95.52,7.95,9.8,6.39-2.53-8.35,5-3.85,7.94-6.12,0-4.18-.35-8.68.09-13.11.47-4.74-1.64-6.41-5.91-6.27-5.42.18-10.84.46-16.57.72.56-2.11,1.11-4.13,1.73-6.45a24.38,24.38,0,0,0-4.15-.2c-1.81.22-3.58.76-5.36,1.16,1.6.95,3.22,1.9,4.82,2.88.2.13.28.46.93,1.61-4.55-2.22-8.38,3.72-12.73-.3,2.39-1.24,6.53-.47,4.45-5.07h-8.38c-.1,1.8.2,3.45-.37,4.73a6.39,6.39,0,0,1-3,2.74,3.09,3.09,0,0,1-2.39-1,8.45,8.45,0,0,1,1.19-3.47,23.54,23.54,0,0,1,2.56-3H908v5.75c-15.58.36-30.86.8-46.15,1-2.06,0-4.14-1.27-6.59-2.08l5.53-3.6-.65-1.09h-9c.26,1.78.48,3.28.81,5.51-13.8-1.26-27.24,4-41.45-1.47l4.38-1.81-.08-1.11-7.12-1.59V532l-31.52-.93,5.52-3.86-.44-1h-7.07c-.49,5.29-4.3,5.59-8.63,5.5-1.37,0-3.78.89-4,1.78-1.19,5.07-2.58,10.29-2.39,15.4.09,2.46,3.75,4.64,5.34,7.23,2.12,3.43,4.85,5.3,9.11,5.09l2.21-7C768.65,555.75,768.65,555.75,767,552.73Zm-159.32-21H448.28v20h73.37c-.21-4.19-.78-8-.44-11.74.15-1.69,2.09-3.22,3.22-4.82,1.45,1.42,3.43,2.6,4.2,4.32.67,1.5,0,3.61-.14,6.25l-3.12-2.39v8.45H637.84V531.84H612.11c-1.32,6.13,1.71,12.41-1.56,17.85h-1.93C608.32,543.84,608,538,607.71,531.74ZM396.52,557.67V530h-7.27l2.76,5.1c-18.39-1-33.95-6.86-45.75-22.15-.5,13.25-.5,13.26,10.82,16.87.47.15,1,.19,1.45.37q7.25,2.82,14.48,5.67c-10.47,2.46-18.06-4.06-26.46-7.75v40.16L381,551.42C384.56,560.38,391.12,556.82,396.52,557.67ZM709.61,575V529.71c-3.59.38-6.88,1-10.15,1-3.11,0-6.21-.81-9.31-1.27l.16-1.49c6.22-1.89,13.9,3.24,19.66-3.85-7.22-5.59-15.07,1.74-21.9-1.4L688,521l19.78-1.53c0-.35-.09-.69-.13-1h-22.2V575Zm292.22-14.73c0,.48,0,1,0,1.44,6.39-1.22,7.38-2.3,7.23-8.44-.06-2.15-.43-4.29-.66-6.43-.67-6.21-2.94-12.44,1-19.65L987.65,531l.12,1.72,16.56.9-.12.94H964.3v29.31c3.23-3,9.12.87,9.81-6,8,0,15.95-.11,23.93.11C999.33,558,1000.57,559.48,1001.83,560.29Zm252.56,4.06v11c5.38.19,10.61.56,15.82.41,1.16,0,2.27-1.92,3.41-3-1-.6-2.07-1.25-3.15-1.77-.84-.4-1.76-.64-3.41-1.21l7.34-2.12c-.28-4.49-.5-8.29-.77-12.65L1266.9,553l7.62-2.26V524.15c-16.08-.84-16.08-.84-16.12-4.83-7.66,6-5.38,11.75,8.22,17.89h-11.29c1,6,1.84,11.28,2.73,16.76l-4.21,4,9.28,3.15ZM667.82,538.79c.37-5,.73-9.68,1.1-14.52-7.23,1.55-14.29,3.67-21.48,4.41-5,.52-6,2.53-5.69,6.88.55,7.25.78,14.53,1.17,22.26,7.58-.2,15.39,1,21.54,7.09a72.79,72.79,0,0,1-10.27-3.21c-5.32-2-6.69-1.71-9,1.37l22.68,8.14V541.3c-6.47-1.62-12.57,4.27-19.08.3Zm46.06-30.69c-.1,1.08-.23,1.89-.24,2.71-.22,19.82-.47,39.63-.59,59.45a29.41,29.41,0,0,0,1,7.87c1.13,4.13,3.77,6.53,9.27,5.67.55-6.3,1.51-12.71,1.58-19.13.16-16.16-.17-32.32-.13-48.47,0-7.73.19-7.71-7.45-7.59A21.29,21.29,0,0,1,713.88,508.1Zm574.24,47.75c3,.6,5.71,1.69,8.42,1.61q12.86-.39,25.68-1.55c2.41-.22,4.15-1.84,3.64-4.91-1-5.82-1.77-11.69-2.59-17.26h-34c-.07.5-.15,1-.22,1.5,2.09.66,4.16,1.8,6.28,1.88,6,.22,12-.24,17.93.06,2.77.14,5.48,1.44,8.22,2.21l-.44,1.61c-1.15,0-2.3.09-3.44,0-6.28-.58-12.55-1.47-18.85-1.76-9.61-.43-10.65.71-10.65,9.8Zm59.39-7.45c11,3.83,55.73,0,62.63-6L1345,537.74C1345.82,541.35,1346.65,544.84,1347.51,548.4ZM408.27,521c-2.79,16.24-6.06,31.65-1.78,47.51C414.29,562.17,415.4,536.68,408.27,521Zm619.42,30.16H1026V535.68c-6.54,5-7.11,17.57-1.58,23l2.75-4,6.88,5.16c.8-8.88,1.51-16.67,2.21-24.46h-8.6ZM712.85,653.09c1.52,3.84,2.88,8.17,5,12.11,1,1.8,3.64,3.16,5,0,3.42-7.53,4.12-15.36.87-23.1-1.72-4.1-5.37-4.22-7.32-.25C714.85,645.07,714.2,648.69,712.85,653.09Zm1.07-228.87v20.85l6.28,3.22-2.93,5.65c5.46-1.45,7.58-3.59,7.54-9.58,0-6.72-1-13.44-1.55-20.14ZM960.1,520.39H886.8c4,3.56,7.62,4.82,11.63,4,13.51-2.71,27-2.52,40.58-.73C945.71,524.57,952.81,525.16,960.1,520.39ZM1343,533.6l-5.61-1.54-1,1,4,5.87c-3.9,3.76-7-1.13-10.52-1.51-2.78,4.71-2.78,4.71,6.76,7.26-1.44,7.83-.54,10.66,4.68,13.17C1344.85,550,1342,541.79,1343,533.6Zm-328.43,29.69c4.09-8.59,4.83-23.5,1.61-29.5C1009.41,537.56,1008.31,554.83,1014.52,563.29ZM326,534.74c4.14,2.11,9.85-2.68,13.44,4.32H325.42c1.29,5.76,4,6.62,15,5.17,0-3.53.11-7.14-.08-10.74a3.76,3.76,0,0,0-1.65-2.59C334.59,528.55,329.18,530.17,326,534.74Zm456.45-13,.21,1.55h49.85v-1.55Zm311.57-5.66h9c4.77,0,9.57.39,14.29-.1,1.83-.19,3.46-2.3,5.18-3.53l-.93-1.34c-.72.24-1.44.49-2.17.72-6.84,2.22-13.37,4-20.31-.74C1094.78,508.15,1094.64,512.56,1094.06,516.08ZM422.85,529.59l-1.72.15c-1.7,9.2-2.5,18.32,1.84,27l2.17-.19Q424,543.08,422.85,529.59Zm444.69-13.54.15-1.13H819.85v1.13ZM340.18,565.6l-14.7.88c.61,6.11,2.39,6.75,14.7,5.26Zm366.87,13.82c-7,.78-14.54-4-20.9,2.24C693.32,582.75,700.58,584.74,707.05,579.42Zm377.07-21.21h-37.73a6.68,6.68,0,0,0,4.71,1.94c3.14,0,6.3-.59,9.42-.37a60.7,60.7,0,0,1,8.45,1.69ZM340.59,526.9c-.07-4.84-1.34-6.57-4.8-6.73-4.55-.21-8.66,2.68-9.07,5.72Zm384.23-38.52H714c-.65,7.14,1.48,8.07,10.79,4.72ZM686.4,504.7l.13,2c14.71,1.61,18.7,1.12,22.32-2.7-3.72,0-7.48-.1-11.23,0S690.14,504.46,686.4,504.7Zm570,74.59c2.14,4.13,7.21,4.73,16.22,1.92C1268.85,577.51,1262.08,576.71,1256.38,579.29ZM681.33,560.42c-2.67-.55-4.91-1.31-7.18-1.38-1.32,0-2.67,1-4,1.57.89,1.43,1.51,3.73,2.72,4.1,2.57.79,5.44.58,8.47.79ZM865.2,520.71c8,5.06,16,4.31,17.17,0Zm-506.05-9.93c-4.1-4.14-8.57-8.67-12.46-12.59C348.89,507.32,353.53,511.86,359.15,510.78Zm828.69,72.05,0,1.34c11.12-.77,22.33,1.25,33.35-1.34Zm-861.69,3.84c6.56,6.5,12.35,6,13.61,0Zm355.14-17.46c-4.17.08-8.43-1.51-11.81,4.28l11.81,1.76Zm41.32-82.85a10.94,10.94,0,0,0,1.31-2.52c.23-1.66.28-3.35.39-5a33.07,33.07,0,0,0-4.68.59c-1.86.48-3.64,1.28-5.69,2C714.29,487.89,720,483.74,722.61,486.36Zm-358.89,78c-8.1-.13-15.94,6.58-15.28,12.24ZM340,548.23h-8.69c-2.6,0-5.73-.92-6,3.64H340Zm-14.1,30.35.37,1.57h13.94v-4.9C335.51,577.43,329.69,574.24,325.85,578.58Zm102.32-48.33-3,.2q1.14,9.52,2.29,19l2.34-.22Q429,539.75,428.17,530.25ZM326.38,513.67l.18,1.7c3.31.75,6.59,1.67,9.93,2.14,1.11.16,2.38-.87,3.58-1.35-.7-1.11-1.39-3.17-2.11-3.18C334.11,512.93,330.24,513.39,326.38,513.67Zm356,38.44-.88-1.74a30.16,30.16,0,0,0-4.74-.18,9.92,9.92,0,0,0-4.4,1.32c-.42.29-.06,3,.61,3.35,1.44.78,3.54,1.39,5,.91C679.63,555.19,680.92,553.38,682.38,552.11Zm-342.24,6.41H325.07C332,563.32,338.16,563,340.14,558.52Zm375.37,41.72,9.18,3.15v-9.58l-6,.29,3,4.88ZM437.64,537.79c.2,5.58-3.23,11.56.54,18.28,1-5.07,1.73-8.86,2.27-11.6Zm734.93-14.3c0-.26,0-.52,0-.77h-23.33l.06.77ZM681.49,543.7c-3.63.27-7.83-5.61-11.53,1.19C674.3,545.64,678.13,549.31,681.49,543.7Zm171.83-20.85c-4.91-2.29-9.68-4.46-14.51-1.71l0,1.71Zm-139.6-25c.9,2.82,8.54,5.27,11.23,3.77-.07-1.18-.14-2.45-.22-3.77ZM672.12,579c0,4,2,5.26,5.11,5.09,2.95-.16,4.43-1.73,4.16-5.09Zm163.8-24.59H828.7v5.49C832.56,559.68,836,559.73,835.92,554.38Zm30.32.26-1-1.37c-1.74,1-4.77,1.93-4.91,3.16-.2,1.67,2,5.24,2.84,5.15C868.07,561.09,863.57,556.46,866.24,554.64Zm-8.84,1.09-1-2.07-9.71,1.94,3.64,5.35Zm-55.66-1.35-12,.77C793.73,560.67,798.8,560.43,801.74,554.38Zm-86.36,77.37-.59,2.13c2.26.58,4.52,1.61,6.76,1.58,1.28,0,2.54-1.74,3.81-2.7l-.82-1ZM339.66,500.87l1.19-1.32c-1.35-1.23-2.66-3.41-4.07-3.48-2.82-.14-5.69.87-8.54,1.41l.4,1.22Zm861.87,22.6,0-.75h-19l.1.75Zm-312.34,31c-4-.47-7.38-1.46-9.7,2.87l7,2.58Zm-237-30.78.73,2.21L666.46,520l-.7-1.73Zm359.14,8.69,7.42-3.3c-.15-.59-.29-1.18-.43-1.77l-7-1.8Zm-286.49-58.9h-11.7C721,478.05,722.88,478,724.85,473.47ZM862.64,527.2l.63,2.18c3-.43,7,2.5,9.48-4.1ZM725,608l-.3-1.63a58.22,58.22,0,0,0-6.66-1.63c-.9-.11-1.92.77-2.89,1.2.7,1,1.37,2.75,2.1,2.77A55,55,0,0,0,725,608ZM680.88,537c.1-.78.2-1.57.29-2.35a70.23,70.23,0,0,0-7-1.39c-.66-.08-2,.88-2,1.44-.06.73.81,2.14,1.38,2.2A72.21,72.21,0,0,0,680.88,537Zm756.55,5.66c0-.38,0-.77,0-1.15h-14.57l.05,2.06ZM723,458.18a13.64,13.64,0,0,0-2.83-.2c-2.26.39-4.5.92-6.75,1.39a10.22,10.22,0,0,0,.71,2.05c2.63-.35,5.24-.83,7.84-1.4C722.29,460,722.44,459.24,723,458.18Zm71.19,68.87-9.59-1.57C786.82,530.66,789.15,531.1,794.21,527.05Zm-122,2,9.55,1.61C679.56,524.87,676.07,524.31,672.25,529Zm211.8-2.85c6.11,4.79,8.84,4.62,10.31,0Zm-87.4,0c-.89,4.33,2.17,3.6,4.19,3.37,1.22-.14,2.3-1.41,3.45-2.17-.27-.4-.54-.8-.8-1.2Zm29.74-.06h-7c-.24.46-.48.92-.73,1.37,1.21.73,2.36,1.91,3.63,2.06C824.29,529.8,827.3,530.52,826.39,526.12Zm4.11,0c.42,3.45,1.42,4.23,5.1,3.41,1-.23,1.81-1.72,3.47-3.41Zm52.3.3h-9.39C878.78,531,882,530.79,882.8,526.45Zm22.89-.33h-7.15l-.82,1.22c1,.78,2,2.18,3.1,2.2C902.85,529.59,906.37,531.14,905.69,526.12Zm47.15,2.53-2.34-2.37h-8.42l-.33,1.56a49,49,0,0,0,6.9,1.87C950,529.88,951.44,529,952.84,528.65ZM840.33,526.1c-1.3,4.28,1.7,3.76,3.8,3.46,1.2-.17,2.24-1.49,3.35-2.29l-.87-1.17Zm113,0c-.93,3.24.72,3.71,3.25,3.61,2.31-.08,4.56,0,3.16-3.61ZM845.86,555.41l-1.12-1.06h-4.9c.12,2,.23,3.68.33,5.35l1.32.64Zm411.68,31.18,0,1H1270l0-1Zm75.72-39.24-1.34-1.25-4.55,4.65,1,1.14h4.93Zm-6-13.74,1.27,1.53,4.64-.29v-4.67l-1.14-1Z"/><path class="cls-1" d="M729,578.51V515.08l66.65-3.61c-1.11,3.94-4.44,5.16-8.11,5.44a83.13,83.13,0,0,1-11.49,0c-21.11-1.37-27.28,15.49-24.51,30,2.73,14.32,10.44,26.16,31.36,25.42,17.48-.61,35-1.32,52.47-1.25,56.31.24,112.63.95,168.95,1.24,47.32.25,94.64.14,142,.25,20.82,0,41.67-.33,62.46.52,21,.86,27.67-13.51,28-28.61a33.81,33.81,0,0,0-1.26-9.37c-2.51-9.28-7.39-16.56-18.48-18.86,9.39-4.72,18.61.37,27.55-2.39l-2.75-2.3c5-.78,7.15,1,7.21,6.36.1,7.49-.2,15-.23,22.49,0,12.47,0,24.94,0,38-6.46.45-12.67,1-18.9,1.3-17.8.82-35.6,1.67-53.4,2.19-5.78.17-11.58-.69-17.37-1-9.48-.49-18.57,1.74-27.65,4-2.15.55-4.34.91-7.13,1.48.58-2.39.93-3.8,1.48-6.07h-37.5c-4.91,0-4.91,0-4.76,4.83-.47,0-1.13.21-1.37,0-5.27-5.24-11.89-4.87-18.6-4.86q-123,.17-246,.07c-27.82-.06-55.63-1-83.45-1.54C732.47,578.83,730.85,578.64,729,578.51Z"/><path class="cls-1" d="M1225.76,530.77c.13,8.62,5.63,16.27-1,24.26a50,50,0,0,0-7.62-.94c-1.35,0-2.7,1.27-4.05,2l2.59,2.75c-23.63,2.94-47.59,1.66-71.53.75-9-.34-18.09-.06-26.91-1.45-23.54-3.74-47.17-1.52-70.75-2-1.71,0-3.43.88-6.25,1.66-2.84-5.21-2.24-11.73-2.36-18.47,7.35-1,14.43,4.55,21.62-1-2.75-.42-5.49-.93-8.25-1.24s-5.65-.27-8.42-.7c-4.49-.69-6-3.48-5.14-8.3,3.38.34,6.62,1,9.85,1,18,0,35.94-.2,53.91,0,6.11.07,12.21,1.17,18.32,1.73,1.1.1,2.82.34,3.23-.23,2.77-3.83,6.53-2.39,10.07-2.25,6.48.25,13,.12,19.43.8,4.51.48,8.9,2.08,13.37,3.07,1.14.25,3.16.51,3.44,0,1.9-3.38,5.07-2.81,7.92-2.74C1193.34,529.77,1209.44,530.29,1225.76,530.77Zm-144.33,9.38,20-1.29-.15-1.64C1094.71,538.37,1087.42,534.27,1081.43,540.15Zm93.46-2.73v1h13.84l0-1Zm-55,18.88c0,.34,0,.68,0,1h12.42v-1Z"/><path class="cls-1" d="M767,552.73c1.62,3,1.62,3,8.76,1.52l-2.21,7c-4.26.21-7-1.66-9.11-5.09-1.59-2.59-5.25-4.77-5.34-7.23-.19-5.11,1.2-10.33,2.39-15.4.2-.89,2.61-1.82,4-1.78,4.33.09,8.14-.21,8.63-5.5h7.07l.44,1-5.52,3.86,31.52.93v-6.37l7.12,1.59.08,1.11-4.38,1.81c14.21,5.49,27.65.21,41.45,1.47-.33-2.23-.55-3.73-.81-5.51h9l.65,1.09-5.53,3.6c2.45.81,4.53,2.11,6.59,2.08,15.29-.18,30.57-.62,46.15-1v-5.75h9.12a23.54,23.54,0,0,0-2.56,3,8.45,8.45,0,0,0-1.19,3.47,3.09,3.09,0,0,0,2.39,1,6.39,6.39,0,0,0,3-2.74c.57-1.28.27-2.93.37-4.73h8.38c2.08,4.6-2.06,3.83-4.45,5.07,4.35,4,8.18-1.92,12.73.3-.65-1.15-.73-1.48-.93-1.61-1.6-1-3.22-1.93-4.82-2.88,1.78-.4,3.55-.94,5.36-1.16a24.38,24.38,0,0,1,4.15.2c-.62,2.32-1.17,4.34-1.73,6.45,5.73-.26,11.15-.54,16.57-.72,4.27-.14,6.38,1.53,5.91,6.27-.44,4.43-.09,8.93-.09,13.11-3,2.27-10.47-2.23-7.94,6.12-9.28,1.56-9.28,1.56-9.8-6.39-1.43,1.91-2.92,3-3,4.12-.32,5.2-2.75,5.31-6.52,3.19a14,14,0,0,1-4-2.42l4.75-2.16-.44-1.18c-1.09,0-2.86-.41-3.16.07a66.94,66.94,0,0,0-3.34,6.88c-1.61.23-4.09,0-5.9.95-5.48,2.93-7,2.47-8.78-3.41-.44-1.49-1.13-2.91-1.71-4.37l-1.59.15c0,1.63.38,3.38-.11,4.84s-1.83,2.49-2.79,3.71c-1-1.28-2.5-2.47-2.76-3.88-.41-2.31.79-5.26-3.77-5.05.14,1,.31,1.86.38,2.72s0,1.61,0,2.61h-8.89c.26-1.22.48-2.23.87-4.06-25.4-3.67-51.12-.41-77.15-1.63.17,2.09.29,3.62.44,5.53H803.19l4.09-4.84Zm74.44-6.67,2.13,1.16c1.18-1.6,3.12-3.11,3.33-4.83s-1.34-3.61-2.11-5.42l-2,.37Zm83.28-9.1c-2.07,3.16-3,6-.19,8.67.4.39,2.52-.09,2.74-.62C928.52,542,929,539,924.75,537Zm-123,.47-1.34-.75c-1.13,1.78-3.08,3.53-3.16,5.37-.06,1.49,2.1,3.07,3.28,4.62l1.22-.76Zm-20.13,1.73c.5,3.42.16,7.05,5.11,7.1v-7.1Zm50.25-1.47-1.61-1c-.66,1.42-1.87,2.86-1.82,4.26s1.33,2.86,2.07,4.29l1.36-.74Zm87.19,21.73,1.52-.7c.57-6.06.57-6.06-4.32-6.29C917.36,555.05,918.23,557.24,919.11,559.42Z"/><path class="cls-1" d="M607.71,531.74c.32,6.26.61,12.1.91,17.94h1.93c3.27-5.44.24-11.72,1.56-17.85h25.73v19.93H525.37v-8.45l3.12,2.39c.12-2.64.81-4.75.14-6.25-.77-1.72-2.75-2.9-4.2-4.32-1.13,1.6-3.07,3.13-3.22,4.82-.34,3.74.23,7.55.44,11.74H448.28v-20Zm-93.66,2c-4.59,3.43-3.34,7-1.09,10.51l-7.19,1.19c4.82,1.85,9.2,3,11.6-.47C520.13,540.94,516.89,537.24,514.05,533.7Zm90.06,3.57c-4.49-.78-7.33.4-7,4.8.12,1.56,2.38,4.38,3.25,4.23C605.68,545.4,603.83,541,604.11,537.27Z"/><path class="cls-1" d="M396.52,557.67c-5.4-.85-12,2.71-15.55-6.25l-34.42,16.85V528.11c8.4,3.69,16,10.21,26.46,7.75q-7.23-2.83-14.48-5.67c-.46-.18-1-.22-1.45-.37-11.32-3.61-11.32-3.62-10.82-16.87,11.8,15.29,27.36,21.16,45.75,22.15l-2.76-5.1h7.27Z"/><path class="cls-1" d="M709.61,575H685.46V518.45h22.2c0,.35.09.69.13,1L688,521l.06,1.67c6.83,3.14,14.68-4.19,21.9,1.4-5.76,7.09-13.44,2-19.66,3.85l-.16,1.49c3.1.46,6.2,1.23,9.31,1.27,3.27,0,6.56-.61,10.15-1Z"/><path class="cls-1" d="M1001.83,560.29c-1.26-.81-2.5-2.29-3.79-2.32-8-.22-16-.11-23.93-.11-.69,6.87-6.58,3-9.81,6V534.55h39.91l.12-.94-16.56-.9-.12-1.72,21.7-3.78c-3.93,7.21-1.66,13.44-1,19.65.23,2.14.6,4.28.66,6.43.15,6.14-.84,7.22-7.23,8.44C1001.81,561.25,1001.82,560.77,1001.83,560.29Zm-2-6.48-.13-1.4H973.41v1.24C982.21,554.11,991,556.66,999.82,553.81Z"/><path class="cls-1" d="M1254.39,564.35l8.74-3.21-9.28-3.15,4.21-4c-.89-5.48-1.75-10.74-2.73-16.76h11.29c-13.6-6.14-15.88-11.88-8.22-17.89,0,4,0,4,16.12,4.83v26.58L1266.9,553l6.73,2.09c.27,4.36.49,8.16.77,12.65l-7.34,2.12c1.65.57,2.57.81,3.41,1.21,1.08.52,2.1,1.17,3.15,1.77-1.14,1-2.25,2.92-3.41,3-5.21.15-10.44-.22-15.82-.41Z"/><path class="cls-1" d="M667.82,538.79l-19,2.81c6.51,4,12.61-1.92,19.08-.3v29.91l-22.68-8.14c2.3-3.08,3.67-3.33,9-1.37a72.79,72.79,0,0,0,10.27,3.21c-6.15-6.11-14-7.29-21.54-7.09-.39-7.73-.62-15-1.17-22.26-.33-4.35.65-6.36,5.69-6.88,7.19-.74,14.25-2.86,21.48-4.41C668.55,529.11,668.19,533.82,667.82,538.79Zm-4.3,17.13.37-2.07-12.68-2.05-.18,1.36Z"/><path class="cls-1" d="M713.88,508.1a21.29,21.29,0,0,0,3.46.51c7.64-.12,7.47-.14,7.45,7.59,0,16.15.29,32.31.13,48.47-.07,6.42-1,12.83-1.58,19.13-5.5.86-8.14-1.54-9.27-5.67a29.41,29.41,0,0,1-1-7.87c.12-19.82.37-39.63.59-59.45C713.65,510,713.78,509.18,713.88,508.1Z"/><path class="cls-1" d="M1288.12,555.85V549c0-9.09,1-10.23,10.65-9.8,6.3.29,12.57,1.18,18.85,1.76,1.14.11,2.29,0,3.44,0l.44-1.61c-2.74-.77-5.45-2.07-8.22-2.21-6-.3-12,.16-17.93-.06-2.12-.08-4.19-1.22-6.28-1.88.07-.5.15-1,.22-1.5h34c.82,5.57,1.61,11.44,2.59,17.26.51,3.07-1.23,4.69-3.64,4.91q-12.81,1.14-25.68,1.55C1293.83,557.54,1291.1,556.45,1288.12,555.85Z"/><path class="cls-1" d="M1347.51,548.4c-.86-3.56-1.69-7-2.56-10.66l65.19,4.65C1403.24,548.43,1358.52,552.23,1347.51,548.4Z"/><path class="cls-1" d="M408.27,521c7.13,15.68,6,41.17-1.78,47.51C402.21,552.65,405.48,537.24,408.27,521Z"/><path class="cls-1" d="M1027.69,551.16v-15.7h8.6c-.7,7.79-1.41,15.58-2.21,24.46l-6.88-5.16-2.75,4c-5.53-5.46-5-18,1.58-23v15.48Z"/><path class="cls-1" d="M712.85,653.09c1.35-4.4,2-8,3.57-11.19,2-4,5.6-3.85,7.32.25,3.25,7.74,2.55,15.57-.87,23.1-1.41,3.11-4.09,1.75-5,0C715.73,661.26,714.37,656.93,712.85,653.09Z"/><path class="cls-1" d="M713.92,424.22h9.34c.56,6.7,1.51,13.42,1.55,20.14,0,6-2.08,8.13-7.54,9.58l2.93-5.65-6.28-3.22Z"/><path class="cls-1" d="M960.1,520.39c-7.29,4.77-14.39,4.18-21.09,3.29-13.62-1.79-27.07-2-40.58.73-4,.8-7.66-.46-11.63-4Z"/><path class="cls-1" d="M1343,533.6c-1,8.19,1.9,16.35-1.67,24.22-5.22-2.51-6.12-5.34-4.68-13.17-9.54-2.55-9.54-2.55-6.76-7.26,3.5.38,6.62,5.27,10.52,1.51l-4-5.87,1-1Z"/><path class="cls-1" d="M1014.52,563.29c-6.21-8.46-5.11-25.73,1.61-29.5C1019.35,539.79,1018.61,554.7,1014.52,563.29Z"/><path class="cls-1" d="M326,534.74c3.14-4.57,8.55-6.19,12.62-3.84a3.76,3.76,0,0,1,1.65,2.59c.19,3.6.08,7.21.08,10.74-10.95,1.45-13.68.59-15-5.17h14.06C335.89,532.06,330.18,536.85,326,534.74Z"/><path class="cls-1" d="M782.49,521.74h50.06v1.55H782.7Z"/><path class="cls-1" d="M1094.06,516.08c.58-3.52.72-7.93,5.06-5,6.94,4.71,13.47,3,20.31.74.73-.23,1.45-.48,2.17-.72l.93,1.34c-1.72,1.23-3.35,3.34-5.18,3.53-4.72.49-9.52.12-14.29.1Z"/><path class="cls-1" d="M422.85,529.59q1.15,13.49,2.29,27l-2.17.19c-4.34-8.68-3.54-17.8-1.84-27Z"/><path class="cls-1" d="M867.54,516.05H819.86v-1.13h47.84Z"/><path class="cls-1" d="M340.18,565.6v6.14c-12.31,1.49-14.09.85-14.7-5.26Z"/><path class="cls-1" d="M707.05,579.42c-6.47,5.32-13.73,3.33-20.9,2.24C692.51,575.38,700.09,580.2,707.05,579.42Z"/><path class="cls-1" d="M1084.12,558.21,1069,561.47a60.7,60.7,0,0,0-8.45-1.69c-3.12-.22-6.28.39-9.42.37a6.68,6.68,0,0,1-4.71-1.94Z"/><path class="cls-1" d="M340.59,526.9l-13.87-1c.41-3,4.52-5.93,9.07-5.72C339.25,520.33,340.52,522.06,340.59,526.9Z"/><path class="cls-1" d="M724.82,488.38v4.72c-9.31,3.35-11.44,2.42-10.79-4.72Z"/><path class="cls-1" d="M686.4,504.7c3.74-.24,7.48-.58,11.22-.7s7.51,0,11.23,0c-3.62,3.82-7.61,4.31-22.32,2.7Z"/><path class="cls-1" d="M1256.38,579.29c5.7-2.58,12.47-1.78,16.22,1.92C1263.59,584,1258.52,583.42,1256.38,579.29Z"/><path class="cls-1" d="M681.33,560.42v5.08c-3-.21-5.9,0-8.47-.79-1.21-.37-1.83-2.67-2.72-4.1,1.34-.56,2.69-1.61,4-1.57C676.42,559.11,678.66,559.87,681.33,560.42Z"/><path class="cls-1" d="M865.2,520.71h17.17C881.19,525,873.18,525.77,865.2,520.71Z"/><path class="cls-1" d="M359.15,510.78c-5.62,1.08-10.26-3.46-12.46-12.59C350.58,502.11,355.05,506.64,359.15,510.78Z"/><path class="cls-1" d="M1187.84,582.83h33.38c-11,2.59-22.23.57-33.35,1.34Z"/><path class="cls-1" d="M326.15,586.67h13.61C338.5,592.65,332.71,593.17,326.15,586.67Z"/><path class="cls-1" d="M681.29,569.21v6l-11.81-1.76C672.86,567.7,677.12,569.29,681.29,569.21Z"/><path class="cls-1" d="M722.61,486.36c-2.6-2.62-8.32,1.53-8.67-4.92,2-.75,3.83-1.55,5.69-2a33.07,33.07,0,0,1,4.68-.59c-.11,1.67-.16,3.36-.39,5A10.94,10.94,0,0,1,722.61,486.36Z"/><path class="cls-1" d="M363.72,564.34l-15.28,12.24C347.78,570.92,355.62,564.21,363.72,564.34Z"/><path class="cls-1" d="M340,548.23v3.64H325.3c.23-4.56,3.36-3.65,6-3.64Z"/><path class="cls-1" d="M325.85,578.58c3.84-4.34,9.66-1.15,14.31-3.33v4.9H326.22Z"/><path class="cls-1" d="M428.17,530.25q.84,9.5,1.67,19l-2.34.22q-1.14-9.51-2.29-19Z"/><path class="cls-1" d="M326.38,513.67c3.86-.28,7.73-.74,11.58-.69.72,0,1.41,2.07,2.11,3.18-1.2.48-2.47,1.51-3.58,1.35-3.34-.47-6.62-1.39-9.93-2.14Z"/><path class="cls-1" d="M682.38,552.11c-1.46,1.27-2.75,3.08-4.44,3.66-1.43.48-3.53-.13-5-.91-.67-.37-1-3.06-.61-3.35a9.92,9.92,0,0,1,4.4-1.32,30.16,30.16,0,0,1,4.74.18Z"/><path class="cls-1" d="M340.14,558.52c-2,4.48-8.1,4.8-15.07,0Z"/><path class="cls-1" d="M715.51,600.24l6.23-1.26-3-4.88,6-.29v9.58Z"/><path class="cls-1" d="M437.64,537.79l2.81,6.68c-.54,2.74-1.28,6.53-2.27,11.6C434.41,549.35,437.84,543.37,437.64,537.79Z"/><path class="cls-1" d="M1172.57,523.49h-23.23l-.06-.77h23.33C1172.59,523,1172.58,523.23,1172.57,523.49Z"/><path class="cls-1" d="M681.49,543.7c-3.36,5.61-7.19,1.94-11.53,1.19C673.66,538.09,677.86,544,681.49,543.7Z"/><path class="cls-1" d="M853.32,522.85H838.78l0-1.71C843.64,518.39,848.41,520.56,853.32,522.85Z"/><path class="cls-1" d="M713.72,497.85h11c.08,1.32.15,2.59.22,3.77C722.26,503.12,714.62,500.67,713.72,497.85Z"/><path class="cls-1" d="M672.12,579h9.27c.27,3.36-1.21,4.93-4.16,5.09C674.13,584.23,672.13,583,672.12,579Z"/><path class="cls-1" d="M835.92,554.38c.1,5.35-3.36,5.3-7.22,5.49v-5.49Z"/><path class="cls-1" d="M866.24,554.64c-2.67,1.82,1.83,6.45-3.1,6.94-.87.09-3-3.48-2.84-5.15.14-1.23,3.17-2.12,4.91-3.16Z"/><path class="cls-1" d="M857.4,555.73,850.34,561l-3.64-5.35,9.71-1.94Z"/><path class="cls-1" d="M801.74,554.38c-2.94,6-8,6.29-12,.76Z"/><path class="cls-1" d="M715.38,631.75h9.16l.82,1c-1.27,1-2.53,2.69-3.81,2.7-2.24,0-4.5-1-6.76-1.58Z"/><path class="cls-1" d="M339.66,500.87l-11-2.17-.4-1.22c2.85-.54,5.72-1.55,8.54-1.41,1.41.07,2.72,2.25,4.07,3.48Z"/><path class="cls-1" d="M1201.53,523.47h-18.81l-.1-.75h19Z"/><path class="cls-1" d="M889.19,554.46l-2.65,5.45-7-2.58C881.81,553,885.21,554,889.19,554.46Z"/><path class="cls-1" d="M652.2,523.68l13.56-5.38.7,1.73-13.53,5.86Z"/><path class="cls-1" d="M1011.34,532.37V525.5l7,1.8c.14.59.28,1.18.43,1.77Z"/><path class="cls-1" d="M724.85,473.47c-2,4.53-3.86,4.58-11.7,0Z"/><path class="cls-1" d="M862.64,527.2l10.11-1.92c-2.44,6.6-6.49,3.67-9.48,4.1Z"/><path class="cls-1" d="M725,608a55,55,0,0,1-7.75.71c-.73,0-1.4-1.79-2.1-2.77,1-.43,2-1.31,2.89-1.2a58.22,58.22,0,0,1,6.66,1.63Z"/><path class="cls-1" d="M680.88,537a72.21,72.21,0,0,1-7.36-.1c-.57-.06-1.44-1.47-1.38-2.2,0-.56,1.38-1.52,2-1.44a70.23,70.23,0,0,1,7,1.39C681.08,535.38,681,536.17,680.88,537Z"/><path class="cls-1" d="M1437.43,542.61l-14.54.91-.05-2.06h14.57C1437.42,541.84,1437.42,542.23,1437.43,542.61Z"/><path class="cls-1" d="M723,458.18c-.58,1.06-.73,1.78-1,1.84-2.6.57-5.21,1.05-7.84,1.4a10.22,10.22,0,0,1-.71-2.05c2.25-.47,4.49-1,6.75-1.39A13.64,13.64,0,0,1,723,458.18Z"/><path class="cls-1" d="M794.21,527.05c-5.06,4.05-7.39,3.61-9.59-1.57Z"/><path class="cls-1" d="M672.25,529c3.82-4.71,7.31-4.15,9.55,1.61Z"/><path class="cls-1" d="M884.05,526.17h10.31C892.89,530.79,890.16,531,884.05,526.17Z"/><path class="cls-1" d="M796.65,526.18h6.84c.26.4.53.8.8,1.2-1.15.76-2.23,2-3.45,2.17C798.82,529.78,795.76,530.51,796.65,526.18Z"/><path class="cls-1" d="M826.39,526.12c.91,4.4-2.1,3.68-4.14,3.43-1.27-.15-2.42-1.33-3.63-2.06.25-.45.49-.91.73-1.37Z"/><path class="cls-1" d="M830.5,526.15h8.57c-1.66,1.69-2.42,3.18-3.47,3.41C831.92,530.38,830.92,529.6,830.5,526.15Z"/><path class="cls-1" d="M882.8,526.45c-.85,4.34-4,4.58-9.39,0Z"/><path class="cls-1" d="M905.69,526.12c.68,5-2.84,3.47-4.87,3.42-1.05,0-2.07-1.42-3.1-2.2l.82-1.22Z"/><path class="cls-1" d="M952.84,528.65c-1.4.39-2.86,1.23-4.19,1.06a49,49,0,0,1-6.9-1.87l.33-1.56h8.42Z"/><path class="cls-1" d="M840.33,526.1h6.28l.87,1.17c-1.11.8-2.15,2.12-3.35,2.29C842,529.86,839,530.38,840.33,526.1Z"/><path class="cls-1" d="M953.3,526.09h6.41c1.4,3.63-.85,3.53-3.16,3.61C954,529.8,952.37,529.33,953.3,526.09Z"/><path class="cls-1" d="M845.86,555.41l-4.37,4.93-1.32-.64c-.1-1.67-.21-3.35-.33-5.35h4.9Z"/><path class="cls-1" d="M1257.54,586.59H1270l0,1H1257.5Z"/><path class="cls-1" d="M1333.26,547.35v4.54h-4.93l-1-1.14,4.55-4.65Z"/><path class="cls-1" d="M1327.31,533.61l4.77-4.42,1.14,1v4.67l-4.64.29Z"/><path d="M1081.43,540.15c6-5.88,13.28-1.78,19.9-2.93l.15,1.64Z"/><path d="M1174.89,537.42h13.81l0,1H1174.9Z"/><path d="M1119.91,556.3h12.43v1h-12.42C1119.91,557,1119.91,556.64,1119.91,556.3Z"/><path d="M841.47,546.06l1.38-8.72,2-.37c.77,1.81,2.32,3.72,2.11,5.42s-2.15,3.23-3.33,4.83Z"/><path d="M924.75,537c4.29,2,3.77,5,2.55,8-.22.53-2.34,1-2.74.62C921.77,543,922.68,540.12,924.75,537Z"/><path d="M801.8,537.43v8.48l-1.22.76c-1.18-1.55-3.34-3.13-3.28-4.62.08-1.84,2-3.59,3.16-5.37Z"/><path d="M781.67,539.16h5.11v7.1C781.83,546.21,782.17,542.58,781.67,539.16Z"/><path d="M831.92,537.69v6.79l-1.36.74c-.74-1.43-2-2.84-2.07-4.29s1.16-2.84,1.82-4.26Z"/><path d="M919.11,559.42c-.88-2.18-1.75-4.37-2.8-7,4.89.23,4.89.23,4.32,6.29Z"/><path d="M514.05,533.7c2.84,3.54,6.08,7.24,3.32,11.23-2.4,3.48-6.78,2.32-11.6.47l7.19-1.19C510.71,540.74,509.46,537.13,514.05,533.7Z"/><path d="M604.11,537.27c-.28,3.77,1.57,8.13-3.75,9-.87.15-3.13-2.67-3.25-4.23C596.78,537.67,599.62,536.49,604.11,537.27Z"/><path d="M999.82,553.81c-8.83,2.85-17.61.3-26.41-.16v-1.24h26.28Z"/><path d="M663.52,555.92,651,553.16l.18-1.36,12.68,2.05Z"/></svg>