<svg id="Layer_1" data-name="Layer 1" xmlns="http://www.w3.org/2000/svg" viewBox="0 0 450 450"><defs><style>.cls-1{fill:#fff;}</style></defs><title>Artboard 1</title><path d="M382.1,105.29c5.1,2.06,7.35,4.78,6.1,10.49-.75,3.42,1.92,7.49,1.55,11.12-.93,9-2.71,17.91-4.16,26.85-.72,4.4-.94,9-2.27,13.17-3.76,11.84-8.09,23.51-12,35.32-2.47,7.5-3.82,15.44-7,22.62a80.78,80.78,0,0,1-22.23,30c-4.09,3.41-7.94,7.05-9.81,12.65-2,5.92-4.06,6.12-9.39,2.93a11.93,11.93,0,0,0-3.91-1.8c-6.23-1-12.61-1.25-18.72-2.68a215.26,215.26,0,0,1-24-7.05c-16.17-5.82-32.63-7.16-49.75-6.47-9,.36-16.14,3-24,6.66-22.6,10.45-41.43,25.67-58.86,43-7,6.95-16.35,8.89-25.43,11.32a70.39,70.39,0,0,1-34.76.41c-5.72-1.32-12.34-.42-18.19,1A34.46,34.46,0,0,1,43.17,313,129.45,129.45,0,0,0,26,306.89c-4.49-1.14-5.34-3.62-5.14-7.59.2-4.21.81-8.64-.17-12.63-1.89-7.69,0-14,3.75-20.74C29.9,256,36.84,248.85,48,245.77c5-1.4,9.53-4.57,14.52-6.18,10.32-3.31,20.93-5.7,31.16-9.23,12-4.13,24.42-7.76,35.28-14,12-6.89,19.91-18.68,28.07-29.89,6.28-8.61,13.86-16.26,20.81-24.38,5.22-6.07,10.35-12.22,15.55-18.3a11.71,11.71,0,0,1,3.19-3.1c7.63-3.73,12.48-10.62,18.7-15.94,4.29-3.68,9.2-6.64,13.85-9.9.66-.47,1.65-.64,2.09-1.24,5.4-7.38,13.33-9.93,21.71-12.25,14.79-4.09,28.06-11.42,40.34-20.62,2.59-1.94,6-2.75,8.77-4.48,2.25-1.39,4-3.47,6.17-5.07A25.8,25.8,0,0,1,314,67.5c10.72-4.29,21.71-3.59,32.75-1.46,4,.77,7.73,1.51,12-.08,6.7-2.49,9.94.64,12.47,7.57,2.1,5.75,5.85,11,9.39,16.12C385.57,96.85,386,98.76,382.1,105.29ZM340.81,223.67l-3.09,5.82,4.12,1c-.27,2.44-3.14,3.81-5.81,2.42-3.26-1.71-5.53-.8-6.08,2.59-.36,2.28-.41,4.6-.66,7.69l-2.87-3.91,1.79,10.37,5.92-6.26,1.53,1-4.24,8.29,1.32.7c2.3-1.86,5.07-3.13,6.27-5.27,2.18-3.89,3.43-8.31,4.8-11.82.09.81.31,2.69.65,5.69.68-2.35,1.34-3.69,1.41-5.06.25-4.82,1.4-9,5.85-11.82A6.94,6.94,0,0,0,355,217c-.52-2.14-.82-4.33-1.22-6.5l.83-.15.92,2.1c.58-4.3,1.11-8.29,1.65-12.27l1.11-.26,3.29,5.28c.35-1.05.73-2.24,1.12-3.43.52,3.17.74,6.69-.88,8.75-3.88,4.92-4,7.08,1,9.93.34.19.4.89.72,1.66a33.92,33.92,0,0,0,1.51-18.32,16.83,16.83,0,0,1,.47-7.35c1.48-5.52,3.22-11,5.13-16.37.63-1.77,2.1-3.25,3.18-4.86l.52,1.29c1.34-.29,3.5-.2,3.86-1,.72-1.48.45-3.44.53-5.2,0-.87-.06-1.74-.1-2.61,3.35,1.88,2.14-1.2,2.21-2.26a44.91,44.91,0,0,0-.32-5.89c3.66-.09,2.65-3.3,3-5.11a185.24,185.24,0,0,0,3.21-21c.5-6.43,1.94-13.29-3.08-19L378.59,117c-.72-3.51-1.34-6.52-2.15-10.51-3.68,4.15-6.66,7.37-9.46,10.74a129.69,129.69,0,0,0-8.1,10.49c-1.38,2.07-2.9,4.67-2.83,7,.32,10.12,1.19,20.23,1.87,30.34.08,1.15-.19,2.79.45,3.34,3.82,3.3,1,6.42.69,11-1-2-1.35-2.66-1.8-3.53-.47,3.93-.89,7.43-1.27,10.7l4.83-3.11c-.83,4.42-1.51,8.07-2.29,12.25l-1.14-3.1c-1.13,2.19-1.22,4.3-1.49,6.38s-.73,4.11-1.1,6.16l-1-.16c.25-2.61.49-5.22.74-7.83l-.74-.09-1.41,6.32-1.54.09c-.47-3.1-.94-6.21-1.55-10.18-.34,4.33-.62,7.8-.89,11.27l-1.64-.13q.48-8.16.95-16.32l-1,0-1.05,20.14-1,0V194.12l-.74,0c-1,8.35-1.89,16.7-2.7,23.93l1.94-2.14c-.52,2.49-.84,4-1.15,5.54ZM202,171.49l-5.59-.45c-1.22,5.73-2.51,11.75-4.1,19.15l3.36-2.81c2.73,2.6,3,4.69-1.35,6.25-.9-1.26-2.34-2.37-2.51-3.65a168.55,168.55,0,0,1-2-20c-.06-4,.46-4.48-1.52-5.41-.33,6.32-.69,13-1,19.79h-1l-.7-5.75-1.6-.16c.41,8,1.26,16.05-5.81,21.4a2.55,2.55,0,0,0-.23-1.33c-3.46-5.07-3.28-10-1.37-15.89,1.67-5.15.87-11.09,1.16-16.69l-1.09-.12q-2.42,18.82-4.82,37.66l-1.38-.16q1.14-14.67,2.3-29.35l-1.5-.2c-.44,4-.92,7.94-1.29,11.92-.18,2-.05,4-.24,6-.52,5.24-1.13,10.47-1.73,15.7-.27,2.37-.59,4.74-.88,7.1l-.2-.12V180.86c-1.17,3.65-2.83,7.39-3.47,11.29-.48,2.93.71,6.09.51,9.11-.43,6.39-1.23,12.75-2,19.11-.36,3-1,6-1.52,9l-1.2-.27q.77-19.5,1.51-39l-1.22-.34c-.6,2.46-1.59,4.91-1.68,7.39s1.14,5.11,1,7.63c-.45,9.59-1.06,19.17-1.94,28.73-.27,2.94-1.58,5.79-2.42,8.68.81-8.61,1.43-35.52-.23-43.37-4.12,6.31,1.68,14.28-4.39,20.61V204.75l-1.21-.09q-.59,10.82-1.16,21.62l-1.78-.09V208.77c-5.33,5,.86,13.66-6.77,18.22l1.82-13-1.76-.32q-2,9.49-4,19a2.7,2.7,0,0,0,.17,1c.87,4.22-1.08,9.66-4.43,12.8l4.19-26.39-1.43-.23c-.19.27-.49.52-.53.82-.78,4.79-1.51,9.59-2.3,14.38-.28,1.74-.27,3.7-1.12,5.14a73.9,73.9,0,0,1-5.66,7.37c2-8.53,3.94-16.47,5.85-24.41l-2.08-.66c-.63,1.68-1.41,3.32-1.87,5-1.59,6,.33,13.27-7.06,17.37l4.7-18.67-2.2-.61c-1.07,3.65-2,7.35-3.27,10.92a85.25,85.25,0,0,1-3.68,7.73l-1-.61c1.48-5.69,3-11.38,4.91-18.85-6.16,3.26-11.59,5.24-15.8,8.71-2.65,2.17-3.45,6.59-5.08,10l-1.69-.75q1.59-4,3.2-8l-.66-.33-5.4,6.86-.79-.48,1.18-4.11L86,241.36l-.37-.66L88,237l-9,4.79c0,.85-.12,2.37-.24,4.74l-5.13-3.61L62,256.76c.28-2,.56-3.93,1-7.36l-4.56,7.22c-.54-1.35-1-2.55-1.67-4.19-3,4.21-2.08,4.3-2.39,7.63-.27,2.82-3,5.42-5.2,9.18,1.08-5.34,1.86-9.22,2.64-13.1l-1.23-.35-5.22,8.37-.63-6c-13.31,14.74-17.95,39-8.86,46-.36-4-.7-7.77-1-11.52l1-.12q1.23,7.63,2.45,15.29h1.24c.72-2.27,1.44-4.54,2.23-7l4.81,11.45.82-.48L47,307.24c3.37,4.77,7.54,7.2,11.51,6.16,1.83-.48,3.62-1.15,5.81-1.86.28-2,.76-4.4,4.39-1.87,1.88,1.31,4.33,3.51,5.11-1.1,4.49,3.24,8.09,2.57,9.26-2.33,3.87,6.51,10.66,6,17.38,8.66-2-2.49-3.23-4-4.47-5.62l.55-.61,6.62,5,.45-.52c-.55-.95-1.1-1.89-1.64-2.84l.73-.51,3.52,4.3,2.5-3.57H119.5v-2.39h7.66c-.34-1.15-.57-1.94-.86-2.94l5.58,1.35c-.71-1.44-1.07-2.15-1.56-3.14h8l-3.11-3.51h6l-.64-2.29,9.86-5.72-2.34-2.62,8.6-2.08-3.77-2.81L163,282.14l-.26-1.12-3.45-1.41L172.15,275l-3.81-4.07h9l-1.91-3.08,10.3-1.77.2-1.31-3-1.32c9.67-1.18,10.73-1.72,10.58-6l7.81.41-4.67-3.39a13.57,13.57,0,0,1,6.18.08c3.56.9,5.44.3,4.59-4-.19-.95.8-2.14,1-2.56l3.34,3.71,1.12-1c-.29-.86-.59-1.73-1.09-3.17l13.48,1.87c-9.64-7.59-9.64-7.59-10-11.65,8,8.69,11.59,11,16.9,11.08l-6.81-5.25.67-.85,12.08,6.18c.14-.29.28-.57.43-.86l-5.18-4.78.58-.81,11.08,6.3.34-.78-6.85-5.41c5.92,1.42,11.15,3.69,16.45,5.78.65.25,1.69-.69,2.5-.6,3.2.34,6.69.2,9.5,1.47a54.51,54.51,0,0,1,10.72,7.08c3.37,2.64,8.33-1.18,11.18,3,.06.09.58-.09.87-.2,3.92-1.51,7.24-1.17,10.14,2.39,1,1.25,3.17,1.56,5.85,2.76l-6.05-6.78.83-.79,11,8.88,3.59-6c2.75,2,5.35,3.34,7.21,5.37s3,4.86,6.54,4.59l-8.22-11.31c2.52,1,4,2.92,5.75,4.38.71.59,2.2.24,3.33.31a14.93,14.93,0,0,0-1.64-3c-1.25-1.4-3.63-2.4-4-3.9-.88-4-2-8.43-1.12-12.27,3.17-14.24,6.94-28.36,10.8-42.43a110.1,110.1,0,0,1,6.45-18c1.58-3.33,4.45-7.85,7.36-8.37,5.34-.95,6.71-2.74,6.17-7.74-.24-2.29,1-4.73,1.46-7.12a14.3,14.3,0,0,0,.27-3.8c-.45-5.57-1.25-11.12-1.42-16.69-.08-2.66-.43-4.4-3.25-5.17-3.61-1-5.1-3.61-3-6.72,3.11-4.53.36-8-1.25-11.77a23.37,23.37,0,0,0-2.57-3.74c-2.16,11.31-4.3,22.47-6.58,34.35l-3-3.69c.54-3.19.81-8,2.28-12.52,1.75-5.31.73-9.31-3.24-13A11.51,11.51,0,0,0,332,119c-3,5.21-5.71,10.61-9,15.61-1.57,2.37-4.91,3.66-3.71,7.39l-1.65-.81.11.11a11.73,11.73,0,0,1,.66-3.38q10.08-18.42,20.34-36.73A19,19,0,0,1,343,96.34c4.61-3.94,4.8-7.5.48-11.57a3.83,3.83,0,0,1-1.4-2.33c.1-4.6-3.23-5.15-6.8-6.1-.22,1.56-.4,2.88-.63,4.49-3-3.12-1.83-5.6.8-7.34,2.35-1.56,5.14-2.46,9-4.25L329.6,71.65l3.29-3.81c-3.42,1.28-6.14,3.86-9.36,4.92-4.69,1.55-3.94,3.62-2.12,6.92,1,1.81,1.08,4.13,1.57,6.22l-1.42.23c-3.06-7.82-3.06-7.82-6.15-6.46,2.8,6.45,2.13,18.66-1.37,22.35.43-6,.84-11.88,1.16-16.34l-4.54-4.08v9c-1.4-2.6-2.07-3.85-3.31-6.14-.27,3.74-.46,6.3-.65,8.91-1-2.08-1.93-3.91-3.27-6.63-.62,6.37-1.11,11.43-1.6,16.49h-1.17c-.34-2.71-.69-5.42-1.17-9.21-.77,3.33-1.27,5.52-1.77,7.7l-1-.1V88.54l-1.83,0q-.75,17.31-1.51,34.63l-.78,0q-.37-6.85-.76-13.72l-2.13,0-1.44,15.22-1.11-.12V107.32l-.76,0-3.63,11.3-.71-.12v-8.17l-1.45-.22-2.49,12.23-1.3-.06L278,104.84l-1.31-.22c-.78,2.85-1.56,5.7-2.49,9.08-.38-1.93-.65-3.24-1.16-5.81-2.18,5.36-3.87,9.5-5.92,14.55-.4-4.57-.72-8.17-1.13-12.71-4.82,9-6.64,18-7,27.44-6.26-7-1.2-15.19-2.29-22.61l-1.79,0q-1.46,12.23-2.92,24.47l-1.28-.17q.5-8.16,1-16.32c-3,1.8-5.35,3.84-6.69,6.43-1,1.86-1.42,5.93-.57,6.43,4.39,2.6,1.12,6.65,3.39,9.39l-1.38.41q-.8-3-1.61-6l-1,.14v15.81l-1.5.05c.23-10.14,2-20.45-3.11-30.15l-1.47,23.53-.79,0V126.7l-1.54-.06c-.52,3.85-1.32,7.68-1.49,11.55-.19,4.34.77,8.9-3.81,11.51-.43-1.11-.79-3.42-1.43-3.49-3.07-.38-3.13-2.75-3.6-4.74a32.5,32.5,0,0,1-.42-5.24l-1.41.11c.54,4.78,1.08,9.55,1.64,14.48l3.66-2.58c-1.11,4.35-2.7,7.54-2.46,10.58.22,2.85,2.37,5.56,4.09,9.19-1.48-.75-3.3-1.13-4.11-2.24a13,13,0,0,1-2.11-5.49c-.89-5.52-1.5-11.09-2.22-16.64l-1.25,0c-.13,8.27-11.72,14.85-3.38,23.21-2.41.94-5.58,1.19-6.87,2.88-3.45,4.49-3.56,9.47,1.29,14.29l-8.95,4.82c1.73-3.12,2.78-5,4.09-7.38l-4,.9,2.19-4.33-1.3.15q-.88-3.39-1.78-6.78c1.08-1.93,2.16-3.85,3.23-5.78l1,.42-1.94,7.26.77.39c2.07-3.52,4.14-7,6.61-11.2l-3.57.31c-.09-1.59-.17-3-.33-5.78-1.23,3-1.95,4.77-2.63,6.45L202,162ZM28,300.92l.87-.39,3.27,4.34c-1.3-4.61-1.24-9.49-3.35-10.77-4.24-2.59-3.16-6-3.6-9.33,0-.36.42-.78.85-1.52l1.63,2.35c2.45-6.32,4.83-12.49,7.22-18.67l-.53-.25-3.87,6-.61-.34,3.74-9.26-1.75-.69c-2.17,4.58-4.57,9.07-6.42,13.78a27.08,27.08,0,0,0-2,9.26c-.08,4.83.63,9.67,1.05,15.13l4,3.73ZM354.37,106.55l1.17.17c.13-3.84.76-7.74.27-11.49-.7-5.39-1.59-10.6,2.78-14.89,1.77-1.74,3.8-3.21,5.71-4.79l-.66-1.33c-1.3,0-3.42-.5-3.78.09-2.54,4-6.12,8.15-6.67,12.57C352.39,93.29,353.86,100,354.37,106.55ZM178.92,169.94c.34,8.86-3.86,16.41.58,24.81C184.37,186.26,182.9,178.68,178.92,169.94ZM368.11,83c-6.45,1.9-6.52,6.91-7.63,11.52-2.59-5-2.59-5,5.71-16.17-2.46,1-5.21,2.08-6.46,4.1a18.43,18.43,0,0,0-2.59,8.79C357,94,359,96,361.21,95.45ZM350.28,84.3,360.76,70C356.05,70.59,351.46,77.09,350.28,84.3Zm24.93,99.39c-2.27,3.7-7.73,6.56-4.59,12.82ZM202.39,142.93l-2-.29q-.85,6.95-1.7,13.9l1.4.2ZM360,112.18l-1.91-1.27q-2.88,4.7-5.74,9.4l1.75,1.1Z"/><path class="cls-1" d="M317.65,141.19l1.65.81c-1.2-3.73,2.14-5,3.71-7.39,3.31-5,6-10.4,9-15.61a11.51,11.51,0,0,1,1.48-1.66c4,3.71,5,7.71,3.24,13-1.47,4.47-1.74,9.33-2.28,12.52l3,3.69c2.28-11.88,4.42-23,6.58-34.35a23.37,23.37,0,0,1,2.57,3.74c1.61,3.75,4.36,7.24,1.25,11.77-2.14,3.11-.65,5.73,3,6.72,2.82.77,3.17,2.51,3.25,5.17.17,5.57,1,11.12,1.42,16.69a14.3,14.3,0,0,1-.27,3.8c-.45,2.39-1.7,4.83-1.46,7.12.54,5-.83,6.79-6.17,7.74-2.91.52-5.78,5-7.36,8.37a110.1,110.1,0,0,0-6.45,18c-3.86,14.07-7.63,28.19-10.8,42.43-.86,3.84.24,8.26,1.12,12.27.33,1.5,2.71,2.5,4,3.9a14.93,14.93,0,0,1,1.64,3c-1.13-.07-2.62.28-3.33-.31-1.79-1.46-3.23-3.35-5.75-4.38l8.22,11.31c-3.54.27-4.65-2.53-6.54-4.59s-4.46-3.38-7.21-5.37l-3.59,6-11-8.88-.83.79,6.05,6.78c-2.68-1.2-4.84-1.51-5.85-2.76-2.9-3.56-6.22-3.9-10.14-2.39-.29.11-.81.29-.87.2-2.85-4.2-7.81-.38-11.18-3a54.51,54.51,0,0,0-10.72-7.08c-2.81-1.27-6.3-1.13-9.5-1.47-.81-.09-1.85.85-2.5.6-5.3-2.09-10.53-4.36-16.45-5.78l6.85,5.41-.34.78-11.08-6.3-.58.81,5.18,4.78c-.15.29-.29.57-.43.86L226,242.73l-.67.85,6.81,5.25c-5.31,0-8.92-2.39-16.9-11.08.36,4.06.36,4.06,10,11.65l-13.48-1.87c.5,1.44.8,2.31,1.09,3.17l-1.12,1L208.4,248c-.17.42-1.16,1.61-1,2.56.85,4.28-1,4.88-4.59,4a13.57,13.57,0,0,0-6.18-.08l4.67,3.39-7.81-.41c.15,4.27-.91,4.81-10.58,6l3,1.32-.2,1.31-10.3,1.77,1.91,3.08h-9l3.81,4.07-12.87,4.63,3.45,1.41.26,1.12-10.08,2.23,3.77,2.81-8.6,2.08,2.34,2.62-9.86,5.72.64,2.29h-6l3.11,3.51h-8c.49,1,.85,1.7,1.56,3.14l-5.58-1.35c.29,1,.52,1.79.86,2.94H119.5v2.39H108.71l-2.5,3.57-3.52-4.3-.73.51c.54.95,1.09,1.89,1.64,2.84l-.45.52-6.62-5-.55.61c1.24,1.57,2.49,3.13,4.47,5.62-6.72-2.62-13.51-2.15-17.38-8.66-1.17,4.9-4.77,5.57-9.26,2.33-.78,4.61-3.23,2.41-5.11,1.1-3.63-2.53-4.11-.11-4.39,1.87-2.19.71-4,1.38-5.81,1.86-4,1-8.14-1.39-11.51-6.16l.44,4.55-.82.48L41.8,300.82c-.79,2.47-1.51,4.74-2.23,7H38.33q-1.23-7.65-2.45-15.29l-1,.12c.34,3.75.68,7.5,1,11.52-9.09-7-4.45-31.26,8.86-46l.63,6,5.22-8.37,1.23.35c-.78,3.88-1.56,7.76-2.64,13.1,2.25-3.76,4.93-6.36,5.2-9.18.31-3.33-.59-3.42,2.39-7.63.66,1.64,1.13,2.84,1.67,4.19L63,249.4c-.48,3.43-.76,5.4-1,7.36l11.59-13.83,5.13,3.61c.12-2.37.2-3.89.24-4.74L88,237l-2.3,3.69.37.66,7.08-4.62-1.18,4.11.79.48,5.4-6.86.66.33q-1.61,4-3.2,8l1.69.75c1.63-3.41,2.43-7.83,5.08-10,4.21-3.47,9.64-5.45,15.8-8.71-2,7.47-3.43,13.16-4.91,18.85l1,.61a85.25,85.25,0,0,0,3.68-7.73c1.29-3.57,2.2-7.27,3.27-10.92l2.2.61-4.7,18.67c7.39-4.1,5.47-11.39,7.06-17.37.46-1.73,1.24-3.37,1.87-5l2.08.66c-1.91,7.94-3.81,15.88-5.85,24.41a73.9,73.9,0,0,0,5.66-7.37c.85-1.44.84-3.4,1.12-5.14.79-4.79,1.52-9.59,2.3-14.38,0-.3.34-.55.53-.82l1.43.23-4.19,26.39c3.35-3.14,5.3-8.58,4.43-12.8a2.7,2.7,0,0,1-.17-1q2-9.51,4-19l1.76.32-1.82,13c7.63-4.56,1.44-13.22,6.77-18.22v17.42l1.78.09q.57-10.82,1.16-21.62l1.21.09v14.73c6.07-6.33.27-14.3,4.39-20.61,1.66,7.85,1,34.76.23,43.37.84-2.89,2.15-5.74,2.42-8.68.88-9.56,1.49-19.14,1.94-28.73.12-2.52-1.12-5.1-1-7.63s1.08-4.93,1.68-7.39l1.22.34q-.75,19.5-1.51,39l1.2.27c.51-3,1.16-6,1.52-9,.77-6.36,1.57-12.72,2-19.11.2-3-1-6.18-.51-9.11.64-3.9,2.3-7.64,3.47-11.29v33.51l.2.12c.29-2.36.61-4.73.88-7.1.6-5.23,1.21-10.46,1.73-15.7.19-2,.06-4,.24-6,.37-4,.85-7.94,1.29-11.92l1.5.2q-1.16,14.67-2.3,29.35l1.38.16q2.41-18.84,4.82-37.66l1.09.12c-.29,5.6.51,11.54-1.16,16.69-1.91,5.91-2.09,10.82,1.37,15.89a2.55,2.55,0,0,1,.23,1.33c7.07-5.35,6.22-13.44,5.81-21.4l1.6.16.7,5.75h1c.35-6.74.71-13.47,1-19.79,2,.93,1.46,1.45,1.52,5.41a168.55,168.55,0,0,0,2,20c.17,1.28,1.61,2.39,2.51,3.65,4.33-1.56,4.08-3.65,1.35-6.25l-3.36,2.81c1.59-7.4,2.88-13.42,4.1-19.15l5.59.45-.09-.07q.9,3.39,1.78,6.78l1.3-.15-2.19,4.33,4-.9c-1.31,2.38-2.36,4.26-4.09,7.38L211.6,184c-4.85-4.82-4.74-9.8-1.29-14.29,1.29-1.69,4.46-1.94,6.87-2.88-8.34-8.36,3.25-14.94,3.38-23.21l1.25,0c.72,5.55,1.33,11.12,2.22,16.64a13,13,0,0,0,2.11,5.49c.81,1.11,2.63,1.49,4.11,2.24-1.72-3.63-3.87-6.34-4.09-9.19-.24-3,1.35-6.23,2.46-10.58L225,150.82c-.56-4.93-1.1-9.7-1.64-14.48l1.41-.11a32.5,32.5,0,0,0,.42,5.24c.47,2,.53,4.36,3.6,4.74.64.07,1,2.38,1.43,3.49,4.58-2.61,3.62-7.17,3.81-11.51.17-3.87,1-7.7,1.49-11.55l1.54.06v21.92l.79,0,1.47-23.53c5.12,9.7,3.34,20,3.11,30.15l1.5-.05V139.35l1-.14q.81,3,1.61,6l1.38-.41c-2.27-2.74,1-6.79-3.39-9.39-.85-.5-.39-4.57.57-6.43,1.34-2.59,3.72-4.63,6.69-6.43q-.49,8.16-1,16.32l1.28.17q1.45-12.24,2.92-24.47l1.79,0c1.09,7.42-4,15.58,2.29,22.61.33-9.48,2.15-18.48,7-27.44.41,4.54.73,8.14,1.13,12.71,2-5,3.74-9.19,5.92-14.55.51,2.57.78,3.88,1.16,5.81.93-3.38,1.71-6.23,2.49-9.08l1.31.22-1.23,17.46,1.3.06,2.49-12.23,1.45.22v8.17l.71.12,3.63-11.3.76,0v17.16l1.11.12,1.44-15.22,2.13,0q.38,6.86.76,13.72l.78,0q.75-17.31,1.51-34.63l1.83,0v13.11l1,.1c.5-2.18,1-4.37,1.77-7.7.48,3.79.83,6.5,1.17,9.21h1.17c.49-5.06,1-10.12,1.6-16.49,1.34,2.72,2.25,4.55,3.27,6.63.19-2.61.38-5.17.65-8.91,1.24,2.29,1.91,3.54,3.31,6.14v-9l4.54,4.08C314.88,90.14,314.47,96,314,102c3.5-3.69,4.17-15.9,1.37-22.35,3.09-1.36,3.09-1.36,6.15,6.46L323,85.9c-.49-2.09-.57-4.41-1.57-6.22-1.82-3.3-2.57-5.37,2.12-6.92,3.22-1.06,5.94-3.64,9.36-4.92l-3.29,3.81,14.86-2.41c-3.89,1.79-6.68,2.69-9,4.25-2.63,1.74-3.76,4.22-.8,7.34.23-1.61.41-2.93.63-4.49,3.57,1,6.9,1.5,6.8,6.1a3.83,3.83,0,0,0,1.4,2.33c4.32,4.07,4.13,7.63-.48,11.57a19,19,0,0,0-4.22,4.85q-10.31,18.27-20.34,36.73a11.4,11.4,0,0,0-.65,3.38c-3.15,8.15-3.12,16.6-2.28,25.12C314.78,157.88,321.46,150,317.65,141.19Zm-11.82-45.4-1.47-.14a38.25,38.25,0,0,0-.41,4.64c.09,2.66.59,5.32.55,8-.05,2.92-.93,5.86-.73,8.74.48,7.19,2.51,14.46,1.82,21.48-1,10.45-.67,20.41,2.69,30.36.76,2.24,1.39,5.68.25,7.17-2.28,3-.77,4.27,1.55,7C309,157.34,308,132.7,307,107.71l2.44,2.74.55-.34c-.72-2-1.43-3.91-2.26-6.16l3-.72q-.6-4.26-1.08-7.57l-2.72,8.12-1.91-.53Zm-40,26.51c0,4.68.3,8.55-.09,12.35-.37,3.61,3.26,14.58,6.1,16.35.48.3,1.45-.17,2.71-.37-1.79-2.51-3.31-4.55-4.74-6.64-1.69-2.48-5.74-4.87-.34-7.73.37-.2.5-1.25.4-1.85a60.35,60.35,0,0,0-1.58-7.44A28.34,28.34,0,0,0,265.82,122.3Zm-75.14,75.19c-1.76,2.32-3,5.58-5,6.17-3.6,1.07-3.25,2.94-2.28,5.17,1.94,4.45,2.83,4.9,6.73,4.15C181.14,207.51,192.09,203,190.68,197.49Zm10,6.09c2.69-5.22,5.39-10.43,8.33-16.13C202.72,190.75,200.11,195.46,200.66,203.58Zm69.6-30.23c-.52-2.84-1.72-5.17-1-6.47,1.83-3.42,2.16-3.24-1.14-7.44-.47,5-1,8.68-1,12.4C267.1,172.4,269.42,173,270.26,173.35ZM147.15,244c5.11-5.37,4.92-11.91,3.75-18.63-.83,3-1.08,6.15-1.63,9.22S147.87,240.85,147.15,244ZM327.48,98.5l3.4.28.68-10-1.18,0L329,96l-1.46-.3c-.35-1.13-.69-2.26-1.06-3.46-.8,3-1.53,5.8-2.26,8.59l.72.69ZM139.28,229.1c-1,6.18-1.75,11.08-2.66,16.86C142.28,238.54,142.39,237.87,139.28,229.1ZM330.4,167.47c-4.78,6.93-11.82,11.55-6.76,20.12C320.58,179.67,328.9,175.47,330.4,167.47ZM219,182.09c-3.29,6.07-2.87,9,2.34,11.08-6.83-5.06,3.24-6.55,1.38-10.56Zm-73.38,49.42-4.86,14.28C144.34,242.12,148.31,238.56,145.58,231.51Zm100.1-53.14c-9.52-3.48-.94-8.84-2.75-13.43-1.78,2.15-3.83,4.61-3.69,6.95C239.42,174.81,240.38,178.49,245.68,178.37ZM285.73,152c-6.24,1.71-8.21,9.11-4.13,14.74-.17-3.5-.34-7-.51-10.59l1.25-.07,1.37,3.38.84-.14C284.93,157,285.3,154.65,285.73,152ZM337.88,97.7c4.07-6.88,3.66-12.06,0-16.31ZM301,129.13l.79-.13V108.61l-1.69,0Zm3.84,1.06-1.54.3c1.56,7.69-3.48,15.43-.45,23.57C303.49,145.75,304.14,138,304.79,130.19ZM113.86,231.26l-2.11-.58-3.9,12.1,1.68.58Q111.71,237.32,113.86,231.26Zm115.59-52.57c-3.07,4.78-1.59,10.73,2.47,11.34C231.13,186.4,230.28,182.52,229.45,178.69ZM47.75,303l.93.16V284h-.93Zm179.47-72.2-1.46-.18c-2.61,6.82-2.61,6.82.25,9.8C226.49,236.57,226.86,233.69,227.22,230.8Zm70.5-123.17-1-.12v17.37h1Zm-27.72,20,1.82.21q1.13-5.34,2.23-10.67l-2-.34Q271,122.27,270,127.67Zm-11.31,52.78,1.32-1c-2.17-2-5.43-3.88-1.38-6.73.23-.16-.1-1.5-.51-2-.19-.25-1.67,0-1.72.18-.53,2.13-1.37,4.36-1.1,6.43C255.45,178.45,257.5,179.39,258.69,180.45Z"/><path class="cls-1" d="M341.94,221.41c.31-1.52.63-3,1.15-5.54L341.15,218c.81-7.23,1.75-15.58,2.7-23.93l.74,0v14.06l1,0,1.05-20.14,1,0q-.48,8.16-.95,16.32l1.64.13c.27-3.47.55-6.94.89-11.27.61,4,1.08,7.08,1.55,10.18l1.54-.09,1.41-6.32.74.09c-.25,2.61-.49,5.22-.74,7.83l1,.16c.37-2,.82-4.09,1.1-6.16s.36-4.19,1.49-6.38l1.14,3.1c.78-4.18,1.46-7.83,2.29-12.25L356,186.56c.38-3.27.8-6.77,1.27-10.7.45.87.78,1.53,1.8,3.53.29-4.55,3.13-7.67-.69-11-.64-.55-.37-2.19-.45-3.34-.68-10.11-1.55-20.22-1.87-30.34-.07-2.31,1.45-4.91,2.83-7a129.69,129.69,0,0,1,8.1-10.49c2.8-3.37,5.78-6.59,9.46-10.74.81,4,1.43,7,2.15,10.51l5.07-2.58c5,5.67,3.58,12.53,3.08,19a185.24,185.24,0,0,1-3.21,21c-.35,1.81.66,5-3,5.11a44.91,44.91,0,0,1,.32,5.89c-.07,1.06,1.14,4.14-2.21,2.26,0,.87.14,1.74.1,2.61-.08,1.76.19,3.72-.53,5.2-.36.77-2.52.68-3.86,1l-.52-1.29c-1.08,1.61-2.55,3.09-3.18,4.86-1.91,5.39-3.65,10.85-5.13,16.37a16.83,16.83,0,0,0-.47,7.35,33.92,33.92,0,0,1-1.51,18.32c-.32-.77-.38-1.47-.72-1.66-5-2.85-4.92-5-1-9.93,1.62-2.06,1.4-5.58.88-8.75-.39,1.19-.77,2.38-1.12,3.43l-3.29-5.28-1.11.26c-.54,4-1.07,8-1.65,12.27l-.92-2.1-.83.15c.4,2.17.7,4.36,1.22,6.5a6.94,6.94,0,0,1-3.24,8.13c-4.45,2.8-5.6,7-5.85,11.82-.07,1.37-.73,2.71-1.41,5.06-.34-3-.56-4.88-.65-5.69-1.37,3.51-2.62,7.93-4.8,11.82-1.2,2.14-4,3.41-6.27,5.27l-1.32-.7,4.24-8.29-1.53-1-5.92,6.26-1.79-10.37,2.87,3.91c.25-3.09.3-5.41.66-7.69.55-3.39,2.82-4.3,6.08-2.59,2.67,1.39,5.54,0,5.81-2.42l-4.12-1,3.09-5.82c.07,1.12.14,2.23.26,4.21a41.07,41.07,0,0,1,2.16-4.19c1.57-2.26,2.84-5.17,5-6.47,3.52-2.07,3.79-1.6,3.06-6Zm31.5-52.77,1.4,0c1-5.94,2.31-11.85,2.88-17.83.15-1.65-1.85-3.51-2.86-5.28-1.38,1.4-3.66,2.61-4,4.23-1.55,7.21-2.7,14.51-3.61,21.83-.19,1.48,1.24,3.16,1.93,4.75l.76-.19v-17.4l1.6.18-1.71,10.29.65.11,1.37-3.09C372.57,167.35,373,168,373.44,168.64Zm.29-40.63c-.52,3-1.17,6.67-1.82,10.35l-.61,0c-.16-1.66-.32-3.32-.47-5l-1.18-.42c-.92,2-1.84,4-3,6.44-.83-3.8-1.58-7.2-2.35-10.72l-2.4,1.1c1.71,6.14,3.32,11.92,5,17.81,5-3.18,5-11.36,12.53-9.32C377.69,135.1,375.71,131.56,373.73,128Zm-13.38,32.6c5-8.42,2.33-15.86-2.16-23.9Zm-22,79.82.85-1.31-8-5.4C330.17,242.26,336.35,238.06,338.36,240.43Z"/><path class="cls-1" d="M28,300.92l.44,3.4-4-3.73c-.42-5.46-1.13-10.3-1.05-15.13a27.08,27.08,0,0,1,2-9.26c1.85-4.71,4.25-9.2,6.42-13.78l1.75.69-3.74,9.26.61.34,3.87-6,.53.25c-2.39,6.18-4.77,12.35-7.22,18.67L26,283.25c-.43.74-.89,1.16-.85,1.52.44,3.33-.64,6.74,3.6,9.33,2.11,1.28,2.05,6.16,3.35,10.77l-3.27-4.34Z"/><path class="cls-1" d="M354.37,106.55c-.51-6.57-2-13.26-1.18-19.67.55-4.42,4.13-8.52,6.67-12.57.36-.59,2.48-.09,3.78-.09l.66,1.33c-1.91,1.58-3.94,3-5.71,4.79-4.37,4.29-3.48,9.5-2.78,14.89.49,3.75-.14,7.65-.27,11.49Z"/><path class="cls-1" d="M178.92,169.94c4,8.74,5.45,16.32.58,24.81C175.06,186.35,179.26,178.8,178.92,169.94Z"/><path class="cls-1" d="M368.11,83l-6.9,12.48C359,96,357,94,357.14,91.21a18.43,18.43,0,0,1,2.59-8.79c1.25-2,4-3.11,6.46-4.1-8.3,11.18-8.3,11.18-5.71,16.17C361.59,89.88,361.66,84.87,368.11,83Z"/><path class="cls-1" d="M202,171.49V162l3.05,1.48c.68-1.68,1.4-3.42,2.63-6.45.16,2.75.24,4.19.33,5.78l3.57-.31c-2.47,4.17-4.54,7.68-6.61,11.2l-.77-.39,1.94-7.26-1-.42c-1.07,1.93-2.15,3.85-3.23,5.78Z"/><path d="M341.94,221.41l9.38-10.22c.73,4.43.46,4-3.06,6-2.19,1.3-3.46,4.21-5,6.47a41.07,41.07,0,0,0-2.16,4.19c-.12-2-.19-3.09-.26-4.21Z"/><path class="cls-1" d="M350.28,84.3c1.18-7.21,5.77-13.71,10.48-14.27Z"/><path class="cls-1" d="M375.21,183.69l-4.59,12.82C367.48,190.25,372.94,187.39,375.21,183.69Z"/><path class="cls-1" d="M202.39,142.93l-2.31,13.81-1.4-.2q.85-6.94,1.7-13.9Z"/><path class="cls-1" d="M360,112.18l-5.9,9.23-1.75-1.1q2.87-4.69,5.74-9.4Z"/><path d="M305.83,95.79l-.83,7.46,1.91.53,2.72-8.12q.48,3.32,1.08,7.57l-3,.72c.83,2.25,1.54,4.2,2.26,6.16l-.55.34L307,107.71c1,25,2,49.63,3.07,75.33-2.32-2.75-3.83-4-1.55-7,1.14-1.49.51-4.93-.25-7.17-3.36-9.95-3.72-19.91-2.69-30.36.69-7-1.34-14.29-1.82-21.48-.2-2.88.68-5.82.73-8.74,0-2.66-.46-5.32-.55-8a38.25,38.25,0,0,1,.41-4.64Z"/><path d="M265.82,122.3a28.34,28.34,0,0,1,2.46,4.67,60.35,60.35,0,0,1,1.58,7.44c.1.6,0,1.65-.4,1.85-5.4,2.86-1.35,5.25.34,7.73,1.43,2.09,2.95,4.13,4.74,6.64-1.26.2-2.23.67-2.71.37-2.84-1.77-6.47-12.74-6.1-16.35C266.12,130.85,265.82,127,265.82,122.3Z"/><path d="M190.68,197.49c1.41,5.51-9.54,10-.5,15.49-3.9.75-4.79.3-6.73-4.15-1-2.23-1.32-4.1,2.28-5.17C187.72,203.07,188.92,199.81,190.68,197.49Z"/><path d="M317.65,141.19c3.81,8.82-2.87,16.69-2.16,25.23-.84-8.52-.87-17,2.28-25.12Z"/><path d="M200.66,203.58c-.55-8.12,2.06-12.83,8.33-16.13C206.05,193.15,203.35,198.36,200.66,203.58Z"/><path d="M270.26,173.35c-.84-.38-3.16-.95-3.15-1.51,0-3.72.52-7.43,1-12.4,3.3,4.2,3,4,1.14,7.44C268.54,168.18,269.74,170.51,270.26,173.35Z"/><path d="M147.15,244c.72-3.13,1.56-6.25,2.12-9.41s.8-6.2,1.63-9.22C152.07,232.07,152.26,238.61,147.15,244Z"/><path d="M327.48,98.5l-2.55,3-.72-.69c.73-2.79,1.46-5.57,2.26-8.59.37,1.2.71,2.33,1.06,3.46L329,96l1.39-7.15,1.18,0-.68,10Z"/><path d="M139.28,229.1c3.11,8.77,3,9.44-2.66,16.86C137.53,240.18,138.31,235.28,139.28,229.1Z"/><path d="M330.4,167.47c-1.5,8-9.82,12.2-6.76,20.12C318.58,179,325.62,174.4,330.4,167.47Z"/><path d="M219,182.09l3.72.52c1.86,4-8.21,5.5-1.38,10.56C216.09,191.1,215.67,188.16,219,182.09Z"/><path d="M145.58,231.51c2.73,7.05-1.24,10.61-4.86,14.28Z"/><path d="M245.68,178.37c-5.3.12-6.26-3.56-6.44-6.48-.14-2.34,1.91-4.8,3.69-6.95C244.74,169.53,236.16,174.89,245.68,178.37Z"/><path d="M285.73,152c-.43,2.7-.8,5-1.18,7.32l-.84.14L282.34,156l-1.25.07c.17,3.55.34,7.09.51,10.59C277.52,161.06,279.49,153.66,285.73,152Z"/><path d="M337.88,97.7V81.39C341.54,85.64,342,90.82,337.88,97.7Z"/><path d="M301,129.13l-.9-20.47,1.69,0V129Z"/><path d="M304.79,130.19c-.65,7.78-1.3,15.56-2,23.87-3-8.14,2-15.88.45-23.57Z"/><path d="M113.86,231.26q-2.16,6.06-4.33,12.1l-1.68-.58,3.9-12.1Z"/><path d="M229.45,178.69c.83,3.83,1.68,7.71,2.47,11.34C227.86,189.42,226.38,183.47,229.45,178.69Z"/><path d="M47.75,303V284h.93v19.14Z"/><path d="M227.22,230.8c-.36,2.89-.73,5.77-1.21,9.62-2.86-3-2.86-3-.25-9.8Z"/><path d="M297.72,107.63v17.24h-1V107.51Z"/><path d="M270,127.67q1-5.4,2.08-10.8l2,.34q-1.11,5.34-2.23,10.67Z"/><path d="M258.69,180.45c-1.19-1.06-3.24-2-3.39-3.19-.27-2.07.57-4.3,1.1-6.43.05-.21,1.53-.43,1.72-.18.41.54.74,1.88.51,2-4,2.85-.79,4.71,1.38,6.73Z"/><path d="M373.44,168.64c-.43-.65-.87-1.29-1.6-2.38l-1.37,3.09-.65-.11L371.53,159l-1.6-.18v17.4l-.76.19c-.69-1.59-2.12-3.27-1.93-4.75.91-7.32,2.06-14.62,3.61-21.83.35-1.62,2.63-2.83,4-4.23,1,1.77,3,3.63,2.86,5.28-.57,6-1.86,11.89-2.88,17.83Z"/><path d="M373.73,128c2,3.55,4,7.09,5.7,10.22-7.49-2-7.51,6.14-12.53,9.32-1.65-5.89-3.26-11.67-5-17.81l2.4-1.1c.77,3.52,1.52,6.92,2.35,10.72,1.13-2.44,2.05-4.44,3-6.44l1.18.42c.15,1.67.31,3.33.47,5l.61,0C372.56,134.68,373.21,131,373.73,128Z"/><path d="M360.35,160.61l-2.16-23.9C362.68,144.75,365.37,152.19,360.35,160.61Z"/><path d="M338.36,240.43c-2-2.37-8.19,1.83-7.15-6.71l8,5.4Z"/></svg>