<svg id="Layer_1" data-name="Layer 1" xmlns="http://www.w3.org/2000/svg" viewBox="0 0 450 450"><defs><style>.cls-1{fill:#fff;}</style></defs><title>Artboard 8</title><path d="M289.21,310.87c-5.24,3.07-8.41-.27-11.3-3.41-.91-1-.53-3.16-.79-5.2-2.94-.82-6-2.06-8.14-6.41-1.49-3-6.53-4.3-10.5-6.66.17-1.13.42-2.81.67-4.5-7.8,1-14.21-4.06-13-10.17-9.89-3.37-13-7.33-12.82-17a22.69,22.69,0,0,0-4.17-1.25c-3.81-.41-6.58-1.92-7.52-5.9-.11-.48-.08-1.2-.39-1.41-2.15-1.46-4.73-2.48-6.45-4.32-1.49-1.58-2-4-4.24-6.07l3.91-7.51-6.3-4.18c-3.26.9-6,1.53-8.61,2.46a5.18,5.18,0,0,0-2.41,2.2c-1.86,3.28-3.61,6.64-5.29,10-2.78,5.61-4.85,11.61-11.63,14.14-1.67.63-2.64,3.29-3.81,5.09-3.25,5-6.57,9.78-12.41,12.48-2.19,1-3.55,4.11-5,6.43-2.2,3.52-4.76,6.29-9.24,6.64a5,5,0,0,0-3.19,1.27c-5.14,6-12.21,6.86-19.39,7.63-1.19.13-2.22,1.46-3.43,1.69-3.42.66-6.87,1.09-10.33,1.49-1.59.18-3.22,0-4.82.12s-3.32.82-4.86.56c-7.92-1.33-15.83-2.71-23.67-4.44-3.49-.77-6.74-2.63-10.22-3.53a10.87,10.87,0,0,0-5.56.32c-7.15,2.09-13.54-3.27-11.51-10.49,3.75-13.36,8.93-26,22.39-32.87A29.21,29.21,0,0,1,82,245.47c11.37-2.47,19.44-10.41,28.4-16.86,4.43-3.18,8.79-6.45,13.17-9.69,1.28-.95,2.54-1.93,4.27-3.25l-3.09-1.95c1.71-4.15,2.79-8.59,5.21-12.13s5.69-7.71,9.48-9c10.41-3.52,18.36-10.45,26.83-16.77,11.2-8.36,23-15.91,36.81-18.72,7.89-1.6,15.79-4.86,24.36-2.23,4,1.23,8.64.19,12.85,1,29.17,5.29,53.4,20.6,76.42,38.22,16.68,12.77,32.14,26.65,44.34,44.11,4.72,6.75,11.72,12.12,18.33,17.29,4.25,3.34,7.33,7,9,12a26.55,26.55,0,0,0,1.58,4.68c3.08,5.44,2.33,10.58-.3,16-1.69,3.47-1.49,8.34-3.92,10.86a70.22,70.22,0,0,1-16.57,13c-8.66,4.72-18.07,8.06-27.12,12.08-3.8,1.69-7.46,3.68-11.25,5.41s-7.07.57-10-2.17c-1.33-1.25-2.88-2.29-4.14-3.61-3.29-3.42-6.83-4.32-11.05-1.67-2.13,1.33-4.32,2-5.82-1-.22-.43-.71-1.13-.95-1.08C291.81,321.32,292.34,314.48,289.21,310.87ZM250.45,269.4l-.17-.18c.47,3.53.94,7.07,1.47,11a52.49,52.49,0,0,1,5.41-.29c1.79.07,4.51-.13,5.14.86.94,1.49.41,3.91.57,7.33l11.19,3.47,1.89,7.33c1.79-3.55,2.1-3.55,7-.29-3.16,6.84-1.12,9.94,6.19,9.38a2.87,2.87,0,0,0,.5-.07c3.67-.82,5.61,1.11,6.7,4.3.52,1.51,1,3.05,1.4,4.47l5.26-.91-1.35,4.72c7.82-5,9.24-4.8,18.2,2.15l1.8-2.87c.61,2.53,1.05,4.32,1.68,6.95l2.27-4.73c.55,1.59.86,2.49,1.18,3.4.66-1,1.31-2,2.06-3.17l.92,2.12,6.51-7.54,1.71,1c.65-1.47,1.28-2.93,2.56-5.85l1.16,3c.77-1.23,1.47-2.36,2.81-4.49v6.27l4.91-7.7v5.5l5.66-5.08c-.19,1.7-.28,2.57-.48,4.41l5.85-7.86c-.37,2.64-.52,3.77-.87,6.24l5.14-8.24,1.17,3.64,2.94-6.2,1.21.36c-.36,2-.73,4-1.09,6l.85.32,5.49-12.1,1,.16-.54,5.86,1,.18,3.36-12.47.75-.17c.39,2.05.79,4.11,1.19,6.16l1.3-.22c-.52-4.17-1-8.34-1.59-12.57l2.89.83-2.46-4.71,4.36,1-4-4.62h4.41l-4.21-4.53,3.21-1.58-11.61-6,3.09-1.78-11.25-8.9,3-1.16-11.66-3.86,3.45-2.1-9.23-3.34,3.31-1.58-6.61-2.77.29-.89,7.15.83-10.37-6,2.63-1.19-7.67-3.43.15-.63H346l-11.82-6.12,5.8-.35-11.88-5.53.41-.76,4.34.35.15-.82-11-4.64c.05-.24.11-.48.16-.72l6.19.54.3-.63L313,200.94l.27-.75,6.5.95.24-.8-12.43-4.83,1.32-1.86-7.08-1.46.12-.87,3.57-.55,0-.72-11.18-3.57.24-.91,4.55-.84-13.65-3,.09-1,4.1-.65c0-.26,0-.52-.05-.79l-11.95-3.18.19-1h6.52c0-.3,0-.6.05-.9L267.13,172l4.21-3H257.81c0-.26-.07-.52-.1-.79l5.78-3.24-18.07.81-.17-1.17,10.19-2-.06-.62-17.28.79-.19-1.15,8.3-2.34a34.65,34.65,0,0,0-4.55-.43c-5.49.31-11,.72-16.79,1.12l1.72-4-9.88,5c.08-1.07.14-1.9.25-3.47l-17.41,11.68c1.53-3.15,2.68-5.49,3.82-7.84l-1.27-1-11,11.88-.82-.72,3.21-5.65-.83-.62q-5.36,6.25-10.73,12.5l-.87-.54,6.63-10.72-.88-.69-14,16.83-.54-.2,4.08-8.63-1.14-.67c-3.7,5.36-7.41,10.71-11.37,16.44l-1.94-4.07-5.25,8-1.17-.78,2.24-5.9-1.3-.47c-.73,2.35-1.08,4.92-2.28,7-1.3,2.24-3.39,4-5.27,6.11-.19-1-.37-1.9-.49-2.53l-4.33.66.37,3.22-1,.29-2.33-6.32c-.81,3.25-1.47,5.92-2.14,8.58-4.9-1.72-.2-4.15.08-6.6-1.22.41-2.53.54-2.63.94-.78,3.36-1.34,6.77-2,10.13l7.46,3,.5-.77-3.27-4.19,10.24,1.46c-.56-1.26-.9-2-1.3-2.9l4.48-.43-2.91-2.46,4.58.46c-.68-1-1.11-1.6-1.62-2.32l8.23.71L157.32,196l5.7,1.07c.23-1.75.43-3.25.6-4.56l6.22,1.81c-1.56-2.3-2.26-3.32-3.46-5.1l5.59,1.86.34-.71-2.74-2.23,4.55-3.35,1.75.63,1.63-5,1,.12c.49,2.51,1,5,1.59,8.17,3.47,2.83,3.61,3.56.46,7.63-.36-1.58-.63-2.75-.89-3.92l-1.44-1.38-4.69,7.26-.6-.52c.33-1.15.67-2.3,1-3.6-3.88,3.3-7.55,6.15-10.88,9.35-1.54,1.48-3.31,3.56-3.46,5.49-.47,6.16-.18,12.38-.31,18.58a20.32,20.32,0,0,1-.92,4.06l-1.14-.19V206.25l-6.69,11.09-1.08-.56,1.72-5.17-.59-.28-6.17,8.31-1-.66q1.55-3.21,3.08-6.43l-1.05-.65-11.14,13.74c.37-2.42.58-3.74.92-5.92l-9.91,12.46c-.13-1.42-.23-2.53-.39-4.4-2.91,4.23-5.31,7.73-7.7,11.22l-1.27-.68c1.42-2.82,2.55-5.84,4.34-8.41s4.27-4.78,6.45-7.15c-8.38,4.35-13.26,12-19.71,18.67l5.11-9.84-1-.61L98.75,248.62c.14-2,.23-3.35.38-5.49-1.83,3.59-3.25,6.38-5.14,10.07l-.87-4-3.59,4.18-1-.74,2.52-6.42-1.42-.62c-.61,1.28-1.59,2.51-1.74,3.83-.5,4.26-1.28,5.65-5.14,7.43l3.55-9.1-.92-.74-6.75,10.17-1.6-.86c.67-2.16,1.35-4.32,2.11-6.74-4.12,2.5-8.07,4.73-7.94,10.33l4.52-6.42,1.54.63C71.5,261.17,66,268.31,69,278.06l-2.38-4.43v12.26l.58.05c.17-1.53.33-3.07.41-3.83,2-.4,3.61-1.22,4.92-.88,1.83.48,3.44,1.83,5.21,2.85l-3.35,4.45,1.35,1.24,5.6-5.87c-.28,1.87-.43,2.79-.67,4.39l3.14-3.76,1,.88L80,290.49l5.16,1.58-.7-1.43,6.92-4.79,1.14,1.63-4.66,3.4c5,1.79,9.86,3.68,14.85,5.2,1.21.37,2.8-.45,4.2-.78s2.57-1.09,3.76-.93c9.15,1.22,11.07.31,15.23-8l.89,2.94,1.83-2.92c.36.59.67.86.67,1.14,0,.77-.11,1.55-.18,2.39.77-.42,1.49-1.16,2.18-1.13,11,.4,18.51-6,25.69-13,2.13-2.09,3.62-5.17,6.1-6.49,5.47-2.9,8.46-7.74,11.69-12.53a11.49,11.49,0,0,1,2.84-3.45c8-5.13,11.55-13.16,14.72-21.54a15.77,15.77,0,0,1,2.71-5.19c3.36-3.64,3-9.79-1-12.46-4.56-3-5.45-7.78-2.07-11.07-1,5.6.22,8.21,6.05,10.43.5-3.39.89-6.54,1.46-9.65s1.37-6.42,2-9.64c.36-1.74.61-3.5.92-5.26q1.14-6.53,2.27-13.06l1.58.26a7.3,7.3,0,0,1,.1,1.91c-1.58,7.4-3.22,14.78-4.8,22.18a4.53,4.53,0,0,0-.06,2.47c.92,2.24,1.54,5.2,3.29,6.34,1.5,1,4.38-.12,6.64-.31-.09,6.84.31,7.85,4.32,10.08-.3-2.42-.61-4.91-.91-7.39l1.22-.08,4.65,14,1.6-.46.33-5.3c4.27,4.22-1.11,9.58,1.7,14.36l2.63-4.81v11.63c-4-1.36-5.58-4.48-5.51-10.64a8,8,0,0,0-2-4.66c-3.76-4.49-10.09-7-10.15-13.2l-8.57-1.88c.66,3.79,1.26,7.27,1.87,10.75l-1.05.2-2.36-4.09c0,7.52.17,7.62,8.11,5.2.07-1.6.15-3.21.18-3.87,2.51,2.29,4.83,4.7,7.45,6.73,3.24,2.52,4.73,5,1.42,8.56a18.52,18.52,0,0,0-2.11,3.74c7.54,1.83,7.54,1.83,4.57,6,1.82,2.94,9.79-.6,7,6.56l4.53.37c.56,1.44.66,2.63,1.17,2.84,7.35,3.09,8.52,9.92,10.41,16ZM58.64,276.26l1.23.65,7-14.93C62.4,265.79,60.93,271.25,58.64,276.26Z"/><path class="cls-1" d="M250.45,269.4h-8.57c-1.89-6.12-3.06-12.95-10.41-16-.51-.21-.61-1.4-1.17-2.84l-4.53-.37c2.82-7.16-5.15-3.62-7-6.56,3-4.13,3-4.13-4.57-6a18.52,18.52,0,0,1,2.11-3.74c3.31-3.56,1.82-6-1.42-8.56-2.62-2-4.94-4.44-7.45-6.73,0,.66-.11,2.27-.18,3.88-7.94,2.41-8.13,2.31-8.11-5.21l2.36,4.09,1.05-.2c-.61-3.48-1.21-7-1.87-10.75l8.57,1.88c.06,6.19,6.39,8.71,10.15,13.2a8,8,0,0,1,2,4.66c-.07,6.16,1.54,9.28,5.51,10.64V229.16L224.3,234c-2.81-4.78,2.57-10.14-1.7-14.36l-.33,5.3-1.6.46-4.65-14-1.22.08c.3,2.48.61,5,.91,7.39-4-2.23-4.41-3.24-4.32-10.08-2.26.19-5.14,1.3-6.64.31-1.75-1.14-2.37-4.1-3.29-6.34a4.53,4.53,0,0,1,.06-2.47c1.58-7.4,3.22-14.78,4.8-22.18a7.3,7.3,0,0,0-.1-1.91l-1.58-.26q-1.14,6.53-2.27,13.06c-.31,1.76-.56,3.52-.92,5.26-.65,3.22-1.44,6.41-2,9.64s-1,6.26-1.46,9.65c-5.83-2.22-7.1-4.83-6.05-10.43-3.38,3.29-2.49,8,2.07,11.07,4,2.67,4.4,8.82,1,12.46a15.77,15.77,0,0,0-2.71,5.19c-3.17,8.38-6.75,16.41-14.72,21.54a11.49,11.49,0,0,0-2.84,3.45c-3.23,4.79-6.22,9.63-11.69,12.53-2.48,1.32-4,4.4-6.1,6.49-7.18,7-14.7,13.42-25.69,13-.69,0-1.41.71-2.18,1.13.07-.84.19-1.62.18-2.39,0-.28-.31-.55-.67-1.14l-1.83,2.92-.89-2.94c-4.16,8.27-6.08,9.18-15.23,8-1.19-.16-2.5.64-3.76.93s-3,1.15-4.2.78c-5-1.52-9.86-3.41-14.85-5.2l4.66-3.4-1.14-1.63-6.92,4.79.7,1.43L80,290.49l4.76-5.08-1-.88-3.14,3.76c.24-1.6.39-2.52.67-4.39l-5.6,5.87-1.35-1.24,3.35-4.45c-1.77-1-3.38-2.37-5.21-2.85-1.31-.34-2.93.48-4.92.88-.08.76-.24,2.3-.41,3.83l-.58-.05V273.63L69,278.06c-3-9.75,2.54-16.89,8.31-23.94l-1.54-.63-4.52,6.42c-.13-5.6,3.82-7.83,7.94-10.33-.76,2.42-1.44,4.58-2.11,6.74l1.6.86L85.39,247l.92.74-3.55,9.1c3.86-1.78,4.64-3.17,5.14-7.43.15-1.32,1.13-2.55,1.74-3.83l1.42.62-2.52,6.42,1,.74,3.59-4.18.87,4c1.89-3.69,3.31-6.48,5.14-10.07-.15,2.14-.24,3.49-.38,5.49L111.2,231l1,.61-5.11,9.84c6.45-6.67,11.33-14.32,19.71-18.67-2.18,2.37-4.64,4.53-6.45,7.15s-2.92,5.59-4.34,8.41l1.27.68c2.39-3.49,4.79-7,7.7-11.22.16,1.87.26,3,.39,4.4l9.91-12.46c-.34,2.18-.55,3.5-.92,5.92l11.14-13.74,1.05.65q-1.53,3.22-3.08,6.43l1,.66,6.17-8.31.59.28-1.72,5.17,1.08.56,6.69-11.09v25.31l1.14.19a20.32,20.32,0,0,0,.92-4.06c.13-6.2-.16-12.42.31-18.58.15-1.93,1.92-4,3.46-5.49,3.33-3.2,7-6.05,10.88-9.35-.38,1.3-.72,2.45-1,3.6l.6.52,4.69-7.26,1.44,1.38c.26,1.17.53,2.34.89,3.92,3.15-4.07,3-4.8-.46-7.63-.61-3.15-1.1-5.66-1.59-8.17l-1-.12-1.63,5-1.75-.63-4.55,3.35,2.74,2.23-.34.71-5.59-1.86c1.2,1.78,1.9,2.8,3.46,5.1l-6.22-1.81c-.17,1.31-.37,2.81-.6,4.56l-5.7-1.07,3.48,4.35-8.23-.71c.51.72.94,1.35,1.62,2.32l-4.58-.46,2.91,2.46-4.48.43c.4.88.74,1.64,1.3,2.9l-10.24-1.46,3.27,4.19-.5.77-7.46-3c.62-3.36,1.18-6.77,2-10.13.1-.4,1.41-.53,2.63-.94-.28,2.45-5,4.88-.08,6.6.67-2.66,1.33-5.33,2.14-8.58l2.33,6.32,1-.29L144,197.6l4.33-.66c.12.63.3,1.55.49,2.53,1.88-2.11,4-3.87,5.27-6.11,1.2-2.07,1.55-4.64,2.28-7l1.3.47-2.24,5.9,1.17.78,5.25-8,1.94,4.07c4-5.73,7.67-11.08,11.37-16.44l1.14.67-4.08,8.63.54.2,14-16.83.88.69L181,177.27l.87.54q5.37-6.26,10.73-12.5l.83.62-3.21,5.65.82.72,11-11.88,1.27,1c-1.14,2.35-2.29,4.69-3.82,7.84L217,157.57c-.11,1.57-.17,2.4-.25,3.47l9.88-5-1.72,4c5.81-.4,11.3-.81,16.79-1.12a34.65,34.65,0,0,1,4.55.43l-8.3,2.34.19,1.15,17.28-.79.06.62-10.19,2,.17,1.17,18.07-.81-5.78,3.24c0,.27.07.53.1.79h13.53l-4.21,3,17.3,2.23c0,.3,0,.6-.05.9h-6.52l-.19,1,11.95,3.18c0,.27,0,.53.05.79l-4.1.65-.09,1,13.65,3-4.55.84-.24.91,11.18,3.57,0,.72-3.57.55-.12.87,7.08,1.46-1.32,1.86L320,200.34l-.24.8-6.5-.95-.27.75,15.69,6.92-.3.63-6.19-.54c-.05.24-.11.48-.16.72l11,4.64-.15.82-4.34-.35-.41.76L340,220.07l-5.8.35L346,226.54h-5.42l-.15.63,7.67,3.43-2.63,1.19,10.37,6-7.15-.83-.29.89,6.61,2.77-3.31,1.58,9.23,3.34-3.45,2.1,11.66,3.86-3,1.16,11.25,8.9-3.09,1.78,11.61,6-3.21,1.58,4.21,4.53H382.5l4,4.62-4.36-1,2.46,4.71-2.89-.83c.54,4.23,1.07,8.4,1.59,12.57l-1.3.22c-.4-2-.8-4.11-1.19-6.16l-.75.17-3.36,12.47-1-.18.54-5.86-1-.16-5.49,12.1-.85-.32c.36-2,.73-4,1.09-6l-1.21-.36-2.94,6.2L364.76,304l-5.14,8.24c.35-2.47.5-3.6.87-6.24l-5.85,7.86c.2-1.84.29-2.71.48-4.41l-5.66,5.08V309l-4.91,7.7v-6.27c-1.34,2.13-2,3.26-2.81,4.49l-1.16-3c-1.28,2.92-1.91,4.38-2.56,5.85l-1.71-1-6.51,7.54-.92-2.12c-.75,1.16-1.4,2.14-2.06,3.17-.32-.91-.63-1.81-1.18-3.4l-2.27,4.73c-.63-2.63-1.07-4.42-1.68-6.95l-1.8,2.87c-9-6.95-10.38-7.17-18.2-2.15l1.35-4.72-5.26.91c-.44-1.42-.88-3-1.4-4.47-1.09-3.19-3-5.12-6.7-4.3a2.87,2.87,0,0,1-.5.07c-7.31.56-9.35-2.54-6.19-9.38-4.94-3.26-5.25-3.26-7,.29l-1.89-7.33-11.19-3.47c-.16-3.42.37-5.84-.57-7.33-.63-1-3.35-.79-5.14-.86a52.49,52.49,0,0,0-5.41.29c-.53-3.94-1-7.48-1.47-11l9.8.67c1.89,4.19,3.31,9.47,10.05,10.24-6-4.68-3.73-11.13-5-18.13-.9,3.73-1.49,6.14-2.29,9.44-.28-2.73-.47-4.56-.54-5.3-3.11.66-6.55,2.46-9,1.55-1.74-.64-2.87-4.87-3-7.54-.11-3,1.25-6,2.23-10.1l-3.47,4.73c-.45-1.16-.77-2-1.09-2.76l-.68.19c.27,1.88.53,3.76.85,6l-4.55-.39V247.3l-1.15,0V257c-3.85-5.13-1.66-10.23.06-15.5-4,1-1.95,8.8-7.29,6.38-2.44-1.11-3.49-5.28-4.91-7.65-2.72,4.78-.59,8.29,7.77,10.86a5.2,5.2,0,0,1,.28,1.4c-.28,5.06.86,8.63,7.16,7.89.88-.11,2.39,1.41,2.9,2.5A47.29,47.29,0,0,1,250.45,269.4Zm78.08,38.66c-2.68-2.74-2.85,1.91-4.86,1.5-.17-.94-.37-2-.74-4l-3.16,7.18,3,2.07,5.95-7c-1.37,3.67-4.14,7.36.38,11.12,2.46-1.47,5.62-2.56,1.61-6.07a2.71,2.71,0,0,1,0-2.66c.89-.81,2.27-1.09,3.45-1.59v2.11c2.44-1.07,6.17-3.47,6.75-2.86,2.8,2.93,3.14-.1,3.73-1.26a47.44,47.44,0,0,0,2.28-6.35l-1.18-.44-2.93,5.55c.17-1.87.26-2.83.4-4.3l-3.33,3,.09-1.46a25.52,25.52,0,0,0-3.65-.6C335.17,306,330.81,305.68,328.53,308.06ZM79.39,276.56l1.42.63,4.45-8.94c-2.68,1-4.31,1.44-5.82,2.18-1.69.83-3.25,1.9-5.89,3.48l5-9-1.08-.68c-1.38,1.59-3.19,3-4,4.83-1,2.29-2.49,6.41-1.59,7.18,3,2.6,5.7,6.9,10.91,5.64.51-.13,1.15.34,1.73.49l8.31,2.22.3-2-7.33-.7c1.09-2.8,2-5.2,2.94-7.6l-.81-.59-5.31,7c-1.47-.76-3.9-1.39-5.18-3-.56-.68,1.24-3.29,2-5a3.93,3.93,0,0,1,.75.19C79.94,274.15,79.66,275.35,79.39,276.56Zm30.87,8-1.6-1.09,4.08-14.18-1.07-.93c-1,1.47-2.08,2.92-3.07,4.41-1.83,2.73-3.28,5.84-5.56,8.11-1.29,1.28-3.93,1.21-6,1.75.37-1.91.34-4,1.19-5.68a68.21,68.21,0,0,1,4.92-7.35,28.7,28.7,0,0,0-7.81,7.45,6.76,6.76,0,0,0-.44,5.47c.51,1.28,2.58,2.15,4.13,2.76a35.5,35.5,0,0,0,6,1.46c.35.07.79-.38,1.39-.69l-3.28-2.4c1.11-1.35,2-2.47,2.59-3.12,1.76,2.19,2.89,5,4.64,5.45,3.27.86,6.71-.05,9.07-3.91Zm266-3.37c1.17-2.81,2.64-4.93,2.76-7.12a8.62,8.62,0,0,0-2.29-5.48c-1.29-1.46-3.54-2-5.15-3.28-2.64-2.06-4.78-5.05-7.72-6.36-3.63-1.62-7.86-1.92-11.83-2.79a45.56,45.56,0,0,0,10.22,6c7.52,3.17,14.26,6.76,13.26,16.67A7.07,7.07,0,0,0,376.26,281.19ZM125.44,262.86l-.64-.63c-1.46,3.73-3.59,7.36-4.12,11.22-.3,2.19,1.53,6.19,3.29,6.79,3,1,6-1,7.57-4.59-3.09.24-5,5.2-8.16,1.18-.57-.73-.54-1.92-1.15-4.35l3.21,4.09ZM184,219.33l-.6.17v11.75c.4.21,1.92.51,2.4,1.39.35.63-.66,2-1.1,3.07-1.08,2.59-2.17,5.16-3.26,7.74l2,.91c1.6-3.4,4.59-6.83,4.49-10.18C187.75,229.2,185.42,224.28,184,219.33Zm182.46,78c4.67-4.4,13.22-4.93,11.26-14C376,289.61,365,287.93,366.48,297.35Zm-212.6-28.56-2-5.36c-1.2,6.36-2.16,11.43-3.12,16.5l1.11.57c2.57-4.16,5.13-8.33,8.47-13.78Zm196.51-2.17c-13,.52-24.89,2.5-24.92,12.85C330.54,267,342.27,270.88,350.39,266.62Zm-126-56-1,1,6.18,10.23c.47-4-.55-7.71.27-11s3.5-6,5.36-8.91a12.14,12.14,0,0,0-5,4.2,50.15,50.15,0,0,0-3.12,6.49ZM289.74,299l.76-1.32c-6.39-2.58-7.87-6.59-4.88-12.91,1.13-2.4,2-4.92,3.05-7.38l-1.2-.42-5.74,12.21-3.22-.34a74.15,74.15,0,0,0,5.61,6.48C285.73,296.78,287.85,297.75,289.74,299Zm-118-55.41c-1.66,1.59-2.83,3.17-4.39,4.07s-4.61,2.29-5.35,1.62c-1.38-1.23-2.05-3.78-2.13-5.82-.12-2.73.6-5.48,1-8.22a4.85,4.85,0,0,0-2.08,3.41c-.47,4.18-3.49,8.86,1.62,12.14,3.31,2.12,7.21-.05,11.55-6C172,244.71,171.92,244.53,171.77,243.55Zm5.31-2.39-2.11-.11-.87-17.78c-3.64,9.09-2.44,16.89,3,20.29q2.35-3.65,4.72-7.3l-1.17-.76Zm135.06,59c-1.25,2.54-2.31,4.73-3.38,6.91l-.67-.19,2.29-10c-2.88,3.9-5.74,8-2.94,12.67.77,1.29,3.64,1.33,5.55,1.94C306.56,307.76,314.1,303.89,312.14,300.11ZM144,242.64l1.83.24c.75-7.12,1.49-14.24,2.33-22.29C141.68,227.79,147.79,236,144,242.64ZM135.34,256c-4.44,4.56-4.56,10.06-3.37,15.61.24,1.11,2.26,1.83,3.26,2.59-.73-3.5-1.78-6.17-1.7-8.8C133.63,262.23,134.7,259.11,135.34,256ZM296.83,289.6c-3.64,4.61-5.07,10.77-2.6,13,2.78,2.49,6.22,2.72,10.66,1.05l-9.93-2C295.57,297.67,296.18,293.75,296.83,289.6ZM254.6,218.05c-8.36,2.93-12,14.29-6.37,19.24C245.17,229.24,248.74,223.81,254.6,218.05Zm66.72,85.43-7-.54-1.22,4.34,4.08-2.64v9.22a14.42,14.42,0,0,0,2.34-5.06C320.09,306.94,320.76,305.1,321.32,303.48ZM265.49,229c-4.66,3.31-7.91,12.15-6.48,17.42.42,1.54,2,2.78,3,4.16l1.45-.78C256.76,242.35,262.5,236.06,265.49,229Zm97.34,64.43-1.1-.71c-3,3.17-8.88,4.42-6.49,12.62C358.21,300.73,360.52,297.1,362.83,293.47ZM157.07,253.93l-1.41-1.22q-2.16,3.93-4.33,7.86l-1.86-1.46v-11c-2.51,6-2.3,13.12,0,13.25,4.47.23,6.16-3.52,7.75-7C157.29,254.26,157.13,254.07,157.07,253.93Zm8.68,9.8h1.05c.26-2.22.51-4.44.72-6.31l-4.32-1.6c-.58,3.36-1.15,6.71-1.9,11.12L165,262Zm110.3,24.18c-5-5.87-2-12.05-.91-18.14C269.85,277,270.33,286.67,276.05,287.91Zm-128.94-25.1-2.64-2.72c5-4.11-1.28-5.89-2.46-8.79L143.42,265Zm187.94-7.49c0-.61-.05-1.22-.07-1.83l-19.38,2.64c.08.55.16,1.09.25,1.64Zm-99.92-29.59c1.94-5.43,3.78-10.55,5.61-15.66l-1-.46-5.34,10.93-1.32-2.29-1,.76ZM112.4,292.25c.14.5.28,1,.41,1.51,1.79-.17,4,.26,5.26-.65,1.66-1.2,2.58-3.43,3.81-5.23l-1.06-.73-4.68,5.33-.79-.71q1.37-2.56,2.75-5.13l-1-.68Zm62.9-54.65c1.88-2.76,3.73-4.56,4.46-6.74,1.21-3.6-2.24-3.75-4.46-5.38Zm178.93,61.6L353,298.15c-4.52.66-6.84,2.81-4.79,9.11ZM269.66,259c1.54-4.89,3.3-10.51,4.9-15.59C269.87,246.77,267.63,254.24,269.66,259Zm-43.92-66.29-1.71-.3c-.33,6.36-4.32,12.16-2.36,19.93C223.17,205.11,224.46,198.92,225.74,192.73Zm94.17,47.62-17.2,1.43C308.91,244.21,317,243.22,319.91,240.35Zm29.24,23.14c0-.52-.07-1-.11-1.56l-18.3,3.37.3,1.58ZM298.68,271a8.33,8.33,0,0,0,1,13.31C299.33,280.05,299,275.32,298.68,271Zm16.19-34-16.63-1.26C303.79,237.8,309.29,240.68,314.87,237Zm16.77,2.52-.66,1.51,15.88,4.11c.15-.58.31-1.16.46-1.74Zm-53.47-33.78,0-.67H262.83c0,.23,0,.45,0,.67ZM119.11,262.12c3.82-5,4.44-11,1.76-15.39C120.32,251.61,119.73,256.77,119.11,262.12Zm240.62-6.94c.11-.57.23-1.13.35-1.69l-15.75-2.57-.3,1.62ZM285.62,227l.06.47H302l-.11-.47ZM308.1,248c6.84,2.18,11.53.18,17-3.55Zm5.48-36.21c0-.36,0-.71,0-1.07H300.41l0,1.07Zm-25.13,19.15-.09,1.56,18.66,1,.08-1.37Zm-8.83,38.05,1.56.34q2.07-7.06,4.15-14.14l-1.79-.46Q281.59,261.81,279.62,268.94ZM196,191.5l-1.52-.64c-.94,2.25-2.93,4.7-2.54,6.68.47,2.4,3,4.4,4.57,6.57l1.07-.82-3.92-4.55C194.46,196.28,195.23,193.89,196,191.5Zm144.17,67.44-18.05,1.72C328.06,260.38,334.46,263.92,340.18,258.94ZM133,254.08c3.64-5.46,2.55-10.68,0-16Zm3.89-3.75c3.32-4.54,3.26-9.28,0-13.2ZM327.77,235l-.28,1.79L342,239l.21-1.38Zm-210.57,18c-1.37,4.81-2.64,9.28-4.28,15.08C116.61,262.76,119.77,258.72,117.2,253.05Zm168.54-41.63c.16-.36.33-.72.49-1.07l-17.88-1.56-.09,1.29Zm-88.55-37.55-1.39-.43q-.78,6.85-1.55,13.72l1.71.2Zm-67.7,67.29c-.5,4.71-1,9.42-1.57,14.92C131.78,251,130.83,246.12,129.49,241.16ZM299.89,222v-1H286.75v1ZM197,188.72l1.6.32,2.45-12.39-1.77-.35Zm129.38,42.21c-.08.61-.15,1.23-.23,1.84l10.31,1.48.26-1.8ZM306.89,207l.18-1.66L295.18,204l-.18,1.59Z"/><path class="cls-1" d="M58.64,276.26c2.29-5,3.76-10.47,8.19-14.28l-7,14.93Z"/><path d="M250.45,269.4a47.29,47.29,0,0,0-2-6.54c-.51-1.09-2-2.61-2.9-2.5-6.3.74-7.44-2.83-7.16-7.89a5.2,5.2,0,0,0-.28-1.4c-8.36-2.57-10.49-6.08-7.77-10.86,1.42,2.37,2.47,6.54,4.91,7.65,5.34,2.42,3.25-5.35,7.29-6.38-1.72,5.27-3.91,10.37-.06,15.5v-9.64l1.15,0v10.53l4.55.39c-.32-2.25-.58-4.13-.85-6L248,252c.32.8.64,1.6,1.09,2.76l3.47-4.73c-1,4.08-2.34,7.11-2.23,10.1.1,2.67,1.23,6.9,3,7.54,2.44.91,5.88-.89,9-1.55.07.74.26,2.57.54,5.3.8-3.3,1.39-5.71,2.29-9.44,1.3,7-.94,13.45,5,18.13-6.74-.77-8.16-6.05-10.05-10.24l-9.8-.67Z"/><path d="M79.39,276.56c.27-1.21.55-2.41.82-3.61a3.93,3.93,0,0,0-.75-.19c-.77,1.72-2.57,4.33-2,5,1.28,1.57,3.71,2.2,5.18,3l5.31-7,.81.59c-.92,2.4-1.85,4.8-2.94,7.6l7.33.7-.3,2-8.31-2.22c-.58-.15-1.22-.62-1.73-.49-5.21,1.26-7.86-3-10.91-5.64-.9-.77.56-4.89,1.59-7.18.83-1.84,2.64-3.24,4-4.83l1.08.68-5,9c2.64-1.58,4.2-2.65,5.89-3.48,1.51-.74,3.14-1.19,5.82-2.18l-4.45,8.94Z"/><path d="M110.26,284.56l9.22-2.49c-2.36,3.86-5.8,4.77-9.07,3.91-1.75-.46-2.88-3.26-4.64-5.45-.54.65-1.48,1.77-2.59,3.12l3.28,2.4c-.6.31-1,.76-1.39.69a35.5,35.5,0,0,1-6-1.46c-1.55-.61-3.62-1.48-4.13-2.76a6.76,6.76,0,0,1,.44-5.47,28.7,28.7,0,0,1,7.81-7.45A68.21,68.21,0,0,0,98.27,277c-.85,1.66-.82,3.77-1.19,5.68,2-.54,4.67-.47,6-1.75,2.28-2.27,3.73-5.38,5.56-8.11,1-1.49,2.05-2.94,3.07-4.41l1.07.93-4.08,14.18Z"/><path d="M328.54,308c2.27-2.36,6.63-2,7.79-6a25.52,25.52,0,0,1,3.65.6l-.09,1.46,3.33-3c-.14,1.47-.23,2.43-.4,4.3l2.93-5.55,1.18.44a47.44,47.44,0,0,1-2.28,6.35c-.59,1.16-.93,4.19-3.73,1.26-.58-.61-4.31,1.79-6.75,2.86v-2.11c-1.18.5-2.56.78-3.45,1.59a2.71,2.71,0,0,0,0,2.66c4,3.51.85,4.6-1.61,6.07-4.52-3.76-1.75-7.45-.38-11.12Z"/><path d="M376.26,281.19a7.07,7.07,0,0,1-.75-2.34c1-9.91-5.74-13.5-13.26-16.67a45.56,45.56,0,0,1-10.22-6c4,.87,8.2,1.17,11.83,2.79,2.94,1.31,5.08,4.3,7.72,6.36,1.61,1.25,3.86,1.82,5.15,3.28a8.62,8.62,0,0,1,2.29,5.48C378.9,276.26,377.43,278.38,376.26,281.19Z"/><path d="M125.44,262.86v13.71l-3.21-4.09c.61,2.43.58,3.62,1.15,4.35,3.17,4,5.07-.94,8.16-1.18-1.54,3.59-4.53,5.63-7.57,4.59-1.76-.6-3.59-4.6-3.29-6.79.53-3.86,2.66-7.49,4.12-11.22Z"/><path d="M184,219.33c1.4,4.95,3.73,9.87,3.89,14.85.1,3.35-2.89,6.78-4.49,10.18l-2-.91c1.09-2.58,2.18-5.15,3.26-7.74.44-1,1.45-2.44,1.1-3.07-.48-.88-2-1.18-2.4-1.39V219.5Z"/><path d="M366.48,297.35c-1.51-9.42,9.54-7.74,11.26-14C379.7,292.42,371.15,293,366.48,297.35Z"/><path d="M153.88,268.79l4.41-2.07c-3.34,5.45-5.9,9.62-8.47,13.78l-1.11-.57c1-5.07,1.92-10.14,3.12-16.5Z"/><path d="M350.39,266.62c-8.12,4.26-19.85.36-24.92,12.85C325.5,269.12,337.43,267.14,350.39,266.62Z"/><path d="M224.4,210.6l2.65,2a50.15,50.15,0,0,1,3.12-6.49,12.14,12.14,0,0,1,5-4.2c-1.86,2.95-4.55,5.69-5.36,8.91s.2,7-.27,11l-6.18-10.23Z"/><path d="M289.74,299c-1.89-1.21-4-2.18-5.62-3.68a74.15,74.15,0,0,1-5.61-6.48l3.22.34,5.74-12.21,1.2.42c-1,2.46-1.92,5-3.05,7.38-3,6.32-1.51,10.33,4.88,12.91Z"/><path d="M171.77,243.55c.15,1,.24,1.16.19,1.24-4.34,5.91-8.24,8.08-11.55,6-5.11-3.28-2.09-8-1.62-12.14a4.85,4.85,0,0,1,2.08-3.41c-.37,2.74-1.09,5.49-1,8.22.08,2,.75,4.59,2.13,5.82.74.67,3.69-.67,5.35-1.62S170.11,245.14,171.77,243.55Z"/><path d="M177.08,241.16l3.53-5.66,1.17.76q-2.37,3.65-4.72,7.3c-5.4-3.4-6.6-11.2-3-20.29l.87,17.78Z"/><path d="M312.14,300.11c2,3.78-5.58,7.65.85,11.35-1.91-.61-4.78-.65-5.55-1.94-2.8-4.68.06-8.77,2.94-12.67l-2.29,10,.67.19C309.83,304.84,310.89,302.65,312.14,300.11Z"/><path d="M144,242.64c3.84-6.66-2.27-14.85,4.16-22-.84,8-1.58,15.17-2.33,22.29Z"/><path d="M135.34,256c-.64,3.13-1.71,6.25-1.81,9.4-.08,2.63,1,5.3,1.7,8.8-1-.76-3-1.48-3.26-2.59C130.78,266,130.9,260.54,135.34,256Z"/><path d="M296.83,289.6c-.65,4.15-1.26,8.07-1.87,12l9.93,2c-4.44,1.67-7.88,1.44-10.66-1.05C291.76,300.37,293.19,294.21,296.83,289.6Z"/><path d="M254.6,218.05c-5.86,5.76-9.43,11.19-6.37,19.24C242.62,232.34,246.24,221,254.6,218.05Z"/><path d="M321.32,303.48c-.56,1.62-1.23,3.46-1.84,5.32a14.42,14.42,0,0,1-2.34,5.06v-9.22l-4.08,2.64,1.22-4.34Z"/><path d="M265.49,229c-3,7-8.73,13.31-2,20.8l-1.45.78c-1-1.38-2.58-2.62-3-4.16C257.58,241.19,260.83,232.35,265.49,229Z"/><path d="M362.83,293.47c-2.31,3.63-4.62,7.26-7.59,11.91-2.39-8.2,3.48-9.45,6.49-12.62Z"/><path d="M157.07,253.93c.06.14.22.33.17.43-1.59,3.45-3.28,7.2-7.75,7-2.32-.13-2.53-7.27,0-13.25v11l1.86,1.46q2.17-3.93,4.33-7.86Z"/><path d="M165.75,263.73,165,262l-3.65,4.93c.75-4.41,1.32-7.76,1.9-11.12l4.32,1.6c-.21,1.87-.46,4.09-.72,6.31Z"/><path d="M276.05,287.91c-5.72-1.24-6.2-10.88-.91-18.14C274.07,275.86,271,282,276.05,287.91Z"/><path d="M147.11,262.81,143.42,265,142,251.3c1.18,2.9,7.43,4.68,2.46,8.79Z"/><path d="M335.05,255.32l-19.2,2.45c-.09-.55-.17-1.09-.25-1.64L335,253.49C335,254.1,335,254.71,335.05,255.32Z"/><path d="M235.13,225.73l-3-6.72,1-.76,1.32,2.29,5.34-10.93,1,.46C238.91,215.18,237.07,220.3,235.13,225.73Z"/><path d="M112.4,292.25l4.69-6.29,1,.68q-1.38,2.57-2.75,5.13l.79.71,4.68-5.33,1.06.73c-1.23,1.8-2.15,4-3.81,5.23-1.26.91-3.47.48-5.26.65C112.68,293.25,112.54,292.75,112.4,292.25Z"/><path d="M175.3,237.6V225.48c2.22,1.63,5.67,1.78,4.46,5.38C179,233,177.18,234.84,175.3,237.6Z"/><path d="M354.23,299.2l-6.07,8.06c-2.05-6.3.27-8.45,4.79-9.11Z"/><path d="M269.66,259c-2-4.78.21-12.25,4.9-15.59C273,248.51,271.2,254.13,269.66,259Z"/><path d="M225.74,192.73c-1.28,6.19-2.57,12.38-4.07,19.63-2-7.77,2-13.57,2.36-19.93Z"/><path d="M319.91,240.35c-3,2.87-11,3.86-17.2,1.43Z"/><path d="M349.15,263.49,331,266.88l-.3-1.58,18.3-3.37C349.08,262.45,349.11,263,349.15,263.49Z"/><path d="M298.68,271c.31,4.33.65,9.06,1,13.31A8.33,8.33,0,0,1,298.68,271Z"/><path d="M314.87,237c-5.58,3.66-11.08.78-16.63-1.26Z"/><path d="M328.7,307.88l-5.95,7-3-2.07,3.16-7.18c.37,2,.57,3,.74,4,2,.41,2.18-4.24,4.87-1.51Z"/><path d="M331.64,239.54l15.68,3.88c-.15.58-.31,1.16-.46,1.74L331,241.05Z"/><path d="M278.17,205.76H262.84c0-.22,0-.44,0-.67h15.32Z"/><path d="M119.11,262.12c.62-5.35,1.21-10.51,1.76-15.39C123.55,251.08,122.93,257.16,119.11,262.12Z"/><path d="M359.73,255.18,344,252.54l.3-1.62,15.75,2.57C360,254.05,359.84,254.61,359.73,255.18Z"/><path d="M285.62,227h16.3l.11.47H285.68Z"/><path d="M308.1,248l17-3.55C319.63,248.13,314.94,250.13,308.1,248Z"/><path d="M313.58,211.74h-13.2l0-1.07h13.21C313.61,211,313.59,211.38,313.58,211.74Z"/><path d="M288.45,230.89l18.65,1.18-.08,1.37-18.66-1Z"/><path d="M279.62,268.94q2-7.12,3.92-14.26l1.79.46q-2.08,7.08-4.15,14.14Z"/><path d="M196,191.5c-.78,2.39-1.55,4.78-2.34,7.24l3.92,4.55-1.07.82c-1.61-2.17-4.1-4.17-4.57-6.57-.39-2,1.6-4.43,2.54-6.68Z"/><path d="M340.18,258.94c-5.72,5-12.12,1.44-18.05,1.72Z"/><path d="M133,254.08v-16C135.57,243.4,136.66,248.62,133,254.08Z"/><path d="M136.91,250.33v-13.2C140.17,241.05,140.23,245.79,136.91,250.33Z"/><path d="M327.77,235l14.44,2.59L342,239l-14.51-2.18Z"/><path d="M117.2,253.05c2.57,5.67-.59,9.71-4.28,15.08C114.56,262.33,115.83,257.86,117.2,253.05Z"/><path d="M285.74,211.42l-17.48-1.34.09-1.29,17.88,1.56C286.07,210.7,285.9,211.06,285.74,211.42Z"/><path d="M197.19,173.87,196,187.36l-1.71-.2q.78-6.85,1.55-13.72Z"/><path d="M129.49,241.16c1.34,5,2.29,9.88-1.57,14.92C128.5,250.58,129,245.87,129.49,241.16Z"/><path d="M299.89,222H286.75v-1h13.14Z"/><path d="M197,188.72l2.28-12.42,1.77.35L198.64,189Z"/><path d="M326.42,230.93l10.34,1.52-.26,1.8-10.31-1.48C326.27,232.16,326.34,231.54,326.42,230.93Z"/><path d="M306.89,207,295,205.63l.18-1.59,11.89,1.29Z"/></svg>