<svg id="Layer_1" data-name="Layer 1" xmlns="http://www.w3.org/2000/svg" viewBox="0 0 450 450"><defs><style>.cls-1{fill:#fff;}</style></defs><title>Artboard 7</title><path d="M29.32,125.17,19.4,106c8-10.13,18.08-18.53,31.23-22.88,4.95-1.64,10-2.46,11.34-9.33.83-4.16,5.29-6.48,9.87-7,7.07-.87,14.14-1.9,21.24-2.43a10.4,10.4,0,0,1,6.22,2c4,2.85,7.68,2.68,11.18-1.17,2-2.25,12.36-1.82,15.47,1.15,2,1.93,3.69,1.81,6.15,1.42,4.36-.7,8.62-.1,11.89,3.52a7.82,7.82,0,0,0,2.82,1.87c6.53,2.61,13.4,4.56,19.58,7.82,9.19,4.82,18.77,6.92,29,7.55,33.85,2.08,65.47,11.08,95,28.42,20.52,12,34.4,29,44.74,49.66,4.43,8.84,8.23,18,13.28,26.49,3,5,8.29,8.45,11.75,13.19,5.48,7.54,13.77,13.47,12.52,24.95-.55,5.07,1.54,10.88,3.8,15.71,5.46,11.62,6.55,24,7,36.37a399.21,399.21,0,0,1-.07,43.07c-1.05,15.65-5.69,30.51-15,43.53a21.83,21.83,0,0,1-5.49,5.68c-14.72,9.63-23.37,23.92-30.75,39.26a76.2,76.2,0,0,1-5.87,10.82c-1.91,2.73-4.66,4.85-7.07.05C319,425,318.2,424,317.61,424c-7,.07-14.07.36-21.1.46-1.87,0-4,.11-5.55-.74-3.29-1.84-6.75-3.81-9.24-6.54-4.6-5.06-8.53-10.74-12.81-16.1-1.83-2.29-3.94-4.35-5.78-6.64-2.44-3-4.68-6.25-7.12-9.29a38.23,38.23,0,0,0-5.11-5.72C240.77,371,230.26,363,220.38,354.32c-12.43-11-24.18-22.68-36.6-33.63-9.4-8.28-20-15.23-28.89-24-6.23-6.17-10.77-14.19-15.41-21.78-4-6.63-9-10.37-16.95-12.16a70,70,0,0,1-28.86-14.67c-2.49-2.05-5.91-3-8.3-5.13-4.57-4.07-9.18-8.27-12.85-13.12a17.41,17.41,0,0,1-3.31-10.44c.83-19.14-3.53-37.54-8-55.81-1.5-6.13-6.22-11.48-9.58-17.11-1.33-2.24-3-4.27-4.44-6.44-2.94-4.43-1.57-8.24,2.12-11.28,3.28-2.7.79-5.13-.08-7.47-1-2.76-3.35-4.42-6.35-3.06C38.54,120.16,34.42,122.52,29.32,125.17ZM161.84,91.45l.24,0c-4.9-4-9.75-8.13-14.71-12.07a67.23,67.23,0,0,0-5.76-3.7l-.78,1.26,9.34,8.49c-7.06-1.78-10.78-10.29-20.09-9.2l11.69,8.51L141,85.87c-6.32-3.33-11.5-9.16-20.56-9.94l11.64,8.82c-7.78-1-12-10.64-21.11-7.58l7.1,5.13-.74,1.07c-2.28-1.46-4.44-3.23-6.89-4.32a25.6,25.6,0,0,0-7.61-2c-2.56-.26-5.2.17-8.35.33L112.34,87l-.77,1.42c-4.36-2.25-8.7-4.55-13.09-6.75C90,77.39,89,77.27,84.71,79.46L98.52,86.4l-.68,1.4c-3.56-1.62-7.11-3.26-10.68-4.85-7.45-3.31-7.46-3.3-11.12-1.51l10.83,4.62-.29.63L65.43,81.85,65,83.16l3.38,2.3-.26,1.78-13-2.2,2.8,4-9.94-1L54,92l-11.78,1.8,9.88,3.25-.33,1L37.59,95.8l.12.58,8.07,3.69c-.2.52-.4,1-.59,1.55l-13.3-1.51-.16.88L42,106.49l-.86,1.83c-2.1-.88-4.17-1.84-6.3-2.62s-4.41-1.43-6.61-2.13c3.59,3.18,8.94,3.34,11.13,9.24l-5-1.52c.24,1.82,4.7,3.52-.58,5.4,8.51,0,14.21-5.72,21.14-8.16C62,106,69.27,103.65,77.08,101c-.71,1.74-1,3.32-1.84,4.37-6.56,7.81-13,15.72-19.94,23.2-7.21,7.78-7.46,8.07-.93,14.74.2.2.61.2,1,.32l4.36-3.88c-1.3,2.76-2.13,4.54-3,6.31l.85.61,6.9-7.1c.49,4.85-7.84,6-3.28,11.68l9.4-8.35c-1.17,2.5-3.16,4-4.83,5.84a39.34,39.34,0,0,0-3.33,4.86l1,.74L67.41,150l.94.81c-1.15,1.49-2.66,2.84-3.33,4.53-.59,1.48-.25,3.34-.31,5l1.5.19c.94-2.52,1.39-5.4,2.94-7.45,1.93-2.56,4.76-4.44,7.21-6.61-5.27,6-9.09,12.43-8.85,20.37l1.38.57,2.41-3.31c-.25,2.6-2,4.4-2.63,6.53s.06,4.53.2,7.53l5.5-6.31.77.58q-2.94,4.69-5.89,9.39l.42.16,23.26-24.85,1,.91L70.85,183.47l1.22,1.1,6-6.66c-.74,6.29-9.38,8.44-5.91,15.7,2-2.13,3.63-3.92,6.21-6.71-2.39,6.28-7.26,10.25-5.56,17.17L79.29,197l.61.55L72.73,207.7l1.28.91L79.6,201c-.69,3.29-2.48,6-3.87,8.83s-2.37,6-3.53,9l1,.34L80.52,207c0,7.55-8.26,11.21-5.32,19.36,2.86-3.68,5.14-6.59,7.41-9.5l.91.66L78,226.09l33.88-34.94,1.16,1.11c-10.53,12.29-24.11,21.94-33,36.68,3.33-2.38,6.24-4,8.59-6.22,8.82-8.31,17.41-16.87,26.25-25.16,1.18-1.11,3.33-1.18,5-1.72-5.8,4.81-11.53,9.11-16.7,14s-10,10.51-14.95,15.8l1.18,1.23,27.79-23,1.09,1.29c-10.34,9-22.68,15.91-29.35,28.63l5.5-5.4c-.17,1.86-1.22,2.79-2.08,3.87s-1.61,2.4-2.4,3.61c9.14-7.44,16.33-16.79,26.44-22.87L92.31,236.71c.52.53,1,1.07,1.55,1.61l18.45-16.39,1,1.09L95.15,242.74l1.14,1c1.89-2.22,3.66-4.57,5.7-6.64a63.54,63.54,0,0,1,6.74-6c2.21-1.69,4.66-3.08,7-4.6l.88,1.11L97.26,244.87l6.76,4.29,5.84-7.68.92.56-5,8.74a11.82,11.82,0,0,0,2.15.56c2.77-6,5.43-12.08,8.1-18.14l1.22.43c-2,5.24-4,10.44-5.85,15.73-.5,1.44-.22,3.14-.3,4.72l1.89.08c6.65-16.76,10.52-34.2,12.72-52.08-.74,18.24-3.78,36-11.34,53l1.85.6,4.44-11.15,1.17.42c-1.15,3.73-2.31,7.45-3.64,11.74l5.23-.08q2.14-5.83,4.26-11.6l1.23.44q-1.71,5.61-3.43,11.21l1.33.51c.94-2.56,2.4-5.06,2.73-7.7,1.32-10.55,2.26-21.14,3.41-31.71a29.26,29.26,0,0,1,1.12-4.35l1.39.35c-1.19,14.58-2.38,29.16-3.6,44.18l2.7-1.2c2,3.19,3.38,6.59,5.77,8.94C149.75,275,159.46,284,169.18,293c6.33,5.88,12.84,11.57,19.28,17.35-.34.37-.67.75-1,1.12l-40.59-34.83-.88,1L211.81,335c.34-.4.69-.79,1-1.18L196.12,318.5a4.41,4.41,0,0,1,3.64.85c8.13,7,15.92,14.44,24.34,21.08,12.68,10,25.94,19.25,38.63,29.24,4.24,3.33,7.81,2.23,11.7.42a45.3,45.3,0,0,0,21.89-21.57c6.12-12.72,10.51-26.28,15.83-39.4,4.53-11.17,6.58-22.57,4.22-34.55a6.83,6.83,0,0,1-.14-3.43c5.09-13.64,7.88-28.33,20.46-38.22a36,36,0,0,0,12.94-21.76,17,17,0,0,0-9.8-18.64l6.32,7.11c-14.6-16.08-35.94-19.11-53.61-29.27L332.77,185c-8.5-8.29-19.35-11.86-30.24-15.11s-21.88-6.7-33.07-8.53c-11-1.8-22.38-1.68-33.59-2.41l.09-1.53c10.55.59,21.17.65,31.64,1.92,9.18,1.12,18.17,3.69,27.27,5.47,8.57,1.67,15.8,8.19,25.34,6.67,2-.32,4.28,1.5,6.44,2.34l.59-1.37L297.59,159l.39-.87,31.66,10.57.52-1.17L313.1,158.2a13.76,13.76,0,0,1,7,.67,61.51,61.51,0,0,1,5.69,2.56l.59-1.5c-28.09-13.77-56.36-27.1-87.2-34.05,14.48-.14,27.35,5.74,40.36,11s25.68,10.64,38.52,16l.27-.36-9.95-6,.62-1.13,9.89,4.61a11.7,11.7,0,0,0-4.78-4.3c-13.28-5.92-26.59-11.78-40-17.47-5.55-2.36-11.31-4.24-17-6.35l0,.14a15.78,15.78,0,0,1,3.79.23c9.43,3,18.83,6.07,28.14,9.09-.11-.39-.33-1.13-.61-2.12l7.25,2.16c-16.8-7.52-32.86-17.45-51.46-19.54-18.26-2.06-36.72-2.45-54-3.5,29.48-2.34,59.7-2,88.48,11.68a11.3,11.3,0,0,0-4.42-3.58c-25.22-11.51-51.35-17.46-79.22-13-3.74.59-7.6.41-11.41.59l-.07-1.28c5.86-.47,11.76-.62,17.54-1.51,6.33-1,13.24,1.44,18.9-3l-87.88,0,0-2.2c26-.09,52.07,3.16,78-2L192,91.67l-8.13.38Zm159,212L313,324l1.17.4c2.8-6.77,6.7-13.18,6.47-21l5-10.7a141,141,0,0,1-23.41,58.23l-1.13-.53,8-14-1.1-.85c-1,1-2.46,1.9-3,3.14-5.63,13.5-12,26.37-25.84,33.76l1.08,1.17,15.91-12.44c-3.48,6.7-9.91,10.12-16.17,14.56l3.81-.3c-2,2.49-4.53,3.9-6.86,5.56s-4.36,3.48-6.54,5.23l1.23,1.44L304,361.78c-2.25,6.37-7.87,11.07-14,15.23-5.82,3.92-11.75,7.7-17.63,11.54l.51.79,13.22-7.85.73,1.29-3.14,3.59,1.23,1.11,15.58-16c.5.77.9,1.39,1.6,2.49l11.16-14.33c-2.26,7.64-7.72,12.71-13.48,17.44s-11.83,9.19-17.77,13.76c.12.24.24.47.35.7l12.27-6.32.64,1-8.39,7.46.75,1.09,17.38-12-.74-.79-3.74.07-.45-1.25,8-8.09,1.45,1.19q-1.29,2.79-2.57,5.56l.8.52,15.59-26,1.39.85q-5.82,10-11.63,20.09l.76.49,7.16-7.86.89.78c-.28,1.32-.55,2.63-1,5L338.4,347l1.65,1.15-9.18,12,1.93.8q-1.11,3.91-2.21,7.82l.48.36q7-9.92,14.08-19.84l1,.72L339,361.47l3.47-1.88c-.42,1.54-.74,2.7-1.39,5.06L352.35,350l.57.47c-.67,1.41-1.33,2.83-2.35,5,2.55-1.92,4.75-3,6-4.66,4.17-5.53,8.67-11,11.76-17.08A86.86,86.86,0,0,0,375,314.27a120.69,120.69,0,0,0-.6-58.9c-2.38-9.06-7.73-17.48-5.4-28.6-1.58,2.46-2.42,3.75-3.26,5l-1.06-.21q1-4.64,2-9.28l-2.18-.31-3.48,6.89-.76-.32c.35-3.55.7-7.09,1.12-11.3l-4.75,8.19-.59-.56q.86-5.9,1.72-11.79l-.86,0L352.24,226l-1.67-2.86C336.65,236.74,326,252.07,324.13,273l-3.57-5.27-1.41.47c.74,3.3,1.45,6.62,2.22,9.92.65,2.78,2.87,6.88,1.79,8.1C318.32,291.71,321.65,297.76,320.83,303.42Zm1.6,120.17,1.43.76,14.94-35.44c.31.36.61.73.92,1.1,1.32-.45,3.38-.54,3.83-1.44.85-1.7.78-3.87,1.13-6l3,2.92-1.31-5.71,3.11,1.37-1.54-5.92,4.41,4.34c-.48-2.8-.8-4.73-1.23-7.23l4.88,2.56c.1-3,.19-5.41.32-9.22,1.64,2.83,2.65,4.58,4.12,7.1,1.92-2,4.31-3.58,5.28-5.77,4-9,7.8-18.17,11.18-27.45.88-2.4,0-5.45-.14-8.2-4,3-7.21,5.83-9.18,9.34-8.31,14.87-16.52,29.73-29.52,41.25-1.49,1.32-2,3.75-2.94,5.59-4.32-3.25-20.2,5.84-24.55,15.52l-2.31-.13,2.73-5.73-1.86-.22c-.67,3-1.33,6-2,9l-1.12-.11c.05-2.11.1-4.22.17-7.21-4.2,3.05-8.09,5.27-11.2,8.3-4,3.87-8.08,2.23-12.7.92,0,1.9,0,3.27,0,4.63l.81.25c.4-.94.8-1.87,1.21-2.8l1,.19c.12,1.95.24,3.89.42,6.73l3-4.77c.61,2.86,1.11,5.23,1.9,9l2.71-6.3c.49,2.25.72,3.3,1.15,5.34.77-2.38,1.19-3.66,1.6-4.94l1.57.16-.84,4.52,1.15.25c.51-1.58,1-3.15,1.54-4.73l.77.17.09,4.47.64.1,1.59-4,.69.17c0,1.36.09,2.72.14,4.08l1.48.48c.94-2.66,1.89-5.31,2.92-8.2.54,2.36,1,4.22,1.7,7.49,1.56-3.08,2.35-4.67,3.74-7.41,0,2.79,0,4.2-.05,5.94l2.61-.42c.12-3,.23-5.75.35-8.5l.86.14c.62,3.58,1.23,7.15,2.08,12.11.7-2.36.95-3.22,1.21-4.07l.91-.09ZM75,75.48c4.95,4,10.1-2.66,16.25-1.58-2.1-5.4-5.39-4.91-9-4a40.58,40.58,0,0,1-7.15,1.26c-3.8.25-7.86-.46-10.56,4.77ZM287,400.24c9.9-3.46,17.82-9.71,25.11-17.12l-5.8,2c-.06-.37-.12-.75-.17-1.13l-17.34,12.13,4.58-1,.31.77Zm-74.84-61.87-.87,1.05c16.06,12.43,30.15,27.24,47.58,38ZM321,387.27c7.26-6,15.38-11.31,16.33-22Zm5.93-11-.91-.89c-13.12,9.93-13.12,9.93-11.23,13.17ZM150,79.37c5.64,2.31,7.82,8.44,14.14,8.09C159.55,85.16,158.21,77.71,150,79.37ZM187.7,316.5l-.77.77L206.79,335l.94-1.08Zm-8-6.6.82-1-19-14.9c-.29.38-.58.75-.88,1.12ZM227.8,100.79l16.29-.17C238.49,97.23,229.85,97.09,227.8,100.79Zm8.35,252.46-.89,1.19,19.41,14.36.71-.94ZM381.92,309l-1.51,0c.35,5.07-4,9.76.09,15.14Q381.22,316.57,381.92,309ZM122.73,70.26l-.48-2.08c-3.85.67-8.73-3.05-11.77,2.9ZM336.49,376.55l.78.95L346.86,367C340.62,367.54,339.9,373.32,336.49,376.55Z"/><path class="cls-1" d="M257.21,121.8c5.66,2.11,11.42,4,17,6.35,13.39,5.69,26.7,11.55,40,17.47a11.7,11.7,0,0,1,4.78,4.3l-9.89-4.61-.62,1.13,9.95,6-.27.36c-12.84-5.33-25.63-10.76-38.52-16s-25.88-11.13-40.36-11c30.84,7,59.11,20.28,87.2,34.05l-.59,1.5a61.51,61.51,0,0,0-5.69-2.56,13.76,13.76,0,0,0-7-.67l17.06,9.36-.52,1.17L298,158.16l-.39.87,29.65,13.44-.59,1.37c-2.16-.84-4.47-2.66-6.44-2.34-9.54,1.52-16.77-5-25.34-6.67-9.1-1.78-18.09-4.35-27.27-5.47-10.47-1.27-21.09-1.33-31.64-1.92l-.09,1.53c11.21.73,22.56.61,33.59,2.41,11.19,1.83,22.16,5.28,33.07,8.53s21.74,6.82,30.24,15.11l-40.23-14.66c17.67,10.16,39,13.19,53.61,29.27l-6.32-7.11a17,17,0,0,1,9.8,18.64,36,36,0,0,1-12.94,21.76c-12.58,9.89-15.37,24.58-20.46,38.22a6.83,6.83,0,0,0,.14,3.43c2.36,12,.31,23.38-4.22,34.55-5.32,13.12-9.71,26.68-15.83,39.4a45.3,45.3,0,0,1-21.89,21.57c-3.89,1.81-7.46,2.91-11.7-.42-12.69-10-26-19.25-38.63-29.24-8.42-6.64-16.21-14.06-24.34-21.08a4.41,4.41,0,0,0-3.64-.85l16.72,15.27c-.34.39-.69.78-1,1.18L146,277.66l.88-1,40.59,34.83c.33-.37.66-.75,1-1.12-6.44-5.78-13-11.47-19.28-17.35-9.72-9-19.43-18-28.88-27.34-2.39-2.35-3.76-5.75-5.77-8.94l-2.7,1.2c1.22-15,2.41-29.6,3.6-44.18l-1.39-.35a29.26,29.26,0,0,0-1.12,4.35c-1.15,10.57-2.09,21.16-3.41,31.71-.33,2.64-1.79,5.14-2.73,7.7l-1.33-.51q1.71-5.59,3.43-11.21l-1.23-.44q-2.12,5.78-4.26,11.6l-5.23.08c1.33-4.29,2.49-8,3.64-11.74l-1.17-.42-4.44,11.15-1.85-.6c7.56-16.94,10.6-34.73,11.34-53-2.2,17.88-6.07,35.32-12.72,52.08l-1.89-.08c.08-1.58-.2-3.28.3-4.72,1.81-5.29,3.88-10.49,5.85-15.73L116,233.2c-2.67,6.06-5.33,12.13-8.1,18.14a11.82,11.82,0,0,1-2.15-.56l5-8.74-.92-.56L104,249.16l-6.76-4.29,19.35-17.19-.88-1.11c-2.34,1.52-4.79,2.91-7,4.6a63.54,63.54,0,0,0-6.74,6c-2,2.07-3.81,4.42-5.7,6.64l-1.14-1L113.33,223l-1-1.09L93.86,238.32c-.52-.54-1-1.08-1.55-1.61L116.46,213c-10.11,6.08-17.3,15.43-26.44,22.87.79-1.21,1.5-2.48,2.4-3.61s1.91-2,2.08-3.87l-5.5,5.4c6.67-12.72,19-19.66,29.35-28.63l-1.09-1.29-27.79,23-1.18-1.23c5-5.29,9.68-10.84,14.95-15.8s10.9-9.19,16.7-14c-1.67.54-3.82.61-5,1.72-8.84,8.29-17.43,16.85-26.25,25.16-2.35,2.21-5.26,3.84-8.59,6.22,8.86-14.74,22.44-24.39,33-36.68l-1.16-1.11L78,226.09l5.49-8.61-.91-.66c-2.27,2.91-4.55,5.82-7.41,9.5-2.94-8.15,5.31-11.81,5.32-19.36l-7.37,12.19-1-.34c1.16-3,2.14-6.08,3.53-9s3.18-5.54,3.87-8.83L74,208.61l-1.28-.91,7.17-10.15-.61-.55-6.45,7.07c-1.7-6.92,3.17-10.89,5.56-17.17-2.58,2.79-4.25,4.58-6.21,6.71-3.47-7.26,5.17-9.41,5.91-15.7l-6,6.66-1.22-1.1,23.08-25.35-1-.91L69.67,182.06l-.42-.16q3-4.69,5.89-9.39l-.77-.58-5.5,6.31c-.14-3-.77-5.43-.2-7.53s2.38-3.93,2.63-6.53l-2.41,3.31-1.38-.57c-.24-7.94,3.58-14.32,8.85-20.37-2.45,2.17-5.28,4-7.21,6.61-1.55,2.05-2,4.93-2.94,7.45l-1.5-.19c.06-1.7-.28-3.56.31-5,.67-1.69,2.18-3,3.33-4.53l-.94-.81-3.91,4.32-1-.74a39.34,39.34,0,0,1,3.33-4.86c1.67-1.82,3.66-3.34,4.83-5.84l-9.4,8.35c-4.56-5.63,3.77-6.83,3.28-11.68l-6.9,7.1-.85-.61c.84-1.77,1.67-3.55,3-6.31l-4.36,3.88c-.38-.12-.79-.12-1-.32-6.53-6.67-6.28-7,.93-14.74,6.92-7.48,13.38-15.39,19.94-23.2.88-1,1.13-2.63,1.84-4.37-7.81,2.63-15,5-22.22,7.51-6.93,2.44-12.63,8.16-21.14,8.16,5.28-1.88.82-3.58.58-5.4l5,1.52c-2.19-5.9-7.54-6.06-11.13-9.24,2.2.7,4.43,1.33,6.61,2.13s4.2,1.74,6.3,2.62l.86-1.83L31.73,101l.16-.88,13.3,1.51c.19-.51.39-1,.59-1.55l-8.07-3.69-.12-.58L51.76,98l.33-1-9.88-3.25L54,92l-6-3.93,9.94,1-2.8-4,13,2.2.26-1.78L65,83.16l.42-1.31,21.15,4.84.29-.63L76,81.44c3.66-1.79,3.67-1.8,11.12,1.51,3.57,1.59,7.12,3.23,10.68,4.85l.68-1.4L84.71,79.46C89,77.27,90,77.39,98.48,81.64c4.39,2.2,8.73,4.5,13.09,6.75l.77-1.42L94.46,77.39c3.15-.16,5.79-.59,8.35-.33a25.6,25.6,0,0,1,7.61,2c2.45,1.09,4.61,2.86,6.89,4.32l.74-1.07L111,77.17c9.14-3.06,13.33,6.62,21.11,7.58l-11.64-8.82c9.06.78,14.24,6.61,20.56,9.94l.79-1.15-11.69-8.51c9.31-1.09,13,7.42,20.09,9.2l-9.34-8.49.78-1.26a67.23,67.23,0,0,1,5.76,3.7c5,3.94,9.81,8,14.71,12.07l-10.37,1.18a208.19,208.19,0,0,0,29.45,1.57c3.64-.06,7.26-1.63,10.88-2.51l18.15,2.17c-25.93,5.2-52,2-78,2l0,2.2,87.88,0c-5.66,4.45-12.57,2-18.9,3-5.78.89-11.68,1-17.54,1.51l.07,1.28c3.81-.18,7.67,0,11.41-.59,27.87-4.42,54,1.53,79.22,13a11.3,11.3,0,0,1,4.42,3.58c-28.78-13.72-59-14-88.48-11.68,17.28,1,35.74,1.44,54,3.5,18.6,2.09,34.66,12,51.46,19.54l-7.25-2.16c.28,1,.5,1.73.61,2.12-9.31-3-18.71-6.11-28.14-9.09a15.78,15.78,0,0,0-3.79-.23l-31.93-6.56c-.12.77-.25,1.54-.37,2.31Zm-45.95,76-11.63.38.06,1.08,17.55,2.15.2-.8L211,197.78c3,.07,6.15-.25,9.1.28,5.59,1,11.08,2.49,16.62,3.78l.28-1.34c-4.88-3.12-20-5.25-26.8-3.78Zm28.83,152.3,1.21-1.38L161,279.83l-1.31,1.53Zm-89.93-81.88,1.21-1,6.86,6.14,1-1.17c-1.35-1.33-3.16-2.44-4-4-2.6-5.23-5.55-9.77-11.9-11-.91-.18-1.62-2-2.2-3.12-1-2-1.9-4.19-2.83-6.29l-1.89.67c.68,2.55,1.36,5.09,2,7.36l-3.09-1.53c4.41,10.89,13.09,16.18,20.67,22.46Zm129.55,97.9c.07-.63.13-1.26.2-1.89-23-8-38.18-27.41-58.4-39.5a11,11,0,0,0,2.9,3.9c10.65,8.36,21.31,16.71,32.07,24.92,5.47,4.17,11,8.27,16.85,12C274.94,366.52,277.56,366,279.71,366.11ZM246.15,203.05l-1,1.06,36,26C271.93,217.73,258.67,210.91,246.15,203.05ZM194.1,256.26a164.31,164.31,0,0,0-46.76-27.67Zm-9.35-19c.21-.51.42-1,.64-1.54-10.32-5.4-20.44-11.27-32.5-12.39Zm110.77-42.24,39,19.94C323.1,205,309.54,199.72,295.52,195.05Zm-77.25-15.73-.21,2L261.29,185c0-.5.09-1,.13-1.51ZM330,236c.07-.66.13-1.31.2-2l-29.84-11-.48,1.17a19.65,19.65,0,0,0,2.48,1.31c7.81,2.85,16,4.76,22.43,10.72C325.69,237,328.23,236.07,330,236Zm17.19-29.83,1.14-1.52-18.47-13.19-1,1.35,8.95,6.64c0,.28,0,.55-.08.82l-3.09-1.38v.78l11.64,9.55.67-.69-3.26-4.67.27-.33ZM78.43,217.93l31.83-33.2C98.52,194.94,85.72,204.16,78.43,217.93Zm100.48,38.85,1.19-1.65-33.44-20.19-.87,1.41Zm-1.17,20.07-1.32,1.42,26.51,22.64,1.17-1.4Zm13-152.53-.17,1.56,44.48,1.37c0-.48,0-1,0-1.44Zm34.63,10.18L267,141.13A98.89,98.89,0,0,0,225.39,134.5Zm-56,71.78L205,213.5C198.61,209.1,178.94,204.94,169.34,206.28ZM166.78,155c-.06-.5-.13-1-.2-1.49l-42.2,5.34c.06.42.12.84.17,1.26Zm143.06,62.32-.84,1.78c9.55,2.52,17.09,9.19,26.12,12.81l1.24-2.63Zm-49.1,56c.28-.37.55-.74.83-1.1l-27.91-21.26c-.38.51-.76,1-1.15,1.54Zm-10,65.72c.41-.6.82-1.19,1.22-1.79l-23.2-17.76-1.07,1.43Zm51.88-106.87c6.16,3.23,12.45,6.6,18.83,9.79.91.46,2.26.06,3.4.06-.25-.83-.3-2.24-.8-2.42C316.75,236.91,310.57,230.87,302.59,232.09Zm-38-39.46-.54,1.61,34,11.62.5-1.52ZM283,182c-.28.61-.55,1.23-.82,1.85l32.23,11.3c.15-.38.29-.76.43-1.15ZM271.73,294.22l1.16-1.65L246,275.77c-.26.41-.53.82-.8,1.23ZM122.26,252.7c4.75-8.23,7.7-24.74,6.12-31C126.33,232.08,124.29,242.39,122.26,252.7Zm43.83,25.18-1,1.38,24.82,20.37,1-1.25Zm123.77,4.8,1.06-1.3-23.71-20.31-1.1,1.3ZM97.66,120.93c.12.48.25,1,.38,1.45l30.11-7.46c-.15-.55-.29-1.1-.43-1.66ZM252.87,357.55c7.43,9.44,14,13,18.48,10.16ZM235.74,308.7l1.14-1.18L214,291.2c-.36.49-.71,1-1.07,1.49Zm14-132.46.06-1.76-26.64-.86-.06,1.93ZM206.2,221.76l-1.07,1.58,23,12.23.79-1.48Zm-35.65,52.41,1.06-1.23-20.73-17.79-1.2,1.39ZM141,215.43l-1.65-.08-3.09,24.9,2,.24Q139.63,228,141,215.43Zm181-17.56c4.13,2.24,8.45,4.19,12.33,6.8s7.1,5.76,10.62,8.68l.75-1C339.62,204.66,331.34,200.43,322,197.87ZM128,108.28c-12.33-.16-22.89,3-34.47,7.71ZM75.51,185.09l1.1,1.07,21.08-21.78-1-.94Zm30.4-8.23-1.16-1.2q-9,9.61-18,19.24c.37.36.75.71,1.13,1.06Zm232.53,49.29.92-1.7L319.66,213l-.81,1.41ZM223.85,145.5c0,.56-.06,1.12-.1,1.68l23.18,0,0-1.82Zm50.72,192.61c-.21.59-.43,1.17-.64,1.76l18.67,9.52.73-1.43Zm-42-114.43-.66,1.21,20.25,11.89.84-1.53Zm-24.45,52.95,1-1.78q-9.48-6-19-12l-.68,1.06Q198.82,270.25,208.15,276.63Zm38-113.37-.18,2,20.44.11.05-.32Zm-88.82,53.37,18.17,4.22C170,216.73,164,214.89,157.36,216.63Zm144.69,49.8c-1.89-5.63-3.6-10.69-5.56-16.48C294.94,257.2,297.28,263.9,302.05,266.43Zm-19.28,1.33c-3.2-6.6-7.48-12.22-14-15.79Zm-83.34-98-.3-1.83-21.77,4.28c.09.49.19,1,.28,1.47ZM83.26,140.29c.16.64.31,1.29.47,1.93l19.18-4.81c-.12-.51-.25-1-.37-1.53Zm49.5,13.45,0-1.49-25.09,1.8c0,.5.07,1,.1,1.5ZM287,259.58a36.24,36.24,0,0,0-12.82-16.45l-1,.88Zm3.32-81.14c-.19.57-.39,1.13-.58,1.69l18.69,6.29L309,185ZM78.47,193l21.69-21.86C92.18,177.15,84,183,78.47,193ZM238.61,333.17l-.93,1.17,18.17,13,1-1.41Zm16.59,2.74,1-1.24-16.41-11.84-1,1.39Zm-92.59-75.75.84-1.5-15-10.83-1.06,1.5Zm16.78-45.57c-4.39-3.89-9.36-5.07-16.08-2.81Zm78.49,108.55-1,1.44,14.89,10,1-1.3ZM152.61,171.05l-.27-1.49-19.69,3.67c.1.5.19,1,.28,1.5Zm156,121.08-2.29-.2q.21,7.23.41,14.48l1.79-.06ZM91.79,143.29c.12.53.23,1.06.35,1.59l18.11-3.78-.35-1.63Zm78.62,115.5-1.22,1.2,12.23,10.7,1.19-1.37ZM92.54,100.16,93,101.9l19.4-6.16c-.11-.38-.23-.77-.35-1.15ZM82.6,150.59l-1.29-1.38L69.46,162.14l1,.87ZM268.76,304c.28-.49.57-1,.86-1.46l-14-8.42-.82,1.38Zm-71-73.39-.81,1.54,15.36,8.06.75-1.44Zm108,10.16-.55,1.6L321,248.34c.2-.54.39-1.09.58-1.64Zm-27.08-3.2,1.17-1.07-13.72-12c-.4.44-.79.89-1.18,1.34ZM149.3,164.44c0-.55,0-1.1,0-1.65l-19.11,2.3.14,1.24Zm25.21,72.3c.18-.49.37-1,.55-1.49l-15.3-6.55-.63,1.5Zm95.37-87c-.1.55-.2,1.09-.29,1.64l15.88,4.16c.13-.53.27-1.07.41-1.6ZM85,156.6l-.8-.7q-6.43,7-12.88,14l1.22,1.1Zm203-9-.51,1.41,16.38,5.94.49-1.35Zm47.86,62.2-.77,1.32c2.63,2.76,4.77,6.37,9.24,6l.84-1.36ZM291.71,248l1.52-1.07-7.71-10.75-1.37.95Zm2-35.71c.06-.49.13-1,.19-1.49l-16.17-4.1-.41,1.64Zm-135.81,6-.51,1.8,12.34,3.7c.18-.61.35-1.23.52-1.84ZM95.71,108.23c.11.45.23.91.34,1.37l17.16-4.26-.35-1.38ZM205.37,249.11l1.1-1.5-11.81-6.69-.87,1.49Zm92.19,92.41.87-1.7-11.65-4.42-.69,1.73Zm-9.4,13.84,1.34-2.23-9.89-4.47L279,350ZM272,279.57l-.93,1.72,12.05,7.45.72-1.19ZM317.12,256,318,254l-10.09-4.22-.75,1.7Zm-16.44,76.55c-1.6-4.68-5.43-5.65-9.86-5.59ZM273,186.5l-.52,1.61,11.7,3.84.54-1.68ZM198.45,304.42l-1.29,1.41,9.61,7.87,1-1.2Zm-2.12-99.16c.08-.54.16-1.08.25-1.62l-11.69-1.89-.27,1.74Z"/><path class="cls-1" d="M320.83,303.42c.82-5.66-2.51-11.71,2.33-17.19,1.08-1.22-1.14-5.32-1.79-8.1-.77-3.3-1.48-6.62-2.22-9.92l1.41-.47,3.57,5.27c1.91-20.94,12.52-36.27,26.44-49.88l1.67,2.86L357,213.08l.86,0q-.85,5.9-1.72,11.79l.59.56,4.75-8.19c-.42,4.21-.77,7.75-1.12,11.3l.76.32,3.48-6.89,2.18.31q-1,4.65-2,9.28l1.06.21c.84-1.29,1.68-2.58,3.26-5-2.33,11.12,3,19.54,5.4,28.6a120.69,120.69,0,0,1,.6,58.9,86.86,86.86,0,0,1-6.66,19.46c-3.09,6.12-7.59,11.55-11.76,17.08-1.29,1.71-3.49,2.74-6,4.66,1-2.19,1.68-3.61,2.35-5l-.57-.47-11.24,14.67c.65-2.36,1-3.52,1.39-5.06L339,361.47,346.15,350l-1-.72q-7,9.93-14.08,19.84l-.48-.36q1.1-3.9,2.21-7.82l-1.93-.8,9.18-12L338.4,347l-17.56,26.17c.49-2.35.76-3.66,1-5l-.89-.78-7.16,7.86-.76-.49q5.82-10.05,11.63-20.09l-1.39-.85-15.59,26-.8-.52q1.27-2.78,2.57-5.56L308,372.63l-8,8.09.45,1.25,3.74-.07.74.79-17.38,12-.75-1.09,8.39-7.46-.64-1-12.27,6.32c-.11-.23-.23-.46-.35-.7,5.94-4.57,12-9,17.77-13.76s11.22-9.8,13.48-17.44L302.08,374c-.7-1.1-1.1-1.72-1.6-2.49l-15.58,16-1.23-1.11,3.14-3.59-.73-1.29-13.22,7.85-.51-.79c5.88-3.84,11.81-7.62,17.63-11.54,6.18-4.16,11.8-8.86,14-15.23l-32.3,25.85-1.23-1.44c2.18-1.75,4.27-3.61,6.54-5.23s4.84-3.07,6.86-5.56l-3.81.3c6.26-4.44,12.69-7.86,16.17-14.56l-15.91,12.44-1.08-1.17c13.8-7.39,20.21-20.26,25.84-33.76.52-1.24,2-2.1,3-3.14l1.1.85-8,14,1.13.53a141,141,0,0,0,23.41-58.23l-5,10.7Zm9.36-42.78c-3,2.6-4.05,5.7-2.6,10.33,4.4-3.12,2.7-6.89,2.44-10.31l7.77-19.78a104.56,104.56,0,0,0-8.69,17.35C328.88,258.79,329.82,259.82,330.19,260.64Zm36,7.24,4.1,9.36,1.8-1c-.8-3.59-.45-7.92-6.09-8.38.85-1.35,2.64-2.89,2.4-4-1.82-8.68-4-17.27-5.85-24.8C360.36,244.19,361.84,259,366.21,267.88Zm-37.75,62q2-7.59,4-15.17l-1.48-.47q-2,5.19-3.91,10.37l-.56-.25q1.68-8.11,3.35-16.23l-1.38-.46c-1,2.13-3.14,4.49-2.76,6.33,1.05,5.16-2.6,7.82-4.68,11.36q1.65-5.67,3.31-11.33l-.94-.26c-3.63,8.33-7.27,16.66-11.05,25.3l3.1-.41c-2.21,4.16-4.27,8.06-6.47,12.18,6.65-7.24,13.05-14.21,19.45-21.16l-5.05,12.66c7.08-6.75,13.75-22,12.81-27.45ZM356.22,290c.57-7.58.19-15-3.72-21.78-.55-.94-2.08-1.75-2-2.55.38-6.39,1-12.78,1.62-19.16.31-3.18.77-6.35,1.16-9.52l-1.29-.26c-.6,2.77-1.22,5.54-1.81,8.32a44.4,44.4,0,0,0-1.27,6.58,122.82,122.82,0,0,0-.25,15.34c.14,2,2.46,3.68,3.07,5.72C353.41,278.38,354.74,284.2,356.22,290Zm-7.66-54.5c-8.21,15.43-10.35,31-1.38,47C342.94,266.67,344.85,251.05,348.56,235.48Zm13.82,40.18c-1.81-12.38-3.74-25.56-5.51-37.68C352.61,245.89,355.63,267.75,362.38,275.66Zm-19.72-39.48c-5.48,12.87-14.42,25.35-4.66,40.44C336.17,262.53,337.46,249.12,342.66,236.18Zm20.85,66.21c-1.07,6.28-1.63,12.7-3.34,18.81s-4.61,12-7,18C361.58,328.36,365.24,316.13,363.51,302.39Zm-6.29,2.83-11.39,31.6C353.16,327.05,357,316.13,357.22,305.22Zm-27.69,40.14c8.74-7.58,12.61-18.87,15.87-30.7C339.9,325.31,334.48,335.8,329.53,345.36Zm38.76-103-1.58.48q3.78,12.68,7.57,25.36l1.87-.57ZM329.85,337.7l2.21,1.08q4.5-10.44,9-20.86l-1.68-.76Q334.62,327.43,329.85,337.7Zm34.13-.07c6-7.37,7.83-15.42,7.75-24.11ZM341,334.33l1.67.91L351,316.39l-1.49-.7Zm11.66-2.65,1.59.57L358.64,320l-1.63-.59Q354.85,325.55,352.7,331.68Z"/><path class="cls-1" d="M322.43,423.59l-1.26-5.78-.91.09c-.26.85-.51,1.71-1.21,4.07-.85-5-1.46-8.53-2.08-12.11l-.86-.14c-.12,2.75-.23,5.5-.35,8.5l-2.61.42c0-1.74,0-3.15.05-5.94-1.39,2.74-2.18,4.33-3.74,7.41-.74-3.27-1.16-5.13-1.7-7.49-1,2.89-2,5.54-2.92,8.2l-1.48-.48c-.05-1.36-.09-2.72-.14-4.08l-.69-.17-1.59,4-.64-.1-.09-4.47-.77-.17c-.51,1.58-1,3.15-1.54,4.73l-1.15-.25.84-4.52-1.57-.16c-.41,1.28-.83,2.56-1.6,4.94-.43-2-.66-3.09-1.15-5.34l-2.71,6.3c-.79-3.74-1.29-6.11-1.9-9l-3,4.77c-.18-2.84-.3-4.78-.42-6.73l-1-.19c-.41.93-.81,1.86-1.21,2.8l-.81-.25c0-1.36,0-2.73,0-4.63,4.62,1.31,8.73,2.95,12.7-.92,3.11-3,7-5.25,11.2-8.3-.07,3-.12,5.1-.17,7.21l1.12.11c.67-3,1.33-6,2-9l1.86.22-2.73,5.73,2.31.13c4.35-9.68,20.23-18.77,24.55-15.52.93-1.84,1.45-4.27,2.94-5.59,13-11.52,21.21-26.38,29.52-41.25,2-3.51,5.2-6.32,9.18-9.34.1,2.75,1,5.8.14,8.2-3.38,9.28-7.17,18.42-11.18,27.45-1,2.19-3.36,3.74-5.28,5.77-1.47-2.52-2.48-4.27-4.12-7.1-.13,3.81-.22,6.18-.32,9.22l-4.88-2.56c.43,2.5.75,4.43,1.23,7.23l-4.41-4.34,1.54,5.92-3.11-1.37,1.31,5.71-3-2.92c-.35,2.14-.28,4.31-1.13,6-.45.9-2.51,1-3.83,1.44-.31-.37-.61-.74-.92-1.1l-14.94,35.44Z"/><path class="cls-1" d="M75,75.48l-10.42.43c2.7-5.23,6.76-4.52,10.56-4.77a40.58,40.58,0,0,0,7.15-1.26c3.57-.89,6.86-1.38,9,4C85.14,72.82,80,79.48,75,75.48Z"/><path class="cls-1" d="M287,400.24l6.69-4.37-.31-.77-4.58,1L306.17,384c.05.38.11.76.17,1.13l5.8-2C304.85,390.53,296.93,396.78,287,400.24Z"/><path class="cls-1" d="M212.19,338.37l46.71,39.08c-17.43-10.79-31.52-25.6-47.58-38Z"/><path d="M192,91.67c-3.62.88-7.24,2.45-10.88,2.51a208.19,208.19,0,0,1-29.45-1.57l10.37-1.18-.24,0,22.07.6Z"/><path class="cls-1" d="M321,387.27l16.33-22C336.39,376,328.27,381.26,321,387.27Z"/><path class="cls-1" d="M326.94,376.29,314.8,388.57c-1.89-3.24-1.89-3.24,11.23-13.17Z"/><path class="cls-1" d="M183.91,92.05l-22.07-.6Z"/><path class="cls-1" d="M150,79.37c8.18-1.66,9.52,5.79,14.14,8.09C157.85,87.81,155.67,81.68,150,79.37Z"/><path class="cls-1" d="M187.7,316.5l20,17.39-.94,1.08-19.86-17.7Z"/><path class="cls-1" d="M179.66,309.9l-19.09-14.82c.3-.37.59-.74.88-1.12l19,14.9Z"/><path class="cls-1" d="M227.8,100.79c2-3.7,10.69-3.56,16.29-.17Z"/><path class="cls-1" d="M320.66,303.4c.23,7.79-3.67,14.2-6.47,21L313,324l7.81-20.55Z"/><path class="cls-1" d="M236.15,353.25l19.23,14.61-.71.94-19.41-14.36Z"/><path class="cls-1" d="M381.92,309q-.71,7.56-1.42,15.12c-4.05-5.38.26-10.07-.09-15.14Z"/><path class="cls-1" d="M122.73,70.26l-12.25.82c3-6,7.92-2.23,11.77-2.9Z"/><path class="cls-1" d="M336.49,376.55c3.41-3.23,4.13-9,10.37-9.57l-9.59,10.52Z"/><path d="M240.09,350.09l-80.44-68.73,1.31-1.53,80.34,68.88Z"/><path d="M150.16,268.21l5.85,8.44c-7.58-6.28-16.26-11.57-20.67-22.46l3.09,1.53c-.6-2.27-1.28-4.81-2-7.36l1.89-.67c.93,2.1,1.8,4.24,2.83,6.29.58,1.15,1.29,2.94,2.2,3.12,6.35,1.23,9.3,5.77,11.9,11,.8,1.61,2.61,2.72,4,4l-1,1.17-6.86-6.14Z"/><path d="M279.71,366.11c-2.15-.16-4.77.41-6.38-.61-5.81-3.69-11.38-7.79-16.85-12-10.76-8.21-21.42-16.56-32.07-24.92a11,11,0,0,1-2.9-3.9c20.22,12.09,35.44,31.51,58.4,39.5C279.84,364.85,279.78,365.48,279.71,366.11Z"/><path d="M246.15,203.05c12.52,7.86,25.78,14.68,35,27.11l-36-26Z"/><path d="M194.1,256.26l-46.76-27.67A164.31,164.31,0,0,1,194.1,256.26Z"/><path d="M184.75,237.29l-31.86-13.93c12.06,1.12,22.18,7,32.5,12.39C185.17,236.26,185,236.78,184.75,237.29Z"/><path d="M295.52,195.05c14,4.67,27.58,10,39,19.94Z"/><path d="M218.27,179.32l43.15,4.19c0,.5-.09,1-.13,1.51l-43.23-3.72Z"/><path d="M330,236c-1.78.12-4.32,1.07-5.21.25-6.4-6-14.62-7.87-22.43-10.72a19.65,19.65,0,0,1-2.48-1.31l.48-1.17,29.84,11C330.14,234.64,330.08,235.29,330,236Z"/><path d="M347.2,206.12,344,203.48l-.27.33,3.26,4.67-.67.69-11.64-9.55v-.78l3.09,1.38c0-.27.06-.54.08-.82l-8.95-6.64,1-1.35,18.47,13.19Z"/><path d="M78.43,217.93c7.29-13.77,20.09-23,31.83-33.2Z"/><path d="M178.91,256.78l-33.12-20.43.87-1.41,33.44,20.19Z"/><path d="M177.74,276.85l26.36,22.66-1.17,1.4-26.51-22.64Z"/><path d="M190.76,124.32l44.35,1.49c0,.48,0,1,0,1.44l-44.48-1.37Z"/><path d="M225.39,134.5A98.89,98.89,0,0,1,267,141.13Z"/><path d="M169.34,206.28c9.6-1.34,29.27,2.82,35.62,7.22Z"/><path d="M166.78,155l-42.23,5.11c0-.42-.11-.84-.17-1.26l42.2-5.34C166.65,154,166.72,154.47,166.78,155Z"/><path d="M309.84,217.29l26.52,12-1.24,2.63c-9-3.62-16.57-10.29-26.12-12.81Z"/><path d="M260.74,273.24l-28.23-20.82c.39-.51.77-1,1.15-1.54l27.91,21.26C261.29,272.5,261,272.87,260.74,273.24Z"/><path d="M250.71,339l-23.05-18.12,1.07-1.43,23.2,17.76C251.53,337.77,251.12,338.36,250.71,339Z"/><path d="M302.59,232.09c8-1.22,14.16,4.82,21.43,7.43.5.18.55,1.59.8,2.42-1.14,0-2.49.4-3.4-.06C315,238.69,308.75,235.32,302.59,232.09Z"/><path d="M264.56,192.63l33.95,11.71-.5,1.52-34-11.62Z"/><path d="M283,182l31.84,12c-.14.39-.28.77-.43,1.15l-32.23-11.3C282.42,183.18,282.69,182.56,283,182Z"/><path d="M211.27,197.79l-1.05-1.07c6.84-1.47,21.92.66,26.8,3.78l-.28,1.34c-5.54-1.29-11-2.77-16.62-3.78-3-.53-6.06-.21-9.1-.28Z"/><path d="M271.73,294.22,245.19,277c.27-.41.54-.82.8-1.23l26.9,16.8Z"/><path d="M122.26,252.7c2-10.31,4.07-20.62,6.12-31C130,228,127,244.47,122.26,252.7Z"/><path d="M166.09,277.88l24.85,20.5-1,1.25L165.1,279.26Z"/><path d="M289.86,282.68l-23.75-20.31,1.1-1.3,23.71,20.31Z"/><path d="M97.66,120.93l30.06-7.67c.14.56.28,1.11.43,1.66L98,122.38C97.91,121.89,97.78,121.41,97.66,120.93Z"/><path d="M252.87,357.55l18.48,10.16C266.89,370.58,260.3,367,252.87,357.55Z"/><path d="M235.74,308.7l-22.77-16c.36-.5.71-1,1.07-1.49l22.84,16.32Z"/><path d="M249.76,176.24l-26.64-.69.06-1.93,26.64.86Z"/><path d="M257.21,121.8l-32.32-4.11c.12-.77.25-1.54.37-2.31l31.93,6.56Z"/><path d="M206.2,221.76l22.7,12.33-.79,1.48-23-12.23Z"/><path d="M170.55,274.17l-20.87-17.63,1.2-1.39,20.73,17.79Z"/><path d="M141,215.43q-1.39,12.54-2.78,25.06l-2-.24,3.09-24.9Z"/><path d="M322,197.87c9.32,2.56,17.6,6.79,23.7,14.44l-.75,1c-3.52-2.92-6.84-6.14-10.62-8.68S326.15,200.11,322,197.87Z"/><path d="M128,108.28,93.55,116C105.13,111.25,115.69,108.12,128,108.28Z"/><path d="M75.51,185.09l21.21-21.65,1,.94L76.61,186.16Z"/><path d="M105.91,176.86,87.9,196c-.38-.35-.76-.7-1.13-1.06q9-9.61,18-19.24Z"/><path d="M338.44,226.15l-19.59-11.74.81-1.41,19.7,11.45Z"/><path d="M223.85,145.5l23.05-.11,0,1.82-23.18,0C223.79,146.62,223.82,146.06,223.85,145.5Z"/><path d="M274.57,338.11,293.33,348l-.73,1.43-18.67-9.52C274.14,339.28,274.36,338.7,274.57,338.11Z"/><path d="M232.6,223.68,253,235.25l-.84,1.53-20.25-11.89Z"/><path d="M208.15,276.63q-9.33-6.39-18.68-12.76l.68-1.06q9.49,6,19,12Z"/><path d="M246.18,163.26l20.31,1.82-.05.32L246,165.29Z"/><path d="M157.36,216.63c6.65-1.74,12.66.1,18.17,4.22Z"/><path d="M302.05,266.43c-4.77-2.53-7.11-9.23-5.56-16.48C298.45,255.74,300.16,260.8,302.05,266.43Z"/><path d="M282.77,267.76l-14-15.79C275.29,255.54,279.57,261.16,282.77,267.76Z"/><path d="M199.43,169.78l-21.79,3.92c-.09-.49-.19-1-.28-1.47L199.13,168Z"/><path d="M83.26,140.29l19.28-4.41c.12.51.25,1,.37,1.53l-19.18,4.81C83.57,141.58,83.42,140.93,83.26,140.29Z"/><path d="M132.76,153.74l-25,1.81c0-.5-.06-1-.1-1.5l25.09-1.8Z"/><path d="M287,259.58,273.18,244l1-.88A36.24,36.24,0,0,1,287,259.58Z"/><path d="M290.33,178.44,309,185l-.51,1.47-18.69-6.29C289.94,179.57,290.14,179,290.33,178.44Z"/><path d="M78.47,193c5.53-10,13.71-15.84,21.69-21.86Z"/><path d="M238.61,333.17l18.2,12.71-1,1.41-18.17-13Z"/><path d="M255.2,335.91l-16.43-11.69,1-1.39,16.41,11.84Z"/><path d="M162.61,260.16l-15.22-10.83,1.06-1.5,15,10.83Z"/><path d="M211,197.78l6.42,2.82-.2.8-17.55-2.15-.06-1.08,11.63-.38Z"/><path d="M179.39,214.59l-16.08-2.81C170,209.52,175,210.7,179.39,214.59Z"/><path d="M257.88,323.14l14.84,10.12-1,1.3-14.89-10Z"/><path d="M152.61,171.05l-19.68,3.68c-.09-.5-.18-1-.28-1.5l19.69-3.67Z"/><path d="M308.65,292.13l-.09,14.22-1.79.06q-.21-7.25-.41-14.48Z"/><path d="M91.79,143.29l18.11-3.82.35,1.63-18.11,3.78C92,144.35,91.91,143.82,91.79,143.29Z"/><path d="M170.41,258.79l12.2,10.53-1.19,1.37L169.19,260Z"/><path d="M92.54,100.16,112,94.59c.12.38.24.77.35,1.15L93,101.9Z"/><path d="M82.6,150.59,70.42,163l-1-.87,11.85-12.93Z"/><path d="M268.76,304l-13.95-8.5.82-1.38,14,8.42C269.33,303.07,269,303.55,268.76,304Z"/><path d="M197.72,230.65l15.3,8.16-.75,1.44-15.36-8.06Z"/><path d="M305.75,240.81l15.87,5.89c-.19.55-.38,1.1-.58,1.64l-15.84-5.93Z"/><path d="M278.67,237.61,264.94,225.9c.39-.45.78-.9,1.18-1.34l13.72,12Z"/><path d="M149.3,164.44l-19,1.89-.14-1.24,19.11-2.3C149.28,163.34,149.29,163.89,149.3,164.44Z"/><path d="M174.51,236.74l-15.38-6.54.63-1.5,15.3,6.55C174.88,235.75,174.69,236.25,174.51,236.74Z"/><path d="M269.88,149.74l16,4.2c-.14.53-.28,1.07-.41,1.6l-15.88-4.16C269.68,150.83,269.78,150.29,269.88,149.74Z"/><path d="M85,156.6,72.56,171l-1.22-1.1q6.45-7,12.88-14Z"/><path d="M288,147.55l16.36,6-.49,1.35L287.49,149Z"/><path d="M335.86,209.75l9.31,5.95-.84,1.36c-4.47.38-6.61-3.23-9.24-6Z"/><path d="M291.71,248l-7.56-10.87,1.37-.95L293.23,247Z"/><path d="M293.68,212.33l-16.39-4,.41-1.64,16.17,4.1C293.81,211.34,293.74,211.84,293.68,212.33Z"/><path d="M157.87,218.3,170.22,222c-.17.61-.34,1.23-.52,1.84l-12.34-3.7Z"/><path d="M95.71,108.23,112.86,104l.35,1.38L96.05,109.6C95.94,109.14,95.82,108.68,95.71,108.23Z"/><path d="M205.37,249.11l-11.58-6.7.87-1.49,11.81,6.69Z"/><path d="M297.56,341.52l-11.47-4.39.69-1.73,11.65,4.42Z"/><path d="M288.16,355.36,279,350l.63-1.29,9.89,4.47Z"/><path d="M272,279.57l11.84,8-.72,1.19L271,281.29Z"/><path d="M317.12,256l-9.94-4.57.75-1.7L318,254Z"/><path d="M300.68,332.59,290.82,327C295.25,326.94,299.08,327.91,300.68,332.59Z"/><path d="M273,186.5l11.72,3.77-.54,1.68-11.7-3.84Z"/><path d="M198.45,304.42l9.29,8.08-1,1.2-9.61-7.87Z"/><path d="M196.33,205.26l-11.71-1.77.27-1.74,11.69,1.89C196.49,204.18,196.41,204.72,196.33,205.26Z"/><path d="M328.47,329.71,309,350.88c2.2-4.12,4.26-8,6.47-12.18l-3.1.41c3.78-8.64,7.42-17,11.05-25.3l.94.26q-1.65,5.67-3.31,11.33c2.08-3.54,5.73-6.2,4.68-11.36-.38-1.84,1.76-4.2,2.76-6.33l1.38.46q-1.68,8.11-3.35,16.23l.56.25q1.95-5.19,3.91-10.37l1.48.47q-2,7.59-4,15.17Z"/><path d="M356.22,290c-1.48-5.78-2.81-11.6-4.52-17.31-.61-2-2.93-3.76-3.07-5.72a122.82,122.82,0,0,1,.25-15.34,44.4,44.4,0,0,1,1.27-6.58c.59-2.78,1.21-5.55,1.81-8.32l1.29.26c-.39,3.17-.85,6.34-1.16,9.52-.62,6.38-1.24,12.77-1.62,19.16-.05.8,1.48,1.61,2,2.55C356.41,275,356.79,282.4,356.22,290Z"/><path d="M348.56,235.48c-3.71,15.57-5.62,31.19-1.38,47C338.21,266.53,340.35,250.91,348.56,235.48Z"/><path d="M362.38,275.66c-6.75-7.91-9.77-29.77-5.51-37.68C358.64,250.1,360.57,263.28,362.38,275.66Z"/><path d="M342.66,236.18c-5.2,12.94-6.49,26.35-4.66,40.44C328.24,261.53,337.18,249.05,342.66,236.18Z"/><path d="M366.15,267.88c-4.31-8.92-5.79-23.69-3.58-28.78,1.82,7.53,4,16.12,5.85,24.8.24,1.11-1.55,2.65-2.4,4Z"/><path d="M363.51,302.39c1.73,13.74-1.93,26-10.33,36.85,2.38-6,5.25-11.86,7-18S362.44,308.67,363.51,302.39Z"/><path d="M357.22,305.22c-.21,10.91-4.06,21.83-11.39,31.6Z"/><path d="M329.53,345.36c5-9.56,10.37-20.05,15.87-30.7C342.14,326.49,338.27,337.78,329.53,345.36Z"/><path d="M328.46,329.92l7.77-15c.94,5.48-5.73,20.7-12.81,27.45,1.86-4.67,3.46-8.67,5.05-12.67Z"/><path d="M368.29,242.31l7.86,25.27-1.87.57q-3.79-12.69-7.57-25.36Z"/><path d="M329.85,337.7q4.75-10.26,9.52-20.54l1.68.76q-4.5,10.43-9,20.86Z"/><path d="M364,337.63l7.75-24.11C371.81,322.21,370,330.26,364,337.63Z"/><path d="M341,334.33l8.49-18.64,1.49.7-8.31,18.85Z"/><path d="M330.21,260.64c-.39-.82-1.33-1.85-1.1-2.41a104.56,104.56,0,0,1,8.69-17.35L330,260.66Z"/><path d="M366,267.9c5.64.46,5.29,4.79,6.09,8.38l-1.8,1c-1.37-3.12-2.73-6.24-4.13-9.36Z"/><path d="M330,260.66c.26,3.42,2,7.19-2.44,10.31-1.45-4.63-.39-7.73,2.61-10.33Z"/><path d="M352.7,331.68q2.16-6.12,4.31-12.26l1.63.59-4.35,12.24Z"/></svg>