<svg id="Layer_1" data-name="Layer 1" xmlns="http://www.w3.org/2000/svg" viewBox="0 0 450 450"><defs><style>.cls-1{fill:#fff;}</style></defs><title>Artboard 5</title><path d="M280.68,94.65c-5.15-5.43-5.19-6.5.51-10.36,12.93-8.79,26.89-11.24,42.06-6.62,2.47.75,5.62.29,8.16-.53,3.21-1,6.36-2.49,9.31-.28,3.63,2.73,7.76,5.41,10.08,9.11,5.12,8.15,3.3,16.85-.3,25.2-1,2.42-2.44,4.67-3.57,7-1.3,2.73-1.58,5.2,1,7.65,1.15,1.09,1.2,3.27,2,4.8,1.18,2.2,2.7,4.22,3.9,6.41a19,19,0,0,1,2.15,5.21,7.12,7.12,0,0,1-.8,3.83c-6.1,14.29-6.39,29.47-7.59,44.63-.53,6.65-4.06,13.06-6.25,19.57a22,22,0,0,0-1.42,4c-1.27,10.31-2,20.7-3.72,30.94s-2.44,20.61,2.41,30.16c4.31,8.48.06,16.12-1,24.11a57.69,57.69,0,0,0-.7,6.4c-.1,5.06-.75,8.87-5,13.36-5.2,5.5-10.3,12.76-9.33,22,.59,5.59-2.3,10-7,13.42a105,105,0,0,1-43.93,18.62c-1.94.33-4.11.57-5.68,1.61-6.11,4-12.3,5.13-19,1.64a2.7,2.7,0,0,0-2-.08c-11.48,4.33-22.35.63-32.82-3.3-13-4.9-26.15-2.68-39.37-2.62a106.19,106.19,0,0,1-26.38-3c-4.53-1.15-8.08-6-12.18-9.07-7.43-5.51-14.79-11.16-22.46-16.31C102.69,336.1,99.25,328,99.46,317c.14-7.9-1.61-16.06-3.78-23.75-2.52-8.9-2-17.52-.64-26.37.71-4.69,1.47-9.48,1.18-14.16-.42-6.87.32-13.09,4.5-18.86,7.87-10.85,16.76-21.24,22.78-33.07,7.15-14,17.82-24.39,28.94-34.73,18-16.72,35.56-34.09,59.23-42.82,17-6.28,34.29-11.83,51.39-17.84A77.45,77.45,0,0,0,275.24,100C277.39,98.78,278.9,96.45,280.68,94.65ZM99.84,293.41c.4,3.41.6,6.86,1.25,10.22s1.72,6.41,2.61,9.61l1.4-.41c-.74-4.43-1.48-8.85-2.24-13.37l1.86,1,.77-1-5.79-5.92,2.85-1.7L97.7,265.77c-.55,2.37-1.68,4.81-1.56,7.2.26,5.41,1,10.8,1.82,16.17C98.17,290.62,99.18,292,99.84,293.41ZM279.6,261.62c1.72-1.26,4.32-2.15,5-3.84,4.66-11.09,8.95-22.34,13.27-33.58,1-2.61,1.64-5.36,2.52-8s1.81-5.13,2.73-7.69l2,.7-15.84,46.88.53.25q3.18-6.56,6.35-13.12l1.62.73-5,12.32c2.73-1.46,5.62-3.38,6.77-6.05,3.18-7.38,5.79-15,8.32-22.68,1.6-4.84,2.66-9.85,4-14.78l2,.61L304,245.4c1.66-2.76,2.87-4.77,4.07-6.78l1.07.52q-1.94,5-3.86,10l1.61.65c1.21-2.69,2.64-5.31,3.6-8.09,8.45-24.35,17.1-48.66,12.55-75.22-.74-4.34-.77-8.8-1.13-13.21l1.83-.16c.58,5.8,1.15,11.6,1.75,17.67,2.67-5.1,1.53-10-.1-14.88-1.44-4.31-.23-6.21,5.4-6.59l-4.13,3c5,20-1.54,59.58-14.72,93.78a40.2,40.2,0,0,0,5.9-9.94c1.71-4.43,2.77-9.11,4.18-13.67,2.28-7.39,4.9-14.69,6.85-22.16,2.22-8.54.42-17.83,4.86-26.07.89-1.65.13-4.18.13-6.31l-1.31,0q-.51,2.58-1,5.16l-.66-.07-.93-13,1.26-.21c.41,1,.83,1.94,1.22,2.85.55-1,1.05-1.86,1.54-2.74a21.32,21.32,0,0,1,1.64,10.26c-1,8.12-4.92,15.84-3.39,24.34.05.3-.56.72-.86,1.08q-5.73,21.56-11.48,43.09a53,53,0,0,0,4.07-9.21c1.1-3.15,2-6.35,3-9.53l.88.31c.06,1.45.13,2.91.21,4.57,5.31-9.47,7-19.06,3.26-29.23,2.51-11.4,5-22.79,7.82-35.54.31,3.95,1,6.76.63,9.4a119.37,119.37,0,0,1-3.2,13.48c-1.69,6.12-2.77,12.2-.13,19.52,1.19-4.69,2.11-8.29,3-11.89l1.18.27.64,4a9.82,9.82,0,0,0,1.61-5.23c.13-5.33-.18-10.69.18-16,.65-9.7.52-19.7,8.69-28.07-7.93-2.72-8.77-9.13-10-15.62-.39-2.09-2.53-4.26-4.44-5.58-7.3-5-9.54-13-13.25-20.84,5.68,1.33,10.29-.09,12.8-4s2-8.59-1.41-12.63c7,1.25,8.06,4.19,4.22,9.83l7.66,2.8c2.41-4.5-1.2-7.08-3.46-10.36-3.36-4.87-6.83-5.94-12.28-3.59-2.15.92-4.75.79-7.14,1.13l-.22-1.42,3.82-1.44c-5.52-2.38-9.45,1.24-13.5,3.84-3.69,2.37-7,5.29-10.64,8.06l-4.74-6.2,1.06-.92,2.58,1.8L306,87l.75.7V82.92l3.83,1.38c-6.29-8.76-24-5.26-30.63,5.63l4.92,2.41c-.31-1.56-.51-2.56-.71-3.55l1.43-.72,6.06,9.84,6.2-1.3c-1.05-2.16-2.12-4.35-3.19-6.53l1.79-1.43c1.12,7.38,7.29,8.85,12.05,11.5l5.16-6.44.89.84-5.68,13-5.44-5.16-5.88,2-.38-1.06,5.16-3.27-4.68.89c-3.2.61-6.39,1.27-9.6,1.81-3.84.64-7.84.74-11.53,1.86-5.3,1.59-10.39,3.87-15.55,5.91-.71.29-1.26,1-1.95,1.36a30.72,30.72,0,0,1-5.15,2.46,20,20,0,0,1-4.54.34c0,.32,0,.64-.05,1l4,1.47c0,.25-.08.5-.11.75l-17.85,1.4.21.62,8.17,1.73c-2.9.73-5.55.47-8.12.8s-4.83,1.5-7.3,1.84a53.69,53.69,0,0,1-7.29.07l0,1.16h10.12c0,.37.07.75.11,1.13l-19,2.05c1.72,1.35,2.9,2.62,4.36,3.33a39,39,0,0,0,5.63,1.82c-12.72-.29-14.87.11-19.27,3.86l9.69,1.07,0,2c-8.62-3.49-15,1.08-20.6,5.1h15.5l.09,1.05-24.14,2.81c.06.41.11.82.16,1.23h3.92c.09.44.19.88.28,1.31l-16.32,4.29.13.42,28.65-3.7c.08.69.17,1.38.25,2.07l-22.4,2.47.12,1.28,6.4.5c-7.3,5.17-16.39.18-23.09,4.94l.24,1.44,29.38-3.21.25,1.23-39.67,8.29c.09.4.18.81.26,1.22l34.69-3.4c.08.59.15,1.19.22,1.79-5.95.82-11.89,1.79-17.86,2.44s-12.17,1-18.25,1.51l.1,1.14h9.41c-5.78,5.83-14.59.44-19,6.38l41.05-5.58c-1.6,1.75-3.52,3.23-5.59,3.48-7.73.92-15.53,1.25-23.26,2.21-3.7.46-7.28,1.83-10.92,2.78.09.41.19.82.29,1.23,2,0,4.57-.8,5.88.15,4.23,3.07,8.45,1.76,12.73.88,4.61-.94,9.17-2,13.76-3.08-1.15,1.91-2.61,3.59-4.33,3.94a180.78,180.78,0,0,1-18.48,2.95c-7.3.7-14.42,1.56-20.29,6.44.1.52.19,1,.28,1.54l37.52-6c-10.47,9.59-24.36,4.82-35.88,9.49,7.8,1.48,15,4.26,22.49.63-8.82,9.72-22,2.73-31.69,8.72l.21,1.52,22.44-2.31c-9.83,8.25-22.52,1.9-32.2,10.07l22.22-1.55c-8.57,6-19.94,1.37-29.37,8.9l23-2.78c-4,6.87-11.35,3-16.1,6.08l2.18,1.94c-4.55,1.6-9,3.49-13.55,4.66-2.89.73-3.56,2.19-2.51,4.41,1.29,2.72,3.19,1.48,5.26.48,3.11-1.5,6.47-2.47,9.72-3.67L117,243l-17,6.13,1.92,4.56c6.83-7,14.3-9.53,23.31-6.49-9.4.43-18.14,2.59-25.25,9.59.53,1,1.22,2.23,2.51,4.57l5.16-8.44.6,1.6,13.34-.87c0,.59.11,1.18.16,1.76a25.15,25.15,0,0,0-4.73,1,142.17,142.17,0,0,0-13.21,6.07c-1,.55-1.14,2.76-1.94,4.9,7.62-1.15,11.92-8.56,19-5.2l-18.71,8.48c1.21,2,2,3.28,3.24,5.47a52.39,52.39,0,0,1,3.32-6,16.63,16.63,0,0,1,3.39-2.73c1.28,3.64,3.75,1.06,5.75,1.23,1.47.12,2.86,1.07,5.56,2.17l-10.66,1.83c-.08,1.28-.16,2.34-.23,3.4l-.93-1.19-7.19,3.59c1,3.78,2.33,3.22,4.54,1.4,4.93-4.05,8.42-4.2,11.75-1.61l-15,6.56c4.49,6.12,9.25-3.26,13.21.72l-5.36,4.35-6,.78c3.15,6.82,7.16-.74,10.59,1.78l-9.48,6.37H119l.09,1L108,302.28l4.61,5.12L109.14,309c-.21,2.91-.21,5.42-.63,7.86s-1.33,4.77-2,7.16c-1.69,6.4-.88,8.48,4.62,12,4.42,2.85,9,5.42,13.24,8.54,8.17,6.06,15.93,12.66,24.2,18.57,7.61,5.44,15.86,3.57,24.61,1l-4.17-1.47c4.79-.51,8.58-.9,12.36-1.32,12.62-1.42,24.07,3.75,36,6.35,13.46,2.94,26.58,3.87,38.14-5.77a12.88,12.88,0,0,1,2.87-1.37l.78,1a47.22,47.22,0,0,1-4.49,4c-8.18,5.72-17.67,5.92-27.16,6.32,3.49.44,7,0,10.38.51,11,1.55,19.66-2.55,28.15-9.34,11.1-8.87,22.87-17.09,37.22-20.2,3.67-.79,7.44-1.78,10.33,2.13.7.94,2.37,1.17,3.57,1.71,1.33-7.61-5-8.65-9.27-11.93,1.1-.21,1.7-.3,2.28-.45s.88-.28,1.57-.51c-5.25-3.71-10.07-7-16.12-2.43,0-4.47,1.62-5.66,5.77-5a35.18,35.18,0,0,0,5.34.17c3.35,0,6.7,0,9.45,0-2.33-2.71-5.73-5.62-7.72-9.3-1.81-3.35-2.08-7.52-3-11.18l13,13.92c.31-.29.61-.59.91-.89-5.64-9-18.23-15.39-11.34-29.39l8.49,15.88,1.41-.72c-1.87-5.81-8.72-9.9-6.81-17.25,2.61,2.27,4.89,4.27,8.05,7-.84-2-1.3-2.83-1.57-3.75s-.43-2.11-.89-4.49c7.17,8.27,12.93,15.76,14.62,25.76.68-3.39.36-6.56.77-9.64s1.64-6,2.37-9.08c.67-2.77,1.16-5.59,1.74-8.39l-1.56-.38c-.87,2.25-1.81,4.47-2.6,6.75s-1.45,4.75-2.17,7.12l-1.72.23-10.8-18.29,1.62-1,7.35,10.64.82-.46q-4.5-8.19-9-16.36l1.13-.77,3.51,2.16,1-.75-14-23c-18.42,11.58-37.16,19.18-58.67,19l3.6-8.54c.24,2.74.36,4.11.52,6.06,10-8.95,11.11-22,16.63-32.57l1.43.63c-3.84,10.16-7.68,20.31-11.49,30.37,7.16,1.16,9.6-.27,12.26-6.87,2.55-6.3,5.41-12.47,8.13-18.7l1.37.55-9.06,23.58,5.34-3Zm44.3,57.15,1.11-.93L309.28,299C311,308.09,318.17,312.85,323.9,318.77Zm-6.74,20.71,2.08-.59c-.44-2.87-.89-5.75-1.34-8.62l-4.59,1.06c1,1.75,1.77,3.06,2.42,4.44C316.3,337,316.69,338.24,317.16,339.48Zm13.37-86.24.94-.44-5.81-12.1-2.72,3.57C325.72,247.54,328.12,250.39,330.53,253.24Zm-6.44-4-1.13.81q4.23,8.16,8.48,16.3l1.29-.66Z"/><path class="cls-1" d="M331.32,195.69c.3-.36.91-.78.86-1.08-1.53-8.5,2.37-16.22,3.39-24.34A21.32,21.32,0,0,0,333.93,160c-.49.88-1,1.75-1.54,2.74-.39-.91-.81-1.88-1.22-2.85l-1.26.21.93,13,.66.07q.53-2.58,1-5.16l1.31,0c0,2.13.76,4.66-.13,6.31-4.44,8.24-2.64,17.53-4.86,26.07-1.95,7.47-4.57,14.77-6.85,22.16-1.41,4.56-2.47,9.24-4.18,13.67a40.2,40.2,0,0,1-5.9,9.94c13.18-34.2,19.68-73.74,14.72-93.78l4.13-3c-5.63.38-6.84,2.28-5.4,6.59,1.63,4.85,2.77,9.78.1,14.88-.6-6.07-1.17-11.87-1.75-17.67l-1.83.16c.36,4.41.39,8.87,1.13,13.21,4.55,26.56-4.1,50.87-12.55,75.22-1,2.78-2.39,5.4-3.6,8.09l-1.61-.65q1.92-5,3.86-10l-1.07-.52c-1.2,2-2.41,4-4.07,6.78l9.84-32.05-2-.61c-1.3,4.93-2.36,9.94-4,14.78-2.53,7.65-5.14,15.3-8.32,22.68-1.15,2.67-4,4.59-6.77,6.05l5-12.32-1.62-.73q-3.18,6.56-6.35,13.12l-.53-.25,15.84-46.88-2-.7c-.92,2.56-1.87,5.11-2.73,7.69s-1.52,5.41-2.52,8c-4.32,11.24-8.61,22.49-13.27,33.58-.71,1.69-3.31,2.58-5,3.83l4.92-9.77c-5.46,4.54-6.11,6.25-4.76,9.62l-5.34,3,9.06-23.58-1.37-.55c-2.72,6.23-5.58,12.4-8.13,18.7-2.66,6.6-5.1,8-12.26,6.87,3.81-10.06,7.65-20.21,11.49-30.37l-1.43-.63c-5.52,10.61-6.59,23.62-16.63,32.57-.16-1.95-.28-3.32-.52-6.06L251,270c21.51.15,40.25-7.45,58.67-19l14,23-1,.75-3.51-2.16-1.13.77q4.51,8.18,9,16.36l-.82.46L319,279.49l-1.62,1,10.8,18.29,1.72-.23c.72-2.37,1.37-4.77,2.17-7.12s1.73-4.5,2.6-6.75l1.56.38c-.58,2.8-1.07,5.62-1.74,8.39-.73,3-1.95,6-2.37,9.08s-.09,6.25-.77,9.64c-1.69-10-7.45-17.49-14.62-25.76.46,2.38.59,3.46.89,4.49s.73,1.78,1.57,3.75c-3.16-2.74-5.44-4.74-8.05-7-1.91,7.35,4.94,11.44,6.81,17.25l-1.41.72L308,289.75c-6.89,14,5.7,20.38,11.34,29.39-.3.3-.6.6-.91.89l-13-13.92c.92,3.66,1.19,7.83,3,11.18,2,3.68,5.39,6.59,7.72,9.3-2.75,0-6.1,0-9.45,0a35.18,35.18,0,0,1-5.34-.17c-4.15-.67-5.78.52-5.77,5,6.05-4.6,10.87-1.28,16.12,2.43-.69.23-1.12.4-1.57.51s-1.18.24-2.28.45c4.24,3.28,10.6,4.32,9.27,11.93-1.2-.54-2.87-.77-3.57-1.71-2.89-3.91-6.66-2.92-10.33-2.13-14.35,3.11-26.12,11.33-37.22,20.2-8.49,6.79-17.14,10.89-28.15,9.34-3.38-.47-6.89-.07-10.38-.51,9.49-.4,19-.6,27.16-6.32a47.22,47.22,0,0,0,4.49-4l-.78-1a12.88,12.88,0,0,0-2.87,1.37c-11.56,9.64-24.68,8.71-38.14,5.77-11.91-2.6-23.36-7.77-36-6.35-3.78.42-7.57.81-12.36,1.32l4.17,1.47c-8.75,2.55-17,4.42-24.61-1-8.27-5.91-16-12.51-24.2-18.57-4.21-3.12-8.82-5.69-13.24-8.54-5.5-3.56-6.31-5.64-4.62-12,.62-2.39,1.52-4.74,2-7.16s.42-4.95.63-7.86l3.51-1.55L108,302.28l11.08-2.52-.09-1H108.74l9.48-6.37c-3.43-2.52-7.44,5-10.59-1.78l6-.78,5.36-4.35c-4-4-8.72,5.4-13.21-.72l15-6.56c-3.33-2.59-6.82-2.44-11.75,1.61-2.21,1.82-3.59,2.38-4.54-1.4l7.19-3.59.93,1.19c.07-1.06.15-2.12.23-3.4l10.66-1.83c-2.7-1.1-4.09-2-5.56-2.17-2-.17-4.47,2.41-5.75-1.23a16.63,16.63,0,0,0-3.39,2.73,52.39,52.39,0,0,0-3.32,6c-1.29-2.19-2-3.43-3.24-5.47l18.71-8.48c-7.13-3.36-11.43,4.05-19,5.2.8-2.14.92-4.35,1.94-4.9A142.17,142.17,0,0,1,117,256.38a25.15,25.15,0,0,1,4.73-1c0-.58-.11-1.17-.16-1.76l-13.34.87-.6-1.6-5.16,8.44c-1.29-2.34-2-3.59-2.51-4.57,7.11-7,15.85-9.16,25.25-9.59-9-3-16.48-.49-23.31,6.49L100,249.09,117,243l-.77-2.12c-3.25,1.2-6.61,2.17-9.72,3.67-2.07,1-4,2.24-5.26-.48-1-2.22-.38-3.68,2.51-4.41,4.6-1.17,9-3.06,13.55-4.66L115.13,233c4.75-3.11,12.09.79,16.1-6.08l-23,2.78c9.43-7.53,20.8-2.91,29.37-8.9l-22.22,1.55c9.68-8.17,22.37-1.82,32.2-10.07l-22.44,2.31-.21-1.52c9.65-6,22.87,1,31.69-8.72-7.48,3.63-14.69.85-22.49-.63,11.52-4.67,25.41.1,35.88-9.49l-37.52,6c-.09-.51-.18-1-.28-1.54,5.87-4.88,13-5.74,20.29-6.44A180.78,180.78,0,0,0,171,189.33c1.72-.35,3.18-2,4.33-3.94-4.59,1-9.15,2.14-13.76,3.08-4.28.88-8.5,2.19-12.73-.88-1.31-1-3.89-.15-5.88-.15-.1-.41-.2-.82-.29-1.23,3.64-1,7.22-2.32,10.92-2.78,7.73-1,15.53-1.29,23.26-2.21,2.07-.25,4-1.73,5.59-3.48l-41.05,5.58c4.43-5.94,13.24-.55,19-6.38H151l-.1-1.14c6.08-.49,12.18-.85,18.25-1.51s11.91-1.62,17.86-2.44c-.07-.6-.14-1.2-.22-1.79l-34.69,3.4c-.08-.41-.17-.82-.26-1.22L191.5,164l-.25-1.23-29.38,3.21-.24-1.44c6.7-4.76,15.79.23,23.09-4.94l-6.4-.5-.12-1.28,22.4-2.47c-.08-.69-.17-1.38-.25-2.07l-28.65,3.7-.13-.42,16.32-4.29c-.09-.43-.19-.87-.28-1.31h-3.92c-.05-.41-.1-.82-.16-1.23l24.14-2.81-.09-1.05h-15.5c5.62-4,12-8.59,20.6-5.1l0-2L203,137.62c4.4-3.75,6.55-4.15,19.27-3.86a39,39,0,0,1-5.63-1.82c-1.46-.71-2.64-2-4.36-3.33l19-2.05c0-.38-.07-.76-.11-1.13H221l0-1.16a53.69,53.69,0,0,0,7.29-.07c2.47-.34,4.83-1.52,7.3-1.84s5.22-.07,8.12-.8l-8.17-1.73-.21-.62,17.85-1.4c0-.25.07-.5.11-.75l-4-1.47c0-.32,0-.64.05-1a20,20,0,0,0,4.54-.34,30.72,30.72,0,0,0,5.15-2.46c.69-.37,1.24-1.07,1.95-1.36,5.16-2,10.25-4.32,15.55-5.91,3.69-1.12,7.69-1.22,11.53-1.86,3.21-.54,6.4-1.2,9.6-1.81l4.68-.89-5.16,3.27.38,1.06,5.88-2,5.44,5.16,5.68-13-.89-.84-5.16,6.44c-4.76-2.65-10.93-4.12-12.05-11.5l-1.79,1.43c1.07,2.18,2.14,4.37,3.19,6.53l-6.2,1.3-6.06-9.84-1.43.72c.2,1,.4,2,.71,3.55l-4.92-2.41c6.59-10.89,24.34-14.39,30.63-5.63l-3.83-1.38v4.73L306,87l-3.15,3.48-2.58-1.8-1.06.92,4.74,6.2c3.61-2.77,6.95-5.69,10.64-8.06,4.05-2.6,8-6.22,13.5-3.84l-3.82,1.44.22,1.42c2.39-.34,5-.21,7.14-1.13,5.45-2.35,8.92-1.28,12.28,3.59,2.26,3.28,5.87,5.86,3.46,10.36l-7.66-2.8c3.84-5.64,2.79-8.58-4.22-9.83,3.39,4,3.87,8.77,1.41,12.63s-7.12,5.36-12.8,4c3.71,7.86,5.95,15.8,13.25,20.84,1.91,1.32,4.05,3.49,4.44,5.58,1.22,6.49,2.06,12.9,10,15.62-8.17,8.37-8,18.37-8.69,28.07-.36,5.31-.05,10.67-.18,16a9.82,9.82,0,0,1-1.61,5.23l-.64-4-1.18-.27c-.92,3.6-1.84,7.2-3,11.89-2.64-7.32-1.56-13.4.13-19.52a119.37,119.37,0,0,0,3.2-13.48c.4-2.64-.32-5.45-.63-9.4-2.81,12.75-5.31,24.14-7.82,35.54Zm-59.84-69.77-1.16-1.39c-18.56,13.09-55.33,38-58.26,49.4,6.31-5.73,11.75-12.38,18.12-18s13.76-10.23,20.71-15.26S264.61,130.85,271.48,125.92Zm-25.1,47c13.87-12.65,26.9-26.37,44-35C271.24,143.93,259.11,158.81,246.38,172.94Zm-46.45,46.55c-1.66,2-2.69,2.92-3.25,4-5.94,11.94-11.86,23.88-17.57,35.93-.52,1.08.47,2.88.87,4.92Zm61.32-93.8L260,124.16c-13.68,11.44-30.37,18.78-42.76,32Zm-3.41,217.06c-2,1.86-4.53,3.4-5.93,5.64a23.19,23.19,0,0,1-15.83,10.9c-5.8,1.12-11.77,1.44-18.08,2.16,4.19,3.35,8.88.84,13,.7C243.8,361.71,252.4,354.31,257.84,342.75Zm23-208.51c-14,6.64-26.89,15.59-35,28.41Zm-41.67,36.2c-13.39,9-19.34,24.88-32.23,34.31C221.16,196.54,227.77,181.23,239.2,170.44ZM111.58,333.37c5.7,3.27,11.43,6.07,16.61,9.67,5.33,3.7,10.11,8.18,15.12,12.33l.87-1.23C135.38,344.24,125.55,335.9,111.58,333.37Zm139.79-153.6L239.1,214.94l1.28.42C244.74,203.68,252.14,193,251.37,179.77Zm65.7,5.44c4.8-11,3.33-31.25-3.73-37.43C318.28,160.66,318.53,172.9,317.07,185.21Zm-85.68,8.65-19.06,39.88A105.59,105.59,0,0,0,231.39,193.86Zm14.69-43.12c21.22-11.24,32-19.45,33-23.86Zm23.35,17.13c-2.62,12.26-5,23.53-7.57,35.47C267.18,195.47,271.29,176.45,269.43,167.87ZM225.51,365.34c9,3.78,29.73-4.73,37-14.74C251.5,357.75,240.9,366,225.51,365.34Zm54.68-204.73-1.71,0q-1.58,14.81-3.14,29.61l1.35.1C279.22,180.58,281.05,170.72,280.19,160.61Zm28.26,21.81c4.08-11.74,1.11-21.89-.2-32.09H306.8C307.33,160.55,307.85,170.78,308.45,182.42Zm-75.82,29.32c6.69-8.42,12.83-17.09,13.32-29C241.3,192.89,237,202.32,232.63,211.74Zm-13.93-4.88-1.78-.71c-5.18,10.19-13.54,18.71-16.26,31.54ZM186,231.37c-8.32,7.65-11.38,17.77-12.22,28.85Zm12.73,44.29,7-27.52C200.7,256.37,196.05,264.7,198.76,275.66ZM132.39,233.4l-.36,1.75c2.86.49,5.77.8,8.57,1.5s5.58,2.3,8.46,2.59,5.69-.62,8.54-1c-.1-.29-.19-.59-.29-.89Zm184.17-124c-10.39-1.34-19.42,4.24-28.22,10.48ZM155.27,242.84l-23.83-1.6C139.61,245.93,147.26,246.7,155.27,242.84Zm12.53,13.43c5.54-5.15,7-12.79,2.76-18.57C169.66,243.74,168.77,249.78,167.8,256.27Zm91.58-13.65c-5.92,6.67-9.86,18.18-9,25.23C253.61,258.85,256.49,250.73,259.38,242.62ZM237.8,269.09l2.34.76q3.65-12.56,7.3-25.12l-1.45-.45Zm-68.23-35,1.79.93,12.94-25.7c-.51-.27-1-.54-1.54-.8Zm-27.89-5.27c6.24,4,12.33,2.83,18.37.17l0-1.35ZM322.59,113.45c-10.17-1.22-17.8,3.88-25.63,8.24Zm-188.68,135c6.13,4.85,13.46,5.14,20.05.92-3.77,0-6.83.11-9.88,0S137.93,248.79,133.91,248.43ZM208,166.31c-8.08,6-12.81,13.26-13.48,19.47Zm90.86-13.66c-2.72,5.21-1.59,15.2,2.65,20.1C300.52,165.5,299.7,159.35,298.82,152.65ZM286.13,173.6l2.29.23,1-18-2-.14Q286.77,164.64,286.13,173.6ZM205,276.74l2,.42,5.13-17.79-2-.55Zm56.27-101.57-2.16-.28-2.34,19.28,1.89.24Zm64.93-58-.54-1.9-19.41,5.57c.19.65.38,1.31.56,2ZM241.68,155l-1.08-.95-15.25,16,1.61,1.49Zm41.2-10.9.78,1.54,20-10.17-.78-1.54ZM221.26,353c5.86,2.23,14.91-.2,18.12-4.83ZM187.38,201.21l1.43,1.16L202,186.19,200.54,185Zm10.89,2.72,1.4,1.17,13.53-15.64-1.29-1.13Zm-1,150c-5.34-4.87-12.16-6.39-20.18-4.81Zm115-229.37,17.33-3.07C325.37,118.37,318.85,119.41,312.34,124.51Zm-185.72,209,16.67,12C139.13,340,135.05,334.33,126.62,333.53ZM195.3,253.3l-2-.5-4.47,17.62,2,.51Zm-33.83-31.08-.15-1.83-14.06,1.72C152.2,225.44,156.87,224.46,161.47,222.22Zm79.67-87.52L240,133.07l-16.75,10.36.9,1.46Q232.64,139.79,241.14,134.7ZM237.23,278l.17,1.79,17.88-3c-.09-.59-.19-1.18-.29-1.78ZM133.37,256.35c4.29,4.5,10.1,5.4,15.81,2.23ZM193.83,209l-1.29-1.09L180.84,221l1.57,1.38Zm66.62,149.67c.33.57.67,1.14,1,1.7L277,350.9c-.26-.45-.53-.9-.8-1.35Zm11-34,17.92-6.18C282,317.77,276.23,320,271.48,324.66Zm49.16-198.47c.05.45.11.9.17,1.35L336,125.38C329.8,121.59,325.31,124.65,320.64,126.19Zm-27.38,19.07.84,1.85L308,140c-.28-.56-.57-1.13-.85-1.7Zm20.48,21.16,1.66-.26q-1.08-7.44-2.15-14.89l-2.2.34Q312.4,159,313.74,166.42ZM319,95.62c-5.3,2.24-7.4,6.2-6.13,12.3ZM188.77,357.23c-6.18-3.43-11.76-3.23-14.91,0Zm42.45-13-14.88,1C220.16,348.52,225.74,348.36,231.22,344.24ZM152.29,217.46l11.25-.9C160.79,212.4,157.84,212.41,152.29,217.46ZM295.5,110.05l-.81-1.48-13.85,7.6.91,1.67ZM277.6,275.74,277,274l-14.26,4.2.54,1.83Zm-52.35-25.46-1.56-.83L219.16,263l1.75.59Q223.09,257,225.25,250.28ZM338.05,130c-3.22-3.47-6.81-3.21-14.19,1ZM203.81,362.36l.64-1.77-13.74-4.39c-.13.46-.26.93-.4,1.4ZM302.5,144.25l.59,1.66,12.6-4.29-.69-2ZM191.05,280l1.08-2.28-10.65-4.3c-.27.54-.53,1.09-.79,1.63Zm-46.7-13.68-10.9-2.16c-.08.5-.17,1-.26,1.5C136.73,266.9,140.06,269.53,144.35,266.29Zm138.41,33.08c.27.6.55,1.2.83,1.8l11.6-4.55-.66-1.72Zm-2.89-12.76.72,1.92,11.69-5.23c-.2-.52-.41-1-.62-1.56ZM227,272l2,.51q2.06-6.69,4.12-13.38l-1.35-.44Zm36.06.73c.14.56.27,1.11.4,1.67l12.22-2.73-.42-1.79Zm9.49,66.1.46,1.81L286.52,336c-.16-.49-.31-1-.47-1.45ZM189.21,258l-2.2-.19-1.23,10.38,1.95.26C188.22,265,188.71,261.51,189.21,258Zm91.43,34.05c.11.65.21,1.3.32,2l11.83-3.94c-.16-.53-.33-1.05-.49-1.58Zm34-22.29,1.8-.8-5.53-10.62-1.57.75Zm-131-70.28-1.94-1.07-5.29,9.88,1.65.89Zm88.57,86.57c-4.22.19-8.09.68-9.82,4.8a35.26,35.26,0,0,0,7.54-3.13A20.15,20.15,0,0,0,272.13,286.08Zm-94.68-71.91-2-.83q-2,4.93-4,9.87l1.75.71Z"/><path class="cls-1" d="M331.31,195.69c3.77,10.17,2.05,19.76-3.26,29.23-.08-1.66-.15-3.12-.21-4.57L327,220c-1,3.18-1.95,6.38-3,9.53a53,53,0,0,1-4.07,9.21q5.75-21.54,11.48-43.09Z"/><path class="cls-1" d="M99.83,293.42c-.65-1.43-1.66-2.8-1.87-4.28-.79-5.37-1.56-10.76-1.82-16.17-.12-2.39,1-4.83,1.56-7.2l4.85,26.06-2.85,1.7Z"/><path class="cls-1" d="M323.9,318.77c-5.73-5.92-12.93-10.68-14.62-19.78L325,317.84Z"/><path class="cls-1" d="M99.7,293.53l5.79,5.92-.77,1-1.86-1c.76,4.52,1.5,8.94,2.24,13.37l-1.4.41c-.89-3.2-2-6.36-2.61-9.61s-.85-6.81-1.26-10.22Z"/><path class="cls-1" d="M317.16,339.48c-.47-1.24-.86-2.51-1.43-3.71-.65-1.38-1.45-2.69-2.42-4.44l4.59-1.06c.45,2.87.9,5.75,1.34,8.62Z"/><path class="cls-1" d="M330.53,253.24c-2.41-2.85-4.81-5.7-7.59-9l2.72-3.57,5.81,12.1Z"/><path class="cls-1" d="M324.09,249.24l8.64,16.45-1.29.66q-4.24-8.14-8.48-16.3Z"/><path d="M271.48,125.92q-10.31,7.39-20.59,14.78c-6.95,5-14.28,9.63-20.71,15.26s-11.81,12.24-18.12,18c2.93-11.44,39.7-36.31,58.26-49.4Z"/><path d="M246.38,172.94c12.73-14.13,24.86-29,44-35C273.28,146.57,260.25,160.29,246.38,172.94Z"/><path d="M199.93,219.49l-20,44.89c-.4-2-1.39-3.84-.87-4.92,5.71-12,11.63-24,17.57-35.93C197.24,222.41,198.27,221.53,199.93,219.49Z"/><path d="M261.25,125.69l-44,30.43c12.39-13.18,29.08-20.52,42.76-32Z"/><path d="M257.84,342.75c-5.44,11.56-14,19-26.84,19.4-4.12.14-8.81,2.65-13-.7,6.31-.72,12.28-1,18.08-2.16a23.19,23.19,0,0,0,15.83-10.9C253.31,346.15,255.83,344.61,257.84,342.75Z"/><path d="M280.87,134.24l-35,28.41C254,149.83,266.9,140.88,280.87,134.24Z"/><path d="M239.2,170.44c-11.43,10.79-18,26.1-32.23,34.31C219.86,195.32,225.81,179.4,239.2,170.44Z"/><path d="M111.58,333.37c14,2.53,23.8,10.87,32.6,20.77l-.87,1.23c-5-4.15-9.79-8.63-15.12-12.33C123,339.44,117.28,336.64,111.58,333.37Z"/><path d="M251.37,179.77c.77,13.26-6.63,23.91-11,35.59l-1.28-.42Z"/><path d="M317.07,185.21c1.46-12.31,1.21-24.55-3.73-37.43C320.4,154,321.87,174.23,317.07,185.21Z"/><path d="M231.39,193.86a105.59,105.59,0,0,1-19.06,39.88Z"/><path d="M246.08,150.74l33-23.86C278.1,131.29,267.3,139.5,246.08,150.74Z"/><path d="M269.43,167.87c1.86,8.58-2.25,27.6-7.57,35.47C264.41,191.4,266.81,180.13,269.43,167.87Z"/><path d="M225.51,365.34c15.39.63,26-7.59,37-14.74C255.24,360.61,234.48,369.12,225.51,365.34Z"/><path d="M280.19,160.61c.86,10.11-1,20-3.5,29.76l-1.35-.1q1.57-14.81,3.14-29.61Z"/><path d="M308.45,182.42c-.6-11.64-1.12-21.87-1.65-32.09h1.45C309.56,160.53,312.53,170.68,308.45,182.42Z"/><path d="M232.63,211.74c4.34-9.42,8.67-18.85,13.32-29C245.46,194.65,239.32,203.32,232.63,211.74Z"/><path d="M218.7,206.86l-18,30.83c2.72-12.83,11.08-21.35,16.26-31.54Z"/><path d="M186,231.37l-12.22,28.85C174.65,249.14,177.71,239,186,231.37Z"/><path d="M198.76,275.66c-2.71-11,1.94-19.29,7-27.52Z"/><path d="M132.39,233.4l24.92,3.94c.1.3.19.6.29.89-2.85.39-5.76,1.28-8.54,1s-5.59-1.87-8.46-2.59-5.71-1-8.57-1.5Z"/><path d="M316.56,109.39l-28.22,10.48C297.14,113.63,306.17,108.05,316.56,109.39Z"/><path d="M155.27,242.84c-8,3.86-15.66,3.09-23.83-1.6Z"/><path d="M167.8,256.27c1-6.49,1.86-12.53,2.76-18.57C174.84,243.48,173.34,251.12,167.8,256.27Z"/><path d="M259.38,242.62c-2.89,8.11-5.77,16.23-9,25.23C249.52,260.8,253.46,249.29,259.38,242.62Z"/><path d="M237.8,269.09,246,244.28l1.45.45q-3.66,12.57-7.3,25.12Z"/><path d="M169.57,234l13.19-25.57c.52.26,1,.53,1.54.8L171.36,235Z"/><path d="M141.68,228.77,160,227.59l0,1.35C154,231.6,147.92,232.81,141.68,228.77Z"/><path d="M322.59,113.45,297,121.69C304.79,117.33,312.42,112.23,322.59,113.45Z"/><path d="M133.91,248.43c4,.36,7.09.75,10.17.89s6.11,0,9.88,0C147.37,253.57,140,253.28,133.91,248.43Z"/><path d="M208,166.31l-13.48,19.47C195.15,179.57,199.88,172.28,208,166.31Z"/><path d="M298.82,152.65c.88,6.7,1.7,12.85,2.65,20.1C297.23,167.85,296.1,157.86,298.82,152.65Z"/><path d="M286.13,173.6q.63-9,1.27-17.92l2,.14-1,18Z"/><path d="M205,276.74l5.1-17.92,2,.55L207,277.16Z"/><path d="M261.26,175.17l-2.61,19.24-1.89-.24,2.34-19.28Z"/><path d="M326.19,117.18l-19.39,5.63c-.18-.65-.37-1.31-.56-2l19.41-5.57Z"/><path d="M241.68,155,227,171.56l-1.61-1.49,15.25-16Z"/><path d="M282.88,144.1l20.05-10.17.78,1.54-20,10.17Z"/><path d="M221.26,353l18.12-4.83C236.17,352.82,227.12,355.25,221.26,353Z"/><path d="M187.38,201.21,200.54,185l1.45,1.16-13.18,16.18Z"/><path d="M198.27,203.93l13.64-15.6,1.29,1.13L199.67,205.1Z"/><path d="M197.32,353.88l-20.18-4.81C185.16,347.49,192,349,197.32,353.88Z"/><path d="M312.34,124.51c6.51-5.1,13-6.14,17.33-3.07Z"/><path d="M126.62,333.53c8.43.8,12.51,6.47,16.67,12Z"/><path d="M195.3,253.3l-4.48,17.63-2-.51,4.47-17.62Z"/><path d="M161.47,222.22c-4.6,2.24-9.27,3.22-14.21-.11l14.06-1.72Z"/><path d="M241.14,134.7q-8.5,5.09-17,10.19l-.9-1.46L240,133.07Z"/><path d="M237.23,278l17.76-3c.1.6.2,1.19.29,1.78l-17.88,3Z"/><path d="M133.37,256.35l15.81,2.23C143.47,261.75,137.66,260.85,133.37,256.35Z"/><path d="M193.83,209l-11.42,13.34L180.84,221l11.7-13.05Z"/><path d="M260.45,358.68l15.77-9.13c.27.45.54.9.8,1.35l-15.56,9.48C261.12,359.82,260.78,359.25,260.45,358.68Z"/><path d="M271.48,324.66c4.75-4.65,10.47-6.89,17.92-6.18Z"/><path d="M320.64,126.19c4.67-1.54,9.16-4.6,15.36-.81l-15.19,2.16C320.75,127.09,320.69,126.64,320.64,126.19Z"/><path d="M293.26,145.26l13.85-6.94c.28.57.57,1.14.85,1.7l-13.86,7.09Z"/><path d="M313.74,166.42q-1.33-7.41-2.69-14.81l2.2-.34q1.08,7.44,2.15,14.89Z"/><path d="M319,95.62l-6.13,12.3C311.6,101.82,313.7,97.86,319,95.62Z"/><path d="M188.77,357.23H173.86C177,354,182.59,353.8,188.77,357.23Z"/><path d="M231.22,344.24c-5.48,4.12-11.06,4.28-14.88,1Z"/><path d="M152.29,217.46c5.55-5.05,8.5-5.06,11.25-.9Z"/><path d="M295.5,110.05l-13.75,7.79-.91-1.67,13.85-7.6Z"/><path d="M277.6,275.74,263.25,280l-.54-1.83L277,274Z"/><path d="M225.25,250.28q-2.17,6.67-4.34,13.35l-1.75-.59,4.53-13.59Z"/><path d="M338.05,130l-14.19,1C331.24,126.79,334.83,126.53,338.05,130Z"/><path d="M203.81,362.36l-13.5-4.76c.14-.47.27-.94.4-1.4l13.74,4.39Z"/><path d="M302.5,144.25l12.5-4.58.69,2-12.6,4.29Z"/><path d="M191.05,280l-10.36-5c.26-.54.52-1.09.79-1.63l10.65,4.3Z"/><path d="M144.35,266.29c-4.29,3.24-7.62.61-11.16-.66.09-.5.18-1,.26-1.5Z"/><path d="M282.76,299.37l11.77-4.47.66,1.72-11.6,4.55C283.31,300.57,283,300,282.76,299.37Z"/><path d="M279.87,286.61l11.79-4.87c.21.52.42,1,.62,1.56l-11.69,5.23Z"/><path d="M227,272l4.77-13.31,1.35.44q-2.07,6.69-4.12,13.38Z"/><path d="M263.06,272.75l12.2-2.85.42,1.79-12.22,2.73C263.33,273.86,263.2,273.31,263.06,272.75Z"/><path d="M272.55,338.85l13.5-4.33c.16.48.31,1,.47,1.45L273,340.66Z"/><path d="M189.21,258c-.5,3.48-1,7-1.48,10.45l-1.95-.26L187,257.84Z"/><path d="M280.64,292.08l11.66-3.56c.16.53.33,1.05.49,1.58L281,294C280.85,293.38,280.75,292.73,280.64,292.08Z"/><path d="M314.6,269.79l-5.3-10.67,1.57-.75L316.4,269Z"/><path d="M183.56,199.51l-5.58,9.7-1.65-.89,5.29-9.88Z"/><path d="M272.13,286.08a20.15,20.15,0,0,1-2.28,1.67,35.26,35.26,0,0,1-7.54,3.13C264,286.76,267.91,286.27,272.13,286.08Z"/><path d="M177.45,214.17l-4.28,9.75-1.75-.71q2-4.94,4-9.87Z"/><path d="M279.77,261.46c-1.35-3.37-.7-5.08,4.76-9.62l-4.92,9.77Z"/></svg>