<svg id="Layer_1" data-name="Layer 1" xmlns="http://www.w3.org/2000/svg" viewBox="0 0 504 504"><defs><style>.cls-1{fill:#fff;}</style></defs><title>Artboard 5</title><path d="M199,365c-6.09-5.08-15.83-13.42-25.8-21.47a112.66,112.66,0,0,1-27.06-31.74c-3.41-5.9-6.9-11.9-11.33-17-15.22-17.62-24.34-38.75-35.14-59-6.71-12.56-10.07-26-12.54-39.77a43.06,43.06,0,0,0-3-9.5c-4-9.12-8.3-18.09-12.29-27.2-6.6-15.06-7.89-30.37-1.84-46,1.73-4.49,2.88-9.22,4.66-13.69,2-5,5.92-7.91,10.55-10.74,11-6.72,23-9.61,35.48-10.8a45.32,45.32,0,0,1,15.77,1.35c11.89,3.19,23.92,3.68,36.09,4.25,6.6.31,13.3,2.58,19.53,5,2.6,1,4.49,4.61,6,7.39,14.12,25.21,26.31,51.37,43.8,74.82,15.12,20.29,33.51,37,51.61,54.06,16.92,16,34.79,31,52.18,46.51A68.8,68.8,0,0,0,368.26,285c9.82,3.59,19.38,7.93,28.9,12.29,12.81,5.87,21.59,16.5,30.37,27,7.57,9,14.33,18.77,22.21,27.51,12.89,14.31,13.88,30.66,9.69,48.16-2.32,9.68-4.77,19.34-7.6,28.87-3.74,12.57-10.43,22.09-24.42,25.52-12.42,3-24.53,2.05-36.51-.64a85.43,85.43,0,0,0-32.19-1.56c-2.8.43-5.66.53-8.42,1.13-9,1.93-16.57-.45-24.45-5.33Q293.89,428.1,261,409.92C239.89,398.23,220.64,384.17,199,365Zm64.47,18L252,384.52l-.22-.79,5.17-1.87-13.24-4.62,4.1-2.39a23.2,23.2,0,0,0-4.1-3.05c-3-1.36-6.11-2.36-10.67-4.07l12.33.7c.08-.89.15-1.79.23-2.68l-16.49-3.42,2-2.62a16.79,16.79,0,0,0-3.39-2.28c-1.86-.68-3.88-.89-5.81-1.41-1.69-.45-3.33-1.06-5-1.59,11.16.79,21.65,4.72,32.78,3.49-13.92.09-26.29-10.11-40.86-6.62l4.36-1.8c0-.35-.11-.69-.16-1l-12.66-2.35,10.1-1.41-.09-2.23-18-.67c0-.27-.07-.54-.1-.82l17.34-2.86c-3.58-8.22-10.32-2.09-16.42-4l7.22-2.41-10.78-4.78,3.66-2.08-6.57-2.75c0-.56,0-1.13,0-1.7,2.9-.12,5.82-.57,8.68-.28a76.37,76.37,0,0,1,9.2,2c.12-.55.23-1.11.35-1.66l-14.65-3.39.19-.71,14.09.77a22.84,22.84,0,0,0-8.21-2.81c-3.34-.6-6.28-1.45-5.46-6-5.61-.58-10.88-1.33-16.17-1.53-1.42-.05-3.12,1.37-4.28,2.53a3.43,3.43,0,0,0-.24,3.15,37.71,37.71,0,0,0,3.4,5l.35-.29,7.83,10.22,7.52,4.53.87,2.3c-8.29-3.53-7.51,2.6-8.83,6.48l-1.93-.39c.28-2.29.55-4.59.83-6.89h-1l-1.53,4.47c-.75-2.67-1.21-4.31-1.69-6.06-6.27,3.61-6.81-5.78-10.19-4.63l-13.86-18.39c-1.09-1-3.61-2.43-4.81-4.6-1.56-2.81-2.07-6.2-3.1-9.58l1.81-1-9-3.54,5.38-.84-11.06-4.49.33-.69,6.32.57.33-1.66-10.07-5.27,2.2-5.08c-6.73-2.33-8.63-4.85-7.52-9.86l-3.13,2.12-.48-.56,3.32-5c-.25-.29-.5-.59-.74-.89l-5.59,1.93,3.94-5.64-1.09-.66c-2.06,2.09-6,3.64-3.49,7.76,6.32,10.51,13,20.8,19.71,31.06,3.35,5.14,7.61,9.75,10.52,15.11,7.7,14.13,18,26,30.19,36.28,4.86,4.13,10,7.92,14.95,11.78,0-2.36,0-4.38-.06-7.45,3.25,5.49,5,10.39,8.29,13.65,19.88,19.45,42.69,35,66.7,48.88,3.14,1.82,6.37,3.49,9.55,5.23l.89-1.6L270.16,411c3.21-.3,6,.66,8.86,1a70.37,70.37,0,0,0,8.71-.05l-.05.89-5.78,1.37.12,1.26,12.73,1-2.88,3.16,12.74,1.07,0,.63-4.7,1.43-.05,1.4,26.37,4.9.33-1.66-9.77-2,.15-.73,14.67.67c0-.56.06-1.12.1-1.68L316,422.31l0-1.34,9.54-2.46c-8.94-4.42-19.1-.22-28.23-5.94l6.56-2.35-.24-.82-11.55-2,.26-1,3.67-.9c-2.95-4.23-4.11-4.39-9.52-3.62-2.55.37-5.26-.39-7.9-.64l.14-1.46,7.8.28c-2.3-7.91-9-3.6-13.73-5.56l3-1.13-3.24-1.65.24-.72,15.65,2,.13-1.45c-7-1.81-14.15-2.61-21.3-.91-3.31.78-5.77.64-7.89-2.63l5.63-.45c-.59-1.71-1.11-3.23-1.63-4.72,4,3.54,8.88,3.18,13.54,3.73l.29-1.49ZM204.88,178.21c-7.14-2.62-8.13-7.71-7.58-12.21-2.06-1.23-3.13-1.79-4.12-2.48-3.63-2.49-1.15-6-1.48-9.05-.19-1.68-.38-4.63-1.07-4.79-4.34-1-2.54-3.63-1.75-5.89l-7-3.91,4.81-1.64-8.46-4.69.21-.55,8.42,1.89.21-1.59-9.78-5.17,8.5.53c.05-.54.1-1.08.16-1.62l-10.27-4.94c1.21-1.55,3-2.8,3-4.1s-1.42-2.92-2.65-3.81A72.28,72.28,0,0,0,168.5,110l6.6-.33c-1.43-1.55-2.68-3.36-4.35-4.58a39.49,39.49,0,0,0-6-3l.34-.69L171,102.8c.67-2.47,2-4.69,1.58-6.52-.38-1.67-2.63-2.93-4.25-4.58L173.71,94c.19-.63.37-1.26.56-1.88l-14.62-3.89c1.16,7.06,2.12,12.94,3.12,19l-1.43,0c1.59,3.77,3.34,7.7,4.89,11.7,1,2.55,1.68,5.21,2.5,7.82l1.11-.25-2,4.1,3.88.61c2.53,3.48-3.9,7.68,1.82,10.49.94-1.77,1.77-3.36,2.61-5l1.23.41a64.21,64.21,0,0,0-1.41,6.52,39.82,39.82,0,0,0,.09,5.67l1.54-.06c.74-1.67,1.48-3.34,2.81-6.32.38,6,.67,10.52,1,15.18l4,1.31L183.45,167l3.45-1.53c2.27,3.48,4.39,6.75,7,10.75l2.16.29,2,12.07,9.49,11-.84,1.13-10-5.92,4.91-.56-9.32-5.9c-4.27,4-11.46,3.41-16.68-1.33l13.72,1.95c1.13-7.63.15-9-5.15-8.4.26-7.78-4.47-12.76-9.42-17.13l2.22-3.07c-.91-.51-1.85-1-2.72-1.54a6,6,0,0,1-1.22-1.14c-2.55-3-7.16-5-4.92-10.35.16-.37-.54-1.11-1-2l-3,1.69c-.45-1.09-.88-2.12-1.51-3.67-.71,2-1.16,3.34-1.61,4.64l-1.15-.15c.09-4.22.18-8.44.3-14.09l-3.44,8.12-.84-.25c.26-3.16.53-6.32.79-9.48l-1.29-.24L151.89,139c-6.93-3.65-.81-9.46-3.42-13.6l1.16-.81,7.86,6c.38-4.46-4.36-9-9.94-10.4-.94,3.59-1.87,7.21-2.81,10.82l-1.68.17c-.44-1.54-1.5-3.23-1.19-4.6,1.13-5,2.76-9.91,4.1-14.88a13.5,13.5,0,0,0,.13-3.06l-1.92-.34-4.53,15.45-1.1-.29q1.81-8.65,3.64-17.3l-1.53-.4-3.09,10.42-1.24-.38,5.16-18.66-1.23-.5q-2.49,6.39-5,12.8l-1.78-.83c2.89-6,5.79-12.06,8.63-18.11a17.55,17.55,0,0,0,.81-3c-1.17.16-3-.11-3.4.53a112.32,112.32,0,0,0-6.15,11c-.78,1.59-.9,3.49-1.32,5.25l-1.35-.11c-.54-3-.49-6.33-1.8-9a15.67,15.67,0,0,0-6.13-6.47c-2.25-1.22-5.38-.84-8.12-1.16l-.06,1.3L125.25,92c-2.43,3.76-7.48-2.65-8.74,3.85,5.06-1.59,6.54,1.84,6.89,5.14.63,6,.45,12,.61,18.23l4.46,1.88c-.09,1-.18,2-.28,3l-6.19-3-.2,2.73,8.93,4.73-5.09,1.73c6.58,5.65,7.21,8,4.57,13.77,3.24,5.29,6.21,10.16,9.19,15l3.36-2c.64,7.76,1.22,14.82,1.88,23,1.32-2,2-3.15,3.53-5.48.71,5.3,1.27,9.32,1.76,13.35.41,3.29.14,7.15,5.21,5.19,0,5.76,0,11,0,15.92l-1.37-3.5c-1.66-.6-3.11-.75-4-1.52-3.77-3.22-7.37-6.63-11-10l-1.22,1c.4,1.6.81,3.19,1.5,5.92l-14.86-6.15.46-1.23,8.34,2.84.49-1.23-16.19-9.14.7-1.19c5.11,2.6,10.27,5.1,15.3,7.84,2.8,1.53,4.88,1.38,7-2.22l-7.49-1.7c-.48-1.12-1.07-2.46-1.76-4.06l6.58-.66.09-.9-12.43-3c0-.73,0-1.45,0-2.18l6.6,2c0-.74,0-1.47.08-2.2l-11.75-2.61.3-1.29,11.41,1.7c-1.31-6.41-7.12-5.69-11.09-7.58,3.55-4.2,3.55-4.2-4.06-8.52l6.39.64c1.42-5.32-4.21-3.29-5.8-5.87l6,.19.68-1.6a27.65,27.65,0,0,0-4.47-2.48,63.78,63.78,0,0,0-7.14-1.51l5.45-2.71-8.14-2.53c2.82-1.61,8.26,2.34,7.45-4.79L102.3,136l.15-1,15.29,1.9c.18-.59.36-1.17.55-1.76l-11.11-3.52.08-.5H113c0-.38.11-.76.16-1.14l-12.65-3.63.21-.8,7.22.65-2.64-2.4,3.6-3.61-4.78-3,1.91-6.75-6.18,3c1-3.55,1.88-6.78,2.8-10.12l-2.5-2.28,4.68-.59c0-.46,0-.93-.08-1.39l-8.25-1c1.21-4.09,2.32-7.82,3.44-11.55l-1.36-.73L91,96.1c4.55,4.09,4.47,5.18-.81,14.92,0-4.4,0-8.77,0-14.14-1.33,1.45-2.12,2-2.46,2.75a28.81,28.81,0,0,0-.27,23.26c3.8,9.35,8.4,18.38,12.78,27.5,1.22,2.55,2.86,4.91,4.68,8-1.81,6.82-.3,11.11,5.53,14-.78,3.15-1.55,6.3-2.33,9.46l2,.73q2.27-5.09,4.52-10.18l1.6.71-6.39,15.46.67.35,3.72-3.73c.57,2.77,1.12,5.41,1.86,9l-2.1,3.86.77.52,2.83-3.11,1.25.65q-1.78,4.32-3.58,8.62l.72.5,3.84-2.74c.31,2,.55,3.49.87,5.5l3.74-3.51.95.61c-1.07,2.71-2.13,5.42-3.45,8.8l5.39-.62c.3,3.46-7.68,10.14,3.56,8.42-.16,3.19-.31,6-.48,9.32l7.39.43c-.66,2-1.38,4.24-2.13,6.58,3.13.77,7.07.6,8.83,2.48,2,2.08,1.91,6,2.73,9.1l3.14.81c-2.33,4-4.39,7.61-6.45,11.18l.42.89q3.75-2.24,7.51-4.46l.77.63L143.3,273l1.21.82,4.35-4.79.88.64-4.41,6.53c3.77-.38,6.75-.39,5.66,4.23-.62,2.64-1.13,5.3-1.65,7.8,3.35.93,6.85,2.1,10.44,2.8,1.27.24,2.76-.68,4.15-1.07a22.49,22.49,0,0,0-3.15-2.41,19.48,19.48,0,0,0-3.59-1.13c1.77-.63,3.19-.06,4.63,0a11.58,11.58,0,0,0,3.32-.9c-.9-.75-1.69-1.84-2.72-2.17-2.56-.83-5.24-1.31-7.87-1.93l.27-2.14,11.49.71.13-1-13.9-3.36.25-1.1,14.48,2.77.42-1.4-11.52-3.76a24.16,24.16,0,0,1,8,.9c2.75.67,5.72,1.9,5.45-3.23l-12.52-2.65.11-.69L172,264.82c.32-2.23.7-4.81,1.07-7.39a5.38,5.38,0,0,1-3.23-3.24c-.36-1.35,0-2.89.08-4.35-1,1.33-2,2.67-3.06,4a8.84,8.84,0,0,1-1.11.9c0-2.18,0-4,.05-6.18a23.56,23.56,0,0,1-2.8-1,39.31,39.31,0,0,1-3.53-2.29l6.44,1.17.26-1-8-2.49c2.18-.72,4-.16,5.94-.07,1.09.05,2.21-.66,3.32-1-1-.73-2-2-3.14-2.09-3.1-.27-6.23-.06-9.35,0l0-.92,2.91-1-.07-.68-8.19-.6,0-2.84,10.06,1.2,0-.83-6.19-.81c.07-.5.13-1,.19-1.5l19.65,1.31a23.36,23.36,0,0,0-1.39,2.77,7.35,7.35,0,0,0-.27,1.37l6,.43-3.2,7.34,1.51.71,1.95-3.25c1.39,1.75,2.58,3.2,3.73,4.7.89,1.15,1.68,2.38,2.58,3.52a2.67,2.67,0,0,0,1.24.85c3.56,1,3.81,1.79,1.65,5.33,7.58-.24,1.28,4.21,2.24,7.91l2.9-1.64c5.3,7.06,3.7,13.68,1.82,20.39a94.12,94.12,0,0,0-1.7,9.63l2.06.51,5.73-18.68,1.51.46q-3,10.83-6,21.66l2,.58q2.11-7.74,4.24-15.46l1.48.4q-1.5,6.63-3,13.25l1.69.53,3-7.41,1.25.3-2.22,10.56,1.22.48,4.19-5.67,1.12.64-3.46,8.17.84.87,5.81-3.68c-2.6,6.83-8,10.74-11.94,8.89.17,1.48.7,3.79,1.48,3.88,3.25.38,6.82,1.89,9.48-2,1-1.5,3.28-2.14,5-3.17l.81,1.36-2.55,2.24c4.62,3.37,9.55,6.28,13.65,10.08,12.56,11.64,24.5,23.95,37.24,35.37,11,9.88,22.79,18.93,34.25,28.31,1.72,1.41,4.33,2.28,5.2,4,2.24,4.6,5.18,7.62,10.3,7.24,1.08,9.49,8.63,5.85,14,7.16l-3.2,4.26,20.48,4.09-3.7,3.6c.11.36.23.71.34,1.07l17.64-1.57c-4.79,4.4-13.28-.31-16.45,9.33,9.82-4.77,12.56,5.79,19.44,8-3.35.4-6.48-.23-9.65-.57a16.09,16.09,0,0,0-3.95.56c.73,1.27,1.16,3,2.25,3.68a5.52,5.52,0,0,0,4.28.07c5.23-2.19,10.19-3.11,15,1.79l-5.58,2.11c3.07,1.64,6.38,3.29,9,2.55,8.67-2.43,17.1-5.72,25.62-8.68l.16,2c1.19.85,2.67,2.62,3.5,2.36,1.35-.44,2.26-2.21,3.64-3.72,3.16-.29,6.8,4.26,11.07.33l-3.95-2.76.48-.67L423.8,435c-.3,1.3-.55,2.39-1,4.19,3.29-1.11,6.68-6.46,7.59.32,1.73-.45,3.18-.73,4.57-1.21,2.29-.79,5.81-1.1,6.57-2.69,1.63-3.41,4.49-7.31.55-11.43-2.24-2.34-3.91-5.23-5.83-7.88l.63-.49,4.23,3.27.76-.73-3.71-5.7.58-.41,11.36,7.64a11.86,11.86,0,0,0,2.14-3.21c1.8-5,3.48-10.08,4.93-15.2,5.56-19.63,3.94-37.5-12.32-52.12a55.93,55.93,0,0,1-9.32-11.68c-15.28-24.07-35.74-41.34-63.35-49.69a78.31,78.31,0,0,1-33.39-20.23c-7-7.08-14.26-14-21.71-20.63-11.07-9.84-22.86-18.9-33.52-29.15-13.54-13-27.91-25.27-38.72-40.91-6.62-9.58-13.54-18.95-20.43-28.33a6.62,6.62,0,0,0-3.3-2.09c-5.94-1.79-11.94-3.43-17.91-5.12l.5-1.64,16.94,4.8.82-1.46c-1.05-1-1.94-2.31-3.17-2.79-4.76-1.83-9.64-3.37-14.46-5-1.8-.62-3.57-1.31-5.57-2-.66,2.55-1.57,4.47-1.56,6.39,0,4.34-.21,8.66,3.21,12.44,1.54,1.71,2.66,5.85,1.67,7.42-3.93,6.21.88,4.26,4,4.45-.33,3.29-.67,6.56-1,9.88,5.47-1.72,19.89,1.89,22.88,6.28l-18.82-6.43c.4,4.92.72,8.89,1.07,13.13C205.43,186.39,205.43,186.39,204.88,178.21ZM88.38,189.92c1.84,25.37,11.61,46.87,24.93,67.38l6.1-7.94-5.94,1.27,3.28-5.31-.87-.6-5.14,4.41,2.47-5.07-6.16-1.55c2-3.35,3.89-6.62,6.21-10.55l-5.89,0,4.1-7.47L110,223.11l-5.84,4.6c1-3.3,3.08-5.94,4.83-8.76.57-.9.39-2.27.56-3.42a23.12,23.12,0,0,0-2.87,1,19.59,19.59,0,0,0-2.5,1.86c.59-2.08,1-3.35,1.49-5.2l-8.41,0c.79-2.52,5-5.06.06-7.42l2.27-4.95-8.76-3.4,2.1-7.94Zm307,263.69.06-1.55c-10-2.63-19.67-6.21-30.41-5.43-8.77.64-17.61.51-26.42.43a14.25,14.25,0,0,1-6.64-1.85c-6.91-4-13.57-8.43-20.49-12.39-3.41-1.95-7.19-3.23-10.8-4.81l-.62,1.28a10.25,10.25,0,0,0,1.35,1.21c9.26,5.82,18.71,11.38,27.74,17.54,5.06,3.44,10.07,4.27,16,3.6,16.18-1.84,32.44-4.38,48.44,1.31C394.22,453.16,394.81,453.39,395.4,453.61ZM68.22,144.29c5.48,16.06,10.89,30.49,19.65,43.56.07-2.82.55-6.76-1-7.91-5-3.69-2.36-6.91-.61-10.53.21-.46-.43-1.33-.83-2.44l-3.28,2.66c-1.18-4-5.68-7.23-1.72-11.7-7.66-2.69-3-7-1.59-10.86Zm130.44-20.78-.54,1.26,14.56,7-.86,1.67c-3.06-1.44-6.09-3-9.22-4.25-.83-.34-2,.15-3,.26.21.86.18,2.3.65,2.49,5.53,2.23,11.13,4.27,16.71,6.36-2.88-10.88-9.3-18.23-16.71-24.77-.79-.7-3.1.31-4.7.52,0,.53.07,1.07.11,1.6l8.16,3.55-.24,2.27-4.16-1-.08,1,9.9,2.79c-.17.59-.34,1.18-.5,1.78Zm-45.45,168.6c.16.6.33,1.21.5,1.81,6.22-.77,9.15,2.32,7.88,8.68l6.45.32-1.34,5.68c7.48-5.72,7.44-6-2.15-10,2.63.32,3.87.68,5.06.57a21.48,21.48,0,0,0,3.84-1.05c-1-.8-1.86-1.93-3-2.34-4.25-1.52-8.56-2.93-12.93-4.09C156.22,291.33,154.66,291.94,153.21,292.11Zm150,119.67.25,2.72,18.33-1.06c0-.89-.11-1.78-.16-2.67ZM194.62,271.47l-1.63-.23c-3.59,4.6-4.4,11.79-.93,14.53C193,280.72,193.79,276.1,194.62,271.47Zm15.23,59.1.19-1.64-14.59-3.19L195,327.9C199.91,329.07,204.21,333.26,209.85,330.57Zm53,42.73c.09-.69.18-1.37.28-2.06l-17.49-2.76c-.11.76-.21,1.52-.32,2.28ZM130.55,277.16c6.19,4,7.44,3.57,8.45-2.47C135.66,273.3,132.29,271.45,130.55,277.16Zm133.22,104,.6-2.44-12.59-2.26-.43,2.1Zm-53.36-41.31,0,2.5,12.36.44.07-2.69Zm-24.29-59.12,1.56-.16a30.43,30.43,0,0,0,1.39-5.19,23.9,23.9,0,0,0-.53-4.93c-1,1.4-2.52,2.69-2.84,4.22C185.32,276.58,185.94,278.7,186.12,280.73ZM351.45,430,341,426.12c-.17.51-.33,1-.5,1.54C343.47,429.65,345.7,434.19,351.45,430ZM178.36,97.86c-2.29.58-4,.63-4.1,1.12a37.44,37.44,0,0,0-.8,5.93c1-.08,2.78.17,3-.29C177.25,102.86,177.56,100.88,178.36,97.86ZM120.29,237c-.07-.55-.13-1.11-.2-1.67-4.48-3.11-5.48-2.85-6.79,2.68Zm72.38,74.88,6.75,1.44c.31-1.75.52-3,.6-3.38l-6.36-1.58C193.39,309.32,193.07,310.47,192.67,311.89Zm-10.2-47.31-1.37-.37q-1.69,5.4-3.4,10.83C183.74,273.27,181.53,268.33,182.47,264.58Z"/><path class="cls-1" d="M204.88,178.21c.55,8.18.55,8.18,4.83,8.69-.35-4.24-.67-8.21-1.07-13.13l18.82,6.43c-3-4.39-17.41-8-22.88-6.28.33-3.32.67-6.59,1-9.88-3.09-.19-7.9,1.76-4-4.45,1-1.57-.13-5.71-1.67-7.42-3.42-3.78-3.18-8.1-3.21-12.44,0-1.92.9-3.84,1.56-6.39,2,.74,3.77,1.43,5.57,2,4.82,1.67,9.7,3.21,14.46,5,1.23.48,2.12,1.83,3.17,2.79l-.82,1.46-16.94-4.8-.5,1.64c6,1.69,12,3.33,17.91,5.12a6.62,6.62,0,0,1,3.3,2.09c6.89,9.38,13.81,18.75,20.43,28.33C255.68,192.7,270.05,205,283.59,218c10.66,10.25,22.45,19.31,33.52,29.15,7.45,6.64,14.68,13.55,21.71,20.63A78.31,78.31,0,0,0,372.21,288c27.61,8.35,48.07,25.62,63.35,49.69a55.93,55.93,0,0,0,9.32,11.68c16.26,14.62,17.88,32.49,12.32,52.12-1.45,5.12-3.13,10.19-4.93,15.2a11.86,11.86,0,0,1-2.14,3.21l-11.36-7.64-.58.41,3.71,5.7-.76.73-4.23-3.27-.63.49c1.92,2.65,3.59,5.54,5.83,7.88,3.94,4.12,1.08,8-.55,11.43-.76,1.59-4.28,1.9-6.57,2.69-1.39.48-2.84.76-4.57,1.21-.91-6.78-4.3-1.43-7.59-.32.42-1.8.67-2.89,1-4.19l-6.49-3.17-.48.67,3.95,2.76c-4.27,3.93-7.91-.62-11.07-.33-1.38,1.51-2.29,3.28-3.64,3.72-.83.26-2.31-1.51-3.5-2.36l-.16-2c-8.52,3-17,6.25-25.62,8.68-2.65.74-6-.91-9-2.55l5.58-2.11c-4.8-4.9-9.76-4-15-1.79a5.52,5.52,0,0,1-4.28-.07c-1.09-.64-1.52-2.41-2.25-3.68a16.09,16.09,0,0,1,3.95-.56c3.17.34,6.3,1,9.65.57-6.88-2.21-9.62-12.77-19.44-8,3.17-9.64,11.66-4.93,16.45-9.33l-17.64,1.57c-.11-.36-.23-.71-.34-1.07l3.7-3.6-20.48-4.09,3.2-4.26c-5.41-1.31-13,2.33-14-7.16-5.12.38-8.06-2.64-10.3-7.24-.87-1.77-3.48-2.64-5.2-4-11.46-9.38-23.23-18.43-34.25-28.31-12.74-11.42-24.68-23.73-37.24-35.37-4.1-3.8-9-6.71-13.65-10.08l2.55-2.24-.81-1.36c-1.69,1-4,1.67-5,3.17-2.66,3.87-6.23,2.36-9.48,2-.78-.09-1.31-2.4-1.48-3.88,3.92,1.85,9.34-2.06,11.94-8.89l-5.81,3.68-.84-.87,3.46-8.17-1.12-.64-4.19,5.67-1.22-.48,2.22-10.56-1.25-.3-3,7.41-1.69-.53q1.5-6.61,3-13.25l-1.48-.4q-2.11,7.72-4.24,15.46l-2-.58q3-10.83,6-21.66l-1.51-.46-5.73,18.68-2.06-.51a94.12,94.12,0,0,1,1.7-9.63c1.88-6.71,3.48-13.33-1.82-20.39l-2.9,1.64c-1-3.7,5.34-8.15-2.24-7.91,2.16-3.54,1.91-4.28-1.65-5.33a2.67,2.67,0,0,1-1.24-.85c-.9-1.14-1.69-2.37-2.58-3.52-1.15-1.5-2.34-3-3.73-4.7l-1.95,3.25-1.51-.71,3.2-7.34-6-.43a7.35,7.35,0,0,1,.27-1.37,23.36,23.36,0,0,1,1.39-2.77l-19.65-1.31c-.06.5-.12,1-.19,1.5l6.19.81,0,.83-10.06-1.2,0,2.84,8.19.6.07.68-2.91,1,0,.92c3.12,0,6.25-.23,9.35,0,1.1.1,2.1,1.36,3.14,2.09-1.11.37-2.23,1.08-3.32,1-1.89-.09-3.76-.65-5.94.07l8,2.49-.26,1-6.44-1.17a39.31,39.31,0,0,0,3.53,2.29,23.56,23.56,0,0,0,2.8,1c0,2.13,0,4-.05,6.18a8.84,8.84,0,0,0,1.11-.9c1-1.32,2-2.66,3.06-4-.06,1.46-.44,3-.08,4.35a5.38,5.38,0,0,0,3.23,3.24c-.37,2.58-.75,5.16-1.07,7.39l-14.85,1.61-.11.69,12.52,2.65c.27,5.13-2.7,3.9-5.45,3.23a24.16,24.16,0,0,0-8-.9l11.52,3.76-.42,1.4-14.48-2.77-.25,1.1,13.9,3.36-.13,1-11.49-.71-.27,2.14c2.63.62,5.31,1.1,7.87,1.93,1,.33,1.82,1.42,2.72,2.17a11.58,11.58,0,0,1-3.32.9c-1.44,0-2.86-.61-4.63,0a19.48,19.48,0,0,1,3.59,1.13,22.49,22.49,0,0,1,3.15,2.41c-1.39.39-2.88,1.31-4.15,1.07-3.59-.7-7.09-1.87-10.44-2.8.52-2.5,1-5.16,1.65-7.8,1.09-4.62-1.89-4.61-5.66-4.23l4.41-6.53-.88-.64-4.35,4.79L143.3,273l9.39-14.31-.77-.63q-3.76,2.22-7.51,4.46l-.42-.89c2.06-3.57,4.12-7.13,6.45-11.18l-3.14-.81c-.82-3.08-.78-7-2.73-9.1-1.76-1.88-5.7-1.71-8.83-2.48.75-2.34,1.47-4.57,2.13-6.58l-7.39-.43c.17-3.34.32-6.13.48-9.32-11.24,1.72-3.26-5-3.56-8.42l-5.39.62c1.32-3.38,2.38-6.09,3.45-8.8l-.95-.61L120.77,208c-.32-2-.56-3.55-.87-5.5l-3.84,2.74-.72-.5q1.78-4.31,3.58-8.62l-1.25-.65-2.83,3.11-.77-.52,2.1-3.86c-.74-3.6-1.29-6.24-1.86-9l-3.72,3.73-.67-.35,6.39-15.46-1.6-.71q-2.26,5.09-4.52,10.18l-2-.73c.78-3.16,1.55-6.31,2.33-9.46-5.83-2.88-7.34-7.17-5.53-14-1.82-3.08-3.46-5.44-4.68-8-4.38-9.12-9-18.15-12.78-27.5a28.81,28.81,0,0,1,.27-23.26c.34-.75,1.13-1.3,2.46-2.75,0,5.37,0,9.74,0,14.14,5.28-9.74,5.36-10.83.81-14.92L98.6,85.67l1.36.73c-1.12,3.73-2.23,7.46-3.44,11.55l8.25,1c0,.46,0,.93.08,1.39l-4.68.59,2.5,2.28c-.92,3.34-1.82,6.57-2.8,10.12l6.18-3-1.91,6.75,4.78,3-3.6,3.61,2.64,2.4-7.22-.65-.21.8,12.65,3.63c-.05.38-.11.76-.16,1.14h-5.76l-.08.5,11.11,3.52c-.19.59-.37,1.17-.55,1.76l-15.29-1.9-.15,1,14.9,2.94c.81,7.13-4.63,3.18-7.45,4.79l8.14,2.53-5.45,2.71a63.78,63.78,0,0,1,7.14,1.51,27.65,27.65,0,0,1,4.47,2.48l-.68,1.6-6-.19c1.59,2.58,7.22.55,5.8,5.87l-6.39-.64c7.61,4.32,7.61,4.32,4.06,8.52,4,1.89,9.78,1.17,11.09,7.58L120.5,174l-.3,1.29L132,177.86c0,.73-.06,1.46-.08,2.2l-6.6-2c0,.73,0,1.45,0,2.18l12.43,3-.09.9-6.58.66c.69,1.6,1.28,2.94,1.76,4.06l7.49,1.7c-2.12,3.6-4.2,3.75-7,2.22-5-2.74-10.19-5.24-15.3-7.84l-.7,1.19,16.19,9.14-.49,1.23-8.34-2.84-.46,1.23L139,201c-.69-2.73-1.1-4.32-1.5-5.92l1.22-1c3.67,3.33,7.27,6.74,11,10,.9.77,2.35.92,4,1.52l1.37,3.5c0-4.9,0-10.16,0-15.92-5.07,2-4.8-1.9-5.21-5.19-.49-4-1.05-8-1.76-13.35-1.49,2.33-2.21,3.44-3.53,5.48-.66-8.15-1.24-15.21-1.88-23l-3.36,2c-3-4.89-6-9.76-9.19-15,2.64-5.75,2-8.12-4.57-13.77l5.09-1.73-8.93-4.73.2-2.73,6.19,3c.1-1,.19-2,.28-3L124,119.22c-.16-6.2,0-12.26-.61-18.23-.35-3.3-1.83-6.73-6.89-5.14,1.26-6.5,6.31-.09,8.74-3.85l-10.62-3.14.06-1.3c2.74.32,5.87-.06,8.12,1.16a15.67,15.67,0,0,1,6.13,6.47c1.31,2.62,1.26,5.93,1.8,9l1.35.11c.42-1.76.54-3.66,1.32-5.25a112.32,112.32,0,0,1,6.15-11c.4-.64,2.23-.37,3.4-.53a17.55,17.55,0,0,1-.81,3c-2.84,6-5.74,12.07-8.63,18.11l1.78.83q2.47-6.41,5-12.8l1.23.5-5.16,18.66,1.24.38,3.09-10.42,1.53.4q-1.81,8.64-3.64,17.3l1.1.29,4.53-15.45,1.92.34a13.5,13.5,0,0,1-.13,3.06c-1.34,5-3,9.86-4.1,14.88-.31,1.37.75,3.06,1.19,4.6l1.68-.17c.94-3.61,1.87-7.23,2.81-10.82,5.58,1.44,10.32,5.94,9.94,10.4l-7.86-6-1.16.81c2.61,4.14-3.51,9.95,3.42,13.6l3.46-7.08,1.29.24c-.26,3.16-.53,6.32-.79,9.48l.84.25,3.44-8.12c-.12,5.65-.21,9.87-.3,14.09L161,148c.45-1.3.9-2.61,1.61-4.64.63,1.55,1.06,2.58,1.51,3.67l3-1.69c.46.85,1.16,1.59,1,2-2.24,5.33,2.37,7.35,4.92,10.35a6,6,0,0,0,1.22,1.14c.87.56,1.81,1,2.72,1.54l-2.22,3.07c4.95,4.37,9.68,9.35,9.41,17.13,5.31-.58,6.29.77,5.16,8.4L175.57,187c5.22,4.74,12.41,5.37,16.68,1.33l9.32,5.9-4.91.56,10,5.92.84-1.13-9.49-11-2-12.07-2.16-.29c-2.6-4-4.72-7.27-7-10.75L183.45,167l1.87-7.51-4-1.31c-.29-4.66-.58-9.15-1-15.18-1.33,3-2.07,4.65-2.81,6.32l-1.54.06a39.82,39.82,0,0,1-.09-5.67,64.21,64.21,0,0,1,1.41-6.52l-1.23-.41c-.84,1.59-1.67,3.18-2.61,5-5.72-2.81.71-7-1.82-10.49l-3.88-.61,2-4.1-1.11.25c-.82-2.61-1.51-5.27-2.5-7.82-1.55-4-3.3-7.93-4.89-11.7l1.43,0c-1-6.11-2-12-3.12-19l14.62,3.89c-.19.62-.37,1.25-.56,1.88l-5.43-2.25c1.62,1.65,3.87,2.91,4.25,4.58.41,1.83-.91,4-1.58,6.52l-5.89-1.38-.34.69a39.49,39.49,0,0,1,6,3c1.67,1.22,2.92,3,4.35,4.58l-6.6.33a72.28,72.28,0,0,1,7.48,4.15c1.23.89,2.68,2.55,2.65,3.81s-1.78,2.55-3,4.1L185.91,127c-.06.54-.11,1.08-.16,1.62l-8.5-.53L187,133.3l-.21,1.59L178.4,133l-.21.55,8.46,4.69-4.81,1.64,7,3.91c-.79,2.26-2.59,4.9,1.75,5.89.69.16.88,3.11,1.07,4.79.33,3.05-2.15,6.56,1.48,9.05,1,.69,2.06,1.25,4.12,2.48C196.75,170.5,197.74,175.59,204.88,178.21ZM322.74,382.15l-7.51,4.11.5,1,11.64-4.16c-.1-.57-.2-1.15-.29-1.72l-4.57.78,10.68-5.55-.62-1.31-19.13,8.15.22.56Zm61.66,49-7.58,2.23a43.84,43.84,0,0,0,19.91-1.69l-.15-1.38-10.93.45,4.59-1.73-.45-1.38-14.57,2.69c0,.33,0,.66.07,1ZM152.3,154.75c1.66-3.05-.86-3.53-2.68-4.59-1.29-.75-3-1.62-3.43-2.82-1.21-3.65-1.28-3.92-5.15-3.53,0,5.43,4.06,7.15,8.17,8.88a26.36,26.36,0,0,1,3.35,2.05l-6.82-.72-.17,1.3,10.31,3,.65-2.18ZM270,325.7,271.5,324c-.12-.38-.25-.76-.37-1.14l-22.23,2.52.1.87,21.16-.62a50,50,0,0,1-5.53,1.77c-3.7.75-7.45,1.28-11.18,1.9l.27,1.41,24.16-3.54c-.1-1-.21-2-.31-2.93Zm71.76-47.19-3.65,2.08,10.77,1-.12,1-4.95.73.06,1.34,8.93.15c-1.55-5.26-1.55-5.15-5.62-5.27a38.28,38.28,0,0,1-5.65-1l4.93-.9-9.23-5.27-4.29-2.45c.14-.45.54-1.08.38-1.32-2.06-3-3.87-6.31-6.41-8.86-2.09-2.1-5.08-3.3-7.67-4.9,1.41,3.76,3,6.9,5.41,9.18s3.72,6.14,7.93,6l-3.41,1.49Zm28.58,15.78,3.17-1.86c-2.07-1.1-4.82-.62-5.08-1.22-2.42-5.58-5.8-1.51-8.94-.57l11.15,3.45-3.14,2.21,9.32.57-1.39,1.75,8.83-.17-6.51,2.76.2,1,12.59-1.43c0-.55-.09-1.1-.14-1.65l-6.39-.62c-.55-3.81-3.06-4.72-6.47-4.47C375.14,294.17,372.73,294.19,370.33,294.29ZM171,174.58c.15-.73.31-1.47.46-2.21l-14.19-.93-.06,1.21,14,1.91L162,175.62c2.52,1.7,4.73,3.31,7,4.72a57.45,57.45,0,0,0,8.05,4.43c2.45,1,5.2,1.27,7.81,1.87l.42-1.94-9.52-2.4,4.14-2.33-.28-1.14-8.77,0,.05-.62,4.54-1.14c0-.38-.07-.76-.11-1.13Zm91.08,72-19.61-3.05c2.82,6.57,22.42,12.69,28.74,8.34-8.48.37-16.5-1.08-23.81-5.5,7.11.4,14,4.42,21.22,1.91l.09-1.61-6.87-.09,3.64-2.64-23.66-3.8a18.77,18.77,0,0,0,4.68,2C251.72,243.64,256.92,245.12,262.12,246.61ZM373,305.14l-.24-1.23-4.85-.24,2.37-2.61c-.11-.42-.23-.84-.34-1.26l-15.4,1.26-.15-1.39,8.64-1.51c0-.52-.09-1-.13-1.57l-11.31-1c.08.29-.21-.73-.49-1.74l-5.59-.12c1.23-7.66,8.69-3.88,12.07-7l-.56-1.68-14.31,4c-5.63,1.24-.06-3.49-2.44-5.51-1.24,1.76-2.06,3.65-3.49,4.75-1.11.85-3,.73-4.52,1,0-1.37-.36-2.82,0-4.08a44.33,44.33,0,0,1,2.71-5.92L329,280.93l1.82-4.16c-.16-.56-.31-1.11-.46-1.66l-8.7,1.89c1.51-3.64,2.63-6.35,3.76-9.06l-1.27-.4-6.37,6-1.76-2c1.58-1.36,3.15-2.72,4.56-3.92-.67-2-1.39-4.06-2.26-6.61l-4.35.75-5.88-9.2,8.13,0c-6.39-6.86-10.67,2.41-16.86.44l4.92-3.74-7.86-9.64-5.69.55c.28-1.84.49-3.2.72-4.7l-4.34.91-.55-1.29,5.41-2.29.21-1.19-7.71-1.94c.16-.47.64-1.92,1.52-4.57l-11.58.67c.73-1.18,1.08-2.59,1.86-2.88,3.58-1.38,2.06-4.42,2-6.65,0-.57-3.36-1.28-5.23-1.49-4.52-.52-9.07-.76-13.61-1.14-.95-.08-1.88-.26-2.83-.4l-.27,1.63,19.45,3.46c-3.54,3.41-6.76,1.71-9.73,1s-6-1.87-9-2.84l-.43,1.45c4.5,1.33,9,2.57,13.48,4,1,.34,1.78,1.47,2.66,2.23-1.23.38-2.52,1.23-3.66,1.05-3-.45-5.82-1.36-8.72-2.09l-.32,1.17,10.24,3.33c-.21,3.77-.38,6.73-.55,9.69l1.45-.78q7.35,10,14.71,19.93l-1.1,1.12a68.47,68.47,0,0,1,7.85,1c1.23.29,2.24,1.52,3.34,2.32L294,262.9c1,2.57,1.9,5.06,2.75,7.32,1.56-1.82,8.74-2.64,10.66-.74a3.19,3.19,0,0,1,.72,2.7,4,4,0,0,1-2.13,2.28c-1.58.54-3.33.56-6,.93,5.16,3,11.56-2.65,14.24,3.9l3.85-4.24c.65,4,.24,7.23,0,10.51-.07,1.06,0,2.58.67,3.15a42,42,0,0,0,7,4.94,20,20,0,0,0,5.95,1.91c5,.92,3.42,5.27,4.38,8.7l2.21-2.88,6.89,1.49L342.21,307l2.57,3.93,2.67-3.5c.28,2.54.46,4.09.68,6.1l9.05.19c1.07,5.51,5,6.65,12,2.3l-9.07.06-.72-1.45c1.67-.77,3.26-2,5-2.22,6.85-1,13.74-1.71,20.62-2.49.16,0,.37.42,1.11,1.32l-14.48,8.33.45.83,11.23-4.64c-.67,2.36-1.08,4.09-1.65,5.77-.5,1.49-1.15,2.92-2.1,5.26l6.68-2.93-2.13,5.74,6.26-.58.18,1.18-4.28,2.2c2.9.84,7.08,1,7.45,2.35,1.15,4,3.29,2.89,6,2.85,2.44,0,7,1.29,7,1.94-.08,3.54,2.12,3.39,4.34,3.93.8.19,1.37,1.31,1.84,1.8l7.08-4.55c-.69,3.66-1.09,5.75-1.6,8.47,5.29-5,6.78-4.72,8.81,1.56l3-6.54-6.39-1.49,2.24-3.34-4.81-1.46,2.5-7.05-16.33,3.82c.52-6.1,7.26-2.36,9.31-6.93L406,325.94c.58-1.28,1.27-2.8,2-4.32-5.86-4.26-7.76,5.13-14.15,2.67,2.08-2.29,3.43-4.65,5.46-5.8,3.54-2,2.53-3.35.65-5.18l-7.9,6-1.17-1.13,6.2-10c-7.62,2.42-5.92,12-13.49,14.24.35-1.83.24-3,.75-3.64,3.07-4,6.4-7.82,9.4-11.87,2-2.65,3.53-2.53,5.49-.13s3.87,5.18,6.33,7.11c1.87,1.47,4.59,3.15,7.24.26-1.68-.95-3.28-1.45-4.3-2.51-2.52-2.6-4.36-6.09-7.28-8-1.85-1.2-5.16-.43-7.76-.1s-4.86,1.37-7.33,1.79c-4,.67-8,1.07-12,1.59.07.41.15.82.22,1.23,1.3-.1,2.59-.24,3.89-.31s2.56-.06,3.85-.09c0,.75-.05,1.5-.08,2.25l-20.12-.11-.42-1.72Zm-1,44c2.2-.53,3.79-.87,5.35-1.3,1.28-.36,2.53-.82,3.8-1.24-.31,1.35-.63,2.69-.92,3.94,1.39.18,3.65-.2,4.33.67,4,5.08,9.3,6.72,16.05,6.45l-3.64,3.23c2.06,0,4.93-.75,5.39,0,2.58,4.22,5.69,2,8.77,1.36a49,49,0,0,1,5.3-.51c0,.33.08.65.11,1l-7.06,3.07c4.06.05,7.35-.91,9.11.33,3,2.12,5.35,5,9.52,4.8,2.45-.11,4.92.13,7.81.24l-2.76,3.39c2.14-.17,3.73-1.09,5.46-1.55a44.52,44.52,0,0,1,5.8-.84c-1.05,1.59-2.11,3.17-3.13,4.77-.13.21,0,.57,0,1.37l11.06-5-8.26-11.73-.93.67,1.71,5-1,.7-8.57-7c.88,2.27,1.39,3.57,1.89,4.87l-1,.78q-6.19-6.41-12.4-12.79l-.73.65,3.07,4.83-1.28.86-8.95-12.08-1.08.81,6.05,9.1c-7.75,2.25-4.23-7.19-8.93-7l-8,.84-.15-1.6,4.12-2.66-.48-1.17-6.09,1.71,1.46-2.45-9.44-4.4-3.85,1.2.91-4.37-4.49-.9L382.38,341l-1.08-.76c.4-1.41.81-2.82,1.51-5.25-3.1,2-5.35,3.47-7.69,4.81a4.44,4.44,0,0,1-2.48.43c-.26,0-.72-1.45-.59-1.55a21.73,21.73,0,0,1,3.05-1.58l-4.67-4.25-.59.13c.63,1,1.25,2.1,1.87,3.15l-2.76.37c-.51-1.74-1-3.47-1.21-4.16l-6.07-5.53-7.87,2.74,2.59-4.41-6.22-.48-.5,2.77-8.92-12.31-5.85,3a7.21,7.21,0,0,1-1-2.1c-.79-6.3-1.12-6.46-6.78-3.92a34.82,34.82,0,0,1-5.43,1.51l-.23-1.17,7.27-3c-3.57-2.84-8.27,4.43-10.77-2.31l5.68-2.43-.38-1.08-13.41,2-.33-2,8-2.6-.39-1.94-15.6.39,4.82-2.35-.25-1.18-11.35,1.68-.18-1.32L308,294l-.33-1.75-26.2,4v1l10.09-.22.08,1.31L282,299.82c0,.28.07.56.1.84l11-.33.12,1.25L288,304.23l15.12,1.26c0,.38,0,.77,0,1.16l-3.82,1.86c4,1.93,9.34-3.24,12.28,3.65l-8.14,1.72.1.88,10-.27.16,1.51-8.62,2.2.14.84,15.52-1.78.42,2-9.58,4.52c3.53-.2,6.58-1.49,9.74-2.37,1.48-.41,3.18,0,4.79,0a34,34,0,0,1-3.32,3.83,15.54,15.54,0,0,1-3.43,1.73l.37.66,8.27-2.11c.1.41.2.82.31,1.23L321,329.92c3.83,1.57,9.54-5.71,10.1,3.53l12.4-4.5.63,1.38L338.76,334c2.13.14,3.71-.69,5.38-1.26s3.51-.92,5.28-1.36c.13.4.27.79.41,1.18l-4.39,3.1.36.76,6.44-1.87c-.17,2.6-.31,4.55-.45,6.62a20,20,0,0,1,4.33-2c1.17-.27,3.48.08,3.68.68,1.36,4.12,3.9,4.9,8.35,2.44-.78,2.25-1.19,3.44-1.63,4.73l7.05-2.31.56,1.07Zm71.69,51.68,1-.69,4.65,4.23,1.26-.7q-2.31-4.83-4.61-9.66l1.69-.87,4.27,7.29,1.58-.46c-1-5.3-2.05-10.59-2.65-13.65l-37-17.8-.57,1.25c4,2,8,3.84,12,5.91s8.78,3.12,8.51,9.43l-5.05-4.6c-6,2.76-6.15-3.7-8.9-5.78l-.87,2.09-16.39-8.41c4.31,6.33,9.19,12.51,13,19.3s11.49,9.62,14.41,16.8a9.34,9.34,0,0,0,1.16-.29c-.38-1.6-.75-3.2-1.13-4.8l1.26-.59,5.94,10.43.82-.29-.39-4.85.68-.25,2.66,5.62,1.54-3.19,2.86,2.6.87-.47Zm-33.42.29-24.42-8.95-.33.68,3.65,2.32c.95,4.29,1.71,7.74,2.48,11.19l-1.35.19,7.92,7.21-4.27.07c2.44,3.07,8.68,2.68,6.59,9.12,4.28,2,8.79,4.62,13.66,6.14a83.57,83.57,0,0,0,16.54,3.14c1.49.14,4.81-2.82,4.6-3.4a99.72,99.72,0,0,0-5.92-12.93,56.18,56.18,0,0,0-4.11-5.94c-3.06-1.46-8.68.75-9.64-6.66l6.79-1.16-.19-1.41c-2.5.05-5.28.8-7.43-.05s-3.51-3.3-5.49-5.32C409.54,396.89,409.75,398.21,410.22,401.13Zm-80.79-42.27.08,1.07,5.59,4.33-29,13.31a11,11,0,0,0,5.76-.94c6.43-2.72,12.76-5.68,19.26-8.19,1.47-.57,4-.34,5.12.63,1.24,1.12,1.38,3.46,2.3,6.18l6,6.75-1.16,1.3-5-3.46c4.29,7.3,8.15,14.09,12.26,20.74a14.51,14.51,0,0,0,4.73,4.93c2.93,1.67,6.27,2.62,9.32,3.83.17-2.13.37-4.65.57-7.22l-2.5-.72c.87-1.74,1.65-3.29,2.53-5l-7.31-1.8.11-1,5.24-1.7-6.89-1.74,5.13-1.3L354,385.93l.46-1.07,5-1.15-.16-1-6.94-1.28c0-.3,0-.6,0-.9l5.2-1c-1.1-3.8-10,1.23-6-7.06l-11.12-2.38.2-1.06,8.54.59c-4.4-4.37-11.95.22-13-9.31l6.36,1.92c0-.65,0-1.3,0-1.95Zm46.24,28.43-14.16-8.4c3.83,15.3,10.54,27.72,18.87,39.73-.44-1.05-.87-2.1-1.4-3.38l5.81.62c-.28-1.53-.49-2.68-.78-4.22l5.87,5.34c-3.88-12.89-7.5-25.54-15.84-35.84l-1.22.6Zm-159.22-131c-3.08-3.5-5.44-7.33-8.84-9.7s-7.65-3.1-11.54-4.55l-.21,1.26,7.89,7.18c3,4.48,6.32,8.64,12.16,9.72-1.44,3.64,2.75,5.82,9.8,5.39l-13.37-10.18Zm-50-55.61c-.44.54-.89,1.07-1.33,1.6,2.2,2,4.51,3.91,6.57,6.06a13,13,0,0,1,3.25,4.7c2.37,7.66,10.86,15,18.28,16-2-2.32-3.87-6-6.82-7.46-6-2.88-6.75-9.25-10.29-13.65A23.62,23.62,0,0,0,166.44,200.63Zm136.93,90-.18-3.37H292.12l-22.09,0-.18.32,10.66,2.16,0,1.49-6.6-.92.18,2.17ZM243.9,194.36c4.9,7.8,12.38,9.5,20.16,10.53-1.22-1.48-2.86-2-4.45-2.69-2.5-1-5.32-.72-6.46-4.77-.89-3.17-4.61-5.55-7.54-8.8.54-3.22-.83-4.35-6.76-3.92L243,188l-1.71,2.31,4.95,2.93Zm-21.46,77.12.77-1.62,10,3.59c.17-.53.33-1.06.5-1.6l-20.87-6.8-.44.84,7.1,5.2-.51.77-5.87-1.61-.42,1.13,24,10.18.57-1.13Zm49.31,32.12-.59.39,3.72,6.39-.8.56-6.91-7.54c5.75,12.91,17.47,18.83,29.95,15.06-5.55-1.28-10.93-1.35-14.9-3.76C278,312.16,275.19,307.39,271.75,303.6Zm-27.47-53.81c-.18.38-.37.76-.55,1.15l24.89,10.13c-.12.34-.23.68-.34,1L247.57,255c8.71,4.89,17.48,9.52,28.16,7.55a9.56,9.56,0,0,0-4.83-4c-3-.94-6.22-.95-9.15-2C255.85,254.5,250.1,252.06,244.28,249.79ZM319.56,347l-.81-1.34-26,13.5c9.07-.91,17.73-2.85,25.61-7.09l-.41-1.35-4.33.67-.21-.64ZM230.8,225c11.71,7.35,22.16,9.85,28.92,6.32l-18.84-1.72.13-1.07,13.11-.84L254,226.4Zm26.54,40.49c6.16,8.22,25,13.44,29.05,9.33l-18-2.41.21-1.1,13.23-.17c0-.52,0-1.05,0-1.57-3.82,0-7.73.41-11.46-.2C266.29,268.69,262.42,267,257.34,265.47ZM222.77,208.4l-.32,1.25c7.34,3.22,14.68,6.45,22.88,6.57.19-.54.39-1.08.59-1.62l-27.74-12-.55,1.2,16.48,7.75-.48,1.07Zm9.34,107.75c.07.32.15.64.22,1,6.63-1,13.26-2,19.85-3.22.68-.12,1.44-1.64,1.49-2.54,0-.53-1.32-1.68-2-1.62-8.33.72-16.63,1.61-24.94,2.46a22.41,22.41,0,0,0,7.12.87c2.55-.05,5.1-.33,7.66-.51,0,.35.09.7.13,1.05ZM152.81,214c-1.49-3-4.28-3.54-5.7-6.63-1-2.06-5.88-2.31-9-3.31-2.79-.88-5.6-1.69-8.4-2.53l-.3,1.18L145.45,209c-.13.33-.25.67-.38,1l-15-2.27L130,209Zm69.7,91.44,0,.56,15.41.18,0,3.23-13.81-1.44c0,.57.07,1.13.1,1.7,6.78-.21,13.56-.27,20.31-.82,1-.08,1.84-2.48,3.34-4.67Zm-4.4-7.3c0,.44,0,.88,0,1.32,8.26-.37,16.65,1.36,24.77-1.27l.09-1.87-26-3.15-.21,1.53,17.19,2.1,0,1.19Zm38,5.58,1.2-1.29c-4.38-4.6-5.86-11.64-12.86-14-1.21-.42-2.27-1.32-3.49-1.69-.19-.06-1.46,1.76-1.23,2.25a13.15,13.15,0,0,0,2.91,4c.84.79,2.4.79,3.28,1.55C249.4,297.46,252.73,300.61,256.12,303.69ZM368,357.79c1.17,5.47,2.89,9.18,7.79,10.68a16.81,16.81,0,0,1,6,2.89c2.2,1.89,3.87,4.41,5.76,6.66l1.28-1.23C383.7,369.13,376.87,363.21,368,357.79ZM210.74,276.47l14.77,5.76-.27.93-12.74-1.8-.08,1.09,21.37,4.46C227.14,278.42,218.66,278.13,210.74,276.47Zm147.35,144.7c7.21,4.18,10,4.42,18,1.24-1.6-1.45-2.91-3.61-4.05-3.52C367.49,419.25,363,420.3,358.09,421.17Zm-137-234.5-.36,1,11.68,4.49-.41,1-10.75-3-.35,1.24,20.24,6.38c.3-.6.6-1.19.91-1.78a20.82,20.82,0,0,1-9.1-5.66C230.38,187.69,225.13,187.77,221.07,186.67ZM294.78,364a127.46,127.46,0,0,0,30.68-10.39l-.65-1.63ZM156.92,182.65c3.35,14.92,7.67,14.11,16.33,18-4.09-3.4-6.85-6.59-10.33-8.37C158.75,190.1,164,183,156.92,182.65ZM332,384.07l-14.69,5.59.31.93,6.17-1.16c.06.23.11.47.17.7l-6,2.95.6,1.22c3.82-1.45,7.59-3.07,11.49-4.3C333.46,389,333.68,387.1,332,384.07ZM185.6,230.56l-1,1.85,19.84,10.73.89-1.59C197.92,239.29,194.16,230.8,185.6,230.56ZM281,356.7l.41,1.11,28.39-10.75c-.25-.65-.5-1.3-.74-1.95Zm20.46,12.68c9.57-1.92,24.93-10,26.79-14.36ZM412.62,393.1l1.65-1.26q-9.72-12.64-19.42-25.3l-1,.74ZM266,348c.14.48.27.95.41,1.42L294,339.75l-.57-1.65C283.78,339.92,275.45,345.63,266,348Zm139.67,42.07,1.57-1.21-19.72-25.23-.89.7ZM282.31,330.5l-.53-2.2-24.45,7.16c.11.4.21.8.31,1.2Zm-4.9,23.09c.12.46.25.92.37,1.38l24.83-10.49-.8-1.86Zm31.39-18.85c2.69.87,4.18,1.31,5.64,1.85s3.34.84,4.44,1.87c3.51,3.29,7.61,4.05,12.61,1.29l-10.22-.62C320.84,335.15,317.29,333.77,308.8,334.74ZM96.05,114.43c-5.15,5.38-5,8.43,1.21,17.32C96.88,126.28,96.5,120.82,96.05,114.43Zm45.86,110.78-.18,1.34,24.4,2.84.21-2.18Zm122.38,50.44c11.35,4.56,23.65,5.53,26.18,2.89Zm-3.77-36.76c.11-.71.22-1.43.32-2.15L237,232.35c-.09.47-.19.94-.28,1.42ZM270,281.66c9.07,2.59,17.2,3.35,25.4-.09ZM207.32,228l1.06-1.39c-1.24-6.09-4.45-8.06-11.18-6.16Zm23.88-55.07c3.11,7.54,7.35,10.08,13.21,8.71Zm-6.76,60.66a20.39,20.39,0,0,0-21.7-3.9C209.94,231.09,217.84,228.62,224.44,233.57Zm52,116.35c8.53-.63,18.91-5.76,19.86-9.52Zm105.55,12-.84.79,16.57,21.8,1.61-1.29Zm-54.35,2.63-1-2-21.33,9.78c.17.39.34.79.52,1.18Zm-107.26-166-.39,1.19,23.23,7.94.63-2ZM257.13,296c2.35,8.41,7.65,15.89,11.91,17Zm-120.88-77.8c0,.46-.07.93-.11,1.39l23.64,3.7.27-2Zm13.55-53.4-.22,1.26,21.81,4.27.36-2.11ZM284.93,334.87c-.22-.67-.43-1.34-.64-2l-22.18,7.28.42,1.29Zm-42.6-12.14.12,1.6L263,320.85c-.13-.67-.25-1.33-.38-2Zm46.79,13.84c-.25-.59-.51-1.19-.77-1.78l-21.1,9.3.56,1.32ZM246.74,222l-20.28-3C232.89,222.4,239.57,224.25,246.74,222Zm82.15,153.16-.73-2-19,7.54.52,1.38Zm-22.64-43.58c-1.85-.83-3.88-1.17-5.05-2.36-2.77-2.84-2.72-3-6.59-.62C303.18,333.49,303.18,333.49,306.25,331.59Zm-69-39.07c.1-.66.19-1.32.29-2l-21.68-2.61-.16,1.09Zm14.26-83.83,0,1.32,19.64,2.61c.07-.74.15-1.48.22-2.22Zm-29,39.7c-.5-6.95-4.87-9.82-10.25-7.38Zm15.55,70.75c.07.39.15.78.22,1.18,6.85-1.12,13.93-1,20.59-3.05l-.33-1.81ZM320.9,398c8.51-.42,15.42-3.32,17.14-6.89ZM238,202l.69-2-19.38-6-.42,1.1ZM221.11,302.31l0,.41,21.18-.37,0-1.52Zm-12.94-153c7.63,5.79,14.57,7.9,17.42,5.87Zm21.13,12.17-17.83-5.32C217.63,161,225.13,163.26,229.3,161.48ZM161,164.64l.68-2.3L147.17,159c-.13.49-.25,1-.38,1.47Zm51.71,44.51.66-1.53L199,201.52C203.19,204.87,207.21,208.7,212.66,209.15ZM454.17,374.49l1.86-.84-8-14.3-1.11.58ZM219.43,170.14,209.38,163l-1,1.47C212.26,165.81,212.53,173.27,219.43,170.14ZM348.05,348l-.42-2.31-14.57,3.19c.07.42.15.83.22,1.24ZM239.78,256.48A10.21,10.21,0,0,0,237,269.3C237.89,265.24,238.8,261,239.78,256.48ZM354,350.43c-.14-.66-.28-1.31-.41-2l-13.76,3.34c.09.48.19.95.29,1.42ZM231.51,185.3l.47-1.91-13.46-3.16-.33,1.4Zm-5.63-17.52-.45,1.26c3.06,2,6.19,3.62,9.83,2.42.1-.55.21-1.1.32-1.65Zm114.25,230-.69-2.14-12,3.86c.14.46.27.93.41,1.39Zm19.81-44.1-.61-2.17-11.12,3.59c.14.5.29,1,.43,1.49ZM243.3,268.49l-1.92-.12q-.3,5.86-.61,11.73l1.35.07Q242.71,274.33,243.3,268.49Zm-52.55-69c.12-.74.25-1.48.38-2.22l-11.35-1.53-.26,1.49ZM381.84,426.59l-.27-2.11-10.5,2.31.27,1.44ZM232.13,263.89l1.57.25q.93-5.36,1.88-10.71l-1.82-.29Q233,258.51,232.13,263.89Zm93,79.06v1.49l10.77,1c.05-.68.1-1.37.16-2.06Zm-25.86-17.74c0-.49-.07-1-.11-1.48l-9-.11,0,1.52Z"/><path class="cls-1" d="M263.42,382.85l1.64,4.76-5.63.45c2.12,3.27,4.58,3.41,7.89,2.63,7.15-1.7,14.29-.9,21.3.91l-.13,1.45-15.65-2-.24.72,3.24,1.65-3,1.13c4.77,2,11.43-2.35,13.73,5.56l-7.8-.28-.14,1.46c2.64.25,5.35,1,7.9.64,5.41-.77,6.57-.61,9.52,3.62l-3.67.9-.26,1,11.55,2,.24.82-6.56,2.35c9.13,5.72,19.29,1.52,28.23,5.94L316.06,421l0,1.34,15.66,1.36c0,.56-.07,1.12-.1,1.68l-14.67-.67-.15.73,9.77,2-.33,1.66-26.37-4.9.05-1.4,4.7-1.43,0-.63-12.74-1.07,2.88-3.16-12.73-1-.12-1.26,5.78-1.37.05-.89A70.37,70.37,0,0,1,279,412c-2.86-.32-5.65-1.28-8.86-1l6.21,3.77-.89,1.6c-3.18-1.74-6.41-3.41-9.55-5.23-24-13.88-46.82-29.43-66.7-48.88-3.32-3.26-5-8.16-8.29-13.65,0,3.07,0,5.09.06,7.45-4.92-3.86-10.09-7.65-14.95-11.78C163.88,334,153.56,322.15,145.86,308c-2.91-5.36-7.17-10-10.52-15.11-6.71-10.26-13.39-20.55-19.71-31.06-2.48-4.12,1.43-5.67,3.49-7.76l1.09.66-3.94,5.64,5.59-1.93c.24.3.49.6.74.89l-3.32,5,.48.56,3.13-2.12c-1.11,5,.79,7.53,7.52,9.86l-2.2,5.08L138.28,283l-.33,1.66-6.32-.57-.33.69,11.06,4.49-5.38.84,9,3.54-1.81,1c1,3.38,1.54,6.77,3.1,9.58,1.2,2.17,3.72,3.61,4.81,4.6l13.86,18.39c3.38-1.15,3.92,8.24,10.19,4.63.48,1.75.94,3.39,1.69,6.06l1.53-4.47h1c-.28,2.3-.55,4.6-.83,6.89l1.93.39c1.32-3.88.54-10,8.83-6.48l-.87-2.3-7.52-4.53L174,317.19l-.35.29a37.71,37.71,0,0,1-3.4-5,3.43,3.43,0,0,1,.24-3.15c1.16-1.16,2.86-2.58,4.28-2.53,5.29.2,10.56.95,16.17,1.53-.82,4.52,2.12,5.37,5.46,6a22.84,22.84,0,0,1,8.21,2.81l-14.09-.77-.19.71L205,320.47c-.12.55-.23,1.11-.35,1.66a76.37,76.37,0,0,0-9.2-2c-2.86-.29-5.78.16-8.68.28,0,.57,0,1.14,0,1.7l6.57,2.75-3.66,2.08,10.78,4.78-7.22,2.41c6.1,1.92,12.84-4.21,16.42,4L192.31,341c0,.28.06.55.1.82l18,.67.09,2.23-10.1,1.41,12.66,2.35c.05.34.11.68.16,1l-4.36,1.8c14.57-3.49,26.94,6.71,40.86,6.62-11.13,1.23-21.62-2.7-32.78-3.49,1.66.53,3.3,1.14,5,1.59,1.93.52,3.95.73,5.81,1.41a16.79,16.79,0,0,1,3.39,2.28l-2,2.62,16.49,3.42c-.08.89-.15,1.79-.23,2.68l-12.33-.7c4.56,1.71,7.7,2.71,10.67,4.07a23.2,23.2,0,0,1,4.1,3.05l-4.1,2.39L257,381.86l-5.17,1.87.22.79L263.46,383Zm-38.19-7.57-3.33.89c6.38,3.73,12.59,7.08,21.1,5.68l-18-6.56,3.47-1.24-8.67-2.75.17-1.72L230,370.64l-.28-1.11L213.39,364l.3-1.29,3.95.45,0-.8L201,357l-.44,1.23,15.67,9.49-6-.76c2.36,2.14,4.18,4.5,6.58,5.8S222.4,374.46,225.23,375.28Zm26.63,23.59c8.39,8.25,20.27,11.77,27.61,8.83l-17.35-3c.06-.58.12-1.16.17-1.74l9.88.15-.16-.37Zm2.66-4.55c-3.49-1.37-8.21-1.78-10.21-4.33-3.61-4.59-7.8-3-12-3.35a19.52,19.52,0,0,0,5.31,2.07c1.19.35,2.94.49,3.41,1.31C244.29,395.6,249.76,394.18,254.52,394.32Z"/><path class="cls-1" d="M88.38,189.92l4.56-.42-2.1,7.94,8.76,3.4-2.27,4.95c5,2.36.73,4.9-.06,7.42l8.41,0c-.53,1.85-.9,3.12-1.49,5.2a19.59,19.59,0,0,1,2.5-1.86,23.12,23.12,0,0,1,2.87-1c-.17,1.15,0,2.52-.56,3.42-1.75,2.82-3.78,5.46-4.83,8.76l5.84-4.6,1.46,1.34-4.1,7.47,5.89,0c-2.32,3.93-4.24,7.2-6.21,10.55l6.16,1.55-2.47,5.07,5.14-4.41.87.6-3.28,5.31,5.94-1.27-6.1,7.94C100,236.79,90.22,215.29,88.38,189.92Z"/><path class="cls-1" d="M395.4,453.61c-.59-.22-1.18-.45-1.78-.66-16-5.69-32.26-3.15-48.44-1.31-5.94.67-10.95-.16-16-3.6-9-6.16-18.48-11.72-27.74-17.54a10.25,10.25,0,0,1-1.35-1.21l.62-1.28c3.61,1.58,7.39,2.86,10.8,4.81,6.92,4,13.58,8.4,20.49,12.39a14.25,14.25,0,0,0,6.64,1.85c8.81.08,17.65.21,26.42-.43,10.74-.78,20.44,2.8,30.41,5.43Z"/><path class="cls-1" d="M68.22,144.29l10.6,2.78c-1.42,3.84-6.07,8.17,1.59,10.86-4,4.47.54,7.72,1.72,11.7L85.41,167c.4,1.11,1,2,.83,2.44-1.75,3.62-4.4,6.84.61,10.53,1.57,1.15,1.09,5.09,1,7.91C79.11,174.78,73.7,160.35,68.22,144.29Z"/><path class="cls-1" d="M198.66,123.51,208.72,126c.16-.6.33-1.19.5-1.78l-9.9-2.79.08-1,4.16,1,.24-2.27-8.16-3.55c0-.53-.07-1.07-.11-1.6,1.6-.21,3.91-1.22,4.7-.52,7.41,6.54,13.83,13.89,16.71,24.77-5.58-2.09-11.18-4.13-16.71-6.36-.47-.19-.44-1.63-.65-2.49,1-.11,2.19-.6,3-.26,3.13,1.27,6.16,2.81,9.22,4.25l.86-1.67-14.56-7Z"/><path class="cls-1" d="M153.21,292.11c1.45-.17,3-.78,4.32-.43,4.37,1.16,8.68,2.57,12.93,4.09,1.13.41,2,1.54,3,2.34a21.48,21.48,0,0,1-3.84,1.05c-1.19.11-2.43-.25-5.06-.57,9.59,4,9.63,4.29,2.15,10l1.34-5.68-6.45-.32c1.27-6.36-1.66-9.45-7.88-8.68C153.54,293.32,153.37,292.71,153.21,292.11Z"/><path class="cls-1" d="M303.2,411.78l18.42-1c.05.89.11,1.78.16,2.67l-18.33,1.06Z"/><path class="cls-1" d="M194.62,271.47c-.83,4.63-1.65,9.25-2.56,14.3-3.47-2.74-2.66-9.93.93-14.53Z"/><path class="cls-1" d="M209.85,330.57c-5.64,2.69-9.94-1.5-14.82-2.67l.42-2.16L210,328.93Z"/><path class="cls-1" d="M262.9,373.3l-17.53-2.54c.11-.76.21-1.52.32-2.28l17.49,2.76C263.08,371.93,263,372.61,262.9,373.3Z"/><path class="cls-1" d="M130.55,277.16c1.74-5.71,5.11-3.86,8.45-2.47C138,280.73,136.74,281.12,130.55,277.16Z"/><path class="cls-1" d="M263.77,381.16l-12.42-2.6.43-2.1,12.59,2.26Z"/><path class="cls-1" d="M210.41,339.85l12.4.25-.07,2.69-12.36-.44Z"/><path class="cls-1" d="M186.12,280.73c-.18-2-.8-4.15-.42-6.06.32-1.53,1.85-2.82,2.84-4.22a23.9,23.9,0,0,1,.53,4.93,30.43,30.43,0,0,1-1.39,5.19Z"/><path class="cls-1" d="M351.45,430c-5.75,4.24-8-.3-11-2.29.17-.51.33-1,.5-1.54Z"/><path class="cls-1" d="M178.36,97.86c-.8,3-1.11,5-1.92,6.76-.2.46-1.94.21-3,.29a37.44,37.44,0,0,1,.8-5.93C174.39,98.49,176.07,98.44,178.36,97.86Z"/><path class="cls-1" d="M120.29,237l-7,1c1.31-5.53,2.31-5.79,6.79-2.68C120.16,235.9,120.22,236.46,120.29,237Z"/><path class="cls-1" d="M192.67,311.89c.4-1.42.72-2.57,1-3.52L200,310c-.08.42-.29,1.63-.6,3.38Z"/><path class="cls-1" d="M182.47,264.58c-.94,3.75,1.27,8.69-4.77,10.46q1.7-5.43,3.4-10.83Z"/><path class="cls-1" d="M263.46,383l13.8,2.14-.29,1.49c-4.66-.55-9.51-.19-13.54-3.75A1,1,0,0,0,263.46,383Z"/><path d="M373,305.14l-11.5,3.07.42,1.72L382,310c0-.75.05-1.5.08-2.25-1.29,0-2.57,0-3.85.09s-2.59.21-3.89.31c-.07-.41-.15-.82-.22-1.23,4-.52,8-.92,12-1.59,2.47-.42,4.85-1.48,7.33-1.79s5.91-1.1,7.76.1c2.92,1.9,4.76,5.39,7.28,8,1,1.06,2.62,1.56,4.3,2.51-2.65,2.89-5.37,1.21-7.24-.26-2.46-1.93-4.32-4.65-6.33-7.11s-3.53-2.52-5.49.13c-3,4.05-6.33,7.86-9.4,11.87-.51.67-.4,1.81-.75,3.64,7.57-2.22,5.87-11.82,13.49-14.24l-6.2,10L392,319.3l7.9-6c1.88,1.83,2.89,3.18-.65,5.18-2,1.15-3.38,3.51-5.46,5.8,6.39,2.46,8.29-6.93,14.15-2.67-.68,1.52-1.37,3-2,4.32l10.76,1.81c-2,4.57-8.79.83-9.31,6.93l16.33-3.82-2.5,7.05,4.81,1.46-2.24,3.34,6.39,1.49-3,6.54c-2-6.28-3.52-6.57-8.81-1.56.51-2.72.91-4.81,1.6-8.47L413,345.26c-.47-.49-1-1.61-1.84-1.8-2.22-.54-4.42-.39-4.34-3.93,0-.65-4.57-2-7-1.94-2.71,0-4.85,1.13-6-2.85-.37-1.31-4.55-1.51-7.45-2.35l4.28-2.2-.18-1.18-6.26.58,2.13-5.74-6.68,2.93c.95-2.34,1.6-3.77,2.1-5.26.57-1.68,1-3.41,1.65-5.77l-11.23,4.64-.45-.83,14.48-8.33c-.74-.9-.95-1.34-1.11-1.32-6.88.78-13.77,1.48-20.62,2.49-1.74.25-3.33,1.45-5,2.22l.72,1.45,9.07-.06c-7,4.35-11,3.21-12-2.3l-9.05-.19c-.22-2-.4-3.56-.68-6.1l-2.67,3.5L342.21,307l2.92-4.12-6.89-1.49L336,304.26c-1-3.43.63-7.78-4.38-8.7a20,20,0,0,1-5.95-1.91,42,42,0,0,1-7-4.94c-.65-.57-.74-2.09-.67-3.15.21-3.28.62-6.54,0-10.51l-3.85,4.24c-2.68-6.55-9.08-.87-14.24-3.9,2.69-.37,4.44-.39,6-.93a4,4,0,0,0,2.13-2.28,3.19,3.19,0,0,0-.72-2.7c-1.92-1.9-9.1-1.08-10.66.74-.85-2.26-1.78-4.75-2.75-7.32L296,261c-1.1-.8-2.11-2-3.34-2.32a68.47,68.47,0,0,0-7.85-1l1.1-1.12q-7.37-10-14.71-19.93l-1.45.78c.17-3,.34-5.92.55-9.69l-10.24-3.33.32-1.17c2.9.73,5.77,1.64,8.72,2.09,1.14.18,2.43-.67,3.66-1.05-.88-.76-1.64-1.89-2.66-2.23-4.46-1.47-9-2.71-13.48-4l.43-1.45c3,1,5.94,2.14,9,2.84s6.19,2.39,9.73-1l-19.45-3.46.27-1.63c.95.14,1.88.32,2.83.4,4.54.38,9.09.62,13.61,1.14,1.87.21,5.21.92,5.23,1.49.07,2.23,1.59,5.27-2,6.65-.78.29-1.13,1.7-1.86,2.88l11.58-.67c-.88,2.65-1.36,4.1-1.52,4.57l7.71,1.94-.21,1.19-5.41,2.29.55,1.29,4.34-.91c-.23,1.5-.44,2.86-.72,4.7l5.69-.55,7.86,9.64-4.92,3.74c6.19,2,10.47-7.3,16.86-.44l-8.13,0,5.88,9.2,4.35-.75c.87,2.55,1.59,4.64,2.26,6.61-1.41,1.2-3,2.56-4.56,3.92l1.76,2,6.37-6,1.27.4c-1.13,2.71-2.25,5.42-3.76,9.06l8.7-1.89c.15.55.3,1.1.46,1.66L329,280.93l5.93-1.51a44.33,44.33,0,0,0-2.71,5.92c-.35,1.26,0,2.71,0,4.08,1.54-.31,3.41-.19,4.52-1,1.43-1.1,2.25-3,3.49-4.75,2.38,2-3.19,6.75,2.44,5.51l14.31-4,.56,1.68c-3.38,3.08-10.84-.7-12.07,7l5.59.12c.28,1,.57,2,.49,1.74l11.31,1c0,.53.09,1.05.13,1.57l-8.64,1.51.15,1.39,15.4-1.26c.11.42.23.84.34,1.26l-2.37,2.61,4.85.24Z"/><path d="M372,349.16l2.18-3.4-.56-1.07L366.52,347c.44-1.29.85-2.48,1.63-4.73-4.45,2.46-7,1.68-8.35-2.44-.2-.6-2.51-.95-3.68-.68a20,20,0,0,0-4.33,2c.14-2.07.28-4,.45-6.62l-6.44,1.87-.36-.76,4.39-3.1c-.14-.39-.28-.78-.41-1.18-1.77.44-3.57.77-5.28,1.36s-3.25,1.4-5.38,1.26l5.39-3.69-.63-1.38-12.4,4.5c-.56-9.24-6.27-2-10.1-3.53l7.27-3.21c-.11-.41-.21-.82-.31-1.23l-8.27,2.11-.37-.66a15.54,15.54,0,0,0,3.43-1.73,34,34,0,0,0,3.32-3.83c-1.61,0-3.31-.38-4.79,0-3.16.88-6.21,2.17-9.74,2.37l9.58-4.52-.42-2L305.2,319l-.14-.84,8.62-2.2-.16-1.51-10,.27-.1-.88,8.14-1.72c-2.94-6.89-8.25-1.72-12.28-3.65l3.82-1.86c0-.39,0-.78,0-1.16L288,304.23l5.21-2.65-.12-1.25-11,.33c0-.28-.07-.56-.1-.84l9.63-1.58-.08-1.31-10.09.22v-1l26.2-4L308,294l-13.39,2.35.18,1.32L306.09,296l.25,1.18-4.82,2.35,15.6-.39.39,1.94-8,2.6.33,2,13.41-2,.38,1.08L318,307.15c2.5,6.74,7.2-.53,10.77,2.31l-7.27,3,.23,1.17a34.82,34.82,0,0,0,5.43-1.51c5.66-2.54,6-2.38,6.78,3.92a7.21,7.21,0,0,0,1,2.1l5.85-3,8.92,12.31.5-2.77,6.22.48-2.59,4.41,7.87-2.74,6.07,5.53c.2.69.7,2.42,1.21,4.16l2.76-.37c-.62-1.05-1.24-2.1-1.87-3.15l.59-.13,4.67,4.25a21.73,21.73,0,0,0-3.05,1.58c-.13.1.33,1.52.59,1.55a4.44,4.44,0,0,0,2.48-.43c2.34-1.34,4.59-2.85,7.69-4.81-.7,2.43-1.11,3.84-1.51,5.25l1.08.76,3.48-3.82,4.49.9-.91,4.37,3.85-1.2,9.44,4.4-1.46,2.45,6.09-1.71.48,1.17-4.12,2.66.15,1.6,8-.84c4.7-.18,1.18,9.26,8.93,7l-6.05-9.1,1.08-.81,8.95,12.08,1.28-.86L423,354.46l.73-.65q6.19,6.39,12.4,12.79l1-.78c-.5-1.3-1-2.6-1.89-4.87l8.57,7,1-.7-1.71-5,.93-.67,8.26,11.73-11.06,5c0-.8-.15-1.16,0-1.37,1-1.6,2.08-3.18,3.13-4.77a44.52,44.52,0,0,0-5.8.84c-1.73.46-3.32,1.38-5.46,1.55l2.76-3.39c-2.89-.11-5.36-.35-7.81-.24-4.17.17-6.51-2.68-9.52-4.8-1.76-1.24-5.05-.28-9.11-.33l7.06-3.07c0-.33-.07-.65-.11-1a49,49,0,0,0-5.3.51c-3.08.61-6.19,2.86-8.77-1.36-.46-.76-3.33-.05-5.39,0l3.64-3.23c-6.75.27-12-1.37-16.05-6.45-.68-.87-2.94-.49-4.33-.67.29-1.25.61-2.59.92-3.94-1.27.42-2.52.88-3.8,1.24C375.74,348.29,374.15,348.63,372,349.16Z"/><path d="M443.64,400.84l2.46,7.6-.87.47-2.86-2.6-1.54,3.19-2.66-5.62-.68.25.39,4.85-.82.29-5.94-10.43-1.26.59c.38,1.6.75,3.2,1.13,4.8a9.34,9.34,0,0,1-1.16.29c-2.92-7.18-10.69-10.12-14.41-16.8s-8.65-13-13-19.3l16.39,8.41.87-2.09c2.75,2.08,2.88,8.54,8.9,5.78l5.05,4.6c.27-6.31-4.64-7.39-8.51-9.43s-8-3.95-12-5.91l.57-1.25,37,17.8c.6,3.06,1.63,8.35,2.65,13.65l-1.58.46-4.27-7.29-1.69.87q2.29,4.83,4.61,9.66l-1.26.7-4.65-4.23Zm-22.37-8.62,1.12-.79c-1.3-7.84-7.69-16-13.82-17Z"/><path d="M410.22,401.13c-.47-2.92-.68-4.24-.92-5.76,2,2,3.41,4.49,5.49,5.32s4.93.1,7.43.05l.19,1.41-6.79,1.16c1,7.41,6.58,5.2,9.64,6.66a56.18,56.18,0,0,1,4.11,5.94,99.72,99.72,0,0,1,5.92,12.93c.21.58-3.11,3.54-4.6,3.4a83.57,83.57,0,0,1-16.54-3.14c-4.87-1.52-9.38-4.17-13.66-6.14,2.09-6.44-4.15-6-6.59-9.12l4.27-.07-7.92-7.21,1.35-.19c-.77-3.45-1.53-6.9-2.48-11.19l-3.65-2.32.33-.68Zm.56,20.93c1,2.54,1.31,4.52,2,4.69,6.08,1.43,12.22,2.58,18.37,3.66.44.08,1.08-1,1.63-1.56-.63-.58-1.19-1.56-1.9-1.69-2.58-.47-5.29-.37-7.8-1C419.36,425.16,415.75,423.74,410.78,422.06Zm-4.34-7.46c1.72,6,5.57,7.92,12.17,6.79-1.57-4-3.69-5.82-7.45-2.49Zm1.41-7c.71-6.34-2.54-7.08-6.39-7l-1,1.32Zm.48.59-1.55,2,6.38,4.9,1.15-1.44Z"/><path d="M329.43,358.86l13.08,1.49c0,.65,0,1.3,0,1.95l-6.36-1.92c1,9.53,8.58,4.94,13,9.31l-8.54-.59-.2,1.06,11.12,2.38c-4,8.29,4.91,3.26,6,7.06l-5.2,1c0,.3,0,.6,0,.9l6.94,1.28.16,1-5,1.15-.46,1.07,7.62,2.89-5.13,1.3,6.89,1.74-5.24,1.7-.11,1,7.31,1.8c-.88,1.72-1.66,3.27-2.53,5l2.5.72c-.2,2.57-.4,5.09-.57,7.22-3.05-1.21-6.39-2.16-9.32-3.83a14.51,14.51,0,0,1-4.73-4.93c-4.11-6.65-8-13.44-12.26-20.74l5,3.46,1.16-1.3-6-6.75c-.92-2.72-1.06-5.06-2.3-6.18-1.07-1-3.65-1.2-5.12-.63-6.5,2.51-12.83,5.47-19.26,8.19a11,11,0,0,1-5.76.94l29-13.31-5.59-4.33Z"/><path d="M375.67,387.29l-2.85-5.55,1.22-.6c8.34,10.3,12,22.95,15.84,35.84L384,411.64c.29,1.54.5,2.69.78,4.22l-5.81-.62c.53,1.28,1,2.33,1.4,3.38-8.33-12-15-24.43-18.87-39.73Z"/><path d="M216.45,256.24l-4.11-.88,13.37,10.18c-7.05.43-11.24-1.75-9.8-5.39-5.84-1.08-9.12-5.24-12.16-9.72l-7.89-7.18.21-1.26c3.89,1.45,8.24,2.25,11.54,4.55S213.37,252.74,216.45,256.24Z"/><path d="M166.44,200.63a23.62,23.62,0,0,1,9.66,7.23c3.54,4.4,4.31,10.77,10.29,13.65,3,1.42,4.8,5.14,6.82,7.46-7.42-.95-15.91-8.32-18.28-16a13,13,0,0,0-3.25-4.7c-2.06-2.15-4.37-4-6.57-6.06C165.55,201.7,166,201.17,166.44,200.63Z"/><path d="M303.37,290.63l-29.26,1.82-.18-2.17,6.6.92,0-1.49-10.66-2.16.18-.32,22.09,0h11.07Z"/><path d="M243.9,194.36l2.38-1.15-4.95-2.93L243,188l-4.19-3.26c5.93-.43,7.3.7,6.76,3.92,2.93,3.25,6.65,5.63,7.54,8.8,1.14,4,4,3.74,6.46,4.77,1.59.66,3.23,1.21,4.45,2.69C256.28,203.86,248.8,202.16,243.9,194.36Z"/><path d="M222.44,271.48l14.81,8.95-.57,1.13-24-10.18.42-1.13,5.87,1.61.51-.77-7.1-5.2.44-.84,20.87,6.8c-.17.54-.33,1.07-.5,1.6l-10-3.59Z"/><path d="M271.75,303.6c3.44,3.79,6.28,8.56,10.47,11.1,4,2.41,9.35,2.48,14.9,3.76-12.48,3.77-24.2-2.15-29.95-15.06l6.91,7.54.8-.56L271.16,304Z"/><path d="M261.88,246.61l6.87.09-.09,1.61c-7.25,2.51-14.11-1.51-21.22-1.91,7.31,4.42,15.33,5.87,23.81,5.5-6.32,4.35-25.92-1.77-28.74-8.34l19.61,3.05Z"/><path d="M244.28,249.79c5.82,2.27,11.57,4.71,17.47,6.75,2.93,1,6.19,1,9.15,2a9.56,9.56,0,0,1,4.83,4c-10.68,2-19.45-2.66-28.16-7.55l20.71,7.1c.11-.34.22-.68.34-1l-24.89-10.13C243.91,250.55,244.1,250.17,244.28,249.79Z"/><path d="M319.56,347l-6.13,3.75.21.64,4.33-.67.41,1.35c-7.88,4.24-16.54,6.18-25.61,7.09l26-13.5Z"/><path d="M230.8,225,254,226.4l.16,1.27-13.11.84-.13,1.07,18.84,1.72C253,234.83,242.51,232.33,230.8,225Z"/><path d="M257.34,265.47c5.08,1.57,9,3.22,13,3.88,3.73.61,7.64.17,11.46.2,0,.52,0,1.05,0,1.57l-13.23.17-.21,1.1,18,2.41C282.38,278.91,263.5,273.69,257.34,265.47Z"/><path d="M171.05,174.58l4.32,1.32c0,.37.07.75.11,1.13l-4.54,1.14-.05.62,8.77,0,.28,1.14-4.14,2.33,9.52,2.4-.42,1.94c-2.61-.6-5.36-.88-7.81-1.87a57.45,57.45,0,0,1-8.05-4.43c-2.32-1.41-4.53-3-7-4.72l9.25-1.06Z"/><path d="M222.77,208.4l10.86,4.19.48-1.07-16.48-7.75.55-1.2,27.74,12c-.2.54-.4,1.08-.59,1.62-8.2-.12-15.54-3.35-22.88-6.57Z"/><path d="M232.11,316.15l9.56-2.54c0-.35-.09-.7-.13-1.05-2.56.18-5.11.46-7.66.51a22.41,22.41,0,0,1-7.12-.87c8.31-.85,16.61-1.74,24.94-2.46.65-.06,2,1.09,2,1.62,0,.9-.81,2.42-1.49,2.54-6.59,1.21-13.22,2.18-19.85,3.22C232.26,316.79,232.18,316.47,232.11,316.15Z"/><path d="M152.81,214,130,209l.12-1.2,15,2.27c.13-.34.25-.68.38-1l-16.08-6.33.3-1.18c2.8.84,5.61,1.65,8.4,2.53,3.16,1,8.09,1.25,9,3.31C148.53,210.43,151.32,211,152.81,214Z"/><path d="M222.51,305.41l25.33-1.26c-1.5,2.19-2.33,4.59-3.34,4.67-6.75.55-13.53.61-20.31.82,0-.57-.07-1.13-.1-1.7l13.81,1.44,0-3.23L222.46,306Z"/><path d="M218.11,298.11,234,298l0-1.19-17.19-2.1.21-1.53,26,3.15-.09,1.87c-8.12,2.63-16.51.9-24.77,1.27C218.12,299,218.11,298.55,218.11,298.11Z"/><path d="M256.12,303.69c-3.39-3.08-6.72-6.23-10.19-9.21-.88-.76-2.44-.76-3.28-1.55a13.15,13.15,0,0,1-2.91-4c-.23-.49,1-2.31,1.23-2.25,1.22.37,2.28,1.27,3.49,1.69,7,2.41,8.48,9.45,12.86,14Z"/><path d="M368,357.79c8.85,5.42,15.68,11.34,20.83,19L387.57,378c-1.89-2.25-3.56-4.77-5.76-6.66a16.81,16.81,0,0,0-6-2.89C370.91,367,369.19,363.26,368,357.79Z"/><path d="M210.74,276.47c7.92,1.66,16.4,1.95,23,10.44l-21.37-4.46.08-1.09,12.74,1.8.27-.93Z"/><path d="M358.09,421.17c4.92-.87,9.4-1.92,13.94-2.28,1.14-.09,2.45,2.07,4.05,3.52C368.13,425.59,365.3,425.35,358.09,421.17Z"/><path d="M221.07,186.67c4.06,1.1,9.31,1,11.86,3.61a20.82,20.82,0,0,0,9.1,5.66c-.31.59-.61,1.18-.91,1.78l-20.24-6.38.35-1.24,10.75,3,.41-1-11.68-4.49Z"/><path d="M294.78,364l30-12,.65,1.63A127.46,127.46,0,0,1,294.78,364Z"/><path d="M156.92,182.65c7.05.37,1.83,7.45,6,9.59,3.48,1.78,6.24,5,10.33,8.37C164.59,196.76,160.27,197.57,156.92,182.65Z"/><path d="M332,384.07c1.67,3,1.45,4.88-1.9,5.93-3.9,1.23-7.67,2.85-11.49,4.3l-.6-1.22,6-2.95c-.06-.23-.11-.47-.17-.7l-6.17,1.16-.31-.93Z"/><path d="M332.57,270c-4.21.13-5.56-3.76-7.93-6s-4-5.42-5.41-9.18c2.59,1.6,5.58,2.8,7.67,4.9,2.54,2.55,4.35,5.84,6.41,8.86.16.24-.24.87-.38,1.32Z"/><path d="M185.6,230.56c8.56.24,12.32,8.73,19.71,11l-.89,1.59-19.84-10.73Z"/><path d="M281,356.7l28.06-11.59c.24.65.49,1.3.74,1.95l-28.39,10.75Z"/><path d="M301.47,369.38,328.26,355C326.4,359.34,311,367.46,301.47,369.38Z"/><path d="M412.62,393.1l-18.73-25.82,1-.74q9.7,12.65,19.42,25.3Z"/><path d="M266,348c9.46-2.38,17.79-8.09,27.43-9.91l.57,1.65-27.59,9.68C266.26,349,266.13,348.49,266,348Z"/><path d="M405.66,390.08l-19-25.74.89-.7,19.72,25.23Z"/><path d="M282.31,330.5l-24.67,6.16c-.1-.4-.2-.8-.31-1.2l24.45-7.16Z"/><path d="M277.41,353.59l24.4-11,.8,1.86L277.78,355C277.66,354.51,277.53,354.05,277.41,353.59Z"/><path d="M308.8,334.74c8.49-1,12,.41,12.47,4.39l10.22.62c-5,2.76-9.1,2-12.61-1.29-1.1-1-2.92-1.32-4.44-1.87S311.49,335.61,308.8,334.74Z"/><path d="M96.05,114.43c.45,6.39.83,11.85,1.21,17.32C91.07,122.86,90.9,119.81,96.05,114.43Z"/><path d="M384.25,298.45l-8.83.17,1.39-1.75-9.32-.57,3.14-2.21-.3.2c2.4-.1,4.81-.12,7.2-.3,3.41-.25,5.92.66,6.47,4.47Z"/><path d="M332.57,270l.36-.11,4.29,2.45,9.23,5.27-4.93.9.24,0-12.6-7Z"/><path d="M141.91,225.21l24.43,2-.21,2.18-24.4-2.84Z"/><path d="M264.29,275.65l26.18,2.89C287.94,281.18,275.64,280.21,264.29,275.65Z"/><path d="M260.52,238.89l-23.85-5.12c.09-.48.19-1,.28-1.42l23.89,4.39C260.74,237.46,260.63,238.18,260.52,238.89Z"/><path d="M270,325.69l7.58-1.41c.1,1,.21,2,.31,2.93l-24.16,3.54-.27-1.41c3.73-.62,7.48-1.15,11.18-1.9a50,50,0,0,0,5.53-1.77Z"/><path d="M270,281.66l25.4-.09C287.24,285,279.11,284.25,270,281.66Z"/><path d="M207.32,228l-10.12-7.55c6.73-1.9,9.94.07,11.18,6.16Z"/><path d="M231.2,172.91l13.21,8.71C238.55,183,234.31,180.45,231.2,172.91Z"/><path d="M224.44,233.57c-6.6-4.95-14.5-2.48-21.7-3.9A20.39,20.39,0,0,1,224.44,233.57Z"/><path d="M276.43,349.92l19.86-9.52C295.34,344.16,285,349.29,276.43,349.92Z"/><path d="M382,361.88l17.34,21.3-1.61,1.29-16.57-21.8Z"/><path d="M152.56,154.74a26.36,26.36,0,0,0-3.35-2.05c-4.11-1.73-8.16-3.45-8.17-8.88,3.87-.39,3.94-.12,5.15,3.53.39,1.2,2.14,2.07,3.43,2.82,1.82,1.06,4.34,1.54,2.68,4.58Z"/><path d="M327.63,364.51l-21.83,9c-.18-.39-.35-.79-.52-1.18l21.33-9.78Z"/><path d="M220.37,198.52l23.47,7.18-.63,2L220,199.71Z"/><path d="M270.16,325.67l-21.16.62-.1-.87,22.23-2.52c.12.38.25.76.37,1.14L270,325.69Z"/><path d="M257.13,296l11.91,17C264.78,311.87,259.48,304.39,257.13,296Z"/><path d="M341.52,278.53a38.28,38.28,0,0,0,5.65,1c4.07.12,4.07,0,5.62,5.27l-8.93-.15-.06-1.34,4.95-.73.12-1-10.77-1,3.65-2.08Z"/><path d="M136.25,218.18l23.8,3.1-.27,2-23.64-3.7C136.18,219.11,136.22,218.64,136.25,218.18Z"/><path d="M385.65,430.8l10.93-.45.15,1.38a43.84,43.84,0,0,1-19.91,1.69l7.58-2.23Z"/><path d="M370.33,294.29l.3-.2-11.15-3.45c3.14-.94,6.52-5,8.94.57.26.6,3,.12,5.08,1.22Z"/><path d="M149.8,164.78l21.95,3.42-.36,2.11L149.58,166Z"/><path d="M261.88,246.61h.24c-5.2-1.49-10.4-3-15.58-4.48a18.77,18.77,0,0,1-4.68-2l23.66,3.8Z"/><path d="M284.93,334.87l-22.4,6.56-.42-1.29,22.18-7.28C284.5,333.53,284.71,334.2,284.93,334.87Z"/><path d="M242.33,322.73l20.31-3.88c.13.67.25,1.33.38,2l-20.57,3.48Z"/><path d="M289.12,336.57l-21.31,8.84-.56-1.32,21.1-9.3C288.61,335.38,288.87,336,289.12,336.57Z"/><path d="M246.74,222c-7.17,2.24-13.85.39-20.28-3Z"/><path d="M328.89,375.17l-19.19,6.88-.52-1.38,19-7.54Z"/><path d="M306.25,331.59c-3.07,1.9-3.07,1.9-11.64-3,3.87-2.4,3.82-2.22,6.59.62C302.37,330.42,304.4,330.76,306.25,331.59Z"/><path d="M237.22,292.52,215.67,289l.16-1.09,21.68,2.61C237.41,291.2,237.32,291.86,237.22,292.52Z"/><path d="M251.48,208.69l19.83,1.71c-.07.74-.15,1.48-.22,2.22L251.45,210Z"/><path d="M222.51,248.39,212.26,241C217.64,238.57,222,241.44,222.51,248.39Z"/><path d="M238.06,319.14l20.48-3.68.33,1.81c-6.66,2.08-13.74,1.93-20.59,3.05C238.21,319.92,238.13,319.53,238.06,319.14Z"/><path d="M320.9,398,338,391.11C336.32,394.68,329.41,397.58,320.9,398Z"/><path d="M238,202l-19.11-6.93.42-1.1,19.38,6Z"/><path d="M221.11,302.31l21.11-1.48,0,1.52-21.18.37Z"/><path d="M208.17,149.31l17.42,5.87C222.74,157.21,215.8,155.1,208.17,149.31Z"/><path d="M229.3,161.48c-4.17,1.78-11.67-.47-17.83-5.32Z"/><path d="M322.73,382.15,313.66,384l-.22-.56,19.13-8.15.62,1.31-10.68,5.55Z"/><path d="M161,164.64l-14.16-4.13c.13-.49.25-1,.38-1.47l14.46,3.3Z"/><path d="M212.66,209.15c-5.45-.45-9.47-4.28-13.68-7.63l14.34,6.1Z"/><path d="M385.65,430.8l-1.25.39-9.11.17c0-.32-.05-.65-.07-1l14.57-2.69.45,1.38Z"/><path d="M454.17,374.49l-7.23-14.56,1.11-.58,8,14.3Z"/><path d="M219.43,170.14c-6.9,3.13-7.17-4.33-11-5.69l1-1.47Z"/><path d="M384,298.46l6.39.62c.05.55.09,1.1.14,1.65l-12.59,1.43-.2-1,6.51-2.76Z"/><path d="M348.05,348l-14.77,2.12c-.07-.41-.15-.82-.22-1.24l14.57-3.19Z"/><path d="M171.24,174.56l-14-1.91.06-1.21,14.19.93c-.15.74-.31,1.48-.45,2.21Z"/><path d="M239.78,256.48c-1,4.54-1.89,8.76-2.77,12.82A10.21,10.21,0,0,1,239.78,256.48Z"/><path d="M354,350.43l-13.88,2.79c-.1-.47-.2-.94-.29-1.42l13.76-3.34C353.74,349.12,353.88,349.77,354,350.43Z"/><path d="M322.51,382.18l4.57-.78c.09.57.19,1.15.29,1.72l-11.64,4.16-.5-1,7.5-4.11Z"/><path d="M231.51,185.3l-13.32-3.67.33-1.4L232,183.39Z"/><path d="M225.88,167.78l9.7,2c-.11.55-.22,1.1-.32,1.65-3.64,1.2-6.77-.46-9.83-2.42Z"/><path d="M340.13,397.81l-12.3,3.11c-.14-.46-.27-.93-.41-1.39l12-3.86Z"/><path d="M359.94,353.71l-11.3,2.91c-.14-.49-.29-1-.43-1.49l11.12-3.59Z"/><path d="M243.3,268.49q-.59,5.83-1.18,11.68l-1.35-.07q.31-5.87.61-11.73Z"/><path d="M190.75,199.47l-11.23-2.26.26-1.49,11.35,1.53C191,198,190.87,198.73,190.75,199.47Z"/><path d="M152.56,154.74h-.26l4.23,1.39-.65,2.18-10.31-3,.17-1.3Z"/><path d="M381.84,426.59l-10.5,1.64-.27-1.44,10.5-2.31Z"/><path d="M232.13,263.89q.83-5.37,1.63-10.75l1.82.29q-.95,5.35-1.88,10.71Z"/><path d="M325.09,343l10.93.4c-.06.69-.11,1.38-.16,2.06l-10.77-1Z"/><path d="M299.23,325.21l-9.08-.07,0-1.52,9,.11C299.16,324.23,299.19,324.72,299.23,325.21Z"/><path d="M225.24,375.27c-2.84-.81-5.92-1.18-8.45-2.56s-4.22-3.66-6.58-5.8l6,.76-15.67-9.49L201,357l16.62,5.38,0,.8-3.95-.45-.3,1.29,16.37,5.56.28,1.11L220,369.58l-.17,1.72,8.67,2.75L225,375.29Z"/><path d="M251.86,398.87,272,402.72l.16.37-9.88-.15c-.05.58-.11,1.16-.17,1.74l17.35,3C272.13,410.64,260.25,407.12,251.86,398.87Z"/><path d="M254.52,394.32c-4.76-.14-10.23,1.28-13.45-4.3-.47-.82-2.22-1-3.41-1.31a19.52,19.52,0,0,1-5.31-2.07c4.16.31,8.35-1.24,12,3.35C246.31,392.54,251,393,254.52,394.32Z"/><path d="M225,375.29l18,6.56c-8.51,1.4-14.72-2-21.1-5.68l3.34-.9Z"/><path class="cls-1" d="M421.27,392.22l-12.7-17.8c6.13,1,12.52,9.17,13.82,17Z"/><path class="cls-1" d="M410.78,422.06c5,1.68,8.58,3.1,12.31,4.07,2.51.66,5.22.56,7.8,1,.71.13,1.27,1.11,1.9,1.69-.55.55-1.19,1.64-1.63,1.56-6.15-1.08-12.29-2.23-18.37-3.66C412.09,426.58,411.82,424.6,410.78,422.06Z"/><path class="cls-1" d="M406.44,414.6l4.72,4.3c3.76-3.33,5.88-1.53,7.45,2.49C412,422.52,408.16,420.61,406.44,414.6Z"/><path class="cls-1" d="M407.85,407.61,400.47,402l1-1.32C405.31,400.53,408.56,401.27,407.85,407.61Z"/><path class="cls-1" d="M408.33,408.2l6,5.45-1.15,1.44-6.38-4.9Z"/></svg>