<svg id="Layer_1" data-name="Layer 1" xmlns="http://www.w3.org/2000/svg" viewBox="0 0 807.93 806.13"><defs><style>.cls-1{fill:#b3b3b3;}.cls-2{fill:#575757;}.cls-3{fill:#fcfcfc;}.cls-4{fill:#fdfdfd;}</style></defs><title>Artboard 3</title><path class="cls-1" d="M619.13,324.53c.39-5.37,6.23-5.55,8.28-8.58s.59-8.34,6.08-9.49c1.72-.36,1.86-1.66,1.87-3.06,0-2.1.51-4.71,2.21-5.28,5.73-1.9,5.81-7.41,8-11.49,1.43-2.63,3.08-4.47,6.22-3.72,3.94.94,7.83,2.28,9.09,6.76,1,3.61-1.27,5.6-4.15,7-3.51,1.75-5.2,4.39-6.75,8.21-2.19,5.37-6.45,10-9.82,14.79-1.87,2.66-5.64,4-5.41,8.34,0,.71-.58,2-1.13,2.12-7.5,2.18-4.62,13-12.6,15-1.26.3-.61,2.73-.71,4.18-.3,4.3-2.33,7.36-6.61,8.26-3,.62-2.9,1.5-1.12,3.47a9.66,9.66,0,0,1,2,3.41c1.93,5.94,5.1,9.23,12,7.34,3.35-.92,5.79,1.25,6.51,4.66.59,2.78,2,3.91,4.84,4.63,9.49,2.42,11,6.44,6,14.93-1,1.63-.73,3.16-.69,4.79.18,6.08-2.3,8.56-8.13,7.25-2.84-.65-3.83,0-4.64,2.5-1,3.14-4.21,4.68-5.79,7.41-.61,1.06-2.87,3.06.45,3.59,7.73,1.23,13.33,5.93,18.31,11.34,11.69,12.72,25.88,22.34,39.55,32.62,9.2,6.92,18.73,13.19,30.06,16.21,2.48.67,5.36,1.71,5.62,4.94s-2.26,4.53-4.78,5.56a3.6,3.6,0,0,0-2,2c-2.64,5.32-5.36,6.27-9.36,1.87-14.67-16.14-34.34-24.85-52.27-36.14-8.4-5.29-18.11-7.38-27.11-11.22-4.29-1.82-7.78-4.5-9.67-8.82-.79-1.8-1.62-2.59-3.7-2.3-1.87.27-3.28.31-4.21,2.53-2.74,6.52-8,10.53-14.51,12.82-31.61,11.13-64,17.72-97.69,15.48a175.56,175.56,0,0,1-38.62-7c-12.13-3.62-24.67-5.32-37.05-7.49-15.12-2.66-20.75-12.64-23.5-25.94-3.34-16.15.16-31,8.28-45,.56-1,1.68-1.72,1.1-3.54-6.93.79-13.95,1.55-21,2.41-15.55,1.9-31.09,3.24-46.58-.44-2.08-.5-3.36-.65-4.84,1.61-3.59,5.47-9.05,8.05-15.58,8.44-4.48.28-9,.56-13.41,1.05a11.55,11.55,0,0,0-8,4.66c-4.13,5.48-9.55,7.53-16.18,6.41-3.22-.54-5.61.52-8.16,2.45-16.42,12.37-30.09,27.09-39.74,45.38-3.35,6.35-8.33,10.32-15.3,6.76-2.08-1.07-3.18.07-4.12,1.47-4,5.9-10.29,6.45-15.62,4.33-14.34-5.68-28.13-2.67-41.92,1.14-11.81,3.26-23.58,6.73-35.07,11.1a36.47,36.47,0,0,0-15.67,11.89A31.37,31.37,0,0,1,97,493.82c-4,3-8.16,1.46-8.49-3.56a77.94,77.94,0,0,0-1.94-14.71c-1-4,2.09-7.19,6.91-8,10.31-1.64,20.76-2.31,30.92-5,17-4.58,34-8.81,51.05-13.2a40.07,40.07,0,0,0,16.14-8.55c5.14-4.37,8.07-4.57,13.48-1.08,1.61,1,2.11,1,3.41-.36,3-3.26,6.66-5.55,11.48-4.71,7.55,1.33,12.25-2.66,16-8.57a55.86,55.86,0,0,0,8.39-21.17c.61-4,1.64-7.9,4.14-11.11,1.41-1.81,1.16-2.81-.64-3.73a5.94,5.94,0,0,1-3.59-5.55c0-7-3.75-11.79-8.84-15.93-1.87-1.53-4.68-3.06-3.4-5.91,1.16-2.6,4.11-3,6.87-3.2,4.46-.39,7.85,1,9.83,5.14,2.26,4.79,5.65,7.15,11.31,7.33,3.37.1,6.31.4,9.68-.83,5.66-2.07,7.26,2.79,9.18,7.07,2.47-3.41,6.08-4.26,9.47-5.54.81-.4.83-.78,0-1.12-9.12-5.09-18.65-9.54-26.41-16.73-6.49-6-12.24-12.59-14.75-21.12,1.24-1.55,2.55-.88,2.9-.29,3.36,5.61,11.85,5,14.15,11.79.51,1.5,1.53,1.62,2.76,1.15,4.44-1.67,7.47-.15,9.16,4.12.59,1.49,1.22,2.32,2.9,1.55a7.58,7.58,0,0,1,1.46-.34c5.42-1.39,6.65,4.87,9.39,5.6,3.09.82,7.56-3.2,10.39,2,1.27,2.3,2.41,1.82,4.26.72,7.61-4.53,8-4.54,14.67,1.33,1.5,1.33,2.57.79,4,.58,4.05-.57,8.05-.84,10.54,3.5a3.15,3.15,0,0,0,3.91,1.37c.8-.21,1.63-.36,2.41-.64,3.65-1.31,6.13,1.23,9.17,2.26,2.35.8,4-4.35,7.61-3.66a5.67,5.67,0,0,1,2.73,1.14c2.47,2.26,3.91,1.78,5.71-1a4.84,4.84,0,0,1,7.44-1.22c2.48,1.89,3.67,1.43,5.45-.93a4.72,4.72,0,0,1,6.69-1.22c2.39,1.57,4,1.48,5.67-1.2,1.85-3,4.78-3.32,7.85-1.72,1,.52,2.11,1.69,2.9.08,2.86-5.74,7.16-5.41,12-3.1l.92-.92c.53-.83.92-2.22,1.61-2.39,6.26-1.55,12.53-3.29,18.91-4,2-.24,3.74.25,5-1.63.19-.28.39-.54.6-.8,2.81-3.48,7.57,1.67,9.3-1.28,2.33-4,4.79-4.67,8.48-3.2,1.89.75,2.75,0,3.57-1.48a10.34,10.34,0,0,1,1.5-1.95c2.88-3.22,6.76,2.28,8.85-.48,2.23-3,4.19-4.66,7.74-3.25,2.06.81,2.95.19,3.78-1.72s3.11-3.58,4.82-2.54c4,2.42,5.21-.75,7.88-2.31,4.26-2.49,9-3.62,13.05-7.26,2.31-2.05,7-2,9.52-5.88,1.79-2.74,6.93-.89,10.46,3.17.66,1.23,1.37,1.16,2.11.07a14.84,14.84,0,0,0,5.93-5.83c1.9-3.67,5.38-4.51,8.69-2.09a22.55,22.55,0,0,0,4.75,2.46c3.19,1.36,5.77,1.77,8.4-1.26,1.52-1.74,4-1.7,6-.21,1.76,1.32,2.69,3.22,1.77,5.25-1.42,3.11-.16,5,2.19,6.82a48.08,48.08,0,0,1,4.51,3.93c1.57,1.54,2.89,2.54,5.06.65,1.5-1.3,3.49-1,5,.38s2.06,3.25.93,5c-1.84,2.79-.31,4,1.79,5.51,3.54,2.48,7,5.06,10.3,7.87,2.27,2,3.56,2.3,4.42-1.07,1-3.71,3.29-6.18,7.29-6.39,2.28-.11,2.68-1.28,2.78-3.2.22-4,2.47-6.36,6.22-7.44C619.2,327.42,619.42,326.11,619.13,324.53Zm-25,31.1c.13.38.2.91.76.36l-.6-.51-1-1a1.6,1.6,0,0,0-2.07-.93.94.94,0,0,0-.92-1.07c.21-1.36-.69-2.15-1.55-2.92a157.55,157.55,0,0,0-24.26-18.09c-5.39-3.18-11.14-5.95-17.75-6.24,6.42,4.36,13.18,8.1,19.75,12.14,8,4.93,15.82,10.12,23.72,15.2l1,1a1.74,1.74,0,0,0,1.82,1.19ZM416.27,374.57c-1.15-.08-1.68.62-2.32,1.49-9.6,13.08-12,27.87-10.14,43.54,1.52,12.7,7.57,22.86,18.27,30.1.21.17.55.54.61.49.58-.38.17-.67-.15-1-1.34-5.05-4.27-9.36-6.5-14-7.54-15.67-10.82-31.69-4.43-48.62l4.6-12.09c.33-.36,1.26-.57.3-1.24ZM462,457.74l.68.33-.36-.65C459,451,455.52,444.55,452.25,438c-6.65-13.23-11.24-27-10-42.08.82-10.19,4.15-19.73,7.09-29.38l.72-1-.55-.38c-.12.42-.24.85-.35,1.27-2,.34-2.37,2.18-3.08,3.58-9.16,17.87-11,36.62-6.1,56C443.33,439.2,450.27,450.21,462,457.74Zm3.15-95.25c-4.43,5.61-6.49,12.29-8.06,19.06-5.53,23.86-4.63,46.86,10,67.75,3.35,4.77,7.18,9.12,12.54,11.87-3.91-6.8-7.18-13.81-10.54-20.77-8.62-17.8-12.63-36.38-8.92-56.09,1.37-7.3,3.37-14.47,5.08-21.71l1.26-1.3-.62-.43ZM616.27,400a7.19,7.19,0,0,0-.31-1.9c-3.22-7.51-10-11.24-16.42-15.37-1.29-.83-2.12.22-2.31,1.62-1.66,12.1-2.42,24.15,2.81,35.69,1,2.2,1.59,5.78,3.93,5.88,2.52.12,2.91-3.59,4-5.67C611.48,413.87,614.83,407.37,616.27,400ZM508.58,463.88,496.71,360C476.5,380.41,483.94,445.53,508.58,463.88Zm16.92-1c-15.67-34.79-26.77-68.93-12.64-105.85C493.86,377.51,501.52,446.71,525.5,462.87ZM483.18,358.31C462,380.55,469.47,455,493.18,462c-8-16.16-14.89-32.51-17.36-50.26C473.3,393.64,476.92,376.19,483.18,358.31Zm56.73,102.91c-11.83-32.52-24.28-64.68-13.47-100C510.51,383.21,519.73,450.53,539.91,461.22Zm18.57-3.4c-6.75-16.64-13.62-31.76-17.24-48-3.67-16.5-1.93-32.93,1.09-50.05C530.6,379.26,531,436.17,558.48,457.82ZM574.65,454c-13.42-29.56-25.29-58.13-17.29-90.48C544.16,391.42,553.33,440.74,574.65,454ZM433.48,369.39C413.94,394,417,440.33,444,453.64,426.39,426.73,419,399.4,433.48,369.39Zm139.18-2.23c-11.71,26.45-3.44,71.64,14.89,81.52C576.78,422.07,566.25,396.11,572.66,367.16Zm26.71,75.47c-7.6-23.1-17.69-45.7-11.8-71.05C577.44,393.37,582.46,432.44,599.37,442.63Zm-68-114.81c2.16,10.59,25.79,23.72,38.86,21.92C555.24,345.5,543,338.16,531.37,327.82ZM498,357.55l-.23-.4a2.44,2.44,0,0,0-.31.24c.11.2.25.39.38.58Zm98.66.62.18-.23-.27-.05Z"/><path class="cls-2" d="M580.14,462.43c-13,3.27-25.49,8.45-38.68,11.35-27.21,6-54.47,5.84-81.91,2.28-30.5-4-60.55-10.45-90.73-16.16-29.34-5.54-57.93-3.63-85.89,6.89-24.12,9.08-48.9,13.71-74.77,11.76-14.93-1.12-29.78-3.91-44.81-3-18.5,1.15-35.9,6.27-51.27,16.9-5,3.47-9.1,8.26-13.81,12.2-6.56,5.48-11.11,6.1-16.24,2.67-6-4.06-8.91-11.6-6.11-18.42,2.23-5.41,3.62-10.11.77-16-2.27-4.67.93-9.48,6.09-11.38,4.09-1.5,8.56-1.4,12.69-2.53,29.42-8,55.15-21.67,73.15-47.49,9.13-13.08,18.78-25.83,30-37.26,7-7.18,15.4-12.64,24-17.71,1.07-.63,2.19-1.67,3.67-1l-.09-.09c-2.87,3.07-6.76,4.66-10.16,6.93-16.29,10.87-27.46,26.39-38.61,42-9.87,13.78-19.34,27.91-34.28,37.09A215.14,215.14,0,0,1,109.05,459L106.12,460c-5.94,1.74-12.06,2.46-18.13,3.44-8.4,1.36-10.5,4.89-7.12,12.71,1.87,4.34-.06,7.78-1.73,11.33-2.37,5-2.79,9.85.61,14.57,4.13,5.73,9.1,6.79,15.06,2.95a31.69,31.69,0,0,0,6.63-5.25c12-13.46,28.24-18.75,44.87-23.19,14.23-3.8,28.63-2.86,43.07-1.26,31.22,3.47,61.68,1,91.14-11a152.53,152.53,0,0,1,51.32-11.5c14.54-.59,28.84,1.79,43.09,4.28,27.48,4.81,54.73,10.92,82.36,14.91,17.64,2.54,35.33,4.5,53.15,3.4A225.48,225.48,0,0,0,569,464c3.77-1.27,7.65-2.22,11.47-3.32Z"/><path class="cls-2" d="M654.12,272.78c-7.75-3.73-14.38-2.38-20.07,4.16-9,10.27-20.4,13.6-33.72,12.21A55.72,55.72,0,0,0,565,297.41a44.55,44.55,0,0,1-27.12,6.47c-27.26-1.87-52.62,4.58-76.65,17.63s-48.38,25.11-75.33,30.92c-44.76,9.66-87.29,4.41-127.13-19a108.3,108.3,0,0,0-12.48-6.1c-2.63-1.12-3.57-.13-4.57,1.87-1.95,3.87-1.43,8.11-1.86,12.21l-.26-.16a26.25,26.25,0,0,1,1-12.25c1.07-3.23,2.84-4.6,6.29-2.92,6.73,3.27,13.63,6.19,20.27,9.62,33.64,17.4,69.15,21.51,106.19,15.41,29.49-4.86,56.22-17,82.1-31.2,20.59-11.3,42.11-19.08,65.8-19.73,6.81-.19,13.65-.05,20.45.38a30.12,30.12,0,0,0,17.69-4.1c13.29-7.9,27.49-11.73,43-9.93,11.76,1.37,21.73-2,29.72-10.79,6.7-7.39,14.38-9.06,23.28-4.3A1.33,1.33,0,0,1,654.12,272.78Z"/><path class="cls-2" d="M674.62,344a34.69,34.69,0,0,0-4.09,19.25c.78,15.31-2.66,29.38-11.23,42.13-2.22,3.3-2.65,6.38.63,9.31a86.09,86.09,0,0,1,23.66,33.4c4,10.23,12.55,17,22.16,22.15,5.85,3.14,11.8,6.12,17.7,9.17,3.28,1.7,6.46,3.62,8.53,6.72,2.62,3.92.41,9.77-4.64,11.8-4.21,1.69-7.88,3.5-10.56,7.58-2.26,3.44-6.38,3.31-10,1.94a22,22,0,0,1-6.07-3.41c-18.4-15.1-39.93-23.45-62.6-29.53-8.14-2.18-16.15-5-23.34-9.69,16.15,7.15,33.54,10.31,50.18,15.87,13.1,4.37,24.52,11.81,35.67,19.73a43.38,43.38,0,0,0,6.34,3.93c3.61,1.71,6.81,1.21,8.88-2.62,1.7-3.17,4.51-4.65,7.84-5.64,2.89-.85,5.78-2.09,6.08-5.72s-2.55-5-4.87-6.34c-8.43-5-17.69-8.49-25.92-13.89-9.13-6-16.14-13.82-19.92-24.18-4.1-11.24-11.36-20.17-19.75-28.42-5.49-5.4-5.87-8-1.49-14.37,8.33-12.15,11.73-25.51,11.35-40.09-.19-7-.06-14,5-19.67C674.31,343.64,674.47,343.84,674.62,344Z"/><path class="cls-2" d="M680.21,296.55c1.81,3.65,4.17,7.07,5,11.9-3.17-3.91-4.45-8-6.13-11.95Z"/><path class="cls-2" d="M580.14,462.43l.3-1.72c5.48-1.83,11.06-2.79,16.9-1.79C591.5,459.63,585.89,461.36,580.14,462.43Z"/><path class="cls-2" d="M239.58,341.26l.26.16c4.38,6.6,4.08,7.23-4.77,9.91a.83.83,0,0,1,.14-.63c.07-.15.11-.4.21-.43C240.32,348.88,241.39,345.74,239.58,341.26Z"/><path class="cls-2" d="M680.21,296.55,679,296.5c-2.34-2.08-5.3-3.72-5.25-7.48.24-.24.47-.48.7-.73A20.33,20.33,0,0,1,680.21,296.55Z"/><path class="cls-2" d="M686.2,330c1.29-3.43,2.14-6.93,1.28-10.62h.33l.29.19c1.71,3.93,2.66,7.77-1.3,11A.67.67,0,0,1,686.2,330Z"/><path class="cls-2" d="M666.24,280.58c-3.57-.3-4.74-3.69-8.52-6,4.8.47,7,2.41,8.74,5C666.39,279.88,666.32,280.23,666.24,280.58Z"/><path class="cls-2" d="M688.1,319.52l-.29-.19h-.33c-.73-3-1.46-6-2.5-10.37C687.82,313,688.43,316.11,688.1,319.52Z"/><path class="cls-2" d="M666.24,280.58c.08-.35.15-.7.22-1.05a4.28,4.28,0,0,1,3.78,3.59c-.4.47-.79.95-1.18,1.42C665.92,284.78,666.19,282.6,666.24,280.58Z"/><path class="cls-2" d="M676.6,339.43l2.55-2c.21.21.42.41.65.6-1.72,2-3.45,4-5.18,6-.15-.2-.31-.4-.47-.59l1.31-2.82Z"/><path class="cls-2" d="M669.06,284.54c.39-.47.78-1,1.18-1.42a14.22,14.22,0,0,1,4.25,5.17c-.23.25-.46.49-.7.73C671.65,288.13,670.51,286.17,669.06,284.54Z"/><path class="cls-2" d="M226.3,355.59c1.35-2.86,4.55-2.77,6.77-4.23,0,0-.07-.09-.07-.09-1.51,2.62-4.19,3.37-6.79,4.23Z"/><path class="cls-3" d="M106.12,460l2.93-1.07c.14,1.34.08,2.78-1.49,3.07C106.26,462.27,106.29,460.94,106.12,460Z"/><path class="cls-2" d="M654.12,272.78a1.33,1.33,0,0,0,1.22-1.33,3.57,3.57,0,0,1,3.1,2.8C656.62,274.76,655.33,273.87,654.12,272.78Z"/><path class="cls-2" d="M686.8,330.56l-3,3.54a8.55,8.55,0,0,0-.65-.7,9.08,9.08,0,0,1,3.1-3.44A.67.67,0,0,0,686.8,330.56Z"/><path class="cls-3" d="M619.13,324.53c.29,1.58.07,2.89-1.74,3.4C617.26,326.43,616.9,324.82,619.13,324.53Z"/><path class="cls-2" d="M600.27,457.8h4.07C602.93,459,601.6,458.36,600.27,457.8Z"/><path class="cls-3" d="M676.6,339.43l-1.14,1.2c-1.81-.9-.6-2-.24-3.09l0,0Z"/><path class="cls-3" d="M607.29,460.3c-.24-.14-.6-.23-.69-.43s.14-.49.23-.74c.24.15.57.25.7.46S607.38,460.05,607.29,460.3Z"/><path class="cls-3" d="M612.65,463.12c.08.26.29.58.21.75s-.46.27-.71.4c-.08-.24-.28-.56-.2-.7S612.4,463.26,612.65,463.12Z"/><path class="cls-3" d="M531.38,317.59c-.74,1.09-1.45,1.16-2.11-.07Z"/><path class="cls-2" d="M235.21,350.7a.83.83,0,0,0-.14.63l-2.07-.05s.08.08.07.08C233.78,351.13,234.5,350.92,235.21,350.7Z"/><path class="cls-3" d="M414.16,354.55l-.92.92Z"/><path class="cls-3" d="M288.24,371.52c.87.34.85.72,0,1.12C288.27,372.27,288.25,371.89,288.24,371.52Z"/><path class="cls-3" d="M679.26,329.55c-.08.14-.17.28-.26.41l.21-.46Z"/><path class="cls-3" d="M679.21,329.5l.26-.4-.21.45Z"/><path class="cls-2" d="M679.15,337.45c.31-.29.81-.86.89-.8.86.58.17,1-.24,1.4C679.57,337.86,679.36,337.66,679.15,337.45Z"/><path class="cls-3" d="M675.22,337.54l-.41-.24.43.21Z"/><path class="cls-2" d="M682.68,335c-.4.39-.73,1.19-1.35.3-.05-.08.52-.59.79-.9Z"/><path class="cls-2" d="M683.75,334.1l-1.07.92-.56-.6,1-1A8.55,8.55,0,0,1,683.75,334.1Z"/><path class="cls-4" d="M616.27,400c-1.44,7.34-4.79,13.84-8.27,20.25-1.12,2.08-1.51,5.79-4,5.67-2.34-.1-2.93-3.68-3.93-5.88-5.23-11.54-4.47-23.59-2.81-35.69.19-1.4,1-2.45,2.31-1.62,6.38,4.13,13.2,7.86,16.42,15.37A7.19,7.19,0,0,1,616.27,400Z"/><path class="cls-3" d="M508.58,463.88C483.94,445.53,476.5,380.41,496.71,360Z"/><path class="cls-3" d="M525.5,462.87c-24-16.16-31.64-85.36-12.64-105.85C498.73,393.94,509.83,428.08,525.5,462.87Z"/><path class="cls-3" d="M483.18,358.31c-6.26,17.88-9.88,35.33-7.36,53.42,2.47,17.75,9.39,34.1,17.36,50.26C469.47,455,462,380.55,483.18,358.31Z"/><path class="cls-3" d="M465.32,362.61c-1.71,7.23-3.71,14.4-5.08,21.7-3.71,19.71.3,38.29,8.92,56.09,3.36,7,6.63,14,10.54,20.77-5.36-2.75-9.19-7.1-12.54-11.87-14.66-20.89-15.56-43.89-10-67.75,1.57-6.77,3.63-13.45,8.06-19.06Z"/><path class="cls-3" d="M539.91,461.22c-20.18-10.69-29.4-78-13.47-100C515.63,396.54,528.08,428.7,539.91,461.22Z"/><path class="cls-3" d="M558.48,457.82c-27.45-21.65-27.88-78.56-16.15-98.07-3,17.12-4.76,33.55-1.09,50.05C544.86,426.06,551.73,441.18,558.48,457.82Z"/><path class="cls-3" d="M449.3,366.58c-2.94,9.65-6.27,19.19-7.09,29.38-1.2,15.13,3.39,28.85,10,42.08,3.27,6.51,6.73,12.92,10.11,19.38l-.33.32c-11.76-7.53-18.7-18.54-22.09-31.77-4.94-19.34-3.06-38.09,6.1-56,.71-1.4,1.06-3.24,3.08-3.58Z"/><path class="cls-3" d="M574.65,454c-21.32-13.21-30.49-62.53-17.29-90.48C549.36,395.82,561.23,424.39,574.65,454Z"/><path class="cls-3" d="M433.48,369.39c-14.5,30-7.09,57.34,10.56,84.25C417,440.33,413.94,394,433.48,369.39Z"/><path class="cls-3" d="M572.66,367.16c-6.41,28.95,4.12,54.91,14.89,81.52C569.22,438.8,561,393.61,572.66,367.16Z"/><path class="cls-3" d="M422.08,449.7c-10.7-7.24-16.75-17.4-18.27-30.1-1.88-15.67.54-30.46,10.14-43.54.64-.87,1.17-1.57,2.32-1.49l-.06-.05-4.6,12.09c-6.39,16.93-3.11,32.95,4.43,48.62,2.23,4.64,5.16,8.95,6.5,14Z"/><path class="cls-3" d="M599.37,442.63c-16.91-10.19-21.93-49.26-11.8-71.05C581.68,396.93,591.77,419.53,599.37,442.63Z"/><path class="cls-3" d="M590.21,352.56c-7.9-5.08-15.73-10.27-23.72-15.2-6.57-4-13.33-7.78-19.75-12.14,6.61.29,12.36,3.06,17.75,6.24a157.55,157.55,0,0,1,24.26,18.09c.86.77,1.76,1.56,1.54,2.92Z"/><path class="cls-3" d="M531.37,327.82c11.66,10.34,23.87,17.68,38.86,21.92C557.16,351.54,533.53,338.41,531.37,327.82Z"/><path class="cls-3" d="M465.19,362.49l.77-1.62.62.43-1.26,1.31Z"/><path class="cls-3" d="M416.27,374.57l.24-1.29c1,.67,0,.88-.3,1.24Z"/><path class="cls-3" d="M449.12,366.43c.11-.42.23-.85.35-1.27l.55.38-.72,1Z"/><path class="cls-3" d="M591.22,353.55a1.58,1.58,0,0,1,2.07.93l-.24.23a1.73,1.73,0,0,1-1.81-1.19Z"/><path class="cls-3" d="M498,357.55l-.16.42c-.13-.19-.27-.38-.38-.58a2.44,2.44,0,0,1,.31-.24Z"/><polygon class="cls-3" points="596.66 358.17 596.57 357.89 596.84 357.94 596.66 358.17"/><path class="cls-3" d="M594.13,355.64l-1.08-.93.24-.23c.34.33.67.67,1,1Z"/><path class="cls-3" d="M594.29,355.48l.6.51c-.56.55-.63,0-.76-.35Z"/><path class="cls-3" d="M591.24,353.52l-1-1,.08-.09a1,1,0,0,1,.93,1.08Z"/><path class="cls-3" d="M462.36,457.42l.36.65-.68-.33Z"/><path class="cls-3" d="M422.54,449.23c.32.29.73.58.15,1-.06.05-.4-.32-.61-.49Z"/></svg>