<svg id="Layer_1" data-name="Layer 1" xmlns="http://www.w3.org/2000/svg" xmlns:xlink="http://www.w3.org/1999/xlink" viewBox="0 0 807.93 806.13"><defs><style>.cls-1{fill:none;}.cls-2{fill:#575757;}.cls-3{fill:#fcfcfc;}.cls-4{clip-path:url(#clip-path);}.cls-5{fill:#fe9681;}.cls-6{fill:#fd7b6b;}.cls-7{fill:#fc6758;}.cls-8{fill:#fa574a;}.cls-9{fill:#f6463c;}.cls-10{clip-path:url(#clip-path-2);}</style><clipPath id="clip-path"><path class="cls-1" d="M-215.95,328.25l18.49-13.84,5.3-3,6.31,1.33,12.32,5.87,14.35,13.6,9.66,21.43,2.2,11.9.43,4.75-19.33,21.1a98,98,0,0,1-26.53-20.24A99.25,99.25,0,0,1-215.95,328.25Z"/></clipPath><clipPath id="clip-path-2"><path class="cls-1" d="M-184.42,450.81s4.13.79,10.5,6.85S-155.21,487-155.21,487l9.67,18.19s-11.17,3-17.93,21.78c0,0-55.57-15.6-66.88-26.26,0,0-11.13-4-67.45,16.89,0,0-87.35,6.83-114.38-6.85s-96.11-13-96.11-13-39.71,8.32-78.43,20c0,0-1.35-9.95,23.3-20.33s57.57-17.39,57.57-17.39l145.73-15.69,85.88-17.65,20.91-2.69,27.87-.37S-194.93,444-184.42,450.81Z"/></clipPath></defs><title>Artboard 2</title><path class="cls-2" d="M653.26,398.06c-.62,8.93-4.75,16.5-9.27,23.9-4.09,6.68-4.27,7.45,1.4,12.67,8.85,8.15,15.74,17.44,20.05,28.78,5.17,13.61,16.07,21.6,28.64,27.77,5.95,2.92,12.14,5.45,17.47,9.51,6.89,5.25,6,13.16-2,16.23-3.89,1.48-6.87,3.33-9.28,6.86-2.23,3.26-6,3.88-9.89,2.67a23.79,23.79,0,0,1-7.82-4.33c-17.75-14.32-38.44-22.17-60.2-27.86-12.06-3.16-23.88-7.13-33.93-14.94-1.66-1.3-3.45-.92-5.24-.82-13.64.72-26.5,4.84-39.36,9-26.65,8.62-54,11.09-81.83,8.86-28.92-2.31-57.22-8.34-85.64-13.71-16.16-3.05-32.3-6.34-48.75-7.57-22.74-1.71-44.29,3.7-65.36,11.45-20.8,7.65-42.1,12.44-64.36,11.4-13.47-.63-26.9-2-40.36-2.95-20.94-1.5-40.11,4.54-58.37,14.09-5.06,2.64-8.66,7.23-12.91,10.95-1.74,1.53-3.45,3.11-5.31,4.48-6.11,4.51-11.76,5-16.53,1.65-6.13-4.36-8.91-11.44-6.37-18.33,2.09-5.7,4-10.83,1-17.05-2-4.18.94-8.65,5.59-10.84s10-2.23,15.05-3.17c14-2.6,25.92-10,38.37-16.32,18-9.14,29-25,40.23-40.71,12.53-17.53,25.87-34.32,45.12-45.21a136.88,136.88,0,0,1,15.57-7.88c2.45-1,3.75-1.95,2.61-5.07-2-5.4-.94-10.78,1.16-16.05,1.36-3.4,3.36-4,6.65-2.74,7.83,2.93,15,7.18,22.38,11,29.43,15.13,60.59,20.2,93.4,17,32-3.13,60.78-15.38,88.77-30.16,15.89-8.39,31.77-16.71,49.79-19.89a164.91,164.91,0,0,1,39.79-2.19A34.29,34.29,0,0,0,543.11,314c7.86-4.42,15.92-8.63,25-9.46a177.45,177.45,0,0,1,22.6-.34c7.85.29,14.3-2.42,20-7.55,1.61-1.45,3.26-2.85,4.87-4.29,8.64-7.74,14.25-8.67,24.37-2.88,16.95,9.71,26.82,24.81,31.72,43.44l-3.79-.73a80.76,80.76,0,0,0-12.2-23.83c-5.57-7.45-12.3-13.47-21-17.08-5.36-2.22-10.32-2.07-14.71,2.27-2.36,2.34-5.23,4.22-7.31,6.76-2.49,3-8.82,2.71-8.22,7.81.48,4,3,7.65,4.72,11.45.34.75.87,1.41,1.27,2.14,6.17,11.19,14.85,20.32,23.79,29.26-.11.63-.23,1.26-.34,1.88-1-.81-2.15-1.55-3.13-2.44-12.51-11.35-22.37-24.58-28.45-40.45-.63-1.65-.91-3.07-3.29-2.6-6.44,1.26-13,.59-19.43.39a54.74,54.74,0,0,0-25.62,5.1c-5.85,2.77-11.29,6.43-17.54,8.34-2.06.63-2.33,2-2.4,3.77-1.13,32.67,6.19,63.05,24.38,90.52,1.79,2.7,3.67,4.07,7.27,3.76,23.41-2,46.56-.75,69.09,6.61,1.85.6,2.58,0,3.49-1.52C643.13,416,648,407.71,649.87,398ZM468.76,329c-5.74,1.23-10.91,3.94-16.13,6.47-16.3,7.89-31.88,17.32-48.88,23.72-5.59,2.11-8.92,5.61-11.56,10.7a175.79,175.79,0,0,0-20,73.51c-.21,4.41.65,5.32,5,4.88,27.14-2.74,54.33-4.93,81.22-9.92,5.51-1,5.91-2.79,5-7.17a205.69,205.69,0,0,1-3.7-31.69c-.91-23.87,3.08-47,9.87-69.82l.08-1.11Zm-273.18,165c9,.73,18-.29,26.93-.91a8.14,8.14,0,0,0,4.94-2c9.3-7.94,19.38-14.63,30.79-19.17A4.65,4.65,0,0,0,261.5,468a91.75,91.75,0,0,1,8.88-25.35c2.51-4.79.78-5.38-3.44-6.3-26.87-5.86-50.9-17.19-70.61-36.93-2.84-2.84-4.22-9.11-8.75-7.9-3.59,1-6.31,5.6-9.18,8.82-13.16,14.83-23.43,31.91-36.48,46.82a2.69,2.69,0,0,0-.51,3.53c6.17,11.67,8.31,24.15,7.24,37.22-.17,2.09.34,2.94,2.62,3.08C166.05,491.89,180.82,492.94,195.58,493.94Zm363-74.13a140.78,140.78,0,0,1-19.14-37.94,158.45,158.45,0,0,1-7.77-55c.06-1.95,1.1-4.4-2.65-4.51-17.49-.51-34.92-.74-52.06,3.76a6.27,6.27,0,0,0-5,4.68,197.17,197.17,0,0,0-6.05,101.43c.62,3.19,1.1,4.4,4.66,3.65C499.5,429.79,528.35,423.3,558.61,419.81ZM393,363.73c-19,6.3-37.25,10.34-56,11.5a8.39,8.39,0,0,0-3.69,1.37c-30.19,19-52.83,44.43-65.5,78.15a72.49,72.49,0,0,0-4.14,14.56c18.83-7.4,37.64-11.53,56.73-14.6,15.15-2.43,30.39-4,45.64-5.47,3.33-.31,4.17-1.44,4.11-4.56a98.23,98.23,0,0,1,.68-12.47A175.53,175.53,0,0,1,393,363.73ZM601.64,421.6c-13.21-1.65-25.34-.91-37.44.14C532.61,424.46,501.86,432,470.83,438c-3.25.62-3.05,2-2.37,4.44A192.28,192.28,0,0,0,488,489.21c1.93,3.24,4.08,4.19,7.62,3.81,16.23-1.75,32.32-4.16,47.89-9.31,12.78-4.23,25.58-8.53,39.2-9,3.38-.12,3.56-1.76,3.21-4.44a60.88,60.88,0,0,1,3.09-29C591.66,434,595.94,427.8,601.64,421.6ZM232.51,491.2c.8-.15,1.6-.29,2.39-.46,13.52-3,26.34-8.18,39.48-12.37,21.59-6.89,43.55-9.15,66-5.86,28,4.1,55.56,10.59,83.47,15.12,19.73,3.21,39.5,6.06,59.58,5.64,2.14,0,4.87.58,2.55-3.22a176.13,176.13,0,0,1-19.9-47.7c-.63-2.43-1.39-3.13-4.05-2.56-7,1.49-14.05,2.65-21.12,3.75-35.06,5.44-70.56,6.82-105.72,11.4-26,3.38-51.59,8.22-75.79,18.64C249.53,477.85,240.29,483.39,232.51,491.2ZM328.72,376a206,206,0,0,1-40.2-4.55c-19.22-4.22-36.56-13-53.78-22.12-2.47-1.3-5.67-4.13-8-2.21-2.54,2.15-2.64,6.31-2.35,9.86a14.16,14.16,0,0,0,1.18,4.82c1.89,3.88.55,6-3.21,7.53A139.64,139.64,0,0,0,194.68,385c-3.72,2.62-4.13,4.36-1,8,20.54,23.53,47.28,35.44,77,42,2.67.59,3.8-.64,5-2.73a156.21,156.21,0,0,1,21.2-28.9C306.4,393,317.26,384.41,328.72,376ZM672.9,481.66a59.64,59.64,0,0,1-13.07-21.2c-2.7-7.16-7.19-13-12.52-18.4-3.72-3.75-8.21-6.88-10.19-12.11-.48-1.29-1.79-1.39-2.85-1.76a132.6,132.6,0,0,0-24.72-5.9c-3.43-.51-5.89.53-8.26,3.21-8.5,9.63-13.21,20.77-13.37,33.55-.21,16.56-1.32,16.53,14.76,24.15s33.73,10.06,50,16.77c2,.84,2.64-.09,3.17-1.74C658.54,490.07,663.89,484.55,672.9,481.66ZM146.42,479A61.39,61.39,0,0,0,140.54,454c-1.31-2.87-2.18-3.26-4.83-1.13-12.38,10-26.45,17.14-41,23.51-7.89,3.46-16.3,4.48-24.67,5.84-6.18,1-9.17,4.72-6.87,9.35,2.52,5.05,2.15,9.5-.37,14.21a18.45,18.45,0,0,0-1.69,4.68,12.24,12.24,0,0,0,5.41,12.48c4.28,2.54,8.22,1.86,11.86-1.42,1.73-1.56,3.78-2.81,5.33-4.52,14.17-15.5,33.07-21.08,52.69-24.85C146.72,490.17,146.8,490.57,146.42,479ZM692,522.91c3.78.35,5.25-1,6.39-3a11.11,11.11,0,0,1,7.23-5.65c2.95-.77,5.94-1.69,6.52-5.26.64-3.82-2.77-4.86-5-6.68a8.59,8.59,0,0,0-1.27-.77C696,496,685.32,492,676.48,484.77a3.74,3.74,0,0,0-3.74-.51c-7.65,2.24-12.38,7.38-14.77,14.85-.57,1.8-.32,3.06,1.67,4,9.68,4.51,18.06,11.1,26.81,17.07A17,17,0,0,0,692,522.91Z"/><path class="cls-2" d="M671.06,349.31c-2.07,3.64-5.41,6.17-8.28,9.05-6.18,6.18-8.07,13.69-8.15,22-1.28-.38-2.06-2.21-3.79-1.35.09-2.42-.34-5,.37-7.23,1-3.19.17-5.27-2.3-7.07.18-.55.36-1.1.55-1.64,2.45,1.18,4.21,1.34,5.92-1.66a38.61,38.61,0,0,1,10.67-11.54Z"/><path class="cls-2" d="M653.26,398.06l-3.39,0,1-9.86c1.21.14,2.25,1.26,3.59.65A22.64,22.64,0,0,1,653.26,398.06Z"/><path class="cls-2" d="M667.87,332.22l3.79.73c2,2.79,1.29,6,1.36,9.06l-3.28-.25C669.12,338.58,668.49,335.4,667.87,332.22Z"/><path class="cls-2" d="M654.48,388.83c-1.34.61-2.38-.51-3.59-.65q0-4.59,0-9.18c1.73-.86,2.51,1,3.79,1.35Z"/><path class="cls-2" d="M669.74,341.76,673,342a8.25,8.25,0,0,1-2,7.3l-5,.55C668.17,347.56,668.85,344.61,669.74,341.76Z"/><path class="cls-3" d="M650.84,379q0,4.59,0,9.18l-1,9.86c-1.85,9.67-6.74,18-11.62,26.32-.91,1.56-1.64,2.12-3.49,1.52-22.53-7.36-45.68-8.61-69.09-6.61-3.6.31-5.48-1.06-7.27-3.76C540.21,388,532.89,357.66,534,325c.07-1.81.34-3.14,2.4-3.77,6.25-1.91,11.69-5.57,17.54-8.34a54.74,54.74,0,0,1,25.62-5.1c6.48.2,13,.87,19.43-.39,2.38-.47,2.66.95,3.29,2.6,6.08,15.87,15.94,29.1,28.45,40.45,1,.89,2.09,1.63,3.13,2.44a14.41,14.41,0,0,0,6.49,5.26,30.53,30.53,0,0,0,8.54,6.56c2.47,1.8,3.33,3.88,2.3,7.07C650.5,374,650.93,376.58,650.84,379Z"/><path class="cls-3" d="M195.58,493.94c-14.76-1-29.53-2.05-44.31-2.95-2.28-.14-2.79-1-2.62-3.08,1.07-13.07-1.07-25.55-7.24-37.22a2.69,2.69,0,0,1,.51-3.53c13.05-14.91,23.32-32,36.48-46.82,2.87-3.22,5.59-7.86,9.18-8.82,4.53-1.21,5.91,5.06,8.75,7.9,19.71,19.74,43.74,31.07,70.61,36.93,4.22.92,5.95,1.51,3.44,6.3A91.75,91.75,0,0,0,261.5,468a4.65,4.65,0,0,1-3.26,3.85c-11.41,4.54-21.49,11.23-30.79,19.17a8.14,8.14,0,0,1-4.94,2C213.54,493.65,204.59,494.67,195.58,493.94Z"/><path class="cls-3" d="M558.61,419.81c-30.26,3.49-59.11,10-88,16.06-3.56.75-4-.46-4.66-3.65A197.17,197.17,0,0,1,472,330.79a6.27,6.27,0,0,1,5-4.68c17.14-4.5,34.57-4.27,52.06-3.76,3.75.11,2.71,2.56,2.65,4.51a158.45,158.45,0,0,0,7.77,55A140.78,140.78,0,0,0,558.61,419.81Z"/><path class="cls-3" d="M469.64,329.63c-6.8,22.78-10.79,45.95-9.88,69.82a205.69,205.69,0,0,0,3.7,31.69c.86,4.38.46,6.14-5,7.17-26.89,5-54.08,7.18-81.22,9.92-4.32.44-5.18-.47-5-4.88a175.79,175.79,0,0,1,20-73.51c2.64-5.09,6-8.59,11.56-10.7,17-6.4,32.58-15.83,48.88-23.72,5.22-2.53,10.39-5.24,16.13-6.47Z"/><path class="cls-3" d="M393,363.73a175.53,175.53,0,0,0-22.2,68.48,98.23,98.23,0,0,0-.68,12.47c.06,3.12-.78,4.25-4.11,4.56-15.25,1.44-30.49,3-45.64,5.47-19.09,3.07-37.9,7.2-56.73,14.6a72.49,72.49,0,0,1,4.14-14.56c12.67-33.72,35.31-59.11,65.5-78.15a8.39,8.39,0,0,1,3.69-1.37C355.72,374.07,373.93,370,393,363.73Z"/><path class="cls-3" d="M601.64,421.6c-5.7,6.2-10,12.43-12.62,19.68a60.88,60.88,0,0,0-3.09,29c.35,2.68.17,4.32-3.21,4.44-13.62.47-26.42,4.77-39.2,9-15.57,5.15-31.66,7.56-47.89,9.31-3.54.38-5.69-.57-7.62-3.81a192.28,192.28,0,0,1-19.55-46.8c-.68-2.42-.88-3.82,2.37-4.44,31-6,61.78-13.51,93.37-16.23C576.3,420.69,588.43,420,601.64,421.6Z"/><path class="cls-3" d="M232.51,491.2c7.78-7.81,17-13.35,26.93-17.62,24.2-10.42,49.8-15.26,75.79-18.64,35.16-4.58,70.66-6,105.72-11.4,7.07-1.1,14.13-2.26,21.12-3.75,2.66-.57,3.42.13,4.05,2.56a176.13,176.13,0,0,0,19.9,47.7c2.32,3.8-.41,3.17-2.55,3.22-20.08.42-39.85-2.43-59.58-5.64-27.91-4.53-55.48-11-83.47-15.12-22.49-3.29-44.45-1-66,5.86-13.14,4.19-26,9.4-39.48,12.37C234.11,490.91,233.31,491.05,232.51,491.2Z"/><path class="cls-3" d="M328.72,376c-11.46,8.38-22.32,17-31.8,27.32a156.21,156.21,0,0,0-21.2,28.9c-1.18,2.09-2.31,3.32-5,2.73-29.73-6.56-56.47-18.47-77-42-3.18-3.65-2.77-5.39,1-8a139.64,139.64,0,0,1,27.73-15.61c3.76-1.51,5.1-3.65,3.21-7.53a14.16,14.16,0,0,1-1.18-4.82c-.29-3.55-.19-7.71,2.35-9.86,2.28-1.92,5.48.91,8,2.21,17.22,9.11,34.56,17.9,53.78,22.12A206,206,0,0,0,328.72,376Z"/><path class="cls-3" d="M672.9,481.66c-9,2.89-14.36,8.41-17,16.57-.53,1.65-1.12,2.58-3.17,1.74-16.31-6.71-34.05-9.18-50-16.77s-15-7.59-14.76-24.15c.16-12.78,4.87-23.92,13.37-33.55,2.37-2.68,4.83-3.72,8.26-3.21a132.6,132.6,0,0,1,24.72,5.9c1.06.37,2.37.47,2.85,1.76,2,5.23,6.47,8.36,10.19,12.11,5.33,5.37,9.82,11.24,12.52,18.4A59.64,59.64,0,0,0,672.9,481.66Z"/><path class="cls-3" d="M146.42,479c.38,11.53.3,11.13-10,13.1-19.62,3.77-38.52,9.35-52.69,24.85-1.55,1.71-3.6,3-5.33,4.52-3.64,3.28-7.58,4-11.86,1.42a12.24,12.24,0,0,1-5.41-12.48,18.45,18.45,0,0,1,1.69-4.68c2.52-4.71,2.89-9.16.37-14.21-2.3-4.63.69-8.35,6.87-9.35,8.37-1.36,16.78-2.38,24.67-5.84,14.51-6.37,28.58-13.5,41-23.51,2.65-2.13,3.52-1.74,4.83,1.13A61.39,61.39,0,0,1,146.42,479Z"/><path class="cls-3" d="M669.74,341.76c-.89,2.85-1.57,5.8-3.69,8.1a38.61,38.61,0,0,0-10.67,11.54c-1.71,3-3.47,2.84-5.92,1.66-1.77-2.8-5.19-3.34-7.45-5.46a29.19,29.19,0,0,0-7.79-6.6c-8.94-8.94-17.62-18.07-23.79-29.26-.4-.73-.93-1.39-1.27-2.14-1.67-3.8-4.24-7.5-4.72-11.45-.6-5.1,5.73-4.77,8.22-7.81,2.08-2.54,5-4.42,7.31-6.76,4.39-4.34,9.35-4.49,14.71-2.27,8.69,3.61,15.42,9.63,21,17.08a80.76,80.76,0,0,1,12.2,23.83C668.49,335.4,669.12,338.58,669.74,341.76Z"/><path class="cls-3" d="M692,522.91a17,17,0,0,1-5.5-2.74c-8.75-6-17.13-12.56-26.81-17.07-2-.93-2.24-2.19-1.67-4,2.39-7.47,7.12-12.61,14.77-14.85a3.74,3.74,0,0,1,3.74.51C685.32,492,696,496,705.82,501.5a8.59,8.59,0,0,1,1.27.77c2.23,1.82,5.64,2.86,5,6.68-.58,3.57-3.57,4.49-6.52,5.26a11.11,11.11,0,0,0-7.23,5.65C697.2,521.93,695.73,523.26,692,522.91Z"/><path class="cls-2" d="M634.22,351a29.19,29.19,0,0,1,7.79,6.6l-1.64.54a14.41,14.41,0,0,1-6.49-5.26C634,352.26,634.11,351.63,634.22,351Z"/><path class="cls-3" d="M468.76,329l.95-.43c0,.37,0,.74-.08,1.11C469.35,329.4,469.06,329.17,468.76,329Z"/><path class="cls-2" d="M640.37,358.14l1.64-.54c2.26,2.12,5.68,2.66,7.45,5.46-.19.54-.37,1.09-.55,1.64A30.53,30.53,0,0,1,640.37,358.14Z"/><g class="cls-4"><rect class="cls-5" x="-357.12" y="311.43" width="367.19" height="44.26"/><rect class="cls-6" x="-357.12" y="336.1" width="367.19" height="35.03"/><polyline class="cls-7" points="10.07 381.88 10.07 390.63 -357.13 390.63 -357.13 381.88"/><polyline class="cls-7" points="8.12 357.85 8.12 384.11 -359.79 384.11 -359.79 357.85"/><polyline class="cls-8" points="6.5 376.23 6.5 384.99 -360.69 384.99 -360.69 376.23"/><polyline class="cls-8" points="7.76 381.04 7.76 389.8 -359.43 389.8 -359.43 381.04"/><rect class="cls-9" x="-358.86" y="389.25" width="367.19" height="44.26"/><polyline class="cls-8" points="10.07 421.2 10.07 429.96 -357.13 429.96 -357.13 421.2"/></g><g class="cls-10"><polygon class="cls-5" points="-871.71 432.26 193.09 507.97 181.02 455.04 -883.78 379.33 -871.71 432.26"/><polygon class="cls-6" points="-867.51 450.71 197.3 526.43 187.75 484.54 -877.06 408.83 -867.51 450.71"/><polyline class="cls-7" points="-864.57 463.58 -862.18 474.05 202.62 549.76 200.23 539.29"/><polyline class="cls-7" points="-865.48 435.24 -858.33 466.64 208.57 542.5 201.41 511.11"/><polyline class="cls-8" points="-855.76 457.56 -853.38 468.03 211.43 543.75 209.04 533.27"/><polyline class="cls-8" points="-858.12 463.05 -855.73 473.52 209.08 549.24 206.69 538.76"/><polygon class="cls-9" points="-845.45 525.68 219.36 601.39 207.29 548.46 -857.52 472.75 -845.45 525.68"/><polyline class="cls-8" points="-853.85 510.6 -851.46 521.07 213.34 596.78 210.96 586.31"/></g></svg>