<svg id="Layer_1" data-name="Layer 1" xmlns="http://www.w3.org/2000/svg" viewBox="0 0 807.93 806.13"><defs><style>.cls-1{fill:#790101;}.cls-2{fill:#c6171f;}.cls-3{fill:#d73131;}.cls-4{fill:#a00708;}.cls-5{fill:#b60313;}.cls-6{fill:#fd7b6b;}.cls-7{fill:#f6463c;}.cls-8{fill:#fa574a;}.cls-9{fill:#fe9681;}</style></defs><title>Artboard 4</title><path class="cls-1" d="M508.05,312.34c5.59,1.81,10.21,5.14,14.42,9.13.2,2-.68,3.85-.8,5.71-.21,3.58-3.49,6.71-1.46,10.54-3.2,6.58-3.7,13.68-4,20.82-1.31,1.18-.89,2.76-.9,4.2,0,6.62,0,13.24,0,19.86.25,8-.94,16.19,2,24-.61,4.35,1.15,8.52,1,12.82-.11,3.79,2.05,4.86,5.11,3.88,4.36-1.39,9-1.34,13.4-2.3,7.51-1.61,15.08-3.37,22.77-4.39s15.56-2.71,23.35-4.06q14.26-2.46,28.55-4.81c2-.33,3.77-1.34,1.72-2.93-2.57-2-2.59-5.32-4.92-7.22a1.61,1.61,0,0,0-1-.06l0,0a6.68,6.68,0,0,0-.4-1.89c-16-27.51-22.27-57.18-19.68-88.82,6.88,1.38,12.59,5.07,18.14,9.1.46.9.92,1.8,1.39,2.69.29,10.76.24,21.54,3.42,32,1.63,8.36,2.51,17,7.91,24.1-.78,5,3.4,8.34,4.23,12.8,2.47,6.31,7.41,11.12,10.39,17.12,1.14,2.29,3.23,1.93,5.2,1.92,12.53-.08,25.05-.78,37.59-.09,4.64.26,9.19.93,13.75,1.63,8.16,1.23,16,3.83,23.78,6.47-7.61,5.29-16.62,6.16-25.32,8-3.88.82-7.85,1.2-11.88,2.13a52.4,52.4,0,0,1,19.82,11c-.76,1.29-1.68.16-2.52.18a162,162,0,0,0-25.53-6c-2.08-.28-4.23-1-6.09.81q-18.85,18.56-16.3,44.88l0-.08c-6.8,5.1-14,9.21-22.83,9.37a26.22,26.22,0,0,1-2.11-10.3v-9c1.11-4.63.58-9.63,3-14l4-9a90.88,90.88,0,0,1,10.55-12.94,26.51,26.51,0,0,0-10.67-1,116.58,116.58,0,0,0-15.42-.42,271.52,271.52,0,0,0-37.53,4.39C550.57,437,527,441.52,503.33,446c-2.3.43-3.25,1.13-2.48,3.95,2.69,9.78,6.26,19.22,9.89,28.66,1.76,4.58,5.09,8.54,5.46,13.67-3.26,4.83-7,9.13-13,10.45-.8-.32-.74-1.79-2.26-1.33-1.22.36-6-2.44-6.65-3.47l1.69-.39c-.12-.31-.24-.61-.35-.92l-1.32-1.07,0,0c-7.29-14.94-14-30.14-18-46.33-.64-2.51-1.83-2.44-4-2-8.16,1.55-16.32,3.24-24.56,4.15-29.06,3.23-58.16,6.07-87.23,9.22-28.28,3.05-56.26,7.7-83.16,17.31-4.88,1.74-10.13,3-14.14,6.68l.06,0a1.41,1.41,0,0,0-2.06,1.06l.08-.05c-.91-.09-1.83-.2-2.08,1l.08,0a2.08,2.08,0,0,0-2.47,1.06c-3.47.08-5.52,3.27-7.17,5.11-2,2.19-3.67-.86-5.67,1.5a48,48,0,0,1-9.36,8.42c-7.36-6.28-16.07-7.62-25.33-7,3.53-3.43,7.69-6.29,10-10.85a3.8,3.8,0,0,0,3.21-3l2.77-1.28c6.33-.62,10.93-5.17,16.59-7.33,1.6-.61,2-2.68,1.82-3.84-.42-2.35,1.11-3.9,1.5-5.86a122.91,122.91,0,0,1,7.13-19c2.58-5.73,2.59-5.52-3.51-6.87-31.82-7.07-59.64-20.87-79.66-47.68,7.59-2.12,15.36-1.09,23.05-1.4a5.54,5.54,0,0,0,4.05,2.12,40.59,40.59,0,0,0,16,12.07,2.21,2.21,0,0,0,1.34,1.94c7.88,2.87,14.74,7.74,22.91,10.37,8.41,2.71,16.92,4.77,25.44,6.92,2.41.61,5.69-1,6.24-2.86a178.59,178.59,0,0,1,37.76-43.8c6.79-5.6,14.33-10.09,21.41-15.24,5,.53,7.68,4.46,10.85,7.64-12.66,9.33-24.64,19.38-34.19,32-5.29,2.64-5.72,8.62-8.81,12.78-.73.68-1.71,1.21-2.15,2-5,9.35-10.31,18.57-12.74,29.05-3.35,3-2.25,7.26-2.9,11-.3,1.72,1.08,2.14,2.68,1.51a161.43,161.43,0,0,1,36.34-9.55,2,2,0,0,0,1.87-1.93l35-5.13c1.11.15,2.26.42,2.93-.89,8.57.59,16.86-2.06,25.39-2.15,1.78,0,3.67-.67,3.5-3.19A141.68,141.68,0,0,1,386.82,411c3.38-22.52,11.44-43.35,22.61-63.07,4.16-1.46,6.63,1.72,9.44,3.64a48.35,48.35,0,0,1,5.41,4.94q-1.68,4.54-3.34,9.07c-3.69,7.35-7.32,14.73-8.71,22.95a2.09,2.09,0,0,0-.85,2.08l-1,4.93c-2.08,5.15-2.72,10.58-3.15,16.06-1.15.76-.94,1.92-.89,3l0,1.93c-.35,4.28-.9,8.55-1,12.83-.12,5.2,1.86,6.24,7.07,6.29,5.85.05,11.22-2.1,17-2.44,12.49-.75,25-2.07,37.38-3.78,7.91-1.09,16.29-.37,23.52-4.88,1.35.23,2.25,2.26,4,1,6.63-1.95,7.08-3,3.68-8.84-.24-.42-.51-.82-.77-1.23a18.55,18.55,0,0,0-.34-6.43,183.61,183.61,0,0,1-2.16-33.26,200.17,200.17,0,0,1,11.45-63.34l1.2-.29.32.25Z"/><path class="cls-2" d="M124.07,458.63c-4.56-8.18-4.57-8.19,1.51-15.27,1.17-1.37,2.43-2.66,3.65-4l.11-.16a.5.5,0,0,1,.06-.55,2.38,2.38,0,0,0,1.77-2.23l1.23-1.7,1-.14c2.81,2.35,5.3,5.85,9.38,1.52.76-.82,2.85-.51,4.32-.52q26.23,0,52.47,0c1.65,0,3.39-.31,4.88.63,2.78,1.76,5.38,1.36,7.77-.62,1.67-1.37,2.63-1.22,3.07,1L215,437l.24-.43c1.72-.08,3.79.48,4.12-2.2,10,1.4,19.54,5.06,29.66,5.85,1.63.13,1.73,1,1.17,2.39-1.59,4-3.08,8-4.61,12-1,2.41-5.36-.21-5.45,3.61,0,.09-.59.26-.61.22-2-3.45-4.91-.7-7.18-.72-33.46-.24-66.92-.17-100.38-.16-2.32,0-4.69-.32-6.79,1.05Z"/><path class="cls-3" d="M183,377.65c-3.07-2.06-2.73-3.9.15-5.95,9.66-6.88,19.28-13.79,30.85-17.27a10.52,10.52,0,0,0,2.75-2c.57-.11,1.09-1.59,1.31-.8.89,3.27.71,7.81,5.77,3,.28-.27,1-.12,1.46-.12h31.5c-2.41-1.41-2.08-2.85.47-4,15.92,8.07,33.26,10.94,52.2,13.22a171.23,171.23,0,0,0-18.17,15.76c-1.47-3.34-4-4.14-7.6-4.09-31.13.41-62.27-.49-93.41.52a3.19,3.19,0,0,1-3-1.42l1.3-.4-.26-.38-1,.76c-.8.29-2.87-.65-2,1.37C187.29,380.49,183.09,376.22,183,377.65Z"/><path class="cls-4" d="M713,414.59c-7.8-2.64-15.62-5.24-23.78-6.47-4.56-.7-9.11-1.37-13.75-1.63-12.54-.69-25.06,0-37.59.09-2,0-4.06.37-5.2-1.92-3-6-7.92-10.81-10.39-17.12,3.31-.06,4.63-2.5,5.93-5l2,.1c-.62,4.24,2.22,3.93,5,3.92q35.25,0,70.5,0c5.93,0,12.37-1.67,16.93,4.14,0,0,.3-.1.46-.15.18,5.07-3.13,9.14-4,13.91h0c-.72,0-1,.36-.89,1.06-.74,3.31-2.85,5.85-4.83,8.46l-.19.22v.3Zm7-23.1-.24-.32-.29.27.4.4Z"/><path class="cls-3" d="M420.93,365.56q1.68-4.53,3.35-9.07c.26-.19.68-.33.75-.58,2.88-9.11,10.87-11.47,18.62-14.16a.54.54,0,0,0,.68-.32l2.69-1.07a1,1,0,0,0,1.31-.58l1.51-.72,1.43.4c.13.74.06,1.84,1.13,1.71,1.89-.24,1.84-1.85,1.94-3.27l1.94-.3c11.29,3.16,22.68,2.52,34.1.92-.85,10.36-1.44,20.74-1.37,31.14-17.72,4.32-40,6.17-62.67-2Q423.55,366.69,420.93,365.56Zm40.63-23.44c-.26-.17-.5-.44-.76-.44s-.52.23-.78.36c.25.16.49.42.74.44S461.29,342.25,461.56,342.12Z"/><path class="cls-3" d="M304,399.71c9.56-12.64,21.54-22.69,34.2-32l3-1.54c.32,1.53-.58,3.25.67,4.65,1.17-.41,2.24-1.11,3.32-1.12,12.47-.09,25-.54,37.4.27a17,17,0,0,0,7.66-1.38q-3.33,13.13-6.64,26.25c-1.57-1.81-3.69-1.21-5.62-1.21-18.29,0-36.57,0-54.86-.05-3.16,0-6.23,0-8.88,2-.13-.72-.08-1.58-1.19-1.52a.47.47,0,0,0-.32.31c-.06,1.11.8,1.07,1.52,1.2-.66,3.69,4.23,4.46,4.14,7.84l-.29.3C313.83,400.89,310.48,394.73,304,399.71Zm10.69-8.4a1.36,1.36,0,0,0-.13.42s.23.08.35.13a1.33,1.33,0,0,0,.12-.42C315,391.39,314.79,391.35,314.67,391.31Z"/><path class="cls-3" d="M708.29,449.51l1,1.11.87,1c4.86,5.52,7.77,12.08,10.07,19-1.1.94-1.94,2.2-3.74,2-8-.9-16,1.49-24.48.11a69.41,69.41,0,0,0-17.68-1.11c-5.92.4-9.07-.15-15.39,0-3,.09-5.36-1.33-7.88-2.47-.33-.15-1.58-3.64-1.93-5.47-.09-.43-.59-.77-.89-1.16a25.45,25.45,0,0,1,2.11-7.93l.83-1c.05-.32.1-.65.16-1,1.31-.11,2-.7,1.72-2.13l1.1-1.14a47.5,47.5,0,0,1,8.57.78c2.67.5,6.72,1.5,7.66,0,.22-.34.21-.78.73-1.27,1.24-1.16,2.59-1.39,3.68.45.67,1.14,1.82,1.27,3.09,1,7.32-1.71,14.65-.1,22.48-.33Zm-23,18.06.38.21-.39-.2-.38-.23Z"/><path class="cls-4" d="M219.29,484.81c-2.3,4.56-6.46,7.42-10,10.85-11.24,3-22.75,3-34.2,2.39-15.62-.85-31.21-2.28-46.81-3.46-.06-3.37-.2-6.75,1-10,3.66.08,4.88-4.26,9.08-4.19,23.9.35,47.81.17,71.71.18,1.62,0,3.63-.51,4.59,1.17,1.39,2.44,3.16.77,4.77.83Zm-88.63,3c.28.12.61.39.81.31s.26-.5.38-.78c-.28-.12-.61-.39-.81-.32S130.78,487.57,130.66,487.85Z"/><path class="cls-3" d="M215.27,436.57c-.44-2.19-1.4-2.34-3.07-1-2.39,2-5,2.38-7.77.62-1.49-.94-3.23-.63-4.88-.63q-26.24,0-52.47,0c-1.47,0-3.56-.3-4.32.52-4.08,4.33-6.57.83-9.38-1.52.07-.49.13-1,.2-1.47l.26-.27a2.16,2.16,0,0,0,1.62-2.1l2.17-3,.78-1,0,0a1.89,1.89,0,0,0,1.73-2.26c.14-.22.29-.42.44-.63a13.73,13.73,0,0,0,6.81-9.06l0,0,.45.07.44-.13,2.93-1.14c5,.35,10.14,1.21,15.15.88,3.32-.22,7.69,1.57,9.9-2.93l4.05,3.64c.6.53,1.77,1.5,2,1,2-4.9,4-.26,4.86.37a97.93,97.93,0,0,0,25,13.93,8.08,8.08,0,0,1,4,2.67c.43,1.69,1.78,1.48,3,1.46l.07-.14c-.33,2.68-2.4,2.12-4.12,2.2Z"/><path class="cls-2" d="M183,377.65c.09-1.43,4.29,2.84,2.29-1.71-.89-2,1.18-1.08,2-1.37v0a3.19,3.19,0,0,0,3,1.42c31.14-1,62.28-.11,93.41-.52,3.58-.05,6.13.75,7.6,4.09-2.71,2-3.82,5.5-6.76,7.28a2.83,2.83,0,0,0-4-1c-3.13,2.52-6.64,1.65-10,1.66-22.61.07-45.23,0-67.84.06-2.57,0-5.55-.57-6.47,3a5.54,5.54,0,0,1-4.05-2.12C189.22,384.82,185.39,381.85,183,377.65Z"/><path class="cls-5" d="M620.26,474.56a26.22,26.22,0,0,0,2.11,10.3l-23.09,2.78-.58-.47-.21.74,0-.09a121.24,121.24,0,0,0-19.34,0c-5.68.3-11.59-.69-17.58-.43a303.16,303.16,0,0,1-43.35-.82l4-5.95v-1h0c1.14.08,2.28.16,3-1h0l1-1v0l4-3.07c3.37,2.41,6.76-.1,10.14-.07,22.62.23,45.23,0,67.85.19,4.06,0,7.41-.14,8-5.1,0,.33,0,.65,0,1v7C616.86,475.24,618.15,474.4,620.26,474.56Z"/><path class="cls-2" d="M370.29,486.32c-9.05-1.25-18.1-2.48-27.14-3.77-17.26-2.45-34.11.19-50.88,4-2.2-2.37-4.62-2.7-7.42-1-4.54,2.77-9.59.67-10.63-4.32a19.21,19.21,0,0,1,3.07-1.55c16.6-5.08,33.46-8.85,50.8-10.3.74.36,1.5,1.06,2.23,1,13-.55,26,2.55,38.93-.26,2.37-.51,5.38-2.08,5.44,2.74,0,1.81,2.15,1.67,3.63,1.75l-1.11,2.91a2.92,2.92,0,0,0-2.93,3.09l0,0-1,1,0,0-1,1,0,0-1,1.2C370.94,484.62,370.61,485.47,370.29,486.32Z"/><path class="cls-6" d="M719.2,404.52c.85-4.77,4.16-8.84,4-13.91l.24-2c1.76-1.7,1-4,1.45-6,1-4.33.55-8.7.32-13.06.16-1.2.31-2.41-.67-3.38,0-.91,0-1.81,0-2.72-.35-6.46-10.94-16.4-19.17-18l0,.06c0-.4.07-.8.1-1.21l-.87-.82c-.89-1-1.67-2.2-3.29-2l.06,0c0-1.36-.92-1.89-2-2.26L687.4,326.55c-4.91-5.08-8.8-9.42-8.29-10,.12-.14.62-.21.63-.46s-.18-.33-.58-.51c-.59-.37-1.19-.73-1.79-1.09-1.42-2.95-3.34-5.68-4.09-8.94-.87-2.11-2.18-4.16-2.52-6.36-.52-3.38-2.68-4.22-5.44-4.57-13.8-1.75-27.51-2.57-40.45,4.16-1.17.61-2.44,1.24-3.57-.14a50.12,50.12,0,0,1,27.09-8.6c9.3-.14,18.61.49,27.91.78-.42,1.87.28,3.57.9,5.25a85.79,85.79,0,0,0,14,24.74c.55.62,1.1,1.25,1.66,1.87,5.71,8.05,13,14.55,20.64,20.65,4.57,3.65,8.79,8,14.76,9.54,1,12.73,1.69,25.45-2,37.92C724.82,395.8,723.31,400.86,719.2,404.52Z"/><path class="cls-1" d="M691.2,320.82a85.79,85.79,0,0,1-14-24.74c-.62-1.68-1.32-3.38-.9-5.25,4.87-.68,9.51.28,14.07,1.88l3.26,2a3.46,3.46,0,0,0,.66,4.06c2.91,3,5,6.84,8.41,9.39-1,2.76,1.92,3.54,2.68,5.41,3.13,3.88,6.14,7.9,10.81,10.15.23,2.23,1.93,3.42,3.51,4.54,2,1.4,3.83,2.8,4.53,5.24,2.58,6.22,3.58,12.77,4,19.43-6-1.55-10.19-5.89-14.76-9.54-7.63-6.1-14.93-12.6-20.64-20.65C692.3,322.07,691.75,321.44,691.2,320.82Z"/><path class="cls-4" d="M494.26,497.91c.63,1,5.43,3.83,6.65,3.47,1.52-.46,1.46,1,2.26,1.33-5.25,1.77-10.69,1.73-16.1,1.52-25.23-1-50.11-4.74-74.82-9.78l-2-1.22-1-1.7a3.11,3.11,0,0,0-3.07-1l0,0c-.05-1-.09-2-.13-3,4.73-.5,9.12,1.86,13.67,1.91,21.08.25,42.16.09,63.24.15,2.36,0,3.38-.9,3.25-3.21,1,1.45,2,3,3.16,4.34,1.45,1.75,1.68,4.77,4.83,4.83l0,0C494.27,496.32,494.27,497.12,494.26,497.91Z"/><path class="cls-4" d="M518.27,486.55a303.16,303.16,0,0,0,43.35.82c6-.26,11.9.73,17.58.43a121.24,121.24,0,0,1,19.34,0c-22.19,7.27-44.42,14.24-68,15.8-4.88.33-8-.78-9.41-5.51-.62-2-2.87-3.2-3-5.52.58-2.32-1.3-3.95-1.69-6Z"/><path class="cls-7" d="M673.28,305.56c.75,3.26,2.67,6,4.09,8.94a4.67,4.67,0,0,0-3.69,2.26c-2.54,3.85-7.48,3.15-10.23,3-3.07-.18-6.57-1.1-9.93-1.13-12.09-.09-24.18-.2-36.26.08-3.1.07-6.94-2-9.34,1.92l-1.15-2c-.47-.89-.93-1.79-1.39-2.69,2.08-1.37,1.21-3.58,1.32-5.39.2-3.12,1.18-5.39,4.48-6.09,2-.43,1.82,2.42,4.31,2.37,16.65-.37,33.3-.27,50-.24A25.89,25.89,0,0,0,673.28,305.56Zm-61.47,1.25c-.62,2.15-.89,3.47.05,4.9C612.51,310.31,612.35,309.06,611.81,306.81Z"/><path class="cls-8" d="M520.2,337.72c-2-3.83,1.26-7,1.47-10.54.12-1.86,1-3.72.8-5.71.36-.53,1-1,1.06-1.61,1-7.48,6.08-9.79,12.77-10,1.21,1,2.25.94,3.08-.48l1.94-.36c-.18.73,1.67.28,1.9.79s-.74,1.25-.74,1.25h0c8.77-2,9.81-2.19,9.81-2.19,5.12-.83,4.63-.77,18.73.63,8.27.82,8.33.57,8.27,9.06-2.24,2.07,0,5.19-2,7.87-1.24-3.34-3.93-2.86-6.49-2.86-9.27,0-18.67.91-27.77-.33a15.34,15.34,0,0,0-13.22,3.88c-2.86,2.44-5.6,5-8.4,7.53C521,335.67,520.6,336.7,520.2,337.72Z"/><path class="cls-1" d="M129.26,484.59c-1.17,3.25-1,6.63-1,10-5.38,4-11,7.26-18.09,6.86q.27-4,.56-7.92c-1.28-5.79,1-12-2-17.57l-.2-1.13c.5-.54.42-1-.18-1.38-.76-6-4.25-11.08-6.17-16.69,6.9-.88,13.34.92,19.49,3.75,2.73,1.26,3,.62,2.38-1.88h1.14a37.83,37.83,0,0,0,.48,3.85C127.33,469.78,129.1,477.05,129.26,484.59Z"/><path class="cls-6" d="M456.28,337.6l-1.94.3-1.22-.48c16-9.3,32.22-18,49.6-24.38a18.12,18.12,0,0,1,3.41-.56,200.17,200.17,0,0,0-11.45,63.34,183.61,183.61,0,0,0,2.16,33.26,18.55,18.55,0,0,1,.34,6.43,71.66,71.66,0,0,1-6.79-25.27,48.42,48.42,0,0,0-.91-4.84q-.24-7.86-.47-15.74c-.07-10.4.52-20.78,1.37-31.14,2.9-5.29,3.2-11.25,4.91-18A300.71,300.71,0,0,0,456.28,337.6Z"/><path class="cls-6" d="M216.3,433.06a8.08,8.08,0,0,0-4-2.67,97.93,97.93,0,0,1-25-13.93c-.81-.63-2.88-5.27-4.86-.37-.22.53-1.39-.44-2-1l-4.05-3.64c-3.22-3.33-6.42-6.68-9.67-10-1-1-2-2.64-3.68-1.06-4.26,4-8.78,7.86-11.7,13.09l-2.93,1.14c-.09-.47-.17-.93-.26-1.4l.79-.87c1.11-.12,1.38-.88,1.39-1.83a93.4,93.4,0,0,1,18.89-20.64c20,26.81,47.83,40.61,79.65,47.68,6.1,1.35,6.09,1.14,3.51,6.87a122.91,122.91,0,0,0-7.13,19c-.78,0-1.55,0-1.85-.9,1.37-1.09.63-2.65.87-4,1-1.11,1.14-2.56,1.42-3.94,1.53-4,3-8,4.61-12,.56-1.38.46-2.26-1.17-2.39-10.12-.79-19.66-4.45-29.66-5.85l-.07.14C218.8,433,217.36,433.46,216.3,433.06Z"/><path class="cls-8" d="M700.33,449.93c-7.83.23-15.16-1.38-22.48.33-1.27.3-2.42.17-3.09-1-1.09-1.84-2.44-1.61-3.68-.45-.52.49-.51.93-.73,1.27-.94,1.47-5,.46-7.67,0a46.52,46.52,0,0,0-8.56-.77c1.61-6.72,2.27-7.18,7.57-5.38-2.23-5.59,1.43-11.73,6.45-10.09,3.84,1.25,7.38.18,11,.74,2.77.43,5.91.19,8.2,1.47s3.91.88,5.81-.19c.84,0,1.76,1.11,2.52-.18,3.07,3,6.39,5.81,8.82,9.42-.06.32-1,.33-.31.88a6.29,6.29,0,0,0,.58-.61,8.33,8.33,0,0,1,3.54,4.14Z"/><path class="cls-6" d="M579.29,318.54c.06-8.48,0-8.23-8.27-9.05-14.58-1.45-14-1.54-18.73-.63-4.42.86-9.6,2.74-9.81,2.19-.1-.25.92-.86.74-1.25s-2.08-.06-1.9-.79c7.12-2.63,14.66-2.38,22-3a89,89,0,0,1,23.89.82c-2.59,31.63,3.67,61.31,19.68,88.82a6.68,6.68,0,0,1,.4,1.89c-2.71.65-2.08-2.83-4-3.2-4.19-6.32-8.44-12.6-11.24-19.72l-5.94-16c-2.21-8.66-4.88-17.21-5.84-26.15C580.16,327.82,580.73,323.11,579.29,318.54Z"/><path class="cls-6" d="M284.53,386.86c2.94-1.78,4.05-5.28,6.76-7.28a171.23,171.23,0,0,1,18.17-15.76c-18.94-2.28-36.28-5.15-52.2-13.23,0-.49-.09-1-.13-1.47,7.43,2.18,14.83,4.5,22.3,6.53,15.7,4.24,31.81,4.29,47.91,4.4-7.09,5.15-14.63,9.64-21.42,15.24a178.59,178.59,0,0,0-37.76,43.8c-.71-1.57.55-2.71.87-4.06,1.3-5.47,5.44-9.75,6.4-15.35l-.05,0,1-.82Z"/><path class="cls-2" d="M110.76,493.53q-.29,4-.56,7.92l-16.89,2.23c-4.51-1.16-9.44-3.58-13.55-1a6.55,6.55,0,0,1-6.25.69c-4.4-1.44-13.52-1.46-18-1.09a53.73,53.73,0,0,0-8.16,1.33,9.77,9.77,0,0,1,.77-5.23c2-4.42,7.7-7,14.21-6.48,2-.58,3.5-2,5-3.37,19.37-3,26.71-2.1,29.58-.48.65.36,3.92,2.37,5.56,1.2a2.51,2.51,0,0,0,.88-1.56l2,.23A8.64,8.64,0,0,0,110.76,493.53Z"/><path class="cls-6" d="M516.5,486.6c.39,2,2.27,3.67,1.69,6l-2-.33c-.37-5.13-3.7-9.09-5.46-13.67-3.63-9.44-7.2-18.88-9.89-28.66-.77-2.82.18-3.52,2.48-3.95,23.63-4.46,47.24-9,70.89-13.37a271.52,271.52,0,0,1,37.53-4.39,116.58,116.58,0,0,1,15.42.42c-.73.3-1.48.89-2.2.87-14.5-.5-28.78,1.3-43,4a52.18,52.18,0,0,0-16.75,6c-2.79,1.06-3.85,4.49-7,5.08.36-1.32.73-2.63,1.09-3.95l.39-.51-.52.38c-6.13-.68-11.71,2-17.55,3-1.87.32-4.36.58-5.44,2.89-7.29-1.42-14,1.74-20.85,3-10.76,2-10.7,2.39-6.51,13.16C510.44,470.92,513.62,478.71,516.5,486.6Z"/><path class="cls-8" d="M673.28,305.56a25.89,25.89,0,0,1-7.84,1.05c-16.65,0-33.3-.13-50,.24-2.49,0-2.28-2.8-4.31-2.37a4.43,4.43,0,0,1,3-2c.91,0,1.7-.13,2.06-1.11a.36.36,0,0,1,.46-.2,1.17,1.17,0,0,0,1.44-.88l3.15-1.67c1.13,1.38,2.4.75,3.57.14,12.94-6.73,26.65-5.91,40.45-4.16,2.76.35,4.92,1.19,5.44,4.57C671.1,301.4,672.41,303.45,673.28,305.56Z"/><path class="cls-6" d="M383.63,394.82q3.31-13.12,6.64-26.25c1.36-3,2.67-6.07,4.09-9.06,1.31-2.78,1.28-3.83-2.45-3.09-11.05,2.17-22.19,3.75-33.51,3.21,6.31-1.11,12.61-2.27,18.93-3.32,11-1.83,21.36-5.75,32.1-8.41-11.17,19.73-19.23,40.56-22.61,63.08a141.68,141.68,0,0,0-1.71,22.25c-3.89-2.15-.39-6-2-8.68.13-1.8.52-3.63-.64-5.27,0-1.58,0-3.17-.05-4.75Z"/><path class="cls-4" d="M662.28,491.59c2.35,0,3.15-2.36,5-3.17L665.57,493c1.81.31,3-2.61,4.86-.33,3.38,4.1,8.35,3.55,12.45,2.38,6.89-2,13.65-1.63,20.53-.9,2.1.22,3.54-.42,3.89-2.69,2.23.14,2.45,3.45,5,3.14a1.36,1.36,0,0,0,.17.39c.05.06.2,0,.3.06l-.44-.47c-.35-1-.71-1.93-1.06-2.9,2.06-2,3.28-.82,3.95,1.23.73,2.23,2.34,3.55,4.16,4.75-3.12,4.08-2.71,10-7,13.49-15-4.77-30-9.51-45.06-14.33a64.6,64.6,0,0,1-6-2.56l.9-1.62v-1ZM667,495c0,.11,0,.26.07.31a.91.91,0,0,0,.37.08l-.1-.53Z"/><path class="cls-5" d="M781.55,522.38c2.86,1.25,4.6,3.23,4.15,6.54a6.91,6.91,0,0,1-5.17,6,17.53,17.53,0,0,0-10.13,7.38c-2.22,3.45-6,2.92-9.42,1.33-8.31-3.91-15.11-10.13-22.79-15,.76-1.36,2.75-1.59,3.11-3.32l1,.27h0a3.17,3.17,0,0,0,3,2l1,1c.12,2,1.53,2,3,2,.09.42.18.83.28,1.25l.53-.32-.77-1-1-2c2.63-2.06,5.7-2.11,8.84-2,3.3.1,6.62-.11,9.92.07,2.22.12,5.31-1.25,6.46.81s-2.59,3-3.09,5.08c-.08.32-.14.65-.2,1l-1,1c-.73.17-1.57.22-1.46,1.31a.45.45,0,0,0,.32.31c1.09.12,1.14-.73,1.3-1.46l1-1A27.38,27.38,0,0,0,781.55,522.38Z"/><path class="cls-7" d="M358.4,359.63c11.32.54,22.46-1,33.51-3.21,3.73-.74,3.76.31,2.45,3.09-1.42,3-2.73,6-4.09,9.06a17,17,0,0,1-7.66,1.38c-12.42-.81-24.93-.36-37.4-.27-1.08,0-2.15.71-3.32,1.12-1.25-1.4-.35-3.12-.67-4.65C346.18,362,351.46,358.61,358.4,359.63Z"/><path class="cls-5" d="M716.19,323.67c-4.67-2.25-7.68-6.27-10.81-10.15,1.3,0,1.87-.71,1.89-1.94h0c2,.45,3.47,2.14,5.91,2.09,9.82-.24,19.66-.09,29.48-.11,1.31,0,2.72.25,3.64-1.07,4.2.91,5.53-1.05,5-4.93l2.83-1a27.39,27.39,0,0,1,2,10.11c-1.82,6.57-6.52,7.38-12.55,7.08C734.42,323.25,725.3,323.64,716.19,323.67Z"/><path class="cls-1" d="M712.39,511.14c4.24-3.51,3.83-9.41,6.94-13.49a2.25,2.25,0,0,0,2-1c2.18-.67,4.23-1.51,5-4,2.88.39,5.19-1.46,7.84-2,3.49,3.06,4.34,7.35,5.35,11.56.63,3.67-3.63,3.75-4.62,6.24-2.77,2.48-5,5.3-5.6,9.11-1.43,1.57-1.64,3.52-1.76,5.51C721.29,520.59,717.35,515.22,712.39,511.14Z"/><path class="cls-4" d="M55.38,519.74a59.53,59.53,0,0,1-15.73,14.08c-4.32,2.67-8.53,1.93-12.31-1.32A14.72,14.72,0,0,1,23,516.32c1.31-4,4.39-7.58,3-12.24,2.4.66,2.22,2.62,2.25,4.47a15.8,15.8,0,0,0-3.55,8.16c1.5,1.74,1.3-2.72,2.68-.39s3.83,2.17,6.1,2.32c-.08.63-.16,1.26-.23,1.89-.15.17-.3.34-.44.52l.54-.42a2,2,0,0,0,2-2l0,0c2.82-.13,3.65-3.15,5.93-4.09,0,2.4.4,3.15,3.16,1.83C49.2,514,52.82,515.44,55.38,519.74Z"/><path class="cls-5" d="M55.38,519.74a8.65,8.65,0,0,0-4.84-4.24,8.44,8.44,0,0,0-6.17.84,19,19,0,0,0-2.32,1.57c-2.68,1.71-7.08,3-8.32,1.58-1-1.15.06-4.12,2.14-7a28.13,28.13,0,0,1,18.4-10.82c.4.23,1,.77,1.2.65,6.24-3.06,12.08-.86,18,1.09a6.55,6.55,0,0,0,6.25-.69c4.11-2.57,9-.15,13.55,1-11.32,2.95-22,7.63-32.84,12-1.59-.11-3.13-.13-3.14,2.11-.29.28-.59.56-.88.86S55.71,519.37,55.38,519.74Z"/><path class="cls-3" d="M54.87,496.05C41.62,501,28.8,494,25.92,492.34c2.39-3.09,6-3.41,9.39-3.71,14.58-1.28,27.35-7.63,40.15-14-.72,3.87-4.07,5.75-6.34,8.46-.5.59-.87.87-1.5,1.55a41.4,41.4,0,0,0-5.33,7.21A27.94,27.94,0,0,1,54.87,496.05Zm-15.63-3.22c-.1.07-.25.12-.28.21s.09.2.15.31l.47-.37Z"/><path class="cls-5" d="M274.22,481.2c1,5,6.09,7.09,10.63,4.32,2.8-1.71,5.22-1.38,7.42,1-18.26,5.61-35.95,13.15-54.9,16.45-1,.17-1.93.56-2.75-.34A47.75,47.75,0,0,0,244,494.2c2-2.36,3.71.69,5.67-1.5,1.65-1.84,3.7-5,7.17-5.11.95-.07,2,.11,2.47-1.06l-.08,0c.89.05,1.72,0,2.08-1l-.08.05c.92.09,1.76,0,2.06-1.06l-.06,0C267.19,484.43,270.41,481.83,274.22,481.2Z"/><path class="cls-7" d="M257.13,349.12c0,.49.09,1,.13,1.47-2.55,1.14-2.88,2.58-.47,4h-31.5c-.49,0-1.18-.15-1.46.12-5.06,4.76-4.88.22-5.77-3-.22-.79-.74.69-1.31.8-.15-.68-.31-1.37-.46-2.06-.11-1.33.48-2.87-1.1-3.78h0c.19-1.68.28-1.29,1.78-1.62,2.34-.51,6.14,1.19,6.28-3.43h0c4.2.33,8.33,1.2,12.59,1.12,2,0,2.18-1.15,2.75-2.32,1.84.2,3.14,1.46,4.64,2.32a2.66,2.66,0,0,0,3.19,1.65h0a12.59,12.59,0,0,0,9,4.09Zm-16.27-4.82-.84-.36c-.11.28-.39.61-.31.81s.51.26.79.38Z"/><path class="cls-8" d="M75.46,474.67a192.74,192.74,0,0,0,26.74-17.91c1.92,5.61,5.41,10.65,6.17,16.69l.18,1.38c.06.37.13.75.19,1.13-2.08-.66-2.28-2.73-3-4.53-2.06,8.18-7.79.25-11.11,3.09,3.5,4.48,7.73,8.41,10.61,13.39l-2-.23c-4.94-7.36-11.68-11.77-20.6-12.65-1.12-.11-2.29,0-1.57,1.4.41.78.3,1.28.21,1.39S79.94,477.63,75.46,474.67Z"/><path class="cls-4" d="M716.19,323.67c9.11,0,18.23-.42,27.32,0,6,.3,10.73-.51,12.55-7.08,1.19,4.17-1.13,7.15-3.83,9.58a54.11,54.11,0,0,0-12,14.78c-1.2,2.27-2.27,1.08-3.42.29q-5.1-3.51-10.13-7.13c-.75-.53-1.27-1.65-2.43-.7-.7-2.44-2.56-3.84-4.53-5.24C718.12,327.09,716.42,325.9,716.19,323.67Z"/><path class="cls-3" d="M693.63,294.66l-3.26-2c1-1.18-.69-2.26-.13-3.42,1.91-1.89,4.8-1.3,6.89-2.72,4.61,2.29,7.5.33,9.48-3.85,4.35,1.4,5.62-1,5.48-5.36l2.22,3.19q1.59-4.26,3.32-4.32,3.21-.11,6.89,14.17c2.16.54,2.58,2.68,3.8,4.1-.19,1.68-1.13,2.37-2.69,1.72-2.38-1-4.84-.47-7.26-.63,0,.31-.19,2.93-1.42,3.36s-3.27-1.21-4.6-4.44c1.83,5.17.64,10.25-2.59,12.54-2.69,1.92-5.92,1.28-7.06,1.06-6.22-1.22-11.32-7.76-10.07-11.79A4.33,4.33,0,0,1,693.63,294.66Z"/><path class="cls-8" d="M714.32,280.55l-2.23-3.19c.14,4.41-1.13,6.76-5.49,5.36-.55-1.38.22-3.14-1.21-4.27l-1-1a6.51,6.51,0,0,0-5.11-1.89c.94-1.86,3.64,0,4.54-2-.75-1.57-3.58-.38-3.52-2.82,9.47-11.57,21-7.86,31.23,1.53l-.29.34-3.88-1.14-.57-.36.37.56c0,.47,0,.95,0,1.43-5.41,2.27-5.65,3.67-1.26,7.61.86.76,1.79,1.44,2.62,2.23s1.75,1.44.91,2.44c-1.39,1.64-1.92-.39-2.58-.95-2.43-2.05-3.95-5.46-7.95-5-.68-.29-.71-.87-.67-1.49,2.76-2,3.16-5.88,6.89-7.29a33.44,33.44,0,0,0-3.92-2.4c-1.9-.79-4-2.51-6-.8s-.51,4,.31,5.92c.56,1.36,1.15,2.71,1.73,4.06ZM707,275.71c-.14-.27-.21-.66-.41-.74s-.53.13-.8.22c.17.33.34.66.52,1Z"/><path class="cls-5" d="M721.31,496.61a2.25,2.25,0,0,1-2,1c-1.81-1.2-3.42-2.52-4.15-4.75-.67-2-1.89-3.2-3.95-1.23-2.68-1.21-3.63-4.79-7-5.1h0a1.8,1.8,0,0,0-2-2h0l-1-3c3.87.3,7.73.64,11.61.9,2.3.16,5.34.79,6.5-1.27,1.89-3.33,2.62-1,3.53.66l1.36-3.24c3.29,4,5.94,8.55,9.89,12-2.65.52-5,2.37-7.84,2C722.19,491.5,721.76,491.85,721.31,496.61ZM725,483c-.12.28-.39.61-.31.81s.5.26.78.38c.12-.27.39-.61.31-.81S725.28,483.09,725,483Z"/><path class="cls-5" d="M409.33,491.53l1,1.7-1.76.29c-12.85-1.85-25.57-4.43-38.24-7.2.32-.85.65-1.7,1-2.55l1-1.2,0,0,1-1,0,0,1-1,0,0,1.91-.1c4.2,2.81,9-.05,13.28,1.38,3.69,1.25,4-.55,3.81-3.29l1.91.06,0-.06,0,1.06c.62,4.07,4.47,4.27,7.09,5.93l0,0,1,1,0,0q1.51,2,3,4l0,0C407.09,491.48,407.86,492.61,409.33,491.53Z"/><path class="cls-2" d="M781.55,522.38a27.38,27.38,0,0,1-11.2,11.29l-.17-.17c.07-.32.13-.65.21-1,.5-2.11,4.21-3.06,3.09-5.08s-4.24-.69-6.46-.81c-3.3-.18-6.62,0-9.92-.07-3.14-.09-6.21,0-8.84,2h0l-1-1h0c-.16-.9.4-2.2-1-2.48-.77-.16-.9.74-1,1.39l-3.06-.9h0c0-.83,0-1.63-1-2v0c0-1,0-2-.07-2.93,2.64-.57,4.88-3.14,7.9-1.76,8.34,3.78,16.94.63,25.73,1.93-.75-2.17-2.57-2.4-2.61-3.95,1.64,0,2.75,1.11,4,2,.25,1.47,1.27,1.76,2.54,1.68l.34-.06.16.3c.14,1.36,1,1.8,2.23,1.72Z"/><path class="cls-5" d="M662.28,492.63l-.9,1.62a45.08,45.08,0,0,1-12.46-6.88c-1.78-1.41-3.16-2.89-2.82-5.35q0-3.27.07-6.54v0c5.35,1.27,10.35,3.52,16.18,3.47,2.65,0,6.77-2.63,9,1.63q10.77.43,11,2.39.4,2.77-20.09,8.6v1Zm-10.75-11.41c.12-.29.39-.63.31-.83s-.52-.27-.8-.39c-.12.28-.39.63-.31.83S651.25,481.09,651.53,481.22Z"/><path class="cls-2" d="M25.92,492.34c4,2.16,8.52,1.59,12.74,2s8.83,1.15,13.28.31a2.48,2.48,0,0,1,2.93,1.4c.46,1.1-.45,1.87-1.16,2.54-1.44,1.36-3,2.66-4.43,4a2,2,0,0,0-2,1h0c-3.72-1.7-7.69-.38-11.53-.93s-8.26-1-6.57,5.49c.12.48-.45.77-1,.39,0-1.85.15-3.81-2.25-4.47C23.57,500.17,21.89,496.27,25.92,492.34Z"/><path class="cls-2" d="M724.25,478.64l-1.36,3.24c-.91-1.66-1.64-4-3.53-.66-1.16,2.06-4.2,1.43-6.5,1.27-3.88-.26-7.74-.6-11.61-.9h0a1.82,1.82,0,0,0-2-2c-2.4-2.09-5.34-3.63-7.29-6.9,8.5,1.38,16.47-1,24.48-.11,1.8.21,2.64-1.05,3.74-2Z"/><path class="cls-3" d="M772.25,516.83c0,1.55,1.86,1.78,2.61,3.95-8.79-1.3-17.39,1.85-25.73-1.93-3-1.38-5.26,1.19-7.9,1.76h0a2,2,0,0,0-2-1h-2l0,0c.22-2.54-3-3.3-3.25-5.75,8.63,1.28,17,.74,25.44.46,2-.07,2.62-.95,2.79-2.63C765.57,513.37,769.29,514.36,772.25,516.83Zm-7.31-1.89c-.78-.05-1.28.15-1.18.73.14.81.9.9,1.55.83.35,0,.68-.37,1-.56Z"/><path class="cls-8" d="M238.61,340.38c-.57,1.17-.71,2.28-2.75,2.32-4.26.08-8.39-.79-12.59-1.12-.25-.35.46-1.38-.74-1.06l.74,1.06c-.14,4.62-3.94,2.92-6.28,3.43-1.5.33-1.59-.06-1.78,1.62-2.06-4.86-.4-9.35,1.33-13.86,1-2.47,2.61-2.1,4.45-1.4A76.73,76.73,0,0,1,238.61,340.38Zm-18.3,1,.64.23a3.42,3.42,0,0,0,.27-1.28c-.11-.56.58-1.65-.66-1.49A11,11,0,0,0,220.31,341.4Z"/><path class="cls-7" d="M762.24,511.64c-.17,1.68-.75,2.56-2.79,2.63-8.41.28-16.81.82-25.44-.46.26,2.45,3.47,3.21,3.25,5.75-2.85.08-4.35-5.2-8-2,.61-3.81,2.83-6.63,5.6-9.11l3.4.12.43.23-.42-.24c1.34-1.27,2.62-2.46,4.71-1.32,4.6,2.49,9.62,2,14.58,1.88l0,.32.05-.32c.16,1.41,1.14,1.34,2.16,1.2C760.72,510.49,761.73,510.59,762.24,511.64Z"/><path class="cls-3" d="M729.27,517.57c3.64-3.21,5.14,2.07,8,2l0,0a4.16,4.16,0,0,0,4,3.95v0c0,.59,0,1.17,0,1.76-.36,1.73-2.35,2-3.11,3.32l-10.68-5.57C727.63,521.09,727.84,519.14,729.27,517.57Z"/><path class="cls-8" d="M738.27,508.58l-3.4-.12c1-2.49,5.25-2.57,4.62-6.24.78.45,1,2.07,2.23,1.45,7.12-3.43,11,2.24,15.85,5.47-5,.11-10,.6-14.58-1.89-2.09-1.14-3.37.05-4.71,1.32Z"/><path class="cls-3" d="M754.1,306.52l-2.83,1c-2.43-9.32-7.89-17.07-13-25l2.74-.93a45.68,45.68,0,0,1,9.18,15c-1.53,2.13.53,3.11,1.44,4.47C753.56,302.39,753.72,304.5,754.1,306.52Z"/><path class="cls-7" d="M697.13,286.57c-2.09,1.42-5,.83-6.89,2.72a2.25,2.25,0,0,1-.3-.39c-3.81-7.85-3.81-7.85,3.35-12.37,2.15,2.35-.57,6.33,2.77,8.28C696.42,285.39,696.77,286,697.13,286.57Z"/><path class="cls-8" d="M741,281.64l-2.74.93c-1.88-2.48-6-2.3-7-5.89,4.18-1.4-1.27-2.71,0-4.08l.29-.34A25.32,25.32,0,0,1,741,281.64Z"/><path class="cls-8" d="M696.06,284.81c-3.34-1.95-.62-5.93-2.77-8.28,2.34-1.93,4.24-4.4,7-5.8-.06,2.44,2.77,1.25,3.52,2.82-.9,2.05-3.6.15-4.54,2l0,0a1.85,1.85,0,0,0-2.06,1.91c-3.42,2-.19,4.57-.66,6.81C696.37,284.48,696.21,284.64,696.06,284.81Z"/><path class="cls-9" d="M147.42,414.76a13.73,13.73,0,0,1-6.81,9.06A16,16,0,0,1,147.42,414.76Z"/><path class="cls-6" d="M255.41,348.45a12.59,12.59,0,0,1-9-4.09A18.26,18.26,0,0,1,255.41,348.45Z"/><path class="cls-7" d="M453.12,337.42l1.22.48c-.1,1.42,0,3-1.94,3.27-1.07.13-1-1-1.13-1.71.06-.41.12-.82.19-1.23Z"/><path class="cls-4" d="M57.33,517.76c0-2.24,1.55-2.22,3.14-2.11C59.73,516.81,59,518,57.33,517.76Z"/><path class="cls-2" d="M646.17,475.48q0,3.27-.07,6.54c-1.18-2-.61-4.35-.9-6.53l0,.08C645.54,475.55,645.86,475.52,646.17,475.48Z"/><path class="cls-5" d="M751.61,301.1c-.91-1.36-3-2.34-1.44-4.47l1,2.25c.1.33.21.66.31,1a5.31,5.31,0,0,1,.25.8C751.78,300.8,751.66,301,751.61,301.1Z"/><path class="cls-6" d="M246.44,344.35a2.66,2.66,0,0,1-3.19-1.65C244.62,342.66,245.86,342.87,246.44,344.35Z"/><path class="cls-6" d="M539.38,309.37c-.83,1.42-1.87,1.53-3.08.48C537.26,309.24,538.23,308.77,539.38,309.37Z"/><path class="cls-9" d="M140.17,424.45a1.89,1.89,0,0,1-1.73,2.26A1.94,1.94,0,0,1,140.17,424.45Z"/><path class="cls-3" d="M408.53,493.52l1.76-.29,2,1.22A5.3,5.3,0,0,1,408.53,493.52Z"/><path class="cls-8" d="M215.19,346.62c1.58.91,1,2.45,1.1,3.78C215,349.41,215.36,347.94,215.19,346.62Z"/><path class="cls-5" d="M781.5,522.44c-1.25.08-2.09-.36-2.23-1.72A2.3,2.3,0,0,1,781.5,522.44Z"/><path class="cls-5" d="M778.77,520.48c-1.27.08-2.29-.21-2.54-1.68A3.4,3.4,0,0,1,778.77,520.48Z"/><path class="cls-9" d="M131.17,436.44a2.38,2.38,0,0,1-1.77,2.23A1.86,1.86,0,0,1,131.17,436.44Z"/><path class="cls-9" d="M135.46,430.76a2.16,2.16,0,0,1-1.62,2.1C133.85,431.75,134.18,430.89,135.46,430.76Z"/><path class="cls-8" d="M759.74,510.33c-1,.14-2,.21-2.16-1.2Z"/><path class="cls-9" d="M133.58,433.13c-.07.49-.13,1-.2,1.47l-1,.14C132.33,433.87,132.53,433.19,133.58,433.13Z"/><path class="cls-9" d="M150.26,410.57c0,.95-.28,1.71-1.39,1.83Z"/><path class="cls-6" d="M451.46,338.23c-.07.41-.13.82-.19,1.23l-1.43-.4A1.35,1.35,0,0,1,451.46,338.23Z"/><path class="cls-6" d="M616.25,301.4c-.36,1-1.15,1.15-2.06,1.11A2,2,0,0,1,616.25,301.4Z"/><path class="cls-9" d="M138.41,426.75l-.78,1A.78.78,0,0,1,138.41,426.75Z"/><polygon class="cls-3" points="129.34 439.22 129.23 439.38 129.04 439.22 129.34 439.22"/><path class="cls-6" d="M444.33,341.43a.54.54,0,0,1-.68.32C443.68,341.24,443.87,341,444.33,341.43Z"/><path class="cls-3" d="M751.51,299.88c-.1-.34-.21-.67-.31-1a4.11,4.11,0,0,1,.49.63C751.73,299.58,751.58,299.75,751.51,299.88Z"/><path class="cls-6" d="M618.15,300.32a1.17,1.17,0,0,1-1.44.88Z"/><path class="cls-6" d="M448.33,339.78a1,1,0,0,1-1.31.58Z"/><path class="cls-6" d="M718.34,405.57c-.11-.7.17-1.06.89-1.06Z"/><path class="cls-9" d="M148.08,413.27c.09.47.17.93.26,1.4l-.44.13-.45-.07Z"/><path class="cls-1" d="M713.32,414.25l.19-.22.07.19Z"/><path class="cls-4" d="M598.49,487.91l.21-.74.58.47-.35.28Z"/><path class="cls-6" d="M508.05,312.34l-.4.1-.32-.25C507.72,311.57,507.9,311.91,508.05,312.34Z"/><path class="cls-4" d="M55.35,519.75c.36-.38.73-.75,1.1-1.13C56.08,519,55.71,519.37,55.35,519.75Z"/><path class="cls-8" d="M710.12,451.62l-.87-1C709.91,450.63,710.12,451,710.12,451.62Z"/><path class="cls-5" d="M592.11,374.65c2.8,7.12,7,13.4,11.24,19.72-.14.81,0,2.13-.47,2.36-5.8,2.92-8.39,12.13-17.38,8.9-1-.36-2.29.08-3.45.16-7.82.59-15.64,1.4-23.47,1.72-7.32.29-14.66.19-22,0-6.46-.15-13,.89-19.35-.93-2.94-7.81-1.75-16-2-24,.34-.72,1.07-1.51,1-2.14-1-5.66,2.17-6,6.61-5.95,18.74.18,37.47,0,56.21.13,4,0,8.31-2.48,12.08,1C591.12,375.66,591.76,375,592.11,374.65Z"/><path class="cls-3" d="M606.77,318.65l1.15,2c2.4-4,6.24-1.85,9.34-1.92,12.08-.28,24.17-.17,36.26-.08,3.36,0,6.86.95,9.93,1.13,2.75.16,7.69.86,10.23-3a4.67,4.67,0,0,1,3.69-2.26l1.8,1.09a3.17,3.17,0,0,1-.06,1c1.53,1.83,3.87,4.63,6.76,8.14.91,1.09,1.43,1.74,1.53,1.85l11.93,12.72c-.09,1.45.51,2.26,2,2.26l-.06,0a2.93,2.93,0,0,0,3.29,2l.87.83c-.52.36-1.11.71-.1,1.2l0-.06c-.23,2-1.35,1.49-2.83,1.4-5-.3-10.06.43-14.86-.5-4.63-.91-8.4,3.1-13.2,1.25-1-.37-4.17.78-6.42.72a8.5,8.5,0,0,1-5.53,1.58,8.82,8.82,0,0,1-7.17-5.6,8.23,8.23,0,0,1-.27,1.93.57.57,0,0,1-.25.34c-.94.47-1.21-.56-1.47-1.34s.3-2-.94-1.81-1.1,1.48-1.38,2.4c-2.88-.14-4.48,3.08-7.41,2.81-1.47-.15-2.88,2.7-3.8,1.08-2-3.5-4.94-1.93-7.48-2.12-5.6-.41-11.24.23-16.87-.37-2.2-.24-4,1.55-5.27,3.38C607,340.19,607.06,329.41,606.77,318.65Z"/><path class="cls-2" d="M651,345.86c.28-.92.25-2.25,1.38-2.4s.71,1.15.94,1.81.53,1.81,1.47,1.34c.44-.22.36-1.48.52-2.27,3.34,4.17,7.12,6.94,12.7,4,2.25.06,5.45-1.09,6.42-.72,4.8,1.85,8.57-2.16,13.2-1.25,4.8.93,9.91.2,14.86.5,1.48.09,2.6.58,2.83-1.4,8.23,1.58,18.82,11.52,19.16,18-2.66.94-3.59,4.35-7.26,4.19-21.7-.89-43.48,1.53-65.14-1.81-2.68-.41-6-.1-7.94,2.84.35,3.84.07,5.92-.82,6.24q-1.94.68-7.72-9.59a4.52,4.52,0,0,0-1.49,1,4.72,4.72,0,0,0-1,1.52,9,9,0,0,1,6.61,9.09,8.71,8.71,0,0,1-5.94,7.29,9.55,9.55,0,0,1-11.35-5.11,9.82,9.82,0,0,1,0-7.56,3.16,3.16,0,0,1-2.07-.66,11.7,11.7,0,0,0-1.5-1.39c-1.72,1.85,1.51,3.74-.77,5.26-5.4-7.13-6.28-15.74-7.91-24.1,1.32-1.83,3.07-3.62,5.27-3.38,5.63.6,11.27,0,16.87.37,2.54.19,5.49-1.38,7.48,2.12.92,1.62,2.33-1.23,3.8-1.08.25-.39,2.09-3.1,5.15-3.21A5.61,5.61,0,0,1,651,345.86Z"/><path class="cls-3" d="M508.87,462.62c-4.19-10.77-4.25-11.12,6.51-13.16,6.88-1.3,13.56-4.46,20.85-3,1.17,1.69,3,1.4,4.47,1.06a16,16,0,0,1,10.57,1.08h0l4-.81,1-.15c1.5,1.57,3.44.92,5.19.93,18.62,0,37.23.07,55.84,0,2.67,0,4.85.29,5.95,3-2.43,4.35-1.9,9.35-3,14-1.6.36-1.6-1.7-2.78-2-.82,2.29.77,4.91-1.18,6.94,0-.33,0-.65,0-1,.52-3.53-1.41-4-4.4-4-23.84-.41-47.7,1.08-71.53-.75a2.36,2.36,0,0,0-2.1,1c-2.63,3-5.33,5.87-8,8.79l-4,3.07c.53-5.41,5.84-7.5,8.62-12.45-4.74,1.7-9,0-13.13.51-2.9.34-4.44-1.56-6.5-2.68C512.87,467.61,511,462.75,508.87,462.62Z"/><path class="cls-3" d="M580.33,332.47c1,8.94,3.63,17.49,5.84,26.15-2.77.87-3.5,2.27-1.34,4.63a1.55,1.55,0,0,1-.27,2.22c-.37.34-.89.56-1.17-.11-1.3-3.09-4-1.72-6.08-1.73-17.57-.11-35.15-.2-52.72,0-4.25.05-7.29-.63-8.4-5.13.32-7.14.82-14.24,4-20.82.39-1,.79-2.05,1.18-3.08,3.86.54,1.87,4.77,3.76,6.49,1.92-.69-2-3.94,2.52-3.79,14.24.47,28.52-.18,42.76.44C575.45,338,578,336.08,580.33,332.47Zm-4.44,9.38a1.33,1.33,0,0,0,.12-.42s-.22-.08-.34-.13a1.11,1.11,0,0,0-.12.42S575.77,341.81,575.89,341.85Z"/><path class="cls-2" d="M383.63,394.82l-1.23,19.71c-2.1.38-4.09,1.43-6.29,1-11.31-2-22.71-.52-34.06-1-2.82-.11-5.59.11-7.88,2.08l-3.14-.05-1.79-1.77-1-1.25h0l-3-1c-.19,1-.63,2.43-1.73,1.41-2.22-2.07-3.89-2.49-5.91.19-.41.55-1.86.34-2.84.41a60.08,60.08,0,0,1-19.61-2.08c3.09-4.16,3.52-10.14,8.81-12.78,6.49-5,9.84,1.18,14.14,4,.26,1.12.57,2.24,1.94,2.47a.68.68,0,0,0,.84-.85c-.24-1.36-1.36-1.66-2.49-1.92.09-3.38-4.8-4.15-4.14-7.84h0c2.65-2.05,5.72-2,8.88-2,18.29.06,36.57,0,54.86.05C379.94,393.61,382.06,393,383.63,394.82Z"/><path class="cls-4" d="M494.27,425.58a178.32,178.32,0,0,1-27,6.21c-19.58,2.89-19.21-.61-33.26,2.61-7,1.61-14.42.69-21.61,1.27-1.12.09-4.12.31-5.85-1.5-.9-.95-1.27-2.45-1.22-4.79.1-4.28.65-8.55,1-12.83H413c5.18,0,6.29,0,6.66,0,8.55-.11,15.94-14.42,30-21a39.46,39.46,0,0,1,13.24-3.48,222.36,222.36,0,0,1,17.59,17.07C485.73,414.81,490.3,420.35,494.27,425.58Z"/><path class="cls-5" d="M329.24,414.84l1.79,1.77,3.25,2h0v2a5.87,5.87,0,0,0,5,3l.05.05c-.05,1.35.61,2,1.95,1.95l.05.05c-.1,2.13,1.65,3.07,2.85,4.34,3,3.2,6.09,6.35,9.14,9.52l-35,5.13c.26-4-.11-6.6-4.93-3.25-2.87,2-6.29,2.51-9.9,2.29-4.63-.27-9.29-.09-13.94,0-1.14,0-3-.16-3.3.42-2.43,4.23-4.08,1.14-5.92-.43,2.43-10.48,7.74-19.7,12.74-29.05.44-.83,1.42-1.36,2.15-2a60.08,60.08,0,0,0,19.61,2.08c1-.07,2.43.14,2.84-.41,2-2.68,3.69-2.26,5.91-.19,1.1,1,1.54-.42,1.73-1.41l3,1h0Z"/><path class="cls-2" d="M491.08,395.89c-25.2-.52-34.69-1.21-37.66-1.86a9.08,9.08,0,0,0-2.64-.46c-2.83,0-5.68-.18-8.49,0-10.63.79-21.47-2-31.9,1.92.33-1.64.66-3.29,1-4.93a2.09,2.09,0,0,0,.86-2.08c1.39-8.22,5-15.6,8.71-22.95a34.74,34.74,0,0,0,9.32,1.06c16.91.26,33.83-.71,50.73.47.15,0,1.08.16,2.36.3,2.23.26,4.16.4,5.68.48a187.59,187.59,0,0,0,1.08,20.55Q490.53,392.26,491.08,395.89Z"/><path class="cls-6" d="M274.22,481.2c-3.81.63-7,3.23-11,3.36,4-3.71,9.26-4.94,14.14-6.68,26.9-9.61,54.88-14.26,83.16-17.31,29.07-3.15,58.17-6,87.23-9.22,8.24-.91,16.4-2.6,24.56-4.15,2.14-.4,3.33-.47,4,2,4.07,16.19,10.75,31.39,18,46.33-3.15-.06-3.38-3.08-4.83-4.83-1.14-1.38-2.12-2.89-3.16-4.34a18.16,18.16,0,0,0-3.58-6.2l-2.57-6.59c-1.54-4.05-4-7.72-4.92-12a9.32,9.32,0,0,1-.72-1.85c-.79-4.66-2.54-6.62-8.06-5.39-11.91,2.65-24.07,4.05-36.23,5.29-2.05,0-4.12-.12-6,.88l-1.93,0-5,.1c-1.1-.08-2.24-.29-3.05.78l-20.94,1.41c-4.59-.53-9.09-.63-12.9,2.64l-.08,0-1-.89c-12.16-.65-24.13,1.62-36.2,2.4-5,.33-10.28.2-15.07,2.4-17.34,1.45-34.2,5.22-50.8,10.3A19.21,19.21,0,0,0,274.22,481.2Z"/><path class="cls-5" d="M284.53,386.86l-8.11,12-.79-1.4c-.09.74-.17,1.48-.25,2.22l.05,0c-3.69-.72-4.73,1-3.76,5-1.51-3.45-4-3.06-6.46-3.06q-18.87,0-37.74,0a15.68,15.68,0,0,1-5.63-1.12c-3.3-1.24-7.46-2.79-9.61,2.27a40.59,40.59,0,0,1-16-12.07c.92-3.62,3.9-3,6.47-3,22.61,0,45.23,0,67.84-.06,3.38,0,6.89.86,10-1.66A2.83,2.83,0,0,1,284.53,386.86Z"/><path class="cls-4" d="M517.25,406.6c6.37,1.82,12.89.78,19.35.93,7.32.17,14.66.27,22,0,7.83-.32,15.65-1.13,23.47-1.72,1.16-.08,2.45-.52,3.45-.16,9,3.23,11.58-6,17.38-8.9.44-.23.33-1.55.47-2.36,1.89.37,1.26,3.85,4,3.2l0,0c-.41.66-.15,1.56.35,1.58.71,0,.63-.9.62-1.52,2.33,1.9,2.35,5.23,4.92,7.22,2.05,1.59.29,2.6-1.72,2.93q-14.3,2.33-28.55,4.81c-7.79,1.35-15.53,3-23.35,4.06s-15.26,2.78-22.77,4.39c-4.44,1-9,.91-13.4,2.3-3.06,1-5.22-.09-5.11-3.88C518.4,415.12,516.64,411,517.25,406.6Z"/><path class="cls-5" d="M329.4,416.92a72.81,72.81,0,0,1,9.46-2.33c14.22-2.51,30.43-1,35.16.35a12.69,12.69,0,0,0,5,.46,12.22,12.22,0,0,0,3.39-.87c0,1.58,0,3.17.05,4.75-.08,1.79-.75,3.66.64,5.27,1.63,2.67-1.87,6.53,2,8.68.17,2.52-1.72,3.18-3.5,3.19-8.53.09-16.82,2.74-25.39,2.15a3.91,3.91,0,0,1-1.37,1C347.63,442.67,332.12,420.81,329.4,416.92Z"/><path class="cls-5" d="M410.39,395.52c10.43-3.95,21.27-1.13,31.9-1.92,2.81-.21,5.66,0,8.49,0,1.49,0,2.88-.12,3.61,1.83s.6,3.07-.84,4.43c-4.12,3.86-8.15,7.83-12.21,11.75l-1.07,1h0a21.28,21.28,0,0,0-3,0c-1.54.23-3.93-1-4.41,1s2.13,2.09,3.4,3a6.5,6.5,0,0,1-3,3c-3.93-3.91-8.92-3-13.7-3-4.44,0-8.88,0-13.32,0l0-1.93c1.29-.29,3.3.65,3.62-1.36s-1.54-1.54-2.73-1.68C407.67,406.1,408.31,400.67,410.39,395.52Z"/><path class="cls-2" d="M516.19,358.54c1.11,4.5,4.15,5.18,8.4,5.13,17.57-.24,35.15-.15,52.72,0,2.06,0,4.78-1.36,6.08,1.73.28.67.8.45,1.17.11a1.55,1.55,0,0,0,.27-2.22c-2.16-2.36-1.43-3.76,1.34-4.63l5.94,16c-.35.35-1,1-1,1-3.77-3.48-8.07-1-12.08-1-18.74-.12-37.47.05-56.21-.13-4.44-.05-7.62.29-6.61,5.95.12.63-.61,1.42-1,2.14,0-6.62,0-13.24,0-19.86C515.3,361.3,514.88,359.72,516.19,358.54Z"/><path class="cls-4" d="M212.23,402.72c2.15-5.06,6.31-3.51,9.61-2.27a15.68,15.68,0,0,0,5.63,1.12q18.87,0,37.74,0c2.42,0,5-.39,6.46,3.06-1-4,.07-5.68,3.76-5-1,5.6-5.1,9.88-6.4,15.35-.32,1.35-1.58,2.49-.87,4.06-.55,1.88-3.83,3.47-6.24,2.86-8.52-2.15-17-4.21-25.44-6.92-8.17-2.63-15-7.5-22.91-10.37A2.21,2.21,0,0,1,212.23,402.72Z"/><path class="cls-5" d="M489.48,385.4a48.42,48.42,0,0,1,.91,4.84,71.66,71.66,0,0,0,6.79,25.27c.26.41.53.81.77,1.23,3.4,5.82,2.95,6.89-3.68,8.84-4.1-4.24-7.35-9.42-13-12l0,0c-.69-3.44-3.58-5-6-7-.37-2.31-2.18-2.67-4-3l0,0c-.16-2.68-2.33-4.06-4-5.41-3.15-2.48-4.31-5-1.94-8.58l0,0a5.81,5.81,0,0,0,5-5h0l2,0c4.19,5.08,11.21.83,15.85,4.88C488.45,388,487.9,386.32,489.48,385.4Z"/><path class="cls-8" d="M565.24,439.51a52.18,52.18,0,0,1,16.75-6c14.2-2.74,28.48-4.54,43-4,.72,0,1.47-.57,2.2-.87a26.51,26.51,0,0,1,10.67,1,90.88,90.88,0,0,0-10.55,12.94c-1.43-2-3.51-2-5.73-2q-25.6.07-51.2,0C568.63,440.54,566.67,441.22,565.24,439.51Z"/><path class="cls-7" d="M565.24,439.51c1.43,1.71,3.39,1,5.12,1q25.6.07,51.2,0c2.22,0,4.3,0,5.73,2l-4,9a4.64,4.64,0,0,0-1.4-2,6.4,6.4,0,0,0-4.55-1.05c-9.48.86-19.05.42-28.51,1.46-16.54,1.82-15-2.49-29-.14-4.44.75-10.26,2.13-17.51.19a31.17,31.17,0,0,1-8.84-4l12.8-4.9A91.86,91.86,0,0,1,563,439.5C563.76,439.49,564.51,439.5,565.24,439.51Z"/><path class="cls-4" d="M280.29,443.58c1.84,1.57,3.49,4.66,5.92.43.33-.58,2.16-.41,3.3-.42,4.65,0,9.31-.23,13.94,0,3.61.22,7-.29,9.9-2.29,4.82-3.35,5.19-.71,4.93,3.25a2,2,0,0,1-1.87,1.93,161.43,161.43,0,0,0-36.34,9.55c-1.6.63-3,.21-2.68-1.51C278,450.84,276.94,446.59,280.29,443.58Z"/><path class="cls-6" d="M646.17,475.48c-.31,0-.63.07-.95.09q-2.61-26.35,16.3-44.88c1.86-1.83,4-1.09,6.09-.81a162,162,0,0,1,25.53,6c-1.9,1.07-3.45,1.51-5.81.19s-5.43-1-8.2-1.47c-3.61-.56-7.15.51-11-.74-5-1.64-8.68,4.5-6.45,10.09-5.3-1.8-6-1.34-7.57,5.38-.37.37-.74.75-1.1,1.13a1.89,1.89,0,0,0-1.72,2.13c-.06.32-.11.65-.16,1l-.83,1a25.45,25.45,0,0,0-2.11,7.93c-2.66,4-1.84,8.59-2,13Z"/><path class="cls-5" d="M618.1,374.74c2.28-1.52-1-3.41.77-5.26,1,.59,1.79,2.45,3.56,2a19.3,19.3,0,0,0,1.11,7.86c-1,.63-1.36,1.38-.43,2.33s1.7.59,2.34-.39l2.81,1.25c-1.3,2.46-2.62,4.9-5.93,5C621.5,383.08,617.32,379.73,618.1,374.74Z"/><path class="cls-2" d="M616.3,470.53c2-2,.36-4.65,1.18-6.94,1.18.26,1.18,2.32,2.78,2v9c-2.11-.16-3.4.68-4,2.92Z"/><path class="cls-4" d="M407.24,411.58c1.19.14,3.05-.28,2.73,1.68s-2.33,1.07-3.62,1.36C406.3,413.5,406.09,412.34,407.24,411.58Z"/><path class="cls-2" d="M219.29,484.81l.12-2.23.89-.86,1.92-.2.28.26A3.8,3.8,0,0,1,219.29,484.81Z"/><path class="cls-6" d="M259.3,486.53c-.47,1.17-1.52,1-2.47,1.06A2.08,2.08,0,0,1,259.3,486.53Z"/><path class="cls-6" d="M494.26,497.91c0-.79,0-1.59,0-2.38l1.32,1.07c.11.31.23.61.35.92Z"/><path class="cls-6" d="M608.25,397.59c0,.62.09,1.53-.62,1.52-.5,0-.76-.92-.35-1.58A1.61,1.61,0,0,1,608.25,397.59Z"/><path class="cls-5" d="M412.23,388.51a2.09,2.09,0,0,1-.86,2.08A2.09,2.09,0,0,1,412.23,388.51Z"/><path class="cls-6" d="M263.28,484.52c-.3,1.1-1.14,1.15-2.06,1.06A1.41,1.41,0,0,1,263.28,484.52Z"/><path class="cls-6" d="M261.3,485.53c-.36,1-1.19,1.09-2.08,1C259.47,485.33,260.39,485.44,261.3,485.53Z"/><path class="cls-4" d="M496,497.52c-.12-.31-.24-.61-.35-.92C495.71,496.91,495.83,497.21,496,497.52Z"/><path class="cls-5" d="M220.3,481.72l-.89.86c-1.61-.06-3.38,1.61-4.77-.83-1-1.68-3-1.17-4.59-1.17-23.9,0-47.81.17-71.71-.18-4.2-.07-5.42,4.27-9.08,4.19-.16-7.54-1.93-14.81-3.57-22.11a37.83,37.83,0,0,1-.48-3.85c2.1-1.37,4.47-1.05,6.79-1.05,33.46,0,66.92-.08,100.38.16,2.27,0,5.17-2.73,7.18.72,0,0,.61-.13.61-.22.09-3.82,4.45-1.2,5.45-3.61-.28,1.38-.38,2.83-1.42,3.94a7.38,7.38,0,0,0,0,2.19,8,8,0,0,0,1,2.71c1.26,2.44,0,7-2.55,9.34-1.49,1.32-1.86.48-5.52,2.58-2.36,1.35-2.4,1.81-4.69,2.94a23.74,23.74,0,0,1-4.69,1.84c-.84.22-1.92.45-3.59,1-.7.24-1.26.45-1.64.6Z"/><path class="cls-3" d="M215.28,436.58,215,437l.23-.44Z"/><path class="cls-2" d="M187.27,374.57l1-.76.26.38-1.3.4Z"/><path class="cls-5" d="M644.16,368.69c1.92-2.94,5.26-3.25,7.94-2.84,21.66,3.34,43.44.92,65.14,1.81,3.67.16,4.6-3.25,7.26-4.19,0,.91,0,1.81,0,2.72-.2,1.22-.49,2.44.68,3.38.23,4.36.65,8.73-.32,13.06-1.86,1.67-3.58,3.38-1.45,6l-.24,2c-.16.05-.43.19-.46.15-4.56-5.81-11-4.13-16.93-4.14q-35.25-.12-70.5,0c-2.79,0-5.63.32-5-3.92,6.35-1.17,9.08-6.12,6-11.06a31.88,31.88,0,0,0-3.2-3.8,4.62,4.62,0,0,1,2.53-2.48l5.53,4.92c.79.71,1.17,2.51,2.54,1.71C644.7,371.38,644.24,369.84,644.16,368.69Z"/><path class="cls-5" d="M720.05,391.49l-.13.35-.4-.4.29-.27Z"/><path class="cls-7" d="M456.28,337.6a300.71,300.71,0,0,1,39-17.11c-1.71,6.78-2,12.74-4.91,18C479,340.12,467.57,340.76,456.28,337.6Z"/><path class="cls-7" d="M461.56,342.12c-.27.13-.54.37-.8.36s-.49-.28-.74-.44c.26-.13.53-.37.78-.36S461.3,342,461.56,342.12Z"/><path class="cls-2" d="M314.28,395.57c-.72-.13-1.58-.09-1.52-1.2a.47.47,0,0,1,.32-.31c1.11-.06,1.06.8,1.19,1.52Z"/><path class="cls-2" d="M314.67,391.31c.12,0,.34.08.34.13a1.33,1.33,0,0,1-.12.42c-.12-.05-.34-.09-.35-.13A1.36,1.36,0,0,1,314.67,391.31Z"/><path class="cls-5" d="M707.3,491.45c-.35,2.27-1.79,2.91-3.89,2.69-6.88-.73-13.64-1.07-20.53.9-4.1,1.17-9.07,1.72-12.45-2.38-1.88-2.28-3,.64-4.86.33l1.68-4.57c2.28-2.39,4.42-4.93,6.86-7.14,0,0,4.81-2.56,23.76.38h0c3.25-1.19,6.19-.09,6.9,1.71a3.91,3.91,0,0,1-.49,3.21h0C704.2,488.87,706.54,489.67,707.3,491.45Z"/><path class="cls-2" d="M646.18,475.5c.18-4.41-.64-9,2-13,.3.39.8.73.89,1.16.35,1.83,1.6,5.32,1.93,5.47,2.52,1.14,4.9,2.56,7.88,2.47,8.62-.25,15.36,0,15.39,0,14.38-.77,17-.11,19.19,1.44,1.31.91,2.27,2,5.27,3.95,4.33,2.87,6.47,3.4,6.4,4-.12,1-7.16,1.43-33.83-.32a4.58,4.58,0,0,0-1.83-2c-2.22-1.18-5.1.35-7.13.37C656.53,479,651.53,476.77,646.18,475.5Z"/><path class="cls-8" d="M651.3,452.57a1.88,1.88,0,0,1,1.72-2.12C653.33,451.87,652.61,452.46,651.3,452.57Z"/><path class="cls-5" d="M699.26,479.58a1.82,1.82,0,0,1,2,2Z"/><path class="cls-8" d="M650.31,454.57l.83-1Z"/><path class="cls-8" d="M694.26,459.55l1-1,0,0-1,1Z"/><path class="cls-8" d="M685.28,467.57l-.39-.22.38.23Z"/><path class="cls-8" d="M685.27,467.58l.39.2-.38-.21Z"/><path class="cls-5" d="M130.66,487.84c.12-.27.18-.69.38-.78s.53.2.81.32c-.12.28-.18.7-.38.78S130.94,488,130.66,487.84Z"/><path class="cls-7" d="M151.27,413.53c2.92-5.23,7.44-9,11.7-13.09,1.67-1.58,2.69.05,3.68,1.06,3.25,3.3,6.45,6.65,9.67,10-2.21,4.5-6.58,2.71-9.9,2.93C161.41,414.74,156.32,413.88,151.27,413.53Z"/><path class="cls-2" d="M216.3,433.06c1.06.4,2.5,0,3,1.46C218.08,434.54,216.73,434.75,216.3,433.06Z"/><path class="cls-2" d="M522.28,479.58c.26-1.09,2.48-9.83,8-12.41a35.65,35.65,0,0,1,9.19-2.31c.44-.05.77-.11.92-.1,23.83,1.83,47.69.34,71.53.75,3,.05,4.92.51,4.4,4a5.77,5.77,0,0,1-1.61,3.67c-1.51,1.4-3.41,1.31-6.44,1.43-5,.19-1.28.61-8.7.89-14.38.53-30.7.11-30.71.11-22.14-.58-26.27-.3-30.86.37A102.85,102.85,0,0,0,522.28,479.58Z"/><path class="cls-2" d="M508.87,462.62c2.13.13,4,5,6.41.36,2.06,1.12,3.6,3,6.5,2.68,4.17-.48,8.39,1.19,13.13-.51-2.78,5-8.09,7-8.62,12.45v0l-1,1h0c-1.12,0-2.28-.18-3,1h0c-.13.1-.38.24-.37.28a5.68,5.68,0,0,0,.37.74l-4,5.95-1.77.05C513.62,478.71,510.44,470.92,508.87,462.62Z"/><path class="cls-3" d="M522.28,479.58c.73-1.17,1.89-1,3-1C524.56,479.74,523.42,479.66,522.28,479.58Z"/><path class="cls-3" d="M525.28,478.6l1-1Z"/><path class="cls-3" d="M522.28,480.6a5.68,5.68,0,0,1-.37-.74s.24-.18.37-.28Z"/><path class="cls-3" d="M328.09,469.35c4.79-2.2,10.07-2.07,15.07-2.4,12.07-.78,24-3.05,36.2-2.4.32.3.64.6,1,.89l.08,0c-.08,2,6.08,4,0,6.13l-2.18,0-.4-.23.41.22v3h0c-1.48-.08-3.6.06-3.63-1.75-.06-4.82-3.07-3.25-5.44-2.74-13,2.81-26-.29-38.93.26C329.59,470.41,328.83,469.71,328.09,469.35Z"/><path class="cls-3" d="M380.45,471.6c6-2.08-.12-4.08,0-6.13,3.81-3.27,8.31-3.17,12.9-2.65a3.27,3.27,0,0,1-1.92,2.68c-3.7,1.84-3.65,4.14-.82,6.77l2.51,2.34c-2.1-.41-4.27-.88-6.49-1.41S382.41,472.16,380.45,471.6Z"/><path class="cls-2" d="M376.19,480.51l-1.91.1a2.92,2.92,0,0,1,2.93-3.09l.14.13C377,478.6,376.58,479.55,376.19,480.51Z"/><path class="cls-7" d="M373.3,481.58l-1,1Z"/><path class="cls-7" d="M372.3,482.57l-1,1.2Z"/><path class="cls-7" d="M374.3,480.57l-1,1Z"/><path class="cls-4" d="M723.42,388.65c-2.13-2.64-.41-4.35,1.45-6C724.46,384.66,725.18,387,723.42,388.65Z"/><path class="cls-2" d="M701.36,341.53c-1.52,0-2.12-.81-2-2.26C700.44,339.64,701.36,340.17,701.36,341.53Z"/><path class="cls-2" d="M704.59,343.52a2.93,2.93,0,0,1-3.29-2C702.92,341.32,703.7,342.51,704.59,343.52Z"/><path class="cls-2" d="M725.19,369.57c-1.17-.94-.88-2.16-.68-3.38C725.5,367.16,725.35,368.37,725.19,369.57Z"/><path class="cls-2" d="M705.36,345.55c-1-.49-.42-.84.1-1.2C705.43,344.75,705.39,345.15,705.36,345.55Z"/><path class="cls-9" d="M679.11,316.56a3.17,3.17,0,0,0,.06-1C680,316,679.93,316.28,679.11,316.56Z"/><path class="cls-2" d="M710.19,298.65l2.16-4.14c1.09,1,2.11,2,3.28,2.91,2.52,1.9,2.61,0,2.74-1.83,2.42.16,4.88-.38,7.26.63,1.56.65,2.5,0,2.69-1.72,5.66,6.33,11.28,12.7,18,18-.92,1.32-2.33,1.07-3.64,1.07-9.82,0-19.66-.13-29.48.11-2.44.05-3.87-1.64-5.91-2.09l-.41-.24.41.24c0,1.23-.59,1.94-1.89,1.94-.76-1.87-3.72-2.65-2.69-5.41C710.23,308.28,712.55,305.37,710.19,298.65Z"/><path class="cls-5" d="M482.75,480.2a18.16,18.16,0,0,1,3.58,6.2c.13,2.31-.89,3.22-3.25,3.21-21.08-.06-42.16.1-63.24-.15-4.55,0-8.94-2.41-13.67-1.91a3.59,3.59,0,0,0-2.91-1l0,0-1-1,0,0c.14-1.78-1.5-2.63-2.11-4,3.38-1.56,6.76,0,10.14,0q33.46-.1,66.95-.16C479.17,481.43,481.38,482.58,482.75,480.2Z"/><path class="cls-5" d="M403.26,486.56a3.59,3.59,0,0,1,2.91,1c0,1,.08,2,.13,3Q404.77,488.58,403.26,486.56Z"/><path class="cls-5" d="M409.33,491.53c-1.47,1.08-2.24,0-3.07-1A3.11,3.11,0,0,1,409.33,491.53Z"/><path class="cls-8" d="M611.81,306.81c.54,2.25.7,3.5.05,4.9C610.92,310.28,611.19,309,611.81,306.81Z"/><path class="cls-7" d="M580.33,332.47c-2.31,3.61-4.88,5.53-9.9,5.31-14.24-.62-28.52,0-42.76-.44-4.52-.15-.6,3.1-2.52,3.79-1.89-1.72.1-5.95-3.76-6.49,2.8-2.51,5.54-5.09,8.4-7.53A15.34,15.34,0,0,1,543,323.23c9.1,1.24,18.5.35,27.77.33,2.56,0,5.25-.48,6.49,2.86,2.05-2.68-.22-5.8,2-7.87C580.73,323.11,580.16,327.82,580.33,332.47Z"/><path class="cls-3" d="M105.27,487.91c-2.88-5-7.11-8.91-10.61-13.39,3.32-2.84,9,5.09,11.11-3.09.69,1.8.89,3.87,3,4.53,3,5.59.74,11.78,2,17.57A8.64,8.64,0,0,1,105.27,487.91Z"/><path class="cls-3" d="M108.55,474.83l-.18-1.38C109,473.84,109.05,474.29,108.55,474.83Z"/><path class="cls-3" d="M704.75,445.37a6.29,6.29,0,0,1-.58.61c-.68-.55.25-.56.31-.88Z"/><path class="cls-4" d="M275.38,399.71c.08-.74.16-1.48.25-2.22l.79,1.4Z"/><path class="cls-3" d="M48.44,495a40,40,0,0,0,15.7-10.37c4.19-4.62,7.13-10.34,11.32-10,2.31.2,5.37,2.27,5.69,1.76.13-.21-.35-.65-.15-1s1-.45,1.72-.38c8.92.88,15.66,5.29,20.6,12.65-.6,2.66-2.76,1.87-4.42,1.88-7.58.07-15.17-.07-22.75.09-1.59,0-2.87,0-4.61.16-4.82.43-9.31,1.64-9.25,2.08s6.93-.19,7,.08S60.88,493.45,48.44,495Z"/><path class="cls-7" d="M559.22,440.51l.52-.38-.39.51Z"/><path class="cls-2" d="M383.09,424.55c-1.39-1.61-.72-3.48-.64-5.27C383.61,420.92,383.22,422.75,383.09,424.55Z"/><path class="cls-3" d="M707.3,491.45c-.76-1.78-3.1-2.58-3-4.88,3.33.31,4.28,3.89,7,5.1.35,1,.71,1.93,1.06,2.9l0,0C709.75,494.9,709.53,491.59,707.3,491.45Z"/><path class="cls-5" d="M667,495l.34-.14.1.53a.91.91,0,0,1-.37-.08C667,495.21,667,495.06,667,495Z"/><path class="cls-3" d="M662.28,492.63c-.7-.36-.83-.71,0-1.06Z"/><path class="cls-3" d="M712.29,494.57l.44.47c-.1,0-.25,0-.3-.06a1.36,1.36,0,0,1-.17-.39Z"/><path class="cls-3" d="M749.25,530.6c-1.48.09-2.89.06-3-2v-1l1,0h0l1,1h0l1,2Z"/><path class="cls-2" d="M769.36,534.65c-.16.73-.21,1.58-1.3,1.46a.45.45,0,0,1-.32-.31c-.11-1.09.73-1.14,1.46-1.31Z"/><path class="cls-7" d="M742.25,525.59l3.06.9c0,.34,0,.68,0,1l-.13.14A3.17,3.17,0,0,1,742.25,525.59Z"/><path class="cls-3" d="M749.29,530.56l.77,1-.53.32c-.1-.42-.19-.83-.28-1.25Z"/><path class="cls-7" d="M741.3,525.33c0-.59,0-1.17,0-1.76.91.4,1,1.2,1,2Z"/><path class="cls-2" d="M770.35,533.67l-1,1-.16-.16,1-1Z"/><path class="cls-7" d="M746.24,527.61v1l-1-1,.13-.14A3.87,3.87,0,0,1,746.24,527.61Z"/><path class="cls-1" d="M746.3,312.49c-6.7-5.29-12.32-11.66-18-18-1.22-1.42-1.64-3.56-3.8-4.1L723,288.74c.24-3.38-2.1-5.25-4.25-7.23l.21-2.1c4-.45,5.52,3,7.95,5,.66.56,1.19,2.59,2.58.95.84-1-.22-1.79-.91-2.44s-1.76-1.47-2.62-2.23c-4.39-3.94-4.15-5.34,1.26-7.61l4.08,3.59c.94,3.59,5.08,3.41,7,5.89,5.13,7.92,10.59,15.67,13,25C751.83,311.44,750.5,313.4,746.3,312.49Z"/><path class="cls-4" d="M721.31,496.61c.45-4.76.88-5.11,5-4C725.54,495.1,723.49,495.94,721.31,496.61Z"/><path class="cls-5" d="M28.22,508.55c.54.38,1.11.09,1-.39-1.69-6.49,2.7-6.05,6.57-5.49s7.81-.77,11.53.93c-.82,3.67-4.3,5.19-6.36,7.85-1.87,2.4-5.05,3.76-5.67,7.15l0,0-1.85.06c-2.27-.15-4.65.15-6.1-2.32s-1.18,2.13-2.68.39A15.8,15.8,0,0,1,28.22,508.55Z"/><path class="cls-3" d="M33.45,518.64l1.85-.06a2,2,0,0,1-2,2l-.11-.1Z"/><path class="cls-3" d="M33.32,520.63l-.54.42c.14-.18.29-.35.44-.52Z"/><path class="cls-4" d="M41.22,514.54a3.43,3.43,0,0,1,2.07-2A1.83,1.83,0,0,1,41.22,514.54Z"/><path class="cls-2" d="M39.24,492.83l.34.15-.47.37c-.06-.11-.18-.23-.15-.31S39.14,492.9,39.24,492.83Z"/><path class="cls-5" d="M47.27,503.61a2,2,0,0,1,2-1A2,2,0,0,1,47.27,503.61Z"/><path class="cls-8" d="M240.86,344.3l-.36.83c-.28-.12-.71-.18-.79-.38s.2-.53.31-.81Z"/><path class="cls-8" d="M697.13,286.57c-.36-.59-.71-1.18-1.07-1.76.15-.17.31-.33.47-.49,6.28,1.5,8.4.12,8.59-5.63l.27-.24c1.43,1.13.66,2.89,1.21,4.27C704.63,286.9,701.74,288.86,697.13,286.57Z"/><path class="cls-2" d="M721.23,292.58c-.34.57-.64.53-.9-.07A3,3,0,0,1,721.23,292.58Z"/><path class="cls-8" d="M721.23,292.58a3,3,0,0,0-.9-.07v.05a2.42,2.42,0,0,0-.08-.93l.6-.18.32.13Z"/><path class="cls-2" d="M720.25,291.63a2.42,2.42,0,0,1,.08.93c-.15-.22-.31-.43-.44-.66C719.88,291.87,720.13,291.72,720.25,291.63Z"/><path class="cls-1" d="M718.74,281.51c0-.33.45-2.82-.93-3.83a1.91,1.91,0,0,0-.47-.26c-.58-1.35-1.17-2.7-1.73-4.06-.82-2-2.25-4.18-.31-5.92s4.05,0,6,.8a33.44,33.44,0,0,1,3.92,2.4,24.38,24.38,0,0,1,2.64,3.46c3.22,5.07,5.37,12.6,3.27,14.16C729.25,289.61,724.13,286.5,718.74,281.51Z"/><path class="cls-8" d="M731.29,276.68l-4.08-3.59c0-.48,0-1,0-1.43l.2-.2,3.88,1.14C730,274,735.47,275.28,731.29,276.68Z"/><path class="cls-8" d="M699.29,275.56a6.51,6.51,0,0,1,5.11,1.89l-.26.3-4.85-.19,0-2Z"/><path class="cls-8" d="M707,275.71l-.69.47c-.18-.33-.35-.66-.52-1,.27-.09.6-.31.8-.22S706.81,275.44,707,275.71Z"/><path class="cls-6" d="M704.4,277.45l1,1-.27.24-1-.94Z"/><path class="cls-6" d="M727.17,271.66l-.37-.56.57.36Z"/><path class="cls-2" d="M725,483c.28.13.7.19.78.38s-.19.54-.31.81c-.28-.12-.7-.18-.78-.38S724.88,483.24,725,483Z"/><path class="cls-3" d="M704.28,486.58c-1.35,0-2.06-.61-2-2A1.8,1.8,0,0,1,704.28,486.58Z"/><path class="cls-2" d="M376.19,480.51c.39-1,.77-1.91,1.16-2.86.61-4.25,2-5.59,3.1-6,1.94-.8,3.79.8,8.24,2a30.18,30.18,0,0,0,6.93,1A5.38,5.38,0,0,1,397,479c-.47,2.35-2.77,3.65-4.48,3.94-2.14.37-2.5-1-5.55-1.28s-3.93,1-6.72.54A9.72,9.72,0,0,1,376.19,480.51Z"/><path class="cls-2" d="M400.18,481.57c.61,1.39,2.25,2.24,2.11,4-2.62-1.66-6.47-1.86-7.09-5.93.61-.34.84-.69,0-1.06l0,.06c0-.61,0-1.22-.05-1.83C398.47,476.65,397.6,480.94,400.18,481.57Z"/><path class="cls-3" d="M402.26,485.56l1,1Z"/><path class="cls-5" d="M395.22,478.6c.82.37.59.72,0,1.06C395.21,479.31,395.21,479,395.22,478.6Z"/><path class="cls-7" d="M741.3,523.54a4.16,4.16,0,0,1-4-3.95h2a1.94,1.94,0,0,0,2,1h0C741.25,521.58,741.27,522.56,741.3,523.54Z"/><path class="cls-5" d="M746.24,527.61a3.87,3.87,0,0,0-.89-.11c0-.33,0-.67,0-1,.1-.65.23-1.55,1-1.39,1.35.28.79,1.58,1,2.48Z"/><path class="cls-5" d="M748.26,528.58l-1-1Z"/><path class="cls-2" d="M651.53,481.22c-.28-.13-.72-.19-.8-.39s.19-.55.31-.83c.28.12.72.18.8.39S651.65,480.93,651.53,481.22Z"/><path class="cls-7" d="M764.94,514.94l1.39,1c-.34.19-.67.52-1,.56-.65.07-1.41,0-1.55-.83C763.66,515.09,764.16,514.89,764.94,514.94Z"/><path class="cls-2" d="M741.27,520.62a1.94,1.94,0,0,1-2-1A2,2,0,0,1,741.27,520.62Z"/><path class="cls-7" d="M220.31,341.4a11,11,0,0,1,.25-2.54c1.24-.16.55.93.66,1.49a3.42,3.42,0,0,1-.27,1.28Z"/><path class="cls-7" d="M223.27,341.58l-.74-1.06c1.2-.32.49.71.74,1.06Z"/><path class="cls-8" d="M738.28,508.57l.42.24-.43-.23Z"/><path class="cls-8" d="M704.14,277.75l1,.94c-.19,5.75-2.31,7.13-8.59,5.63.48-2.25-2.75-4.86.67-6.82l.18.18c-.29,3.05.35,5.4,4.41,5.35-2.56-1.17-2.57-3.3-2.53-5.44l0,0Z"/><path class="cls-8" d="M699.26,275.59l0,2,0,0-1.88.09-.18-.18A1.85,1.85,0,0,1,699.26,275.59Z"/><path class="cls-7" d="M555.24,447.76l1-1.2c0,.35,0,.7,0,1.05Q555.77,447.7,555.24,447.76Z"/><path class="cls-7" d="M575.89,341.85c-.12,0-.34-.08-.34-.13a1.11,1.11,0,0,1,.12-.42c.12.05.34.09.34.13A1.33,1.33,0,0,1,575.89,341.85Z"/><path class="cls-3" d="M318.42,403.41c1.13.26,2.25.56,2.49,1.92a.68.68,0,0,1-.84.85c-1.37-.23-1.68-1.35-1.94-2.47Z"/><path class="cls-3" d="M329.24,414.84l-1-1.25Z"/><path class="cls-4" d="M438.18,416.48l-1.89.12c-1.27-.91-3.87-1.08-3.4-3s2.87-.77,4.41-1a21.28,21.28,0,0,1,3,0C439.74,414,438.15,414.78,438.18,416.48Z"/><path class="cls-4" d="M440.27,412.59l1.07-1Z"/><path class="cls-3" d="M393.08,474.61l-2.51-2.34c-2.83-2.63-2.88-4.93.82-6.77a3.27,3.27,0,0,0,1.92-2.68l20.94-1.4c1.55,1.83,2.51,1.34,3.05-.78l5-.1c.25.53.43,1.45.76,1.51,1.12.21,1.06-.79,1.17-1.54,1.9-1,4-.9,6-.88-.11,2.08.78,3.12,2.95,2.93,2.9-.25,5.83-.27,8.7-.74,6.93-1.15,13.8-.37,20.67.4a34.49,34.49,0,0,0,12.69-.64c.92,4.31,3.38,8,4.92,12a27.85,27.85,0,0,1-7.83,1Q432.71,474.54,393.08,474.61Z"/><path class="cls-2" d="M393.08,474.61q39.63,0,79.27,0a27.85,27.85,0,0,0,7.83-1l2.57,6.59c-1.37,2.38-3.58,1.23-5.48,1.23q-33.48.1-66.95.16c-3.38,0-6.76-1.58-10.14,0-2.58-.63-1.71-4.92-5-4.74A2.5,2.5,0,0,1,393.08,474.61Z"/><path class="cls-7" d="M475.26,461.58a34.49,34.49,0,0,1-12.69.64c-6.87-.77-13.74-1.55-20.67-.4-2.87.47-5.8.49-8.7.74-2.17.19-3.06-.85-2.95-2.93,12.16-1.24,24.32-2.64,36.23-5.29,5.52-1.23,7.27.73,8.06,5.39A9.32,9.32,0,0,0,475.26,461.58Z"/><path class="cls-7" d="M417.3,460.64c-.54,2.12-1.5,2.61-3.05.78C415.06,460.35,416.2,460.56,417.3,460.64Z"/><path class="cls-7" d="M424.23,460.51c-.11.75-.05,1.75-1.17,1.54-.33-.06-.51-1-.76-1.51Z"/><path class="cls-7" d="M380.33,465.44c-.33-.29-.65-.59-1-.89C379.68,464.85,380,465.15,380.33,465.44Z"/><path class="cls-4" d="M623.54,379.39l1.91,1.95c-.64,1-1.4,1.33-2.34.38S622.56,380,623.54,379.39Z"/><path class="cls-4" d="M220.3,481.72a1.82,1.82,0,0,1,2.06-2.13c-.05.65-.09,1.29-.14,1.93Z"/><path class="cls-2" d="M380.45,471.6a3.39,3.39,0,0,1-2.16,3c0-1,0-2,0-3h0Z"/><path class="cls-2" d="M378.28,471.57l-.41-.22.4.23Z"/><path class="cls-5" d="M707.27,311.58l-.41-.24.41.24Z"/><path class="cls-3" d="M551.27,448.57l.24-.42-.23.43Z"/><path class="cls-8" d="M697.38,277.68l1.88-.09c0,2.14,0,4.27,2.53,5.44C697.73,283.08,697.09,280.73,697.38,277.68Z"/></svg>