<svg id="Layer_1" data-name="Layer 1" xmlns="http://www.w3.org/2000/svg" viewBox="0 0 1920 1080"><defs><style>.cls-1{fill:#fefefe;}.cls-2{fill:#635c4d;}.cls-3{fill:#928872;}.cls-4{fill:#e3d4b0;}.cls-5{fill:#beb093;}.cls-6{fill:#a3987e;}</style></defs><title>Artboard 1</title><path class="cls-1" d="M1846.74,399.22q0,284.82.06,569.65c0,2.63-.59,3.22-3.22,3.22q-401.2-.11-802.42-.06c3.82-.83,7.68-1.5,11.45-2.5,24.16-6.43,44.77-19.24,63.48-35.46a.65.65,0,0,0,.73-.66h0a.64.64,0,0,0,.72-.68h0a5.64,5.64,0,0,0,1.54-.66c6.31-5.63,12.69-11.21,18.19-17.64,2.12-2.48,5.19-4.28,6.14-7.72.21-.24.42-.48.64-.71,2.14-.59,2.84-2.64,4-4.13,18.9-23.73,33.61-49.76,42.35-78.91a213.8,213.8,0,0,0,9-70.25c-.16-4,.14-8.13-1.18-12.05l-.12-3.42a219.35,219.35,0,0,0-3.79-22.63c-4.61-21.19-13-41-22.37-60.4-3.24-6.69-6.91-13.19-9.47-20.21l7.55-2.92a1.2,1.2,0,0,0,1.56-.65l2-.74a1.18,1.18,0,0,0,1.55-.67l2-.73a1.19,1.19,0,0,0,1.55-.66l2-.73a1.15,1.15,0,0,0,1.54-.65l11.07-4.27a1.19,1.19,0,0,0,1.55-.67l2-.72a1.16,1.16,0,0,0,1.55-.65l2-.73a1.14,1.14,0,0,0,1.54-.65l4-1.49a1.19,1.19,0,0,0,1.55-.66l2-.73a1.16,1.16,0,0,0,1.55-.65l2-.73a1.14,1.14,0,0,0,1.54-.65l4.05-1.48a1.19,1.19,0,0,0,1.56-.64l2-.74a1.13,1.13,0,0,0,1.54-.64l4.06-1.47a1.18,1.18,0,0,0,1.55-.65l2-.74a16.13,16.13,0,0,0,7.15-2.76l2-.73c1.12.3,2-.35,3-.7q15.06-5.61,30.07-11.34c7-2.69,14.29-4.8,21-8.2,1.68-.15,2,1.35,2.76,2.31a215.41,215.41,0,0,1,18.55,30.45c17,33.44,22.06,68.19,12.31,104.8a242.11,242.11,0,0,1-40.71,83.3c-13.45,18-29.27,33.21-49.42,43.66-10.66,5.52-21,11.57-31.52,17.44-4.08,2.28-8.06,4.77-11.12,8.39s-2.51,6.92,1.41,9.41a22.08,22.08,0,0,0,3.77,1.79c18,7.11,36.16,7.23,54.46,1.6,23.91-7.37,43.92-21.21,62.22-37.83a4.71,4.71,0,0,0,2.66-1.57,205.85,205.85,0,0,0,34.18-38.72c18-26.32,29.08-55.63,37.14-86.21a135.66,135.66,0,0,0,4.67-26.69,60.57,60.57,0,0,0,1.54-6.8,159.11,159.11,0,0,0-1.67-46.36,238.43,238.43,0,0,0-24.91-70.82,1.15,1.15,0,0,0-.62-1.43,21,21,0,0,0-2.78-5.61,11,11,0,0,0-1-2.94c-1.79-2.64-.73-3.62,1.91-4.6,11.34-4.22,22.62-8.59,33.87-13,5.7-2.25,11.62-4,17-6.93l7-2.71.92-.25c4.58-1.74,9.14-3.52,13.72-5.23l56.92-21.13c2.06.31,2.5,2.25,3.44,3.59,4.37,6.28,8,13,11.83,19.6,4.19,12.6,8.42,25.19,12.55,37.8,2.61,7.95,5.51,15.78,5.89,24.34a169,169,0,0,1-12.45,72.42c-12.52,30.69-31.7,56.91-54.07,81-6.19,6.68-12.3,13.4-20.34,18-12.7,7.36-25.45,14.62-39,20.42a42.06,42.06,0,0,0-10.33,5.81c-4.6,3.78-4.33,6.69.89,9.59,15.77,8.74,32.54,11.19,50,7,26.65-6.35,48.41-21.17,67.72-40,1.64.12,2.47-1.18,3.44-2.11,6.72-6.47,13.44-12.94,19.51-20.05,22.6-26.49,39.38-56.17,49.34-89.6,1.35-4.52,2.4-9.13,3.58-13.7a1.55,1.55,0,0,0,.35-1.64l.41-1.83c.49-1,1.12-1.95.85-3.15,0-.67.11-1.34.17-2,.92-.54.82-1.35.59-2.19l.18-2a1.72,1.72,0,0,0,.73-1.49c.83-6.58,1.7-13.13,2.28-19.74a189.47,189.47,0,0,0-1.76-45.28c-3.42-22.48-10.63-43.8-20.61-64.22-4.41-9-8.63-18.08-12.94-27.12,11.48-11.8,23-23.56,34.4-35.43,1.52-1.59,2.67-1.56,4.49-.77A149.75,149.75,0,0,1,1646.16,468c16.1,16.41,34.2,30.34,55.66,39.33,13.59,5.69,27.66,8.3,42.37,6.44,17.78-2.26,32.58-10.7,45.74-22.43,15-13.34,26.19-29.72,37.35-46.13a114.94,114.94,0,0,0,12.5-24.18c.37-.18.51-.44.29-.83l.32-.74c1.3-1.13,1.41-2.84,2-4.31C1844.57,410.05,1845.31,404.54,1846.74,399.22Z"/><path class="cls-2" d="M1116.09,934.07c-18.71,16.22-39.32,29-63.48,35.46-3.77,1-7.63,1.67-11.45,2.5h-16.83c-2.87-1.33-6.07-1.27-9.07-2.08a76.2,76.2,0,0,1-16.83-6.74c-5.34-3-5.56-6-.71-9.82a40.19,40.19,0,0,1,9.46-5.26c13.06-5.43,25.32-12.41,37.62-19.33,8.5-4.79,15.16-11.58,21.72-18.59,21.82-23.32,41.06-48.43,54.22-77.77,9-20,14.53-40.94,14.17-63-.64-39.59-13-75.25-37.53-106.54-1.63-2.07-2.8-1.2-4.4-.53-35,14.48-69.5,30.16-104.06,45.67a1046.26,1046.26,0,0,1-196,65.49Q745,784.5,696.34,791c-24.63,3.26-49.38,5.46-74.17,7.3s-49.66,3-74.53,3a604.3,604.3,0,0,1-68.16-3.57c-17.17-1.94-34-5.63-50.9-9-2.37-.47-4.78-.76-7.17-1.14-.59-2-2.5-1.5-3.8-1.85a204.17,204.17,0,0,1-32.5-11.63,194.9,194.9,0,0,1-71.88-55.84c4-2,8.38-2.57,12.59-3.79,3.65-1.06,3.83-1.39,1.1-4-6.94-6.6-12.76-14.19-19-21.39-1.43-1.63-3.61-3.06-4.06-5.76,2,.32,2.72,1.83,4,2.66,12.32,8.36,24.51,16.92,36.89,25.19,6.47,4.32,12.33,9.63,19.63,12.63,11.88,4.89,24.46,7.24,37,9.81,7.5,1.54,14.82,3.06,22.58.3a464.24,464.24,0,0,0,64.22-28.15,128.9,128.9,0,0,0,33.88-26,99.15,99.15,0,0,0,22-39.23,73,73,0,0,0,2.23-33.67c-.86-5.18-2.89-10-3.58-15.22a9.2,9.2,0,0,1,.94,1c14.14,22,20.25,45.85,14.88,71.66-5.67,27.3-18.92,51-37.48,71.67-5.62,6.27-12.19,11.52-18.35,17.2-.82.12-1.36.51-1.39,1.41a1.32,1.32,0,0,0-1.38.73l-.7.7a.92.92,0,0,0-.29.11c-.05,0,0,.15-.06.22l.38-.3.7-.7a1.31,1.31,0,0,0,1.41-.69,1.39,1.39,0,0,0,1.47-1.34,4.12,4.12,0,0,0,2.79-1.23,149.74,149.74,0,0,0,23.92-22.41c19.35-22.7,29.17-49.35,31.88-78.64,1.64-17.82-2.1-35-9.88-51.17-8.42-17.55-20.91-31.92-35.15-44.85-4.27-3.88-8.51-7.91-13.62-10.77v0a4,4,0,0,0-2.83-2.12l0,0-.74-.72,0,0-.76-.67c-7.86-7.15-17.5-10.28-27.63-12.45-3.25-.7-8.28.2-9.22-2.92-.87-2.92,2-6.67,3.59-9.93,1.26-2.61,3.12-3.62,6.12-3.57,11.09.17,22.19,0,33.29.1,2.51,0,3.62-.46,2.17-3.14-1-1.94-1.83-4-2.69-6.06-2.3-5.39-4.58-10.79-7-16.62,4.26.76,7.81,1.52,11.09,3.48,11.85,7.1,20.52,17.47,28.94,28.07,9.58,12,17.84,25,25.91,38.12,9.82,15.93,18.26,32.52,22.76,50.82,2.19,8.9,3.72,17.87,2.68,27.21-.4,3.49-1.79,6.84-1,10.62,1,5.1,1,10.39,1.59,15.58s1.34,10.58,1.88,15.89c.19,1.94,1.28,2.81,2.86,3.54,5.21,2.4,10.24,1.5,15.16-.78,10-4.65,17.36-12.32,23.7-21.16,12.64-17.64,21.5-37.34,31-56.68,2.06-4.17,3.82-8.46,3.14-13.39-1.32-9.54-2.46-19.1-3.67-28.65.26-2-.08-3.92.65-5.87,3.27-8.83,7.46-17.07,14.1-23.92,7.95-8.21,17.72-12.17,29-12.82,2.12-.12,3.14.15,1.9,2.62a73.23,73.23,0,0,0-2.74,7.15l0,0a61.42,61.42,0,0,0-4.94,18.28l0-.05c-1.06.74-.5,1.89-.7,2.85-1.16,1.48-.84,3.35-1.29,5-.44,5.91-.89,11.82-.09,17.74,1.09,8.1,2.74,16,7.72,22.79.11.3.21.6.32.91.08-.08.22-.16.22-.24,0-.39-.14-.65-.58-.64a7.34,7.34,0,0,0-.51-3.37,79.75,79.75,0,0,1-2.94-19,35.72,35.72,0,0,0,12.67,17.51c13.22,9.58,27.91,13.07,44.18,11.34,15.32-1.62,29-7.39,42.2-14.77,13-7.27,25-16.21,37.54-24.28,8.58-5.52,17.55-10.44,27.76-11.88a102.62,102.62,0,0,1,24.35-.55c8.9.86,17.78,1.8,26.57,3.39,16.36,2.95,32.38,7.37,48.53,11.25,31.37,7.55,63,14.24,94.46,21.26a11.09,11.09,0,0,1,5.42,2.92c9.52,9,15.85,20.13,21.58,31.61,8.85,17.75,18.31,35.17,27.68,52.65,7.54,14.05,16.19,27.52,21.82,42.59,5.7,15.29,8.75,31,6.66,47.17a415.56,415.56,0,0,1-11.12,56.72c-2.3,8.41-4.78,16.77-8.67,24.64-7.34,14.85-16.37,28.8-23.07,44a171.78,171.78,0,0,0-11.87,36.08c-.34,1.71-.08,2.13,1.63,2.51a32.08,32.08,0,0,0,12.52.39c13-2.28,24-8.76,33.88-17.15,1.84-1.55,3.51-2.56,5.89-2.21a.57.57,0,0,0,.19.52c-.22.23-.43.47-.64.71-.94,0-1.45.65-2,1.22q-11.34,11.37-22.65,22.77c-.56.57-1.23,1.1-1.21,2h0l-.72.68h0ZM771.23,612.35a7.88,7.88,0,0,0-2.07.14c-13.1,4.31-26.42,5.51-40,2.72-.47-.83-1.48-.61-2.11-1.1-3-2.36-5.28-1.41-7.64,1.31-5,5.71-10.22,11.16-15.3,16.76A301.91,301.91,0,0,0,680,662.44c-13.23,19-27.16,37.41-41,55.94-3.73,5-8.11,9.56-10.82,15.28l-.18.27.16-.3a240.15,240.15,0,0,0,26.11,7.48c16.38,4,32.94,7.08,49.78,7.8a275.65,275.65,0,0,0,50.84-2.54,329.47,329.47,0,0,0,55.52-13.18c9.74-3.16,19.14-7.41,28.93-10.38,22.24-6.74,44.86-12.12,67.35-18,17.88-4.66,36-8.37,53.67-13.86,13.23-4.1,26.38-8.43,39.57-12.65q32.6-10.44,65.2-20.84a5.52,5.52,0,0,0,3.15-2c2.89-4.12,6.1-8,10.32-10.8,1.86-1.24,1.59-2.1.15-3.4-5.79-5.23-11.38-10.7-17.34-15.73-3.79-3.19-7.4-6.68-11.91-8.95-.11-.2-.17-.46-.34-.59a255.31,255.31,0,0,0-46.1-27.15,7.92,7.92,0,0,0-2-.34c-.62-1-1.72-1.09-2.65-1.5-18.2-8-37.24-13.14-56.62-17.3-25.3-5.43-50.66-8.07-76.3-2.91-14.09,2.83-27.74,6.81-39.84,15.1-9.8,6.72-20.08,12.71-30.42,18.59C787.44,604.88,779.23,608.4,771.23,612.35Z"/><path class="cls-3" d="M1846.74,399.22c-1.43,5.32-2.17,10.83-4.32,15.95-.62,1.47-.73,3.18-2,4.31,1.12-6.62,3.57-13,3.76-19.81.06-2.29,1.9-5.46-.76-6.53-3.17-1.29-3.91,2.51-5.26,4.47-9.37,13.6-16.79,28.51-27.57,41.17a73.17,73.17,0,0,1-26.58,20,84.07,84.07,0,0,1-40.48,6.55,167.91,167.91,0,0,1-26.73-4.54c-14.44-3.43-27.44-10.37-40.6-16.84a411.71,411.71,0,0,0-69.07-26.38c-26.39-7.51-52.65-15.52-79-23.17-7.58-2.2-15-4.91-22.82-6.36-10.72-11.07-22.47-20.84-36.16-28.07-8.51-4.5-17-9.11-26.31-11.76a22.71,22.71,0,0,0-3.78-1.58c-4.81-1.8-9.79-3.19-14.37-5.57,7.8-1.78,15.59-3.62,23.41-5.35,12.28-2.7,24.59-4.87,37.29-4.56A388.66,388.66,0,0,1,1525.7,334c16.42,2.12,32.56,5.31,48.07,11.29,14.86,5.73,28.25,13.63,39.35,25.31,8.76,9.22,18,18,26.93,27.08a19.69,19.69,0,0,0,6,4.21,140.16,140.16,0,0,0,25.86,8.46c20.84,4.7,41.81,8.85,62.64,13.58,5,1.14,9-.17,12.78-2.83a160.52,160.52,0,0,0,19.14-16.27c9.51-9.13,18.17-19.08,27.24-28.65,3.36-3.54,6.46-7.33,9.69-11,.74-.84,1.68-1.83-.14-2.25-6.57-1.5-12.82-4.22-19.55-5.07-1.76-3.6-5.46-5.32-8-8.18,13.46,3.17,26.91,6.37,40.38,9.48a14.84,14.84,0,0,1,5.93,2.71c4.52,3.48,9.22,6.72,13.74,10.2a27.2,27.2,0,0,1,10.19,16.58c.16.78,0,1.67.81,2.19Z"/><path class="cls-3" d="M187.09,527.65c-4.8-7.49-8-15.73-11.32-23.93-8-19.8-12.46-40.27-11.69-61.73.08-2.3-.35-4.69.82-6.87,1.42-.31,2-1.75,3.23-2.34,5.44,2.54,10.62,1.94,15.56-1.33a56.59,56.59,0,0,0,11.73-10.92A102.46,102.46,0,0,0,213.09,390a536.56,536.56,0,0,1,28-61c7.79-14.75,16.33-28.73,29.44-39.42,10.31-8.42,21.62-15.24,34.52-18.55,16.94-4.34,34.28-6.17,51.79-4.28,9.67,1,19.29,2.56,28.93,3.87,9.3,1.27,18.62,2.37,27.89,3.86,5.82.94,11.77,1.1,17.45,3,18.25,6.18,34.09,16.58,49.14,28.22,18.65,14.42,36.91,29.34,55.37,44,8.63,6.87,16.81,14.32,25.87,20.66a383.68,383.68,0,0,0,64.77,36.49c3.41,1.51,6.58,4.2,10.79,3.47,7.78-1.36,15.5-3,23.1-5.09,7-2,6.83-1.92,4-8.69-1.25-3-3.34-5.76-3.06-9.27.41.41.84.8,1.23,1.23l22.61,24.78.64.38-.17-.8c-.65-1.36-1.24-2.76-1.94-4.09-16.29-30.78-20.66-63.52-15.77-97.66a225.43,225.43,0,0,1,15.08-54.07c1.06-2.57.89-3.41-2.16-4a128.11,128.11,0,0,0-50.72.2c-6.94,1.39-13.79,3.21-20.68,4.83-.47-1.83-1.69-1.05-2.78-.82-8.26,1.75-16.51,3.62-24.8,5.2-14.6,2.78-29.22,5.51-44.07,7.2.58,2.08,3.1,2.58,3,4.76-2.44-.33-4.21-1.78-5.89-3.46q-13.95-14-28-28c-.89-.88-1.57-2.08-3-2.26a143.27,143.27,0,0,1,15.19-14.68c1.57.41,3.13.86,4.7,1.22,14.25,3.31,28.45,4.91,43.09,1.81,9.6-2,19.53-2.5,29.3-3.78,7.23-.95,14.63-1.38,21.63-3.25,16.62-4.45,33.12-9.39,49.54-14.55,10.57-3.33,21.09-4.43,31.91-1.81,14.71,3.56,27.76,10.7,40.24,18.95,18.5,12.23,35.29,26.66,51.06,42.12,14.74,14.46,31.2,26.86,46.56,40.55,2.87,2.56,5.56,5.79,9.88,6.18,1.85.17,3.74.13,5.55.48,5,1,9.69-.05,14.24-2.07,1.1-.48,2.13-1.05,2.12-2.48l3.33,1c12.43,3.76,23.46,1.75,32.63-7.93.91,0,1.43.62,2.05,1.14,5.1,4.21,9.66,9,14.33,13.64,1.07,1.07,2,2.3,3.82,1.95,17.52,17.62,34.43,35.79,49.68,55.44-2.8,2.27-4.29,5.53-6.28,8.41l-.16.29.14-.31c3.1.16,5.92-.93,8.75-2,1.92-.46,3.84-.94,5.76-1.39,7.58-1.78,14.93-4.5,22.67-5.67,2.49,1.29,5.17.21,7.72.62,3.25.52,4.72-.7,4.26-4a75.11,75.11,0,0,1,11-2.38l78.83-18.5c-5.42,10.46-7.69,20.88-9.66,31.38-.21,1.14-.72,2.26.31,3.26-.27,1.23-.53,2.46-.84,3.88-2.67-2.77-6.06-1.48-9-1.93-4.41-.66-8.86-1.14-13.39.12-7.25,2-14.62,3.62-22,5.29a11.41,11.41,0,0,0-5.33,3c-5.22,4.78-10.81,9.17-15.87,14.11-3.54,3.46-8.11,5.89-10.6,10.41-6.64,2.2-13.58,3-20.38,4.47a2.28,2.28,0,0,0-1.9-1.33c-9.46-1.35-19-.59-28.45-.69-.39,0-.77.42-1.15.64-.91-.52-1.78-1.09-2.71-1.55-15.71-7.77-31.54-10.91-47.69-1.19-7.26-1.64-14.27-1.38-20.75,2.74-1.37.87-2.82,1.69-3.45,3.35-2.74,7.16-6.68,13.9-8.14,21.51a65.45,65.45,0,0,1-14.1,30c-3.66,4.41-8.07,8.55-13.77,8.83a248.31,248.31,0,0,1-39.14-.73c-9.15-1-18.1,0-27.05,1.36a55.77,55.77,0,0,0-25.9,11.46c-2.52-.05-4.33-1.76-6.93-2.56,1.71-1.61,3-3,4.42-4.15a155.23,155.23,0,0,1,30.53-18.89c6.16-3,12.37-5.52,19.39-4.49,3.87.57,6.4-.82,8.14-4.33a22.83,22.83,0,0,1,3.82-5.39c1.71-1.8,2.64-4.4,5.53-5.07,4.63-1.08,9.15-2.81,13.83-3.56,7.68-1.24,12.35-5.6,16-12.24,3-5.29,5.94-10.72,10.94-14.75,8-6.49,16.42-12.61,23.44-20.27.44,0,1.19.07,1.27-.12.56-1.27,2.68-.05,2.67-1.38s-1.78-1.28-2.77-1.64c-7.71-2.85-14.1-7.58-19.84-13.35C863.9,373,851,360.12,838.13,347.22a24.17,24.17,0,0,0-4.63-3.71q-18.9-11.26-37.84-22.5c-7.47-4.45-14.83-8.78-20.42-15.95a58.87,58.87,0,0,0-18.4-15.93c-.92-.49-2.09-1.36-2.82-.69s-.41,2.19,0,3.32c.49,1.51,2.23,2.5,1.82,4.39-4.25-3.77-8.47-7.58-12.78-11.28-3.26-2.8-3.33-2.74-4.89,1.14-10.28,25.45-13.56,52.16-14.45,79.32-.61,19,2.08,37.66,4.6,56.37a9.32,9.32,0,0,0-4.78.77,115.81,115.81,0,0,0-22.09,11.28c-7.28,4.77-15,8-23.69,8.2s-17.43.19-26.12-1.28c-16.12-2.71-31.38-7.56-45.44-16.1-21.54-13.09-40.65-29.25-58.48-46.85-17.1-16.87-35.18-32.25-56.15-44.1a242.29,242.29,0,0,0-50.46-21.32c-12.5-3.7-25.35-5.78-38.14-8.13a346.54,346.54,0,0,0-46-5.12c-6.86-.32-13.69.6-20.52,1.25-20,1.88-37.06,10.41-51.79,23.68-13.32,12-23.32,26.58-31.32,42.56-8.31,16.6-16.27,33.38-25,49.77-9,16.93-14.78,34.94-19.4,53.39s-8.43,37.12-11.27,56c-.61,4.06-.59,3.9-4.81,2.74C191,527.91,189.25,525.93,187.09,527.65Z"/><path class="cls-4" d="M904.65,302.52c-9.17,9.68-20.2,11.69-32.63,7.93l-3.33-1c-3.83-4.26-8.39-7.71-12.64-11.49-6.61-5.89-13.2-11.82-20-17.41-10.39-8.49-21.55-16-32.7-23.37-20.45-13.61-40.16-28.36-62.61-38.87a202.51,202.51,0,0,0-63.23-17.53c-12.57-1.46-25.1-3.32-37.58-5.4-7.8-1.29-15.15-1.61-22.85,1.4-12.24,4.79-24.86,8.62-37.33,12.81-15.19,5.11-30.07,11.75-46.76,9.45-.8-.11-1.85.56-2.41-.59,1.79-2.58,5.51-3.15,6.51-6.46l0,0c3.2-.42,5.38-2.29,7-4.92h0c1.1.12,2.09.06,2.13-1.42l0,0a1.13,1.13,0,0,0,1.43-.72l0,0,.74-.73,0,0c.63.07,1.18,0,1.43-.72l0,0,.73-.73,0,0c.63.07,1.19,0,1.44-.72l0,0,.74-.74,0,0c.66,0,1.24-.09,1.46-.85a252.81,252.81,0,0,1,65.85-30.39,15.35,15.35,0,0,1,2-.31,17.82,17.82,0,0,0,4.09-.51,197.58,197.58,0,0,1,26.9-4.47c14.58-1.58,29.07-.52,43.45,1.85a178.15,178.15,0,0,1,40.19,11.48,3.78,3.78,0,0,0,4.18-.3c7.88-5.8,15.87-11.43,23.79-17.17.65-.48,2.08-1.12,1.35-2.07-1.53-2,.26-2.44,1.25-3.11,4.53-3.06,9.13-6,13.7-9,.75-.49,1.81-.71,1.73-1.94l0,0c1.6,0,3.1-.2,3.54-2.14l0,0c.61,0,1.22,0,1.45-.73l-.05,0c.61,0,1.21,0,1.46-.73l-.06,0c.62,0,1.21-.07,1.51-.73a8.33,8.33,0,0,1,3.07-2.23c20.4-9.79,41-19,63.26-23.91a210.89,210.89,0,0,1,27.9-4.14,167.58,167.58,0,0,1,31,.29,196.42,196.42,0,0,1,52.22,13.22c22.32,8.83,41.81,22.51,61.61,35.62a607.4,607.4,0,0,1,56.94,43.37c12.89,10.93,25.57,22.07,37.84,33.69.93.87,1.73,1.88,2.59,2.82l.75.87,0,0,.75.75-.05-.05.75.75,0-.05.75.75,0,0,.76.75,0-.05.75.75,0,0,.75.75-.05-.05.75.75,0-.05c.87,1.33,1.74,2.64,3.51,2.86h0l.72.7h0l.72.71h0l.73.72,0,0,.74.73,0,0,.74.74,0,0,.74.74,0,0,.74.74,0,0c.25.24.5.49.74.74l0,0,.75.74-.05,0,.75.74,0,0,.75.74,0,0,.75.74,0,0,.74.74,0,0,.74.75,0-.05a1.36,1.36,0,0,0,.73,1.44l0,0,.73.72,0,0c.25.24.49.48.73.73l0,0,.72.73,0,0,.72.73,0,0c.24.24.48.49.73.73l0,0,.73.73,0,0,.73.73,0,0,.73.72,0,0,.73.72,0,0,.72.72,0,0,.72.72,0,0,.72.72v0a1.24,1.24,0,0,0,1.42,1.42l0,0,.73.73,0,0c0,1,.44,1.45,1.42,1.42h0l.72.72,0,0,.73.73,0,0,1,.72c.15.17.3.33.46.49-.06.67,0,1.29.71,1.62v0l.71.71h0l.71.71h0l.71.72v0l.71.72v0l.72.72v0a2.83,2.83,0,0,0,2.81,2.81h0l.72.72v0a1.2,1.2,0,0,0,.72,1.42l0,0c.24.24.47.48.71.71h0l.71.71h0l.71.72v0c0,1.42.8,2,2.12,2.13l-.06,0,.76.75-.05-.05.75.75,0,0,.76.75,0-.05a2.42,2.42,0,0,1-1.41,2.52c-10,6.11-20.45,10.59-32.51,10.28-4-.1-7.89-.74-11.84-.75a66.77,66.77,0,0,1-33.31-9.15c-4.46-2.53-8.15-5.54-9.82-10.78a79.16,79.16,0,0,0-5.21-11.83c-10.47-20.37-24.17-38.15-42.59-52-7.09-5.32-14.24-11.15-22.76-13.51-17.1-4.74-33.59-11-50.17-17.24-13.51-5.06-26.87-10.63-41-13.92-16.77-3.91-33.62-7.35-50.78-8.9-8.67-.78-17.52-1.34-26.11.15-13.48,2.33-26.88,5-41.25,6.23,6.92,5.1,13.3,9.91,19.8,14.55a74.24,74.24,0,0,1,16,15c-.08,1.05-1,1.23-1.7,1.55-8.21,3.84-16.49,7.56-24.66,11.5C813,215.14,809,216,806.28,219c-2.28.49-.48,1.29,0,1.63,3,2.21,6.1,4.3,9.12,6.49q24.09,17.4,47,36.31c12.25,10.09,23.89,20.85,35.52,31.62C900.37,297.31,903.26,299.28,904.65,302.52Z"/><path class="cls-5" d="M895.41,402.37c-7,7.67-15.41,13.79-23.44,20.28-5,4-8,9.46-10.94,14.75-3.69,6.64-8.36,11-16,12.24-4.68.75-9.2,2.48-13.83,3.56-2.89.67-3.82,3.27-5.53,5.07a22.83,22.83,0,0,0-3.82,5.39c-1.74,3.51-4.27,4.9-8.14,4.33-7-1-13.23,1.54-19.39,4.49a155.23,155.23,0,0,0-30.53,18.89c-1.44,1.16-2.71,2.54-4.42,4.15,2.6.8,4.41,2.51,6.94,2.56,4.29,3.24,8.83,6.18,12.72,9.94q0,4.38,0,8.76c0,1.09,0,2.14,1.5,2.29,2.08.21,4.14.65,6.23.7,19.24.5,38.47-.3,57.67-1.5,3.82-.24,7.66-.39,11.49-.66,11-.8,21.84-2.29,32.91-2.15,17.13.21,34.18.78,51.21,2.85a329.36,329.36,0,0,1,35.32,6c10.24,2.39,19.9,6.63,30,9.35,17,4.57,33.48,10.07,48.88,18.59,8.07,4.47,15.92,9.6,22,16.5,7.62,8.68,15.3,17.26,23.54,25.36,7.49,7.37,15.92,14.11,22,22.53s9.76,18.55,14.49,27.93c.37.73.72,1.47,1.11,2.19.21.41.46.82,1,.78.53-.78.15-1.52,0-2.3-3.68-15-7.53-30-11-45.06-3.07-13.37-7.21-26.24-14.35-38.08-1.81-3-4.07-6-4.46-9.71l2.16,1.37c1.16,3,3.63,5,5.6,7.4,6.49,7.84,12.26,16.22,18.14,24.52l11.07,17.54c2.22,4.07,4.35,8.21,6.7,12.2,3.6,6.09,6.29,12.69,10.31,18.54,2.56,7,6.23,13.52,9.47,20.21,9.38,19.44,17.76,39.21,22.37,60.4a219.35,219.35,0,0,1,3.79,22.63c-2,3-2.61,6.43-4,9.63-2.72,6.49-5.71,12.78-11,17.66-7.15,6.6-20.49,2.65-22.84-6.81-1.84-7.4-2.13-14.94-2-22.52a9.69,9.69,0,0,0-.72-4.43q-14.13-30.27-28.19-60.57c-6.8-14.58-13.64-29.15-20.4-43.75a22.15,22.15,0,0,0-2.78-4.81c-8.73-10.77-17.61-21.4-28.26-30.4-9.75-8.25-20-15.68-32.36-19.59-24.94-7.91-50.09-15-75.87-19.81a488.8,488.8,0,0,0-56.59-7.34,336.79,336.79,0,0,0-37.06-.78,46,46,0,0,0-9.29,1.23c-23,5.76-45.92,11.67-69.68,13.54-13.2,1-26.28,1.07-39.16-2.27-7.18-1.86-13.87-4.77-18.55-11-5.53-7.35-6.73-15.58-5.54-24.49.35-2.64,1.48-5.32.68-8.44-1.79.88-3.33,1.66-4.89,2.4-7.9,3.74-15.47,8.16-23.6,11.43a73.23,73.23,0,0,1,2.74-7.15c1.24-2.47.22-2.74-1.9-2.62-11.28.65-21.05,4.61-29,12.82-6.64,6.85-10.83,15.09-14.1,23.92-.73,1.95-.39,3.92-.65,5.87-1.58.42-2.45,1.75-3.49,2.82a104.83,104.83,0,0,1-17.64,14.79c-4.29,2.8-8.61,5-14,2.91-1.58-.62-3.42-.56-5.14-.86-10.14-1.74-10.11-1.75-13.44-11.61-1.52-4.52-2.35-9.36-4.82-13.46-4-6.57-8.24-13-12.63-19.28-10.42-15-22.24-28.71-36.66-40.06-13.19-10.38-27.68-18.07-44.36-21-4.39-.78-8.77-2.07-13.33.06-17.31,8.09-34.86,15.66-52.47,23.08a8.42,8.42,0,0,1-4.69.62,284.27,284.27,0,0,0-30.84-3.1c-2.31-.07-3.27.74-3.72,3.05-.8,4.17-1.08,8.48-2.82,12.44-1.41-7.87,1.13-14.93,4.75-21.64,5.47-10.13,13.7-17.87,22.4-25.19,5.26-4.42,10.31-9.08,15.47-13.62a3.2,3.2,0,0,0,1.2-2.06c1.18.36,2.07-.63,3.16-.68,2,4.87,6.08,7.87,10.18,10.69,11.47,7.86,24.26,8.76,37.5,6.54,6.63-1.12,13.18-2.74,19.82-3.8a254.49,254.49,0,0,1,27.32-3.06c6.69-.33,12.76.18,18.64,3.74,13.21,8,24.88,18,36.71,27.75s23.83,18.74,38.43,24.29c13.78,5.24,26.93,4.7,40.47,0,9.26-3.23,17.1-8.94,25.42-13.81,16.29-9.54,32-20,47.58-30.62,19.7-13.44,38.36-28.55,60.5-38.15,1.11-.48,2.55-.73,2.87-2.28a16.12,16.12,0,0,1,4.77-2.09c.33.41.59.33.78-.12,3.85-2.2,8.33-3.07,12-5.7,1.24.16,2.24-.48,3.32-.9,6.83-2.6,13-7,20.24-8.34Q876,406.53,895.41,402.37Zm243.74,247.08-.16-.23c-.07.07-.2.17-.19.19a1.8,1.8,0,0,0,.26.29Z"/><path class="cls-3" d="M403.06,509.32c1.74-4,2-8.27,2.82-12.44.45-2.31,1.41-3.12,3.72-3.05a284.27,284.27,0,0,1,30.84,3.1,8.42,8.42,0,0,0,4.69-.62c17.61-7.42,35.16-15,52.47-23.08,4.56-2.13,8.94-.84,13.33-.06,16.68,3,31.17,10.65,44.36,21,14.42,11.35,26.24,25.07,36.66,40.06,4.39,6.3,8.66,12.71,12.63,19.28,2.47,4.1,3.3,8.94,4.82,13.46,3.33,9.86,3.3,9.87,13.44,11.61,1.72.3,3.56.24,5.14.86,5.35,2.09,9.67-.11,14-2.91a104.83,104.83,0,0,0,17.64-14.79c1-1.07,1.91-2.4,3.49-2.82,1.21,9.55,2.35,19.11,3.67,28.65.68,4.93-1.08,9.22-3.14,13.39-9.53,19.34-18.39,39-31,56.68-6.34,8.84-13.67,16.51-23.7,21.16-4.92,2.28-10,3.18-15.16.78-1.58-.73-2.67-1.6-2.86-3.54-.54-5.31-1.31-10.59-1.88-15.89s-.59-10.48-1.59-15.58c-.74-3.78.65-7.13,1-10.62,1-9.34-.49-18.31-2.68-27.21-4.5-18.3-12.94-34.89-22.76-50.82-8.07-13.09-16.33-26.07-25.91-38.12-8.42-10.6-17.09-21-28.94-28.07-3.28-2-6.83-2.72-11.09-3.48,2.46,5.83,4.74,11.23,7,16.62.86,2,1.65,4.12,2.69,6.06,1.45,2.68.34,3.15-2.17,3.14-11.1-.07-22.2.07-33.29-.1-3-.05-4.86,1-6.12,3.57-1.57,3.26-4.46,7-3.59,9.93.94,3.12,6,2.22,9.22,2.92,10.13,2.17,19.77,5.3,27.63,12.45-.45,1,.47.48.76.67l0,0,.74.72,0,0c.1,1.83,1.28,2.22,2.83,2.12v0c-.08,1.36,1,2.05,1.76,2.86,8.84,8.91,18.06,17.46,25.89,27.31,4.38,5.52,8.83,11,12.28,17.19.69,5.19,2.72,10,3.58,15.22A73,73,0,0,1,544,640.55a99.15,99.15,0,0,1-22,39.23,128.9,128.9,0,0,1-33.88,26,464.24,464.24,0,0,1-64.22,28.15c-7.76,2.76-15.08,1.24-22.58-.3-12.51-2.57-25.09-4.92-37-9.81-7.3-3-13.16-8.31-19.63-12.63-12.38-8.27-24.57-16.83-36.89-25.19-1.23-.83-2-2.34-4-2.66.45,2.7,2.63,4.13,4.06,5.76,6.26,7.2,12.08,14.79,19,21.39,2.73,2.59,2.55,2.92-1.1,4-4.21,1.22-8.6,1.84-12.59,3.79-3.18-3.69-5.42-8-8.28-11.92-.78-1.06-1.12-2.63-2.81-2.79-5.82-9.18-8.94-19.11-8.28-30.06a7.2,7.2,0,0,0-1.18-4.59c-5-7.77-8.44-16.3-11.61-24.94.79-.51.39-1.13.28-1.82-.72-4.42-1.62-8.83-1.61-13.34,0-5.9,1.8-11.55,2.71-17.32a81.36,81.36,0,0,1,10.36-18.12c.77-1,.81-1,1.75-.11.43,8.57,1.14,17.07,3.26,25.46,5.52,21.84,19.62,34.44,41.28,39.2,18,4,36.44,5.17,54.66,7.74,5.78.81,11.28,1.93,16.08,5.73,4.09,3.24,8.65,5.89,13,8.78a11.64,11.64,0,0,0,14.43-1.38c5.12-5.24,6.27-11.53,4.85-18.63-1.36-6.74-5.14-12.12-8.9-17.58l.09-.08c1.93-.11,3.62.69,5.37,1.34,11.93,4.42,23.38,9.91,34.87,15.33.81.38,1.57,1,2.62.47,4.21-2,8.32-4.16,11.16-8.13,6.19-8.64,8.39-18.5,9-28.88.25-3.93.22-8,1.19-11.75a51.17,51.17,0,0,0-.71-28.89c-3.68-11.52-10.17-21.44-18.25-30.29-2.56-2.8-4.44-6.35-8-8.23-3.81-2-7.64-4-11.42-6.09-6.39-3.5-12.74-7.06-19.11-10.6l.18-.7h7.61a152.1,152.1,0,0,0-31.72.35c-3.86.5-5.11-.82-6.71-3.53-1.49-2.5-2.1-5.67-5-7.25A9.68,9.68,0,0,1,403.06,509.32Z"/><path class="cls-5" d="M1783.67,357.82c6.73.85,13,3.57,19.55,5.07,1.82.42.88,1.41.14,2.25-3.23,3.67-6.33,7.46-9.69,11-9.07,9.57-17.73,19.52-27.24,28.65a160.52,160.52,0,0,1-19.14,16.27c-3.81,2.66-7.76,4-12.78,2.83-20.83-4.73-41.8-8.88-62.64-13.58a140.16,140.16,0,0,1-25.86-8.46,19.69,19.69,0,0,1-6-4.21c-9-9-18.17-17.86-26.93-27.08-11.1-11.68-24.49-19.58-39.35-25.31-15.51-6-31.65-9.17-48.07-11.29a388.66,388.66,0,0,0-40.34-2.85c-12.7-.31-25,1.86-37.29,4.56-7.82,1.73-15.61,3.57-23.41,5.35a13.11,13.11,0,0,1-2.75-.37c-11.78-4.08-23.91-6.7-36.15-9-18.53-3.56-37.14-6-56-6h-2.51c6.74-3.74,13.62-6.59,20.24-9.94,5.4-2.74,11.06-3.17,16.89-3.41q10.28-.44,20.52-1.44c11.79-1.15,23.61-2,35.43-2.77,6.72-.45,13.46-.91,20.16-1.55a122.79,122.79,0,0,1,32.33,1.18c12.37,2.08,24.52,5.21,36.75,8,6.63,1.51,13.58,1.57,20.37,2.4,9,1.11,17.91,2.49,27,2.78,9.77.32,17.44-3.07,23.62-10.47,2.77-3.33,3.28-6.09,1.2-9.92-1.12-2.06-2.39-4.17-4.38-5.39-6.53-4-12.72-8.72-19.83-11.65-10.66-4.4-21.55-8.22-32.23-12.56-4.13-1.68-8.84-2.19-12.25-5.49a228.44,228.44,0,0,0,25-13.24,51.32,51.32,0,0,0,14.89-14,330.3,330.3,0,0,1,30.61-37.31c.85-.88,1.48-2.18,3-2.14.09,1.36-1,2-1.74,2.88-4.22,5-8.33,10-12.68,14.87-2.18,2.43-1.39,4.34.34,6.35a33.32,33.32,0,0,0,12.34,9c19.33,8.07,39.24,13.1,60.45,10.48a45.74,45.74,0,0,0,26.11-12.11c6-5.51,9.54-12.6,13.57-19.37a81.14,81.14,0,0,0,8.67-20.55c.57-2.11-.05-4.71,2.18-6.26,1.93,7,3.8,14.22,4.2,21.45a98.78,98.78,0,0,1-4.19,35.86c-2.25,7-5.9,13.3-13.92,15.34a49.83,49.83,0,0,1-11.7,1.73c-8,.08-16.1.25-24.1-.72-6.11-.74-12.31-1.16-18.25-2.61-10.08-2.45-20-4.9-30.56-3.72a39.91,39.91,0,0,0-20.47,8.14c-.78.62-2,1.28-1.8,2.39.25,1.27,1.78.91,2.68,1.11q23.83,5.16,47.72,10.11c3.62.75,7.16,2.08,11,1.79a24.73,24.73,0,0,0-3.26-1.14c-4.7-1.6-9.82-1.77-14.28-4.17a14.16,14.16,0,0,1,2.44.14c16,3.65,32.34,5.44,48.5,8.27,26.6,4.65,51.22,13.71,72.45,30.86,0,1.19,0,2.38,0,3.57a18.48,18.48,0,0,1-3.08-.49c-11.34-3.74-21.68-9.63-32.32-14.91-7.07-3.52-13.53-8.34-21.29-10.4-7.19-1.9-14.41-3.71-21.67-5.29-3.78-.83-7.41-2.49-11.41-2.36a6.61,6.61,0,0,0,2.16,1.07,246,246,0,0,1,37.43,13.39c13.84,6.35,26.72,14.07,38,24.46,6.43,5.91,12.29,12.41,19,18,2.07,1.72,4.82,3,5.88,5.78-1.4.22-2.43-.69-3.56-1.24-6.7-3.32-13.44-6.56-20-10a54.63,54.63,0,0,0-13.08-4.74c-7.92-1.86-15.8-3.88-23.68-5.92-9.7-2.51-19.34-5.23-29.54-3.16-6.23,1.26-12.2,3.41-15.76,8.83-6.07,9.23-6.9,19.38-2.77,29.64,3.55,8.84,10.91,13.64,19.37,17.05,7.71,3.12,15.79,4.68,24,5.94,11.36,1.76,22.78,2.94,34.25,3.76,15.31,1.08,29.92-3.48,44.81-5.64C1778.66,374.65,1784.37,368.86,1783.67,357.82Zm-145.34-82.23a6.07,6.07,0,0,0,1.06.2c.2,0,.4-.17.6-.26-.26-.52-.74-.39-1.15-.35C1638.69,275.19,1638.56,275.4,1638.33,275.59Z"/><path class="cls-2" d="M187.09,527.65c2.16-1.72,3.94.26,5.77.76,4.22,1.16,4.2,1.32,4.81-2.74,2.84-18.85,6.65-37.5,11.27-56s10.41-36.46,19.4-53.39c8.7-16.39,16.66-33.17,25-49.77,8-16,18-30.55,31.32-42.56,14.73-13.27,31.75-21.8,51.79-23.68,6.83-.65,13.66-1.57,20.52-1.25a346.54,346.54,0,0,1,46,5.12c12.79,2.35,25.64,4.43,38.14,8.13a242.29,242.29,0,0,1,50.46,21.32c21,11.85,39.05,27.23,56.15,44.1,17.83,17.6,36.94,33.76,58.48,46.85,14.06,8.54,29.32,13.39,45.44,16.1,8.69,1.47,17.39,1.5,26.12,1.28s16.41-3.43,23.69-8.2a115.81,115.81,0,0,1,22.09-11.28,9.32,9.32,0,0,1,4.78-.77c2.57,11.63,5.34,23.22,7.39,35-5.77,3.16-12.15,4.32-18.47,5.71-3.44-5-6.87-10-10.66-15.55l-4.78,19a21,21,0,0,1-3.24,1.24c-9.94,2.1-20,1.95-29.95.64-19-2.48-37.42-7.55-55.59-13.51-25.21-8.28-49.67-18.92-75.85-24.15-11.79-18.56-21.6-38.45-36.94-55.66a231.17,231.17,0,0,0-4.7,28.94c-1,.19-1.2,1-1.21,1.82-.06,3.64-1.48,6.35-5,7.9-7.41,3.28-10.15,10.3-13.35,16.92-4.71,2-9.48,3.82-13.85,6.52-1-.72-.49-1.59-.34-2.51,1.64-9.72,3.09-19.36,1.81-29.37-2.16-16.83-8.58-31.24-21.49-42.52-.89-.78-1.66-1.65-3-1.5,1.62-7.53,4.79-14.57,7-21.93.7-2.34,1.53-4.65,2.4-6.94.71-1.86.62-3.06-1.43-4.21a127.45,127.45,0,0,0-51.31-16.11c-29.69-2.69-57.28,5-84.28,16.42-45,19.08-69.23,54.53-80.1,100.61-6.19,26.24-7.2,53-5.42,79.71,2.35,35.37,10.11,69.78,20.39,103.65a11.51,11.51,0,0,1,.64,3.77q-5.37-7.75-10.75-15.51c-13.76-19.73-27.57-39.42-41.24-59.21C192.1,536.63,189.72,532.06,187.09,527.65Z"/><path class="cls-6" d="M842.78,200.42a74.24,74.24,0,0,0-16-15c-6.5-4.64-12.88-9.45-19.8-14.55,14.37-1.22,27.77-3.9,41.25-6.23,8.59-1.49,17.44-.93,26.11-.15,17.16,1.55,34,5,50.78,8.9,14.13,3.29,27.49,8.86,41,13.92,16.58,6.2,33.07,12.5,50.17,17.24,8.52,2.36,15.67,8.19,22.76,13.51,18.42,13.86,32.12,31.64,42.59,52a79.16,79.16,0,0,1,5.21,11.83c1.67,5.24,5.36,8.25,9.82,10.78a66.77,66.77,0,0,0,33.31,9.15c4,0,7.87.65,11.84.75,12.06.31,22.51-4.17,32.51-10.28a2.42,2.42,0,0,0,1.41-2.52c9.85,10.37,18.79,21.51,27.94,32.49,1,1.21.86,2.59,1,3.95a11.72,11.72,0,0,0-5.87,1.5,4,4,0,0,1-.49,0,21.29,21.29,0,0,0-3.49.12c-8.74,1.68-17.45,3.52-26.21,5.13-3.62.67-7.42,2.75-10.88,1.51a68,68,0,0,0-17.24-3.7c-6.69-.56-13.15-.27-18.8,4-3.23,2.31-6.75,4.26-9.06,7.66l-.71.73,0,0c-1.79,1.43-3.5,2.8-5.91,3.32-15.94,3.45-31.7,7.6-47.37,12.11-.14-.56-.23-1.14-.41-1.69-6.85-21.51-17.34-41.22-29.9-59.89-12.35-18.36-26.71-35.07-41.71-51.27-13.33-14.41-28-27-45.59-36.12-23.83-12.31-49.05-16.45-75.62-13.16C857.83,197.37,850.37,199.28,842.78,200.42Z"/><path class="cls-4" d="M1513,265.35c3.41,3.3,8.12,3.81,12.25,5.49,10.68,4.34,21.57,8.16,32.23,12.56,7.11,2.93,13.3,7.63,19.83,11.65,2,1.22,3.26,3.33,4.38,5.39,2.08,3.83,1.57,6.59-1.2,9.92-6.18,7.4-13.85,10.79-23.62,10.47-9.1-.29-18-1.67-27-2.78-6.79-.83-13.74-.89-20.37-2.4-12.23-2.79-24.38-5.92-36.75-8a122.79,122.79,0,0,0-32.33-1.18c-6.7.64-13.44,1.1-20.16,1.55-11.82.79-23.64,1.62-35.43,2.77q-10.23,1-20.52,1.44c-5.83.24-11.49.67-16.89,3.41-6.62,3.35-13.5,6.2-20.24,9.94h2.51c18.9,0,37.51,2.46,56,6,12.24,2.35,24.37,5,36.15,9a13.11,13.11,0,0,0,2.75.37c4.58,2.38,9.56,3.77,14.37,5.57a22.71,22.71,0,0,1,3.78,1.58c.17.76.72,1,1.4,1.36A210,210,0,0,1,1507.56,395c3.16,3.28,6.86,6.25,9,10.5v0c-1.63-.06-2.39-1.38-3.33-2.36a130.13,130.13,0,0,0-40.89-28.85,89.36,89.36,0,0,0-30-7.41c-6.26-.47-12.5-1.12-18.77-1.51-10.89-.68-21.76-1.73-32.63-2.66-7.29-.63-14.56-1.35-21.85-2-7-.6-13.91-1.13-20.85,0-9.64,1.64-19.4,2.14-29.13,2.55a147.93,147.93,0,0,1-37.78-3.3c-18.71-4.06-37.83-6.24-56.14-12.11-8-2.55-16.18-4.51-23.4-9,.92-2.47,3.64-.53,5-2a25.62,25.62,0,0,0,2.78-.23c11.61-2.14,23.23-4.14,35-5.52,4.08-.47,8.13-1.21,12.86-1.93-4.41-3.06-8.67-5.19-11.91-8.89,4.49-1.84,9.22-1.34,13.38-3.21l0,.06c1.17-.06,2.44.32,3.37-.77,9.58-2.48,19.41-3.68,29.17-5.11,22.79-3.33,43.63-12.89,65.19-20.09,12.15-4.06,24.33-7.55,37.09-9.19a143,143,0,0,1,44,1.39c5.08.92,10.2-.45,15.3-.81,6.12-.43,12.21-1.35,18.34-1.8a25.43,25.43,0,0,0,7.79-1.64Z"/><path class="cls-4" d="M168.13,432.78c-1.22.59-1.81,2-3.23,2.34-.05-8,2.17-15.64,4.44-23.18,8.75-29,22.33-55.71,38-81.48a23.9,23.9,0,0,1,2.45-2.91l.56-.59-.05.05.74-.74,0,0a3.38,3.38,0,0,0,2.12-2.84l0,0a15.68,15.68,0,0,0,2.07-1.82,247.32,247.32,0,0,1,25.73-27.94,291.16,291.16,0,0,1,33.29-26.45c3.72-2.53,7.92-4.38,11.16-7.62l0,0,.74-.74,0,0a1.53,1.53,0,0,0,1.58-.76c1.24-2.09,3.64-2.42,5.52-3.41,24.23-12.69,49.08-23.78,76.25-28.57a181.15,181.15,0,0,1,46.29-1.74c22.52,1.84,43.45,8.86,63.48,18.93,4.05,2,8,4.29,11.92,6.61,1.71,1,2.79.91,4.15-.6,2.71-3,5.64-5.81,8.47-8.7,1.43.18,2.11,1.38,3,2.26q14,14,28,28c1.68,1.68,3.45,3.13,5.89,3.46,4.93,2.9,7.24,7.86,9.89,12.55-.1.76-.2,1.51-.31,2.27-2.79.93-2.11,2.27-.39,3.64,8.47,6.76,16.86,13.63,25.47,20.2,9.85,7.52,18.25,16.27,24.39,27.09A24.11,24.11,0,0,1,602.68,357c-.46,2.41-1.5,3.39-4.15,2.24a51.79,51.79,0,0,1-10.26-5.93c-12.4-9.21-23.55-19.8-34.38-30.77a14.75,14.75,0,0,0-3.47-2.91Q531.13,309.35,511.85,299c-24.89-13.3-51.13-23.28-78.12-31.29-20.49-6.08-40.8-12.78-62.4-14.58-17.43-1.46-34.81-3-52.31-2.52a18.47,18.47,0,0,0-9.94,2.87q-8,5.31-16,10.75c-11.43,7.85-22.25,16.58-33.94,24a28.49,28.49,0,0,0-7.19,6c-4,4.9-7.86,9.83-12,14.55-12.75,14.48-22.48,30.78-30.33,48.37-8.22,18.4-16.26,36.91-27.9,53.59C176.82,417.85,172,425,168.13,432.78Z"/><path class="cls-6" d="M404.53,515.61c2.86,1.58,3.47,4.75,5,7.25,1.6,2.71,2.85,4,6.71,3.53a152.1,152.1,0,0,1,31.72-.35h-7.61l-.18.7c6.37,3.54,12.72,7.1,19.11,10.6,3.78,2.08,7.61,4.07,11.42,6.09,3.53,1.88,5.41,5.43,8,8.23,8.08,8.85,14.57,18.77,18.25,30.29a51.17,51.17,0,0,1,.71,28.89c-1,3.78-.94,7.82-1.19,11.75-.66,10.38-2.86,20.24-9,28.88-2.84,4-7,6.1-11.16,8.13-1.05.5-1.81-.09-2.62-.47-11.49-5.42-22.94-10.91-34.87-15.33-1.75-.65-3.44-1.45-5.37-1.34l-.34-.26.25.34c3.76,5.46,7.54,10.84,8.9,17.58,1.42,7.1.27,13.39-4.85,18.63a11.64,11.64,0,0,1-14.43,1.38c-4.37-2.89-8.93-5.54-13-8.78-4.8-3.8-10.3-4.92-16.08-5.73-18.22-2.57-36.64-3.77-54.66-7.74-21.66-4.76-35.76-17.36-41.28-39.2-2.12-8.39-2.83-16.89-3.26-25.46,3-1.89,5-4.81,7.48-7.21a179,179,0,0,1,14.17-13c12,15.43,24.86,30,40.65,41.7,8,6,16.54,11.23,26.7,12.28,14.45,1.51,29,2.35,43.47,3.57,7.86.66,15.84.51,23.48,3,5.76,1.86,10.42.16,13.91-4.81,2.55-3.64,3.14-8,4.77-12,3.67-8.94,6-18.19,4-27.93s-6.1-18.92-15-24.19c-16.37-9.66-33.18-18.58-49.71-28-3.92-2.22-8.21-3.88-11.56-7,3.76-.72,7.5-1.55,11.29-2.13,1.95-.3,2.07-.79,1-2.35C407.15,522.26,405,519.34,404.53,515.61Z"/><path class="cls-4" d="M396.89,529.69c3.35,3.15,7.64,4.81,11.56,7,16.53,9.39,33.34,18.31,49.71,28,8.95,5.27,13,14.32,15,24.19s-.35,19-4,27.93c-1.63,4-2.22,8.34-4.77,12-3.49,5-8.15,6.67-13.91,4.81-7.64-2.48-15.62-2.33-23.48-3-14.49-1.22-29-2.06-43.47-3.57-10.16-1-18.69-6.33-26.7-12.28-15.79-11.7-28.67-26.27-40.65-41.7a142,142,0,0,1,23.38-19.27,176.5,176.5,0,0,1,55.24-23.86A20,20,0,0,1,396.89,529.69Z"/><path class="cls-4" d="M1695.83,183.9c-2.23,1.55-1.61,4.15-2.18,6.26a81.14,81.14,0,0,1-8.67,20.55c-4,6.77-7.59,13.86-13.57,19.37a45.74,45.74,0,0,1-26.11,12.11c-21.21,2.62-41.12-2.41-60.45-10.48a33.32,33.32,0,0,1-12.34-9c-1.73-2-2.52-3.92-.34-6.35,4.35-4.84,8.46-9.9,12.68-14.87.74-.87,1.83-1.52,1.74-2.88v.05l.72-.72,0,0,.72-.72,0,0,.72-.72,0,0,.73-.72,0,0c.24-.24.49-.48.73-.73l0,0,.73-.73,0,0c.25-.24.49-.49.73-.73l0,0,.74-.73,0,0,.74-.74,0,0,.74-1c6.55-7,14.73-11.68,23.13-16a144.74,144.74,0,0,1,34.14-13.05,86.66,86.66,0,0,1,36-.72c3.44.66,7.08.3,9.8,3.1-.18,2.87-.11,5.74-.38,8.62C1696,176.8,1694.85,180.32,1695.83,183.9Z"/><path class="cls-4" d="M1783.67,357.82c.7,11-5,16.83-14.71,18.23-14.89,2.16-29.5,6.72-44.81,5.64-11.47-.82-22.89-2-34.25-3.76-8.17-1.26-16.25-2.82-24-5.94-8.46-3.41-15.82-8.21-19.37-17.05-4.13-10.26-3.3-20.41,2.77-29.64,3.56-5.42,9.53-7.57,15.76-8.83,10.2-2.07,19.84.65,29.54,3.16,7.88,2,15.76,4.06,23.68,5.92a54.63,54.63,0,0,1,13.08,4.74c6.6,3.49,13.34,6.73,20,10,1.13.55,2.16,1.46,3.56,1.24l2.93.14c5.81,2.9,11.38,6.32,17.76,7.92C1778.21,352.5,1781.91,354.22,1783.67,357.82Z"/><path class="cls-6" d="M537,212c-1,3.31-4.72,3.88-6.51,6.46.56,1.15,1.61.48,2.41.59,16.69,2.3,31.57-4.34,46.76-9.45,12.47-4.19,25.09-8,37.33-12.81,7.7-3,15.05-2.69,22.85-1.4,12.48,2.08,25,3.94,37.58,5.4a202.51,202.51,0,0,1,63.23,17.53c22.45,10.51,42.16,25.26,62.61,38.87,11.15,7.42,22.31,14.88,32.7,23.37,6.85,5.59,13.44,11.52,20,17.41,4.25,3.78,8.81,7.23,12.64,11.49,0,1.43-1,2-2.12,2.48-4.55,2-9.23,3-14.24,2.07-1.81-.35-3.7-.31-5.55-.48-4.32-.39-7-3.62-9.88-6.18-15.36-13.69-31.82-26.09-46.56-40.55-15.77-15.46-32.56-29.89-51.06-42.12-12.48-8.25-25.53-15.39-40.24-18.95-10.82-2.62-21.34-1.52-31.91,1.81-16.42,5.16-32.92,10.1-49.54,14.55-7,1.87-14.4,2.3-21.63,3.25-9.77,1.28-19.7,1.75-29.3,3.78-14.64,3.1-28.84,1.5-43.09-1.81-1.57-.36-3.13-.81-4.7-1.22C524.68,221.06,530.28,215.77,537,212Z"/><path class="cls-2" d="M1742.26,308.73c-21.23-17.15-45.85-26.21-72.45-30.86-16.16-2.83-32.49-4.62-48.5-8.27a14.16,14.16,0,0,0-2.44-.14l.05,0c-1-1.09-2.41-.49-3.57-.88-4.26-1.83-9.08-1.43-13.33-3.34-1.86-3.31-4.92-3.6-8.23-3.26l-3.81-.55a19.55,19.55,0,0,1,1.79-1A59.86,59.86,0,0,1,1620,256a117.33,117.33,0,0,1,24.28,4.27c13.08,3.82,26.25,7.32,40.07,6.39,14.22-.95,25.51-6.94,32.14-20,7.09-14,7.62-29,6.39-44.27-.31-3.76-.28-7.55-.4-11.33,7.92,13,11.09,27.55,13.46,42.3,3.15,19.64,4,39.46,4.15,59.33,0,4.51,1.74,8.65,2.53,13C1742.79,306.71,1743.86,307.9,1742.26,308.73Z"/><path class="cls-3" d="M1602,265.28c4.25,1.91,9.07,1.51,13.33,3.34.91,1.44,2.35.68,3.57.88l-.05,0c4.46,2.4,9.58,2.57,14.28,4.17a24.73,24.73,0,0,1,3.26,1.14c-3.81.29-7.35-1-11-1.79q-23.88-4.94-47.72-10.11c-.9-.2-2.43.16-2.68-1.11-.22-1.11,1-1.77,1.8-2.39a39.91,39.91,0,0,1,20.47-8.14c10.52-1.18,20.48,1.27,30.56,3.72,5.94,1.45,12.14,1.87,18.25,2.61,8,1,16.06.8,24.1.72a49.83,49.83,0,0,0,11.7-1.73c8-2,11.67-8.3,13.92-15.34a98.78,98.78,0,0,0,4.19-35.86c-.4-7.23-2.27-14.4-4.2-21.45-1-3.58.17-7.1.49-10.61.27-2.88.2-5.75.38-8.62,11.58,5.88,20.84,14.05,25.77,26.42.12,3.78.09,7.57.4,11.33,1.23,15.25.7,30.28-6.39,44.27-6.63,13.07-17.92,19.06-32.14,20-13.82.93-27-2.57-40.07-6.39A117.33,117.33,0,0,0,1620,256a59.86,59.86,0,0,0-28.22,4.4,19.55,19.55,0,0,0-1.79,1l3.81.55C1596,264.54,1599.14,264.54,1602,265.28Z"/><path class="cls-3" d="M439.12,360.59c1.33-.15,2.1.72,3,1.5,12.91,11.28,19.33,25.69,21.49,42.52,1.28,10-.17,19.65-1.81,29.37-.15.92-.67,1.79.34,2.51A110.83,110.83,0,0,0,450,446.13c-1.09.05-2,1-3.16.68-8.08-19.67-12.27-40.1-11.31-61.4C435.94,377.05,436.55,368.66,439.12,360.59Z"/><path class="cls-5" d="M1258.8,317.11c-4.16,1.87-8.89,1.37-13.38,3.21,3.24,3.7,7.5,5.83,11.91,8.89-4.73.72-8.78,1.46-12.86,1.93-11.73,1.38-23.35,3.38-35,5.52a25.62,25.62,0,0,1-2.78.23c-.73-2.73-2.71-4.77-3.93-7.22-.88-1.79-2.22-2.16-4-1.93a11.72,11.72,0,0,1,5.87-1.5c14.25-2.55,28.49-5.14,42.75-7.62C1251.21,318,1254.92,316.88,1258.8,317.11Z"/><path class="cls-3" d="M1757.93,341.72l-2.93-.14c-1.06-2.82-3.81-4.06-5.88-5.78-6.73-5.62-12.59-12.12-19-18-11.31-10.39-24.19-18.11-38-24.46a246,246,0,0,0-37.43-13.39,6.61,6.61,0,0,1-2.16-1.07c4-.13,7.63,1.53,11.41,2.36,7.26,1.58,14.48,3.39,21.67,5.29,7.76,2.06,14.22,6.88,21.29,10.4,10.64,5.28,21,11.17,32.32,14.91a18.48,18.48,0,0,0,3.08.49,3.66,3.66,0,0,1,1.61,2.85A46.67,46.67,0,0,0,1757.93,341.72Z"/><path class="cls-6" d="M302.14,703.52c1.69.16,2,1.73,2.81,2.79,2.86,3.9,5.1,8.23,8.28,11.92a194.9,194.9,0,0,0,71.88,55.84,204.17,204.17,0,0,0,32.5,11.63c1.3.35,3.21-.12,3.8,1.85-18.13-3.64-35.66-9.07-52.22-17.41a150.36,150.36,0,0,1-65.35-62.82C303.18,706.11,302.7,704.79,302.14,703.52Z"/><path class="cls-6" d="M782.43,144.67c.08,1.23-1,1.45-1.73,1.94-4.57,3-9.17,6-13.7,9-1,.67-2.78,1.11-1.25,3.11.73,1-.7,1.59-1.35,2.07-7.92,5.74-15.91,11.37-23.79,17.17a3.78,3.78,0,0,1-4.18.3,178.15,178.15,0,0,0-40.19-11.48c-14.38-2.37-28.87-3.43-43.45-1.85l0-1.23A157.05,157.05,0,0,1,734.38,176c2.2.95,3.42.66,5.14-.91A227.74,227.74,0,0,1,779,146.24C780.06,145.61,781.07,144.73,782.43,144.67Z"/><path class="cls-6" d="M285.35,259.66c-3.24,3.24-7.44,5.09-11.16,7.62a291.16,291.16,0,0,0-33.29,26.45,247.32,247.32,0,0,0-25.73,27.94,15.68,15.68,0,0,1-2.07,1.82c-.41-1.53.83-2.35,1.54-3.32,18.3-24.93,41.42-44.36,68.12-59.7C283.55,260,284.32,259.39,285.35,259.66Z"/><path class="cls-6" d="M282.45,611.45c-.91,5.77-2.69,11.42-2.71,17.32,0,4.51.89,8.92,1.61,13.34.11.69.51,1.31-.28,1.82C274.43,632.8,276.1,622,282.45,611.45Z"/><path class="cls-5" d="M652.76,163.74l0,1.23a197.58,197.58,0,0,0-26.9,4.47,17.82,17.82,0,0,1-4.09.51A129.36,129.36,0,0,1,652.76,163.74Z"/><path class="cls-6" d="M544.05,207.08c-1.65,2.63-3.83,4.5-7,4.92A17.78,17.78,0,0,1,544.05,207.08Z"/><path class="cls-5" d="M1168.09,281.4a2.83,2.83,0,0,1-2.81-2.81A3.68,3.68,0,0,1,1168.09,281.4Z"/><path class="cls-6" d="M786,142.56c-.44,1.94-1.94,2.13-3.54,2.14A6,6,0,0,1,786,142.56Z"/><path class="cls-6" d="M213.12,323.46A3.38,3.38,0,0,1,211,326.3C211,324.85,211.5,323.72,213.12,323.46Z"/><path class="cls-5" d="M1135.81,247.78c-1.77-.22-2.64-1.53-3.51-2.86C1134,245.2,1134.81,246.62,1135.81,247.78Z"/><path class="cls-5" d="M1173.71,287.73c-1.32-.1-2.12-.71-2.12-2.13C1173,285.6,1173.36,286.67,1173.71,287.73Z"/><path class="cls-6" d="M546.16,205.67c0,1.48-1,1.54-2.13,1.42A2.24,2.24,0,0,1,546.16,205.67Z"/><path class="cls-5" d="M1156.18,268.79a1.24,1.24,0,0,1-1.42-1.42C1155.71,267.37,1156.06,268,1156.18,268.79Z"/><path class="cls-5" d="M1262.2,316.4c-.93,1.09-2.2.71-3.37.77C1259.78,316.16,1261,316.5,1262.2,316.4Z"/><path class="cls-5" d="M1158.28,270.89c-1,0-1.43-.46-1.42-1.42A1.51,1.51,0,0,1,1158.28,270.89Z"/><path class="cls-5" d="M1146.36,259a1.36,1.36,0,0,1-.73-1.44A1.25,1.25,0,0,1,1146.36,259Z"/><path class="cls-6" d="M287.6,258.23A1.53,1.53,0,0,1,286,259,1.5,1.5,0,0,1,287.6,258.23Z"/><path class="cls-6" d="M553.9,200.65c-.22.76-.8.87-1.46.85A1.66,1.66,0,0,1,553.9,200.65Z"/><path class="cls-6" d="M549.67,203.57c-.25.69-.8.79-1.43.72A1.07,1.07,0,0,1,549.67,203.57Z"/><path class="cls-6" d="M547.57,205a1.13,1.13,0,0,1-1.43.72A1,1,0,0,1,547.57,205Z"/><path class="cls-6" d="M551.78,202.17c-.25.69-.81.79-1.44.72A1.15,1.15,0,0,1,551.78,202.17Z"/><path class="cls-6" d="M790.22,140.47c-.3.66-.89.72-1.51.73C789,140.54,789.6,140.48,790.22,140.47Z"/><path class="cls-6" d="M788.77,141.17c-.25.71-.85.72-1.46.73A1.45,1.45,0,0,1,788.77,141.17Z"/><path class="cls-6" d="M787.36,141.87c-.23.74-.84.74-1.45.73A1.5,1.5,0,0,1,787.36,141.87Z"/><path class="cls-5" d="M1169.5,283.52a1.2,1.2,0,0,1-.72-1.42C1169.43,282.37,1169.78,282.78,1169.5,283.52Z"/><path class="cls-5" d="M1161.78,275.11c-.72-.33-.77-.95-.71-1.62C1161.53,273.93,1162,274.35,1161.78,275.11Z"/><path class="cls-5" d="M1128.14,240.77l-.75-.75Z"/><path class="cls-6" d="M548.27,204.27l-.74.73C547.47,204.45,547.82,204.31,548.27,204.27Z"/><path class="cls-5" d="M1127.44,240.07l-.75-.87Z"/><path class="cls-5" d="M1593.63,191.36l-.74,1Z"/><path class="cls-5" d="M1592.93,192.34l-.74.74A.75.75,0,0,1,1592.93,192.34Z"/><path class="cls-5" d="M1592.23,193.05l-.74.73A.71.71,0,0,1,1592.23,193.05Z"/><path class="cls-5" d="M1591.52,193.75c-.24.24-.48.49-.73.73A.67.67,0,0,1,1591.52,193.75Z"/><path class="cls-5" d="M1590.82,194.45l-.73.73A.65.65,0,0,1,1590.82,194.45Z"/><path class="cls-5" d="M1590.12,195.15c-.24.25-.49.49-.73.73A.64.64,0,0,1,1590.12,195.15Z"/><path class="cls-5" d="M1589.42,195.86l-.73.72C1588.68,196.08,1588.92,195.85,1589.42,195.86Z"/><path class="cls-5" d="M1588.71,196.56l-.72.72A.61.61,0,0,1,1588.71,196.56Z"/><path class="cls-5" d="M1588,197.26l-.72.72Q1587.26,197.23,1588,197.26Z"/><path class="cls-5" d="M1587.31,198l-.72.72C1586.56,198.18,1586.81,197.94,1587.31,198Z"/><path class="cls-6" d="M552.48,201.46l-.74.74C551.74,201.7,552.06,201.54,552.48,201.46Z"/><path class="cls-6" d="M550.37,202.87l-.73.73C549.59,203.06,549.93,202.91,550.37,202.87Z"/><path class="cls-5" d="M1148.46,261.09l-.72-.73C1148.23,260.35,1148.47,260.59,1148.46,261.09Z"/><path class="cls-5" d="M1149.16,261.79l-.72-.73C1148.93,261.05,1149.16,261.31,1149.16,261.79Z"/><path class="cls-5" d="M1149.87,262.49c-.25-.24-.49-.49-.73-.73A.65.65,0,0,1,1149.87,262.49Z"/><path class="cls-5" d="M1150.57,263.19l-.73-.73A.65.65,0,0,1,1150.57,263.19Z"/><path class="cls-5" d="M1151.27,263.89l-.73-.73A.65.65,0,0,1,1151.27,263.89Z"/><path class="cls-5" d="M1152,264.59l-.73-.72A.65.65,0,0,1,1152,264.59Z"/><path class="cls-5" d="M1152.67,265.29l-.73-.72A.65.65,0,0,1,1152.67,265.29Z"/><path class="cls-5" d="M1153.37,266l-.72-.72A.65.65,0,0,1,1153.37,266Z"/><path class="cls-5" d="M1154.07,266.69l-.72-.72A.66.66,0,0,1,1154.07,266.69Z"/><path class="cls-6" d="M210.34,327l-.56.59Z"/><path class="cls-6" d="M211,326.27l-.74.74C210.34,326.56,210.48,326.21,211,326.27Z"/><path class="cls-5" d="M1154.77,267.39l-.72-.72A.66.66,0,0,1,1154.77,267.39Z"/><path class="cls-5" d="M1156.88,269.5l-.73-.73Z"/><path class="cls-6" d="M1175.82,289.85l-.76-.75Z"/><path class="cls-6" d="M1175.11,289.15l-.75-.75Z"/><path class="cls-6" d="M1174.41,288.45l-.76-.75Z"/><path class="cls-5" d="M1159,271.6l-.72-.72Z"/><path class="cls-5" d="M1171.59,285.62l-.71-.72C1171.42,284.84,1171.62,285.11,1171.59,285.62Z"/><path class="cls-5" d="M1170.89,284.91l-.71-.71C1170.74,284.12,1171,284.39,1170.89,284.91Z"/><path class="cls-5" d="M1170.19,284.21c-.24-.23-.47-.47-.71-.71C1170,283.41,1170.26,283.67,1170.19,284.21Z"/><path class="cls-5" d="M1159.68,272.31l-.73-.73Z"/><path class="cls-5" d="M1168.79,282.12l-.72-.72Z"/><path class="cls-5" d="M1160.61,273l-1-.72Z"/><path class="cls-5" d="M1165.29,278.61l-.72-.72C1165.06,277.88,1165.28,278.14,1165.29,278.61Z"/><path class="cls-5" d="M1164.58,277.91l-.71-.72C1164.37,277.17,1164.59,277.42,1164.58,277.91Z"/><path class="cls-5" d="M1163.88,277.21l-.71-.72C1163.69,276.45,1163.9,276.71,1163.88,277.21Z"/><path class="cls-5" d="M1163.18,276.5l-.71-.71C1163,275.75,1163.22,276,1163.18,276.5Z"/><path class="cls-5" d="M1162.48,275.8l-.71-.71C1162.3,275,1162.52,275.29,1162.48,275.8Z"/><path class="cls-5" d="M1128.84,241.47l-.75-.75Z"/><path class="cls-5" d="M1129.54,242.17l-.75-.75Z"/><path class="cls-5" d="M1130.25,242.87l-.76-.75Z"/><path class="cls-5" d="M1131,243.57l-.75-.75Z"/><path class="cls-5" d="M1131.65,244.27l-.75-.75Z"/><path class="cls-5" d="M1132.35,245l-.75-.75Z"/><path class="cls-5" d="M1136.52,248.48l-.72-.7Z"/><path class="cls-5" d="M1137.22,249.18l-.72-.71Z"/><path class="cls-5" d="M1137.93,249.89l-.73-.72Z"/><path class="cls-5" d="M1138.64,250.59l-.74-.73Z"/><path class="cls-5" d="M1139.34,251.29l-.74-.74Z"/><path class="cls-5" d="M1140.05,252l-.74-.74Z"/><path class="cls-5" d="M1140.75,252.69,1140,252Z"/><path class="cls-5" d="M1141.45,253.39c-.24-.25-.49-.5-.74-.74Z"/><path class="cls-5" d="M1142.16,254.09l-.75-.74Z"/><path class="cls-5" d="M1142.86,254.79l-.75-.74Z"/><path class="cls-5" d="M1143.56,255.49l-.75-.74Z"/><path class="cls-5" d="M1144.26,256.19l-.75-.74Z"/><path class="cls-5" d="M1145,256.89l-.74-.74Z"/><path class="cls-5" d="M1145.66,257.6l-.74-.75Z"/><path class="cls-6" d="M286.06,259l-.74.74C285.27,259.15,285.63,259,286.06,259Z"/><path class="cls-5" d="M1147.06,259.68l-.73-.72C1146.83,258.94,1147.06,259.2,1147.06,259.68Z"/><path class="cls-5" d="M1147.76,260.39c-.24-.25-.48-.49-.73-.73A.63.63,0,0,1,1147.76,260.39Z"/><path class="cls-5" d="M1516.52,405.52c-2.1-4.25-5.8-7.22-9-10.5a210,210,0,0,0-63.35-45.49c-.68-.32-1.23-.6-1.4-1.36,9.33,2.65,17.8,7.26,26.31,11.76,13.69,7.23,25.44,17,36.16,28.07,15.27,17.11,28.06,36,39.37,55.87,5.17,9.1,10.16,18.3,15.23,27.46,4.31,9,8.53,18.13,12.94,27.12,10,20.42,17.19,41.74,20.61,64.22a189.47,189.47,0,0,1,1.76,45.28c-.58,6.61-1.45,13.16-2.28,19.74a1.72,1.72,0,0,1-.73,1.49c-1.06-1-.55-2.13-.4-3.27.4-3.1.85-6.21,1.12-9.32a197.24,197.24,0,0,0,0-33.85c-.24-2.8-.63-5.6-1.08-9.47-3.6,7.17-6.71,13.4-9.85,19.62a9.17,9.17,0,0,1-2.36,3.39c-7.63,6-15.49,5-21.44-2.79-4.88-6.38-9.65-12.87-15.51-18.42a8.24,8.24,0,0,1-2.23-4.26,600.07,600.07,0,0,0-16.93-57.59c-3.56-10-6.85-20.13-12.62-29.12-6.23-9.71-12.81-19.21-19.21-28.81a26.89,26.89,0,0,0-7.35-7.38c-9.79-6.65-20.67-11.2-31.24-16.36-18.16-8.85-36.17-18-54.21-27.06a28.29,28.29,0,0,0-6.22-2.26c-6.34-1.48-12.7-2.83-19-4.41-15.55-3.9-31.32-6.89-46.7-11.58a180.32,180.32,0,0,0-58.49-8.12c-4.42.13-8.84.8-13.24.66-13.12-.4-26.24-1-39.3-2.57q-18-2.18-35.86-4.95c-11.92-1.85-23.74-4.26-35.83-5.15a36.53,36.53,0,0,1-19.94-7.74c-1.43-1.11-2.54-2.24-2.49-4.31.12-4.78.15-9.58,0-14.36,0-1.65,1.69-3.32,0-4.94,5.65-4.26,12.11-4.55,18.8-4a68,68,0,0,1,17.24,3.7c3.46,1.24,7.26-.84,10.88-1.51,8.76-1.61,17.47-3.45,26.21-5.13a21.29,21.29,0,0,1,3.49-.12,14.24,14.24,0,0,1-2.51,1.11c-9.47,2.24-19,4.38-28.42,6.66-1.55.37-3.42.18-4.84,1.83,3.31,2.32,6.55,4.36,9.23,7.11a2.29,2.29,0,0,0,2.22.74q13.88-3.11,27.74-6.25c7.22,4.52,15.44,6.48,23.4,9,18.31,5.87,37.43,8.05,56.14,12.11a147.93,147.93,0,0,0,37.78,3.3c9.73-.41,19.49-.91,29.13-2.55,6.94-1.17,13.9-.64,20.85,0,7.29.64,14.56,1.36,21.85,2,10.87.93,21.74,2,32.63,2.66,6.27.39,12.51,1,18.77,1.51a89.36,89.36,0,0,1,30,7.41,130.13,130.13,0,0,1,40.89,28.85c.94,1,1.7,2.3,3.33,2.36l.7.69a1.12,1.12,0,0,0,.11.25s.12,0,.18,0l-.29-.3Zm2.8,3.5.3.17-.31-.15c-.17-.25.33-1-.53-.76Z"/><path class="cls-3" d="M1145.45,603.26l-11.07-17.54c3.74-1.61,7.47-3.24,11.22-4.83,19.06-8,37.92-16.6,57.55-23.27,15.59-5.3,30.33-13.13,46.83-15.77.84-.14,2.47.24,2.55-1.19.06-1-1.13-1.7-2-2.32-6.24-4.65-12.34-9.49-18.79-13.84-5.36-3.62-10.47-7.8-16.87-9.64-6.46-4.23-13.67-6.93-20.68-10-30.7-13.57-62.36-22.89-96.4-21.5l-1.41-.08a102.41,102.41,0,0,0-23.8,0c-1-.91-2.22-.52-3.35-.54-29.17-.41-58.34.7-87.5-.66-9.77-.46-19.5-1.13-29.18-2.31-17.43-2.13-34.32-7-51.46-10.59-3-.64-3.26-2.23-2.9-4.69,1.32-9,4.24-17.58,6.29-26.39a2.12,2.12,0,0,1,1.89-1.78,3.39,3.39,0,0,0,1.23,2c16.38,14.53,36.06,21.94,57.14,26,17.46,3.38,35.22,4.56,52.89,6.28,13.41,1.3,26.88,2.11,40.34,2.84,10.68.57,21.35,1.37,32,2.09,14.15.94,28.3,2,42.45,2.76a347.93,347.93,0,0,1,46.64,5.67A318.66,318.66,0,0,1,1268,515.53a50.4,50.4,0,0,1,9.18,5.72c6.8,5.73,12.77,12.3,19.13,18.48,7.44,7.21,13.47,15.8,21.62,22.31,5.56,4.45,11.25,8.68,18.28,10.67,9.12,2.58,15.92-1.48,17.76-10.68.9-4.52,1.87-9,2.94-14.21,1.93,3.5,3.23,6.4,5,9s2.19,6.17,5.28,7.89a21,21,0,0,1,2.78,5.61,1.38,1.38,0,0,0,.62,1.43,238.43,238.43,0,0,1,24.91,70.82,159.11,159.11,0,0,1,1.67,46.36,60.57,60.57,0,0,1-1.54,6.8,5.34,5.34,0,0,0-2.47,4.71c0,3.45-1.05,6.64-2,9.86q-7.89,26.38-15.92,52.73c-2.24,7.32-4.54,14.53-9.18,21-5.43,7.53-10,15.7-14.94,23.57a185.06,185.06,0,0,1-16.19,22.18c-5.84-.93-11.66-2-17.52-2.74-2.61-.32-3.67-1.2-3.56-3.92a76.06,76.06,0,0,1,5.62-25.42c5.78-14.38,12.52-28.35,19.07-42.4,2.64-5.66,4.49-11.25,4.27-17.72-.19-5.42.35-10.92.63-16.38.76-14.74,1.8-29.47,2.68-44.21.33-5.45-1.53-10.56-2.83-15.72-4.49-17.91-8-36.09-13.83-53.66-3.13-9.38-7.92-17.33-17-22.12a47.76,47.76,0,0,1-4.32-2.95c-11.63-8-21-18.73-32.81-26.57-4.38-2.92-8.47-6.27-12.7-9.43-.23.27-.47.53-.7.79,3.07,4.07,8,6.42,10.91,10.86-.73.34-1.33.68-2,.9-26.11,8.93-52.27,17.73-78.33,26.8C1176.75,591.31,1160.41,595.44,1145.45,603.26ZM1257.07,543l.36.29-.3-.35-.36-.29Zm2.16,1.33-.37-.27.3.35c0,.87.32,1.6,1.28,1.81a.47.47,0,0,0,.61-.58C1260.84,544.66,1260.07,544.42,1259.23,544.31Z"/><path class="cls-3" d="M1121.73,334.76c1.72,1.62,0,3.29,0,4.94.17,4.78.14,9.58,0,14.36,0,2.07,1.06,3.2,2.49,4.31a36.53,36.53,0,0,0,19.94,7.74c12.09.89,23.91,3.3,35.83,5.15s23.87,3.5,35.86,4.95c13.06,1.59,26.18,2.17,39.3,2.57,4.4.14,8.82-.53,13.24-.66a180.32,180.32,0,0,1,58.49,8.12c15.38,4.69,31.15,7.68,46.7,11.58,6.32,1.58,12.68,2.93,19,4.41a28.29,28.29,0,0,1,6.22,2.26c18,9.07,36.05,18.21,54.21,27.06,10.57,5.16,21.45,9.71,31.24,16.36a26.89,26.89,0,0,1,7.35,7.38c6.4,9.6,13,19.1,19.21,28.81,5.77,9,9.06,19.14,12.62,29.12a600.07,600.07,0,0,1,16.93,57.59,8.24,8.24,0,0,0,2.23,4.26c5.86,5.55,10.63,12,15.51,18.42,5.95,7.79,13.81,8.82,21.44,2.79a9.17,9.17,0,0,0,2.36-3.39c3.14-6.22,6.25-12.45,9.85-19.62.45,3.87.84,6.67,1.08,9.47a197.24,197.24,0,0,1,0,33.85c-.27,3.11-.72,6.22-1.12,9.32-.15,1.14-.66,2.29.4,3.27l-.18,2c-1.29.44-1.52,1.16-.59,2.19-.06.67-.12,1.34-.17,2-1.62.69-1.08,2-.85,3.15-.13.61-.27,1.22-.41,1.83a1.35,1.35,0,0,0-.35,1.64c-1.18,4.57-2.23,9.18-3.58,13.7-10,33.43-26.74,63.11-49.34,89.6-6.07,7.11-12.79,13.58-19.51,20.05-1,.93-1.8,2.23-3.44,2.11.35-1.62,1.79-2.38,2.81-3.46,6.17-6.48,12.93-12.4,19.19-20.12-5.64,1.56-10.3,3.27-15.17,4.23-10.3,2-20.5,2.27-30.74-.39-2.74-.71-3.17-1.78-1.82-4.11,1.82-3.12,3.4-6.38,5.26-9.48,8.87-14.76,17.81-29.45,28.55-43,8.57-10.83,13.32-23.55,16.49-37,2.53-10.76,5.08-21.43,5.56-32.53.5-11.73-1.69-23.15-3.51-34.62-2.48-15.61-7.75-30.17-16.86-43.12-3.18-4.52-6.4-9.12-10.67-12.78-3.83-6.6-7.46-13.32-11.83-19.6-.94-1.34-1.38-3.28-3.44-3.59.24-2-1.23-3.2-2.22-4.58-5.48-7.66-11.63-14.79-17.75-21.95-1.32-1.54-2.44-1.46-3.85-.4-11.29,8.5-24.23,13.93-37.21,19-23.83,9.31-48,17.86-71.87,26.95-4.63,1.76-9.73,2.44-13.79,5.63-1.94-3.24-4.07-6.37-5.47-9.9a18.5,18.5,0,0,0,2.79-.14c14.76-3,29.12-7.09,42.29-14.68,7.68-4.42,14.35-9.94,19.07-17.55,6.21-10,6.88-19.87-.2-29.95a102.6,102.6,0,0,0-14.79-16.21c-.35-.44-1.58-.68-.57-1.45a9.47,9.47,0,0,1,2.58-1l19.2-6.78a13.28,13.28,0,0,0-1.25-1A269.1,269.1,0,0,0,1370.23,415a13.27,13.27,0,0,0-3.79-.41c-.83-.92-2-1-3.09-1.38-10.24-3.17-20.76-5.17-31.21-7.48-2.58-1.72-5.61-1.85-8.52-2.42-4.65-3.28-8.53-7.55-15-8-8.32-.56-16.48-2.59-24.92-2.52-20.09.17-40.19.06-60.28,0a25.74,25.74,0,0,1-3.83-.21c-9.74-1.52-19.46-3.14-29.21-4.6-16.28-2.45-32.59-4.74-48.87-7.19-13.65-2.06-27.28-4.26-40.91-6.4.28-3.71,1.49-7.2,2.49-10.75,2-7.26,5.54-13.88,8.89-20.58l0,0,.71-.73C1115,339,1118.5,337.07,1121.73,334.76Z"/><path class="cls-5" d="M1345.42,522.61c1.4,3.53,3.53,6.66,5.47,9.9,3.66,6.9,7.42,13.74,10.93,20.72,1.23,2.45,2.57,2.78,5,1.83,16.25-6.43,32.82-11.94,49.36-17.54.87-.3,1.81-1.32,2.89-.34-5.41,3-11.33,4.68-17,6.93-11.25,4.43-22.53,8.8-33.87,13-2.64,1-3.7,2-1.91,4.6a11,11,0,0,1,1,2.94c-3.09-1.72-3.47-5.29-5.28-7.89s-3.09-5.46-5-9c-1.07,5.18-2,9.69-2.94,14.21-1.84,9.2-8.64,13.26-17.76,10.68-7-2-12.72-6.22-18.28-10.67-8.15-6.51-14.18-15.1-21.62-22.31-6.36-6.18-12.33-12.75-19.13-18.48a50.4,50.4,0,0,0-9.18-5.72A318.66,318.66,0,0,0,1179.11,484a347.93,347.93,0,0,0-46.64-5.67c-14.15-.77-28.3-1.82-42.45-2.76-10.67-.72-21.34-1.52-32-2.09-13.46-.73-26.93-1.54-40.34-2.84-17.67-1.72-35.43-2.9-52.89-6.28-21.08-4.09-40.76-11.5-57.14-26a3.39,3.39,0,0,1-1.23-2c2.55-6.65,7-12,12.16-16.67,16.15-9.72,32-6.58,47.69,1.19.93.46,1.8,1,2.71,1.55l8.44,5.83c-.77,1.7-1.49,3.41-2.32,5.08s-.76,2.86,1.33,3.42c1.12.29,2.16.87,3.26,1.24,15.36,5.16,31.29,6.91,47.34,7.49,14,.5,27.91-.52,41.83-1.9,9.71-1,19.47-1.54,29.18-2.43,12.16-1.11,24.34-2,36.5-2.44,25.17-1,50.19.15,75,5.29,30.74,6.36,58.5,18.19,82.19,39.22,11.83,10.51,24.3,20.35,39.28,26.3.91.36,1.67,1.31,3.07.77-1.11-3-3-5.49-4.66-8.08-3-4.66-6.14-9.26-9.22-13.89,3,1,4.07,3.9,5.8,6.09C1333.11,503.32,1338.89,513.23,1345.42,522.61Z"/><path class="cls-3" d="M706,526.11c8.13-3.27,15.7-7.69,23.6-11.43,1.56-.74,3.1-1.52,4.89-2.4.8,3.12-.33,5.8-.68,8.44-1.19,8.91,0,17.14,5.54,24.49,4.68,6.24,11.37,9.15,18.55,11,12.88,3.34,26,3.31,39.16,2.27,23.76-1.87,46.69-7.78,69.68-13.54a46,46,0,0,1,9.29-1.23,336.79,336.79,0,0,1,37.06.78,488.8,488.8,0,0,1,56.59,7.34c25.78,4.81,50.93,11.9,75.87,19.81,12.35,3.91,22.61,11.34,32.36,19.59,10.65,9,19.53,19.63,28.26,30.4a22.15,22.15,0,0,1,2.78,4.81c6.76,14.6,13.6,29.17,20.4,43.75q14.1,30.28,28.19,60.57a9.69,9.69,0,0,1,.72,4.43c-.09,7.58.2,15.12,2,22.52,2.35,9.46,15.69,13.41,22.84,6.81,5.3-4.88,8.29-11.17,11-17.66,1.35-3.2,2-6.68,4-9.63l.12,3.42c-.93.83-.65,1.94-.65,3,0,10.94-.31,21.86-1.32,32.78-1.22,13.14-3.33,26-8.07,38.38-6.67,17.39-12.11,35.28-21.24,51.67a9.26,9.26,0,0,0-1.49,4.23c0,2.71-1.35,4.64-2.7,6.67l-18.88,28.13c-2.38-.35-4,.66-5.89,2.21-9.91,8.39-20.92,14.87-33.88,17.15a32.08,32.08,0,0,1-12.52-.39c-1.71-.38-2-.8-1.63-2.51a171.78,171.78,0,0,1,11.87-36.08c6.7-15.17,15.73-29.12,23.07-44,3.89-7.87,6.37-16.23,8.67-24.64a415.56,415.56,0,0,0,11.12-56.72c2.09-16.14-1-31.88-6.66-47.17-5.63-15.07-14.28-28.54-21.82-42.59-9.37-17.48-18.83-34.9-27.68-52.65-5.73-11.48-12.06-22.65-21.58-31.61a11.09,11.09,0,0,0-5.42-2.92c-31.5-7-63.09-13.71-94.46-21.26-16.15-3.88-32.17-8.3-48.53-11.25-8.79-1.59-17.67-2.53-26.57-3.39a102.62,102.62,0,0,0-24.35.55c-10.21,1.44-19.18,6.36-27.76,11.88-12.53,8.07-24.5,17-37.54,24.28-13.21,7.38-26.88,13.15-42.2,14.77-16.27,1.73-31-1.76-44.18-11.34a35.72,35.72,0,0,1-12.67-17.51,32,32,0,0,0-4.14-18.14c.45-1.67.13-3.54,1.29-5,1-.76.61-1.87.7-2.85l0,.05A75.3,75.3,0,0,0,706,526.08Z"/><path class="cls-2" d="M1145.45,603.26c15-7.82,31.3-12,47.11-17.45,26.06-9.07,52.22-17.87,78.33-26.8.64-.22,1.24-.56,2-.9-2.9-4.44-7.84-6.79-10.91-10.86.23-.26.47-.52.7-.79,4.23,3.16,8.32,6.51,12.7,9.43,11.77,7.84,21.18,18.57,32.81,26.57a47.76,47.76,0,0,0,4.32,2.95c9.06,4.79,13.85,12.74,17,22.12,5.86,17.57,9.34,35.75,13.83,53.66,1.3,5.16,3.16,10.27,2.83,15.72-.88,14.74-1.92,29.47-2.68,44.21-.28,5.46-.82,11-.63,16.38.22,6.47-1.63,12.06-4.27,17.72-6.55,14-13.29,28-19.07,42.4a76.06,76.06,0,0,0-5.62,25.42c-.11,2.72,1,3.6,3.56,3.92,5.86.73,11.68,1.81,17.52,2.74-5.27,5.4-10.56,10.78-15.78,16.22-.83.87-2.21,1.42-2.16,3-18.3,16.62-38.31,30.46-62.22,37.83-18.3,5.63-36.5,5.51-54.46-1.6a22.08,22.08,0,0,1-3.77-1.79c-3.92-2.49-4.43-5.84-1.41-9.41s7-6.11,11.12-8.39c10.48-5.87,20.86-11.92,31.52-17.44,20.15-10.45,36-25.65,49.42-43.66a242.11,242.11,0,0,0,40.71-83.3c9.75-36.61,4.7-71.36-12.31-104.8A215.41,215.41,0,0,0,1297,585.87c-.71-1-1.08-2.46-2.76-2.31-.68-2.09-2-.5-2.67-.24q-23.77,9-47.45,18.14c-1.4.54-3.3.51-4,2.34l-2,.73a9.07,9.07,0,0,0-7.15,2.76l-2,.74c-1-.89-1.33-.27-1.55.65l-4.06,1.47c-1-.89-1.29-.21-1.54.64l-2,.74c-1-.87-1.32-.26-1.55.64l-4.05,1.48c-1-.89-1.29-.19-1.54.65l-2,.73c-1-.86-1.31-.22-1.55.65l-2,.73c-1-.84-1.33-.25-1.55.66l-4,1.49c-1-.88-1.29-.19-1.54.65l-2,.73c-1-.86-1.3-.21-1.55.65l-2,.72c-1-.82-1.31-.2-1.55.67l-11.07,4.27c-1-.86-1.29-.19-1.54.65l-2,.73c-1-.83-1.31-.22-1.55.66l-2,.73c-1-.81-1.31-.2-1.55.67l-2,.74c-1-.83-1.33-.26-1.56.65l-7.55,2.92c-4-5.85-6.71-12.45-10.31-18.54C1149.8,611.47,1147.67,607.33,1145.45,603.26Z"/><path class="cls-2" d="M1559.88,471.33c-5.07-9.16-10.06-18.36-15.23-27.46-11.31-19.9-24.1-38.76-39.37-55.87,7.79,1.45,15.24,4.16,22.82,6.36,26.35,7.65,52.61,15.66,79,23.17a411.71,411.71,0,0,1,69.07,26.38c13.16,6.47,26.16,13.41,40.6,16.84a167.91,167.91,0,0,0,26.73,4.54,84.07,84.07,0,0,0,40.48-6.55,73.17,73.17,0,0,0,26.58-20c10.78-12.66,18.2-27.57,27.57-41.17,1.35-2,2.09-5.76,5.26-4.47,2.66,1.07.82,4.24.76,6.53-.19,6.81-2.64,13.19-3.76,19.81-.11.25-.21.5-.32.74s-.19.55-.29.83a114.94,114.94,0,0,1-12.5,24.18c-11.16,16.41-22.39,32.79-37.35,46.13-13.16,11.73-28,20.17-45.74,22.43-14.71,1.86-28.78-.75-42.37-6.44-21.46-9-39.56-22.92-55.66-39.33a149.75,149.75,0,0,0-47.39-32.89c-1.82-.79-3-.82-4.49.77C1582.88,447.77,1571.36,459.53,1559.88,471.33Z"/><path class="cls-2" d="M1512.85,531.05c4.27,3.66,7.49,8.26,10.67,12.78,9.11,12.95,14.38,27.51,16.86,43.12,1.82,11.47,4,22.89,3.51,34.62-.48,11.1-3,21.77-5.56,32.53-3.17,13.47-7.92,26.19-16.49,37-10.74,13.57-19.68,28.26-28.55,43-1.86,3.1-3.44,6.36-5.26,9.48-1.35,2.33-.92,3.4,1.82,4.11,10.24,2.66,20.44,2.41,30.74.39,4.87-1,9.53-2.67,15.17-4.23-6.26,7.72-13,13.64-19.19,20.12-1,1.08-2.46,1.84-2.81,3.46-19.31,18.88-41.07,33.7-67.72,40-17.48,4.16-34.25,1.71-50-7-5.22-2.9-5.49-5.81-.89-9.59a42.06,42.06,0,0,1,10.33-5.81c13.52-5.8,26.27-13.06,39-20.42,8-4.65,14.15-11.37,20.34-18,22.37-24.1,41.55-50.32,54.07-81a169,169,0,0,0,12.45-72.42c-.38-8.56-3.28-16.39-5.89-24.34C1521.27,556.24,1517,543.65,1512.85,531.05Z"/><path class="cls-2" d="M1419.05,537.18c-1.08-1-2,0-2.89.34-16.54,5.6-33.11,11.11-49.36,17.54-2.41,1-3.75.62-5-1.83-3.51-7-7.27-13.82-10.93-20.72,4.06-3.19,9.16-3.87,13.79-5.63,23.92-9.09,48-17.64,71.87-26.95,13-5.07,25.92-10.5,37.21-19,1.41-1.06,2.53-1.14,3.85.4,6.12,7.16,12.27,14.29,17.75,21.95,1,1.38,2.46,2.58,2.22,4.58L1440.66,529c-4.58,1.71-9.14,3.49-13.72,5.23a.59.59,0,0,0-.92.25Z"/><path class="cls-5" d="M1143.86,905.48l18.88-28.13c1.35-2,2.73-4,2.7-6.67a9.26,9.26,0,0,1,1.49-4.23c9.13-16.39,14.57-34.28,21.24-51.67,4.74-12.39,6.85-25.24,8.07-38.38,1-10.92,1.35-21.84,1.32-32.78,0-1-.28-2.13.65-3,1.32,3.92,1,8.06,1.18,12.05a213.8,213.8,0,0,1-9,70.25c-8.74,29.15-23.45,55.18-42.35,78.91-1.19,1.49-1.89,3.54-4,4.13A.57.57,0,0,1,1143.86,905.48Z"/><path class="cls-5" d="M1317,848.88c0-1.54,1.33-2.09,2.16-3,5.22-5.44,10.51-10.82,15.78-16.22a185.06,185.06,0,0,0,16.19-22.18c5-7.87,9.51-16,14.94-23.57,4.64-6.43,6.94-13.64,9.18-21q8.09-26.32,15.92-52.73c1-3.22,2-6.41,2-9.86a5.34,5.34,0,0,1,2.47-4.71,135.66,135.66,0,0,1-4.67,26.69c-8.06,30.58-19.17,59.89-37.14,86.21a205.85,205.85,0,0,1-34.18,38.72A4.71,4.71,0,0,1,1317,848.88Z"/><path class="cls-5" d="M1240.16,603.8c.7-1.83,2.6-1.8,4-2.34q23.67-9.21,47.45-18.14c.7-.26,2-1.85,2.67.24-6.76,3.4-14,5.51-21,8.2q-15,5.76-30.07,11.34C1242.21,603.45,1241.28,604.1,1240.16,603.8Z"/><path class="cls-5" d="M1117.54,932.73c0-.93.65-1.46,1.21-2q11.32-11.38,22.65-22.77c.56-.57,1.07-1.26,2-1.22-1,3.44-4,5.24-6.14,7.72-5.5,6.43-11.88,12-18.19,17.64A5.64,5.64,0,0,1,1117.54,932.73Z"/><path class="cls-5" d="M1231,607.29a9.07,9.07,0,0,1,7.15-2.76A16.13,16.13,0,0,1,1231,607.29Z"/><path class="cls-5" d="M1590.39,638.54c-.23-1.19-.77-2.46.85-3.15C1591.51,636.59,1590.88,637.54,1590.39,638.54Z"/><path class="cls-5" d="M1591.41,633.38c-.93-1-.7-1.75.59-2.19C1592.23,632,1592.33,632.84,1591.41,633.38Z"/><path class="cls-5" d="M1177,628.29c.24-.88.59-1.49,1.55-.66A1.19,1.19,0,0,1,1177,628.29Z"/><path class="cls-5" d="M1173.52,629.69c.24-.87.59-1.48,1.55-.67A1.18,1.18,0,0,1,1173.52,629.69Z"/><path class="cls-5" d="M1170,631.08c.23-.91.6-1.48,1.56-.65A1.2,1.2,0,0,1,1170,631.08Z"/><path class="cls-5" d="M1180.54,626.9c.25-.84.57-1.51,1.54-.65A1.15,1.15,0,0,1,1180.54,626.9Z"/><path class="cls-5" d="M1193.15,622c.24-.87.59-1.49,1.55-.67A1.19,1.19,0,0,1,1193.15,622Z"/><path class="cls-5" d="M1205.77,617.07c.22-.91.58-1.5,1.55-.66A1.19,1.19,0,0,1,1205.77,617.07Z"/><path class="cls-5" d="M1209.28,615.68c.24-.87.58-1.51,1.55-.65A1.16,1.16,0,0,1,1209.28,615.68Z"/><path class="cls-5" d="M1196.66,620.59c.25-.86.58-1.51,1.55-.65A1.16,1.16,0,0,1,1196.66,620.59Z"/><path class="cls-5" d="M1200.18,619.21c.25-.84.56-1.53,1.54-.65A1.14,1.14,0,0,1,1200.18,619.21Z"/><path class="cls-5" d="M1212.8,614.3c.25-.84.56-1.54,1.54-.65A1.14,1.14,0,0,1,1212.8,614.3Z"/><path class="cls-5" d="M1218.39,612.17c.23-.9.59-1.51,1.55-.64A1.18,1.18,0,0,1,1218.39,612.17Z"/><path class="cls-5" d="M1227.51,608.68c.22-.92.57-1.54,1.55-.65A1.18,1.18,0,0,1,1227.51,608.68Z"/><path class="cls-5" d="M1221.91,610.79c.25-.85.57-1.53,1.54-.64A1.13,1.13,0,0,1,1221.91,610.79Z"/><path class="cls-5" d="M1370.6,571.71a1.38,1.38,0,0,1-.62-1.43A1.15,1.15,0,0,1,1370.6,571.71Z"/><path class="cls-5" d="M1589.63,642a1.35,1.35,0,0,1,.35-1.64A1.55,1.55,0,0,1,1589.63,642Z"/><path class="cls-5" d="M1426,534.47a.59.59,0,0,1,.92-.25Z"/><path class="cls-5" d="M1116.09,934.07l.73-.66A.65.65,0,0,1,1116.09,934.07Z"/><path class="cls-5" d="M1116.82,933.41l.72-.68A.64.64,0,0,1,1116.82,933.41Z"/><path class="cls-3" d="M1839.78,421.05c.1-.28.2-.55.29-.83C1840.29,420.61,1840.15,420.87,1839.78,421.05Z"/><path class="cls-3" d="M628.21,733.66c2.71-5.72,7.09-10.29,10.82-15.28,13.84-18.53,27.77-37,41-55.94a301.91,301.91,0,0,1,24.07-30.26c5.08-5.6,10.34-11,15.3-16.76,2.36-2.72,4.6-3.67,7.64-1.31.63.49,1.64.27,2.11,1.1-.48,9.69-4.12,18.58-7.27,27.55a41.78,41.78,0,0,0-2.57,15c.21,9.82,9.88,22.25,19.33,24.68,7.47,1.93,15.14,2.29,22.76,2.75,12.12.74,24.24-.35,36.35-.78,3.68-.13,7.42-.32,11.13-.65,9.93-.88,19.85-2.1,29.8-2.6a198.33,198.33,0,0,0,25.86-3.32c21.94-4,43.41-10.16,65.19-14.85,17.48-3.75,34-9.44,49.52-18.3a141.07,141.07,0,0,1,15.25-7.78c18-7.6,36.73-13.44,55-20.33,4.51,2.27,8.12,5.76,11.91,8.95,6,5,11.55,10.5,17.34,15.73,1.44,1.3,1.71,2.16-.15,3.4-4.22,2.82-7.43,6.68-10.32,10.8a5.52,5.52,0,0,1-3.15,2q-32.6,10.39-65.2,20.84c-13.19,4.22-26.34,8.55-39.57,12.65-17.66,5.49-35.79,9.2-53.67,13.86-22.49,5.87-45.11,11.25-67.35,18-9.79,3-19.19,7.22-28.93,10.38a329.47,329.47,0,0,1-55.52,13.18,275.65,275.65,0,0,1-50.84,2.54c-16.84-.72-33.4-3.78-49.78-7.8a240.15,240.15,0,0,1-26.11-7.48Z"/><path class="cls-6" d="M1049.53,616.57c-18.3,6.89-37,12.73-55,20.33a141.07,141.07,0,0,0-15.25,7.78c-15.49,8.86-32,14.55-49.52,18.3-21.78,4.69-43.25,10.84-65.19,14.85a198.33,198.33,0,0,1-25.86,3.32c-9.95.5-19.87,1.72-29.8,2.6-3.71.33-7.45.52-11.13.65-12.11.43-24.23,1.52-36.35.78-7.62-.46-15.29-.82-22.76-2.75-9.45-2.43-19.12-14.86-19.33-24.68a41.78,41.78,0,0,1,2.57-15c3.15-9,6.79-17.86,7.27-27.55,13.59,2.79,26.91,1.59,40-2.72a7.88,7.88,0,0,1,2.07-.14c9.69.06,19.38.07,29.07.2,26.83.38,53.67,1.37,80.49-.78,22.81-1.84,45.28-5.78,67.65-10.49,17.67-3.73,35.15-8.23,52.61-12.79a7.92,7.92,0,0,1,2,.34,255.31,255.31,0,0,1,46.1,27.15C1049.36,616.11,1049.42,616.37,1049.53,616.57Z"/><path class="cls-6" d="M542.66,591.66c-3.45-6.19-7.9-11.67-12.28-17.19-7.83-9.85-17-18.4-25.89-27.31-.8-.81-1.84-1.5-1.76-2.86,5.11,2.86,9.35,6.89,13.62,10.77,14.24,12.93,26.73,27.3,35.15,44.85,7.78,16.2,11.52,33.35,9.88,51.17-2.71,29.29-12.53,55.94-31.88,78.64a149.74,149.74,0,0,1-23.92,22.41,4.12,4.12,0,0,1-2.79,1.23l-.14-.14c6.16-5.68,12.73-10.93,18.35-17.2,18.56-20.71,31.81-44.37,37.48-71.67,5.37-25.81-.74-49.68-14.88-71.66A9.2,9.2,0,0,0,542.66,591.66Z"/><path class="cls-5" d="M699.11,552.18a32,32,0,0,1,4.14,18.14,79.75,79.75,0,0,0,2.94,19,7.34,7.34,0,0,1,.51,3.37l0,0c-5-6.78-6.63-14.69-7.72-22.79C698.22,564,698.67,558.09,699.11,552.18Z"/><path class="cls-5" d="M706,526.08a75.3,75.3,0,0,1-4.94,18.28A61.42,61.42,0,0,1,706,526.08Z"/><path class="cls-6" d="M502.74,544.32c-1.55.1-2.73-.29-2.83-2.12A4,4,0,0,1,502.74,544.32Z"/><path class="cls-5" d="M701.1,544.31c-.09,1,.3,2.09-.7,2.85C700.6,546.2,700,545.05,701.1,544.31Z"/><path class="cls-6" d="M502.79,753.37a1.39,1.39,0,0,1-1.47,1.34l-.06-.07c0-.9.57-1.29,1.39-1.41Z"/><path class="cls-5" d="M706.7,592.74c.44,0,.6.25.58.64,0,.08-.14.16-.22.24-.11-.31-.21-.61-.32-.91Z"/><path class="cls-6" d="M499.88,755.37a1.32,1.32,0,0,1,1.38-.73l.06.07a1.31,1.31,0,0,1-1.41.69Z"/><path class="cls-6" d="M499.22,541.54c-.29-.19-1.21.36-.76-.67Z"/><path class="cls-6" d="M499.93,542.24l-.74-.72Z"/><path class="cls-6" d="M499.21,756.1l-.38.3c0-.07,0-.18.06-.22a.92.92,0,0,1,.29-.11Z"/><path class="cls-6" d="M499.91,755.4l-.7.7,0,0,.7-.7Z"/><path class="cls-3" d="M628.19,733.63l-.16.3.18-.27Z"/><path class="cls-6" d="M168.13,432.78c3.83-7.76,8.69-14.93,13.61-22,11.64-16.68,19.68-35.19,27.9-53.59,7.85-17.59,17.58-33.89,30.33-48.37,4.16-4.72,8.07-9.65,12-14.55a28.49,28.49,0,0,1,7.19-6c11.69-7.47,22.51-16.2,33.94-24q7.94-5.45,16-10.75A18.47,18.47,0,0,1,319,250.6c17.5-.48,34.88,1.06,52.31,2.52,21.6,1.8,41.91,8.5,62.4,14.58,27,8,53.23,18,78.12,31.29q19.29,10.32,38.57,20.65a14.75,14.75,0,0,1,3.47,2.91c10.83,11,22,21.56,34.38,30.77a51.79,51.79,0,0,0,10.26,5.93c2.65,1.15,3.69.17,4.15-2.24a24.11,24.11,0,0,0-3.09-16.82c-6.14-10.82-14.54-19.57-24.39-27.09-8.61-6.57-17-13.44-25.47-20.2-1.72-1.37-2.4-2.71.39-3.64.62.53,1.21,1.11,1.86,1.59,39.32,28.81,75.23,61.48,109.09,96.47-.28,3.51,1.81,6.3,3.06,9.27,2.86,6.77,3,6.73-4,8.69-7.6,2.12-15.32,3.73-23.1,5.09-4.21.73-7.38-2-10.79-3.47a383.68,383.68,0,0,1-64.77-36.49c-9.06-6.34-17.24-13.79-25.87-20.66-18.46-14.68-36.72-29.6-55.37-44-15.05-11.64-30.89-22-49.14-28.22-5.68-1.93-11.63-2.09-17.45-3-9.27-1.49-18.59-2.59-27.89-3.86-9.64-1.31-19.26-2.83-28.93-3.87-17.51-1.89-34.85-.06-51.79,4.28-12.9,3.31-24.21,10.13-34.52,18.55-13.11,10.69-21.65,24.67-29.44,39.42a536.56,536.56,0,0,0-28,61,102.46,102.46,0,0,1-17.67,30.57,56.59,56.59,0,0,1-11.73,10.92C178.75,434.72,173.57,435.32,168.13,432.78Z"/><path class="cls-4" d="M1320.22,488.24c3.08,4.63,6.2,9.23,9.22,13.89,1.68,2.59,3.55,5.08,4.66,8.08-1.4.54-2.16-.41-3.07-.77-15-5.95-27.45-15.79-39.28-26.3-23.69-21-51.45-32.86-82.19-39.22-24.85-5.14-49.87-6.28-75-5.29-12.16.48-24.34,1.33-36.5,2.44-9.71.89-19.47,1.47-29.18,2.43-13.92,1.38-27.86,2.4-41.83,1.9-16-.58-32-2.33-47.34-7.49-1.1-.37-2.14-1-3.26-1.24-2.09-.56-2.16-1.74-1.33-3.42s1.55-3.38,2.32-5.08l23.06-4.45c6.8-1.45,13.74-2.27,20.38-4.47,6.27-1.26,12.56-2.5,18.83-3.8,17.24-3.55,34.68-5.76,52.15-7.8,4.75-.56,4.74-.55,4.67-5.48,0-2.33.12-4.68,0-7s.7-3,3-2.94c8.28.35,16.58.3,24.85.82,10.93.68,21.9,1.39,32.59,3.87,20.57,4.75,41.56,6.84,62.37,10.08,7.23,1.13,14.46,2.33,21.69,3.5-2,2.08-5.46,1.91-7,4.62-3.69,1.68-7.68,2.76-11.61,5.36,16.27,5.43,31.44,11.49,45.63,19.79a4.48,4.48,0,0,0,1.67.17c.3.36.52.83.9,1a132,132,0,0,1,23.39,17.57c5.76,5.39,11.63,10.69,16.52,16.94a1.22,1.22,0,0,0,1,1l.3,0c-.08,2.11,1.4,3.17,2.87,4.24a3.15,3.15,0,0,0,2.13,2.77l1.28.81a3.46,3.46,0,0,0,2.21,3.42Z"/><path class="cls-2" d="M833,419.49c-12.09-42.71-36.57-78-65.89-110.45-3.83-4.23-7.54-8.59-11.3-12.89.41-1.89-1.33-2.88-1.82-4.39-.38-1.13-.79-2.55,0-3.32s1.9.2,2.82.69a58.87,58.87,0,0,1,18.4,15.93c5.59,7.17,13,11.5,20.42,15.95q18.93,11.24,37.84,22.5a24.17,24.17,0,0,1,4.63,3.71C851,360.12,863.9,373,876.74,385.89c5.74,5.77,12.13,10.5,19.84,13.35,1,.36,2.76.26,2.77,1.64s-2.11.11-2.67,1.38c-.08.19-.83.09-1.27.12-12.93,2.74-25.87,5.39-38.85,7.87-7.21,1.37-13.41,5.74-20.24,8.34C835.24,419,834.24,419.65,833,419.49Z"/><path class="cls-2" d="M918.56,419.6c-5.21,4.71-9.61,10-12.16,16.67a2.12,2.12,0,0,0-1.89,1.78c-2,8.81-5,17.4-6.29,26.39-.36,2.46-.15,4.05,2.9,4.69,17.14,3.62,34,8.46,51.46,10.59,9.68,1.18,19.41,1.85,29.18,2.31,29.16,1.36,58.33.25,87.5.66,1.13,0,2.35-.37,3.35.54a151.92,151.92,0,0,0-31.55,8.67,138.78,138.78,0,0,0-19.41,8.71,9.26,9.26,0,0,0,4.12,1.6c3.75,1.16,7.66,1.83,11.23,3.57a38.24,38.24,0,0,1-4.16-.32c-33.33-5.92-66.16-14.08-99.09-21.77-11.21-2.62-22.48-5-33.72-7.5-1.25-.28-2.66-1.06-2.57,1.24.12,3.13-.44,6.3.56,9.38l0,2c-7.66.55-15.35.93-23,1.69-9,.9-18.09,1.72-27,3.32-13.27,2.39-26.44,5.36-39.63,8.21-6.78,1.46-13.69,2.37-20.29,4.62L779,508c-3.89-3.76-8.43-6.7-12.72-9.94a55.69,55.69,0,0,1,25.89-11.46c9-1.37,17.9-2.37,27.05-1.36a248.31,248.31,0,0,0,39.14.73c5.7-.28,10.11-4.42,13.77-8.83a65.45,65.45,0,0,0,14.1-30c1.46-7.61,5.4-14.35,8.14-21.51.63-1.66,2.08-2.48,3.45-3.35C904.29,418.22,911.3,418,918.56,419.6Z"/><path class="cls-2" d="M1240.93,410.5c-7.23-1.17-14.46-2.37-21.69-3.5-20.81-3.24-41.8-5.33-62.37-10.08-10.69-2.48-21.66-3.19-32.59-3.87-8.27-.52-16.57-.47-24.85-.82-2.29-.09-3.15.63-3,2.94s0,4.67,0,7c.07,4.93.08,4.92-4.67,5.48-17.47,2-34.91,4.25-52.15,7.8-6.27,1.3-12.56,2.54-18.83,3.8,2.49-4.52,7.06-6.95,10.6-10.41,5.06-4.94,10.65-9.33,15.87-14.11a11.41,11.41,0,0,1,5.33-3c7.34-1.67,14.71-3.28,22-5.29,4.53-1.26,9-.78,13.39-.12,3,.45,6.37-.84,9,1.93.31-1.42.57-2.65.84-3.88.85-3.33,1.2-6.79,2.74-9.94,13.63,2.14,27.26,4.34,40.91,6.4,16.28,2.45,32.59,4.74,48.87,7.19,9.75,1.46,19.47,3.08,29.21,4.6a25.74,25.74,0,0,0,3.83.21c20.09,0,40.19.13,60.28,0,8.44-.07,16.6,2,24.92,2.52,6.46.42,10.34,4.69,15,8-11-.55-22.06-1.24-33.18-.77C1273.58,403.25,1257,405.42,1240.93,410.5Z"/><path class="cls-2" d="M599.42,261.67a287.52,287.52,0,0,0-45.31,23.94c-1.08.71-2,2.09-3.68,1.38-2.65-4.69-5-9.65-9.89-12.55.1-2.18-2.42-2.68-3-4.76,14.85-1.69,29.47-4.42,44.07-7.2,8.29-1.58,16.54-3.45,24.8-5.2,1.09-.23,2.31-1,2.78.82a2.36,2.36,0,0,1-2.06.7c-1-.87-1.27-.27-1.45.63l-5.23,1.89A.78.78,0,0,0,599.42,261.67Z"/><path class="cls-5" d="M1100.61,374.45c-1.54,3.15-1.89,6.61-2.74,9.94-1-1-.52-2.12-.31-3.26,2-10.5,4.24-20.92,9.66-31.38l-78.83,18.5c.32-1.38,1.56-1.19,2.52-1.47l27.8-8.23c15.67-4.51,31.43-8.66,47.37-12.11,2.41-.52,4.12-1.89,5.91-3.32-3.35,6.7-6.86,13.32-8.89,20.58C1102.1,367.25,1100.89,370.74,1100.61,374.45Z"/><path class="cls-6" d="M806.28,219A784.91,784.91,0,0,1,912,306c4.4,4.32,8.89,8.55,12.89,13.26-1.78.35-2.75-.88-3.82-1.95-4.67-4.65-9.23-9.43-14.33-13.64-.62-.52-1.14-1.17-2.05-1.14-1.39-3.24-4.28-5.21-6.72-7.47-11.63-10.77-23.27-21.53-35.52-31.62q-22.95-18.92-47-36.31c-3-2.19-6.11-4.28-9.12-6.49C805.8,220.29,804,219.49,806.28,219Z"/><path class="cls-2" d="M1000.46,423.72l-23.06,4.45L969,422.34c.38-.22.76-.64,1.15-.64,9.48.1,19-.66,28.45.69A2.28,2.28,0,0,1,1000.46,423.72Z"/><path class="cls-2" d="M974.53,374.69c2.06,1.66,3.57,3.54,2.45,6.41-2.83,1-5.65,2.14-8.75,2l0,0C970.24,380.22,971.73,377,974.53,374.69Z"/><path class="cls-5" d="M1005.41,374a70.25,70.25,0,0,1,12-3.41c.46,3.33-1,4.55-4.26,4C1010.58,374.25,1007.9,375.33,1005.41,374Z"/><path class="cls-1" d="M685.38,412.91l.17.8-.64-.38A2.36,2.36,0,0,1,685.38,412.91Z"/><path class="cls-2" d="M968.23,383.08l-.14.31.16-.29Z"/><path class="cls-4" d="M735.68,456.67c1.94.33,3.67-.46,5.43-1,24.58-8.06,48.59-17.6,72.39-27.73a13,13,0,0,1,2-.5c-.32,1.55-1.76,1.8-2.87,2.28-22.14,9.6-40.8,24.71-60.5,38.15-15.59,10.64-31.29,21.08-47.58,30.62-8.32,4.87-16.16,10.58-25.42,13.81-13.54,4.72-26.69,5.26-40.47,0C624,506.73,612,497.73,600.21,488s-23.5-19.75-36.71-27.75c-5.88-3.56-12-4.07-18.64-3.74a254.49,254.49,0,0,0-27.32,3.06c-6.64,1.06-13.19,2.68-19.82,3.8-13.24,2.22-26,1.32-37.5-6.54-4.1-2.82-8.16-5.82-10.18-10.69a110.83,110.83,0,0,1,12.09-9.64c4.37-2.7,9.14-4.54,13.85-6.52,6.53-1.33,13.26-1.13,19.76-2.71,14-1.78,27.69.46,41.4,2.79,26.18,5.23,50.64,15.87,75.85,24.15,18.17,6,36.58,11,55.59,13.51,10,1.31,20,1.46,29.95-.64a21,21,0,0,0,3.24-1.24,49.16,49.16,0,0,0,15.44-3.45C723.53,461,729.91,459.83,735.68,456.67Z"/><path class="cls-4" d="M898,488.77l0-2c12.15,1.08,24,4,36,6.09,14.51,2.48,29,5.31,43.44,7.94q26.69,4.83,53.38,9.56c8.67,1.54,17.35,3,26,4.48a11.49,11.49,0,0,1,2.3.65c11.42,6,22.71,12.21,32.72,20.4,5.27,4.31,10.5,8.75,14.51,14.38l.73,1.05,0,0,1,.73a.52.52,0,0,1,.4.38c.39,3.73,2.65,6.71,4.46,9.71,7.14,11.84,11.28,24.71,14.35,38.08,3.45,15.06,7.3,30,11,45.06.2.78.58,1.52,0,2.3-.59,0-.84-.37-1-.78-.39-.72-.74-1.46-1.11-2.19-4.73-9.38-8.41-19.52-14.49-27.93s-14.51-15.16-22-22.53c-8.24-8.1-15.92-16.68-23.54-25.36-6.07-6.9-13.92-12-22-16.5-15.4-8.52-31.93-14-48.88-18.59-10.09-2.72-19.75-7-30-9.35a329.36,329.36,0,0,0-35.32-6c-17-2.07-34.08-2.64-51.21-2.85-11.07-.14-22,1.35-32.91,2.15-3.83.27-7.67.42-11.49.66-19.2,1.2-38.43,2-57.67,1.5-2.09,0-4.15-.49-6.23-.7-1.49-.15-1.51-1.2-1.5-2.29q0-4.38,0-8.76l9.09-1.41c.65.72,1.45.54,2.27.41l43.89-6.81c20-3.08,40-6.11,60-9.31C895.52,490.7,897.85,491.34,898,488.77Z"/><path class="cls-6" d="M1110.64,553.8q51.13-18.16,101.61-38.09c.86-.34,1.76-.57,2.65-.85,6.4,1.84,11.51,6,16.87,9.64,6.45,4.35,12.55,9.19,18.79,13.84.84.62,2,1.27,2,2.32-.08,1.43-1.71,1.05-2.55,1.19-16.5,2.64-31.24,10.47-46.83,15.77-19.63,6.67-38.49,15.22-57.55,23.27-3.75,1.59-7.48,3.22-11.22,4.83-5.88-8.3-11.65-16.68-18.14-24.52C1114.27,558.82,1111.8,556.79,1110.64,553.8Z"/><path class="cls-4" d="M1139.15,649.45l-.09.25a1.8,1.8,0,0,1-.26-.29s.12-.12.19-.19Z"/><path class="cls-4" d="M820.25,425.31l.78-.12C820.84,425.64,820.58,425.72,820.25,425.31Z"/><path class="cls-3" d="M1638.33,275.59c.23-.19.36-.4.51-.41.41,0,.89-.17,1.15.35-.2.09-.4.26-.6.26A6.07,6.07,0,0,1,1638.33,275.59Z"/><path class="cls-6" d="M495.5,403.33l.24,23.93c-6.5,1.58-13.23,1.38-19.76,2.71,3.2-6.62,5.94-13.64,13.35-16.92,3.48-1.55,4.9-4.26,5-7.9C494.3,404.29,494.48,403.52,495.5,403.33Z"/><path class="cls-3" d="M1201.77,338.91q-13.86,3.13-27.74,6.25a2.29,2.29,0,0,1-2.22-.74c-2.68-2.75-5.92-4.79-9.23-7.11,1.42-1.65,3.29-1.46,4.84-1.83,9.46-2.28,18.95-4.42,28.42-6.66a14.24,14.24,0,0,0,2.51-1.11,4,4,0,0,0,.49,0c1.74-.23,3.08.14,4,1.93,1.22,2.45,3.2,4.49,3.93,7.22C1205.41,338.38,1202.69,336.44,1201.77,338.91Z"/><path class="cls-5" d="M1112.67,342.42l-.71.73Z"/><path class="cls-3" d="M433.24,642.54l-.25-.34.34.26Z"/><path class="cls-5" d="M1602,265.28c-2.88-.74-6.06-.74-8.23-3.26C1597.1,261.68,1600.16,262,1602,265.28Z"/><path class="cls-5" d="M1618.92,269.5c-1.22-.2-2.66.56-3.57-.88C1616.51,269,1617.92,268.41,1618.92,269.5Z"/><path class="cls-4" d="M1519.32,409l-.54-.74c.86-.21.36.51.53.76Z"/><path class="cls-4" d="M1519.31,409l.31.15-.3-.17Z"/><path class="cls-4" d="M1517.21,406.23l.29.3c-.06,0-.15,0-.18,0a1.12,1.12,0,0,1-.11-.25Z"/><path class="cls-4" d="M1516.52,405.52l.69.71h0l-.7-.69Z"/><path class="cls-2" d="M1097.82,483.34c-7.61,2.81-15.62,4.11-23.45,6.06-15,3.72-30.08,7.11-45.13,10.62a8.05,8.05,0,0,1-1.39.09,15.68,15.68,0,0,1,5.52-3.52c20.05-9,41.2-12.8,63-13.33Z"/><path class="cls-5" d="M1096.41,483.26c-21.84.53-43,4.32-63,13.33a15.68,15.68,0,0,0-5.52,3.52c-.4,1-2.35.45-2.08,2.1a9.26,9.26,0,0,1-4.12-1.6,138.78,138.78,0,0,1,19.41-8.71,151.92,151.92,0,0,1,31.55-8.67A102.41,102.41,0,0,1,1096.41,483.26Z"/><path class="cls-2" d="M1259.23,544.31c.84.11,1.61.35,1.82,1.31a.47.47,0,0,1-.61.58c-1-.21-1.23-.94-1.28-1.81Z"/><path class="cls-2" d="M1257.07,543l-.3-.35.36.29Z"/><path class="cls-2" d="M1257.13,542.92l.3.35-.36-.29Z"/><path class="cls-2" d="M1259.16,544.39l-.3-.35.37.27Z"/><path class="cls-6" d="M1314.6,481.24c-1.47-1.07-2.95-2.13-2.87-4.24l81.1-31.15c.8-.31,1.94-.42,1.75-1.77a102.6,102.6,0,0,1,14.79,16.21c7.08,10.08,6.41,19.95.2,29.95-4.72,7.61-11.39,13.13-19.07,17.55-13.17,7.59-27.53,11.7-42.29,14.68a18.5,18.5,0,0,1-2.79.14c-6.53-9.38-12.31-19.29-19.4-28.28-1.73-2.19-2.76-5.12-5.8-6.09h0a3.12,3.12,0,0,0-2.2-3.42l-1.28-.81C1316.76,482.52,1316.37,481.35,1314.6,481.24Z"/><path class="cls-2" d="M1366.44,414.58q-26.07,7-52.16,14-22.33,6-44.7,11.85a4.48,4.48,0,0,1-1.67-.17c-14.19-8.3-29.36-14.36-45.63-19.79,3.93-2.6,7.92-3.68,11.61-5.36,1.22-.33,2.47-.59,3.66-1a181.36,181.36,0,0,1,51.26-10,269.27,269.27,0,0,1,43.33,1.58c10.45,2.31,21,4.31,31.21,7.48C1364.46,413.54,1365.61,413.66,1366.44,414.58Z"/><path class="cls-5" d="M1332.14,405.72a269.27,269.27,0,0,0-43.33-1.58,181.36,181.36,0,0,0-51.26,10c-1.19.42-2.44.68-3.66,1,1.58-2.71,5-2.54,7-4.62,16.11-5.08,32.65-7.25,49.51-8,11.12-.47,22.13.22,33.18.77C1326.53,403.87,1329.56,404,1332.14,405.72Z"/><path class="cls-5" d="M1318,484.82a3.12,3.12,0,0,1,2.2,3.42A3.47,3.47,0,0,1,1318,484.82Z"/><path class="cls-5" d="M1314.6,481.24c1.77.11,2.16,1.28,2.13,2.77A3.15,3.15,0,0,1,1314.6,481.24Z"/><path class="cls-5" d="M1310.39,476c.35.35.69.7,1,1A1.22,1.22,0,0,1,1310.39,476Z"/><path class="cls-3" d="M605.68,259.43c.18-.9.5-1.5,1.45-.63A1,1,0,0,1,605.68,259.43Z"/><path class="cls-3" d="M599.42,261.67a.78.78,0,0,1,1-.35Z"/><path class="cls-5" d="M1039.31,506.49c2.34-.62,3.44,1.19,5.11,2.26,2.89,1.86,6.27,2.94,9.42,4.41,1,.48,2,1.14,3,1.72-8.68-1.49-17.36-2.94-26-4.48q-26.7-4.74-53.38-9.56C963,498.21,948.5,495.38,934,492.9c-12-2-23.82-5-36-6.09-1-3.08-.44-6.25-.56-9.38-.09-2.3,1.32-1.52,2.57-1.24,11.24,2.51,22.51,4.88,33.72,7.5,32.93,7.69,65.76,15.85,99.09,21.77a38.24,38.24,0,0,0,4.16.32l-.07,0C1037.47,506.79,1038.51,506.25,1039.31,506.49Z"/><path class="cls-5" d="M898,488.77c-.14,2.57-2.47,1.93-3.72,2.13-20,3.2-40,6.23-60,9.31L790.35,507c-.82.13-1.62.31-2.27-.41,6.6-2.25,13.51-3.16,20.29-4.62,13.19-2.85,26.36-5.82,39.63-8.21,8.91-1.6,18-2.42,27-3.32C882.64,489.7,890.33,489.32,898,488.77Z"/><path class="cls-5" d="M1107.06,551.32l1,.73Z"/><path class="cls-5" d="M1106.37,550.31l.73,1.05Z"/><path class="cls-2" d="M1039.31,506.49c-.8-.24-1.84.3-2.38-.75C1037.79,505.77,1038.71,505.62,1039.31,506.49Z"/></svg>