<svg id="Layer_1" data-name="Layer 1" xmlns="http://www.w3.org/2000/svg" xmlns:xlink="http://www.w3.org/1999/xlink" viewBox="0 0 807.93 806.13"><defs><style>.cls-1{fill:none;}.cls-2{fill:#a00708;}.cls-3{clip-path:url(#clip-path);}.cls-4{fill:#fe9681;}.cls-5{fill:#fd7b6b;}.cls-6{fill:#fc6758;}.cls-7{fill:#fa574a;}.cls-8{fill:#f6463c;}.cls-9{clip-path:url(#clip-path-2);}.cls-10{clip-path:url(#clip-path-3);}.cls-11{clip-path:url(#clip-path-4);}.cls-12{clip-path:url(#clip-path-5);}.cls-13{clip-path:url(#clip-path-6);}.cls-14{clip-path:url(#clip-path-7);}.cls-15{clip-path:url(#clip-path-8);}.cls-16{clip-path:url(#clip-path-9);}.cls-17{clip-path:url(#clip-path-10);}</style><clipPath id="clip-path"><path class="cls-1" d="M147.18,471.29s11.37,9.2,9.67,44.88l-15.22,2.72L118,525.65l-15.63,9.1L87.5,548.61,76,549.92l-8.4-10.38,5.37-20.77L70.46,508l14.94-5.6,23-7.16L133.82,483Z"/></clipPath><clipPath id="clip-path-2"><path class="cls-1" d="M198.29,411.57s-27.86,25-47.67,59.72c0,0,5.08,35,6.23,44.88L180,517.76,209.33,520l37.25-3.86,30.58-23.39,7.9-32.59L263.41,439.6S224.39,398.19,198.29,411.57Z"/></clipPath><clipPath id="clip-path-3"><path class="cls-1" d="M612,328.25l18.49-13.84,5.3-3,6.31,1.33,12.32,5.87,14.35,13.6,9.66,21.43,2.2,11.9.43,4.75-19.33,21.1a98,98,0,0,1-26.53-20.24A99.25,99.25,0,0,1,612,328.25Z"/></clipPath><clipPath id="clip-path-4"><path class="cls-1" d="M542.64,343.18s-6.52,58.17,27.08,101.2c0,0,50.06-5.34,79.69,9,0,0-2.51-5.57,3.73-12.23s10.38-27.75,8.57-49.77c0,0-43.72-27.84-49.73-63.11l-30.17,1.94Z"/></clipPath><clipPath id="clip-path-5"><path class="cls-1" d="M481.5,349.42a200.82,200.82,0,0,0-6.6,111.3l94.82-16.34s-33.79-37.07-27.08-101.2Z"/></clipPath><clipPath id="clip-path-6"><path class="cls-1" d="M401.63,384.86l79.87-35.44a200.82,200.82,0,0,0-6.6,111.3c-16,3.24-33.5,6.07-52.35,8.1-14.57,1.57-28.41,2.5-41.43,3a165,165,0,0,1,3-36.12c3.59-18.45,10.59-37.33,15.35-41.17a8,8,0,0,0,2.91-4.11A8.29,8.29,0,0,0,401.63,384.86Z"/></clipPath><clipPath id="clip-path-7"><path class="cls-1" d="M343.82,397.75a211.1,211.1,0,0,0,57.81-12.89,7.89,7.89,0,0,1,.7,3.45,9.91,9.91,0,0,1-2.89,6.18c-2.24,2.46-4.92,9.32-10.27,23.05-6.69,17.14-7.64,33.56-8.42,47-.21,3.66-.29,6.67-.32,8.67a366.85,366.85,0,0,0-109.94,21.15,161.54,161.54,0,0,1,10.71-27.95C299,430.32,326.45,408.89,343.82,397.75Z"/></clipPath><clipPath id="clip-path-8"><path class="cls-1" d="M199.45,414.4a4.24,4.24,0,0,1-1.16-2.83c.13-2.63,3.73-4.06,10-7.5,6.83-3.75,5.21-3.52,11.06-6.59a119.8,119.8,0,0,1,13.16-5.93,38.13,38.13,0,0,1-1-8.38c-.1-4.81.64-10.87,4-15.87,0,0,33.86,22,99.93,34.58,0,0-33.73,24.16-52.78,58.31C282.62,460.19,240.59,460,199.45,414.4Z"/></clipPath><clipPath id="clip-path-9"><path class="cls-1" d="M643.51,450.81s4.13.79,10.5,6.85S672.72,487,672.72,487l9.67,18.19s-11.17,3-17.93,21.78c0,0-55.57-15.6-66.87-26.26,0,0-11.14-4-67.46,16.89,0,0-87.35,6.83-114.38-6.85s-96.11-13-96.11-13-39.71,8.32-78.43,20c0,0-1.35-9.95,23.3-20.33s57.57-17.39,57.57-17.39l145.73-15.69,85.88-17.65L574.6,444l27.87-.37S633,444,643.51,450.81Z"/></clipPath><clipPath id="clip-path-10"><path class="cls-1" d="M682.39,505.21S665.57,516.06,664.46,527l38,21.69L713.14,542l10.25-7.83v-5.35Z"/></clipPath></defs><title>Artboard 1</title><path class="cls-2" d="M681,370.26c-2,4.55-6,7.54-9.27,11-5.59,5.82-8.6,12.27-8,20.6,1.14,16.33-1.73,31.82-11.3,45.56-2.77,4-2.14,7.05,1.56,10.26,9.53,8.26,17,17.9,21.71,29.92,4.88,12.61,15.17,20.2,26.94,26.05,6.24,3.09,12.65,5.9,18.34,10,8,5.73,7.17,14.37-1.88,18.18-3.75,1.58-6.84,3.32-9.33,6.8-2.74,3.83-7.15,3.62-11.38,2.24a23.88,23.88,0,0,1-7.68-4.53c-17-14-36.82-22-57.77-28-10.65-3-21.3-6.51-30.51-13.11,0-.45,0-.89,0-1.33,4.23,2.17,8.39,4.47,13,5.64a4.93,4.93,0,0,0,1.18.9c15.07,5.18,31,7.63,45.81,13.52,1,.41,2,.55,2.12-1,.52-5.4,4-9.24,7-13.32l2-1.06a48.41,48.41,0,0,1,4.48-2c1.17-.41,2-1.13,1.05-2.06-5.81-5.7-7.6-13.73-11.94-20.27a4.67,4.67,0,0,0-1.09-3.2,24.23,24.23,0,0,0-7.61-11.38,6.18,6.18,0,0,0-.9-.43l-.77-.85c-4-5.48-10-9.59-11.43-16.79,2.27-5.51,6.75-9.85,8.33-15.72,5.95-9.37,6.71-19.88,6.68-30.56q.68-7,1.34-13.95c-.05-.34-.09-.68-.13-1,.72-1.48,2.55-2.22,2.77-4.06l1.12-1.74,4.09-4a2.37,2.37,0,0,0,1.11-2.11l4.6-4,1.39-1.94C678.42,372.35,678.08,368.11,681,370.26Zm10.4,169.48c1.85,2.48,4.56,3.82,7.19,5.21,4.22,2.22,7.33,1.21,9.07-3.36,2.22-3.3,6-3.84,9.28-5.27,4-1.75,4.34-3.58,1.42-6.87-5-4-10.66-6.69-16.49-9.15-4.45-2.47-9.11-4.64-13.3-7.5-8-5.48-8.16-5.64-15.05,1a17.72,17.72,0,0,0-4.14,5.49c-4.51,4.37-4.32,5.61,1.22,8.33,2.63,1.3,5.23,2.67,7.84,4Z"/><g class="cls-3"><rect class="cls-4" x="41.66" y="459.17" width="367.19" height="27.98" transform="translate(-89.58 54.23) rotate(-11.47)"/><rect class="cls-5" x="44.18" y="474.51" width="367.19" height="22.14" transform="translate(-91.99 54.98) rotate(-11.47)"/><polyline class="cls-6" points="411.26 466.59 412.36 472.02 52.5 545.02 51.4 539.6"/><polyline class="cls-6" points="406.33 452.09 409.63 468.36 49.07 541.51 45.77 525.24"/><polyline class="cls-7" points="407.05 463.8 408.15 469.23 48.29 542.23 47.19 536.81"/><polyline class="cls-7" points="408.9 466.53 410 471.96 50.13 544.96 49.03 539.54"/><rect class="cls-8" x="49.73" y="507.73" width="367.19" height="27.98" transform="translate(-99.07 56.8) rotate(-11.47)"/><polyline class="cls-7" points="416.2 490.95 417.3 496.38 57.44 569.38 56.34 563.96"/></g><g class="cls-9"><rect class="cls-4" x="119.24" y="410.25" width="367.19" height="44.26"/><rect class="cls-5" x="119.24" y="434.92" width="367.19" height="35.03"/><polyline class="cls-6" points="486.44 480.7 486.44 489.46 119.24 489.46 119.24 480.7"/><polyline class="cls-6" points="484.49 456.67 484.49 482.93 116.58 482.93 116.58 456.67"/><polyline class="cls-7" points="482.87 475.06 482.87 483.81 115.67 483.81 115.67 475.06"/><polyline class="cls-7" points="484.13 479.86 484.13 488.62 116.94 488.62 116.94 479.86"/><rect class="cls-8" x="117.5" y="488.07" width="367.19" height="44.26"/><polyline class="cls-7" points="486.44 520.02 486.44 528.78 119.24 528.78 119.24 520.02"/></g><g class="cls-10"><rect class="cls-4" x="470.81" y="311.43" width="367.19" height="44.26"/><rect class="cls-5" x="470.81" y="336.1" width="367.19" height="35.03"/><polyline class="cls-6" points="838 381.88 838 390.63 470.81 390.63 470.81 381.88"/><polyline class="cls-6" points="836.05 357.85 836.05 384.11 468.14 384.11 468.14 357.85"/><polyline class="cls-7" points="834.43 376.23 834.43 384.99 467.24 384.99 467.24 376.23"/><polyline class="cls-7" points="835.7 381.04 835.7 389.8 468.5 389.8 468.5 381.04"/><rect class="cls-8" x="469.07" y="389.25" width="367.19" height="44.26"/><polyline class="cls-7" points="838 421.2 838 429.96 470.81 429.96 470.81 421.2"/></g><g class="cls-11"><rect class="cls-4" x="406.06" y="325.62" width="362.35" height="51.5"/><rect class="cls-5" x="406.06" y="354.33" width="362.35" height="40.76"/><polyline class="cls-6" points="768.42 407.6 768.42 417.79 406.06 417.79 406.06 407.6"/><polyline class="cls-6" points="766.5 379.64 766.5 410.19 403.43 410.19 403.43 379.64"/><polyline class="cls-7" points="764.89 401.03 764.89 411.22 402.54 411.22 402.54 401.03"/><polyline class="cls-7" points="766.14 406.63 766.14 416.82 403.79 416.82 403.79 406.63"/><rect class="cls-8" x="404.34" y="416.18" width="362.35" height="51.5"/><polyline class="cls-7" points="768.42 453.36 768.42 463.55 406.06 463.55 406.06 453.36"/></g><g class="cls-12"><rect class="cls-4" x="389.69" y="345.6" width="367.19" height="44.26"/><rect class="cls-5" x="389.69" y="370.27" width="367.19" height="35.03"/><polyline class="cls-6" points="756.89 416.05 756.89 424.81 389.69 424.81 389.69 416.05"/><polyline class="cls-6" points="754.94 392.02 754.94 418.28 387.03 418.28 387.03 392.02"/><polyline class="cls-7" points="753.32 410.4 753.32 419.16 386.13 419.16 386.13 410.4"/><polyline class="cls-7" points="754.58 415.21 754.58 423.97 387.39 423.97 387.39 415.21"/><rect class="cls-8" x="387.95" y="423.42" width="367.19" height="44.26"/><polyline class="cls-7" points="756.89 455.37 756.89 464.13 389.69 464.13 389.69 455.37"/></g><g class="cls-13"><rect class="cls-4" x="210.2" y="352.49" width="490.06" height="54.88"/><rect class="cls-5" x="210.2" y="383.08" width="490.06" height="43.43"/><polyline class="cls-6" points="700.27 439.85 700.27 450.7 210.2 450.7 210.2 439.85"/><polyline class="cls-6" points="697.67 410.05 697.67 442.61 206.65 442.61 206.65 410.05"/><polyline class="cls-7" points="695.5 432.85 695.5 443.7 205.44 443.7 205.44 432.85"/><polyline class="cls-7" points="697.19 438.81 697.19 449.67 207.13 449.67 207.13 438.81"/><rect class="cls-8" x="207.88" y="448.98" width="490.06" height="54.88"/><polyline class="cls-7" points="700.27 488.61 700.27 499.47 210.2 499.47 210.2 488.61"/></g><g class="cls-14"><rect class="cls-4" x="208.05" y="388.46" width="367.19" height="44.26"/><rect class="cls-5" x="208.05" y="413.13" width="367.19" height="35.03"/><polyline class="cls-6" points="575.25 458.91 575.25 467.67 208.06 467.67 208.06 458.91"/><polyline class="cls-6" points="573.3 434.88 573.3 461.14 205.39 461.14 205.39 434.88"/><polyline class="cls-7" points="571.68 453.26 571.68 462.02 204.49 462.02 204.49 453.26"/><polyline class="cls-7" points="572.94 458.07 572.94 466.83 205.75 466.83 205.75 458.07"/><rect class="cls-8" x="206.31" y="466.28" width="367.19" height="44.26"/><polyline class="cls-7" points="575.25 498.23 575.25 506.99 208.06 506.99 208.06 498.23"/></g><g class="cls-15"><rect class="cls-4" x="165.79" y="365.62" width="367.19" height="44.26"/><rect class="cls-5" x="165.79" y="390.29" width="367.19" height="35.03"/><polyline class="cls-6" points="532.99 436.07 532.99 444.83 165.79 444.83 165.79 436.07"/><polyline class="cls-6" points="531.04 412.05 531.04 438.3 163.13 438.3 163.13 412.05"/><polyline class="cls-7" points="529.42 430.43 529.42 439.19 162.23 439.19 162.23 430.43"/><polyline class="cls-7" points="530.68 435.24 530.68 443.99 163.49 443.99 163.49 435.24"/><rect class="cls-8" x="164.05" y="443.44" width="367.19" height="44.26"/><polyline class="cls-7" points="532.99 475.4 532.99 484.15 165.79 484.15 165.79 475.4"/></g><g class="cls-16"><polygon class="cls-4" points="-43.78 432.26 1021.02 507.97 1008.96 455.04 -55.85 379.33 -43.78 432.26"/><polygon class="cls-5" points="-39.58 450.71 1025.23 526.43 1015.68 484.54 -49.13 408.83 -39.58 450.71"/><polyline class="cls-6" points="-36.64 463.58 -34.26 474.05 1030.55 549.76 1028.16 539.29"/><polyline class="cls-6" points="-37.55 435.24 -30.39 466.64 1036.5 542.5 1029.34 511.11"/><polyline class="cls-7" points="-27.83 457.56 -25.45 468.03 1039.36 543.75 1036.97 533.27"/><polyline class="cls-7" points="-30.19 463.05 -27.8 473.52 1037.01 549.24 1034.62 538.76"/><polygon class="cls-8" points="-17.52 525.68 1047.29 601.39 1035.22 548.46 -29.59 472.75 -17.52 525.68"/><polyline class="cls-7" points="-25.92 510.6 -23.53 521.07 1041.28 596.78 1038.89 586.31"/></g><g class="cls-17"><rect class="cls-4" x="404.92" y="508.89" width="337.82" height="16.04"/><rect class="cls-5" x="404.92" y="517.83" width="337.82" height="12.7"/><polyline class="cls-6" points="742.74 534.42 742.74 537.6 404.92 537.6 404.92 534.42"/><polyline class="cls-6" points="740.95 525.71 740.95 535.23 402.47 535.23 402.47 525.71"/><polyline class="cls-7" points="739.46 532.38 739.46 535.55 401.64 535.55 401.64 532.38"/><polyline class="cls-7" points="740.62 534.12 740.62 537.29 402.8 537.29 402.8 534.12"/><rect class="cls-8" x="403.32" y="537.09" width="337.82" height="16.04"/><polyline class="cls-7" points="742.74 548.68 742.74 551.85 404.92 551.85 404.92 548.68"/></g><path class="cls-2" d="M590.6,501.25c-15.76,1.43-30.11,8-45,12.43-26.68,8-53.85,9.91-81.48,7.35-30.84-2.87-61-9.46-91.45-15-20.1-3.69-40.21-7.62-60.9-4.73a182.27,182.27,0,0,0-39,10c-29.09,10.95-58.91,12.94-89.39,8.55-23.38-3.37-46-1.49-67.78,8.53-8.12,3.74-14.29,9.57-20.63,15.41-1.35,1.24-2.64,2.54-4.06,3.69C84,553,78.63,553.69,73.2,549.9c-6.06-4.24-8.46-11.6-6.15-19a21.83,21.83,0,0,1,1.6-4.19c1.69-3,1.36-5.77-.16-8.88-3.27-6.72-.53-13.15,6.81-15.32,5.87-1.74,12.24-1.92,18-3.92,26.3-9.11,50.27-21.62,66.58-45.61a314,314,0,0,1,23.73-30.17c13.37-15.28,30.1-25.48,49-32.46l1.36.5a2.25,2.25,0,0,0-.31.51l-1.11.22a116.29,116.29,0,0,0-29.2,17.66c-1.62,1.35-4.36,2.21-3.76,5.27-2.08-1.93-3,.38-3.92,1.32-9.07,8.82-16.56,18.93-23.41,29.52l-13.22,18c-1,1.27-2,2.55-3.09,3.81-6,7.19-6,7.18-.84,15.56a68.25,68.25,0,0,1,3.52,13.7c-.45,5.45.6,11-1,16.39-.56,2,.62,2.66,2.49,2.64,10.82-.15,21.54,1.51,32.32,1.88,12.79.44,25.63,1,38.36-.87,12-1.79,23.74-4.51,34.89-9.46l28.94-9.23,23.91-4.2,15.92-.21c9.2,1.12,18.39,2.27,27.57,3.59,8.32,1.19,16.47,3.73,25,3.59.87,1.45,2.24,1.21,3.58,1.06,11.51,2.91,23.21,4.85,34.91,6.76a307.17,307.17,0,0,0,34.72,5.85c10.49,1.29,21.06,2.55,31.7,2.25,2.08-.06,4.22.17,3.62-3l0,0c2.21,0,2.16,3.38,5.12,3,10.14-1.4,20.4-1.77,30.52-3.56,17.15-3,33.52-9.24,50.67-12.24l3.67-.31C587.17,500.73,589.11,499.74,590.6,501.25ZM98.52,536.39c5.84-5.36,13-8.54,20-12,10.5-3.64,21.07-7,32.11-8.62l1-.16,1.92-.15c1.91.12,2-1.18,2-2.56a67.72,67.72,0,0,0-1.68-17.9c-.6-5.8-2.27-11.33-4-16.87-.74-2.38-1.28-3.21-3.44-1.32-8.16,7.13-17.56,12.39-26.9,17.73l-1.38.71a.59.59,0,0,0-.57.23,114,114,0,0,1-39,12c-6.08.74-7,3.19-5.19,9,1.57,3.6,2.28,7.2.14,10.87a7.34,7.34,0,0,0-1.26,4.22c-3,4.38-2.28,9.76,2,14.25a9.13,9.13,0,0,0,12.26.8A75.92,75.92,0,0,0,98.52,536.39Z"/><path class="cls-2" d="M409.08,379.41c12.6-6.23,25.23-12.39,37.79-18.69,11.26-5.66,22.39-11.51,34.67-14.84,14.74-4,29.73-5.84,44.9-4.59a50.44,50.44,0,0,0,30.94-6.9,50.63,50.63,0,0,1,27.68-7c4.33.14,8.7-.22,13,.27,9.33,1.05,16.91-2.24,23.55-8.47,1.45-1.36,3.09-2.54,4.51-3.93,6.41-6.28,13.49-6.22,21-2.34,16,8.27,25.2,22.15,31.43,38.42a28.9,28.9,0,0,1,2.08,14.21,1.93,1.93,0,0,0-.92-.13c-.46-1.3-.93-2.59-1.39-3.89a16.24,16.24,0,0,0-2.6-10c-1.66-6.89-5.45-12.64-9.68-18.16a48.27,48.27,0,0,0-18.63-16.88c-8.91-4.72-12.69-4.1-20.1,2.74-3.65,3.38-6.93,7.31-11.48,9.47-3.92,1.86-3.77,3.95-1.3,6.75,3,7.82,8.09,14.36,13.08,21l10.77,12.15,3.07,2.87,1,1.06c1.93,2.49,4,4.88,7.07,6,0,1,0,2,0,3-2.28.56-3.68-1-5.23-2.2-5.78-4.41-10.68-9.75-15.73-14.94-7.33-9.14-13.38-19-16.5-30.43-.5-1.83-1.12-3-3.37-2.38-7,1.83-14.25,1-21.37.86-8.36-.14-16.72,1-23.52,5.42-13.58,8.85-28.18,11-43.77,9.59a34.08,34.08,0,0,0-3.5,0,120.09,120.09,0,0,0-46.67,10.1c-17.23,7.51-33.17,17.65-50.56,24.81-4.8,2-9.15,5.51-14.82,5C407.26,385.38,408.54,382.61,409.08,379.41Z"/><path class="cls-2" d="M232.49,386.52c-2.5-5.25-1.64-10.48,0-15.76,1.06-3.44,2.93-4.21,6.37-3A133.44,133.44,0,0,1,256,375.66a163.58,163.58,0,0,0,85.64,18.84c2-.1,4-.06,6-.08,6.08-.92,11.29,2.1,16.81,3.69a22.16,22.16,0,0,1-13,2.23c-13.86-1.49-21,8.47-29.25,16.64l.08.14c-2-.48-2.89.9-3.8,2.25a131,131,0,0,0-20.23,22.12,4.76,4.76,0,0,0-2.26,3.77,73.16,73.16,0,0,0-11.81,18.83c-4.73,7.29-7.9,15.29-10.53,23.51-.46,1.44-.55,2.94-2,3.79-.3-3.51,1.7-6.6,1.79-10,2.1-5.54,4.25-11.07,6.28-16.64.51-1.4,2.42-2.92.13-4.46a9,9,0,0,0,4.28-3.79c2.14-3.19,3.55-6.72,5.35-10,2.41-4.19,6.74-7.08,8.05-12,5.8-4.19,9.87-10.16,15.2-14.84,6.91-6.55,15.28-11.29,22.7-17.68-3.79-1-7.14-1.95-10.58-1.61-7.68.77-15-1.32-22.22-3.17-8.79-2.23-17.44-5-26.15-7.52a56.48,56.48,0,0,1-10.21-4.71q-12.72-7.19-25.69-13.94c-4.92-2.55-5.41-2.08-7.31,3.26C231.79,378.28,233,382.43,232.49,386.52Z"/><path class="cls-2" d="M364.47,398.11c-5.53-1.59-10.74-4.61-16.82-3.69a214.07,214.07,0,0,0,46.85-9.56c-.47,4.42-5.41,5.19-7,8.65A198.12,198.12,0,0,1,364.47,398.11Z"/><path class="cls-2" d="M387.46,393.51c1.63-3.46,6.57-4.23,7-8.65,2.51-1.59,5.38-2.2,8.2-2.92-.55,2.65-3.24,4.45-2.93,7.44C396,391.87,391.72,392.61,387.46,393.51Z"/><path class="cls-2" d="M399.77,389.38c-.31-3,2.38-4.79,2.93-7.44a16.52,16.52,0,0,1,6.38-2.54c-.54,3.21-1.82,6-4.6,7.88l-2.13,3.1a2.84,2.84,0,0,1-.65,0C401.31,389.56,400.54,389.47,399.77,389.38Z"/><path class="cls-2" d="M590.6,501.25c-1.49-1.51-3.43-.52-5.12-.93a11.56,11.56,0,0,1,7-1c1.58.18,3,.05,3.17-2l1.6,0c-.14,3.17,3,2,4.28,3.17-1.85,1-.3,1.88.15,2.8l-.67,1C598.24,500.79,594.32,501.36,590.6,501.25Z"/><path class="cls-2" d="M602.44,503.87c0,.45,0,.89,0,1.34l-1.42-1,.67-1A1.48,1.48,0,0,1,602.44,503.87Z"/><path class="cls-2" d="M233.62,391.33c-.27.56-.58,1-1.11.22Z"/><path class="cls-2" d="M119.52,494.57l-1.38.71Z"/><path class="cls-2" d="M150.62,515.8c.17-1,.51-1,1-.16Z"/><path class="cls-2" d="M641.43,371.41c1.52.16,1.52.16,1,1.06Z"/><path class="cls-2" d="M400.9,391.82l.8-1.45a2.84,2.84,0,0,0,.65,0c0,.67,0,1.34,0,2a1.68,1.68,0,0,0-.8.08A3.18,3.18,0,0,0,400.9,391.82Z"/><path class="cls-2" d="M596.84,489.63c0,.89,0,1.78,0,2.67l.33,1.27c0,1.24,0,2.47.06,3.7l-1.6,0q-.82-4.95-1.64-9.9-.13-3.33-.25-6.66a2.33,2.33,0,0,0,.4-2.28c.42-3,.85-6,1.27-9,3.39-8.11,6.76-16.24,14.57-21.34l.54.41c-4.29,6.92-9,13.63-10.61,21.86-1.73,4.53-2.17,9.29-2.55,14.06C596.08,486,596.47,487.83,596.84,489.63Z"/><path class="cls-2" d="M205.24,419.58a93.07,93.07,0,0,0,20.23,16c5.5,3.69,10.76,7.84,17.39,9.46,6,4.77,13.44,6.45,20.37,9.16,4.41,1.74,9,2.91,13.6,4.27a1.85,1.85,0,0,1,1.5,1.68c-17.94-.83-33.51-8.53-48.84-16.89-1-.55-2-1.12-3-1.68a87.39,87.39,0,0,1-24.93-23.8c-.23-.33-.07-.93-.08-1.4Z"/><path class="cls-2" d="M201.53,416.49c-1.56.16-1.77-1-2.08-2.09A2.13,2.13,0,0,1,201.53,416.49Z"/><path class="cls-2" d="M306.51,418.44c.33-.69.67-.7,1,0h-1Z"/><path class="cls-2" d="M254.62,501.57c3.75-.29,6.49-3,9.89-4.13l.06,1.41-7.17,4.57c-4.4,1-7.26,4.7-11.37,6.35-.65-1.66,1.32-2,1.49-3.24l2.08-1.07,1-.77a6.23,6.23,0,0,0,4-3.18Z"/><path class="cls-2" d="M249.6,505.46l-2.08,1.07C247.91,505.59,248.72,505.46,249.6,505.46Z"/><path class="cls-2" d="M264.57,498.85l-.06-1.41,6-3.1c9.89-3.59,19.54-8.47,29.75-10.43,11.63-2.24,23.09-5.67,35-6.47a14.68,14.68,0,0,0,3.29-1l3.91-.17c10.31-1.28,20.59-3.09,30.94-3.61,5.84-.29,7.07-2.38,6-7.35.06-.78.33-1.63-.75-2l.12-.12c1.12-3.83.9-7.78.94-11.7a.8.8,0,0,0,0-.79,3.62,3.62,0,0,0,.67-3.29c.66-9.33,4.15-18,6.13-27,3.43-8.27,6.4-16.76,11.27-24.36,1-1.48,1.38-3.39,3.18-4.25a3.39,3.39,0,0,1,.65.66c-2.68,7-6.19,13.66-8,21a35.56,35.56,0,0,0-3.22,9.73c-2.23,4.75-3.11,9.87-4.08,15a132.67,132.67,0,0,0-5.1,33.65c15.91-1,31.7-3.22,47.57-4.65,13.17-1.19,26.2-4,39.32-5.9,3.79-.55,5.42-1.91,3.57-5.73.21-1.85-.61-3.42-1.32-5,0-5.77-1.08-11.41-1.94-17.08l-.3-7.1a3.48,3.48,0,0,0-.3-3.22c0-2.13-.05-4.25-.08-6.38,1.31-3.34.62-6.82.68-10.25l.1-3.07c1.61-15.78,4.56-31.24,10.71-46-2.41,11.89-5.09,23.73-5.71,35.89-1.43,2.55-.64,5.38-1,8.06-1.54,5-.7,10.05-.68,15.09.07,1.3.14,2.61.22,3.92a2.18,2.18,0,0,0,.4,2.38l.15,5.71a27.48,27.48,0,0,0,.86,9.12c.07,6.5,1.48,12.8,2.68,19.14.41,2.22,1.28,3.1,3.68,2.56,20.81-4.73,41.73-8.93,62.82-12.27,17.54-2.78,35.08-5.34,52.92-4.47l2-.22,10,.18,1.92.52,1,.7c0,.4,0,.8,0,1.2l-2.15-.27a1.08,1.08,0,0,0-.84-.1c-31.91-1.08-63,4.83-94,11.32C503.32,458,493.23,460.59,483,462c-5.5.78-5.85,2.83-4.11,7,.32.76.59,1.56.88,2.34-.17,2.58,1.66,4.61,1.95,7.07.23.37.46.75.68,1.13l-.06,0c.23,3.56,2.13,6.57,3.26,9.84l.82,1.11-.07.12c1.92,5.52,3.78,11.07,7.11,16,.06.91.11,1.82.16,2.73l-.15.14-3.35-4.14c-2.21-4.15-3.7-8.75-7.41-12-.17-.49-.33-1-.5-1.48-.78-3.57-1-7.31-3.13-10.48-1.47-4.77-3.15-9.48-4.32-14.32-.64-2.65-1.83-3.1-4.2-2.6C447.41,469.4,424,471.9,400.42,474c-21,1.84-42,3.41-62.86,6.58-14.64,1-28.67,5.21-43,8.09-7.63,2.11-15.32,4.08-22.45,7.67a.93.93,0,0,0-.65.15,1.46,1.46,0,0,0-.91.21Z"/><path class="cls-2" d="M527.57,510.5l-.47,1.26a2.27,2.27,0,0,1-.34-.27c.21-.37.45-.73.69-1.1Z"/><path class="cls-2" d="M493.6,509.36c.26.34.52.67.75,1,0,0-.32.25-.49.39-.14-.43-.27-.85-.41-1.27Z"/><path class="cls-2" d="M495.53,513.43l-.4-.48c.09,0,.21.06.25.12a1.61,1.61,0,0,1,.12.39Z"/><path class="cls-2" d="M482.2,491.91c.16.49.32,1,.49,1.48l-1.18,0h0c0-.33,0-.66,0-1Z"/><path class="cls-2" d="M284.51,494.44l1.05-.74c.3,1.17-.72.47-1.05.74Z"/><path class="cls-2" d="M270.59,496.66a1.46,1.46,0,0,1,.91-.21C271.3,496.94,271,497.16,270.59,496.66Z"/><path class="cls-2" d="M546.93,404.3,544,393.36c-3-14.53-4.34-29.14-1.92-43.94.77,7.35,1.07,14.74,2.42,22,.46,8.9,2.53,17.48,5.05,26,1.77,5.27,1.79,11.2,5.86,15.61.16,7.31,4.65,12.8,7.93,18.8l.66,1.73,2.41,4.13c0,.93,0,1.87.05,2.81l0-.06c-3.17-2-4.12-5.83-6.78-8.26l-7-12.83Z"/><path class="cls-2" d="M653.53,382c1.6,2.67,5.15,3.75,5.87,7.15-4.44-.58-7.45-3.3-10-6.7,0-.34.06-.69.08-1Z"/><path class="cls-2" d="M662.62,365.51l-1.1,0C661.9,364.68,662.26,364.92,662.62,365.51Z"/><path class="cls-2" d="M610.44,444.88c0-.4,0-.8,0-1.2,9.81-.48,19,2.48,28.37,4.84,1.69.42,3.66.47,4.71,2.29A222.08,222.08,0,0,0,610.44,444.88Z"/><path class="cls-2" d="M610,448.07c.39-.6.51-1.51,1.56-1.34a.78.78,0,0,0,.06.6l-1.08,1.15Z"/><path class="cls-2" d="M607.45,444.51a1.08,1.08,0,0,1,.84.1l-.44.13Z"/><path class="cls-2" d="M611.64,447.33a.78.78,0,0,1-.06-.6l.4.4Z"/><path class="cls-2" d="M596.84,489.63c-.37-1.8-.76-3.61.56-5.23.06,1.68.12,3.36.19,5.05A4.56,4.56,0,0,0,596.84,489.63Z"/><path class="cls-2" d="M605.45,472c-.16.24-.32.48-.47.72-.13-.26-.37-.52-.36-.77s.27-.49.42-.73Z"/><path class="cls-2" d="M597.21,493.57l-.33-1.27Z"/><path class="cls-2" d="M702.52,538.44c0-.34,0-.68.05-1l.95,1-1,0Z"/><path class="cls-2" d="M380.33,447.46a3.62,3.62,0,0,1-.67,3.29C379.5,449.58,379.27,448.39,380.33,447.46Z"/><path class="cls-2" d="M382.51,417.44l.75,1.06c-1.21.32-.49-.71-.74-1.07Z"/><path class="cls-2" d="M306.51,418.44h1l-.5,1.3Z"/><path class="cls-2" d="M593.78,480.74a2.11,2.11,0,0,1,.4-2.28A2.33,2.33,0,0,1,593.78,480.74Z"/><path class="cls-2" d="M379.35,465.35a1.92,1.92,0,0,1-.75-2C379.68,463.72,379.41,464.57,379.35,465.35Z"/><path class="cls-2" d="M481.7,478.45l.69,1.13Z"/><path class="cls-2" d="M485.58,489.44l.82,1.11Z"/><path class="cls-2" d="M480.53,492.45h1c0,.34,0,.67,0,1Z"/><path class="cls-2" d="M465,407.06c.08.14.21.27.2.4s-.17.23-.26.35Z"/><path class="cls-2" d="M566.48,440.47c.69-.07,1.28.07,1.44.83,0,.15-.34.57-.48.55-.81-.12-.79-.83-.91-1.44Z"/></svg>