<svg id="Layer_1" data-name="Layer 1" xmlns="http://www.w3.org/2000/svg" viewBox="0 0 450 450"><defs><style>.cls-1{fill:#fff;}</style></defs><title>Artboard 6</title><path d="M243.31,424.7c2.95-4.76.89-6.42-1.48-8.66-3.8-3.59-6.7-8.13-10.35-11.9-9.11-9.4-18.62-18.42-27.59-28a105.25,105.25,0,0,1-12.8-16.3,128.63,128.63,0,0,1-11.18-22c-1.66-4.39-.91-9.71-1.24-14.61-.26-3.79-.39-7.61-.85-11.39a6.86,6.86,0,0,0-1.83-3.11c-1.25-1.52-2.75-2.83-4-4.33-7.47-8.82-14.73-17.82-22.42-26.43a26.19,26.19,0,0,0-14-8c-2.87-.67-5.31-3.91-7.59-6.33-6.73-7.09-13.29-14.34-19.89-21.56a68.24,68.24,0,0,1-4.83-5.65c-8.59-11.6-17.58-22.94-25.49-35C72.9,194.11,70.6,185,65.68,177.72c-11.82-17.56-21-36.41-29.92-55.49-1.57-3.37-1.33-6.1,1.4-9a75.09,75.09,0,0,0,8.44-11A10.61,10.61,0,0,0,47,96.05c-.9-12.14,5.88-16.88,14.43-22.75C69,68.15,76,70.62,83.24,72.9c4.76,1.51,9.25,2,14.07.34,6-2.13,11.76-.14,17.31,2.2,3,1.28,6,2.72,9,4.13,5,2.39,10.22,2.92,15.4.67,5.5-2.4,10.11-1.61,15.25,1.75,7.55,4.93,16,8.42,23.68,13.23,13.42,8.47,26.82,17,39.62,26.4,8.4,6.14,15.7,13.77,23.58,20.61,2.12,1.84,4.37,3.86,6.93,4.79,10.62,3.86,17.66,12,25,19.89,9.56,10.2,22.15,14.83,35.22,17.87,7.32,1.71,13.72,4.3,19.48,9.12,4.39,3.68,9.32,6.73,14,10.07a5.15,5.15,0,0,1,1.18.91c4.6,5.93,9.72,11.55,13.59,17.92,3.71,6.13,6.09,13.07,9.12,19.63,1.46,3.16,3.17,5.68,6.93,7.14,2.48,1,3.83,4.65,5.91,6.93,6.9,7.56,15.57,14.11,20.41,22.8,5.27,9.46,14.25,15.37,19.32,24.6,3,5.49,6.72,10.36,5.79,17.51-.65,5,1.46,10.3,1.49,15.47a23.28,23.28,0,0,1-2.37,10.36c-3.27,6.36-3,13.36-4.65,20a12.53,12.53,0,0,1-2.29,5.26c-8.11,8.95-15,18.92-26.17,25.07-4.82,2.66-9.65,5.23-14.59,7.7a56.25,56.25,0,0,0-12.87,9c-5.78,5.38-11.63,10.09-19.67,11.8-4.45.94-8.69,3.08-12.91,4.94-10.1,4.46-20.2,8-31.37,3.56-1.6-.63-4.06,0-5.79.84-4.16,1.94-7.73.78-11.2-1.43-3.74-2.37-7.17-4.61-12.18-2.76a9.81,9.81,0,0,1-8-1.19C256.41,426.18,251.41,423.11,243.31,424.7Zm40.25-7.28L294.84,415l2.89-.14,11.32-2L303.69,417l.2,1.09,5.9-1.29c.1.3.2.6.29.91l-5.44,3.86,4.51.34c-.1,7.46-4.39,6.3-9.4,5.57-3.76-.54-7.79.75-11.69,1.23.08,1,.17,2.08.25,3.12,3.33-.82,6.78-2.66,10-2.28,15.57,1.83,21.46-1.14,27.17-15.2l-11.61,13.05-1.08-1.12,7.07-7.94-.37-.28-7,6.14L311.32,423c2.5-2.8,6.15-5.24,7.15-8.5s-.67-7.32-1.18-11l-1.18.23-2.84,7.67-5.15-4.58,2.65-3.64-.4-.41-4.45,3.68-.75-.66L306.4,403l-5.15.63-.07-.84L307.6,398c-1.24-.47-1.44-.62-1.54-.57-4.55,2.51-8.62,7.15-14.64,3-.53-.36-2.16.56-3.1,1.17-3.21,2.1-6.35,4.33-10.55,7.22L285.1,411l-3,3.38c-4-.81-8-1.58-8.62-6.39l-3.15.26c-.06-.33-.11-.66-.17-1l-5.08,3.18,4-8.11,9.18,2.13c-.68-3.32-1.22-5.92-1.75-8.49-13.76,1.79-24.7,14.12-26.08,22.74l3.75-2.28c-.2.46-.4.92-.61,1.37l16.17,8.87-.56-5.28c-8.38-.55-9.59-1.32-9.3-5.92,6.67,3.67,16.84.69,20.38,12.23,4-1.59,8.28-3.14,12.34-5.15.57-.29,0-2.87-.06-5.45-3.89,3.51-6.91,5.16-10.48,1.86ZM191.74,311.27l-.56,2.09-1.47,2.28c-.56-2.27.35-4.53-.1-6.46s-2.26-3.86-3.81-6.3c-.25,4.86-.43,8.77-.65,12.67-.11,1.84-1,4-.33,5.46,4.9,11.31,9.85,22.61,15.28,33.67,2.72,5.55,6.48,10.58,9.78,15.84l-1.44,1.2L200,361.83a20,20,0,0,0,4.95,7.86c4.31,4.17,9,8,13.36,12.07,2.53,2.38,4.53,5.34,7.2,7.54a55.79,55.79,0,0,0,10.74,7.28c2.94,1.43,6.46,1.89,9.78,2.25,5.59.62,11.59,3.13,16.55-1.35,2.15-1.94,3.27-5,4.92-7.67l-5.53-2c-.77,3-1.48,5.77-2.18,8.53l-1.72-.25,1-14.61-1.26-.12c-1.18,4.76.2,10.67-5.67,13.77,1-5.11,1.89-9.82,2.8-14.52l-1.28-.41c-1.39,5-1.06,11.17-7.92,13.34l4.23-8.73-.82-.38-5.36,8.77-.68-.41q1.17-6.15,2.36-12.31l-1.34-.28c-.91,2.6-2.8,5.31-2.53,7.78.83,7.58-3.33,2.87-4.88,3l5.05-11.49-1.68-.71c-.83,2-1.53,4.11-2.53,6s-2.2,3.49-3.32,5.22l-1.06-.71,4.7-13c-5.5,2.44-4.55,8-7.21,12-2.58-7,4.66-13.35,1-20.58l-4.52,17.39c-3.4-1.8-3.18-1.73-2.06-5,1.94-5.65,3.57-11.4,5.33-17.11l-2.14-.55a76.09,76.09,0,0,1-1.53,8.42,74.48,74.48,0,0,1-3.27,7.86l-.88-.36L225.22,359l-1-.13q-1.59,8.52-3.2,17l-1.61-.25c-.2-1.3-.41-2.59-.6-3.84l-3.68,1.26c.67-1.28,1.33-2.19,1.19-2.34-3.76-4-.52-8.43-.91-12.61-.13-1.42-.93-2.78-1.77-5.15l-3.52,7.42-1.21-.54,1.68-10.73-1.07,0-3,5.81-.79-.41q.48-7.23,1-14.48l-1.55-.17c-.6,2.13-1.19,4.26-1.79,6.39l-1.64-.33q1.2-13.47,2.39-27l1.86.14.15,11.54,1.41,0,1.11-8.43,1.58,0c.37,2.85.75,5.71,1.19,9,.72-1.46,1.23-2.51,1.75-3.55l1,.08.66,7.83.63,0c.47-1.86.94-3.71,1.77-6.95,1.06,2.63,1.57,3.9,2.18,5.43.63-1.08,1.2-2.05,1.78-3l1.43.18q.17,9.68.35,19.34l.78,0,1.41-13.94,1.37-.15c.73,4.12,1.45,8.25,2.17,12.35,5.07-8,.68-16.05-.43-24.22q-.94,3.74-1.91,7.46l-1,.08c-.65-2.92-1.3-5.84-2-9.05l-3.16,3.54c-.5-2.45-.86-4.18-1.41-6.81l-1.22,4.32-1.45.05q-.9-6.83-1.81-13.66l-.56.07c-.14,3.07-.29,6.14-.43,9.21l-1.52.15c-.55-1.73-1.09-3.46-1.67-5.28l-2.89.94L204.16,309,201,311.76c.68-4.51,1.15-7.62,1.74-11.5-1.2,1.87-2,3.16-2.85,4.44l-1.59-.92q2.63-4.71,5.23-9.42L205,295c-.34,1.22-.69,2.44-1.08,3.84l2.43-.29-1.82,7.9,1.26.46,3-5.87.91.21c0,2.78.05,5.55.08,8.33l.76.13,2.77-8,1.09.45,1.08,5.31.94-.19c.08-2.07.17-4.14.25-5.94l5.26.16c0,1.55.08,3.1.13,4.64l.92.05q.69-6,1.39-11.9l-.92-.3-3.69,4.56c.53-2.52.75-3.73,1-4.92.25-1,.59-2,.89-3.06l-.53-.15-4.85,6.82-1.29-.72,3.37-7.11-.57-.28-6.14,8.49-1.66-.38c-.33-7.3-.65-14.61-1-22l-3.56,1.81,1.83-5.16-3.8-.14c.28-1.31.55-2.5,1-4.6l-4.88,4.69-.9-.7,3.24-5.23c-4.93,1.73-9.54,9.26-9.34,14.9l2-2.23.57.31c-1.19,3.54-2.39,7.07-3.79,11.24l4.71-4.23c-1.49,3.84-2.64,6.57-3.6,9.36s-1.77,5.86-2.65,8.79l1,.34,3.69-8.6.94.34Q193.59,303.72,191.74,311.27Zm-26.46-75.64v.25l4-2c.64,2,1.2,3.79,1.54,4.83l8.17-4.28.69,1.31c-5.32,2.21-5.32,2.21-4,5.31a24.87,24.87,0,0,1,4.57-1.82c7.4-1.34,9.78,6.34,15.54,7.8l-4.08,7.41,6.11-3.6.62,1.19L196,255.19l4.25,3.11,8.35-3.08c-.73,3.86-1.19,6.36-1.94,10.36l3.83-6.53,5.34,3.12c-.92,2.52-1.78,4.91-2.65,7.3l.77.25,2.66-4.26,1.47.55-2.79,8.48,4.62-6.06.87.29c-.32,2-.63,3.94-1,6.24l3.51-.35-1,3.45,4-1.82-3,6.69,4.59-4.3c5.44,4.42-.84,6.56-2.05,10.5,5.42-3.06,10-6.16,15.86-4.17a38.52,38.52,0,0,1-10.06,3.62c-3.86.69-4.47,2.51-3.68,4.7l14.3-5.76.71,1.52-7.47,4.41.42.88,11.38-3.84.54,1.43-11.88,5.91.61,1.68,13.06-4.46.63,1.38-13,6.48c2.94,4.48,5.4.32,7.62-.51,2.76-1,5.27-2.73,7.88-4.15l.88,1.57-12.95,7.92c6.8,2,11.24-2.57,16.31-4.51l.66,1.22L245.21,313c5.74,1.74,9.5-2.72,14.07-4.31l.84,1.4L246.72,318c6.35,3,10.48-2.21,15.42-3.81.26.43.53.85.79,1.27l-12.51,7.84c.12.42.23.83.34,1.24l14.14-3.7c-2.25,6.07-9.23,4.25-14,7.18,6,4,10.91-.67,16.4-1.47-3.07,6.33-9.13,4.68-14.7,6.09,6.67,4.06,12.15.91,18.12-.91-3.31,6-9,5.2-15,6.23,6.65,3,12.14.41,18.28-.49-5.23,6.68-11.68,4.41-18.82,3.78,5.87,8.47,13.6,1.8,19.65,3.55,0,.57.07,1.15.1,1.72l-16.31,2.41c6.47,5.48,13.59,2.4,20.54,2.78a20,20,0,0,1-7.9,3c-3,.3-6.06-.24-9.93-.46,7.19,7.87,14.81,6.39,23.19,3.22-5.73,7.94-12.79,4.91-20.62,3.79,6.88,7.41,14.51,4.53,22.36,4-7.63,6.34-15.13,3.12-23.76,1.14,10.69,10.88,21.15,4.2,32,2.13-9.24,8.38-18.84,7.84-28.88,4.34,8.73,7.36,18.24,5.58,27.92,2.62-9.11,8.84-19,4.92-29,2.08,7.78,7.44,17.46,5.18,27.05,4.65-8.14,7-16.75,3.57-25.5,2.21,1.94,1.71,4.12,2.27,6.22,3a8.17,8.17,0,0,1,2,1.57,13.84,13.84,0,0,1-2.06,1.47c-1.41.69-2.88,1.23-5.15,2.17,5.12,2,7.18,1.51,9.07-.47,1.24-1.3,3.17-2.63,4.83-2.68,6.41-.2,11.06-2.86,14.27-8.38a4.76,4.76,0,0,1,2.77-1.95c3.54-.86,8.55-7.06,7.64-10.31-1.17-4.22-4.72-4.74-8.46-4.15-.26-2.22-.48-4.12-.77-6.58l-4.08,5.07-1.25-.89,4.85-8.61-.92-.46-4.52,6.42-1.15-.64q2.78-6.18,5.56-12.38l-1.12-.46q-2.67,4.39-5.36,8.79l-1.09-.54q2.22-6.28,4.43-12.57l-.72-.19-5.4,8.51-1.32-.79q2.31-5.61,4.64-11.22l-.92-.24-5.47,6.9-1.22-.9a39.28,39.28,0,0,0,3-4.76,41.1,41.1,0,0,0,1.71-5.45l-.79-.14-4.59,7-1.2-.74q2.1-4.77,4.18-9.53l-1-.44-4,6.44-1.75-.7c.54-2.69,1.05-5.38,1.63-8.06.23-1.07,1.09-2.26.82-3.13-1.48-4.91-3.21-9.74-4.89-14.58a3.2,3.2,0,0,0-.7-1c-1.26-1.46-3.73-3.08-3.55-4.31a11.61,11.61,0,0,0-.85-6.86c-.91-2-1.53-4.2-2.29-6.36l-1.66.79c-.05-1.84-.1-3.59-.17-6.46l-1.85,3.3-.93-.31c.3-2.37.59-4.74.93-7.43l-5.15,3.65c.13-4.46.24-7.89.34-11.09l-3.15,2c.46-2.82.76-4.66,1.07-6.58l-2.69,1,3-6.23-6,1,5.9-9.33-.7-.58-5.63,6.33-.95-.71,3.09-5.21-.67-.53-4.51,3.19c2.17-4.84,4-9,5.91-13.15l-.65-.28-5,6.57-1.35-.68c.42-2.63.83-5.25,1.26-8L241.08,250c1.43-7.18,5.79-12.63,4.38-20.32l-8.62,15.2-1.24-.71,3.81-9.58c2.91-7.27,2.91-7.27.7-9.5a93.5,93.5,0,0,1-3.16,9.41,78.81,78.81,0,0,1-4.73,7.92l-1.2-.65c1.35-6.35,6.5-11.81,5.35-19.41-3.06,5.16-5.75,9.67-8.44,14.19l-1.17-.57c1.42-6.34,6.53-12,4.07-19.47l-8.09,13.78-.8-.54q2-8.32,4-16.64l-.9-.14-6.62,10.6-.93-.61,4.05-11.23-1-.36-5.37,7.38-.93-.6,2.13-9.62-.75-.17q-2.7,3.72-5.39,7.46l-.66-.56,2.46-9.12-1.13-.46-5.37,6.77-1.3-.67,1.9-8-.62-.25-6,8.92-1-.51q1.69-4.83,3.4-9.65l-.57-.21-3.72,4.83-1.1-3-2.6,1.85-.63-.56c1.21-1.89,2.42-3.79,4-6.26L187,205.6c2.19-3.61,3.77-6.22,5.36-8.82l-1.08-.8-5.74,6.45-1-.78,4-6.33-.58-.67-12,10.44-.92-1,9.5-9.61-1.05-1.11-7.92,8.91-1.49-1.16,5-7.22-.38-.31-7.58,6.74-1.75-1.11c.95-2.39,1.91-4.77,3.16-7.9l-7.23,5.94-.65-.54c1.1-1.79,2.19-3.57,3.52-5.72l-7.06,5.18-.85-1,4.66-5.24-.67-.76-9,5.37-.67-1.06,7.63-6.78c-.24-.39-.48-.79-.73-1.18l-12.49,7.16-.78-1,10.41-8.61c-.2-.33-.39-.67-.58-1l-12.65,6.4-.73-1.06q6-4.36,11.95-8.75l-.54-1.27-14.63,5c-.14-.28-.28-.56-.41-.84l11-6.66-.34-.72-12,5.19c-.21-.42-.41-.84-.61-1.25l11.62-6.28-.37-1.33-15.68,3.55c-.14-.48-.28-1-.43-1.44l17.21-5.32-.13-.66L138,168.32l-.22-1.22,10.28-3.71c-.08-.33-.16-.65-.23-1l-7.35,1.11-.33-.86,6.88-3.54c-.07-.24-.13-.48-.2-.73l-17.72,3.77c-.12-.57-.25-1.14-.38-1.71a46.58,46.58,0,0,0,7.14-1.47,44.72,44.72,0,0,0,6.27-3.46l-.55-1-16.08,5.18-.36-.78,15.33-7.39-.51-1.35-7.83,1.28,3.21-4.45-8.17,3-.84-1.36,12.58-9.27c-.08-.33-.17-.66-.26-1l-18.28,6.66c-.27-.33-.53-.66-.8-1l11.66-9.44c-.14-.35-.29-.7-.44-1.05l-17,7.24-.51-1,12.33-7.6c-.15-.44-.29-.89-.43-1.33l-15.83,4.66-.62-1.29,16.87-8.37c-7.57-1.25-14.38,2.33-21.15,6.16,4.07-7.84,13-7,19.44-10.54l-.78-2-19.49,6c-.15-.34-.3-.67-.44-1l18.37-9.79c-7.89-1.22-13.86,3.08-20.33,5.3l-.54-1.17,15.22-8.42c-.18-.52-.35-1-.52-1.57l-18.76,6-.37-.88,17.16-8.26c-7.75-3.46-13.31,2.83-19.72,3.9l-.41-1.18,13.48-6.23c-7.91,1-16.08.71-23.1,5.43-.14.09-.44-.06-.75-.11.57-1,1.09-1.84,1.7-2.85l-4.87,1c-.1-.25-.2-.51-.29-.76l5.19-3.11-.23-.7L74,103.47c-.11-.36-.22-.71-.34-1.07L80,99.9l-.4-1.27-9.27,2.62-.31-.56,3.59-3-6.39.65L68.38,96l-.75-1L49.4,103.24l.6,1.36,14.17-5.68.57,1.5-19.32,8.11.34.82,13.61-2.67c.09.48.19,1,.28,1.44l-14.75,4.2,3.82,3.39,14.91-3.63.3,1.07L47.67,119.3c.12.44.25.89.37,1.34,4.73-.79,9.46-1.56,14.19-2.36,2.5-.43,4.74-.51,6.26-3.61,1.13-2.3,4.4-3.54,7.46-5.8-1.6,3.11-2.21,5.48-3.71,6.93-1.77,1.71-4.45,3.89-6.48,3.66-5.65-.65-8.83,3.15-13,6.25l4.93.69,2.12.6c3.21,3,6.44,2.7,10.26.82,3.11-1.54,6.73-2.07,10.12-3l.36,1.31-15.07,5.64.54,1.65c6.78,2.36,12.18-4.48,19-3.63-3.8,4.78-12.41,1.83-14.8,10.32l17-4.75c.11.3.21.61.32.91l-12.45,5.54.91,2.72,18.64-4.27.38.88-18.25,7.45,4.55,4c-.21-2-.29-2.86-.33-3.23l18.72-3.91a19.43,19.43,0,0,1-7.1,3.33c-3.66.8-6.23,2.29-4.1,6.26.76,1.43,3.2,2.3,5,2.72,2.42.56,4.74.62,3.41,4.29l-12.91-4.3c4.47,6.54,11.58,6.37,17.22,9l-1,1.1,4.36,4.91L102,176.73l-12.74-2.6c2.77,2.15,6.53,5.51,8.76,4.7,5.28-1.92,6.6,1.9,9.52,4.12-5.23,4.29-9-.95-14.35-2l15.12,11.59-3.36,2.77,4.94,3.21L107,201.3l5.39,2.09c-.64,1.56-1.18,2.89-1.73,4.22l1.28-.79,3.73,3.32c1.15,1,2.2,2.68,3.51,2.92,1.88.34,4-.36,6.8-.72l-5.08,4.86c.13.46.25.92.38,1.38,1.82-.25,3.82-.11,5.42-.84,1.87-.86,3.39-2.48,5.71-4.26-1.86,4.77-4.35,7.64-8.64,9.1-4.08,1.38-4.17,1.9-2.72,5.21l15.8-13.3.71.42-6.27,8.27.83.79,13.3-12.66a11.56,11.56,0,0,1-2.23,5.17c-3.68,4.51-7.4,9.21-14,9.14-4.53-.05-5.78,1.61-4.09,6.32l3.16-3.18c-.27,2.1-.42,3.32-.6,4.79l5.11-1.77-5.9,13.57-1.88-.43c0-1.49,0-3,0-4.32l-2.73.44c.5-2.21.93-4.1,1.36-6l-5,2.67c.53-2.87.9-4.87,1.41-7.6l-5,2.74c.48-2.44.81-4.15,1.28-6.5l-3.61,2.79-.89-.71,4.16-7.12,1.35,3.32,2.61-2.93-4.54-4c-1.27,2.63-2.41,5-3.54,7.3l-1.62-.73c1.24-2.91,2.48-5.82,3.81-9l-3.53,3.07c-.77-2.43-1.11-4.65-2.13-6.49-3.55-6.36-7.13-12.73-11.15-18.79-1.16-1.75-3.86-2.47-7-4.38L93,194.17l-13.4-3c1.77,4,7.86,5.3,15,3l-1,2.77,4.08,1.36-.1,1.8-11.73.49,1.65,3,5.7.43,6-2.94c-.15,3.09.31,6.28-.42,6.58-2.26.93-5,.77-7.74,1.05,3.74,7.82,7.81-1.71,10.48.23l3,6.58-9.24,1.33c3,5.76,7.16-1.23,10,.85,3.68,5.69-.09,6.49-4.24,7.48l7,.43-2.67,4.31c7.52.73,9.6,7.15,12.19,11.88a12.1,12.1,0,0,0,4.2,4.46c.71.52.74,2,1.14,3.21,1,.38,3.57.74,3.73,1.57,1.08,5.6,5.07,6.91,10,7.57-2-7.51-4.74-15.12,3.48-21,3.87,7-5.64,11.86-1.45,19.09l6-15.87,1.77.08.63,6.36c-1.55,4.25-6.41,7.79-2.79,13.22,5-3.65,1.75-8.84,2.61-13.21l4.19-3.72,2.47,0c-.46,2.81-.92,5.63-1.39,8.44-1.29,3.56-4.41,6.82-3.13,10.82l2.57.27c.14-3.69.29-7.39.43-11.08,1.24-1.89,2.49-3.77,4-6.1,2,5.43,2.19,5.49-1.72,15.39-1.41,3.56-.55,6,3.07,8.36q1.35-10.54,2.71-21.11l1.71.05c.65,2.39,1.29,4.77,2.13,7.88l2.41-3.46,1.29,0c.28,2.09,1.06,4.27.72,6.25-.58,3.36-2.06,6.56-2.8,9.91-.35,1.57.16,3.33.28,5h1.82q1.74-9.24,3.47-18.48l1.94.14,1.28,4.3,6.52-1.27c-.2,1.08-.4,2.17-.55,2.95,6.1,2.21,11.05,4.9,9.74,13.13l1.91-.64,3-12.74L194,261l-4.49,5c.59-3.18.95-5.17,1.32-7.15l-.66-.18-2.74,4.25-.91-.19-.15-9.38c-1.42,1.28-1.64,2.94-2.49,4.16-.53.76-2,.85-3.06,1.24l.63-7.1-.69-.18c-.66,1.64-1.32,3.27-2.36,5.87-1-2.78-1.61-4.52-2.32-6.54l-1.83,3-1.25-.34,1.35-10-1-.15-2.47,5.77c-1.19-2.09-2.2-4.66-1.35-5.66,2.76-3.27-.5-2.46-1.69-3.72L164.68,247l-1.65-.6c.74-2.54,1.55-5.06,2.17-7.62A14.51,14.51,0,0,0,165.28,235.63Zm236.18,63.93,0,.25,5.29-3.19.25-1.47a43.35,43.35,0,0,1-5.35-.42,14.29,14.29,0,0,1-3.28-1.48c.29-.43.58-.87.86-1.31l3,.8.81-1.36-4.41-2.46c-1.61-.91-3.22-1.84-4.82-2.76.28-.47.57-.94.86-1.41l3.37.21.17-1.27c-1.07-.24-2.44-1-3.15-.64-3.74,2.12-4.05-.83-5.19-3l3-.73L385.73,273c-1.82.17-7.74-3.51-6.65-5.29,1.61-2.62-.13-3.28-1-5-3.95-7.59-11.15-10.81-18.25-14.32-3.15-1.56-6-3.67-9-5.53l1-1.66L362.66,246l.66-1.28L344,233.7l.93-1.62L355.8,238c-8.81-12.11-24-15.52-34-25.93,13.1,2.84,22.52,12.6,34.12,18.2l.74-1.11-26.51-17,1-1.61,21.27,13.41c-6.25-12.47-17.35-16.92-29.79-19.48l.95-1.65L336,205.65c-6.21-8-16.3-7-23.79-11.39l.42-1.37L323.75,196c.16-.52.31-1,.46-1.56-4.27-1.29-8.49-2.74-12.81-3.84s-9.12.59-12.86-4.56c-2.12-2.92-7.85-3.21-12-4.69l-.71,1.27,14.23,9.76-.8,1.19c-2.79-1.5-5.42-3.63-8.4-4.35-5.44-1.32-9-4.66-12-9-7.85-11.18-16.82-21.22-29.19-28.53l2,4c-7.28,1.87-11.5-2.78-15.91-6.8l11,5c-11.72-16.47-28.6-22.42-47.19-25.24l.48-1.39,15.54,1.62c-7.5-7.19-17.51-6-26.12-8.7.12-.55.23-1.1.35-1.65l20.36,3.59c-9.67-8.1-21.28-9.08-32.62-10.85.1-.49.19-1,.29-1.48l18.57,2c-8-5.82-17.47-5.78-26.35-7.48l.12-1.25,12.49,0c-7.42-7.28-17.6-2.81-25.68-7.14l15.06-.26c-12.17-7.17-24.75-2.54-36.67-3.66,0-.55,0-1.1,0-1.65l24.41-.85c0-.36.05-.71.07-1.07l-15.3-2.75c.09-.46.17-.93.26-1.4l4.72.24v-1.5c-2.72,0-5.57-.63-8.15,0a39.23,39.23,0,0,1-28.37-3.57,43.67,43.67,0,0,0-9.76-3.37c-1.27-.32-2.81.41-4.23.67.29,1.48.64,3,.83,4.44a14.4,14.4,0,0,1-.1,2.53l-1.44.42c-1-2.22-1.93-4.44-2.78-6.4C90.76,77,85.44,77,80.73,75.31c-6.4-2.31-11.4-1.35-15,3-2.61-.33-4.5-1-6.14-.55-.6.14-.62,2.71-1.06,5L62.75,79c-.1.52-.21,1-.31,1.55l10.64,3.81L72.87,83,82.94,79.1l.52,1.35c-8.07,3.74-8.07,3.74-4.26,9.38l-1.46,2.11,3.8,3.9,7-4.54.93,1.35L82.71,97.4c2.54.44,4.55,1.34,6.3,1,9.08-1.88,18-4.91,27.44-1.87l-.36-.12c2.34,3.41,4.26,5.82,5.76,8.46,3.15,5.56,6.8,11,8.87,17,1.42,4.07,2.39,7.09,7.05,8.27a6.94,6.94,0,0,1,4.16,4.85c.64,6.68,4,11.86,7.27,17.43,4.26,7.21,7.08,15.26,10.81,22.8,2.27,4.59,4.77,9.29,10.07,11.1,6.68,2.28,13.44,4.37,20.22,6.34,13.3,3.87,26.84,6.94,38.16,15.81A29.07,29.07,0,0,0,240.4,214c4.34.85,6.19,3.19,7.7,6.71,1.37,3.18,2.86,6.33,4.48,9.39,4.51,8.54,9.27,17,13.56,25.6,1.11,2.25,2,5.8,1,7.71-4.57,8.66-.67,16,2.55,23.63,2.68,6.38,5.62,12.71,7.61,19.31,3,9.87,6.54,19.37,12.79,27.66,5.06,6.7,9.22,13.61,8.8,22.54-.07,1.53,2,3.82,3.65,4.63,4.42,2.21,7.31,5,6.86,10.32-.05.57-.09,1.41.24,1.71,3,2.76,1.06,5-.28,7.26l-2,.06c.58-1.81,1.15-3.62,1.73-5.43-1.63.35-2.12.6-2.35,1-3.33,5.72.78,20.14,6.6,23.2a2.47,2.47,0,0,0,1.21.43c3.87-.47,5.25.34,6.11,4.24.6,2.71.75,5.51,1.33,10,5.27-3.43,9.82-6.18,14.14-9.25,16.36-11.66,32.58-23.52,49-35,2.63-1.85,6.15-3.8,9.33-.06.34.4,1.71.21,2.46-.08,2.77-1.08,5.47-2.3,8.2-3.47l.66,1.17L398.47,374l.55,1,8.86-3.34.53.69-4.69,4.83c.26.32.53.64.8.95l7.73-5.92-4.5-5.68c3.05.71,5.94,1.74,6.12,1.38a62.15,62.15,0,0,0,3.06-8l-5.06-.28c.66-1.8,1.05-5,2-5.17,4.49-.87,4.13-5.21,6.2-7.71.42-.51-.56-2.17-1-3.55l3.13-6.26-1-.68c-2.09,1.59-4.18,3.19-7,5.3-.6-2.3-1-3.74-1.42-5.45,5.55,1.08,7.44-.18,9.15-5.62l-4.13-1,3.84-3.55a26.34,26.34,0,0,1-2.38-2.14c3.08-4.34-1.13-6.12-3.33-8.88l3.52-2.06L412.72,310c1-1.35,1.69-2.33,1.83-2.54-1.29-2.6-2.25-4.52-2.88-5.8l-4.94,3.64-2.28-4.61ZM343.45,406l6-8.05-1.35-1-9,12c15.85-5.17,26.92-16.18,37-28.44l-1.33-1.41-13.43,15.1c.32-2.48.43-3.39.69-5.41A35.65,35.65,0,0,1,343.45,406ZM302.37,379.9c-3.67,3-8.57,5.08-9.33,8.16-1,4.07-3.4,4.63-6,5.92-.95.47-1.89,1-2.83,1.47l.57,1.19,11.05-5.4A31.58,31.58,0,0,0,298,394.3c2.07-1.18,4-2.61,5.94-4l-1.64-.65C302.32,386.71,302.34,383.76,302.37,379.9Zm76.89.79c-.89,3.63,1.86,4.28,4.2,3.08a23.23,23.23,0,0,0,7.27-6.39c.92-1.17.26-3.57.32-5.41a25.78,25.78,0,0,0-4.84.4,41.29,41.29,0,0,0-5.56,2.4l5.66,6.08ZM74.36,157.74c6.4,7.26,13.72,12.59,23.11,15.63C94,168.4,79.93,159,74.36,157.74Zm93.38,132.19-.33,1.7,10.19.89-2.77,3.85,7.41-.63c-.68-2.74-1.18-4.74-1.66-6.66A43,43,0,0,1,174,290.5,39.52,39.52,0,0,1,167.74,289.93Zm156.46,133c10-6.21,10-6.21,12.84-17ZM173.64,263.45l-3.53,15C174.49,274.37,177.38,269.94,173.64,263.45Zm14.79,37.78c.72-2.69,1.28-4.81,1.89-7.1l-3,1.4c1.26-4.6,2.37-8.66,3.49-12.72l-1.34-.28C187.54,288.37,184,294,188.43,301.23ZM47.6,134.2c4.43-4.17,8.86-3.61,13.46-1.12-3.94-6-9.62-2.47-15.17-3.2ZM160.24,271.64l1.95.18q1.06-5.9,2.14-11.79l-1.65-.3C162.7,263.85,158.44,267.2,160.24,271.64Zm83,137.89.67-.77c-1.29-2.78-2.58-5.56-4-8.55l-4.95.85Zm103.8,1.34-1.2-1-14,14,.86.87Zm53-30.57-1.32-.92-9,12.49,1.44,1ZM73.38,176.73l-.57,1.51,14,4.67.57-1.55ZM56.93,136.38l10.43,4.13C66.62,135.63,65.32,135.08,56.93,136.38ZM68.2,148.7l-.78,1.55,10.31,5.31.89-1.74ZM58.27,94.93c.59-3.19,1.17-6.38,1.82-9.93C56.33,87.46,55.91,89,58.27,94.93Z"/><path class="cls-1" d="M401.46,299.56l3,1.15,2.28,4.61,4.94-3.64c.63,1.28,1.59,3.2,2.88,5.8-.14.21-.85,1.19-1.83,2.54l6.79,2.81L416,314.89c2.2,2.76,6.41,4.54,3.33,8.88a26.34,26.34,0,0,0,2.38,2.14l-3.84,3.55,4.13,1c-1.71,5.44-3.6,6.7-9.15,5.62.45,1.71.82,3.15,1.42,5.45,2.79-2.11,4.88-3.71,7-5.3l1,.68-3.13,6.26c.42,1.38,1.4,3,1,3.55-2.07,2.5-1.71,6.84-6.2,7.71-1,.19-1.36,3.37-2,5.17l5.06.28a62.15,62.15,0,0,1-3.06,8c-.18.36-3.07-.67-6.12-1.38l4.5,5.68-7.73,5.92c-.27-.31-.54-.63-.8-.95l4.69-4.83-.53-.69L399,375l-.55-1,7.29-6.77-.66-1.17c-2.73,1.17-5.43,2.39-8.2,3.47-.75.29-2.12.48-2.46.08-3.18-3.74-6.7-1.79-9.33.06-16.44,11.52-32.66,23.38-49,35-4.32,3.07-8.87,5.82-14.14,9.25-.58-4.51-.73-7.31-1.33-10-.86-3.9-2.24-4.71-6.11-4.24a2.47,2.47,0,0,1-1.21-.43c-5.82-3.06-9.93-17.48-6.6-23.2.23-.4.72-.65,2.35-1-.58,1.81-1.15,3.62-1.73,5.43l2-.06c1.34-2.29,3.3-4.5.28-7.26-.33-.3-.29-1.14-.24-1.71.45-5.28-2.44-8.11-6.86-10.32-1.64-.81-3.72-3.1-3.65-4.63.42-8.93-3.74-15.84-8.8-22.54-6.25-8.29-9.81-17.79-12.79-27.66-2-6.6-4.93-12.93-7.61-19.31-3.22-7.62-7.12-15-2.55-23.63,1-1.91.13-5.46-1-7.71-4.29-8.65-9.05-17.06-13.56-25.6-1.62-3.06-3.11-6.21-4.48-9.39-1.51-3.52-3.36-5.86-7.7-6.71a29.07,29.07,0,0,1-11.94-5.55c-11.32-8.87-24.86-11.94-38.16-15.81-6.78-2-13.54-4.06-20.22-6.34-5.3-1.81-7.8-6.51-10.07-11.1-3.73-7.54-6.55-15.59-10.81-22.8-3.29-5.57-6.63-10.75-7.27-17.43a6.94,6.94,0,0,0-4.16-4.85c-4.66-1.18-5.63-4.2-7.05-8.27-2.07-6-5.72-11.41-8.87-17-1.5-2.64-3.42-5-5.76-8.46l.36.12c-9.41-3-18.36,0-27.44,1.87-1.75.36-3.76-.54-6.3-1l6.79-4.75-.93-1.35-7,4.54-3.8-3.9,1.46-2.11c-3.81-5.64-3.81-5.64,4.26-9.38l-.52-1.35L72.87,83l.21,1.4L62.44,80.55c.1-.52.21-1,.31-1.55L58.5,82.73c.44-2.3.46-4.87,1.06-5,1.64-.4,3.53.22,6.14.55,3.63-4.31,8.63-5.27,15-3,4.71,1.69,10,1.7,14.84,2.43.85,2,1.81,4.18,2.78,6.4l1.44-.42a14.4,14.4,0,0,0,.1-2.53c-.19-1.49-.54-3-.83-4.44,1.42-.26,3-1,4.23-.67a43.67,43.67,0,0,1,9.76,3.37A39.23,39.23,0,0,0,141.42,83c2.58-.6,5.43,0,8.15,0v1.5l-4.72-.24c-.09.47-.17.94-.26,1.4l15.3,2.75c0,.36,0,.71-.07,1.07l-24.41.85c0,.55,0,1.1,0,1.65,11.92,1.12,24.5-3.51,36.67,3.66L157,96c8.08,4.33,18.26-.14,25.68,7.14l-12.49,0-.12,1.25c8.88,1.7,18.31,1.66,26.35,7.48l-18.57-2c-.1.49-.19,1-.29,1.48,11.34,1.77,22.95,2.75,32.62,10.85l-20.36-3.59c-.12.55-.23,1.1-.35,1.65,8.61,2.71,18.62,1.51,26.12,8.7l-15.54-1.62-.48,1.39c18.59,2.82,35.47,8.77,47.19,25.24l-11-5c4.41,4,8.63,8.67,15.91,6.8l-2-4c12.37,7.31,21.34,17.35,29.19,28.53,3,4.32,6.54,7.66,12,9,3,.72,5.61,2.85,8.4,4.35l.8-1.19-14.23-9.76.71-1.27c4.11,1.48,9.84,1.77,12,4.69,3.74,5.15,8.48,3.45,12.86,4.56s8.54,2.55,12.81,3.84c-.15.52-.3,1-.46,1.56l-11.14-3.15-.42,1.37c7.49,4.38,17.58,3.44,23.79,11.39l-12.41-2.85-.95,1.65c12.44,2.56,23.54,7,29.79,19.48l-21.27-13.41-1,1.61,26.51,17-.74,1.11c-11.6-5.6-21-15.36-34.12-18.2,10,10.41,25.22,13.82,34,25.93l-10.88-5.87L344,233.7l19.33,11-.66,1.28-10.87-4.82-1,1.66c3,1.86,5.86,4,9,5.53,7.1,3.51,14.3,6.73,18.25,14.32.86,1.67,2.6,2.33,1,5-1.09,1.78,4.83,5.46,6.65,5.29l7.17,6.38-3,.73c1.14,2.16,1.45,5.11,5.19,3,.71-.4,2.08.4,3.15.64l-.17,1.27-3.37-.21c-.29.47-.58.94-.86,1.41,1.6.92,3.21,1.85,4.82,2.76l4.41,2.46-.81,1.36-3-.8c-.28.44-.57.88-.86,1.31a14.29,14.29,0,0,0,3.28,1.48,43.35,43.35,0,0,0,5.35.42l-.25,1.47-5.29,3.19-4.9-.49.5-.62-5.6-2.75c1.46,3,1.95,5,3.15,6.23a4.28,4.28,0,0,0,3.88.62C399.73,302.27,400.5,300.68,401.46,299.56ZM253.27,167.66c-4-5.7-26.38-14.3-39.34-15.59Zm72.2,211.75a59.7,59.7,0,0,1,4.47-6.38c1.83-2,3.82-4.61,6.21-5.29,8.06-2.28,17.06-11.95,18-20.81a80.1,80.1,0,0,1-4.69,7.39c-3.79,4.76-6.53,10.28-13.69,11.87C329.7,367.54,326.88,373.32,325.47,379.41ZM232.11,144c-6.11-5.07-12.55-9.07-22.3-7.38Zm22.16,74.19c-.39.45-.79.9-1.19,1.34l16.37,16,1.06-1.05C266.7,227.47,259.41,223.86,254.27,218.16ZM412.66,344.24l-7.15-.58c-1.15,3.29-.69,4.08,2.62,4.32a29.67,29.67,0,0,1,4.11.84c1.24.26,2.71,1.05,3.65.64,1.21-.53,2-2,2.95-3.12C413.15,347.15,413.15,347.15,412.66,344.24ZM252.94,175.53l-1.32,2.25,14,8.3,1.42-2.42Zm33.48,74.91c-1.85-8.15-7.41-13.18-14.62-17.08.35,2.23-.58,5.06,3.52,4.16.69-.15,1.88,1.22,2.59,2.09C280.8,243.18,283.59,246.83,286.42,250.44Zm-35.29-34,1.07-1.56c-2.21-1.37-4.42-2.72-6.62-4.1-1.36-.86-3.21-1.44-3.94-2.68-2.39-4.06-2.56-4.32-7.27-3.25,2,.91,5,1.4,5.2,2.43C240.92,214.27,248.25,212.07,251.13,216.42Zm-80.24-94.28c-.11.71-.21,1.41-.32,2.12l19.58,5.38.44-1.65ZM401,312.49c3.53,5.22,10.52,5.72,13.79,1.59ZM362.6,254.31l14.25,9.42C373.62,257.41,369,254.36,362.6,254.31ZM412,337.94l-.52-1.54c-3.35.35-6.72.61-10,1.15-.54.09-.86,1.45-1.29,2.22,1.08.42,2.17,1.19,3.23,1.17a17.37,17.37,0,0,0,5.07-1A21.51,21.51,0,0,0,412,337.94ZM280.06,248.23c-1.58-5.09-4.51-8.09-10-7.44ZM160.2,114.56c-.11.69-.23,1.37-.35,2l14.27,2.32.33-1.84ZM318.34,394c1.07-4.48,2-8.43,3.18-13.25C316.48,386.2,315.36,390.47,318.34,394ZM216.86,142.24c-.16.82-.32,1.63-.47,2.45l12.21,2,.39-2.1Zm-50.41-29.77c.15-.55.31-1.11.47-1.67l-14.55-3.38c-.14.63-.29,1.26-.43,1.89ZM385.2,359.8l-.27,1.93c9,2.32,9,2.32,10.87.57ZM341.85,239.68l.94-1.83-10.72-6.27c-.32.52-.63,1-.94,1.57ZM400.34,332l-9-4.85-.95,1.84C393.35,329.89,394.29,334.93,400.34,332Zm-95.6-128.3-1.06,1.65,11.5,6,.76-1.43Zm-.28,156.71,1.91-.9-4.91-10-1.69.8Q302.11,355.38,304.46,360.43ZM160.38,104.5l.18-1.78-12.72-1.3c-.05.53-.1,1.06-.16,1.59Zm100.49,82.23-1.28,1.94,8.31,5.17,1-1.66Zm36.6,75.37.71-1-8.88-7.9-.81.92Zm-19.56-5.68c-1.66-6.64-3.39-8.1-7.48-6.65Z"/><path class="cls-1" d="M180.94,258.75,174.42,260l-1.28-4.3-1.94-.14q-1.74,9.24-3.47,18.48h-1.82c-.12-1.67-.63-3.43-.28-5,.74-3.35,2.22-6.55,2.8-9.91.34-2-.44-4.16-.72-6.25l-1.29,0L164,256.41c-.84-3.11-1.48-5.49-2.13-7.88l-1.71-.05q-1.35,10.56-2.71,21.11c-3.62-2.38-4.48-4.8-3.07-8.36,3.91-9.9,3.76-10,1.72-15.39-1.54,2.33-2.79,4.21-4,6.1h.13c.47-2.81.93-5.63,1.39-8.44l-2.47,0-4.19,3.72h.18l-.63-6.36-1.77-.08-6,15.87c-4.19-7.23,5.32-12.08,1.45-19.09-8.22,5.85-5.5,13.46-3.48,21-4.91-.66-8.9-2-10-7.57-.16-.83-2.76-1.19-3.73-1.57-.4-1.23-.43-2.69-1.14-3.21a12.1,12.1,0,0,1-4.2-4.46C115,237,113,230.59,105.43,229.86l2.67-4.31-7-.43c4.15-1,7.92-1.79,4.24-7.48-2.88-2.08-7,4.91-10-.85l9.24-1.33-3-6.58c-2.67-1.94-6.74,7.59-10.48-.23,2.76-.28,5.48-.12,7.74-1.05.73-.3.27-3.49.42-6.58l-6,2.94-5.7-.43-1.65-3L97.57,200l.1-1.8-4.08-1.36,1-2.77c-7.15,2.33-13.24,1-15-3l13.4,3-2.73-5.45c3.19,1.91,5.89,2.63,7,4.38,4,6.06,7.6,12.43,11.15,18.79,1,1.84,1.36,4.06,2.13,6.49l3.53-3.07c-1.33,3.15-2.57,6.06-3.81,9L112,225c1.13-2.33,2.27-4.67,3.54-7.3l4.54,4-2.61,2.93-1.35-3.32-4.16,7.12.89.71,3.61-2.79c-.47,2.35-.8,4.06-1.28,6.5l5-2.74c-.51,2.73-.88,4.73-1.41,7.6l5-2.67c-.43,1.86-.86,3.75-1.36,6l2.73-.44c0,1.34,0,2.83,0,4.32l1.88.43,5.9-13.57-5.11,1.77c.18-1.47.33-2.69.6-4.79l-3.16,3.18c-1.69-4.71-.44-6.37,4.09-6.32,6.6.07,10.32-4.63,14-9.14a11.56,11.56,0,0,0,2.23-5.17L132.11,224l-.83-.79,6.27-8.27-.71-.42L121,227.79c-1.45-3.31-1.36-3.83,2.72-5.21,4.29-1.46,6.78-4.33,8.64-9.1-2.32,1.78-3.84,3.4-5.71,4.26-1.6.73-3.6.59-5.42.84-.13-.46-.25-.92-.38-1.38l5.08-4.86c-2.85.36-4.92,1.06-6.8.72-1.31-.24-2.36-1.9-3.51-2.92l-3.73-3.32-1.28.79c.55-1.33,1.09-2.66,1.73-4.22L107,201.3l2.89-2.78-4.94-3.21,3.36-2.77L93.18,181c5.4,1.05,9.12,6.29,14.35,2-2.92-2.22-4.24-6-9.52-4.12-2.23.81-6-2.55-8.76-4.7l12.74,2.6,2.68-3.93-4.36-4.91,1-1.1c-5.64-2.66-12.75-2.49-17.22-9L97,162.06c1.33-3.67-1-3.73-3.41-4.29-1.83-.42-4.27-1.29-5-2.72-2.13-4,.44-5.46,4.1-6.26a19.43,19.43,0,0,0,7.1-3.33L81,149.37c0,.37.12,1.19.33,3.23l-4.55-4,18.25-7.45-.38-.88L76,144.49l-.91-2.72,12.45-5.54c-.11-.3-.21-.61-.32-.91l-17,4.75c2.39-8.49,11-5.54,14.8-10.32-6.86-.85-12.26,6-19,3.63l-.54-1.65,15.07-5.64-.36-1.31c-3.39,1-7,1.5-10.12,3C66.3,129.7,63.07,130,59.86,127l14.7-4.53a80.63,80.63,0,0,0-15.83,1c-.46.08-.67,1.88-1,2.88l-4.93-.69c4.12-3.1,7.3-6.9,13-6.25,2,.23,4.71-1.95,6.48-3.66,1.5-1.45,2.11-3.82,3.71-6.93-3.06,2.26-6.33,3.5-7.46,5.8-1.52,3.1-3.76,3.18-6.26,3.61-4.73.8-9.46,1.57-14.19,2.36-.12-.45-.25-.9-.37-1.34l16.26-6.15-.3-1.07-14.91,3.63-3.82-3.39,14.75-4.2c-.09-.48-.19-1-.28-1.44l-13.61,2.67-.34-.82,19.32-8.11-.57-1.5L50,104.6l-.6-1.36,18.23-8.33.75,1-1.21,2.37,6.39-.65-3.59,3,.31.56,9.27-2.62L80,99.9l-6.29,2.5c.12.36.23.71.34,1.07l10.39-2.33.23.7L79.43,105c.09.25.19.51.29.76l4.87-1c-.61,1-1.13,1.89-1.7,2.85.31,0,.61.2.75.11,7-4.72,15.19-4.48,23.1-5.43l-13.48,6.23.41,1.18c6.41-1.07,12-7.36,19.72-3.9L96.23,114l.37.88,18.76-6c.17.52.34,1.05.52,1.57l-15.22,8.42.54,1.17c6.47-2.22,12.44-6.52,20.33-5.3l-18.37,9.79c.14.34.29.67.44,1l19.49-6,.78,2c-6.43,3.55-15.37,2.7-19.44,10.54,6.77-3.83,13.58-7.41,21.15-6.16l-16.87,8.37.62,1.29,15.83-4.66c.14.44.28.89.43,1.33l-12.33,7.6.51,1,17-7.24c.15.35.3.7.44,1.05l-11.66,9.44c.27.32.53.65.8,1l18.28-6.66c.09.32.18.65.26,1l-12.58,9.27.84,1.36,8.17-3-3.21,4.45,7.83-1.28.51,1.35L125.14,159l.36.78,16.08-5.18.55,1a44.72,44.72,0,0,1-6.27,3.46,46.58,46.58,0,0,1-7.14,1.47c.13.57.26,1.14.38,1.71l17.72-3.77c.07.25.13.49.2.73l-6.88,3.54.33.86,7.35-1.11c.07.33.15.65.23,1l-10.28,3.71.22,1.22,13.4-1.69.13.66-17.21,5.32c.15.48.29,1,.43,1.44l15.68-3.55.37,1.33-11.62,6.28c.2.41.4.83.61,1.25l12-5.19.34.72-11,6.66c.13.28.27.56.41.84l14.63-5,.54,1.27q-6,4.38-11.95,8.75l.73,1.06,12.65-6.4c.19.34.38.68.58,1l-10.41,8.61.78,1,12.49-7.16c.25.39.49.79.73,1.18l-7.63,6.78.67,1.06,9-5.37.67.76-4.66,5.24.85,1,7.06-5.18c-1.33,2.15-2.42,3.93-3.52,5.72l.65.54,7.23-5.94c-1.25,3.13-2.21,5.51-3.16,7.9l1.75,1.11,7.58-6.74.38.31-5,7.22,1.49,1.16,7.92-8.91,1.05,1.11-9.5,9.61.92,1,12-10.44.58.67-4,6.33,1,.78,5.74-6.45,1.08.8c-1.59,2.6-3.17,5.21-5.36,8.82l10.35-6.66c-1.59,2.47-2.8,4.37-4,6.26l.63.56,2.6-1.85,1.1,3,3.72-4.83.57.21q-1.69,4.83-3.4,9.65l1,.51,6-8.92.62.25-1.9,8,1.3.67,5.37-6.77,1.13.46-2.46,9.12.66.56q2.7-3.74,5.39-7.46l.75.17-2.13,9.62.93.6,5.37-7.38,1,.36-4.05,11.23.93.61,6.62-10.6.9.14q-2,8.31-4,16.64l.8.54,8.09-13.78c2.46,7.44-2.65,13.13-4.07,19.47l1.17.57c2.69-4.52,5.38-9,8.44-14.19,1.15,7.6-4,13.06-5.35,19.41l1.2.65a78.81,78.81,0,0,0,4.73-7.92,93.5,93.5,0,0,0,3.16-9.41c2.21,2.23,2.21,2.23-.7,9.5l-3.81,9.58,1.24.71,8.62-15.2c1.41,7.69-3,13.14-4.38,20.32l6.63-7.46c-.43,2.74-.84,5.36-1.26,8l1.35.68,5-6.57.65.28c-1.87,4.16-3.74,8.31-5.91,13.15l4.51-3.19.67.53-3.09,5.21.95.71,5.63-6.33.7.58-5.9,9.33,6-1-3,6.23,2.69-1c-.31,1.92-.61,3.76-1.07,6.58l3.15-2c-.1,3.2-.21,6.63-.34,11.09l5.15-3.65c-.34,2.69-.63,5.06-.93,7.43l.93.31,1.85-3.3c.07,2.87.12,4.62.17,6.46l1.66-.79c.76,2.16,1.38,4.33,2.29,6.36a11.61,11.61,0,0,1,.85,6.86c-.18,1.23,2.29,2.85,3.55,4.31a3.2,3.2,0,0,1,.7,1c1.68,4.84,3.41,9.67,4.89,14.58.27.87-.59,2.06-.82,3.13-.58,2.68-1.09,5.37-1.63,8.06l1.75.7,4-6.44,1,.44q-2.09,4.75-4.18,9.53l1.2.74,4.59-7,.79.14a41.1,41.1,0,0,1-1.71,5.45,39.28,39.28,0,0,1-3,4.76l1.22.9,5.47-6.9.92.24q-2.33,5.61-4.64,11.22l1.32.79,5.4-8.51.72.19q-2.21,6.29-4.43,12.57l1.09.54q2.69-4.39,5.36-8.79l1.12.46q-2.79,6.19-5.56,12.38l1.15.64,4.52-6.42.92.46-4.85,8.61,1.25.89,4.08-5.07c.29,2.46.51,4.36.77,6.58,3.74-.59,7.29-.07,8.46,4.15.91,3.25-4.1,9.45-7.64,10.31a4.76,4.76,0,0,0-2.77,1.95c-3.21,5.52-7.86,8.18-14.27,8.38-1.66.05-3.59,1.38-4.83,2.68-1.89,2-3.95,2.48-9.07.47,2.27-.94,3.74-1.48,5.15-2.17a13.84,13.84,0,0,0,2.06-1.47,8.17,8.17,0,0,0-2-1.57c-2.1-.76-4.28-1.32-6.22-3,8.75,1.36,17.36,4.8,25.5-2.21-9.59.53-19.27,2.79-27.05-4.65,10,2.84,19.86,6.76,29-2.08-9.68,3-19.19,4.74-27.92-2.62,10,3.5,19.64,4,28.88-4.34-10.88,2.07-21.34,8.75-32-2.13,8.63,2,16.13,5.2,23.76-1.14-7.85.53-15.48,3.41-22.36-4,7.83,1.12,14.89,4.15,20.62-3.79-8.38,3.17-16,4.65-23.19-3.22,3.87.22,6.94.76,9.93.46a20,20,0,0,0,7.9-3c-6.95-.38-14.07,2.7-20.54-2.78L275,346.47c0-.57-.07-1.15-.1-1.72-6.05-1.75-13.78,4.92-19.65-3.55,7.14.63,13.59,2.9,18.82-3.78-6.14.9-11.63,3.52-18.28.49,6-1,11.68-.22,15-6.23-6,1.82-11.45,5-18.12.91,5.57-1.41,11.63.24,14.7-6.09-5.49.8-10.44,5.48-16.4,1.47,4.73-2.93,11.71-1.11,14-7.18l-14.14,3.7c-.11-.41-.22-.82-.34-1.24l12.51-7.84c-.26-.42-.53-.84-.79-1.27-4.94,1.6-9.07,6.78-15.42,3.81l13.4-7.85-.84-1.4c-4.57,1.59-8.33,6.05-14.07,4.31l12.37-8.56-.66-1.22c-5.07,1.94-9.51,6.53-16.31,4.51l12.95-7.92-.88-1.57c-2.61,1.42-5.12,3.13-7.88,4.15-2.22.83-4.68,5-7.62.51l13-6.48-.63-1.38-13.06,4.46-.61-1.68,11.88-5.91-.54-1.43-11.38,3.84-.42-.88,7.47-4.41-.71-1.52-14.3,5.76c-.79-2.19-.18-4,3.68-4.7A38.52,38.52,0,0,0,241.65,285c-5.82-2-10.44,1.11-15.86,4.17,1.21-3.94,7.49-6.08,2.05-10.5l-4.59,4.3,3-6.69-4,1.82,1-3.45-3.51.35c.37-2.3.68-4.27,1-6.24l-.87-.29-4.62,6.06,2.79-8.48-1.47-.55-2.66,4.26-.77-.25c.87-2.39,1.73-4.78,2.65-7.3l-5.34-3.12-3.83,6.53c.75-4,1.21-6.5,1.94-10.36l-8.35,3.08L196,255.19l2.42-3.17-.62-1.19-6.11,3.6,4.08-7.41c-5.76-1.46-8.14-9.14-15.54-7.8a24.87,24.87,0,0,0-4.57,1.82c-1.31-3.1-1.31-3.1,4-5.31l-.69-1.31-8.17,4.28c-.34-1-.9-2.81-1.54-4.83l-4,2c.6-1.94,1.19-3.87,1.79-5.79l7.64,3.72.7-1.17-11.39-9c-.25,2.15.57,3.45.69,4.82a11.06,11.06,0,0,1-.85,4.09c-.06.19-1.08.09-1.65.13.09-1.32.19-2.65.29-4,0-.49.08-1,.14-1.62l-5.74,4.07c.59-3.26.91-5,1.22-6.68-3.6,4.21-8.74,7.57-6.9,14.12a12,12,0,0,0,2.54-3.55c.69-1.22,1.43-2.42,2.15-3.63l1,.55-2,8.13,1.5.37,3.18-5.65,1,.19q-.39,4.74-.79,9.48l1,.11,4.47-9a14.51,14.51,0,0,1-.08,3.1c-.62,2.56-1.43,5.08-2.17,7.62l1.65.6,3.16-7.21c1.19,1.26,4.45.45,1.69,3.72-.85,1,.16,3.57,1.35,5.66l2.47-5.77,1,.15-1.35,10,1.25.34,1.83-3c.71,2,1.33,3.76,2.32,6.54,1-2.6,1.7-4.23,2.36-5.87l.69.18-.63,7.1Zm63.67-1.46c-9.53.85-14.3,5-16.56,13.92l11.61-4-.38-1.07-2.18.6,1.26-3.89-4.37,1.7c-.16-.35-.33-.69-.49-1Zm-94.5-45.09c-1.53,2.28-2.59,4.06-3.85,5.69a22.56,22.56,0,0,1-4.32,4.79c-4.78,3.36-4.86,3.24-6.36,8.41C142.22,229.05,149.44,220,150.11,212.2Zm92.67,63.93c-6.58-1.11-9.95,1.28-10.16,7.85l9.69-4.27L239,278.43ZM134.59,234.75c-4.23,4-5.76,9.24-4,13.7C134.71,243.17,135.86,239.22,134.59,234.75Zm18.64-16.33-1.43-1-11.58,16.61,1.25.84c2.1-2.71,4.28-5.36,6.28-8.16S151.41,221.2,153.23,218.42Zm2.72,3c-6.68,3.47-9.81,8.86-8.41,14.48Zm65.63,23c-6.84,5.6-7.82,7.58-6.72,13.22Zm6.34,3.28-.83-.81-9.74,11,.89.73Zm-17-22.6-1.74-1.23-8.47,12,1.51,1.06Zm2.32,21.57c5.44-1.59,6.87-5.73,6.77-10.83Zm17.55,4c-5.37,1.38-9.5,6.6-8.85,11.39Zm-7.63,12.9.4.17,9.85-11.08-.39-.17Zm13.54-8.4c-5.8,2.18-9.18,6.3-11.08,12.45Zm-39.3-24.05,1.69,1.25,6.6-10.33-1.26-.8ZM112,183.75c.1.49.21,1,.31,1.45l14.22-5.38-.54-1.45Zm90.3,36.67-1.22-.79c-2.34,3-6.2,4.92-5.07,10.11Zm36.51,52.42L238,271l-9.1,4.13,1,2.1ZM205.66,237.4l1.62,1.25q3.27-4.6,6.55-9.22l-1.17-.83Q209.15,233,205.66,237.4Zm-81.74-62.7c-.23-.54-.47-1.08-.71-1.63l-10.35,4.64.66,1.49Z"/><path class="cls-1" d="M191.74,311.27q1.84-7.56,3.71-15.11l-.94-.34-3.69,8.6-1-.34c.88-2.93,1.66-5.89,2.65-8.79s2.11-5.52,3.6-9.36l-4.71,4.23c1.4-4.17,2.6-7.7,3.79-11.24l-.57-.31-2,2.23c-.2-5.64,4.41-13.17,9.34-14.9l-3.24,5.23.9.7,4.88-4.69c-.45,2.1-.72,3.29-1,4.6l3.8.14-1.83,5.16,3.56-1.81c.33,7.4.65,14.71,1,22l1.66.38,6.14-8.49.57.28L215,296.56l1.29.72,4.85-6.82.53.15c-.3,1-.64,2-.89,3.06-.29,1.19-.51,2.4-1,4.92l3.69-4.56.92.3q-.71,5.94-1.39,11.9l-.92-.05c-.05-1.54-.09-3.09-.13-4.64l-5.26-.16c-.08,1.8-.17,3.87-.25,5.94l-.94.19-1.08-5.31-1.09-.45-2.77,8-.76-.13c0-2.78-.05-5.55-.08-8.33l-.91-.21-3,5.87-1.26-.46,1.82-7.9-2.43.29c.39-1.4.74-2.62,1.08-3.84l-1.45-.67q-2.61,4.71-5.23,9.42l1.59.92c.83-1.28,1.65-2.57,2.85-4.44-.59,3.88-1.06,7-1.74,11.5l3.18-2.81,3.13,6.72,2.89-.94c.58,1.82,1.12,3.55,1.67,5.28l1.52-.15c.14-3.07.29-6.14.43-9.21l.56-.07q.9,6.82,1.81,13.66l1.45-.05,1.22-4.32c.55,2.63.91,4.36,1.41,6.81l3.16-3.54c.71,3.21,1.36,6.13,2,9.05l1-.08q1-3.72,1.91-7.46c1.11,8.17,5.5,16.22.43,24.22-.72-4.1-1.44-8.23-2.17-12.35l-1.37.15-1.41,13.94-.78,0q-.18-9.67-.35-19.34l-1.43-.18c-.58,1-1.15,1.94-1.78,3-.61-1.53-1.12-2.8-2.18-5.43-.83,3.24-1.3,5.09-1.77,6.95l-.63,0-.66-7.83-1-.08c-.52,1-1,2.09-1.75,3.55-.44-3.32-.82-6.18-1.19-9l-1.58,0-1.11,8.43-1.41,0L206,319.1l-1.86-.14q-1.2,13.47-2.39,27l1.64.33c.6-2.13,1.19-4.26,1.79-6.39l1.55.17q-.5,7.25-1,14.48l.79.41,3-5.81,1.07,0-1.68,10.73,1.21.54,3.52-7.42c.84,2.37,1.64,3.73,1.77,5.15.39,4.18-2.85,8.61.91,12.61.14.15-.52,1.06-1.19,2.34l3.68-1.26c.19,1.25.4,2.54.6,3.84l1.61.25q1.6-8.51,3.2-17l1,.13-2.66,19.44.88.36a74.48,74.48,0,0,0,3.27-7.86,76.09,76.09,0,0,0,1.53-8.42l2.14.55c-1.76,5.71-3.39,11.46-5.33,17.11-1.12,3.27-1.34,3.2,2.06,5l4.52-17.39c3.62,7.23-3.62,13.55-1,20.58,2.66-4,1.71-9.59,7.21-12l-4.7,13,1.06.71c1.12-1.73,2.38-3.39,3.32-5.22s1.7-4,2.53-6l1.68.71L236.64,391c1.55-.17,5.71,4.54,4.88-3-.27-2.47,1.62-5.18,2.53-7.78l1.34.28q-1.19,6.17-2.36,12.31l.68.41,5.36-8.77.82.38-4.23,8.73c6.86-2.17,6.53-8.31,7.92-13.34l1.28.41c-.91,4.7-1.82,9.41-2.8,14.52,5.87-3.1,4.49-9,5.67-13.77l1.26.12-1,14.61,1.72.25c.7-2.76,1.41-5.52,2.18-8.53l5.53,2c-1.65,2.65-2.77,5.73-4.92,7.67-5,4.48-11,2-16.55,1.35-3.32-.36-6.84-.82-9.78-2.25a55.79,55.79,0,0,1-10.74-7.28c-2.67-2.2-4.67-5.16-7.2-7.54-4.38-4.11-9.05-7.9-13.36-12.07a20,20,0,0,1-4.95-7.86l8.48,9.89,1.44-1.2c-3.3-5.26-7.06-10.29-9.78-15.84-5.43-11.06-10.38-22.36-15.28-33.67-.64-1.49.22-3.62.33-5.46.22-3.9.4-7.81.65-12.67,1.55,2.44,3.32,4.22,3.81,6.3s-.46,4.19.1,6.46l1.47-2.28c-.72,1.9-1.55,3.77-2.08,5.72a3.28,3.28,0,0,0,.46,2.58,17.2,17.2,0,0,0,3.25,2.44c1.18-6.75,2.32-13.3,3.47-19.85l-.53-.14Zm6.82,10.62c-.53-3.19-1.07-6.37-1.52-9.1-.45,2-1.09,4.61-1.59,7.26-.36,1.91.17,5-.88,5.61-5.16,3.19-.28,4.78.68,8.32,1.26-3.79,2.1-6.34,2.95-8.89q-.12,7.23-.23,14.47c4.5-7.49,3.37-15.69,3.42-23.77C200.45,317.82,199.51,319.86,198.56,321.89ZM205.31,282c-7.78,3.54-5.53,10-5.33,15.92,1.87-3.25,3.73-6.51,5.7-10l-3.12,0C203.51,285.87,204.28,284.19,205.31,282Z"/><path class="cls-1" d="M294.84,415l-11.28,2.42-1.47-3,3-3.38-7.33-2.17c4.2-2.89,7.34-5.12,10.55-7.22.94-.61,2.57-1.53,3.1-1.17,6,4.15,10.09-.49,14.64-3,.1-.05.3.1,1.54.57l-6.42,4.77.07.84,5.15-.63-1.23,2.76.75.66,4.45-3.68.4.41-2.65,3.64,5.15,4.58,2.84-7.67,1.18-.23c.51,3.72,2.17,7.79,1.18,11s-4.65,5.7-7.15,8.5l1.11,1.18,7-6.14.37.28-7.07,7.94,1.08,1.12,11.61-13.05c-5.71,14.06-11.6,17-27.17,15.2-3.19-.38-6.64,1.46-10,2.28-.08-1-.17-2.08-.25-3.12,3.9-.48,7.93-1.77,11.69-1.23,5,.73,9.3,1.89,9.4-5.57l-4.51-.34,5.44-3.86c-.09-.31-.19-.61-.29-.91l-5.9,1.29-.2-1.09,5.36-4.12-11.32,2,7.21-4.94c-.21-.36-.43-.71-.64-1.06l-4.69,1.41,1.72-3.58c-2.56,1.1-4.79,1.46-6,2.76S290.48,412.83,294.84,415Z"/><path class="cls-1" d="M282.09,414.38l1.47,3L282.05,419c3.57,3.3,6.59,1.65,10.48-1.86.07,2.58.63,5.16.06,5.45-4.06,2-8.36,3.56-12.34,5.15-3.54-11.54-13.71-8.56-20.38-12.23-.29,4.6.92,5.37,9.3,5.92l.56,5.28-16.17-8.87c.21-.45.41-.91.61-1.37l-3.75,2.28c1.38-8.62,12.32-20.95,26.08-22.74.53,2.57,1.07,5.17,1.75,8.49l-9.18-2.13-4,8.11,5.08-3.18c.06.34.11.67.17,1l3.15-.26C274.12,412.8,278.12,413.57,282.09,414.38Z"/><path class="cls-1" d="M343.45,406a35.65,35.65,0,0,0,18.62-17.15c-.26,2-.37,2.93-.69,5.41l13.43-15.1,1.33,1.41c-10.06,12.26-21.13,23.27-37,28.44l9-12,1.35,1Z"/><path class="cls-1" d="M302.37,379.9c0,3.86-.05,6.81-.07,9.76l1.64.65c-1.95,1.38-3.87,2.81-5.94,4a31.58,31.58,0,0,1-2.21-3.06l-11.05,5.4-.57-1.19c.94-.49,1.88-1,2.83-1.47,2.64-1.29,5-1.85,6-5.92C293.8,385,298.7,382.92,302.37,379.9Z"/><path class="cls-1" d="M180.8,258.77c1-.39,2.53-.48,3.06-1.24.85-1.22,1.07-2.88,2.49-4.16l.15,9.38.91.19,2.74-4.25.66.18c-.37,2-.73,4-1.32,7.15l4.49-5,1.09.47-3,12.74-1.91.64c1.31-8.23-3.64-10.92-9.74-13.13.15-.78.35-1.87.55-2.95Z"/><path class="cls-1" d="M379.26,380.69l7.05.16-5.66-6.08a41.29,41.29,0,0,1,5.56-2.4,25.78,25.78,0,0,1,4.84-.4c-.06,1.84.6,4.24-.32,5.41a23.23,23.23,0,0,1-7.27,6.39C381.12,385,378.37,384.32,379.26,380.69Z"/><path class="cls-1" d="M74.36,157.74C79.93,159,94,168.4,97.47,173.37,88.08,170.33,80.76,165,74.36,157.74Z"/><path d="M191.74,311.27l4-7.16.53.14c-1.15,6.55-2.29,13.1-3.47,19.85a17.2,17.2,0,0,1-3.25-2.44,3.28,3.28,0,0,1-.46-2.58c.53-1.95,1.36-3.82,2.08-5.72Z"/><path d="M294.84,415c-4.36-2.17-.76-4.22.49-5.55s3.44-1.66,6-2.76l-1.72,3.58,4.69-1.41c.21.35.43.7.64,1.06l-7.21,4.94Z"/><path class="cls-1" d="M167.74,289.93a39.52,39.52,0,0,0,6.28.57,43,43,0,0,0,6.56-1.42c.48,1.92,1,3.92,1.66,6.66l-7.41.63,2.77-3.85-10.19-.89Z"/><path class="cls-1" d="M324.2,422.94,337,406C334.16,416.73,334.16,416.73,324.2,422.94Z"/><path d="M57.74,126.4c.32-1,.53-2.8,1-2.88a80.63,80.63,0,0,1,15.83-1L59.86,127Z"/><path class="cls-1" d="M173.64,263.45c3.74,6.49.85,10.92-3.53,15Z"/><path class="cls-1" d="M188.43,301.23c-4.4-7.19-.89-12.86,1.07-18.7l1.34.28c-1.12,4.06-2.23,8.12-3.49,12.72l3-1.4C189.71,296.42,189.15,298.54,188.43,301.23Z"/><path class="cls-1" d="M47.6,134.2l-1.71-4.32c5.55.73,11.23-2.82,15.17,3.2C56.46,130.59,52,130,47.6,134.2Z"/><path class="cls-1" d="M146.94,247.25c-.86,4.37,2.41,9.56-2.61,13.21-3.62-5.43,1.24-9,2.79-13.22Z"/><path class="cls-1" d="M160.24,271.64c-1.8-4.44,2.46-7.79,2.44-11.91l1.65.3q-1.07,5.89-2.14,11.79Z"/><path class="cls-1" d="M243.25,409.53,235,401.06l4.95-.85c1.4,3,2.69,5.77,4,8.55Z"/><path class="cls-1" d="M347.05,410.87,332.7,424.76l-.86-.87,14-14Z"/><path class="cls-1" d="M400.07,380.3l-8.88,12.58-1.44-1,9-12.49Z"/><path class="cls-1" d="M73.38,176.73l14.05,4.63-.57,1.55-14-4.67Z"/><path class="cls-1" d="M152.08,251.94c-.14,3.69-.29,7.39-.43,11.08l-2.57-.27c-1.28-4,1.84-7.26,3.13-10.82Z"/><path class="cls-1" d="M56.93,136.38c8.39-1.3,9.69-.75,10.43,4.13Z"/><path class="cls-1" d="M68.2,148.7l10.42,5.12-.89,1.74-10.31-5.31Z"/><path class="cls-1" d="M58.27,94.93c-2.36-6-1.94-7.47,1.82-9.93C59.44,88.55,58.86,91.74,58.27,94.93Z"/><path d="M253.27,167.66l-39.34-15.59C226.89,153.36,249.23,162,253.27,167.66Z"/><path d="M325.47,379.41c1.41-6.09,4.23-11.87,10.32-13.22,7.16-1.59,9.9-7.11,13.69-11.87a80.1,80.1,0,0,0,4.69-7.39c-1,8.86-10,18.53-18,20.81-2.39.68-4.38,3.27-6.21,5.29A59.7,59.7,0,0,0,325.47,379.41Z"/><path d="M232.11,144l-22.3-7.38C219.56,134.9,226,138.9,232.11,144Z"/><path d="M254.27,218.16c5.14,5.7,12.43,9.31,16.24,16.29l-1.06,1.05-16.37-16C253.48,219.06,253.88,218.61,254.27,218.16Z"/><path d="M412.66,344.24c.49,2.91.49,2.91,6.18,2.1-1,1.08-1.74,2.59-2.95,3.12-.94.41-2.41-.38-3.65-.64a29.67,29.67,0,0,0-4.11-.84c-3.31-.24-3.77-1-2.62-4.32Z"/><path d="M252.94,175.53l14.13,8.13-1.42,2.42-14-8.3Z"/><path d="M286.42,250.44c-2.83-3.61-5.62-7.26-8.51-10.83-.71-.87-1.9-2.24-2.59-2.09-4.1.9-3.17-1.93-3.52-4.16C279,237.26,284.57,242.29,286.42,250.44Z"/><path d="M251.13,216.42c-2.88-4.35-10.21-2.15-11.56-9.16-.19-1-3.15-1.52-5.2-2.43,4.71-1.07,4.88-.81,7.27,3.25.73,1.24,2.58,1.82,3.94,2.68,2.2,1.38,4.41,2.73,6.62,4.1Z"/><path d="M170.89,122.14l19.7,5.85-.44,1.65-19.58-5.38C170.68,123.55,170.78,122.85,170.89,122.14Z"/><path d="M401,312.49l13.79,1.59C411.47,318.21,404.48,317.71,401,312.49Z"/><path d="M362.6,254.31c6.4.05,11,3.1,14.25,9.42Z"/><path d="M401.46,299.56c-1,1.12-1.73,2.71-2.95,3.24a4.28,4.28,0,0,1-3.88-.62c-1.2-1.25-1.69-3.19-3.15-6.23l5.6,2.75-.5.62,4.9.49Z"/><path d="M412,337.94a21.51,21.51,0,0,1-3.55,2,17.37,17.37,0,0,1-5.07,1c-1.06,0-2.15-.75-3.23-1.17.43-.77.75-2.13,1.29-2.22,3.32-.54,6.69-.8,10-1.15Z"/><path d="M280.06,248.23l-10-7.44C275.55,240.14,278.48,243.14,280.06,248.23Z"/><path d="M160.2,114.56l14.25,2.53-.33,1.84-14.27-2.32C160,115.93,160.09,115.25,160.2,114.56Z"/><path d="M318.34,394c-3-3.5-1.86-7.77,3.18-13.25C320.36,385.54,319.41,389.49,318.34,394Z"/><path d="M216.86,142.24,229,144.63l-.39,2.1-12.21-2C216.54,143.87,216.7,143.06,216.86,142.24Z"/><path d="M166.45,112.47l-14.51-3.16c.14-.63.29-1.26.43-1.89l14.55,3.38C166.76,111.36,166.6,111.92,166.45,112.47Z"/><path d="M385.2,359.8l10.6,2.5c-1.91,1.75-1.91,1.75-10.87-.57Z"/><path d="M341.85,239.68l-10.72-6.53c.31-.52.62-1.05.94-1.57l10.72,6.27Z"/><path d="M400.34,332c-6,2.91-7-2.13-9.93-3l.95-1.84Z"/><path d="M304.74,203.72l11.2,6.24-.76,1.43-11.5-6Z"/><path d="M304.46,360.43q-2.35-5-4.69-10.09l1.69-.8,4.91,10Z"/><path d="M160.38,104.5,147.68,103c.06-.53.11-1.06.16-1.59l12.72,1.3Z"/><path d="M260.87,186.73l8.06,5.45-1,1.66-8.31-5.17Z"/><path d="M297.47,262.1l-9-8,.81-.92,8.88,7.9Z"/><path d="M277.91,256.42l-7.48-6.65C274.52,248.32,276.25,249.78,277.91,256.42Z"/><path d="M165.28,235.63l-4.47,9-1-.11q.41-4.74.79-9.48l-1-.19-3.18,5.65-1.5-.37,2-8.13-1-.55c-.72,1.21-1.46,2.41-2.15,3.63a12,12,0,0,1-2.54,3.55c-1.84-6.55,3.3-9.91,6.9-14.12-.31,1.71-.63,3.42-1.22,6.68l5.74-4.07c-.06.65-.1,1.13-.14,1.62-.1,1.32-.2,2.65-.29,4,.57,0,1.59.06,1.65-.13a11.06,11.06,0,0,0,.85-4.09c-.12-1.37-.94-2.67-.69-4.82l11.39,9-.7,1.17-7.64-3.72c-.6,1.92-1.19,3.85-1.79,5.79A2.09,2.09,0,0,1,165.28,235.63Z"/><path d="M244.61,257.29l-11.11,6.2c.16.34.33.68.49,1l4.37-1.7-1.26,3.89,2.18-.6.38,1.07-11.61,4C230.31,262.3,235.08,258.14,244.61,257.29Z"/><path d="M150.11,212.2c-.67,7.81-7.89,16.85-14.53,18.89,1.5-5.17,1.58-5.05,6.36-8.41a22.56,22.56,0,0,0,4.32-4.79C147.52,216.26,148.58,214.48,150.11,212.2Z"/><path d="M242.78,276.13l-3.82,2.3,3.35,1.28L232.62,284C232.83,277.41,236.2,275,242.78,276.13Z"/><path d="M134.59,234.75c1.27,4.47.12,8.42-4,13.7C128.83,244,130.36,238.73,134.59,234.75Z"/><path d="M153.23,218.42c-1.82,2.78-3.55,5.63-5.48,8.33s-4.18,5.45-6.28,8.16l-1.25-.84,11.58-16.61Z"/><path d="M156,221.37l-8.41,14.48C146.14,230.23,149.27,224.84,156,221.37Z"/><path d="M221.58,244.36l-6.72,13.22C213.76,251.94,214.74,250,221.58,244.36Z"/><path d="M227.92,247.64l-9.68,10.88-.89-.73,9.74-11Z"/><path d="M210.87,225l-8.7,11.85-1.51-1.06,8.47-12Z"/><path d="M213.19,246.61,220,235.78C220.06,240.88,218.63,245,213.19,246.61Z"/><path d="M230.74,250.65,221.89,262C221.24,257.25,225.37,252,230.74,250.65Z"/><path d="M223.11,263.55,233,252.47l.39.17-9.85,11.08Z"/><path d="M236.65,255.15,225.57,267.6C227.47,261.45,230.85,257.33,236.65,255.15Z"/><path d="M197.35,231.1l7-9.88,1.26.8L199,232.35Z"/><path d="M112,183.75l14-5.38.54,1.45-14.22,5.38C112.23,184.72,112.12,184.24,112,183.75Z"/><path d="M202.32,220.42,196,229.74c-1.13-5.19,2.73-7.16,5.07-10.11Z"/><path d="M238.83,272.84l-9,4.36-1-2.1L238,271Z"/><path d="M205.66,237.4q3.5-4.4,7-8.8l1.17.83q-3.27,4.62-6.55,9.22Z"/><path d="M123.92,174.7l-10.4,4.5-.66-1.49,10.35-4.64C123.45,173.62,123.69,174.16,123.92,174.7Z"/><path d="M198.56,321.89c.95-2,1.89-4.07,2.83-6.1,0,8.08,1.08,16.28-3.42,23.77q.12-7.24.23-14.47Z"/><path d="M198.56,321.89l-.36,3.2c-.85,2.55-1.69,5.1-2.95,8.89-1-3.54-5.84-5.13-.68-8.32,1.05-.64.52-3.7.88-5.61.5-2.65,1.14-5.27,1.59-7.26C197.49,315.52,198,318.7,198.56,321.89Z"/><path d="M205.31,282c-1,2.21-1.8,3.89-2.75,5.93l3.12,0c-2,3.46-3.83,6.72-5.7,10C199.78,292,197.53,285.52,205.31,282Z"/></svg>