<svg id="Layer_1" data-name="Layer 1" xmlns="http://www.w3.org/2000/svg" viewBox="0 0 450 450"><defs><style>.cls-1{fill:#fff;}</style></defs><title>Artboard 4</title><path d="M44.21,289.61c-1.08-9.73,1.61-17.75,8.37-23.93,7.09-6.48,14.61-12.52,22.14-18.49,8.7-6.89,17.51-13.65,26.5-20.14,4.1-3,8.77-5.15,13.4-7.81l-6.33-2.18c.57-1.18.8-2.72,1.55-3,8-3.32,13-10.21,19.11-15.82,6.46-6,13-11.85,19.49-17.76s12.74-11.82,22-12.23c14.67-.65,28.78.45,39.46,12.7,2.07,2.37,5.37,3.71,8.2,5.36,9.3,5.39,18.42,11.18,28.06,15.89,7.95,3.88,16.55,6.45,25.64,9.9.75-4.54,1.4-8.69,2.13-12.82.84-4.76,3.42-6.94,8.3-5.2,2-7.6,2.67-7.94,9.77-6.73,5.73,1,11.55,2.2,17.28,2,3.31-.11,6.79-2.41,9.75-4.39,7.66-5.11,14.85-5.64,24.24-3.24,10,2.56,17.15,7.69,24.43,14,9.28,8,11.72,18,7,29.44s-7,23.55-8.84,35.8c-1.6,10.8-6.33,20.48-13,29.1a35.42,35.42,0,0,1-15.92,11.5c-3.27,1.24-6.09,3.77-9,5.86-7.21,5.15-14.48,10.21-21.49,15.62-5.44,4.2-10.61,8.78-15.73,13.37s-10.06,9.95-15.5,14.43c-7.66,6.32-15.47,12.53-23.68,18.1-8.8,6-18.31,5.29-27.18,0a59,59,0,0,1-13.21-10.53c-4.08-4.43-7-9.94-10.63-14.82a9.76,9.76,0,0,0-4.11-2.7c-2.84-1.17-5.07-2.33-4.16-6.18.17-.74-1.8-2.31-3.05-3-3.61-2.05-7.81-3.45-6.38-9.11.17-.68-1.49-1.67-1.9-2.68-.91-2.25-1.5-4.62-2.35-6.89a11,11,0,0,0-2-4c-3.38-3.37-5-7-2.55-11.72-3.47-3.37-10.88-4.4-7.07-12-2.78-3.09-7.32-5.6-3.91-10.74-7.11-6.25-7.11-6.25-3.8-11.21-6.71-3.37-7.78-5.53-5.2-11.11-4.87-1.22-8.19-3.77-8.13-9.41,0-3.11-2.14-3.09-4.11-1.71-2.85,2-5.35,4.49-8.25,6.39-7,4.56-14.11,8.79-21,13.41-1.83,1.22-2.76,4.46-4.57,4.91-7.67,1.91-11.18,10.33-19.66,11.4-4.91.63-9.34,4.6-14.15,6.68-2.12.91-4.66.88-7,1.2-.78.1-1.67-.3-2.37-.07-5,1.62-9.93,3.52-15,4.94C48.09,290.43,46.08,289.76,44.21,289.61ZM63,273.76c-4.22-3.71-1.66-7.74.1-12.42-4.44,4.87-6,12.79-3.46,15.17h3.91c-.26-1-.49-2-.72-2.93l6-1.27c-4.62-3.49-4.14-7.42-2.75-11.49.5.44,1.43.88,1.42,1.31,0,2.14-.34,4.28-.6,6.89,1.65-.66,2.65-1.47,3.39-1.28,3.71,1,4.34.12,2-2.93l1.18-.62,6.11-2.56-2.19-9,1.23-.3c.6,5.38,1.33,6.54,4.14,5.71,3.62-1.08,3.45-3.67,2.28-6.69-.43-1.09.08-2.55.17-3.84.85,3.1.74,6.29,4.94,5.55-1.17,2.62-2.28,5.11-3.4,7.6-1.36.54-2.95.8-4,1.68s-2.32,2.41-2.3,3.64,1.61,2.2,2.58,3.39l-1.79,2.05,11-1.78-4,3.72.62.85L97,268.64l-8.57-4.43,1.69-3.49h2.6l-1.3,2.7c3.35-2.75,5.8-2.82,7.61,1.35l5.24-3.22.44.57-2.46,3.05.86.8,6.48-5.85-11.14-3a8.11,8.11,0,0,1,5.06-1.6c2.19-.12,4.51.27,6.54-.35,1.29-.39,1.94-2.58,3.25-3.3,2-1.11,2.77-5.8,6.48-2.53,2.46-2.94,4.94-5.86,7.37-8.82,1.35-1.64,2.62-3.34,4.72-6l13.55,2.36.33-1.56-3.65-1.35,2.92-5.48c-5.74-4.29-5.5,5.09-10.41,3.62l3.23-3-3.28-4.86,0,0,4.13,1.68a11.9,11.9,0,0,1-2.81-15.47c-.64,6.42,1,11.11,6.59,14.56.57-1.82,1.83-3.93,1.3-4.56-1.29-1.55-3.39-2.42-4.81-3.32l3.78-4.22,3.54,7.55,1.55-.24c.5-2,1-4,1.62-6.55l-6.86-.64-1.29-8.39,1.42-.22c.83,6,2.13,7.12,8.66,7-1.55,8.22-3.09,16.34-4.62,24.47l.79.22,2.93-4.74v8.26l1.58-.07c-.24-4.61-.47-9.21-.76-14.8,3.63,5.24,3.31,9.85,1.75,14.55-1.83,5.52-1.37,6.29,5,7.15-.45-1.48-.85-2.81-1.28-4.25l-1.84,2.51-1-.6,5.05-9.61,1.85,0c1.28,4.72,2.55,9.44,3.92,14.5l1.86-1.71v0l7.29-3c-2.46,4.64-10.08,3.5-9.65,10.19,1.72,1.08,4.13,1.72,4.6,3,2.05,5.84,3.52,11.89,5.27,17.85a35,35,0,0,0,1.7,3.86l5-4-.39-.65-5.34,2.13c3.74-6.53,9.64-1.08,13.85-3.78a3.53,3.53,0,0,1-1.66,1.74c-2.67,1.55-6.25,2.49-7.79,4.79A8.66,8.66,0,0,0,180,290.4l4.65-2.64c-.7,1.95-2,4-2,6a22.42,22.42,0,0,0,2,7.88c.46,1.07,2.21,1.59,2.91,2.06l6.06-5.32c-1.21,3.14-3.84,5.38-4.48,8.09s.9,5.62,1.53,8.76l9.78-6.54.39.79-7.41,8.48c1,3.44,1,8.4,6,9.54l8.83-5.22c.23.4.47.8.71,1.2-2.18,3-9.14,2.67-6.21,9.22,3.87,8.68,8.25-.55,12.74.47-1.19,1.3-2.1,2.45-3.18,3.42a31.19,31.19,0,0,1-3.29,2.22c0,8.89,6.89,6.42,12.55,6.82l-6.53,2.58c1.79,2.28,3.07,5.4,5.3,6.38,2.5,1.09,5.85.25,8.62.25l-.73,1.61,2.65.27-.05.82h-7.66l-.2,1.95c3.57.27,7.85-.59,10.55,1.09a11.4,11.4,0,0,0,10.55,1.33l-8.63,5.27c4,2.92,8.82,3,11.05.32,1.9-2.3,3.91-4.52,6-6.68s4.31-4.28,6.48-6.42l-.52-.63-7.24,3.59-.45-.61,9.32-10.05c.51.91.94,1.68,1.34,2.38l1.77-3.19,1,.43q-1.92,4.89-3.85,9.78l1,.39,11-23.72,1,5,.41-.09.47-5.93.88,0c.4,1.66.8,3.32,1.42,5.84.84-4.46,1.52-8.06,2.21-11.66l1.24-.12c.57,3.07,1.15,6.14,2,10.64.77-5,1.36-8.79,1.94-12.55l.74-.05c.17,2.34.34,4.68.62,8.47l2.84-13.21c.59,1.55,1,2.53,1.35,3.52l1.48-.11c.19-2.88.39-5.76.57-8.51,6,1.91-.16,7.93,3.36,12.51V313.24l1.41-.12c.35,2.54.71,5.09,1.06,7.64l.57.1,2.37-13,1.21.3c.51,3,1,6,1.52,9l.61-.05v-7.49l1,.93c2.66-3,5.32-5.92,8.52-9.5-.32,3.67-.58,6.66-.83,9.66l.79.25c1.57-4.38,3.15-8.76,4.78-13.3,1.79.18,4.11,1,4.21-3.28.12-5.78,1.16-11.54,1.75-16.79l3.2,4.93,2-.36c-3.12-3.85-4.18-7.35-.81-11.18,1-1.09-.22-4.06-.5-7.06l-1.59,5.46a18,18,0,0,1-.87-7.85c.1-1.11,1.05-2.15,1.61-3.22.69,1,1.73,2,2,3.13.74,3,1.15,6.16,1.69,9.26l1.74-.36q-3.13-12.3-6.28-24.6l.15.16c0-2-.73-5.14.18-5.73,4.34-2.8,2-5.52.64-8.44a24,24,0,0,1-1-3.42c2.69,4,5.55,7.68,4.18,13.08-.63,2.46,1.25,5.52,1.84,8.35.44,2.07.55,4.22,1,6.3,1.36,6.66,2.8,13.31,4.22,20q-.75,5.81-1.51,11.62c1.09-1.31,1-2.73,1.26-4.1a35.59,35.59,0,0,1,1.19-4.11l.84.21q-.24,2.85-.5,5.68h1.54l-.89-9.27,2.67-2.28c-.35-1.75-.94-4.72-1.59-8L348.2,269c-1-2-1.86-3.6-3.14-6.05l5.19.57.86-1.18-8.56-5.88,6,1.45,1.05-1.76-5.77-5.23,2.35-1.66,7.14,2.93c-.33-3.46-.55-5.82-.72-7.71l-5.89,2c2.81-3,1.2-4.22-.72-5.89-1.05-.91-1.38-2.65-2-4l1.55-1,1.19,3.75,10.3-9.46c-.23,1.61-.39,2.75-.67,4.73l5.14-4.88-4.32-3.78H361c-.94-1.75-3-3.35-3.45-3-2.91,2.3-4.42-.56-6-1.58-4.41-2.79-8.43-6.22-12.82-9a108.62,108.62,0,0,0-10.84-5.85,4.82,4.82,0,0,0-3.29-.49c-4.64,1.6-9.19,3.45-14.35,5.43,0,0,.13,1.33.21,2.07-1.92-2.27-4-4.73-6.07-7.18l-2,1.78c1.19,1.45,3,2.72,3.44,4.37.66,2.28,0,4.91.54,7.24s2.88,4.65-1.22,6.46c-1.09-3.46-2.12-6.71-3-9.65l-18.67,3.35,1.93,5.23-10.61-11-1.17,1.24,4.62,3.23c-.59,1-1.22,3-1.81,3a5.52,5.52,0,0,1-3.66-1.77c-1.94-2.22-3.54-4.74-5.27-7.15l-1.58,1.13,7.78,11.52-.59.6q-7.42-8.19-14.87-16.37l-.3.47c4.92,7.77,9.84,15.55,14.94,23.58a6.66,6.66,0,0,1-1.4-.17c-6.14-2.67-7.82-8.64-10.33-14-2.16-4.59-4.36-9.11-10.59-10.9,3.78,7.46,10.91,12.52,10.74,20.92l-1.46.77-13.47-22.87-1,.64c.58,1.1,1.17,2.2,1.76,3.3l-.56.22q-4.23-4.87-8.45-9.74l-1.09,1,7.53,8.54h0L234,203.29l2.64,4.24-.84.62-9.07-7.61c3.29,7.67,12.29,9.71,13.69,17.73l-4.5-4.82-.63.63L242,224.72l.11-.09-11.74-4.92,5.75-2.78-12.92-5.77,5.6-1.57-12.42-5L223,202.9l-12.23-5.64h5.06c-4.25-4.18-8.45-8.28-12.62-12.43-.59-.59-1.52-1.37-1.47-2,.4-4.71-3.39-5.13-6.33-6-1.93-.56-4.16-.1-6.26-.1l-.17-.81,4.12-1.83-.29-.82-11.23,2.34,4.3-3.65-.44-.85L176,175.56l.7-3-9.53,3.49,4.1-4.3-.93-1.14-9,6.73-.34-.43,2.69-4c-6.92,1.23-5.43,8.68-10.11,12.51.88-3,1.52-5.22,2.15-7.4l-1.23-.53-6.09,10.29-.51-.16c.4-1.63.8-3.25,1-4.13-5.51,5.52-11.29,11.32-17.56,17.59l7.71,3.49-5.79,1.79-4.68-4.4c-1.68,1.95-3.36,3.91-5,5.86l1.12,1,3-2.53h5.71a20.73,20.73,0,0,1-2.58,3.32c-5.2,4.52-10.5,8.92-15.75,13.38-2,1.71-3.79,3.8-6,5.05-1.75,1-4.55.27-6.06,1.41-5.16,3.9-10,8.26-14.89,12.5-2,1.71-3.76,3.68-5.84,5.26-2.69,2-6,3.37-8.3,5.73-3.26,3.34-1.6,7.46-.46,11.3L69.67,257l-4,3.36C62.08,264.31,63,269.13,63,273.76Zm107.93,7.86c1,3.61,2.06,7.22,3.56,12.45.69-4.44,1.22-7.79,1.74-11.11l-5.44-1.21,1.84-10.38-2.34.31c-.82-1.82-1.6-3.66-2.48-5.46-1-2.14,1-6-2.53-6.49-.16,3.77-.31,7.1-.47,10.54,5.22,1.91,6.36,3.38,4.5,8.88C168.43,281.75,169.45,281.41,170.94,281.62Zm172.87-90.06c-.14-2.43-.3-4.93-.45-7.44L336,186.25c.24-1.1.45-2.08.66-3.06l-.52-.16-2,3.56-.79-1-3.28,1.49c-.11-.88-.23-1.84-.45-3.54L326.72,190l-1.29-2.15-2.05,6.08c-.36-2.24-.53-3.34-.76-4.83l-2.79,6.39-.76-.25c.2-1.58.41-3.16.78-6l-3.54,6.54-.78-.24,1.11-6-3.08,5.18-5.72-2.29-6.4,7.87,7.3-1c.22,1.19.43,2.36.76,4.13l2.85-3,1.89,4.36c.79-1.91,1.37-3.33,2.5-6.09.19,3.15.28,4.73.42,7.06.81-2.44,1.36-4.13,1.91-5.81l.8.19c.1,1.23.19,2.47.24,3.08l6.71-5.4.86.86-1.35,2.67c2.65.92,5.24,1.9,7.88,2.7a8.31,8.31,0,0,0,2.58,0c-.56-.6-1.12-1.19-1.69-1.78l-3.46-3.56.89-.48L342.62,201l1.2-3.5,1.17.33c-.25,2.41-.51,4.82-.76,7.24l1.06.09,1-9.08,2.2-.36c3.69,4,0,9.25.61,14l3.32-11,1.42.41c-.57,2.71-1.15,5.41-1.72,8.12l.54.19c.65-1.16,1.29-2.33,2.05-3.71.35,1.81.63,3.28.92,4.75a13.45,13.45,0,0,0,2.21-6.32c.22-2.8.06-5.64.06-8.6l-2.67,1.33c-.22-1.62-.4-2.93-.64-4.67-.64,1.14-1,1.76-1.71,3.09l-2.53-7.86c-.32,2.43-.51,3.87-.8,6-.72-2.56-1.22-4.36-1.73-6.16l-.8.16c.2,1.52.41,3,.45,3.33Zm-59.3,14,5.53-.78c-.18-.94-.38-1.9-.57-2.86l.95-.39,4,6.72.72-.33c-1-2.45-2-4.91-3-7.36l.59-.41,3.84,4.16.6-.47-4-6.76-11,7.26c1.4,3.17,2.82,6.39,4.23,9.6l1.08-.48C286.44,210.78,285.46,208.11,284.51,205.55ZM57.09,264.79c-2.39,4.49-4.69,7.83-6,11.52-1,2.76,1.41,3.53,3.94,3.42,3-.14,2.68-1.37,2.17-3.82C56.61,272.8,57.09,269.47,57.09,264.79ZM83,276.72c-1.88-2.55-3.2-5.17-5.3-6.82-1-.75-3.59.08-5.15.84-.9.44-1.19,2.16-2.18,4.17l3.8-2.37C75.84,276.88,79.9,278.78,83,276.72Zm96.08,17.21v11.62L188.25,317c-.72-3.08-1.47-6.32-2.28-9.78h-4.23C181.58,302.64,182,298.32,179.11,293.93Zm-17.59-34.51c.44-3.78,1.1-7.53-2.26-10.53,1.17,3.64,2.23,7-3.68,8.65Zm197.22-47.6,1.45.09v-16C359.76,200.66,359.25,206.24,358.74,211.82Zm-24.39,57.66-1.59,0q.56,7.44,1.12,14.87l.47-.11Z"/><path class="cls-1" d="M242,224.72l-6.66-10.64.63-.63,4.5,4.82c-1.4-8-10.4-10.06-13.69-17.73l9.07,7.61.84-.62L234,203.29l10.48,7.91a13.14,13.14,0,0,0-.12,3.3c1.93,8.73,8.89,14,14.48,20.2l-14.38-23.5-7.53-8.54,1.09-1q4.22,4.88,8.45,9.74l.56-.22c-.59-1.1-1.18-2.2-1.76-3.3l1-.64,13.47,22.87,1.46-.77c.17-8.4-7-13.46-10.74-20.92,6.23,1.79,8.43,6.31,10.59,10.9,2.51,5.35,4.19,11.32,10.33,14a6.66,6.66,0,0,0,1.4.17c-5.1-8-10-15.81-14.94-23.58l.3-.47q7.44,8.17,14.87,16.37l.59-.6-7.78-11.52,1.58-1.13c1.73,2.41,3.33,4.93,5.27,7.15a5.52,5.52,0,0,0,3.66,1.77c.59,0,1.22-1.94,1.81-3l-4.62-3.23,1.17-1.24,10.61,11-1.93-5.23L302,216.48c.93,2.94,2,6.19,3,9.65,4.1-1.81,1.75-4.13,1.22-6.46s.12-5-.54-7.24c-.48-1.65-2.25-2.92-3.44-4.37l2-1.78c2.08,2.45,4.15,4.91,6.07,7.18-.08-.74-.21-2.08-.21-2.07,5.16-2,9.71-3.83,14.35-5.43a4.82,4.82,0,0,1,3.29.49,108.62,108.62,0,0,1,10.84,5.85c4.39,2.83,8.41,6.26,12.82,9,1.63,1,3.14,3.88,6,1.58.47-.37,2.51,1.23,3.45,3h-3.83l4.32,3.78-5.14,4.88c.28-2,.44-3.12.67-4.73l-10.3,9.46-1.19-3.75-1.55,1c.66,1.37,1,3.11,2,4,1.92,1.67,3.53,2.91.72,5.89l5.89-2c.17,1.89.39,4.25.72,7.71l-7.14-2.93-2.35,1.66,5.77,5.23-1.05,1.76-6-1.45,8.56,5.88-.86,1.18-5.19-.57c1.28,2.45,2.12,4.07,3.14,6.05l-7.95-3.24c.65,3.29,1.24,6.26,1.59,8L339.17,276l-1.93,0c-1.42-6.65-2.86-13.3-4.22-20-.43-2.08-.54-4.23-1-6.3-.59-2.83-2.47-5.89-1.84-8.35,1.37-5.4-1.49-9.1-4.18-13.08a24,24,0,0,0,1,3.42c1.32,2.92,3.7,5.64-.64,8.44-.91.59-.16,3.75-.18,5.73l-1.74-5.4c-3.54,6-3.63,8.54-.78,12.45.72-2.19,1.54-4.7,2.37-7.21q3.13,12.3,6.28,24.6l-1.74.36c-.54-3.1-.95-6.22-1.69-9.26-.28-1.14-1.32-2.09-2-3.13-.56,1.07-1.51,2.11-1.61,3.22a18,18,0,0,0,.87,7.85l1.59-5.46c.28,3,1.46,6,.5,7.06-3.37,3.83-2.31,7.33.81,11.18l-2,.36-3.2-4.93c-.59,5.25-1.63,11-1.75,16.79-.1,4.26-2.42,3.46-4.21,3.28-1.63,4.54-3.21,8.92-4.78,13.3l-.79-.25c.25-3,.51-6,.83-9.66-3.2,3.58-5.86,6.54-8.52,9.5l-1-.93v7.49l-.61.05c-.5-3-1-6-1.52-9l-1.21-.3-2.37,13-.57-.1c-.35-2.55-.71-5.1-1.06-7.64l-1.41.12v13.25c-3.52-4.58,2.64-10.6-3.36-12.51-.18,2.75-.38,5.63-.57,8.51l-1.48.11c-.38-1-.76-2-1.35-3.52l-2.84,13.21c-.28-3.79-.45-6.13-.62-8.47l-.74.05c-.58,3.76-1.17,7.53-1.94,12.55-.84-4.5-1.42-7.57-2-10.64l-1.24.12c-.69,3.6-1.37,7.2-2.21,11.66-.62-2.52-1-4.18-1.42-5.84l-.88,0-.47,5.93-.41.09-1-5-11,23.72-1-.39q1.93-4.89,3.85-9.78l-1-.43-1.77,3.19c-.4-.7-.83-1.47-1.34-2.38l-9.32,10.05.45.61,7.24-3.59.52.63c-2.17,2.14-4.39,4.22-6.48,6.42s-4.07,4.38-6,6.68c-2.23,2.68-7.06,2.6-11.05-.32l8.63-5.27a11.4,11.4,0,0,1-10.55-1.33c-2.7-1.68-7-.82-10.55-1.09l.2-1.95h7.66l.05-.82-2.65-.27.73-1.61c-2.77,0-6.12.84-8.62-.25-2.23-1-3.51-4.1-5.3-6.38l6.53-2.58c-5.66-.4-12.54,2.07-12.55-6.82a31.19,31.19,0,0,0,3.29-2.22c1.08-1,2-2.12,3.18-3.42-4.49-1-8.87,8.21-12.74-.47-2.93-6.55,4-6.22,6.21-9.22-.24-.4-.48-.8-.71-1.2l-8.83,5.22c-5-1.14-5-6.1-6-9.54l7.41-8.48-.39-.79-9.78,6.54c-.63-3.14-2.13-6.2-1.53-8.76s3.27-4.95,4.48-8.09l-6.06,5.32c-.7-.47-2.45-1-2.91-2.06a22.42,22.42,0,0,1-2-7.88c-.05-2,1.29-4,2-6L180,290.4a8.66,8.66,0,0,1-.68-10.91c1.54-2.3,5.12-3.24,7.79-4.79a3.53,3.53,0,0,0,1.66-1.74c-4.21,2.7-10.11-2.75-13.85,3.78l5.34-2.13.39.65-5,4a35,35,0,0,1-1.7-3.86c-1.75-6-3.22-12-5.27-17.85-.47-1.32-2.88-2-4.6-3-.43-6.69,7.19-5.55,9.65-10.19l-7.29,3,6-9.21c-7.1,1.58-8.3,3.3-6,9.19L164.63,249c-1.37-5.06-2.64-9.78-3.92-14.5l-1.85,0-5.05,9.61,1,.6,1.84-2.51c.43,1.44.83,2.77,1.28,4.25-6.35-.86-6.81-1.63-5-7.15,1.56-4.7,1.88-9.31-1.75-14.55.29,5.59.52,10.19.76,14.8l-1.58.07v-8.26l-2.93,4.74-.79-.22c1.53-8.13,3.07-16.25,4.62-24.47-6.53.14-7.83-1-8.66-7l-1.42.22,1.29,8.39.13-.1-3.76,4.2c1.42.9,3.52,1.77,4.81,3.32.53.63-.73,2.74-1.3,4.56-5.62-3.45-7.23-8.14-6.59-14.56a11.9,11.9,0,0,0,2.81,15.47l-4.14-1.68c-1.92-2.61-4-2.29-6.1-.26l-1.09-3.34c-1.4,2.35-2.43,4.91-4.23,6.7-.74.74-3.13-.18-5.14-.39.39,1.44,1,3.52,1.54,5.67l-5.89,2.56c-.82-1.73-1.62-3.42-2.43-5.11l-.63.26,1.57,10.17c3.38-2.76,6.89-5.65,9.52-7.79l5.84.5c-4.22-3.54-1.19-5,1.06-6.32a59,59,0,0,1,6-2.67l3.28,4.86-3.23,3c4.91,1.47,4.67-7.91,10.41-3.62l-2.92,5.48,3.65,1.35-.33,1.56-13.55-2.36c-2.1,2.67-3.37,4.37-4.72,6-2.43,3-4.91,5.88-7.37,8.82-3.71-3.27-4.48,1.42-6.48,2.53-1.31.72-2,2.91-3.25,3.3-2,.62-4.35.23-6.54.35a8.11,8.11,0,0,0-5.06,1.6l11.14,3L103.07,266l-.86-.8,2.46-3.05-.44-.57L99,264.77c-1.81-4.17-4.26-4.1-7.61-1.35l1.3-2.7h-2.6l-3.26-.1c1.12-2.49,2.23-5,3.4-7.6-4.2.74-4.09-2.45-4.94-5.55-.09,1.29-.6,2.75-.17,3.84,1.17,3,1.34,5.61-2.28,6.69-2.81.83-3.54-.33-4.14-5.71l-1.23.3,2.19,9-6.11,2.56h0c-1.15-3.84-2.81-8,.45-11.3,2.3-2.36,5.61-3.7,8.3-5.73,2.08-1.58,3.86-3.55,5.84-5.26,4.92-4.24,9.73-8.6,14.89-12.5,1.51-1.14,4.31-.44,6.06-1.41,2.25-1.25,4-3.34,6-5.05,5.25-4.46,10.55-8.86,15.75-13.38a20.73,20.73,0,0,0,2.58-3.32l-.09.08,5.77-1.78-7.71-3.49c6.27-6.27,12-12.07,17.56-17.59-.21.88-.61,2.5-1,4.13l.51.16,6.09-10.29,1.23.53c-.63,2.18-1.27,4.36-2.15,7.4,4.68-3.83,3.19-11.28,10.11-12.51l-2.69,4,.34.43,9-6.73.93,1.14-4.1,4.3,9.53-3.49-.7,3,9.37-4.44.44.85-4.3,3.65,11.23-2.34.29.82-4.12,1.83.17.81c2.1,0,4.33-.46,6.26.1,2.94.86,6.73,1.28,6.33,6,0,.63.88,1.41,1.47,2,4.17,4.15,8.37,8.25,12.62,12.43h-5.06L223,202.9l-6.63,1.67,12.42,5-5.6,1.57,12.92,5.77-5.75,2.78,11.74,4.92-5.67,2,9.77,5.31-4.38,3.39,8.77,4.94-4.81,2.25,7.92,6.55-.66,1-3.5-.21,5.38,5.26c-.18-2.3.18-5-.69-7.15-2.9-7.28-6.25-14.38-9.43-21.55a46.35,46.35,0,0,0,3.85,4.28,34.94,34.94,0,0,0,4.38,2.84l.53-1.05-10.7-11.26c1,2.47,1.55,3.92,2.12,5.37ZM114.44,248.34l-7.27-2,2.54-6.19c-.52-.17-.93-.45-1.11-.34-1.91,1.18-3.78,2.42-6.24,4l1.92-4.38-4,2c.23-1.67.4-2.91.58-4.16-2.9,5.1-1.89,7.23,6.14,12.14C109.48,250.9,112.67,252.08,114.44,248.34Zm53.86-61-1.69-2.19c-.91.89-1.83,1.76-2.71,2.68-.67.7-1.41,2.16-1.9,2.07-4.13-.72-4.24,2.79-5.82,5s-2.86,5.5-6.77,3.44l1.57-2.8-1-.66c-.65,1.12-2.06,3-1.84,3.22a26,26,0,0,0,4.54,3l-1.5,3.16c3-2.8,5-6.26,7.67-9.06S165.11,189.87,168.3,187.3Zm-75.51,56-1.52,0c.14,2.47-.21,5.11.59,7.33.48,1.31,2.79,2,4.27,2.91C97,251.76,97.8,250,98.7,248l-6.86.37C92.22,246.38,92.5,244.86,92.79,243.35Zm212,10.47,2.22-.24c-5.86-4.64-1.37-8.49-1-13.06L302,245c-.31-1.18-.58-2.18-.85-3.19l-1.23,1.11Zm.38,51.62,1,.41c.83-3.52,1.66-7,2.55-10.83l-3.57-.54ZM252.32,235q1.55,5.19,3,10l2.79-4.36C253.23,241.68,258.14,233.21,252.32,235Zm-4.74,111.16c-4.89,3.19,1.48,10.45-5.92,11.76C246.37,356.93,246.37,356.93,247.58,346.14Zm.49-10.37c-1.18,2.85-.47,4.39,4.11,7.3-.13-2.27-.26-4.4-.36-6.12C250.54,336.55,249.34,336.18,248.07,335.77Z"/><path class="cls-1" d="M343.81,191.56l3.71-2.73c0-.29-.25-1.81-.45-3.33l.8-.16c.51,1.8,1,3.6,1.73,6.16.29-2.15.48-3.59.8-6l2.53,7.86c.73-1.33,1.07-2,1.71-3.09.24,1.74.42,3.05.64,4.67l2.67-1.33c0,3,.16,5.8-.06,8.6a13.45,13.45,0,0,1-2.21,6.32c-.29-1.47-.57-2.94-.92-4.75-.76,1.38-1.4,2.55-2.05,3.71l-.54-.19c.57-2.71,1.15-5.41,1.72-8.12l-1.42-.41-3.32,11c-.63-4.74,3.08-10-.61-14l-2.2.36-1,9.08-1.06-.09c.25-2.42.51-4.83.76-7.24l-1.17-.33-1.2,3.5-10.09-2.86-.89.48,3.46,3.56c.57.59,1.13,1.18,1.69,1.78a8.31,8.31,0,0,1-2.58,0c-2.64-.8-5.23-1.78-7.88-2.7l1.35-2.67-.86-.86-6.71,5.4c-.05-.61-.14-1.85-.24-3.08l-.8-.19c-.55,1.68-1.1,3.37-1.91,5.81-.14-2.33-.23-3.91-.42-7.06-1.13,2.76-1.71,4.18-2.5,6.09l-1.89-4.36-2.85,3c-.33-1.77-.54-2.94-.76-4.13l-7.3,1,6.4-7.87,5.72,2.29,3.08-5.18-1.11,6,.78.24,3.54-6.54c-.37,2.86-.58,4.44-.78,6l.76.25,2.79-6.39c.23,1.49.4,2.59.76,4.83l2.05-6.08,1.29,2.15,2.92-6.49c.22,1.7.34,2.66.45,3.54l3.28-1.49.79,1,2-3.56.52.16c-.21,1-.42,2-.66,3.06l7.36-2.13C343.51,186.63,343.67,189.13,343.81,191.56Z"/><path class="cls-1" d="M86.82,260.62l3.26.1-1.69,3.49L97,268.64l-8.06,5.53-.62-.85,4-3.72-11,1.78,1.79-2.05c-1-1.19-2.57-2.28-2.58-3.39s1.21-2.74,2.3-3.64S85.46,261.16,86.82,260.62Z"/><path class="cls-1" d="M284.51,205.55c.95,2.56,1.93,5.23,2.91,7.9l-1.08.48c-1.41-3.21-2.83-6.43-4.23-9.6l11-7.26,4,6.76-.6.47-3.84-4.16-.59.41c1,2.45,2,4.91,3,7.36l-.72.33-4-6.72-.95.39c.19,1,.39,1.92.57,2.86Z"/><path class="cls-1" d="M57.09,264.79c0,4.68-.48,8,.15,11.12.51,2.45.78,3.68-2.17,3.82-2.53.11-4.89-.66-3.94-3.42C52.4,272.62,54.7,269.28,57.09,264.79Z"/><path class="cls-1" d="M83,276.72c-3.13,2.06-7.19.16-8.83-4.18l-3.8,2.37c1-2,1.28-3.73,2.18-4.17,1.56-.76,4.2-1.59,5.15-.84C79.83,271.55,81.15,274.17,83,276.72Z"/><path class="cls-1" d="M170.93,281.62c-1.48-.21-2.5.13-1.61-2.47,1.86-5.5.72-7-4.5-8.88.16-3.44.31-6.77.47-10.54,3.48.48,1.5,4.35,2.53,6.49.88,1.8,1.66,3.64,2.48,5.46l2.34-.31-1.84,10.38Z"/><path class="cls-1" d="M179.11,293.93c2.89,4.39,2.47,8.71,2.63,13.28H186c.81,3.46,1.56,6.7,2.28,9.78l-9.14-11.44Z"/><path class="cls-1" d="M65.69,260.4l4-3.36c1.25,2.32,2.56,4.74,3.88,7.16h0l-1.18.62c2.32,3.05,1.69,3.92-2,2.93-.74-.19-1.74.62-3.39,1.28.26-2.61.55-4.75.6-6.89,0-.43-.92-.87-1.42-1.31Z"/><path class="cls-1" d="M62.84,273.58c.23.95.46,1.89.72,2.93H59.65c-2.57-2.38-1-10.3,3.46-15.17-1.76,4.68-4.32,8.71-.1,12.42Z"/><path class="cls-1" d="M142.51,213.05l6.86.64c-.62,2.52-1.12,4.53-1.62,6.55l-1.55.24q-1.77-3.78-3.55-7.54Z"/><path class="cls-1" d="M63,273.76c0-4.63-.93-9.45,2.68-13.36l.44.42c-1.39,4.07-1.87,8,2.75,11.49l-6,1.27Z"/><path class="cls-1" d="M133.46,206.25h-5.71l-3,2.53-1.12-1c1.69-2,3.37-3.91,5-5.86q2.34,2.2,4.69,4.4Z"/><path class="cls-1" d="M170.8,281.75l5.44,1.21c-.52,3.32-1.05,6.67-1.74,11.11-1.5-5.23-2.53-8.84-3.56-12.45Z"/><path class="cls-1" d="M161.52,259.42l-5.94-1.88c5.91-1.65,4.85-5,3.68-8.65C162.62,251.89,162,255.64,161.52,259.42Z"/><path class="cls-1" d="M337.24,276l1.93,0,.89,9.27h-1.54q.25-2.83.5-5.68l-.84-.21a35.59,35.59,0,0,0-1.19,4.11c-.23,1.37-.17,2.79-1.26,4.1Q336.48,281.83,337.24,276Z"/><path class="cls-1" d="M358.74,211.82c.51-5.58,1-11.16,1.45-15.95v16Z"/><path class="cls-1" d="M334.35,269.48v14.8l-.47.11q-.56-7.44-1.12-14.87Z"/><path d="M242,224.72l3,1.9-.18-.19c3.18,7.18,6.53,14.28,9.43,21.56.87,2.18.51,4.85.69,7.15l-5.38-5.26,3.5.21.66-1-7.92-6.55,4.81-2.25-8.77-4.94,4.38-3.39-9.77-5.31,5.67-2Z"/><path d="M134.52,224.24a59,59,0,0,0-6,2.67c-2.25,1.31-5.28,2.78-1.06,6.32l-5.84-.5c-2.63,2.14-6.14,5-9.52,7.79l-1.57-10.17.63-.26c.81,1.69,1.61,3.38,2.43,5.11l5.89-2.56c-.59-2.15-1.15-4.23-1.54-5.67,2,.21,4.4,1.13,5.14.39,1.8-1.79,2.83-4.35,4.23-6.7l1.09,3.34c2.13-2,4.18-2.35,6.1.26Z"/><path d="M114.44,248.34c-1.77,3.74-5,2.56-7.46,1-8-4.91-9-7-6.14-12.14-.18,1.25-.35,2.49-.58,4.16l4-2-1.92,4.38c2.46-1.6,4.33-2.84,6.24-4,.18-.11.59.17,1.11.34l-2.54,6.19Z"/><path d="M168.3,187.3c-3.19,2.57-6.67,4.86-9.49,7.79s-4.69,6.26-7.67,9.06l1.5-3.16a26,26,0,0,1-4.54-3c-.22-.21,1.19-2.1,1.84-3.22l1,.66-1.57,2.8c3.91,2.06,5.23-1.32,6.77-3.44s1.69-5.68,5.82-5c.49.09,1.23-1.37,1.9-2.07.88-.92,1.8-1.79,2.71-2.68Z"/><path d="M244.46,211.2l14.38,23.5c-5.59-6.23-12.55-11.47-14.48-20.2a13.14,13.14,0,0,1,.12-3.3Z"/><path d="M92.79,243.35c-.29,1.51-.57,3-1,5.06L98.7,248c-.9,1.94-1.74,3.72-2.57,5.51-1.48-1-3.79-1.6-4.27-2.91-.8-2.22-.45-4.86-.59-7.33Z"/><path d="M326,245.75c-.83,2.51-1.65,5-2.37,7.21-2.85-3.91-2.76-6.47.78-12.45l1.74,5.4Z"/><path d="M304.79,253.82l-4.92-10.88,1.23-1.11c.27,1,.54,2,.85,3.19l4.09-4.5c-.4,4.57-4.89,8.42,1,13.06Z"/><path d="M244.94,226.62c-.57-1.45-1.14-2.9-2.12-5.37l10.7,11.26-.53,1.05a34.94,34.94,0,0,1-4.38-2.84,46.35,46.35,0,0,1-3.85-4.28Z"/><path d="M166.49,247.27c-2.26-5.89-1.06-7.61,6-9.19l-6,9.21Z"/><path d="M305.17,305.44v-11l3.57.54c-.89,3.79-1.72,7.31-2.55,10.83Z"/><path d="M252.32,235c5.82-1.77.91,6.7,5.74,5.61L255.27,245Q253.86,240.17,252.32,235Z"/><path d="M247.58,346.14c-1.21,10.79-1.21,10.79-5.92,11.76C249.06,356.59,242.69,349.33,247.58,346.14Z"/><path d="M248.07,335.77c1.27.41,2.47.78,3.75,1.18.1,1.72.23,3.85.36,6.12C247.6,340.16,246.89,338.62,248.07,335.77Z"/></svg>