<svg id="Layer_1" data-name="Layer 1" xmlns="http://www.w3.org/2000/svg" viewBox="0 0 300 300"><defs><style>.cls-1{fill:#fff;}</style></defs><title>Artboard 1_1</title><path d="M148.79,196.29l-1.12-.14-.11.24.86.42,2,3.23.06-.08,1,1-.26.35-7.53-4.74c0,.7,0,.7,3,3.18l-.15.27-4.74-3.21.54-.15-1.05-.9.13,1c-1.06-.91-2-1.67-2.88-2.46A16.51,16.51,0,0,0,137,192.8c-.41-.28-1.13-.16-1.49-.48s-.12-1-.36-1.35a20.14,20.14,0,0,0-1.52-1.93l-.46.42,1.22,1.41-.73.69-2.76-3-.38.35c1.86,2.14,3.72,4.27,5.57,6.41l-.1.14a2.74,2.74,0,0,1-.64-.39c-3.34-3.68-6.76-7.31-10-11.1-1.8-2.13-3.27-4.54-4.88-6.83a3.17,3.17,0,0,0-2.56-1.62l9.17,12.68-.32.28-1.59-1.84c.08.81.14,1.47.2,2.13l-4.13-7.3-.2.09,1.21,4.45.33-.09v-1a6.39,6.39,0,0,1,.77,1.8,9.17,9.17,0,0,0,.86,1.68,14.61,14.61,0,0,0,1.16,1.44l.19-.12-.23-1c1.2-.27,1.08,1,1.28,1.43.51,1.12,1.32,1.36,2.5,1.53l-1.32.59.1.74-1.37-1.3-.29.21.52,1-.17.12c-1.45-1.9-3-3.72-4.32-5.72s-2.43-4.26-3.63-6.39l-.39,0a8.86,8.86,0,0,0-.29,2.94c.22.88,1.06,1.61,1.51,2.66-.77-.19-1.56-.34-2.32-.58a.83.83,0,0,1-.44-.62c0-1.61-1.23-2.45-2-3.69-1,3.24-.47,6.31.12,9.4.24,1.29.34,2.62.5,3.93l-.4.07c-.15-.78-.29-1.56-.46-2.34-.79-3.69-1.58-7.38-2.41-11.07-.25-1.13-.61-2.24-1-3.34-.17-.52-.17-1.36-1.17-1a1.21,1.21,0,0,1-.38-.64c0-.28.08-.58-.09-.93-.23.57-.43,1.17-.7,1.72s-.67,1-.94,1.56a2.47,2.47,0,0,0-.29,1.06c0,2.47,0,4.94-.14,7.42l-2.61-18.35.17-.07.76,1.56.37-.09a14,14,0,0,0-.25-2.06,7.9,7.9,0,0,0-1.09-2.94c-.74-.87-.54-1.69-.7-2.6-.29-1.58-.59-3.36-2.3-4.36-.49-.29-.67-1.12-1-1.71-.43-.79-.9-1.57-1.29-2.39a13.57,13.57,0,0,1-.92-2.36c-.48-1.86-.89-3.73-1.27-5.61a2.51,2.51,0,0,1,.35-1.4c1.77,4.1,2.62,8.55,4.47,12.6l.4-.15q-2-7.37-4-14.73l.36-.12,2.33,7.09.31-.08-2.11-9.09.39-.12,1.39,4.32.23,0-2-11.53.6-.12c.19.88.37,1.76.55,2.64a34.66,34.66,0,0,0,.78,3.67c.13.4.92.54,1.23.94,1.13,1.43,2.25,2.86,3.25,4.38,1.53,2.34,2.94,4.75,4.43,7.12.56.89,1.19,1.76,1.59,2.36l.71-1.77-2.43-2.65.18-.18c.23.12.55.18.67.36,1.27,2.09,3.46,2.13,5.51,2.66,4,1,8,.52,12,.65,1.47,0,2.94-.11,4.41-.2a1.6,1.6,0,0,0,.94-.38,34.09,34.09,0,0,0-4.64-.79,42.54,42.54,0,0,0-4.59.48,17.92,17.92,0,0,1-10.14-1.76,10,10,0,0,1-2.8-2.52l.57.27a1.66,1.66,0,0,1,.54.23,10.44,10.44,0,0,0,5.63,2.68,18.22,18.22,0,0,0,8,0,34.84,34.84,0,0,0-5.22-1.59c-1.46-.32-3-.43-4.43-.65l-4.47-.68a6.74,6.74,0,0,0-.66-1.41,6,6,0,0,0-1.36-1.31,5.49,5.49,0,0,0-1.37-.53c-.35-.12-.72-.2-1.08-.3l0-.3,1.08-.21c-.88-2-2.78-2.76-4.42-3.85a16.58,16.58,0,0,1-1.81-1.56l.28-.35,2.47,1.84.17-.18-5.17-7.9,2-.12.27-4.88-.28-.06-.77,3.62-.28.06a5.26,5.26,0,0,1-.29-.93,12.17,12.17,0,0,1-.2-2.47c.09-1.19-.58-1.57-1.52-1.92a15.32,15.32,0,0,1-2.2-1.22l.17-.32,3.14,1.53-.49-2.49-.29,0-.11,1c-1.13.2-1.66-.5-2.11-1.3s-.62-1.71-1.91-1.38a2.79,2.79,0,0,0,0-3.06,2.18,2.18,0,0,1-.33-.88c-.08-.44-.07-.9-.15-1.35s-.18-.84-.3-1.36c-.57.47-1.06.81-.51,1.63a1.1,1.1,0,0,1-.38,1,11.94,11.94,0,0,1-2.14.16c.7-1.46,0-2.62-.86-3.86-1.32-1.88-2.88-3.63-3.54-5.94-.17-.59-.92-1-1.51-1.6-.71,1.29-.89,2.86-2.74,2.73,1.74-1.29,1.17-3.13,1.19-4.78,0-.57-.56-1.15-.95-1.89-.58,1.26-.79,2.56-2.31,2.65a1.54,1.54,0,0,0,2.52.36c0,.27,0,.49,0,.7s0,.39,0,.61l-1.82-.13-.11.24.93.74-.27.1a13.92,13.92,0,0,0,.66,2.19c1.28,2.58,2.63,5.11,3.94,7.66.1.19,0,.46-.15.8-.55-.82-1-1.69-1.65-2.45-1.38-1.68-1.58-3.9-2.68-5.71-.41-.67-.72-1.4-1.11-2.08-1-1.68-2.08-3.31-2.93-5a11.34,11.34,0,0,1-.55-2.85c-.07-.33-.17-.66-.25-1,.51.19,1.06.25,1.33.55a2,2,0,0,1,.34,1.28c0,.92.13,1.48,1.3,1.14s.8.59.94,1.11l-1.31.37,0,.37,1,.43,1.33-3.23c-.71-.78-1.53-1.64-2.31-2.54-.38-.44-.7-1-1-1.44l-.38.18-.13,1.49-1.22-1.46A6.33,6.33,0,0,1,79,96.35a1.48,1.48,0,0,1,1.3.38c1,1.27,1.9,2.61,2.77,4,1,1.55,1.93,3.15,2.91,4.71.32.49.77.91,1.08,1.41,1.33,2.19,2.64,4.41,4,6.77l1.67-8.3-2,2.38a3.26,3.26,0,0,1,2.65-3c-.14,1.2-.25,2.36-.4,3.51-.07.54.92,2,1.42,1.93.25,0,.54-.41.64-.69.66-1.7,1.24-3.44,1.92-5.15a6,6,0,0,1,1.23-1.82c-.39,2.11-2,3.92-1.27,6.12l4-6.36.44.25-2.5,4,1.7-.64-4.88,6.06.33.34c.78-.61,1.58-1.19,2.33-1.83a23.94,23.94,0,0,1,2.84-2.52,8.5,8.5,0,0,0,2.67-2.93c.85-1.32,1.79-2.58,2.73-3.84.15-.19.55-.2,1.1-.4l-3.3,4.57a4.87,4.87,0,0,0,3.19-2.08c1.76-2.57,3.81-4.93,5.79-7.34a10.89,10.89,0,0,1,1.5-1.28l.23.23c-.85,1-1.74,1.92-2.55,2.93-1.23,1.56-2.45,3.13-3.58,4.75-.85,1.21-1.52,2.55-2.35,3.78-.19.28-.66.38-1.06.58a6,6,0,0,0,4.06-1.82q1.49-1.74,3-3.44a1.89,1.89,0,0,1,.85-.42c-.69,1.26-2,2.19-2.48,3.85l-3.12,3.29c2.89.21,4-1.67,5.25-3.35a5.24,5.24,0,0,1-1.81,3.09,4.05,4.05,0,0,1-2.81,1,11.53,11.53,0,0,0-2.77.85l1.84-2.65c-2.31.14-5.69,2.5-5.26,5.88l10.47-2.91.06.13-1.14.59a20.53,20.53,0,0,0,10.27-4.1c-1.37,2-5.23,4.45-7,4.42l.87-.58-.06-.12c-2,.51-3.94,1-5.93,1.54s-4.06.68-5.77,2.32v-1c-.64.49-2-.3-1.9,1.5.8-1.18,1.62,0,2.5-.27,2.22-.65,4.5-1.13,6.76-1.66a.84.84,0,0,1,.79.27l-4.42,1.11,0,.36c1.27-.22,2.54-.47,3.83-.66s2.73-.32,4.1-.5,2.64-.53,4-.59,2.44-1.18,4-.43l-2.43.56,0,.35,1,.22-.41.51.86.25c-.52.21-1,.59-1.36.52-1.76-.35-2.71,1-4,1.73-1,.62-2.08,1.18-3.12,1.76l-.19-.26,3.34-2.4c-3.27.25-6,1.65-9,4.48,5.33-1,10.67-1.93,16-3a2.2,2.2,0,0,1,1,.08,23.83,23.83,0,0,0,2.79-.15c.37,0,.74,0,1.32,0l-2.14,1.44c-.27-.28-.57-.79-.76-.76-2.43.41-4.87.81-7.26,1.4-2.23.56-4.41,1.34-6.61,2a7,7,0,0,0-1.08.68l5.93.32,0,.35c-.75,0-1.5.06-2.25,0-2.41-.23-4.79-.44-7.11.55a3,3,0,0,0-2,3.51c1.61-.19,3.25-.22,4.66-1.37,3.32-.12,6.5-1.45,9.79-2.34l0-.34h-2.74v-.34c2-.52,4.35,1.21,6.1-.83l.29,1.27-18.07,4.79c.31,1.76.48,1.77,2.66,1.92a48.44,48.44,0,0,1,6.37.81c2.86.57,5.15,2.35,7.51,3.93a2.16,2.16,0,0,0,.93.49c3.14.28,6.19.15,8.81-2a11.88,11.88,0,0,1,1.59-.94l.15.25-3.19,2.19.64.58,0,.13-1.55-.61.72,1.11c-2.45.62-5,1.28-7.48,1.87a2.72,2.72,0,0,1-1.56-.18c-2.1-.88-4.23-.16-6.34-.16a2.25,2.25,0,0,0-1.37.55c1.84.67,3.71,1.28,5.53,2,2.8,1.12,5.61.26,8.38,0a76.75,76.75,0,0,0,9-1.49,35.84,35.84,0,0,0,5.38-1.73,22.07,22.07,0,0,0,2.84-1.59l.2.35-5.43,3.35.26.51,11.68-4.74c-3.08,2.56-6.92,3.65-10.54,5.18l0,.32a26.08,26.08,0,0,0,3.77-.49c2.27-.61,4.5-1.34,6.72-2.13a4,4,0,0,0,2.33-4.08c0-.32.45-.69.69-1l.27.17.19,2.6,2.63-2,.16.22c-1.44,1.34-2.91,2.65-4.31,4a2.77,2.77,0,0,0-.64,1.38,15.56,15.56,0,0,0,6.39-4.76,6.59,6.59,0,0,1,0,1.6c-.07.24-.46.38-.7.58s-.44.42-.66.63c.27.06.59.23.81.15,1.41-.52,3.05-.69,3.87-2.27l-.16,1.43-.19-.18-4.17,5.27.18.23,2.89-1.51c-1.48,1.9-4.24,2.18-5.45,4.76l5-2.91a3.74,3.74,0,0,1,.58-.33c.09,0,.29.09.33.05,1.71-1.9,3.39-3.81,5.09-5.71a4.25,4.25,0,0,1,.53-.42l.29.2-1.2,1.88.2.23,3-2.78.18.06c-.59,1.07-1.16,2.16-1.77,3.22a21.08,21.08,0,0,0-1.74,3.34l4.94-3.78c0,.14.08.49-.05.6-1.75,1.54-3.54,3-5.32,4.57a2.37,2.37,0,0,0-.59.82c3.87-.91,6.3-3.75,8.73-6.59l.27.23-1.53,2.3.11.25a30.61,30.61,0,0,0,3-1.62c1-.68,1.85-1.54,2.78-2.3.4-.33.68-.7,1.41-.35.43.21,1.32-.23,1.85-.61,1-.71,1.84-1.6,2.77-2.39a1.26,1.26,0,0,1,.94-.28l-.89.81.62.43c-1,.75-2,1.5-2.94,2.29-.33.26-.54.7-.89.91s-.61,0-.88-.13c-2.15.47-2.43,2.7-3.69,4.1-.78.88-1.41,1.9-2.11,2.85l-4.32,5.8.27.24,5.84-5.66.22.22-2.32,2.77c.88-.5,2-.46,2.48-1.8a6.64,6.64,0,0,1,2.65-2.74,9.56,9.56,0,0,0,3.93-5.58,2.52,2.52,0,0,1,.74-1.15,27.4,27.4,0,0,0,3.73-3.08c.56-.69,1.29-1.18,1.77-1.88a4.11,4.11,0,0,0,.33-1.45c.08-.35.18-.7.26-1l.34.08-.27,2.31c1.38-.86,2.57-1.58,3.74-2.36q3.67-2.46,7.33-5c1-.69,1.95-1.47,2.91-2.22.22-.17.39-.46.63-.54a2.1,2.1,0,0,0,1.55-1.85c0-.23.27-.42.61-.93a10.37,10.37,0,0,0,0,1.19c0,.27.07.63.24.78,1,.81,1,1.31.29,2.41a20.3,20.3,0,0,0-1.92,3.81c1.84-.8,3.23-1.77,3.58-4,.43-2.66,1.32-5.24,2-7.86.14-.55.25-1.1.4-1.78l-2.09,1.86a4.78,4.78,0,0,1,5-3.34c.32,0,.68-.26,1.3-.52-.35,3-.69,5.85-1,8.86a2.69,2.69,0,0,0,1.84-2.38c.22-.95.18-2,.34-2.94a2.75,2.75,0,0,1,.63-1.09c.26-.34.64-.57.89-.91a6.37,6.37,0,0,1,4.51-2.74c.36,0,.69-.36,1-.51,1.85.5,2.85,1.92,3.77,3.44a3,3,0,0,0-.34,1,11.89,11.89,0,0,1-1.32,6.44c0,.06,0,.16,0,.32l.47.19c-1.5,2.91-1.54,6.26-2.54,9.31s-1.61,6.18-2.39,9.28a46.29,46.29,0,0,0,3.42-6.11,26.71,26.71,0,0,0,1.08-3.7,42.7,42.7,0,0,0,1.31-4.5,47.59,47.59,0,0,0,.78-6.51c.07-1.88,1.18-3.91-.55-5.63,0,0,0-.08,0-.12l1,.61c-.1-1,.45-2.1-1.14-2.4,1.34-.47,1.86-.26,1.84.83,0,2.57-.19,5.12-.31,7.68,0,.23-.09.46-.08.69,0,.08.15.15.24.23.82-2.46,1.63-4.9,2.44-7.35l.39.09c-.09.54-.16,1.08-.26,1.61-.26,1.34-.53,2.67-.81,4,0,.06-.19.08-.29.12-.24,1-.47,2.1-.76,3.38,1.36-1,.81-2.27.76-3.38.64.39,1.08.81.88,1.71-.45,2-.67,4.12-1.19,6.14-.76,3-1.69,5.86-2.42,8.89.87-1.46,1.73-2.92,2.6-4.37l.3.18-4.4,8.27a3.39,3.39,0,0,0,.67-.35,15.41,15.41,0,0,0,4-6.53c.83-2.91,1.94-5.75,2.93-8.62,0-.09.18-.14.54-.42-.5,1.89-1,3.49-1.35,5.12a37.43,37.43,0,0,1-.91,4.13,43,43,0,0,1-2.13,4.37,3.16,3.16,0,0,0-.08.68c1.07-1,2-1.83,2.79-2.69a16.09,16.09,0,0,1,2.36-2.5c1.4-.91,1.57-2,1.38-3.52.09.18.18.37.26.56.24.51-.16,1.6,1.11,1.2.1,0,.31.11.39.23a8.2,8.2,0,0,1,1.49,2.31,8.87,8.87,0,0,1-.08,2.9c-.22,2.44-.49,4.88-.77,7.61a4.76,4.76,0,0,1-.34-1.31c.23-2.58.51-5.16.75-7.74a2.55,2.55,0,0,0-.17-1.16,4.86,4.86,0,0,0-.76-1c-.3.26-.7.47-.88.81-.81,1.54-1.93,3-.9,5l1-.67a18.32,18.32,0,0,1-4.58,8.5l.92-.06a1,1,0,0,1-.2.29c-.88.7-1.78,1.39-2.66,2.11a2.31,2.31,0,0,1-1.87.77c-.53-.06-1.15.61-1.72,1-3,1.85-5.91,4-9.12,5.47a29.47,29.47,0,0,0-7.41,4.64,13,13,0,0,0-1.28,1.63c-1.58,1.85-3.17,3.69-4.83,5.62.81.22,1.67.42,2.51.69a42.29,42.29,0,0,1,4.14,1.46,3.38,3.38,0,0,0,3.32-.41l-.63-1.47-6.37-1.39c-.14,0-.25-.16-.35-.52l5.61.59.06-.18-2.47-.61,6.75-1.3,0-.29h-8.06c.43-.22.65-.43.89-.44,2.54-.1,5.08-.2,7.62-.24,2.34,0,4.69,0,7.27,0-2.4.82-5-.06-7,1.62,8.35,0,16.67-.76,25-1.26l.06.35c-.93.15-1.86.36-2.79.44-3.54.34-7.1.6-10.64,1-2.3.24-4.59.64-6.88,1a.89.89,0,0,1-.46-.05c-2.53-1.06-5.21-.54-7.81-.88,5.14,2.07,10.55,1.56,15.9,1.62v.3l-4.84.4,0,.23,5.09.71-.05.38c-.21,0-.42,0-.63,0-3.72-.46-7.44-.93-11.17-1.37a2,2,0,0,0-.88.22c-.83.32-1.64.67-2.46,1l1.49-1-.15-.22h-1.76l.43,1.24c.59.71.59,2.14,2.19,1.73l-1.28-.66,16.86,2.09,0,.24c-2.06,0-4.24-.4-6.16.12s-3.33,2-5.19,3.15l2.63.8,0,.18-4.93-.67-.13.45,3.29,1.2-.15.42c-4.13-1.23-8.14-1.18-11.84,1.11,5.08.93,10.26,1.39,15.73-.37a5.23,5.23,0,0,1-3.19,1.24c-1.06.19-2.15.28-3.23.38s-2.26.2-3.55.3l1.68.63c-3.73.21-7.28-1.44-11.05-.74l3.85,1.6-.14.36c-1.22-.35-2.46-.68-3.68-1.06-1.05-.33-1.62-.05-1.84.83l-1.64.56v.36l2,.37c.29.85.3.86,3,.57l.15.3c-.25.13-.5.27-.76.39l-1,.43.1.39L207,184.5l.6-.24c-.94-.66-2.3-.32-3.31.85l2.4-.54.07.31-1.63.87,4.32,1.68-.11.31-3.3-1.21c-1-.35-1.9-.93-2.92-.16a7.52,7.52,0,0,0-.55.59l3.29,1.07c-.76.64-2.43,0-1.69,1.62l-4,1.37-.58,1.46,5,2.2-.08.18-7.75-2.39c-.47,1.76,1.61,1.13,1.54,2.46a6.84,6.84,0,0,0-5.87-.93l-.82,1.17H193l.06.19-3.89,1.87,2.69,1.39-.08.37c-2.32-1.57-4.77-1.21-7.23-.49v-.29l2.72-.76c-2.68-1.19-5-2.28-7.42-.26.09.05.23.22.37.22,1.43.07,2.42,1,3.59,1.64a6.79,6.79,0,0,0,1.77.44c1.65,1.16,3.48,1.36,5.29,2h-1.69l3,1.55-.15.32c-1.58-.65-3.15-1.34-4.75-1.93a24.6,24.6,0,0,0-3-.73c-.35-.08-.89.07-.58-.61a16.68,16.68,0,0,0-1.7-.27,3.49,3.49,0,0,0-.93.16,1.62,1.62,0,0,0-2.05-1.37c-1.23.39-2.34.68-3.35-.5-.13-.15-.72.14-1.11.14a11.42,11.42,0,0,1-1.3-.12,3.7,3.7,0,0,1,1.16-.33c1.06,0,1.21,0,1.41-.86-.93.11-1.84.28-2.75.31s-1.9-.11-2.85-.17a2,2,0,0,0,1.15.77c.62.14,1.27.18,1.9.27l-1.08.35c3.08,1.55,6.35,1.09,9.36,1.88-.51.46-1,.42-5-.1-1.7-.23-3.42-.31-5.18-.46,1.55,1.43,3.47,1.35,5.35,1.55l-1.37.32.44.46a1.45,1.45,0,0,1-.29.11c-.55-1-1.64-.6-2.42-.77a34.43,34.43,0,0,0-6.09-.52l7.58,3.69c-.47,0-.76.16-1,.07-2.44-1.08-4.88-2.17-7.3-3.31-1.24-.58-2.4-1.34-3.67-1.88a11.32,11.32,0,0,0-2.22-.39c-.82-.16-1.62-.43-2.44-.55s-1.88-.49-2.19.8c-2.07-.8-4.07-1.54-6.05-2.34a6.52,6.52,0,0,1-1.14-.77l6.8,2.4.7-2.12-4-.5,0-.25H156c-3-1.69-5.63-3.26-8.36-4.74-1.06-.58-2.34-.79-3.35-1.44a22.38,22.38,0,0,1-3.28-2.8,6,6,0,0,0-4.14-1.34c2.59,2.83,5.21,5.6,8,8.22A28.55,28.55,0,0,0,148.79,196.29Zm39-7.26.61-.5c-2-1.17-3.11-1.34-4.33-.44,1.28.26,2.34.47,3.39.7.13,0,.23.16.34.24-.66.62.06.59.35.68,1.62.48,3.26.94,4.89,1.38.13,0,.3-.13.65-.29-1.34-.59-2.44-1.19-3.62-1.57A10,10,0,0,0,187.75,189Zm-5.57,1.8c-.45-1,.64-.87,1-1.46-1.2-.08-2.26-.28-2.26,1.43h1.25c1.25,1.4,3.08,1.72,4.68,2.45a3.15,3.15,0,0,0,3.64-1.19L185,190.21a4.42,4.42,0,0,1-1.13.64A8.59,8.59,0,0,1,182.18,190.83Zm-12.73-37q1.41-2.15,2.83-4.29l-.33-.21c-1.16,1.78-3.37,2.81-3.82,5.33l1.35-.85c-.06.22,0,.55-.19.65a15.7,15.7,0,0,0-4.65,5.7c-.41.76-.9,1.47-1.45,2.37a4.52,4.52,0,0,0,3.05-1.72,3.36,3.36,0,0,1,.75-.41l-.12.91,4.32-2.19-9.16,9c4.3-1.69,8.19-3.31,10.34-7.49,1-2,2.39-3.83,3.55-5.78a7.25,7.25,0,0,0,1.21-5.42c-1.5,1.71-2.87,3.35-4.32,4.91-1.91,2.05-3.88,4-5.83,6.05.41-.57.77-1.17,1.22-1.71,2.7-3.2,5.43-6.38,8.11-9.6.45-.55,1.12-1.27-.19-2.06a63.12,63.12,0,0,0-3.88,5.42C171.53,153.74,170.42,153.51,169.45,153.87Zm-12.69-4.56.23.43,2.78-1.69-.23-.4-1.31.61c-.11-.1-.27-.32-.34-.29-1.88.68-4.11.48-5.41,1.93-.42-.14-.77-.37-1-.28-1.11.49-2.2,1-3.27,1.61-.45.24-.86.91-1.24.87-1.2-.13-1.37.74-1.71,1.22,2.32.63,3.72-1.39,5.74-2l-.57.82c1.73-.49,2.94-2.15,4.79-1.85l.68-.9.21,1.4A3.88,3.88,0,0,0,155,151c-1.49.84-2.94,1.75-4.39,2.63a6,6,0,0,1-1.52.91c-1.47.36-2.23,1.79-3.74,2.19a19.08,19.08,0,0,0-4.07,2.13,2.72,2.72,0,0,0-.53.54l-3.52,1.39.11.28c.55-.15,1.16-.54,1.62-.41,1.27.37,1.47-.47,1.76-1.29l.48,1.12c.84-.7,2.52-.31,2.77-1.76,1.14-.51,2.17-.94,3.17-1.44a19.36,19.36,0,0,0,2.83-1.55c.75-.54,2.11.43,2.48-1.14.09-.4,1-.55,1.48-.94,1.2-1,2.33-2.1,3.27-3l-.87-1.09Zm13,17.94.09,0a2.62,2.62,0,0,1-.52.53c-3.36,1.94-6.75,3.85-10.11,5.8-2.54,1.49-5.05,3-7.59,4.55l4.26,1-.5-1a6.79,6.79,0,0,1,.67-.19s.1.1.15.16A4.62,4.62,0,0,0,160,179.8c1.86-.12,3.75-.05,5.59-.31a6.72,6.72,0,0,0,2.86-1.25c2.53-1.82,5-3.74,7.41-5.67a9.83,9.83,0,0,0,3.53-4l-1-.1a6.05,6.05,0,0,0,1.67-1c1.19-1.4,2.28-2.9,3.38-4.37.19-.25.17-.75.38-.85a1.41,1.41,0,0,0,.78-2.07c.32-.19.83-.41.81-.5-.44-1.7,1.1-2.61,1.54-3.94l-.25,1.56c2.65-3.52,8.51-17.88,8.55-21-1.31,1.87-3,3.23-3.36,5.44a9.23,9.23,0,0,1-.89,2l.32-2.41L190,140.25c.64.09,1.08.27,1.18.16a5.39,5.39,0,0,0,1.32-3.75,24,24,0,0,0-2.68.73,1.81,1.81,0,0,0-.86,1,23,23,0,0,0-.73,2.45,44.1,44.1,0,0,1-1.41,5.25c-1.11,2.76-2.41,5.45-3.74,8.11-.7,1.4-1.68,2.66-2.45,4-.27.49-.17,1.21-.47,1.68-.94,1.42-2,2.77-3,4.15-.09.12-.28.32-.32.3-1.19-.61-1.26.62-1.74,1.09-.75.75-1.33,1.69-2.12,2.38-1.81,1.6-3.72,3.09-5.59,4.63l.16.3,9.36-3.56.14.38-19.89,8.17-.37-1.08a27.39,27.39,0,0,0,9.43-4.26c3.69-2.52,7.16-5.9,7.42-7l-1,.29c.28-.25.55-.53.85-.77a9.7,9.7,0,0,0,2.13-1.68c1.06-1.48,1.88-3.13,2.83-4.69,2.58-4.25,5.18-8.49,7.76-12.73a3.78,3.78,0,0,0,.2-.93l-.93.54-.26-.19c2.88-1.51,1.89-4.55,3-6.79a2.34,2.34,0,0,0-.63.79q-2.06,3.45-4.09,6.9c-.14.23-.44.62-.38.69.75.84-.23,1-.54,1.31a18.73,18.73,0,0,0-1.4,1.42c-.91,1.27-1.72,2.62-2.62,3.9-1.38,1.94-2.82,3.83-4.19,5.77-.56.78-1,1.64-1.51,2.46l.15.11,1.22-.71c-1.93,2.26-4.42,4-6,6.69ZM202,162a17.5,17.5,0,0,1,2.52-1.52,6.91,6.91,0,0,0,3.52-3.36c.49-.89.89-1.84,1.43-2.7,2.48-4,4.93-8,6.37-12.59,1.1-3.47,2.71-6.79,4.13-10.16.44-1,1-2,1.54-3l.42.21c-3.8,7.08-5.33,15.09-9.43,22.06a12.71,12.71,0,0,0,2.15-1.81,29.77,29.77,0,0,0,2.63-3c.52-.72.89-1.57,1.36-2.33a33.33,33.33,0,0,0,3.34-7.16c1.23-3.85,2.11-7.81,3.08-11.74.34-1.4.5-2.84.75-4.26l-.29-.06-.75,2.21-.25-1.39a11.84,11.84,0,0,0-2.09.92c-1.36,1-2.67,2-3.94,3.11-.23.19-.17.71-.24,1.09a1.86,1.86,0,0,0-.18.7c0,.31.17.65.08.91-.35,1-.75,2-1.18,3a6,6,0,0,1-.61.94l-.12-.12,1-3.55a2.75,2.75,0,0,0-1.11,1.2c-1.12,2.76-2.22,5.53-3.27,8.32a4.24,4.24,0,0,0,.08,1.42l-.67-.07c-1.33,3-2.62,5.89-3.92,8.8l-.39-.18c.41-.95.85-1.89,1.23-2.86,1.12-2.85,2.28-5.7,3.29-8.59s2.73-5.37,3.08-8.46.9-6,1.37-9.1c-1.12.77-2,1.53-1.67,3a.85.85,0,0,1,0,.47q-.93,2.91-1.88,5.82l-.57,1.82-.43-.11c.72-1.09-.25-2.22.56-3.54s.55-3,.78-4.48a10.23,10.23,0,0,0-2.49,1.47,1.37,1.37,0,0,0-.46.66c-.42,1.71-.74,3.45-1.23,5.15-.78,2.7-1.54,5.42-2.54,8.05-.94,2.48-2.26,4.82-3.28,7.27-1.2,2.85-2.1,5.82-3.41,8.61-1.75,3.72-3.76,7.33-5.68,11-.45.85-1,1.63-1.54,2.44l-.41-.26c1.46-2.7,2.95-5.39,4.37-8.12.93-1.77,1.83-3.57,2.62-5.4a38.18,38.18,0,0,0,1.48-4.25c.13-.42-.17-1,0-1.36,1.39-3,3-5.91,4.25-9,1.17-2.81,2.07-5.74,3-8.65.47-1.48.76-3,1.21-4.78-.77.51-1.24.79-1.67,1.13-.92.7-2.17,1.25-2.64,2.19-1.33,2.61-2.31,5.39-3.45,8.1a16.15,16.15,0,0,1-1,2,7.12,7.12,0,0,1-.74.82,7.17,7.17,0,0,0-.45.63l-.42-.22,4.16-10a3,3,0,0,0-2.5,2.37,38.2,38.2,0,0,1-1.17,4c-.87,2.4-1.78,4.78-2.78,7.12s-2,4.34-3,6.53c-1.43,3.19-2.35,6.63-4.5,9.48a12.88,12.88,0,0,0-.91,1.66c1.7.18,1.7.18,1.62.63-.73.11-1.52,0-2,.35s-.34,1.1-.5,1.75c-.45-.07-1-.06-.78.91.06.27-.22.66-.41,1-1.7,2.43-3.42,4.84-5.13,7.26a.58.58,0,0,0,0,.21l.86-.08-2.08,2s-.07,0-.11,0c-1.23.48-2.49.91-3.69,1.48a7.51,7.51,0,0,0-1.46,1.22,1.19,1.19,0,0,0,.88.18c2.41-.71,4.82-1.43,7.22-2.18a1.31,1.31,0,0,0,.75-.63c.48-1.25.87-2.53,1.33-3.79a1.54,1.54,0,0,1,.4-.49c1.29-1.38,2.92-2.57,3.8-4.17,1.86-3.41,3.4-7,4.93-10.59,1.07-2.53,1.88-5.17,2.84-7.75a6.55,6.55,0,0,1,.7-1.1l.29.17q-2,5.64-3.92,11.29c4.19-8.35,7.82-16.95,11.47-25.55a36.25,36.25,0,0,1-1.68,5.36c-1,2.47-2.11,4.89-3.19,7.32-.7,1.58-1.45,3.13-2.14,4.71-.43,1-.81,2-1.21,2.95-.67,1.63-1.2,3.33-2,4.88-1.28,2.39-2.75,4.68-4.22,7.15l1.46-.66c-2.44,3.69-6,6.24-8.15,10.17,3.62.21,4.48-2.88,6.7-4.74l-2.29.59-.08-.32c.2-.1.4-.21.6-.3a22.48,22.48,0,0,0,3-1.45c1.77-1.22,2.51-3.49,4.46-4.56a.49.49,0,0,0,.17-.15,58,58,0,0,0,6.83-12.73c.64-1.81,1.16-3.66,1.77-5.49.91-2.73,1.84-5.46,2.81-8.17.52-1.47,1.13-2.9,1.7-4.35l.34.14c-3.67,10.31-6.05,21.13-12.53,30.68.7-.19,1.16-.18,1.39-.4a12,12,0,0,0,2.32-2.58c1.56-2.86,2.95-5.83,4.42-8.75.2-.39.45-.76.68-1.14l.35.18C205.73,154.6,203.7,158,202,162Zm18.5-11.49-.29-.25,5.7-8.67-.27-.22-3.2,3.77-.53-.33c4.16-6,6.64-12.71,8.49-20a34.89,34.89,0,0,0-2.31,3.63c-1.25,2.64-1.74,5.52-3.61,8a33.89,33.89,0,0,0-5.17,10.21,13.23,13.23,0,0,1-3.9,6.37l1.26-2.45-.36-.16-2.77,5.92c2.82-1.12,3.69-3.94,5.73-5.7a32.31,32.31,0,0,1-1.64,3,5.06,5.06,0,0,0-.28,1.28l-.55.39a15.46,15.46,0,0,0,6.76-3.75c2-1.7,4-3.41,6-5.13a1.71,1.71,0,0,0,.34-.44c-.76-.74.2-1,.45-1.34a9.75,9.75,0,0,1,1.53-1.4c1.45-1.31,2.91-2.61,4.32-3.95a1.19,1.19,0,0,0,.3-1,6.86,6.86,0,0,1,.56-4.91,15.55,15.55,0,0,0,.59-1.66,8.29,8.29,0,0,0-2.21,1.73c-2.47,3.05-4.88,6.15-7.32,9.23-.76.95-1.36,1.29-2,1.17,1.06-1.35,2.62-2.33,3-4.15C225.51,142.64,223.47,146.92,220.51,150.47Zm-82.18,14.68c6.72.08,11.62-4.26,17.17-6.81,0-.11.05,0,0,.11-.57.62-1.15,1.21-1.72,1.81,6.66-3.73,12.3-8.5,16.1-15.68-2.49.68-3.07,3.1-5,4a8.31,8.31,0,0,1,1.08-1.7c.18-.24.52-.7.47-.75-.78-.8.15-1.07.47-1.43a10.73,10.73,0,0,1,1.46-1.22c-1.67.63-3.25,1.41-4.83,2.19a2.22,2.22,0,0,0-.29.17c.58,1.3-.67,1.15-1.21,1.6-1.7,1.44-3.36,2.92-5,4.39-.38.34-.72.72-1.08,1.08l.25.31,1.84-1.07.17.32C151.66,156.81,145.48,161.72,138.33,165.15Zm11.18-19.75a32.41,32.41,0,0,0,3.33-3,29.75,29.75,0,0,0,2.31-3.56,61.82,61.82,0,0,0-7.92,6.46,92,92,0,0,1-8.21,6l.17.43,3.89-.8.07.34c-1.49.47-3,.93-4.47,1.43s-3,1-4.5,1.58-2.58,1.36-4,1.75a29.2,29.2,0,0,1-4.32.64l-.11-.54a5.08,5.08,0,0,1,.81-.26,24.06,24.06,0,0,0,2.57-.33c1.33-.36,2.81-.41,3.89-1.48l-14.31.73c2.16.86,4,1.93,5.9,2.24s3.86-.17,5.8-.3v.13l-3.43.7v.35a6.07,6.07,0,0,0,2.23.1c3.82-1.35,7.67-2.66,11.37-4.29a18.68,18.68,0,0,0,7-4.67c1-1.2,2.08-2.38,3.13-3.56l-.22-.24Zm-31.63,22.88a9.25,9.25,0,0,0-2.63-4.76c-.48-.5-1.18-.89-1.42-1.48-1.16-2.8-3.24-5-4.76-7.57-1.42-2.41-2.57-5-3.84-7.48l.3-.2,3.13,5.26.32-.21c-2.2-3.76-4.22-7.63-7.45-10.73a39.86,39.86,0,0,0,1.19,5,8.37,8.37,0,0,0,1.07,1.94c.17.26.58.37.73.64,1.29,2.34,2.45,4.76,3.85,7,1.82,2.95,3.82,5.79,5.78,8.65a2.54,2.54,0,0,1,.08,3.06l-6.58-11.1c.36,1.38.84,2.71,1.29,4a17.26,17.26,0,0,0,1.74,3.22,56.1,56.1,0,0,1,2.65,6.27,3.32,3.32,0,0,0,.85,1,19.34,19.34,0,0,1,2.64,2.45c.77,1.1.62,1.21,1.71,1.23l-3.65-4.69,1-.31.86,1.5.28-1.19a15.92,15.92,0,0,1,2.17,3.07c1.28,2.26,1.26,2.27,2.58,2.36-1.49-2.41-3-4.83-4.45-7.23Zm-5-15c-.11.35-.29.61-.25.84a5.8,5.8,0,0,0,1.42,3.65q2.45,2.34,4.85,4.72a7.41,7.41,0,0,1,.71,1l-.53.45-3.13-3.88-.39.38a18.42,18.42,0,0,0,3.83,4.57c1.41,1.38,2.88,2.72,4.4,4s3,2.35,4.53,3.51l.28-.33L119.63,164l.27-.29,2.18,2,.32-.29-1-1.94c.51-.18,1-.54,1.42-.45,1.52.32,3,.81,4.51,1.18a5.81,5.81,0,0,0,1.32,0c-.27-1.2.79-.81,1.29-1.09s.74-.44,1.11-.66c-4.1,0-8-1.92-12.06-.47v-.34l3.55-.84-1.25-.79a5.53,5.53,0,0,0,4.43-.65,20.13,20.13,0,0,0-2.31-.18c-2-.19-4.28.6-5.89-1.45a5.51,5.51,0,0,0-1.63-1l.11-.39c2.09.6,4.11,1.92,6.56.92Zm111.39,20.08,0-.31-3-.15a6.77,6.77,0,0,1-4.09-1.29,3.36,3.36,0,0,0-1.26-.73c-1.28-.31-2.59-.52-3.68-.73a6.56,6.56,0,0,0-1.07-.45c-1.54-.31-3.08-.58-4.62-.89a5,5,0,0,0-4.64,1.28c-.92.88-.88,1.47.06,2.19-.72.42-1.93-.85-2.43.66l3,1.17c-1,0-1.77.11-2.17,1.19a4.15,4.15,0,0,1,1.09.29c.89.57,1.75,1.09,2.89.63.28-.11.69.08,1,.13l.68.08-.28-.59,2.36-.73a3.29,3.29,0,0,0-1.47.08,2.2,2.2,0,0,1-.62-.05l.23-.58-1.07-.57.07-.22,3.93.39v-.26l-5.38-1,0-.2,3.19-.94.12.42-1.12.27a1.38,1.38,0,0,0,1,.37,14.75,14.75,0,0,1,2.37-.19c2.35.27,4.68.65,7,1a7.91,7.91,0,0,1,2,.29C220.5,174.78,222.37,174.26,224.24,173.38Zm-73-33.15-.25-.3c-1.31.5-2.63,1-3.93,1.5-.24.1-.42.37-.64.58a8.16,8.16,0,0,0-1.41.34c-3.49,1.43-6.68,3.5-10.26,4.71a3.4,3.4,0,0,0-.34.12l-5,1.66-1.83.59c4.57,1.69,8.78.47,13-.91-2.6,2.15-5.9,2.11-8.86,3.19a31.52,31.52,0,0,0,5,.12c.43,0,.83-.53,1.24-.82,1.72-1.24,3.46-2.45,5.16-3.71s3.24-2.43,4.78-3.74C149.07,142.52,150.15,141.34,151.29,140.23Zm-31.68.39h-9.84v-.51h7.87c-2.81-1.74-5.55-3.35-8.91-3.07a4.83,4.83,0,0,1-1.55-.41l.1-.34H109l-1.88-1.64c-.33-.3-.61-.82-1-.88-1.35-.25-2.72-.34-4.08-.49,1.75,2.76,3.15,5.82,6.31,7.6l-.89.37.89.53c.78-1.35,1.29-.05,2.13,0l-.85.47c.63.28,1.14.53,1.67.75a.91.91,0,0,0,.44,0c0-1.06.63-.32.92-.29a24.54,24.54,0,0,0,3.36.56C118.42,143.27,119.19,142.65,119.61,140.62Zm33.27-2.8-.21-.14a60.26,60.26,0,0,1-6.77,1.78c-1.66.24-3.43,1.46-5.14,0-.07-.05-.3.06-.44.12l-4.25,1.78a5.7,5.7,0,0,1-.63.23l.32-.75c-2.22.42-4.33.86-6.46,1.22-3.06.51-6.14,1-9.2,1.46a3.86,3.86,0,0,0-1,.45l.08.54c2.23.2,4.45.52,6.68.59a18.29,18.29,0,0,0,6-1.27c2.2-.69,4.58-.82,6.85-1.3,1.81-.38,3.59-.92,5.38-1.42,2.54-.71,5.09-1.41,7.6-2.2C152.16,138.8,152.49,138.21,152.88,137.82ZM148.52,167l.22.29c.4-.21.78-.46,1.19-.63,1.08-.42,2.25-.15,3.4-.51a9.81,9.81,0,0,0,3.86-2.41c.89-.83,1.64-1.81,2.47-2.7a34.92,34.92,0,0,1,2.52-2.64c.85-.77,1.2-1.89,2.08-2.67a9.18,9.18,0,0,0,1.07-1c.85-1,1.55-2.2,2.36-3.28,1.05-1.4,2.19-2.74,3.22-4.15,1.44-2,2.83-4,4.23-6L177,138.7l-.25-.21c-.71.58-1.39,1.2-2.12,1.74a13.18,13.18,0,0,0-3.28,3.87,82.94,82.94,0,0,1-5.59,8.08c-1.85,2.33-4,4.42-6,6.62l.92.33a6.47,6.47,0,0,0-1.76.46c-.77.56-1.39,1.31-2.15,1.88-2,1.46-4,2.88-6,4.28A25.41,25.41,0,0,1,148.52,167ZM198.36,135l-.31-.12a12.23,12.23,0,0,0-1.43,2.52c-.91,3.19-1.4,6.51-3.34,9.35a21.4,21.4,0,0,0-1.71,3.46c-.84,1.94-1.16,4.13-2.82,5.67-1.33,1.23-1.18,3.22-2.43,4.59a42.56,42.56,0,0,0-3.39,4.93c-.59.87-1.2,1.72-1.8,2.58l.29.24,2.93-2.9c-1.51,2.9-4.51,4.5-5.74,7.59a36.78,36.78,0,0,0,4.93-4.81,31.51,31.51,0,0,0,2.75-4.54c.12-.21-.07-.6-.12-1a7.54,7.54,0,0,0,.57-.7c1-1.67,2.1-3.33,3.11-5a20.32,20.32,0,0,0,1.45-2.67c1.23-2.9,2.33-5.85,3.59-8.73C196.38,142,198.16,138.77,198.36,135Zm-38.1,30.62c-6.28,1.23-10.6,5.63-15.72,8.6a34.57,34.57,0,0,0,3.5-.91q2.61-.86,5.16-1.86a45,45,0,0,0,6.83-2.88,37.4,37.4,0,0,0,5.26-4.53c.64-.59,1.18-1.28,1.77-1.93l-.27-.26-5,3.64a.53.53,0,0,1,.1-.43,1.55,1.55,0,0,0,.07-.31c-1,.54-.91,2.17-2.51,2Zm-49-48.69c-2.36.32-4.93-.37-7.14,1-.09-.84-.84-.68-1.37-.5a1.33,1.33,0,0,0-.63,1c-.06.76.52.69,1.08.64a8.07,8.07,0,0,1,1.38.09v.22l-2.53.46c.18,1.67.33,3.25.55,4.83,0,.17.46.43.69.41.82,0,.9.41.84,1s-.09,1-.13,1.53l.44.15a27.77,27.77,0,0,0,1.2-2.6c.39-1,.28-2.42,1.93-2.45.1,0,.2-.13.41-.28l-1.11-.08-2.06-1.93,2.11.21c.1-1.48,1.24-2.46,2.06-2.29Zm79.35,71.92c1.55.4,3.1,1.22,4.53,1.05s2.84-1.3,4.47-2.12c-1.72-1.11-3.12-1.7-4.79-.75-.27.15-.78-.13-1.17-.22l.07-.39,2.41-.29c-3.21-1.91-5.29-2.19-7.35-1,.76.18,1.41.3,2,.5s1.2.48,1.8.73c-2.5-.28-4.84-1.32-7.45-.81a21,21,0,0,0,3.55,2c.68.31,1.35,1.18,2.22.3l.16.12ZM193.29,172c1.17.2,2,.27,2.87.5,1.1.31,1.72-.26,2.32-1a2.17,2.17,0,0,1,.54-.55c.47-.33,1-.61,1.45-.92a7.58,7.58,0,0,0,.88-.6c.56-.49,1.11-1,1.65-1.51.26-.25.48-.55.76-.87-1.86-.3-3,1.59-4.71,1.81a4.47,4.47,0,0,1,1.21-1A24,24,0,0,0,206,164c.75-.68,1.47-1.82,2.28-1.89,1.4-.13,1.63-1.23,2.32-1.91a10.56,10.56,0,0,0,1.24-1.86l-.45-.41c-2.19,1.77-4.38,3.55-6.58,5.31s-4.6,3.7-6.95,5.5C196.46,169.85,195,170.81,193.29,172Zm-33.85-14.22-9.76,6h1.7a.48.48,0,0,1-.37.49c-5.66.9-10.72,3.66-16.21,5.17a3.48,3.48,0,0,0,1.12.33c5.94.48,10.93-1.84,15.5-5.33.33-.26.56-.68.91-.87A26.89,26.89,0,0,0,159.44,157.76ZM147,176.28c1.39.31,2.41,1.74,3.88,1,2.93-1.49,5.85-3,8.62-4.8a58.28,58.28,0,0,0,5.25-4.21l-.22-.36Zm-4.86-2.07c-.09-.06-.19-.14-.31-.21-1.93-1-3.85-2-5.8-2.9a22,22,0,0,0-3.06-1.14c-1.3-.39-2.64-.67-4-1a8.63,8.63,0,0,0-1.2-.35.74.74,0,0,0-.6.33.64.64,0,0,0,.11.61c1.52,1.27,3.06,2.52,4.59,3.77l.19-.17-.5-1.08a5.43,5.43,0,0,1,2.4,1.23c1.17,1.22,2.76,1,4.12,1.59-1.5-1.48-1.5-1.48-1-2.07C138.35,174.48,139.74,175.93,142.09,174.21Zm.35-.88v.38a6.14,6.14,0,0,0,1.68-.2,27.41,27.41,0,0,0,3.42-1.73A15.83,15.83,0,0,0,149.7,170c.44-.38.78-.88,1.25-1.21.87-.6,1.79-1.11,2.69-1.65l-.17-.33c-.46.17-.92.34-1.39.49-3.07,1-6.13,2-9.21,2.9a9.52,9.52,0,0,1-2.64.47,26.33,26.33,0,0,1-3.17-.3,8.93,8.93,0,0,0,1.94,1.44c1.52.93,3,1.6,4.74.39a4.22,4.22,0,0,1,1.29-.37l.05.23ZM183.53,140a12.64,12.64,0,0,1,2.71-2.34,3.23,3.23,0,0,0,1.85-2.25,2.39,2.39,0,0,1,1.76-1.86l-.09,1.94a10.54,10.54,0,0,1,1-1.15,2.07,2.07,0,0,1,1-.58c1.29,0,1.8-.83,2.17-1.86.14-.38.29-.76.44-1.14l.24.09.1,1.17c1.92-.35,2.69-2.63,1.81-4.52a34.78,34.78,0,0,0-3.7,2.51c-1.09,1-2.72,1.48-3,3.22v-.64C185.73,135,184.31,136.63,183.53,140Zm-62.41,32.77c.72,1.13,1.18,2.43,2.09,3.12s2.16.58,3.27.83l.07-.29-1.38-1.49.27-.31,2.66,2.16c0-1-1.51-1.31-.77-2.7,1.15,2.9,3.38,3.68,6.28,4a12.81,12.81,0,0,0-5.53-4.15l-5.57-4.46-.33.42c1,.77,1.93,1.53,2.87,2.31a3.79,3.79,0,0,1,.66.78s-.27.39-.34.37a3.66,3.66,0,0,1-.89-.43c-.77-.53-1.54-1.09-2.3-1.64l-.2.28.38,1.24Zm-11.42-7.31-.31.16c.29,2.94,1.67,5.48,2.94,8,1.07-.4,1.32-.29,1.46.62a21.22,21.22,0,0,1,.46,3.62c0,1.28,1.54,1.71,1.36,3.12-.08.54.76,1.2,1.24,1.9l1.08-3.08Zm80.87,8.46.09-.33,3.32.76c-1.13-1.1-2.36-1.76-3.83-.88a30.57,30.57,0,0,1-8.34,3,20.82,20.82,0,0,0-3.49,1.56,30.72,30.72,0,0,0,14.48-3.2Zm-27.36,17.3,0,.34-3.05-.38c1.9,1.87,4.17,2.21,6.35,2.77a.74.74,0,0,1-.4.27l-.42.12c2.71,2.07,5.79,2.1,8.85,2.22-1.09-.84-2.24-1.48-3.59-1-.26-.5-.37-1-.7-1.29-.53-.42-1.22-.64-1.8-1a7.81,7.81,0,0,0-4-1.57,4.94,4.94,0,0,1-.67-.12l0-.21,1-.07,0-.4-3.48-.39-.05.32Zm-24-52.6-.19-.41-.67.13c-2.9.55-5.8,1.16-8.72,1.61-1.95.3-3.95.24-5.9.54-1.4.22-3.35-.29-3.59,2.12,2.49-.34,5-.61,7.52-1,3.08-.54,6.15-1.17,9.21-1.86A12.37,12.37,0,0,0,139.22,138.59Zm27.35.36-.37-.34-6.47,6.84-.2-.12,1-1.71a.33.33,0,0,0-.12-.06l-.22.08c-2,.81-3.41,2.7-5.89,2.91-1.32.11-2.52,1.54-3.78,2.38l.14.18L160.86,146c-.94-.87,0-1,.25-1.13A12.33,12.33,0,0,0,166.57,139ZM98.19,118.19c.9-.55,1.33-1.86,2.65-1.7.11,0,.37-.57.42-.89a7.89,7.89,0,0,0-.08-1.37L98,115l-.12-.27a5.8,5.8,0,0,1,.89-.53c.67-.25,1.38-.37,2-.66a1.37,1.37,0,0,0,.7-.83c.24-1,.35-2,.53-3.08-.8.44-1.59.87-2.36,1.31-1.59.89-2.1,2.54-2.83,4,0,.1.07.29.12.44.23.85,1,1.46,1,2.44C97.94,117.9,98.06,118,98.19,118.19ZM139.34,185a15.12,15.12,0,0,0-4.51-5.59c-1-.84-2.51-1-3.8-1.49l-.16.29c.63.82,1.25,1.65,1.91,2.44.5.6,1.27,1.05,1.56,1.72C135.3,184.62,137.2,184.82,139.34,185ZM186.19,139a8.62,8.62,0,0,0-4.65,3.67,43.23,43.23,0,0,1-3.22,5c-1.06,1.33-.25,2.63-.43,4,1.47-2.14,2.68-4.38,4-6.51S184.83,141,186.19,139Zm32.22-14.87c1.14-.64,2-1.09,2.86-1.6.34-.2.57-.64.92-.74,1.3-.37,1.54-1.29,1.45-2.45s-.14-2.11-.22-3.3c-.3.37-.76.73-.88,1.17-.28,1.08-.41,2.21-.6,3.32-1.2,0-.56-.76-.6-1.16a9.47,9.47,0,0,1,.1-1.73C218.86,118.78,219,120.06,218.41,124.11ZM108.26,163.82l.41,0c.1-.35.37-.77.28-1.06-.53-1.6-1.16-3.18-1.75-4.77a3.18,3.18,0,0,1-.36-.95,14.25,14.25,0,0,0-3.56-8q1.41,5.39,2.8,10.73l.33-.08.3-.8H107Zm16.87-3.08v.37a19.39,19.39,0,0,1,4.41.33c2.44.75,4.43-.09,6.61-1.24-.4-.23-.69-.52-1-.55-1.63-.12-3.28-.1-4.9-.28C128.35,159.16,126.78,160.05,125.13,160.74ZM172.76,184a4,4,0,0,0,4.18,1.45L174,183.92l.45-.16a5.1,5.1,0,0,0-4.63-1.54c-1.43.36-2.88.62-4.32.93-.53.12-1,.27-1.56.4l.06.49c2.42,0,4.84,0,7.26,0a5,5,0,0,1,1.22.41Zm-68.23-51.13a9,9,0,0,0,2.07.34c1.77-.12,3.53-.38,5-.56L103.29,129v3.14l1.45-.18Zm4.53-2.45-.14.52c.85.29,1.73.51,2.55.88,2.17,1,4.73.49,6.8,2.05.81.61,2.22.42,3.63.64a13.09,13.09,0,0,0-6.16-3.28C113.53,130.83,111.29,130.67,109.06,130.41Zm47.88,34.42c4.06-.36,7.36-3.19,7.86-6.75h-1Zm68.5-45.06h.41c2-3.35,2-9.16-.06-10.19l.72,1.48-1.07-.51ZM108.14,134c2.06,2.48,7.77,3.23,10.44,1.36Zm23,48.34.4-.39c-1.63-2.25-3.3-4.47-6.75-4.89.74,1.07,1.28,1.95,1.93,2.74s1.88,1.62,2.36,2.65a1.67,1.67,0,0,0,1.93,1.14c0-1-1-1.09-1.4-1.94-.75-1.86-1-1.76-.82-2.22Zm71.3,2.78c-4.46-2.56-3.78-3.06-7.85-1.67l5.33,2.34c.2,0,.27.36.46.42a2.8,2.8,0,0,0,2.86-.61l-1.27-.11Zm-60.25-42.27-.09-.28-12.47,3c1.72.33,3.59.92,5.17.47A52.76,52.76,0,0,0,142.22,142.88Zm58.69,22.49-.15-.25c-.52.31-1,.62-1.55.94-.87.54-1.72,1.51-2.6,1.53-1.22,0-1.92.74-2.81,1.22a12.44,12.44,0,0,0-2.14,1.46c-.84.7-1.59,1.51-2.37,2.27l.24.25A59.82,59.82,0,0,0,200.91,165.37Zm-60.86,14.86c2.5,2,4.39,4.69,8.06,3.28-1.34-.9-2.24-2.38-4-2.52-1.17-.09-2.45.29-3.41-.75C140.63,180.18,140.46,180.23,140.05,180.23Zm35,11.81a11.81,11.81,0,0,0-7.81-1.52c.15.19.26.47.47.58,1.25.7,2.52,1.38,3.81,2a1.5,1.5,0,0,0,1,0C173.38,192.79,174.16,192.43,175.09,192ZM196,177.73l0,.38c1.18.1,2.36.23,3.55.28a17.6,17.6,0,0,1,2.81,0c1.24.24,2.42.84,3.66,1.12a5.78,5.78,0,0,0,1.86-.21l-.06-.31c-2.23-.45-4.47-.88-6.69-1.35a2.83,2.83,0,0,1-1.12-.53C199.09,176.34,197.64,176.55,196,177.73Zm-52.59,16.41c-3-2.68-5.5-5.83-8.66-8.32C136.89,189.41,139.48,192.5,143.43,194.14ZM107.71,115a9,9,0,0,0-5.49,1.69,2.58,2.58,0,0,0,.65.21c1.72-.18,3.37-.8,5.18-.48a9.59,9.59,0,0,0,3.19-.22c1-.17,2-.52,3-.79l-.14-.64-7.55,1.11ZM112,144.88c1.87,3.17,5.36,2.41,8.11,3.41C117.64,146.52,115.08,145,112,144.88Zm99-22.68c2.9-1.09,3.63-4.46,1.64-7.08C212.08,117.5,211.55,119.77,211,122.2Zm-3.43,55.38c2.71,1.35,4.53-1,6.77-1.26a12.72,12.72,0,0,0-3.4-.8,19.84,19.84,0,0,0-3.23.36l0,.17,1.36.4v.35Zm-63.41,8.26c-.9-.73-1.8-1.46-2.69-2.2s-1.86-1.54-2.78-2.32l-2.39-2.12-.31.33a38.88,38.88,0,0,1,3.65,4.18C140.72,185.35,142.21,185.81,144.15,185.84Zm-14-18.13c-1.39-2.14-3.69-2.06-5.83-2.44l-.63.92c.38.12,1,.21,1,.35.11,1.28,1.45,1.05,2,1.31C127.66,168.26,129,167.8,130.12,167.71Zm73.61,20.19c-.74-.16-1.58-.64-2.19-.43a16.35,16.35,0,0,0-3,1.78c-.65.41-1.18,1.08-2.1.87-.16,0-.38.25-.73.51C199,191.15,201.15,189,203.73,187.9Zm-23.26,5.4a15.27,15.27,0,0,0,3.06,1.33,14.52,14.52,0,0,0,3.22-.08l.07-.67-5.95-1.75.13.43Zm-56.75-47.13,0-.32-4.78-.42c2.06,2.64,5,2.87,7.29.73l-3.67.56,0-.26Zm67.09,34.72c2.11.5,3.95,2.39,6.37,1.13l-.41-.72c-.69-.07-1.51.08-2-.25C193.2,179.86,192.54,179.73,190.81,180.89Zm-36.34-39.56c3.7-1.62,4.71-2.48,5.76-4.75a19.39,19.39,0,0,0-3.45,1.85A17.42,17.42,0,0,0,154.47,141.33Zm23.42,49.85c-.07-1.69-3-3.08-5.13-2l3.2.61,0,.27-1.11.41-.06.3,2.76,1c0-.15,0,0,0,.24l2.28-.4-.08-.53Zm-24.23-18.71-.11-.22c-1.61.45-3.22.91-4.84,1.35-.79.21-1.62.33-2.39.61-.27.11-.4.58-.59.89.34.1.73.36,1,.27,1.57-.51,3.13-1.06,4.65-1.67A25,25,0,0,0,153.66,172.47Zm-23.44,12a66.09,66.09,0,0,0,6.91,7.06,33.34,33.34,0,0,0-2-2.76c-.72-.93-1.4-1.9-2.14-2.82A3,3,0,0,0,130.22,184.44Zm19.5,6.26-.15.41,8.87,4.92a2.28,2.28,0,0,0-.93-1.17c-1.87-1.21-3.74-2.43-5.67-3.55A8.65,8.65,0,0,0,149.72,190.7Zm6.42-2.3c1.93,2.3,4.31,1.56,6.81,1.74C160.78,188.26,158.45,188.62,156.14,188.4Zm58.6-72.69-.16,3.45h.36v-6.28l-2.3-.14,1.41,3.45ZM101.72,126l.34-.09-.73-6.08-1.77.54Zm37.06,35.85c-3.07-.18-5.51,1.87-8.48,2.22C131.39,165,135.41,163.88,138.78,161.85Zm43.06,33.46c0-.06-.05-.16-.11-.18-.64-.28-1.27-.58-1.92-.82-1.28-.48-2,.06-2.05,1.55l.82-.22-.5.74C179.07,196.93,179.45,196.82,181.84,195.31Zm4.32-.48c-.41,1.47,1,1.59,1.46,1.84,1.45.72,2.47-.86,3.79-1.23Zm-28.6-53.61-.39-.47c-.81.57-1.66,1.1-2.43,1.72-1,.8-2,1.65-2.92,2.53-.2.2-.18.64-.27,1a3,3,0,0,0,1-.36,23.24,23.24,0,0,0,2-2,4.13,4.13,0,0,0,.48-.91l.07.21ZM149,189.61l-6.34-3.15a5.13,5.13,0,0,0,1.61,1.72c1,.62,2.06,1,3,1.74S148.48,190.37,149,189.61Zm-41.93-68a7.72,7.72,0,0,0,6.73-1.64l-1.14.16a18.79,18.79,0,0,1-3.32.39A2.89,2.89,0,0,0,107.09,121.63Zm96.1,62.3a2.34,2.34,0,0,0-3.51-1.07c2.57,1.95,4,2.16,5.3.8C204.07,183,204.07,183,203.19,183.93Zm-26.92,4.4c2.74,1.63,3.73,1.69,5.14.35C179.73,188.12,178.12,187.24,176.27,188.33Zm42.42-70.62c-1.74,1.12-1,3.05-1.43,4.6s-.65,3.4-1,5.1l.35.11a10.5,10.5,0,0,0,1-2.87C217.69,122.28,217.6,119.93,218.69,117.71Zm-23.05,61.84-.1.37c1,.21,2,.41,3,.64a3.07,3.07,0,0,1,1.15.39,1.88,1.88,0,0,0,2.54,0l-2.17-.1C200.05,179.65,197.23,178.83,195.64,179.55ZM133.1,147.16l0-.41a3.78,3.78,0,0,0-3.25.18c-1.06.6-2.07,1.3-3.1,2V149Zm26.71,46.62-.12.3c1.05.38,2.37.49,3.08,1.2,1,1,2,.71,3.15.92A8.48,8.48,0,0,0,159.81,193.78Zm13.71-16.48-5.4,2.48C170.28,180.44,173,179.22,173.52,177.3Zm-20.3,6.25c-1.46-2.29-3.08-1.64-4.7-.74.54,1.23,1.63.76,2.69.8l-.55-.6Zm-17.23-25,.08.36a11.71,11.71,0,0,0,7.11-2.49Zm23.73,34.34.12-.31-2.42-1,.36-.16-3.78-.66A8.23,8.23,0,0,0,159.72,192.91Zm46.86-72.6c-.31.23-.86.42-.89.67-.1,1-.95,1.13-1.58,1.58a6.38,6.38,0,0,0-1.2,1.61C206.17,122.86,207.18,121.69,206.58,120.31Zm25.52,26.24-.29-.43c-2.39.36-3.47,2.62-5.34,3.74l.22.32ZM197.6,130l.34.14,1-2.29.24.1-.11,1.1.45.13.92-2.23-2.8.64a7,7,0,0,0-.17,1.13A9.28,9.28,0,0,0,197.6,130Zm-96.33-12c-.08-.07-.57-.67-.65-.62a23.61,23.61,0,0,0-2.11,1.62c.37.23.82.72,1.1.63C100.27,119.49,101.46,119.83,101.27,118.06ZM177.33,173l-.21-.26-4,3.31C174.59,176.6,175.87,175.56,177.33,173Zm-9.3-5.87-.29-.36-4.91,3.87.19.25C164.71,169.65,166.94,169.17,168,167.11Zm-25.47,12,.23-.45-4.93-2.23-.19.39C138.79,178.62,141,178.29,142.56,179.11Zm14.33,7.6c-1.51-1.28-3.22-1-5-1.17C153.31,187.31,155.08,186.74,156.89,186.71Zm9.14-2-.06.24,2.44.27v.24l-1,.22,0,.37,2.05.4.07-.3-.76-1h2.14v-.41Zm17-4.88-3.82.41C180.3,181.61,182,181.45,183,179.8ZM140.69,176H145A2.88,2.88,0,0,0,140.69,176Zm40-33.23-.24-.18-3.57,4.12.2.39c.32-.13.77-.16.94-.4C178.92,145.41,179.78,144.08,180.66,142.76Zm-51.46,4.06-.13-.44c-1.85-.25-3.24.89-4.8,1.54l.1.33Zm46.19,33.08c.69.51.69.51-.54,1.37h3.79l.08-.16-2-.77.46-.3-.06-.23Zm26-56.09-3.19,2.54C200.11,126.57,201.09,125.62,201.38,123.81ZM131.8,167.76l1.76-1.29-3.92-.39c.26.34.34.53.49.63C130.65,167.06,131.19,167.38,131.8,167.76ZM94.71,111.09l-1.65-.64.41,3C94.76,113,94.41,111.91,94.71,111.09Zm24.56,68.7.24-.19L116.65,175A7.26,7.26,0,0,0,119.27,179.79ZM209.94,158l.3.31c2.27-.91,3.18-1.88,3-3.14Zm-39.1,42.79.15-.58-4.62-1.16-.14.53Zm65.06-59.16-3.8,3.29.24.23A6.87,6.87,0,0,0,235.9,141.65Zm-14.33-31.08a2.81,2.81,0,0,0-1.57,3.81C220.53,113.08,221.05,111.82,221.57,110.57Zm-55.44,86.58c1.71,1,3.85,1.51,4.26,1.06C169.1,197.5,167.86,196.58,166.13,197.15Zm46.25-22.55V175l3.86.51,0-.39A4.4,4.4,0,0,0,212.38,174.6Zm-62.11,6.32c-2-1.89-2.32-1.93-3.94-.8Zm1.47,5.72c-1-1.2-1.9-1.51-3.74-1.23C149.29,186,150.21,187.13,151.74,186.64Zm-13.2-20.29-.11-.51-5.18,1.33.09.36Zm-19.16.84a3.78,3.78,0,0,0,2.94,3.46Zm34.37,14.39c-.75-1.66-2.06-1.71-3.28-2.08C151,181.14,152.46,180.93,153.75,181.58Zm23.33,5.89.06-.38-3.78-.26C175,188.08,175.55,188.16,177.08,187.47Zm-63.86-6.79.31,0c.12-1.75-.67-3.28-1.16-4.88l-.35.08Zm91.7-.16L205,180l-3.94-.74-.1.59Zm-61.35-2.29c.87,1.63,1.59,1.75,3.2.57Zm43.3.59v.47c1,.88,2.12.45,3.18.08V179Zm-24.31,17.79-.16.34c1.89,1.47,2.39,1.66,4,1.37Zm6.8-6.44,0-.58h-3.74l0,.35Zm5.78,4.69c1.55,1.09,2,.95,2.72-1Zm-14.49-9.27,5.24.62,0-.32A10.47,10.47,0,0,0,160.65,185.59Zm44.81-61.45c-1.85.33-2.77,1.2-2.82,2.62Zm-72.35,44.2c1.15,1.14,1.24,1,3.46-.68Zm63-34.43-.16-.21a6.94,6.94,0,0,0-1.53.72c-.27.21-.32.71-.47,1.08.41-.09.91-.06,1.2-.3A6.28,6.28,0,0,0,196.13,133.91Zm7.7,32.72c1.88-.36,2.72-2,3.94-3.22Zm-2-38.26.38.45,2.74-2.27-.29-.36Zm-18.45,54.31-.06.44a5.53,5.53,0,0,0,1.65.37c.39,0,.76-.47,1.14-.72l-.2-.38Zm-68.67-48.4.08-.5-5.27-.42,0,.27Zm108.56-20.8c1.05-.18,1.36-1.65.54-3Zm-4,3.93c1.84-.1,2.41-.61,2.35-2.12Zm-88.09,47.91c2.24.29,3.29,0,4.47-1.11Zm25.45,18.27,0,.35h4.46v-.35ZM115.3,144.78l2.79,1.46C117.8,145,117.8,145,115.3,144.78ZM160,182.35c-1.06-1.5-1.65-1.64-2.7-.6Zm-13.31-4.48c-1.09-1.63-1.09-1.63-3-1Zm-1.19-18.75.2.37L150,157l-.15-.27Zm49.12,7.7.22.26,3.09-2.61C196.19,164.45,195.88,166.21,194.64,166.82ZM218.91,113l-.62,3.82C219.32,115.86,219.36,115.62,218.91,113ZM107.28,163.46l-.23.15,1,3.84.45-.14Zm37.25,31.86-.22.32c.49.39,1,.78,1.46,1.15s1,.65,1.48,1l.22-.33ZM176,182.91l2.54,1C178.07,182.6,177,182.71,176,182.91Zm13.46-5.23c.83.74,1.78.19,2.7.14C191.39,176.41,190.34,177.84,189.44,177.68ZM162.63,188l2.69.64.08-.24-2.12-1.24Zm-25.78-10.71.39-.61-2.48-1.24-.22.35Zm56-.73,0,.57,2.52-.31-.06-.49ZM178,179.25v.53l2.71-.31-.05-.51Zm42.72-64.53c1.19-.2,1.53-1.19.9-2.37Zm-49.67,70.75c.73,1.18,1.71.65,2.59.81l.07-.46ZM152.6,190l.08-.36c-1.19-.83-1.75-1-2.53-.38Zm34.28-6.88.17.62,2.11-.5c-.23-.32-.42-.71-.51-.69C188.05,182.68,187.47,182.91,186.88,183.11Zm-65.95-28.73V154l-4-.38,0,.28Zm61.52,29.56.07-.49-2.56-.66-.11.42Zm-76.69-54.47.18-.23-.75-1.69-.91,1.07Zm17,47.82-.44.32,1.73,2.2.31-.22Zm41.92,9.85-.07.18h3.12l0-.18Z"/><path d="M84.42,138.52l-1.8-.4a9.74,9.74,0,0,0,1.08,7.23c-3-.83-2.88-3.48-4.08-5.55l-.42,2.92a6.06,6.06,0,0,1-.35-3.89,20.83,20.83,0,0,0,.38-2.21,2.66,2.66,0,0,0-.19-.86l5.28-8.86-.95-.18a2,2,0,0,1,.23-.64,3.62,3.62,0,0,0-.72-5.3,2.29,2.29,0,0,0-1.36-.21c-1.6.14-1.71.08-2.34-1.6-.22-.59-.52-1.15-.76-1.73,0-.1,0-.25.12-.63,1.28,1.54,2.14,3.52,4.61,2.63-1.39-1.41-3.16-2.52-3.2-4.78l.46.81c-.22-2-.55-3.93.06-5.84l.32,0a20.65,20.65,0,0,0,.4,3.87A26.2,26.2,0,0,0,83,117.12l-2.14-1.7-.3.33c1,.93,1.87,1.88,2.87,2.75.17.14.69-.13,1-.23l1.63-.47c-1.28,2.62,1.18,2.36,2.17,3.56l-2-.5-.45,6.88,1.67-.92.22,2.12,2.29-.45,0-.38.22-.05,1.72,3.72-.28.17-.88-.7.81,2.26.18-.11.33-1.77h.36l.34,1.43.27.1c.22-.76.46-1.51.65-2.28s.26-1.45.42-2.16a.67.67,0,0,1,.4-.33c.07,0,.31.18.31.27-.07,1.64-.15,3.27-.24,4.9,0,0-.12.08-.2.13l-.3-1.46c-.34.56-.61.82-.66,1.12a14.18,14.18,0,0,0,1.4,8.69,20.49,20.49,0,0,1,1.37,4.64c.57,2.67,1,5.37,1.49,8.06a2.33,2.33,0,0,1,0,.45l-.67-.13v1.8l-.71.31c.06-3.21-1.38-6.05-3.06-9.09l-.42,1.07c-.52-2.23-1-4.52-1.59-6.78-.16-.65-.65-1.21-.8-1.85a10.3,10.3,0,0,1-.23-2.42c0-3,0-6,0-8.88-1.25-.31-1.47.47-1.55,1.15-.28,2.6-.49,5.21-.72,7.81a4.18,4.18,0,0,1-.41,1.75L87,133.28c-1.34,1.62-2.28,3.22-1.23,5.35A29.58,29.58,0,0,1,87,142.5l-.28.12-.6-1-.34.13c.35.85.67,1.7,1.07,2.52.64,1.3,1.35,2.56,2,3.85,1.93,3.85,2.3,8.1,3.11,12.24a18,18,0,0,1,.17,2.4c-1.48.11-.59-1.65-1.52-1.93-.5,2.09-.45,4.45-2.31,6.13.28-1.07.53-2.14.85-3.2a10.35,10.35,0,0,0-.44-8.14,34.37,34.37,0,0,1-3.47-12.23C85,141.69,84.67,140,84.42,138.52Zm4.82,17.07.35-.12c.38-3.45-1.26-6.28-2.59-9.21l-.48.14Zm-2.81-27.18-2.73,3.88.39.34,3.22-3.14Zm8.86,19.74c.33,2.07.67,4.13,1,6.3C97.07,153.7,96.88,152.46,95.29,148.15Zm-14.18-8.53.55.07.35-2.8-.58-.07Z"/><path d="M234.73,150.68l-.71,1.68c2-.58,3.84-1,5.61-1.69,1-.38,2.12-3.21,2-4.31a4.11,4.11,0,0,1,.16-1.13l.43.09-1,4.75,4.5-1.48.1.26c-1.54.64-3.12,1.18-4.59,1.93-2.62,1.33-5.53,1.67-8.27,2.59a13.12,13.12,0,0,0-3.61,2.06,18.64,18.64,0,0,0-2.34,2.51l-.34-.32,2-2.62-1.31.55-.48-.52,1.13-.34-.11-.17-.63,0Z"/><path d="M108.94,128.53l3.36-.36c.78-.08,1.6.11,2.17-.78.18-.28,1-.23,1.55-.16,2.92.39,5.81.57,8.61-.61,1.8-.76,3.59-1.58,5.07-2.23-1.62,1.57-4.4,3.79-11.86,3.86l3.6,1a15.64,15.64,0,0,1,3.15,1.13c-5.16-1.06-10.26-2.47-15.6-1.43Z"/><path d="M245.42,155.48c-7.18,2.17-14.07,5.42-21.8,5.57a1.7,1.7,0,0,1,.11-.45c.05-.09.17-.21.26-.21C231.51,160.37,238.1,156.3,245.42,155.48Z"/><path d="M222.11,158.05l-8,1.39L214,159a11.08,11.08,0,0,1,2-.6c2.46-.3,4.38-1.65,6.37-3s4.07-2.48,6.13-3.7c.11-.07.29,0,.53.19l-9.39,5.88c.62,0,1,.08,1.32,0a10.52,10.52,0,0,0,1.12-.21Z"/><path d="M96.78,132.53c1.14,1.21,2.77,5.32,2.86,7.62a8,8,0,0,1-1.25-3c-.36-1.14-.87-2.23-1.34-3.42a3.51,3.51,0,0,0,.6,3.58c.21.18.51.44.51.66,0,.5-.23,1-.22,1.51a10.35,10.35,0,0,0,.34,1.74C96.45,138.16,95.7,133.39,96.78,132.53Z"/><path d="M101.24,164.49c.9,3.71,2.27,7.35,1.66,11.29C102.42,172,101,168.37,101.24,164.49Z"/><path d="M233.48,113.27c.3-.24.59-.49.91-.7.67-.44,1.08-.21,1.06.56a14.38,14.38,0,0,1-.25,2.71c-.45,2.12-1,4.22-1.5,6.32-.17.75-.31,1.5-.47,2.24l-.4-.07c.66-3.68,1.31-7.36,2-11.23l-1.2.42Z"/><path d="M213.24,188.58l16.16,2.62C227.16,191.65,214.39,189.56,213.24,188.58Z"/><path d="M132,198.74l.83-.72c.13.18.29.31.33.47.48,1.82,2,2.72,3.28,3.87s2.54,2.24,3.8,3.37c0,0,0,.15,0,.22C138.75,205.79,134.7,201.65,132,198.74Z"/><path d="M236.51,123.4a21.9,21.9,0,0,1-.54-6.93h.54Z"/><path d="M81.83,111c.75,3.67.75,3.67,2.19,5l-.15.28a5.91,5.91,0,0,1-1.5-1A4.79,4.79,0,0,1,81.83,111Z"/><path d="M239.78,147.73c-.37-1.5.05-3.47.76-4.06l-.62,2.78.84-.62.19.13Z"/><path d="M93.32,122.29l3.73.76C95.58,123.47,94.33,123.57,93.32,122.29Z"/><path d="M197.2,123.54l3.59-1.89.19.34-3.52,2Z"/><path d="M227.05,155.8l-4.37,1.94-.13-.32,4.34-2Z"/><path d="M237,116v-3.52h.27V116Z"/><path d="M89.22,121.61l1.26,3.06-.25.12-1.46-2.93Z"/><path class="cls-1" d="M202,162c1.69-4,3.72-7.36,5.09-11l-.35-.18c-.23.38-.48.75-.68,1.14-1.47,2.92-2.86,5.89-4.42,8.75a12,12,0,0,1-2.32,2.58c-.23.22-.69.21-1.39.4,6.48-9.55,8.86-20.37,12.53-30.68l-.34-.14c-.57,1.45-1.18,2.88-1.7,4.35-1,2.71-1.9,5.44-2.81,8.17-.61,1.83-1.13,3.68-1.77,5.49A58,58,0,0,1,197,163.53a.49.49,0,0,1-.17.15c-1.95,1.07-2.69,3.34-4.46,4.56a22.48,22.48,0,0,1-3,1.45c-.2.09-.4.2-.6.3l.08.32,2.29-.59c-2.22,1.86-3.08,4.95-6.7,4.74,2.13-3.93,5.71-6.48,8.15-10.17l-1.46.66c1.47-2.47,2.94-4.76,4.22-7.15.82-1.55,1.35-3.25,2-4.88.4-1,.78-2,1.21-2.95.69-1.58,1.44-3.13,2.14-4.71,1.08-2.43,2.19-4.85,3.19-7.32a36.25,36.25,0,0,0,1.68-5.36c-3.65,8.6-7.28,17.2-11.47,25.55q2-5.64,3.92-11.29l-.29-.17a6.55,6.55,0,0,0-.7,1.1c-1,2.58-1.77,5.22-2.84,7.75-1.53,3.58-3.07,7.18-4.93,10.59-.88,1.6-2.51,2.79-3.8,4.17a1.54,1.54,0,0,0-.4.49c-.46,1.26-.85,2.54-1.33,3.79a1.31,1.31,0,0,1-.75.63c-2.4.75-4.81,1.47-7.22,2.18a1.19,1.19,0,0,1-.88-.18,7.51,7.51,0,0,1,1.46-1.22c1.2-.57,2.46-1,3.69-1.48,0,0,.09,0,.11,0l2.08-2-.86.08a.58.58,0,0,1,0-.21c1.71-2.42,3.43-4.83,5.13-7.26.19-.29.47-.68.41-1-.21-1,.33-1,.78-.91.16-.65.13-1.45.5-1.75s1.22-.24,2-.35c.08-.45.08-.45-1.62-.63a12.88,12.88,0,0,1,.91-1.66c2.15-2.85,3.07-6.29,4.5-9.48,1-2.19,2.07-4.32,3-6.53s1.91-4.72,2.78-7.12a38.2,38.2,0,0,0,1.17-4,3,3,0,0,1,2.5-2.37l-4.16,10,.42.22a7.17,7.17,0,0,1,.45-.63,7.12,7.12,0,0,0,.74-.82,16.15,16.15,0,0,0,1-2c1.14-2.71,2.12-5.49,3.45-8.1.47-.94,1.72-1.49,2.64-2.19.43-.34.9-.62,1.67-1.13-.45,1.77-.74,3.3-1.21,4.78-.94,2.91-1.84,5.84-3,8.65-1.27,3-2.86,6-4.25,9-.17.37.13.94,0,1.36a38.18,38.18,0,0,1-1.48,4.25c-.79,1.83-1.69,3.63-2.62,5.4-1.42,2.73-2.91,5.42-4.37,8.12l.41.26c.51-.81,1.09-1.59,1.54-2.44,1.92-3.64,3.93-7.25,5.68-11,1.31-2.79,2.21-5.76,3.41-8.61,1-2.45,2.34-4.79,3.28-7.27,1-2.63,1.76-5.35,2.54-8.05.49-1.7.81-3.44,1.23-5.15a1.37,1.37,0,0,1,.46-.66,10.23,10.23,0,0,1,2.49-1.47c-.23,1.52,0,3.29-.78,4.48s.16,2.45-.56,3.54l.43.11.57-1.82q.94-2.91,1.88-5.82a.85.85,0,0,0,0-.47c-.33-1.43.55-2.19,1.67-3-.47,3.09-1,6.08-1.37,9.1s-2.1,5.62-3.08,8.46-2.17,5.74-3.29,8.59c-.38,1-.82,1.91-1.23,2.86l.39.18c1.3-2.91,2.59-5.83,3.92-8.8l.67.07a4.24,4.24,0,0,1-.08-1.42c1.05-2.79,2.15-5.56,3.27-8.32a2.75,2.75,0,0,1,1.11-1.2l-1,3.55.12.12a6,6,0,0,0,.61-.94c.43-1,.83-2,1.18-3,.09-.26-.08-.6-.08-.91a1.86,1.86,0,0,1,.18-.7c.07-.38,0-.9.24-1.09,1.27-1.09,2.58-2.14,3.94-3.11a11.84,11.84,0,0,1,2.09-.92l.25,1.39.75-2.21.29.06c-.25,1.42-.41,2.86-.75,4.26-1,3.93-1.85,7.89-3.08,11.74a33.33,33.33,0,0,1-3.34,7.16c-.47.76-.84,1.61-1.36,2.33a29.77,29.77,0,0,1-2.63,3,12.71,12.71,0,0,1-2.15,1.81c4.1-7,5.63-15,9.43-22.06l-.42-.21c-.52,1-1.1,2-1.54,3-1.42,3.37-3,6.69-4.13,10.16-1.44,4.58-3.89,8.57-6.37,12.59-.54.86-.94,1.81-1.43,2.7a6.91,6.91,0,0,1-3.52,3.36A17.5,17.5,0,0,0,202,162Zm2.48-3.46.38.22c2-1.75,7.15-13.9,6.61-16.07-1,2.86-1.79,5.62-2.94,8.22S205.85,156,204.49,158.5Z"/><path class="cls-1" d="M187,155.78c-.44,1.33-2,2.24-1.54,3.94,0,.09-.49.31-.81.5a1.41,1.41,0,0,1-.78,2.07c-.21.1-.19.6-.38.85-1.1,1.47-2.19,3-3.38,4.37a6.05,6.05,0,0,1-1.67,1l1,.1a9.83,9.83,0,0,1-3.53,4c-2.44,1.93-4.88,3.85-7.41,5.67a6.72,6.72,0,0,1-2.86,1.25c-1.84.26-3.73.19-5.59.31a4.62,4.62,0,0,1-3.79-1.68c0-.06-.11-.16-.15-.16a6.79,6.79,0,0,0-.67.19l.5,1-4.26-1c2.54-1.52,5-3.06,7.59-4.55,3.36-2,6.75-3.86,10.11-5.8a2.62,2.62,0,0,0,.52-.53l2.74-1.68-.05,0,1-.29c-.26,1.11-3.73,4.49-7.42,7a27.39,27.39,0,0,1-9.43,4.26l.37,1.08L177,169.54l-.14-.38-9.36,3.56-.16-.3c1.87-1.54,3.78-3,5.59-4.63.79-.69,1.37-1.63,2.12-2.38.48-.47.55-1.7,1.74-1.09,0,0,.23-.18.32-.3,1-1.38,2.06-2.73,3-4.15.3-.47.2-1.19.47-1.68.77-1.37,1.75-2.63,2.45-4,1.33-2.66,2.63-5.35,3.74-8.11a44.1,44.1,0,0,0,1.41-5.25,23,23,0,0,1,.73-2.45,1.81,1.81,0,0,1,.86-1,24,24,0,0,1,2.68-.73,5.39,5.39,0,0,1-1.32,3.75c-.1.11-.54-.07-1.18-.16l1.42,1.13-.32,2.41,0,0a3.32,3.32,0,0,0-.46.69c-1.06,3-2.12,6-3.13,9a21,21,0,0,0-.52,2.41Z"/><path class="cls-1" d="M220.51,150.47c3-3.55,5-7.83,8.67-10.8-.4,1.82-2,2.8-3,4.15.61.12,1.21-.22,2-1.17,2.44-3.08,4.85-6.18,7.32-9.23a8.29,8.29,0,0,1,2.21-1.73,15.55,15.55,0,0,1-.59,1.66,6.86,6.86,0,0,0-.56,4.91,1.19,1.19,0,0,1-.3,1c-1.41,1.34-2.87,2.64-4.32,3.95a9.75,9.75,0,0,0-1.53,1.4c-.25.34-1.21.6-.45,1.34a1.71,1.71,0,0,1-.34.44c-2,1.72-4,3.43-6,5.13a15.46,15.46,0,0,1-6.76,3.75l.55-.39a5.06,5.06,0,0,1,.28-1.28,32.31,32.31,0,0,0,1.64-3c-2,1.76-2.91,4.58-5.73,5.7l2.77-5.92.36.16L215.42,153a13.23,13.23,0,0,0,3.9-6.37,33.89,33.89,0,0,1,5.17-10.21c1.87-2.48,2.36-5.36,3.61-8a34.89,34.89,0,0,1,2.31-3.63c-1.85,7.31-4.33,14-8.49,20l.53.33,3.2-3.77.27.22-5.7,8.67Zm12.83-10.08-10.15,7.79C224.29,148.28,233.13,141.71,233.34,140.39Z"/><path class="cls-1" d="M138.33,165.15c7.15-3.43,13.33-8.34,19.89-12.66l-.17-.32-1.84,1.07-.25-.31c.36-.36.7-.74,1.08-1.08,1.67-1.47,3.33-2.95,5-4.39.54-.45,1.79-.3,1.21-1.6a2.22,2.22,0,0,1,.29-.17c1.58-.78,3.16-1.56,4.83-2.19a10.73,10.73,0,0,0-1.46,1.22c-.32.36-1.25.63-.47,1.43.05,0-.29.51-.47.75a8.31,8.31,0,0,0-1.08,1.7c1.88-.92,2.46-3.34,5-4-3.8,7.18-9.44,11.95-16.1,15.68.57-.6,1.15-1.19,1.72-1.81.06-.06,0-.22,0-.11C150,160.89,145.05,165.23,138.33,165.15Zm17.39-7.55.32.29,3.51-4.12-.27-.23Z"/><path class="cls-1" d="M149.51,145.4l1.1-.16.22.24c-1.05,1.18-2.11,2.36-3.13,3.56a18.68,18.68,0,0,1-7,4.67c-3.7,1.63-7.55,2.94-11.37,4.29a6.07,6.07,0,0,1-2.23-.1v-.35l3.43-.7v-.13c-1.94.13-3.94.6-5.8.3s-3.74-1.38-5.9-2.24l14.31-.73c-1.08,1.07-2.56,1.12-3.89,1.48a24.06,24.06,0,0,1-2.57.33,5.08,5.08,0,0,0-.81.26l.11.54a29.2,29.2,0,0,0,4.32-.64c1.37-.39,2.61-1.22,4-1.75s3-1.08,4.5-1.58,3-1,4.47-1.43l-.07-.34-3.89.8-.17-.43a92,92,0,0,0,8.21-6,61.82,61.82,0,0,1,7.92-6.46,29.75,29.75,0,0,1-2.31,3.56A32.41,32.41,0,0,1,149.51,145.4Z"/><path class="cls-1" d="M117.88,168.28l-.59-.18c1.47,2.4,3,4.82,4.45,7.23-1.32-.09-1.3-.1-2.58-2.36A15.92,15.92,0,0,0,117,169.9l-.28,1.19-.86-1.5-1,.31,3.65,4.69c-1.09,0-.94-.13-1.71-1.23a19.34,19.34,0,0,0-2.64-2.45,3.32,3.32,0,0,1-.85-1,56.1,56.1,0,0,0-2.65-6.27,17.26,17.26,0,0,1-1.74-3.22c-.45-1.33-.93-2.66-1.29-4l6.58,11.1a2.54,2.54,0,0,0-.08-3.06c-2-2.86-4-5.7-5.78-8.65-1.4-2.27-2.56-4.69-3.85-7-.15-.27-.56-.38-.73-.64a8.37,8.37,0,0,1-1.07-1.94,39.86,39.86,0,0,1-1.19-5c3.23,3.1,5.25,7,7.45,10.73l-.32.21-3.13-5.26-.3.2c1.27,2.5,2.42,5.07,3.84,7.48,1.52,2.56,3.6,4.77,4.76,7.57.24.59.94,1,1.42,1.48A9.25,9.25,0,0,1,117.88,168.28Z"/><path class="cls-1" d="M112.85,153.3l9.69,4c-2.45,1-4.47-.32-6.56-.92l-.11.39a5.51,5.51,0,0,1,1.63,1c1.61,2.05,3.87,1.26,5.89,1.45a20.13,20.13,0,0,1,2.31.18,5.53,5.53,0,0,1-4.43.65l1.25.79-3.55.84V162c4.06-1.45,8,.43,12.06.47-.37.22-.74.45-1.11.66s-1.56-.11-1.29,1.09a5.81,5.81,0,0,1-1.32,0c-1.51-.37-3-.86-4.51-1.18-.41-.09-.91.27-1.42.45l1,1.94-.32.29-2.18-2-.27.29,8.94,8.19-.28.33c-1.52-1.16-3.07-2.28-4.53-3.51s-3-2.62-4.4-4a18.42,18.42,0,0,1-3.83-4.57l.39-.38,3.13,3.88.53-.45a7.41,7.41,0,0,0-.71-1q-2.4-2.38-4.85-4.72a5.8,5.8,0,0,1-1.42-3.65C112.56,153.91,112.74,153.65,112.85,153.3Z"/><path class="cls-1" d="M224.24,173.38c-1.87.88-3.74,1.4-5.83.52a7.91,7.91,0,0,0-2-.29c-2.34-.34-4.67-.72-7-1a14.75,14.75,0,0,0-2.37.19,1.38,1.38,0,0,1-1-.37l1.12-.27-.12-.42-3.19.94,0,.2,5.38,1v.26l-3.93-.39-.07.22,1.07.57-.23.58a2.2,2.2,0,0,0,.62.05,3.29,3.29,0,0,1,1.47-.08l-2.36.73.28.59-.68-.08c-.35-.05-.76-.24-1-.13-1.14.46-2-.06-2.89-.63a4.15,4.15,0,0,0-1.09-.29c.4-1.08,1.17-1.18,2.17-1.19l-3-1.17c.5-1.51,1.71-.24,2.43-.66-.94-.72-1-1.31-.06-2.19a5,5,0,0,1,4.64-1.28c1.54.31,3.08.58,4.62.89a6.56,6.56,0,0,1,1.07.45c1.09.21,2.4.42,3.68.73a3.36,3.36,0,0,1,1.26.73,6.77,6.77,0,0,0,4.09,1.29l3,.15Z"/><path class="cls-1" d="M169.78,167.25l-1.7.49c1.6-2.73,4.09-4.43,6-6.69l-1.22.71-.15-.11c.5-.82,1-1.68,1.51-2.46,1.37-1.94,2.81-3.83,4.19-5.77.9-1.28,1.71-2.63,2.62-3.9a18.73,18.73,0,0,1,1.4-1.42c.31-.36,1.29-.47.54-1.31-.06-.07.24-.46.38-.69q2-3.45,4.09-6.9a2.34,2.34,0,0,1,.63-.79c-1.06,2.24-.07,5.28-3,6.79l.26.19.93-.54a3.78,3.78,0,0,1-.2.93c-2.58,4.24-5.18,8.48-7.76,12.73-1,1.56-1.77,3.21-2.83,4.69a9.7,9.7,0,0,1-2.13,1.68c-.3.24-.57.52-.85.77l.05,0Z"/><path class="cls-1" d="M151.29,140.23c-1.14,1.11-2.22,2.29-3.43,3.33-1.54,1.31-3.16,2.53-4.78,3.74s-3.44,2.47-5.16,3.71c-.41.29-.81.8-1.24.82a31.52,31.52,0,0,1-5-.12c3-1.08,6.26-1,8.86-3.19-4.21,1.38-8.42,2.6-13,.91l1.83-.59,5-1.66a3.4,3.4,0,0,1,.34-.12c3.58-1.21,6.77-3.28,10.26-4.71a8.16,8.16,0,0,1,1.41-.34c.22-.21.4-.48.64-.58,1.3-.52,2.62-1,3.93-1.5Z"/><path class="cls-1" d="M119.61,140.62c-.42,2-1.19,2.65-3.58,2.65a24.54,24.54,0,0,1-3.36-.56c-.29,0-.92-.77-.92.29a.91.91,0,0,1-.44,0c-.53-.22-1-.47-1.67-.75l.85-.47c-.84-.08-1.35-1.38-2.13,0l-.89-.53.89-.37c-3.16-1.78-4.56-4.84-6.31-7.6,1.36.15,2.73.24,4.08.49.37.06.65.58,1,.88l1.88,1.64h-1.71l-.1.34a4.83,4.83,0,0,0,1.55.41c3.36-.28,6.1,1.33,8.91,3.07h-7.87v.51Z"/><path class="cls-1" d="M152.88,137.82c-.39.39-.72,1-1.19,1.13-2.51.79-5.06,1.49-7.6,2.2-1.79.5-3.57,1-5.38,1.42-2.27.48-4.65.61-6.85,1.3a18.29,18.29,0,0,1-6,1.27c-2.23-.07-4.45-.39-6.68-.59l-.08-.54a3.86,3.86,0,0,1,1-.45c3.06-.5,6.14-.95,9.2-1.46,2.13-.36,4.24-.8,6.46-1.22l-.32.75a5.7,5.7,0,0,0,.63-.23l4.25-1.78c.14-.06.37-.17.44-.12,1.71,1.42,3.48.2,5.14,0a60.26,60.26,0,0,0,6.77-1.78Z"/><path class="cls-1" d="M148.79,196.29a28.55,28.55,0,0,1-3.91-2.6c-2.78-2.62-5.4-5.39-8-8.22a6,6,0,0,1,4.14,1.34,22.38,22.38,0,0,0,3.28,2.8c1,.65,2.29.86,3.35,1.44,2.73,1.48,5.4,3,8.36,4.74h-3.73l0,.25,4,.5-.7,2.12-6.8-2.4Zm1.79-.59.11-.35-3.18-1-.09.29Z"/><path class="cls-1" d="M167,160.46c2-2,3.92-4,5.83-6.05,1.45-1.56,2.82-3.2,4.32-4.91a7.25,7.25,0,0,1-1.21,5.42c-1.16,2-2.53,3.77-3.55,5.78-2.15,4.18-6,5.8-10.34,7.49l9.16-9-4.32,2.19.13-.91Z"/><path class="cls-1" d="M148.52,167a25.41,25.41,0,0,0,2.21-1.28c2-1.4,4-2.82,6-4.28.76-.57,1.38-1.32,2.15-1.88a6.47,6.47,0,0,1,1.76-.46l-.92-.33c2-2.2,4.19-4.29,6-6.62a82.94,82.94,0,0,0,5.59-8.08,13.18,13.18,0,0,1,3.28-3.87c.73-.54,1.41-1.16,2.12-1.74l.25.21-1.83,2.64c-1.4,2-2.79,4-4.23,6-1,1.41-2.17,2.75-3.22,4.15-.81,1.08-1.51,2.24-2.36,3.28a9.18,9.18,0,0,1-1.07,1c-.88.78-1.23,1.9-2.08,2.67a34.92,34.92,0,0,0-2.52,2.64c-.83.89-1.58,1.87-2.47,2.7a9.81,9.81,0,0,1-3.86,2.41c-1.15.36-2.32.09-3.4.51-.41.17-.79.42-1.19.63Z"/><path class="cls-1" d="M198.36,135c-.2,3.81-2,7.08-3.47,10.46-1.26,2.88-2.36,5.83-3.59,8.73a20.32,20.32,0,0,1-1.45,2.67c-1,1.68-2.06,3.34-3.11,5a7.54,7.54,0,0,1-.57.7c.05.39.24.78.12,1a31.51,31.51,0,0,1-2.75,4.54,36.78,36.78,0,0,1-4.93,4.81c1.23-3.09,4.23-4.69,5.74-7.59l-2.93,2.9-.29-.24c.6-.86,1.21-1.71,1.8-2.58a42.56,42.56,0,0,1,3.39-4.93c1.25-1.37,1.1-3.36,2.43-4.59,1.66-1.54,2-3.73,2.82-5.67a21.4,21.4,0,0,1,1.71-3.46c1.94-2.84,2.43-6.16,3.34-9.35a12.23,12.23,0,0,1,1.43-2.52Z"/><path class="cls-1" d="M160.26,165.58l-.85,1.15c1.6.15,1.52-1.48,2.51-2a1.55,1.55,0,0,1-.07.31.53.53,0,0,0-.1.43l5-3.64.27.26c-.59.65-1.13,1.34-1.77,1.93a37.4,37.4,0,0,1-5.26,4.53,45,45,0,0,1-6.83,2.88q-2.55,1-5.16,1.86a34.57,34.57,0,0,1-3.5.91C149.66,171.21,154,166.81,160.26,165.58Z"/><path class="cls-1" d="M140.71,159.43a2.72,2.72,0,0,1,.53-.54,19.08,19.08,0,0,1,4.07-2.13c1.51-.4,2.27-1.83,3.74-2.19a6,6,0,0,0,1.52-.91c1.45-.88,2.9-1.79,4.39-2.63a3.88,3.88,0,0,1,1.19-.24l-.21-1.4-.68.9c-1.85-.3-3.06,1.36-4.79,1.85l.57-.82c-2,.61-3.42,2.63-5.74,2,.34-.48.51-1.35,1.71-1.22.38,0,.79-.63,1.24-.87,1.07-.58,2.16-1.12,3.27-1.61.19-.09.54.14,1,.28,1.3-1.45,3.53-1.25,5.41-1.93.07,0,.23.19.34.29l-1.47,1.05-.47.33.87,1.09c-.94.86-2.07,1.94-3.27,3-.45.39-1.39.54-1.48.94-.37,1.57-1.73.6-2.48,1.14a19.36,19.36,0,0,1-2.83,1.55c-1,.5-2,.93-3.17,1.44-.25,1.45-1.93,1.06-2.77,1.76l-.48-1.12Z"/><path class="cls-1" d="M228.48,111.56s0,.1,0,.12c1.73,1.72.62,3.75.55,5.63a47.59,47.59,0,0,1-.78,6.51,42.7,42.7,0,0,1-1.31,4.5,26.71,26.71,0,0,1-1.08,3.7,46.29,46.29,0,0,1-3.42,6.11c.78-3.1,1.39-6.25,2.39-9.28s1-6.4,2.54-9.31l-.47-.19c0-.16-.06-.26,0-.32a11.89,11.89,0,0,0,1.32-6.44,3,3,0,0,1,.34-1Z"/><path class="cls-1" d="M111.23,116.89,109,118.4c-.82-.17-2,.81-2.06,2.29l-2.11-.21,2.06,1.93,1.11.08c-.21.15-.31.28-.41.28-1.65,0-1.54,1.41-1.93,2.45a27.77,27.77,0,0,1-1.2,2.6l-.44-.15c0-.51.07-1,.13-1.53s0-1.08-.84-1c-.23,0-.67-.24-.69-.41-.22-1.58-.37-3.16-.55-4.83l2.53-.46v-.22a8.07,8.07,0,0,0-1.38-.09c-.56,0-1.14.12-1.08-.64a1.33,1.33,0,0,1,.63-1c.53-.18,1.28-.34,1.37.5C106.3,116.52,108.87,117.21,111.23,116.89Z"/><path class="cls-1" d="M190.58,188.81l.49-.93-.16-.12c-.87.88-1.54,0-2.22-.3a21,21,0,0,1-3.55-2c2.61-.51,5,.53,7.45.81-.6-.25-1.18-.53-1.8-.73s-1.28-.32-2-.5c2.06-1.17,4.14-.89,7.35,1l-2.41.29-.07.39c.39.09.9.37,1.17.22,1.67-1,3.07-.36,4.79.75-1.63.82-3,1.95-4.47,2.12S192.13,189.21,190.58,188.81Z"/><path class="cls-1" d="M193.29,172c1.68-1.17,3.17-2.13,4.57-3.2,2.35-1.8,4.65-3.66,6.95-5.5s4.39-3.54,6.58-5.31l.45.41a10.56,10.56,0,0,1-1.24,1.86c-.69.68-.92,1.78-2.32,1.91-.81.07-1.53,1.21-2.28,1.89a24,24,0,0,1-5.74,3.77,4.47,4.47,0,0,0-1.21,1c1.71-.22,2.85-2.11,4.71-1.81-.28.32-.5.62-.76.87-.54.52-1.09,1-1.65,1.51a7.58,7.58,0,0,1-.88.6c-.48.31-1,.59-1.45.92a2.17,2.17,0,0,0-.54.55c-.6.75-1.22,1.32-2.32,1C195.33,172.25,194.46,172.18,193.29,172Z"/><path class="cls-1" d="M159.44,157.76a26.89,26.89,0,0,1-7.11,5.74c-.35.19-.58.61-.91.87-4.57,3.49-9.56,5.81-15.5,5.33a3.48,3.48,0,0,1-1.12-.33c5.49-1.51,10.55-4.27,16.21-5.17a.48.48,0,0,0,.37-.49h-1.7Z"/><path class="cls-1" d="M147,176.28l17.53-8.39.22.36a58.28,58.28,0,0,1-5.25,4.21c-2.77,1.76-5.69,3.31-8.62,4.8C149.36,178,148.34,176.59,147,176.28Z"/><path class="cls-1" d="M142.09,174.21c-2.35,1.72-3.74.27-5-1.39-.48.59-.48.59,1,2.07-1.36-.54-2.95-.37-4.12-1.59a5.43,5.43,0,0,0-2.4-1.23l.5,1.08-.19.17c-1.53-1.25-3.07-2.5-4.59-3.77a.64.64,0,0,1-.11-.61.74.74,0,0,1,.6-.33,8.63,8.63,0,0,1,1.2.35c1.32.33,2.66.61,4,1A22,22,0,0,1,136,171.1c2,.92,3.87,1.93,5.8,2.9C141.9,174.07,142,174.15,142.09,174.21Z"/><path class="cls-1" d="M142.44,173.33l2.64-1.27-.05-.23a4.22,4.22,0,0,0-1.29.37c-1.71,1.21-3.22.54-4.74-.39a8.93,8.93,0,0,1-1.94-1.44,26.33,26.33,0,0,0,3.17.3,9.52,9.52,0,0,0,2.64-.47c3.08-.93,6.14-1.92,9.21-2.9.47-.15.93-.32,1.39-.49l.17.33c-.9.54-1.82,1.05-2.69,1.65-.47.33-.81.83-1.25,1.21a15.83,15.83,0,0,1-2.16,1.78,27.41,27.41,0,0,1-3.42,1.73,6.14,6.14,0,0,1-1.68.2Zm6.65-3.22-.14-.29L146,171.23l.2.39Z"/><path class="cls-1" d="M183.53,140c.78-3.34,2.2-4.95,6.28-7.41v.64c.31-1.74,1.94-2.26,3-3.22a34.78,34.78,0,0,1,3.7-2.51c.88,1.89.11,4.17-1.81,4.52l-.1-1.17-.24-.09c-.15.38-.3.76-.44,1.14-.37,1-.88,1.85-2.17,1.86a2.07,2.07,0,0,0-1,.58,10.54,10.54,0,0,0-1,1.15l.09-1.94a2.39,2.39,0,0,0-1.76,1.86,3.23,3.23,0,0,1-1.85,2.25A12.64,12.64,0,0,0,183.53,140Z"/><path class="cls-1" d="M121.12,172.74h1.24L122,171.5l.2-.28c.76.55,1.53,1.11,2.3,1.64a3.66,3.66,0,0,0,.89.43c.07,0,.36-.33.34-.37a3.79,3.79,0,0,0-.66-.78c-.94-.78-1.91-1.54-2.87-2.31l.33-.42,5.57,4.46a12.81,12.81,0,0,1,5.53,4.15c-2.9-.28-5.13-1.06-6.28-4-.74,1.39.74,1.66.77,2.7l-2.66-2.16-.27.31,1.38,1.49-.07.29c-1.11-.25-2.44-.21-3.27-.83S121.84,173.87,121.12,172.74Z"/><path class="cls-1" d="M169.45,153.87c1-.36,2.08-.13,2.79-1.36a63.12,63.12,0,0,1,3.88-5.42c1.31.79.64,1.51.19,2.06-2.68,3.22-5.41,6.4-8.11,9.6-.45.54-.81,1.14-1.22,1.71l0,0a3.23,3.23,0,0,0-.76.41,4.52,4.52,0,0,1-3.05,1.72c.55-.9,1-1.61,1.45-2.37a15.7,15.7,0,0,1,4.65-5.7c.15-.1.13-.43.19-.65Z"/><path class="cls-1" d="M109.7,165.43l8.23,14.39-1.08,3.08c-.48-.7-1.32-1.36-1.24-1.9.18-1.41-1.38-1.84-1.36-3.12a21.22,21.22,0,0,0-.46-3.62c-.14-.91-.39-1-1.46-.62-1.27-2.57-2.65-5.11-2.94-8Z"/><path class="cls-1" d="M191.05,143.79a9.23,9.23,0,0,0,.89-2c.41-2.21,2.05-3.57,3.36-5.44,0,3.16-5.9,17.52-8.55,21l.25-1.56,0,0c.16-.17.39-.31.47-.5.7-1.86,1.44-3.71,2-5.61s1.08-4,1.61-6Z"/><path class="cls-1" d="M190.57,173.89l2.23,1a30.72,30.72,0,0,1-14.48,3.2,20.82,20.82,0,0,1,3.49-1.56,30.57,30.57,0,0,0,8.34-3c1.47-.88,2.7-.22,3.83.88l-3.32-.76Z"/><path class="cls-1" d="M163.21,191.19l-1.92-.38.05-.32,3.48.39,0,.4-1,.07,0,.21a4.94,4.94,0,0,0,.67.12,7.81,7.81,0,0,1,4,1.57c.58.37,1.27.59,1.8,1,.33.27.44.79.7,1.29,1.35-.5,2.5.14,3.59,1-3.06-.12-6.14-.15-8.85-2.22l.42-.12a.74.74,0,0,0,.4-.27c-2.18-.56-4.45-.9-6.35-2.77l3.05.38Z"/><path class="cls-1" d="M139.22,138.59a12.37,12.37,0,0,1-2.34,1.09c-3.06.69-6.13,1.32-9.21,1.86-2.5.43-5,.7-7.52,1,.24-2.41,2.19-1.9,3.59-2.12,2-.3,4-.24,5.9-.54,2.92-.45,5.82-1.06,8.72-1.61l.67-.13Z"/><path class="cls-1" d="M166.57,139a12.33,12.33,0,0,1-5.46,5.91c-.26.14-1.19.26-.25,1.13l-10.24,3.12-.14-.18c1.26-.84,2.46-2.27,3.78-2.38,2.48-.21,3.87-2.1,5.89-2.91l.22-.08a.33.33,0,0,1,.12.06l-1,1.71.2.12,6.47-6.84Z"/><path class="cls-1" d="M98.19,118.19c-.13-.2-.25-.29-.25-.38.09-1-.73-1.59-1-2.44,0-.15-.17-.34-.12-.44.73-1.49,1.24-3.14,2.83-4,.77-.44,1.56-.87,2.36-1.31-.18,1.09-.29,2.1-.53,3.08a1.37,1.37,0,0,1-.7.83c-.64.29-1.35.41-2,.66a5.8,5.8,0,0,0-.89.53L98,115l3.15-.73a7.89,7.89,0,0,1,.08,1.37c-.05.32-.31.9-.42.89C99.52,116.33,99.09,117.64,98.19,118.19Z"/><path class="cls-1" d="M139.34,185c-2.14-.22-4-.42-5-2.63-.29-.67-1.06-1.12-1.56-1.72-.66-.79-1.28-1.62-1.91-2.44L131,178c1.29.47,2.83.65,3.8,1.49A15.12,15.12,0,0,1,139.34,185Z"/><path class="cls-1" d="M186.19,139c-1.36,2-2.89,4-4.26,6.17s-2.57,4.37-4,6.51c.18-1.33-.63-2.63.43-4a43.23,43.23,0,0,0,3.22-5A8.62,8.62,0,0,1,186.19,139Z"/><path class="cls-1" d="M112.24,148.48l4.47.68c1.47.22,3,.33,4.43.65a34.84,34.84,0,0,1,5.22,1.59,18.22,18.22,0,0,1-8,0,10.44,10.44,0,0,1-5.63-2.68,1.66,1.66,0,0,0-.54-.23Z"/><path class="cls-1" d="M218.41,124.11c.56-4,.45-5.33,3-6.49a9.47,9.47,0,0,0-.1,1.73c0,.4-.6,1.19.6,1.16.19-1.11.32-2.24.6-3.32.12-.44.58-.8.88-1.17.08,1.19.13,2.24.22,3.3s-.15,2.08-1.45,2.45c-.35.1-.58.54-.92.74C220.43,123,219.55,123.47,218.41,124.11Z"/><path class="cls-1" d="M108.26,163.82l-1.31-5h-.24l-.3.8-.33.08q-1.39-5.35-2.8-10.73a14.25,14.25,0,0,1,3.56,8,3.18,3.18,0,0,0,.36.95c.59,1.59,1.22,3.17,1.75,4.77.09.29-.18.71-.28,1.06Z"/><path class="cls-1" d="M125.13,160.74c1.65-.69,3.22-1.58,5.14-1.37,1.62.18,3.27.16,4.9.28.3,0,.59.32,1,.55-2.18,1.15-4.17,2-6.61,1.24a19.39,19.39,0,0,0-4.41-.33Z"/><path class="cls-1" d="M172.76,184l-.25.47a5,5,0,0,0-1.22-.41c-2.42,0-4.84,0-7.26,0l-.06-.49c.52-.13,1-.28,1.56-.4,1.44-.31,2.89-.57,4.32-.93a5.1,5.1,0,0,1,4.63,1.54l-.45.16,2.91,1.52A4,4,0,0,1,172.76,184Z"/><path class="cls-1" d="M104.53,132.86l.21-.88-1.45.18V129l8.35,3.62c-1.51.18-3.27.44-5,.56A9,9,0,0,1,104.53,132.86Z"/><path class="cls-1" d="M109.06,130.41c2.23.26,4.47.42,6.68.81a13.09,13.09,0,0,1,6.16,3.28c-1.41-.22-2.82,0-3.63-.64-2.07-1.56-4.63-1.09-6.8-2.05-.82-.37-1.7-.59-2.55-.88Z"/><path class="cls-1" d="M156.94,164.83l6.9-6.75h1C164.3,161.64,161,164.47,156.94,164.83Z"/><path class="cls-1" d="M225.44,119.77v-9.22l1.07.51-.72-1.48c2.06,1,2.09,6.84.06,10.19Z"/><path class="cls-1" d="M108.14,134l10.44,1.36C115.91,137.26,110.2,136.51,108.14,134Z"/><path class="cls-1" d="M131.17,182.37l-2.35-2.91c-.18.46.07.36.82,2.22.35.85,1.39,1,1.4,1.94a1.67,1.67,0,0,1-1.93-1.14c-.48-1-1.6-1.74-2.36-2.65s-1.19-1.67-1.93-2.74c3.45.42,5.12,2.64,6.75,4.89Z"/><path class="cls-1" d="M202.47,185.15l-.47.37,1.27.11a2.8,2.8,0,0,1-2.86.61c-.19-.06-.26-.45-.46-.42l-5.33-2.34C198.69,182.09,198,182.59,202.47,185.15Z"/><path class="cls-1" d="M142.22,142.88a52.76,52.76,0,0,1-7.39,3.21c-1.58.45-3.45-.14-5.17-.47l12.47-3Z"/><path class="cls-1" d="M182.18,190.83a8.59,8.59,0,0,0,1.68,0,4.42,4.42,0,0,0,1.13-.64l5.53,1.85a3.15,3.15,0,0,1-3.64,1.19c-1.6-.73-3.43-1.05-4.68-2.45Z"/><path class="cls-1" d="M200.91,165.37a59.82,59.82,0,0,1-11.38,7.42l-.24-.25c.78-.76,1.53-1.57,2.37-2.27a12.44,12.44,0,0,1,2.14-1.46c.89-.48,1.59-1.19,2.81-1.22.88,0,1.73-1,2.6-1.53.51-.32,1-.63,1.55-.94Z"/><path class="cls-1" d="M140.05,180.23c.41,0,.58,0,.64,0,1,1,2.24.66,3.41.75,1.77.14,2.67,1.62,4,2.52C144.44,184.92,142.55,182.19,140.05,180.23Z"/><path class="cls-1" d="M175.09,192c-.93.39-1.71.75-2.51,1a1.5,1.5,0,0,1-1,0c-1.29-.63-2.56-1.31-3.81-2-.21-.11-.32-.39-.47-.58A11.81,11.81,0,0,1,175.09,192Z"/><path class="cls-1" d="M196,177.73c1.62-1.18,3.07-1.39,4-.64a2.83,2.83,0,0,0,1.12.53c2.22.47,4.46.9,6.69,1.35l.06.31a5.78,5.78,0,0,1-1.86.21c-1.24-.28-2.42-.88-3.66-1.12a17.6,17.6,0,0,0-2.81,0c-1.19,0-2.37-.18-3.55-.28Z"/><path class="cls-1" d="M143.43,194.14c-4-1.64-6.54-4.73-8.66-8.32C137.93,188.31,140.46,191.46,143.43,194.14Z"/><path class="cls-1" d="M107.71,115l-1.12.88,7.55-1.11.14.64c-1,.27-2,.62-3,.79a9.59,9.59,0,0,1-3.19.22c-1.81-.32-3.46.3-5.18.48a2.58,2.58,0,0,1-.65-.21A9,9,0,0,1,107.71,115Z"/><path class="cls-1" d="M112,144.88c3.11.15,5.67,1.64,8.11,3.41C117.33,147.29,113.84,148.05,112,144.88Z"/><path class="cls-1" d="M211,122.2c.56-2.43,1.09-4.7,1.64-7.08C214.62,117.74,213.89,121.11,211,122.2Z"/><path class="cls-1" d="M207.56,177.58l1.53-.78v-.35l-1.36-.4,0-.17a19.84,19.84,0,0,1,3.23-.36,12.72,12.72,0,0,1,3.4.8C212.09,176.62,210.27,178.93,207.56,177.58Z"/><path class="cls-1" d="M144.15,185.84c-1.94,0-3.43-.49-4.52-2.13a38.88,38.88,0,0,0-3.65-4.18l.31-.33,2.39,2.12c.92.78,1.85,1.55,2.78,2.32S143.25,185.11,144.15,185.84Z"/><path class="cls-1" d="M130.12,167.71c-1.14.09-2.46.55-3.4.14-.58-.26-1.92,0-2-1.31,0-.14-.65-.23-1-.35l.63-.92C126.43,165.65,128.73,165.57,130.12,167.71Z"/><path class="cls-1" d="M203.73,187.9c-2.58,1.13-4.76,3.25-8,2.73.35-.26.57-.54.73-.51.92.21,1.45-.46,2.1-.87a16.35,16.35,0,0,1,3-1.78C202.15,187.26,203,187.74,203.73,187.9Z"/><path class="cls-1" d="M180.47,193.3l.53-.74-.13-.43,5.95,1.75-.07.67a14.52,14.52,0,0,1-3.22.08A15.27,15.27,0,0,1,180.47,193.3Z"/><path class="cls-1" d="M123.72,146.17l-1.25.29,0,.26,3.67-.56c-2.28,2.14-5.23,1.91-7.29-.73l4.78.42Z"/><path class="cls-1" d="M190.81,180.89c1.73-1.16,2.39-1,4,.16.45.33,1.27.18,2,.25l.41.72C194.76,183.28,192.92,181.39,190.81,180.89Z"/><path class="cls-1" d="M154.47,141.33a17.42,17.42,0,0,1,2.31-2.9,19.39,19.39,0,0,1,3.45-1.85C159.18,138.85,158.17,139.71,154.47,141.33Z"/><path class="cls-1" d="M177.89,191.18l1.85-.14.08.53-2.28.4c0-.2,0-.39,0-.24l-2.76-1,.06-.3,1.11-.41,0-.27-3.2-.61C174.84,188.1,177.82,189.49,177.89,191.18Z"/><path class="cls-1" d="M153.66,172.47a25,25,0,0,1-2.28,1.23c-1.52.61-3.08,1.16-4.65,1.67-.27.09-.66-.17-1-.27.19-.31.32-.78.59-.89.77-.28,1.6-.4,2.39-.61,1.62-.44,3.23-.9,4.84-1.35Z"/><path class="cls-1" d="M130.22,184.44a3,3,0,0,1,2.73,1.48c.74.92,1.42,1.89,2.14,2.82a33.34,33.34,0,0,1,2,2.76A66.09,66.09,0,0,1,130.22,184.44Z"/><path class="cls-1" d="M149.72,190.7a8.65,8.65,0,0,1,2.12.61c1.93,1.12,3.8,2.34,5.67,3.55a2.28,2.28,0,0,1,.93,1.17l-8.87-4.92Z"/><path class="cls-1" d="M156.14,188.4c2.31.22,4.64-.14,6.81,1.74C160.45,190,158.07,190.7,156.14,188.4Z"/><path class="cls-1" d="M214.74,115.71l-.69.49-1.41-3.45,2.3.14v6.28h-.36Z"/><path class="cls-1" d="M101.72,126l-2.16-5.63,1.77-.54.73,6.08Z"/><path class="cls-1" d="M138.78,161.85c-3.37,2-7.39,3.13-8.48,2.22C133.27,163.72,135.71,161.67,138.78,161.85Z"/><path class="cls-1" d="M181.84,195.31c-2.39,1.51-2.77,1.62-3.76,1.07l.5-.74-.82.22c.05-1.49.77-2,2.05-1.55.65.24,1.28.54,1.92.82C181.79,195.15,181.81,195.25,181.84,195.31Z"/><path class="cls-1" d="M186.16,194.83l5.25.61c-1.32.37-2.34,1.95-3.79,1.23C187.12,196.42,185.75,196.3,186.16,194.83Z"/><path class="cls-1" d="M125.33,188.71l.23,1-.19.12a14.61,14.61,0,0,1-1.16-1.44,9.17,9.17,0,0,1-.86-1.68,6.39,6.39,0,0,0-.77-1.8v1l-.33.09L121,181.54l.2-.09,4.13,7.3Z"/><path class="cls-1" d="M157.56,141.22l-2.42,1.71-.07-.21a4.13,4.13,0,0,1-.48.91,23.24,23.24,0,0,1-2,2,3,3,0,0,1-1,.36c.09-.32.07-.76.27-1,.94-.88,1.91-1.73,2.92-2.53.77-.62,1.62-1.15,2.43-1.72Z"/><path class="cls-1" d="M149,189.61c-.54.76-1,.93-1.78.31s-2-1.12-3-1.74a5.13,5.13,0,0,1-1.61-1.72Z"/><path class="cls-1" d="M107.09,121.63a2.89,2.89,0,0,1,2.27-1.09,18.79,18.79,0,0,0,3.32-.39l1.14-.16A7.72,7.72,0,0,1,107.09,121.63Z"/><path class="cls-1" d="M203.19,183.93c.88-1,.88-1,1.79-.27-1.31,1.36-2.73,1.15-5.3-.8A2.34,2.34,0,0,1,203.19,183.93Z"/><path class="cls-1" d="M176.27,188.33c1.85-1.09,3.46-.21,5.14.35C180,190,179,190,176.27,188.33Z"/><path class="cls-1" d="M218.69,117.71c-1.09,2.22-1,4.57-1.07,6.94a10.5,10.5,0,0,1-1,2.87l-.35-.11c.32-1.7.52-3.43,1-5.1S217,118.83,218.69,117.71Z"/><path class="cls-1" d="M195.64,179.55c1.59-.72,4.41.1,4.46,1.32l2.17.1a1.88,1.88,0,0,1-2.54,0,3.07,3.07,0,0,0-1.15-.39c-1-.23-2-.43-3-.64Z"/><path class="cls-1" d="M133.1,147.16,126.7,149v-.14c1-.66,2-1.36,3.1-2a3.78,3.78,0,0,1,3.25-.18Z"/><path class="cls-1" d="M159.81,193.78a8.48,8.48,0,0,1,6.11,2.42c-1.18-.21-2.19.05-3.15-.92-.71-.71-2-.82-3.08-1.2Z"/><path class="cls-1" d="M173.52,177.3c-.54,1.92-3.24,3.14-5.4,2.48Z"/><path class="cls-1" d="M153.22,183.55l-2.56-.54.55.6c-1.06,0-2.15.43-2.69-.8C150.14,181.91,151.76,181.26,153.22,183.55Z"/><path class="cls-1" d="M136,158.57l7.19-2.13a11.71,11.71,0,0,1-7.11,2.49Z"/><path class="cls-1" d="M159.72,192.91a8.23,8.23,0,0,1-5.72-2.12l3.78.66-.36.16,2.42,1Z"/><path class="cls-1" d="M206.58,120.31c.6,1.38-.41,2.55-3.67,3.86a6.38,6.38,0,0,1,1.2-1.61c.63-.45,1.48-.55,1.58-1.58C205.72,120.73,206.27,120.54,206.58,120.31Z"/><path class="cls-1" d="M169.48,153.85l-1.35.85c.45-2.52,2.66-3.55,3.82-5.33l.33.21q-1.42,2.14-2.83,4.29Z"/><path class="cls-1" d="M187.75,189a10,10,0,0,1,2.28.2c1.18.38,2.28,1,3.62,1.57-.35.16-.52.32-.65.29-1.63-.44-3.27-.9-4.89-1.38-.29-.09-1-.06-.35-.68Z"/><path class="cls-1" d="M232.1,146.55l-5.41,3.63-.22-.32c1.87-1.12,2.95-3.38,5.34-3.74Z"/><path class="cls-1" d="M197.6,130a9.28,9.28,0,0,1-.14-1.28,7,7,0,0,1,.17-1.13l2.8-.64-.92,2.23-.45-.13.11-1.1-.24-.1-1,2.29Z"/><path class="cls-1" d="M101.27,118.06c.19,1.77-1,1.43-1.66,1.63-.28.09-.73-.4-1.1-.63a23.61,23.61,0,0,1,2.11-1.62C100.7,117.39,101.19,118,101.27,118.06Z"/><path class="cls-1" d="M177.33,173c-1.46,2.58-2.74,3.62-4.23,3.05l4-3.31Z"/><path class="cls-1" d="M168,167.11c-1.09,2.06-3.32,2.54-5,3.76l-.19-.25,4.91-3.87Z"/><path class="cls-1" d="M142.56,179.11c-1.6-.82-3.77-.49-4.89-2.29l.19-.39,4.93,2.23Z"/><path class="cls-1" d="M156.89,186.71c-1.81,0-3.58.6-5-1.17C153.67,185.75,155.38,185.43,156.89,186.71Z"/><path class="cls-1" d="M166,184.68h4.81v.41h-2.14l.76,1-.07.3-2.05-.4,0-.37,1-.22v-.24l-2.44-.27Z"/><path class="cls-1" d="M173.4,198.12c-.63-.09-1.28-.13-1.9-.27a2,2,0,0,1-1.15-.77c1,.06,1.9.19,2.85.17s1.82-.2,2.75-.31c-.2.87-.35.91-1.41.86a3.7,3.7,0,0,0-1.16.33Z"/><path class="cls-1" d="M183,179.8c-1,1.65-2.74,1.81-3.82.41Z"/><path class="cls-1" d="M140.69,176a2.88,2.88,0,0,1,4.27,0Z"/><path class="cls-1" d="M180.66,142.76c-.88,1.32-1.74,2.65-2.67,3.93-.17.24-.62.27-.94.4l-.2-.39,3.57-4.12Z"/><path class="cls-1" d="M129.2,146.82l-4.83,1.43-.1-.33c1.56-.65,3-1.79,4.8-1.54Z"/><path class="cls-1" d="M175.39,179.9l1.73-.09.06.23-.46.3,2,.77-.08.16h-3.79C176.08,180.41,176.08,180.41,175.39,179.9Z"/><path class="cls-1" d="M201.38,123.81c-.29,1.81-1.27,2.76-3.19,2.54Z"/><path class="cls-1" d="M131.8,167.76c-.61-.38-1.15-.7-1.67-1-.15-.1-.23-.29-.49-.63l3.92.39Z"/><path class="cls-1" d="M187.76,189c-.11-.08-.21-.21-.34-.24-1-.23-2.11-.44-3.39-.7,1.22-.9,2.3-.73,4.33.44l-.61.5Z"/><path class="cls-1" d="M94.71,111.09c-.3.82.05,1.86-1.24,2.34l-.41-3Z"/><path class="cls-1" d="M119.27,179.79a7.26,7.26,0,0,1-2.62-4.8l2.86,4.61Z"/><path class="cls-1" d="M209.94,158l3.33-2.83c.15,1.26-.76,2.23-3,3.14Z"/><path class="cls-1" d="M170.84,200.81l-4.61-1.21.14-.53,4.62,1.16Z"/><path class="cls-1" d="M235.9,141.65a6.87,6.87,0,0,1-3.56,3.52l-.24-.23Z"/><path class="cls-1" d="M221.57,110.57c-.52,1.25-1,2.51-1.57,3.81A2.81,2.81,0,0,1,221.57,110.57Z"/><path class="cls-1" d="M166.13,197.15c1.73-.57,3,.35,4.26,1.06C170,198.66,167.84,198.16,166.13,197.15Z"/><path class="cls-1" d="M212.38,174.6a4.4,4.4,0,0,1,3.9.53l0,.39-3.86-.51Z"/><path class="cls-1" d="M150.27,180.92l-3.94-.8C148,179,148.23,179,150.27,180.92Z"/><path class="cls-1" d="M151.74,186.64c-1.53.49-2.45-.67-3.74-1.23C149.84,185.13,150.73,185.44,151.74,186.64Z"/><path class="cls-1" d="M138.54,166.35l-5.2,1.18-.09-.36,5.18-1.33Z"/><path class="cls-1" d="M119.38,167.19l2.94,3.46A3.78,3.78,0,0,1,119.38,167.19Z"/><path class="cls-1" d="M153.75,181.58c-1.29-.65-2.78-.44-3.28-2.08C151.69,179.87,153,179.92,153.75,181.58Z"/><path class="cls-1" d="M177.08,187.47c-1.53.69-2.05.61-3.72-.64l3.78.26Z"/><path class="cls-1" d="M113.22,180.68l-1.2-4.83.35-.08c.49,1.6,1.28,3.13,1.16,4.88Z"/><path class="cls-1" d="M204.92,180.52,201,179.8l.1-.59L205,180Z"/><path class="cls-1" d="M143.57,178.23l3.2.57C145.16,180,144.44,179.86,143.57,178.23Z"/><path class="cls-1" d="M186.87,178.82l3.18.19v.36c-1.06.37-2.13.8-3.18-.08Z"/><path class="cls-1" d="M162.56,196.61l3.82,1.71c-1.59.29-2.09.1-4-1.37Z"/><path class="cls-1" d="M169.36,190.17l-3.72-.23,0-.35h3.74Z"/><path class="cls-1" d="M175.14,194.86l2.72-1C177.11,195.81,176.69,196,175.14,194.86Z"/><path class="cls-1" d="M160.65,185.59a10.47,10.47,0,0,1,5.28.3l0,.32Z"/><path class="cls-1" d="M205.46,124.14l-2.82,2.62C202.69,125.34,203.61,124.47,205.46,124.14Z"/><path class="cls-1" d="M133.11,168.34l3.46-.68C134.35,169.38,134.26,169.48,133.11,168.34Z"/><path class="cls-1" d="M196.13,133.91a6.28,6.28,0,0,1-1,1.29c-.29.24-.79.21-1.2.3.15-.37.2-.87.47-1.08a6.94,6.94,0,0,1,1.53-.72Z"/><path class="cls-1" d="M140.68,159.4c-.29.82-.49,1.66-1.76,1.29-.46-.13-1.07.26-1.62.41l-.11-.28,3.52-1.39Z"/><path class="cls-1" d="M203.83,166.63l3.94-3.22C206.55,164.62,205.71,166.27,203.83,166.63Z"/><path class="cls-1" d="M201.84,128.37l2.83-2.18.29.36-2.74,2.27Z"/><path class="cls-1" d="M183.39,182.68l2.53-.29.2.38c-.38.25-.75.69-1.14.72a5.53,5.53,0,0,1-1.65-.37Z"/><path class="cls-1" d="M114.72,134.28l-5.21-.65,0-.27,5.27.42Z"/><path class="cls-1" d="M223.28,113.48l.54-3C224.64,111.83,224.33,113.3,223.28,113.48Z"/><path class="cls-1" d="M182.2,190.8H181c0-1.71,1.06-1.51,2.26-1.43-.39.59-1.48.51-1,1.46Z"/><path class="cls-1" d="M219.32,117.41l2.35-2.12C221.73,116.8,221.16,117.31,219.32,117.41Z"/><path class="cls-1" d="M131.23,165.32l4.47-1.11C134.52,165.33,133.47,165.61,131.23,165.32Z"/><path class="cls-1" d="M156.68,183.59h4.49v.35h-4.46Z"/><path class="cls-1" d="M115.3,144.78c2.5.22,2.5.22,2.79,1.46Z"/><path class="cls-1" d="M156.76,149.31l1.47-1.05,1.31-.61.23.4L157,149.74Z"/><path class="cls-1" d="M160,182.35l-2.7-.6C158.37,180.71,159,180.85,160,182.35Z"/><path class="cls-1" d="M146.71,177.87l-3-1C145.62,176.24,145.62,176.24,146.71,177.87Z"/><path class="cls-1" d="M145.52,159.12l4.3-2.35.15.27-4.25,2.45Z"/><path class="cls-1" d="M194.64,166.82c1.24-.61,1.55-2.37,3.31-2.35l-3.09,2.61Z"/><path class="cls-1" d="M218.91,113c.45,2.65.41,2.89-.62,3.82Z"/><path class="cls-1" d="M107.28,163.46l1.21,3.85-.45.14-1-3.84Z"/><path class="cls-1" d="M144.53,195.32l2.94,2.12-.22.33c-.49-.33-1-.64-1.48-1s-1-.76-1.46-1.15Z"/><path class="cls-1" d="M176,182.91c1.06-.2,2.09-.31,2.54,1Z"/><path class="cls-1" d="M189.44,177.68c.9.16,1.95-1.27,2.7.14C191.22,177.87,190.27,178.42,189.44,177.68Z"/><path class="cls-1" d="M162.63,188l.65-.84,2.12,1.24-.08.24Z"/><path class="cls-1" d="M136.85,177.33l-2.31-1.5.22-.35,2.48,1.24Z"/><path class="cls-1" d="M192.86,176.6l2.5-.23.06.49-2.52.31Z"/><path class="cls-1" d="M178,179.25l2.67-.29.05.51-2.71.31Z"/><path class="cls-1" d="M220.72,114.72l.9-2.37C222.25,113.53,221.91,114.52,220.72,114.72Z"/><path class="cls-1" d="M171.05,185.47l2.66.35-.07.46C172.76,186.12,171.78,186.65,171.05,185.47Z"/><path class="cls-1" d="M152.6,190l-2.45-.74c.78-.58,1.34-.45,2.53.38Z"/><path class="cls-1" d="M186.88,183.11c.59-.2,1.17-.43,1.77-.57.09,0,.28.37.51.69l-2.11.5Z"/><path d="M169.78,167.25l2.83-1.64-2.74,1.68Z"/><path class="cls-1" d="M216.57,168.37l-.43-1.24h1.76l.15.22-1.49,1Z"/><path class="cls-1" d="M120.93,154.38l-4.06-.46,0-.28,4,.38Z"/><path class="cls-1" d="M182.45,183.94l-2.6-.73.11-.42,2.56.66Z"/><path class="cls-1" d="M105.76,129.47l-1.48-.85.91-1.07.75,1.69Z"/><path class="cls-1" d="M122.78,177.29l1.6,2.3-.31.22-1.73-2.2Z"/><path class="cls-1" d="M231.5,117.67c.05,1.11.6,2.33-.76,3.38.29-1.28.52-2.33.76-3.38Z"/><path class="cls-1" d="M164.7,187.14h3.07l0,.18h-3.12Z"/><path class="cls-1" d="M89.24,155.59l-2.72-9.19.48-.14c1.33,2.93,3,5.76,2.59,9.21Z"/><path class="cls-1" d="M86.43,128.41l.88,1.08-3.22,3.14-.39-.34Z"/><path class="cls-1" d="M95.29,148.15c1.59,4.31,1.78,5.55,1,6.3C96,152.28,95.62,150.22,95.29,148.15Z"/><path class="cls-1" d="M81.11,139.62l.32-2.8.58.07-.35,2.8Z"/><path d="M204.49,158.5c1.36-2.54,2.88-5,4-7.63s1.94-5.36,2.94-8.22c.54,2.17-4.57,14.32-6.61,16.07Z"/><path d="M191.09,143.75c-.53,2-1,4-1.61,6s-1.33,3.75-2,5.61c-.08.19-.31.33-.47.5a21,21,0,0,1,.52-2.41c1-3,2.07-6,3.13-9A3.32,3.32,0,0,1,191.09,143.75Z"/><path d="M233.34,140.39c-.21,1.32-9.05,7.89-10.15,7.79Z"/><path d="M155.72,157.6l3.56-4.06.27.23L156,157.89Z"/><path d="M150.58,195.7l-3.16-1.06.09-.29,3.18,1Z"/><path d="M149.09,170.11l-2.86,1.51-.2-.39,2.92-1.41Z"/></svg>