<svg id="Layer_1" data-name="Layer 1" xmlns="http://www.w3.org/2000/svg" viewBox="0 0 1920 1080"><defs><style>.cls-1{fill:#fff;}</style></defs><title>Artboard 1</title><path d="M1822.89,828.43l-14.67,22.14c.8,6.17,1.79,13.86,2.91,22.47l-10.37-3.17c-2.89,16.19-16.19,17.52-28.31,20.07-5.21,1.1-10.72,1-16.09,1-4.61,0-9.37.62-12-5.58-1.2-2.84-6.59-3.63-9.15-6.26-4.81-5-10.68-5.06-16.77-6.64-6.75-1.77-12.36-.35-18.32.49-25.06,3.52-49.56-1-74.11-4.79s-49.17-7.86-74-2.08a72.46,72.46,0,0,0-9.64,2.81c-1.4.55-2.42,2.08-3.62,3.17,1.34,1.29,2.51,3.38,4,3.7,3,.62,6.18.18,9.29.32,4,.18,8.08.49,12.12.75l.48,3.07c-3,.79-6.06,2.24-9.07,2.21-4.2,0-8.37-1.42-12.59-1.73-1.3-.1-2.72,1.44-4.08,2.23,1.15.76,2.32,1.49,3.46,2.27,8.43,5.82,17.24,1.52,25.94,1.1,6.2-.29,12.42-.05,19.2-.67l-14.73-4.48-.55-1.07c4-.43,8.13-1.87,11.82-1.08,9.91,2.11,19.67,3.77,29.88,2.41,5.48-.73,6.81.61,9.22,5.5l-22.4-1.84c-.35,7.35.09,7.71,11.28,10.77l-21.86,8.69c-.57-4.55-.89-7.18-1.09-8.76l-22.67-3.49-.64,2.83,13.74,4.55c-6.79,0-12.17.33-17.5-.05-41.1-2.94-82.21-5.72-123.26-9.24-12.41-1.07-24.76-3.85-36.92-6.75a45.83,45.83,0,0,0-23.09.34c-3.08.81-7.37,1.6-9.64.13-12.69-8.23-27.1-7-41-8-15.85-1.24-31.73-1.51-46.73-7.91-2.09-.89-6.49-.2-7.68,1.38-3.06,4-6.74,3.87-10.78,3.47-43.35-4.24-85.8.94-127.61,12.36a72.25,72.25,0,0,0-16.15,6.38c-3.48,2-6,5.61-8.89,8.46-.08-.22-.61-1.57-1.19-3.07-27.47.21-54,7.24-80.93,11.3-29,4.37-58.1,8.46-87.31,10.16-57,3.33-114.3,3.54-171.25,7.94-20.55,1.59-39.9-1-59.78-3.15a142.26,142.26,0,0,0-46,3c-31.72,7-63.85,9.32-96.08,4.55-9.78-1.45-19.27-5.48-28.61-9.08-22.88-8.82-35.63-10.18-55-4.64-3.16-8.24-9.8-8.58-17.9-8.11-24.74,1.43-47-6.7-68.16-19-9.64-5.61-19.76-10.41-29.78-15.33-7.07-3.47-13.25-7.54-18.59-13.79-2.6-3-9.58-2.35-14.59-3.32-1.79-.35-4-.06-5.36-1-10.27-7.11-20.54-14.24-30.49-21.77-7.45-5.64-14.38-11.95-21.66-17.82-1.63-1.31-3.66-2.69-5.63-2.92-16-1.92-29.51-8.8-40.92-19.89-8.67-8.43-16.88-17.35-25.55-25.8-4.15-4.05-8.35-8.64-13.45-11-10.31-4.78-17.07-13.27-24.53-21-3.1-3.23-5-7.64-7.71-12l-11.34-3.74L137.61,695.8l1.47-1c2.74,3.52,5.63,6.93,8.18,10.58,4.52,6.49,8.93,12.89,17.58,14.53,1.43.28,2.83,2.63,3.58,4.32,5.4,12.17,14.38,20,27,24.57,4.08,1.47,7.86,5,10.72,8.44,5.83,7.06,10.75,14.88,16.4,22.11,7.75,9.92,17.09,17.73,29.9,20.32,15.42,3.12,27.74,11.75,39.71,21.46,11.61,9.41,23.93,18,36.07,26.69,1.7,1.22,4.44,2.34,6.23,1.84,7-1.92,12.2,1.49,17.47,4.82,13.44,8.49,26.62,17.39,40.2,25.64,14.88,9,30.75,15.4,48.5,16.2,7,.31,13.73,2,17.7,9.11l2.08-.95c-1-3.36-1.92-6.72-3.18-11.15L491.44,899c-.24.82-.9,3.1-1.73,5.93,9.66.68,17.3-3.09,25-7.44s15.39-8,23.19-11.75c1.28-.63,3-.42,4.8-.63.24,3.88.45,7.38.68,11.2,8.58.31,8.5-5.68,8.36-12.11l12,4.12c-10.15,14.63-11.14,15.64-20.42,12.22.53,3.31,1,6.38,1.56,9.66,11.53-3.68,22.37-11.2,35.67-8.06l1.41-1.37a75.71,75.71,0,0,0-4.79-6,73,73,0,0,0-5.72-4.93l1-1.67h10.79c3.37,8.95,6.88,18.23,10.41,27.61,6.77-1.18,10.92-4.9,12-13.06.81-6.21.16-12.62,1.31-19.7,1.27,1.76,2.67,3.43,3.78,5.29,5,8.43,10,8.45,15.69.27a57.76,57.76,0,0,1,11.37-12.35c-3.72,7.38-7.42,14.65-1,21.47,1.56,1.65,7.41.26,10.77-1.06,5.21-2,10.16-5.1,7.83-12.55l1.51-1.06c1.59,1.41,4.14,2.57,4.58,4.28,1.33,5.09-3.93,10.24-13,13.23v18.64c9-3.43,11-10.76,12.19-18.55,9.64,1.62,10.69,1.24,29.75-11.25-3.33-4.88-6.64-9.75-10-14.72,4.41-3.73,9.44-.61,13.66,11.6,5.13-3.62,10-6.73,14.3-10.48.6-.53-1.57-4.22-2.52-6.61,6.3-4,11.51,1.41,12.35,14.27-4.93-4.41-9.64-4.19-14.27-.14-5.84,5.09-10.39,10.48-4.34,19,5.84.57,10.91-2.21,15.49-6.5A93.31,93.31,0,0,1,725.25,887c1.84-1.29,4.57-1.32,6.89-1.92l1.1,2.05-11.17,9c3.68,3.4,7.19,3,9.69,0,3.69-4.4,7.42-9.06,9.72-14.23s5.26-5.89,9.34-3.42c3.73,2.25,7,5.32,11.42,8.8l22.08-20.38c-3.77,11.26-7,20.77-10.14,30.28l2.22,1.75,11.36-6.78c-5.21,11.31-17.43,14.31-23.51,23.27,12.43.67,31.14-9.57,35.22-20,2.06-5.3,1.78-11.5,3.71-16.87,1.72-4.78,5-9,7.65-13.45l2.93,1.29c-4.26,12.92-8.53,25.83-12.74,38.6,7,1.63,24.23-10.2,24.14-18.58,0-2.64-2.48-5.25-4.13-8.5l16.42-3.12c-3.46,7.66-7,15.45-10.49,23.23l2.26,1.71,8.56-5.14c1.82,10.18-11.11,11.06-12.52,20.94,5.59-1.94,10.29-3.37,14.8-5.24,1.78-.74,3-2.82,4.74-3.69,11.32-5.63,10.7-14.93,7.93-25-.17-.64-.42-1.28-.57-1.93s-.18-1.26-.37-2.59c6.36,2.94,10.34,0,13.75-5-1.22,15.2-7.46,28.27-16.44,41.6,10-2.67,18.06-6.32,23.68-13.62a15,15,0,0,0,2.64-9.86c-.39-3.93.66-5.63,4-7.17,3-1.35,5.52-3.55,8.25-5.38l1.77-3.38c2.35,3.48,4.29,7.35,7.15,10.35,4.6,4.81,8.18,3.65,10.13-2.72.39-1.29.4-2.78,1.09-3.86,1.18-1.86,2.68-4.77,4.18-4.85,1.82-.09,3.87,2.16,5.64,3.62,2.64,2.19,5.11,4.57,8.93,8L909,915.37l28-15.68,1,1.6-13,8.66c9.83,5.22,20.3-1.05,26.66-15.19,6.59,5.86,8.49,5.66,13.88-1.22,3.12-4,6.39-7.83,9.6-11.74L977,883l-12.46,21.76c12.44-1.48,13.92-4.06,16.92-26.9l6.53,9.11,5.23-6.59c.78,13.57-11.46,18.12-17.84,28.16,3.86-.94,7.11-.94,9.36-2.43,6.67-4.43,13.43-8.93,19.26-14.37,7.48-7,7.22-9.1,2.47-18.17-2.3-4.37-4.12-9-6.15-13.49l2.2-1.53,11.76,18.56q1.82-1.8,3.65-3.58c-4.21,11.77-3.63,15.23,3.18,17.76-.89,7.79-8,8.53-13.35,11.23l.74,2.23,22.23-6.4-2.52-5.71L1029,891l7.61,4.46,3.65-4.94c.86,3,1.55,5.42,2.73,9.5l24.88-17.48V862.8l8.93,12.41c-1.58,3.26-4,8.25-6.86,14.21,7.56-4.62,17.36,2.66,23.68-6.74-6.47-1-6.46-5-3.69-9.07,3.55-5.22,7.82-10,11.78-14.89l1.91.87v16c9.61-.31,7.16-9.75,12.47-14.09,5.32,13.11-8.26,16.89-11.42,25.6,8.63-1,14.49-5.79,18.82-12.56,3.36-5.27,6.15-10.9,9.21-16.36,4.18-7.47,5.14-7.6,10.36-1.26,6.14-5.51-9.25-10.21.12-16.2l7.7,13.9c1.62-4.62,2.49-7.13,3.66-10.45,2.67,2.85,5,5.44,7.45,7.92,4.09,4.13,8.21,3.47,8.75-2.23.47-4.93-1.79-10.14-3-15.2a9.56,9.56,0,0,0-1.69-2.6l1.64-1.6c1.2,1.68,2.17,3.6,3.65,5a43.94,43.94,0,0,0,5.81,4l3.74-6.33c6.55,2.49,2.08,8.46,3.18,13.94l10.17-2.84c-2.14-2.88-3.88-5.23-5.7-7.7l15.32-4.62c-.38,3.59-.92,8.63-1.63,15.3,4.4-1.74,9-2.9,12.9-5.3,4.15-2.57,7.52-3,11.74-.42,5.2,3.14,7.66,1.92,8.8-4.11.63-3.34.62-6.81,2.51-10.18v15.05c5.26,2.44,10.77,5.46,16.6,7.6,8.88,3.25,11.57,2.18,17-5.22.87,1.22,0,5.55-2.74,12.84,13.51,2.35,15.15,1.69,18-8,3.49,2.87,6.7,5.53,9.92,8.19,6.14,5.06,8.27,4.8,13.43-2.59l5.95,11.54c18.69-7.23,36.73,2.08,55.38,4.1,1.34.14,2.74.72,4,.47,9.07-1.84,18.21-.63,27.3-1,2.48-.09,4.87-2.81,7.72-4.59.38.94,1,2.62,2,5,3.73-1.74,7-3.52,10.52-4.82,3.29-1.24,6.79-2.81,10.17-2.76,9.8.15,9.79.44,11.89-8.55l11.11,8.8-6,2.42c4.15,5.07,8,5.66,10.35.69,2.47-5.13,4.3-11.63,3.29-16.93-.51-2.68-7.91-4.1-12.27-5.92-1.13-.47-2.54-.27-4.25-.42l6.43-9.36-1.65-2.22-22.13,8c-.42-2.34-.74-4.15-1.14-6.39-11.71,8.13-24.09-.21-37.46,2.22,5.71-14.87,23.76-13.58,29.23-26.15,6.3,2.21,7.77,17.66,18.5,5,4.25,8.7-8.71,9.54-6.12,16.85,6.18,1.64,10-2.48,13.77-6.55,4.06-4.39,8.37-8.06,15.45-6.45-1.48,4.33-2.86,8.35-4.66,13.64,18-1.86,17.56-19.28,27.25-28.16.9,8.2-.56,14.49-5.86,18.28,2.18,4.69,3.86,9.31,6.42,13.37a10.87,10.87,0,0,0,6.3,4.11c2.2.53,4.77-.53,7.95.16l-7.7,5.21c3,5.85,6.32,6.41,13.84,1.59-3-7-6-14.14-9.6-22.65l12.89-5c-3.3,12.36-.39,20.88,8.29,27.17,7.32-4.1,7.56-7.85,1.42-21.81,5.79-1.52,7.77-.61,9.19,4.65.81,3,1,6.2,1.82,9.22,1.24,4.76,4.58,6.45,9.22,5.41s5.18-4.4,4.44-8.32c-.49-2.61-1.18-5.18-2.33-10.12,6.89,3.72,12.44,6.49,17.76,9.65,7.81,4.65,8.71,4.27,9.88-4.46.19-1.43,1.64-2.68,2.51-4,1.51,1,3.46,1.69,4.42,3.07s.84,3.36,1.55,6.76L1613,820.46l1.15,1.75-27.68,19.71,1.11,2.41c12.86-5,26-9.36,38.5-15.14,8.08-3.73,9.79-9,10.06-20.54l42.83-8c3.12,7.67-5.23,10-7.92,15.17,8.34-.94,12.92-4,22.62-15.18,4.38,5.39,4.27,9.72-1.33,13a60.11,60.11,0,0,1-15.35,6.48c-10,2.58-18.69,7.12-25.84,14.73a50.45,50.45,0,0,1-9.83,8.07c-2.11,1.33-5,1.36-7.6,2-.31-.72-.62-1.43-.94-2.15L1655.44,827c-5-6.74-10.38-8.16-17-3.81-5.38,3.56-10,8.2-15,12.32-3.27,2.69-6.59,5.32-10.19,8.23,19.89,13.52,36.15,2.39,53.42-6.78-2.43,2.57-4.75,5.25-7.33,7.66-2.76,2.57-5.76,4.88-8.9,7.5,6.27,5.42,11.56,2.71,16.71-.84,5.4-3.74,10.72-7.59,16.08-11.39l2,2.37L1674,851.93c3,7.05,4.43,7.52,10.44,3.48a11.55,11.55,0,0,0,3.09-2.57c7.32-10.21,16.91-10,27.43-6.26,13.07,4.6,26.13,9.21,39.31,13.47a53.59,53.59,0,0,0,39.23-1.77c-2.39-3.17-4.59-6.12-6.82-9-3.83-5-3.91-10.23-1-15.7,3.65-6.78,7.19-13.61,10.78-20.42l-2.1-2.12c-5.54,4.11-11.39,7.87-16.55,12.41-7,6.18-14.33,11.3-25.89,11.22,1.59-3.33,2.79-5.82,3.87-8.08l-16.8-1.24c1-9.08,2.26-19.62,3.61-31.34,1.77,2.7,3.6,5.5,5.44,8.29h2.22l2.42-6.15,2.41,1.33v11.32l6.41,5.21c5.47-10,3.32-20.78,3.68-31.13,9.62-.35,13.53,2,16.1,10l-4.19-2c.3,9.74,5.82,12.92,18.85,11.23.73-14-7.28-24-22-26a167.26,167.26,0,0,0-26.11-1c-15.84.38-31.61,2.58-47.45-1.41-3.85-1-9.36,1.3-13,3.7-9.21,6-18.93,8.28-29.84,8.31-21.64.06-42.81-2.06-63.65-8.35-4.26-1.28-9.72,1.42-14.62,2.27-2,.36-4.27,1.43-6.06.93-21.52-6-43.06-11.95-64.41-18.51-14.14-4.34-27.74-10.08-38.16-21.56,13.28-4.62,24.82,1.93,36.69,5.07,13.6,3.59,26.77,9,41.29,7.29,1.51-.18,3.83-.23,4.54.65,4.79,6,10.57,3.08,16.31,2.5,8.54-.86,16.5.7,22.81,8.85l5.88-7.75,16.7,12.14c11.09-5.1,14.31-11.08,12.85-25.42l42,13.27c-2.16-9.33-8.21-16.07-16-21.68l1.32-1.87c4.19,2,8.39,4.07,12.57,6.13,3.77,1.85,3.76,1.86,4-3l9.46,3.83c-5-11-17.69-18.62-31.74-19.69-14.68-1.11-29,.76-43.21,4.5-4.38,1.15-7.38,2.68-3.47,8.19l-11.06.69c-.35-.78-.77-1.43-.66-1.53,4-3.83,7.54-9.52,12.36-11.06,27.8-8.91,55.3-5.24,82.26,4.35A187,187,0,0,1,1752.66,767c1.59,1.52,4.13,2.94,6.22,2.93,27.61-.15,53.94,18.31,62.72,44.23a11.89,11.89,0,0,0,1.29,2.18ZM915.84,888c-13.56,7.3-25.81,13.07-35.17,26C896.55,910.06,909.08,904.67,915.84,888Zm-285.19,5.87c-15,.68-16.43,13.86-22.92,22.91,7.81,2,10.45-3,13.11-7.71,2.2-3.91,4.39-7.45,9.81-4.39Zm1168.9-39.71c-2.8-8.66,5.91-16.23.85-24.82-3.57,2.52-6.63,4.38-9.31,6.67-3.82,3.26-4.52,8.84-1.61,11S1795.51,851.26,1799.55,854.11Zm-118.4,9.55c12.41,2.64,23.84,1.15,33.55-7.54C1702.28,853,1691.63,858,1681.15,863.66ZM1692,753.81c9.09,5.54,14.83,16.69,29,17C1713.32,759.67,1702.51,757,1692,753.81ZM715.63,910.69c14.62-3.85,29-5.3,35.18-20.72Zm753.35-47c7.46,1.19,9.62-.73,13.1-11.91l-10.62-2.75c-.31,3.32-.37,5.51-.75,7.64C1470.29,859.07,1469.57,861.38,1469,863.73Zm-66.53-36.16c9.23,6.58,16.77,4.74,20.64-3.82ZM766.29,886.82c-1.55,6.92-10.65,7.58-8.32,15.53C767.35,900.27,770.39,895.68,766.29,886.82Zm129.51,3.59L884,887.05c-.53,5.71-1,10.1,5,12Zm788.9-130.09-1.84,1.3c-.74,3.73-1.48,7.45-2.36,11.84l12.44-4.38ZM1143.86,871c-6.32-2.16-10-1.32-12.75,2.51a4.07,4.07,0,0,0-.44,3c.14.6,1.54,1.55,1.83,1.39C1135.89,876,1139.17,873.93,1143.86,871Zm450-21,.82,2.13,12.86-1.6c-2.27-1.85-4-4.3-5.25-4.08C1599.39,847,1596.68,848.74,1593.89,850ZM1477.7,879.2c4.59,6.42,8.28,7,12.68,3.58Z"/><path d="M192.51,394.14c-11-18.13-5.29-37.77,14.83-50.07-1.83,6.8-3.52,13.35-5.35,19.87-2.32,8.24-3.27,8.86-12.91,7.83l4.59,11.5c5.45-6.67,7.83-7,14.22-2.29a45.94,45.94,0,0,1,7,6.24c9.75,11,15.79,5.59,25.25,1.5,8.45-3.66,18.11-4.54,27.54-5.35-11.79,5.67-26.56,3.15-36.08,16.27l14.23.95c-3.75,5.43-9.05,5.39-14.22,5.44-4.85.06-9.29-.58-11.83,5.73-1.26,3.15-6.19,4.78-9.38,7.21-1.93,1.47-3.69,3.15-5.93,5.09,3.78,2.8,7.11,5.29,10.74,8,1.3-1.45,2.38-2.67,3.47-3.9L235,441.86l-.49,2.14c-14.57-.21-18,9.75-20.83,20.76-2,7.91-2.94,16.36-9.64,22.45-1,.89-.48,4.07.14,5.91,3.55,10.53,5.21,21.23,3.84,32.67-8.14-.86-10.18,4.51-11.57,11,3.12,1.86,9.12-5.74,9.36,3.12,11.05-6.44,15.07-4.57,25.1,11.52,1.93-.75,4-2.45,5.78-2.12,14.74,2.77,26-4.74,35.51-13.73,6.65-6.31,13-6.31,20.26-5.69-.73,9.15-1.31,18-2.18,26.84-.62,6.33,2.61,9.51,8.16,11.27a56.13,56.13,0,0,1,6.86,2.7c5.74,2.71,7.7,7.06,5.42,13.58l-6-3.71c-2.43,5.12-.61,21.37,3.15,23.68,2.05,1.27,5.51.65,8.27.31,5.66-.7,11.27-1.78,18.68-3-1.73,6.23-2.65,10.74-4.24,15-2.88,7.74-6.21,15.32-9.25,23-2.56,6.48-8.51,8.4-14.46,4.41-2.56-1.71-4.95-3.69-7.41-5.55l-2,.58c.21,4.06.43,8.12.57,10.86-5.89-1-12.29-1.91-18.63-3.15-1.7-.33-4.19-1.2-4.69-2.46-4.44-11.13-13.46-17.6-23.08-23.56-4.55-2.82-9-5.76-13.73-8.76-4.37,6.44-8.69,12.62-12.78,19a33.45,33.45,0,0,0-3,6.72c-.92,2.5-1.1,6.91-2.47,7.28-4.34,1.18-9.63,2.28-13.53.77-4.95-1.91-9.07-6.22-13.25-9.84-4.73-4.09-8.95-8.78-13.78-12.72-1.63-1.33-4.47-1.17-6.75-1.69-.37,2.3-1.35,4.71-1,6.89a143.28,143.28,0,0,0,3.76,15.63c1.69,5.79-.34,8.06-7,8.33l34,26.16c2.65-4.81,1.51-8.75-2-12.08-3.09-2.9-6.51-5.46-9.78-8.17l1.84-2.32c3.13,2,7,3.37,9.25,6.12,5.86,7.29,11,15.2,16.43,22.81,5.21,7.25,9.94,15,15.92,21.52,8.59,9.4,19.69,11.38,32.58,8-13.54-16.79-33.81-27.34-40.17-49.18,13.23-2,18.6.71,25.58,12.51.69,1.18,2.29,1.94,3.61,2.62,13.09,6.69,26.64,12.6,39.22,20.14,16.51,9.89,32.72,19.68,51.32,25.86,7.89,2.62,15.15,8.5,24,9.86a18.39,18.39,0,0,1,2.55.81c5.8,1.83,9,5.5,8.58,12.13-8.66,2.84-13.3-4.9-20.19-7.55.24,8.33,4.48,13.32,11.73,15.58,7,2.19,14.47,3.15,21.32,5.74,4.56,1.73,8.35,5.44,12.58,8.1,1.74,1.09,3.68,2.33,5.64,2.55,20.91,2.4,40.19,8.68,56.2,23,2,1.79,3.94,3.65,5.78,5.61,10.71,11.45,11.19,14.3,4.43,27.94a5,5,0,0,1-3.58,2.24c-8.95.53-14.81,5.6-19.45,12.66-.74,1.12-1.54,2.2-2.3,3.31-8.29,12.08-8.72,12.12-22.76,6.47-2.78-1.12-6.16-2.11-9-1.57-30.25,5.75-56.73-3-80.64-21-10.91-8.21-21.06-17.41-31.76-25.91a26.86,26.86,0,0,0-9.29-4.82c-13.57-3.73-27.32-6.8-40.87-10.61-14.05-4-25.33-12.29-33.84-24.09-6.15-8.53-12-17.29-17.64-26.17-7.39-11.63-16.55-21-29.53-26.4-4.88-2-9.3-5.11-14.31-7.93l3.29-5.74c-.58-.71-.9-1.53-1.41-1.67-9.2-2.5-14-9.48-18.49-17.18-4.36-7.44-8.7-7.89-15.52-2.58l6.8,9.9L136.26,691c-3.26-3.11-7.92-5.63-9.49-9.43-4.31-10.46-7.23-21.48-10.89-32.21-1.56-4.57-3-9.36-5.49-13.41a61.61,61.61,0,0,1,3.39-70.53c1.63-2.12,3.14-5.12,3-7.64-.4-10.3,2.68-19.44,8.06-27.93,7.25-11.45,14.28-22.91,12.63-37.34,9.24-20.07,14.5-42.93,37.82-53.06,1.59-.69,2.79-3.4,3.2-5.37.54-2.57,0-5.35.1-8C179.18,410.17,181.56,404.77,192.51,394.14Zm11.56,9.19c-17.58,4.17-20.5,18.27-17.86,31.39,1.29,6.44.41,11.13-4,15.81-1.61,1.71-1.87,4.68-3.23,8.43l14.19-7.1c-4.48-25.09-4.37-26.32,4.45-31.51-1.37,4.78-2.34,8.15-3.31,11.52l1.12.39,19.46-28.1c-7-2.28-8.29,1.94-10.1,5.48-2.69,5.29-3.29,5.57-7.94,4Zm-54.47,104c7.86.15,15.2-10.87,14.18-23.56-1.57,7.56-5.12,10.33-10.37,9.06C152.07,498,150.83,502.66,149.6,507.36Zm20.17-29.42c7.53-6.33,17.46-10.18,20.54-20.5C184.53,465.42,171.15,465.94,169.77,477.94ZM457,811.43l-13.17-5.22-1,1.47c5.2,3.48,4.93,12.64,14.13,12.35ZM292.68,788.25l-11.18-14.6c-2.83,3.92-2.47,8,.4,11.81C284.46,788.89,287.69,790.94,292.68,788.25Zm11.14-1.55,1.94-1.64-11.7-12.64C292.75,781.73,294,783.23,303.82,786.7ZM214,442.48l.36,1.67-11.7,6.71,1.35,1.81c2.35-.84,5.36-1.07,6.87-2.69C212.59,448.13,213,445,214,442.48Zm4.65,108.77,3.65,5.13c1.27-1.54,3.64-3.16,3.53-4.6-.13-1.83-2.27-3.51-3.55-5.25Zm94.09,86.81c2.47-2.78,4.57-4.94,6.39-7.31a3.32,3.32,0,0,0,0-2.83A2.72,2.72,0,0,0,317,626.8C313.46,626.93,310.52,633.47,312.71,638.06ZM429.38,832.37c2.87-4.52-.11-6.82-3-7.84-1.83-.65-4.46,1-6.74,1.6a12.18,12.18,0,0,0,5,3.73C426.2,830.6,427.68,831.45,429.38,832.37ZM246.2,758l2.42,1.43c1.36-1.88,3.82-3.78,3.77-5.61s-2.63-3.57-4.1-5.35c-1.76,2.19-2,3.25-2.07,4.33C246.14,754.56,246.2,756.29,246.2,758Zm38.32,2.12a91.67,91.67,0,0,0,6.83,6.24c.77.58,2.36.39,3.44.07.49-.14,1-1.5.89-2.22C295.19,760.8,289.15,758.2,284.52,760.15ZM204.67,506.06c1-6.89-2.88-8.07-7.8-8.75C195.12,503.82,199.63,504.54,204.67,506.06Zm148.7,295.23-9.84-7.41V803Zm84.37,51c-.76-4.1-1.4-7.6-2.35-12.79C430.34,847.64,430.74,849.27,437.74,852.28Zm-152.22-223,1-1.64c-5.82-7.59-7.14-8.18-10.58-4.24Z"/><path d="M663.66,584.8l-13.06,2.85,30.65-51.14c-7.88-8.27-14-7.77-18.53.75a11.28,11.28,0,0,1-1.63-1.14c-10.14-10-11-9.66-15.79,3.46a72.43,72.43,0,0,1-8,15c-2.2-8.23,6.26-16.73-2.87-24.77,6.68.67,9.54-1.82,8.67-7.79,15.1,7.4,20.23,7,24-1.53,7.83,4.15,14.32,4,15.75-.76.68-2.28-.89-5.22-1.44-7.86l-2.44-.11,5.61-5.2c1.42,6,10.43,9.75,3.37,17.13,7.19,4.1,13.9,2.8,28.6-5.65,8.07,9.31-3.9,13.2-5.53,20.13,6.39,2.64,11-.85,14.81-4.78,6.77-7,13-14.64,19.77-22.46L738,507.53l17.42-8.63,1.11,1.1-17.63,25.34c5.26-.54,9.43.09,12.34-1.53,3.51-2,6.28-5.62,8.77-9,2.31-3.13,3.84-6.84,6.59-11.92-.53,10.35-5.34,16.37-11.17,21.63a117.6,117.6,0,0,1-11.83,8.78c-1,.67-2.59,1.35-3.54,1-9-3.29-13.65-1.31-19.34,9.62l10.61,1.5,0,.44c-8.7,0-17.43-.41-26.11.11-10.72.64-15.19,7.87-11.77,18.43l20.92-12.14,2.07,2.46c-3.72,4.11-7.26,8.4-11.2,12.3a216,216,0,0,1-17.61,16.24c-1.84,1.46-6,1.62-8.29.55-5.46-2.61-8.52-.28-11.09,3.89-2.45,4-4.59,8.11-6.89,12.23,6.54,5.6,12,3.49,20.66-8.32.49.41,1.14.71,1.43,1.22,4.61,8.1,10.25,8.91,16.41,1.16,3.75-4.71,5.69-10.85,8.63-16.71,6.26,4.79,12.73,2.52,19.3-1.08,2-1.1,4.54-1.21,6.83-1.78.26,2.23.51,4.45.82,7.22,5.75,1.2,7.65-2.59,8.81-7.53,1-4.3,2.23-8.55,3.43-13.1-2.86-4.66-6.32-2.6-10.11-.61a21.35,21.35,0,0,1-9,2.29c4.4-10.84,20.07-2.25,24.59-15.59,1.13,2.31,2.27,4.61,3.83,7.79,6.61.77,11-3.5,14.19-15.83-7.2-1.89-9.35-.59-13.29,6.92a48.25,48.25,0,0,1,1.05-5.51c.64-2.1,1.59-4.11,2.13-5.46l17.76-1.3c-1.8,8.76,6.45,6.46,11.7,8.8-3,1.49-5.59,2.75-8.15,4-5.76,2.77-10.62,4.51-9.34,13.83.91,6.68-4.64,14.25-7.44,21.76,10.93,1.22,13.42-8.56,17.47-15.82,3,1.75,5.83,4.56,8.85,4.81,3.26.28,6.94-1.4,10.05-3,5.36-2.75,10.25-6.47,15.67-9.08,4.67-2.26,9.81-3.54,15.59-5.55,2-7.87,1.12-14.78-2.81-17.73,3.4-5.76,10-6.16,18.4-1.11,7.55,4.56,8.78,9.25,4.38,16.62,6.68-.9,14.65-6.06,17.29-11.43.48-1,.66-2.78.1-3.4s-2.37-.75-3.41-.41c-2.79.91-5.46,2.18-9.93,4,3.45-7.28,3.39-11.64-5.07-11.33,3.94-5.65,8.56-5.87,12.69-3.16,4.59,3,9.24,6.62,12.36,11,3.77,5.34,7.31,4.9,11.78,2,3-2,5.82-4.12,9.62-6.84L888,520.34c.56,3.66.93,6.06,1.55,10.09l-17.67-5.52c-.24-.81-.47-1.63-.71-2.45,3.92-4.09,7.53-8.53,11.82-12.18,6.11-5.21,11.57-10.52,12.36-19.15.09-1,2.11-1.89,3.23-2.83.24,1.46,1.05,3.12.6,4.33-.81,2.22-2.37,4.17-3.69,6.37,7.5,2,7.5,2,14.26-9.2,2.84.94,5.67,1.95,8.53,2.82,4.14,1.25,7,.13,10.5-3,9.78-8.86,22.56-8.37,35.08-9.87-7.17,12.09-8.93,13.56-16.61,13.59,3.74,5.49-9.38,8.36-1.36,14.75L1004,476.23c.5.82,1,1.65,1.49,2.48-3.74,2.42-7.19,5.66-11.28,7.11-15.4,5.45-26.6,16.16-37.21,27.89q-12.86,14.19-26.19,27.95c-15.5,15.92-34.63,20.6-56.06,17.16-11.36-1.83-21.7-.26-31.25,6.63-7.48,5.41-16.25,7.15-25.4,7.47-8.21.29-9.64,1.59-11.43,8.12-8.86,2.11-17.28,4.23-25.75,6.1s-16.84,3.45-25.47,5.21c-.74-12.79,3.32-21.3,12.39-27.84-6.15-5.24-10.3-5-14.48,1.81-3.71,6.07-6.35,12.79-9.69,19.11-2.57,4.86-5.51,9.53-8.39,14.49C726.52,592,722.41,592.6,712,603V589.15L710.37,588c-8.58,20.81-27.65,18.15-44.15,21.12-8.54,1.54-16.39,4.22-23.22,11.52,10.87,3.84,20.76,9.52,31.53.95,1.12-.89,3.41-.59,5.11-.4,26.28,2.94,51.78-1,76.9-8.47,1.66-.49,4.12-1,4.66-2.18,4.71-10.37,14-9.16,22.38-8.39,9.75.9,19.35,3.41,29,5,10.5,1.67,21,1.93,30.84-3.19l1,1.58c-1.91,1.23-3.75,3.39-5.76,3.56-13.83,1.17-27.69,2-41.55,2.78-13.2.71-26.5.75-37.7,9.48-1.16.9-3.37,1.91-4.29,1.4-7-3.81-10,3.15-14.91,5-11.44,4.22-23.13,7.87-34.94,10.94-8.19,2.14-16.76,2.74-25.08,4.43-1.94.4-3.54,2.46-5.29,3.76,1.52,1.69,2.75,4.32,4.61,4.89,4.9,1.48,9.2,2.83,8.2,7.13,3.12,3,5,5.51,7.39,7s5.37,2.79,7.87,2.46c12.4-1.63,24.73-3.85,37.08-5.83,2.16-.35,4.34-.54,8-1-8,8.21-17.09,10.38-26.24,11.61-34.36,4.58-68.76,8.82-103.18,13-4.62.56-9.39,0-14.08-.1-4-.07-7.61-.62-5.18-7.92-13.44,3.1-25.3,5.85-37.17,8.57-12.62,2.91-25.2,5.25-36.75-4.07-4.16,5.81-9.32,5-15.08,3.26-7.16-2.17-14.55-3.61-22.79-5.6l10.38-1.7c-2.39-6.87-5.88-8.7-14.6-8.34a76.8,76.8,0,0,1-14.63-.39c-4.54-.69-7.68-3.1-6.63-8.87.25-1.37-2.46-4.36-4.23-4.77-3.38-.77-7.07-.22-11.16-.22,1.69-7.14-2.38-10.71-7.55-12.78-9-3.6-17.94-8.84-28.07-3.15-.56.31-1.67-.17-2.45-.46-9.38-3.46-18.8-6.85-28.11-10.49a26.65,26.65,0,0,1-10.13-6.8l7.42,1.39c-.2-6.9-6.45-6.35-10.07-8.76,6.47-5,6.05-8.49-1.56-12.12-4.64-2.22-9.81-3.81-7.48-12.64l6.11,9.12c10.23-9-.86-21.05,4.63-31.06-6.82-1.6-10.87.32-12.34,7.39-4.86-7,.35-16.71-7.7-23-6,10.88-9,21.27-3.81,32.93-4.92,4.3-7.22.52-7.55-3.34a61.21,61.21,0,0,1,.82-18.59c1.13-4.9-.08-7-4.26-8.59-4-1.48-7.86-3.24-11.89-4.52-5.85-1.85-6.85-5.74-5.16-11,.55-1.7,1.2-3.37,1.86-5,6.11-15.32-.87-26.25-17.6-27.55-13.63-1.06-19.88,1.17-29.73,10.63-6.66-2-4.53-6.79-3.23-11.49-7.23-1.37-10.59,3.53-14,8.36L253,513a68.71,68.71,0,0,0,3.87-6.75c1.33-3,2.28-6.2,3.39-9.3-3.39,1-7.39,1.26-10,3.29-3.19,2.5-5.19,6.51-7.55,9.65-1.86-3.23-1.61-3.07,3.46-11,2.22-3.49,3.17-7.79,3.76-12.22-10.33,3.73-13.55,13.86-21.73,22,2.67-17.79,18.69-25.77,23.79-41.43-9.34,1.64-13.78,8.76-19.85,13.83,3.25-16,26.17-27.76,40.76-19.63l-16.54.9c-.28,8.21,3.55,12.92,11.95,14.87,5,1.16,10,2.35,15,3.61s7.25,4.19,4.46,10l10.25.52c-.74,10.14,1.44,11.9,13.89,11.16,2.28-4.78-11.34-11.17,1.47-14.87-4.19-9.83-9.21-19.6.55-29,10.33,9.7,13.91,20.37,8.61,28.66,2.78,1.27,5.48,3.51,8,3.3,1.77-.15,4.52-3.56,4.63-5.63a89.15,89.15,0,0,0-1-17.64c-.76-5.05-2.5-9.95-3.81-14.91l2.09-.73c2.61,5.08,5.07,10.25,7.9,15.2,2.64,4.64,5,9.83,8.78,13.33,3.27,3,8.45,3.87,12.73,5.81a39.7,39.7,0,0,1,4.33,2.67c-.2.95-.41,1.9-.61,2.85l16-5.67,1.47.86c-1.33,2.32-2.17,5.21-4.08,6.83-3.55,3-8.09,4.92-11.49,8.08-1.52,1.4-1.26,4.72-1.8,7.16,2.21.38,4.85,1.74,6.55,1,7.74-3.46,15.26-7.42,22.77-11.39,9.4-5,18.89-9.37,30-7.66a3.76,3.76,0,0,1,2.83,1.93l-5.91,1.76c7.21,5.84,24.2,4.45,38.89-3.69,7.16-4,14.05-8.6,14.44-20.37l-11.93,7.24c-1.28-6.74,1.74-11.83,6.66-15.52,11-8.25,23.43-10.7,36.83-7.34,4.55,1.15,4.76,2.31,3.43,13.12-5.76.52-11.73.85-17.63,1.7-1.94.28-3.69,1.9-5.52,2.91,1.3,1.48,2.61,2.95,3.88,4.45a16.6,16.6,0,0,1,2.55,3.43c.13.28-1.23,1.69-2.1,2-6.92,2.14-6.94,2.09-7.71,9-12.13,1.86-24.34,4.09-34.33,12.06l.62,2.34,10.36-3c-1,8.86-6.64,12.84-13.36,14.74-9.62,2.73-19.55,4.36-31,6.81l7.27,2.68c.1.51.19,1,.29,1.52-4.34.7-8.67,1.71-13,2a59.47,59.47,0,0,1-10.72-.68c-4.09-.49-5.86,1.19-7.14,5.14-1,3-3.77,5.52-5.75,8.25l-1.51-.87a7.44,7.44,0,0,1,.69,1.73c1.09,7.69,4.13,13.77,9.69,19.88,4.06,4.48,3.55,13.11,5.08,19.89l-2.09,1.66-11-2.14c.72,14,15.14,13.77,22.9,22.37-.65-3.24-1-5.05-1.61-8.12,9.71,8.2,16.21,19.93,31.48,17.21-1.94-2.62-3.23-4.38-5.51-7.49,3.3,1.12,5.51,1.53,7.34,2.59a71.31,71.31,0,0,1,7,5.16c6.55,5,13.26,8.74,22.48,1.19v12.79l19.35-6c6.92,8.68,14.63,8.57,23.89-2.3l2.44,9.4c11.29-1.39,23.15-1.93,34.58-4.44,27.5-6.05,54.77-13.09,82.18-19.55A159.35,159.35,0,0,1,650,603.63c5.12-.66,8.84-2.39,9.41-8.42C659.71,592.51,661.5,590,663.66,584.8Zm-119,69.35c-1.72-2.43-2.66-5.08-4.3-5.64-1.44-.49-3.89,1.07-5.52,2.24-3.13,2.26-4.88,7.21-10.39,3.37-3.63-2.53-8.2-5.53-12.21-5.36-10.85.47-21.63,2.53-33.09,4,3.41,4,11.67-.12,10.5,9l-21.15-4.12c7.57,10,27.46,12,40.09,5.84-3.95-3.24-12.7-.59-12.51-8.85,7.9.5,15.2.94,22.5,1.44,4.92.33,9.18,1.49,9.37,7.56-4.87,2.71-9.33-6.12-14.27.29,8.58,10,21.37,2.53,31.39,9-1.85-10.35,5.24-7.57,10.27-8.59a12.81,12.81,0,0,0-6.24-2.93c-2.86-.29-5.85.53-8.69.16-2.12-.27-4.09-1.69-6.13-2.59a61.47,61.47,0,0,1,5.19-3.52C540.54,654.92,541.93,654.83,544.62,654.15ZM707.05,530.3c-8.69-3.08-16.57-1.5-20.23,5.51-5.65,10.81-9.87,22.36-15,34.39,12.64-1.7,15.58-7,12.78-20.25,3.9-2.78,8.11-5.32,11.76-8.5S703.29,534.25,707.05,530.3ZM566.71,647.15c11.35,11.78,30.44,12.64,40.66,2.57.74-2.64,1.49-5.29,2.74-9.71C596.53,648.53,582.87,651.61,566.71,647.15ZM405.54,505.38c10.85,7.29,19.69,7.6,24.48,1.13-4.12-1.23-8.33-2.35-12.43-3.74C413,501.2,408.64,500,405.54,505.38Zm257.3,163.28c-8.77-9.47-24-11.32-31.43-5.4Zm11.94-92.87-1.06-2c-10-1.35-13.38.85-12.4,9.43Zm-223.1,72.88c13.6,5.7,13.6,5.7,17.2.71C462.93,651.32,458.54,640.79,451.68,648.67Z"/><path d="M617.41,240.34c-.54-6.75-1.12-14-1.78-22.38,12.57-.17,24.26-1.19,33.92,4.5.35,4.36.57,7.61.89,10.85.17,1.75,1.36,4,.64,5.13-4.22,6.43,1.09,8.66,5,10.23,5.94,2.4,12.39,3.56,18.64,5.2,1.5.4,3.32.21,4.55,1,8.78,5.6,16.47,1.66,24.91-1.57a253.35,253.35,0,0,1,38.37-11.7c17.79-3.74,34.79-.9,49.23,11.19,13.57-11,33.62-10.24,38.31,2.37-3.41-1.08-6.37-2.53-9.44-2.84-4.12-.42-8.53-.7-12.46.31-7.29,1.87-7.46,3.55-2.54,9.37,1,1.2,1.38,2.94,2.39,5.18l-5.26-1-1.25,1.48,5.94,3.29-.63,2.58-16.83.83c-.3.64-.61,1.27-.92,1.91l8.09,4.65.18,1.4c-2.48,0-5-.08-7.44,0-3,.13-6,.41-9,.62l4.09,7.2c-10.4,5.81-35.13,3.89-40.93-3.74-16.94,5-34.09,6.6-51.39,1.29-1.06-.33-2.14-.64-3.17-1-11.63-4.55-11.62-4.55-17,7.6,11.08,4.95,12.64,16.1,17.26,26.76l-32.11,2.72c.26,2.42.44,4.1.65,6a8,8,0,0,1-2.4.66c-10.28-.38-20.56-.93-30.85-1.26-10.57-.34-20.89-.64-29.27,8.33-1.67,1.79-8.32.14-12-1.46-3.9-1.69-7.1-4.57-12-1.52,1.41,2.86,2.74,5.57,4.69,9.56l-26.85,5.89-1.06-1.35a46.16,46.16,0,0,0,3.14-3.87,43.05,43.05,0,0,0,2.14-4.17c-1.59-.36-3.27-1.24-4.74-1-3.51.62-6.89,1.87-10.37,2.66-.91.21-2-.35-5.15-1,13.8-4.72,17.45-13.61,15-26.08l16,3.8,1-2-11.85-8.62c10.35-10.79-5.79-13.74-6.91-22.72,2.85,2.71,5.19,4.75,7.33,7,5.34,5.58,5.56,5.63,12.22.79-.79-5.2-3.8-8.29-8.65-10.61-5.6-2.69-10.71-6.39-17.12-10.31-4.06-.28-10-.68-15.83-1.11-4.93-.37-8.67.39-9.8,6.42s-5.94,4.68-10.2,4.41c1-7.93,8.93-15.4,18.55-17.16,2.18-.4,4.69,1,8.8,2,.51-1.23,1.68-4.08,3-7.42h15.27l.84,1.09-7.61,5.43c2.11,5.57,8,8,13.05,7.31,10.83-1.42,17.54-9,20.27-17,8-1.73,14.54-3.26,21.09-4.5s13-2.15,19-3.12c-6.06-7.61-27.74-7.58-40.91,2-.25-2.88-1.3-5.46-.43-6.75,1.94-2.88,4.92-7.34,7.34-7.25C594.39,237.26,605.61,239,617.41,240.34Zm141,10.06c9.73,4.76,20.12,2.34,27.43,9.3l-4.46,6c4.87,1.16,9.07,5.32,14.26.18C786.38,254.1,775,248.52,758.37,250.4ZM648.22,235.87c-11.83-7.32-17.36-8.06-21.48-3.38,3.46,2.28,7,4.51,10.45,6.89C642.14,242.79,645.84,242.2,648.22,235.87Zm112.17,44.41c4.07-1.31,7.49-2.69,11-3.46,3.7-.81,7.53-1,11.92-1.55-6.63-9.21-15.85.85-23-4.3ZM631.57,255c4.24-.35,7.77-.71,11.31-.94,3.73-.24,7.55-.23,8.11-5H628.6C630.11,252,630.88,253.56,631.57,255Zm31.39,35-.5-3.45c-3.88.3-7.92.09-11.56,1.18-1.36.4-1.8,3.87-2.66,5.94l1.59,1Zm-84.17-23.29-6.59,4.07c1.68,1.11,3.42,3.22,5,3.11,2.39-.17,4.67-1.89,7-2.95ZM777.5,287.76c-6.91-6.66-11-6.11-13.39,0Zm-57.57-22.44.24,2c2.78.75,5.52,1.9,8.34,2.08,1.45.1,3-1.52,4.55-2.36-1.1-1.32-2.27-3.8-3.3-3.75C726.46,263.45,723.21,264.57,719.93,265.32ZM681.28,311c-3.53-1.16-5.51-2.47-6.32-2-2.33,1.5-4.19,3.73-6.24,5.67,1.27.8,3,2.57,3.72,2.23C675,315.78,677.22,313.86,681.28,311Z"/><path d="M635.08,190.62l3.75,4.26-.54,1.81c-2.42-.81-5.25-1.08-7.14-2.57-2.39-1.89-3.71-5.14-6.08-7.08-1.85-1.51-4.61-1.89-7-2.78.75,2.42,1,5.16,2.36,7.17,1.7,2.53,4.45,4.34,6.43,6.72.88,1.06,1,2.77,1.66,4.93-21-1.67-40.87,10.47-61.41,1.06-.33.6-.66,1.19-1,1.79l7.2,4.52c-11.31,14.1-21.49,17.39-31.61,8.06l12.1-.69c.6-9.64-3.06-13.1-18.07-17.43,3.38-6.18,10-9.45,17.88-7.58,8.44,2,16.64,5,24.93,7.61,2.7.85,5.36,1.87,8.7,3.05,2.74-11.05-8.72-16.47-8.61-26.39,33.82,2.38,67.49,3.94,100.09,14l.84-1.91c-6.69-3.77-13.16-8-20.11-11.21-13.55-6.24-28.25-10.16-39.7-20.56-1.23-1.12-3.82-1.17-5.74-1.05-19.65,1.17-39.43,1.43-58.9,4-29.25,3.86-58.33,9.13-87.38,14.36A51.83,51.83,0,0,0,448.56,182c-15.25,10.21-31.58,16.75-49.9,17.79-10.42.6-18.08,5.57-24.44,13.4A133.26,133.26,0,0,1,363,225.68a102.31,102.31,0,0,1-15.29,12c4.57-12.66,12.18-23.15,21.94-32,10.77-9.78,23-16,38.23-15.15,12,.71,22.66-4.34,33.14-9.55,13.57-6.75,26.39-15.41,42-17,14.25-1.46,28.64-2,42.76-4.23,8.2-1.29,16-5.09,24-7.76,1.45-.48,2.91-1.37,4.36-1.37,23.29-.09,46.59-.06,68.15-.06,3.61,3.19,6.07,5.38,8.57,7.54.67.57,2,.94,2.1,1.51.85,8.08,7.94,6.63,12.83,8.63,16.54,6.78,33.25,13.19,49.47,20.67,25.91,11.94,52.64,17,81,12.52,2-.32,4.84-.43,6.2.69,11.37,9.39,25.2,10.79,39,12.78,15.22,2.2,30.44,4.49,45.58,7.18,12.69,2.25,25.28,5,37.86,7.84a8.49,8.49,0,0,1,4.52,3.35c12.7,17.9,30.31,28.15,51.32,32.91,5.48,1.24,9.12,4.23,13.26,7.88,11.88,10.43,24.77,19.7,37.11,29.62a25.28,25.28,0,0,1,6.17,7.29c7.86,14.28,15.47,28.71,23.06,42.9-1,.59-3.45,1.3-3.51,2.18-.46,6.44-.52,12.92-.47,19.39,0,.57,1.92,1.78,2.47,1.55,1.27-.53,3-1.63,3.18-2.74.46-2.59-.22-5.39.25-8,.29-1.64,1.82-3.05,2.8-4.57,1.28,1.22,3.61,2.39,3.65,3.64.11,3.81-.66,7.65-1.09,11.47l-2.46,1.13L1062.55,388c1.59,9.73,6.46,19.16,20.57,21.25l-7,9.36c-3.65-2.74-7.75-4.93-10.66-8.19-7.73-8.61-8.27-8.91-17.46-2.85l-7.24-11.35c-11.9,18-23.66,35.83-35,53.06l-10.78-4c8.19-10.23,16.61-20.76,25-31.18-5.06-.15-7,4.72-9.68,8.14-2.33,3-4.44,4-8.34,3.67a44.08,44.08,0,0,0-14.56,1.2c-8,2-9.45,5.14-7.85,13.16L969,443.85,974.33,433h-7.71c-3,16.35-9.8,22.13-26.76,22.78-5.6.21-11.22,0-16.82,0L923,454l12-2.15c-12.89-11.08-26.39.71-38.73-5.66l36.11-12.1,2.25,8.13,15.15-15.38-1.31-1.53c3.82,1.47,7.53,3.59,11.49,4.28,6.36,1.09,5.94-4.31,6.17-6.75,8.37-1.28,16.51-1.12,23.32-4,5.31-2.28,8.49-9.09,13.5-12.64s12.28-4.59,16.77-8.69c8.41-7.66,10-18.79,10.43-29.62a80,80,0,0,0-10.85-44.36,26.72,26.72,0,0,0-8.41-8.25c-8.56-5.59-16.33-11.64-20.78-21.31-1-2.23-4.11-3.82-6.57-5.05-7.54-3.74-15.82-6-20.69-14.1-1.24-2.06-5.64-2.12-8.48-3.34-11.22-4.81-22.46-9.59-33.54-14.68a10.48,10.48,0,0,1-5.19-5.08c-3.76-10-13.12-12.36-21.24-16.36s-15.92-7.9-25.69-8.61c-23.09-1.69-46.6-1.11-68.93-8.92-2.74-1-5.82-1.52-8.06-3.19-9.35-6.92-19.46-7.58-30.75-6.45-23.5,2.34-46.14-4.48-69.06-8.28-12.55-2.08-25.3-3-37.86-5.12-6.2-1-12.17-3.44-18.24-5.22Zm318.43,251c-11.16,2.28-12.68,3.49-14,10.79C948.38,453.75,952.37,450.82,953.51,441.6Zm94-50.38c.09-1.17.17-2.33.26-3.49l-9-1c.26,1.23.3,3.38.83,3.51A57.44,57.44,0,0,0,1047.55,391.22Z"/><path d="M1432.4,697c.79,6.31,4.45,8.48,10.86,9.72,12.47,2.41,24.55,6.69,36.87,9.9,7.31,1.91,14.76,3.27,22.65,5-12.25,2-23.94,1.08-35.54-1.76-21.29-5.2-40.92-14.19-59.35-26a32.1,32.1,0,0,0-8.39-4c-32.93-9.29-62.65-25-90.37-44.76a47.37,47.37,0,0,0-11.11-6,106.17,106.17,0,0,1-42.7-28.28c-3.18-3.48-6-5.41-10.9-4-2.32.65-5.13-.46-7.46-.73-.24-4.15.72-8.47-1-11s-6.67-2.65-9.14-5c-5.53-5.14-10.29-11.08-15.55-16.52-5.85-6-11.69-12.12-18-17.65-2-1.73-5.58-1.44-8.18-2.64-1.88-.86-3.32-2.65-5-4l1.35-1.88,9.54,5.33c1.13-7.39-1.06-12.26-7.65-14.53-6.07-2.09-12.57-3-18.88-4.38-2.38-.53-4.77-1-7.2-1.5,1.19-3,1.19-3,20.13-3.46-7.47-17.5-22.64-17.52-38.49-17.81.65-2.5,1.22-4.72,1.87-7.26l-4.11-1.63c.54-.71.83-1.5,1.34-1.68,6.7-2.35,12.42-2.47,18.88,2.53,14.87,11.51,32.16,20.85,41.28,37.82s23.4,29.07,36.4,42.53c16.69,17.26,33.74,33.61,56.37,43.33,8,3.45,14.72,10.07,22,15.25a15.58,15.58,0,0,0,1.55,1.29c16.37,8.64,32.58,17.61,49.23,25.68,5.65,2.74,12.41,3.17,18.64,4.72,1.62.41,3.71.56,4.69,1.64C1399.21,688.58,1414.91,694.3,1432.4,697Z"/><path d="M280.77,341.7l-11-9.71c5.83-3.54,16-4.38,30.49-1.58l-7.12,8,6.21,4.79c5.43-2.7,9.7-5.21,14.26-7,7.93-3.1,17.46-3.51,20.69-13.82.27-.86,3.07-1,4.73-1.31,8.07-1.3,16.14-2.54,24.43-3.83,1.24,3.62.89,4.48-3,5.39a1.92,1.92,0,0,1-.67.07c-19.44-3.44-28.51,10.27-38.26,23.22l29.06-7.54,1.28,2.1c-4.12,3.45-7.75,8-12.46,10.18-20.4,9.54-41.18,13.67-62.12,1.09-.88-.53-2.24-1.07-3.06-.76-8.93,3.38-17.1,1.31-25-3.07-.25-.14-.78.27-1.66.6a18.21,18.21,0,0,0,.58,3.61c1.16,3.2,1.1,6.33-2.83,6.48-1.44.06-3.94-3.15-4.35-5.2-1.12-5.5-1.36-11.18-2-17.07,3.36.71,5.41,8.57,10.2,3.55,1.66-1.75.8-5.88,1.35-11.54l-34,11.05c-1.39-4.4,2.8-6.72,6.45-8.26A196.49,196.49,0,0,1,244,324c5.17-1.51,8.93-4,11.7-9,6.55-11.85,16.85-20.29,27.87-27.71s22.39-14,33.37-21.37c7.39-4.94,14.35-10.51,22.65-15-5.08,5.93-9.31,13-15.41,17.57-13.41,10-27.85,18.68-41.7,28.14-6.08,4.15-11.88,8.76-17.53,13.5a22.85,22.85,0,0,0-6.34,7.73c-2.26,5.1-6.23,11.63-4.68,15.74,2.61,6.86,10,10.57,18.07,10.62,2.43,0,4.86,0,7.29,0Z"/><path d="M376.49,658c-5.55,3.6-5.24,4.95,2.71,12.13l2.75-5.24c.56.1,1.6,0,1.71.34.77,2.14,2.26,4.55,1.82,6.49-1.45,6.48-.45,10.77,8.17,10.63a49,49,0,0,1-2.32,4.5c-1.15,1.7-3.84,4.23-3.48,4.74a12.74,12.74,0,0,0,5.8,4.88c4.19,1.4,8.69,1.87,13.86,2.88-3,5.34.11,7.53,4.11,9.22s8.36,3.21,12.34,5.2,5.19,4.86,1.82,8.46l-17.5-12-1.59,1.69.55,4.85c-17.33-5.83-30.33-17-41.78-32.46-1.52,4.71-2.67,8.3-3.83,11.88l-1.79.57-5.53-14.17c-29.81-4.79-29.81-4.79-34.87,1.64l-12.29-18.83C323.42,659.42,367.17,654.47,376.49,658Z"/><path d="M589.47,409.28c-1.58,10-7.89,15.65-16.59,18.55-9.09,3-18.53,5-27.73,7.71-5.95,1.76-11.74,4-17.82,6.13L528.79,431c-8.84-1.09-13.19,1.63-15.51,9.18-5-5-4.16-10.19,2.66-18.31,4.69.62,9,1.5,13.38,1.62,1.66,0,3.36-1.67,5-2.58A46.61,46.61,0,0,0,530,418c-1-.5-2.37-.22-3.18-.83a4.92,4.92,0,0,1-1.92-3,3,3,0,0,1,1.76-2.38c19.77-2.59,39.22-10.43,59.58-4A32,32,0,0,1,589.47,409.28Z"/><path d="M793.81,598.78c.93-2.64,1.08-6.54,2.93-7.68,4.43-2.73,9.57-4.43,14.58-6.05,5.18-1.68,10.55-2.79,15.83-4.14,15.77-4,31.55-8,47.3-12.17,18.33-4.8,36.86-9,54.87-14.8,12.62-4.06,22.56-12.6,29.21-24.5a5.55,5.55,0,0,1,4-2.53c.95,0,2.57,1.85,2.81,3.08s-.81,2.78-1.77,3.69c-6.6,6.32-14,11.9-19.88,18.84-10.72,12.79-23.17,18.85-40.45,19.67-27.76,1.32-54.45,9.76-80.78,18.63-8.86,3-17.73,5.94-26.59,8.91Z"/><path d="M266.2,410.74l-25,3.18c2.21,7.69,8.68,12.22,19,11.85,7.54-.27,15-2.56,22.43-3.94-.71,4.83-.9,5-9.05,10.26l10.95-2.78.72,1.89-15.35,7.21,4.89,3.82c-2.59,1.32-4.8,2.94-7.27,3.63-13,3.65-31-8.82-32.45-22.3-1-9.28,3-14,12.29-14.42,4.91-.2,9.83-.25,14.74-.19C263.13,409,264.1,409.78,266.2,410.74Z"/><path d="M1098.79,434.93l-3.26,1.58c0,.41.07.81.11,1.22,1.27,0,3,.53,3.74-.09,5.46-4.37,7.51-1.34,10.54,3.41,5.38,8.45,12,16.08,17.89,24.25a213,213,0,0,1,15.79,25.13c-6.4-7.52-13.46-13.27-24.59-13.83,4.15-15.56-7-22.08-16.69-29.75-4.32-3.44-7.83-7.89-11.92-11.64-1.48-1.36-3.53-2.74-5.42-2.9-6.46-.53-13-.45-19.44-.77-2.75-.13-5.49-.69-8.87-1.14,4.78-2.55,8.73-4.54,12.56-6.74C1084.26,415,1092.84,418.23,1098.79,434.93Z"/><path d="M337.7,404.91c-1.59,7.84-2.34,13.37-9.37,15.59-7.28,2.3-14.66,3-20.49-1.66a231.54,231.54,0,0,1-29.11-28.12Zm-22.65,11c.28.93.57,1.86.86,2.79l14.83-4.43-.87-2.82Z"/><path d="M493,214.56c13.83-6.67,14.91-7.46,15.5-11,7.68-1.28,18.22,4.26,18.27,9.6l7.47,1.31c-1.2,4.6-2.77,8.39-3,12.27s.86,7.61,1.5,12.38c-6.55-.38-13.39-.5-20.13-1.36-1.53-.2-3.93-2.95-3.9-4.5.17-11-1.65-13.83-12.35-17.41C495.57,215.6,494.8,215.26,493,214.56Z"/><path d="M993.42,336c7.16,5.81,5.54,14.37,7.27,21.75.17.69-1,1.86-1.71,2.58-8.22,7.87-16.49,15.7-25.36,24.12-7.51-2.13-16.3-4.07-22.78,5.32l-1.34-1.09c1.49-2,2.64-4.39,4.53-5.81,3.94-2.93,8.32-5.25,12.43-8,4.95-3.25,9.1-6.94,4.93-14.38l11.39-2.26c-4-6-2.73-10.19,4-13.54C989.52,343.41,991,339.42,993.42,336Z"/><path d="M563.91,702V691l62.53,3.71c-6.15,4.85-18.71.63-16.85,13.14H585.41l0-1.17,13.28-1.93c-.06-.7-.13-1.4-.19-2.11C587.49,695.62,576,700.82,563.91,702Z"/><path d="M611.75,575.76l-10.26,8.72c2-5.46,3.08-9.37,4.71-13.06,4.52-10.2,9.48-20.2,13.82-30.47,3.43-8.1,2.77-9.17-6-13.12,3.5-1.44,6.34-2.31,8.85-3.76a6.53,6.53,0,0,0,2.85-3.91c.15-.78-1.63-2.49-2.84-2.9-6.14-2.06-4.89-5.22-1.62-8.89,6.5-7.31,13.94-14,17.09-24.4,0,2.76.47,5.63-.14,8.25-.53,2.29-2.07,4.45-3.52,6.4-4,5.43-6.66,10.47-5.62,18.2.89,6.56-2.1,13.91-4.39,20.55-2.39,6.93-6.49,13.26-8.94,20.16C613.76,563.06,613.15,569.07,611.75,575.76Z"/><path d="M441.47,732.7l-8.91-1.33c8.39-4.88,16.05-4.3,22.76-.13,11.86,7.38,23.12,15.71,34.87,23.81-3.43,3-3.43,3-20.66-2.95v-9.49l-33.89-2.82-.15-2.16Z"/><path d="M1039.74,446.55c-11,16.85-31.33,14.3-43.52,26.09-1.45-11.38,3-17.46,13.56-18,5.84-.3,5.19-3.34,3.05-8.09Z"/><path d="M1710.39,801c7.57,5.75,8.89,14.22,7,23l-26.23,6.68c-3.53-5.17-.32-9.35,3.46-13.35C1699.8,812,1705,806.61,1710.39,801Z"/><path d="M490.16,585.53c8.18,1.43,16.46,2.44,24.5,4.41,6.7,1.65,10.22-2.22,13.3-6.54,3.2-4.48,5.55-9.57,8.28-14.39l1.94.52c-1.07,3.44-1.35,7.46-3.35,10.22a209,209,0,0,1-17.53,21.17c-1,1.08-5.26-.75-7.95-1.45s-5.58-1.72-8.7-1.06c-1.44-2.22-2.53-4.84-4.43-6.55s-4.67-2.58-7.05-3.82Z"/><path d="M1060.92,452.52c-3.08-4.16,7.14-10-2.77-13.26h21.77c4.27,3.11,7.14,6,10.59,7.51,4.3,1.93,6.06,4.21,4,8.85C1083.35,453.17,1072.58,447.06,1060.92,452.52Z"/><path d="M741.56,483.63c-9.52,12.92-23.35,18.28-38.35,21.66,6-8.13,11.8-16.22,17.86-24.12a5.66,5.66,0,0,1,4.41-2.07c1,.16,1.64,2.57,2.28,4,.25.56-.12,1.37.08,2,.62,1.93,1.37,3.81,2.07,5.71,1.57-1.3,3.22-2.53,4.7-3.93,1.8-1.7,3.47-3.55,5.2-5.34Z"/><path d="M874.37,472.73l-10.18,2.66c2.51-3.87,4.44-6.87,6.41-9.85,3.5-5.29,6.66-10.87,10.72-15.7,1.6-1.9,5.21-2.1,7.65-3-.21,3.16-.9,7-.4,7.14a66.28,66.28,0,0,0,10,1.89l2.83,14.43c-1.51-.76-4.08-3.16-6.38-2.93s-4.63,3-7.06,4.75c-2.68-2.92-2.68-2.92,4.62-11.25-3.38-.72-6.2-2.12-8.71-1.68C879.26,460,876.25,464.88,874.37,472.73Z"/><path d="M988.14,380.85c8.87-8.89,18.78-16.35,22-31.39,3.27,5.14,7.85,9.15,7.64,12.88-.24,4-4.24,9.13-8,11.12C1003.12,377,995.41,378.49,988.14,380.85Z"/><path d="M582.53,739.65l-31-6.34L554,739l-1.27,1.31-7.55-7.78c6.26-3.8,37.45-3.25,48.57.65l-11.87,5C582.09,738.64,582.31,739.14,582.53,739.65Z"/><path d="M666.25,500.78l4-3.34,1.43.89c-1.77,3.19-3.55,6.38-6,10.75l-9.92-7.35c-5.92-1.2-9,2.89-10.21,9.82l-5.46-6.65,21.3-14.42-3-4.14Z"/><path d="M1585.76,728.67c-8.79,7-40.74,2.59-52.43-3.36C1551.45,719.41,1567.47,730.52,1585.76,728.67Z"/><path d="M938.51,871.12,950,870c1.36,6,2.57,11.33,4,17.82-7.72-1.76-10,11.9-19.62,5.94C947.11,881.37,947.66,879.32,938.51,871.12Z"/><path d="M922.86,604.52c13.63-9.16,37.76-17.9,51.3-16.84L923.5,606.27C923.28,605.69,923.07,605.11,922.86,604.52Z"/><path d="M1027,887.11c2.34-4.94,3.69-8.59,5.68-11.85,4.92-8.07,4.91-9-1.78-14.94,7.33-1,12.47,4.52,10.44,11.13-1.23,4-2.25,8.08-3.53,12.75Z"/><path d="M655.64,542.09c4.46,12.78-2.06,26.56-13.95,33.28C646.41,564.11,651,553.1,655.64,542.09Z"/><path d="M554.63,836.42c4.51,6.87,6.43,15.27,15.59,17.4-3.28,0-7.37-1.21-9.63.31-2.76,1.84-4,6-6.24,9.7C547.88,854.17,556.78,845.37,554.63,836.42Z"/><path d="M330.23,446.07c10.35-9.35,35.3-16.84,38.92-12.2l-38.3,14.37Z"/><path d="M592.15,566c-.4,3.27,0,7-1.39,9.72A85.43,85.43,0,0,1,581,589.88c-.65.8-4.14.48-5.17-.51-1.45-1.41-1.83-3.92-3-6.85,9.62-1.66,14.69-8.06,17-17.18Z"/><path d="M224.53,371.62c-2.62,6-1.46,10.17,6.06,11.53-4.45,4-8.14,3.09-11.16,0A44.44,44.44,0,0,1,212.8,374c-.8-1.41-.33-3.55-.43-5.35,1.83-.06,3.77-.5,5.48-.07C220,369.13,221.9,370.39,224.53,371.62Z"/><path d="M580.32,559.62c-4.67,10.06-9.11,20.23-14.16,30.09-1.15,2.25-4.4,3.43-6.68,5.1l-1.33-1.52q10.11-17.32,20.23-34.66Z"/><path d="M630.05,731.54c.55-3.08.94-5.24,1.4-7.81h10.86c-1,10.29,10.51,8.54,14.23,15C646.24,740.64,640,729.66,630.05,731.54Z"/><path d="M895.89,402.73c3.6-8,9-9.87,21.89-8.17C915.64,402.32,910.11,404.44,895.89,402.73Z"/><path d="M417.37,646.49l24.44,1.22.15,3c-5.88,1.4-11.7,3.3-17.66,4C419.59,655.28,416,653.19,417.37,646.49Z"/><path d="M1283.34,799.07c4.93-7.66,10.87-11.76,20-10.78l-7.62,10.78Z"/><path d="M761.62,304.64c10.4-6.89,22.2-4.48,33.58-4.89.12.76.23,1.52.35,2.28L762,306.41C761.85,305.82,761.73,305.23,761.62,304.64Z"/><path d="M337.94,599.22l2.94-6.91C346.73,599.76,353,606.6,352,617c-5.71.55-5.84-3.17-6.51-6.73C344.57,605.59,345.5,599.56,337.94,599.22Z"/><path d="M559.77,565.88c-.66,9.9-6.72,15-13.69,19.59C546.05,575.56,550.79,568.45,559.77,565.88Z"/><path d="M1737.73,798.5c1.32,9.12-2,16.41-4.83,23.86-6.72-2.56-7.29-4.22-3.9-9.54C1731.78,808.46,1734.39,804,1737.73,798.5Z"/><path d="M945.6,463c6.67-1,12.47-1.26,17.84-2.89s10.23-4.64,16.6-7.66C970.77,464.29,958.71,467.88,945.6,463Z"/><path d="M735,679.83l33.9-4.19.24,1.86c-10.89,4.91-22.52,4.48-34.11,4.43Z"/><path d="M1379.93,820.74l23.24-14.68,1,1.55c-5.93,7.44-12.42,14.06-22.63,15.21Z"/><path d="M913.68,465.35h16.71v7.52L918,474.38c.82-1.9,1.62-3.73,2.77-6.38l-7.09-1C913.69,466.44,913.69,465.89,913.68,465.35Z"/><path d="M1209.21,700.38c-4.33,6-5.42,6.21-23.94,4.93C1188.59,701.54,1188.59,701.54,1209.21,700.38Z"/><path d="M556.11,545.54c2.2-4.14,4.11-7.75,6-11.25,4,3.11,4,15.82-.6,23.37C560.05,553.31,562.68,547.14,556.11,545.54Z"/><path d="M625.83,572.59c-.89-3.14-1.7-6-2.63-9.27l8.88-3.41c1.31,7.61-2.64,12.53-8.14,16.31-1.78,1.22-4.61.93-7,1.33l-.46-2.46Z"/><path d="M1189.64,600.24c6.51,2,13.41,3.37,14,12.3C1189.06,608.19,1188.73,607.9,1189.64,600.24Z"/><path d="M360.08,634.46c-6.72-.92-8.4-4.14-7.14-13.71C360.35,621.36,361.75,624.07,360.08,634.46Z"/><path d="M594.71,819.37c11.08-5.42,22.57-3.87,24.1,2.86Z"/><path d="M716.48,335.12l-18.77-6.27C703.61,322.75,711,324.44,716.48,335.12Z"/><path d="M777.74,770.47c-.27,10.58-10.6,8.14-15,14.42C764.17,776.82,768.39,773,777.74,770.47Z"/><path d="M528.85,549.93c7,4,1.76,7.87,2.64,13l-12.27-4.21C521.3,553.22,530.28,558.78,528.85,549.93Z"/><path d="M1089.41,567.62l-15.7,4.78c-2-6,4.1-8.91,14.84-7.18Z"/><path d="M1762.45,853.26h16.93C1774.69,858.77,1768.05,859.55,1762.45,853.26Z"/><path d="M619,800.78c-.47,2.56-.5,3-.54,3-4.38.2-8.77.44-13.15.37-.22,0-.41-2.59-.61-4Z"/><path d="M733.4,846.39h-7.83v-8.15h7.83Z"/><path d="M1201.31,619.9c-7.11,4.58-12.61,8.12-18.12,11.65l-1.86-.6c.61-1.58.77-3.93,1.91-4.59,4.2-2.45,10.49-1.59,12.12-8Z"/><path d="M735.73,501.4c1.95-7.06,7.53-10.38,14-12.79l1.42,1.46-13.89,12.58Z"/><path d="M662.88,791.8c-6.14,4.83-13.35-.11-19.77,2.09-.12-.93-.23-1.85-.35-2.78l19.62-2.48Z"/><path d="M1436.12,724.34c-8.48,1.4-12.93-1.1-14.14-10.23Z"/><path d="M1067.2,590.16l-15.3,4.35-.63-2.14c3.7-6.07,9.84-4.09,15.33-4.25Z"/><path d="M358.77,639.41c5.52-1.7,8.14,1.31,9.6,5.53.39,1.15-1.1,2.94-1.73,4.43-1.44-.71-3.4-1-4.22-2.2C361,645.09,360.18,642.53,358.77,639.41Z"/><path d="M1048.08,483.42l-22.39,4.39C1031.47,481.85,1039.88,480,1048.08,483.42Z"/><path d="M410.28,409.29l14.48-6c-.42,2.25-.26,4.52-1,4.85-3.91,1.8-8,3.12-12.1,4.6Z"/><path d="M1089.33,505.83c1.09-5.3.5-10.47,6.74-11.31.2,3.41.38,6.57.63,10.8Z"/><path d="M758.47,469c3.5,6.75-2,10.71-5,16.94C749.67,477.77,758.44,474.61,758.47,469Z"/><path d="M1733.26,840.18c7.36-4.16,11.11,6,17.93,4.64C1744.14,848,1739.14,842.55,1733.26,840.18Z"/><path d="M439.39,690.37l20,4.73C451.32,699.3,442.76,696.73,439.39,690.37Z"/><path d="M542.46,774.12l13.84,2.6C550.82,781.78,544.74,780.85,542.46,774.12Z"/><path d="M1367.87,818.38l12.82-10.07C1379.67,815.64,1376.19,818.61,1367.87,818.38Z"/><path d="M668.49,400.67c.41,2.43,1.55,5.05,1,7.25-.44,1.78-2.91,3.06-4.47,4.56-.15-1.89-.65-3.83-.36-5.64.33-2.08,1.37-4,2.1-6Z"/><path d="M1396.28,791.7c-.71,3.2-1.43,6.4-2.14,9.6l-1.52,1c-1.14-2-3.57-4.39-3.13-6,.67-2.43,3.3-4.33,5.1-6.45C1395.16,790.47,1395.72,791.08,1396.28,791.7Z"/><path d="M820.73,634.36H802.45c-.05-.43-.1-.86-.14-1.28h18.23Z"/><path d="M750.74,819c-2.72,5.44-7.88,3.86-12.46,4l-.71-1.92,12.18-4.49Z"/><path d="M789.17,776.61c-.76,6.1-1.95,7-12.15,7.21L787.71,775C788.19,775.54,788.68,776.07,789.17,776.61Z"/><path d="M821,643.24H805.36C808.27,640.33,808.27,640.33,821,643.24Z"/><path d="M1326.42,791.56c-4.05-5.37-1.23-7.45,1.66-9,1.2-.64,3.09,0,4.67.08Z"/><path d="M738.61,655.11H722.89l0-1.63h15.73C738.58,654,738.6,654.56,738.61,655.11Z"/><path d="M791.62,318.23l-15.78-.79-.06-1.68h15.91Z"/><path d="M1045,886l10.24-7.18C1056.08,882,1054,884.42,1045,886Z"/><path d="M1387.52,696l7.94,8.75c-3.27,0-5.56.66-6.3-.13-1.77-1.91-2.81-4.49-4.14-6.8C1385.85,697.16,1386.68,696.55,1387.52,696Z"/><path d="M1155.77,662.3c-2.25-7.16-1.5-8.19,7-8.64Z"/><path d="M1123.5,597.8l6.56-7.41c.63,8.37.57,8.45-4.78,9.11Z"/><path d="M548.13,705.45l-8.44-6.74,8.44-2.39Z"/><path d="M1220.93,700c3.42-7.75,8.77-5.72,13.27-6.22.2.65.41,1.3.61,2Z"/><path d="M806.53,548.31l-8.33-6c2.08-1.14,5-3,5.12-2.78a73.87,73.87,0,0,1,4.89,7.9Z"/><path d="M745.59,790.32l-10.1,4.12c.75-7.24,5-6.79,9.23-6.18Z"/><path d="M630.54,782a65.54,65.54,0,0,1-8.08-1.39c-.48-.14-.39-2.3-.56-3.53L631,778.6C630.86,779.73,630.7,780.86,630.54,782Z"/><path d="M659.78,770.71c4.66-7,6.5-7.18,12.7-1.87Z"/><path class="cls-1" d="M915.84,888c-6.76,16.72-19.29,22.11-35.17,26C890,901,902.28,895.25,915.84,888Z"/><path class="cls-1" d="M630.65,893.82v10.81c-5.42-3.06-7.61.48-9.81,4.39-2.66,4.71-5.3,9.67-13.11,7.71C614.22,907.68,615.62,894.5,630.65,893.82Z"/><path class="cls-1" d="M1799.55,854.11c-4-2.85-7.12-4.9-10.07-7.12s-2.21-7.77,1.61-11c2.68-2.29,5.74-4.15,9.31-6.67C1805.46,837.88,1796.75,845.45,1799.55,854.11Z"/><path class="cls-1" d="M1681.15,863.66c10.48-5.69,21.13-10.63,33.55-7.54C1705,864.81,1693.56,866.3,1681.15,863.66Z"/><path class="cls-1" d="M1692,753.81c10.51,3.18,21.32,5.86,29,17C1706.83,770.5,1701.09,759.35,1692,753.81Z"/><path class="cls-1" d="M715.63,910.69,750.81,890C744.61,905.39,730.25,906.84,715.63,910.69Z"/><path class="cls-1" d="M1469,863.73c.59-2.35,1.31-4.66,1.73-7,.38-2.13.44-4.32.75-7.64l10.62,2.75C1478.6,863,1476.44,864.92,1469,863.73Z"/><path class="cls-1" d="M1402.45,827.57l20.64-3.82C1419.22,832.31,1411.68,834.15,1402.45,827.57Z"/><path class="cls-1" d="M766.29,886.82c4.1,8.86,1.06,13.45-8.32,15.53C755.64,894.4,764.74,893.74,766.29,886.82Z"/><path class="cls-1" d="M895.8,890.41,889,899c-6-1.85-5.5-6.24-5-12Z"/><path class="cls-1" d="M1684.7,760.32l8.24,8.76-12.44,4.38c.88-4.39,1.62-8.11,2.36-11.84Z"/><path class="cls-1" d="M1143.86,871c-4.69,2.89-8,5-11.36,6.88-.29.16-1.69-.79-1.83-1.39a4.07,4.07,0,0,1,.44-3C1133.89,869.72,1137.54,868.88,1143.86,871Z"/><path class="cls-1" d="M1593.89,850c2.79-1.27,5.5-3,8.43-3.55,1.26-.22,3,2.23,5.25,4.08l-12.86,1.6Z"/><path class="cls-1" d="M1477.7,879.2l12.68,3.58C1486,886.21,1482.29,885.62,1477.7,879.2Z"/><path class="cls-1" d="M204.07,403.33l-7.21,10.29c4.65,1.59,5.25,1.31,7.94-4,1.81-3.54,3.13-7.76,10.1-5.48l-19.46,28.1-1.12-.39c1-3.37,1.94-6.74,3.31-11.52-8.82,5.19-8.93,6.42-4.45,31.51L179,459c1.36-3.75,1.62-6.72,3.23-8.43,4.4-4.68,5.28-9.37,4-15.81C183.57,421.6,186.49,407.5,204.07,403.33Z"/><path class="cls-1" d="M149.6,507.36c1.23-4.7,2.47-9.4,3.81-14.5,5.25,1.27,8.8-1.5,10.37-9.06C164.8,496.49,157.46,507.51,149.6,507.36Z"/><path class="cls-1" d="M169.77,477.94c1.38-12,14.76-12.52,20.54-20.5C187.23,467.76,177.3,471.61,169.77,477.94Z"/><path class="cls-1" d="M457,811.43V820c-9.2.29-8.93-8.87-14.13-12.35l1-1.47Z"/><path class="cls-1" d="M292.68,788.25c-5,2.69-8.22.64-10.78-2.79-2.87-3.85-3.23-7.89-.4-11.81Z"/><path class="cls-1" d="M303.82,786.7c-9.86-3.47-11.07-5-9.76-14.28l11.7,12.64Z"/><path class="cls-1" d="M214,442.48c-1,2.55-1.38,5.65-3.12,7.5-1.51,1.62-4.52,1.85-6.87,2.69l-1.35-1.81,11.7-6.71Z"/><path class="cls-1" d="M218.62,551.25l3.63-4.72c1.28,1.74,3.42,3.42,3.55,5.25.11,1.44-2.26,3.06-3.53,4.6Z"/><path class="cls-1" d="M312.71,638.06c-2.19-4.59.75-11.13,4.27-11.26a2.72,2.72,0,0,1,2.17,1.12,3.32,3.32,0,0,1,0,2.83C317.28,633.12,315.18,635.28,312.71,638.06Z"/><path class="cls-1" d="M429.38,832.37c-1.7-.92-3.18-1.77-4.7-2.51a12.18,12.18,0,0,1-5-3.73c2.28-.61,4.91-2.25,6.74-1.6C429.27,825.55,432.25,827.85,429.38,832.37Z"/><path class="cls-1" d="M246.2,758c0-1.74-.06-3.47,0-5.2.05-1.08.31-2.14,2.07-4.33,1.47,1.78,4.05,3.53,4.1,5.35s-2.41,3.73-3.77,5.61Z"/><path class="cls-1" d="M284.52,760.15c4.63-1.95,10.67.65,11.16,4.09.1.72-.4,2.08-.89,2.22-1.08.32-2.67.51-3.44-.07A91.67,91.67,0,0,1,284.52,760.15Z"/><path class="cls-1" d="M204.67,506.06c-5-1.52-9.55-2.24-7.8-8.75C201.79,498,205.64,499.17,204.67,506.06Z"/><path class="cls-1" d="M353.37,801.29,343.53,803v-9.12Z"/><path class="cls-1" d="M437.74,852.28c-7-3-7.4-4.64-2.35-12.79C436.34,844.68,437,848.18,437.74,852.28Z"/><path class="cls-1" d="M285.52,629.3,276,623.42c3.44-3.94,4.76-3.35,10.58,4.24Z"/><path class="cls-1" d="M544.62,654.15c-2.69.68-4.08.77-5.19,1.37a61.47,61.47,0,0,0-5.19,3.52c2,.9,4,2.32,6.13,2.59,2.84.37,5.83-.45,8.69-.16a12.81,12.81,0,0,1,6.24,2.93c-5,1-12.12-1.76-10.27,8.59-10-6.49-22.81,1-31.39-9,4.94-6.41,9.4,2.42,14.27-.29-.19-6.07-4.45-7.23-9.37-7.56-7.3-.5-14.6-.94-22.5-1.44-.19,8.26,8.56,5.61,12.51,8.85-12.63,6.19-32.52,4.18-40.09-5.84l21.15,4.12c1.17-9.12-7.09-5-10.5-9,11.46-1.52,22.24-3.58,33.09-4,4-.17,8.58,2.83,12.21,5.36,5.51,3.84,7.26-1.11,10.39-3.37,1.63-1.17,4.08-2.73,5.52-2.24C542,649.07,542.9,651.72,544.62,654.15Z"/><path class="cls-1" d="M707.05,530.3c-3.76,4-7,7.86-10.73,11.15s-7.86,5.72-11.76,8.5c2.8,13.29-.14,18.55-12.78,20.25,5.17-12,9.39-23.58,15-34.39C690.48,528.8,698.36,527.22,707.05,530.3Z"/><path class="cls-1" d="M566.71,647.15c16.16,4.46,29.82,1.38,43.4-7.14-1.25,4.42-2,7.07-2.74,9.71C597.15,659.79,578.06,658.93,566.71,647.15Z"/><path class="cls-1" d="M405.54,505.38c3.1-5.35,7.45-4.18,12-2.61,4.1,1.39,8.31,2.51,12.43,3.74C425.23,513,416.39,512.67,405.54,505.38Z"/><path class="cls-1" d="M662.84,668.66l-31.43-5.4C638.8,657.34,654.07,659.19,662.84,668.66Z"/><path class="cls-1" d="M674.78,575.79l-13.46,7.39c-1-8.58,2.39-10.78,12.4-9.43Z"/><path class="cls-1" d="M451.68,648.67c6.86-7.88,11.25,2.65,17.2.71C465.28,654.37,465.28,654.37,451.68,648.67Z"/><path class="cls-1" d="M758.37,250.4c16.58-1.88,28,3.7,37.23,15.52-5.19,5.14-9.39,1-14.26-.18l4.46-6C778.49,252.74,768.1,255.16,758.37,250.4Z"/><path class="cls-1" d="M648.22,235.87c-2.38,6.33-6.08,6.92-11,3.51-3.44-2.38-7-4.61-10.45-6.89C630.86,227.81,636.39,228.55,648.22,235.87Z"/><path class="cls-1" d="M760.39,280.28V271c7.11,5.15,16.33-4.91,23,4.3-4.39.54-8.22.74-11.92,1.55C767.88,277.59,764.46,279,760.39,280.28Z"/><path class="cls-1" d="M631.57,255c-.69-1.39-1.46-2.94-3-6H651c-.56,4.79-4.38,4.78-8.11,5C639.34,254.24,635.81,254.6,631.57,255Z"/><path class="cls-1" d="M663,289.94l-13.13,4.65-1.59-1c.86-2.07,1.3-5.54,2.66-5.94,3.64-1.09,7.68-.88,11.56-1.18Z"/><path class="cls-1" d="M578.79,266.65l5.42,4.23c-2.33,1.06-4.61,2.78-7,2.95-1.59.11-3.33-2-5-3.11Z"/><path class="cls-1" d="M777.5,287.76H764.11C766.55,281.65,770.59,281.1,777.5,287.76Z"/><path class="cls-1" d="M719.93,265.32c3.28-.75,6.53-1.87,9.83-2.06,1-.05,2.2,2.43,3.3,3.75-1.52.84-3.1,2.46-4.55,2.36-2.82-.18-5.56-1.33-8.34-2.08Z"/><path class="cls-1" d="M681.28,311c-4.06,2.83-6.28,4.75-8.84,5.94-.74.34-2.45-1.43-3.72-2.23,2-1.94,3.91-4.17,6.24-5.67C675.77,308.56,677.75,309.87,681.28,311Z"/><path class="cls-1" d="M953.51,441.6c-1.14,9.22-5.13,12.15-14,10.79C940.83,445.09,942.35,443.88,953.51,441.6Z"/><path class="cls-1" d="M1047.55,391.22a57.44,57.44,0,0,1-7.9-1c-.53-.13-.57-2.28-.83-3.51l9,1C1047.72,388.89,1047.64,390.05,1047.55,391.22Z"/><path class="cls-1" d="M315.05,416l14.82-4.46.87,2.82-14.83,4.43C315.62,417.82,315.33,416.89,315.05,416Z"/></svg>