<svg id="Layer_1" data-name="Layer 1" xmlns="http://www.w3.org/2000/svg" viewBox="0 0 504 504"><defs><style>.cls-1{fill:#fff;}</style></defs><title>Artboard 2</title><path class="cls-1" d="M300.83,213.1l3.29.71,31.34,5-.25,0c1.72.48,3.42,1.09,5.17,1.42,8.83,1.7,17.72,3.1,26.5,5,13.38,2.95,23.81,10.08,30.05,22.6,2.38,4.76,4.25,9.79,6.89,14.4C415,281.68,426,301.26,437.73,320.41c9.86,16.1,10.3,34.28,14,52.23-8.21.15-2.41-5.54-4.1-8.18-1.28,2.48-2.33,4.53-3.38,6.58L443,370.5l4.36-12.33-1.36-.46c-1.24,3.3-2.37,6.64-3.8,9.85-.43,1-1.67,1.59-2.54,2.37-.48-1.18-1.52-2.45-1.33-3.51.65-3.75,1.72-7.42,2.64-11.12l-1.33-.34c-1.19,4.49-2.37,9-3.6,13.6-3.72-2.38-1.32-13.78,3.41-17.2-2.53-1.45-6-2.28-6.92-4.29s.67-5.18,1.16-7.84l1.54-.42,4.3,4.93c1.62-3.19,1.19-2.91-.89-6.11-1.39-2.15-1.35-5.22-2-8-.88,2-1.81,4.16-3,6.91-7.88-4.92-2.56-13.51-6.85-20.17,0,3.15,0,5,0,7.25-2.58-1-4.69-1.46-2.63-4.57,1.84-2.78.78-4.66-2.4-5.47-.41-.11-.73-.56-1.12-.87l2.66-2c-4.51-1.82-6.68-5.86-10.59-7.83-2-1-3.47-2.81-5.19-4.26l.74-2-18.54.25,0,1.94,17.07,1c-1.5,3-3.27,5.15-3.69,7.57a96.84,96.84,0,0,0-.85,13c0,.49.76,1,1.17,1.49l-.11,0c.38,2.31.77,4.63,1.15,7l-1.77.54-5.11-3.87,3.2-.88c0-2.91,0-5.54,0-8.62l-3.59,3.29,3.7-10.32-7.36-2.66c-.11,2.65-.23,5.4-.4,9.22l-9.42-4.41L382.22,320l-2-.26,1.05-7.56-.79-.14-2.31,6.19-9.75-6.39-.35.64,3.19,3.8-3.48.16-6.89-3.55-3.37,3.34.17.09c-.23-2-.46-4-.67-6.06-.17-1.54-.32-3.09-.47-4.64-1.2,1.87-1.18,3.68-1.68,5.33-1.67,5.48-2.8,10.93-.77,16.56l-.84,7c-1.32-2.27-3.27-4.41-3.81-6.85-.88-3.94-.83-8.09-1.17-12.15l-1.31.13c.36,3.73.89,7.45,1,11.18,0,1.22-1,2.48-1.58,3.72l-1.66-1.11c-.82-2.58-1.64-5.16-2.7-8.46-.34,3.6-.61,6.45-.87,9.31-2-5.39-4.13-10.76-6.08-16.18a59.4,59.4,0,0,1-2.75-9c-1.42-7.39-1.69-7.91-9.08-11.37,5.35,5.53,4.77,5.62,6.18,14.09,1.7,10.23,4.51,20.27,6.84,30.39l1-.24q-3.25-15.11-6.52-30.22a81.64,81.64,0,0,1,6.76,16.78c1.51,5.69,2.11,11.62,3.1,17.44l.89-.15c.09-1.6.19-3.19.28-4.78l4.55,4.29,3.17,1.59.3-2.56,3.19-1.64c2.9,3.07,5.4,6.83,10.54,5.84l-.3,2.82c.61,3.06,1.21,6.13,1.82,9.19l3.81,4.87c-.08,3.25-.36,6.52-.15,9.75.07,1.07,1.39,2.05,2.14,3.08l3.37-2.59,2.46,3.79c-2.05,2.82.3,3.88,2.06,5.17l11.59,8c4.57,2.93,3.28,8.54,5.71,12.46l7.27,7.73L417.54,418c-1.29,3.35-.17,8-4,11l5.84,5.18,1.43-2.83c.44,2.31.88,4.62,1.4,7.37l1.52-5.18,1,.16c.14,1.53.27,3.06.38,4.27,4.3.77,6.45-1,7.79-4.85.51-1.51,3.22-2.27,4.4-3l-8.11-7.84c0-1.18,0-2.35,0-4l12.57,6c.05-1.84.09-3.45.13-5.05l0,.07,2.66-2.88c-2-2.5-2.47-4.63.47-5.44.07-2.54-.33-5,.35-7.14.45-1.42,2.45-2.34,3.67-3.41-2.62-1.32-2.83-2.25-1.92-5,1.68-5,3.07-10.15,4.57-15.19l-7.12,3c.73-3.9,1.15-6.16,1.57-8.39,3.12.2,6.43-.54,7.17,3.63l0-.26a34.28,34.28,0,0,0,.15,4.87c1.09,6.47,1.34,12.77-1.05,19.14-1.57,4.18-3.59,8.87-3,13,.87,6.3-2.43,10.14-6.1,13.32-6.34,5.5-13,11.21-20.49,14.7-12.69,5.91-26.15,10.2-39.32,15.06a8.71,8.71,0,0,1-4.88.55c-7.51-2-15-4.1-22.39-6.49-1.91-.61-3.28-3-5.17-3.49-6.57-1.62-12.85-3.64-17.94-8.37-.57-.53-2-1.14-2.14-1-3.61,4-5.53-1.06-8.25-1.54-1.17-.2-2.13-1.39-3.27-2-5.36-2.8-10.81-5.46-16.12-8.34-3.86-2.1-7.56-4.48-11.34-6.73l-.44.66,6.84,5.08-.43.76-4.76-2.21,3.37,3.77-.45.5-3.29-2,.11.05-7.45-1.9c.39-2,1-5.16,1.62-8.29-1.87,2.92-.55,8.42-6.9,8.52.93-3.33,1.79-6.35,2.64-9.37-2.15,2.9-3.22,6.12-4.66,9.17-.4.83-1.89,1.15-2.88,1.71-.13-1.2-.69-2.59-.26-3.54a6,6,0,0,1,2.1-2.06c.13-3.16.23-5.82.35-8.54-2.48,4.21-4.89,1.95-7.55-.2a37.11,37.11,0,0,0-5.43-3.11c-1.08-.6-2.14-1.21-3.21-1.82l3.26-3.94-15.16-6.5c-1.14-4.64,2.05-2.47,4-2a5.42,5.42,0,0,0-.46-1.33c-4.33-4.69-12.1-6.59-12-14.92,0-.52-1.14-1.1-1.8-1.59-4.4-3.27-4.5-4.31-.45-8.26-5.2-4.92-13.19-6.51-16.45-13.78-.68-1.51-2.92-2.32-4.31-3.36.38-2,.7-3.7,1-5.39l-.73-.22-2.21,5.07-1.4.42-2.21-4.6,4.13-10.36-1.25-.44L213,343.22c-6.36-1.87-.25-7-3.06-8.76l-5.07-3,.62-1.18,3.51,1.5.39-.7-7.93-6.31.84-1,7.67,4.12c-2.83-3-4.92-6.17-7.81-8.11-3.54-2.38-3.83-1.94-2.39-5.11l6.26,4.17a65.69,65.69,0,0,0-6.17-7.38c-1.74-2-3.35-4-5-6.05-.76-.92-1.54-1.82-2.31-2.72l2.69-1.74c-4.65-5.13-7.21-11-6.4-18.19-.75,2-1.49,3.9-2.61,6.81-1.37-1.47-3.13-2.54-3.09-3.53s1.71-2.18,2.67-3.26c-.42-.88-1.07-2.27-1.48-3.16l-3.86.23c.11-1.3.21-2.59.32-4.08l6.31,1.88.22-.8-5.36-2.6.71-5.25c-1.54,2.19-2.33,3.3-3.72,5.26l-3.68-4.92,3.25-.85c0-1.81,0-3.42,0-5l0,.23q1.71-5.82,3.43-11.65l-1.08-.35-2.62,7.91-4.67-1.86c.54-2,1-3.81,1.45-5.56l-.45-.13c-.88,1.69-1.75,3.38-2.72,5.23l-4-1.57c1.71-5.58,3.36-10.93,5.31-17.29l-4.7,4.88c-.45-5.62-.8-10-1.16-14.41L163,230c.11-1.85.19-3.11.26-4.37-1.6,2-2.1,4.23-3,6.26-.43.95-1.63,1.57-2.48,2.34-.21-1.13-.79-2.33-.57-3.36.83-3.83,1.92-7.6,3.15-12.27-4,3.25-1,9.74-8.53,10.8L155.94,213l-5.23,2.93-1.18-1.23c1-2.81,2-5.63,3-8.57l-4.39-1.29,2.84-5.74-5.86-.72c.4-2.37.75-4.45,1.1-6.51l-3.16-.07c.1-1.16.19-2.11.27-3.07l-4.57.14c.38-2.59.7-4.8,1-7l-.59-.06-2.5,6.94-2.06-.59c.83-2.77,2.15-5.5,2.36-8.31.33-4.46-3.55-2.59-6.36-3,.61-2.44,1.14-4.55,1.7-6.81l-4.11-.76c.5-2,1.26-3.75,1.29-5.51a17.86,17.86,0,0,0-1-4.54l-5.86,2.45c1.27-4.17,2-6.67,2.82-9.24l-4.42.75,2.85-5.59-5.89-.92c.09-1.4.18-2.67.26-4-2.53-.36-4.87-.54-7.11-1.09-.92-.23-2.36-1.29-2.35-1.93.11-4.17-2.5-6.58-5.09-9.23-1.21-1.24-2.35-3.22-2.25-4.79,0-1,2.51-1.79,3.75-2.59l-6.09-2.53,1.53-4.68-1.18.5-3.6-5.6c-2.64-.73-5.88-2.27-3.19-6.9,1.66-2.86,3.83-5.42,5.77-8.12a28.54,28.54,0,0,0-5.3,4.87c-1.48,1.59-3,3.16-4.48,4.74l-1.07-1c.95-1.92,1.91-3.83,3-6.05l-2.09.7a20.11,20.11,0,0,0-1-4.21,23.08,23.08,0,0,0-2.71-3.6l-2.28.69-.3-.71c2-1.43,4.07-2.87,6.31-4.46-2.32-3.39,0-5.85,2.91-8.25l-5.09,2.65c-1.11-1.93-2.08-3.63-3.06-5.32V76c2.06-1.57,4.13-3.13,7.36-5.57l-8,3.3c-1-2.83-2.12-5.41-3-8.06-4.3-13.39-5.25-9.57,4.84-17.07l-9.19,4.9c0-6.11,0-11.27-.12-16.42-.19-7,.25-7.69,6.5-8.62.38-.06.83.34,1.59.68l-2.23,2.77,2.46.39-3.26,4.25a4.42,4.42,0,0,1,1.3-.25c1.2.1,2.39.3,3.58.46a25,25,0,0,1-2.73,2.63,35.71,35.71,0,0,1-3.69,2c7.24-2,7.44-1.85,9.77,4.12,7.05,18.11,14,36.26,21.35,54.24,1.73,4.21,3.32,7.74-.11,11.71-.76.87-.75,2.42-1.09,3.65l.6.07,3.9-7.41c2.12,4.07,3.48,7.52,5.55,10.46,2.94,4.19,4.55,8-.38,11.74-.11.09,0,.46,0,.74l5.7-4.63,13.86,21.56-1.42-12.58c-.55,2-1,3.62-1.46,5.26l-1.88.09q-.93-5.83-1.84-11.69l0,.26c3.9.56,9.94,6.94,10.62,10.55a20.16,20.16,0,0,0,2.8,7.05c1.35,2.1,3.44,3.72,5.23,5.57-.22.32.28-.43,1.31-2,1,3,1.65,5.09,2.33,7.22l.57,5,.13-.1c-1.45,1.65-2.17,2-3.3-.61s-3.41-4.71-5.19-7l-1.47,1,9.65,15L155,169.3c1.19,1.22,2.31,2.51,3.58,3.63,2.42,2.11,6.45,2.64,6.53,7.1l-5.26-2.72,6.29,6.51-.85,1-2.87-.84-.49.83,10.89,8.07c-.58-2.09-.92-3.29-1.26-4.5l1.81-.51c3.93,4.5,3.47,10.22,2.31,16.15l2.5.19q-.07-4.53-.17-9.07l1.11.58q3.12,5.67,6.25,11.35c-3.9-.4-2.56,2.52-1.94,3.83,2,4.2.75,7.95-.81,11.8A21.66,21.66,0,0,0,182,225l1.78.31q1.53-8.94,3.07-17.87l1.83-1.25a29.07,29.07,0,0,1,1,4.07c.35,3.45-.61,7.67,1.05,10.24,3.24,5,5.57,9.8,3.76,15.7,2.06.15,4.48-.27,4.92.47,1.46,2.47,4.16,4.83,2.14,8.39-.79,1.39-.88,3.17-1.43,5.36l3.71-2.63c0,3.89-.07,6.65-.1,10.05l5.6-3.61c-1,2.94-1.8,5.34-2.63,7.77,8.12,1.55,2,6.69,3,9.94l4.29-4.77a8.48,8.48,0,0,1,1,4.69c.05,1.32.3,2.63.47,3.94L213.54,277c1.13,3.38,2.12,6.32,3,9L204,292.85c5-.84,8.87-5.71,14.55-2.55.2,1.28.41,2.55.64,4l3.12-2.55a2.64,2.64,0,0,1,.55.15c.32,2.83.64,5.67,1,9.27-.39-.25.19.43.69.37,6-.68,6.13,3.17,6,7.47,0,.83.94,1.71,1.48,2.55s1.71,1.86,1.87,2.89a32.84,32.84,0,0,1,0,5.52l.68-.05,2.86-7.77,1.8.3c.06,3.26.11,6.51.17,9.76.23,1.23.45,2.46.68,3.68l4.39,3.57c4.83-3.69,3.85,1.67,4.58,5l3.05-4c.25,3,.46,5.59.68,8.18l1.42,0,2.5-7.21c4.09,3.71,1.73,7.77,1.77,11.64l3-3.19c6.95,2.59,1.4,7.74,2.94,12.33,1-3.66,1.68-6.34,2.39-9,3.54.14,4.12,1.81,3.71,4.63-.35,2.44-.09,2.48,2.57,1.67.39,2.19.79,4.38,1.2,6.69l2.08-3,1.11.21c.09,2.09.17,4.17.26,6.25l2,.34q.57-5.85,1.13-11.68l1.3.26c-.71,4.71-1.42,9.42-2.31,15.38,1.72-3.19,2.8-5.16,3.87-7.14l1.23.26c.43,3.2.87,6.39,1.44,10.56a35.21,35.21,0,0,1,1.92-4.85,16.26,16.26,0,0,1,2.51-2.69h-.22c.48,1.26.95,2.52,1.46,3.89l2-1.81c2,.8-.32,7.71,5,3.3l.24.09,3.81,3.52c.83,2.7,1.66,5.4,2.8,9.07.65-2.56,1.05-4.08,1.44-5.61l4.67,7.82c-6.07,6.13,4.95,5.84,4,10.22.53-1.14,1.06-2.29,1.6-3.44,3.11,3.15,3.17,8.73,8.45,10.3,1.25.37,1.95,2.38,3,3.5,2.11,2.18,4.78,6.37,6.41,6,6.11-1.33,3.89,3,4.5,5.18,4.57,3.72,12.53,3,13.79,11.44l2.82-4.39,1.4,5.88,2.64-5.61,1-.15c-7.14-6.87-13.58-14-16.86-23-6.85,2.93-3.55-4.92-6.77-6.3-.16,1.9-.29,3.49-.43,5.09l-1.25.27q-1.24-6.69-2.47-13.36l-1.49.24-1.29,3.66c-1.19-2.21-2-3.5-2.6-4.87-1.64-3.67-2.69-7.7-7.54-8.7-4.6-.95-6.29-4.32-6.51-8.69-.06-1.07-.29-2.12-.44-3.18l-1.17,0c-.17,2.48-.33,5-.58,8.67L310,365.88c-.2-3.07.46-6.6-.85-9.08s-4.65-4.22-6.68-5.92c0,.07-.06,1.44-.12,2.8l-.66-.13-1.26-4.83-.74.1c-.21,1.41-.43,2.83-.64,4.25l-1.41.69c-1.44-3.62,1.38-10.66-5.79-9.09-.75-2.09-1-3.94-2-5.35-1.7-2.54-3.79-4.81-5.47-6.9l-3,2.84L279,334c1-2.52,2-5,3.05-7.54l-1.09-.44-5.15,7.27c-.12-2.39.6-5.31-.53-7.05-2.37-3.66-6.22-5.85-11-6.55q.48-3.12,1-6.21l-.74-.11-2.27,5.78-7-3c-.07-1.69-.16-3.8-.25-5.9l-8.77-2.66c-.6-6.81-3-9.41-10.19-11.37-.11-3.06-.23-6.09-.32-8.54-3.55-1.39-5.14-4.08-6.24-7.24s-2.24-6.33-3.41-9.62l-2.52,3.51c-.55-1.43-1.22-2.33-1.13-3.14.37-3.32,2.78-6.54,0-10-.75-.94-.83-2.43-1.21-3.67l-5.37,1.88c.94-2.43,2.19-4.11,2-5.63s-1.75-3-2.71-4.5l-1.16.57q-.18-4.2-.37-8.39l-1,.51c-1.92-4.25-3.84-8.49-6-13.36l-1.26-.19,1.89-5.07L200,213.94l2.49-4c-2.83-2.44-6.71-4.34-4.39-9.25l-2.16,2.61-1.55-.45c.44-2.19.87-4.38,1.23-6.16-1.84-2.21-3.55-4.28-5.53-6.68-3.18,1-4.16.18-4-4.22.08-1.73-.11-3.48-.17-5.23l-1.47-.12-2.1,8.08-1.27-.16c.22-3.5.43-7,.65-10.49l-.9-.08c-.72,1.62-1.45,3.25-2.17,4.88.2-5.44,1.19-11-3.88-14.46-3.36-2.27-3.09-4.26-1.4-6.8-3.75-4-10.54-4.66-11-11.52l-1.68,1.73c-.62-1.05-1.71-2.08-1.78-3.18-.23-3.4-.08-6.84-.07-10.26l-.8,0c-.23,3.35-.45,6.69-.7,10.27-6.29-2.3-3.25-7.46-3.87-10.08-1.79-.89-3.54-1.19-3.84-2-1.23-3.39-2-6.94-3-10.46l-2.61,1.68c.22-2.83.39-5,.51-6.37L135,114c-1.61.74-11.4-7.06-11.88-11.1-.92.21-2.56.8-2.67.58A29.23,29.23,0,0,1,118.84,99l1-.45,11.53,7.4c-4.22-4.15-9-7.44-13.56-11-.79-.61-.86-2.17-1.26-3.29l1.47-.85c-6.38-2.66-9-7.06-7.35-13.78a51.77,51.77,0,0,0,.78-7.62l-1.07-.12c-.53,4.79-1.06,9.59-1.67,15-12.72-8.76-12-21.49-12.11-34l-1,7-1.5-.1c.38-5.52.77-11,1.21-17.42l-2.39,6.26L91.66,46c.51-4.11,1-8.23,1.71-13.74l-4.75,3.86c1-3.9,1.7-6.46,2.37-9l-.69-.17-1.16,2.3-1.56-.63q1.11-3,2.23-5.95c1.66.88,4,1.33,4.86,2.7,3.12,4.71,5.55,9.87,8.6,14.63,10.4,16.25,19.47,33.64,31.81,48.27,17,20.17,36.44,38.31,55,57.13,5.91,6,12.43,11.37,18.67,17l-.23-.14c8.94,7.38,17.33,15.57,26.92,22A207.33,207.33,0,0,0,300.83,213.1Zm-60.69,57.31c.47,2.36.49,4.92,1.48,7,2,4.35,4.61,8.45,6.95,12.65,1.41.73,2.74,1.8,4.23,2.11,5.52,1.15,11.08,2.06,16.63,3.06l7.05,5.4-4.81,1.17,12,3.78-.5,1.66-3.51.07c2.72,3.08,6,5.09,9.06,7.43,1,.8,1.19,2.65,2.14,3.64,1.25,1.3,2.91,3.15,4.36,3.13,4.15-.07,9.77,3.49,10.67,7.54l-2.38.65h0l-6.34-3c-.16.32-.31.64-.46,1l4.84,5.83c-.28-.73-.76-2-1.39-3.68,5,2.52,6.13,5.14,3.76,8l10.51,3-.33,1.52-8.35.81,11.6,2.08c-3.74-6.89-7.93-14.65-12.05-22.25-2.25-1.11-4.82-2.28-7.21-3.74-.2-.11.74-2.12.73-2.09-1.57-2.45-3-4.44-4.18-6.57s-1.95-4.24-2.92-6.36l-.82.36,3.36,8.78-1.12,1-6.27-3.09.48-1.14,4.62-.79c-8.34-2.32-17.38-15-14.64-18.89-1.31-1-3.17-1.63-3.79-2.91-1.66-3.46-4.41-4.63-7.84-5.83-2.74-.95-8.36-.76-5.91-6.8.1-.25-.54-.79-.8-1.21-2.17-3.53-4.3-7.09-6.52-10.6-2.55-4.05-5.16-8.06-7.75-12.09l-.67.41,2.32,5.32-1.52,1.08-3.9-4.63a14.46,14.46,0,0,0-12-15.72c.89,11,2.94,21.42,9.65,30.42Zm11.91-65.61a4.73,4.73,0,0,0,.61-.66.46.46,0,0,0-.06-.44c-10-7.71-20.13-15.37-30.14-23.14-1.12-.86-1.81-2.27-2.83-3.6-.36,1.06-.7,2.1-1,3.15,6.32,2,6.28,5.1,2.55,9.07-1.89-1.35-4.09-2.47-5.66-4.18-1.89-2.05-2.91-5-4.91-6.85-2.63-2.49-6-4.16-8.76-6.57-1.32-1.17-1.91-3.2-2.77-4.87-.44-.83-.53-2-1.16-2.54-4.18-3.75-8.48-7.37-12.71-11.07-4.7-4.12-9.36-8.27-15-13.3l5.14,11c3,.47,5.52.12,6.49,1.16,1.73,1.88,2.56,4.6,4.1,7.65-.12-1.88-.18-2.93-.33-5.28,1.5,2.09,3,3.28,2.83,4.09-1,4.33,2.48,5.83,4.75,8,1.7,1.65,4.11,2.73,5.43,4.6,4.08,5.83,7.78,11.92,11.57,17.82l1.36-.87a17.74,17.74,0,0,1,1.31,2.47,34.75,34.75,0,0,0,1.33,4.27c1.25,2.4,2.78,4.65,4.2,7l0-.2c.63,1.71.76,4.11,2,5,5.76,4.27,11.83,8.13,17.79,12.14l.79-1.22c-.66-1.74-1.32-3.48-2.26-6,5.67,3.47,10.94,6,12.18,11.73l2.27-1.46c.72,1.35,2.31,3,2,4-1.25,4,.58,6.21,3.47,8.35,4.4,3.26,8.64,6.75,13,10,6.17,4.58,12.42,9.05,18.64,13.57l.66-.84-9.3-7.29.73-1,21,11.25L296.86,253l-.06.24c2.39.71,5.05,1,7.1,2.23,5.4,3.31,10.53,7,15.76,10.61a39.73,39.73,0,0,0-8.54-7.25c-5.43-3.75-5.43-3.73-4.51-9.13,3.1,2.17,6,4.24,9,6.27s6.15,4.18,9.1,6.19c.16-4,.32-7.65.47-11.34l1.47-.37,2.21,5.16c4.32-3.52,3.15,1.85,4.18,3.28l2.39-10.43q1.05,3.83,2.09,7.64c.42-1.25.84-2.53,1.26-3.81l1.67-.41q1.88,4.2,3.74,8.41l.64.41c-.31-1.3-.63-2.6-.95-3.9l2.53-.21c.95,2.66,1.89,5.32,2.77,7.81l1.27-3.81,6.86,4.55-.8-4.12c.44-1,.88-2,1.47-3.28,1.23.94,2.75,1.52,3.21,2.56,1.83,4.11,4.36,3.37,7.57,1.86,1.08-.51,2.87.16,4.19.67,1.08.42,1.86,1.56,2.92,2.12,2.24,1.19,3.8,2.53,2.88,5.46a17.48,17.48,0,0,0-.24,4.12l2.41.46q1-5.91,2.05-11.81l.55.17q-.69,4.89-1.4,9.78l1.91.35c.09-2.68.19-5.36.28-8l2,.31c2.26,5.08-1.46,9.87-1.71,16l15.19,2.57c.13-2.08,3.54-4.55-1.43-5.94.48,1.35.8,2.27,1.18,3.35-7.62-.56-8.25-1.44-7.27-9.51l-.05.25c.17-1.54.91-3.34.37-4.57-.77-1.76-2.48-3.1-3.83-4.66.16-.2-.56.69-2.31,2.89-.23-2.94-.3-4.37-.45-5.79s.14-3.24-.62-3.91c-6.31-5.54-12.82-10.85-19.26-16.23-.44,2.79-.76,4.84-1.22,7.75l-7.07-5.33c-.31,2.33-.57,4.33-.95,7.16-1.76-1.35-3.43-2-3.88-3.13s.1-3,.32-5.7l-2.41,4.75-15.09-10.38-.51.89,2.84,4.41-.83.79L315,226.09l-2.1,6.12-5.71-6.4.09.64-15.1-8.34c.69,2.1,1.34,4.08,2,6-2.07.13-3.06-.09-3.43-.7-1.09-1.77-2.08-3-4.52-3.42-1.57-.28-5.11-1.81-2.59-4.92,3.1-3.84-.22-4.36-1.42-5.8-.23,2.42-.42,4.5-.67,7.26l-9.86-7.06-5,5.47-2.46,4.09c-3.57,2.24-4.1-3.06-6.88-2.77,0-2,.11-4-.09-6-.14-1.36-.38-3-1.24-3.89s-2.6-1.1-3.95-1.61Zm110.14,69.06c6.32,9.58,16.18,9.12,25.18,10.69-4.16-.43-6.25-5-11.7-4.39C371.64,280.61,367.08,276.33,362.19,273.86Zm-36.83,45,1.18-.85-4.29-19.58-1.06.14q.88,5.16,1.75,10.32l-.74.07L319.32,303l-1.16.58C321.67,308.12,320.83,314.79,325.36,318.83Zm63-18c-7.62-3.77-13.07-3.9-15.92-.6C374.75,302.91,383.46,303.39,388.36,300.82ZM186,161.55c-3.45,6.41-2,11.41,4.68,15.09C188.88,170.81,187.45,166.18,186,161.55ZM347.75,295.61c-.12.44-.23.89-.34,1.33,6.95,1,12.68,6.79,20.34,5,.12-.52.25-1,.38-1.57ZM377.46,436c4,3.12,7.11,5.29,9.91,7.76,2.3,2,2.58,4.5.36,7-1.49,1.66-2.88,3.41-4.32,5.12C393.92,448.43,392.26,442.27,377.46,436ZM212.12,219.17l-1.75.5c-1.5,6.48,5.2,10.25,5.42,16.16l1.71-.55ZM334.44,412l-.47.88c2.42,3,4.77,6.16,7.3,9.11a8.67,8.67,0,0,0,3.6,2.84c4.32,1.3,8.76,2.22,12.23,3.06a14.38,14.38,0,0,0-10.26-4.66,8.6,8.6,0,0,1-5-2.63C339.15,417.91,336.88,414.86,334.44,412ZM328,278c-1.45-1.24-2-2-2.62-2.18-4.59-1.42-9.23-2.73-13.77-4.05C315.11,277.6,321.1,277.25,328,278ZM141.89,111.13c-1.08-4.46.29-10.13-7.27-11.3ZM409.58,280.32l-1.46.78,11.95,18.58.55-.28Zm-47.84,149c3.33,2,7.84,3.46,10.41,6.55,2.32,2.8,2.54,7.35,3.41,10.21C378.54,438.42,372.27,430.3,361.74,429.34ZM339.07,280.09c.3-.69.6-1.39.89-2.08l-12.7-5.59-.74,1.52Zm20.72,1.9c-4.63-5.85-10.08-8.55-13.61-5.91Zm-66.3-11.64.95-1.32L281,258.67l-.9,1.13Zm35.95,147.44c.68,7.35-3,12.22-8.75,16.26a3.58,3.58,0,0,0,2.65-.67C327.9,429.21,331.84,424.74,329.44,417.79ZM149,123.77l1.92-.09q-.81-7-1.6-14.09l-1.72.2Q148.31,116.78,149,123.77ZM270.64,249.3l-1.37,1.15,9.6,10.92,1-.87Zm48.77,100.44a35.65,35.65,0,0,1,1.56,5.51c.44,3.66.6,7.36.87,11.05l.64-.1.49-15.92Zm-12.76,50.07-10.51,10.93.53.55,11.85-10.23Zm11.77-83.3,1,.09-4.24-18.51-1.25.31ZM153,133.65l1.16,0q-.19-8.46-.4-16.93l-1.26,0Zm65.89,176.17c-7.88,1.07-8.51,1.67-6.1,5.06Zm-8.4,8.3,1.05,1.43,14-10.18-.51-.61Zm155,59.23-1,.46,6.19,13.73c-.52-3.27-.54-5.83-1.38-8.07S366.78,379.38,365.48,377.35Z"/><path d="M153.5,157.45c-.68-2.13-1.37-4.25-2.33-7.22-1,1.56-1.53,2.31-1.31,2-1.79-1.85-3.88-3.47-5.23-5.57a20.16,20.16,0,0,1-2.8-7.05c-.68-3.61-6.72-10-10.62-10.55-.39-1.94-.26-4.24-1.29-5.73a109.74,109.74,0,0,0-7.58-9l-.66,1.11c-1.92-4.7-3.83-9.4-5.88-14.4-2.72,5.61,5,22.83,14.21,32.34.44-1.62.84-3.11,1.25-4.61q.92,5.85,1.84,11.69l1.88-.09c.45-1.64.91-3.27,1.46-5.26l1.42,12.58L124,126.15l-5.7,4.63c0-.28-.1-.65,0-.74,4.93-3.78,3.32-7.55.38-11.74-2.07-2.94-3.43-6.39-5.55-10.46l-3.9,7.41-.6-.07c.34-1.23.33-2.78,1.09-3.65,3.43-4,1.84-7.5.11-11.71-7.36-18-14.3-36.13-21.35-54.24-2.33-6-2.53-6.1-9.77-4.12a35.71,35.71,0,0,0,3.69-2,25,25,0,0,0,2.73-2.63c-1.19-.16-2.38-.36-3.58-.46a4.42,4.42,0,0,0-1.3.25l3.26-4.25-2.46-.39,2.23-2.77c-.76-.34-1.21-.74-1.59-.68-6.25.93-6.69,1.62-6.5,8.62.15,5.15.08,10.31.12,16.42l9.19-4.9c-10.09,7.5-9.14,3.68-4.84,17.07.85,2.65,1.92,5.23,3,8.06l8-3.3c-3.23,2.44-5.3,4-7.36,5.58-1.28-1.74-2.55-3.5-3.82-5.26l-1.37.64c1.47,4.42,2.77,8.9,4.55,13.18.34.83,2.54.88,4.21,1.39-1.23-3.51-2.4-6.83-3.57-10.15,1,1.69,2,3.39,3.06,5.32l5.09-2.65c-2.92,2.4-5.23,4.86-2.91,8.25-2.24,1.59-4.27,3-6.31,4.46l.3.71,2.28-.69a23.08,23.08,0,0,1,2.71,3.6,20.11,20.11,0,0,1,1,4.21l2.09-.7c-1.11,2.22-2.07,4.13-3,6.05l1.07,1c1.5-1.58,3-3.15,4.48-4.74a28.54,28.54,0,0,1,5.3-4.87c-1.94,2.7-4.11,5.26-5.77,8.12-2.69,4.63.55,6.17,3.19,6.9l3.6,5.6,1.18-.5-1.53,4.68,6.09,2.53c-1.24.8-3.7,1.62-3.75,2.59-.1,1.57,1,3.55,2.25,4.79,2.59,2.65,5.2,5.06,5.09,9.23,0,.64,1.43,1.7,2.35,1.93,2.24.55,4.58.73,7.11,1.09-.08,1.29-.17,2.56-.26,4l5.89.92-2.85,5.59,4.42-.75c-.79,2.57-1.55,5.07-2.82,9.24l5.86-2.45a17.86,17.86,0,0,1,1,4.54c0,1.76-.79,3.5-1.29,5.51l4.11.76c-.56,2.26-1.09,4.37-1.7,6.81,2.81.4,6.69-1.47,6.36,3-.21,2.81-1.53,5.54-2.36,8.31l2.06.59,2.5-6.94.59.06c-.33,2.21-.65,4.42-1,7l4.57-.14c-.08,1-.17,1.91-.27,3.07l3.16.07c-.35,2.06-.7,4.14-1.1,6.51l5.86.72-2.84,5.74,4.39,1.29c-1,2.94-2,5.76-3,8.57l1.18,1.23,5.23-2.93-4.11,16.34c7.53-1.06,4.51-7.55,8.53-10.8-1.23,4.67-2.32,8.44-3.15,12.27-.22,1,.36,2.23.57,3.36.85-.77,2.05-1.39,2.48-2.34.9-2,1.4-4.24,3-6.26-.07,1.26-.15,2.52-.26,4.37l4.25-1c.36,4.37.71,8.79,1.16,14.41l4.7-4.88c-2,6.36-3.6,11.71-5.31,17.29l4,1.57c1-1.85,1.84-3.54,2.72-5.23l.45.13c-.45,1.75-.91,3.51-1.45,5.56l4.67,1.86,2.62-7.91,1.08.35q-1.72,5.82-3.44,11.65c-.59-1-1-2.29-1.84-2.76a4.26,4.26,0,0,0-3.51-.26,3.17,3.17,0,0,0-.88,3,4.2,4.2,0,0,0,3.17,1.77c1.06-.05,2.07-1.29,3.11-2,0,1.6,0,3.21,0,5l-3.25.85-4.53-1.61c-2.86-5.4-4.08-5.67-8.27-1.84.2-1.53.41-3.07.61-4.61l-1.2-3.53-.9-3.49-.67-2.65-2.11-3.2-2.84-1.08-4.31-1.5c-1.08-1.64-1.93-3.52-3.3-4.85-1.19-1.15-3-1.68-4.75-2.62-.41,2.43-.64,3.81-.86,5.13l3.31,2s.19.16.19.16l.13.22,1,3.11c-3,1.14-8-1.62-8.51,4.31-1.55-1.92,2.13-6.69-3.52-6.08.22-1.59.4-2.85.59-4.28L130,241.3c2.83,8.1,5.33,15.3,7.93,22.47.23.64,1.13,1.05,1.72,1.57,0,1.41-.33,2.91,0,4.22,9.29,33,25.29,63.16,39.18,94.22,1.15,2.57,2.45,2.17,4,.53-2.09,2.17-2,4.21-.71,7,12.8,27.64,31.23,50.93,53.9,71.1,3.85,3.43,6.71,3.5,10.94-1.07l-8.18-1.61,7.39-2.74-5.06-1.75,5.15-3.76c1.13.06,2.65.61,3.34.08a74.3,74.3,0,0,0,6.1-5.69l4.77-.23c-.21-1.14-.43-2.27-.64-3.41l-4.51,1.22-5-3.25-.2,0-1.13,3.62-4.48-4.25-1.31-.19-2.62-.66-4.17-8.85a.58.58,0,0,1,.48,0l1.8.39h-.12c2.63,0,4.6-.73,4.51-3.87l1.82-1.12,4.47-7.69,15.16,6.5-3.26,3.94c1.07.61,2.13,1.22,3.21,1.82A37.11,37.11,0,0,1,270,413c2.66,2.15,5.07,4.41,7.55.2-.12,2.72-.22,5.38-.35,8.54a6,6,0,0,0-2.1,2.06c-.43.95.13,2.34.26,3.54,1-.56,2.48-.88,2.88-1.71,1.44-3.05,2.51-6.27,4.66-9.17-.85,3-1.71,6-2.64,9.37,6.35-.1,5-5.6,6.9-8.52-.61,3.13-1.23,6.31-1.62,8.29l7.43,1.89c-3.56-1.7-5.73.37-8,2.68,3.44,2.22,5,1.63,7.89-2.72l3.29,2,.45-.5-3.37-3.77,4.76,2.21.43-.76-6.84-5.08.44-.66c3.78,2.25,7.48,4.63,11.34,6.73,5.31,2.88,10.76,5.54,16.12,8.34,1.14.59,2.1,1.78,3.27,2,2.72.48,4.64,5.58,8.25,1.54.16-.18,1.57.43,2.14,1,5.09,4.73,11.37,6.75,17.94,8.37,1.89.47,3.26,2.88,5.17,3.49,7.39,2.39,14.88,4.51,22.39,6.49a8.71,8.71,0,0,0,4.88-.55c13.17-4.86,26.63-9.15,39.32-15.06,7.51-3.49,14.15-9.2,20.49-14.7,3.67-3.18,7-7,6.1-13.32-.57-4.14,1.45-8.83,3-13,2.39-6.37,2.14-12.67,1.05-19.14a34.28,34.28,0,0,1-.15-4.87c7.91,18.53,1.46,44.79-15,57-6.95,5.17-15,9.12-23,12.5-13,5.48-26.29,10.27-39.63,14.89-9.88,3.42-20,6.05-30,9.15-10.16,3.14-20.19,6.79-30.47,9.48-4.61,1.2-10.11,1.94-14.5.59-17.89-5.49-34.88-13.19-49.63-25-19.06-15.22-37.13-31.52-50.77-52a283.09,283.09,0,0,1-18.45-31.39c-9.27-18.8-17.92-37.92-26.25-57.16-5.49-12.66-10.86-25.5-14.69-38.72-8.52-29.44-22-56.26-38.65-81.88-23.36-36-43.08-73.92-55.49-115.27-1.19-4-2.35-8-3.39-12-3.79-14.58.17-24.54,12.85-32.45,8.88-5.55,17.8-11,26.67-16.6C89,15.48,90.71,15.68,94.43,22q8,13.56,15.42,27.45c13.2,24.63,30.87,45.75,50.77,65.15q22.71,22.14,45.34,44.33a42.94,42.94,0,0,1,2.82,3.46c-6.24-5.66-12.76-11-18.67-17-18.59-18.82-38-37-55-57.13-12.34-14.63-21.41-32-31.81-48.27-3-4.76-5.48-9.92-8.6-14.63-.91-1.37-3.2-1.82-4.86-2.7q-1.12,3-2.23,5.95l1.56.63,1.16-2.3.69.17c-.67,2.55-1.34,5.11-2.37,9l4.75-3.86c-.68,5.51-1.2,9.63-1.71,13.74l1.22.22,2.39-6.26c-.44,6.38-.83,11.9-1.21,17.42l1.5.1,1-7c.16,12.51-.61,25.24,12.11,34,.61-5.46,1.14-10.26,1.67-15l1.07.12a51.77,51.77,0,0,1-.78,7.62c-1.68,6.72,1,11.12,7.35,13.78l-1.47.85c.4,1.12.47,2.68,1.26,3.29,4.58,3.51,9.34,6.8,13.56,11l-11.53-7.4-1,.45a29.23,29.23,0,0,0,1.62,4.46c.11.22,1.75-.37,2.67-.58.48,4,10.27,11.84,11.88,11.1l9.58,7.24c-.12,1.41-.29,3.54-.51,6.37l2.61-1.68c1,3.52,1.76,7.07,3,10.46.3.82,2,1.12,3.84,2,.62,2.62-2.42,7.78,3.87,10.08.25-3.58.47-6.92.7-10.27l.8,0c0,3.42-.16,6.86.07,10.26.07,1.1,1.16,2.13,1.78,3.18l1.68-1.73c.47,6.86,7.26,7.5,11,11.52-1.69,2.54-2,4.53,1.4,6.8,5.07,3.41,4.08,9,3.88,14.46.72-1.63,1.45-3.26,2.17-4.88l.9.08c-.22,3.5-.43,7-.65,10.49l1.27.16,2.1-8.08,1.47.12c.06,1.75.25,3.5.17,5.23-.21,4.4.77,5.21,4,4.22,2,2.4,3.69,4.47,5.53,6.68-.36,1.78-.79,4-1.23,6.16l1.55.45,2.16-2.61c-2.32,4.91,1.56,6.81,4.39,9.25l-2.49,4,7.25,9.43-1.89,5.07,1.26.19c2.21,4.87,4.13,9.11,6,13.36l1-.51q.2,4.19.37,8.39l1.16-.57c1,1.49,2.52,2.91,2.71,4.5s-1.08,3.2-2,5.63l5.37-1.88c.38,1.24.46,2.73,1.21,3.67,2.74,3.44.33,6.66,0,10-.09.81.58,1.71,1.13,3.14l2.52-3.51c1.17,3.29,2.3,6.45,3.41,9.62s2.69,5.85,6.24,7.24c.09,2.45.21,5.48.32,8.54,7.2,2,9.59,4.56,10.19,11.37l8.77,2.66c.09,2.1.18,4.21.25,5.9l7,3,2.27-5.78.74.11q-.49,3.09-1,6.21c4.78.7,8.63,2.89,11,6.55,1.13,1.74.41,4.66.53,7.05q-1.33,8.06-2.68,16.11c-2.66.81-2.92.77-2.57-1.67.41-2.82-.17-4.49-3.71-4.63-.71,2.7-1.42,5.38-2.39,9-1.54-4.59,4-9.74-2.94-12.33l-3,3.19c0-3.87,2.32-7.93-1.77-11.64l-2.5,7.21-1.42,0c-.22-2.59-.43-5.18-.68-8.18l-3.05,4c-.73-3.35.25-8.71-4.58-5l-4.38-3.56c1.56-.39,3.77-.32,4.49-1.32s-.08-3.07-.21-4.67l-5,2.3c-.06-3.25-.11-6.5-.17-9.76l-1.8-.3-2.86,7.77-.68.05a32.84,32.84,0,0,0,0-5.52c-.16-1-1.23-1.92-1.87-2.89s-1.51-1.72-1.48-2.55c.17-4.3.08-8.15-6-7.47-.5.06-1.08-.62-.69-.37-.41-3.6-.73-6.44-1-9.27,4,.6,2.78-2.87,3.24-4.64.22-.86-1.26-2.16-2-3.27l-1.62.43-.2,7.33-3.12,2.55c-.23-1.41-.44-2.68-.64-4l-.08.14q1.59-4,3.2-8c-.62-7.81-.89-8.1-6.23-6.7-.17-1.31-.42-2.62-.47-3.94a8.48,8.48,0,0,0-1-4.69l-4.29,4.77c-1-3.25,5.1-8.39-3-9.94.83-2.43,1.64-4.83,2.63-7.77l-5.6,3.61c0-3.4.06-6.16.1-10.05l-3.71,2.63c.55-2.19.64-4,1.43-5.36,2-3.56-.68-5.92-2.14-8.39-.44-.74-2.86-.32-4.92-.47,1.81-5.9-.52-10.68-3.76-15.7-1.66-2.57-.7-6.79-1.05-10.24a29.07,29.07,0,0,0-1-4.07l-1.83,1.25-1.46-.37q-3.13-5.67-6.25-11.35L178,195.1q.09,4.54.17,9.07l-2.5-.19c1.16-5.93,1.62-11.65-2.31-16.15l-1.81.51c.34,1.21.68,2.41,1.26,4.5L162,184.77l.49-.83,2.87.84.85-1-6.29-6.51,5.26,2.72c-.08-4.46-4.11-5-6.53-7.1-1.27-1.12-2.39-2.41-3.58-3.63l0,.27c.2-.24.36-.62.62-.7a1.2,1.2,0,0,1,1,.1c1.27,1.29,2.47,2.65,4.23,4.57,1.64-7.26-4-8.16-6.93-11.06l7.15,3c.72-4.31-2.14-8.69-7.2-10.92Zm-11.73,50c-.36,2.18-.72,4.37-1.09,6.54,4.39.9,5.12-.09,5.21-7.18-1.47.3-2.82.57-4.17.86-4.29-1.79-4.9-1.14-5.74,7.47,1.77-1.61,2.9-2.33,3.59-3.34A32.24,32.24,0,0,0,141.77,207.43Zm-38.44-39.06-3.76-1.52c.41-2.18.72-3.88,1-5.58-4.89,2.73-4,8-6.6,11.78q1.77-6,3.55-12.06l-1.78.11-4.39-5.46c-1,3.24-1.91,6.11-2.81,9l-1.89-.45,4.07-9.26-5.28.94c.36-2.69.57-4.3.67-5.05l-5.51-.17,3.45-6.21-4.86-1.92c.57-2.82,1-5,1.34-6.61L73,133.33c.73-2.19,1.31-3.93,2-5.92-1.31.07-1.73,0-1.93.12-1.66,1.29-3.29,2.63-5.75,4.63C76.52,148.56,85.65,165,95,181.24c2,3.55,6.84,4.15,10.29,1.4l-6-2.41,4.46-11.13c4.2.9,5.66-.7,6.37-7.23l-5.4-1.92C104.22,163.07,103.78,165.72,103.33,168.37ZM99,184.89c-.37.55-.74,1.11-1.12,1.66,4.92,7.65,9.5,15.55,15,22.77,1.42,1.88,5.78,2.4,8.55,2,1.24-.19,1.89-4.24,2.81-6.55l-1.52-.48c-.75,1.46-1.51,2.92-2.07,4-.55-1.6-1.11-3.24-1.67-4.89l-4.25,4.47c-.41-4.29-.82-8.63-1.28-13.49l-1.84,2.28c-1.61-1.19-3.16-2.36-5-3.77.2-1.46.47-3.54.68-5.16Zm15.37,27.2c4.36,7.93,8.1,14.71,11.83,21.48a29.66,29.66,0,0,0,3.4-9.45c.28-1.3.39-2.63.58-3.94l-4.09,1.58c-.72-2.12-1.6-4.73-2.42-7.16Zm-47.5-82.5,2.19-.13c.41-2.8.94-5.58,1.16-8.4a15.07,15.07,0,0,0-.65-3.86l-3,1.49-8.33-13-1,.53ZM175,171.47l-1.86-.59c-.42,2.44-1.29,4.91-1.1,7.29.11,1.39,1.93,2.64,3,4l1.52-.84C176,178,175.52,174.74,175,171.47Zm-46.69,63c3.12-.6,6.62-5.67,5.86-7.49a1.91,1.91,0,0,0-1.41-1.05A2.56,2.56,0,0,0,130.9,227C130,229.26,129.3,231.58,128.32,234.49ZM268.55,416.86c-.11,3.09-.18,5.21-.29,8.13l6.5-4.79ZM126.34,162.38c-5.92-.34-4.86,3.72-6.11,6.51C126,170,124.78,165.55,126.34,162.38Zm10.33,43.4c-5.84.58-4.73,4.48-6.1,7.74C136.06,213.23,135,209.18,136.67,205.78Zm-21-43.47c-3.94-.53-3.94-.53-5,5.65C114.52,168.68,114.59,168.6,115.67,162.31Zm169.86,304c-9.19-7.82-9.19-7.82-12-6.25ZM168.81,172.89l1.64-.61c.67-6.27.67-6.27-3.78-7.06C167.46,168.05,168.13,170.47,168.81,172.89ZM118.9,155c-5.14-1.32-5,2-5.85,4.95C117.82,161.37,117.79,157.87,118.9,155Z"/><path d="M396,401c-2.43-3.92-1.14-9.53-5.71-12.46,2.85-1,3.19-3.26.59-5.26-2.33-1.8-4.9-3.29-7.36-4.91l3.63-1.28,3.37,5.24c1.44-5.72-1.16-8.43-3.79-11.14-.27-.62-.53-1.24-.8-1.85l-4.8-8.93,2.71.81c1.05-4.27-.17-7.13-4-8.79l3.54-.1,1-1.3-6.05-6.48-1.72,1.13c1,2.19,2,4.39,3,6.58l-2.23,2.36a14.39,14.39,0,0,0-1.15-3.52c-.24-.38-1.55-.11-2.37-.13l-4.12-5.15a30.12,30.12,0,0,0,3.16-2,67.22,67.22,0,0,0-3.48-6c.79-.68,2.33-1.46,2.25-2-.4-2.87-1.22-5.7-1.89-8.54,0-.95.05-1.9.08-2.85,1.77-3.35,1.25-6.08-2.19-8l3.48-.16-3.19-3.8.35-.64,9.75,6.39,2.31-6.19.79.14-1.05,7.56,2,.26,1.44-8.88,9.42,4.41c.17-3.82.29-6.57.4-9.22l7.36,2.66-3.7,10.32,3.59-3.29c0,3.08,0,5.71,0,8.62l-3.2.88,5.11,3.87,1.77-.54c-.38-2.32-.77-4.64-1.12-7,1.72-1.45,3.76-2.69,4.91-4.49.37-.59-1.6-2.67-2.49-4.07l-1.1.45c-.41,2.71-.83,5.42-1.24,8.13-.41-.49-1.19-1-1.17-1.49a96.84,96.84,0,0,1,.85-13c.42-2.42,2.19-4.6,3.69-7.57l-17.07-1,0-1.94,18.54-.25-.74,2c1.72,1.45,3.24,3.28,5.19,4.26,3.91,2,6.08,6,10.59,7.83l-2.66,2c.39.31.71.76,1.12.87,3.18.81,4.24,2.69,2.4,5.47-2.06,3.11.05,3.56,2.63,4.57,0-2.26,0-4.1,0-7.25,4.29,6.66-1,15.25,6.85,20.17,1.19-2.75,2.12-4.9,3-6.91.62,2.74.58,5.81,2,8,2.08,3.2,2.51,2.92.89,6.11l-4.3-4.93-1.54.42c-.49,2.66-2.09,5.84-1.16,7.84s4.39,2.84,6.92,4.29c-4.73,3.42-7.13,14.82-3.41,17.2,1.23-4.63,2.41-9.11,3.6-13.6l1.33.34c-.92,3.7-2,7.37-2.64,11.12-.19,1.06.85,2.33,1.33,3.51.87-.78,2.11-1.4,2.54-2.37,1.43-3.21,2.56-6.55,3.8-9.85l1.36.46L443,370.5l1.26.54c1.05-2.05,2.1-4.1,3.38-6.58,1.69,2.64-4.11,8.33,4.1,8.18-3.66-17.95-4.1-36.13-14-52.23C426,301.26,415,281.68,403.82,262.19c-2.64-4.61-4.51-9.64-6.89-14.4-6.24-12.52-16.67-19.65-30.05-22.6-8.78-1.93-17.67-3.33-26.5-5-1.75-.33-3.45-.94-5.17-1.42a30,30,0,0,1,4.84,0c8.52,1.49,17,3.07,25.52,4.68,17.15,3.23,27.76,13.95,35.55,29.13q16.15,31.48,34.29,61.93c6.84,11.49,12.27,23.13,14,36.44,1.16,9.16,2.65,18.28,4,27.42-.74-4.17-4.05-3.43-7.17-3.63-.42,2.23-.84,4.49-1.57,8.39l7.12-3c-1.5,5-2.89,10.17-4.57,15.19-.91,2.71-.7,3.64,1.92,5-1.22,1.07-3.22,2-3.67,3.41-.68,2.13-.28,4.6-.35,7.14-2.94.81-2.46,2.94-.47,5.44L442,419.21l-4.35-6,4.91.69c-.44-1.94-.33-4.07-1.18-4.57-1.46-.86-3.52-.7-6.77-1.19l3.29,5.12-3.18,3.12c.31-4.94-3.59-5-7.19-5.82.47,2.35,1.14,4.71,2.64,6.27.63.65,3-.4,4.62-.67.81,1.47,1.32,3.68,2.54,4.21s3.1-.74,4.69-1.22c0,1.6-.08,3.21-.13,5.05l-12.57-6c0,1.61,0,2.78,0,4l.19.06c-.65-1.5-1-3.19-2-4.44-1.35-1.78-3.13-3.51-4.4.22-.5-1.69-2-4-1.35-4.94,2.8-4,.12-6-2.27-8.23,4.22-.86,1.17-4.46,2.43-6.44l2,8.3,1.46-.38c.24-1.41.48-2.83.78-4.58,5.9,1.28,4.22-2.89,4.54-5.76l-5.55-2.71c2.9-.31,3.39-2.12,2.61-4.49a22.4,22.4,0,0,0-3.07.56c0-1.75,0-3.61.05-5.49l-6.91-3.36c.69-1.38,2.23-3.67,1.91-4-1.34-1.25-3.24-1.91-4.93-2.78l6.16,0c1.51,2,3.11,3.58,5.65,1.39l3.56,1.69,4,3.22c.16-4.26,3.48-7.56-.7-11.06L430,377.09c-.8-3,2.87-6.69-1.49-9.91l-2,8.19a33.21,33.21,0,0,0,0-5.37,19.83,19.83,0,0,0-1.56-4.14l-3.67,2.79-3.1-6,4.4-2.66,3.86,6c2.85-10.55,2.75-10.91-2.16-11.33l-1.77,5.57a29.59,29.59,0,0,1-.06-3.88c.35-3.12-.72-4.74-5.46-4.23.48,3.61.94,7.09,1.41,10.58-.85.68-2.18,1.22-2.45,2.08a69.61,69.61,0,0,0-1.51,7.5,42.18,42.18,0,0,1,.14-6.85c.75-4.13-1.24-5.21-5.61-5.23-.32,2-.63,4-1,5.95l.67-.26c-.86-2.92-1.73-5.84-2.59-8.76l3.47-.34,4.93,3.64c3.22-9.63,3-10.26-4-11.2-.31,2.52-.62,5.13-.94,7.72q-.33-4.8-.68-9.58l-2.53.12c0,3.22,0,6.45,0,9.67L403.54,356c2.41-8.32,2.31-9.12-1.56-10.3L400,351a21.79,21.79,0,0,0-.14-2.8c-.24-1.46-.33-4-1-4.13-1.55-.43-3.4.27-5.13.51l-2.78-2.13c-.82,2.27-2,4.49-2.3,6.83-.14,1.05,1.36,2.32,2.52,4.13l2.6-9.08a18.57,18.57,0,0,0,.42,3.83c.42,1.34,1,3.14,2,3.66.89.44,2.54-.66,3.86-1.07,1.24,1.77,2.49,3.54,3.73,5.32l-4.54-.41c0,5.75,0,11.15-.08,17.49l2.43-1.56c4.21,4.59,8.9,8.82,9.85,15.3.07.48,1,.82.86.68-.73,1.5-1.82,2.7-1.57,3.42a23.26,23.26,0,0,0,2.8,4.58l1.51-.71-.69-10.32,1.21-.07c.42,4.84.6,9.73,1.35,14.52.32,2.08,1.81,4,2.76,5.95l-2,4.81a81.37,81.37,0,0,0-2.07-10.12c-.43-1.35-2.36-2.21-3.61-3.29-.13,1.39-.36,2.79-.36,4.18,0,3.16,3.2,5.91,1.22,9.34l-6-5.58-1.47,1.63-8.92-9.11Zm-10.21-81c-.28,1.21-.56,2.42-.86,3.69l-3.41.43,5.44,4,1.54-.83q-1.37-3.45-2.71-6.88l3.46-1.9L386.36,314l-2,.9Zm13.67,68.42-2.32-.74-.91.86,4.63,7.18,2-1.13-3.55-6.23c2.42-2.22,1.67-5.55-2-9,3-3.65,2-6.51-4.33-8.87l4,8.61c-.63.51-1.88,1.33-1.81,1.48C396.52,383.26,398,385.83,399.5,388.41Zm39.91,13.08-3-4.15c-4,5.46-3.94,6,.09,7.77l2.95-3.85L438,406.31l5.58,2.05a33.12,33.12,0,0,0,.39-5.21,13,13,0,0,0-1.17-3.26ZM379.35,335l-2,.27c-1.86,6.29-.38,10.32,7.18,10.47.34.94.75,2.08,1.43,3.94,1.51-9.87,1.17-10.65-4.67-11.8l-1.35,4.65C379.71,339.65,379.53,337.35,379.35,335Zm13.59,29.3,4.71,7.32c-.15-4.06-.79-6.58-.21-8.78,1.09-4.23-.58-6.08-5.61-7.31,1.13,2.48,1.85,4.08,2.57,5.65-3.68.12-4.23,1.22-2.57,5.37Zm7.84-21.67c.42-3.95,4-8.55-3.27-9.38C394.6,340.75,394.79,341.38,400.78,342.67Zm14.41-13.42c-2.36,5.87-2.16,6.23,4.23,7.75C421.53,331.67,421.37,331.36,415.19,329.25Zm13.73,17.57,1.95-.66c.33-2.28,1-4.58.85-6.83-.06-.92-1.86-1.72-2.86-2.58-.89,2.1-2.22,4.15-2.47,6.33C426.25,344.21,428,345.57,428.92,346.82ZM412.66,341c-1.58,6.79-1.29,7.26,4.34,7.47C418.72,342.56,418.72,342.55,412.66,341ZM428,333.24c.15-4.38,0-7.91-5.15-8.4C421.77,329.2,422.82,332.1,428,333.24Zm-5.45.44c-.42,3-.84,5.89-1.3,9.12l2.66,1C427.16,334.75,427.16,334.75,422.59,333.68Zm7.11,21.95c.38,4.56-3.21,8.09,1.84,11.85C431.33,363.16,435.56,359.66,429.7,355.63ZM395,330.48l1.42-1.23c-.36-3.71-3.78-3.8-6.86-5.15l-1.15,10.33.95.1,2.52-8.91Zm41,49.57,1.67.17c3.63-4.9,3.61-7.56-.58-8.89C436.63,374.31,436.27,377.18,435.92,380.05Zm-29.77-43.52h-1.9c-2.83,5.71-2.69,6.66,2,8.1C406.23,341.76,406.19,339.15,406.15,336.53ZM374.87,329c3.58-5.32,3-6.58-3.51-8.51Zm14.55,29.61-5-2.72c1.83,3.84-.45,7.73,4.14,8.84C388.85,362.79,389.08,361.07,389.42,358.62Zm33.3-7.39c1.45-5.42,1.45-5.42-2.58-6.84C418.57,347.42,417.48,350.16,422.72,351.23Zm6,2.08c1.48-3.59,1.38-6-3.19-6.31C424.55,350.1,423.49,353,428.77,353.31Zm-24,24-1.62,1,4,6.16,1.61-1Z"/><path d="M300.83,213.1a207.33,207.33,0,0,1-65.36-28.91c-9.59-6.39-18-14.58-26.92-22,5.52,4.43,11,8.94,16.57,13.26,21.18,16.34,45.21,27,70.46,35.18A46.89,46.89,0,0,1,300.83,213.1Z"/><path d="M335.46,218.78l-31.34-5c.6-.21,1.25-.7,1.8-.6C315.77,215,325.61,216.91,335.46,218.78Z"/><path d="M335.41,248.42,333,258.85c-1-1.43.14-6.8-4.18-3.28l-2.21-5.16-1.47.37c-.15,3.69-.31,7.37-.47,11.34-2.95-2-6-4.08-9.1-6.19s-5.88-4.1-9-6.27c-.92,5.4-.92,5.38,4.51,9.13a39.73,39.73,0,0,1,8.54,7.25c-5.23-3.57-10.36-7.3-15.76-10.61-2-1.25-4.71-1.52-7.1-2.23-1.41-2.21-2.83-4.41-4.35-6.77l-1.64,2.79c-.34-2.13-.6-3.74-.86-5.34l-1.9.32c.6,3,.6,6.31,2.07,8.76.6,1,4.4.06,6.74,0l4.42,6.86-21-11.25-.73,1,9.3,7.29-.66.84c-6.22-4.52-12.47-9-18.64-13.57-4.4-3.27-8.64-6.76-13-10-2.89-2.14-4.72-4.37-3.47-8.35.32-1-1.27-2.66-2-4l-2.27,1.46c-1.24-5.76-6.51-8.26-12.18-11.73.94,2.5,1.6,4.24,2.26,6l-.79,1.22c-6-4-12-7.87-17.79-12.14-1.23-.91-1.36-3.31-2-5l8.73,9.43c1-7.9-5.54-7.79-7.95-11.68l-.8,2.46c-1.42-2.31-2.95-4.56-4.2-7a34.75,34.75,0,0,1-1.33-4.27,17.74,17.74,0,0,0-1.31-2.47l-1.36.87c-3.79-5.9-7.49-12-11.57-17.82-1.32-1.87-3.73-2.95-5.43-4.6-2.27-2.2-5.72-3.7-4.75-8,.18-.81-1.33-2-2.83-4.09.15,2.35.21,3.4.33,5.28-1.54-3-2.37-5.77-4.1-7.65-1-1-3.45-.69-6.49-1.16l-5.14-11c5.69,5,10.35,9.18,15,13.3,4.23,3.7,8.53,7.32,12.71,11.07.63.57.72,1.71,1.16,2.54.86,1.67,1.45,3.7,2.77,4.87,2.73,2.41,6.13,4.08,8.76,6.57,2,1.89,3,4.8,4.91,6.85,1.57,1.71,3.77,2.83,5.66,4.18,3.73-4,3.77-7.07-2.55-9.07.35-1.05.69-2.09,1-3.15,1,1.33,1.71,2.74,2.83,3.6,10,7.77,20.09,15.43,30.14,23.14a.46.46,0,0,1,.06.44,6.26,6.26,0,0,1-.6.67l-.9,8c-1.1,3.18-3,6.53,1.92,8.36,2.66-3.71.92-6.2-2-8.38l3.67.62c1.47-4.58,1.47-4.58-2.74-8.59,1.35.51,3,.68,3.95,1.61s1.1,2.53,1.24,3.89c.2,2,.08,4,.09,6,2.78-.29,3.31,5,6.88,2.77q.94,2.13,1.9,4.25l2.12-.65L266.67,215l5-5.47,9.86,7.06c.25-2.76.44-4.84.67-7.26,1.2,1.44,4.52,2,1.42,5.8-2.52,3.11,1,4.64,2.59,4.92,2.44.42,3.43,1.65,4.52,3.42.37.61,1.36.83,3.43.7-.66-2-1.31-3.95-2-6l15.1,8.34-.09-.64,5.71,6.4,2.1-6.12,22.33,15.33.83-.79-2.84-4.41.51-.89,15.09,10.38,2.41-4.75c-.22,2.73-.82,4.43-.32,5.7s2.12,1.78,3.88,3.13c.38-2.83.64-4.83.95-7.16l7.07,5.33c.46-2.91.78-5,1.22-7.75,6.44,5.38,13,10.69,19.26,16.23.76.67.48,2.57.62,3.91s.22,2.85.45,5.79c1.75-2.2,2.47-3.09,2.31-2.89,1.35,1.56,3.06,2.9,3.83,4.66.54,1.23-.2,3-.37,4.57l-2.49-3.87-1.38,0c-.77,3.86-1.53,7.72-2.34,11.81l6.68,2.11c-3.12-4-3.06-7.21-.42-10.27-1,8.07-.35,8.95,7.27,9.51-.38-1.08-.7-2-1.18-3.35,5,1.39,1.56,3.86,1.43,5.94l-15.19-2.57c.25-6.17,4-11,1.71-16l-2-.31c-.09,2.67-.19,5.35-.28,8l-1.91-.35q.7-4.89,1.4-9.78l-.55-.17q-1,5.91-2.05,11.81l-2.41-.46a17.48,17.48,0,0,1,.24-4.12c.92-2.93-.64-4.27-2.88-5.46-1.06-.56-1.84-1.7-2.92-2.12-1.32-.51-3.11-1.18-4.19-.67-3.21,1.51-5.74,2.25-7.57-1.86-.46-1-2-1.62-3.21-2.56-.59,1.3-1,2.29-1.47,3.28l.13,0-4-8.2a5.2,5.2,0,0,0-6.28-4.31l-2.13,2.56.12,0c-.74-3.21-1.73-6.15-6-5.68ZM269.24,234.8c.95-.88,2.8-1.93,2.67-2.61-.34-1.77-1.54-3.37-2.4-5l-2.14,1,2.08,6.74c-.42.73-1.37,1.87-1.18,2.12a30.19,30.19,0,0,0,3.43,3.35l-4.3-1.45-.84,1.29,11.22,8.45c.4-.46.8-.93,1.21-1.39l-7.48-6.94c2.24,1.09,4.47,2.19,7.63,3.75l-2.54-3.95c1.16-3.47,2.31-6.93-2.76-8.37-2.17,4.07.64,6.16,3,8.42Zm36.18,1.88c.09,4.35,3.32,5.8,7.2,7.83,0-5.65-3.49-6.73-7.25-7.58l-5.3-5.48-1.88,1.75a31.25,31.25,0,0,0,4.08,4.49C302.77,238.07,304.34,237.06,305.42,236.68Zm7.95,0c-.55-3.42-2-6-5.76-6.69-2,3.29-.9,5.61,2.11,6.94,1,.42,2.46-.3,3.71-.5.55,3.36,1.74,6.12,6.43,5.9a18.22,18.22,0,0,0-3.3-6.53C316.29,235.44,314.47,236.34,313.37,236.66Zm-8.49,9.64,7.47,5.81c.8-6.07.5-6.48-6.2-9.32-.43,1.2-.85,2.4-1.27,3.54-.3-4.09-1.14-7.79-6.35-8.61C296.68,243.65,301.8,244.24,304.88,246.3Zm-21.64-8.41c-4,7.61-3.65,8.54,3.84,12.2,0-3,.07-5.71.11-8.43l-1.05-.08c-.36,1.29-.71,2.59-1.15,4.19C284.34,242.86,283.79,240.37,283.24,237.89ZM293.69,234c-2.81,8.21-2.4,10.31,2.92,12C292.23,242.72,301.06,236.87,293.69,234Zm4.79,10.33c-1.64,5.9-.49,7.51,6,8.73C305.39,248.08,302.3,246,298.48,244.29Zm-21-12.73c2.57-7.57,2.48-7.88-2.76-9.77C274.28,225.44,271.57,229.6,277.47,231.56Zm81.94,14.38c-2.51,4.5-.07,6.22,3.51,7.54C365.79,249.25,362.84,247.7,359.41,245.94Zm18.35,5.68c-3,4.51-.17,6.12,3,7.68C383.7,255.37,381.19,253.56,377.76,251.62Zm-108-33.73c-.51,3.74-3.07,7.26,2.68,9.55C272.29,223.91,275.84,220.3,269.77,217.89Zm34.87,15c3-4.67-.17-6-3.51-7.41C297.88,230.11,301.4,231.29,304.64,232.84Zm63.05,11c-2.22,3.67-1.82,6.12,2.53,7.32C372.8,247.65,372,245.37,367.69,243.82ZM316.08,248l-2.5,1.3,4.45,6.93,2.08-1.25Zm61.36,10.12c-3.36,4.45-1.59,6.18,3.31,6.13C379.65,262.15,378.54,260.11,377.44,258.07ZM276.39,215.25c-2.26,3.92-.52,5.58,2.88,6.66C281.93,218,279.42,216.66,276.39,215.25ZM226.16,190c-.07-1.82-.13-3.32-.24-6-3.39,6.47-3,7.55,2.21,8.76q.66-2.57,1.31-5.1l-1.22-.44C227.62,188,227,188.83,226.16,190Zm89.66,38.93c-2.51,4.63,1.1,5.18,3.52,6.73C321.4,231.66,319.39,230.08,315.82,228.92Z"/><path d="M170.72,267.75l4.53,1.61,3.68,4.92c1.39-2,2.18-3.07,3.72-5.26l-.71,5.25,5.36,2.6-.22.8-6.31-1.88c-.11,1.49-.21,2.78-.32,4.08l3.86-.23c.41.89,1.06,2.28,1.48,3.16-1,1.08-2.63,2.14-2.67,3.26s1.72,2.06,3.09,3.53c1.12-2.91,1.86-4.86,2.61-6.81-.81,7.23,1.75,13.06,6.4,18.19l-2.69,1.74c.77.9,1.55,1.8,2.31,2.72,1.67,2,3.28,4.1,5,6.05a65.69,65.69,0,0,1,6.17,7.38l-6.26-4.17c-1.44,3.17-1.15,2.73,2.39,5.11,2.89,1.94,5,5.08,7.81,8.11l-7.67-4.12-.84,1,7.93,6.31-.39.7-3.51-1.5-.62,1.18,5.07,3c2.81,1.81-3.3,6.89,3.06,8.76l2.37-6.38,1.25.44-4.13,10.36.11,0-3.55-5.53-3,5.11c1.22-3.92.83-6.88-4.46-7.1-2.4,3.66-2.81,6.94,1.54,9.57l-5.62-.75c-.65-2.42-.21-6.38-4.73-3.36a31.53,31.53,0,0,0-3.28-3,50,50,0,0,0-4.54-2.51l3.94,0c1.4,2.9,3.41,2.92,5.53.95,2.37-2.19,1.05-3.72-1.13-5a20.51,20.51,0,0,1-2.31-1.89c.17-1.48.35-3,.52-4.44-1.1-3.23-.66-5.79,2.07-8.35,2.42-2.26,3-5.42.2-8.23-.45-3.36-1.73-5-5.07-2.47l-3.91-.53c-.76-2.07.85-5.69-3.53-5.37l-5.71-3.67,1.18-.52,0-1.17-2.7-1.93c.57-4.13-2.39-6.21-5-8.51l.09.17-.1,0-1.79-2.23-.84-.15.14.07-1.82-4.58c4,1,7,.21,7.74-4.5,4.37-5.12-.94-5.91-3.54-7.92Z"/><path d="M312,380.18l-4.67-7.82,0-.13,2.64-6.35,2.25,3.05c.25-3.7.41-6.19.58-8.67l1.17,0c.15,1.06.38,2.11.44,3.18.22,4.37,1.91,7.74,6.51,8.69,4.85,1,5.9,5,7.54,8.7.61,1.37,1.41,2.66,2.6,4.87l1.29-3.66,1.49-.24q1.23,6.68,2.47,13.36l1.25-.27c.14-1.6.27-3.19.43-5.09,3.22,1.38-.08,9.23,6.77,6.3,3.28,9,9.72,16.12,16.86,23l-1,.15L358,424.89l-1.4-5.88-2.82,4.39c-1.26-8.48-9.22-7.72-13.79-11.44-.61-2.14,1.61-6.51-4.5-5.18-1.63.35-4.3-3.84-6.41-6-1.09-1.12-1.79-3.13-3-3.5-5.28-1.57-5.34-7.15-8.45-10.3v.23c2.38.53,3.52-.46,3-2.81a36.54,36.54,0,0,0-1.94-4.91l-3.13,2.5Zm15.33,10.17c.17-6.36-.2-7-4.81-7.58C323.27,385.91,321.72,390.27,327.31,390.35Z"/><path d="M240.93,253.23l3.9,4.63,1.52-1.08L244,251.46l.67-.41c2.59,4,5.2,8,7.75,12.09,2.22,3.51,4.35,7.07,6.52,10.6.26.42.9,1,.8,1.21-2.45,6,3.17,5.85,5.91,6.8,3.43,1.2,6.18,2.37,7.84,5.83.62,1.28,2.48,1.95,3.79,2.91-2.74,3.85,6.3,16.57,14.64,18.89l-4.62.79-.48,1.14,6.27,3.09,1.12-1-3.36-8.78.82-.36c1,2.12,1.81,4.32,2.92,6.36s2.61,4.12,4.18,6.57c0,0-.93,2-.73,2.09,2.39,1.46,5,2.63,7.21,3.74,4.12,7.6,8.31,15.36,12.05,22.25l-11.6-2.08,8.35-.81.33-1.52-10.51-3c2.37-2.89,1.21-5.51-3.76-8,.63,1.68,1.11,2.95,1.39,3.68l-4.84-5.83c.15-.33.3-.65.46-1l6.34,3c2.2,2.81,2.15,7.92,7.71,8.16-.86-5.06-4-6.94-7.73-8.16l2.38-.65c-.9-4.05-6.52-7.61-10.67-7.54-1.45,0-3.11-1.83-4.36-3.13-.95-1-1.11-2.84-2.14-3.64-3-2.34-6.34-4.35-9.06-7.43l3.51-.07.5-1.66-12-3.78,4.81-1.17-7.05-5.4c2.17-4.11-.79-5.61-3.7-6.8a45.25,45.25,0,0,0-6.63-1.65l4.26-.74c-2.36-3.67-4.25-7-8.6-6.14l-1.15,1.47,5.72,5.47-7.44-1.22c2.75-.06,3.64-1.32,1.93-3.57a50.71,50.71,0,0,0-4.58-4.7l1.52-1.69L246.05,272c4-2.33,1.31-3.82-.79-5.08a40.25,40.25,0,0,0-5.29-2.3c-.14-2.7-.28-5.41-.41-8.11.5-1.1,1-2.2,1.51-3.29Z"/><path d="M310,365.88l-2.64,6.35-1.53-1.47-1.23-2.09-1.51.23-3.81-3.52-.24-.09c-5.29,4.41-2.95-2.5-5-3.3l-2,1.81c-.51-1.37-1-2.63-1.46-3.89,3.07-4.18,2.93-6.58-.85-8.38-.46,3-2.53,5.94,1.07,8.39a16.26,16.26,0,0,0-2.51,2.69,35.21,35.21,0,0,0-1.92,4.85c-.57-4.17-1-7.36-1.44-10.56,4.3,0,2.33-3.43,2.68-5.39.12-.67-1.52-1.64-2.35-2.48a36.8,36.8,0,0,0-2.22,4.88c-.23.78.41,1.81.66,2.73-1.07,2-2.15,3.95-3.87,7.14.89-6,1.6-10.67,2.31-15.38l-1.3-.26q-.56,5.83-1.13,11.68l-2-.34c-.09-2.08-.17-4.16-.26-6.25l-1.11-.21-2.08,3c-.41-2.31-.81-4.5-1.2-6.69q1.34-8.06,2.68-16.11l5.15-7.27,1.09.44c-1,2.51-2,5-3.05,7.54l2.39,1.29,3-2.84c1.68,2.09,3.77,4.36,5.47,6.9,1,1.41,1.24,3.26,2,5.35,7.17-1.57,4.35,5.47,5.79,9.09l1.41-.69c.21-1.42.43-2.84.64-4.25l.74-.1,1.26,4.83.66.13c.06-1.36.12-2.73.12-2.8,2,1.7,5.3,3.31,6.68,5.92S309.78,362.81,310,365.88Z"/><path d="M249.44,397.62,245,405.31c-.32-1-.64-2-.95-3.05l3.62-4.38-4.74-2.2c1.82-3.81.92-6.27-3.8-7.25-.66,1.35-1.28,2.62-1.89,3.89,1-4.06-1.16-6.29-4.52-7.84l5.38-.85c-3.42-4.82-6.49-5.48-9.59-2.3l-3.54,2.43-2.76-2.64-.43-3.6-1.13-2.86-2.75-.79-4.92-.51a.69.69,0,0,0-.85-.34c-.59-4.28-3-7.49-6-10.36,7,1.16,7.13,1.11,8.47-6.4l-5.7,1.11a16,16,0,0,0,.67-4.05,13.14,13.14,0,0,0-1.33-3.55l4.41-2.09-.11,0,2.21,4.6,1.4-.42,2.21-5.07.73.22c-.32,1.69-.64,3.37-1,5.39,1.39,1,3.63,1.85,4.31,3.36,3.26,7.27,11.25,8.86,16.45,13.78-4.05,3.95-3.95,5,.45,8.26.66.49,1.8,1.07,1.8,1.59-.13,8.33,7.64,10.23,12,14.92a5.42,5.42,0,0,1,.46,1.33C251.49,395.15,248.3,393,249.44,397.62Zm-18-31.09c-1.7,3.65-2.83,6.68,2.45,7.78C235.46,371.05,237.27,367.93,231.42,366.53Zm-14.6.43,1.69.23c3.76-3.1,3.8-5.87-.77-8.25C217.41,361.87,217.12,364.41,216.82,367Z"/><path d="M239.56,256.54c.13,2.7.27,5.41.41,8.11-.48,1.09-.95,2.19-1.42,3.28-6.71-9-8.76-19.4-9.65-30.42a14.46,14.46,0,0,1,12,15.72l.14,0L235,249.47C233.22,254.58,237.62,254.64,239.56,256.54Z"/><path d="M429.23,422.19l8.11,7.84c-1.18.75-3.89,1.51-4.4,3-1.34,3.89-3.49,5.62-7.79,4.85-.11-1.21-.24-2.74-.38-4.27l-1-.16-1.52,5.18c-.52-2.75-1-5.06-1.4-7.37l.89-4.23c1.9-1.76,2.85-5.51,6.69-3.17l1-1.63Z"/><path d="M341.78,337c-.09,1.59-.19,3.18-.28,4.78l-.89.15c-1-5.82-1.59-11.75-3.1-17.44a81.64,81.64,0,0,0-6.76-16.78q3.27,15.12,6.52,30.22l-1,.24c-2.33-10.12-5.14-20.16-6.84-30.39-1.41-8.47-.83-8.56-6.18-14.09,7.39,3.46,7.66,4,9.08,11.37a59.4,59.4,0,0,0,2.75,9c1.95,5.42,4,10.79,6.08,16.18Z"/><path class="cls-1" d="M259.11,286.81a45.44,45.44,0,0,1,6.62,1.65c2.91,1.19,5.87,2.69,3.7,6.8-5.55-1-11.11-1.91-16.63-3.06-1.49-.31-2.82-1.38-4.23-2.11,0-1.37-.09-2.75-.14-4.37l3.26-.15.19.08,7.45,1.22Z"/><path class="cls-1" d="M353.23,334.47l.84-7c.38-4,.76-7.91,1.18-12.3l2.41,1.11-.17-.09a27,27,0,0,1,1.61,4.39c.84,4.37,1.48,8.78,2.19,13.18L361,339l-7-2.53Z"/><path d="M421.75,427.05l-.89,4.23-1.43,2.83-5.84-5.18c3.78-3,2.66-7.61,4-11l-14.23-9.22,3.35-1.12c1.58,4.44,3.5,5.52,6.32,3.56l3.71,4.83,1.55-5c1.2,3.46-.91,8.77,5.29,9.41C422.94,422.66,422.34,424.85,421.75,427.05Z"/><path d="M335.41,248.42l2.91-3c.07,1.11-.18,2.37.26,3.31,1.12,2.41,2.21,5.48,5.71,2.37l-.12,0,3.4,6.83c4.07-4.86.71-6.94-1.27-9.39a5.2,5.2,0,0,1,6.28,4.31c-.65,1.94-2.37,4.56-1.67,5.66.92,1.46,3.72,1.75,5.71,2.54l-.13,0,.8,4.12-6.86-4.55-1.27,3.81c-.88-2.49-1.82-5.15-2.77-7.81l-2.53.21c.32,1.3.64,2.6.95,3.9l-.64-.41q-1.86-4.2-3.74-8.41l-1.67.41c-.42,1.28-.84,2.56-1.26,3.81Q336.47,252.25,335.41,248.42Z"/><path d="M215.45,275.76c5.34-1.4,5.61-1.11,6.23,6.7-4.22,0-5.66,3.55-3.2,8l.08-.14c-5.68-3.16-9.53,1.71-14.55,2.55L216.56,286c-.9-2.7-1.89-5.64-3-9Z"/><path d="M362.19,273.86c4.89,2.47,9.45,6.75,13.48,6.3,5.45-.61,7.54,4,11.7,4.39C378.37,283,368.51,283.44,362.19,273.86Z"/><path class="cls-1" d="M383.56,378.39c2.46,1.62,5,3.11,7.36,4.91,2.6,2,2.26,4.23-.59,5.26l-11.59-8c.28-1.08.55-2.16.84-3.2-.15-.81-.31-1.65-.47-2.49Z"/><path d="M369.94,324.4c0,1-.06,1.9-.08,2.85-4.46,3.07-2.62,6.64-.81,10.2q0,3.74-.05,7.45l-1.88,2-1.27-.21-2.62.63.3-2.82c-.24-1-.49-2-.73-3,2.68,1.25,4,.41,3.67-2.55a50.7,50.7,0,0,0-1.09-5.15l0,.14-.52-9.32,0-.24C366.26,321.11,366.58,321.11,369.94,324.4Z"/><path class="cls-1" d="M369.94,324.4c-3.36-3.29-3.68-3.29-5.14,0q-2-5.76-3.94-11.51l6.89,3.55C371.19,318.32,371.71,321.05,369.94,324.4Z"/><path d="M325.36,318.83c-4.53-4-3.69-10.71-7.2-15.25l1.16-.58,2.88,5.93.74-.07q-.87-5.16-1.75-10.32l1.06-.14L326.54,318Z"/><path d="M388.36,300.82c-4.9,2.57-13.61,2.09-15.92-.6C375.29,296.92,380.74,297.05,388.36,300.82Z"/><path class="cls-1" d="M153.5,157.45l.39-2.85c5.06,2.23,7.92,6.61,7.2,10.92l-7.15-3,.13-.06Z"/><path class="cls-1" d="M344.69,329.39l1.66,1.11,3.45,9.79-.3,2.56-3.17-1.59Q345.51,335.32,344.69,329.39Z"/><path d="M349.8,340.29l-3.45-9.79c.56-1.24,1.62-2.5,1.58-3.72-.1-3.73-.63-7.45-1-11.18l1.31-.13c.34,4.06.29,8.21,1.17,12.15.54,2.44,2.49,4.58,3.81,6.85l.78,2-1,2.18Z"/><path d="M360.86,312.85q2,5.76,3.94,11.51l0,.24-3.18-.26c-1.59,4.48,1.13,7,3.7,9.58l0-.14-4.09,0c-.71-4.4-1.35-8.81-2.19-13.18a27,27,0,0,0-1.61-4.39Z"/><path class="cls-1" d="M406.66,407.63l-3.35,1.12L396,401c.09-1.09.19-2.17.38-4.26l8.92,9.11Z"/><path d="M186,161.55c1.44,4.63,2.87,9.26,4.68,15.09C184.05,173,182.56,168,186,161.55Z"/><path class="cls-1" d="M353,338.65l1-2.18,7,2.53,1.78,2.48.73,3C358.39,345.48,355.89,341.72,353,338.65Z"/><path d="M347.75,295.61l20.38,4.78c-.13.52-.26,1.05-.38,1.57-7.66,1.77-13.39-4-20.34-5C347.52,296.5,347.63,296.05,347.75,295.61Z"/><path d="M377.46,436c14.8,6.3,16.46,12.46,6,19.85,1.44-1.71,2.83-3.46,4.32-5.12,2.22-2.47,1.94-4.93-.36-7C384.57,441.26,381.48,439.09,377.46,436Z"/><path class="cls-1" d="M392.24,272.23c-2.64,3.06-2.7,6.23.42,10.27L386,280.39c.81-4.09,1.57-7.95,2.34-11.81l1.38,0,2.49,3.87Z"/><path d="M357.66,316.28l-2.41-1.11c-.42,4.39-.8,8.35-1.18,12.3-2-5.63-.9-11.08.77-16.56.5-1.65.48-3.46,1.68-5.33.15,1.55.3,3.1.47,4.64C357.2,312.24,357.43,314.26,357.66,316.28Z"/><path d="M344.69,329.39q.82,5.92,1.64,11.87L341.78,337l-.66-6.73c.26-2.86.53-5.71.87-9.31C343.05,324.23,343.87,326.81,344.69,329.39Z"/><path d="M155,169.3l-1.13,1.44-9.65-15,1.47-1c1.78,2.32,4.07,4.42,5.19,7s1.85,2.26,3.3.62c.26,2.41.53,4.83.79,7.24Z"/><path d="M212.12,219.17l5.38,16.11-1.71.55c-.22-5.91-6.92-9.68-5.42-16.16Z"/><path class="cls-1" d="M437.6,413.2l4.35,6,0-.07c-1.59.48-3.52,1.72-4.69,1.22s-1.73-2.74-2.54-4.22l-.07.23,3.18-3.12Z"/><path d="M334.44,412c2.44,2.89,4.71,5.94,7.37,8.6a8.6,8.6,0,0,0,5,2.63,14.38,14.38,0,0,1,10.26,4.66c-3.47-.84-7.91-1.76-12.23-3.06a8.67,8.67,0,0,1-3.6-2.84c-2.53-2.95-4.88-6.06-7.3-9.11Z"/><path d="M185.39,207l1.46.37q-1.53,8.92-3.07,17.87L182,225a21.66,21.66,0,0,1,.64-2.3c1.56-3.85,2.81-7.6.81-11.8C182.83,209.55,181.49,206.63,185.39,207Z"/><path d="M328,278c-6.88-.74-12.87-.39-16.39-6.23,4.54,1.32,9.18,2.63,13.77,4.05C326,276,326.53,276.75,328,278Z"/><path class="cls-1" d="M238.55,267.93c.47-1.09.94-2.19,1.42-3.28a40.25,40.25,0,0,1,5.29,2.3c2.1,1.26,4.75,2.75.79,5.08l-5.59-1.76-.32.14Z"/><path d="M312,380.18l3.45,1.79q1.05,2.61,2.11,5.22V387c-.54,1.15-1.07,2.3-1.6,3.44C316.93,386,305.91,386.31,312,380.18Z"/><path class="cls-1" d="M155,169.57c-.26-2.41-.53-4.83-.79-7.24l-.13.09-.13.06c2.89,2.9,8.57,3.8,6.93,11.06-1.76-1.92-3-3.28-4.23-4.57a1.2,1.2,0,0,0-1-.1C155.35,169,155.19,169.33,155,169.57Z"/><path d="M141.89,111.13l-7.27-11.3C142.18,101,140.81,106.67,141.89,111.13Z"/><path d="M409.58,280.32l11,19.08-.55.28L408.12,281.1Z"/><path d="M361.74,429.34c10.53,1,16.8,9.08,13.82,16.76-.87-2.86-1.09-7.41-3.41-10.21C369.58,432.8,365.07,431.32,361.74,429.34Z"/><path d="M374.22,371.61l-3.37,2.59c-.75-1-2.07-2-2.14-3.08-.21-3.23.07-6.5.15-9.75l-.18-.06c1.51,3.61.25,8.7,5.51,10.29Z"/><path d="M251.69,285.57l-3.26.15c0,1.62.1,3,.14,4.37-2.34-4.2-4.9-8.3-6.95-12.65-1-2.11-1-4.67-1.48-7l.32-.14,7,7c-2.24-.59-4.24-.16-2.44,2.41C246.66,282,249.42,283.62,251.69,285.57Z"/><path class="cls-1" d="M239.41,322.17l5-2.3c.13,1.6.92,3.67.21,4.67s-2.93.93-4.49,1.32C239.86,324.63,239.64,323.4,239.41,322.17Z"/><path d="M339.07,280.09l-12.55-6.15.74-1.52L340,278C339.67,278.7,339.37,279.4,339.07,280.09Z"/><path d="M359.79,282l-13.61-5.91C349.71,273.44,355.16,276.14,359.79,282Z"/><path class="cls-1" d="M363.23,347.31l2.62-.63c.55,2.34,1.15,4.67,1.64,7,.4,1.93,0,3.29-2.44,2.8C364.44,353.44,363.84,350.37,363.23,347.31Z"/><path class="cls-1" d="M283.74,356.64c-.25-.92-.89-1.95-.66-2.73A36.8,36.8,0,0,1,285.3,349c.83.84,2.47,1.81,2.35,2.48-.35,2,1.62,5.38-2.68,5.39Z"/><path d="M365.05,356.5c2.44.49,2.84-.87,2.44-2.8-.49-2.35-1.09-4.68-1.64-7l1.27.21,3.45,6.16a13.58,13.58,0,0,0-1.8,1.21c1.2,2.46,2.53,4.86,3.83,7.28l-3.92-.23.18.06Z"/><path d="M293.49,270.35,280.13,259.8l.9-1.13L294.44,269Z"/><path d="M329.44,417.79c2.4,6.95-1.54,11.42-6.1,15.59a3.58,3.58,0,0,1-2.65.67C326.44,430,330.12,425.14,329.44,417.79Z"/><path d="M149,123.77q-.7-7-1.4-14l1.72-.2q.8,7.05,1.6,14.09Z"/><path d="M270.64,249.3l9.27,11.2-1,.87-9.6-10.92Z"/><path d="M319.41,349.74l3.56.54-.49,15.92-.64.1c-.27-3.69-.43-7.39-.87-11.05A35.65,35.65,0,0,0,319.41,349.74Z"/><path d="M306.65,399.81l1.87,1.25-11.85,10.23-.53-.55Z"/><path d="M318.42,316.51,314,298.4l1.25-.31,4.24,18.51Z"/><path class="cls-1" d="M178.46,263.49c-1,.71-2.05,1.95-3.11,2a4.2,4.2,0,0,1-3.17-1.77,3.17,3.17,0,0,1,.88-3,4.26,4.26,0,0,1,3.51.26c.86.47,1.25,1.81,1.84,2.76Z"/><path class="cls-1" d="M266.67,215l1.56,7.69-2.12.65q-1-2.12-1.9-4.25Z"/><path d="M153,133.65l-.5-16.92,1.26,0q.19,8.46.4,16.93Z"/><path class="cls-1" d="M290.84,359.92c-3.6-2.45-1.53-5.39-1.07-8.39,3.78,1.8,3.92,4.2.85,8.38Z"/><path class="cls-1" d="M222.32,291.71l.2-7.33,1.62-.43c.71,1.11,2.19,2.41,2,3.27-.46,1.77.78,5.24-3.24,4.64A2.64,2.64,0,0,0,222.32,291.71Z"/><path d="M218.93,309.82l-6.1,5.06C210.42,311.49,211.05,310.89,218.93,309.82Z"/><path d="M210.53,318.12l14.56-9.36.51.61-14,10.18Z"/><path d="M365.48,377.35c1.3,2,3,3.92,3.81,6.12s.86,4.8,1.38,8.07l-6.19-13.73Z"/><path d="M305.81,370.76l1.53,1.47,0,.13c-.39,1.53-.79,3.05-1.44,5.61-1.14-3.67-2-6.37-2.8-9.07l1.51-.23c-.14.76-.27,1.51-.41,2.27Z"/><path d="M379.57,377.34l-.83,3.23c-1.76-1.29-4.11-2.35-2.06-5.17l-.19-.07C377.41,376.16,376.78,379.37,379.57,377.34Z"/><path d="M374.22,371.61h0l2.73-.15c.43.83.87,1.66,1.31,2.49l-1.74,1.39.19.07Z"/><path class="cls-1" d="M246.33,431.52l-5.15,3.76,5.06,1.75-7.39,2.74,8.18,1.61c-4.23,4.57-7.09,4.5-10.94,1.07-22.67-20.17-41.1-43.46-53.9-71.1-1.31-2.83-1.38-4.87.71-7l4.83-7.61,14.68,4.4,3.07.68c.15.32.3.64.46,1l-2.73,9.14L198,381l5.51.78,1.48,2.28-.65,1.21c1.65-1.13,2.73,6.19,4.7.32l2.52,1.37,2.88.54V388l-5.35,6.73c5.32,3.34,5.32,3.34,8.5-3.75l4.28.59,1.36-1.19,2.59,1.21.78,4.1-1.83,4.9-1.33,1.85-1.06,1.46,1.78.62-.18-.07,1.56.34-.16-.05,2.66,4.34c-3.46,6.17-3.46,6.17,2.91,7.58l6.24,3c-3.37,6.48-2.93,7.68,3.11,8.46l5.55,2.47C246,430.87,246.17,431.19,246.33,431.52Z"/><path class="cls-1" d="M187.73,356.7l-4.83,7.61c-1.59,1.64-2.89,2-4-.53C165,332.72,149,302.53,139.68,269.56c-.37-1.31,0-2.81,0-4.22,4.39,1.71,8.72,4.13,13.46,1,0,.62.06,1.25.08,1.88l-1.94,2,4.56,2.28.06-.21-1.12,2V275l-.14-.75,1.22-.06,1.39,4.37c-.58,1.64-1.16,3.27-1.78,5l6.16,2.91c-.46,1.87-.91,3.74-1.48,6.09l5.46,2,.85,2.08-5.73,7.47,5.43,2.73c-.93,1.94-1.87,3.89-3,6.35l5.61,1.61,6.39,2.37,1.39,1.26c.44,1.65.87,3.29,1.3,4.94l4.16,1.08,2.2,2.21-.87,1.68c-1.33.94-2.94,1.66-3.92,2.88a33.24,33.24,0,0,0-3,5.26l5.54,2.34,3.09,1.29a50,50,0,0,1,4.54,2.51,31.53,31.53,0,0,1,3.28,3Z"/><path class="cls-1" d="M103.77,169.1l-4.46,11.13,6,2.41c-3.45,2.75-8.26,2.15-10.29-1.4C85.65,165,76.52,148.56,67.28,132.16c2.46-2,4.09-3.34,5.75-4.63.2-.16.62,0,1.93-.12-.67,2-1.25,3.73-2,5.92l7.58,2.55c-.33,1.64-.77,3.79-1.34,6.61l4.86,1.92-3.45,6.21,5.51.17c-.1.75-.31,2.36-.67,5.05l5.28-.94-4.07,9.26,1.89.45c.9-2.86,1.79-5.73,2.81-9l4.39,5.46,1.78-.11q-1.77,6-3.55,12.06c2.62-3.81,1.71-9.05,6.6-11.78-.31,1.7-.62,3.4-1,5.58l3.76,1.52.18.39Z"/><path class="cls-1" d="M153.1,266.33c-4.74,3.14-9.07.72-13.46-1-.59-.52-1.49-.93-1.72-1.57-2.6-7.17-5.1-14.37-7.93-22.47l5.28,1.6c-.19,1.43-.37,2.69-.59,4.28,5.65-.61,2,4.16,3.52,6.08l10.5,2.5,2.35,1.84.63,4.84c.26.39.53.77.8,1.15.64.9,1.29,1.8,1.94,2.69Z"/><path class="cls-1" d="M99,184.89l8.23,2.84c-.21,1.62-.48,3.7-.68,5.16,1.89,1.41,3.44,2.58,5,3.77l1.84-2.28c.46,4.86.87,9.2,1.28,13.49L119,203.4c.56,1.65,1.12,3.29,1.67,4.89.56-1.1,1.32-2.56,2.07-4l1.52.48c-.92,2.31-1.57,6.36-2.81,6.55-2.77.42-7.13-.1-8.55-2-5.49-7.22-10.07-15.12-15-22.77C98.24,186,98.61,185.44,99,184.89Z"/><path class="cls-1" d="M114.35,212.09l9.3,2.51c.82,2.43,1.7,5,2.42,7.16l4.09-1.58c-.19,1.31-.3,2.64-.58,3.94a29.66,29.66,0,0,1-3.4,9.45C122.45,226.8,118.71,220,114.35,212.09Z"/><path class="cls-1" d="M131.26,128.79c-.41,1.5-.81,3-1.25,4.61-9.2-9.51-16.93-26.73-14.21-32.34,2,5,4,9.7,5.88,14.4l.66-1.11a109.74,109.74,0,0,1,7.58,9c1,1.49.9,3.79,1.29,5.73Z"/><path class="cls-1" d="M66.85,129.59l-9.63-23.32,1-.53,8.33,13,3-1.49a15.07,15.07,0,0,1,.65,3.86c-.22,2.82-.75,5.6-1.16,8.4Z"/><path class="cls-1" d="M246.33,431.52c-.16-.33-.32-.65-.47-1,1.06-2.22,2.13-4.45,3.2-6.67l1.13-3.62.2,0,5,3.25c.12.81.25,1.62.38,2.42a74.3,74.3,0,0,1-6.1,5.69C249,432.13,247.46,431.58,246.33,431.52Z"/><path class="cls-1" d="M148.7,255.76l-10.5-2.5c.56-5.93,5.52-3.17,8.51-4.31l3.73.91.21,1.86Z"/><path class="cls-1" d="M249.06,423.88c-1.07,2.22-2.14,4.45-3.2,6.67l-5.54-2.46q1.5-3.72,3-7.44l1.24-1Z"/><path class="cls-1" d="M243.34,420.65q-1.51,3.72-3,7.44c-6-.79-6.49-2-3.12-8.47l3.45-.84,2.62.66C243.29,419.84,243.32,420.24,243.34,420.65Z"/><path class="cls-1" d="M103.77,169.1l-.26-.34-.18-.39c.45-2.65.89-5.3,1.41-8.42l5.4,1.92C109.43,168.4,108,170,103.77,169.1Z"/><path class="cls-1" d="M240.65,418.78l-3.45.84-6.24-3,1.82-2.31,3.7-4.39Z"/><path class="cls-1" d="M83.28,75.84c1.17,3.32,2.34,6.64,3.57,10.15-1.67-.51-3.87-.56-4.21-1.39-1.78-4.28-3.08-8.76-4.55-13.18l1.37-.64C80.73,72.54,82,74.3,83.28,76Z"/><path class="cls-1" d="M175,171.47c.51,3.27,1,6.54,1.54,9.81l-1.52.84c-1.05-1.31-2.87-2.56-3-4-.19-2.38.68-4.85,1.1-7.29Z"/><path class="cls-1" d="M170.72,267.75,169,269.84l-.32.21-7-3.46.78-.68C166.64,262.08,167.86,262.35,170.72,267.75Z"/><path class="cls-1" d="M141.72,207.63l4.17-.84c-.09,7.09-.82,8.08-5.21,7.18.37-2.17.73-4.36,1.09-6.54Z"/><path class="cls-1" d="M145.44,245.46l-3.32-2c.22-1.32.45-2.7.86-5.13,1.77.94,3.56,1.47,4.75,2.62,1.37,1.33,2.22,3.21,3.3,4.85l-1.26.62.17.05Z"/><path class="cls-1" d="M128.32,234.49c1-2.91,1.66-5.23,2.58-7.45a2.56,2.56,0,0,1,1.87-1.09,1.91,1.91,0,0,1,1.41,1.05C134.94,228.82,131.44,233.89,128.32,234.49Z"/><path class="cls-1" d="M141.77,207.43a32.24,32.24,0,0,1-2.2,4.35c-.69,1-1.82,1.73-3.59,3.34.84-8.61,1.45-9.26,5.74-7.48Z"/><path class="cls-1" d="M268.55,416.86l6.21,3.34-6.5,4.79C268.37,422.07,268.44,420,268.55,416.86Z"/><path class="cls-1" d="M126.34,162.38c-1.56,3.17-.33,7.63-6.11,6.51C121.48,166.1,120.42,162,126.34,162.38Z"/><path class="cls-1" d="M136.67,205.78c-1.71,3.4-.61,7.45-6.1,7.74C131.94,210.26,130.83,206.36,136.67,205.78Z"/><path class="cls-1" d="M115.67,162.31c-1.08,6.29-1.15,6.37-5,5.65C111.73,161.78,111.73,161.78,115.67,162.31Z"/><path class="cls-1" d="M285.53,466.32l-12-6.25C276.34,458.5,276.34,458.5,285.53,466.32Z"/><path class="cls-1" d="M292.86,427.44c-2.87,4.35-4.45,4.94-7.89,2.72,2.25-2.31,4.42-4.38,8-2.68Z"/><path class="cls-1" d="M218.48,290.44c-2.46-4.43-1-8,3.2-8Q220.08,286.45,218.48,290.44Z"/><path class="cls-1" d="M168.81,172.89c-.68-2.42-1.35-4.84-2.14-7.67,4.45.79,4.45.79,3.78,7.06Z"/><path class="cls-1" d="M118.9,155c-1.11,2.9-1.08,6.4-5.85,4.95C113.88,157,113.76,153.65,118.9,155Z"/><path d="M161.86,257.77l1.2,3.53c-2.65,1.08-4.34,2.56-2.36,5.6l-2.57,1.7-.95.42.16.1c0-1.22-.07-2.43-.1-3.65.43-1.87.85-3.74,1.28-5.61l-.07.17Z"/><path class="cls-1" d="M255.77,425.91c-.13-.8-.26-1.61-.38-2.42l4.51-1.22c.21,1.14.43,2.27.64,3.41Z"/><path class="cls-1" d="M243.15,406.43c.09,3.14-1.88,3.89-4.5,3.87l.09-.1,0,.1-1.79-.39c.1-1.1.2-2.21.29-3.32L240,405l-.18-.08,2.11,1.24-.2-.06,1.65.35Z"/><path d="M237.26,406.59c-.09,1.11-.19,2.22-.29,3.32a.6.6,0,0,0-.49,0l-3.7,4.39-.83-3.14c2.37.33,3.4-.6,2.86-3,.88-.51,1.76-1,2.63-1.54Z"/><path class="cls-1" d="M244,402.26c.31,1,.63,2,.95,3.05l-1.82,1.12.2,0-1.65-.35.2.06-2.11-1.24.18.08c-.71-2.56.52-3.28,2.83-3l-.19-.06,1.61.34Z"/><path class="cls-1" d="M158.18,248.43l2.11,3.2-2.48,1.71-1.44-.3-1-1.85-.06.24Z"/><path class="cls-1" d="M160.7,266.9c-2-3-.29-4.52,2.36-5.6-.2,1.54-.41,3.08-.61,4.61l-.78.68Z"/><path class="cls-1" d="M161.86,257.77,158.45,260l.06-3.72,2.45-2Z"/><path class="cls-1" d="M150.44,249.86l-3.73-.91c-.32-1-.64-2.07-1-3.1,1.4.24,2.79.45,4.18.67l-.17-.05,1.12,1.78.07-.2-.33,1.57Z"/><path d="M150.89,248.24c-.38-.59-.75-1.18-1.12-1.77l1.26-.62,4.31,1.5,0,.34Z"/><path d="M158.18,248.43l-2.89,3c0-1.25.06-2.49.1-3.74l0-.34Z"/><path d="M161,254.28l-2.45,2,.13.05-.81-3.18,0,.16,2.48-1.71Z"/><path d="M149.94,246.52c-1.39-.22-2.78-.43-4.18-.67l-.14-.23s-.19-.17-.19-.16Z"/><path d="M250.19,420.26l.2,0Z"/><path d="M238.76,410.3l0-.1-.09.1Z"/><path d="M243.34,420.65c0-.41-.05-.81-.07-1.21l1.31.19Z"/><path class="cls-1" d="M403.55,356l2.77,1.24-.22,0q1.31,4.38,2.6,8.76l-.67.26c.32-2,.63-3.94,1-5.95,4.37,0,6.36,1.1,5.61,5.23a42.18,42.18,0,0,0-.14,6.85l.09,1.39c-1.66,3.56-.89,6,3.22,6.81l6.91,3.36c0,1.88,0,3.74-.05,5.49a22.4,22.4,0,0,1,3.07-.56c.78,2.37.29,4.18-2.61,4.49-5.51-1.09-2,3.55-3.24,5.13-1.26,2,1.79,5.58-2.43,6.44l.24,0c-1-2-2.45-3.87-2.77-5.95-.75-4.79-.93-9.68-1.35-14.52l-1.21.07.69,10.32-1.51.71a23.26,23.26,0,0,1-2.8-4.58c-.25-.72.84-1.92,1.57-3.42.19.14-.79-.2-.86-.68-1-6.48-5.64-10.71-9.85-15.3l-2.43,1.56c0-6.34.05-11.74.08-17.49l4.53.4Z"/><path class="cls-1" d="M421.84,398.42c1.28-1.58-2.27-6.22,3.24-5.13l5.55,2.71c-.32,2.87,1.36,7-4.54,5.76-.3,1.75-.54,3.17-.78,4.58l-1.46.38Z"/><path class="cls-1" d="M378.23,373.94c-.44-.83-.88-1.66-1.31-2.49l.72-4.09,8.33,2c.27.61.53,1.23.8,1.85l.42,5.9-3.63,1.28-4.45-3.5Z"/><path class="cls-1" d="M379.35,335c.18,2.31.36,4.61.59,7.53l1.35-4.65c5.84,1.15,6.18,1.93,4.67,11.8-.68-1.86-1.09-3-1.43-3.94-7.56-.15-9-4.18-7.18-10.47Z"/><path class="cls-1" d="M418.24,411.05l-1.55,5L413,411.19l-.14-1.37c2-3.43-1.2-6.18-1.22-9.34,0-1.39.23-2.79.36-4.18,1.25,1.08,3.18,1.94,3.61,3.29a81.37,81.37,0,0,1,2.07,10.12C417.86,410.16,418.05,410.6,418.24,411.05Z"/><path class="cls-1" d="M414.54,373.7l-.09-1.39a69.61,69.61,0,0,1,1.51-7.5c.27-.86,1.6-1.4,2.45-2.08l-.22-.06q1.55,3,3.1,6l-.39,5.1-6.16,0Z"/><path class="cls-1" d="M386,369.36l-8.33-2-1.32-5.13c.22-.88.44-1.77.65-2.65l2.53-.14,1.67,1Z"/><path class="cls-1" d="M392.94,364.34l-1.11,2.25c-1.66-4.15-1.11-5.25,2.57-5.37-.72-1.57-1.44-3.17-2.57-5.65,5,1.23,6.7,3.08,5.61,7.31-.58,2.2.06,4.72.21,8.78Z"/><path class="cls-1" d="M418.24,411.05c-.19-.45-.38-.89-.58-1.34l2-4.81-.23,0c2.39,2.27,5.07,4.25,2.27,8.23-.62.89.85,3.25,1.35,4.94.17.81.34,1.62.5,2.43C417.33,419.82,419.44,414.51,418.24,411.05Z"/><path class="cls-1" d="M409.56,357c.32-2.61.63-5.22.94-7.74,7,.94,7.23,1.57,4,11.2l-4.93-3.64Z"/><path class="cls-1" d="M418.41,362.73c-.47-3.49-.93-7-1.41-10.58,4.74-.51,5.81,1.11,5.46,4.23a29.59,29.59,0,0,0,.06,3.88l.07-.25-4.4,2.66Z"/><path class="cls-1" d="M420.9,373.74l.39-5.1,3.67-2.78a19.83,19.83,0,0,1,1.56,4.14,33.21,33.21,0,0,1,0,5.37l0-.24C424,377.32,422.41,375.72,420.9,373.74Z"/><path class="cls-1" d="M393.69,344.54c1.73-.24,3.58-.94,5.13-.51.66.18.75,2.67,1,4.13A21.79,21.79,0,0,1,400,351l.07-.25c-1.32.41-3,1.51-3.86,1.07-1-.52-1.59-2.32-2-3.66a18.57,18.57,0,0,1-.42-3.83Z"/><path class="cls-1" d="M400.78,342.67c-6-1.29-6.18-1.92-3.27-9.38C404.73,334.12,401.2,338.72,400.78,342.67Z"/><path class="cls-1" d="M423.53,420.46c-.16-.81-.33-1.62-.5-2.43,1.27-3.73,3.05-2,4.4-.22.95,1.25,1.34,2.94,2,4.44l-1,1.63c-3.84-2.34-4.79,1.41-6.69,3.17C422.34,424.85,422.94,422.66,423.53,420.46Z"/><path class="cls-1" d="M422.52,360.26l1.77-5.57c4.91.42,5,.78,2.16,11.33l-3.86-6Z"/><path class="cls-1" d="M381.17,360.43l-1.67-1-2-5,0,.23,2.23-2.36.23.17c3.79,1.66,5,4.52,4,8.79Z"/><path class="cls-1" d="M415.19,329.25c6.18,2.11,6.34,2.42,4.23,7.75C413,335.48,412.83,335.12,415.19,329.25Z"/><path class="cls-1" d="M428.92,346.82c-.9-1.25-2.67-2.61-2.53-3.74.25-2.18,1.58-4.23,2.47-6.33,1,.86,2.8,1.66,2.86,2.58.14,2.25-.52,4.55-.85,6.83Z"/><path class="cls-1" d="M412.66,341c6.06,1.57,6.06,1.58,4.34,7.47C411.37,348.24,411.08,347.77,412.66,341Z"/><path class="cls-1" d="M439.41,401.49l3.42-1.6a13,13,0,0,1,1.17,3.26,33.12,33.12,0,0,1-.39,5.21L438,406.31l1.43-5.05Z"/><path class="cls-1" d="M393.69,344.54l0-.25-2.6,9.08c-1.16-1.81-2.66-3.08-2.52-4.13.33-2.34,1.48-4.56,2.3-6.83Z"/><path class="cls-1" d="M369.05,337.45c-1.81-3.56-3.65-7.13.81-10.2.67,2.84,1.49,5.67,1.89,8.54.08.57-1.46,1.35-2.25,2A.91.91,0,0,1,369.05,337.45Z"/><path class="cls-1" d="M434.67,416.37l.07-.23c-1.59.28-4,1.33-4.62.68-1.5-1.56-2.17-3.92-2.64-6.27C431.08,411.34,435,411.43,434.67,416.37Z"/><path class="cls-1" d="M397.28,379.38c3.69,3.42,4.44,6.75,2,9l.22.07c-1.48-2.59-3-5.16-4.36-7.82-.07-.15,1.18-1,1.81-1.48Z"/><path class="cls-1" d="M428,333.24c-5.22-1.14-6.27-4-5.15-8.4C428.08,325.33,428.19,328.86,428,333.24Z"/><path class="cls-1" d="M400,351l2-5.31c3.87,1.18,4,2,1.56,10.3l.2.07c-1.23-1.77-2.48-3.54-3.72-5.31Z"/><path class="cls-1" d="M369.05,337.45a.91.91,0,0,0,.45.37,67.22,67.22,0,0,1,3.48,6,30.12,30.12,0,0,1-3.16,2c-.27-.31-.55-.62-.82-.94Q369,341.18,369.05,337.45Z"/><path class="cls-1" d="M422.59,333.68c4.57,1.07,4.57,1.07,1.36,10.11l-2.66-1C421.75,339.57,422.17,336.65,422.59,333.68Z"/><path class="cls-1" d="M430,377.09l3.41-8.11c4.18,3.5.86,6.8.7,11.06l-4-3.22Z"/><path class="cls-1" d="M379.92,352.45l-.23-.17c-1-2.19-2-4.39-3-6.58l1.72-1.13,6.05,6.48-1,1.3Z"/><path class="cls-1" d="M412.84,409.82l.14,1.37c-2.82,2-4.74.88-6.32-3.56l-1.32-1.76,1.47-1.63Z"/><path class="cls-1" d="M409.58,356.82l-3.47.34.21,0c0-3.22,0-6.45,0-9.67l2.53-.12q.35,4.78.68,9.58S409.58,356.82,409.58,356.82Z"/><path class="cls-1" d="M429.7,355.63c5.86,4,1.63,7.53,1.84,11.85C426.49,363.72,430.08,360.19,429.7,355.63Z"/><path class="cls-1" d="M387.19,377.11l-.42-5.9c2.63,2.71,5.23,5.42,3.79,11.14Z"/><path class="cls-1" d="M414.54,373.7l.2.07c1.69.87,3.59,1.53,4.93,2.78.32.29-1.22,2.58-1.91,4C413.65,379.67,412.88,377.26,414.54,373.7Z"/><path class="cls-1" d="M395,330.48l-3.12-4.86-2.52,8.91-.95-.1,1.15-10.33c3.08,1.35,6.5,1.44,6.86,5.15Z"/><path class="cls-1" d="M435.92,380.05c.35-2.87.71-5.74,1.09-8.72,4.19,1.33,4.21,4,.58,8.89Z"/><path class="cls-1" d="M369,344.9c.27.32.55.63.82.94l4.12,5.15v-.22L372,354.44l-1.43-1.39-3.45-6.16Z"/><path class="cls-1" d="M403.34,321.86c.41-2.71.83-5.42,1.24-8.13l1.1-.45c.89,1.4,2.86,3.48,2.49,4.07-1.15,1.8-3.19,3-4.91,4.49Z"/><path class="cls-1" d="M406.15,336.53c0,2.62.08,5.23.12,8.11-4.71-1.44-4.85-2.39-2-8.1Z"/><path class="cls-1" d="M439.41,401.49l0-.23-2.95,3.85c-4-1.78-4.08-2.31-.09-7.77Z"/><path class="cls-1" d="M374.87,329l-3.51-8.51C377.87,322.43,378.45,323.69,374.87,329Z"/><path class="cls-1" d="M397.28,379.38l-.31-.26-4-8.61C399.29,372.87,400.28,375.73,397.28,379.38Z"/><path class="cls-1" d="M437.85,413.25l-3.29-5.12c3.25.49,5.31.33,6.77,1.19.85.5.74,2.63,1.18,4.57l-4.91-.69Z"/><path class="cls-1" d="M430,377.09l.1-.27-3.56-1.69,0,.24,2-8.19C432.88,370.4,429.21,374.1,430,377.09Z"/><path class="cls-1" d="M389.42,358.62c-.34,2.45-.57,4.17-.83,6.12-4.59-1.11-2.31-5-4.14-8.84Z"/><path class="cls-1" d="M385.83,320l-1.44-5.11,2-.9,2.93,4.56-3.46,1.9C385.92,320.37,385.91,320.21,385.83,320Z"/><path class="cls-1" d="M422.72,351.23c-5.24-1.07-4.15-3.81-2.58-6.84C424.17,345.81,424.17,345.81,422.72,351.23Z"/><path class="cls-1" d="M399.3,388.35l3.55,6.23-2,1.13-4.63-7.18.91-.86,2.33.74Z"/><path class="cls-1" d="M428.77,353.31c-5.28-.36-4.22-3.21-3.19-6.31C430.15,347.32,430.25,349.72,428.77,353.31Z"/><path class="cls-1" d="M385.83,320c.08.22.09.38,0,.45q1.35,3.44,2.71,6.88l-1.54.83-5.44-4,3.41-.43C385.27,322.41,385.55,321.2,385.83,320Z"/><path class="cls-1" d="M404.81,377.34l3.95,6.15-1.61,1-4-6.16Z"/><path class="cls-1" d="M373.94,351c.82,0,2.13-.25,2.37.13a14.39,14.39,0,0,1,1.15,3.52l0-.23c-.81,1.6-1.76,2.72-2.78.24a19.75,19.75,0,0,1-.77-3.88Z"/><path class="cls-1" d="M283.24,237.89c.55,2.48,1.1,5,1.75,7.88.44-1.6.79-2.9,1.15-4.19l1.05.08c0,2.72-.07,5.44-.11,8.43C279.59,246.43,279.23,245.5,283.24,237.89Z"/><path class="cls-1" d="M296.86,253c-2.34.06-6.14,1-6.74,0-1.47-2.45-1.47-5.78-2.07-8.76l1.9-.32c.26,1.6.52,3.21.86,5.34l1.64-2.79c1.52,2.36,2.94,4.56,4.35,6.77Z"/><path class="cls-1" d="M293.69,234c7.37,2.91-1.46,8.76,2.92,12C291.29,244.27,290.88,242.17,293.69,234Z"/><path class="cls-1" d="M298.48,244.29c3.82,1.75,6.91,3.79,6,8.73C298,251.8,296.84,250.19,298.48,244.29Z"/><path class="cls-1" d="M304.88,246.39c.42-1.2.84-2.4,1.27-3.6,6.7,2.84,7,3.25,6.2,9.32l-7.47-5.81Z"/><path class="cls-1" d="M277.47,231.56c-5.9-2-3.19-6.12-2.76-9.77C280,223.68,280,224,277.47,231.56Z"/><path class="cls-1" d="M313.43,236.41c-1.25.2-2.74.92-3.71.5-3-1.33-4.08-3.65-2.11-6.94,3.76.66,5.21,3.27,5.76,6.69Z"/><path class="cls-1" d="M271.49,240.27l7.5,6.95c-.41.46-.81.93-1.21,1.39l-11.22-8.45.84-1.29,4.3,1.45Z"/><path class="cls-1" d="M218.29,201.69l.8-2.46c2.41,3.89,8.92,3.78,7.95,11.68l-8.73-9.43S218.29,201.69,218.29,201.69Z"/><path class="cls-1" d="M304.88,246.3c-3.08-2.06-8.2-2.65-6.35-8.58,5.21.82,6.05,4.52,6.35,8.64Z"/><path class="cls-1" d="M356.62,261c-2-.79-4.79-1.08-5.71-2.54-.7-1.1,1-3.72,1.67-5.66Q354.61,256.92,356.62,261Z"/><path class="cls-1" d="M313.37,236.66c1.1-.32,2.92-1.22,3.19-.88a18.22,18.22,0,0,1,3.3,6.53c-4.69.22-5.88-2.54-6.43-5.9Z"/><path class="cls-1" d="M359.41,245.94c3.43,1.76,6.38,3.31,3.51,7.54C359.34,252.16,356.9,250.44,359.41,245.94Z"/><path class="cls-1" d="M377.76,251.62c3.43,1.94,5.94,3.75,3,7.68C377.59,257.74,374.76,256.13,377.76,251.62Z"/><path class="cls-1" d="M269.77,217.89c6.07,2.41,2.52,6,2.68,9.55C266.7,225.15,269.26,221.63,269.77,217.89Z"/><path class="cls-1" d="M304.64,232.84c-3.24-1.55-6.76-2.73-3.51-7.41C304.47,226.82,307.64,228.17,304.64,232.84Z"/><path class="cls-1" d="M346.3,248.51c2,2.45,5.34,4.53,1.27,9.39l-3.4-6.83Z"/><path class="cls-1" d="M367.69,243.82c4.33,1.55,5.11,3.83,2.53,7.32C365.87,249.94,365.47,247.49,367.69,243.82Z"/><path class="cls-1" d="M305.37,236.93c3.76.85,7.27,1.93,7.25,7.58-3.88-2-7.11-3.48-7.2-7.83Z"/><path class="cls-1" d="M316.08,248l4,7L318,256.18l-4.45-6.93Z"/><path class="cls-1" d="M344.29,251.1c-3.5,3.11-4.59,0-5.71-2.37-.44-.94-.19-2.2-.26-3.31C342.56,245,343.55,247.89,344.29,251.1Z"/><path class="cls-1" d="M251.1,212.74c2.9,2.19,4.64,4.68,2,8.39-4.88-1.83-3-5.18-1.89-8.35Z"/><path class="cls-1" d="M377.44,258.07c1.1,2,2.21,4.08,3.31,6.13C375.85,264.25,374.08,262.52,377.44,258.07Z"/><path class="cls-1" d="M276.8,240.13c-2.32-2.26-5.13-4.35-3-8.42,5.07,1.44,3.92,4.9,2.76,8.37Z"/><path class="cls-1" d="M276.39,215.25c3,1.41,5.54,2.71,2.88,6.66C275.87,220.83,274.13,219.17,276.39,215.25Z"/><path class="cls-1" d="M305.42,236.68c-1.08.38-2.65,1.39-3.15,1a31.25,31.25,0,0,1-4.08-4.49l1.88-1.75,5.3,5.48Z"/><path class="cls-1" d="M252.05,204.78c4.21,4,4.21,4,2.74,8.59l-3.67-.62.07,0c.27-2.66.57-5.31.87-8A0,0,0,0,1,252.05,204.78Z"/><path class="cls-1" d="M271.7,240.32a30.19,30.19,0,0,1-3.43-3.35c-.19-.25.76-1.39,1.18-2.12l-.22,0,7.57,5.33-.2,0,2.54,3.95-7.64-3.76Z"/><path class="cls-1" d="M269.45,234.85l-2.08-6.74,2.14-1c.86,1.67,2.06,3.27,2.4,5,.13.68-1.72,1.73-2.67,2.61Z"/><path class="cls-1" d="M226.16,190c.85-1.16,1.46-2,2.06-2.81l1.22.44q-.65,2.53-1.31,5.1c-5.22-1.21-5.6-2.29-2.21-8.76C226,186.67,226.09,188.17,226.16,190Z"/><path class="cls-1" d="M315.82,228.92c3.57,1.16,5.58,2.74,3.52,6.73C316.92,234.1,313.31,233.55,315.82,228.92Z"/><path class="cls-1" d="M187.73,356.7l5.1-11.08c4.52-3,4.08.94,4.73,3.36-3.62,5.37-3.47,5.71,4.06,9.07.26,1,.53,2,.79,3.05Z"/><path d="M183.25,328.38l.87-1.68q2.83-5.32,5.68-10.63l4-2.95c2.83,2.81,2.22,6-.2,8.23-2.73,2.56-3.17,5.12-2.07,8.35l-5.18.17c-.16.15-.33.29-.5.43Z"/><path d="M189.8,316.07q-2.84,5.31-5.68,10.63l-2.2-2.21c.11-1.25.21-2.5.31-3.75l-.06.16,2.13-4.27c-.3-.07-.6-.14-.89-.23l-.37.08-.21-.31-.21-1.17-1.81-3.23,4-1.65,3.91.53C189.11,312.46,189.46,314.26,189.8,316.07Z"/><path class="cls-1" d="M201.62,358.05c-7.53-3.36-7.68-3.7-4.06-9.07l5.62.75h0C202.67,352.51,202.15,355.28,201.62,358.05Z"/><path class="cls-1" d="M175.61,301.08l5.71,3.67-3.2,5.71-6.3-1.8v-.36l2.88-6.49Z"/><path class="cls-1" d="M161.58,286.54l-6.16-2.91c.62-1.77,1.2-3.4,1.78-5l7.58,2.19c0,.5,0,1,0,1.48.61,1.53,1.21,3.06,1.82,4.58l-4.25-.59A7.62,7.62,0,0,0,161.58,286.54Z"/><path class="cls-1" d="M166.41,296.68l-.85-2.08,2-6.1.17,0c-.14-.52-.28-1-.43-1.56l1.8,2.23V289c2.57,2.3,5.53,4.38,5,8.51l-2.71.54-1.16.43Z"/><path class="cls-1" d="M203.2,349.74h0c-4.35-2.63-3.94-5.91-1.54-9.57,5.29.22,5.68,3.18,4.46,7.1,0,.41,0,.81.05,1.22Z"/><path class="cls-1" d="M185,340.15l-3.09-1.29,3.78-6.79,5.24,2.18q-1,2.92-2,5.87Z"/><path class="cls-1" d="M164.77,282.26c0-.49,0-1,0-1.47l2.57-4.8,5.16,1.77C171.8,282.47,168.81,283.27,164.77,282.26Z"/><path class="cls-1" d="M189,340.12q1-2.94,2-5.87l.1-.11a20.51,20.51,0,0,0,2.31,1.89c2.18,1.32,3.5,2.85,1.13,5C192.36,343,190.35,343,189,340.12Z"/><path class="cls-1" d="M178.12,310.46l3.2-5.71c4.38-.32,2.77,3.3,3.53,5.37-1.35.55-2.69,1.1-4,1.66l-2.43-.45C178.31,311,178.21,310.75,178.12,310.46Z"/><path class="cls-1" d="M172.51,277.76,167.35,276l-.46-1.35,1.76-4.59.32-.21C171.57,271.85,176.88,272.64,172.51,277.76Z"/><path class="cls-1" d="M206.15,348.48c0-.41,0-.81-.05-1.22l3-5.11,3.55,5.53-4.41,2.09Z"/><path class="cls-1" d="M189.8,316.07c-.34-1.81-.69-3.61-1-5.42,3.34-2.56,4.62-.89,5.07,2.47Z"/><path class="cls-1" d="M191,334.14l-.1.11-5.24-2.18-.11-.32c.26-.62.53-1.25.79-1.88l5.18-.17C191.39,331.18,191.21,332.66,191,334.14Z"/><path class="cls-1" d="M171.34,298l2.71-.54,2.7,1.93,0,1.17-1.18.52-.92.73-2.68-.59C171.79,300.14,171.57,299.07,171.34,298Z"/><path d="M162.34,286.25l4.25.59-.14-.07,0,.13c-.15.38-.31.75-.46,1.13Z"/><path d="M166.45,286.77l.84.15.42,1.56-.22-.32-.34.17-.09-.33-.34,0c-.11-.37-.21-.75-.32-1.12Z"/><polygon class="cls-1" points="169.09 288.95 169.08 289.15 169.18 289.12 169.09 288.95"/><path d="M176.79,300.56l0-1.17C176.77,299.78,176.78,300.17,176.79,300.56Z"/><path class="cls-1" d="M317.54,387.19q-1.07-2.61-2.11-5.22l3.13-2.5a36.54,36.54,0,0,1,1.94,4.91C321.06,386.73,319.92,387.72,317.54,387.19Z"/><path class="cls-1" d="M327.31,390.35c-5.59-.08-4-4.44-4.81-7.58C327.11,383.37,327.48,384,327.31,390.35Z"/><path class="cls-1" d="M251.69,285.57c-2.27-1.95-5-3.56-6.69-5.94-1.8-2.57.2-3,2.43-2.41l1.81.16a50.71,50.71,0,0,1,4.58,4.7c1.71,2.25.82,3.51-1.93,3.57Z"/><path class="cls-1" d="M259.33,286.87l-5.72-5.47,1.15-1.47c4.35-.87,6.24,2.47,8.6,6.14l-4.26.74Z"/><path class="cls-1" d="M249.24,277.38l-1.81-.16-7-7,5.59,1.76,4.71,3.66Z"/><path class="cls-1" d="M303.47,329.73c3.76,1.22,6.87,3.1,7.73,8.16-5.56-.24-5.51-5.35-7.71-8.16Z"/><path class="cls-1" d="M239.56,256.54c-1.94-1.9-6.34-2-4.57-7.07l6.08,3.78C240.57,254.34,240.06,255.44,239.56,256.54Z"/><path class="cls-1" d="M305.81,370.76l-1.64.18c.14-.76.27-1.51.41-2.27Z"/><path d="M299,365.29l.24.09Z"/><path class="cls-1" d="M206.15,348.48l2,1.29a13.14,13.14,0,0,1,1.33,3.55,16,16,0,0,1-.67,4.05l-3.37,4.41-3.07-.68c-.26-1-.53-2-.79-3.05.53-2.77,1-5.54,1.58-8.31Z"/><path class="cls-1" d="M211.58,387l-2.52-1.37.66-6.07,1.48-2.47,1.75-3.71,4.92.52.18,2.83a3.15,3.15,0,0,1,.13.61l-4.61,8.94Z"/><path class="cls-1" d="M213.57,386.26l4.61-8.94,3.57.2c.14,1.2.29,2.4.43,3.6-.42.9-.85,1.81-1.28,2.71-1.1,1.53-3.87,2.37-2.13,5.09l.08-.2-1.1.35-3.3-1.1v-.45Z"/><path class="cls-1" d="M203.21,371.88l2.73-9.14.14-.08c3,2.87,5.43,6.08,6,10.36l-5.86,0Z"/><path class="cls-1" d="M206.08,362.66l-.14.08c-.16-.32-.31-.64-.46-1l3.37-4.41,5.7-1.11C213.21,363.77,213.11,363.82,206.08,362.66Z"/><path d="M228.48,381.33c3.1-3.18,6.17-2.52,9.59,2.3l-5.38.85q-1.45,2.68-2.92,5.37Z"/><path class="cls-1" d="M229.77,389.85q1.47-2.69,2.92-5.37c3.36,1.55,5.51,3.78,4.52,7.84l-.12.49-1,.37-6.41-2.94Z"/><path class="cls-1" d="M229.77,389.85l-.1.39-3.84,1.32-2.59-1.21,1.78-6.82-.08.23,3.54-2.43Z"/><path class="cls-1" d="M237.09,392.81l.12-.49c.61-1.27,1.23-2.54,1.89-3.89,4.72,1,5.62,3.44,3.8,7.25l.14,0Z"/><path class="cls-1" d="M231.42,366.53c5.85,1.4,4,4.52,2.45,7.78C228.59,373.21,229.72,370.18,231.42,366.53Z"/><path class="cls-1" d="M216.82,367c.3-2.55.59-5.09.92-8,4.57,2.38,4.53,5.15.77,8.25Z"/><path class="cls-1" d="M242.9,395.68l4.74,2.2L244,402.26l.2,0-1.61-.34.19.06c-.12-1.33-.25-2.67-.38-4,.21-.76.41-1.53.62-2.3Z"/><path class="cls-1" d="M220.9,383.83c.43-.9.86-1.81,1.28-2.71l2.76,2.64.08-.23c-1.08,1.49-2.17,3-3.25,4.48l.21.07Z"/><path d="M206.24,373.05l5.86,0a.69.69,0,0,1,.85.34l-1.75,3.71c-3.62-3-2.59,1.62-3.92,2.39C206.93,377.32,206.59,375.18,206.24,373.05Z"/><path class="cls-1" d="M221.75,377.52l-3.57-.2a3.15,3.15,0,0,0-.13-.61c.85-.69,1.71-1.37,2.57-2Z"/><path d="M220.62,374.66c-.86.68-1.72,1.36-2.57,2l-.18-2.83C218.79,374.13,219.7,374.4,220.62,374.66Z"/><path class="cls-1" d="M362.8,341.48,361,339l.27-5.24,4.09,0a50.7,50.7,0,0,1,1.09,5.15C366.82,341.89,365.48,342.73,362.8,341.48Z"/><path class="cls-1" d="M378.23,373.94l.88.95c.16.83.32,1.67.47,2.48-2.8,2-2.17-1.21-3.09-2Z"/><path class="cls-1" d="M365.35,333.92c-2.57-2.58-5.29-5.1-3.7-9.58l3.18.26Q365.1,329.25,365.35,333.92Z"/><path class="cls-1" d="M376.32,362.23l1.32,5.13-.72,4.09-2.73.15c-5.26-1.59-4-6.68-5.51-10.29l3.92.23Z"/><path class="cls-1" d="M376.32,362.23l-3.72-.69c-1.3-2.42-2.63-4.82-3.83-7.28a13.58,13.58,0,0,1,1.8-1.21l1.43,1.39,5,5.14C376.76,360.46,376.54,361.35,376.32,362.23Z"/><path class="cls-1" d="M206.24,373.05c.35,2.13.69,4.27,1,6.41a8.57,8.57,0,0,1-.81.52l-2.94,1.82L198,381l5.19-9.14Z"/><path class="cls-1" d="M225.83,391.56l3.84-1.32,6.41,2.94-1.92,5-7.55-2.54Z"/><path class="cls-1" d="M214.45,388l3.3,1.1-.12,1.73,0,.15c-3.18,7.09-3.18,7.09-8.5,3.75Z"/><path class="cls-1" d="M226.61,395.66l7.55,2.54a6.88,6.88,0,0,1,.35.66l-1,.67-4.3,2.73-4.43-1.7Z"/><path class="cls-1" d="M232,411.18l.83,3.14L231,416.63c-6.37-1.41-6.37-1.41-2.91-7.58l.15,0Z"/><path class="cls-1" d="M224.78,400.56l4.43,1.7c.4,1,.81,2,1.22,2.95l.06-.21-5.1-.29.16.05-1.56-.34.18.07-.72-2.08Z"/><path d="M209.72,379.54l-.66,6.07c-2,5.87-3.05-1.45-4.7-.32l2,.64c.21-.88.42-1.77.64-2.65l-.07.17Z"/><path class="cls-1" d="M221.88,391.54,217.6,391l0-.15,1.22-2.08-.08.2,3.21-.84-.21-.07C221.81,389.19,221.84,390.36,221.88,391.54Z"/><path d="M225.39,404.71l5.1.29,1.65,2.72-3.94,1.37-.15,0Z"/><path d="M221.88,391.54c0-1.18-.07-2.35-.11-3.53,1.08-1.5,2.17-3,3.25-4.48l-1.78,6.82Z"/><path class="cls-1" d="M207,383.28c-.22.88-.43,1.77-.64,2.65l-2-.64.65-1.21Z"/><path d="M207,383.28l-2,.8-1.48-2.28,2.94-1.82c.16,1.16.31,2.31.47,3.47Z"/><path d="M223.45,402.41l.72,2.08-1.78-.62Z"/><path d="M213.57,386.26l.89,1.26-2.88-.54Z"/><path d="M224,404.42l1.56.34Z"/><path class="cls-1" d="M166.89,274.64l.46,1.35-2.57,4.8-7.58-2.2c-.46-1.46-.93-2.91-1.39-4.37,0-.65,0-1.3.05-2l-.06.21,1.38-3.46.95-.42C160.08,272,162.49,274.77,166.89,274.64Z"/><path class="cls-1" d="M185.7,332.07l-3.78,6.79-5.54-2.34a33.24,33.24,0,0,1,3-5.26c1-1.22,2.59-1.94,3.92-2.88l2.62,1.92c-.09.49-.19,1-.28,1.45Z"/><path class="cls-1" d="M166.41,296.68l3.77,1.75L170,302l-2.64,4.59-1.28.33-5.43-2.73Z"/><path class="cls-1" d="M178.12,310.46c.09.29.19.58.28.87l-3.33,5.88-6.39-2.36,3.14-6.19Z"/><path class="cls-1" d="M162.34,286.25l3.6,1.78a4.07,4.07,0,0,1,.78,0l.34,0,.08.33.4.17-2,6.1-5.46-2c.57-2.35,1-4.22,1.48-6.09A7.62,7.62,0,0,1,162.34,286.25Z"/><path class="cls-1" d="M171.82,308.66l-3.14,6.19-5.61-1.62c1.17-2.46,2.11-4.41,3-6.35l1.28-.33,4.42,1.75Z"/><path class="cls-1" d="M175.07,317.21l3.33-5.88,2.43.45c.58,1.07,1.19,2.15,1.79,3.22-.75.43-1.49.87-2.25,1.29q-2,1.09-3.91,2.18Z"/><path d="M176.46,318.47q2-1.08,3.91-2.18c.76-.42,1.5-.86,2.25-1.29l.21,1.17c-3,1.19-2.63,2.85-.66,4.73l.06-.16c-2.3-.47-4.11-.12-4.47,2.67C177.33,321.76,176.9,320.12,176.46,318.47Z"/><path class="cls-1" d="M177.76,323.41c.36-2.79,2.17-3.14,4.47-2.67-.1,1.25-.2,2.5-.31,3.75Z"/><path d="M157.18,269l-1.38,3.46-4.56-2.28,1.94-2-.16,0,4.32,1Z"/><path d="M155.86,272.27c0,.65,0,1.3-.05,2l-1.22.06.15,0Z"/><path d="M153.1,266.33l1.32-.05-.23-.07-1.17,2,.16,0C153.16,267.58,153.13,267,153.1,266.33Z"/><path d="M154.59,274.28l.14.75v-.72Z"/><path d="M158.51,256.31l-.06,3.72.07-.17-2.92,3.07.18,0-1.13-3.66-3,3.14-.63-4.84,2.5-1.71c1.33,4.14,3.17,2.69,5.09.47Z"/><path class="cls-1" d="M153.55,255.89l-2.5,1.71-2.35-1.84,2-4,.15,0,1.58.35-.23-.06,1.62.34-.22,0,1.2,1.79.05-.19-1.28,2.16Z"/><path class="cls-1" d="M151.68,262.44l3-3.14c.38,1.22.75,2.44,1.13,3.66l-3.3.63C152.21,263.21,151.94,262.83,151.68,262.44Z"/><path d="M152.48,263.59l3.3-.63-.18,0,.36,2.3-1.77,1,.23.07C153.77,265.39,153.12,264.49,152.48,263.59Z"/><path class="cls-1" d="M155.39,247.69c0,1.25-.07,2.49-.1,3.74l.06-.24-1.8,1.15.22,0-1.62-.34.23.06-1.58-.35-.15,0-.21-1.86.19-.24.33-1.57-.07.2Z"/><path class="cls-1" d="M166.89,274.64c-4.4.13-6.81-2.61-8.76-6l2.57-1.7,1-.31,7,3.46Z"/><path class="cls-1" d="M154.19,266.21l1.77-1-.16-.08,1.63.35-.19,0c0,1.22.07,2.43.1,3.65l-4.32-1Z"/><path class="cls-1" d="M156,265.23l-.36-2.3,2.92-3.07c-.43,1.87-.85,3.74-1.28,5.61l.19,0-1.63-.35Z"/><path d="M242.42,398l.38,4c-2.31-.3-3.54.42-2.83,3l-2.71,1.59.18,0c-.13-.75-.27-1.5-.41-2.26,4.36-3.61.7-4.24-1.95-5.25Z"/><path d="M239.79,404.92l2.11,1.24Z"/><path d="M241.7,406.1l1.65.35Z"/><path class="cls-1" d="M237,404.36l.41,2.26c-.87.52-1.75,1-2.63,1.54l.16.09-1.63-.34.23,0-1.59-.34.16.1L230.49,405l-.06.21,5.43-1.09-.23-.06,1.62.34Z"/><path class="cls-1" d="M228.2,409.09l3.94-1.37-.16-.1,1.59.34-.23,0,1.63.34-.16-.09c.54,2.42-.49,3.35-2.86,3Z"/><path d="M242.61,402l1.61.34Z"/><path d="M153.55,252.34l1.8-1.15,1,1.85,0-.15-1.66,1.24Z"/><path d="M156.37,253l1.44.3,0-.16-1.42-.29Z"/><path d="M151,248.05l-.33,1.57Z"/><path class="cls-1" d="M156.41,252.89l1.42.29.81,3.18c-1.92,2.22-3.76,3.67-5.09-.47l0,.21,1.28-2.16-.05.19Z"/><path d="M377,359.58l-5-5.14,1.94-3.67a19.75,19.75,0,0,0,.77,3.88c1,2.48,2,1.36,2.78-.24l2,5Z"/><path d="M185.59,331.75c.09-.48.19-1,.28-1.45.18-.14.35-.28.51-.43C186.12,330.5,185.85,331.13,185.59,331.75Z"/><path class="cls-1" d="M182.17,320.9c-2-1.88-2.35-3.54.66-4.73l.21.31.37-.08.89.23Z"/><path d="M184.3,316.63l-.89-.23C183.7,316.49,184,316.56,184.3,316.63Z"/><path class="cls-1" d="M171.81,308.3l-4.42-1.75L170,302l2-.74,2.68.59Z"/><path d="M172,301.22l-2,.74.15-3.53,1.16-.43C171.57,299.07,171.79,300.14,172,301.22Z"/><polygon class="cls-1" points="167.54 288.5 167.14 288.32 167.49 288.17 167.71 288.48 167.54 288.5"/><path class="cls-1" d="M166.72,288a4.07,4.07,0,0,0-.78,0c.15-.38.31-.75.46-1.13C166.51,287.27,166.61,287.65,166.72,288Z"/><path class="cls-1" d="M206.94,383.45c-.16-1.16-.31-2.31-.47-3.47a8.57,8.57,0,0,0,.81-.52c1.33-.77.3-5.4,3.92-2.39l-1.48,2.47Z"/><path d="M222,388.08l-3.21.84c-1.74-2.72,1-3.56,2.13-5.09Z"/><path d="M218.85,388.72l-1.22,2.08.12-1.73Z"/><path class="cls-1" d="M242.42,398l-7.34,1.1-.57-.25a6.88,6.88,0,0,0-.35-.66l1.92-5,1-.37,5.95,2.9C242.83,396.48,242.63,397.25,242.42,398Z"/><path class="cls-1" d="M234.51,398.86l.57.25c2.65,1,6.31,1.64,1.95,5.25l.22,0-1.62-.34.23.06-2.35-4.59Z"/><path d="M233.51,399.53l2.35,4.59-5.43,1.09c-.41-1-.82-2-1.22-2.95Z"/><path d="M154.8,253.94l-1.28,2.16Z"/><path d="M150.8,251.76l1.58.35Z"/><path d="M152.15,252.05l1.62.34Z"/><path d="M155.8,265.15l1.63.35Z"/><path d="M235,408.25l-1.63-.34Z"/><path d="M233.57,408l-1.59-.34Z"/><path d="M235.63,404.06l1.62.34Z"/></svg>