<svg id="Layer_1" data-name="Layer 1" xmlns="http://www.w3.org/2000/svg" viewBox="0 0 504 504"><defs><style>.cls-1{fill:#fff;}</style></defs><title>Artboard 4</title><path d="M417.3,189.27c5.19,7.66,11.1,14.94,15.38,23.07,4.86,9.24,8.14,19.29,12.32,28.9,9.8,22.55,19.9,44.93,31.55,66.64,9.54,17.74,12.9,36.93,8.41,57.08-1.49,6.65-1.8,13.59-3.55,20.15s-3.7,13.68-7.21,19.54c-16.11,26.85-40,41.66-71.18,45.72-25.67,3.34-50.8-.4-76-3.74-18.82-2.49-37.63-5-56.48-7.25-11.56-1.36-23.22-1.87-34.77-3.3-9.39-1.16-18.75-2.79-28-4.83-8.93-2-17.63-5.05-26.55-7.11-12.84-3-22.15-11.95-32.79-18.64-15.25-9.59-28.94-21.11-42.16-33.35-7.76-7.17-17.35-12.34-25.54-19.1-5.42-4.47-9.85-10.14-14.63-15.36-1-1.08-1.47-2.64-2.45-3.76-14.48-16.69-22.93-37-33.48-56.06-3.59-6.46-5.48-13.91-7.88-21-3.64-10.72-7.45-21.41-10.38-32.33-1.57-5.82-2.66-12.27-1.87-18.15,2.37-17.46,5.88-34.76,8.73-52.16,1.53-9.33,6.37-16.68,12.88-23.14,3.88-3.85,7.89-7.58,11.83-11.35-7.92,7.32-3.29,15.1-1,23l-3.55-2.85-4.6,7.79,1.3.77L39,144l.66.42L36,151.18l4.57-2.82c-2.53,4.21-5.48,7.3-1.69,11.17l2.92-4c-5.52,6.37-.6,13.21-.59,19.85-3.43-1.39-3.52-1.24-3.48,5.51l3.55.07c-.72,9.18-1.52,17.94-2,26.72-.11,2,.86,4,1.33,6l1.17-.26q-.19-10.5-.4-21l2.07.05c-.1,1.71-.32,3.43-.28,5.13.06,2-.24,4.27.64,5.84,4,7.21,7.74,14.48,8.75,22.85.3,2.48,1,4.91,1.57,7.36l-.65.57-19-26.13-1,.62,4,6.58-.52.37L32,211.24c.67,3.1,1.18,4.72,1.34,6.38.13,1.37.28,3.79-.3,4-6,2.53-2.16,4.79-.05,7.22.3.34.08,1.14.14,3a16.24,16.24,0,0,0-1.68-2.25,10.8,10.8,0,0,0-1.64-.94c-2,5.12-1.24,6.7,2.42,6.17.39,4.83-2.94,9.82.62,15.94.91-4.53,1.55-7.69,2.19-10.86l.89.17c-.52,4.15-1.05,8.29-1.76,13.81,1.59-1.89,2.25-2.68,3.64-4.35-1.65,5.23-1.41,8.9,2.84,11.74l4.06-14.58c0,4.36-1,8.49-1.77,12.65-1,5.05-.88,5.07,5,11.13l1-3.43c1.6,5.28-3.4,11.71,3.08,16.39l-4.08-.73c2.56,3.24,4.59,5.82,7,8.92,1.65-7.89,3.21-15.38,4.77-22.88.28,9.05-4.2,17.58-2.91,26.63l1.66.24q1.4-6.56,2.81-13.13c.94,7.64-3.71,15.4,0,22.81l1.64.06L66,294.18a147,147,0,0,1-2.23,15.75c-.53,3.05-.3,5.66,4.06,5.23l4.09-14.66.44.11q-1.57,7.92-3.16,15.85l1,.22c.47-1.33.94-2.65,1.44-4.09l5.32,1.89c.52-.93,1-1.88,1.59-2.83l.68.29-.86,5.82,1,.18,2.06-7.42c1.51,4.27-2.86,8.93,2.83,12.86l3.3-11.85,1.23.41a59.63,59.63,0,0,1-2.17,7.56c-1.74,4.07-.6,6.9,2.86,9.39a79.76,79.76,0,0,1,6.52,5.84c-.3.32-.6.64-.91.95l-9.53-7.74c-2.82,6.68,5,7.05,5.81,11.53l-14.89-8.85-.93,1.45c9,10.61,20.9,17.33,33,23.83-3.1-6.1-10.6-6.58-14.92-11.1.28-.48.57-.95.85-1.42l18.29,11.25c.37-.58.74-1.16,1.1-1.74l-18.08-11c2.66-.77,4.47-1.78,6.23-1.71a20.6,20.6,0,0,1,15.38,7.63c1.46,1.72,3.89,2.61,5.89,3.89.38-.61.77-1.22,1.16-1.83l-10.77-8.08c4.5-7,8.22.58,12.67-.12l-3-2.39c1.87-1.9,4.59-3.42,5.32-5.61Q137.85,306,146.33,278c.79-2.6-.1-5.7-.22-8.57l-2.12-.15-9.33,33.45-1.42-.41,9.81-35.19-1.1-.3-9.68,34.73-1.41-.37,7.77-27.86-1.77-.52L129,301c1.29-13.47,7.12-25.92,8.33-39.32l-2.31-.6-8.66,31-2.2-.62,7.23-25.95-1.75-.48L125.29,278c.08-9.57,6-18.3,2.64-27.67l4-3.48-3-3.47c1.86-3.83,4.79-5.25,9-3.05l-2.65,3.92.58.56,5.19-3.47.6.66-3.23,4.64c.22.25.45.5.68.74l8.3-5,.84,1.44c-2.43,1.61-4.93,3.11-7.26,4.85-2.59,1.94-4.51,4.25-2.67,8.14,1-1.93,1.53-4,2.82-5a29.78,29.78,0,0,1,8.19-4.76c1.4-.51,3.87.31,5.05,1.4.72.66.44,3.36-.34,4.48-1.22,1.74-3.25,2.92-4.93,4.33l1,1.09,10.13-10c-.57,6.45-6.18,7.51-7.9,11.47,8.88-4.8,15-12.18,18.53-23.08,1.25,2.65,1.63,3.44,2.34,4.94,7.08-7.89,13.16-15.7,16.56-26.92l-10,6.12.06.11c2.73-2.31,5.59-4.49,8.15-7a16.57,16.57,0,0,0,3.06-4.7c.79-1.63.72-4.51,1.84-5A18.84,18.84,0,0,0,203.39,194c.23-.55,1-.91,1.47-1.33,3.27-2.66,6.95-5,9.7-8.1,2.16-2.46,3.18-5.92,5-9.46-7.33-.32-9.21,3.9-11,8.38,0-1.4,0-2.79.08-5.36l-17.7,9.43-.77-1.42c5-2.54,9.82-5.3,14.9-7.56,4.5-2,6.63-5.07,6.22-10.8-2.95,1.08-6.07,1.43-7.94,3.13s-2.15,4.63-2.78,6.13l-2.86-5.07.07.12c4.57-2.86,5.55-7.23,5.45-12.14-6.08-1-6.21,4.07-8.25,8.62,0-2.78,0-4.18-.06-6.31L178,169.11a64.92,64.92,0,0,1,14.38-7.25c4-1.4,4.84-3.86,4.22-8.73l-5.45,3.68-11.61,1.5,6.53-3.14c.06-.46.12-.92.17-1.39l-6.48-2.64-1.74-5L173,158.93c.35-4,.57-6.46.8-9l-.94-.14L170.74,155l-.65-.18c0-1.34,0-2.68,0-4.09l-5.1.68.06.12,7.27-4.48-4.93-1.38c-1-1.35-2.05-4-2.94-4-2.95.22-5.85,1.35-8.71,2.31-2.3.78-4.52,1.81-6.78,2.74l-.34-1,13.79-6.31c0-.54-.11-1.09-.16-1.63h-4.65c.05-.39.2-1.64.34-2.83l-13.78,3.72c3.19-5.79-2.13-6.95-4.28-8.45-2.49-1.75-6.16-4.82-10-.75l5.83,5.76c-4.9-.62-6.18-7.45-11.72-4.13,1.34,1.67,2.48,3.1,3.63,4.52-4.59-5.51-9.09-2.84-13.73-.26-4,2.21-8.1,4.11-12.16,6.14l-.38-.6,7.9-5.12c-3.34-4-6.23-7.61-9.36-11-.8-.87-2.41-1-3.64-1.47.2,1.43,0,3.16.71,4.22,1.86,2.68,4.16,5.06,6.28,7.56-2.76-1.34-4.42-3.7-6.61-5.33s-3.94-5.37-7.87-3.47c2.89-4-.46-5.69-2.72-7.92-2.86,3.65-2.27,5.11,2.9,7.8l6.1,9.35c-2-.95-3.35-2.5-4.86-3.9s-2.94-2.42-4.43-3.62l-1,1.25,3.37,5.51-7.87-5.33.1.14c-.82-5.27-6.56-10.44-10.68-9.14L72,112.26l-7.31-.55.07.13c1.67-.33,3.36-.59,5-1,5.37-1.3,5.85-6.24,7.59-10.25.7-1.63,1.15-3.68,2.4-4.7,2-1.64,4.56-2.57,7.19-4-.93,2.66-1.89,5.41-2.86,8.15l1.38.44c1-3.56,2-7.11,2.88-10.69,0-.17-1.32-.68-2-1l8.32-3.88C91.49,87.29,87.07,98.39,88,102.7c2.09-4.73,3.94-8.94,5.79-13.15l1.61.7-4.32,9.93,1.32.71,8-15.49,1.45.74c-.33,1.43-.66,2.87-1,4.31l1.35.93,7-8.5-.6,5.37,1,.55,5.41-7,.89.6-1.29,4.63c5.22-.33,5-3.61,5-7.76L97,84.47c1.11-.69,2.13-1.73,3.34-2,16.17-4,32.49-8.49,49.18-5.74a133,133,0,0,1,31.21,9.69c12.67,5.54,25.23,8.14,39.15,6.89,18.67-1.66,37.59-3.55,56.18-2.21,21.85,1.57,43.38,6.78,62.13,19.43,2.28,1.53,4.11,3.73,6.15,5.63C323.53,100,299,93.59,273.58,92c-18.63-1.17-37.53,1.3-56.27,2.69-10.86.8-21.12-.28-31.18-4.66a264.86,264.86,0,0,0-29.25-11.2c-10.52-3.17-21.46-2-32.13,0-1.4.26-2.3,3.35-3.39,5.16-.08.13.22.49.46,1l2.37-2.87,2.44,3.16,3.51-6.58c.55,2.43.87,3.85,1.42,6.26L137,79.51l1.45,3.2c2.86-.94,5.54-1.91,8.27-2.63a2.5,2.5,0,0,1,2.07.91,2.42,2.42,0,0,1,0,2.12,14.46,14.46,0,0,1-1.95,2.45L148,86.75l4.32-3.89,2.08,3.94,2.82-6L158,81c0,1.66.09,3.33.15,5.62L160.67,85c2.19,1,3.6,1.79,5.09,2.37,2.91,1.12,5.82,2.17,4.32,6.3-1.06,2.94.41,4.48,3.08,5.09s5.09,1.46,5.16,4.94a2.66,2.66,0,0,0,1.37,1.94c3.44,1.55,6.93,3,10.47,4.33,2,.76,4.17,1.2,6.26,1.78,0,.33-.1.66-.16,1l-8.86-.89-.61,1.51,16.51,8.92c0-.31.15.35.09,1-.44,4.72-.21,7.92,6.3,5.6,2.8-1,6.51.54,9.8.93-10,1.9-10,1.9-9.06,10.75l6.63-4.59,7.48,5.28,1.87,6.68,5.11-2.73,6.48,8.67-2.38,6,1.53.69,2.4-2.84,5.79,4.51c-1.12.18-2.08,0-2.52.46a22,22,0,0,0-2.33,3.12l1.16.9L246,165c-.15,4.3-.29,8.05-.45,12.77l6.11-4c-.38,3.5-.68,6.23-1,9,2.79-3.5,4.94-1.62,7.07,0,4.86,3.66.36,7.94.76,11.93-.77-1.25-1.53-2.49-2.91-4.71l-1.67,6c-1.49-1.18-3.65-3.18-3.86-3a52.09,52.09,0,0,0-4.94,5.55c-.12-.36-.54-1.6-1-3-4.84,1.42-5.13,4.53-4.42,8.56L308,180.28l-5.78-7.54c3.44,1.61,5.89,4,8.51,6.2a8,8,0,0,0,3.88,2.09c10.91,1.11,21.85,2,32.78,3,3.18.28,6.37.47,10.34.76L352,175.33l.78-.58c1.89,2.09,3.79,4.18,5.68,6.28l.65-.6-1.36-3.55,1-.43,8.1,11.15.67-5.8,4.9,6.7c-.05-2.42-.08-3.54-.12-5.56l4.45,5.35c2.35-3.66,0-5.24-2.37-6.53-9.22-5-18.36-10.14-27.81-14.62-5.28-2.5-11.13-3.8-16.72-5.65-2.56-.92-5-2.71-7.67-3.49-5.56-1.6-11.34-2.43-16.91-4-5.73-1.64-11.25-4-17-5.64-2-.56-4.4.21-6.61.37a57.9,57.9,0,0,0-9.1-3.56c-2.44-.83-4.84-1.76-7.26-2.65l.28-1.53-5.28,1.33c-4.73-5.82-9.24-11.8-14.22-17.34-4.6-5.13-9.72-9.8-14.61-14.67.09-.41.19-.81.28-1.22l13.53.65v1.16l-8.39.58L237,113l11.95.77v1l-8.38.77c4.28,7.9,11.9,3.36,18.06,6.33l-4.87.85c-.15.58-.31,1.15-.46,1.73l10.43,4.37,1.87-1.94-4.1-4.37,1-1.36c5.66,12.24,15.34,13.59,26.88,11.57l4,2.42.73-.92-4.5-5.75,4.35-1.94-12.33-1.95c6.49-2.19,13.2-.19,15.14,3.79L292.84,130c5.66,6.84,16.25,10.74,20,8.17l14.62,9,1-1.11-17.11-17.63,1.06-1c6,6.36,11.84,12.86,18,19,1.62,1.61,4.27,2.37,6.58,3.06,2.13.64,4.52.39,6.66,1,1.7.51,3.18,1.76,4.76,2.68l.52-.83-3.35-4.78.74-.57,6.74,6.88.68-.68-1.91-3.15c3.73,2.8,6.86,6.14,10.21,9.24,6.15,5.68,12.44,11.21,18.66,16.83,4.75,4.28,9.94,8.33,8.39,16.29-2.61-1.83-5.44-3.81-8.78-6.13,1.14,4.69,12.46,11.26,19.83,11.81l-1.88-13.82,1.16-.18,2.79,14.5,1.14-.13L403,187.43c3.68,6-.31,13.77,4.71,19.21l1.54-.2,0-18.66h1q.41,8.6.8,17.18l.62.1c.41-1.25.82-2.51,1.64-5,.47,4.81.81,8.31,1.16,11.8l1.93-.09q.63-6.43,1.28-12.89l1.05,0-.06,13.32,1.27.13a22.77,22.77,0,0,0,.82-4C420.92,201.78,422.26,195,417.3,189.27ZM350.71,296.6c-1.59.23-4.13,0-4.55.81-.78,1.51-.29,3.66-.33,5.59,5.56-.41,4.8-3.72,4.77-6.6l2.51,3.16,1.54,0,.93-6.6-1.82-.68ZM134.15,116.79l-1.35-5c-1.26,1.06-3.29,2-3.56,3.25-.32,1.5.89,3.33,1.66,5.69l3.43-4.12c-.06,2.44-2.6,5.51,2.93,7.3.45-2.64.87-5.12,1.3-7.6ZM279.91,247.13l-8.15-3.43c2,5.22,4.05,8.24,9,7.89-.32-1.71-.59-3.14-.84-4.51,2.22,2.68,2.88,7.4,8.69,6.18-1.7-2.74-3.22-5.2-4.66-7.51Zm56.83,69.71c-4.93,3.81-5.21,5.42-1.51,8.8l-1.39,7.68c-.7-1.62-1.3-3-2-4.67-3.84,2.45-1.22,5.08-.88,7.55.4,2.95,3.85,6-.24,8.87q-.8-5.85-1.6-11.7l-2.22.52c.72,3.87-.71,8.35,4,11.06l-8.29,4.61c5.9-3.73,4-8.69,2.62-12.88l-13.55,6.49.74,1.41,10.29-5.13.87,1.63a48.2,48.2,0,0,0-5.94,2.27c-5.36,2.92-5.37,3.38-1.12,8.14l6.52-2.18-5.69,4,.66,1.15,7.07-2.79.22.61-6.48,4.36,5.06,7.51,6.31-10.71c0,2.34-.06,3.61-.09,5.08l4.13-.28-3.8,3.23.65,1.82,5.78-.9-2.64-4.15,2.72-2.94c.31,6.38,3.24,5.4,6.61,3.46,2.57-1.49,5.21-2.87,7.82-4.3l.54,1.1c-1.37.68-2.73,1.35-4.08,2.08a67.24,67.24,0,0,0-6.28,3.76c-.62.46-.55,1.86-.8,2.83,1,.2,2.59.84,2.8.53,1.56-2.32,2.83-4.83,4.2-7.28l1.81,5.17c1.08-2.56,1.42-3.38,1.88-4.48,1.82,2.93,3.36,5.43,5.19,8.4.91-1.74,1.51-2.9,2.19-4.19,0,3.28.07,6.22.1,9.16l2.16.18,4.3-15.41c3.2,1.09,1.54,8.19,7.19,6.44.69,3.32,1.39,6.7,2.27,11,7-8.6-.09-14.17-1.31-20.7l5.57,9.12,2.46-8.81c1.43,2.55,2.81,5,4.19,7.43l-3.5-2c-3.2,5.2-.93,8.71,2.1,12l1.72-.15c-.15-3.38-.29-6.75-.44-10.13.92-.2,2.62-.36,2.63-.59.1-2.43-.07-4.87-.13-6.56l3.28-2.5c2.13.08.86,6.84,5.53,3.33-.39,3.16-1.41,6.49,2.26,8.63,2.23-4.26,1.93-5.3-2.39-8.56l-1.41-6,1.65-.77q1.62,4.4,3.25,8.78l2.07-.95L398.75,346l.57-.28,3.48,4.51,3.27-3.81,3.19,4,1.34-.67-5.15-10.95.73-.31,4.9,7.38c3-6.42-3.53-9.53-3.66-15.62l7.8,13.05,1.52-.49,1.8-6.47,4.89,1.77-.29-5.83L421,331.7l-2.29,4.86L415.4,334l5.68-4.24-.58-1-5.9,1.91-.27-.64,6.25-4.89-.65-.85-7.53,3.9c4.51-5.83,12.78-6.7,16.09-14l-21.35,10.44a61.75,61.75,0,0,1,8.85-6.19c2.84-1.8,5.6-3.74,8.39-5.61l-1.05-1.64-19.86,9.29-.68-1.36c2.56-1.18,5.21-2.22,7.67-3.59s4.66-3.06,7-4.61c-.3-.5-.61-1-.92-1.49l-10.81,5.78c-.16-.33-.32-.66-.49-1l14.3-9.27-1-1.66c-5,.23-7.91,5-12.75,6.17s-9.34,4.9-14,7.5l-1-1.88c5.6-2.87,11.35-5.48,16.72-8.73,2.12-1.29,3.38-4,5-6.09l-1.4-1.34-24.93,12.93a28.91,28.91,0,0,1,7.4-5.53c5.4-3.14,5.4-3.13,4-7-6.42,3.83-12.65,7.65-19,11.3s-12.85,7.18-19.28,10.76a2.35,2.35,0,0,1,1.34-2.12c9.27-5.25,18.53-10.53,27.85-15.7,3.58-2,6.09-4.44,5.37-9.54-12.49,6.94-24.66,13.65-36.71,20.55-.76.44-.6,2.46-.88,3.74-.09.39-.22.77-.71,2.54-.59-2.27-.87-3.38-1.39-5.37-5.6,5.22-14.11,5.52-15.08,13.08-1.06-.73-2.56-1.77-4-2.81,4.27-2.26,1.15-5.92,1.68-8.89l-3.39-12.08-2.06.36c.34,4.07.67,8.13,1,12.36Zm-109-105.73L225.69,205c-1.11,1.34-2.15,3.53-3,3.46-6.79-.61-4.07,4.94-5.9,7.46l1,1.18c3.31-2,6.63-4.05,9.91-6.14,1.84-1.09,3.56-2.6,5.55-3.19,4.8-1.44,5.33-4.59,4.1-9.92l-5.05,5.91c-1.4-.33-3.17-.12-3.4.59A42.26,42.26,0,0,0,227.77,211.11Zm-38.65,17.61c-2.56,3.14-4.73,6.4-3.26,11a33,33,0,0,0,4.89-8.67c.17-.42-1.2-1.45-1.86-2.19,6.17-4.55,6.45-11.56,8.35-18.49C191.62,212.48,187.24,223.22,189.12,228.72Zm-9.67,27.68c-4.89,2.84-18.48,19.67-18.49,23.3l5.8-7c.52.81.85,1.09.84,1.35a7.4,7.4,0,0,1-.4,2.42C163.45,285,161.06,293.68,163,303s4,18.6,6.19,27.85c1,4.14,2.45,8.17,3.85,12.78l5.62,8.65,5,13,1.48.28,4.36-11.37a19.44,19.44,0,0,1-1.15,8.19c-1.06,3.32-3.53,6.53,1.14,9.47,1.28.81,1.21,3.74,1.8,5.68a10.08,10.08,0,0,0,1,2.69c1.95,3,4,6,5.69,8.43l4.28.26-.06-.06c.26,3.61.53,7.23.88,11.91l4.68-6.12c.06,2.47.41,3.63.06,4.52-1.48,3.77-1.68,6.93,1.8,10,1.8,1.61,2.48,4.46,3.93,7.25l2.91-.53c.2,1.64.38,3,.6,4.81,6.46-3.47,8.31,4.51,14.77,5.28L226,420.13c4.87-3.32,1.84-7.2.86-10.59l13,3.63-.19.61-8.76-1-.16,1,15.51,9.43-.84,1.24-2.86.5-.1,1.39,20.36,4.2c-2.82-6.44-4.92-11.21-7-16l-1.47.48,1.24,6.63-.76.3-5.36-8.31,46.64-4.71a6,6,0,0,1-4,2c-8.27,1-16.53,1.91-24.81,2.74-4.2.42-4.76,2.08-2.52,4.92,1.59-.47,2.83-1.14,4.06-1.13,2.53,0,5.13.93,7.56.55,6.07-1,12-2.47,18.09-3.68a14.76,14.76,0,0,1,3.18.05l.12,1.52c-1.68.4-3.34.89-5,1.17-4.6.77-9.23,1.34-13.8,2.24-1.12.22-2,1.44-3.05,2.2a10.57,10.57,0,0,0,3.18.87c4.92-.22,9.83-.66,14.75-.93a14.31,14.31,0,0,1,3,.48l0,1.22c-4,.48-8,1.24-12,1.36-3.78.12-3.64,1.7-2.67,3.8,4.28-2,7.86-.78,11.56,1-2.39,3.9-.84,7.45,3.57,8.21,4.25.73,8.6.94,12.87,1.6,5.9.91,9.46-3,7.82-8.78-.25-.9-1-2.34-.68-2.63,3.14-2.89,1.29-5.23-1.05-7.44l2.51-1.13-7.47-8.2,32.86,4.85c-3.76.33-7.65.26-11.51.54-1.57.11-3.08,1-4.61,1.49,1.44.86,2.8,2.2,4.35,2.5,4.08.77,8.25,1.09,12.38,1.59l-.13,1.13-16.59-1.78-.84,2.59c5.73,1.35,11.26,3.22,16.17,3.45-.33,3.71-.63,7.12-.93,10.54l1.13.37,2.25-2.07c1.32,1.61,2.53,3.11,3.72,4.57L347,442.31c4.64,3.14,4.92-1.6,6.84-3.5.17,1.51.28,2.56.4,3.61,1.6-1.75,2.11-3.84,3.14-5.62,1.43-2.47,3.25-4.7,4.9-7l-.18.08,10.95.24c-1.23,5.64-2.35,10.78-3.46,15.91l1.92.43L376.15,434l1,.32-2.06,11.09L377,446q2.3-6.68,4.61-13.34l.78.26c-.77,4.27-1.53,8.54-2.41,13.49l10.67-1.53c-6-4.3,4.54-8.67-2.05-12.31,5.08-2.7,7.06-7,5.24-8.7,1.86-3.07,3.6-5.93,5.35-8.8l-1.31-.87-4.76.9c2.71-2,5.81-2.87,8.41-4.52,1.41-.89,2.08-3.07,2.75-4.8.09-.22-1.82-1.22-3.66-2.4l22.15-8.86-2.13,4.15,1.74,1,4.44-5.16-3.77-.17c5.26-3.76,10.59-7.43,15.73-11.35,1.6-1.22,2.69-3.11,4-4.69-.41-.5-.82-1-1.24-1.48-10.65,6.74-21.06,14-33.29,17.48,13.62-7,27.58-13.41,38.2-25.13l.93.93-4,6.79,1.36.8,4.46-5.16,1.38,1L444,382l.73.61,5.09-3.85c.61,2.6.84,4.75,1.67,6.64.58,1.32,2,2.27,3,3.38,1.24-1.18,3.28-2.19,3.56-3.57.55-2.62.09-5.45.05-8.46l-3.47,1.65-.22-.5Q461.22,371,468,364.1l-.65-.66-4.49,2.34,5.58-6.51-1-1q-5.61,5.66-11.23,11.29l-.65-.68,15.57-17.7-1.43-.51a31.25,31.25,0,0,1-.1-5.38c.7-4.91,1.42-9.82-1.33-14.32-.69-1.13-2.28-1.73-4.56-3.37l5.47-19.6-1.88-.58-4.94,17.7-1.35-.42c.82-8.09,5.52-15.69,3.43-24.17l-4.64,16.65c-2.4-7.86,2.84-15.33.64-23.06L457,311.91l-.95-.2,1.82-12.08-1.3-.34-3.12,11.19-.53-.25q.69-11.52,1.39-23l-1.68-.11q-.9,7.11-1.79,14.24l-1.08-.12c0-1.42,0-2.85.07-5.07-1.3,2.86-2.24,4.9-3.58,7.84-.73-4.9-.06-9.73-2.16-12.26-3.42-4.12-2.27-7.65-1.42-11.7.38-1.86.5-3.77.74-5.66l-1.05-.13-2.83,8.31-.77-.3q1.47-8.57,3-17.13l-1.4-.36L436,277.44l-1.24-.32q1.51-8.44,3-16.89l-.82-.18-3.87,9.8-1.16-.4c.35-3.6.71-7.2,1.18-12.09-1.61,2.62-2.47,4-3.34,5.42.42-7,4.16-13.45,1-21.57-.95,7.39-1.76,13.68-2.58,20l-1.4-.21,1.41-9.79-.94-.15-2.88,6.62-1.44-.46q.76-5.26,1.54-10.54l-1.15-.21q-1.54,4.6-3.11,9.22l-1-.29q.21-7.51.4-15l-.74-.07-6.59,19.87,1.26.42,1.87-4.21c1.34,3.57,1.2,7.23,2.08,10.63,1.35,5.27,2.66,10.77,5.3,15.43,4.9,8.61,11,16.54,16.12,25,3.56,5.83,6.45,12.09,10.11,19.07l1.51-5.4c.67,6.41,1.66,12.17,1.71,17.95a15.73,15.73,0,0,1-2.64,8.85c-3.28,4.54-6.9,9.16-11.32,12.49-9.16,6.89-18.82,13.16-28.5,19.34-18.78,12-40.27,17.26-61,24.45-13.48,4.67-26.34,3.64-39.73.52-5.48-1.28-11.45-.85-17.17-.58-5,.24-9.87,1.48-14.82,2.06-5.92.68-11.85,1.25-17.8,1.66-10.16.7-20.33.92-30.09-2.75-5.21-2-7.13-5-5.74-9.47,3.81-12.17,10.41-22.07,22.28-28.05,11.44-5.77,22.6-12.1,33.86-18.23a12.8,12.8,0,0,0,2.17-1.95l-.44-.51-6.35,2.49-.7-1.15c.63-.78,1.12-1.84,1.94-2.31,6.25-3.55,12.64-6.86,18.83-10.51,2.72-1.61,5.07-3.82,8.14-6.18,6,2.37,9.88-5.26,15.86-6.15l1.32,2.47-14.56,5.29,1.65,2.86c3.51-2.38,7-4.87,10.55-7.13,5.22-3.29,5.74-9.15.87-14.13-.85,1.82-1.64,3.54-2.36,5.1l-2.56-2.45c1.22-2.1,3-4.12,3.66-6.46,3.42-11.83,6.72-23.7,9.72-35.64,1.17-4.62,2.21-9,4.65-13.34,7.44-13.4,18.32-21.13,33.39-21.92,16.06-.85,31.38,1.45,41.85,15.93a32.36,32.36,0,0,0,3,3.2c5.3-6.92,5.82-10.56,2-12.56,3-13,3-13,.69-16.42-.84,5.11-1.57,9.59-2.31,14.08l-1.77-.19q.69-6.87,1.39-13.76l-1.75-.27-4.09,14.68-1.68-.49c1-3.73,2.65-7.42,3-11.22s-.71-7.49-1.14-11.24l-1.33.14,1.18,9.91-1,.13c-.44-2.27-.87-4.55-1.5-7.86-1.34,2.74-2.16,4.4-3,6.06l-1-.25q1.14-6,2.27-12.08l-1.45-.2c-.92,2.45-1.84,4.9-3.22,8.6-.4-3.84-.64-6.17-.87-8.5l-1,.14c-.13,1.31-.25,2.62-.38,3.92l-.66,0c-.5-2-1-3.93-1.88-7.36l-1.56,5.6a31.57,31.57,0,0,1-5.33-9.35c-.79-2-1.13-4.17-2.06-6.07-2.26-4.61-4.52-9.16-10.16-10.8-17.24-5-35-6.59-52.76-7.27-7.7-.29-15.37.94-21.46,3.7,4.79,3.15,9.84,6.34,14.75,9.74,4,2.74,7.81,5.66,11.59,8.66,2.58,2,5.38,4,7.27,6.65s3.37,5.69,3.46,8.63c.08,2.72-1.94,5.49-2.69,7.37l-9.38-14.6-1.52.84a110.45,110.45,0,0,1,5.25,10.35c1.13,2.91,2.56,6.39,1.9,9.16-1.74,7.42-4.52,14.59-6.91,21.86-.55,1.65-1.15,3.28-1.73,4.93l-1.67-.39,3-19.91-1-.25-3.42,6.66c.12-6.11,4.76-11.77-2.81-15.51.84,2.43,1.69,4.85,2.77,7.94l-3.88-3.42-3.48,12.47-1.31-.14c.93-4.27,3.27-8.8-1.76-12.26-2.65,3.88.11,10.09-5.57,12.31L296,245.75c.62,3.86,1,6.24,1.39,8.6-4.67-3.44-3.91-12.63-13.24-12.21l6.73,12.39-1.13,1.25L276.33,252c1.57,3.41,2.61,5.64,3.65,7.88-3.82-4.52-5.57-11.28-13.64-10,0,5.48,4.89,5.53,9.26,7.76l-9.6-.89,1.57,5.18c-3.7-2.32-2.74-8.61-8.84-7.65.58,1.54,1.06,2.83,1.55,4.15l-4.9.68c1.36,2.84,2.54,5.33,3.67,7.68l-7.33-3.47-.61.95,4.12,8.09-1.93,1.08c-.84-2.27-1.52-4.63-2.56-6.81-1.91-4-2-4-6.31-4l7.29,10.45-1,.64-4.47-2.91c.92,2.69,1.45,4.22,2.41,7-6-8.22-6-8.22-9.53-8,2.28,5.13,3.76,10.77,11.5,11.66L246,282.87l-7.7-3.83-1,1.47,3.68,4.3-10.69-1.46L237,296l-.66.41L233,292.91l-.66.54,2.72,6-8.36-.85c0,.06,0,.84-.07,2.17l-3.6-4.42-.84.67,5.66,9.16-.84.3-5.23-3.5-1.08,1,5.61,9.87-9.71-4.77-1.27,1.79c2.2,2,4.41,4,7.1,6.51l-8-1.4c.57,1.2,1,2.37,1.63,3.44,6.49,11.07,13,22.1,19.47,33.18a48,48,0,0,1,2.38,5.5l-1.77.83c-1.2-1.88-2.52-3.69-3.57-5.65-4.43-8.21-8.74-16.48-13.17-24.69-3-5.54-3.06-5.5-9.3-6.15,8.42,13.35,14,28.36,24.21,40.13-3.2,3.86-6,7.1-8.68,10.51-5.83,7.53-9,7.32-13.62-1.26-5.11-9.52-9.74-19.33-19.24-25.58a53.47,53.47,0,0,1-8.55-6.88c-7.26-7.31-15.24-14.36-17.21-25.13s-2.59-21.72.95-32.15c3-8.88,7.49-17.25,11.32-25.86,1.8-1.44,3.65-2.81,5.38-4.31q11.46-9.9,22.86-19.86l8.47-7.41-1.17-1.28c-8.78,7.56-17.68,15-26.29,22.73C185.22,249.18,182.48,253,179.45,256.4Zm-42,97.54c3.84-.39,2.94-2.32,2-5.28-1.25-4-1.41-8.42-2-12.65,4.87-.37,2.07-3.18,2.18-5.09a4.57,4.57,0,0,0,1.41-3.05c0-1.11-.84-2.37-.56-3.35a83.25,83.25,0,0,1,3.32-9.4c2.8-6.65,5.75-13.24,8.64-19.85-12.87,17.64-25.45,50.57-14.36,66.63C137.81,359.24,137.61,356.59,137.4,353.94Zm248.8-64.18c-5,2.67-9.72,5.37-14.61,7.83-3.84,2-4.38,4.57-2.24,8.15,4.67-2.54,9.19-5.28,14-7.49C387.25,296.42,387.61,293.77,386.2,289.76Zm-64.26,34.53c-3.16,2.21-6,4.46-9.11,6.32-6.47,3.86-6.53,3.78-1.8,10.37,3.07-2.35,5.88-5.2,9.27-6.91C324.61,331.9,324.58,329.3,321.94,324.29Zm44.25-23c-12.67,5.65-13.82,6.5-10.39,11.64C366.06,309.57,368.2,307.29,366.19,301.28ZM213.89,156.75c-8.66.7-10.56,3-9.64,11.27C212.81,166.62,213.45,165.88,213.89,156.75ZM459,388.88c-5,2-4.94,2-5.38,7.95-.4,5.52-1,11-1.5,16.54l1.49.22C455.31,405.63,457.05,397.68,459,388.88ZM148.18,130.29c0-.2.53-.94.34-1.41-.7-1.7-1.63-3.32-2.47-5-1.27,1.43-3.78,4-3.62,4.14a50.3,50.3,0,0,0,7.63,7.1c.31.24,2.66-1.58,3.39-2.83.34-.6-.73-2.85-1.5-3.05C150.85,129,149.44,129.9,148.18,130.29Zm140.91,9.79c-3.52-5.17-9-7-15.47-5.18C276.34,140.2,284,142.75,289.09,140.08ZM105.26,119.73c7.85,11.68,10.75,13.62,14.94,10.42C115.26,126.36,111.81,120.78,105.26,119.73Zm18.16-4.88c-5.43,6-.62,8.21,2.15,10.93,3.16,3.11,5.72,1.19,8.43-.76l-7.51-5.73-.47.83C125.25,118.57,124.48,117,123.42,114.85ZM168.93,255c0-1.87.09-4.27.17-7.91l-16.85,17.74,1.35,1.35c3.47-3.27,6.86-6.65,10.48-9.76C165,255.63,166.65,255.65,168.93,255Zm183.59,54.24c-8.69,2.34-10.11,4.23-7.56,9.74C353.7,316.13,354.45,315.21,352.52,309.26Zm-84.25,123.2-29.92-4.88C239.05,431,258.56,434.66,268.27,432.46ZM138.61,89.1c-5.3.64-8.47,5.56-9.1,13.63,1.7-.68,3.77-.86,4.26-1.83C135.59,97.3,136.89,93.43,138.61,89.1Zm69.6,60.13c3.75,0,7.52,1.2,7.65-4.38.06-2.54-.36-4.36-3.35-4.07C206.75,141.34,208.93,145.75,208.21,149.23ZM100.86,121.44c4.07,8.93,9.32,13.51,13.38,11.82C110,128.8,106.69,123.71,100.86,121.44Zm130,145.76c2.08,8,4.66,10.73,10.16,10.78C238.51,269.33,236.5,267.2,230.88,267.2Zm-16-102.59c7.28-.83,8.44-2.57,6.55-9.22C215.67,155.63,215.67,155.63,214.88,164.61Zm81.63-16.14c-4.79-5.65-11.53-7.71-17.86-5.53C284.1,147.46,290.75,146.65,296.51,148.47ZM93.72,110.31l2.3.32,4.75-10.74c-4.57-.23-7.32,1.4-8.16,5C92.23,106.54,93.3,108.5,93.72,110.31Zm118.65,64.23c4.91-1.13,9.18-2.19,8.07-8.37C213.72,165.87,213,166.55,212.37,174.54Zm125.5,140.74c7-4.08.82-9,2.32-13.19-3.31,0-5.65.17-4.85,3.69C336,308.7,336.87,311.57,337.87,315.28Zm-43.25,50.29c-2.59-2.81-3.77-4.88-5.51-5.64-.9-.39-3.6,1.26-4,2.5s.74,4.36,1.54,4.48C288.64,367.22,290.86,366.31,294.62,365.57ZM187.44,145.26l-2.12,2.55-2.12-1.91c-.5,5.06,3.63,6,6.15,8.76C192.36,150.37,192.06,147.46,187.44,145.26ZM262,242.08c1.55,5.82,3.75,7.21,9.86,6.23C269.82,243,267.09,241.3,262,242.08Zm119.34,138.7c3.49-5.62,3.13-7.87-1.75-12C377.18,373.1,376.43,377.17,381.29,380.78ZM126,128.1l-9.21-8-1.66,1c.62,1.43.85,3.39,1.93,4.19C119.43,127.06,121.08,131.64,126,128.1Zm93.61,53.28c6.36-2.93,7.64-4.72,6.92-9.24C220.59,172.84,220.1,173.46,219.58,181.38ZM329.27,306.93c-3.87,2.71-3.84,7.19-.58,13.61C332.68,316,328.79,311.87,329.27,306.93Zm103.13,18.9c-2.52,1.77-4.87,2.63-5.63,4.24-.43.93,1.73,3.07,2.71,4.66,1.4-1.22,3.25-2.22,4-3.75C434,330,433,328.19,432.4,325.83Zm-138.48,53.5c3.28-2.43,4.72-6.91,2.68-8.63-.62-.52-2.75-.42-3.15.14C291.42,373.68,290.5,376.69,293.92,379.33Zm-147-.2-.33.25,11.69,18.46-.18.11Zm2.8-267.88c-3.93,6-3.78,6.74,1.7,8.88C153.06,116.87,155.37,113.6,149.77,111.25ZM43.66,209c-1,8.75,1.2,14.38,7,17.76Zm293.67-50.51-12.75-8.66C327.29,155,330,160.2,337.33,158.48Zm-221.5-52.32,3.56-12.79C114.55,96.34,112.35,102.88,115.83,106.16ZM168.6,260.47l-1.59-1-12.17,12.61a19.59,19.59,0,0,0,8.25-4.49C165.24,265.58,166.79,262.89,168.6,260.47ZM79.13,109c-6.75,7-6,11.65,2.35,13.46-1.61-2.31-3.23-4.61-5-7.17C77.25,113.41,78.19,111.2,79.13,109Zm119.63,110.6c4.6-2.07,7.64-9.42,6.05-14.8C202.91,209.43,201,214.09,198.76,219.58Zm23.72-57.35c5,.83,6.89-.73,6.75-4.17,0-1.15-1.55-2.24-2.39-3.36Zm40.9-24c-2.28-3-4.44-6-6.91-8.82-.59-.67-2.23-.39-3.39-.55-.17.39-.35.78-.53,1.17C256,132.92,257.71,137.84,263.38,138.19Zm94.91,27.7,1.15-1.47-16.25-13L342,152.91ZM29.73,195.23l1.7.14c4.15-5.58,4.18-7.29-.58-11.74C30.43,187.94,30.08,191.59,29.73,195.23Zm170.75,93.3c-1.55-6.31-2.74-7.1-8.76-6.2C192.28,287.44,196.31,287.6,200.48,288.53Zm165.31,6.26c-3.88,2.06-9,1.9-7,8.32C362,301.17,366.36,301,365.79,294.79Zm-106.92-56.2,1.54-.05a48.13,48.13,0,0,0,1.88-7.26c.1-.8-1.32-2.32-2.27-2.54-.75-.17-2.68,1.22-2.64,1.81A70.08,70.08,0,0,0,258.87,238.59ZM365,368.37c-3.79,6.43-3.76,8.6.54,10.5-.22-1.87-.41-3.48-.59-5l3.18-.74c-.83-1.61-1.4-2.8-2.06-3.94C365.84,368.85,365.35,368.65,365,368.37Zm41.33,39.39c6.65-1.88,7.09-2.41,6.23-7.54C409.57,401.93,405,402,406.31,407.76ZM388.05,293.05l1.56.89c2.6-.57,5-1.49,4.34-5-.18-.91-1.6-1.57-2.45-2.34Zm-49.81,84.64-1.79.17-2.08,7.44,1,.83c1.66-1.13,4-1.93,4.73-3.48C340.61,381.51,338.94,379.38,338.24,377.69ZM206.41,222.08l1.91,1c3.79-1.73,3.45-5.29,3.67-8.6l-1.74-.8Zm197,195.6c5.41-1.28,6.58-4.32,6.35-8.67C404.26,409.34,404.57,413.48,403.36,417.68Zm-128.94-28c7.1-2.12,7.5-4,2.51-9Zm11.9-7.22,3.07-.32c-.28-2.66-.57-5.33-.86-8-1,.31-2.92.64-2.91.94A73.17,73.17,0,0,0,286.32,382.5ZM86.63,105.76l-.82-.43A102,102,0,0,0,79,113.15c-.49.69.52,2.45.84,3.72h1.52Zm141.66,58.3c-5.22-.57-6.21,2.31-6,6.68C227.31,171.06,228.84,168.66,228.29,164.06Zm-12-15.87c4.34.23,6.91.4,6.51-3-.15-1.32-1.9-2.45-2.92-3.66Zm-9.63,8.11c3.48-1.24,8,.49,8.25-5.45C211,151,206.91,149.89,206.64,156.3Zm102.76-9.79-1.46,2.25,8.5,5.6c.47-.7.93-1.41,1.39-2.11Zm34.17,152.81-2.3.19,1.8,11.86,1.85-.16C346.36,307.11,344.18,303.27,343.57,299.32ZM214,284.89l-6.41-10C206.45,281.34,207.86,283.47,214,284.89Zm87.08,90.47c3.83-1.82,3.8-4.28,1.85-6.58-.84-1-2.89-.93-5.1-1.54C299.26,370.83,300.13,373,301.07,375.36ZM114.83,95.3l-.73-.94c-1.54.76-3.35,1.24-4.54,2.37-.74.71-.76,2.4-.68,3.62,0,.47,1.51,1.38,1.85,1.2A6.52,6.52,0,0,0,113,99.28,33.28,33.28,0,0,0,114.83,95.3Zm-19,1.75,1.91,2.28,6.39-6-1.9-2.08ZM308.19,238l1.95-.31c2.64-3.73.95-6.55-1.76-9.17l-1.71.3ZM408,419.59l-1.53-1c-4,.52-4.68,3.34-4.56,6.71l1.52,1C404.91,424.06,406.43,421.82,408,419.59ZM127.2,101.15l4.6-11.06C127,91.47,125.27,95.23,127.2,101.15Zm24.51-2.46,2.91-10.44C150.19,89.88,149,93.45,151.71,98.69Zm73.61,98.38-1.56-.75c-3.2,2.34-3.43,5.78-3.54,9.26l1.79.66Q223.68,201.67,225.32,197.07ZM90.9,121c3-4.53,1.23-6.64-2.15-8.45C84.68,116.72,88.5,118.28,90.9,121ZM270.28,384.87l-2,.06c.15,2.55.31,5.1.46,7.65.85-.3,2.11-.35,2.48-.95C272.76,389.13,272.76,386.72,270.28,384.87ZM384.17,283.09c-2.24,2.49-7.28,2.49-4,7.94C382.9,289.09,387.66,289.22,384.17,283.09Zm-.49-5c-7.4,1.18-7.61,1.58-4.23,8.14C381.15,283,382.42,280.53,383.68,278.09ZM202,208.41l-1.86-.61-4.74,13.45,1.64.56Q199.56,215.11,202,208.41Zm50.78,157.5c4.87,1.92,9.09-.69,10-4.34Zm47.57-4.1c1.46-1.25,3.1-2.24,3-2.63a21.58,21.58,0,0,0-2.78-5.29,8.07,8.07,0,0,0-2.62,1C298.48,356.85,299.23,358.73,300.38,361.81ZM264.67,136.3l7.1,3.27C271.3,134.25,268.89,133.27,264.67,136.3Zm140.1,291.34c-5.42,1.83-6.47,4.45-3.53,9.28ZM339.06,322.31c5.56-1.36,3.4-4.43,2.45-7.42C336.53,316,338.05,319,339.06,322.31Zm-59,48.64,2,.82c1.06-1.21,3.06-2.53,2.94-3.61-.16-1.55-1.89-2.93-2.95-4.38l-1.62.5Zm-64-169.82-1.94-.66-3,10.89,1.34.48Q214.27,206.49,216.09,201.13Zm5,101.31,1.23-1.09c-1.25-5.56-1.79-6.1-7-5.82ZM335.94,373l-2.27-1.45a51.46,51.46,0,0,0-3.2,5.17c-.11.22,1.41,1.25,2.17,1.91ZM212.41,299.85l-1.64,1.57c1.58,2.66,1.8,6.62,7.93,6.46C216.18,304.65,214.29,302.25,212.41,299.85Zm100.67,54.77,1.52-.77c-1.11-2.1-2.17-4.24-3.44-6.24-.11-.18-1.63.53-2.5.83,1,1.93,2,3.88,3,5.77C311.89,354.51,312.61,354.49,313.08,354.62ZM166,123.85l-2.92-.61c-.4,2.32-.83,4.63-1.1,7a12.16,12.16,0,0,0,2.31.48C164.91,128.43,165.43,126.14,166,123.85Zm291.2,285.58,1,.26,5.4-19.37-1-.25ZM372.41,290.52c-3.33,1.58-7.21,2.14-4.15,7.23C370.55,296,375.32,296.21,372.41,290.52ZM173,254.62l1.75.34q1.25-7.17,2.48-14.33l-1.34-.27ZM123.26,357.4l1.58-2-9.44-6.29c-.38.48-.75,1-1.12,1.46Zm121.51-108-1.69,2.37,6.47,4.08,1.44-2.19ZM394.28,298.9c6.69-1.84,7.31-3.2,3.89-8.49Zm-177.85-5.11,2-2-5.61-5.69-1.68,1.7Zm173.38,74.84,2.8-.2-.69-8.21-2.52.18C389.54,363.14,389.67,365.89,389.81,368.63Zm24.68-23.27-1.61.63c-.94,3.43.36,5.82,2.82,7.65l1.95-.87ZM221.35,280.07l-1.23,1q2.87,4.14,5.74,8.26l1.56-1.11C225.68,285.3,225.71,281.15,221.35,280.07ZM376,277.18l2.19,1.37,3.73-5.21L379,271.49Zm30.57-54,2-.43-2.43-11.11-2,.41ZM362.15,438.41c-3.27-.49-5.23.88-4.73,4.23.15,1,2.14,1.78,3.49,2.82C361.45,442.37,361.78,440.52,362.15,438.41Zm-51.41-70.84,2.32-.39c-.21-2.1-.43-4.21-.65-6.31l-3.15.64Q310,364.54,310.74,367.57Zm26.39,6.56,2,1.43a35.08,35.08,0,0,0,3.44-4.6c.15-.26-1.62-1.57-2.51-2.4ZM253.47,263l1.6-2.1-6.7-5.09L246.74,258Zm131.28,17.09,2.59,1.13a28.11,28.11,0,0,0,2.25-5c.1-.38-1.75-1.26-2.71-1.91Zm-75.12,75.52a46,46,0,0,0-3.66-5c-.18-.19-1.74.89-2.67,1.38,1,1.77,1.91,3.58,3.05,5.24A24.9,24.9,0,0,0,309.63,355.61ZM205.8,214.72l1.06.48L210,203.83l-1.09-.33ZM105.9,101.77c0,2.54,0,4.49.07,6.44.93-.26,2.25-.21,2.72-.82C110.24,105.38,111,103.25,105.9,101.77ZM339.1,296c-5.5.15-7,1.95-3.05,6.61Zm-185,59.32-1.63.28c-1.56,2.94-1.67,5.52,3.34,8.16Zm146.63-21.59c2,4,3.54,7.18,5.17,10.48C308.35,341.69,306,336.43,300.69,333.74Zm132.12,67.9,2,.36c.37-2.69.74-5.39,1.22-9C430.52,395.56,433,398.89,432.81,401.64ZM317,357.87l-1.54.32c.52,2.63,1,5.27,1.55,7.91C321.41,362.39,319.11,360.15,317,357.87Zm125.24,30.9-1.88-.32c-.32,2.94-.64,5.87-1.08,9.88C443.51,395.11,443.65,394.41,442.23,388.77Zm-117-81.56c3.2-1.87,2.84-6.34-.93-10.43C324.55,300.05,324.84,303.32,325.19,307.21ZM261.6,227.55l2.65-.33a51.7,51.7,0,0,0-1.23-6.09c-.09-.31-1.82-.12-2.79-.16C260.69,223.16,261.15,225.36,261.6,227.55Zm81.64,67.95c6.34-.56,6.8-1.5,3.41-7.07ZM238.43,264.86c.57-.81,1.13-1.63,1.7-2.45l-6.53-4.31-1.4,2Zm127,27.3c7.44-2.88,7.85-4.26,3.6-7.77C368,286.61,367,288.75,365.41,292.16ZM203.49,131.84l-1.81,1,5,7.25C208.75,135,206.2,133.39,203.49,131.84ZM194.4,302.59l1.92-1.45-5.4-7.31-1.85,1.41ZM416.54,411l1.84.41,1.53-8.21L415,405.5ZM428,393.11l1.54,1.34c2.19-1.66,6.4-1.53,5.18-7.33ZM207.39,291.49l-1.11,1.16c1.62,5.61,1.93,5.89,6.84,5.19ZM240.87,193,243,194.5l4-5.82-2.26-1.53Zm-38.13,87.88q-2.76-3.84-5.5-7.69l-1.29,1C197,277.39,197.67,280.83,202.74,280.92ZM118.81,88.84c-6.54-.09-6.86.2-6.89,6.16Zm77.12,139.85,2.46,1.22q1.81-4,3.65-8.09l-2-1ZM396.1,275.48c1.59-1.07,3.31-1.87,3.22-2.24a19.82,19.82,0,0,0-2-4.17c-.86.63-2.36,1.19-2.43,1.89C394.79,272.21,395.53,273.55,396.1,275.48Z"/><path class="cls-1" d="M86.31,88.82c.71.34,2.07.85,2,1-.87,3.58-1.89,7.13-2.88,10.69l-1.38-.44c1-2.74,1.93-5.49,2.86-8.15-2.63,1.39-5.2,2.32-7.19,4-1.25,1-1.7,3.07-2.4,4.7-1.74,4-2.22,9-7.59,10.25-1.65.4-3.34.66-5,1-5,4-5.64,7.53-.94,11.93.33-4.64.6-8.35.86-12.07l7.31.55-2.29,8.18c4.12-1.3,9.86,3.87,10.69,9.16-1.48-.42-3.19-.54-4.4-1.38a31.9,31.9,0,0,1-4.32-4.3l-.82.88,8,9.74,1.23-.87c0-1.41.11-2.82.17-4.23l7.87,5.33-3.37-5.51,1-1.25c1.49,1.2,3,2.33,4.43,3.62s2.87,3,4.86,3.9l-6.1-9.35-.19.12c3.94-1.9,5.6,1.78,7.88,3.47s3.85,4,6.61,5.33c-2.12-2.5-4.42-4.88-6.28-7.56-.74-1.06-.51-2.79-.71-4.22,1.23.47,2.84.6,3.64,1.47,3.13,3.4,6,7,9.36,11l-7.9,5.12.38.6c4.06-2,8.19-3.93,12.16-6.14,4.64-2.58,9.14-5.25,13.73.26-1.15-1.42-2.29-2.85-3.63-4.52,5.54-3.32,6.82,3.51,11.72,4.13l-5.83-5.76c3.82-4.07,7.49-1,10,.75,2.15,1.5,7.47,2.66,4.28,8.45L157.91,135c-.14,1.19-.29,2.44-.34,2.83h4.65c.05.54.11,1.09.16,1.63l-13.79,6.31.34,1c2.26-.93,4.48-2,6.78-2.74,2.86-1,5.76-2.09,8.71-2.31.89-.07,2,2.62,2.94,4l4.93,1.38L165,151.49c-15.59,5-29.26,13.62-43,22.22a4,4,0,0,0,2.19-.53q19.26-10,38.49-20a14.88,14.88,0,0,0,2.24-1.77l5.1-.68c0,1.41,0,2.75,0,4.09l.65.18,2.07-5.12.94.14c-.23,2.49-.45,5-.8,9L178,146.09l1.74,5,6.48,2.64c0,.47-.11.93-.17,1.39l-6.53,3.14,11.61-1.5,5.45-3.68c.62,4.87-.25,7.33-4.22,8.73A64.92,64.92,0,0,0,178,169.11l16.83-6.9c0,2.13,0,3.53.06,6.31,2-4.55,2.17-9.58,8.25-8.62.1,4.91-.88,9.28-5.46,12.14L181,179.83l-15.84,7.49.8,1.48,15-9.09,16.71-7.78c1,1.74,2,3.49,2.86,5.06.63-1.5,1-4.54,2.78-6.13s5-2.05,7.94-3.13c.41,5.73-1.72,8.8-6.22,10.8-5.08,2.26-9.94,5-14.9,7.56l.77,1.42,17.7-9.43c0,2.57-.06,4-.08,5.36,1.83-4.48,3.71-8.7,11-8.38-1.79,3.54-2.81,7-5,9.46-2.75,3.13-6.43,5.44-9.7,8.1-.52.42-1.24.78-1.47,1.33a18.84,18.84,0,0,1-10.47,10.39c-1.12.49-1,3.37-1.84,5A16.57,16.57,0,0,1,188,214c-2.56,2.48-5.42,4.66-8.15,7-8.2,4.74-13.86,12.07-19.52,19.38l19.46-19.49,10-6.12c-3.4,11.22-9.48,19-16.56,26.92-.71-1.5-1.09-2.29-2.34-4.94-3.58,10.9-9.65,18.28-18.53,23.08,1.72-4,7.33-5,7.9-11.47l-10.13,10-1-1.09c1.68-1.41,3.71-2.59,4.93-4.33.78-1.12,1.06-3.82.34-4.48-1.18-1.09-3.65-1.91-5.05-1.4a29.78,29.78,0,0,0-8.19,4.76c-1.29,1-1.78,3.06-2.82,5-1.84-3.89.08-6.2,2.67-8.14,2.33-1.74,4.83-3.24,7.26-4.85l-.84-1.44-8.3,5c-.23-.24-.46-.49-.68-.74l3.23-4.64-.6-.66-5.19,3.47-.58-.56,2.65-3.92c-4.25-2.2-7.18-.78-9,3.05l3,3.47-4,3.48c3.31,9.37-2.56,18.1-2.64,27.67l4.35-12.91,1.75.48-7.23,25.95,2.2.62,8.66-31,2.31.6c-1.21,13.4-7,25.85-8.33,39.32l7.86-28.19,1.77.52-7.77,27.86,1.41.37L142,266.84l1.1.3-9.81,35.19,1.42.41L144,269.29l2.12.15c.12,2.87,1,6,.22,8.57q-8.49,27.93-17.71,55.63c-.73,2.19-3.45,3.71-5.32,5.61l3,2.39c-4.45.7-8.17-6.92-12.67.12l10.77,8.08c-.39.61-.78,1.22-1.16,1.83-2-1.28-4.43-2.17-5.89-3.89a20.6,20.6,0,0,0-15.38-7.63c-1.76-.07-3.57.94-6.23,1.71l18.08,11c-.36.58-.73,1.16-1.1,1.74L94.38,343.38c-.28.47-.57.94-.85,1.42,4.32,4.52,11.82,5,14.92,11.1-12.1-6.5-24-13.22-33-23.83l.93-1.45,14.89,8.85c-.81-4.48-8.63-4.85-5.81-11.53L95,335.68c.31-.31.61-.63.91-.95a79.76,79.76,0,0,0-6.52-5.84c-3.46-2.49-4.6-5.32-2.86-9.39a59.63,59.63,0,0,0,2.17-7.56l-1.23-.41-3.3,11.85c-5.69-3.93-1.32-8.59-2.83-12.86l-2.06,7.42-1-.18.86-5.82-.68-.29c-.54,1-1.07,1.9-1.59,2.83l-5.32-1.89c-.5,1.44-1,2.76-1.44,4.09l-1-.22q1.57-7.92,3.16-15.85l-.44-.11-4.09,14.66c-4.36.43-4.59-2.18-4.06-5.23A147,147,0,0,0,66,294.18l-3.13,11.25-1.64-.06c-3.75-7.41.9-15.17,0-22.81q-1.41,6.57-2.81,13.13l-1.66-.24c-1.29-9.05,3.19-17.58,2.91-26.63-1.56,7.5-3.12,15-4.77,22.88-2.43-3.1-4.46-5.68-7-8.92l4.08.73c-6.48-4.68-1.48-11.11-3.08-16.39l-1,3.43c-5.86-6.06-5.93-6.08-5-11.13.77-4.16,1.73-8.29,1.77-12.65L40.6,261.35c-4.25-2.84-4.49-6.51-2.84-11.74-1.39,1.67-2,2.46-3.64,4.35.71-5.52,1.24-9.66,1.76-13.81L35,240c-.64,3.17-1.28,6.33-2.19,10.86-3.56-6.12-.23-11.11-.62-15.94-3.66.53-4.38-1.05-2.42-6.17a10.8,10.8,0,0,1,1.64.94,16.24,16.24,0,0,1,1.68,2.25c-.06-1.91.16-2.71-.14-3-2.11-2.43-5.93-4.69.05-7.22.58-.24.43-2.66.3-4-.16-1.66-.67-3.28-1.34-6.38L37,215.69l.52-.37-4-6.58,1-.62,19,26.13.65-.57c-.54-2.45-1.27-4.88-1.57-7.36-1-8.37-4.71-15.64-8.75-22.85-.88-1.57-.58-3.87-.64-5.84,0-1.7.18-3.42.28-5.13l-2.07-.05q.2,10.49.4,21l-1.17.26c-.47-2-1.44-4-1.33-6,.49-8.78,1.29-17.54,2-26.72l-3.55-.07c0-6.75.05-6.9,3.48-5.51,0-6.64-4.93-13.48.59-19.85l-2.92,4c-3.79-3.87-.84-7,1.69-11.17L36,151.18l3.63-6.77L39,144l-3.34,4.44-1.3-.77,4.6-7.79,3.55,2.85c-2.31-7.87-6.94-15.65,1-23l2.15-2,13.87-11.94,8.11-7Zm25.16,139.85.89-3.21c-.27-.42-.53-.85-.8-1.28-2,1-4.32,1.67-6,3.11-.6.52.37,2.82.65,4.52l5.41-3.26-9,10.19c3.18-1.53,6.8-2.21,8.65-4.39,3.33-3.92,5.6-8.74,7.9-12.5Zm-49,0,.71.1c.15-3.62.8-7.31.3-10.84s-2.21-6.59-3.28-9.91-1.92-6.41-2.87-9.61c-1.84,4.13-2.71,7.61-.14,12.31C60.14,216.08,60.84,222.64,62.5,228.68Zm53.13,13.57c2.34-.05,4.8-.58,7,0,3.75.93,5.51-.75,6.62-4.41-2.28,0-5.27,1.73-6.32.94C117.84,234.9,117.87,241.1,115.63,242.25ZM40.8,130.09l3.27,7.36,1.09-.53c-.26-1.48-.53-2.95-.95-5.29l2.51,3L51,131.76c-.51-1.31-1.15-2.92-1.86-4.74Zm39.52,18.78,1.24-.83-14.2-21.18-1.25.83Zm24.6,143.91c3.72-3.61,4.43-6.76,1.17-10.29C100.17,285.51,104.51,288.94,104.92,292.78ZM74.67,240.6c.26-3.44,1.46-6.41-3-6.49-.24-1.67-.47-3.3-.83-5.76C68.07,233.41,68.36,234.23,74.67,240.6ZM58.44,118.25c-5.75,2.53-6,5.31-.95,11.1-.49-2.77-.86-4.84-1.43-8.13,1.52,2.3,2.32,3.51,3.11,4.72l.73-.31Zm70.38,69.52c.19.34.39.67.59,1l18.08-13.17-.66-.88ZM143,149l.12.24-19.53,10.41.23.39ZM56.92,173.57l-1.9-.34q-1.7,9.15-3.4,18.29l1.34.24Zm8.54,61.27,1.51-.05.33-13.38-2.2.05Zm102.86-71.46,0,.19-18,10,0,0Zm-65,62.45c6.69-1.49,1.32-8.17,5.12-10.54C104.63,217.58,104.63,217.58,103.29,225.83ZM52.06,119l-2.21.36q1.21,5.79,2.42,11.59l1.39-.32Q52.87,124.87,52.06,119Zm108,91.13-.87-.95-13.11,11.43.61.7ZM53,201l1.7.3q1.13-5.13,2.26-10.27l-1.87-.36Z"/><path class="cls-1" d="M417.3,189.27c5,5.68,3.62,12.51,3.41,19.11a22.77,22.77,0,0,1-.82,4l-1.27-.13.06-13.32-1.05,0q-.64,6.45-1.28,12.89l-1.93.09c-.35-3.49-.69-7-1.16-11.8-.82,2.48-1.23,3.74-1.64,5L411,205q-.4-8.58-.8-17.18h-1l0,18.66-1.54.2c-5-5.44-1-13.18-4.71-19.21l.33,11.06-1.14.13-2.79-14.5-1.16.18,1.88,13.82c-7.37-.55-18.69-7.12-19.83-11.81,3.34,2.32,6.17,4.3,8.78,6.13,1.55-8-3.64-12-8.39-16.29-6.22-5.62-12.51-11.15-18.66-16.83-3.35-3.1-6.48-6.44-10.21-9.24l1.91,3.15-.68.68L346.31,147l-.74.57,3.35,4.78-.52.83c-1.58-.92-3.06-2.17-4.76-2.68-2.14-.64-4.53-.39-6.66-1-2.31-.69-5-1.45-6.58-3.06-6.21-6.14-12.07-12.64-18-19l-1.06,1,17.11,17.63-1,1.11-14.62-9c-3.71,2.57-14.3-1.33-20-8.17l3.83-1.62c-1.94-4-8.65-6-15.14-3.79l12.33,1.95-4.35,1.94,4.5,5.75-.73.92-4-2.42c-11.54,2-21.22.67-26.88-11.57l-1,1.36,4.1,4.37-1.87,1.94-10.43-4.37c.15-.58.31-1.15.46-1.73l4.87-.85c-6.16-3-13.78,1.57-18.06-6.33l8.38-.77v-1L237,113l-.06-1.57,8.39-.58v-1.16l-13.53-.65c-.09.41-.19.81-.28,1.22,4.89,4.87,10,9.54,14.61,14.67,5,5.54,9.49,11.52,14.22,17.34L265.6,141l-.28,1.53c2.42.89,4.82,1.82,7.26,2.65a57.9,57.9,0,0,1,9.1,3.56c2.21-.16,4.6-.93,6.61-.37,5.73,1.61,11.25,4,17,5.64,5.57,1.59,11.35,2.42,16.91,4,2.7.78,5.11,2.57,7.67,3.49,5.59,1.85,11.44,3.15,16.72,5.65,9.45,4.48,18.59,9.65,27.81,14.62,2.4,1.29,4.72,2.87,2.37,6.53l-4.45-5.35c0,2,.07,3.14.12,5.56l-4.9-6.7-.67,5.8-8.1-11.15-1,.43,1.36,3.55-.65.6c-1.89-2.1-3.79-4.19-5.68-6.28l-.78.58,5.74,9.42c-4-.29-7.16-.48-10.34-.76-10.93-.94-21.87-1.85-32.78-3a8,8,0,0,1-3.88-2.09c-2.62-2.2-5.07-4.59-8.51-6.2l5.78,7.54-68.4,23.79c-.71-4-.42-7.14,4.42-8.56.49,1.43.91,2.67,1,3A52.09,52.09,0,0,1,250,193c.21-.19,2.37,1.81,3.86,3l1.67-6c1.38,2.22,2.14,3.46,2.91,4.71-.4-4,4.1-8.27-.76-11.93-2.13-1.62-4.28-3.5-7.07,0,.31-2.73.61-5.46,1-9l-6.11,4c.16-4.72.3-8.47.45-12.77l-4.3,1.66-1.16-.9a22,22,0,0,1,2.33-3.12c.44-.41,1.4-.28,2.52-.46l-5.79-4.51-2.4,2.84-1.53-.69,2.38-6-6.48-8.67-5.11,2.73-1.87-6.68-7.48-5.28-6.63,4.59c-.93-8.85-.93-8.85,9.06-10.75-3.29-.39-7-1.93-9.8-.93-6.51,2.32-6.74-.88-6.3-5.6.06-.64-.12-1.3-.09-1l-16.51-8.92.61-1.51,8.86.89c.06-.32.11-.65.16-1-2.09-.58-4.23-1-6.26-1.78-3.54-1.32-7-2.78-10.47-4.33a2.66,2.66,0,0,1-1.37-1.94c-.07-3.48-2.39-4.31-5.16-4.94s-4.14-2.15-3.08-5.09c1.5-4.13-1.41-5.18-4.32-6.3-1.49-.58-2.9-1.34-5.09-2.37l-2.53,1.66c-.06-2.29-.11-4-.15-5.62l-.79-.24-2.82,6-2.08-3.94L148,86.75l-1.12-1.19a14.46,14.46,0,0,0,1.95-2.45,2.42,2.42,0,0,0,0-2.12,2.5,2.5,0,0,0-2.07-.91c-2.73.72-5.41,1.69-8.27,2.63L137,79.51l-5.46,5.41c-.55-2.41-.87-3.83-1.42-6.26l-3.51,6.58-2.44-3.16L121.82,85c-.24-.5-.54-.86-.46-1,1.09-1.81,2-4.9,3.39-5.16,10.67-1.94,21.61-3.15,32.13,0A264.86,264.86,0,0,1,186.13,90c10.06,4.38,20.32,5.46,31.18,4.66C236.05,93.29,255,90.82,273.58,92c25.38,1.6,49.95,8,70.75,24.15l.09.18,14.5,13.29-18.55-6.05a49.88,49.88,0,0,0,10.83,7.65c4,1.91,8.41,2.94,12.34,4.26-1.48-1.91-3.11-4-4.73-6.07q3.19,2.13,6.41,4.24l-.17-.19a15.27,15.27,0,0,0,1.57,2.35q20.6,20.82,41.26,41.56A22.85,22.85,0,0,0,411,179.6Q414.17,184.43,417.3,189.27Zm-98.72-79.82-.29,1.77c8.1,1.19,16.43,1.77,22.67,7.83a34.4,34.4,0,0,1-6.27-1.54c-1.77-.48-3.59-.75-5.39-1.12l-.25,1.57,20.37,5.68c-6.41-5-11.94-9.73-17.84-13.9-4.7-3.33-18.17-6.44-21.38-5.08l19,5.31-.11.44Zm79.13,61.22c-12.48-14.15-28.69-25.13-33.08-22.37,3.55,2.85,10.78,1.25,10.42,8.35l10.39,4.24-1.78,3ZM263.85,96.21c-11.31-2-37.65,2-40.2,5.89,6.57-1.34,12.89-2.91,19.31-3.86S256,96.94,263.85,96.21Zm25,83.88c-.12-.79-.25-1.58-.38-2.37L270.23,182c2.16,1,4.58.14,6.16.95C281.75,185.67,284.86,181.59,288.81,180.09Zm-49.75-78.84.23,2.09,23.16-3.11L262.32,99ZM353.39,181.9l-7.05-10.2-1,.65,3.22,6.3-.65.46-4.86-5.06C344.85,178.5,345.79,184.17,353.39,181.9Zm38-10.76,12.78,9.2C402.78,174.61,397.55,171,391.41,171.14Zm-59.26,9.17,1.73-1.25q-4.69-6.59-9.4-13.15l-1.19.86Q327.72,173.55,332.15,180.31Zm-78-77.13.11,2,14.11-1.11c0-.5-.05-1-.08-1.49ZM372,146.78c-5.42-5.35-9.55-7.08-13.53-5.78Zm-35.61,24.83q2.34,5.17,4.67,10.36C343.11,176.79,339.14,174.44,336.38,171.61ZM325,178.28l1.71-1.5-7.64-8-1,.91Zm-11.63-10.69-1,1,8.33,9.45,1.48-1.43Zm-40.7-60-.09-1.32-12.34.57.15,2Z"/><path class="cls-1" d="M97,84.47l22.65-5.18c0,4.15.18,7.43-5,7.76l1.29-4.63-.89-.6-5.41,7-1-.55.6-5.37-7,8.5-1.35-.93c.34-1.44.67-2.88,1-4.31l-1.45-.74-8,15.49-1.32-.71,4.32-9.93-1.61-.7C91.91,93.76,90.06,98,88,102.7c-.9-4.31,3.52-15.41,6.66-17.76Z"/><path d="M411,179.6a22.85,22.85,0,0,1-3.14-2.24q-20.67-20.73-41.26-41.56a15.27,15.27,0,0,1-1.57-2.35c2.36,1.79,5,3.33,7,5.44C385.13,152.39,398.05,166,411,179.6Z"/><path d="M67.58,98.75l-8.11,7L45.6,117.7c5.25-5,10.43-10,15.79-14.86C63.21,101.2,65.5,100.1,67.58,98.75Z"/><path d="M358.92,129.6q-7.26-6.63-14.5-13.28l20.8,17.32q-3.21-2.12-6.41-4.24Z"/><path class="cls-1" d="M422.79,394.48l-22.15,8.86c1.84,1.18,3.75,2.18,3.66,2.4-.67,1.73-1.34,3.91-2.75,4.8-2.6,1.65-5.7,2.53-8.41,4.52l4.76-.9,1.31.87c-1.75,2.87-3.49,5.73-5.35,8.8,1.82,1.72-.16,6-5.24,8.7,6.59,3.64-4,8,2.05,12.31L380,446.37c.88-4.95,1.64-9.22,2.41-13.49l-.78-.26Q379.32,439.29,377,446l-1.91-.54,2.06-11.09-1-.32-4.62,12.41-1.92-.43c1.11-5.13,2.23-10.27,3.46-15.91l-10.94-.24,8.84-2.09-5.34-1.49,4.87-2.47-5.91-.66-.6-1.52,8.08-2.91c-.21-.42-.41-.84-.61-1.26l-9.61,2.86c-.45,2-1.15,3.5-1.05,5s1,3,1.5,4.49c-1.65,2.34-3.47,4.57-4.9,7-1,1.78-1.54,3.87-3.14,5.62-.12-1.05-.23-2.1-.4-3.61-1.92,1.9-2.2,6.64-6.84,3.5l2.55-1.68c-1.19-1.46-2.4-3-3.72-4.57l-2.25,2.07-1.13-.37c.3-3.42.6-6.83.93-10.54-4.91-.23-10.44-2.1-16.17-3.45l.84-2.59L344.66,423l.13-1.13c-4.13-.5-8.3-.82-12.38-1.59-1.55-.3-2.91-1.64-4.35-2.5,1.53-.52,3-1.38,4.61-1.49,3.86-.28,7.75-.21,11.51-.54l-32.86-4.85,7.47,8.2-2.51,1.13c2.34,2.21,4.19,4.55,1.05,7.44-.31.29.43,1.73.68,2.63,1.64,5.77-1.92,9.69-7.82,8.78-4.27-.66-8.62-.87-12.87-1.6-4.41-.76-6-4.31-3.57-8.21-3.7-1.75-7.28-2.94-11.56-1-1-2.1-1.11-3.68,2.67-3.8,4-.12,8-.88,12-1.36l0-1.22a14.31,14.31,0,0,0-3-.48c-4.92.27-9.83.71-14.75.93a10.57,10.57,0,0,1-3.18-.87c1-.76,1.93-2,3.05-2.2,4.57-.9,9.2-1.47,13.8-2.24,1.69-.28,3.35-.77,5-1.17l-.12-1.52a14.76,14.76,0,0,0-3.18-.05c-6,1.21-12,2.72-18.09,3.68-2.43.38-5-.53-7.56-.55-1.23,0-2.47.66-4.06,1.13-2.24-2.84-1.68-4.5,2.52-4.92,8.28-.83,16.54-1.77,24.81-2.74a6,6,0,0,0,4-2l-46.64,4.71,5.36,8.31.76-.3L254.31,415l1.47-.48c2.1,4.78,4.2,9.55,7,16l-20.36-4.2.1-1.39,2.86-.5.84-1.24-15.51-9.43.16-1,8.76,1,.19-.61-13-3.63c1,3.39,4,7.27-.86,10.59l5.86,5.88c-6.46-.77-8.31-8.75-14.77-5.28-.22-1.79-.4-3.17-.6-4.81l-2.91.53c-1.45-2.79-2.13-5.64-3.93-7.25-3.48-3.11-3.28-6.27-1.8-10,.35-.89,0-2.05-.06-4.52l-4.68,6.12c-.35-4.68-.62-8.3-.9-11.94,2.06-.32,4.14-.6,6.31-.9-1.65-3,2.34-8.23-3.41-10.82-.51,2.59-1,4.9-1.42,7.21l-1-.16c.21-2.56.43-5.11.64-7.67l-1.8.11q.39,6.15.77,12.32l-4.28-.26c-1.68-2.47-3.74-5.41-5.69-8.43a10.08,10.08,0,0,1-1-2.69c-.59-1.94-.52-4.87-1.8-5.68-4.67-2.94-2.2-6.15-1.14-9.47a19.44,19.44,0,0,0,1.15-8.19l-4.36,11.37-1.48-.28-5-13-5.62-8.65c-1.4-4.61-2.87-8.64-3.85-12.78Q165.9,317,163,303c-1.95-9.34.44-18.07,4.19-26.56a7.4,7.4,0,0,0,.4-2.42c0-.26-.32-.54-.84-1.35l-5.8,7c0-3.63,13.6-20.46,18.49-23.3l-.08-.14c-3.84,8.6-8.33,17-11.33,25.85-3.54,10.43-2.9,21.44-.95,32.15s9.95,17.82,17.21,25.13a53.47,53.47,0,0,0,8.55,6.88c9.5,6.25,14.13,16.06,19.24,25.58,4.6,8.58,7.79,8.79,13.62,1.26,2.63-3.41,5.48-6.65,8.68-10.51-10.21-11.77-15.79-26.78-24.21-40.13,6.24.65,6.31.61,9.3,6.15,4.43,8.21,8.74,16.48,13.17,24.69,1,2,2.37,3.77,3.57,5.65l1.77-.83a48,48,0,0,0-2.38-5.5c-6.45-11.08-13-22.11-19.47-33.18-.62-1.07-1.06-2.24-1.63-3.44l8,1.4c-2.69-2.48-4.9-4.49-7.1-6.51l1.27-1.79,9.71,4.77L220.73,304l1.08-1,5.23,3.5.84-.3L222.22,297l.84-.67,3.6,4.42c0-1.33.06-2.11.07-2.17l8.36.85-2.72-6,.66-.54,3.33,3.45L237,296l-6.73-12.6L241,284.81l-3.68-4.3,1-1.47,7.7,3.83,4.64-1.37c-7.74-.89-9.22-6.53-11.5-11.66,3.5-.22,3.5-.22,9.53,8-1-2.79-1.49-4.32-2.41-7l4.47,2.91,1-.64-7.29-10.45c4.31,0,4.4,0,6.31,4,1,2.18,1.72,4.54,2.56,6.81l1.93-1.08-4.12-8.09.61-.95,7.33,3.47c-1.13-2.35-2.31-4.84-3.67-7.68l4.9-.68c-.49-1.32-1-2.61-1.55-4.15,6.1-1,5.14,5.33,8.84,7.65L266,256.74l9.6.89c-4.37-2.23-9.28-2.28-9.26-7.76,8.07-1.25,9.82,5.51,13.64,10-1-2.24-2.08-4.47-3.65-7.88l13.45,3.76,1.13-1.25-6.73-12.39c9.33-.42,8.57,8.77,13.24,12.21-.39-2.36-.77-4.74-1.39-8.6l4.18,3.28c5.68-2.22,2.92-8.43,5.57-12.31,5,3.46,2.69,8,1.76,12.26l1.31.14,3.48-12.47,3.88,3.42c-1.08-3.09-1.93-5.51-2.77-7.94,7.57,3.74,2.93,9.4,2.81,15.51l3.42-6.66,1,.25-3,19.91,1.67.39c.58-1.65,1.18-3.28,1.73-4.93,2.39-7.27,5.17-14.44,6.91-21.86.66-2.77-.77-6.25-1.9-9.16a110.45,110.45,0,0,0-5.25-10.35l1.52-.84,9.38,14.6c.75-1.88,2.77-4.65,2.69-7.37-.09-2.94-1.67-6.15-3.46-8.63s-4.69-4.61-7.27-6.65c-3.78-3-7.63-5.92-11.59-8.66-4.91-3.4-10-6.59-14.75-9.74,6.09-2.76,13.76-4,21.46-3.7,17.8.68,35.52,2.24,52.76,7.27,5.64,1.64,7.9,6.19,10.16,10.8.93,1.9,1.27,4.09,2.06,6.07a31.57,31.57,0,0,0,5.33,9.35l1.56-5.6c.88,3.43,1.38,5.39,1.88,7.36l.66,0c.13-1.3.25-2.61.38-3.92l1-.14c.23,2.33.47,4.66.87,8.5,1.38-3.7,2.3-6.15,3.22-8.6l1.45.2q-1.14,6-2.27,12.08l1,.25c.82-1.66,1.64-3.32,3-6.06.63,3.31,1.06,5.59,1.5,7.86l1-.13-1.18-9.91,1.33-.14c.43,3.75,1.44,7.55,1.14,11.24s-1.93,7.49-3,11.22l1.68.49,4.09-14.68,1.75.27q-.69,6.88-1.39,13.76l1.77.19c.74-4.49,1.47-9,2.31-14.08,2.34,3.46,2.34,3.46-.69,16.42,3.84,2,3.32,5.64-2,12.56a32.36,32.36,0,0,1-3-3.2c-10.47-14.48-25.79-16.78-41.85-15.93-15.07.79-25.95,8.52-33.39,21.92-2.44,4.39-3.48,8.72-4.65,13.34-3,11.94-6.3,23.81-9.72,35.64-.68,2.34-2.44,4.36-3.66,6.46l2.56,2.45c.72-1.56,1.51-3.28,2.36-5.1,4.87,5,4.35,10.84-.87,14.13-3.59,2.26-7,4.75-10.55,7.13l-1.65-2.86,14.56-5.29L319,323.07c-6,.89-9.87,8.52-15.86,6.15-3.07,2.36-5.42,4.57-8.14,6.18-6.19,3.65-12.58,7-18.83,10.51-.82.47-1.31,1.53-1.94,2.31l.7,1.15,6.35-2.49.44.51a12.8,12.8,0,0,1-2.17,1.95c-11.26,6.13-22.42,12.46-33.86,18.23-11.87,6-18.47,15.88-22.28,28.05-1.39,4.45.53,7.51,5.74,9.47,9.76,3.67,19.93,3.45,30.09,2.75,5.95-.41,11.88-1,17.8-1.66,5-.58,9.86-1.82,14.82-2.06,5.72-.27,11.69-.7,17.17.58,13.39,3.12,26.25,4.15,39.73-.52,20.76-7.19,42.25-12.45,61-24.45,9.68-6.18,19.34-12.45,28.5-19.34,4.42-3.33,8-7.95,11.32-12.49a15.73,15.73,0,0,0,2.64-8.85c-.05-5.78-1-11.54-1.71-17.95L449,326.5c-3.66-7-6.55-13.24-10.11-19.07-5.17-8.47-11.22-16.4-16.12-25-2.64-4.66-3.95-10.16-5.3-15.43-.88-3.4-.74-7.06-2.08-10.63l-1.87,4.21-1.26-.42,6.59-19.87.74.07q-.19,7.52-.4,15l1,.29q1.56-4.6,3.11-9.22l1.15.21q-.78,5.26-1.54,10.54l1.44.46,2.88-6.62.94.15L426.79,261l1.4.21c.82-6.29,1.63-12.58,2.58-20,3.14,8.12-.6,14.58-1,21.57.87-1.4,1.73-2.8,3.34-5.42-.47,4.89-.83,8.49-1.18,12.09l1.16.4,3.87-9.8.82.18q-1.51,8.44-3,16.89l1.24.32,4.34-12.69,1.4.36q-1.47,8.56-3,17.13l.77.3,2.83-8.31,1.05.13c-.24,1.89-.36,3.8-.74,5.66-.85,4.05-2,7.58,1.42,11.7,2.1,2.53,1.43,7.36,2.16,12.26,1.34-2.94,2.28-5,3.58-7.84,0,2.22,0,3.65-.07,5.07l1.08.12q.88-7.12,1.79-14.24l1.68.11q-.69,11.52-1.39,23l.53.25,3.12-11.19,1.3.34-1.82,12.08.95.2,3.36-17.78c2.2,7.73-3,15.2-.64,23.06l4.64-16.65c2.09,8.48-2.61,16.08-3.43,24.17l1.35.42,4.94-17.7,1.88.58-5.47,19.6c2.28,1.64,3.87,2.24,4.56,3.37,2.75,4.5,2,9.41,1.33,14.32a31.25,31.25,0,0,0,.1,5.38l1.43.51-15.57,17.7.65.68q5.63-5.64,11.23-11.29l1,1-5.58,6.51,4.49-2.34.65.66q-6.73,6.91-13.49,13.82l.22.5,3.47-1.65c0,3,.5,5.84-.05,8.46-.28,1.38-2.32,2.39-3.56,3.57-1-1.11-2.45-2.06-3-3.38-.83-1.89-1.06-4-1.67-6.64l-5.09,3.85L444,382l6.6-8.5-1.38-1-4.46,5.16-1.36-.8,4-6.79-.93-.93c-10.62,11.72-24.58,18.12-38.2,25.13,12.23-3.51,22.64-10.74,33.29-17.48.42.49.83,1,1.24,1.48-1.32,1.58-2.41,3.47-4,4.69-5.14,3.92-10.47,7.59-15.73,11.35Zm-14.53-6c11.36-2.72,36-20.18,35.51-25.44a9.08,9.08,0,0,0-1.71.87c-5.39,4.61-10.5,9.59-16.2,13.77-5.54,4.07-11.67,7.32-17.54,10.92l-17.09,5.29.66,1.77ZM367.78,197.85l-5-5.84c-6,3.58-11.05,1.81-16.43-1.88,1.27,2.51,2.55,5,3.63,7.14l12.35-.44.08-1.28c1.3,1.55,2.61,3.09,4.36,5.15l.86-3.09,7.36,5.51,1.4-2.05-9-5.83Zm-23.84.18,1.34-.53-2.5-6.46-17.25-2.29,6,9,9.33-.05c-.39-2.16-.67-3.65-.94-5.15l.59-.21Zm-28.25,79.09-1.59-.71c-5.48,6.68-7.38,14.71-8,23.21Zm3.88-81.45.9-.72c-1.53-2.48-3.07-4.95-3.85-6.21l-9.85-.57-.33,1.06ZM284.94,326.22c4.43-4.41,9.93-8.16,8.56-15.85l-3.81,9.1-.86-.34.33-4.53-.92-.21Zm-93.26,43.6c1.95-4.95,5.07-9.67,2.51-15.2C193,359.67,188.65,364.18,191.68,369.82Zm38.64-51.53-1.51.74q5.22,10.49,10.42,21l1.35-.66ZM337.89,215.05c1.89,8.3,3.54,10.11,8.22,9-1.95-3.77-3.84-7.43-5.72-11.09l-1.16.57q1.31,2.79,2.6,5.6l-.69.32ZM255.6,319.13l1.49-.62Q252.2,308.28,247.3,298l-1.34.64Q250.77,308.9,255.6,319.13Zm70.71-66,1.24.21,4.93-17.69-2.05-.52Q328.38,244.12,326.31,253.12ZM221.73,408.73c-2.29-2.19-3.79-3.63-5.53-5.28l3.4-1.13-7-5.41C212.77,403.51,215,407.18,221.73,408.73Zm38.77-87.09,1.4-.59q-4.61-10.89-9.22-21.76l-1.38.58Zm4.79-5.16c.6-7.59-3.18-11.06-8.71-13.48Zm-.2,19.72,1.1.94c9.37-7.28,9.37-7.28,8.42-11.18Zm-30.44-23.72-1.33.63q4.81,10.23,9.65,20.44l1.36-.65Zm9.3-10.8-1.34.7,9.76,20,1.43-.73Q248.88,311.64,244,301.68Zm4.35,21.91,1.41-.71L240.66,304l-1.29.62Q243.83,314.12,248.3,323.59Zm28.68-50,.14-.14q5,9.3,9.94,18.61l.18-.11Zm-90.9,87c1.76-3.86,4-7.18-.3-10.4C183.1,357,183.1,357,186.08,360.56Zm114.55-55.33,1.35.15q1.14-8.81,2.26-17.63l-1.93-.23Zm-15.2-34.71-1.61.77L291,285.47l1.34-.68Zm-40.76,56.8,1.47-.57q-3.9-8-7.81-16l-1.23.62Zm191.19,40.24c-.49-.58-1-1.16-1.46-1.75l-10.06,8.83,1,1.21ZM288.44,289.44l1.45-.64-8-16.56-1.31.62Q284.49,281.15,288.44,289.44ZM321,187.67l-1.59,1.63q4.23,4.39,8.45,8.78L329,197ZM215.43,387.93c1,1.6,1.57,2.61,2.56,4.25-.61-8.08-.61-8.08-5-7.38q.63,3.19,1.24,6.37l1-.12C215.27,390.32,215.32,389.59,215.43,387.93Zm163.51-159.5,1.89-2-6.58-5.37L373,222.32Zm11.89,6.92,1.74-1.72-7.17-6.56-1.29,1.21Z"/><path class="cls-1" d="M397,354.24c-4.67,3.51-3.4-3.25-5.53-3.33l-3.28,2.5c.06,1.69.23,4.13.13,6.56,0,.23-1.71.39-2.63.59l.12.21c-1.38-2.44-2.76-4.88-4.19-7.43l-2.46,8.81L373.57,353c1.22,6.53,8.28,12.1,1.31,20.7-.88-4.26-1.58-7.64-2.27-11-5.65,1.75-4-5.35-7.19-6.44l-4.3,15.41-2.16-.18c0-2.94-.06-5.88-.1-9.16-.68,1.29-1.28,2.45-2.19,4.19-1.83-3-3.37-5.47-5.19-8.4-.46,1.1-.8,1.92-1.88,4.48l-1.81-5.17.06.11,4.1-2-.54-1.1c-2.61,1.43-5.25,2.81-7.82,4.3-3.37,1.94-6.3,2.92-6.61-3.46-1.3,1.41-2,2.17-2.71,2.94h0l-4.13.28c0-1.47.05-2.74.09-5.08l-6.31,10.71-5.06-7.51,6.48-4.36-.22-.61-7.07,2.79-.66-1.15,5.69-4-.43.25,8.29-4.61-.22.12c4.09-2.84.64-5.92.24-8.87-.34-2.47-3-5.1.88-7.55.7,1.64,1.3,3.05,2,4.67l1.39-7.68-.18.1,4.05,2.8c1-7.56,9.48-7.86,15.08-13.08.52,2,.8,3.1,1.39,5.37.49-1.77.62-2.15.71-2.54.28-1.28.12-3.3.88-3.74,12-6.9,24.22-13.61,36.71-20.55.72,5.1-1.79,7.55-5.37,9.54-9.32,5.17-18.58,10.45-27.85,15.7a2.35,2.35,0,0,0-1.34,2.12c6.43-3.58,12.91-7.08,19.28-10.76s12.57-7.47,19-11.3c1.37,3.83,1.37,3.82-4,7a28.91,28.91,0,0,0-7.4,5.53l24.93-12.93,1.4,1.34c-1.66,2.08-2.92,4.8-5,6.09-5.37,3.25-11.12,5.86-16.72,8.73l1,1.88c4.64-2.6,9-6.27,14-7.5s7.76-5.94,12.75-6.17l1,1.66-14.3,9.27c.17.33.33.66.49,1l10.81-5.78c.31.5.62,1,.92,1.49-2.32,1.55-4.55,3.25-7,4.61s-5.11,2.41-7.67,3.59l.68,1.36,19.86-9.29,1.05,1.64c-2.79,1.87-5.55,3.81-8.39,5.61a61.75,61.75,0,0,0-8.85,6.19l21.35-10.44c-3.31,7.32-11.58,8.19-16.09,14l7.53-3.9.65.85L414.33,330l.27.64,5.9-1.91.58,1L415.4,334l3.27,2.6-.13-.22-1.8,6.47-1.52.49-7.8-13.05c.13,6.09,6.64,9.2,3.66,15.62l-4.9-7.38-.73.31,5.15,10.95-1.34.67-3.19-4-3.27,3.81-3.48-4.51-.57.28,3.66,9.39-2.07.95q-1.63-4.4-3.25-8.78l-1.65.77,1.41,6Z"/><path class="cls-1" d="M137.4,353.94c.21,2.65.41,5.3.62,8-11.09-16.06,1.49-49,14.36-66.63-2.89,6.61-5.84,13.2-8.64,19.85a83.25,83.25,0,0,0-3.32,9.4c-.28,1,.59,2.24.56,3.35a4.57,4.57,0,0,1-1.41,3.05c-.11,1.91,2.69,4.72-2.18,5.09.62,4.23.78,8.61,2,12.65C140.34,351.62,141.24,353.55,137.4,353.94Z"/><path class="cls-1" d="M322.65,349.56l.43-.25-6.52,2.18c-4.25-4.76-4.24-5.22,1.12-8.14a48.2,48.2,0,0,1,5.94-2.27l-.87-1.63-10.29,5.13-.74-1.41,13.55-6.49C326.69,340.87,328.55,345.83,322.65,349.56Z"/><path class="cls-1" d="M386.2,289.76c1.41,4,1.05,6.66-2.89,8.49-4.77,2.21-9.29,4.95-14,7.49-2.14-3.58-1.6-6.2,2.24-8.15C376.48,295.13,381.24,292.43,386.2,289.76Z"/><path class="cls-1" d="M321.94,324.29c2.64,5,2.67,7.61-1.64,9.78-3.39,1.71-6.2,4.56-9.27,6.91-4.73-6.59-4.67-6.51,1.8-10.37C315.92,328.75,318.78,326.5,321.94,324.29Z"/><path class="cls-1" d="M366.19,301.28c2,6-.13,8.29-10.39,11.64C352.37,307.78,353.52,306.93,366.19,301.28Z"/><path class="cls-1" d="M213.89,156.75c-.44,9.13-1.08,9.87-9.64,11.27C203.33,159.77,205.23,157.45,213.89,156.75Z"/><path class="cls-1" d="M459,388.88c-1.92,8.8-3.66,16.75-5.39,24.71l-1.49-.22c.51-5.51,1.1-11,1.5-16.54C454,390.86,454,390.86,459,388.88Z"/><path class="cls-1" d="M148.18,130.29c1.26-.39,2.67-1.29,3.77-1,.77.2,1.84,2.45,1.5,3.05-.73,1.25-3.08,3.07-3.39,2.83a50.3,50.3,0,0,1-7.63-7.1c-.16-.18,2.35-2.71,3.62-4.14.84,1.64,1.77,3.26,2.47,5C148.71,129.35,148.23,130.09,148.18,130.29Z"/><path class="cls-1" d="M289.09,140.08c-5.11,2.67-12.75.12-15.47-5.18C280.05,133.06,285.57,134.91,289.09,140.08Z"/><path class="cls-1" d="M179.45,256.4c3-3.45,5.77-7.22,9.16-10.28,8.61-7.75,17.51-15.17,26.29-22.73l1.17,1.28-8.47,7.41q-11.43,9.93-22.86,19.86c-1.73,1.5-3.58,2.87-5.37,4.31Z"/><path class="cls-1" d="M189.11,228.72c-1.87-5.5,2.51-16.24,8.13-18.37-1.9,6.93-2.18,13.94-8.35,18.49Z"/><path class="cls-1" d="M105.26,119.73c6.55,1,10,6.63,14.94,10.42C116,133.35,113.11,131.41,105.26,119.73Z"/><path class="cls-1" d="M123.42,114.85c1.06,2.16,1.83,3.72,2.6,5.27l.47-.83L134,125c-2.71,2-5.27,3.87-8.43.76C122.8,123.06,118,120.89,123.42,114.85Z"/><path class="cls-1" d="M168.93,255c-2.28.63-3.92.61-4.85,1.42-3.62,3.11-7,6.49-10.48,9.76l-1.35-1.35,16.85-17.74C169,250.75,169,253.15,168.93,255Z"/><path class="cls-1" d="M352.52,309.26c1.93,5.95,1.18,6.87-7.56,9.74C342.41,313.49,343.83,311.6,352.52,309.26Z"/><path class="cls-1" d="M268.27,432.46c-9.71,2.2-29.22-1.48-29.92-4.88Z"/><path class="cls-1" d="M138.61,89.1c-1.72,4.33-3,8.2-4.84,11.8-.49,1-2.56,1.15-4.26,1.83C130.14,94.66,133.31,89.74,138.61,89.1Z"/><path class="cls-1" d="M227.72,211l-9.94,6.07-1-1.18c1.83-2.52-.89-8.07,5.9-7.46.84.07,1.88-2.12,3-3.46l2.08,6.13Z"/><path class="cls-1" d="M208.21,149.23c.72-3.48-1.46-7.89,4.3-8.45,3-.29,3.41,1.53,3.35,4.07C215.73,150.43,212,149.19,208.21,149.23Z"/><path class="cls-1" d="M100.86,121.44c5.83,2.27,9.14,7.36,13.38,11.82C110.18,135,104.93,130.37,100.86,121.44Z"/><path class="cls-1" d="M227.77,211.11a42.26,42.26,0,0,1,1.12-6.78c.23-.71,2-.92,3.4-.59l5.05-5.91c1.23,5.33.7,8.48-4.1,9.92-2,.59-3.71,2.1-5.53,3.22A1.13,1.13,0,0,0,227.77,211.11Z"/><path class="cls-1" d="M230.88,267.2c5.62,0,7.63,2.13,10.16,10.78C235.54,277.93,233,275.19,230.88,267.2Z"/><path class="cls-1" d="M214.88,164.61c.79-9,.79-9,6.55-9.22C223.32,162,222.16,163.78,214.88,164.61Z"/><path class="cls-1" d="M296.51,148.47c-5.76-1.82-12.41-1-17.86-5.53C285,140.76,291.72,142.82,296.51,148.47Z"/><path class="cls-1" d="M93.72,110.31c-.42-1.81-1.49-3.77-1.11-5.39.84-3.63,3.59-5.26,8.16-5L96,110.63Z"/><path class="cls-1" d="M212.37,174.54c.65-8,1.35-8.67,8.07-8.37C221.55,172.35,217.28,173.41,212.37,174.54Z"/><path class="cls-1" d="M337.87,315.28c-1-3.71-1.87-6.58-2.53-9.5-.8-3.52,1.54-3.74,4.85-3.69C338.69,306.31,344.87,311.2,337.87,315.28Z"/><path class="cls-1" d="M294.62,365.57c-3.76.74-6,1.65-8,1.34-.8-.12-2-3.24-1.54-4.48s3.14-2.89,4-2.5C290.85,360.69,292,362.76,294.62,365.57Z"/><path class="cls-1" d="M187.44,145.26c4.62,2.2,4.92,5.11,1.91,9.4-2.52-2.77-6.65-3.7-6.15-8.76l2.12,1.91Z"/><path class="cls-1" d="M262,242.08c5.14-.78,7.87.95,9.86,6.23C265.7,249.29,263.5,247.9,262,242.08Z"/><path class="cls-1" d="M381.29,380.78c-4.86-3.61-4.11-7.68-1.75-12C384.42,372.91,384.78,375.16,381.29,380.78Z"/><path class="cls-1" d="M385.79,360.77l-.12-.21c.15,3.38.29,6.75.44,10.13l-1.72.15c-3-3.32-5.3-6.83-2.1-12Z"/><path class="cls-1" d="M126,128.1c-4.89,3.54-6.54-1-8.94-2.82-1.08-.8-1.31-2.76-1.93-4.19l1.66-1Z"/><path class="cls-1" d="M219.58,181.38c.52-7.92,1-8.54,6.92-9.24C227.22,176.66,225.94,178.45,219.58,181.38Z"/><path class="cls-1" d="M329.27,306.93c-.48,4.94,3.41,9.07-.58,13.61C325.43,314.12,325.4,309.64,329.27,306.93Z"/><path class="cls-1" d="M432.4,325.83c.58,2.36,1.63,4.15,1.12,5.15-.79,1.53-2.64,2.53-4,3.75-1-1.59-3.14-3.73-2.71-4.66C427.53,328.46,429.88,327.6,432.4,325.83Z"/><path class="cls-1" d="M293.92,379.33c-3.42-2.64-2.5-5.65-.47-8.49.4-.56,2.53-.66,3.15-.14C298.64,372.42,297.2,376.9,293.92,379.33Z"/><path class="cls-1" d="M147,379.13,158.15,398l.18-.11-11.69-18.46Z"/><path class="cls-1" d="M149.77,111.25c5.6,2.35,3.29,5.62,1.7,8.88C146,118,145.84,117.24,149.77,111.25Z"/><path class="cls-1" d="M43.66,209l7,17.76C44.86,223.37,42.64,217.74,43.66,209Z"/><path class="cls-1" d="M337.33,158.48c-7.38,1.72-10-3.5-12.75-8.66Z"/><path class="cls-1" d="M115.83,106.16c-3.48-3.28-1.28-9.82,3.56-12.79Z"/><path class="cls-1" d="M336.75,316.83l-4.45.65c-.34-4.23-.67-8.29-1-12.36l2.06-.36,3.39,12.08Z"/><path class="cls-1" d="M168.6,260.47c-1.81,2.42-3.36,5.11-5.51,7.17a19.59,19.59,0,0,1-8.25,4.49L167,259.52Z"/><path class="cls-1" d="M79.13,109c-.94,2.22-1.88,4.43-2.66,6.29,1.78,2.56,3.4,4.86,5,7.17C73.11,120.63,72.38,116,79.13,109Z"/><path class="cls-1" d="M198.76,219.58c2.25-5.49,4.15-10.15,6.05-14.8C206.4,210.16,203.36,217.51,198.76,219.58Z"/><path class="cls-1" d="M222.48,162.23l4.36-7.53c.84,1.12,2.34,2.21,2.39,3.36C229.37,161.5,227.45,163.06,222.48,162.23Z"/><path class="cls-1" d="M263.38,138.19c-5.67-.35-7.35-5.27-10.83-8.2.18-.39.36-.78.53-1.17,1.16.16,2.8-.12,3.39.55C258.94,132.15,261.1,135.22,263.38,138.19Z"/><path class="cls-1" d="M358.29,165.89l-16.28-13,1.18-1.46,16.25,13Z"/><path class="cls-1" d="M29.73,195.23c.35-3.64.7-7.29,1.12-11.6,4.76,4.45,4.73,6.16.58,11.74Z"/><path class="cls-1" d="M200.48,288.53c-4.17-.93-8.2-1.09-8.76-6.2C197.74,281.43,198.93,282.22,200.48,288.53Z"/><path class="cls-1" d="M279.89,247l.86,4.57c-4.94.35-6.95-2.67-9-7.89l8.15,3.43Z"/><path class="cls-1" d="M365.79,294.79c.57,6.16-3.82,6.38-7,8.32C356.84,296.69,361.91,296.85,365.79,294.79Z"/><path class="cls-1" d="M188.89,228.84c.66.74,2,1.77,1.86,2.19a33,33,0,0,1-4.89,8.67c-1.47-4.58.7-7.84,3.26-11Z"/><path class="cls-1" d="M258.87,238.59a70.08,70.08,0,0,1-1.49-8c0-.59,1.89-2,2.64-1.81,1,.22,2.37,1.74,2.27,2.54a48.13,48.13,0,0,1-1.88,7.26Z"/><path class="cls-1" d="M134.15,116.78l4.41-.42c-.43,2.48-.85,5-1.3,7.6-5.53-1.79-3-4.86-2.93-7.3Z"/><path class="cls-1" d="M279.91,247.13l4-1.38c1.44,2.31,3,4.77,4.66,7.51-5.81,1.22-6.47-3.5-8.7-6.21C279.89,247,279.91,247.13,279.91,247.13Z"/><path class="cls-1" d="M134.33,116.66l-3.43,4.12c-.77-2.36-2-4.19-1.66-5.69.27-1.28,2.3-2.19,3.56-3.25l1.35,5Z"/><path class="cls-1" d="M365,368.37c.37.28.86.48,1.07.83.66,1.14,1.23,2.33,2.06,3.94l-3.18.74c.18,1.51.37,3.12.59,5C361.22,377,361.19,374.8,365,368.37Z"/><path class="cls-1" d="M406.31,407.76c-1.3-5.8,3.26-5.83,6.23-7.54C413.4,405.35,413,405.88,406.31,407.76Z"/><path class="cls-1" d="M388.05,293.05l3.45-6.44c.85.77,2.27,1.43,2.45,2.34.67,3.5-1.74,4.42-4.34,5Z"/><path class="cls-1" d="M338.24,377.69c.7,1.69,2.37,3.82,1.85,5-.71,1.55-3.07,2.35-4.73,3.48l-1-.83,2.08-7.44Z"/><path class="cls-1" d="M206.41,222.08l3.84-8.39,1.74.8c-.22,3.31.12,6.87-3.67,8.6Z"/><path class="cls-1" d="M403.36,417.68c1.21-4.2.9-8.34,6.35-8.67C409.94,413.36,408.77,416.4,403.36,417.68Z"/><path class="cls-1" d="M274.42,389.72l2.51-9C281.92,385.76,281.52,387.6,274.42,389.72Z"/><path class="cls-1" d="M286.32,382.5a73.17,73.17,0,0,1-.7-7.37c0-.3,1.9-.63,2.91-.94.29,2.66.58,5.33.86,8Z"/><path class="cls-1" d="M86.63,105.76l-5.24,11.12H79.87c-.32-1.27-1.33-3-.84-3.72a102,102,0,0,1,6.78-7.82Z"/><path class="cls-1" d="M228.29,164.06c.55,4.6-1,7-6,6.68C222.08,166.37,223.07,163.49,228.29,164.06Z"/><path class="cls-1" d="M216.27,148.19l3.59-6.7c1,1.21,2.77,2.34,2.92,3.66C223.18,148.59,220.61,148.42,216.27,148.19Z"/><path class="cls-1" d="M206.64,156.3c.27-6.41,4.38-5.34,8.25-5.45C214.64,156.79,210.12,155.06,206.64,156.3Z"/><path class="cls-1" d="M309.4,146.51l8.43,5.74c-.46.7-.92,1.41-1.39,2.11l-8.5-5.6Z"/><path class="cls-1" d="M343.57,299.32c.61,3.95,2.79,7.79,1.35,11.89l-1.85.16-1.8-11.86Z"/><path class="cls-1" d="M214,284.89c-6.13-1.42-7.54-3.55-6.41-10Z"/><path class="cls-1" d="M350.59,296.39c0,2.89.8,6.2-4.76,6.61,0-1.93-.45-4.08.33-5.59.42-.83,3-.58,4.55-.81Z"/><path class="cls-1" d="M330.72,345.07l.22-.12c-4.75-2.71-3.32-7.19-4-11.06l2.22-.52Q329.93,339.22,330.72,345.07Z"/><path class="cls-1" d="M301.07,375.36c-.94-2.37-1.81-4.53-3.25-8.12,2.21.61,4.26.56,5.1,1.54C304.87,371.08,304.9,373.54,301.07,375.36Z"/><path class="cls-1" d="M114.83,95.3a33.28,33.28,0,0,1-1.82,4,6.52,6.52,0,0,1-2.28,2.27c-.34.18-1.82-.73-1.85-1.2-.08-1.22-.06-2.91.68-3.62,1.19-1.13,3-1.61,4.54-2.37Z"/><path class="cls-1" d="M95.82,97.05l6.4-5.79,1.9,2.08-6.39,6Z"/><path class="cls-1" d="M308.19,238l-1.52-9.18,1.71-.3c2.71,2.62,4.4,5.44,1.76,9.17Z"/><path class="cls-1" d="M408,419.59c-1.53,2.23-3,4.47-4.57,6.7l-1.52-1c-.12-3.37.54-6.19,4.56-6.71Z"/><path class="cls-1" d="M127.2,101.15c-1.93-5.92-.25-9.68,4.6-11.06Z"/><path class="cls-1" d="M151.71,98.69c-2.67-5.24-1.52-8.81,2.91-10.44Z"/><path class="cls-1" d="M225.32,197.07q-1.65,4.59-3.31,9.17l-1.79-.66c.11-3.48.34-6.92,3.54-9.26Z"/><path class="cls-1" d="M90.9,121c-2.4-2.72-6.22-4.28-2.15-8.45C92.13,114.36,93.93,116.47,90.9,121Z"/><path class="cls-1" d="M270.28,384.87c2.48,1.85,2.48,4.26,1,6.76-.37.6-1.63.65-2.48.95-.15-2.55-.31-5.1-.46-7.65Z"/><path class="cls-1" d="M384.17,283.09c3.49,6.13-1.27,6-4,7.94C376.89,285.58,381.93,285.58,384.17,283.09Z"/><path class="cls-1" d="M383.68,278.09c-1.26,2.44-2.53,4.87-4.23,8.14C376.07,279.67,376.28,279.27,383.68,278.09Z"/><path class="cls-1" d="M202,208.41q-2.47,6.71-5,13.4l-1.64-.56,4.74-13.45Z"/><path class="cls-1" d="M252.81,365.91l10-4.34C261.9,365.22,257.68,367.83,252.81,365.91Z"/><path class="cls-1" d="M300.38,361.81c-1.15-3.08-1.9-5-2.43-6.91a8.07,8.07,0,0,1,2.62-1,21.58,21.58,0,0,1,2.78,5.29C303.48,359.57,301.84,360.56,300.38,361.81Z"/><path class="cls-1" d="M264.67,136.3c4.22-3,6.63-2.05,7.1,3.27Z"/><path class="cls-1" d="M404.77,427.64l-3.53,9.28C398.3,432.09,399.35,429.47,404.77,427.64Z"/><path class="cls-1" d="M339.06,322.31c-1-3.31-2.53-6.3,2.45-7.42C342.46,317.88,344.62,321,339.06,322.31Z"/><path class="cls-1" d="M88.93,126.18c-5.17-2.69-5.76-4.15-2.9-7.8,2.26,2.23,5.61,3.9,2.72,7.92Z"/><path class="cls-1" d="M280.09,371l.36-6.67,1.62-.5c1.06,1.45,2.79,2.83,2.95,4.38.12,1.08-1.88,2.4-2.94,3.61Z"/><path class="cls-1" d="M216.09,201.13q-1.83,5.35-3.64,10.71l-1.34-.48,3-10.89Z"/><path class="cls-1" d="M396.85,354.31c4.32,3.26,4.62,4.3,2.39,8.56-3.67-2.14-2.65-5.47-2.26-8.63Z"/><path class="cls-1" d="M221.07,302.44l-5.75-6.91c5.19-.28,5.73.26,7,5.82Z"/><path class="cls-1" d="M335.94,373l-3.3,5.63c-.76-.66-2.28-1.69-2.17-1.91a51.46,51.46,0,0,1,3.2-5.17Z"/><path class="cls-1" d="M212.41,299.85c1.88,2.4,3.77,4.8,6.29,8-6.13.16-6.35-3.8-7.93-6.46Z"/><path class="cls-1" d="M313.08,354.62c-.47-.13-1.19-.11-1.37-.41-1.08-1.89-2-3.84-3-5.77.87-.3,2.39-1,2.5-.83,1.27,2,2.33,4.14,3.44,6.24Z"/><path class="cls-1" d="M166,123.85c-.53,2.29-1.05,4.58-1.71,6.83a12.16,12.16,0,0,1-2.31-.48c.27-2.33.7-4.64,1.1-7Z"/><path class="cls-1" d="M457.16,409.43l5.4-19.36,1,.25-5.4,19.37Z"/><path class="cls-1" d="M372.41,290.52c2.91,5.69-1.86,5.44-4.15,7.23C365.2,292.66,369.08,292.1,372.41,290.52Z"/><path class="cls-1" d="M173,254.62l2.89-14.26,1.34.27q-1.25,7.16-2.48,14.33Z"/><path class="cls-1" d="M123.26,357.4l-9-6.87c.37-.49.74-1,1.12-1.46l9.44,6.29Z"/><path class="cls-1" d="M335.23,325.64c-3.7-3.38-3.42-5,1.52-8.8h0c-.53,3,2.59,6.63-1.69,8.9Z"/><path class="cls-1" d="M244.77,249.35l6.22,4.26-1.44,2.19-6.47-4.08Z"/><path class="cls-1" d="M394.28,298.9l3.89-8.49C401.59,295.7,401,297.06,394.28,298.9Z"/><path class="cls-1" d="M216.43,293.79l-5.31-6,1.68-1.7,5.61,5.69Z"/><path class="cls-1" d="M389.81,368.63c-.14-2.74-.27-5.49-.41-8.23l2.52-.18.69,8.21Z"/><path class="cls-1" d="M414.49,345.36l3.16,7.41-1.95.87c-2.46-1.83-3.76-4.22-2.82-7.65Z"/><path class="cls-1" d="M418.67,336.56,421,331.7l2.18.58.29,5.83-4.89-1.77Z"/><path class="cls-1" d="M221.35,280.07c4.36,1.08,4.33,5.23,6.07,8.13l-1.56,1.11q-2.87-4.12-5.74-8.26Z"/><path class="cls-1" d="M376,277.18l3-5.69,2.89,1.85-3.73,5.21Z"/><path class="cls-1" d="M406.54,223.18l-2.37-11.13,2-.41,2.43,11.11Z"/><path class="cls-1" d="M362.15,438.41c-.37,2.11-.7,4-1.24,7-1.35-1-3.34-1.79-3.49-2.82C356.92,439.29,358.88,437.92,362.15,438.41Z"/><path class="cls-1" d="M310.74,367.57q-.75-3-1.48-6.06l3.15-.64c.22,2.1.44,4.21.65,6.31Z"/><path class="cls-1" d="M337.13,374.13c1-1.86,2-3.71,3-5.57.89.83,2.66,2.14,2.51,2.4a35.08,35.08,0,0,1-3.44,4.6Z"/><path class="cls-1" d="M253.47,263l-6.73-5,1.63-2.15,6.7,5.09Z"/><path class="cls-1" d="M384.75,280.09l2.13-5.77c1,.65,2.81,1.53,2.71,1.91a28.11,28.11,0,0,1-2.25,5Z"/><path class="cls-1" d="M309.63,355.61a24.9,24.9,0,0,1-3.28,1.58c-1.14-1.66-2.07-3.47-3.05-5.24.93-.49,2.49-1.57,2.67-1.38A46,46,0,0,1,309.63,355.61Z"/><path class="cls-1" d="M334.27,358.26h0q1.31,2.08,2.63,4.15l-5.78.9-.65-1.82Z"/><path class="cls-1" d="M205.8,214.72l3.14-11.22,1.09.33-3.17,11.37Z"/><path class="cls-1" d="M105.9,101.77c5.06,1.48,4.34,3.61,2.79,5.62-.47.61-1.79.56-2.72.82C106,106.26,105.93,104.31,105.9,101.77Z"/><path class="cls-1" d="M339.1,296l-3.05,6.61C332.1,298,333.6,296.16,339.1,296Z"/><path class="cls-1" d="M154.06,355.33l1.71,8.44c-5-2.64-4.9-5.22-3.34-8.16Z"/><path class="cls-1" d="M300.69,333.74c5.28,2.69,7.66,7.95,5.17,10.48C304.23,340.92,302.66,337.72,300.69,333.74Z"/><path class="cls-1" d="M422.79,394.48l.28-.16,3.77.17-4.44,5.16-1.74-1Z"/><path class="cls-1" d="M432.81,401.64c.14-2.75-2.29-6.08,3.18-8.62-.48,3.59-.85,6.29-1.22,9Z"/><path class="cls-1" d="M317,357.87c2.12,2.28,4.42,4.52,0,8.23-.52-2.64-1-5.28-1.55-7.91Z"/><path class="cls-1" d="M442.23,388.77c1.42,5.64,1.28,6.34-3,9.56.44-4,.76-6.94,1.08-9.88Z"/><path class="cls-1" d="M325.19,307.21c-.35-3.89-.64-7.16-.93-10.43C328,300.87,328.39,305.34,325.19,307.21Z"/><path class="cls-1" d="M261.6,227.55c-.45-2.19-.91-4.39-1.37-6.58,1,0,2.7-.15,2.79.16a51.7,51.7,0,0,1,1.23,6.09Z"/><path class="cls-1" d="M350.71,296.6l3.05-4.34,1.82.68-.93,6.6-1.54,0-2.52-3.17Z"/><path class="cls-1" d="M343.24,295.5l3.41-7.07C350,294,349.58,294.94,343.24,295.5Z"/><path class="cls-1" d="M238.43,264.86l-6.23-4.77,1.4-2,6.53,4.31C239.56,263.23,239,264.05,238.43,264.86Z"/><path class="cls-1" d="M365.41,292.16c1.58-3.41,2.58-5.55,3.6-7.77C373.26,287.9,372.85,289.28,365.41,292.16Z"/><path class="cls-1" d="M203.49,131.84c2.71,1.55,5.26,3.19,3.19,8.3l-5-7.25Z"/><path class="cls-1" d="M194.4,302.59l-5.33-7.35,1.85-1.41,5.4,7.31Z"/><path class="cls-1" d="M416.54,411,415,405.5l4.89-2.33-1.53,8.21Z"/><path class="cls-1" d="M428,393.11l6.72-6c1.22,5.8-3,5.67-5.18,7.33Z"/><path class="cls-1" d="M207.39,291.49l5.73,6.35c-4.91.7-5.22.42-6.84-5.19Z"/><path class="cls-1" d="M240.87,193l3.9-5.89,2.26,1.53-4,5.82Z"/><path class="cls-1" d="M202.74,280.92c-5.07-.09-5.77-3.53-6.79-6.72l1.29-1Q200,277.07,202.74,280.92Z"/><path class="cls-1" d="M347.79,357.5c-1.37,2.45-2.64,5-4.2,7.28-.21.31-1.83-.33-2.8-.53.25-1,.18-2.37.8-2.83,2-1.45,4.17-2.53,6.27-3.78Z"/><path class="cls-1" d="M118.81,88.84,111.92,95C112,89,112.27,88.75,118.81,88.84Z"/><path class="cls-1" d="M195.93,228.69l4.08-7.88,2,1q-1.83,4-3.65,8.09Z"/><path class="cls-1" d="M396.1,275.48c-.57-1.93-1.31-3.27-1.19-4.52.07-.7,1.57-1.26,2.43-1.89a19.82,19.82,0,0,1,2,4.17C399.41,273.61,397.69,274.41,396.1,275.48Z"/><path d="M62.5,228.68c-1.66-6-2.36-12.6-5.28-18-2.57-4.7-1.7-8.18.14-12.31,1,3.2,1.84,6.43,2.87,9.61s2.8,6.52,3.28,9.91-.15,7.22-.3,10.84Z"/><path d="M165,151.37a14.88,14.88,0,0,1-2.24,1.77q-19.23,10.06-38.49,20a4,4,0,0,1-2.19.53c13.72-8.6,27.39-17.26,43-22.22Z"/><path d="M115.63,242.25c2.24-1.15,2.21-7.35,7.3-3.5,1,.79,4-1,6.32-.94-1.11,3.66-2.87,5.34-6.62,4.41C120.43,241.67,118,242.2,115.63,242.25Z"/><path d="M40.8,130.09,49.1,127c.71,1.82,1.35,3.43,1.86,4.74l-4.24,2.89-2.51-3c.42,2.34.69,3.81.95,5.29l-1.09.53Z"/><path d="M111.5,228.65l7.68-6.8c-2.3,3.76-4.57,8.58-7.9,12.5-1.85,2.18-5.47,2.86-8.65,4.39l9-10.19Z"/><path d="M80.32,148.87,66.11,127.69l1.25-.83L81.56,148Z"/><path d="M104.92,292.78c-.41-3.84-4.75-7.27,1.17-10.29C109.35,286,108.64,289.17,104.92,292.78Z"/><path d="M179.81,220.9l-19.46,19.49c5.66-7.31,11.32-14.64,19.52-19.38Z"/><path d="M74.67,240.6c-6.31-6.37-6.6-7.19-3.86-12.25.36,2.46.59,4.09.83,5.76C76.13,234.19,74.93,237.16,74.67,240.6Z"/><path d="M58.44,118.25l1.46,7.38-.73.31c-.79-1.21-1.59-2.42-3.11-4.72.57,3.29.94,5.36,1.43,8.13C52.48,123.56,52.69,120.78,58.44,118.25Z"/><path d="M111.67,228.55l-5.41,3.26c-.28-1.7-1.25-4-.65-4.52,1.63-1.44,3.92-2.13,6-3.11.27.43.53.86.8,1.28-.3,1.07-.6,2.14-.88,3.2Z"/><path d="M128.82,187.77l18-13,.66.88-18.08,13.17C129.21,188.44,129,188.11,128.82,187.77Z"/><path d="M143,149l-19.18,11-.23-.39,19.53-10.41Z"/><path d="M56.92,173.57l-4,18.19-1.34-.24q1.71-9.14,3.4-18.29Z"/><path d="M64.68,111.71c-.26,3.72-.53,7.43-.86,12.07-4.7-4.4-4-7.94.94-11.93Z"/><path d="M65.46,234.84l-.36-13.38,2.2-.05L67,234.79Z"/><path d="M168.32,163.38l-17.9,10.26,0,0,18-10Z"/><path d="M103.29,225.83c1.34-8.25,1.34-8.25,5.12-10.54C104.61,217.66,110,224.34,103.29,225.83Z"/><path d="M80.28,129.44c-.06,1.41-.12,2.82-.17,4.23l-1.23.87-8-9.74.82-.88a31.9,31.9,0,0,0,4.32,4.3c1.21.84,2.92,1,4.4,1.38Z"/><path d="M52.06,119q.81,5.82,1.6,11.63l-1.39.32q-1.22-5.81-2.42-11.59Z"/><path d="M160.05,210.17l-13.37,11.18-.61-.7,13.11-11.43Z"/><path d="M181,179.83,197.7,172l-.06-.11-16.71,7.78Z"/><path d="M180.93,179.71l-15,9.09-.8-1.48L181,179.83Z"/><path d="M53,201l2.09-10.33,1.87.36q-1.12,5.15-2.26,10.27Z"/><path d="M318.58,109.45l10.53,1,.11-.44-19-5.31c3.21-1.36,16.68,1.75,21.38,5.08,5.9,4.17,11.43,8.87,17.84,13.9L329.05,118l.25-1.57c1.8.37,3.62.64,5.39,1.12a34.4,34.4,0,0,0,6.27,1.54c-6.24-6.06-14.57-6.64-22.67-7.83Z"/><path d="M397.71,170.67l-14-6.79,1.78-3-10.39-4.24c.36-7.1-6.87-5.5-10.42-8.35C369,145.54,385.23,156.52,397.71,170.67Z"/><path d="M358.81,129.4c1.62,2.08,3.25,4.16,4.73,6.07-3.93-1.32-8.35-2.35-12.34-4.26a49.88,49.88,0,0,1-10.83-7.65l18.55,6.05S358.81,129.4,358.81,129.4Z"/><path d="M263.85,96.21c-7.81.73-14.4,1.08-20.89,2s-12.74,2.52-19.31,3.86C226.2,98.2,252.54,94.22,263.85,96.21Z"/><path d="M288.81,180.09c-3.95,1.5-7.06,5.58-12.42,2.82-1.58-.81-4,0-6.16-.95l18.2-4.24C288.56,178.51,288.69,179.3,288.81,180.09Z"/><path d="M239.06,101.25,262.32,99l.13,1.28-23.16,3.11Z"/><path d="M353.39,181.9c-7.6,2.27-8.54-3.4-10.31-7.85l4.86,5.06.65-.46-3.22-6.3,1-.65Z"/><path d="M391.41,171.14c6.14-.18,11.37,3.47,12.78,9.2Z"/><path d="M332.15,180.31q-4.42-6.76-8.86-13.54l1.19-.86q4.69,6.57,9.4,13.15Z"/><path d="M254.1,103.18l14.14-.59c0,.5.06,1,.08,1.49l-14.11,1.11Z"/><path d="M372,146.78,358.46,141C362.44,139.7,366.57,141.43,372,146.78Z"/><path d="M336.38,171.61c2.76,2.83,6.73,5.18,4.67,10.36Q338.71,176.78,336.38,171.61Z"/><path d="M325,178.28l-6.93-8.63,1-.91,7.64,8Z"/><path d="M313.38,167.59l8.78,9-1.48,1.43-8.33-9.45Z"/><path d="M272.68,107.61l-12.28,1.23-.15-2,12.34-.57Z"/><path d="M343.94,198l-3.45-5.67-.59.21c.27,1.5.55,3,.94,5.15l-9.33.05-6-9L342.78,191l2.5,6.46Z"/><path d="M367.67,197.61l-.86,3.09c-1.75-2.06-3.06-3.6-4.36-5.15l-.08,1.28-12.35.44c-1.08-2.12-2.36-4.63-3.63-7.14,5.38,3.69,10.47,5.46,16.43,1.88l5,5.84Z"/><path d="M408.32,388.64c5.87-3.61,12-6.86,17.54-10.93,5.7-4.18,10.81-9.16,16.2-13.77a9.08,9.08,0,0,1,1.71-.87c.5,5.26-24.15,22.72-35.51,25.44Z"/><path d="M362.3,429.76c-.53-1.5-1.4-3-1.5-4.49s.6-3,1.05-5l9.61-2.86c.2.42.4.84.61,1.26L364,421.61l.6,1.52,5.91.66-4.87,2.47,5.34,1.49-8.84,2.09Z"/><path d="M202.27,388.91q-.39-6.17-.77-12.32l1.8-.11c-.21,2.56-.43,5.11-.64,7.67l1,.16c.45-2.31.91-4.62,1.42-7.21,5.75,2.59,1.76,7.78,3.41,10.82-2.17.3-4.25.58-6.31.9Z"/><path d="M315.69,277.12l-9.56,22.5c.59-8.5,2.49-16.53,8-23.21Z"/><path d="M319.57,195.67l-13.13-6.44.33-1.06,9.85.57c.78,1.26,2.32,3.73,3.85,6.21Z"/><path d="M284.94,326.22l3.3-11.83.92.21-.33,4.53.86.34,3.81-9.1C294.87,318.06,289.37,321.81,284.94,326.22Z"/><path d="M191.68,369.82c-3-5.64,1.31-10.15,2.51-15.2C196.75,360.15,193.63,364.87,191.68,369.82Z"/><path d="M230.32,318.29l10.26,21.06-1.35.66q-5.21-10.49-10.42-21Z"/><path d="M337.89,215.05l3.25,4.37.69-.32q-1.29-2.81-2.6-5.6l1.16-.57c1.88,3.66,3.77,7.32,5.72,11.09C341.43,225.16,339.78,223.35,337.89,215.05Z"/><path d="M255.6,319.13q-4.82-10.23-9.64-20.45l1.34-.64q4.89,10.24,9.79,20.47Z"/><path d="M326.31,253.12q2.06-9,4.12-18l2.05.52-4.93,17.69Z"/><path d="M221.73,408.73c-6.72-1.55-9-5.22-9.12-11.82l7,5.41-3.4,1.13C217.94,405.1,219.44,406.54,221.73,408.73Z"/><path d="M260.5,321.64l-9.2-21.77,1.38-.58q4.62,10.88,9.22,21.76Z"/><path d="M265.29,316.48,256.58,303C262.11,305.42,265.89,308.89,265.29,316.48Z"/><path d="M265.09,336.2,274.61,326c.95,3.9.95,3.9-8.42,11.18Z"/><path d="M234.65,312.48l9.68,20.42-1.36.65q-4.83-10.21-9.65-20.44Z"/><path d="M244,301.68q4.92,10,9.85,19.93l-1.43.73-9.76-20Z"/><path d="M248.3,323.59q-4.47-9.48-8.93-18.95l1.29-.62,9.05,18.86Z"/><path d="M277,273.57l10.26,18.36-.18.11q-5-9.3-9.94-18.61Z"/><path d="M186.08,360.56c-3-3.52-3-3.52-.3-10.4C190.1,353.38,187.84,356.7,186.08,360.56Z"/><path d="M300.63,305.23l1.68-17.71,1.93.23q-1.12,8.82-2.26,17.63Z"/><path d="M285.43,270.52l6.9,14.27-1.34.68-7.17-14.18Z"/><path d="M244.67,327.32l-7.57-16,1.23-.62q3.9,8,7.81,16Z"/><path d="M435.86,367.56l-10.49,8.29-1-1.21,10.06-8.83C434.88,366.4,435.37,367,435.86,367.56Z"/><path d="M288.44,289.44q-3.94-8.29-7.88-16.58l1.31-.62,8,16.56Z"/><path d="M367.67,197.61l.11.24c-.08-.61-.15-1.22-.34-2.61l9,5.83-1.4,2.05Z"/><path d="M321,187.67l8,9.36-1.14,1.05q-4.23-4.38-8.45-8.78Z"/><path d="M215.43,387.93c-.11,1.66-.16,2.39-.21,3.12l-1,.12q-.62-3.18-1.24-6.37c4.36-.7,4.36-.7,5,7.38C217,390.54,216.4,389.53,215.43,387.93Z"/><path d="M408.26,388.51l-16.37,7.18-.66-1.77,17.09-5.29Z"/><path d="M378.94,228.43l-6-6.11,1.27-1.26,6.58,5.37Z"/><path d="M390.83,235.35l-6.72-7.07,1.29-1.21,7.17,6.56Z"/></svg>