<svg id="Layer_1" data-name="Layer 1" xmlns="http://www.w3.org/2000/svg" viewBox="0 0 400 400"><defs><style>.cls-1{fill:#fff;}</style></defs><title>Artboard 1</title><path d="M198.65,224.75h10.07c-4.33-.78-8.67-1.54-13-2.36-1.66-.32-3.28-.87-4.95-1.13-1.33-.21-2.56-.9-4,.43-.86.77-2.92.42-4.39.23-3.57-.46-6.17-2.72-8.59-5.14-.43-.43-.41-1.32-.6-2l.49-.39c2.62,1.71,5.2,3.5,7.9,5.06.91.53,2.14.47,3.39.71l1-1.38.17,1.37c2.29-1.19,4.38.08,6.55.49,2.91.55,5.82,1.12,8.71,1.78,1.4.32,2.73,1.13,4.14,1.25a49.63,49.63,0,0,0,6.09-.14l0-.48c-3.42-.56-6.89-1-10.26-1.74-3.06-.71-6-1.83-9-2.81-.39-.13-.88-.09-.71-1,.11-.54-1.44-.51-2.31-.67a32.25,32.25,0,0,1-7.2-2.14c-7.61-3.35-13.8-8.78-20.24-13.89-5.61-4.46-11.73-8.29-17.64-12.37-1.65-1.15-3.36-2.21-5.05-3.32l6.36,3.16-.61-4.48-.17,1.84c-3.11-2.94-6.34-5.88-9.4-9-.72-.73-.86-2-1.26-3.1-.14-.38-.24-.76-.53-1.66-1,1.28-2.47,2.49-2.25,3.1a23.33,23.33,0,0,0,3.21,5.79,21.94,21.94,0,0,0,3.31,3.05,13,13,0,0,1-5.69-4.72c-1.25-1.63-2.5-3.54-4.22-4.44s-2.64-2.54-3.81-3.91a6.05,6.05,0,0,1-1.08-2.15c-.14-.47-1.09-1.52.54-1.4l-.15-1.4c1.73,1.81,2.42,4.34,4.79,5.83,2.61,1.65,4.61,1.47,6.14-1.76l-3.53,2.25L125,165l1.24-1.12a20.22,20.22,0,0,0,1.56,2.78c.58.74,1.36,1.71,2.15,1.81,1.08.15,2.25-.43,3.61-.76l-2.8,2.93c2.59-.76,4.79-2.4,7.2-2.81,3.54-.6,5.73-3,8.31-4.88.53-.39.72-1.23,1.07-1.87l-.34-.19-1.67,1.28-.18-.19,2.9-3.56-.32-.21-5.11,4.44.09-2-1,.51.44-1.42-2.77,3.95-.44-.26.12-2.14-.33,0-.55,2.58-1.53.12.4-3.26-.34-.11-1.35,3.82-.35-.08.69-3.71-.24-.09-1.37,2.7.2-4-1.15,2-.4-.18,1.84-4-.31-.28c-.68.81-1.35,1.62-2.32,2.8l1-3.38-.22-.13-1.26,1.56.43-1.76-1.25,1.12-.25-.22,1.46-2H130c0,.5.17,1.07,0,1.41-.68,1.13-1.5,2.18-2.48,3.56.54-1.83,1-3.35,1.58-5.26l-4,4.69-.36-.23,2.56-3.66c-.84-.46-1.67-1-2.57-1.38-2.21-1-3.74.11-3.19,2.22l1.52-.78c-.09.9-.41,1.71-.17,2.31.63,1.62.72,1.58.2,2.76-3.23-5.58-3.27-5.75-1.45-7.78l-2.43-.58c.27,1.43.43,2.45.66,3.44.13.61.4,1.18.56,1.78.46,1.68.46,3.75,1.48,4.95a7.86,7.86,0,0,1,1.59,3.55l-1.75-2.63c1,5.62-1.25,9.28-5.83,11.63l-1.86-1.7.76-1.58-.26-.17L113.2,173l-1.88.09,1.3-2.16-.18-.22-1.24.95v-1.25l-1.5,1.41-.25-.16,2.29-3.38-1.58,1,.67-1.54-.25-.18-1.72,2.64-.59-4-1.57,2.62-.32-.16c.42-.82.85-1.64,1.24-2.47.7-1.55,1.45-3.08,2-4.67.9-2.52,2-2.79,3.89-.8,2.06,2.24,2.06,2.24,4.35.46a12.74,12.74,0,0,0,.22,2.57,10,10,0,0,1-.71,7.35,28.08,28.08,0,0,1-1.49,2.52c2.5-1.34,4.31-4.88,3.86-7.18-.27-1.36-.55-2.73-1-4.06-.13-.44-.65-.76-1-1.14,1.36-2.49.48-5,.14-7.53a24.53,24.53,0,0,1,0-2.89,50.67,50.67,0,0,1,5,1.42c5.42,2.16,11.15,2.13,16.82,2.67a16.78,16.78,0,0,1,6.41,1.5c1.36.69,2.8.7,3.24,2.48,0,.1.48.16.71.11,1.8-.35,2.26.89,2.67,2.21l-.15.13-.91-1.56-.47.46c1.68,8.86,3.36,17.71,5,26.28-.82-2.1-1.78-4.55-2.73-7l-.51.21c.31,5.26,3.61,9.31,6.09,13.72l-.26-1.15.16-.08a53.13,53.13,0,0,0,3.84,6.44,41.84,41.84,0,0,0,5.55,5.42,39.86,39.86,0,0,0,6.06,4.68c1.95,1.13,4.25,1.64,6.59,2.49l-1.59.41,5.44,1-1-1.24,0,0c4.83.83,9.65,1.72,14.49,2.44a34,34,0,0,0,4.15-.1c2.17.07,4.38-.2,6.33,1.32a3.44,3.44,0,0,0,2.76.5c8.33-3,17.11-3.81,25.75-5.35A54.47,54.47,0,0,0,252,205.87c5.21-2.54,10.66-4.59,15.85-7.17a122.51,122.51,0,0,1,13.38-5.58c5.53-2,10.59-5.23,15.85-8,2.86-1.48,5.73-2.95,8.54-4.52,1.25-.7,2.31-1.75,3.56-2.44,2.05-1.13,3-.58,3.77,1.59.7,1.93,1.75,3.73,2.51,5.64a3.21,3.21,0,0,1,.07,2.2c-.9,2.15-2,4.23-3,6.31-.15.3-.71.4-.89.7-.58,1-1.84,1.36-2,3-.08.89-2.14,1.63-3.34,2.41a17.3,17.3,0,0,1-1.61.81c-.57-.08-1.38-.45-1.67-.2a35.93,35.93,0,0,0-2.9,3L296.36,206l-.41.2c-1.92-.12-9.35,3.81-10,5.32l.61.26c-4.13,2.58-8.27,5.13-12.37,7.76-2,1.25-3.83,2.65-5.75,4a6.1,6.1,0,0,1-1.2.51l.24-1.4c.85-.68,1.66-1.42,2.54-2,4.17-3,8.34-5.91,12.58-8.78.82-.55,1.43-2.28,2.91-.92.3-.46.59-.92.89-1.37.2-.3.34-.72.63-.88,2.18-1.25,4.33-2.59,6.63-3.62a25.59,25.59,0,0,0,6.2-4.52c4.57-4,8.95-8.17,13.31-12.38,2.28-2.19,2-3.85-.73-5.58a1.35,1.35,0,0,0-1.19-.13c-1.52,1.14-2.9,2.48-4.47,3.53a7.65,7.65,0,0,1-2.49.49c-.4.09-1,.19-1.14.47-1.79,3.33-5.31,4.44-8.22,6.24-5.09,3.15-10.37,6-15.57,9a6,6,0,0,0-.79.52c-1,.86-1.75,2.46-2.93,1-.61.71-1,1.41-1.51,1.73-2.9,1.65-5.86,3.21-8.85,4.83-.81-1.38-1.69-.36-2.54.16a97.33,97.33,0,0,0-9.37,6.16l3.17-.94.16.28c-2.12,1.13-4.23,2.29-6.37,3.39-2.52,1.29-5.08,2.52-7.63,3.78-2.32,1.14-4.68,2.19-6.95,3.43-3.54,1.93-6.93,4.14-10.53,5.94-3.15,1.57-6.5,2.75-9.76,4.1-3.79,1.57-7.82,2.74-11.28,4.84a24.78,24.78,0,0,1-8.85,2.9,18.39,18.39,0,0,0-2.47.83c0-1.59.2-1.73,4.63-3.56l-1-1.31c1.11-.45,2.11-.92,3.14-1.28a108.74,108.74,0,0,0,24.43-12,57.9,57.9,0,0,0,5.51-4.91,17.46,17.46,0,0,1,1.74-1.1c1,2.68-2,3.11-2.41,5.32l12.62-9.24-.37-.64c-1.36.53-2.71,1.07-4.08,1.58-2.46.91-5,1.7-7.38,2.73-1.9.81-3.63,2-5.5,2.88-2.65,1.26-5.37,2.37-8,3.59-1.23.56-2.37,1.33-3.63,1.78a30,30,0,0,1-4,.82c.79-1.53,1.42-2.78,2.25-4.39L205,229.12l1.78,1.44c-1.58,5.12-6.38,5.69-10.24,7.46-4.18,1.92-8.5,1.73-12.92.18l1.61-.51c-.95-1.13-2.81-.38-3.28-2.15a10.22,10.22,0,0,1,.59-6.08c.93-2.78,2.88-3.18,5.41-3.22,4.28-.06,8.55-.39,12.51-.59l-1.79-.91Zm-54.22-56.34q-1.11,4.74-2.23,9.48l.58.12c.72-2.91,1.46-5.82,2.13-8.74.05-.22-.35-.54-.53-.81l1.11-2.05c-2.94-.18-3.39.13-4.3,2.83a9.35,9.35,0,0,1-.68,1.29l.42-2.6-.27-.07-1.11,2.64v-2.33l-.5-.19-1.71,3.58-.2-.07.47-2.18c-3.12,4.64-2.82,6.93.58,9.09l2.39-8c-.1.85-.21,1.7-.38,3.05l.93-2.07.24.11c-.14.91-.27,1.83-.46,3.16l1.11-1.16-1,6.71c0,.05-.08-.19-.19-.42l-.28.08.51,1.92.93-.12v-8.17l1.49-6.59C144,167.76,144.23,168.08,144.43,168.41Zm6-8.56c-1.16,1.12-2.2,2.07-3.17,3.09-.14.16,0,.69.15,1s.6.68.71,1.08c1,3.8,2,7.63,3.07,11.44.32,1.17.71,2.32,1.07,3.48l.51-.16c-.06-.68-.07-1.38-.19-2.05-.65-3.44-1.3-6.87-2-10.3a5.76,5.76,0,0,0-.84-2.46,2.36,2.36,0,0,1-.3-2.92C149.79,161.37,150.07,160.68,150.44,159.85Zm49.82,67.71c-4.16-1.54-7.7.09-11.33.81l1,.25-.76,1ZM214,224.72l-1.15.68a21.1,21.1,0,0,0,3.35-.58l3.63-.8c.46-.1.91-.22,1.37-.33l-.13-.61-9.49.66,0,.48Zm-24.87,9.72c3.77.23,6.48-2,9.31-4L190.64,233l.11.32,2.63-.62.09.32Zm30.68-12.39.27.51,4.73-1-.1-.4-2.72.33-.13-.46,2.58-1.79-.37-.48Zm-21.73-2.68c2.68,1.67,4,1.72,5.28.41Zm99.82-16.64.34.47,6.41-4.63-.24-.33ZM299,187.08l.37.39c.66-.78,1.28-1.59,2-2.31s1.5-1.34,2.25-2C301.18,183.43,300.26,185.44,299,187.08ZM212.18,222l.33.54,5.13-3.24-.27-.44Zm-15.44,8.27-.05-.63H192C193.56,229.73,195.1,231.58,196.74,230.28Zm-57-54.82a5.36,5.36,0,0,0-.21,4.66l.52,0C140,178.54,139.88,177,139.77,175.46Zm145.79,17.1c-2.66-.24-2.84,1.77-4,3.53Zm-82,28c1.24,1,2.42,1.4,3.62-.4Z"/><path d="M120.4,199.77c-.27,1.71-.53,3.42-.8,5.12l-.56-.06.44-3.64-.38-.12-.92,2.73-.31,0v-9.88c-1.13,5-2.21,9.81-3.3,14.63l-.32,0,1.8-10.88-.33-.08-.65,1.78-.87-1.55v6.55h-.66v-8.57h-.19c-.45,3-.9,6-1.33,8.88-.38.65-1,1.21-1,1.81-.21,2.34-.25,4.7-.35,7.06l-.64,0,1.74-16.75-.52-.08-.83,5.73-.27,0v-6.23l-.23,0c-.39,1.9-.81,3.79-1.17,5.7a1.93,1.93,0,0,0,0,1.29c1.57,2.3-.45,4.44.21,6.68h-.55v-5.9l-.35,0-.38,1.32-.51,0-.58-5.51-.21-.06c-.65,2.69-1.29,5.38-1.94,8.07l-.49-.1q.66-3.25,1.31-6.5L105,201l-1,2.43v-2.08l-.32,0-1,3.25-.34,0v-3.18c-1.78,2.34-.62,5.67-3,8.17l-.76-5.88c-1.12,1.6-1.38,5.83-.37,8.67l.19-2.52.78,2c.26-.77.38-1.14.51-1.51.54,1.56.54,1.56,2,.87l-1.52-.26c1-.92,1.78-1.61,2.55-2.26,0,0,.38.21.43.37a1.33,1.33,0,0,1,0,.68,7.22,7.22,0,0,0-.23,1.52L101.4,222l-.42,0c0-.67.09-1.34.1-2s0-1.58,0-2.37l-.48-.12-.86,3.66c-1.67-1.5-3.2-2.88-4.83-4.33.18,1.87.31,3.66.55,5.44.06.45.61.81.73,1.27a25.81,25.81,0,0,1,.43,2.61c2.3.59,2.87,3.25,5,4.85-3,.14-6.47-1.87-7.45-3.89-.1-.21-.54-.26-.82-.39.14-1.14.26-2.27.39-3.4l-.73-.06-.11,2.21-.83-.23-.28.49,1.61.94a20.61,20.61,0,0,1-3.14-.91c-.56-.26-.93-1-1.56-1.67l-.49,1.75c-.11,0-.29,0-.31-.1-.9-2.34-1.31-4.66-.15-7.09.52-1.1-.12-1.91-1.21-2.37a5.13,5.13,0,0,1-1.45-.87c3,.08,3.6.63,3.79,3.3l.06-.1a3.45,3.45,0,0,0-.7,4.59v-2.61c-.89,2.77,1.77,3.42,3,5.16l1.23-3.05-1.08.34-.59-5.57,0,.1,2.69-3.72.5.26v-1.87l.38,0,.48,2.29.4.09.36-2.53c.29,1.36.57,2.7.86,4,.13.57.09,1.29.43,1.67a17.08,17.08,0,0,0,2.33,1.85l.29-3.88c-.38.35-.55.51-.74.66l-1.3,1A7.86,7.86,0,0,1,97.1,216c-.12-1-.18-2.07-.21-3.1s-.06-2.08,0-3.12c.1-1.72.28-3.44.42-5.17l-.49,0-1.08,7.58-.41-5-1.56.43.64,1.4-1.83,1.36c.52-4.22,1-8.12,1.46-12-2,4.92-2.12,10.13-2.63,15.34l-.59-2.8L88.4,213l-.48-2-.35,0v3.13l-.41,0-.27-2-2.2,1.43L84,211h-.28l.16,3.13-.17.05c-.29-.76-.57-1.52-.85-2.28v-5.43l-.56,0c.1,1.8-.6,3.62.6,5.38a2.06,2.06,0,0,0,0,.56c.37,1.16.76,2.31,1.14,3.47l-3.3-1.25-.15,1.44c-2.33-1.61-4.34-3.12-6.47-4.45-1.29-.81-1.1-1.7-.48-2.69,2.32-3.69,4.59-7.41,7-11a44,44,0,0,1,3.87-4.34l.76.55-3.52,5.21c2.94-2.48,5.51-4.69,8.11-6.86,2.27-1.89,4.5-3.87,6.91-5.57a22.27,22.27,0,0,1,4.56-2.1c2.15-.88,4.3-1.74,6.49-2.51,1.9-.67,4.31-.69,5.67-1.91,1.74-1.55,3.79-1.07,5.51-2a4.67,4.67,0,0,0,1.84-5.22A1.73,1.73,0,0,1,121,172c.41,2.92,3.21,4.22,4.32,6.8.76,1.77,2.94,2.93,4.44,4.4,3.91,3.82,8.87,5.93,13.5,8.61,3.31,1.92,6.35,4.29,9.54,6.42a51.33,51.33,0,0,1,4.48,2.83c4.09,3.41,8.1,6.93,12.08,10.48.42.39.43,1.24.71,2.15l-10-5.55c-1,1-1,1.72.08,2.27,1.34.69,2.72,1.33,4,2.08a34.27,34.27,0,0,1,3.8,2.46c1.6,1.24,2.84,2.64,1.37,4.84a2.33,2.33,0,0,0,.1,1.95c.45-1.1.9-2.2,1.36-3.3l.44.12q-.65,2.49-1.31,5l0,0c-.45.09-1.22.07-1.29.29-1.19,3.47-2.28,7-3.4,10.45l-.68-.2c.26-.82.5-1.65.78-2.46a8.78,8.78,0,0,0,.93-2.67c-.09-3.29,2-6,2.05-9.27-1.9,4.09-3.65,8.22-3.92,12.88l-.58-.17.27-1.83-.4-.16-2.62,5.8v-5.2c.74-.43,1.42-.61,1.69-1.05.15-.25-.37-.91-.58-1.39s-.51-.81-.45-1.16c.34-1.87.79-3.73,1.2-5.6l-.67-.17q-1.44,6.38-2.87,12.75l-.43-.1c.35-1.44.77-2.87,1-4.33.07-.41-.36-.91-.56-1.37l0,0,2.25-7.35-.42-.15-1,2.1-.23-.07c.52-1.89,1.07-3.77,1.56-5.67a18,18,0,0,0,.83-4.23c0-.68-1-1.37-1.51-2.06l-.67.49.8,1.54.48-.22q-1.37,6.85-2.72,13.69h-.23l.15-3.31c-1.68,6.08-4,12-3.3,18.51-.5-2-1-4.07-1.49-6.11a1.36,1.36,0,0,1,.26-1.1l.37,1,4.72-18-.45-.16c-1.63,4.86-3.25,9.72-4.91,14.71l.23-1.87h0l.24-.89c.92-3.41,2.37-6.78,2.58-10.23.17-2.79.7-5.46,1.08-8.19a4.1,4.1,0,0,0-.31-1.36l-.62,0c-.34,2.41-.69,4.82-1.09,7.57l-1-1.24c1.54-4.52,1.58-5.07.21-6.3-.22.87-.43,1.62-.59,2.38s0,1.67-.37,2c-1.9,1.42-1.05,3.49-1.72,5.17l.5.14,1-4,1,.58c-.84,1.64-1.75,3.26-2.5,4.95a7.91,7.91,0,0,0-.53,2.58,60.24,60.24,0,0,1-.79,6.9v-5.84l-1.81,1.57V214.11L149,214q-1.62,13.71-3.23,27.42h-.15V223.21l-.54-.06-1,7.44-.16,0V227l-.29-.07c-.41,1.64-.93,3.27-1.21,4.93s-.36,3.61-.8,5.43v-6.5l-.2,0-.62,6.37c-1.46-4.38.66-8.26.77-12.24l-.77-.1q-1.38,8.78-2.78,17.56c-.76-4.62,1.53-9.09.7-13.76q-.69,5.18-1.37,10.37l-.26.05-.43-2.78-.42,0,.54,9.73-.3,0-.95-9.49-.59,0c-.07,1.59-.2,3.17-.19,4.75,0,1.05-.23,1.6-1.58,1.07.15-2.95.3-6,.45-9-1.5.72-1.89,1.9-1.49,3.68.47,2.1.77,4.25-1.07,6.36,0-2.72-.05-5.17,0-7.61.07-2.22,2-3.2,3.26-4.64.45-.52,1-1,1.44-1.49l-.39-.37-1.58,1.42-.32-.24,6.27-8.94-.49-.37L138,222.75l.53-1.88-.42-.18-2,4-.24-.07a22,22,0,0,1,.87-3.56c.21-.5,1.08-.7,1.63-1.06s1.36-.94,2-1.41l-.35-.52-1.21,1.11,2.15-6-.56-.24c-1,2.2-1.93,4.41-2.9,6.61l-.43-.2,3-7.52-.46-.21-4.11,8.53-.43-.19,4.89-11.78-.37-.16q-1.84,3.67-3.71,7.35l-.33-.14,2.9-6.58-.4-.18-2.6,5.53-.42-.19c.66-1.46,1.35-2.9,2-4.38.32-.8,1-1.59-.08-2.51-.26-.22.3-1.44.24-2.3l-1.6,3.72.93-.52c-.25,2.79-3.93,4-2.9,7.29l-.75,0a4.36,4.36,0,0,1-.05-1.68c.71-1.82,1.57-3.59,2.32-5.39a15.84,15.84,0,0,0,.54-2.05l-.43-.15L131.8,214l-.34-.14c.27-.93.53-1.87.79-2.8.71-1.29,1.66-2.53,1.17-4-.65.83-1.27,1.59-1.83,2.4-.07.09.26.45.37.7s.22.64.33,1l-1,1c-1.27-1-.57-2.19-.09-3.38.8-2,1.56-3.92,2.33-5.88l-.6-.24-3.06,7.44c-.74-1.38-.63-1.66.37-2.81.29-.33.08-1.07.15-1.62a12.47,12.47,0,0,0,.12-3.36l-1,1.31c.46-1.69.81-3,1.15-4.21-1.72,3.46-5.06,6.14-4.46,10.59l-1-.34q1.26-4.87,2.53-9.75l-.19,0q-1.47,3.87-2.93,7.73l-.3-.19v-6.69l-.25-.05-1.45,3.88L122.4,202l-.28-.08L121,205l-.64-.19a34.41,34.41,0,0,0,.75-3.46c.06-.53,1.06-1.82-.75-1.53l1.71-8.56a8,8,0,0,0-1.25,3.15C120.58,196.18,120.53,198,120.4,199.77ZM98,188.29q-1.2,2-2.42,4.08l-.35-.14.9-2.5-.39-.24L91,195.05,90.58,194l-1.19,1.55-.17-1.14-.35-.06-2.57,6.12c2,1,3.07-.2,4-1a19.42,19.42,0,0,0,2.56-3.38c1.08-.2,2.16-.32,3.19-.62a18.25,18.25,0,0,0,2.19-1c1.42-.65,2.17-2.57,1.43-3.55C99.07,190.14,98.63,189.32,98,188.29Zm12.63,4.9.3.09,1.33-3.44-6.72,1.88c.11-.52.45-.6.6-.82.72-1,4.75.26,2.22-3.1,0,0,0-.13,0-.18,1.07-2.12-.39-2.43-2-2.71l-1,1.79-.76.64L103.21,186a8.11,8.11,0,0,1-1.13,2.51c-1.37,2.24-1.21,2.86,1.33,4l-1.2.76,3.67,1.13c.42-2.8,3.65-1.58,4.68-3.54l.37.34Zm2.81-10.47-.76-.39c-.57,1.25-1.15,2.49-1.69,3.74-1,2.42-.55,3.18,2,3,1.14-.08,1.5.32,1.28,1.43a15.31,15.31,0,0,0-.17,2h.5l.68-4.61-1.73.37c.93-.82,2-1.36,2.87-2.05a4.72,4.72,0,0,0,1.67-1.81,18.93,18.93,0,0,0,.63-3.63l-3.19,5.29-.55-.29L117,181.3l-.35-.18q-2.31,3-4.64,6l-.32-.19Zm35.93,24.66L136.87,227c2.22-.07,3.34-1.43,3.81-3.46a.21.21,0,0,1,.12-.14c2.25-.52.91-3.78,3.24-4.23-.39-2.51,1.77-3.89,2.62-5.84S148.33,209.62,149.35,207.38Zm-64.53-8.6-8.67,9.85.58.66a8.1,8.1,0,0,0,1.81-1c1.5-1.43,2.9-2.95,4.35-4.43.06-.06.12-.15.2-.17,1.39-.29,1.56-.27,1.69-1.14A27.34,27.34,0,0,0,84.82,198.78Zm65.56,5.1V197.5c-.29,1.83-.18,3.66-.32,5.47a3.91,3.91,0,0,0,2.21,3.88l6.42,2.36c.74-1.1.43-1.84-1.55-2.67C155,205.61,152.74,204.8,150.38,203.88Zm-.15,21.3c.17-.63.16-1,.34-1.17,2.42-2.38.13-5.48,1.25-8.09a7.46,7.46,0,0,0,.15-2.77c0-.56-.09-1.12-.16-2C150.53,212.64,149.74,220.47,150.23,225.18Zm-5.84-16.45.32.08c.62-2,1.28-3.9,1.82-5.88a1.39,1.39,0,0,0-.49-1.24,1.38,1.38,0,0,0-1.28.35c-.67,1.75-1.2,3.55-1.78,5.34l.61.17,1.43-4.61.52.18Zm-4.45-12.35c.16,1.22.23,2,.38,2.84.09.47.52,1,.42,1.36-.54,2-1.2,4-1.82,6l.53.17c.73-2.34,1.45-4.69,2.2-7C142.07,198.46,141.87,197.39,139.94,196.38Zm-43.75.52-.67-.19A28.46,28.46,0,0,0,94,206.14l.49.1Zm24-10.52c-2.29.37-4.11,5.48-3.22,8.77.66-2.72,1.29-5.31,1.93-7.9l.41.07-.12,1.51.24,0ZM146.83,200c-.1-.55-.06-1.56-.35-1.66-2-.71-2.46-2.19-2.46-4.05a6.34,6.34,0,0,0-.32-1.32C143.57,195.76,142.33,199.1,146.83,200Zm16.5,28.7.56.24,2.91-9.53-.59-.19ZM123.25,194l.38.06c.48-2,1-4,1.41-6.08a3.69,3.69,0,0,0-.21-1.28c-.32.35-.86.67-.92,1.06C123.62,189.78,123.46,191.87,123.25,194Zm-9.42-4.73c-1.61,1.53-2.11,4.58-1.36,7.41C113,194,113.35,191.85,113.83,189.22ZM99.34,212c-2.15.9-1.69,2.47-1.44,4.13C99.51,215,100.3,213.85,99.34,212Zm35.6,20.42-.55-.11-.63,8.73.55.05Zm-4.11-38.93.33.07.87-3.23-2.25-1.43V192l.28,0,.46-1.16.31,0Zm-16,2,.23,0c.67-2.62,1.33-5.25,2-7.88-.33.3-1.18.7-1.29,1.24C115.3,191,115.08,193.21,114.79,195.44Zm39.35,6.45-.46-.15-.27,1.17-.3,0v-3.79c-1.17,2.63-.6,4.93,1.22,5.31Zm-10.76-2.8c-2.2,1.61.83,2,.25,3.26l2-1.61Zm14.58,18,.73.08,1-5.92-.75-.12C158.63,213.1,158.29,215.09,158,217.07Zm-77.87-8.95c-1,2.34-.63,4.1,1.06,5.42Zm61.12-16.5-.42,4.48C142.88,193.19,142.9,192.88,141.21,191.62ZM86.86,203.57l-.48,0a8.27,8.27,0,0,0-.35,6.28Zm35.6-2.34.76.1,1.57-6.35-.53-.14Zm4.34-8.17.51,0c.21-1,.46-2,.61-3s1-2-.21-3.19Zm-29.39,6-.52-.13-1.15,4.82.68.15Zm37.73-1.33c2-3.58,2-3.58.85-4.26Z"/><path d="M137.61,258.78l.78-1.29-1.57-.12.07-.68c3.34.28,6.67.64,10,.83,5.17.29,10.34.51,15.51.69,5.37.17,10.74.4,16.11.33a51.85,51.85,0,0,0,8.95-1c11-2.12,21.22-6.35,31.38-10.9,6-2.68,12.26-4.7,18.39-7,2.16-.83,4.28-1.76,6.42-2.65l.19.43c-2.58,1.11-5.14,2.25-7.75,3.3-4.85,2-9.73,3.85-14.58,5.82-1,.43-1.95,1.17-3,1.64a11.79,11.79,0,0,1-2.26.46s-.06.49-.29.59c-5.29,2.48-10.5,5.17-15.93,7.27-2.95,1.14-6.3,1.24-9.45,1.9-7.71,1.62-15.47,2.9-23.36,2.78q-11.56-.18-23.11-.79a46.81,46.81,0,0,1-9.67-1.4,104.75,104.75,0,0,1-12.68-4.35,73.76,73.76,0,0,1-11-5.49,83.86,83.86,0,0,1-15.71-12.32c-2-2.1-3.88-4.38-5.82-6.57l.47-.53c.3.14.71.19.88.42,3.18,4.3,8,6.24,12.44,8.73,6.54,3.68,13,7.47,19.7,10.9,3.79,2,7.9,3.29,11.86,4.89.75.3,1.51.57,2.27.85l-.18.52-13.55-4.4L123,252c3.58,1.22,6.55,4.13,10.75,3.76h-5.92a21.85,21.85,0,0,0,3.87,1.46,31.47,31.47,0,0,0,4.64.05l-2.51.82,3.75.65H148l-.05-1Zm-29.35-13.3c1.83,3,13.34,9.29,16,8.21-1.26-.5-2.34-1-3.46-1.36-5.53-1.73-10.36-4.37-13.4-9.6a7.27,7.27,0,0,0-2.32-1.94c-.61-.4-1.5-.45-2-.93A10.2,10.2,0,0,0,97.84,237a23.51,23.51,0,0,0,3.22,2.7c.37.26,1.27.23,1.3.44.39,2.39,2.66,3.26,3.92,4.93C106.54,245.42,107.37,245.32,108.26,245.48Zm2.92-.34-.28.5,7.12,4.1.35-.62ZM150,259.74l0,.48,8.89-.4,0-.59Z"/><path d="M170.78,243.61c-1.15,1.88-2.72,3.64-3.33,5.69-.52,1.76-1.78,2.59-2.74,3.83a5,5,0,0,1-5.05,2.2l-.1-1.59-1.35.62-1.5-4-.63.17c-.66,1.27.1,2.25,1.21,3.32l-1.89.12,1.53,1.11-.18.53c-1.32-.39-2.62-.8-3.95-1.15-.24-.06-.55.25-.83.25-1.09,0-2.17-.12-3.26-.19a12.32,12.32,0,0,0,.44-1.66,9,9,0,0,0,0-1.64c0-1.14-.09-2.27-.15-3.41l.56,0c.06.81.09,1.63.19,2.43s.29,1.57.48,2.54l1.82.68-.93-4.3.38-.11c.48,1.47,1,2.94,1.45,4.41l.45-.12-.75-4.92.5-.08.39,2.69.34.13c.35-1.41.69-2.81,1-4.22h.43V250l.73.06c.06-.93.12-1.86.19-2.79l.28-.09a25.23,25.23,0,0,0,.91,3.57c.37.91.4,2.46,2,2.12l-2.05-6.58.42-.13c.71,2,1.41,4,2.12,6h.7c.13-.84.32-1.67.39-2.51.16-1.78.48-3.39,2.23-4.42.57-.34.83-1.18,1.21-1.76.47.77,1.58.37,2.48-1.17l-1,.56-.53-1.22h-.92l2.19-4.6c-.33,1.16-.66,2.32-1,3.48l.33.12c.44-.89.87-1.77,1.3-2.66l.37.15c-.28,1-.57,2.08-.85,3.11l.46.13c.83-2,1.65-4,2.56-6.14l-1.47.41L170,232l-.34-.15-3,5.25,2.54-6.45-1.33-.27.06.06c.65-2.26,1.31-4.52,2-6.77l0,0c0,.24.06.48.18,1.33a27.93,27.93,0,0,0,1.38-2.78c.45-1.32,1.5-1.68,2.38-.6,1,1.26,2.17,2.43,1.46,4.49-.41,1.17.21,2.7.37,4.06l.57,0,.44-2.68a6.67,6.67,0,0,1,.24,4.63,92.44,92.44,0,0,1-3.66,9.49c-.4.89-1.64,1.39-2.5,2.07l-.78-.72.43-2.68-.39-.05-1.13,4.29Z"/><path d="M109,231.33v.58l8.78,2-3.32-3.82.18-.16c1.25,1.22,2.54,2.39,3.7,3.69.23.27-.08,1-.15,1.64l1.32-.15v1.36l.29.09L121,233.7l.37.1-.69,4.63.33.1,1.6-4.32.32.08-.25,2.41.34.12,1.22-2.88v2.64l1.38-1.15c.35,2.19-3.49,1.48-2.48,4.33l3.93-3.23c-.24.94-.37,1.42-.5,1.91.54.71,3-1.18,3-2.34,0-.35-.07-.71-.1-1.06l.66,0c.05,1.62.13,3.24.15,4.86a26,26,0,0,1-.29,5l-.59-6.38-.41,0-.56,4.27-.38,0-.57-1.92v4l.37,0,.36-1.61c1.1,2.28-.17,5.81,3.89,5.9a20.19,20.19,0,0,1-8.64-4.13c-2.15-1.58-4-3.87-6.41-4.74-3.16-1.14-5-3.44-7.13-5.63-.84-.88-1.76-1.88-1.49-3.23Z"/><path d="M114.54,176.65c-2,1-3.93,2.45-6.06,2.88s-3.51,1.78-5.31,2.52c-1.48.59-2.93,1.24-4.39,1.87-.22.09-.54.14-.63.3-.82,1.51-2.5,1.73-3.76,2.58L88.18,191c3.21-6,8.12-10.35,13-15.16l-1-.41,2.84-1.87-.66,1.18,2.07,1-6,4.92.25.46,15.57-5Z"/><path class="cls-1" d="M137.86,183.81a21.94,21.94,0,0,1-3.31-3.05,23.33,23.33,0,0,1-3.21-5.79c-.22-.61,1.28-1.82,2.25-3.1.29.9.39,1.28.53,1.66.4,1.05.54,2.37,1.26,3.1,3.06,3.11,6.29,6.05,9.4,9l.17-1.84.61,4.48-6.36-3.16Z"/><path d="M144.72,252.82c.56,1.79-1.24.18-1.38,1l-8.05-2.54v-.34l1.17-.16-2.14-2.5.43-.36,1,1.45.27-.05-.41-2.34,1.48,2.1-.23-1.68c.18,0,.33-.07.37,0,1.14,1.25,2.46,2.32,2.89,4.15.12.53,1.4.78,2.32.81l-2.34-1.86.28-.4,1.76,1.23-.63-4.27.29,0c.51,1.62.94,3.26,1.58,4.82.19.49.95.75,1.44,1.11Z"/><path d="M159.25,173.67c5.44,7.23,8.18,15.64,10.31,24.3C166.77,189.59,164.2,181.11,159.25,173.67Z"/><path class="cls-1" d="M286.52,211.78l-.61-.26c.69-1.51,8.12-5.44,10-5.32-2.11,1.29-4.21,2.59-6.33,3.86C288.61,210.67,287.55,211.21,286.52,211.78Z"/><path d="M267.44,222.6l-.24,1.4-10.76,6.18-.22-.37Z"/><path d="M88.9,218.7l1.47-3.22.51,2.08,0-.1c-.12,1.55-.19,3.1-.37,4.63a3.17,3.17,0,0,1-.61,1.09c-.32-1.67-.61-3.12-.9-4.58Z"/><path d="M154.13,230.44a22.6,22.6,0,0,0-1.23,4.46c-.2,2.81-.05,5.64-.09,8.47v-6.25a1.88,1.88,0,0,0-.31,0c-.1.17-.18.35-.69.39.44-2.14.85-4.29,1.36-6.42.06-.26.62-.41,1-.61Z"/><path d="M149.42,240.3V228h.44v12.3Z"/><path d="M144.34,234.14l.23.78.48-1.44c-.17,3.49-.32,6.44-.47,9.39l-.24,0Z"/><path d="M128.77,229.14c2.16-2.2,2.24-5.83,4.8-7.76l.62.54-1.52.73.38.2-3.61,6.75Z"/><path d="M184,211.37c-3.33,0-9.31-4.5-9.91-7.66,2.34,4.11,6.28,5.68,9.88,7.7Z"/><path d="M133,229.53l-5.72,6.61c.43-3.58,4-4.52,5.07-7.24Z"/><path d="M159.39,228.66a3,3,0,0,1,.13,1.09c-.85,2.93-1.75,5.86-2.75,8.75-.28-3.57,1.65-6.56,2.66-9.79Z"/><path d="M152.84,161.2a7.53,7.53,0,0,1,1,2.49,10.24,10.24,0,0,0,3.08,7.79,6.36,6.36,0,0,1-3.48-5.15c-.15-1.67-.46-3.33-.71-5Z"/><path d="M115,210.13c.58-2.33,1.06-4.28,1.58-6.36C117.65,205,116.91,208,115,210.13Z"/><path d="M94.14,180.62l-6.52,7.68C87.82,186.54,90.59,183.08,94.14,180.62Z"/><path d="M102.62,221l.27-3.4.42,0-.25,2.84.47.11,1.19-4.12.55.22c-1.47,1.19.17,3.69-1.93,4.6Z"/><path d="M144.78,252.89l-1.5-7,.48-.11c.54,2.15,1.09,4.29,1.58,6.45,0,.16-.4.43-.62.64Z"/><path d="M296.36,206l3.77-2.34,2.7-1.4c-1.74,1.22-3.47,2.46-5.24,3.64C297.29,206.09,296.78,206,296.36,206Z"/><path d="M167.89,230.33c.74,2.56-1.47,3.92-2.23,5.88l-.46-.2c.92-1.87,1.83-3.75,2.75-5.62Z"/><path class="cls-1" d="M302.83,202.26l-2.7,1.4a35.93,35.93,0,0,1,2.9-3c.29-.25,1.1.12,1.67.2Z"/><path d="M154.8,221.18,153.63,228l-.45-.07,1-6.81Z"/><path d="M142.41,241l.54-8.69.48,0L142.8,241Z"/><path d="M145.46,246.71l1.23,5.63A5.75,5.75,0,0,1,145.46,246.71Z"/><path d="M126.5,228.94l2.33-5.65.42.17-2.1,5.69Z"/><path d="M198.66,224.74a5.49,5.49,0,0,1-1.57.56c-1.78.07-3.56,0-5.34,0v-.57h6.92Z"/><path d="M140.33,243.35l-.72-6,.49-.06q.3,3,.59,6Z"/><path d="M107,224.76l3.55,1.72-.27.6-3.65-1.67Z"/><path class="cls-1" d="M123.51,165.86a7.86,7.86,0,0,0-1.59-3.55c-1-1.2-1-3.27-1.48-4.95-.16-.6-.43-1.17-.56-1.78-.23-1-.39-2-.66-3.44l2.43.58c-1.82,2-1.78,2.2,1.45,7.78.52-1.18.43-1.14-.2-2.76-.24-.6.08-1.41.17-2.31l-1.52.78c-.55-2.11,1-3.17,3.19-2.22.9.39,1.73.92,2.57,1.38L124.75,159l.36.23,4-4.69c-.58,1.91-1,3.43-1.58,5.26,1-1.38,1.8-2.43,2.48-3.56.2-.34,0-.91,0-1.41h1.87l-1.46,2,.25.22,1.25-1.12-.43,1.76,1.26-1.56.22.13-1,3.38c1-1.18,1.64-2,2.32-2.8l.31.28-1.84,4,.4.18,1.15-2-.2,4,1.37-2.7.24.09L135,164.4l.35.08,1.35-3.82.34.11-.4,3.26,1.53-.12.55-2.58.33,0-.12,2.14.44.26,2.77-3.95-.44,1.42,1-.51-.09,2,5.11-4.44.32.21-2.9,3.56.18.19,1.67-1.28.34.19c-.35.64-.54,1.48-1.07,1.87-2.58,1.9-4.77,4.28-8.31,4.88-2.41.41-4.61,2.05-7.2,2.81l2.8-2.93c-1.36.33-2.53.91-3.61.76-.79-.1-1.57-1.07-2.15-1.81a20.22,20.22,0,0,1-1.56-2.78L125,165l5.84,7.09,3.53-2.25c-1.53,3.23-3.53,3.41-6.14,1.76-2.37-1.49-3.06-4-4.79-5.83Z"/><path class="cls-1" d="M140.58,170.46l-2.39,7.94c-3.4-2.16-3.7-4.45-.58-9.09l-.47,2.18.2.07,1.71-3.58.5.19v2.33l1.11-2.64.27.07-.42,2.6Z"/><path class="cls-1" d="M150.44,159.85c-.37.83-.65,1.52-1,2.19a2.36,2.36,0,0,0,.3,2.92,5.76,5.76,0,0,1,.84,2.46c.7,3.43,1.35,6.86,2,10.3.12.67.13,1.37.19,2.05l-.51.16c-.36-1.16-.75-2.31-1.07-3.48-1-3.81-2-7.64-3.07-11.44-.11-.4-.54-.69-.71-1.08s-.29-.83-.15-1C148.24,161.92,149.28,161,150.44,159.85Z"/><path class="cls-1" d="M200.26,227.56l-11.13,2.11.76-1-1-.25C192.56,227.65,196.1,226,200.26,227.56Z"/><path class="cls-1" d="M117.83,161.23c.34.38.86.7,1,1.14.4,1.33.68,2.7,1,4.06.45,2.3-1.36,5.84-3.86,7.18a28.08,28.08,0,0,0,1.49-2.52,10,10,0,0,0,.71-7.35,12.74,12.74,0,0,1-.22-2.57Z"/><path class="cls-1" d="M144.43,168.41l-.94-1.46L142,173.54h0l-1.12,1.17c.19-1.33.32-2.25.46-3.16l-.24-.11-.93,2.07c.17-1.35.28-2.2.38-3.05l-.07.08a9.35,9.35,0,0,0,.68-1.29c.91-2.7,1.36-3,4.3-2.83l-1.11,2.05Z"/><path class="cls-1" d="M214,224.72l-2.39-.5,0-.48,9.49-.66.13.61c-.46.11-.91.23-1.37.33l-3.63.8a21.1,21.1,0,0,1-3.35.58Z"/><path class="cls-1" d="M189.14,234.44l4.33-1.47-.09-.32-2.63.62-.11-.32,7.81-2.54C195.62,232.42,192.91,234.67,189.14,234.44Z"/><path class="cls-1" d="M144.38,168.46c.18.27.58.59.53.81-.67,2.92-1.41,5.83-2.13,8.74l-.58-.12q1.13-4.74,2.23-9.48Z"/><path class="cls-1" d="M219.82,222.05l4.26-3.3.37.48L221.87,221l.13.46,2.72-.33.1.4-4.73,1Z"/><path class="cls-1" d="M198.09,219.37l5.28.41C202.13,221.09,200.77,221,198.09,219.37Z"/><path class="cls-1" d="M297.91,202.73l6.51-4.49.24.33-6.41,4.63Z"/><path class="cls-1" d="M142,173.54v8.17l-.93.12-.51-1.92.28-.08c.11.23.21.47.19.42.3-2.08.65-4.39,1-6.71Z"/><path class="cls-1" d="M299,187.08c1.26-1.64,2.18-3.65,4.62-3.93-.75.67-1.55,1.3-2.25,2s-1.34,1.53-2,2.31Z"/><path class="cls-1" d="M212.18,222l5.19-3.14.27.44-5.13,3.24Z"/><path class="cls-1" d="M196.74,230.28c-1.64,1.3-3.18-.55-4.79-.63h4.74Z"/><path class="cls-1" d="M139.77,175.46c.11,1.54.21,3.08.31,4.62l-.52,0A5.36,5.36,0,0,1,139.77,175.46Z"/><path class="cls-1" d="M285.56,192.56l-4,3.53C282.72,194.33,282.9,192.32,285.56,192.56Z"/><path class="cls-1" d="M203.56,220.52l3.62-.4C206,221.92,204.8,221.48,203.56,220.52Z"/><path class="cls-1" d="M98,188.29c.65,1,1.09,1.85,1.65,2.59.74,1,0,2.9-1.43,3.55a18.25,18.25,0,0,1-2.19,1c-1,.3-2.11.42-3.19.62a19.42,19.42,0,0,1-2.56,3.38c-.89.8-1.92,2-4,1l2.57-6.12.35.06.17,1.14L90.58,194l.37,1.05,4.77-5.56.39.24-.9,2.5.35.14Q96.78,190.33,98,188.29Z"/><path class="cls-1" d="M110.61,193.19l.32-2.08-.37-.34c-1,2-4.26.74-4.68,3.54l-3.67-1.13,1.2-.76c-2.54-1.1-2.7-1.72-1.33-4a8.11,8.11,0,0,0,1.13-2.51l1.44,1.39.76-.64,1-1.79c1.58.28,3,.59,2,2.71,0,0,0,.15,0,.18,2.53,3.36-1.5,2.06-2.22,3.1-.15.22-.49.3-.6.82l6.72-1.88-1.33,3.44Z"/><path class="cls-1" d="M113.42,182.72,111.73,187l.32.19q2.33-3,4.64-6l.35.18L115,185.81l.55.29,3.19-5.29a18.93,18.93,0,0,1-.63,3.63,4.72,4.72,0,0,1-1.67,1.81c-.92.69-1.94,1.23-2.87,2.05l1.73-.37-.68,4.61h-.5a15.31,15.31,0,0,1,.17-2c.22-1.11-.14-1.51-1.28-1.43-2.58.18-3.08-.58-2-3,.54-1.25,1.12-2.49,1.69-3.74Z"/><path class="cls-1" d="M149.35,207.38c-1,2.24-1.88,4.08-2.69,6s-3,3.33-2.62,5.84c-2.33.45-1,3.71-3.24,4.23a.21.21,0,0,0-.12.14c-.47,2-1.59,3.39-3.81,3.46Z"/><path class="cls-1" d="M84.82,198.78a27.34,27.34,0,0,1,0,3.77c-.13.87-.3.85-1.69,1.14-.08,0-.14.11-.2.17-1.45,1.48-2.85,3-4.35,4.43a8.1,8.1,0,0,1-1.81,1l-.58-.66Z"/><path class="cls-1" d="M150.38,203.88c2.36.92,4.58,1.73,6.76,2.66,2,.83,2.29,1.57,1.55,2.67l-6.42-2.36a3.91,3.91,0,0,1-2.21-3.88c.14-1.81,0-3.64.32-5.47Z"/><path class="cls-1" d="M150.23,225.18c-.49-4.71.3-12.54,1.58-14,.07.86.17,1.42.16,2a7.46,7.46,0,0,1-.15,2.77c-1.12,2.61,1.17,5.71-1.25,8.09C150.39,224.18,150.4,224.55,150.23,225.18Z"/><path class="cls-1" d="M89,218.6c.29,1.46.58,2.91.9,4.58a3.17,3.17,0,0,0,.61-1.09c.18-1.53.25-3.08.37-4.63.19,1.86.39,3.71.59,5.57l1.08-.34-1.23,3.05c-1.25-1.74-3.91-2.39-3-5.16v2.61A3.45,3.45,0,0,1,89,218.6Z"/><path class="cls-1" d="M95.74,212.11l1.08-7.58.49,0c-.14,1.73-.32,3.45-.42,5.17-.06,1,0,2.08,0,3.12s.09,2.07.21,3.1a7.86,7.86,0,0,0,.46,1.45l1.3-1c.19-.15.36-.31.74-.66l-.29,3.88A17.08,17.08,0,0,1,97,217.77c-.34-.38-.3-1.1-.43-1.67-.29-1.35-.57-2.69-.86-4Z"/><path class="cls-1" d="M155,216l-1-.58-1,4-.5-.14c.67-1.68-.18-3.75,1.72-5.17.39-.29.22-1.3.37-2s.37-1.51.59-2.38c1.37,1.23,1.33,1.78-.21,6.3Z"/><path class="cls-1" d="M144.39,208.73l1.15-5.61-.52-.18-1.43,4.61-.61-.17c.58-1.79,1.11-3.59,1.78-5.34a1.38,1.38,0,0,1,1.28-.35,1.39,1.39,0,0,1,.49,1.24c-.54,2-1.2,3.92-1.82,5.88Z"/><path class="cls-1" d="M139.94,196.38c1.93,1,2.13,2.08,1.71,3.4-.75,2.33-1.47,4.68-2.2,7l-.53-.17c.62-2,1.28-4,1.82-6,.1-.39-.33-.89-.42-1.36C140.17,198.42,140.1,197.6,139.94,196.38Z"/><path class="cls-1" d="M96.19,196.9l-1.71,9.34-.49-.1a28.46,28.46,0,0,1,1.53-9.43Z"/><path class="cls-1" d="M120.17,186.38l-.76,2.5-.24,0,.12-1.51-.41-.07c-.64,2.59-1.27,5.18-1.93,7.9C116.06,191.86,117.88,186.75,120.17,186.38Z"/><path class="cls-1" d="M146.83,200c-4.5-.87-3.26-4.21-3.13-7a6.34,6.34,0,0,1,.32,1.32c0,1.86.47,3.34,2.46,4.05C146.77,198.41,146.73,199.42,146.83,200Z"/><path class="cls-1" d="M163.33,228.67l2.88-9.48.59.19-2.91,9.53Z"/><path class="cls-1" d="M123.25,194c.21-2.08.37-4.17.66-6.24.06-.39.6-.71.92-1.06a3.69,3.69,0,0,1,.21,1.28c-.43,2-.93,4-1.41,6.08Z"/><path class="cls-1" d="M113.83,189.22c-.48,2.63-.88,4.78-1.36,7.41C111.72,193.8,112.22,190.75,113.83,189.22Z"/><path class="cls-1" d="M99.34,212c1,1.88.17,3.06-1.44,4.13C97.65,214.44,97.19,212.87,99.34,212Z"/><path class="cls-1" d="M134.94,232.39l-.63,8.67-.55-.05.63-8.73Z"/><path class="cls-1" d="M130.83,193.46v-2.54l-.31,0-.46,1.16-.28,0v-3.12L132,190.3l-.87,3.23Z"/><path class="cls-1" d="M114.79,195.44c.29-2.23.51-4.48.94-6.68.11-.54,1-.94,1.29-1.24-.67,2.63-1.33,5.26-2,7.88Z"/><path class="cls-1" d="M154.14,201.89l.19,2.51c-1.82-.38-2.39-2.68-1.22-5.31v3.79l.3,0,.27-1.17Z"/><path class="cls-1" d="M143.38,199.09l2.27,1.65-2,1.61C144.21,201.11,141.18,200.7,143.38,199.09Z"/><path class="cls-1" d="M158,217.07c.33-2,.67-4,1-6l.75.12-1,5.92Z"/><path class="cls-1" d="M80.09,208.12l1.06,5.42C79.46,212.22,79.1,210.46,80.09,208.12Z"/><path class="cls-1" d="M141.21,191.62c1.69,1.26,1.67,1.57-.42,4.48Z"/><path class="cls-1" d="M120.4,199.77c.13-1.78.18-3.59.43-5.36a8,8,0,0,1,1.25-3.15l-1.71,8.56S120.4,199.77,120.4,199.77Z"/><path class="cls-1" d="M86.86,203.57,86,209.81a8.27,8.27,0,0,1,.35-6.28Z"/><path class="cls-1" d="M122.46,201.23l1.8-6.39.53.14-1.57,6.35Z"/><path class="cls-1" d="M126.8,193.06l.91-6.2c1.25,1.24.35,2.26.21,3.19s-.4,2-.61,3Z"/><path class="cls-1" d="M97.41,199.09l-1,4.84-.68-.15L96.89,199Z"/><path class="cls-1" d="M135.14,197.76l.85-4.26C137.09,194.18,137.09,194.18,135.14,197.76Z"/><path class="cls-1" d="M82.86,211.84c-1.2-1.76-.5-3.58-.6-5.38l.56,0v5.43Z"/><path class="cls-1" d="M132.29,211.08c-.11-.32-.2-.65-.33-1s-.44-.61-.37-.7c.56-.81,1.18-1.57,1.83-2.4.49,1.5-.46,2.74-1.17,4Z"/><path class="cls-1" d="M93.42,226.66l-1.61-.94.28-.49.83.23.11-2.21.73.06c-.13,1.13-.25,2.26-.39,3.4Z"/><path class="cls-1" d="M108.26,245.48c-.89-.16-1.72-.06-2-.4-1.26-1.67-3.53-2.54-3.92-4.93,0-.21-.93-.18-1.3-.44a23.51,23.51,0,0,1-3.22-2.7,10.2,10.2,0,0,1,5.23,2.85c.5.48,1.39.53,2,.93a7.27,7.27,0,0,1,2.32,1.94c3,5.23,7.87,7.87,13.4,9.6,1.12.35,2.2.86,3.46,1.36C121.6,254.77,110.09,248.52,108.26,245.48Z"/><path class="cls-1" d="M137.61,258.78l10.36-1,.05,1H137.61Z"/><path class="cls-1" d="M111.18,245.14l7.19,4-.35.62-7.12-4.1Z"/><path class="cls-1" d="M150,259.74l8.89-.51,0,.59-8.89.4Z"/><path class="cls-1" d="M166.68,237.05l3-5.25.34.15-1.62,3.66,1.47-.41c-.91,2.17-1.73,4.15-2.56,6.14l-.46-.13c.28-1,.57-2.07.85-3.11l-.37-.15c-.43.89-.86,1.77-1.3,2.66l-.33-.12c.34-1.16.67-2.32,1-3.48Z"/><path class="cls-1" d="M170.78,243.61l-1.92.87,1.13-4.29.39.05-.43,2.68.78.72Z"/></svg>