<svg id="Layer_1" data-name="Layer 1" xmlns="http://www.w3.org/2000/svg" viewBox="0 0 576 576"><defs><style>.cls-1{fill:#ded7ce;}.cls-2{fill:#dad0c6;}.cls-3{fill:#10100b;}.cls-4{fill:#665448;}.cls-5{fill:#a9b4b4;}.cls-6{fill:#d2cac8;}.cls-7{fill:#878785;}</style></defs><title>Artboard 5</title><path class="cls-1" d="M129.12,133a4.07,4.07,0,0,1,.46-.88c9.78-11.15,9.94-11.34,23.14-.44C171,146.75,190,160.88,207.3,177q20.55,19.17,41.38,38c22.17,20,44.54,39.74,66.58,59.86,10.77,9.83,21.33,19.89,32.47,29.31a6.2,6.2,0,0,1,2.55,3.59c-4.33.07-4.88,4.09-6.62,6.64-3.42,5-7.77,9.52-9.52,15.58h0c-.92.41-.52.75.06,1.06a3.14,3.14,0,0,1-.18,1c-3.18.82-5.39,3.06-7.7,5.2-14.38,13.26-26.91,28.27-40.07,42.67-1.23,1.36-2.29,2.3-4.12,2.15-1.89-7.63-6.93-13.72-10.72-20.3-5.58-9.7-12.09-18.91-17.75-28.62-8-13.68-15.91-27.39-24.09-40.94-4.92-8.16-10-16.27-15.51-24-5.77-8.09-8.66-17.67-14.89-25.62-6.52-8.34-11.09-18.18-16.94-27.08-5.13-7.8-10.49-15.6-14.85-23.72-6.32-11.77-13.8-22.75-20.54-34.21-3.92-6.67-7.78-13.39-12.13-19.77C133.42,135.92,132.48,132.8,129.12,133Z"/><path class="cls-2" d="M129.12,133c3.36-.2,4.3,2.92,5.58,4.8,4.35,6.38,8.21,13.1,12.13,19.77,6.74,11.46,14.22,22.44,20.54,34.21,4.36,8.12,9.72,15.92,14.85,23.72,5.85,8.9,10.42,18.74,16.94,27.08,6.23,7.95,9.12,17.53,14.89,25.62,5.53,7.75,10.59,15.86,15.51,24,8.18,13.55,16.11,27.26,24.09,40.94,5.66,9.71,12.17,18.92,17.75,28.62,3.79,6.58,8.83,12.67,10.72,20.3,1.43,2.1.25,3.51-1.45,4.45a4.3,4.3,0,0,1-5.1-.54c-5.26-4.41-10.49-8.84-15.93-13.05-8-6.25-15.74-13-23.55-19.52A4.82,4.82,0,0,0,232,352h0c-.21-2.46-1-4.34-4-4h0c-.34-1-1.11-1.13-2-1h0l-1-1v0c-.19-3.09-2.74-4.61-4.74-6-9.13-6.49-16.26-15.26-25.37-21.78-3.31-2.37-5.38-6.44-9.89-7.18h0c-2-5.18-6.71-7.34-11-10h0c-3.86-6.5-11-10-15.12-16.24-.15-.23-1.23.15-1.87.25v0l-1-1h0c-1.75-4.75-6-6.76-10-9h0l-1-1h0l-1-1h0c.7-3.33-1.51-4-3.88-5.77-8.23-6-14.57-14.19-22-21.12-4.88-4.52-8.93-10-15.08-13.1h0a5.7,5.7,0,0,0-5-5h0c-.74-3.26-2.1-5.9-6-6h0l-1-1h0l-1-1h0c-1.44-3.9-4.56-6.12-8-8h0c-.79-1.73-1.84-3.11-4-3h0c-1.87-5.1-6.43-7.79-10.11-11.27-.09-1.83.94-3,2.15-4.27Q99.63,163.26,129.12,133Z"/><path class="cls-3" d="M376.17,332.48c36.06,27,73.26,52.68,104.91,85.18,13.1,13.45,20.63,30,27.26,47.11,1.06,2.72-.21,4.05-1.82,5.53-5.48,5.06-12.81,6-19.41,8.5a12.33,12.33,0,0,0-2.39-6.44,142.63,142.63,0,0,0-12.93-15.75c-12.78-14.19-29.33-23.74-44-35.57-9.67-7.79-20.07-14.68-29-23.45-14.34-14.17-25.59-30.83-37.83-46.69Zm95.8,110a5.24,5.24,0,0,0,5.81,5c3.39-.14,5.49-2.19,5.38-5.84s-2.34-5.54-5.73-5.45S472,438.38,472,442.43ZM430.29,404.2c3.67-.09,5.66-2.22,5.5-5.63s-2.13-5.68-5.76-5.55-5.63,2.34-5.5,5.76S426.54,404.34,430.29,404.2Zm-40.21-47c-.52-2.8-2.24-5.16-5.78-5-3.38.16-5.47,2.15-5.43,5.8s2.41,5.55,5.7,5.49S390,361.36,390.08,357.2Z"/><path class="cls-4" d="M361,350.9c12.24,15.86,23.49,32.52,37.83,46.69,8.89,8.77,19.29,15.66,29,23.45,14.7,11.83,31.25,21.38,44,35.57a142.63,142.63,0,0,1,12.93,15.75,12.33,12.33,0,0,1,2.39,6.44c-4,1.67-7.5.64-9.52-2.9-13.22-23.2-35.73-36.36-56.33-51.19C395.69,406.31,376,382.86,358,357.6a18.81,18.81,0,0,1-1.33-2.61Z"/><path class="cls-5" d="M345,334.89q6.38-7.12,12.74-14.24c5.95,1.22,8.6,6.9,13.28,9.85,1.16.73.38,1.79-.4,2.45-4.65,4-7.55,9.57-12.33,13.48-1.89,1.55-3.06,1.54-4.47-.27Q349.42,340.51,345,334.89Z"/><path class="cls-6" d="M345,334.89q4.41,5.63,8.82,11.27c1.41,1.81,2.58,1.82,4.47.27,4.78-3.91,7.68-9.49,12.33-13.48.78-.66,1.56-1.72.4-2.45-4.68-2.95-7.33-8.63-13.28-9.85,1.12-2.36-.34-4.45-.67-6.66l0,0a51.9,51.9,0,0,1,19.09,18.51L361,350.9l-4.3,4.09c-4.05-.91-6.1-4.42-8.89-6.94-4.32-3.89-7.91-8.57-12.75-11.9l.06-2.22C338.27,335.51,341.65,334.93,345,334.89Z"/><path class="cls-5" d="M335.09,333.93l-.06,2.22c-3.88-.86-6.18,1.75-8.58,4-15,14.13-28.27,29.9-41.93,45.28-5.38,6.06-5.33,6.2-11.53,1.13q-18.85-15.42-37.61-31c-1.26-1-2.74-1.92-3.35-3.58a4.82,4.82,0,0,1,4.06,1.39c7.81,6.56,15.5,13.27,23.55,19.52,5.44,4.21,10.67,8.64,15.93,13.05a4.3,4.3,0,0,0,5.1.54c1.7-.94,2.88-2.35,1.45-4.45,1.83.15,2.89-.79,4.12-2.15,13.16-14.4,25.69-29.41,40.07-42.67,2.31-2.14,4.52-4.38,7.7-5.2A2,2,0,0,0,335.09,333.93Z"/><path class="cls-5" d="M103,233c6.15,3.06,10.2,8.58,15.08,13.1,7.46,6.93,13.8,15.1,22,21.12,2.37,1.73,4.58,2.44,3.88,5.77-3.76-.95-5.77-4.26-8.32-6.65C125,256.31,114.56,245.92,104,235.65A2.75,2.75,0,0,1,103,233Z"/><path class="cls-5" d="M185,311c4.51.74,6.58,4.81,9.89,7.18,9.11,6.52,16.24,15.29,25.37,21.78,2,1.43,4.55,2.95,4.74,6-4.9-2.26-8.43-6.34-12.49-9.66-8.59-7-16.84-14.5-25.19-21.83C186.29,313.61,184.7,312.92,185,311Z"/><path class="cls-6" d="M334.14,330c1.75-6.06,6.1-10.55,9.52-15.58,1.74-2.55,2.29-6.57,6.62-6.64,2,.55,2.34,1.8,1.12,3.29q-7.45,9.12-15.08,18.09C335.88,329.73,334.88,329.77,334.14,330Z"/><path class="cls-5" d="M157,285c.64-.1,1.72-.48,1.87-.25C163.05,291,170.16,294.53,174,301,167.11,297,161.19,292,157,285Z"/><path class="cls-5" d="M174,301c4.28,2.66,9,4.82,11,10C179.92,309.28,176.48,305.7,174,301Z"/><path class="cls-5" d="M67.91,197.76c3.68,3.48,8.24,6.17,10.11,11.27-4.48-2.2-7.09-6.5-10.72-9.64C67.15,199.26,67.69,198.32,67.91,197.76Z"/><path class="cls-5" d="M146,275c4,2.24,8.24,4.25,10,9C151.41,282.45,148.33,279.18,146,275Z"/><path class="cls-5" d="M82,212c3.45,1.88,6.57,4.1,8,8C86.18,218.54,83.3,216.09,82,212Z"/><path class="cls-5" d="M92,222c3.9.1,5.26,2.74,6,6C94.53,227.53,92.88,225.18,92,222Z"/><path class="cls-5" d="M98,228a5.7,5.7,0,0,1,5,5A6.06,6.06,0,0,1,98,228Z"/><path class="cls-5" d="M228,348c3-.34,3.79,1.54,4,4C230,351.42,228.21,350.51,228,348Z"/><path class="cls-5" d="M78,209c2.17-.11,3.22,1.27,4,3C79.6,212.49,78.89,210.66,78,209Z"/><path class="cls-5" d="M226,347c.9-.12,1.67,0,2,1A1.41,1.41,0,0,1,226,347Z"/><path class="cls-5" d="M156,284l1,1Q155.81,285.25,156,284Z"/><path class="cls-5" d="M90,220l1,1C90.23,221.14,89.93,220.79,90,220Z"/><path class="cls-5" d="M91,221l1,1C91.24,222.15,90.9,221.82,91,221Z"/><path class="cls-5" d="M225,346l1,1Z"/><path class="cls-5" d="M145,274l1,1C145.33,275.06,145,274.7,145,274Z"/><path class="cls-6" d="M357.06,314l-.4-.45c.09,0,.22,0,.27.08a1.37,1.37,0,0,1,.15.35Z"/><path class="cls-6" d="M334.19,331.09c-.58-.31-1-.65-.06-1.06Z"/><path class="cls-5" d="M144,273l1,1C144.34,274.05,144,273.74,144,273Z"/><path class="cls-7" d="M472,442.43c.07-4.05,2-6.19,5.46-6.29s5.63,1.78,5.73,5.45-2,5.7-5.38,5.84A5.24,5.24,0,0,1,472,442.43Z"/><path class="cls-7" d="M430.3,404.19c-3.76.15-5.64-2.08-5.77-5.41s2-5.63,5.5-5.76,5.62,2.27,5.76,5.55S434,404.11,430.3,404.19Z"/><path class="cls-7" d="M390.08,357.2c-.07,4.16-2.18,6.24-5.51,6.3s-5.65-1.77-5.7-5.49,2.05-5.64,5.43-5.8C387.84,352,389.56,354.4,390.08,357.2Z"/></svg>