<svg id="Layer_1" data-name="Layer 1" xmlns="http://www.w3.org/2000/svg" viewBox="0 0 576 576"><defs><style>.cls-1{fill:#d2cac8;}.cls-2{fill:#dad1d2;}.cls-3{fill:#665448;}.cls-4{fill:#dfdfdf;}.cls-5{fill:#fefefe;}</style></defs><title>Artboard 1</title><path class="cls-1" d="M296.17,388.22c-3.48,4.53-8.41,7.37-12.74,10.91-2.12,1.74-3.78.69-5.17-.9-10-11.53-20-23.06-29.95-34.68q-15.17-17.82-30.11-35.81c-12.7-15.34-25.46-30.64-37.82-46.25-11.84-14.95-23.49-30.07-34.72-45.48-17.2-23.61-34-47.49-47.4-73.59-2-4-3.39-8.31-5.33-12.35-1.52-3.17-.8-5.11,2.06-7.1q36.58-25.39,73-51c3.53-2.48,7-5.11,10.36-7.76,2.08-1.62,3.94-1.69,5.64.4q13.38,16.38,26.7,32.81a4.14,4.14,0,0,1,.42,1.42c2.32,7.68,4.83,15.31,6.93,23,2.52,9.28,6.07,18.21,8.91,27.38,3.21,10.35,5.73,20.94,9.36,31.13s7.35,20.27,10.15,30.52c4.2,15.42,9.47,30.45,14.31,45.63,2.85,8.93,6,17.82,8.52,26.8,2.33,8.21,5.48,16.17,7.41,24.47,1.5,6.43,4.73,12.21,6.33,18.56C286.63,360.57,292.09,374.17,296.17,388.22Z"/><path class="cls-2" d="M296.17,388.22c-4.08-14.05-9.54-27.65-13.12-41.85-1.6-6.35-4.83-12.13-6.33-18.56-1.93-8.3-5.08-16.26-7.41-24.47-2.54-9-5.67-17.87-8.52-26.8-4.84-15.18-10.11-30.21-14.31-45.63-2.8-10.25-6.55-20.41-10.15-30.52s-6.15-20.78-9.36-31.13c-2.84-9.17-6.39-18.1-8.91-27.38-2.1-7.73-4.61-15.36-6.93-23,5.91,3.26,8.69,9.38,12.82,14.24,12.45,14.66,24.66,29.52,36.91,44.34q19,23,37.91,46.09c10.75,13.05,21.56,26.05,32.31,39.1,13,15.74,26,31.46,38.82,47.29,3.11,3.83,7,7.06,9.16,11.67l-34.13,28.49c-10.84,7.6-20.55,16.63-31.13,24.56C307.86,379.08,303,384.86,296.17,388.22Z"/><path class="cls-3" d="M344.93,350.06l34.13-28.49c4.57,3.7,7.73,8.65,11.39,13.12Q436.3,390.75,482,446.94a6.48,6.48,0,0,1,1.47,6.76c-4.59,15.54-19.73,28-35.71,29.37-2.83.24-4.15-1.11-5.63-3.09q-41.76-55.75-83.6-111.44C353.94,362.42,349.46,356.22,344.93,350.06Zm109.26,91c-.09-3.18-1.7-5.08-4.82-5.17-3.29-.09-5.37,1.67-5.38,5.08s2,5.19,5.32,5.15S454,444.08,454.19,441Zm-67-84.12c-3,.18-4.93,1.94-4.94,5s1.74,5.05,5,5.08,5-1.94,5-5S390.61,357.07,387.22,356.91Z"/><path class="cls-4" d="M454.19,441c-.21,3.05-1.66,5-4.88,5.06s-5.32-1.76-5.32-5.15,2.09-5.17,5.38-5.08C452.49,436,454.1,437.85,454.19,441Z"/><path class="cls-5" d="M387.22,356.91c3.39.16,5.12,2,5.06,5.08s-1.85,5-5,5-5-2.11-5-5.08S384.23,357.09,387.22,356.91Z"/></svg>