<svg id="Layer_1" data-name="Layer 1" xmlns="http://www.w3.org/2000/svg" viewBox="0 0 576 576"><defs><style>.cls-1{fill:#dfdfdf;}.cls-2{fill:#d4cfd3;}.cls-3{fill:#994530;}.cls-4{fill:#aa4f30;}.cls-5{fill:#a9b4b4;}.cls-6{fill:#fefefe;}</style></defs><title>Artboard 3</title><path class="cls-1" d="M157.07,96.71c20.35-3.62,40.62-7.79,61.08-10.63,11.14-1.54,22.66-3.67,33.69,2.28,7.54,4.07,13.22,9.41,15.78,17.55,6.27,19.89,13.69,39.38,20.54,59.07,7.72,22.2,16.61,44,25.28,65.78,7.73,19.48,16.69,38.47,25,57.71,6.44,14.86,13.47,29.44,20.46,44,1.7,3.56,4.84,6.43,5.19,10.64-2.15.19-4.32.27-6.45.59-8.13,1.23-16.09,2.87-21.73,9.7-2.81,1.55-4.88,3.92-6.94,6.3-14.49-4.16-28.37.06-42.33,3-6,1.27-11.19,5.08-17.52,5.1.31-3-1.08-5.48-2.49-7.95-5.06-8.89-10.43-17.62-15.11-26.7-9.48-18.42-18.8-36.93-27.76-55.61-6-12.58-11.48-25.46-16.94-38.31S196.59,213,190.65,200.26c-4.87-10.46-8.9-21.27-13.18-31.92-5.86-14.59-10.21-29.84-14.45-45C160.58,114.6,157.74,105.87,157.07,96.71Zm83.05,5.05c-1.59,3.93-1.46,7.81,2.82,9.48,3.65,1.42,7.5.76,9.26-3.76,1.54-1.52,1.11-3.51.7-5.12-1-4.1-4.24-5-8.05-4.72C241.29,98,240.29,98.82,240.12,101.76Z"/><path class="cls-2" d="M157.07,96.71c.67,9.16,3.51,17.89,6,26.61,4.24,15.18,8.59,30.43,14.45,45,4.28,10.65,8.31,21.46,13.18,31.92,5.94,12.77,10.68,26.09,16.19,39.06s10.91,25.73,16.94,38.31c9,18.68,18.28,37.19,27.76,55.61,4.68,9.08,10,17.81,15.11,26.7,1.41,2.47,2.8,4.94,2.49,7.95-.13.47-.11,1.15-.42,1.39-4.6,3.6-10.93,4.05-15.14,8.53-1.19,1.26-1.83-.86-2.3-1.72-7.22-13-14.68-26-21.46-39.24-6.39-12.5-12.76-25-18.95-37.6q-10.83-22-20.9-44.37c-4-8.91-7.24-18.15-11.06-27.11-6.5-15.23-12.48-30.68-18.92-45.93a370.81,370.81,0,0,1-17.34-51.31c-2.51-9.72-6.45-19.26-5.57-29.65C143.46,98.15,150.36,97.86,157.07,96.71Z"/><path class="cls-3" d="M335.93,353.45c5.64-6.83,13.6-8.47,21.73-9.7,2.13-.32,4.3-.4,6.45-.59,2.2,0,3,1.64,3.85,3.32q36,70.08,72.08,140.09c1.74,3.37,1.54,6.12.09,9.36-5,11.09-13.78,17.23-25.4,19.56-2.55.51-5.09,1.7-7.82,1.09-1.54-2.16-1.61-4.86-2.92-7.23a89.78,89.78,0,0,1-6.63-15.77c-3.4-10.67-8.5-20.54-13.2-30.53-5.49-11.67-11.65-23-15.09-35.49-.74-2.7-2.65-4.94-3-7.83-1.06-9.63-4.53-18.45-9.24-26.81-2.25-4-3.88-8.3-5.87-12.42A207.89,207.89,0,0,0,335.93,353.45ZM370,374.68c-.49-2.67-1.44-4.78-4.61-4.94s-4.74,1.68-4.88,4.43a4.54,4.54,0,0,0,4.46,5C367.91,379.42,369.33,377.33,370,374.68Zm55.13,116.09c0-3.09-1.9-4.69-4.65-4.7s-4.52,1.84-4.46,4.82,1.67,4.74,4.6,4.66S425.12,493.77,425.13,490.77Zm-33.67-65.1c-3.19,0-4.31,1.89-4.44,4.72-.16,3.24,1.82,4.39,4.63,4.51,3.17.12,4.41-1.92,4.42-4.7S394.54,425.61,391.46,425.67Z"/><path class="cls-4" d="M335.93,353.45A207.89,207.89,0,0,1,351,380.5c2,4.12,3.62,8.41,5.87,12.42,4.71,8.36,8.18,17.18,9.24,26.81.31,2.89,2.22,5.13,3,7.83,3.44,12.51,9.6,23.82,15.09,35.49,4.7,10,9.8,19.86,13.2,30.53A89.78,89.78,0,0,0,404,509.35c1.31,2.37,1.38,5.07,2.92,7.23-.66.09-1.31.22-2,.29-7.85.75-7.92.78-10.92-6.37-4.43-10.57-8.91-21.14-13.1-31.81-3.36-8.57-8.31-16.28-12.49-24.4a132.56,132.56,0,0,1-10.52-28.48c-5.12-20.27-15.59-38.08-26-55.9-1-1.73-2.05-3.43-3.08-5.14l-.84-1h0l1-4C331.05,357.37,333.12,355,335.93,353.45Z"/><path class="cls-5" d="M329,359.75l-1,4c-7.89-5-16.4-3.38-24.7-1.91-17.09,3-33.82,7.35-48.25,17.71-3.29,2.36-4.23.13-5.52-2.19-16-28.6-31-57.7-45.57-87.06-14.28-28.81-25.33-59-37.94-88.49a532.78,532.78,0,0,1-26.91-78.13c-1.34-5.3-2.78-10.59-3.71-16-.39-2.26-2-5.36,1.68-6.84-.88,10.39,3.06,19.93,5.57,29.65A370.81,370.81,0,0,0,160,181.84c6.44,15.25,12.42,30.7,18.92,45.93,3.82,9,7,18.2,11.06,27.11q10.08,22.35,20.9,44.37c6.19,12.59,12.56,25.1,18.95,37.6,6.78,13.27,14.24,26.19,21.46,39.24.47.86,1.11,3,2.3,1.72,4.21-4.48,10.54-4.93,15.14-8.53.31-.24.29-.92.42-1.39,6.33,0,11.55-3.83,17.52-5.1C300.62,359.81,314.5,355.59,329,359.75Z"/><path class="cls-5" d="M328,363.75l.84,1Z"/><path class="cls-6" d="M252.2,107.48c-1.76,4.52-5.61,5.18-9.26,3.76-4.28-1.67-4.41-5.55-2.82-9.48C246.7,98.31,250.35,100,252.2,107.48Z"/><path class="cls-5" d="M252.2,107.48c-1.85-7.44-5.5-9.17-12.08-5.72.17-2.94,1.17-3.8,4.73-4.12,3.81-.33,7,.62,8.05,4.72C253.31,104,253.74,106,252.2,107.48Z"/><path class="cls-5" d="M370,374.68c-.67,2.65-2.09,4.74-5,4.53a4.54,4.54,0,0,1-4.46-5c.14-2.75,1.7-4.6,4.88-4.43S369.51,372,370,374.68Z"/><path class="cls-5" d="M425.13,490.77c0,3-1.64,4.71-4.51,4.78s-4.55-1.71-4.6-4.66,1.61-4.83,4.46-4.82S425.11,487.68,425.13,490.77Z"/><path class="cls-5" d="M391.46,425.66c3.08-.05,4.63,1.62,4.61,4.54s-1.25,4.82-4.42,4.7c-2.81-.12-4.79-1.27-4.63-4.51C387.15,427.56,388.27,425.63,391.46,425.66Z"/></svg>