<svg id="Layer_1" data-name="Layer 1" xmlns="http://www.w3.org/2000/svg" viewBox="0 0 576 576"><defs><style>.cls-1{fill:#878785;}.cls-2{fill:#9b3922;}.cls-3{fill:#dfdfdf;}.cls-4{fill:#d4cfd3;}.cls-5{fill:#b8c0c2;}.cls-6{fill:#665448;}.cls-7{fill:#fefefe;}.cls-8{fill:#a9b4b4;}</style></defs><title>Artboard 2</title><path class="cls-1" d="M121.89,116l60.42-22c8.59-3.12,16.57-7.73,25.38-10.35A20.82,20.82,0,0,1,232,93.07c.92,1.56,2,2.69-.08,4.61s-1.34,3.31,1.83,3.38c4.05.09,5.7,3.29,3.76,6.75-1.59,2.84-.53,3.69,2.34,3.23,3-.48,3.26,2.17,4.43,3.84,1.29,1.82.32,2.61-1.17,3.47a1.63,1.63,0,0,0-.55,2.53c.63,1,1.54,1.46,2.51.94,3.14-1.7,3.55,1.16,4.73,2.71,1.38,1.82,1.14,3.23-1,4.29a1.5,1.5,0,0,0-.47,2.18c.69,1.26,1.83,1.26,3,1,2-.51,3,.49,4,2.12,1.14,1.94.43,3-1.13,4.11a2.59,2.59,0,0,0-.85,3.51c.87,1.6,2,1.22,3.38.61,2.16-1,3.34.24,4.36,2.05.86,1.52,1.14,2.63-.58,3.76a2.67,2.67,0,0,0-1,3.85c.92,1.58,2.25,1,3.49.48,2.47-1.07,3.14.83,4.15,2.36,1.16,1.77,1,2.89-1.11,3.78-1.22.52-1.37,1.82-.87,3a2.12,2.12,0,0,0,3.25,1.18c3.12-1.62,3.53,1.14,4.72,2.75s1.32,2.94-.79,4a1.9,1.9,0,0,0-.94,2.9A1.85,1.85,0,0,0,274,173c1.84-.92,3.05-.48,4.14,1.27s.88,2.81-.23,4.47c-1.75,2.63-1.69,5,2.49,4.29,3-.48,3.48,1.79,4.71,3.5s.35,2.63-1.13,3.39a1.83,1.83,0,0,0-.79,2.55c.52,1.42,1.56,1.5,2.82.93,2.69-1.21,3.46.92,4.49,2.61s2,3.15-.73,4.24c-1.06.42-.94,1.72-.59,2.66a1.59,1.59,0,0,0,2.48.75c2.37-1.33,3.35.38,4.34,1.89,1.11,1.7,1.86,3.15-.29,5.11-1.79,1.62-.95,3.18,1.8,3.33,4.57.25,5.71,2,3.92,6.34-2.35,5.67,3.28,2.57,4.51,4.27-1.28,4.15-4.32,7.3-6.29,11.07a12.81,12.81,0,0,0,1.62,15.06c1.68,2.24,3.19,4.56,3.62,7.41-.44.49-.78,1.16-1.33,1.46-8.57,4.83-17,10.08-25.88,14.14-3.17,1.44-5.21,5.94-9.71,4.28-5.43-6-12.83-7.76-20.24-9.5-1.43-3.07-5.51-.31-7.09-3.2-.17-.31-.92,0-.91.68,0,3.1-2.83,2.85-4.53,3.69-6.37,3.13-12.86,6-19.26,9-1.35.65-1.81,2.74-3.79,2.51-5.86-6.41-10.1-13.95-14.68-21.23-14.77-23.46-27.68-48-40.32-72.62C145,163.78,132.86,140.17,121.89,116Zm87.83-16.09c.12,3,.08,6.08,3.56,7.49a7,7,0,0,0,7.07-.69c4.25-2.94,4.4-7.24.44-11.82L219.3,94l-1.46,0c-1.64-3.39-4.06-1.57-5.57-.33-1.76,1.43-5.19,2.41-3.47,6C208.89,99.79,209.4,99.79,209.72,99.88Z"/><path class="cls-2" d="M268,278c4.5,1.66,6.54-2.84,9.71-4.28,8.92-4.06,17.31-9.31,25.88-14.14.55-.3.89-1,1.33-1.46,2.14.67,3,2.57,3.92,4.29Q339.4,317.3,370,372.17q17.28,30.9,34.89,61.61c1.62,2.81,1.62,4.76-.17,7.56-10.29,16.1-25,25.77-43.13,30.94-4.64,1.32-6.3-.13-7-4.59-2.47-16.95-5.49-33.78-11.26-50-7.62-21.45-19.36-40.81-30.64-60.39-14-24.36-28.94-48.2-44.11-71.87C267,282.84,266.34,280.68,268,278Zm63.75,56.18a8.18,8.18,0,0,0-4.7,0c-4,1.53-3.55,4.87-2.79,7.88s3.23,3.6,6.18,3.62c3.65,0,4.46-2.8,4.93-5.08C335.87,338,335.16,335.1,331.71,334.22Zm21.12,47.85c-4.22,2.55-4.23,7.17,0,9.5,2.1,2.9,5.3,2.08,7.06.64,2.43-2,2-5.52.51-8.12C358.72,381.31,356.08,380,352.83,382.07Zm-56.38-91.94c.14,4,2.65,5.45,5.82,5.77,3,.29,7.27-4.49,6.38-7.6a6.4,6.4,0,0,0-6.5-4.27C298.15,284.11,297,287,296.45,290.13Z"/><path class="cls-3" d="M121.89,116c11,24.2,23.13,47.81,35.25,71.43C169.78,212,182.69,236.56,197.46,260c4.58,7.28,8.82,14.82,14.68,21.23-2.77,3.44-7,4.87-10.37,7.4a13.61,13.61,0,0,1-4-4.21c-2.37-3.37-3.56-7.41-6-10.59-7-9.08-11.53-19.63-17.59-29.27-5.49-8.72-9-18.56-14.71-27.26-1.7-2.6-6.66-5.89.48-10.53-3.6.4-5.51,1.56-6.75-1.15-3.24-7-6.74-13.94-10.57-20.69-6.43-11.33-11.94-23.14-18.14-34.6-3.88-7.16-7.38-14.63-10.9-22-1.3-2.75-4.81-4.51-3.69-8.34C113.86,118.62,117.51,116.18,121.89,116Zm28.16,74.24a1.4,1.4,0,0,0-.42.15s.06.23.09.36a1.3,1.3,0,0,0,.42-.14S150.08,190.34,150.05,190.21Zm11.1,16.12-.34-.13-.06.51a.8.8,0,0,0,.36-.09C161.17,206.58,161.14,206.43,161.15,206.33Z"/><path class="cls-4" d="M109.86,120c-1.12,3.83,2.39,5.59,3.69,8.34,3.52,7.4,7,14.87,10.9,22,6.2,11.46,11.71,23.27,18.14,34.6,3.83,6.75,7.33,13.66,10.57,20.69,1.24,2.71,3.15,1.55,6.75,1.15-7.14,4.64-2.18,7.93-.48,10.53,5.7,8.7,9.22,18.54,14.71,27.26,6.06,9.64,10.57,20.19,17.59,29.27,2.46,3.18,3.65,7.22,6,10.59a13.61,13.61,0,0,0,4,4.21L196,292.53a7.82,7.82,0,0,0-1.19-4.23q-6.85-10.64-13.5-21.42-11.22-18.12-20.93-37.11c-8-15.61-16.81-30.79-24.17-46.74-4.31-9.34-9.65-18.19-14.22-27.4-5.53-11.16-10.75-22.48-16.11-33.73A5.66,5.66,0,0,1,109.86,120Z"/><path class="cls-5" d="M105.86,121.9c5.36,11.25,10.58,22.57,16.11,33.73,4.57,9.21,9.91,18.06,14.22,27.4,7.36,15.95,16.17,31.13,24.17,46.74q9.7,19,20.93,37.11,6.66,10.77,13.5,21.42a7.82,7.82,0,0,1,1.19,4.23l-1.41,1.55c-6.1-4.86-9.68-11.66-13.56-18.13-15.45-25.82-29.49-52.43-43-79.27-11.23-22.24-21.9-44.76-32.73-67.19C104,127,102,124.11,105.86,121.9Z"/><path class="cls-6" d="M194.57,294.08l1.41-1.55,5.79-3.88c3.4-2.53,7.6-4,10.37-7.4,2,.23,2.44-1.86,3.79-2.51,6.4-3,12.89-5.9,19.26-9,1.7-.84,4.56-.59,4.53-3.69,0-.64.74-1,.91-.68,1.58,2.89,5.66.13,7.09,3.2-10.94.33-19.69,6.35-28.73,11.39-7.07,3.94-13.72,8.62-20.62,12.87C197.27,293.48,196.36,295.29,194.57,294.08Z"/><path class="cls-6" d="M301.26,250.75a12.81,12.81,0,0,1-1.62-15.06c2-3.77,5-6.92,6.29-11.07,1.81,1.17,1.76,2.49.46,4.07-1,1.26-1.86,2.7-2.87,4C299.1,238.25,297.43,244.15,301.26,250.75Z"/><path class="cls-7" d="M220.79,94.86c4,4.58,3.81,8.88-.44,11.82a7,7,0,0,1-7.07.69c-3.48-1.41-3.44-4.49-3.56-7.49,1.18-4.07,4.05-5.84,8.12-6l1.46,0Z"/><path class="cls-6" d="M217.84,93.92c-4.07.12-6.94,1.89-8.12,6-.32-.09-.83-.09-.92-.29-1.72-3.59,1.71-4.57,3.47-6C213.78,92.35,216.2,90.53,217.84,93.92Z"/><path class="cls-6" d="M220.79,94.86,219.3,94Z"/><path class="cls-8" d="M296.45,290.13c.55-3.15,1.7-6,5.7-6.1a6.4,6.4,0,0,1,6.5,4.27c.89,3.11-3.43,7.89-6.38,7.6C299.1,295.58,296.59,294.09,296.45,290.13Z"/><path class="cls-8" d="M352.83,382.07c3.25-2.1,5.89-.76,7.53,2,1.52,2.6,1.92,6.13-.51,8.12-1.76,1.44-5,2.26-7.06-.63C352.37,388.41,354.06,385.25,352.83,382.07Z"/><path class="cls-1" d="M331.71,334.22c3.45.88,4.16,3.77,3.62,6.45-.47,2.28-1.28,5.1-4.93,5.08-2.95,0-5.45-.68-6.18-3.62s-1.18-6.35,2.79-7.88c1.81,2.66-.88,5.65.76,8.53.76,1.35,1.09,2.2,2.69,1.94,1.81-.3,1.5-1.41,1.6-2.87C332.22,339.26,329.89,336.82,331.71,334.22Z"/><path class="cls-5" d="M331.71,334.22c-1.82,2.6.51,5,.35,7.63-.1,1.46.21,2.57-1.6,2.87-1.6.26-1.93-.59-2.69-1.94-1.64-2.88,1.05-5.87-.76-8.53A8.18,8.18,0,0,1,331.71,334.22Z"/><path class="cls-1" d="M352.83,382.07c1.23,3.18-.46,6.34,0,9.51C348.6,389.24,348.61,384.62,352.83,382.07Z"/><path class="cls-4" d="M150.05,190.21c0,.13.13.34.09.37a1.3,1.3,0,0,1-.42.14c0-.13-.13-.33-.09-.36A1.4,1.4,0,0,1,150.05,190.21Z"/><path class="cls-4" d="M161.15,206.33c0,.1,0,.25,0,.29a.8.8,0,0,1-.36.09l.06-.51Z"/></svg>