<svg id="Layer_1" data-name="Layer 1" xmlns="http://www.w3.org/2000/svg" viewBox="0 0 576 576"><defs><style>.cls-1{fill:#a9b4b4;}.cls-2{fill:#b8c0c2;}.cls-3{fill:#665448;}.cls-4{fill:#878785;}.cls-5{fill:#ded7ce;}.cls-6{fill:#dfdfdf;}.cls-7{fill:#fefefe;}</style></defs><title>Artboard 4</title><path class="cls-1" d="M286,310.23c-5.3,3.87-9.57,9.52-16.95,9.77a7.3,7.3,0,0,0,.08-.94c1.61-.79,3.27-1.52,4.82-2.43.35-.21,1.62.14.93-1.46-1.63-3.81-2.36-8-3.43-12-2.93-11-5.82-22-8.35-33.05-1.76-7.69-2.79-15.61-5.34-23a234.64,234.64,0,0,1-7.21-27.89c-2.42-11.6-5.9-22.9-8.26-34.5-2.73-13.42-6.78-26.56-10-39.88-5.15-21.16-10.09-42.36-15.14-63.54-1.29-5.42-2.68-10.81-4-16.22,9.72-2.94,19.82-4,29.79-5.47,13.12-2,26.31-4.06,39.67-3.48,6.54.28,12.82,1.58,18.13,5.93,6.37,5.23,8,12.39,8.41,20,.69,12.34-.82,24.62-1.07,36.94a373.34,373.34,0,0,0,13.4,107c6.1,22.25,11.34,44.75,17,67.14-2.6,1.81-5.79,2.87-7.51,5.81-6.06,2.63-11.16,6.84-16.75,10.25l-5.08,2.93c-8.27-6.67-15.75-7.9-22-2.92l.09-.08ZM282.1,76.37c-4,5.09-3.76,10.41.63,13.36s9.37,1.51,12.29-3.6c3.33-4.07,1.48-7.88-1.65-10.39C289.94,73,285.68,72.92,282.1,76.37Z"/><path class="cls-2" d="M213.1,65.1c1.34,5.41,2.73,10.8,4,16.22,5,21.18,10,42.38,15.14,63.54,3.24,13.32,7.29,26.46,10,39.88,2.36,11.6,5.84,22.9,8.26,34.5a234.64,234.64,0,0,0,7.21,27.89c2.55,7.41,3.58,15.33,5.34,23,2.53,11.08,5.42,22.07,8.35,33.05,1.07,4,1.8,8.16,3.43,12,.69,1.6-.58,1.25-.93,1.46-1.55.91-3.21,1.64-4.82,2.43a33.72,33.72,0,0,0-8.33,1.36c-6.76,1.64-13.51,3.41-20.5,3.86-2.06.13-3.64.18-4.39-2.64-4.19-15.82-8.68-31.56-13-47.35-3.29-12-6.47-24-9.74-36-5-18.37-10.12-36.7-15.07-55.09-4.06-15-8.18-30.07-11.83-45.22-3.1-12.87-6.95-25.57-8.39-38.83-.92-8.55-2.49-17-3.76-25.55,3-3,7.19-2.75,10.89-3.48C194.33,68.26,203.54,65.65,213.1,65.1Z"/><path class="cls-3" d="M346.67,318.11c3.58,10.52,7.21,21,10.74,31.57,8.43,25.21,16.95,50.4,25.2,75.68,7.46,22.9,15.4,45.7,19.77,69.46a65.92,65.92,0,0,1-.83,28.62c-1.72,6.66-3.24,13.25-8,18.37-9.52,10.14-21.23,7.67-26-5.4-2.72-7.37-4-15.13-4.91-22.85-2.24-19.08-7.3-37.45-13-55.69-5-16-11.72-31.42-18.62-46.69-6.79-15-10-30.92-12.58-47-1.43-9-3.28-18-3.83-27.11,7.82-4.17,15.76-8.14,22.69-13.79,3.21.16,4.94-2.24,7-4.06Zm11.5,94.83c2.3-.38,3.78-1.69,3.67-4-.12-2.52-1.77-3.86-4.32-3.77a3.07,3.07,0,0,0-3.3,3.52A4,4,0,0,0,358.17,412.94Z"/><path class="cls-4" d="M174.1,73.58c1.27,8.52,2.84,17,3.76,25.55,1.44,13.26,5.29,26,8.39,38.83,3.65,15.15,7.77,30.18,11.83,45.22,4.95,18.39,10.06,36.72,15.07,55.09,3.27,12,6.45,24,9.74,36,4.33,15.79,8.82,31.53,13,47.35.75,2.82,2.33,2.77,4.39,2.64,7-.45,13.74-2.22,20.5-3.86a33.72,33.72,0,0,1,8.33-1.36,7.3,7.3,0,0,1-.08.94c-9.77,2.76-19.74,4.62-29.7,6.54-3.06.59-4.4,0-5.28-3.19-18.24-66.92-36.91-133.72-53.82-201-3.73-14.86-5.38-30.1-7.51-45.25C172.53,75.68,171.74,74,174.1,73.58Z"/><path class="cls-1" d="M337.21,323.27c-6.93,5.65-14.87,9.62-22.69,13.79l-.57-2.91-.51-6c5.63-1.92,9.29-6.93,14.83-9.17C334.93,316.28,334.79,316,337.21,323.27Z"/><path class="cls-1" d="M337.21,323.27c-2.42-7.32-2.28-7-8.94-4.3-5.54,2.24-9.2,7.25-14.83,9.17-2.06-4.84,3.49-5.09,4.76-7.92,6.56-2.34,12.06-6.55,17.91-10.14l6.85-3.71,1.17,3.75c-1.45.06-3.41,0-2.73,2.15.74,2.36.34,5.27,2.81,6.94C342.15,321,340.42,323.43,337.21,323.27Z"/><path class="cls-5" d="M343,306.37l-6.85,3.71c1.27-5.13-1.83-8.2-5.23-11.14,1.72-2.94,4.91-4,7.51-5.81A36.87,36.87,0,0,1,343,306.37Z"/><path class="cls-5" d="M318.2,320.22c-1.27,2.83-6.82,3.08-4.76,7.92l.51,6c-1.9-1.12-1.89-3-1.78-4.8.35-5.77-1.33-11-4.14-15.94l1-1.29,5.08-2.93C314.36,313.28,317.49,316.3,318.2,320.22Z"/><path class="cls-4" d="M309.05,312.12l-1,1.29c-6.45-4.05-13.13-6.93-20.93-4.21C293.3,304.22,300.78,305.45,309.05,312.12Z"/><path class="cls-1" d="M344.21,319.21c-2.47-1.67-2.07-4.58-2.81-6.94-.68-2.17,1.28-2.09,2.73-2.15a23.93,23.93,0,0,1,2.54,8Z"/><path class="cls-4" d="M286,310.23l1.19-1.11Z"/><path class="cls-6" d="M318.2,320.22c-.71-3.92-3.84-6.94-4.07-11,5.59-3.41,10.69-7.62,16.75-10.25,3.4,2.94,6.5,6,5.23,11.14C330.26,313.67,324.76,317.88,318.2,320.22Z"/><path class="cls-7" d="M295,86.13c-2.92,5.11-7.87,6.57-12.29,3.6s-4.64-8.27-.62-13.36C291.39,75,295,77.66,295,86.13Z"/><path class="cls-4" d="M295,86.13c0-8.47-3.63-11.17-12.91-9.76,3.57-3.45,7.83-3.37,11.26-.63C296.5,78.25,298.35,82.06,295,86.13Z"/><path class="cls-1" d="M358.17,412.94a4,4,0,0,1-3.95-4.24,3.07,3.07,0,0,1,3.3-3.52c2.55-.09,4.2,1.25,4.32,3.77C362,411.25,360.47,412.56,358.17,412.94Z"/></svg>