<svg id="Layer_1" data-name="Layer 1" xmlns="http://www.w3.org/2000/svg" viewBox="0 0 576 576"><defs><style>.cls-1{fill:#d4cfd3;}.cls-2{fill:#dfdfdf;}.cls-3{fill:#994530;}.cls-4{fill:#878785;}.cls-5{fill:#a9b4b4;}.cls-6{fill:#fefefe;}.cls-7{fill:#aa4f30;}</style></defs><title>Artboard 1_1</title><path class="cls-1" d="M72.48,178c5.63-5.47,12.46-9.32,18.86-13.73,15.16-10.45,30.72-20.31,45.24-31.67,12.28-9.62,23.95-8.92,35.14,2.15,9.49,9.38,16.65,20.64,25.05,30.91,12.29,15,24.54,30.06,36.92,45,17.59,21.24,35.36,42.32,55.18,61.55,4,3.9,7.68,8.35,12.85,10.94-9.38,9.63-18.62,19.39-27.31,29.65-1.7,2-3.53,2.73-6.12,1.84-5.08-1.76-9.16,3.38-14.2,2.21-4.22,5.73-11.43,6.05-17,9.37A111.35,111.35,0,0,1,223,314c-10.65-10.85-23.13-19.65-33.44-30.82a93.57,93.57,0,0,0-10.14-9.57c-14.38-11.49-27.54-24.34-41.1-36.72-7.63-7-15.39-13.82-22.89-21-9.67-9.19-19.76-18.06-30.18-26.44C80.77,185.88,78.15,180.24,72.48,178Zm93.16-31.89-1.09-1.08.06.08c-1-4.94-4.8-5.26-8.71-5.08s-7.71.93-8.28,5.95l-.57,2.39c-.91,3.88-.94,7.43,2.61,10.3,3.32,2.68,6.74,2.9,10.64,1.63,6.35-2.07,6.5-7.1,6.29-12.41-.35-.62-.69-1.25-1-1.87Z"/><path class="cls-2" d="M72.48,178c5.67,2.22,8.29,7.86,12.79,11.49,10.42,8.38,20.51,17.25,30.18,26.44,7.5,7.13,15.26,14,22.89,21,13.56,12.38,26.72,25.23,41.1,36.72a93.57,93.57,0,0,1,10.14,9.57c10.31,11.17,22.79,20,33.44,30.82a111.35,111.35,0,0,0,14.09,12.24q-7.47,3.84-15,7.67c-9.52,4.87-11.15,4.65-19.23-2.64a10.92,10.92,0,0,0-1.46-1.35c-4.85-3-8.09-8.24-13.91-9.86l.05.05c-2.67-5.15-7.43-8-12.05-11.05l.06.05a6,6,0,0,0-5.06-4.05l.05.05c.18-1.55-.67-2.06-2.05-2l0,0,0-1.07a45,45,0,0,0-14-11.93l0,0c-.29-.74-.39-1.69-.91-2.18q-12.33-11.55-24.75-23c-1.21-1.12-2.36-2.44-4.31-1.82v0c.26-1.58-.43-2.21-2-2h0q.09-1.08-1-1h0c.34-1.73-.81-2.79-1.85-3.82Q103.28,240,86.79,223.8c-1.53-1.51-2.89-3.32-5.46-2.73-2.59-.2-1-3.26-2.73-4-1.91-4.09-4.65-7.34-9-9h0c0-.71-.26-1.06-1-1l0,0q.09-1.07-1-1h0c0-.72-.28-1-1-1h0c.06-.72-.28-1.06-1-1h0c.56-2.13-1-3.19-2.16-4.54-2.41-2.75-5.94-4.63-6.8-8.6a3.89,3.89,0,0,1,1.88-4.22C63.26,184,67.21,180,72.48,178Z"/><path class="cls-3" d="M304.47,284.16c19.13,16.56,37.55,33.91,56.08,51.14,29.26,27.21,58.82,54.1,87.25,82.18,8.7,8.6,9.49,19.77,6.84,31.18-1.07,4.63-4.79,7.13-9.05,8.52-11.22,3.66-21.83,2.44-31-5.32-25.64-21.79-49.81-45.2-74.27-68.27-22.65-21.37-45.13-42.91-67.68-64.38-.72-.68-1.33-1.47-2-2.21l7.84-2.12c0,1.66,1.09,2.71,2.16,3.78,4,4,7.9,8.24,12.14,12,3.75,3.34,7.14,7.08,10.86,10.32,6.09,5.3,12,10.77,17.79,16.36,7.8,7.52,15.77,14.85,23.46,22.47,3.67,3.64,7.94,6.71,11.22,10.57,4.27,5,10.29,7.8,14.52,12.79,3.31,3.91,7.26,7.27,10.93,10.88l-.23.42c.08-.14.16-.28.23-.42,4.08,4.08,8.31,8.1,12.68,11.76,5.41,4.54,10.81,9.25,15.75,14.11,8.78,8.66,18.73,11.83,30.5,11.13,4.18-.25,6.32-2.16,6.13-6.63-.18-4.15-1.07-8.8.43-12.36,2.2-5.24.63-8.63-3.24-11.07a48.89,48.89,0,0,1-12.58-11c-7.84-10.22-18.55-17.28-26.94-26.76-4.55-5.14-11-8.11-15.45-13.24-1.93-2.23-3-3.72-5.57-1.25-1.26-2.11,0-4.43-1.66-6-9-8.71-17.58-17.85-27.29-25.73-4.53-3.67-8.37-7.95-12.58-11.88-5.37-5-11.48-9.16-16.37-14.74-5.93-6.77-13.56-11.71-20-18-1-1-1.51-1.2-3,.28-3.67,3.7-7.28,7.65-12,10.16C294.32,296,301.15,291.41,304.47,284.16ZM449.86,440.29c-.44.41-.92.64-1,1a1.37,1.37,0,0,0,.34,1.2c.68.38,1.18,0,1.2-.77A4.63,4.63,0,0,0,449.86,440.29Z"/><path class="cls-4" d="M304.47,284.16c-3.32,7.25-10.15,11.88-14,18.74l0,.06c-1.33,0-1.94.79-2.22,2a1.65,1.65,0,0,0-1.76,1.07,3.69,3.69,0,0,0-2.16,3,24.11,24.11,0,0,0-5.85,5.9L270.69,317a19.1,19.1,0,0,0-12.55,1.85c-14,6.64-28,13.11-42,19.68-2.37,1.11-4.54,1.82-6.93-.1-7.39-5.92-15-11.52-21.64-18.36,5.82,1.62,9.06,6.88,13.91,9.86a10.92,10.92,0,0,1,1.46,1.35c8.08,7.29,9.71,7.51,19.23,2.64q7.49-3.82,15-7.67c5.55-3.32,12.76-3.64,17-9.37,5,1.17,9.12-4,14.2-2.21,2.59.89,4.42.17,6.12-1.84,8.69-10.26,17.93-20,27.31-29.65A2.26,2.26,0,0,1,304.47,284.16Z"/><path class="cls-5" d="M81.33,221.07c2.57-.59,3.93,1.22,5.46,2.73q16.47,16.24,32.93,32.48c1,1,2.19,2.09,1.85,3.82-3.83-1.31-5.81-4.81-8.49-7.42C102.38,242.26,91.89,231.63,81.33,221.07Z"/><path class="cls-5" d="M124.59,263.11c2-.62,3.1.7,4.31,1.82q12.39,11.47,24.75,23c.52.49.62,1.44.91,2.18a2,2,0,0,1-2.23-.63C142.9,280.88,133,272.73,124.59,263.11Z"/><path class="cls-5" d="M154.58,290.12a45,45,0,0,1,14,11.93l-1.57.05C162.27,298.75,157.35,295.55,154.58,290.12Z"/><path class="cls-4" d="M175.56,309.07c4.62,3,9.38,5.9,12.05,11.05C183.24,316.83,178.55,313.88,175.56,309.07Z"/><path class="cls-5" d="M56.62,191c.86,4,4.39,5.85,6.8,8.6,1.19,1.35,2.72,2.41,2.16,4.54-3.33-2.14-5.77-5.21-8.37-8.09C55.91,194.57,54.55,192.89,56.62,191Z"/><path class="cls-5" d="M69.58,208.1c4.37,1.62,7.11,4.87,9,9A20.3,20.3,0,0,1,69.58,208.1Z"/><path class="cls-4" d="M170.56,305.07a6,6,0,0,1,5.06,4.05C173.16,308.73,171.81,307,170.56,305.07Z"/><path class="cls-4" d="M168.56,303.08c1.38,0,2.23.49,2.05,2A2.4,2.4,0,0,1,168.56,303.08Z"/><path class="cls-5" d="M122.59,261.11c1.56-.23,2.25.4,2,2A2.53,2.53,0,0,1,122.59,261.11Z"/><path class="cls-4" d="M167.05,302.1l1.57-.05,0,1.07Z"/><path class="cls-5" d="M65.58,204.1c.72-.06,1.06.28,1,1A1,1,0,0,1,65.58,204.1Z"/><path class="cls-5" d="M66.59,205.1c.71,0,1,.28,1,1A1,1,0,0,1,66.59,205.1Z"/><path class="cls-5" d="M67.58,206.1q1.08-.07,1,1A.94.94,0,0,1,67.58,206.1Z"/><path class="cls-5" d="M121.59,260.11q1.08-.09,1,1A.91.91,0,0,1,121.59,260.11Z"/><path class="cls-5" d="M68.59,207.11c.73-.07,1,.28,1,1A.91.91,0,0,1,68.59,207.11Z"/><path class="cls-6" d="M166.59,147.91c.21,5.31.06,10.34-6.29,12.41-3.9,1.27-7.32,1.05-10.64-1.63-3.55-2.87-3.52-6.42-2.61-10.3l.57-2.39c6.49-5.43,10-5.61,17-.87l-.06-.08,1.09,1.08-.08-.09C165.9,146.66,166.24,147.29,166.59,147.91Z"/><path class="cls-4" d="M164.61,145.13c-7-4.74-10.5-4.56-17,.87.57-5,4.31-5.77,8.28-5.95S163.61,140.19,164.61,145.13Z"/><path class="cls-4" d="M166.59,147.91c-.35-.62-.69-1.25-1-1.87C165.9,146.66,166.24,147.29,166.59,147.91Z"/><path class="cls-4" d="M165.64,146.13l-1.09-1.08Z"/><path class="cls-7" d="M278.53,314.88a24.11,24.11,0,0,1,5.85-5.9c2.23.1,2.27-1.38,2.16-3a1.65,1.65,0,0,1,1.76-1.07c1.47.16,2.28-.42,2.22-2l0-.06c4.74-2.51,8.35-6.46,12-10.16,1.46-1.48,1.94-1.3,3-.28,6.4,6.27,14,11.21,20,18,4.89,5.58,11,9.73,16.37,14.74,4.21,3.93,8,8.21,12.58,11.88,9.71,7.88,18.31,17,27.29,25.73,1.62,1.57.4,3.89,1.66,6,2.58-2.47,3.64-1,5.57,1.25,4.44,5.13,10.9,8.1,15.45,13.24,8.39,9.48,19.1,16.54,26.94,26.76a48.89,48.89,0,0,0,12.58,11c3.87,2.44,5.44,5.83,3.24,11.07-1.5,3.56-.61,8.21-.43,12.36.19,4.47-1.95,6.38-6.13,6.63-11.77.7-21.72-2.47-30.5-11.13-4.94-4.86-10.34-9.57-15.75-14.11-4.37-3.66-8.6-7.68-12.68-11.76h0c-3.67-3.61-7.62-7-10.93-10.88-4.23-5-10.25-7.77-14.52-12.79-3.28-3.86-7.55-6.93-11.22-10.57-7.69-7.62-15.66-14.95-23.46-22.47-5.8-5.59-11.7-11.06-17.79-16.36-3.72-3.24-7.11-7-10.86-10.32-4.24-3.78-8.1-8-12.14-12C279.62,317.59,278.55,316.54,278.53,314.88Zm70.15,35.29a7.7,7.7,0,0,0-7.73-8c-4.07-.14-7.44,3.64-7.41,8.31s3.14,7.59,8,7.53C345.68,358,348.69,354.68,348.68,350.17Zm-44.8-41.9c-4.34.17-7.43,3.71-7.33,8.39s3.25,7.66,8,7.43a7.44,7.44,0,0,0,7.12-7.9C311.55,311.53,308.17,308.09,303.88,308.27Z"/><path class="cls-7" d="M449.86,440.29a4.63,4.63,0,0,1,.56,1.39c0,.74-.52,1.15-1.2.77a1.37,1.37,0,0,1-.34-1.2C448.94,440.93,449.42,440.7,449.86,440.29Z"/><path class="cls-7" d="M381.61,414.07c-.07.14-.15.28-.23.42l.23-.42Z"/><path class="cls-3" d="M286.54,306c.11,1.6.07,3.08-2.16,3A3.69,3.69,0,0,1,286.54,306Z"/><path class="cls-3" d="M290.52,303c.06,1.55-.75,2.13-2.22,2C288.58,303.75,289.19,302.94,290.52,303Z"/><path class="cls-5" d="M348.68,350.17c0,4.51-3,7.81-7.15,7.87-4.85.06-8-2.87-8-7.53s3.34-8.45,7.41-8.31A7.7,7.7,0,0,1,348.68,350.17Z"/><path class="cls-5" d="M303.88,308.27c4.29-.18,7.67,3.26,7.79,7.92a7.44,7.44,0,0,1-7.12,7.9c-4.75.23-7.9-2.69-8-7.43S299.54,308.44,303.88,308.27Z"/></svg>