<svg id="Layer_1" data-name="Layer 1" xmlns="http://www.w3.org/2000/svg" viewBox="0 0 504 504"><defs><style>.cls-1{fill:#fff;}</style></defs><title>Artboard 1</title><path d="M329.25,267.39c1.3-.89,1.94-1.4,2.65-1.8,4.91-2.75,8.22-1.25,8.67,4.36.27,3.44,1.12,4.95,4.81,4.1,2.71-.62,5.39-.45,6.7,2.73,1.24,3-.13,4.87-1.95,7.45-3,4.27-7,4-11.18,5-10.63,2.52-20.5-2.33-30.82-2.32-.81,0-1.71-.57-2.42-.37-5,1.42-10.18,2.51-14.89,4.61-4.92,2.2-9.21,1.79-13.87-.41a20.26,20.26,0,0,0-7-1.6c-5.56-.43-11.14-.79-16.71-.72-7.71.1-15.42.42-23.11,1-7.4.58-14.66,1.65-22.1-.52-2.7-.78-6.36.13-9.08,1.37a19.64,19.64,0,0,1-17.25-.09c-1.1-.51-2.57-.17-3.84-.38-7-1.15-14.06-2.22-21-3.66a5.71,5.71,0,0,1-3.35-3.26c-1.72-4.62,3.9-13,8.32-15.25,5.12-2.6,11.46-1.16,16-5.6,1.09-1.07,3.77-.53,6.13-.77,1.35-4.22,4.67-4.93,9.27-5.7,5.32-.89,10.19-4.55,15.22-7.08,4.18-2.11,8.35-4.24,12.43-6.53,1.07-.6,1.6-2.12,2.66-2.73a16.62,16.62,0,0,1,4.53-1.55c1.51-.35,3.57.12,4.52-.74a34.16,34.16,0,0,1,9.89-6.33c7.76-3.28,13.62-3.8,20.39,1,1.24.88,3,1,4.55,1.47.14,0,.39-.13.47-.07,4.78,3.73,12.06,4.05,15.59,8.12,4.06,4.69,8.68,3.94,13.07,4.66a12.29,12.29,0,0,1,6.7,2.84c3.76,3.07,8.86,4.46,11.49,9.14.18.32,1.86-.08,2.79-.31,6.66-1.67,7.79-1,9.71,5.33A42.39,42.39,0,0,0,329.25,267.39ZM290.49,283c-3.62-.36-6.78-1-9.89-.81a4.56,4.56,0,0,0-3.17,3.13c-.12,1.09,1.44,2.9,2.68,3.51C284.85,291.07,288.52,290.13,290.49,283Zm-16.33-3.62a8.07,8.07,0,0,0-9.94-.17c-1.06.75-1.49,4.71-1,5,2.34,1.31,5.13,1.84,7.4,2.54C272,283.8,272.94,281.87,274.16,279.33Zm-109.07,5.83,14.14,2.07-8.1-9.48-6.92,2.32C170.53,282.5,164.56,282.47,165.09,285.16Zm85.27-7.26,4.82,2.87-.64.82-5-2.42-1.25.73c.55,1.33.87,3.63,1.69,3.82a37.81,37.81,0,0,0,8.91.68c.17,0,.9-2.84.38-3.85C257.85,277.71,255.43,276.31,250.36,277.9Zm47.32-3.7c-3.66-1.23-7.44-2.25-9.11,1.65-.52,1.23,2,5.28,3.71,5.7C298.56,283.09,294.62,276,297.68,274.2Zm-85.81,9.2-.5.7a6.73,6.73,0,0,0-1.31-.44,24.29,24.29,0,0,0-3.07-.16c-.05,0-.26,1.19-.11,1.27,1,.5,2.26,1.44,3,1.13a55.13,55.13,0,0,0,8.19-4.56c.27-.17-.8-3.15-1-3.12-2.9.44-5.75,1.16-8.6,1.86-.1,0-.07.57-.1.91Zm114.76,2.19a20.69,20.69,0,0,0,3.83,1c.32,0,1.37-2,1.16-2.27a12,12,0,0,0-4.1-3.21,13,13,0,0,0-5.84-.61c-.76.09-2.11,2.16-1.86,2.68a9.66,9.66,0,0,0,3.24,3.49C323.51,287,324.73,286.2,326.63,285.59Zm-24.89-11.33-.09,1.4c1.81.32,4.05,1.44,5.32.75a6.75,6.75,0,0,0,2.93-4.86c.07-1.21-2.16-3.71-3.14-3.6-2.36.25-4.59,1.7-6.87,2.67l.6,1.6h5.74Zm-67.42,10.27c5.43,2.54,8.09,1.56,10.28-3L242,277.73C238.31,277.91,235,279.46,234.32,284.53Zm-38.25,2.34c1.43-.36,4.14-.28,5.42-1.59,1.07-1.1,1.34-4.7.41-5.63-1.47-1.45-4.25-1.58-6.48-2.28C195.67,281,195.83,283.3,196.07,286.87Zm120-4.37,1.68-1.3c-1.36-1.58-3.45-4.72-4-4.48-2.52,1.16-4.61,3.24-6.85,5l6,3.23.87-1.22-.73-2.93Zm-93.45-3.72c-2.72,4.59.63,5.87,3.54,6.72,1.37.39,4.32-.38,4.61-1.26,1.14-3.43-1-5-4.37-5.4v2.73Zm-42.31,3.9,8.74-3.82.22-1.54-9.32-3.2-3,1.34C184.88,277,179.26,279.64,180.35,282.68ZM234.74,275c-1.32-6.21-3.27-7.65-8.4-6.54C227.28,272.81,229.2,275.77,234.74,275Zm-21.12-2.16-1.33-2.48c-2.21,1-4.65,1.64-6.55,3-1,.71-1,2.74-1.41,4.18l1.39.74Zm2.21.06c.18.72.36,1.43.55,2.15h8.51l.56-1.22c-1.31-1.3-2.63-3.65-3.93-3.64C219.62,270.21,217.73,271.92,215.83,272.91Zm-17.32,2.31.77-1.79c-1.73-5-4-5.78-9.85-1.9Zm39-2,.72,1.43,10.67,1c.36-7.76-6.33-1.62-8.1-4.73Zm47.58,5.68c-.78-5.38-3.6-6.05-9-2.63C277.78,281.44,281.67,278.32,285.09,278.93ZM164,277.86l-1.57-2.07a36.78,36.78,0,0,0-6,3.71c-.31.26,1.28,2.72,2,4.16Zm27,11.76,1-2-6.27-4.52-2.11,4.19Zm4.47-23.93c-4-3.34-7.69-2.21-11.33.58C188.22,271.06,191.65,265,195.5,265.69Zm98.78,20.74c3.56,1,6.48.6,8.48-2.23.76-1.07.47-2.86.8-5.38ZM227.66,264l9.29,5C236.82,264.42,233.18,262.46,227.66,264ZM209,266c.07.81.13,1.63.2,2.44l9.89-.66c0-.76-.11-1.52-.17-2.28Zm42.61,5.56,5.32-2.33,0-1.53-7.69-1-.41,1.46Zm61.5.44,8,5.7C320.56,272.34,318.7,270,313.06,272Zm-128.58-.4.08-1.33c-2.88-.16-5.77-.42-8.64-.38-.49,0-1,1.31-1.44,2,.64.32,1.32,1,1.92.91C179.11,272.52,181.79,272,184.48,271.6Zm38.38-11h13.28C231.52,257.17,227.79,257.39,222.86,260.64Z"/><path d="M264.72,304.55c-2.15-2-5.3-3.67-6.2-6.14-1-2.75,3.88-6,7.9-5.67,3.17.28,6.54.66,6.53,5.15C272.93,301.61,270.33,303.63,264.72,304.55Z"/><path d="M140.38,284.65c-3-.61-7.22-.44-7.24-5.75,0-4.15,3.13-6.76,7.71-6.55,4.91.23,7.52,2.42,7.43,6.25C148.18,282.79,145.61,284.9,140.38,284.65Zm-3.68-9.6c0,2.51-.42,5.19.07,5.38a39.81,39.81,0,0,0,7.29,1.39l.16-1.3Z"/><path d="M355.08,302.16c-7-.17-10.43-2.25-10.07-6,.39-4.05,3.18-5.61,6.89-5.65,5.05-.05,9.41,3.23,9.39,7C361.27,302,358,302.09,355.08,302.16Zm-6.64-4a43.83,43.83,0,0,0,6.33,1.23c1.1.05,2.25-.87,3.38-1.35-.7-1.19-1.1-2.81-2.13-3.51C352.08,291.85,350.23,294.63,348.44,298.17Z"/><path d="M369.8,278.88c4.28.07,7.38,2.78,7.39,6.38s-2.15,4.93-5.45,4.85c-4.23-.09-8.55-3.16-8.66-6.11S366,278.82,369.8,278.88ZM365.4,282c3.53,5.82,5,5.85,8.09.71Z"/><path class="cls-1" d="M290.49,283c-2,7.18-5.64,8.12-10.38,5.83-1.24-.61-2.8-2.42-2.68-3.51a4.56,4.56,0,0,1,3.17-3.13C283.71,282,286.87,282.59,290.49,283Z"/><path class="cls-1" d="M274.16,279.33c-1.22,2.54-2.13,4.47-3.52,7.36-2.27-.7-5.06-1.23-7.4-2.54-.51-.28-.08-4.24,1-5A8.07,8.07,0,0,1,274.16,279.33Z"/><path class="cls-1" d="M165.09,285.16c-.53-2.69,5.44-2.66-.88-5.09l6.92-2.32,8.1,9.48Z"/><path class="cls-1" d="M250.36,277.9c5.07-1.59,7.49-.19,8.94,2.65.52,1-.21,3.85-.38,3.85a37.81,37.81,0,0,1-8.91-.68c-.82-.19-1.14-2.49-1.69-3.82l1.25-.73,5,2.42.64-.82Z"/><path class="cls-1" d="M297.68,274.2c-3.06,1.82.88,8.89-5.4,7.35-1.71-.42-4.23-4.47-3.71-5.7C290.24,272,294,273,297.68,274.2Z"/><path class="cls-1" d="M211.87,283.4,208.34,281c0-.34,0-.89.1-.91,2.85-.7,5.7-1.42,8.6-1.86.2,0,1.27,2.95,1,3.12a55.13,55.13,0,0,1-8.19,4.56c-.71.31-2-.63-3-1.13-.15-.08.06-1.26.11-1.27a24.29,24.29,0,0,1,3.07.16,6.73,6.73,0,0,1,1.31.44Z"/><path class="cls-1" d="M326.63,285.59c-1.9.61-3.12,1.4-3.57,1.08a9.66,9.66,0,0,1-3.24-3.49c-.25-.52,1.1-2.59,1.86-2.68a13,13,0,0,1,5.84.61,12,12,0,0,1,4.1,3.21c.21.22-.84,2.31-1.16,2.27A20.69,20.69,0,0,1,326.63,285.59Z"/><path class="cls-1" d="M301.74,274.26l4.49-2h-5.74l-.6-1.6c2.28-1,4.51-2.42,6.87-2.67,1-.11,3.21,2.39,3.14,3.6a6.75,6.75,0,0,1-2.93,4.86c-1.27.69-3.51-.43-5.32-.75Z"/><path class="cls-1" d="M234.32,284.53c.66-5.07,4-6.62,7.64-6.8l2.64,3.81C242.41,286.09,239.75,287.07,234.32,284.53Z"/><path class="cls-1" d="M196.07,286.87c-.24-3.57-.4-5.88-.65-9.5,2.23.7,5,.83,6.48,2.28.93.93.66,4.53-.41,5.63C200.21,286.59,197.5,286.51,196.07,286.87Z"/><path class="cls-1" d="M316.11,282.5l-3-1.71.73,2.93-.87,1.22-6-3.23c2.24-1.75,4.33-3.83,6.85-5,.52-.24,2.61,2.9,4,4.48Z"/><path class="cls-1" d="M222.66,278.78l3.78,2.79v-2.73c3.37.44,5.51,2,4.37,5.4-.29.88-3.24,1.65-4.61,1.26C223.29,284.65,219.94,283.37,222.66,278.78Z"/><path class="cls-1" d="M180.35,282.68c-1.09-3,4.53-5.66-3.33-7.22l3-1.34,9.32,3.2-.22,1.54Z"/><path class="cls-1" d="M234.74,275c-5.54.76-7.46-2.2-8.4-6.54C231.47,267.36,233.42,268.8,234.74,275Z"/><path class="cls-1" d="M213.62,272.85l-7.9,5.48-1.39-.74c.44-1.44.44-3.47,1.41-4.18,1.9-1.4,4.34-2.07,6.55-3Z"/><path class="cls-1" d="M215.83,272.91c1.9-1,3.79-2.7,5.69-2.71,1.3,0,2.62,2.34,3.93,3.64l-.56,1.22h-8.51C216.19,274.34,216,273.63,215.83,272.91Z"/><path class="cls-1" d="M198.51,275.22l-9.08-3.69c5.82-3.88,8.12-3.14,9.85,1.9Z"/><path class="cls-1" d="M237.51,273.25,240.8,271c1.77,3.11,8.46-3,8.1,4.73l-10.67-1Z"/><path class="cls-1" d="M285.09,278.93c-3.42-.61-7.31,2.51-9-2.63C281.49,272.88,284.31,273.55,285.09,278.93Z"/><path class="cls-1" d="M164,277.86l-5.6,5.8c-.72-1.44-2.31-3.9-2-4.16a36.78,36.78,0,0,1,6-3.71Z"/><path class="cls-1" d="M191,289.62l-7.37-2.29,2.11-4.19,6.27,4.52Z"/><path class="cls-1" d="M195.5,265.69c-3.85-.66-7.28,5.37-11.33.58C187.81,263.48,191.51,262.35,195.5,265.69Z"/><path class="cls-1" d="M294.28,286.43l9.28-7.61c-.33,2.52,0,4.31-.8,5.38C300.76,287,297.84,287.39,294.28,286.43Z"/><path class="cls-1" d="M227.66,264c5.52-1.51,9.16.45,9.29,5Z"/><path class="cls-1" d="M209,266l9.92-.5c.06.76.12,1.52.17,2.28l-9.89.66C209.08,267.63,209,266.81,209,266Z"/><path class="cls-1" d="M251.56,271.56l-2.75-3.38.41-1.46,7.69,1,0,1.53Z"/><path class="cls-1" d="M313.06,272c5.64-2,7.5.34,8,5.7Z"/><path class="cls-1" d="M184.48,271.6c-2.69.42-5.37.92-8.08,1.21-.6.06-1.28-.59-1.92-.91.48-.7,1-2,1.44-2,2.87,0,5.76.22,8.64.38Z"/><path class="cls-1" d="M222.86,260.64c4.93-3.25,8.66-3.47,13.28,0Z"/><path class="cls-1" d="M136.7,275.05l7.52,5.47-.16,1.3a39.81,39.81,0,0,1-7.29-1.39C136.28,280.24,136.7,277.56,136.7,275.05Z"/><path class="cls-1" d="M348.44,298.17c1.79-3.54,3.64-6.32,7.58-3.63,1,.7,1.43,2.32,2.13,3.51-1.13.48-2.28,1.4-3.38,1.35A43.83,43.83,0,0,1,348.44,298.17Z"/><path class="cls-1" d="M365.4,282l8.09.71C370.36,287.85,368.93,287.82,365.4,282Z"/></svg>