<svg id="Layer_1" data-name="Layer 1" xmlns="http://www.w3.org/2000/svg" viewBox="0 0 504 504"><defs><style>.cls-1{fill:#fff;}</style></defs><title>Artboard 3</title><path d="M306.12,363.42c-7.92,3.65-15.55,8.26-23.82,10.73-11.89,3.55-24.12,6.75-36.41,8-21.35,2.07-42.86,2.81-64.32,3.31-4,.09-8.83-2.82-12.11-5.68-13.11-11.45-25.65-23.56-38.63-35.17-9.14-8.18-18.66-15.92-28-23.93a10.33,10.33,0,0,1-2.66-3.59c-7.89-18.44-16.27-36.7-23.27-55.48-3.37-9-4-19.08-6.06-28.65-1.44-6.78-2.53-13.7-4.76-20.22-3.56-10.44-3.74-20.44-1.11-31.28,1.86-7.66,5.9-14,8.55-21.11,3.64-9.77,6.88-19.7,10.92-29.31,1.52-3.62,4.74-6.54,7.25-9.73,4.73-6,10.76-7.58,18.38-7,9.38.75,18.88-.34,28.3,0A45.8,45.8,0,0,1,153,117.22c9.07,3.53,18.38,4,27.91,4.51,14.7.76,29.34,2.47,44,3.59,3.94.31,8-.35,11.88,0a184.39,184.39,0,0,1,56,13.2c7.56,3.14,16,4.2,24,6.29,2.24.58,4.36,1.65,6.62,2.19,7.73,1.83,15.55,3.36,23.24,5.37a24.78,24.78,0,0,1,7.67,3.8c3.34,2.3,6.14,5.44,9.58,7.55,8.35,5.1,17,9.75,25.41,14.69s16.73,10.07,25.17,15c12,7,21.15,16.93,24.86,30,2.21,7.77,1.39,16.88,0,25.07-1.59,9.61-5.08,18.92-8,28.28-2.35,7.45-7.05,13.41-12.91,18.51-9.52,8.29-18.34,17.61-28.72,24.63-10.13,6.85-19.07,15.16-29.94,21.32-12.31,7-25.59,9.47-38.43,14-4.82,1.69-9.29,4.36-13.91,6.57l-3.44-.41,7.23-9.61h-5l-.38-.16c-.66-1.71-1.33-3.42-2.18-5.63l9.61,3.78,2.65-8.3,1,.33-2.48,11.53,9.49-11.14c.88,2.34,1.23,3.26,1.57,4.18l1.61,1c2.56-3.1,5.12-6.2,8.26-10-2.63,5.42-9.07,7.23-8.72,14.43,5.55-5.82,10.5-11,16.09-16.89-.56,3.3-.92,5.43-1.51,8.84l6.82-6.91.43.45-3.53,6.4,1.17.74,3.7-4.34L348,344.9l.66.45,10-11.91-4.63-2.85c-2.5,3.14.76,8.37-4.4,9.64,1.45-4.56,2.89-9.12,4.29-13.57l5,2.42.53-.73-.94-1.23,2.59-4.44c5.43,1.3,7.8-3.14,10.59-6.26,2.13-2.37,3.7-3.62,6.8-1.44,1.1.78,3.39.31,4.91-.24.48-.17.23-2.41.32-3.7l7,1c2.23-5.35-1.34-5.45-4.74-6l-2.23,5.21c.37-2.27.74-4.53,1-6.39l8.6,1c-.21-.45.19.44.81,1.8,3.6-4.7-.26-5.47-4-7.24l5.52.49.26-3.85,4.06,1.14-1.66-4.35a36.18,36.18,0,0,1,6-3c3.2-1,6.57-1.45,9.86-2.13l-.07-1.24-8.43-3.15,7.13-4.43c1.42-4-5.42-1.18-2.59-5.49,1.25.34,2.48.7,3.72,1.06q1.41-6.89,2.81-13.77l-1.91-.43-4.67,13.31q1.17-6.77,2.32-13.53l-2-.36c-.91,3.84-1.83,7.68-2.9,12.18V261.51l-1.54-.17q-1.34,9.6-2.68,19.2l-.4-.07q.42-9.08.85-18.13l-1.29-.07L401.3,274l-.52-.08v-13.6c11.06,0,19.85-4.78,27-13.35-5.86-.62-11.71-1.24-17.35-.44s-11.2,3-16.78,4.63c-4.39,1.29-8,.75-9.45-4.25-1-3.42-1.69-6.94-2.71-10.37-1.41-4.71-2.91-9.4-4.56-14-.82-2.28-2.15-4.38-3.1-6.62-2.61-6.09-5.08-12.24-7.75-18.31a10.09,10.09,0,0,0-2.52-2.93c-2.76-2.6-5.77-5-8.32-7.73a171.75,171.75,0,0,1-11.95-14.21c-1.85-2.53-4.33-6.51-3.51-8.72,2.28-6.18-1.5-5.57-5-5.78a12.54,12.54,0,0,0-4.67.22,8.49,8.49,0,0,0-3.38,2.66c-.23.27.48,1.71,1.09,2.26,2.56,2.37,5.25,4.6,7.79,6.79L332.94,175c5.95,6.29,6,7.05,1.52,10.8-1.43-.46-2.38-.82-3.36-1.06-3.83-1-7.67-1.92-11.51-2.88,2.64-4.84-.45-8.58-3.31-11.35-2.69-2.62-6.83-3.66-10.55-.68-.05-.58-.09-1.16-.13-1.73L302.51,165l-3.08-5.13a9.42,9.42,0,0,0,1.79.6c1.34.18,2.69.24,4,.34-.55-1.51-.85-3.21-1.76-4.46-.44-.59-2.05-.32-3.13-.45l-2.83,2-4.27-1c.08,1.48.15,3,.23,4.43-.11.21-.22.42-.35.62l-7.06-3-3.61-2c-4.59-4.38-6-4-7.49,2-.5,1.13-1,2.26-1.48,3.39l-2.94-1.4c-2.18-7.14-8.88-7.68-15.18-10.2v6.4c-1,.21-2.9.21-4.34,1a23.68,23.68,0,0,0-4.23,3.34c-1.16-.83-2.54-2.54-4-2.66-1.33-.11-3.12,1.3-4.13,2.52-1.2,1.44-1.79,3.39-2.74,5.33-5-5-9.28-4.29-13.15,1.44-.57.84-1.38,1.95-2.23,2.1a52.06,52.06,0,0,1-6.72.41c-1-1.61-1.32-5.84-4.8-.39-1.49,2.33-5.33,5.21-7.32,4.71-3.35-.83-6.07-4.16-8.24-5.81,4.89-8,13.21-7.92,19.55-12l2,1.92,7.57-6.68,3.08,2.55c.87-1.63,1.24-3.48,2.35-4.19,3-1.9,6.23-3.32,9.72-5.11l5.17,2.88c-.95-2-1.43-3-2-4.27l4.62.61c-2.18-3.93-4.33-7.49-9.44-5-.49.24-1.37-.51-2.09-.58-2.89-.27-6.39-3.22-7.87,2.1-1.13-1.4-2-2.46-3.82-4.69.4,2.82.58,4.15.76,5.41l-3.56-2.22c-1.57-2.53-3.26-2.56-4,.32s-1.93,3.71-4.59,2.67c-3.15.77-6.82.8-9.3,2.53-2.11,1.48-2.87,4.91-4.27,7.55-5.15-2.11-9.62,0-15,7.2-.34-2.78-.61-5-.88-7.25,4.25-3.52,4.28-5,.16-7l-2.37,1-2.62-.9c.11-1.81,1.58-4.32-2.14-4.15l-1-.83c-3.15-.55-4.24,1.37-4.75,4l-2.24-.13-1.39-.05-2.53-.93-.83-1.49c.62-1.6,1.3-3.19,1.83-4.83.46-1.4.73-2.86,1.08-4.29l-1.74-.51-5.32,8.2.14-.09c-4.35,1-6.52,3.84-7.13,8.1l.13-.09c-3-.23-6.52,3.23-7.13,7.07l.13-.09-4.16-1-.26-1.55c.26-.74.32-1.7.83-2.18,3.52-3.29,4.49-7.38,4-12,0-.15.13-.3.19-.45l.33-.38c1.66-4.11-.32-5.76-4.17-6.14l0-.17c-3.36-.7-4.31,1.46-4.86,4.09l.09,1.27.89.75c0,.25.05.51.08.77l-2.19,3.1c-1.62-2.43-3.48-2.78-6-1.11-1.09.72-2.67.7-4,1l-.77,1.66-.36,1.52-2.43,2.34-2.11-1.48-1-.21c-.06-.88-.11-1.75-.17-2.62.6-.66,1.19-1.32,1.79-2l1-5-1.34-.54c-.76,1.1-1.52,2.2-2.29,3.29l-1.12,0-1.64-3.28-1.22.33v3c-2.84-1.05-3.77.47-4,2.95l-2,2.05q-1.12,2.26-2.23,4.52l1.88,2.49,1.3.49a4.54,4.54,0,0,1-.39.48l-5.11,3-.94-5.12c-6.14,5.56-6.14,5.56-5.6,10.69l.11-.17c-5.34,2-10.75,7.55-15.49-.83-3.95,5.09-3.92,6.23.7,9,4.28,2.53,8.92,4.47,13.19,7,8.55,5.12,14.65,12.27,15.23,22.59.84,14.72,3.24,28.92,9,42.66,4.31,10.25,8.06,21.27,5.8,32.51-3,14.79-7.06,29.41-16.48,43,9.41,4.33,18.63,8.71,28,12.69.94.4,3.42-1.25,4.2-2.54s0-3.11-.12-5.17L134.53,324v-2.13c-2.57.12-4.85.28-7.15.32-.7,0-1.41-.39-2.12-.4-4-.06-4.31-1.07-1.87-7.31l-4.73,1.64c1.89-2.87,4.58-6.43,4.34-6.64-3.5-3,.63-3.9,1.47-5.45s2.22-2.67,4.28-5.05l-4.39,1.85c1.09-2.67,3-4.44,4.57-6.44a8.51,8.51,0,0,0,1.14-3.39c.34-1.46.26-3.07.83-4.4.49-1.14,1.66-2,2.75-3.21l-3.51-1.26,9.79-11.23-.85-.78-5,3.76-.75-.92,7.13-7.66v4.73l4.3-3c1.74,3.79,3.4,7.35,5,10.93,1,2.27.34,3.21-2.17,2.46l-.84-.7c-.63-1-1.26-1.94-1.88-2.91-2.42-1.49-3.45,0-4.27,2q2.8,5.08,5.6,10.17l2.36.86c0,1.14,0,2.29-.07,3.42l0-.1c-.22,1.46-.43,2.91-.71,4.79l2.94-1,.66.11c.05.74.1,1.48.14,2.22l1.08,4.64,2.37,6c-4.8-1.13-6.18,1.35-5.92,5.59.08,1.29.08,2.57.11,3.86l-10.12,11.42a85.19,85.19,0,0,0,8.53,2.67c2.66.52,3.51,1.23,2.84,4.29s.1,6.23.24,9.36l1.76-.2-.71-6.16,6.54,8.36v-12.4c1.15,2.51,1,5,1.19,7.56a51.29,51.29,0,0,0,1.13,8.39,47.74,47.74,0,0,0,2.54,6.56l1.26-.47-2.55-9.28,1.34-.31c.62,2.67.7,5.64,2,7.92,1.47,2.58,3.84,6.11,6.16,6.38,3.49.41,5.56,1,6.68,4.41.34,1,1.52,1.81,2.71,3.15-.15-2.37-.23-3.84-.32-5.31l1-.21c.61,1,1.23,2,1.93,3.19.68-.91,1.19-1.57,1.73-2.3l3,3.69,1.06-1.53c2.46.9,4.31,1.7,6.23,2.27,4.59,1.34,9.12,2.91,10.71,8,1.24,4,3.5,4.31,7.14,2.58l-1.78-2.34,8.31-9.82c.86.79,2.48,3.55,4.35,3.73,3.72.37,6.57-3.57,6.38-7.63-.24-5.32-.54-10.64-.87-16-.17-2.7-.46-5.4-.69-8.1l-2-.07-.93,9.22-.52,0c-.39-2.3-.77-4.59-1.16-6.89l-1.52-.05-1.45,7.35c-.75-2.41-1.32-4.25-1.9-6.1l-1.27.22v8.82l-1,0c-.33-3-.67-6-1-9.15l-13.78-1.49c-.47,5.69-.88,10.75-1.3,15.8l-.47,0V343c-1.8-.42-3.4-.87-5-1.17-5.49-1-6-.58-6,5.13,0,4.56,0,9.12,0,13.68h-.54V339.89c3.64.57,7.4,1.18,11.16,1.73,9.79,1.41,19.67,4.19,28.89-2.18a7.1,7.1,0,0,1,2.4-.52c-2.34,11.64-.36,22.79,1.2,34.31,3.4-2.09,6.43-4,9.27-5.68l.72,4.24,6.38-6v7.85c5-1.51,5.78-7.84,11.32-7.54a11.81,11.81,0,0,0,5.64-1.4c3.44-1.71,6.49-4.8,10.07-5.5,6.73-1.32,10-7.26,15.89-10.16.06,4.65,3.17,5.63,6.94,5.76l3.28,2a36.52,36.52,0,0,1-2.08,5c-1.43,2.4-3.14,4.63-4.74,6.93-2.4-1.11-2.38-2.24-.34-3.89a73,73,0,0,0,5.32-5.24l-1.66-1.38L290,368.31l1.09.9,4.34-.52ZM86.18,238.3,89,239.49l.2-1.68-3.15.65c-.62-2.81-.62-2.81-3.73-1.07C83.85,237.77,85,238.06,86.18,238.3Zm13.38-93.41c-.69-2-1.37-4-2.06-6L96,135.52l-1.48,2.65-.75,3.65,2.91,4-.2,4.43,1.76.14,1.45-3.75ZM415.1,216.55c.49-2.47,1-5,1.46-7.42l-1.37-.46q-2.35,4.77-4.7,9.54c-3.46.35-6,1.75-7.34,5.28-.46,1.16-2.64,1.64-4,2.44-1.33-4.48-5.73-2.5-8.5-4-.14-.07-1.18,1.19-1.14,1.24,1.3,1.46,2.68,2.85,4,4.25-.08.47-.39,1.14-.19,1.39,3.43,4.26,15.85,1.9,18.14-3.39,6.81-2.43,6.46-9.11,9.19-14l-1.23-.94Q417.28,213.56,415.1,216.55Zm.29-15.5,11,9.69,1.14-1v4.65l2.79-3c.28,1.22.47,2.08.73,3.26,1.51-4.16-4-11-13.07-16.89Zm-58.58-29c2-.11,3.56.26,4.5-.33,5.31-3.31,7.23-3.24,12.63,1a14.09,14.09,0,0,0-2.41,1.76,12.05,12.05,0,0,0-2,3c-.06.14,1.42,1.36,1.65,1.22a11.14,11.14,0,0,0,3-2.61,39.32,39.32,0,0,0,2.54-4.44C365.42,165.7,362,164.37,356.81,172.07Zm33.06,26.74c-2.34-.19-4.67-1-6.27-.29-1.28.58-1.69,3.09-2.71,5.22l3.77,2.07ZM278.48,371.69c8.47,1.53,10.42.11,9.63-7.23L283,370.29Zm-15.67,2.8c4.24,3.51,7.87,2.54,9.87-1.47Zm93.5-213.36c-3.71-4.26-5.2-3.77-7.35,2.37ZM93.72,236.87l-.4-1.93-3.28,1,.28,1.39Zm8.4,10.12,1.07-1.25a4.16,4.16,0,0,0-1.29-.83c-.25,0-.63.46-1,.72Zm-5.29-22.31v1h2.62v-1Zm4.32,34.43-.72-.53-.56.87c.27.09.56.3.82.26S101,259.33,101.15,259.11Z"/><path class="cls-1" d="M306.12,363.42l-10.72,5.27v0c1.6-2.31,3.31-4.54,4.74-6.94a36.52,36.52,0,0,0,2.08-5l4-5h5l-7.23,9.61,3.44.41Z"/><path class="cls-1" d="M383.73,311c-.09,1.29.16,3.53-.32,3.7-1.52.55-3.81,1-4.91.24-3.1-2.18-4.67-.93-6.8,1.44-2.79,3.12-5.16,7.56-10.59,6.26l-2.59,4.44.94,1.23-.53.73-5-2.42c-1.4,4.45-2.84,9-4.28,13.57l.17-.18-3.7,4.34-1.17-.74,3.53-6.4-.43-.45-6.82,6.91c.59-3.41.95-5.54,1.51-8.84-5.59,5.88-10.54,11.07-16.09,16.89-.35-7.2,6.09-9,8.72-14.43-3.14,3.82-5.7,6.92-8.26,10l-1.61-1c-.34-.92-.69-1.84-1.57-4.18l-9.49,11.14,2.48-11.53-1-.33-2.65,8.3L303.7,346c.85,2.21,1.52,3.92,2.18,5.63l-6.94-2v5.21c-3.77-.13-6.88-1.11-6.94-5.76-5.89,2.9-9.16,8.84-15.89,10.16-3.58.7-6.63,3.79-10.07,5.5a11.81,11.81,0,0,1-5.64,1.4c-5.54-.3-6.36,6-11.32,7.54v-7.85l-6.38,6-.72-4.24c-2.84,1.73-5.87,3.59-9.27,5.68-1.56-11.52-3.54-22.67-1.2-34.31a7.1,7.1,0,0,0-2.4.52c-9.22,6.37-19.1,3.59-28.89,2.18-3.76-.55-7.52-1.16-11.16-1.73v20.78h.54c0-4.56,0-9.12,0-13.68,0-5.71.51-6.14,6-5.13,1.63.3,3.23.75,5,1.17v16l.47,0c.42-5.05.83-10.11,1.3-15.8l13.78,1.49c.35,3.14.69,6.14,1,9.15l1,0V345l1.27-.22c.58,1.85,1.15,3.69,1.9,6.1l1.45-7.35,1.52.05c.39,2.3.77,4.59,1.16,6.89l.52,0,.93-9.22,2,.07c.23,2.7.52,5.4.69,8.1.33,5.32.63,10.64.87,16,.19,4.06-2.66,8-6.38,7.63-1.87-.18-3.49-2.94-4.35-3.73l-8.31,9.82,1.78,2.34c-3.64,1.73-5.9,1.43-7.14-2.58-1.59-5.11-6.12-6.68-10.71-8-1.92-.57-3.77-1.37-6.23-2.27l-1.06,1.53-3-3.69c-.54.73-1,1.39-1.73,2.3-.7-1.17-1.32-2.18-1.93-3.19l-1,.21c.09,1.47.17,2.94.32,5.31-1.19-1.34-2.37-2.11-2.71-3.15-1.12-3.4-3.19-4-6.68-4.41-2.32-.27-4.69-3.8-6.16-6.38-1.29-2.28-1.37-5.25-2-7.92l-1.34.31,2.55,9.28-1.26.47a47.74,47.74,0,0,1-2.54-6.56,51.29,51.29,0,0,1-1.13-8.39c-.18-2.51,0-5.05-1.19-7.56v12.4l-6.54-8.36.71,6.16-1.76.2c-.14-3.13-.89-6.4-.24-9.36s-.18-3.77-2.84-4.29a85.19,85.19,0,0,1-8.53-2.67c3.88-4.38,7-7.9,10.11-11.39l-3.46,8.43.69.55,9.37-9c-.56,1.48-.85,3.14-1.73,4.4-1.69,2.42-3.71,4.61-5.6,6.9l1,.86,6.87-6L152,333.53l11-4.44c-.12,1.5-.25,3-.44,5.45l5.87-4.4-2.59,5.69,8.17-6.22c-1.26,5.26-4.22,8.3-10.2,7.27v10.06c4.34,3.05,4.23-1.6,6.22-3.94v8.38a20.41,20.41,0,0,0,1.33-6.32c.45-6.63.42-6.63,7.23-6.42.11,0,.22-.28.32-.42l-6.75-1.73,5.36-5.64c-.8,2.51-1.16,3.62-1.52,4.74l1.22.79,7.54-8.75-7.31-3.32-3.4-5.4-4.46-10.85c-3.14.24-1,6.67-4.92,2.67l-1.9-1c-1-1-1.94-1.92-2.9-2.89l-2.9-1-1.4-2.38c.33-1.22.67-2.44,1-3.66-.26-1.36-.51-2.73-.77-4.1-.06-.5-.12-1-.17-1.5l-2.18-3.28-1-2.11.13.15-.06-3.16c-.1-.82-.21-1.64-.32-2.46l-4.66-2.91c2.51.75,3.18-.19,2.17-2.46-1.59-3.58-3.25-7.14-5-10.93l-4.3,3v-4.73L133.35,273l.75.92,5-3.76.85.78-9.79,11.23,3.51,1.26c-1.09,1.22-2.26,2.07-2.75,3.21-.57,1.33-.49,2.94-.83,4.4a8.51,8.51,0,0,1-1.14,3.39c-1.59,2-3.48,3.77-4.57,6.44l4.39-1.85c-2.06,2.38-3.47,3.55-4.28,5.05s-5,2.41-1.47,5.45c.24.21-2.45,3.77-4.34,6.64l4.73-1.64c-2.44,6.24-2.12,7.25,1.87,7.31.71,0,1.42.41,2.12.4,2.3,0,4.58-.2,7.15-.32V324l5.16-2.86c.11,2.06.81,4,.12,5.17s-3.26,2.94-4.2,2.54c-9.38-4-18.6-8.36-28-12.69,9.42-13.59,13.5-28.21,16.48-43,2.26-11.24-1.49-22.26-5.8-32.51-5.79-13.74-8.19-27.94-9-42.66-.58-10.32-6.68-17.47-15.23-22.59-4.27-2.55-8.91-4.49-13.19-7-4.62-2.73-4.65-3.87-.7-9,4.74,8.38,10.15,2.83,15.49.83.41,3.08.82,6.16,1.3,9.68l3.32-2c.17,1.25.34,2.51.51,3.72l8.13-5.35c-3.23,3.71-.2,5.73,1.48,7.52L120.52,169l-.3,2.63c1-.24,2.19-.19,2.88-.77,2.33-1.92,4.48-4.06,6.7-6.12q-2.61,4.3-5.2,8.62c2.28-1.77,4.8-3.44,6.12-5.79,2.07-3.7,4.92-1.33,7.4-1.69l-.15,0a18.44,18.44,0,0,0,3.24,1.86c.73.25,2.16-.55,2.46-.19,2.56,3.08,3.29,0,4.63-1.21,2.43-2.2,4.9-4.35,7.36-6.51-1.81,3.72,2.06,4.18,3.8,7.61l5.67-10.77c4,.32,3.86,2.42,1.84,5,2.91.69,3.13-6.51,6.84-1.66l3.53-2.39,1.13-1.6,2.26-3,.61-.21c.27,2.24.54,4.47.88,7.25,5.42-7.16,9.89-9.31,15-7.2,1.4-2.64,2.16-6.07,4.27-7.55,2.48-1.73,6.15-1.76,9.3-2.53-.14,2.76.66,5.26,3.79,3.32,2.11-1.31,3.26-4.15,4.84-6.31l3.56,2.22c-.18-1.26-.36-2.59-.76-5.41,1.82,2.23,2.69,3.29,3.82,4.69,1.48-5.32,5-2.37,7.87-2.1.72.07,1.6.82,2.09.58,5.11-2.48,7.26,1.08,9.44,5l-4.62-.61c.62,1.27,1.1,2.27,2,4.27l-5.17-2.88c-3.49,1.79-6.76,3.21-9.72,5.11-1.11.71-1.48,2.56-2.35,4.19l-3.08-2.55L215,159l-2-1.92c-6.34,4.07-14.66,4-19.55,12,2.17,1.65,4.89,5,8.24,5.81,2,.5,5.83-2.38,7.32-4.71,3.48-5.45,3.8-1.22,4.8.39a52.06,52.06,0,0,0,6.72-.41c.85-.15,1.66-1.26,2.23-2.1,3.87-5.73,8.11-6.46,13.15-1.44,1-1.94,1.54-3.89,2.74-5.33,1-1.22,2.8-2.63,4.13-2.52,1.5.12,2.88,1.83,4,2.66a23.68,23.68,0,0,1,4.23-3.34c1.44-.77,3.3-.77,4.34-1v-6.4c6.3,2.52,13,3.06,15.18,10.2l-3.6,3.15-12.7,12.67.74.69,4.44-3.91,4.5,6.85-6.32-2.8c1.83,5.29-1.8,9.93-7.28,9.94.12.68.23,1.35.39,2.24l-4.51-2.8c-.74,3.08,5.51,3.83,1.58,7.2l.08-.09c-4.77.65-5.17-2.24-5.41-6.54l-7.15,8.81-4.06-4.26-4.6,4.06-5.34-4.4-1.67,5.36L212.11,191l-.69,4.18-9.72-7.26-1.15,4.71L192.7,187c-4.53,5.71-5.73-2.34-9-1.8l-.75,1.95c-3.28-1.85-5.08-7.48-9.22-2.91l-7.49-5.08c.12,2.06,1.12,3.14,1.72,4.41.22.47-.42,1.49-.9,2-.16.18-1.61-.35-1.6-.53.06-3.65-4.05-2.73-5.27-4.89-1.87-3.34-3.69-2.27-5.34.61l-5-6.54-1.1.87,1.91,6.13-1.08.75L143,177.67l1.55,5.36c-2.81-2.09-4.4-4.23-6.1-4.32-3.91-.23-7.88.53-11.83.92-3,.29-5.42,2.82-9,.75-2-1.15-5.23-.2-8-.2,2.35,4.11,4.48,7.84,6.6,11.57l.68-.4-.64-5.63L123.37,196c3-4.48-6.87-5.56-1.27-9.39,4.54,1.9,8.61,3.64,12.72,5.25a2.5,2.5,0,0,0,2.22-.18c3-3.57,4.9-.73,7.51.73,3.75,2.11,4,7.11,8.1,8.78.29.12.17,1.28.24,2,1.43-1.06,1.65-2.47,2.42-3.44a14.75,14.75,0,0,1,3.26-2.39l3.2,1.46.41,0,.36.21-.44,2.91-.29,3.39,8.54,4.81c-2.52-3.7-.88-4.63,1.91-5.28,1.08-.26,2-1.34,2.92-2.05l.36-1,.89-.49.25.4h.47l-.23.33.08-.33,9.51-2.4c.06,1,.17,2.74.29,4.59,3.09-5.08,4.37,1.41,8.66,1.13a40.27,40.27,0,0,1-4.54-3.32c-.33-.34-.14-1.51.19-2.09a2,2,0,0,1,1.68-.69c2.37.3,4.4,4.52,3.22,7.43l6.09-3.65c.34,1.43.61,2.61.89,3.79.54.56,1.09,1.12,1.63,1.69l7.6-9.29,2.67,5.16.11-.87,5,2.9,2.79-3,6.74,4.3.87,1.18L232,211l6.87-1.63,1.25.82.31,2.64,7,3.78,2.44-6.76a1.33,1.33,0,0,1,.54.18l1.19,1.18,3.52,3.46,5,1.26c7.5,3.35,7.5,3.35,10.89-2,1.78-.39,3.62.1,4.22-2.93.52-2.64,3.31-4,6.38-3,2.2,3.49,4.53,4.62,7.31.53.33-.49,1.08-.69,1.64-1,1.19-1.34,2.18-3,3.64-3.93,1.06-.66,2.74-.33,4.14-.44l1.12,1.88,7.46-12.07,3.15-5.37c.14.61.27,1.22.41,1.82,2.22-.59,4.76-.29,5.49-3.66.31-1.49,2.38-2.6,3.65-3.89,3.84,1,7.68,1.9,11.51,2.88,1,.24,1.93.6,3.36,1.06,4.48-3.75,4.43-4.51-1.52-10.8l2.62-4.78c-2.54-2.19-5.23-4.42-7.79-6.79-.61-.55-1.32-2-1.09-2.26a8.49,8.49,0,0,1,3.38-2.66,12.54,12.54,0,0,1,4.67-.22c3.51.21,7.29-.4,5,5.78-.82,2.21,1.66,6.19,3.51,8.72A171.75,171.75,0,0,0,355.2,187c2.55,2.78,5.56,5.13,8.32,7.73a10.09,10.09,0,0,1,2.52,2.93c2.67,6.07,5.14,12.22,7.75,18.31.95,2.24,2.28,4.34,3.1,6.62,1.65,4.63,3.15,9.32,4.56,14,1,3.43,1.7,7,2.71,10.37,1.48,5,5.06,5.54,9.45,4.25,5.58-1.64,11.08-3.83,16.78-4.63s11.49-.18,17.35.44c-7.11,8.57-15.9,13.37-27,13.35V274l.52.08,1.35-11.76,1.29.07q-.42,9.06-.85,18.13l.4.07q1.33-9.6,2.68-19.2l1.54.17v11.38c1.07-4.5,2-8.34,2.9-12.18l2,.36q-1.15,6.76-2.32,13.53l0-.15c-2.82,4.29,4,1.43,2.6,5.47l-7.13,4.43,8.43,3.15.07,1.24c-3.29.68-6.66,1.14-9.86,2.13a36.18,36.18,0,0,0-6,3l1.66,4.35L396,297.06l-.26,3.85-5.52-.49c3.76,1.77,7.62,2.54,4,7.24-.62-1.36-1-2.25-.81-1.8l-8.6-1c-.3,1.86-.67,4.12-1,6.38Zm-30.11-75.71-1.89-3.58c-.59-1-1.19-2-1.79-3-.34-1.53-.67-3.06-1-4.68h7.58l-2.24-4.89c7.52,2.17,2.18-5,5.12-6.08l-4-2.37c3.92-1.36,2.61-5,1.58-6.6-2-3.05-3.23-7.66-8.33-7.32-6.88.45-13.74,1-21.06,1.47l1.67,3.91a60.37,60.37,0,0,0-7.72,1.27c-.85.24-1.34,1.74-2,2.67-3.91-2-7.13-1.79-8.49,2.2l-5.75.37,3.07,3.91-.78.84-4.19-2.28,1.4,4.17-5.18-1.48,1,3.55-5.7-4.69,2.51,5.83-4.92-3.88c1,2.46,1.63,4,2.26,5.61-3.54-1.76-3.54-1.76-6.57,1.58,4.54,2.61,8.85,5.13,13.24,7.5.26.15,1.12-.83,1.7-1.28l3.56-2.45,6.87,1.85,2.68,1.49,7.36-2.43c.84,1.8,1.67,3.61,2.52,5.44l9.82-6.89,3,1.12,3.41,3.87c1.31,1.33,2.62,2.65,3.92,4,.66,1.3,1.31,2.61,2,3.91Zm-131.43-47,8.7-2.19.18-1.27-12.93-1.43-.25,1.08,4.31,3.81-11.76-5.22-1.35,2.08c1.44,1.17,2.76,3.09,4.36,3.35C216.28,189,219.27,188.45,222.19,188.32Zm65.23,85.39.15,0,9.31,4.93c1.53,1,3,2.73,4.6,3,8.68,1.23,17.39,2.34,26.12,3,5.33.38,10.73-.18,16.09-.32l0-1.54H311l-.1-.92,6.43-1.44c-6.83-.52-13.72-1.05-20.62-1.56.89-.67,1.78-1.9,2.69-1.92,3.08-.07,6.83,1.49,9.13.24,4.68-2.54,8.69-1.83,13.38.11l-2.34-4.27c1.11.85,2.28,2.51,3.31,2.43,5.6-.44,11.17-1.3,16.75-2,0-.5-.07-1-.11-1.52-.69-3.95,2.44-1.92,3.65-2,3.64-.31,7.33-.11,10.78-.11-.4-1.95-.69-3.35-1-4.74h4.66L354,260.09l2.55-1.59-7.37-1.31,3.23-3c-8.06,1.69-9.92-6.75-16.13-8.32l1.73,4.06-.92,1-8-5.39-.52.55,3.14,5.07c-8.29.09-10.17-9-16.89-9.53l1.4,3.94.15,0-10.51-3.35c.5.9,1.09,1.95,1.68,3l-1,1.41c-2.34-1.36-4.66-2.75-7-4.08a23.77,23.77,0,0,0-4.08-2c-1.17-.38-2.78.12-3.66-.51a87.67,87.67,0,0,1-6.75-5.78l-1,1,6,6.77-15.82-8.25,1,3.94-.82.65-9.13-7.33-.66.81,4.57,5.72-1,1.1-14.52-10.81c.71,2.46.95,3.31,1.5,5.21-2.47-2.34-3.88-4.05-5.64-5.22-1.43-.94-4.35-2.16-4.79-1.66-3,3.46-4.4.13-6.4-1.08a25.55,25.55,0,0,0-4-1.6l-.7,1.61c3.66,4,7.13,8.18,11,11.93s6.46,8.38,10.91,11.57c5.47,3.91,10.49,8.45,15.71,12.72l3.77,3.44q5.86,4.41,11.72,8.83A2.88,2.88,0,0,0,287.42,273.71ZM200.65,316.8c.32,1.26.64,2.51,1.21,4.71l-9.52-6.45-12.05-13.58-1,.51c.44,2.63.87,5.25,1.45,8.76l1.27-3.48.88,0,1.43,8.68.61,0,.45-4.76h.81q1.36,6.33,2.74,12.68l.59-.16-1.28-10.33,4.18,1.66,11.1,8.94c.95,5.09,3.68,4.44,6.93,2.16.65,1.26,1.29,2.53,1.63,3.18,9.36-4.53,6.33-11.3,3.34-17.48l-4.28,1.36c.38-2.74.75-5.48,1-7.24l-6.3,3.4,3.25-8.47-6.8,4.26-1.78-4.19,6.83-5.06-3.79-8.5,1.39-1.17-5.49-1.21,1.51-4.07-7.94-8.21,2.41-3.06c-2.24-3.1-3.76-5.88-5.92-8a67.41,67.41,0,0,0-9.46-7.72c-2.71-1.85-5.43-4.69-8.66-2.63l-12.17-11.38-8.14,14.42,1,.57,2.13-1.67c-.17,1.71-.3,3.1-.49,4.94,2.79-2.71,2.79-2.71,7.7,2.8l-5.52,11.8,1.13.55q.88-2.5,1.76-5l.62.13-.72,9.58,1.26-2.58,2.77,8.44,1.09-2.41,3.71,12.12,1.73-3c5.16,2.3,3.59,7.26,4.81,11.57.43-2.29.75-4,1.07-5.73l.86.12q.41,3.59.79,7.17l.61-.09c.28-1.52.55-3,.9-5l3.84,2.32,8.92,6c.55,3.06,1.51,5.63,5.49,4.63l2.39,1.39C195.93,315.72,198.64,316.11,200.65,316.8Zm77.87-9.49-.93-1.33c-1.76-5.64-5-9.9-8.94-14.54-4.36-5.19-8.82-5.91-14.7-7.61l2.61,4.62-13-3.2c1.93,3.26,3.28,5.51,4.62,7.77l-1,1c-3.14-3.56-5.7-7.66-10.93-8.52-4.86-.79-9.51-2.78-14.33-3.94-4.27-1-8.64-1.64-13-2.43l-.85,1.8c5.15,7.61,10.29,15.23,15.68,23.19l-4.37-.49c.64,6.18,7.77,6.2,9.69,11.55l-5.3-2-.43,1.17,10.08,5,1-1c-1.61-4.21-3.23-8.42-4.57-11.9l9.75.53,7.67,3c1.43,4.74,6.24,6.46,9.23,5.12,3.51-1.58,4.87-.66,7.26,1.16-.89-1.59-2.28-2.29-3.55-3.15a14.39,14.39,0,0,1-3.89-3.09,39.29,39.29,0,0,1-2.94-6c2.26-5.11,4,1.49,6.39.32-.9-1.67-1.75-3.22-3-5.47l4.34.43-.14-.05c.89,1.46,2.44,2.89,2.53,4.4.24,3.74,2.31,3.76,5,3.24.63,2.58,1.25,5.15,1.88,7.73l.78-.21-.87-5.39,1.11-.65,3.59,3.34,5.44-.76Zm-71.35-61.14,3,1-.07-2,1.6-1.22,3.36,1c1.79-.88,3.39-2.88,5.66-1l.46,0,10.18,6.16.85-2.22,3.33,1c4.84,6.12,4.84,6.12,9.46,5.48-1.32-1.89-2.6-3.75-3.89-5.61.34-1.34.69-2.68,1.16-4.51l5.24,4.38.87-.87c-5.06-4.86-9.79-10.15-15.31-14.41a13.93,13.93,0,0,0-11.6-2.7c-7.37,1.44-15.15,2.68-22.19-.79a2.8,2.8,0,0,1-2.4,1.28,36.54,36.54,0,0,1-4.27-1.1c2.17,2.48,4.17,4.76,6.16,7.05l-1.12,0L187.19,230c-3.88,3.17-7.43-2.25-11.35-.95l1.51,2.59-13.25-2.27c-.16.88-.38,2-.6,3.19l13.34,12.56,5.94-.79v-.81l9.34,3.86.61-1.36-1.84-1c1.34-.27,3-1.2,4-.69,2.13,1.19,3.87,3.07,5.79,4.65.19.15.52.12.81.18l-.36-1.32Zm110,55.43c.78-1,1.55-2,2.32-3.07-.37-1.1-.73-2.2-.78-2.35,2.12-.15,3.57-.69,4.59-.25,3.59,1.58,8.28,2.22,8.54,7.7q-1-5-1.91-9.9c1.49,1.06,1.76,2.57,2.55,3.73s2,2.75,3.22,2.89c8,1,8,.88,8,8.65v4.39h.7V300.16c-1.54-.11-3.19.25-4.08-.41-1.12-.84-2.56-2.84-2.23-3.75,1.86-5.13.72-6.88-5-6.68.32,1,.65,2,1,3-7.3-.19-14.07-5.43-20.38-1.14-2.84-.8-5.14-1.16-7.18-2.09-2.55-1.16-4.76-3.12-7.35-4.14a114.16,114.16,0,0,0-13.27-4.32A63.32,63.32,0,0,0,275.59,279c-2.86-.26-4.35,1.71-3.21,4.11a114,114,0,0,0,7,11.81c1.29,2,2.84,3.88,4.41,6l8.83,3.22-4.26.85c.58,1.52,1.09,2.88,1.71,4.49l.77-2.48,1.19,0c.51,2.67,1,5.34,1.55,8.13,2.58.38,5.2.85,7.84,1.15,6,.7,6,.67,5.64-5.15l5.31,1.13-2.58-7c5.85-2.46,4.77,3.58,8.07,6.43-1.12-3.95-1.87-6.42-2.44-8.92C315.39,302.47,316.53,302,317.12,301.6ZM249.65,263l3.7,4.15c-8.09-1.71-14.95-3.24-21.86-4.53-1.12-.21-2.45.69-4.67,1.4l-16.48-5.86.08,1.5c-1.63.25-3.4,1-4.86.63-2.82-.75-5.46-2.15-8.81-3.55l1,3.52-1.56,1.22-5.29-7c1.72,6,23.88,17.83,33.17,18.23l-2-3.93,6.83,1.34,1.07-4.21,7.66,6c3-3.64,4.14.54,6,1.26,2.51,1,5.07,1.88,7,2.6,0,.16-.21-.67-.49-1.63l4.15.57L252.36,270l7.84,3.5.31-.79c-.73-.62-1.46-1.24-2.18-1.87l.33-.85,10.52,1.3C264.07,266,257.41,264.81,249.65,263Zm-16.78-42.44,1.06-2.11-17.35-7.26-.79,1.75Zm117.74,30.05c3.27,2.93,5.62,5.27,8.26,7.21.65.48,3.09-.05,3.3-.64,1-2.68-1.57-5.83-4.53-6ZM153.52,228.14c-1.81.83-3.38,1-3.93,1.9-1.9,3-1.79,7.83.11,10.46C150.87,236.71,152,233.17,153.52,228.14Zm33.75-15.34-.3,1.66c2.36,0,4.73-.14,7.08,0,2.68.21,5.34.71,8.44,1.14C198,209.72,192.26,213.33,187.27,212.8Zm65.56,122.48-1.4,0L252.66,356l.17,0ZM133.75,215.66c-1.81,4.22-3.42,8-5,11.67l.57.29,5-8.73.7.42-1.17,5.56C134.79,222,139.6,218.93,133.75,215.66ZM196.3,360.23h.84V345.06h-.84ZM122.25,199.4c-.94,3.68-1.64,6.39-2.33,9.1C124.52,206.89,126.62,204.52,122.25,199.4Zm263.22,89.85,1-.07q-.75-8.15-1.51-16.31l-1.25.13ZM201.34,221.2l-.6,2.1,13.38,3,.17-.54Zm-62.21-16.87-.8.95c1.88,2.4,1.56,7.3,8,5.6ZM374.36,293h.28l1-14.38-1.27-.08Z"/><path d="M319.59,181.81c-1.27,1.29-3.34,2.4-3.65,3.89-.73,3.37-3.27,3.07-5.49,3.66-.14-.6-.27-1.21-.41-1.8-1.83-1.54-3.64-3.1-5.46-4.66l2.29-4.41-4.53,1.33-2.77-1-4,2.18h-2.05L289.49,179l-1.89-6.68,2.94-.4c4.84,1.27,5.43.8,4.66-3.74l3.42.62c-.28,4.07,1.76,3.53,4.23,2.14l2.88-1.16c3.72-3,7.86-1.94,10.55.68C319.14,173.23,322.23,177,319.59,181.81Z"/><path d="M155.66,159.82c-2.46,2.16-4.93,4.31-7.36,6.51-1.34,1.22-2.07,4.29-4.63,1.21-.3-.36-1.73.44-2.46.19a18.44,18.44,0,0,1-3.24-1.86c1.64-3.49,6.44-5.19,5.65-10l-.13.09c.76.39,2.13,1.18,2.17,1.12,1.73-2.68,3.34-5.44,5-8.19l-.13.09c3.55.42,7.13-3.63,7.13-8.1l-.14.09,4.15,1.43.83,1.49c-.46,1.67-.91,3.35-1.36,5l-.77,1.77-1.83-1.49-1.86,4.72L155.5,160Z"/><path d="M290.54,171.92l-2.94.4c-.76.11-2.13.45-2.19.29-1.46-3.82-4.25-2.61-6.9-1.93l-5-8.35c.49-1.13,1-2.26,1.48-3.39l6-.3a30,30,0,0,0,1.17,5.2c.12.31,2.74.27,3-.19a20,20,0,0,0,1-4.77l7.06,3c.12.48.25,1,.37,1.43l.63,3.85C289.36,166,290.12,169.11,290.54,171.92Z"/><path d="M399.12,225.93c1.39-.8,3.57-1.28,4-2.44,1.38-3.53,3.88-4.93,7.34-5.29l4.52-1.66q-1.77,4.46-3.53,8.92c-2.29,5.29-14.71,7.65-18.14,3.39-.2-.25.11-.92.19-1.39Z"/><path d="M100.24,167.93l-3.32,2c-.48-3.52-.89-6.6-1.3-9.68l-.11.17,6.54-5.57,5.11-3,1.62,6.92Z"/><path d="M155.78,319.4l-9.37,9-.69-.55,3.46-8.43c0-1.32,0-2.6-.1-3.89-.26-4.24,1.12-6.72,5.92-5.59l1.64-.11,3,3c0,1.54,0,3.08-.08,4.63Z"/><path class="cls-1" d="M415.39,201.05l2.55-3.28c9,5.84,14.58,12.73,13.07,16.89-.26-1.18-.45-2-.73-3.26l-2.79,3v-4.65l-1.14,1Z"/><path d="M108.78,158.84l-1.62-6.92a4.54,4.54,0,0,0,.39-.48l3.92-4.51,3-4.07,2.13,0,.86.19c.06.87.11,1.74.17,2.62l-2.11,2.94c-.3,1.06-.61,2.12-.92,3.18l.09,3L110,158.87Z"/><path class="cls-1" d="M134.37,142l2.19-3.1c.63.81,1.25,1.63,1.87,2.44l.93.8c-.41.91-.83,1.81-1.24,2.72L127.58,156l-4-.41,4-6.61Z"/><path class="cls-1" d="M356.81,172.07c5.2-7.7,8.61-6.37,20-.34a39.32,39.32,0,0,1-2.54,4.44,11.14,11.14,0,0,1-3,2.61c-.23.14-1.71-1.08-1.65-1.22a12.05,12.05,0,0,1,2-3,14.09,14.09,0,0,1,2.41-1.76c-5.4-4.28-7.32-4.35-12.63-1C360.37,172.33,358.83,172,356.81,172.07Z"/><path d="M273.51,162.33l5,8.35-1.32,2.25L267,164.08l3.6-3.15Z"/><path class="cls-1" d="M134.37,142l-6.86,7-4.31-3.87.36-1.52c.26-.56.52-1.11.77-1.66,1.37-.32,3-.3,4-1C130.89,139.2,132.75,139.55,134.37,142Z"/><path class="cls-1" d="M138.12,144.84c.41-.91.83-1.81,1.25-2.72h-.05l4.92-3.43c-.07.16-.21.31-.2.46.48,4.6-.49,8.69-4,12-.51.48-.57,1.44-.82,2.16-.9-.76-1.82-1.5-2.73-2.25C137,149,137.57,146.9,138.12,144.84Z"/><path class="cls-1" d="M123.2,145.07l4.31,3.87-4,6.61-1,.6c-.51-.43-1-.87-1.51-1.31l-.45-2,.06-3.47.16-2Z"/><path d="M298.94,354.83v-5.21l6.94,2,.38.16-4,5Z"/><path class="cls-1" d="M349.83,340.05l-.17.18c5.15-1.27,1.89-6.5,4.39-9.64l4.63,2.85-10,11.91-.66-.45Z"/><path class="cls-1" d="M410.25,274.6l4.67-13.31,1.91.43q-1.41,6.88-2.81,13.77c-1.24-.36-2.47-.72-3.72-1.06C410.29,274.45,410.25,274.6,410.25,274.6Z"/><path class="cls-1" d="M411.48,225.46q1.77-4.47,3.52-8.92h.1q2.17-3,4.34-6l1.23.94C417.94,216.35,418.29,223,411.48,225.46Z"/><path class="cls-1" d="M389.87,198.81l-5.21,7-3.77-2.07c1-2.13,1.43-4.64,2.71-5.22C385.2,197.78,387.53,198.62,389.87,198.81Z"/><path d="M219.46,139.83c-1.58,2.16-2.73,5-4.84,6.31-3.13,1.94-3.93-.56-3.79-3.32,2.66,1,3.85.08,4.59-2.67S217.89,137.3,219.46,139.83Z"/><path class="cls-1" d="M102.05,154.89l-6.54,5.57c-.54-5.13-.54-5.13,5.6-10.69Z"/><path class="cls-1" d="M278.48,371.69l4.5-1.4,5.13-5.83C288.9,371.8,287,373.22,278.48,371.69Z"/><path class="cls-1" d="M286.09,158.88a20,20,0,0,1-1,4.77c-.21.46-2.83.5-3,.19a30,30,0,0,1-1.17-5.2l1.5-1.72Z"/><path class="cls-1" d="M143.62,155.83c.79,4.85-4,6.55-5.65,10l.15,0c-.22-2.37-.45-4.74-.67-7.12,3.44.1,3.68-1.43,2-3.94Z"/><path class="cls-1" d="M383.73,311l.09.2L386,306c3.4.57,7,.67,4.74,6Z"/><path class="cls-1" d="M157.62,140.84c0,4.47-3.58,8.52-7.13,8.1C151.1,144.68,153.27,141.8,157.62,140.84Z"/><path class="cls-1" d="M161.63,142.36l-4.15-1.43,5.32-8.2,1.74.51c-.35,1.43-.62,2.89-1.08,4.29C162.93,139.17,162.25,140.76,161.63,142.36Z"/><path class="cls-1" d="M282.48,156.92l-1.5,1.72-6,.3C276.5,152.92,277.89,152.54,282.48,156.92Z"/><path class="cls-1" d="M150.62,148.85c-1.62,2.75-3.23,5.51-5,8.19,0,.06-1.41-.73-2.17-1.12C144.1,152.08,147.58,148.62,150.62,148.85Z"/><path class="cls-1" d="M295.4,368.69l-4.34.52-1.09-.9,8.75-10.12,1.66,1.38a73,73,0,0,1-5.32,5.24c-2,1.65-2.06,2.78.34,3.89Z"/><path class="cls-1" d="M399.12,225.93l-5.59,1.53c-1.37-1.4-2.75-2.79-4-4.25,0-.05,1-1.31,1.14-1.24C393.39,223.43,397.79,221.45,399.12,225.93Z"/><path class="cls-1" d="M415.1,216.55H415l-4.51,1.66,4.7-9.53,1.37.46C416.07,211.6,415.59,214.08,415.1,216.55Z"/><path class="cls-1" d="M300.37,155.87c1.08.13,2.69-.14,3.13.45.91,1.25,1.21,3,1.76,4.46-1.35-.1-2.7-.16-4-.34a9.42,9.42,0,0,1-1.79-.6l.19.13Z"/><path class="cls-1" d="M262.81,374.49l9.87-1.47C270.68,377,267.05,378,262.81,374.49Z"/><path class="cls-1" d="M356.31,161.13,349,163.5C351.11,157.36,352.6,156.87,356.31,161.13Z"/><path d="M139.46,154.85c1.67,2.51,1.43,4-2,3.94l.15.17c.18-1,.35-2,.53-3l-1.26-.3L135.14,159l-.73-2.84.12-.16,2.08-5.1-.13.17c.91.75,1.83,1.49,2.73,2.25C139.29,153.81,139.38,154.33,139.46,154.85Z"/><path class="cls-1" d="M181.34,152.85l-.61.21-.13-.11-1.12-2.16.16.14,1.86-5.05C185.62,147.85,185.59,149.33,181.34,152.85Z"/><path class="cls-1" d="M299.43,159.84l3.08,5.13.14-.15L301.48,166l.15-.16L296.46,164l3.16-4Z"/><path class="cls-1" d="M120.77,147.41c0,.66-.1,1.33-.16,2l-3.11,3.54-.17.1h-1.59l-.11-.1-1.17-1.18.15.07c.31-1.06.62-2.12.92-3.18l3.13-2.73Z"/><path class="cls-1" d="M156.64,309.83l-1.64.11-2.37-6-.15.09,1.16-1.16-.15.13,2.1.5,1.4,2.38c.17,1,.35,2.08.52,3.12l.12-.13L156.48,310Z"/><path d="M146.21,289q-2.79-5.08-5.6-10.17l3,1.08,3,6.06Z"/><path d="M181.5,145.88l-1.86,5.05c-4.46.76-2.08,3.1-1.17,5.09l-1.12,1.59c-.94-1.27-1.89-2.53-2.83-3.79l.09.14c.3-1.37.6-2.75.89-4.12l3.63-3Z"/><path d="M296.46,164l5.17,1.85c-.23,3.52,1.88,2.86,4,2.21,0,.57.08,1.15.13,1.73l-2.88,1.16-3.37-3q-1.44-2-2.87-4.07Z"/><path d="M299.62,160l-3.16,4,.15-.16-3.09-.5c-.12-.47-.25-1-.37-1.43.13-.2.24-.41.35-.62l4-3.39,2.83-2Z"/><path class="cls-1" d="M135.5,136.09c.55-2.63,1.5-4.79,4.85-4.09l-1.71,6-2.16.1-.88-.74C135.57,137,135.53,136.52,135.5,136.09Z"/><path class="cls-1" d="M297.54,157.89l-4,3.39c-.08-1.47-.15-2.95-.23-4.43Z"/><path class="cls-1" d="M140.39,132.17c3.85.38,5.83,2,4.17,6.14l-3.11-1.37C141.09,135.35,140.74,133.76,140.39,132.17Z"/><path class="cls-1" d="M108.64,141.89c.23-2.48,1.16-4,4-2.95l-.15-.14c0,1,0,2.1,0,3.14l.17-.15L111.48,143l.15-.14-3.14-1Z"/><path class="cls-1" d="M99.64,146.64l-1.45,3.75-1.76-.14.2-4.43-.14.14Z"/><path class="cls-1" d="M146.21,289c.14-1,.27-2,.4-3l-.15.07,1.19-1.2-.14.15h2.09l-.12-.15V289l.14-.14L148.44,290l.13-.16Z"/><path class="cls-1" d="M168.62,145c.51-2.61,1.6-4.53,4.75-4-.57,1.31-1.15,2.62-1.73,3.92-.35.36-.71.7-1.06,1l-2.09-1.13Z"/><path class="cls-1" d="M111.47,146.93l-3.92,4.51-1.3-.49,1.41-3.13-.16.15,4.12-1Z"/><path class="cls-1" d="M161.1,148.87c.45-1.67.9-3.35,1.36-5l2.53.93-2.49,3.6Z"/><path class="cls-1" d="M305.6,168.05c-2.09.65-4.2,1.31-4-2.21l-.15.16,1.17-1.18-.14.15Z"/><path class="cls-1" d="M143.64,279.87l-3-1.08c.82-2,1.85-3.46,4.27-2l-.37,2.06.16-.09L143.5,280Z"/><path d="M153.47,290.92c.72,1.09,1.45,2.18,2.17,3.28l-4.15,2.72-.08.12-.66-.11-.13-2.07-.13.1,3.12-4.14Z"/><path d="M140.39,132.17c.35,1.59.7,3.18,1.06,4.77l.17-.11-3.12,1,.14.16,1.71-6Z"/><path class="cls-1" d="M148.49,293.25c0-1.14.06-2.29.08-3.43l-.13.16,1.18-1.17-.14.14h3.16l-.13-.15c0,.71,0,1.42,0,2.13l.17-.14L151.48,292l.16-.16L150.46,293l.14-.18Z"/><path class="cls-1" d="M96.63,145.82l-2.91-4,2.9.13-.16-.15,1.2,1.17-.16-.16-1,3.14Z"/><path class="cls-1" d="M116.62,138.91l2.29-3.29,1.34.54c-.33,1.66-.66,3.31-1,5-.92-.78-1.85-1.55-2.78-2.32Z"/><path d="M149.6,285h-2.09c-.3-1.7-.61-3.41-.91-5.11l.16-.11.84.7,4.65,2.89C151.37,283.84,150.48,284.4,149.6,285Z"/><path d="M141.45,136.94l3.11,1.37-.33.38-4.91,3.42,2.3-5.28Z"/><path class="cls-1" d="M104.37,148.46l2.23-4.52-.12-.13,1.14,1.14-.1-.12c0,1,0,2.09,0,3.14l.16-.15Z"/><path class="cls-1" d="M166.38,144.83l2.24.13-.13-.14c0,1.38.11,2.76.17,4.14l-3.15-1.17.13.1Z"/><path class="cls-1" d="M94.47,138.17,96,135.52l1.55,3.39.14-.1L96.46,140l.16-.14Z"/><path class="cls-1" d="M97.5,138.91c.69,2,1.37,4,2.06,5.93-.69-.7-1.37-1.36-2.06-2l.16.16-1.2-1.17.16.15v-2.1l-.16.14,1.18-1.19Z"/><path class="cls-1" d="M93.72,236.87l-3.4.44L90,235.92l3.28-1Z"/><path class="cls-1" d="M179.13,146.86l-3.63,3,.13.15,1-4.17-.14.14Z"/><path d="M97.5,142.82c.69.66,1.37,1.32,2.06,2,0,.63,0,1.21.08,1.8L96.49,146Z"/><path class="cls-1" d="M152.63,303.9l-1.08-4.64,2,.71-.11-.15,0,3.14.15-.13L152.48,304Z"/><path class="cls-1" d="M174.37,141.81c3.72-.17,2.25,2.34,2.14,4.15l.14-.14-2.06.19-1.14-1.12Z"/><path class="cls-1" d="M112.64,138.94v-3l1.22-.33,1.64,3.28.15-.13L114.48,140l.15-.13-2.14-1Z"/><path class="cls-1" d="M86.14,238.34l-3.82-1c3.11-1.74,3.11-1.74,3.73,1.07Z"/><path class="cls-1" d="M116.61,142.91l-2.13,0,.12.12,0-3.13-.15.13,1.17-1.18-.15.13,1.12,0-.13-.12Z"/><path d="M104.37,148.46l3.29-.64L106.25,151Z"/><path d="M96.62,139.86V142l-2.9-.13.75-3.66Z"/><path class="cls-1" d="M150.62,294.86l.13,2.07-2.94,1c.28-1.88.49-3.33.71-4.78Z"/><path d="M116.61,142.91l-.12-4.12c.93.77,1.86,1.54,2.78,2.32l-1.8,2Z"/><path d="M174.37,141.81l-.92,3.08.15-.08h-2.1l.14.09c.58-1.3,1.16-2.61,1.73-3.92Z"/><path class="cls-1" d="M86.05,238.46l3.15-.65-.2,1.68c-.94-.4-1.88-.79-2.84-1.17Z"/><path class="cls-1" d="M102.12,247,101,245.63c.32-.26.7-.77,1-.72a4.16,4.16,0,0,1,1.29.83Z"/><path class="cls-1" d="M96.83,224.68h2.62v1H96.82Z"/><path d="M153.58,300l-2-.71c0-.74-.09-1.48-.14-2.22l.08-.12,3.13-.1C154.27,297.87,153.93,298.92,153.58,300Z"/><path class="cls-1" d="M106.6,143.94l2-2.05-.15-.11-1,3.05.1.12-1.14-1.14Z"/><path d="M118.66,145.93l-3.13,2.73,2.11-2.94Z"/><path d="M144.51,278.88l.37-2.06c.62,1,1.25,1.94,1.88,2.91l-.16.11Z"/><path d="M166.38,144.83c-.25,1-.49,2-.74,3.06l-3.14.49,2.49-3.6Z"/><path d="M136.48,138.11l2.16-.1-.14-.16c0,1.16,0,2.31-.07,3.47-.62-.81-1.24-1.63-1.87-2.44C136.53,138.62,136.51,138.36,136.48,138.11Z"/><path d="M150.62,294.86l-2.1-1.71,0,.09,2.1-.43c0,.72-.07,1.44-.11,2.15Z"/><path class="cls-1" d="M101.15,259.11c-.16.22-.29.57-.46.6s-.55-.17-.82-.26l.56-.87Z"/><path d="M135.5,136.09c0,.43.07.86.1,1.28C135.56,136.94,135.53,136.51,135.5,136.09Z"/><path d="M124.33,141.89c-.25.55-.51,1.1-.77,1.66C123.82,143,124.08,142.44,124.33,141.89Z"/><path d="M316.22,245.51l-1.4-3.94c6.72.48,8.6,9.62,16.89,9.53L328.57,246l.52-.55,8,5.39.92-1-1.73-4.06c6.21,1.57,8.07,10,16.13,8.32l-3.23,3,7.37,1.31L354,260.09l3.62,4.85H353c.29,1.39.58,2.79,1,4.74-3.45,0-7.14-.2-10.78.11-1.21.11-4.34-1.92-3.65,2a34.87,34.87,0,0,1-4.71-2.43c-6.22-4.48-6.19-4.53-10.78,1l-5,1-2-.54-10.2-4.56c-1.34,2.8-2.27,4.72-3.19,6.65l-16.26.63c1.26-.92,2.42-2.37,3.8-2.65,2.25-.44,4.66-.12,7-.12,0-.5-.05-1-.07-1.49-4.93-3.23-10-.34-15-.47l-.58,1.21,4.17,3.43q-5.85-4.42-11.72-8.83c3.67,2.27,7.45,2.87,11.56.32a11.9,11.9,0,0,0-6-1.86c-2.33.06-4.55.89-5.58-2.27-.09-.26-2.46.23-3.77.37-5.22-4.27-10.24-8.81-15.71-12.72-4.45-3.19-7.09-7.88-10.91-11.57s-7.35-7.93-11-11.93l.7-1.61a25.55,25.55,0,0,1,4,1.6c2,1.21,3.38,4.54,6.4,1.08.44-.5,3.36.72,4.79,1.66,1.76,1.17,3.17,2.88,5.64,5.22-.55-1.9-.79-2.75-1.5-5.21l14.52,10.81,1-1.1-4.57-5.72.66-.81,9.13,7.33.82-.65-1-3.94L290,241.93l-6-6.77,1-1a87.67,87.67,0,0,0,6.75,5.78c.88.63,2.49.13,3.66.51a23.77,23.77,0,0,1,4.08,2c2.37,1.33,4.69,2.72,7,4.08l1-1.41c-.59-1-1.18-2.09-1.68-3,3.49,1.11,7,2.23,10.49,3.36-.87.62-1.71,1.24-3.63,2.65l8.92,3.36c.31-.66.61-1.33.92-2ZM321.7,264l6.46,1.17c-2.06-4.46-4.64-6.17-8.39-3.13L312,256.91l-.74,1,4.08,4.53-9.2-5.31c-.21,3.69,6.72,9.11,9.77,8,.29-.1.33-.87.49-1.32Zm-16.16-16.87c6.85,9.17,8.34,10,14.16,7.43C313.9,253.25,313,245.32,305.54,247.09Zm18.85,10.46c5.14,1.56,6.14,8.94,12.93,6.85C332.79,257.66,329.69,255.85,324.39,257.55Zm22.95,5.72.34-1.64-9.78-2.45C339.92,264.85,341.42,265.35,347.34,263.27Zm-70.85-24.88-1.11,1.51c3.82,1.55,4.55,7.4,11.5,6.62Zm25,25.54-7.38-2.1C295.69,265.92,297.9,267.58,301.52,263.93Zm-16.25-10.46,1.16-2.51L279,247.4l-1.08,2.17Z"/><path d="M229.5,207.44l-6.74-4.3-2.79,3-5-2.9-.11.87-2.67-5.16-7.6,9.29c-.54-.57-1.09-1.13-1.63-1.69-.28-1.18-.55-2.36-.89-3.79L196,206.36c1.18-2.91-.85-7.13-3.22-7.43a2,2,0,0,0-1.68.69c-.33.58-.52,1.75-.19,2.09a40.27,40.27,0,0,0,4.54,3.32c-4.29.28-5.57-6.21-8.66-1.13-.12-1.85-.23-3.63-.29-4.59l-9.51,2.4h-.32l-.25-.4c-.29.17-.59.33-.89.49l-.36,1c-2.71-1.8-5.35-3.74-8.18-5.34-.89-.5-2.3-.1-3.47-.12l-1,1.68-.36-.21-.41,0,0-2.93-3.18,1.47a14.75,14.75,0,0,0-3.26,2.39c-.77,1-1,2.38-2.42,3.44-.07-.68.05-1.84-.24-2-4.05-1.67-4.35-6.67-8.1-8.78-2.61-1.46-4.52-4.3-7.51-.73a2.5,2.5,0,0,1-2.22.18c-4.11-1.61-8.18-3.35-12.72-5.25-5.6,3.83,4.29,4.91,1.27,9.39l-7.08-10.31.64,5.63-.68.4c-2.12-3.73-4.25-7.46-6.6-11.57,2.77,0,6-1,8,.2,3.57,2.07,6-.46,9-.75,4-.39,7.92-1.15,11.83-.92,1.7.09,3.29,2.23,6.1,4.32L143,177.67l6.54,4.33,1.08-.75-1.91-6.13,1.1-.87,5,6.54c1.65-2.88,3.47-3.95,5.34-.61,1.22,2.16,5.33,1.24,5.27,4.89,0,.18,1.44.71,1.6.53.48-.55,1.12-1.57.9-2-.6-1.27-1.6-2.35-1.72-4.41l7.49,5.08c4.14-4.57,5.94,1.06,9.22,2.91l.75-1.95c3.3-.54,4.5,7.51,9,1.8l7.85,5.61,1.15-4.71,9.72,7.26.69-4.18,7.55,6.13,1.67-5.36,5.34,4.4,4.6-4.06,4.06,4.26,7.15-8.81c.24,4.3.64,7.19,5.41,6.54.1.82-.1,2,.36,2.38a42.21,42.21,0,0,0,4.45,3.12l1.74-3.2c-1.73-.87-3.45-1.78-5.23-2.56-.34-.15-.92.22-1.4.35,3.93-3.37-2.32-4.12-1.58-7.2l4.51,2.8c-.16-.89-.27-1.56-.39-2.24,5.48,0,9.11-4.65,7.28-9.94,2.31,1,4.32,1.91,6.3,2.77,2.52,2.31,5.05,4.65,7.58,7l1.38,5.28c-1.39-.27-3.14-1.16-4.06-.62s-.9,2.5-1.3,3.84l-5.78.52-.35,1.52,7.15,6.46,0,.41,1.29,4-5.58,1.13c-.21-.14-.41-.29-.61-.44.22-3.15.79-6.45-3.54-7.61l-5.48,4-2.67,2.06c-1.4-.45-2.21-4.28-4.31-.76L239,204.26l-3.7-6.79c-1.35,2.6-2.69,4.63-2.46,4.82a37.59,37.59,0,0,0,5.2,3.31l.81,3.76L232,211l-1.57-2.35,4.12.12c-.16-1.11.07-2.69-.57-3.22-1.09-.9-2.72-1.14-4.12-1.65C229.71,205.07,229.6,206.25,229.5,207.44Zm28.09-22.1c2.34,2.22,4.15,5.85,7,1C261.19,181.79,261,181.75,257.59,185.34Z"/><path d="M182.15,300.86l-3.84-2.32c-.35,2-.62,3.48-.9,5l-.61.09q-.39-3.58-.79-7.17l-.86-.12c-.32,1.72-.64,3.44-1.07,5.73-1.22-4.31.35-9.27-4.81-11.57l-1.73,3-3.71-12.12-1.09,2.41L160,275.36l-1.26,2.58.72-9.58-.62-.13q-.87,2.5-1.76,5l-1.13-.55,5.52-11.8c-4.91-5.51-4.91-5.51-7.7-2.8.19-1.84.32-3.23.49-4.94l-2.13,1.67-1-.57,8.14-14.42,12.17,11.38c3.23-2.06,6,.78,8.66,2.63a67.41,67.41,0,0,1,9.46,7.72c2.16,2.14,3.68,4.92,5.92,8l-2.41,3.06,7.94,8.21-1.51,4.07-1.92,1c-2.25-1.08-4.38-1.93-4.06,2.05l.13-.12-4.24,1.56,2.16,3.9q-1,2.1-2,4.2l-1.09,1.22-21.11-17.15L166,283c2.46,2.64,4.94,5.26,7.36,7.93C176.28,294.23,179.21,297.55,182.15,300.86Zm-7.79-22.2c5-4.06,1.48-5.8-.24-7.54-.42-.42-2.32.62-3.55,1C171.79,274.22,173,276.32,174.36,278.66Zm6.61-16.3-1,1.16,3.57,3,.9-1.07Z"/><path d="M268.62,306.84c-2.69.52-4.76.5-5-3.24-.09-1.51-1.64-2.94-2.55-4.42.49-5-1.13-6.47-7-4.74l7.19,4.81-4.34-.43c1.22,2.25,2.07,3.8,3,5.47-2.36,1.17-4.13-5.43-6.39-.32l.16-.11c-3.7-1.86-1.25-8.84-8.79-9.24l7.7,11.36.08-.15a20.37,20.37,0,0,1-3.87-.73c-4.22-1.66-8.38-3.48-12.56-5.23l-.87,1c.86,1,1.79,2,2.57,3.06s1.21,2,1.8,3l-9.75-.53c1.34,3.48,3,7.69,4.57,11.9l-1,1-10.08-5,.43-1.17,5.3,2c-1.92-5.35-9.05-5.37-9.69-11.55l4.37.49c-5.39-8-10.53-15.58-15.68-23.19l.85-1.8c4.33.79,8.7,1.4,13,2.43,4.82,1.16,9.47,3.15,14.33,3.94,5.23.86,7.79,5,10.93,8.52l1-1c-1.34-2.26-2.69-4.51-4.62-7.77l13,3.2L254,283.83c5.88,1.7,10.34,2.42,14.7,7.61,3.9,4.64,7.18,8.9,8.94,14.54a33.85,33.85,0,0,1-2.17-3.78c-1.54-3.64-3.51-5.05-6.7-1.61l-5.31-5.87-1.22.91c2.46,3.6.63,9.29,6.33,11.31Z"/><path d="M317.12,301.6c-.59.37-1.73.87-1.68,1.11.57,2.5,1.32,5,2.44,8.92-3.3-2.85-2.22-8.89-8.07-6.43l2.58,7-5.31-1.14c.33,5.83.32,5.86-5.64,5.16-2.64-.3-5.26-.77-7.84-1.15-.53-2.79-1-5.46-1.55-8.13l-1.19,0-.77,2.48c-.62-1.61-1.13-3-1.71-4.49l4.26-.85-8.83-3.22c-1.57-2.13-3.12-4-4.41-6a114,114,0,0,1-7-11.81c-1.14-2.4.35-4.37,3.21-4.11a63.32,63.32,0,0,1,10.27,1.64,114.16,114.16,0,0,1,13.27,4.32c2.59,1,4.8,3,7.35,4.14,2,.93,4.34,1.29,7.18,2.09,6.31-4.29,13.08.95,20.38,1.14-.33-1-.66-2-1-3,5.68-.2,6.82,1.55,5,6.68-.33.91,1.11,2.91,2.23,3.75.89.66,2.54.3,4.08.41v13.22h-.7V309c0-7.77,0-7.66-8-8.65-1.19-.14-2.41-1.7-3.22-2.89s-1.06-2.67-2.55-3.73q.94,4.95,1.91,9.9c-.26-5.48-5-6.12-8.54-7.7-1-.44-2.47.1-4.59.25,0,.15.41,1.25.78,2.35l-5.67-6.23-2,1.58Zm-8.36,0c-4-6.64-4-6.64-6.43-6.62.4.66.73,1.15,1,1.68a3.14,3.14,0,0,1,.47,1.31c-.05,4.49.42,4.82,5,3.46l4.77,3.23c-3.22-12.66-3.22-12.66-6.4-12.74C307.68,295.13,308.22,298.37,308.76,301.6Zm-10.35,3c1-7.16-2.25-10.54-9.69-11.34Zm-10.08-8.76c-.1-3.36-.1-3.36-7.45-5.51C281,294.13,281,294.13,288.33,295.87Z"/><path d="M220.72,243.94c-2.27-1.92-3.87.08-5.66,1-2.47-5.26-7.14-7.36-12-9.15l-1,1.37L211.7,244c-.54.4-1.07.81-1.6,1.22l-11.33-8c-2-2.29-4-4.57-6.16-7.05a36.54,36.54,0,0,0,4.27,1.1,2.8,2.8,0,0,0,2.4-1.28c7,3.47,14.82,2.23,22.19.79a13.93,13.93,0,0,1,11.6,2.7c5.52,4.26,10.25,9.55,15.31,14.41l-.87.87-5.24-4.38c-.47,1.83-.82,3.17-1.16,4.51l-5.57.13-3.33-1-.85,2.22L221.18,244Z"/><path d="M249.65,263c7.76,1.83,14.42,3,19.53,8.35L258.66,270l-.33.85c.72.63,1.45,1.25,2.18,1.87l-.31.79-7.84-3.5,1.91,4.61-4.15-.57c.28,1,.53,1.79.49,1.63-2-.72-4.53-1.61-7-2.6-1.83-.72-3-4.9-6-1.26l-7.66-6-1.07,4.21L222,268.71l2,3.93c-9.29-.4-31.45-12.19-33.17-18.23l5.29,7,1.56-1.22-1-3.52c3.35,1.4,6,2.8,8.81,3.55,1.46.39,3.23-.38,4.86-.63l-.08-1.5L226.82,264c2.22-.71,3.55-1.61,4.67-1.4,6.91,1.29,13.77,2.82,21.86,4.53Z"/><path d="M319.52,206.11c.66-.93,1.15-2.43,2-2.67a60.37,60.37,0,0,1,7.72-1.27l-1.67-3.91c7.32-.51,14.18-1,21.06-1.47,5.1-.34,6.36,4.27,8.33,7.32,1,1.57,2.34,5.24-1.54,6.59-3.4,2.5-6.5.68-9.63-.75l-2.9-4-1.25.84c.3,1.21.59,2.42.88,3.62L341,213.84l-5.48-1.42,3.86,6.68c-4.81-3.06-6-2.55-6.35,2.82l-3.89-3c1.14-4.81-2.65-6.43-5.56-8.63Z"/><path d="M271.51,187.34c-2.53-2.34-5.06-4.68-7.58-7l-4.48-6.82L255,177.44l-.74-.69L267,164.08l10.22,8.85,2.76.84c-.86.09-1.72.2-2.58.31l1.06,3.86c-1.67,1.37-4.34,2.51-4.74,4.18-.55,2.31,6.87,7.2,9.66,6.93,0,.79,0,1.58.08,2.36,0,1.29.07,2.58.1,3.86a8.36,8.36,0,0,1,.67.66h.3l0,.3.88.7.14.07-.09,1.67-.08.05c-3.26.61-6.52,1.3-9.8,1.78a8.14,8.14,0,0,1-2.78-.68c2.8-2.41,2.55-4.83,0-7.25h5.35C276.55,189,275.33,186.58,271.51,187.34Z"/><path d="M319.52,206.11l4,4.2-2.9,3.1,8.46,5.53,3.89,3,2.93,3.15L326.1,232c-.85-1.83-1.68-3.64-2.52-5.44v-.06c1.37-3.45-1-4.12-3.5-4.64l-2-1c-2.6-1.26-5.24-2.65-5.63,2.08h0l-7.72-7.61-1.4-4.17,4.19,2.28.78-.84-3.07-3.91,5.75-.37C312.39,204.32,315.61,204.07,319.52,206.11Z"/><path d="M163.5,232.51c.22-1.16.44-2.31.6-3.19l13.25,2.27L175.84,229c3.92-1.3,7.47,4.12,11.35.95l10.46,7.13-3.19,1.28-5.54-2.55-1.64,1.07c1.21,2.7,2.42,5.41,3.62,8.11l1.84,1-.61,1.36-9.34-3.86v.81l-5.93.79c-3.93-4.42-7.85-8.84-11.85-13.2C164.88,231.74,164,232.28,163.5,232.51Z"/><path d="M345.79,210c3.13,1.43,6.23,3.25,9.63.75,1.29.8,2.62,1.59,3.95,2.38-2.94,1.1,2.4,8.25-5.12,6.08l2.24,4.89h-7.58c.36,1.62.69,3.15,1,4.68l-1.85-1-2.15-.44-3.74-2.39c-.32-.72-.6-1.47-1-2.17-.66-1.29-1.37-2.55-2.05-3.83l5.12,2.14L341,213.84l1.56-3.39Z"/><path d="M177.47,324.31l7.31,3.32-7.54,8.75-1.22-.79c.36-1.12.72-2.23,1.52-4.74l-5.36,5.64,6.75,1.73c-.1.14-.21.42-.32.42-6.81-.21-6.78-.21-7.23,6.42a20.41,20.41,0,0,1-1.33,6.32V343c-2,2.34-1.88,7-6.22,3.94V336.88c6,1,8.94-2,10.2-7.27Z"/><path class="cls-1" d="M182.15,300.86c-2.94-3.31-5.87-6.63-8.84-9.91-2.42-2.67-4.9-5.29-7.36-7.93l1.4-1.47,21.11,17.15,4.13,3.2c.88,2.07,2.24,4.3-1.52,4.94Z"/><path d="M191.07,306.84c3.76-.64,2.4-2.87,1.52-4.94l-3-4.42q1-2.1,2-4.2l2.07-1c3,2.32,7,3.77,6.92,8.56.6,1.4,1.19,2.79,1.78,4.19l-5.76,6.42C192.58,312.47,191.62,309.9,191.07,306.84Z"/><path d="M304.58,182.9c1.82,1.56,3.63,3.12,5.46,4.66-1.05,1.77-2.1,3.56-3.15,5.35l-6.24,3c1.11-3.79-.66-5-4.16-4.58l-3-1.46c0-1.34,0-2.67-.08-4,2.5.52,4.4.26,4-3l2.07,0,2,2.38,2-2.35-.08.11Z"/><path d="M177.47,324.31l-3.44,5.3-8.17,6.22,2.59-5.69-5.87,4.4c.19-2.44.32-4,.44-5.45l4.61-5.4,6.44-4.78Z"/><path d="M200.54,300.86c.09-4.79-3.95-6.24-6.92-8.56,0-1.5,0-3,0-4.48l-.13.12,4.06-2.05,1.92-1,5.49,1.21-1.39,1.17,3.79,8.5Z"/><path d="M296.73,278.75l20.61,1.58-6.43,1.44.1.92h32.64l0,1.54c-5.36.14-10.76.7-16.09.32-8.73-.63-17.44-1.74-26.12-3-1.64-.23-3.07-1.94-4.61-3Z"/><path d="M190.9,245c-1.2-2.7-2.41-5.41-3.62-8.11l1.64-1.07,5.54,2.55,12.71,7.81-6.07,1.64.36,1.32c-.29-.06-.62,0-.81-.18-1.92-1.58-3.66-3.46-5.79-4.65C194,243.79,192.24,244.72,190.9,245Z"/><path d="M167.63,323.69l-4.61,5.4-11,4.44,4.38-7.95,7-7.61C164.78,319.87,166.2,321.78,167.63,323.69Z"/><path d="M167.63,323.69c-1.43-1.91-2.85-3.82-4.28-5.72l-.76-1.53c.7-1.9,1.4-3.81,2.09-5.71,3.93,4,1.79-2.43,4.93-2.67l4.46,10.85Z"/><path d="M211.18,313.1l4.28-1.36c3,6.18,6,12.95-3.34,17.48-.34-.65-1-1.92-1.63-3.18,2.31-2.85,4.35-5.73.84-9.11Z"/><path d="M163.53,197.32c1.17,0,2.58-.38,3.47.12,2.83,1.6,5.47,3.54,8.18,5.34-1,.71-1.84,1.79-2.92,2.05-2.79.65-4.43,1.58-1.91,5.28l-8.54-4.81.29-3.39,3.56-1.16Z"/><path class="cls-1" d="M290.53,207.47c-.56.33-1.31.53-1.64,1-2.78,4.09-5.11,3-7.31-.53.42-1.39.84-2.79,1.27-4.19a5.53,5.53,0,0,0,.7-.58l2.51-.4,2.18-1.75,2.5.49c-.11-1.07-.19-1.87-.28-2.68l5.53-1Z"/><path class="cls-1" d="M239.69,306.93c-.59-1-1.11-2.08-1.8-3s-1.71-2-2.57-3.06l.87-1c4.18,1.75,8.34,3.57,12.56,5.23a20.37,20.37,0,0,0,3.87.73l3.17,4.52-8.43-.46Z"/><path d="M120.52,169l-10.16,4.79c-1.68-1.79-4.71-3.81-1.51-7.5l1.66-.87,4.66-1.67c-5.44,6.8-5.44,6.8-3.9,9.69l9.17-11.84,2.26.31C122,164.3,121.25,166.67,120.52,169Z"/><path d="M192.46,315l-4.18-1.67,1.28,10.33-.59.16q-1.36-6.34-2.74-12.68h-.81l-.45,4.76-.61,0-1.43-8.68-.88,0-1.27,3.48c-.58-3.51-1-6.13-1.45-8.76l1-.51,12.06,13.58Z"/><path d="M211.33,316.93c3.51,3.38,1.47,6.26-.84,9.11-3.25,2.28-6,2.93-6.93-2.16l3.32-6.95Z"/><path class="cls-1" d="M264.22,209.84c1.86-.38,3.72-.75,5.58-1.14l.42.54c.25,1.57.51,3.13.76,4.7-3.39,5.33-3.39,5.33-10.89,2C261.47,213.9,262.84,211.87,264.22,209.84Z"/><path d="M264.22,209.84c-1.38,2-2.75,4.06-4.13,6.08l-5-1.25c.23-1.07.45-2.14.67-3.22l-4.2-.25c-.4-.39-.79-.79-1.18-1.18l1.58-2.14,2.67-2.06,9,3.58C263.81,209.55,264,209.7,264.22,209.84Z"/><path d="M317.11,270.88l2,.54.48,1.45,2.37,4.33c-4.69-1.94-8.7-2.65-13.38-.11-2.3,1.25-6.05-.31-9.13-.24-.91,0-1.8,1.25-2.69,1.91l.15-.14q-4.64-2.47-9.3-4.93c5.65,3.8,11.26,1,16.89-.06,2.58.25,5.38-.06,7.69.87C316.27,276.15,316.63,273.68,317.11,270.88Z"/><path d="M120.52,169c.73-2.36,1.46-4.73,2.18-7.09.17-1.59.33-3.17.5-4.75l.14,0-.76-.6-.07-.4,1-.6,4,.41-.1-.15c.77,2.7-4.54,5.18-1,7.52l4.41-1.36-1.07,2.8c-2.22,2.06-4.37,4.2-6.7,6.12-.69.58-1.91.53-2.88.77Z"/><path d="M290.53,207.47l5.45-9.62c.85-.63,1.71-1.29,2.57-1.94h2.1l6.24-3L299.43,205l-1.12-1.88c-1.4.11-3.08-.22-4.14.44C292.71,204.46,291.72,206.13,290.53,207.47Z"/><path d="M129.8,164.77c.35-.93.71-1.87,1.07-2.8.08-1.71.16-3.41.25-5.11l3.29-.74c.24.94.48,1.89.73,2.84h2.46l-.15-.17c.22,2.38.45,4.75.67,7.12-2.48.36-5.33-2-7.4,1.69-1.32,2.35-3.84,4-6.12,5.79Q127.2,169.09,129.8,164.77Z"/><path d="M247.36,309.89l8.43.46-3.17-4.52-.08.15,1.09-2.12-.16.11a39.29,39.29,0,0,0,2.94,6A14.39,14.39,0,0,0,260.3,313c1.27.86,2.66,1.56,3.55,3.15-2.39-1.82-3.75-2.74-7.26-1.16C253.6,316.35,248.79,314.63,247.36,309.89Z"/><path d="M165.13,156.66l-5.67,10.77c-1.74-3.43-5.61-3.89-3.8-7.61l-.16.14c1.67-1.11,3.32-2.26,5-3.29s3.35-1.86,5-2.78Z"/><path d="M304.78,215.32l7.72,7.61a.67.67,0,0,1,.4.47l.64,4.06-6.87-1.85L302.58,221l-2-3.65-1-3.55Z"/><path class="cls-1" d="M324,270.4c4.59-5.54,4.56-5.49,10.78-1a34.87,34.87,0,0,0,4.71,2.43c0,.51.07,1,.11,1.52-2.37,0-4.83.48-7.1,0C329.63,272.74,326.87,271.41,324,270.4Z"/><path d="M196.56,311.47l5.76-6.42,6.8-4.26c-.93,2.43-2.09,5.45-3.24,8.47q-.94,2.28-1.87,4.58l-4.95-1-.11,0Z"/><path d="M204,313.84q.93-2.29,1.87-4.58l6.29-3.4c-.24,1.76-.61,4.5-1,7.24l.15,3.83h-4.45L205,314.84Z"/><path d="M324,270.4c2.83,1,5.59,2.34,8.5,3,2.27.47,4.73,0,7.1,0-5.58.72-11.15,1.58-16.75,2-1,.08-2.2-1.58-3.33-2.46l-.49-1.48Z"/><path d="M162.59,316.44l.76,1.53-7,7.61-6.87,6-1-.86c1.89-2.29,3.91-4.48,5.6-6.9.88-1.26,1.17-2.92,1.73-4.4l3.74-1.94Z"/><path d="M110.51,165.45l-1.66.87-8.1,5.33c-.17-1.21-.34-2.47-.51-3.72l8.54-9.09,1.21,0C110.16,161.06,110.34,163.25,110.51,165.45Z"/><path d="M165.13,156.66l.43-2.77,1.66-.18.37.16,3-4-.15.12,2.13-.15c-.64,2-2.07,4.41,2,4.15l-.09-.14q-.36,3.1-.71,6.19c-3.71-4.85-3.93,2.35-6.84,1.66C169,159.08,169.08,157,165.13,156.66Z"/><path d="M303.11,228.06c-.58.45-1.44,1.43-1.7,1.28-4.39-2.37-8.7-4.89-13.24-7.5,3-3.34,3-3.34,6.57-1.58l1.2.81C296.9,224.87,299.19,227.3,303.11,228.06Z"/><path class="cls-1" d="M271.28,261.24c1.31-.14,3.68-.63,3.77-.37,1,3.16,3.25,2.33,5.58,2.27a11.9,11.9,0,0,1,6,1.86c-4.11,2.55-7.89,1.95-11.56-.32Z"/><path d="M249.79,209.84l-2.44,6.76-7-3.78c0-.1-.16-1.37-.31-2.64l7.5-2.5Z"/><path class="cls-1" d="M207.17,246.17l-12.71-7.81,3.19-1.28,1.12,0,11.33,8c0,.67,0,1.34.07,2Z"/><path d="M232.87,220.54l-17.08-7.62.79-1.75,17.35,7.26Z"/><path class="cls-1" d="M339.19,218.91c.68,1.28,1.39,2.54,2.05,3.83.36.7.64,1.45,1,2.17l-3.29,1.28-3-1.12L333,221.92c.38-5.37,1.54-5.88,6.35-2.82Z"/><path class="cls-1" d="M268.72,300.59c3.19-3.44,5.16-2,6.7,1.61a33.85,33.85,0,0,0,2.17,3.78l.93,1.33c.42,2.59-.64,3.54-2.89,2.15-1.15-.71-1.82-2.18-2.7-3.31Z"/><path d="M350.61,250.59l7,.53c3,.21,5.51,3.36,4.53,6-.21.59-2.65,1.12-3.3.64C356.23,255.86,353.88,253.52,350.61,250.59Z"/><path d="M205,314.84l1.84,2.09-3.32,6.95-11.1-8.94-.11.12,9.51,6.45c-.57-2.2-.89-3.45-1.21-4.71l-.14.14C203.26,318.93,204.36,317.35,205,314.84Z"/><path class="cls-1" d="M247.57,207.68l-7.5,2.5-1.25-.82L238,205.6l1-1.34,8.64,2.86C247.59,207.31,247.58,207.49,247.57,207.68Z"/><path class="cls-1" d="M286.77,273.51l-4.17-3.43.58-1.21c5,.13,10.08-2.76,15,.47,0,.49,0,1,.07,1.49-2.34,0-4.75-.32-7,.12-1.38.28-2.54,1.73-3.8,2.65l0,.11A2.88,2.88,0,0,1,286.77,273.51Z"/><path class="cls-1" d="M303.11,228.06c-3.92-.76-6.21-3.19-7.16-7q3.32,0,6.63,0l4.09,4.57Z"/><path d="M302.58,221q-3.31,0-6.63,0l-1.21-.81c-.63-1.58-1.27-3.15-2.26-5.61l4.92,3.88-2.51-5.83,5.7,4.69Z"/><path class="cls-1" d="M287.42,273.71l0-.11,16.26-.63a6.59,6.59,0,0,1,.74.66c-5.63,1.09-11.24,3.86-16.89.06Z"/><path class="cls-1" d="M163.5,232.51c.52-.23,1.38-.77,1.5-.64,4,4.36,7.92,8.78,11.85,13.2Q170.16,238.8,163.5,232.51Z"/><path d="M222.21,188.31l-4.32-3.8.25-1.08,12.93,1.43-.18,1.27-8.7,2.19Z"/><path d="M235.54,248.92l5.57-.13c1.29,1.86,2.57,3.72,3.89,5.61C240.38,255,240.38,255,235.54,248.92Z"/><path d="M153.52,228.14c-1.55,5-2.65,8.57-3.82,12.36-1.9-2.63-2-7.5-.11-10.46C150.14,229.18,151.71,229,153.52,228.14Z"/><path d="M222.19,188.32c-2.92.13-5.91.67-8.74.21-1.6-.26-2.92-2.18-4.36-3.35l1.35-2.08,11.77,5.22Z"/><path d="M187.27,212.8c5,.53,10.68-3.08,15.22,2.84-3.1-.43-5.76-.93-8.44-1.14-2.35-.18-4.72,0-7.08,0Z"/><path class="cls-1" d="M211.7,244l-9.65-6.83,1-1.37c4.88,1.79,9.55,3.89,12,9.15Z"/><path d="M252.83,335.28v20.66l-.17,0-1.23-20.75Z"/><path class="cls-1" d="M317.12,301.6l-5.36-7.72,2-1.58,5.67,6.23C318.67,299.56,317.9,300.58,317.12,301.6Z"/><path d="M271,213.94c-.25-1.57-.51-3.13-.76-4.7,4,1.89,5.86.74,7.2-4.41l5.43-1.06c-.43,1.4-.85,2.8-1.27,4.19-3.07-.91-5.86.41-6.38,3C274.6,214,272.76,213.55,271,213.94Z"/><path d="M133.75,215.66c5.85,3.27,1,6.29.11,9.21l1.17-5.56-.7-.42-5,8.73-.57-.29C130.33,223.61,131.94,219.88,133.75,215.66Z"/><path d="M196.3,360.23V345.07h.84v15.18Z"/><path d="M272.93,306.15c.88,1.13,1.55,2.6,2.7,3.31,2.25,1.39,3.31.44,2.89-2.15.64,1.12,1.27,2.25,2,3.59l-5.44.76-3.59-3.34-1.11.65.87,5.39-.78.21c-.63-2.58-1.25-5.15-1.88-7.73l-.1.1C272.51,308.17,272.51,308.17,272.93,306.15Z"/><path class="cls-1" d="M247.81,194.16c.48-.13,1.06-.5,1.4-.35,1.78.78,3.5,1.69,5.23,2.56l-1.74,3.2a42.21,42.21,0,0,1-4.45-3.12c-.46-.42-.26-1.56-.36-2.38Z"/><path class="cls-1" d="M229.5,207.44c.1-1.19.21-2.37.31-3.55,1.4.51,3,.75,4.12,1.65.64.53.41,2.11.57,3.22l-4.12-.12C230.08,208.22,229.79,207.83,229.5,207.44Z"/><path d="M122.25,199.4c4.37,5.12,2.27,7.49-2.33,9.1C120.61,205.79,121.31,203.08,122.25,199.4Z"/><path d="M385.47,289.25,383.69,273l1.25-.13q.75,8.16,1.51,16.31Z"/><path d="M201.34,221.2l12.95,4.6-.17.54-13.38-3Z"/><path d="M139.13,204.33l7.2,6.55c-6.44,1.7-6.12-3.2-8-5.6Z"/><path d="M374.36,293V278.55l1.27.08-1,14.38Z"/><path class="cls-1" d="M162.59,316.44l-3.07,1c0-1.55.06-3.09.08-4.63l-.14.14,3.17-3.12.16-.13,1.9,1Z"/><path d="M323.58,226.46v.06L316.22,229l1.26-2.14h3.17l.38-1.3-3.5-2.71.16.12.43-2.07,2,1Q321.83,224.15,323.58,226.46Z"/><path class="cls-1" d="M173.81,160q.34-3.09.71-6.19c.94,1.26,1.89,2.52,2.83,3.79Z"/><path class="cls-1" d="M338.91,226.19l3.29-1.28,3.74,2.39-3.46,2.64-.16.12Z"/><path class="cls-1" d="M251.52,211.2l4.2.25c-.22,1.08-.44,2.15-.67,3.22Z"/><path class="cls-1" d="M346.24,234c-1.3-1.33-2.61-2.65-3.92-4l.16-.12,4.11,0-.12-.19c0,1.38,0,2.77,0,4.16Z"/><path class="cls-1" d="M163.53,197.32l2.13,3.43-3.56,1.16.44-2.91Z"/><path class="cls-1" d="M348.2,238c-.65-1.3-1.3-2.61-2-3.91l.25-.1,3.11,0-.12-.18C349.06,235.17,348.63,236.56,348.2,238Z"/><path class="cls-1" d="M247.57,207.68c0-.19,0-.37,0-.56,2.1-3.52,2.91.31,4.31.76L250.34,210a1.42,1.42,0,0,0-.55-.18Z"/><path class="cls-1" d="M317.48,226.81,316.22,229l-2.68-1.49c-.21-1.35-.42-2.7-.64-4,1.24.86,2.47,1.71,3.71,2.55l-.15-.17,1.19,1.18Z"/><path class="cls-1" d="M349.94,228.73c.6,1,1.2,2,1.79,3l-.1.1-5.16-2.07.12.19,1.5-2.23Z"/><path class="cls-1" d="M178.47,156c-.91-2-3.29-4.33,1.17-5.09l-.16-.14c.38.72.75,1.44,1.12,2.16l.13.11Z"/><path class="cls-1" d="M158.57,197.35l3.18-1.47,0,2.93Z"/><path class="cls-1" d="M351.73,231.75l1.89,3.58-4.14-1.55.12.18,2-2.11Z"/><path d="M349.48,233.78l4.14,1.55L348.2,238C348.63,236.56,349.06,235.17,349.48,233.78Z"/><path class="cls-1" d="M153.58,300l1-3.15-.13.15,1.14-1.15.19-.12c.26,1.37.51,2.74.77,4.1l-3.12,0Z"/><path class="cls-1" d="M149.6,285c.88-.55,1.77-1.11,2.65-1.63.12.84.23,1.66.33,2.48l-3.1-1Z"/><path d="M149.48,284.8l3.1,1,.06,3.16h-3.16Z"/><path class="cls-1" d="M159.89,306.83c1,1,1.93,1.93,2.9,2.89l-.16.13-2.12,0,.13.14-1.16-1.14.13.14C159.7,308.24,159.8,307.54,159.89,306.83Z"/><path d="M199,312.86l.11,0c.48,1.37,1,2.73,1.45,4.1l.14-.14C198.64,316.11,195.93,315.72,199,312.86Z"/><path class="cls-1" d="M154.62,296.82l-3.13.1,4.15-2.72.18,1.5-.19.12L154.49,297Z"/><path d="M153.47,299.82l3.12,0c-.33,1.22-.67,2.44-1,3.66l-2.1-.5C153.48,301.91,153.48,300.86,153.47,299.82Z"/><path d="M159.89,306.83l-.28,2.12h-2.1c-.17-1-.35-2.08-.52-3.12Z"/><path d="M152.49,290.94c0-.71,0-1.42,0-2.13l1,2.11.14-.1Z"/><path class="cls-1" d="M220.72,243.94l.46,0Z"/><path d="M177.15,201.71H177c0,.11-.05.22-.08.33Z"/><path d="M175.54,201.81c.3-.16.6-.32.89-.49Z"/><path class="cls-1" d="M277.19,172.93l1.32-2.25c2.65-.68,5.44-1.89,6.9,1.93.06.16,1.43-.18,2.19-.29l1.89,6.68.15-.19-3,2.06-6-3-.13.11,1.11-1.21-1.64-3Z"/><path class="cls-1" d="M290.54,171.92c-.42-2.81-1.18-5.89,3.61-4.74l1.05,1C296,172.72,295.38,173.19,290.54,171.92Z"/><path class="cls-1" d="M295.2,168.18l-1.05-1-.63-3.85,3.09.5q1.42,2,2.87,4.07l.17-.1L298.47,169l.15-.18Z"/><path class="cls-1" d="M297.47,182.84c.38,3.3-1.52,3.56-4,3l.17.1-1.17-1.17.17.15c0-1.05,0-2.1,0-3.15l-.13.15,1.17-1.17-.1.15h2.05l-.13-.16,1.18,1.19-.18-.17,1.17,1.17Z"/><path class="cls-1" d="M299.54,182.82l-2.07,0,.17.14-1.17-1.17.18.17-1.18-1.19.13.16,4-2.18c.3,1,.61,2.07.93,3.11l.15-.09L299.46,183Z"/><path class="cls-1" d="M289.49,179l4.06,1.94.1-.15L292.48,182l.13-.15-2.08,1.12-1-1,.15-3.14Z"/><path class="cls-1" d="M304.58,182.9l-1,.06-1.2-3.14,4.53-1.33Z"/><path class="cls-1" d="M299.48,167.9l3.37,3c-2.47,1.39-4.51,1.93-4.23-2.14l-.15.18,1.18-1.18Z"/><path d="M302.34,179.82l1.2,3.14.08-.11-3.13-1c-.32-1-.63-2.07-.93-3.11Z"/><path class="cls-1" d="M167.22,153.71l-1.66.18c-1.68.92-3.39,1.79-5,2.78s-3.36,2.18-5,3.29l1.14-6.09,3.69-3.23.77-1.77,1.4-.49,3.14-.49-.13-.1Z"/><path class="cls-1" d="M160.33,150.64l-3.69,3.23,1.86-4.72Z"/><path class="cls-1" d="M157.51,309h2.1l-.13-.14,1.16,1.14-.13-.14-1,3.16.14-.14-3-3-.16.14,1.15-1.14Z"/><path class="cls-1" d="M110.51,165.45c-.17-2.2-.35-4.39-.52-6.58l4.71-4.05,1-1.77h1.59l-.84,5.44c-.38,1.7-.75,3.41-1.13,5.11l-.19.19Z"/><path class="cls-1" d="M114.48,142.86l-3,4.07.15.07c0-1.39,0-2.79,0-4.18l-.15.14,1.17-1.17-.17.15,2.12,1Z"/><path class="cls-1" d="M115.74,153.05l-1,1.77-.09-3-.15-.07,1.17,1.18Z"/><path d="M134.41,156.12l-3.29.74-3.64-1.05.1.15,10.54-11.12c-.55,2.06-1.09,4.13-1.64,6.19l.13-.17c-1.24-1.41-2.68-2.57-3,.42-.18,1.5.61,3.11,1,4.68Z"/><path class="cls-1" d="M138.43,141.32c0-1.16,0-2.31.07-3.47l3.12-1-2.3,5.28h.05Z"/><path class="cls-1" d="M116.49,158.48l.84-5.44.17-.1,3-.07.45,2-2.11,2.63-.29.22c.05,0,.13,0,.16,0a3,3,0,0,0,.24-.26Z"/><path d="M118.91,157.45l2.09-2.61c.5.44,1,.88,1.51,1.31l.07.4-3.09,4.3-4.13,2.74c.38-1.7.75-3.41,1.13-5.11l2.51-1.07Z"/><path d="M120.55,152.87l-3,.07,3.11-3.54Z"/><path class="cls-1" d="M134.53,156c-.35-1.57-1.14-3.18-1-4.68.36-3,1.8-1.83,3-.42Z"/><path class="cls-1" d="M137.6,159h-2.46c.57-1.1,1.15-2.19,1.73-3.29l1.26.3C138,157,137.78,158,137.6,159Z"/><path d="M180.6,153c-.37-.72-.74-1.44-1.12-2.16C179.86,151.51,180.23,152.23,180.6,153Z"/><path d="M302.65,164.82,301.48,166Z"/><path d="M115.63,153l-1.17-1.18Z"/><path d="M152.48,304l1.16-1.16Z"/><path d="M157.63,308.83,156.48,310Z"/><path class="cls-1" d="M144.51,278.88l2.09,1c.3,1.7.61,3.41.91,5.11l.14-.15-1.19,1.2.15-.07-3-6.06-.14.1,1.17-1.18Z"/><path class="cls-1" d="M174.61,154c-4.06.26-2.63-2.14-2-4.15l-.14.15,1.16-1.17-.17.16,2.16,1-.13-.15C175.21,151.21,174.91,152.59,174.61,154Z"/><path d="M111.63,142.82c0,1.39,0,2.79,0,4.18l-4.12,1,0-3.14c.32-1,.64-2,1-3.05Z"/><path d="M114.6,143l-2.12-1c0-1,0-2.09,0-3.14l2.14,1Z"/><path d="M112.65,141.79,111.48,143Z"/><path d="M149.62,288.81,148.44,290Z"/><path d="M146.46,286l1.19-1.2Z"/><path d="M168.66,149c-.06-1.38-.12-2.76-.17-4.14l2.09,1.13-.09-.11V150l.15-.12-2.12-1Z"/><path d="M170.58,146c.35-.35.71-.69,1.06-1l-.14-.09-1,1Z"/><path d="M144.67,278.79,143.5,280Z"/><path class="cls-1" d="M152.49,290.94l1.12-.12L150.49,295c0-.71.07-1.43.11-2.15l-.14.18,1.18-1.17-.16.16,1.18-1.18Z"/><path d="M152.66,290.8,151.48,292Z"/><path d="M151.64,291.82,150.46,293Z"/><path d="M96.46,141.81l1.2,1.17Z"/><path d="M106.48,143.81l1.14,1.14Z"/><path d="M167.22,153.71l-1.71-5.92,3.15,1.17-.14-.14-.93,5.05Z"/><path d="M97.64,138.81,96.46,140Z"/><path d="M175.63,150l-2.16-1,1.2-3.1-.08.16,2.06-.19Z"/><path d="M173.45,144.89l1.14,1.12.08-.16-1.07-1Z"/><path d="M115.65,138.8,114.48,140Z"/><path class="cls-1" d="M173.6,144.81l1.07,1-1.2,3.1.17-.16L172.48,150l.14-.15-2.13.15v-4.12l1-1Z"/><path class="cls-1" d="M304.46,273.63a6.59,6.59,0,0,0-.74-.66c.92-1.93,1.85-3.85,3.19-6.65l10.2,4.56c-.48,2.8-.84,5.27-5,3.62C309.84,273.57,307,273.88,304.46,273.63Z"/><path class="cls-1" d="M305.54,247.09c7.46-1.77,8.36,6.16,14.16,7.43C313.88,257.12,312.39,256.26,305.54,247.09Z"/><path class="cls-1" d="M324.39,257.55c5.3-1.7,8.4.11,12.93,6.85C330.53,266.49,329.53,259.11,324.39,257.55Z"/><path class="cls-1" d="M316.42,263.82c-.16.45-.2,1.22-.49,1.32-3.05,1.1-10-4.32-9.77-8l9.2,5.31Z"/><path class="cls-1" d="M347.34,263.27c-5.92,2.08-7.42,1.58-9.44-4.09l9.78,2.45Z"/><path class="cls-1" d="M276.49,238.39l10.39,8.13c-6.95.78-7.68-5.07-11.5-6.62Z"/><path class="cls-1" d="M319.77,262c3.75-3,6.33-1.33,8.39,3.13L321.7,264C321.05,263.31,320.41,262.66,319.77,262Z"/><path class="cls-1" d="M319.77,262l1.93,2-5.28-.14-1.06-1.38-4.08-4.53.74-1Z"/><path class="cls-1" d="M301.52,263.93c-3.62,3.65-5.83,2-7.38-2.1Z"/><path class="cls-1" d="M285.27,253.47l-7.34-3.9L279,247.4l7.42,3.56Z"/><path class="cls-1" d="M316.22,245.51l6.34,4c-.31.66-.61,1.33-.92,2l-8.92-3.36c1.92-1.41,2.76-2,3.63-2.65Z"/><path class="cls-1" d="M277.42,204.83c-1.34,5.15-3.21,6.3-7.2,4.41l-.42-.54-1.29-3.95,1.12-1.13,2-2.12Z"/><path class="cls-1" d="M271.62,201.5l-2,2.12-1.08.72-7.15-6.46.35-1.52,5.78-.52,4.06,4.38Z"/><path class="cls-1" d="M271.59,200.22l-4.06-4.38c.4-1.34.42-3.33,1.3-3.84s2.67.35,4.05.61l-.07-.05c2.53,2.42,2.78,4.84,0,7.25Z"/><path class="cls-1" d="M263.61,209.4l-9-3.58,5.48-4C264.4,203,263.83,206.25,263.61,209.4Z"/><path class="cls-1" d="M239,204.26l-1,1.34a37.59,37.59,0,0,1-5.2-3.31c-.23-.19,1.11-2.22,2.46-4.82Z"/><path class="cls-1" d="M257.59,185.34c3.42-3.59,3.6-3.55,7,1C261.74,191.19,259.93,187.56,257.59,185.34Z"/><path class="cls-1" d="M272.81,192.56l.07.05q-.67-2.62-1.37-5.27c3.82-.76,5,1.68,6.65,5.22Z"/><path d="M268.55,204.34l1.08-.72-1.12,1.13Z"/><path class="cls-1" d="M174.36,278.66c-1.35-2.34-2.57-4.44-3.79-6.54,1.23-.38,3.13-1.42,3.55-1C175.84,272.86,179.33,274.6,174.36,278.66Z"/><path class="cls-1" d="M193.63,287.82c0,1.49,0,3,0,4.48l-2.07,1-2.16-3.9Z"/><path class="cls-1" d="M189.55,297.48l3,4.42-4.13-3.2Z"/><path class="cls-1" d="M181,262.36l3.5,3.12-.9,1.07-3.57-3Z"/><path class="cls-1" d="M197.56,285.89l-4.06,2.05C193.18,284,195.31,284.81,197.56,285.89Z"/><path class="cls-1" d="M272.93,306.15c-.42,2-.42,2-4.41.79-5.7-2-3.87-7.71-6.33-11.31l1.22-.91,5.31,5.87Z"/><path class="cls-1" d="M253.63,303.86,252.54,306l-7.7-11.36C252.38,295,249.93,302,253.63,303.86Z"/><path class="cls-1" d="M261.23,299.25,254,294.44c5.9-1.73,7.52-.25,7,4.74A1,1,0,0,0,261.23,299.25Z"/><path class="cls-1" d="M298.41,304.63l-9.69-11.34C296.16,294.09,299.4,297.47,298.41,304.63Z"/><path class="cls-1" d="M308.76,301.6c-.54-3.23-1.08-6.47-1.61-9.68,3.18.08,3.18.08,6.4,12.74l-4.77-3.24Z"/><path class="cls-1" d="M308.76,301.6l0-.18c-4.57,1.37-5,1-5-3.45a3.14,3.14,0,0,0-.47-1.31c-.26-.53-.59-1-1-1.68C304.76,295,304.76,295,308.76,301.6Z"/><path class="cls-1" d="M288.33,295.87c-7.36-1.74-7.36-1.74-7.45-5.51C288.23,292.51,288.23,292.51,288.33,295.87Z"/><path class="cls-1" d="M329.1,218.94l-8.46-5.53,2.9-3.1C326.45,212.51,330.24,214.13,329.1,218.94Z"/><path class="cls-1" d="M339.19,218.91l.15.19-3.86-6.68,5.48,1.42,3.35,7.21Z"/><path class="cls-1" d="M345.79,210l-3.27.5c-.29-1.2-.58-2.41-.88-3.62l1.25-.84Z"/><path d="M280.62,177.85l6,3c-.05.24-.09.48-.12.73.05,1.12.11,2.24.16,3.35-2.8,0-4.29.93-3.14,4l-.17.11c-2.78.27-10.2-4.62-9.65-6.93.4-1.67,3.07-2.81,4.74-4.18Z"/><path class="cls-1" d="M271.59,200.22l1.2-.41a8.14,8.14,0,0,0,2.78.68c3.28-.48,6.54-1.17,9.8-1.78-1.19,1.25-5.9,1.09-1.82,4.48a5.53,5.53,0,0,1-.7.58l-5.43,1.06-5.8-3.33Z"/><path d="M290.46,198.85l.28,2.68-2.5-.49-2.73-2.21-.06-.17.09-1.67c.65-1.39,1.29-2.78,1.94-4.16l3.14.35v1.38l-2.8,3.08,2.8,1.32Z"/><path class="cls-1" d="M280.62,177.85l-2.19.09c-.36-1.29-.71-2.58-1.06-3.86.86-.11,1.72-.22,2.58-.31.56,1,1.1,2,1.65,3L280.49,178Z"/><path class="cls-1" d="M287.48,192.83c-.65,1.38-1.29,2.77-1.94,4.16l-.14-.07-.88-.7,0-.3h-.29l-.68-.66c0-1.28-.07-2.57-.1-3.86l3.21.54-.17-.15,1.16,1.18Z"/><path d="M283.55,203.19c-4.08-3.39.63-3.23,1.82-4.48l.08-.05.06.17c-.4,1.4-2.82,3.08.55,4Z"/><path d="M286.64,192l-3.21-.54c0-.78-.06-1.57-.08-2.36l.16-.11,3.14-.11Z"/><path d="M284.52,196.22l.88.7Z"/><path d="M283.53,195.27l.68.66C284,195.7,283.77,195.48,283.53,195.27Z"/><path class="cls-1" d="M318.12,220.85c-.14.69-.28,1.38-.43,2.07h-5.2C312.88,218.2,315.52,219.59,318.12,220.85Z"/><path d="M312.49,222.93h5.2l-.16-.12-.92,3.17c-1.24-.84-2.47-1.69-3.71-2.55a.66.66,0,0,0-.4-.49Z"/><path class="cls-1" d="M323.58,226.46q-1.75-2.31-3.49-4.64C322.61,222.34,325,223,323.58,226.46Z"/><path d="M348.09,227.74l-1.5,2.23-4.11,0,3.46-2.64Z"/><path d="M290.62,194.56v-1.38c-.06-1.44-.13-2.88-.19-4.33l3.1,1,3,1.46c.69,1.52,1.37,3,2.06,4.57-.86.65-1.72,1.31-2.57,1.94-1.83.32-3.67.66-5.52,1l.16.11Z"/><path class="cls-1" d="M298.55,195.91c-.69-1.52-1.37-3-2.06-4.57,3.5-.39,5.27.79,4.16,4.58Z"/><path class="cls-1" d="M293.53,189.88l-3.1-1,.2.13-1.17-1.18.16.15,3-3-.17-.15,1.17,1.17-.17-.1C293.48,187.21,293.5,188.54,293.53,189.88Z"/><path class="cls-1" d="M300.49,181.88l3.13,1-2,2.35-2-2.38-.08.15,1.18-1.18Z"/><path class="cls-1" d="M286.06,202.79c-3.37-.88-.95-2.56-.55-4l2.73,2.21Z"/><path class="cls-1" d="M115.36,163.59l4.13-2.74,1,.78-9.17,11.84c-1.54-2.89-1.54-2.89,3.9-9.69Z"/><path class="cls-1" d="M120.44,161.63l-1-.78,3.09-4.3.75.6-.12.37v-.33c-.17,1.58-.33,3.16-.5,4.75Z"/><path class="cls-1" d="M127.48,155.81l3.64,1.05c-.09,1.7-.17,3.4-.25,5.11l-4.41,1.36C122.94,161,128.25,158.51,127.48,155.81Z"/><path d="M123.2,157.19v.33l.12-.37Z"/><path class="cls-1" d="M200.51,316.94c-.49-1.37-1-2.73-1.45-4.1l4.95,1,1,1C204.36,317.35,203.26,318.93,200.51,316.94Z"/><path class="cls-1" d="M167.59,153.87l.93-5.05,2.12,1Z"/><path d="M159.46,313l1-3.16,2.12,0Z"/><path class="cls-1" d="M316.61,226l.92-3.17,3.5,2.71-.38,1.3h-3.17l.17.17-1.19-1.18Z"/><path d="M351.63,231.85l-2,2.11-3.11,0c0-1.39,0-2.78,0-4.16Z"/><path d="M316.46,225.8l1.19,1.18Z"/><path d="M154.49,297l1.14-1.15Z"/><path d="M160.64,310l-1.16-1.14Z"/><path d="M286.49,181.6c0-.25.07-.49.12-.73l3-2.06-.15,3.14.12-.12Z"/><path d="M280.49,178l1.11-1.21Z"/><path d="M299.65,167.8,298.47,169Z"/><path d="M292.62,185l-3,3h-2.13v-2.09l3.13-3-.09.08,2.08-1.12C292.62,182.86,292.62,183.91,292.62,185Z"/><path d="M295.47,180.79l1.18,1.19Z"/><path d="M296.47,181.81l1.17,1.17Z"/><path d="M293.62,186l-1.17-1.17Z"/><path d="M292.48,182l1.17-1.17Z"/><path d="M300.64,181.79,299.46,183Z"/><path d="M289.49,182l1,1,.09-.08-1-1Z"/><path d="M119,157.41a3,3,0,0,1-.24.26s-.11,0-.16,0l.29-.22Z"/><path d="M172.48,150l1.16-1.17Z"/><path class="cls-1" d="M287.49,185.86V188l.16-.14L286.47,189l.18-.15-3.14.11c-1.15-3.06.34-4,3.14-4l-.17-.16,1.17,1.19Z"/><path class="cls-1" d="M289.61,181.83l1,1-3.13,3,.16.12-1.17-1.19.17.16c0-1.11-.11-2.23-.16-3.35Z"/><path class="cls-1" d="M287.49,188h2.13l-.16-.15,1.17,1.18-.2-.13c.06,1.45.13,2.89.19,4.33l-3.14-.35.15.15-1.16-1.18.17.15v-3.12l-.18.15,1.18-1.17Z"/><path class="cls-1" d="M290.62,194.56V199l-2.8-1.32Z"/><path d="M286.47,191.8l1.16,1.18Z"/><path d="M290.63,189l-1.17-1.18Z"/><path d="M286.48,184.79l1.17,1.19Z"/><path d="M287.65,187.81,286.47,189Z"/></svg>