<svg id="Layer_1" data-name="Layer 1" xmlns="http://www.w3.org/2000/svg" viewBox="0 0 1920 1080"><defs><style>.cls-1{fill:#fff;}</style></defs><title>Artboard 1</title><path d="M806,167c.89,17.25,2,34.49,2.55,51.76.18,5.55.86,12.68-2.08,16.42-5.87,7.46-2.77,14.33-1.5,21.32,3.46,18.94,7.48,37.77,11.36,57.05h66.95c-1.39-5.25-2.35-9.47-3.63-13.58-2.75-8.78-3.82-17.6-.74-27,1.16,1.91,2.2,3.9,3.53,5.69.71,1,2,2.31,2.84,2.17,1.19-.21,3-1.48,3.1-2.5a45.46,45.46,0,0,0,.6-11.33c-1.33-12.22-1-24.15,5.08-35.22,1.09-2,3-3.48,5.44-6.21V242.1l2.06,1c2-2.25,4.79-4.18,6-6.82,3.5-8,6.41-16.31,9.5-24.51,2.93-7.75,6.91-14.49,16.8-17.88-1.29,3.12-2.48,4.92-2.72,6.84-.28,2.32.26,4.74.44,7.12,2-.39,4.1-.46,5.9-1.25a10.2,10.2,0,0,0,4.21-3.36c6.81-10,17.27-11.53,28.05-12.34,1.32-.1,2.69.4,5.57.88-2.57,1.6-4,2.14-4.91,3.15a60.56,60.56,0,0,0-4.11,5.63c2.12,1.08,4.28,3.15,6.34,3.05,6.25-.31,12.44-1.77,18.69-2.18,6.09-.39,12.49-3.39,18.23,1.17,1,.76,1.35,2.22,2,3.36a17.35,17.35,0,0,0-3.42.6c-3.5,1.33-7.27,2.32-10.3,4.37-2.77,1.88-1,6.16,3.17,7.35,5.74,1.61,11.62,2.78,17.49,3.87,8.91,1.66,16.52,8,18.3,16.38a45.85,45.85,0,0,1-4.46-2.6c-2.65-2-5.85-2.31-7.45.25-.94,1.5-.09,5.4,1.34,6.87,4.27,4.36,9.21,8.07,13.9,12,5.56,4.66,11.52,17,10.78,23.66-1.42-1.74-2.3-2.93-3.29-4-2.91-3.2-6.7-3.12-10.09-1.63-3.82,1.67-3,5.21-1.64,8.21a59.4,59.4,0,0,0,4.69,8.1c4.25,6.31,8.82,12.42,12.92,18.83,1.93,3,3.69,5,7.76,4.32,3.39-.55,7,.05,10.45,0,4.3-.1,8.6-.36,13.47-.58.6-7,1.28-13.7,1.73-20.45,1-15.6,2.15-31.19,2.79-46.8.15-3.82-1.76-7.67-2.11-11.56-.88-9.88-1.68-19.79-2-29.7-.43-12.12-.36-24.27-.51-36.4h2c.26,12.77.44,25.55.82,38.32.25,8.57.43,17.16,1.34,25.67.69,6.47,5.57,8.68,12.74,5.95-1.2-1-2.21-2.43-2.92-2.3-3.94.76-5.33-2-5.92-4.65a67.6,67.6,0,0,1-1.48-13.16c-.32-16.61-.41-33.22-.58-49.83h2v57.3l17-5.42V167h2c-.07,1.16-.18,2.32-.2,3.48-.25,16.36-.57,32.72-.66,49.08,0,2.37,1,4.75,1.61,7.12l1.68-.2c.16-2.42.45-4.84.47-7.26.06-9.45,0-18.9,0-28.35q0-11.93.06-23.87h2c0,8.13-.14,16.25-.14,24.38,0,8.48.74,17,0,25.42-1.48,15.91.17,31.53,3.22,47,2.57,13,6.8,25.73,9,38.79,1.86,11.2,2.3,22.71,2.43,34.09.09,7-9.1,17.88-15.14,18.76-9.39,1.37-18.23.89-24.32-9.24-2.52-4.2-4-9-6.36-13.34a5.41,5.41,0,0,0-3.79-2.6c-12.93-.19-25.86-.12-40.16-.12,3,6.88,5.64,12.46,8,18.13,4.71,11.2,5.28,21.45,1.65,31.72-.6-1.48-1-2.45-1.37-3.45-.72-2.2-.83-4.88-2.19-6.54-1.93-2.37-4.76-4-7.21-5.94-1.1,2.77-3.19,5.57-3.12,8.3.21,7.6,1.54,15.15,2,22.74s-3,16.67-7.77,21c-.23-3.34-.13-6.52-.75-9.56-.83-4.06-3.59-4.88-6.36-1.82a16.62,16.62,0,0,0-3.34,6.48c-2.53,8.76-3.78,18-9.36,25.59a64.14,64.14,0,0,1-4.42,4.92l-1.37-.87c.75-1.59,1.57-3.16,2.23-4.79,1.06-2.65,1.63-5.77-1.63-6.75-1.75-.53-4.93.61-6.17,2.08-4.16,4.93-7.66,10.41-11.54,15.58s-9.67,7.49-16.78,9.9c2.09-3.31,3.7-5.37,4.74-7.68.6-1.36,1-3.87.23-4.54-1.11-1-3.33-1.31-5-1.11a10.57,10.57,0,0,0-5,2.17c-7.09,5.57-15.62,7.45-24.08,8.81-4.41.71-9.2-1-13.83-1.59l0-1.74a16.2,16.2,0,0,0,3.94-1.25,69.21,69.21,0,0,0,5.57-4.28c-1.5-1.61-2.72-3.92-4.57-4.69-6.88-2.89-14.1-5-20.93-7.95-4.49-2-8.53-5-12.78-7.52l.8-1.21c2.73,0,5.49.22,8.2,0,4.45-.46,5.72-3.25,2.95-6.83-1.24-1.6-3.33-2.57-5.11-3.7-5.69-3.58-11.56-6.9-17-10.79-1.53-1.09-1.89-3.8-2.79-5.76l1-.68c2.14,1,4.19,2.54,6.46,3a7.16,7.16,0,0,0,5.42-1.19c.9-.76,1.15-3.74.39-4.74a87.64,87.64,0,0,0-10.63-12.18c-5.25-4.76-10.2-9.57-12.33-16.53a39.51,39.51,0,0,1-.88-6l1.18-.68a32.32,32.32,0,0,0,4.75,3.82c1.43.78,3.66,1.61,4.8,1s2-2.88,2.17-4.5a8.32,8.32,0,0,0-1.45-4.59c-3.23-5.23-6.76-10.28-10-15.53a81,81,0,0,1-3.83-8.3H817.27c-1.2,3.74-2.89,7.55-3.62,11.54-2.08,11.3-21.35,20.19-33,16.22-3-1-6.07-1.76-9-3-11.49-4.78-15.85-14.14-16.84-25.91-1.16-13.77,1.74-27.05,4.37-40.35,2.81-14.24,6-28.42,9.23-42.58.62-2.74-.12-4.1-2.63-4.84-7.16-2.13-9.05-8.06-9.27-14.33-.67-18.77-.86-37.56-1.26-56.34,0-1.16-.2-2.32-.3-3.48h2c.08,1.83.2,3.65.23,5.48.32,17.37.52,34.75,1,52.12.25,9.28,3.4,13.49,10.83,14.93A47.52,47.52,0,0,0,777,240c4.26.08,5-2.13,3.45-6.71-6.38,3.18-12.29,1.52-17.57-1.83.26-1.21,1.12-2.91.87-4.42a172.41,172.41,0,0,1-2.35-34.27c.34-8.56-.21-17.16-.37-25.74h3c.48,19.87.87,39.73,1.55,59.59.06,2,1.8,3.89,3.15,6.6,4.64-5.82,4.66-14,13.94-14.38,7.67-.34,13.05,1.52,16.4,8.92l1.14-.83L797,167h2c1,23.41,2,46.82,3.07,70.49,4.6-4.43,6.36-20.38,3.14-25.2a5.23,5.23,0,0,1-.71-3c.2-3.51.93-7,.83-10.49-.29-10.6-.87-21.19-1.33-31.78Zm90.89,65.06c-5.18,8.62-6.88,17.77-6.38,27.6a93.38,93.38,0,0,1-1.21,20.59c-.73,4.2-4.11,4.62-7.55,1.86-.71-.56-1.34-1.22-2-1.83l-1.45.51c.78,5,1.42,10,2.38,14.89.89,4.53,2.54,9,3.07,13.52.41,3.48,1.8,4.57,5,4.57,16.75,0,33.49.16,50.23,0a6,6,0,0,0,4.49-2.6c2-4,5.34-6.8,9.38-5.92,3.7.81,8,3.13,10.09,6.14,4.21,6.14,4.41,13.53,1.92,20.58a12,12,0,0,1-11.22,8.43c-4.65.31-6.58-3.1-8.77-6.13-1-1.32-1.67-2.8-2.5-4.22H877.07a77,77,0,0,0,3.42,7.67c3.32,5.57,6.89,11,10.29,16.51a7.92,7.92,0,0,1-.51,9.76c-2.52,3.18-5.37,1.41-8.14.32l-2.09-.83c1.89,8.72,7.92,13.4,14.15,17.92,4.57,3.31,8,7.39,9.19,13.12.94,4.64-1.11,7.51-5.81,7.45a36.12,36.12,0,0,1-6.25-1.16,35.77,35.77,0,0,0,9.51,8c3,1.7,6.41,2.51,9.53,4,3.53,1.64,6.55,7.56,5.12,10.32-1.92,3.69-5.31,4.06-9,3-.26-.08-.61.17-2.08.65,2.52,1.29,4.22,2.36,6.06,3.07,9,3.46,18,6.65,26.91,10.35a8,8,0,0,1,4,5c.31,1.28-1.55,3.22-2.71,4.64-.63.79-1.82,1.12-2.76,1.65l.26,1.28c3.18-.31,6.57,0,9.5-1,7.77-2.72,15.45-5.76,23-9.17,4-1.84,8.06-1.92,11.25.32,1.11.78-.35,5.2-.72,8.68,2-1.38,3.86-2.22,5.07-3.64,4.51-5.31,8.59-11,13.26-16.15,2-2.27,5-4.78,7.77-5,2.32-.2,4.93,2.7,7.65,4.37.36-1,1.07-2.63,1.57-4.35q3-10.26,5.91-20.55c1.12-4,4.14-5.64,7.83-5.79s4.38,2.92,5,5.78c.09.36.62.62,1.21,1.17,3.37-5.78,3.38-11.83,2.79-17.93s-1.82-12.17-2-18.28c-.07-3.38.21-7.74,4.53-9s7.28,1.18,9.27,4.92c.51,1,1,1.91,1.56,2.86,1.06-2.51,1.66-5.09,1-7.24-2.8-8.48-6.12-16.79-9-25.24-1.43-4.17-3.17-8.47-3.39-12.78-.36-6.83,7-10.64,13-7.28.91.5,1.76,1.12,3.31,2.13-.29-1.93-.15-3.23-.69-4.13-4.41-7.38-9-14.67-13.43-22-2.81-4.63-6.06-9.08-8.13-14-1.88-4.49,1.45-8.84,6.38-8.94,2.77-.06,5.56,1,8.33,1.49l1.2-.86c-3.84-5-7.39-10.33-11.59-15-3.06-3.43-7.19-5.88-10.44-9.17-8.51-8.62-7.74-11.67,3.63-15.31-5.06-6-12.08-7.13-19.15-8.49-4.65-.9-9.59-1.84-13.61-4.13-5.24-3-4.73-8.23.38-11.26,2.37-1.4,4.84-2.66,7.76-4.26-1.41-.45-2.34-1.06-3.2-1-8.85.94-17.67,2.19-26.54,2.89-3.46.28-7.59.37-10.38-1.25-4.17-2.42-3.31-6,2-11.67-1.74.27-3.2.39-4.61.73-7.45,1.77-14.88,3.34-19.38,10.77-1.37,2.27-4.14,3.84-6.52,5.34-4.92,3.11-8.37,1.26-8.7-4.5-.11-1.83,0-3.67,0-6.34a23.22,23.22,0,0,0-9.77,13c-3.17,9.55-6.73,19-10.34,28.37-1.32,3.44-4.67,5.85-7.82,4.57-2.19-.89-3.43-4.71-4.51-7.45C895.83,235.53,896.67,233.67,896.89,232.06ZM757,323.37c-.34,17.12,6.83,28.16,21.26,30.46,8.46,1.36,22.08-3.27,24.44-13.74,2.27-10.06,3.21-19.78,1.39-30-1.55-8.69-6.1-13.94-14.41-16.51-9.42-2.92-17.75-.4-24.16,6.22A30.18,30.18,0,0,0,757,323.37Zm59.87,5.11c5.38-.91,10.18-1.75,15-2.49.91-.14,2.4-.22,2.75.28,2.21,3.2,4.24,1.75,6.62.24a8.15,8.15,0,0,1,3.84-.76c1.09,3.89,4.22,2.34,6.45,2.3,12.68-.27,25.35-1,38-1.1,10.67-.06,21.34.79,32,.81,9.3,0,18.59-.75,27.89-.78,4.11,0,6.48-1.16,6.28-5.52-.19-4.15-2.73-5.95-7.11-5.38a35,35,0,0,1-4.47.06l-55.6-.14q-17.93,0-35.86-.1c-11.91,0-23.82,0-35.82,0Zm271.17,1.33a33.93,33.93,0,0,0,7.55,18c6.39,8.11,17.64,6.28,21.55-3.32,4.27-10.5,4.21-21.29,2.23-32.24-1.36-7.59-3.1-15-8.6-20.86-4.09-4.38-10.73-4.29-14.31.46a36.35,36.35,0,0,0-4.49,7.72c-1.59,3.8-2.68,7.8-4,11.72l1.33,1.32c3.9-.85,7.77-2,11.72-2.44,2.28-.28,5.26-.26,6.92,1,4.15,3.09,4.54,13.41,1.25,17.5-2.59,3.21-5.68,4.11-9.73,3C1096.08,330.75,1092.47,330.5,1088.07,329.81ZM793,354.82c8.15.24,16.65-7.06,19.08-14.76,4.38-13.92,1.88-27.5-1.28-41.19-3-12.91-5.58-25.92-8-38.95-2.18-11.86-2.77-24-8.39-35.13-2.39-4.74-5.44-3.95-8.14-3.42,1.73,5.78,4.23,11,4.73,16.41a289.17,289.17,0,0,0,12.35,61.45c3.54,11.1,6.52,22.18,3.52,34.16C804.79,341.86,802.59,349.82,793,354.82Zm4.31-65c-2.56-13-5.07-25.85-7.64-38.92-2.09.13-3.88.37-5.66.32-6-.14-7.85,3.17-8.24,8.61-.25,3.41-1.7,6.72-2.53,10.1-2,8-3.93,16-5.88,24C777.1,288.46,787.2,290.87,797.3,289.84Zm318.49,63.21c1.15-.44,3.63-.62,4.51-1.9,3.14-4.56,7.17-9.2,8.23-14.35,2.35-11.46.63-23.09-2-34.48-2.26-9.86-4.89-19.65-6.74-29.59-2.58-13.86-4.57-27.82-6.83-41.74-.75-4.57-4.83-8-8.28-7.66,1.09,2.88,2.81,5.8,3.3,8.92,1.54,10,2.34,20,4,30,2,12.43,4,24.92,7.08,37.1,3.34,13.2,5.24,26.29,2.07,39.64C1120,343.63,1117.72,348,1115.79,353.05Zm-74.89-26.26,1.53,1.34c3.79,0,7.59,0,11.38,0,14.92-.05,29.84-.05,44.77-.19a7,7,0,0,0,7.23-7.64c-.14-4.43-2.36-6.48-7-6.25-5.12.25-10.26,0-15.39,0h-26c-.32,4.4-.54,7.48-.77,10.57l-1.21.41c-2.48-4-5.75-7.47-10.34-5.47C1043.06,320.46,1042.27,324.29,1040.9,326.79Zm55-39.65,18.16-1.67c-2.07-11.06-3.94-22.13-6.43-33.05-.29-1.31-3.93-2.55-6-2.5-1.26,0-3.37,2.48-3.54,4-1,8.89-1.56,17.83-2.18,26.75C1095.76,283.06,1095.9,285.44,1095.9,287.14ZM945.74,330.81c3.83,8.11,11,9.21,16,2,3.37-4.81,2.8-19-1.7-22.57-2.39-1.89-6.34-2.57-9.51-2.4-2,.11-3.85,2.82-5.76,4.36,8.93.89,12,2.67,12.74,8.26.25,2.05.2,5.41-.95,6.1C953.31,328.58,949.38,329.49,945.74,330.81ZM772.91,244.5l-2.11.25q-5.89,28.44-11.81,56.89l1.49.52c1.34-1.79,3.42-3.41,3.9-5.41,3.59-14.84,7-29.72,10.08-44.67C774.94,249.76,773.47,247,772.91,244.5Zm320.75,1.89-2.62.33q-1.15,24.9-2.33,49.78l1.79.34c.75-2.89,1.94-5.74,2.18-8.66q1.42-17.62,2.31-35.27C1095.1,250.76,1094.13,248.56,1093.66,246.39ZM775,244.09c1.47,1.62,2.68,3.88,4.51,4.65,1.32.56,3.89-.37,5.19-1.47,6-5.08,5.79-17.46-.23-22.82-3.49-3.1-8.37-2.1-10.12,2.27-.54,1.35-.26,3-.35,4.55a24.76,24.76,0,0,0,3.73-1.48c3.66-2.16,6.88-1,8.11,3.12C788.21,240.81,784.34,244.87,775,244.09Zm318.42-3.73-1.45,1.37c2,1.93,3.68,5.05,5.94,5.52,3.14.65,7.74.25,8-4.44a43.9,43.9,0,0,0-1.29-14.09c-.52-1.94-4.26-4.7-5.88-4.31-3.28.79-3.68,4.12-2.23,7.43,3.87-.05,7.89.73,6.77,5.48C1102,242.87,1097.21,240.83,1093.41,240.36Z"/><path d="M1271,167c1.09,10.58,2.53,21.14,3.18,31.74.91,14.87,1.22,29.77,1.81,44.65q1,25.82,2.1,51.64a11,11,0,0,0,1,4.27c3.71,7.46.78,12.77-6.46,16.59-8.12,4.29-15.32,10.37-22.83,15.79-2.93,2.11-5.78,4.3-4.16,8.86a5.19,5.19,0,0,1-1.38,4.58c-4.33,3.54-2.89,8-2.68,13.81,5.91-7.56,13.65-3.93,20.36-5.4,1.43-.31,4.14,1.38,5,2.87,7.25,12.65,14,25.61,21.41,38.14,2.26,3.8.76,5.46-1.75,7.36-4.87,3.7-9.88,7.23-14.77,10.91-15.48,11.67-30.88,23.44-46.48,34.95-1.48,1.1-4.18,1.18-6.17.87-6.56-1.05-13-2.76-19.6-3.61-2.09-.27-4.82.87-6.55,2.25a130.06,130.06,0,0,0-10.47,9.88c-3.64,3.62-7.56,4.32-10.78.48a34.84,34.84,0,0,1-6.71-12.48c-1.62-5.69.46-7.9,6.05-10.32s11.25-5.45,17.24-8.4c-1.89-3.81-3.29-7.17-5.15-10.25-5.17-8.59-4.54-11.82,3.81-17.8,4.84-3.47,9.87-6.74,14.37-10.62,2-1.74,4-4.67,4.18-7.21.9-10.26,1.22-20.57,1.49-30.87,0-1.59-1.15-3.32-2-4.82-3.25-5.47.63-13.26,7-13.05,1.93.07,3.76,2.68,5.66,4.09,1.21.9,2.49,2.46,3.68,2.41.91,0,1.65-2.21,2.63-3.28,1.59-1.74,3.08-3.71,5-4.95,4.84-3.09,10-5.74,14.86-8.75,3.39-2.08,6.52-4.57,9.88-6.7s5.22-4.13,3.92-8.68,1.48-8.09,5.73-9.85c2.77-1.15,3.57-2.68,3.42-5.64-.8-15.61-1.31-31.24-2-46.86q-1.46-32.07-3-64.13c-.18-3.71-.63-7.41-1-11.11l1.56-.2c.57,5.44,1.37,10.86,1.66,16.31,1.82,34.36,3.44,68.73,5.41,103.08.17,2.89-.88,7.78,5.42,8,.23-4.24.76-8.31.63-12.36-.86-25.34-1.63-50.68-2.91-76-.68-13.44-2.34-26.82-3.56-40.23Zm-43.37,213.9c-9.83,7.6-19.18,14.7-28.31,22.07-1.21,1-2.29,4-1.67,5.07,6.55,10.93,13.42,21.67,20.33,32.38,1.23,1.9,3.06,3.41,5.49,6.06,21.3-16.23,42.44-32.35,63.69-48.56-7.65-13.65-15.06-26.86-22.76-40.58-7,5.1-13.47,9.7-19.82,14.46-4.25,3.19-6.28,16.12-3.38,20.53,6,9.17,3.91,15.95-6.12,19.52a12,12,0,0,1-14.59-4.92c-2.86-4.82-2.16-11.65,3.07-14.64C1228.55,389.44,1228,385.85,1227.63,380.9Zm-41.9,69.81c4.19-3.84,9.17-8.15,13.84-12.76,3-3,2-6.66-.12-9.53-1.18-1.55-4.29-3.41-5.51-2.86-6.68,3-13,6.7-18.69,9.71Zm45.13-99.66c0,14,0,27.75,0,41.52,0,1.41-.36,2.81-.47,4.22-.1,1.26-.44,2.68,0,3.73.25.59,1.94.82,2.95.75,4.6-.35,4.08-4.07,4.18-7,.23-7.08.06-14.17.29-21.25.26-7.57.79-15.14,1.22-23.06Zm-14.77,26.28c4-3.32,7.6-6.17,11.05-9.17a4,4,0,0,0,1.17-2.6c.26-4.81,1.23-9.85.15-14.37-.58-2.42-4.59-4.49-7.48-5.62-.92-.37-4.58,2.71-4.66,4.34C1215.84,358.78,1216.09,367.69,1216.09,377.33Zm3.26,68.86c-1.92-2.64-3.46-4.57-4.79-6.63-6.2-9.63-12.3-19.32-18.52-28.94-3.41-5.29-7.81-6.06-13.88-2.38l7.71,14.28c3.32-3.21,6.13-3.39,10-.95,5.83,3.68,8.8,14,6.07,21.13Zm-33.08-43.9.64,1.36c3.9.76,7.39.47,10.81-2.37,9.2-7.63,18.71-14.88,27.92-22.49,1.47-1.21,2-3.56,2.95-5.38l-1.61-1Zm-5.07,51c.07-6.43-2.61-12-6.91-14.45a6.78,6.78,0,0,0-5.34-.4c-1.15.5-2.42,3.05-2.07,4.21a52.88,52.88,0,0,0,5.19,12.56c.92,1.49,4.39,2.29,6.43,1.92C1179.86,456.9,1180.74,454,1181.2,453.31ZM1266,315.86c0-.59.07-1.19.1-1.78-2.19-.21-5-1.39-6.47-.47-7.61,4.79-14.87,10.12-22.25,15.25l.4,1.9c2.48.32,5.74,1.82,7.31.77C1252.28,326.7,1259,321.15,1266,315.86Zm-38,76c-6,3.11-8,8.71-5.32,13.57,2.41,4.41,10.66,6.13,15.09,3.14,5-3.38,5.92-7.74,2.29-12.76-1.38,4.66-3.36,9.52-8.81,8.28C1224.45,402.58,1228,396.63,1227.94,391.89ZM1213.61,350c-3.36-1.79-4.75-.63-4.64,3.12.1,3.31,0,6.62.06,9.93.07,6.45,1.71,13-.26,19.65,2.13-2.22,4.49-4.73,4.65-7.37C1213.93,366.91,1213.61,358.48,1213.61,350Zm27.21,21.39,20.91-15.09C1240.85,358.23,1239.84,358.94,1240.82,371.35Zm-12-38.36,11.78,12.6c3.41-3.77,3.53-7,.88-10.34C1238.1,331.05,1233.79,331.84,1228.81,333Zm48.67-23.76c2.81-3.69,1.78-7.58-.92-9.5-3.32-2.36-7.5-1.52-11.26,2.17Zm-49.8,26.4-2.23.71c.43,2.43.21,5.3,1.45,7.2,2.35,3.61,6.06,4.85,10.93,3.07Zm47.73-23.32.24-2.79L1263,303.9c-.2,4.45,1.45,7.67,4.71,9C1269.87,313.7,1272.82,312.56,1275.41,312.31Zm-59.21,25.78c-1.92-4.27-4.23-5.32-7.34-2.78-2.55,2.09-4.82,4.77-2.12,8,1.79,2.14,4.23,4.53,7.8,2.43-4.59.8-5.87-1.87-5.38-5.33S1212.3,336.17,1216.2,338.09Zm6.7,4.63c0-.51,0-1,0-1.52-3.62-.81-7.26-1.92-10.71,1.52Z"/><path d="M578,167c-.08,7.58,0,15.16-.28,22.73-.28,6.79-1.19,13.56-1.5,20.35-1.16,25.73-2.16,51.47-3.28,77.2-.54,12.45-.94,24.92-1.91,37.34-.41,5.25,1.3,7.38,6.54,7.1q3.81-81.63,7.64-163.45l2.26.11-6.75,129.85,1.8.12c1-43.23,4.49-86.25,8.54-129.22l2,.11c-.06,1.33-.09,2.66-.19,4-1.29,17.39-2.79,34.76-3.85,52.16-1.61,26.39-2.9,52.8-4.34,79.2-.45,8.29-1,16.58-1.36,24.87a13.53,13.53,0,0,0,.72,4.34c.9,3,2,6,3.39,10.33,4.64,3.35,10.33,8.29,16.78,11.86,5.83,3.24,12.16,6.55,19.43,4.23a21.78,21.78,0,0,0,4.19-1.32c5.91-3.39,11.57-.41,11.45,6.44-.15,8-1,15.93-1.18,23.9s.74,15.89-.11,23.7c-.91,8.44,3.64,12.75,9.48,17.09,4.24,3.15,7.89,7.06,12,10.45,2.58,2.15,2.56,4.34,1,7-2.26,3.86-4.4,7.79-6.92,12.27,5.91,2.86,11.74,5.51,17.38,8.51,2.66,1.42,7.15,3.74,7,5.29a21.46,21.46,0,0,1-4.71,11.53c-5,5.76-10.3,5.48-16.13.44l-14.11-12.23c-4.57,11.54-15.07,5.68-22.58,8.57-1.74.67-5-1.41-7.05-2.89q-22.93-16.33-45.64-33a28.73,28.73,0,0,1-3.71-3.91c6.77,4.35,13.71,8.46,20.27,13.11,10.38,7.38,20.44,15.22,30.78,22.67,4.8,3.46,8,2.82,11.35-2s6.13-9.87,9.38-14.69A66.25,66.25,0,0,1,641,455L627.7,478.62c9.68.82,9.68.82,13.39-6.64-3.28-2.66-4.45-5.94-2.16-9.93,3-5.19,7.44-6.06,13.13-3.91,2.56-4.82,5-9.41,7.52-14.19-8.63-1.6-10.73-.59-14.58,5.93a47.36,47.36,0,0,1-4.19,5.26l5.69-11.72-33.25-27.6L612,417c.94,6.49-2.62,13.68,4.27,19.38,1.39,1.15.79,6.1-.37,8.62-1.83,4-6.24,4.7-10.36,2.77-4.76-2.23-6.46-5.62-5.14-10.53.72-2.69,2.18-5.29,2.37-8a176.15,176.15,0,0,0,.24-17.95,6.71,6.71,0,0,0-2.24-4.47c-3.87-3.09-8.17-5.64-12.07-8.71-3.68-2.9-6.32-2.62-9,1.37-4.41,6.54-9,12.95-13.78,19.27-3.55,4.74-7.39,9.26-11.74,14.67l9.94,8.84a120,120,0,0,1-9.67-7.66c-.8-.77-.18-3-.18-4.62,0-.13.2-.26.31-.38,5.9-6.16,11.8-12.17,11.75-21.74,0-1.73,3-3.69,5-5.15,2.09-1.59,5-2.27,6.71-4.14,3.83-4.28,7.93-6.32,13.76-4.71,3.44.94,7.1,1.08,11,1.62,0-7.33.18-15-.16-22.7,0-1.38-2-3-3.39-4-9.68-6.7-19.35-13.43-29.25-19.82-5.83-3.76-7.12-10.26-3-15.92a13.2,13.2,0,0,0,2.06-6.9c1.12-27.35,1.8-54.72,3.16-82,1.28-25.72,3.22-51.4,4.87-77.1Zm50.31,245.42V369.28c-4.26,0-8.23.1-12.21,0-3.33-.11-3.55,1.47-3.44,4.35a177.77,177.77,0,0,1-.25,20.39c-.31,3.78.69,6.5,3.46,8.73C619.7,405.79,623.61,408.76,628.31,412.42ZM656,439.78c-14.91-11.22-26.74-26-43-36.36-1.8,6.12-1,10,3.86,13.64,8.4,6.2,16.38,13,24.15,20C645.39,441,649.83,442.51,656,439.78ZM658,484.55c3.45-5.69,6.38-10.54,9.13-15.09-3-1.71-6.72-3.84-10.46-5.86-8.6-4.63-8.61-4.61-12-3.27l16,10.08-.61,1-17.4-10.28c-2.74,2.21-3.7,4.87-1.29,7.36C646.83,474.05,652.58,479.31,658,484.55ZM610.3,370.11c-4.7.44-5.64,2.65-5.48,6.49.34,8.27.13,16.57.13,24.85,0,9.61,0,19.21,0,28.91l5.34,1.84Zm24.28,49.06c1.11-1.74,1.4-2,1.41-2.24q1-25.85,1.88-51.68c.13-3.91-2.28-5.66-6.8-5,2.92,2.71,4.81,5.43.5,8.46-.49.34-.53,1.53-.53,2.32,0,13.61-.17,27.22.1,40.82C631.19,414.06,633.12,416.2,634.58,419.17Zm-53.3-78.85c.16-4.92-2.74-7.52-8.8-7.35-3.52.1-6.41,1.55-6.54,5.76-.12,3.91,3.91,8.42,7.44,8.41C577.8,347.12,581.15,344.22,581.28,340.32Zm17.92,18.43c-4.94-3.43-10.06-6.81-15-10.45-3.32-2.46-6-1.51-9.17.76,4,2.69,7.66,5.09,11.24,7.67,3.74,2.7,7.36,5.57,11,8.33ZM663.64,487c5.67-.18,9.68-3.73,11.06-9.37.4-1.66-.27-4.8-1.38-5.33-1.62-.78-5-.62-6,.54A37,37,0,0,0,661.54,483C661.13,484,663.1,486,663.64,487Zm-74.08-90,13.29,9.47C603.51,397.17,603.51,397.17,589.56,397Zm23.31-33.45c1.6,4.38,14.12,4.65,20.08,0Zm-4.24.6,1.24-1.3c-1-1.3-2.18-3.75-3.13-3.68-2.09.15-4.88,1.08-5.87,2.64-.68,1.08.75,4.1,2,5.65,1.86,2.31,4.32,2.27,7-.2l-9.11-3.72.44-1.21Zm3.82,70.58c-4.56-2.19-7.61.2-9.85,2.7-1.07,1.19-.19,4.13-.19,6.27l1.72.2Zm-31-131.12h-.56v25.84l.56,0Zm34.26,134.59-2-1.85-6.61,7.58,1.58,1.45Q612.2,441.75,615.71,438.17Z"/><path d="M709,167c.36,7.95.54,15.92,1.14,23.85.7,9.36-.4,19,4,27.83,1.48,2.95,3.44,5.65,5,8.55,3.32,6.09,6.77,12.14,9.64,18.45A11.4,11.4,0,0,1,729,253c-3.84,12.78-1.68,25.76-1.55,38.64.06,7.27.21,14.67,1.58,21.76.86,4.41,3.08,9.67,6.45,12.24,5.58,4.25,6.9,9.89,8.42,15.74,1.82,7.06,3.19,14.25,4.91,21.34,1.82,7.48,1.9,7.46-5.1,10.31,1.92,4.38,4,8.7,5.73,13.15a9.65,9.65,0,0,1-4.93,12.48c-9.21,4.67-17.55,2.94-21.35-5.92-1.76-4.09-4.06-7.94-6.31-12.27-3.53.48-7.5,1.71-11.3,1.32a21.08,21.08,0,0,1-9.61-4c-8.44-6.07-16.61-12.54-24.77-19a6.25,6.25,0,0,1-1.83-3.68c-.69-4.42-1.18-8.87-1.64-13.32-1-9.8-2-19.61-3-29.38l12.45-2.36c0-10.48,0-20.58,0-30.67a124.83,124.83,0,0,0-.45-14,42.62,42.62,0,0,0-2.81-11.31c-2.16-5.22-1.39-8.48,3.41-11.32a9.12,9.12,0,0,0,2.67-3c2.71-4.24,4.53-9.43,8.13-12.64,8-7.2,12.78-15.48,13-26.34.2-11.29.58-22.59.88-33.88h2c-.06,9.48-.32,19-.12,28.43.29,13.87-4.46,25.19-15.39,34-2.7,2.18-4.65,5.59-6.19,8.8-1.28,2.64-.16,4.54,3.29,3.45.91-6.45,2.63-9.17,7.94-13.77,9.13-7.91,14.11-17.74,14-30.07-.07-10.29.29-20.59.46-30.88Zm8.17,136c0-13,.39-25.76-.23-38.49-.19-4.06-2.5-8.43-5-11.76-1-1.27-5.25-.06-8,.1-1.83.1-3.65.32-5.47.53-6.1.69-9.5,5-9.16,11.09.68,12.27,1.16,24.54,1.74,36.81.09,1.89.26,3.78.38,5.55Zm.4,74.92c-1.7-2.38-2.94-3.55-3.48-5-1.31-3.44-3.6-7.21-3.11-10.48.89-5.93,12.78-11.5,18.68-9.77,4.92,1.44,6.39,5.27,7.19,9.76,1.26,7,5.36,9.14,10.65,5.2-2.58-10.64-5.25-21.44-7.81-32.27-.87-3.66-2.68-4.77-6.43-3.66-11,3.25-22,6.26-33.09,9.25-3.29.89-4.18,2.69-3.39,5.92,1.77,7.22,3.37,14.49,5,21.76.79,3.65,1.4,7.34,2.08,10.95Zm17.72-48.91c-5.32-6.83-9.92-13.09-14.94-19-1.68-2-4.55-4.39-6.71-4.23-6.74.5-13.41,2.05-20.06,3.41a3.51,3.51,0,0,0-2.13,2.56c-.22,7.43-.32,14.88-.21,22.32,0,4,2.74,5.85,6.55,4.9,1.92-.48,3.78-1.21,5.7-1.72C713.86,334.6,724.25,331.91,735.29,329.05Zm10.08,53a48.36,48.36,0,0,0-2.87-5.76c-3.74-5.24-7.38-10.58-11.52-15.49-3-3.57-7-1.88-10.6-.63s-5.18,4.3-4.27,7.5c2.37,8.34,5.4,16.49,8.17,24.71l1.37-.23C729,383,736.2,381,745.37,382Zm-39.8-164.4c-3.61,4-7.56,8.35-11.49,12.73-1.44,1.6-3.27,3-4.13,4.91-1,2.23-2.38,5.71-1.4,7.1,1.42,2,4.91,3.88,7.33,3.66,7.46-.67,15.32-1.06,21-8ZM683.35,346.32l1.47-.83c0-8.26.17-16.53,0-24.79-.41-15.91-1.21-31.82-1.48-47.74-.11-6.48-2.32-13.47,2.57-19.22,2.5-2.94,2.25-5.47-.32-7.8s-6-2.73-8.68-.5c-2.53,2.08-2.7,5-1,8.11,1.53,2.84,3.3,6,3.42,9.07.57,13.87.62,27.77.81,41.66.17,12.5.17,25,.52,37.51C680.66,343.32,682.4,344.81,683.35,346.32ZM675,358.85c0-4.28-1.06-7.82.21-9.21,3.36-3.69,2.91-8,3.37-12.11,1.07-9.44-2.59-15.91-11-20.38.75,8.22,1.5,16.59,2.29,25a94.75,94.75,0,0,0,1.33,11.32C671.63,355.13,673.34,356.53,675,358.85Zm24.42,18.47,1.49-.79Q697,358.74,693,341l-1.32.1c0,3.52-.37,7.09.08,10.54.94,7.16-1.57,10.25-8.89,10.17a19.65,19.65,0,0,1-2.52-.31Zm29.72,16c-.6,3.56,1.24,5.08,4.18,5.87,3.57,1,10.93-1.11,12.49-4.33,1.08-2.25,1.84-6.65.72-7.54-2.28-1.8-6.23-3.07-8.93-2.38C733.62,385.92,728.46,387.25,729.14,393.28Zm-38.46-147-.84.69c-.48,2.25-.29,5-1.56,6.65-2.93,3.73-3.55,7.68-3.19,12.16.41,5.09.63,10.2.73,15.31.4,21.11.72,42.22,1.11,63.33a26.08,26.08,0,0,0,.51,3.48l1.22-.09c0-6.74.08-13.48,0-20.23-.1-6.27-.48-12.54-.59-18.81-.2-11.06-.26-22.12-.42-33.17-.11-7.66-2.13-15.5,3.67-22.38C692.36,252,691,248.64,690.68,246.28Zm27.48,9.34c4.41,5.16,4.14,11.2,4.47,16.82.55,9.62.2,19.29.52,28.93.12,3.86,1,7.69,1.54,11.54l1.78-.25c-.85-18.87-1.7-37.73-2.57-57.07,2.75-1,3.91-3.65,3.37-7.46-.5-3.56-2.09-6-6-7.27C725.37,249.17,724.65,252.28,718.16,255.62Zm5-17.05L708.1,211.22C706,216.56,716.13,237.26,723.19,238.57Zm-28.63,9.88-.79,1.65c1.41.42,2.84,1.28,4.22,1.19a130.83,130.83,0,0,0,13.84-1.43c2.09-.35,4-1.65,6-2.51-.25-.86-.51-1.72-.76-2.57ZM721,268.55l-1.74,0c0,3.29-.07,6.59,0,9.88s.42,6.61.54,9.92c.12,3.47-.2,7,.3,10.42.4,2.77-2.43,6.23.88,8.63Zm-8.7,95.51c3.31-2.11,6.41-5.15,10.05-6.11s7.6.3,11.17.55c-1.45-3.83-5.24-4.38-9.14-3.35C719,356.57,713.35,358,712.29,364.06Zm-33.15-15.91-.32,2L687,356l1.45-.92c-1.07-2.08-1.7-4.71-3.36-6.07C683.75,347.91,681.16,348.37,679.14,348.15Zm-9.31-33.29,7.71,6.93v-8.87a29.47,29.47,0,0,0-3.35.44C673.1,313.63,672.07,314.08,669.83,314.86ZM677,352c1.28,7.08,4,8.73,8.44,5.76-.18-.26-.3-.61-.55-.76C682.43,355.45,680,353.89,677,352Zm39.55-99.8,1,1.46c1.44-1.51,3.83-2.85,4.11-4.54.54-3.26-.47-6.46-5.1-7.24C720.93,246.2,721.27,249.29,716.56,252.24Z"/><path d="M1171,167c.25,14.23.57,28.45.71,42.68,0,4.91.8,9,4.62,12.92a8.14,8.14,0,0,1-.21,11.43c-3.5,3.65-3.44,7.88-2.53,12.14,3.25,15.21,6.82,30.35,10.06,45.57.54,2.52.13,5.27,0,7.9-.49,8.86.37,17.87-4.4,26.13-2.88,5-6.53,8.9-11.78,11-4.94,1.94-10,2.28-14.4-1.73-4.67-4.21-7.68-9.22-7.39-15.62,0-1.24,1.77-3,3.08-3.4,1-.33,2.55,1,3.83,1.68.23.12.35.55.44.87,1.42,4.64,4.49,7.53,9.39,7.38,3.14-.1,6.13-6.17,6.85-11.21,3.1-21.7-1.13-42.69-5.87-63.65-.44-1.94-.43-4-1-5.9-1-3.53-1.84-7.22-3.54-10.42-3-5.72-1-10.5,1.67-15.44.92-1.69,2.07-3.57,2.1-5.38.26-15.64.28-31.28.37-46.92h2c2,20.3-1.77,40.8,1.21,61.87,3.55-3.29,4.15-44.81,1.79-61.87Zm-7.74,71.47c1.44,7.65,2.7,14.62,4.09,21.56,1.63,8.1,3.37,16.18,5.05,24.27.7,3.34,1.82,6.67,1.91,10a64.81,64.81,0,0,1-1,14c-1.17,5.95-2.47,12-5,17.5-2.35,5.1-8.06,6.09-12.83,2.93-2.79-1.85-5-4.6-7.18-6.69.46,6.41,5.11,12.12,11.26,13.38,4.66,1,12.9-3.09,15.42-7.32,6.9-11.59,7.65-24.37,5.6-37-2.81-17.32-7-34.4-10.68-51.78Zm8.81-17.3c-.88,3.75.37,9.27-4.91,9.52-2,.09-4.18-3.88-6.14-5.86a8.11,8.11,0,0,0,2.27,11.08c3.47,2.31,8.9,1,11.38-2.76C1177,229.64,1175.92,224.1,1172.07,221.17Z"/><path d="M1215,167c-.27,17.45-.6,34.89-.69,52.34a9.48,9.48,0,0,0,2.26,5.55c3.39,4.11,3.63,7,.25,11-.32.37-1,.61-1.06,1-3.32,15.9-11.71,30.9-8,48.07.91,4.2,3,7.36,6.55,7.66,3,.25,6.85-1.59,9.07-3.77s4.11-4.36,6.3-2.16c1.2,1.21.83,5.35-.32,7.27-3.37,5.62-13.48,8-20.75,5.5-9-3.06-14-10-14.74-17.47-1.08-11.24,3.49-21,6.67-31.13.89-2.84,2.51-5.54,2.93-8.43a8.17,8.17,0,0,0-1.67-5.91c-3.62-4.1-3.47-7.45.8-10.88a7.61,7.61,0,0,0,2.61-4.32,92.61,92.61,0,0,0,.91-11.89c.36-14.14.6-28.27.88-42.41h2c0,4.82,0,9.63-.06,14.45-.36,14.92-.85,29.84-1,44.76,0,1.49,1.61,3,2.47,4.49.67-1.16,1.9-2.31,1.92-3.48.33-20.07.51-40.14.72-60.22Zm-7.61,71.12c-3.24,9.47-6.19,18.41-9.35,27.28-4.44,12.44-1.92,29.1,12.15,33,8,2.21,16.68-1.15,18.06-8.3-.72.68-1.3,1.26-1.91,1.8-7.68,6.78-19.77,4.89-21.56-6.95-.79-5.22-1.53-10-.32-15.44,1.41-6.43,2.55-12.75,5.3-18.81,1.77-3.9,2.55-8.24,3.82-12.56Zm8.48-10.33c-4.88,6.39-7.6,5.92-11.34-1.49-3,2.38-3.82,4.74-2.25,6.9,1.89,2.6,9.29,3.58,12.48,1.6C1217.5,233.11,1218,230.93,1215.87,227.79Z"/><path class="cls-1" d="M761,167c.16,8.58.71,17.18.37,25.74A172.41,172.41,0,0,0,763.72,227c.25,1.51-.61,3.21-.87,4.42,5.28,3.35,11.19,5,17.57,1.83,1.54,4.58.81,6.79-3.45,6.71a47.52,47.52,0,0,1-7.93-.44c-7.43-1.44-10.58-5.65-10.83-14.93-.46-17.37-.66-34.75-1-52.12,0-1.83-.15-3.65-.23-5.48Z"/><path class="cls-1" d="M804,167c.46,10.59,1,21.18,1.33,31.78.1,3.48-.63,7-.83,10.49a5.23,5.23,0,0,0,.71,3c3.22,4.82,1.46,20.77-3.14,25.2C801,213.82,800,190.41,799,167Z"/><path class="cls-1" d="M708,167c-.17,10.29-.53,20.59-.46,30.88.1,12.33-4.88,22.16-14,30.07-5.31,4.6-7,7.32-7.94,13.77-3.45,1.09-4.57-.81-3.29-3.45,1.54-3.21,3.49-6.62,6.19-8.8,10.93-8.85,15.68-20.17,15.39-34-.2-9.47.06-19,.12-28.43Z"/><path class="cls-1" d="M1091,167c.17,16.61.26,33.22.58,49.83a67.6,67.6,0,0,0,1.48,13.16c.59,2.62,2,5.41,5.92,4.65.71-.13,1.72,1.32,2.92,2.3-7.17,2.73-12.05.52-12.74-5.95-.91-8.51-1.09-17.1-1.34-25.67-.38-12.77-.56-25.55-.82-38.32Z"/><path class="cls-1" d="M1213,167c-.21,20.08-.39,40.15-.72,60.22,0,1.17-1.25,2.32-1.92,3.48-.86-1.5-2.49-3-2.47-4.49.2-14.92.69-29.84,1-44.76.11-4.82,0-9.63.06-14.45Z"/><path class="cls-1" d="M1168,167c2.36,17.06,1.76,58.58-1.79,61.87-3-21.07.84-41.57-1.21-61.87Z"/><path class="cls-1" d="M1115,167q0,11.94-.06,23.87c0,9.45,0,18.9,0,28.35,0,2.42-.31,4.84-.47,7.26l-1.68.2c-.56-2.37-1.62-4.75-1.61-7.12.09-16.36.41-32.72.66-49.08,0-1.16.13-2.32.2-3.48Z"/><path d="M1143.77,614.81c-10.43-12.31-11.51-27.41-12.78-42.47q-2.55-30.09-5.2-60.16a15,15,0,0,0-.79-2.78l-1.46-.15c-1.47,8.67-4.16,17.33-4.12,26a190.27,190.27,0,0,0,3.58,38c2.7,12.85,7.62,25.27,12,37.71,1.46,4.12,5,7.51,6.42,11.64,1.72,5,2.31,10.46,3.17,15.76,1.32,8.22,2.47,16.46,3.64,24.7.4,2.77.66,5.56,1,8.33,16.51,3.48,33.11,6.54,49.47,10.56,15.75,3.86,31.49,8,46.78,13.35a205,205,0,0,1,35.54,16c10.46,6.06,19.16,14.91,19.93,28.16.51,8.7-1,17.38-7,24.33-5.4,6.25-10.85,12.56-17,18.06-4,3.64-9.32,5.92-14.89,9.32,7.64,1.78,14.36,3.17,21,4.91,9.08,2.39,18,5.17,27.12,7.54,6.22,1.63,12.52,3,18.83,4.21,12.84,2.53,25.79,4.52,38.52,7.46,11.25,2.6,22.64,5.27,33.31,9.54,13.6,5.45,16,23.46,5.33,33.86-.47.45-.89.95-1.94,2.09l9.2,2c-6.33,2.08-49.38,1-54.45-1.22l2.91-1.16a13.54,13.54,0,0,0-1.39-.5c-16.26-4-32.59-7.72-48.76-12-13-3.47-25.73-7.71-38.62-11.51-3.34-1-6.8-1.52-10.19-2.34-22.39-5.43-44.71-11.16-67.21-16.08-4.53-1-9.73,1.08-14.62,1.78-18.2,2.62-36.38,5.41-54.6,7.81-9.38,1.24-18.83,2-28.28,2.63-17,1.17-34.1,2.09-51.16,3.1-13.6.81-27.2,1.73-40.81,2.33-8.91.39-17.84.31-26.75.4-7.46.08-14.92.26-22.37.12-9.73-.18-19.7.63-29.13-1.23-16.95-3.37-33.87-.85-50.76-1.72-11.32-.59-22.57-2.29-33.89-3.12-8.61-.63-17.29-.42-25.9-1.06-8.93-.66-17.8-2-26.73-2.77a20.68,20.68,0,0,0-8,1.2c-5.18,1.73-10.24,3.82-15.3,5.89-8.43,3.45-16.69,7.38-25.26,10.45q-26.68,9.56-53.66,18.33c-9.11,3-18.51,5-28,7.55l.89,2.08H645.55l2.87,3.36c-3.79,0-6.93.34-10-.07-6-.82-12.52-.92-17.7-3.54-2.93-1.48-4.41-7.24-5.15-11.32-1.37-7.5,4.65-11.83,9.65-14.94a89.25,89.25,0,0,1,23.1-10.1c15.51-4.29,31.43-7.12,47-11.17,8.28-2.14,16.21-5.57,24.46-9.16-2.42-.27-4.93-.2-7.24-.85-11.43-3.24-22.87-6.45-34.16-10.13-4.32-1.4-8.19-4.15-12.36-6.07a59.6,59.6,0,0,0-7-2.35c-1.91-.59-5.2,1-4.83-3.18,0-.35-1.38-1.23-2.06-1.18-8.17.66-10.62-6.81-15.14-11-9-8.31-10.31-23.48-3.43-35,7.31-12.19,18-20.56,30-28.21a177.7,177.7,0,0,1,44.14-20.6c12-3.64,24.57-5.45,36.91-7.91,11.21-2.23,22.41-4.53,33.69-6.29,22-3.44,44-6.53,66.08-9.77.49-.07,1-.24,1.73-.43-.39-5.21-.63-10.45-1.22-15.65-.8-7.17-1.89-14.31-2.8-21.47-.4-3.12-2-4.75-5.2-4.91-4.31-.22-8.61-.45-12.92-.72a87.75,87.75,0,0,1-9.88-.83c-8.45-1.55-14.1-6.29-17.63-14.39-4.56-10.46-10.7-20.25-14.92-30.82-2.51-6.3-4.91-12.26-10.46-17.51-2.38,3-4.82,5.83-7,8.85-5.17,7.26-12.24,11.59-21,11.67-6.76.06-10.74,4.68-15.91,7.35-4.92,2.54-9.6,5.54-14.49,8.13-1.3.69-3,.65-5,1,.13.34-.09-1.25-.56-1.32-7-1.16-8.67-7.39-11.58-12.3-3.47-5.86-1.32-15.19,3.11-20.32a31.87,31.87,0,0,0,6.07-12c1.6-5.71,3-11.79,2.73-17.62-.43-8.32,3.29-15.77,3.43-23.81,0-2.18-.91-4.47-1.76-6.56a69.16,69.16,0,0,0-3.19-6.22l5.73-3.68,11,4.1c.84-1.92,1.24-4.14,2.54-5.53,2.34-2.49,5.2-6.23,7.86-6.25,3.65,0,7.54,2.6,10.94,4.7,5.09,3.14,9.64,7.21,14.87,10.05,1.73.94,5.93.18,7.16-1.32,5.11-6.22,12.44-8.15,19.25-11,12.39-5.11,25-9.77,37.46-14.61,10.33-4,20.49-8.83,31.94-8.26,5.06.25,10.06,1.37,15.11,1.91,4.86.53,9.9,1.8,14.59,1,14.68-2.4,29.15-6.27,43.88-8.2,5.92-.78,12.3,2,18.48,3.12,9.12,1.58,17.92,3.06,27.22-1.05,5.1-2.25,12-2.19,17.62-1.09,9.47,1.84,18.09-.95,27-2.62,2.91-.55,5.72-1.78,8.64-2.17,11.63-1.55,23.26-3.24,35-4.18,7.37-.59,14.85.14,22.27.14,4.77,0,9.53-.34,14.29-.32a48.89,48.89,0,0,1,8.28.71c4.74.82,9.41,2.05,14.15,2.86,4.45.75,10,5.71,10.56,10.68,1.92,17.28,4.49,34.45,2.7,52-.76,7.53,1.21,15.48,2.75,23.07,2.57,12.69,5.71,25.26,8.79,37.84a31,31,0,0,0,3.27,7.79c2.53,4.41,3.55,8.93,2,13.87a71,71,0,0,1-5.72,14.56q-1-3-2-6l1.89.83c.31-3,.64-6.13.89-8.62-1-.78-2.3-1.74-3.58-2.69l1.44-1.11c1.4.21,3,.88,4.12.44.66-.26,1.08-2.45.79-3.55-.81-3.07-2.32-6-3.08-9-4.14-16.64-8.3-33.28-12.1-50-1.2-5.27-2.31-10.88-1.77-16.16,1.79-17.55-1-34.82-2.45-52.14-.59-7.05-6-10.28-13.25-9.8-1.71.11-3.49-.54-5.23-.89-3.32-.69-6.62-1.89-10-2-10.11-.46-20.25-.64-30.37-.66a77.65,77.65,0,0,0-11.86,1.12c-6.22,1-12.37,2.39-18.6,3.27-7.81,1.11-15.75,1.39-23.47,2.89-8.64,1.69-17.15,3.68-26,2.58a21.69,21.69,0,0,0-5.77-.34c-6.66,1.05-13.24,2.94-19.93,3.42s-13.47,1-20.24-1.07c-5.39-1.64-11.25-3.07-16.77-2.69-9.38.66-18.66,2.75-28,4.36-11.79,2-23.5,7-35.43.56a7.52,7.52,0,0,0-3-.29,73.91,73.91,0,0,0-34.32,6.56c-15.31,6.79-31.35,11.93-46.93,18.12a39.73,39.73,0,0,0-10.34,6.62c-7.17,6-15.22,5.39-21.55-1.52a47.45,47.45,0,0,0-9.55-7.93c-5.06-3.2-10.49-.77-13,4.47-1.82,3.77-4.79,7-7.15,10.48-2,3.06-4.79,6-5.75,9.38-1.78,6.34-4.18,12.43-3.71,19.58.46,6.93-1.56,14.17-3.4,21-1,3.8-3.53,7.41-6.05,10.56s-5.39,12.73-3.57,16.21c.86,1.63,2.55,3.56,4.18,3.92,6.88,1.52,13.77,1.94,20-2.66a26.92,26.92,0,0,1,4.87-2.31c.23.62.47,1.23.71,1.85-6.34,8.23-15.6,7.86-25.79,6.48,5.83,5.63,13.82,5.66,20.77.87,3.4-2.34,6.59-5,10.11-7.12,6.86-4.12,13.89-8,20.85-11.91l.84,1.2-7.59,5.64a8.13,8.13,0,0,0,4.13-.24c7.41-2,10.85-8.59,15.81-13.52,4.28-4.26,9-9.58,14.37-10.8a23.69,23.69,0,0,0,10.9-5.74c1.91-1.65,3.9-3.21,5.86-4.81l1.12,1.31L783,561.05h4.5l.07,1.27-14.28,1.1c1.57,2,2.5,3.24,3.45,4.43,1.29,1.61,3.08,3,3.8,4.84,2.59,6.53,4.29,13.45,7.32,19.75,3.66,7.59,9.47,14.28,12.25,22.1s8.59,10.11,15.15,11.89c3.13.85,6.62.29,9.92.61,6.23.61,12.59.82,18.63,2.28s12.08,4.31,18,6.5c-1.06-5.08-3.3-9.73-9-12.29-1.65-.74-3-2.62-4-4.27a81,81,0,0,1-5.76-11c-2-5.07-3.47-10.37-5.16-15.58,2.14.54,4.11,1.81,3.92,2.42-1.77,5.7,3.13,9.2,4.4,13.87,1.57,5.77,4.47,10.87,9.79,14.56,2.69,1.87,4.77,5.13,6.23,8.18,3.88,8.12,1,18.32,7.6,25.69a.71.71,0,0,1,.07.49c-1.32,9.36,5.82,15.22,9.63,22.34,2.48,4.64,4.74,8.8,4.23,14.29-.46,4.93-.1,9.95-.1,15.74l3.18-2c-.14,2.53-.28,5-.4,7.54-.09,1.74.29,3.64-.3,5.18-1.68,4.44-3.63,8.8-5.72,13.06a53.68,53.68,0,0,1-4,6l7.2,3.63c-5.21,3.58-8-2.18-12.43-2.87l-3.58,5.48c9.37,4.77,22-1.47,22.09-8.85,7-2.51,7.94-4.38,8.94-12s-.81-14.73-2.76-22c-2.62-9.8-5-19.94-.81-29.86,2.71-6.46,1.65-12.23-.86-18.29-2-4.88-3.46-10-5.33-15a12.44,12.44,0,0,0-2-3,37.37,37.37,0,0,1,.77-5c.91-3,2.23-5.82,3-8.82,2-7.46,4.62-14.9,5.25-22.49.44-5.36-2.09-10.93-3.1-16.45a31.17,31.17,0,0,1-.05-5.47,81.36,81.36,0,0,1,4.58,15.48c.8,4.35,2,9.06,1,13.18-1.09,4.76.89,6.31,4.39,7.57a24,24,0,0,0,4.85,1c13.87,2,27.73,4.11,41.63,5.91,2.6.34,5.36-.56,8.06-.83,3.28-.33,6.6-1,9.85-.8,7.9.54,15.8,2.8,23.55-.82,4.73-2.21,9.38-4.65,14.24-6.52,4.24-1.62,8.91-4,13.08-3.52,7.87,1,15.2,3.91,20.72,10.67,4.86,6,11.94,8.22,20.41,8.62-1-2.71-1.58-4.59-2.38-6.37-2.49-5.57-5-11.12-7.6-16.66-2.42-5.21-4.19-10.94-7.57-15.44-2.93-3.91-7.38-7.08-11.79-9.38-4.64-2.43-9.84-1.49-14.69,1.12,1.39-1.68,2.88-3.46,4.67-3.86,10.54-2.34,17.52,4.2,24.53,11.12.24-1.75.35-2.58.46-3.42,1.39,1.88,1.73,3.82,2.42,5.63,3.72,9.72,7.28,19.5,11.38,29.06,2.18,5.07,3.14,9.82,1.94,15.37-2.37,11-4.74,22-2.82,33.42.4,2.44-.46,5.2-1.18,7.68-1,3.3-2.68,6.4-3.52,9.73-1.86,7.32-3.25,14.76-5.09,22.09-1.46,5.79-4.35,10.6-9.88,13.67-1.41.78-2,3.11-2.9,4.72,1.83.8,3.95,2.6,5.45,2.19,3.38-.93,6.47-2.93,9.65-4.54,1.23-.63,2.37-1.43,3.56-2.13,2.76-1.61,7.72-3,7.89-4.85a44.32,44.32,0,0,1,7.65-21.67c7.19-10.73,12.26-22.87,18.53-34.24a19,19,0,0,1,6.09-6.24c5.19-3.45,6-5.76,3.4-11.57a34.19,34.19,0,0,1-1.3-3.77c-2.71-8.41-.11-16.53.79-24.88,1.57-14.63,5.51-28.63,9-42.78,2.28-9.36,5-18.61,7.28-28,.34-1.36-.53-3-.71-3.92,1.56-3.61,3.57-7.07,4.57-10.79,1.66-6.24,2.16-12.82,4.13-18.93,1.9-5.89.84-10.87-1.55-16.22-1.18-2.65-1-5.9-1.5-8.88l1.46-.16c.7,2.16,1.39,4.33,2.1,6.5,2.21,6.71,5.6,13.29,6.39,20.17,2.42,21,3.82,42,5.65,63a4.15,4.15,0,0,0,.61,1.43c.49.95,1.42,1.87,1.45,2.82.15,4.76-.82,9.76.31,14.23,1.31,5.17,4.52,9.83,6.66,14.82C1143.41,610.91,1143.43,612.93,1143.77,614.81ZM817,716l-.1-.11c-2.37.68-4.71,1.76-7.12,2-17.45,1.46-34.6,4.31-50.71,11.49a54.31,54.31,0,0,0-11.79,7.3c-3.92,3.15-4.1,7.25-.35,10.71a31.28,31.28,0,0,0,10.41,6.53c10.15,3.58,20.44,6.85,30.85,9.57a282.18,282.18,0,0,0,30.12,6.32c10.5,1.56,21.16,2.12,31.76,2.9,1.12.09,2.38-1.23,3.51-2,5.15-3.51,9.86-8.1,15.51-10.35,9-3.58,18.78-5,27.83-8.45,10.37-3.93,20.28-9,30.4-13.6,3.14-1.41,7.41-3.76,9.39-.25,2.1,3.73-2.6,5.73-5.34,6.93-14.1,6.19-28.37,12-42.59,17.94-1.7.71-3.48,1.25-5.22,1.87l.27,1.37c1.67,0,3.49.43,5-.07,8.66-2.86,17.45-5.46,25.79-9.08,10.14-4.41,19.8-9.92,29.86-14.5,1.65-.76,4.36.81,6.57,1.3-.83,1.84-1.16,4.67-2.56,5.37-13.76,6.91-27.67,13.51-41.59,20.09-3.25,1.54-6.69,2.7-10,4l.43,1.47a55,55,0,0,0,6.92-1.35c3.91-1.29,7.63-3.25,11.59-4.31,12.32-3.28,23.76-8.22,33.89-16.11a22.7,22.7,0,0,1,8.06-3.74,5.33,5.33,0,0,1,4.65,1.61c.6.85-.19,3.56-1.22,4.51a55.54,55.54,0,0,1-8.08,5.77c-12.37,7.87-25.27,14.56-39.64,18.13-3.21.79-6.17,2.63-9.24,4,.2.53.39,1.06.58,1.59,3.34-.66,6.83-.9,10-2.06,7.45-2.76,14.79-5.85,22.08-9s14.19-6.46,21.27-9.73c3.15-1.46,6.17-3.26,9.43-4.39,1.17-.41,2.86.68,4.31,1.09-.44,1.29-.5,3-1.4,3.8-3.93,3.3-7.82,6.82-12.24,9.33-9.73,5.52-19.77,10.49-29.66,15.67l3.43.75c-11.61,2.63-23.22,4.34-34.83,6-3.85.56-7.71,1.38-11.57,1.4-3,0-5.91-1.19-8.89-1.57-8.11-1-15.83.8-23.45,3.4-13.65,4.67-27.34,9.23-41,14-.94.32-1.5,1.71-1.61,1.85L793,822.51c.13.55.27,1.1.4,1.66,8,1,16,2.32,24,2.8,11.87.71,24-.46,35.62,1.48,16.4,2.73,32.65,2.56,49.11,2.22,13.78-.29,27.58,1.17,41.38,1.63,14.78.49,29.56,1.08,44.34,1,17.07-.12,34.14-.74,51.19-1.55,13.91-.65,27.8-1.9,41.69-2.88,18.5-1.31,37-2.43,55.48-4,11-.93,22.09-2.27,33-4,6.49-1,12.8-3.23,20.21-5.18-5-2.18-9-5.4-12.84-5.29-6,.16-10.08-1.92-14.89-5-3.28-2.12-8.8-.79-14.64-1.06-4.44-4.77-8.89-6.33-16.95-4.15-3.14.85-4.6.54-6.2-2.51a11.65,11.65,0,0,0-12.13-6.28c-4.29.54-8.55,3.84-11.68-1.95-.19-.35-1.29-.1-1.9-.32-8-2.89-17.94.29-24.45-7.59-.33-.4-1.25-.36-1.91-.46-5.22-.75-10.45-1.47-15.67-2.27-.35-.05-.63-.62-1.25-1.28l3.21-.8.38-1.6c-3.06-.87-6.13-2.52-9.18-2.47-8.4.13-16.79,1.05-25.19,1.48a57.47,57.47,0,0,1-7.38-.52l.09-1,29.55-2.12c-4.82-6.1-9.45-11.51-13.48-17.33-1.13-1.62-1.5-5.38-.45-6.5,1.23-1.31,4.58-1.51,6.69-1,12.32,3.24,24.48,7.08,36.81,10.26,16.55,4.27,33.15,8.36,49.83,12.07,22,4.9,44.1,9.47,66.2,13.92,8,1.6,16,4.67,24.23.49,1.42-.72,3.64-.27,5.38.1,10.68,2.31,21.31,4.81,32,7.09,2,.43,4.62,1,6.13.06,12.7-7.5,25.88-14.72,33.36-28.21,5.17-9.31,8.24-19.15,3.15-29.88-6.36-13.39-18.1-20.52-30.71-26.26-15.68-7.15-31.83-13-48.94-16.21-17.89-3.38-35.57-7.82-53.35-11.78-3.85-.85-7.7-1.79-11.61-2.28-.94-.12-3.08,1.49-3,2.08,1,7.46,2.34,14.89,3.64,22.32.07.43.55.83.9,1.18,3.2,3.19,1.31,7-1.16,7.91-4.43,1.68-5.75,5.52-8.32,8.48-2.86,3.31-5.51,6.81-8.62,10.67,6.45,1.16,12.21-2.91,17.42.36-17.33,4.24-34.87,3-52.39,2.39,0-.46-.06-.91-.1-1.37l8.07-.91c6-6.74,11-13,16.61-18.44,3.69-3.58,5.41-7.09,4.68-12.24-1.05-7.38-1.78-14.83-2.21-22.28-.17-3-1.2-4-4-4.37-10.23-1.18-20.43-2.62-30.68-3.67a5.48,5.48,0,0,0-4.11,2.28c-4.55,7-9,14.1-13.17,21.36-4.79,8.37-10.73,16.23-10.93,26.66,0,2.28-2.34,5.63-4.45,6.55-6.09,2.66-9.59,7.54-13.32,12.94h14.13c0,.51,0,1,0,1.54l-44.46,2.37c-.07-.48-.15-1-.23-1.44l12.89-1.62c-.75-2.45-2.68-5.65-1.88-6.66a70.55,70.55,0,0,1,11.82-11.86c4.46-3.45,6.19-7.83,7.45-13,2.49-10.16,5.2-20.28,8.38-30.23,1.68-5.26,0-8.51-5.3-8.53-6,0-12,.15-17.92-.61a272.19,272.19,0,0,0-47.5-1.94c-26.72,1.23-53.45,2.1-80.19,3-3.23.1-4.44,1.19-5.51,4.23-4.06,11.44-2,22.54.73,33.8,1.21,4.92,2.22,10.18,1.72,15.12-.36,3.58,2.25,7.44-.77,10.75l1.72,1.35-12.9,10.77.6.93,13.75-.94.13,1.47c-13.88.15-27,7.75-40.83,3.54,1.46-2,2.72-3.91,4.21-5.64,1.7-2,3.3-4.36,5.49-5.57a21.82,21.82,0,0,0,11.44-21.3c-.77-7.19-.94-14.45-1.59-21.65-.3-3.27-.38-6.88-1.86-9.64-3-5.52-6.84-10.57-10.27-15.7-5.82,7.15-6.33,15.21-4.66,23.56a36.63,36.63,0,0,1-3.79,25c-1.68,3.2-2.14,7-3,10.64,0,.18,1.4.71,2.71,1.35l-11.88,9.61,7.55.45-.06,1.43H815.9l-.12-1.25c1-.3,2.09-1,3.07-.84,6.73.7,11.53-1.48,16.24-6.89,6.79-7.8,13.19-15.12,11.95-26.36a9.57,9.57,0,0,1,1.18-5.29c2.55-4.64,2-9.31.75-14.07-1.05-4-2.17-8-3.4-12.43-7.51.78-15,1.11-22.33,2.4-34,6-68.1,11.78-102,18.67-18.12,3.69-35.42,10.25-51.06,20.74-10.41,7-21.54,12.72-29.81,22.71-12.2,14.73-11.4,35.65,6.64,45.59,4.94,2.72,10.09,5,15.07,7.68,13.85,7.33,28.08,13.33,43.54,16.77,13.08,2.9,25.84,5.6,39.09,1.59,11.88-3.59,23.84-6.92,35.68-10.62,16.32-5.09,32.61-10.29,48.81-15.74,6.8-2.28,13.35-5.31,20-8-9-1.61-17.7-2.35-26.36-3.43-7-.87-14.06-1.92-21-3.33-7.92-1.6-15.81-3.47-23.6-5.63a230.38,230.38,0,0,1-24.63-7.83,23.23,23.23,0,0,1-10.33-8c-3.35-5.07-.32-12.09,5.67-15.61C770,719.91,793.17,716.42,817,716Zm118,23.34-.9-1.44c-2.51,1.1-5.06,2.11-7.51,3.32-7,3.42-13.64,7.48-20.83,10.24-8.33,3.19-17,5.38-25.65,7.77-9.17,2.56-18.76,4.57-24.42,13.11-3,4.55-7,6.8-11.78,8.5-6.88,2.46-13.76,4.89-20.62,7.38-9.79,3.56-19.38,7.83-29.38,10.62-22.78,6.36-45.79,11.85-68.63,18-9.76,2.63-19.21,6.45-29,9-16.37,4.33-33,7.66-49.27,12.33a81.31,81.31,0,0,0-22,10.16c-7.75,5.09-6.49,11.85,1.91,15.63a11,11,0,0,1,2.22,1.8l-.63,1-9.48-4.2a12.22,12.22,0,0,0,.8,1.91c5.64,8.4,14.13,7.14,22,5.7a362.56,362.56,0,0,0,36.75-8.38c18.42-5.42,36.64-11.53,54.8-17.79,8.9-3.07,17.47-7.1,26.17-10.75q19.15-8,38.28-16.14c12.42-5.27,24.81-10.62,37.24-15.87a40.16,40.16,0,0,1,6.54-2.09c3.65-.84,7.33-1.62,11-2.12,8.49-1.16,17-3.07,25.5-3,21.73.24,42.67-2.13,61.75-13.59,2.25-1.35,4.78-2.25,7.06-3.57,7.79-4.53,15.52-9.16,23.28-13.74l-.72-1.5c-1,.17-2.42,0-3,.56-5.71,5.49-13.34,6.94-20.26,9.9-10,4.3-20,8.79-30.18,12.82a30.51,30.51,0,0,1-10.22,1.72c-1.41.05-2.88-1.67-4.32-2.58a17.11,17.11,0,0,1,8.25-6.77c7.41-2.66,14.95-5,22.38-7.57,10.44-3.65,19.8-9.09,27.35-17.51-2.45.23-5,.6-6.76,1.95-11.4,8.61-24.21,14.1-37.92,17.78-3.19.85-6.16,2.53-9.34,3.46a30.76,30.76,0,0,1-8.11,1.37c-1.26,0-2.54-1.36-3.81-2.1.86-1.24,1.44-3,2.62-3.6,2.8-1.37,6-1.92,8.85-3.24q20.45-9.47,40.75-19.22c1.34-.64,2.35-2,4.32-3.65-2-.36-3.06-.88-3.76-.61a79.63,79.63,0,0,0-10.07,4.35c-14.18,7.88-28.79,14.76-44.58,18.73a42,42,0,0,1-9.84.8,3.26,3.26,0,0,1-2.58-1.78,3.81,3.81,0,0,1,1.36-2.94,8.48,8.48,0,0,1,3.57-1.65c16.15-3.77,30.71-11.51,45.66-18.25C931.86,742.86,933.31,740.86,935,739.38ZM1389,862c3.38-.77,7.15-1.26,10.65-2.51,7.06-2.5,10.39-8.12,10.93-15.28.56-7.49-1.42-14.06-9.41-16.65-9.08-2.94-18.24-5.78-27.54-8-12.26-2.87-24.76-4.75-37-7.61-16-3.71-31.8-8.11-47.75-12-17.09-4.11-34.23-7.94-51.36-11.84-9.45-2.15-18.49-5.11-28.56-.55-7,3.17-8,8.54-8.63,14.2a12.43,12.43,0,0,0,8.13,13.53,141.44,141.44,0,0,0,15.15,5.4c23.8,6.55,47.66,12.91,71.5,19.31,19.2,5.16,38.33,10.62,57.65,15.28C1364.48,858.19,1376.53,859.75,1389,862ZM1058.24,631.17c-10-1-17.66-6.07-24.85-13.1-5.78-5.65-17.83-9.06-25.92-3.82-11.12,7.2-23.13,11.37-36.71,8.72a13,13,0,0,0-5.88.14c-9.94,2.88-19.76.5-29.51-.73-13-1.63-26-4.2-38.87-6.36-8.2,14.08-6.54,22.31-2.4,34.3,1.81,5.23,3.88,10.37,5.75,15.34,51.18-2.53,102.44-5.15,153.92,0ZM1034.47,748.5l-1.29.89c5,7.84,9.56,16.08,19,20.25,2.52,1.11,5.28,2.35,7,4.33,2.15,2.41,4.47,2.39,7.23,2.93,4.75.94,9.25,3.17,13.88,4.77a32.85,32.85,0,0,0,7.19,2.07c5.87.6,11.89.18,16.81,4.53.87.77,2.75.67,4.12.55,6.18-.53,12.5.07,16.56,4.75,3,3.49,5.74,3,9.42,3.14,4.27.18,8.46,2,12.69,3.16,2.19.58,4.44,1.73,6.58,1.55,4.43-.39,8.41-.61,12.07,2.84,1.68,1.59,4.45,2.14,6.82,2.83,4.07,1.2,8.26,2,12.32,3.22,4.68,1.41,9.27,3.11,13.9,4.69l.75-1c-8.8-9.87-3.87-18.48,2.31-26.72ZM1108,613.88c-4-.54-4.83,1.9-3.62,4.27a35.22,35.22,0,0,0,6.38,8.21c1.43,1.46,3.58,2.21,5.83,3.53,1,1.67,2.29,4.08,3.68,6.46,5,8.44,8.46,17.46,9.53,27.18.59,5.37-.25,10.88.12,16.28.51,7.26,1.62,14.48,2.39,21.73.45,4.18-.55,7.37-4.51,10.05-3.38,2.29-5.74,6.11-9.65,10.49,4.84,1.6,8.26,3,11.82,3.66.75.14,2-2.77,3.06-4.25.18-.25.55-.37.78-.59,2.51-2.36,5.4-4.45,7.41-7.18,2.5-3.39,4.54-6.9,9.2-7.8.55-.11,1-2.81.79-4.22-.15-1.19-1.73-2.17-1.92-3.37-1.59-9.78-3.1-19.56-4.4-29.38-.41-3.1.07-6.31-.19-9.44-.79-9.38-1.53-18.77-2.77-28.09-.46-3.48-2.06-6.88-3.51-10.15-.92-2.08-2.83-3.7-3.77-5.77-6.57-14.55-12-29.48-14.38-45.37-1.26-8.59-2.24-17.22-3.5-27.1-5.23,17.08-5,17-3.09,26.87A49.13,49.13,0,0,1,1114,583c-.41,4.92-1.57,9.78-2.37,14.66-.15,1-.52,2.12-.16,2.89,1,2.09,1,3.74-.24,4.58C1106.81,608,1106.49,608.79,1108,613.88ZM840.86,729.82l-.22,1.14c1.28,1,2.41,2.44,3.87,3,2,.7,4.31,1.32,6.23.88,2.19-.51,3.87-1.6,4.18-5,.43-4.75,2.51-9.54,4.72-13.89a35.71,35.71,0,0,0,3.74-22.6c-1-6.67-1.33-14.59,1.37-20.42,3.62-7.85,3.49-14.08-.64-21.09-1-1.73-.77-4.17-1.48-6.14-1-2.65-1.59-6.13-3.58-7.55-4.3-3.07-9.37-5.06-14.86-7.87.7,5.63,1.29,9.84,1.75,14.06q1.95,17.93,3.82,35.85c.64,6.23,2.31,12.59,1.59,18.67-1.15,9.71-3.91,19.24-5.94,28.64,1.32,1.14,2.7,2.35,4.08,3.56l-.65.6Zm260.88-109.63c-5.3,7.56-6.07,15.62-2.09,23.53,3,6,1.82,10.16-3.64,14.13-2.11,1.53-3.74,3.74-5.58,5.64l.63,1.63,36.23,4C1127.74,647.82,1117.2,632.68,1101.74,620.19Zm6.79-48.59c-.38,1.49-.61,2.25-.77,3q-2.44,11.8-4.89,23.61c-1.23,5.9-2.5,11.79-3.75,17.68l1.35.25C1108.7,605.49,1116,582.59,1108.53,571.6Zm-395.67-59,8.88-8.36c-5-1.2-8.82-4.25-12.69-.66Zm332.89,218.48a60.85,60.85,0,0,1-7.72.74c-2.34-.07-4.65-.82-7-1.09a2.26,2.26,0,0,0-1.91.87,2.62,2.62,0,0,0,.61,2.11C1034,738.57,1043.24,737.2,1045.75,731.07Zm-212.47,7.17c.37.66.73,1.32,1.09,2l9.62-2.29,0-1.52L838.31,732Zm283-16.26c-1.22,1.67-2.4,3.26-4.3,5.84h11Z"/><path d="M566.56,723.75c-7.72-11.44-15.57-23-23.22-34.58-.67-1-.66-3.58.09-4.24,8.9-7.87,17.85-15.7,27.07-23.19,16.46-13.36,33.11-26.48,49.72-39.66a4,4,0,0,1,2.58-.9c6.12.55,12.34.73,18.28,2.1,3.29.76,6.09,3.59,9.54,5.76,6.48-6.93,13.27-13.94,19.75-21.23,3.66-4.13,6-5,10.71-2.27,6.1,3.55,9.94,8.84,10.4,16,.24,3.76-.64,6.8-4.81,8.81-8.34,4-16.3,8.82-24.45,13.32,4.93,9.72,9.55,18.81,14,27.52-7.93,7.36-15.06,14.3-22.53,20.84-9.21,8.08-18.77,15.77-28.06,23.76a126.76,126.76,0,0,0-10.33,10c-.84.9-1,2.71-1,4.1,0,6.61.09,13.22.4,19.82.19,4.17.32,8.07,3.31,12,5.26,6.85-.53,17.56-9.77,16.5-9.08-1-15,3.68-21.86,7a46.6,46.6,0,0,0-5.72,3.81c1.52,11.82-3.17,19.53-12.88,25.12s-20.32,11-22.91,23.48a121.67,121.67,0,0,0-2.52,21.52c-.26,10.11.45,20.24.61,30.36.08,4.66-.13,9.32-.31,14a18.18,18.18,0,0,1-.79,3.42l-1.73-.14V819.25l-5.87,1.19c.66,14.64,1.76,29.23,1.86,43.83.1,14.33-.81,28.67-1.28,43l-1.51,0V820.46h-1.78c-1.66,13.12.37,26.31.18,39.45-.18,13.33-.55,26.65-.83,40l-1.35.15c-.38-.59-1.1-1.19-1.09-1.77.17-14.63.5-29.26.64-43.89.09-10.26,0-20.52-.18-30.77a8.76,8.76,0,0,0-2.21-4.93c-6.87-8.13-4.21-17.76,5.48-22,8.89-3.88,17.38-8.72,26-13.24,3.08-1.62,5.84-3.92,9-5.25,2.94-1.23,3.16-3,2.36-5.48-1.09-3.49-2.52-6.92-3.15-10.49-1.46-8.3-3.17-16.65-3.48-25C562.77,732.71,565.3,728.11,566.56,723.75Zm3.87,85.77c-.79,0-1.75-.34-2.36,0q-9.12,5.06-18.14,10.28c-6.32,3.64-8.85,8.94-7.36,14.84,3.48-4.29,6.92-9.72,11.51-13.88,4.86-4.4,10.8-7.6,16.24-11.36,7.41-4.88,9.71-11,6.7-18.68a21.79,21.79,0,0,1-5.38,15.85A10.58,10.58,0,0,0,570.43,809.52Zm50.08-184.88-77.18,62.55,34.26,45.88c4.35-2.85,8.31-4.79,11.42-7.65,3.68-3.38,8.17-7.08,9.51-11.49,1.88-6.2,1.4-13.18,1.44-19.83,0-1.92-1.33-4.12-2.63-5.72-2-2.49-4.07-4.55-3.22-8.29a13.75,13.75,0,0,1,15-10.75c8.11,1,11.74,8,9.16,15.18-2.24,6.28-2.77,13.17-4.06,19.78,12.17-8.92,22.91-18.07,33.52-27.36,5.55-4.86,5.38-5.38,1-11.36-5.77-7.89-11.4-15.88-17-23.91C628,636.25,624.5,630.68,620.51,624.64ZM577,772.92c5.92-3.29,11.45-6.28,16.88-9.44,1.06-.62,2.36-1.86,2.47-2.92.76-7.67,1.24-15.37,1.89-24.12-4.57,0-8.18-.15-11.76,0-5,.26-10.3,1.39-12.37-5.26a16.44,16.44,0,0,0-1.94-3C566,744.7,571.32,758.53,577,772.92Zm45.49-150c1.11,2.51,1.44,3.76,2.15,4.74,2.59,3.64,5.43,7.11,8,10.78,7.07,10.21,14,20.51,21.1,30.7.8,1.15,2.21,2.68,3.31,2.66,5.21-.07,10.4-.63,16.71-1.1-4.5-8.4-8.56-16-12.68-23.71-9.21,6.49-14.52,6.86-18.09,1.19-1.75-2.77-2.45-6.43-2.86-9.77-.77-6.27,5.92-4.87,8.82-7.45C642.45,621.21,632.34,625.46,622.52,622.93Zm-7.94,100c16.94-18.25,38-30.86,53.61-49.91-5.74.44-12.05.35-16.15,3.32-8.54,6.17-16.1,13.76-23.7,21.15-6.66,6.47-16.86,11-14.13,23.29C614.24,721,614.26,721.11,614.58,722.94ZM669.15,612.1c-7.21,7.95-15.17,16.34-22.53,25.24-1.06,1.28.2,5.38,1.55,7.39.71,1.06,4.38,1.24,6,.4,9.58-5,19-10.39,27.38-15.09C677.56,624.28,673.56,618.48,669.15,612.1Zm-66.91,78.59c-.89,22.6-1.75,44.51-2.62,66.56l9.08-.47V691.45Zm-8.88,75.56L540.92,796.1l3.12,4.54c9.26-5,18.25-9.31,26.7-14.51,8-4.9,17.07-7.63,25-13.17Zm-18.42,25.57c-9.29,5-17.89,9.56-26.39,14.29-.75.42-.9,2-1.28,3-1,2.78-2,5.57-3.07,8.35-.5,1.34-1.06,2.65-1.66,4.11,8.31-4.68,16.21-8.86,23.82-13.51C571.74,804.78,574.79,799.77,574.94,791.82ZM689.3,622.19c0-6.08-4.64-12.89-10.34-15.15-3.5-1.4-5.88.11-5.75,3.94a17.44,17.44,0,0,0,9.44,15.28C686.92,628.67,689.3,627,689.3,622.19Zm-88.1,65.09,9.67-15c-7-1-12.25,1.38-14,5.74C595.19,682.1,596.65,685,601.2,687.28Zm-3,33.6-16.65,12.81c5.63.38,10.17.79,14.7.88.64,0,1.81-1.52,1.86-2.4C598.31,728.63,598.18,725.06,598.18,720.88Zm-27.79,3.73c-11.3,9.76-3.64,36.53,3,50.16a7.06,7.06,0,0,0,.33-3.93c-1.22-4-3.13-7.76-4-11.79C567.39,748,563.65,736.9,570.39,724.61ZM536.07,816c4.39.43,7.38-1.73,7.89-5.55s-4.13-10.56-7.89-11Zm59.87-38.85-1-1.41L545.3,802.2l1,1.85Zm-63.41,22c-5.23,2.35-7.9,5-7.17,10,.57,3.84,1.73,7.13,7.17,6.72ZM597.84,763c-.59,5.72-.39,9.21,4,11.59s7.41.92,10.88-2.17C607.86,769.3,603.37,766.46,597.84,763Zm15.6-89.46-9.92,15.25c5.85-1.57,11.22-.43,13-6.58C617.56,678.73,616.94,676,613.44,673.49Zm-1,16.76-1.1,0V755.5h1.1Zm1.32,80.34c.72-6.63-3.62-8.54-7.1-10.46-1.49-.82-4.14.45-6.27.77l.13,1.42ZM644,635a9.39,9.39,0,0,0,.64,12.45c2.42,2.4,5.31,4.38,9.7,2C644.49,648.7,641.66,641.24,644,635Z"/><path d="M1276.77,645.13l5.64,1.35-.11,1.33-71,1.78-.12-2.05h19.42c-10.08-14.14-8-29-8-43.59,0-18.09-.28-36.17,0-54.25.08-6.72,1.82-13.1,7.15-18,3.66-3.39,5.35-7.73,5.7-12.87.66-9.66,1.21-19.12-2.65-28.43-2.4-5.77,1.42-11,7.91-11.37a114.43,114.43,0,0,1,16.87.17c1.93.18,4.64,2,5.27,3.75.84,2.3.21,5.24-.18,7.85-.31,2.11-1.75,4.15-1.71,6.2a189.48,189.48,0,0,0,1.14,19.79c.69,5.81,3.62,10.54,7.16,15.45s5.37,11.59,5.65,17.61c1.13,24.36,1.4,48.76,1.9,73.15C1276.89,630.18,1276.77,637.39,1276.77,645.13Zm-28.63,1.19c7.63-.51,14.36-.8,21-1.57,1.16-.14,2.73-2.19,3-3.58a63,63,0,0,0,1.1-11c.31-18.7.77-37.41.61-56.12a273.48,273.48,0,0,0-2.19-29.28c-.78-6.62-2.35-7-8.55-4.86a51,51,0,0,1-11.55,2.87c-3.61.39-5.07,2.15-5.25,5.33q-.52,8.88-.71,17.78c-.21,10.73-.74,21.48-.32,32.19.44,11.24,2,22.44,2.77,33.68C1248.42,636.34,1248.14,640.93,1248.14,646.32Zm-2.78-105.73V507.35l-7.38-1.61c0,1.4,0,2.38,0,3.36.55,10-1.72,18.79-8.76,26.65-3,3.35-4.36,9-4.68,13.76-.61,9,.72,18.24.08,27.29a297.43,297.43,0,0,0,1.11,55.18c1.23,10.72,8.49,16,20.14,13.37-1-16.78-2.47-33.74-2.86-50.72-.4-17.2.27-34.41.48-52.53l-11.4-3.48.32-1.13Zm3.53,1.69,22-5.8c-11-8.28-12-19.8-13.3-31.29l-10.33,2.28C1247.81,519,1248.33,530.17,1248.89,542.28Zm5-51.4V491a7.35,7.35,0,0,0,2.46-.17c1.87-.83,3.65-1.87,5.46-2.83-1.55-2.3-2.9-6.36-4.7-6.58a81.58,81.58,0,0,0-18.14.28c-3,.32-4.18,2.63-3.93,6.24.26,3.81,2.43,3.88,4.8,3.82C1244.57,491.68,1249.25,491.2,1253.93,490.88ZM1237,494.39c.42,8.8,1.2,10,6.74,10.45,2,.16,4.08.54,5.93.07,8.78-2.23,10.12-.23,8-10.82-.06-.28-.38-.51-.81-1.06Z"/><path d="M1348.87,546.65c3.32.51,6,1,8.73,1.33,7.15.92,9.3,3.82,9.13,11a85.41,85.41,0,0,0,1.2,13.31,3.3,3.3,0,0,0,2,2.3c4.43.92,5.81,4,6.09,8,.92,13,1.86,26.07,2.7,39.11.52,7.94.71,15.91,1.43,23.83.23,2.55,1.69,5,2.92,8.41l6.51.31v1.65H1346.7l-.14-.47,8.06-1.78c-.28-6.18-.34-12.56-.91-18.88-1.38-15.21-3-30.4-4.53-45.6-.13-1.32-.1-2.66-.17-4-.28-5.05,1.25-8.51,7.12-8.39a13.91,13.91,0,0,0,3.2-.79c-.74-6.67-1.46-13.2-2.23-20.13a45.33,45.33,0,0,0-6.73.05c-4.58.73-6.7-1.72-8.12-5.52-1.28-3.41-3-6.68-4-10.15-.65-2.18-1.45-5.7-.38-6.72,2.2-2.08,5.61-4,8.52-4,6.49,0,8,3,5.68,9.07Zm23.34,30.78c-5.22.3-10.39.61-15.57.89-4,.22-6.15,1.91-5.61,6.29.85,6.88,1.58,13.79,2.25,20.7,1.18,12.15,2.28,24.32,3.41,36.48.42,4.54,3.09,6.35,7.4,6a55.05,55.05,0,0,0,9.19-1.08c2.71-.69,4.81-2,4.18-5.89a133.18,133.18,0,0,1-1.32-16.84C1375.63,608.82,1377,593.5,1372.21,577.43Zm-11.9-2.85,3.07,1c.68-1.4,2-2.82,1.93-4.19a135.43,135.43,0,0,0-1.44-16.36c-.26-1.66-2.07-4.1-3.5-4.36-4.83-.9-9.82-1-14.75-1.36l-.29,2.73c3.23.31,6.45.82,9.68.89,3.42.07,5.36,1.25,5.31,5C1360.25,563.43,1360.31,569,1360.31,574.58ZM1347,531c-6-.21-8.6,3.8-6.18,8.68a29.72,29.72,0,0,0,2,4,15.88,15.88,0,0,0,2.66,2.43,13,13,0,0,0,2.31-2.83c1-2.28,1.66-4.68,2.45-7C1351.49,532.68,1349.66,531.33,1347,531Zm20.55,123.3c2.94-.17,5.64,0,8.17-.58,1.42-.32,2.58-1.85,3.85-2.83-1.4-.72-2.79-2-4.2-2.06-5.54-.1-11.08.15-16.6.46-.87.05-1.69,1.05-2.54,1.61.76,1,1.39,2.63,2.28,2.78A87.32,87.32,0,0,0,1367.59,654.3Z"/><path d="M1309.08,576.72c-3.7-.71-6-.73-7.83-1.65-1.46-.73-3.29-2.57-3.28-3.9,0-1.53,1.61-3.44,3-4.44a10.75,10.75,0,0,1,5.24-1.47c8.08-.59,16.18-1.36,24.26-1.24,2.34,0,5.61,2.35,6.74,4.51,1.69,3.24-1.64,5-4.18,6.2-3.57,1.64-2.65,4.21-1.06,6.06,5.16,6,6.73,13,7.28,20.66.74,10.39,1.79,20.77,3.32,31.07.29,2,3.4,3.55,5.39,5.48l-5.21.41-1.56,6.77,3.82,1.38c-15.48,4.39-30.18,3.24-44.3,1.45.36-1.44,1.22-3.17,1.15-4.87-.56-13.77-1.75-27.54-1.73-41.3,0-4.84,2.68-9.72,4.38-14.49C1305.78,583.89,1307.42,580.58,1309.08,576.72Zm1.64-.38c-1,4.15-.85,8.73-3,11.36-5.8,7-6.06,14.84-5.64,23,.51,9.75,1.64,19.47,2,29.22.15,4,2,6.29,5.37,6.47,7.7.42,15.51.76,23.15,0,6.41-.66,7.88-2.69,7.57-9.42-.41-8.71-1.78-17.37-2.75-26.05a14.35,14.35,0,0,1-.39-3.39c1.66-11.17-3.42-20.32-8.78-29.35a3.9,3.9,0,0,0-2.67-1.73C1320.61,576.25,1315.67,576.34,1310.72,576.34Zm22.34-7.52c-.07-.94-.13-1.87-.2-2.81l-28.62,1.35c0,.49,0,1,.07,1.46Zm-33.3.72c.41,4.71,3.42,4,5.81,4,3.1,0,6.19-.33,9.29-.4,4.76-.11,9.54,0,14.29-.25,1.78-.1,3.51-1.11,5.79-1.89C1322.92,569.12,1311.6,574.76,1299.76,569.54Z"/><path d="M679.6,641.67c53.62-1.6,107.28-.53,160.95-.35C786.93,643.63,733.28,642.35,679.6,641.67Z"/><path d="M1150.32,639.06h69.53l0,1.12h-69.59Z"/><path d="M588.18,642.8H563.46l0-1h24.75Z"/><path d="M1408.86,636.73h-22.51v-1.16h22.47Z"/><path d="M528.61,642h23l0,1.13H528.65Z"/><path d="M802,453.82l10.33-4.16.81,1.91L803,456.19Z"/><path d="M719.86,652.31c.51,3.69,1.14,7.37,1.44,11.08.06.75-1.18,1.61-1.81,2.42-.54-.53-1.56-1.1-1.52-1.59.32-4,.84-8,1.29-12Z"/><path d="M1297.63,637.75H1280.4l0-.8,17.21-.77C1297.6,636.7,1297.61,637.22,1297.63,637.75Z"/><path class="cls-1" d="M896.89,232.06c-.22,1.61-1.06,3.47-.54,4.79,1.08,2.74,2.32,6.56,4.51,7.45,3.15,1.28,6.5-1.13,7.82-4.57,3.61-9.39,7.17-18.82,10.34-28.37a23.22,23.22,0,0,1,9.77-13c0,2.67-.09,4.51,0,6.34.33,5.76,3.78,7.61,8.7,4.5,2.38-1.5,5.15-3.07,6.52-5.34,4.5-7.43,11.93-9,19.38-10.77,1.41-.34,2.87-.46,4.61-.73-5.33,5.68-6.19,9.25-2,11.67,2.79,1.62,6.92,1.53,10.38,1.25,8.87-.7,17.69-2,26.54-2.89.86-.09,1.79.52,3.2,1-2.92,1.6-5.39,2.86-7.76,4.26-5.11,3-5.62,8.27-.38,11.26,4,2.29,9,3.23,13.61,4.13,7.07,1.36,14.09,2.47,19.15,8.49-11.37,3.64-12.14,6.69-3.63,15.31,3.25,3.29,7.38,5.74,10.44,9.17,4.2,4.71,7.75,10,11.59,15l-1.2.86c-2.77-.53-5.56-1.55-8.33-1.49-4.93.1-8.26,4.45-6.38,8.94,2.07,4.94,5.32,9.39,8.13,14,4.46,7.35,9,14.64,13.43,22,.54.9.4,2.2.69,4.13-1.55-1-2.4-1.63-3.31-2.13-6.05-3.36-13.38.45-13,7.28.22,4.31,2,8.61,3.39,12.78,2.91,8.45,6.23,16.76,9,25.24.71,2.15.11,4.73-1,7.24-.52-.95-1-1.9-1.56-2.86-2-3.74-4.94-6.18-9.27-4.92s-4.6,5.63-4.53,9c.14,6.11,1.37,12.18,2,18.28s.58,12.15-2.79,17.93c-.59-.55-1.12-.81-1.21-1.17-.67-2.86-1.39-5.93-5-5.78s-6.71,1.79-7.83,5.79q-2.9,10.29-5.91,20.55c-.5,1.72-1.21,3.38-1.57,4.35-2.72-1.67-5.33-4.57-7.65-4.37-2.75.25-5.72,2.76-7.77,5-4.67,5.16-8.75,10.84-13.26,16.15-1.21,1.42-3.11,2.26-5.07,3.64.37-3.48,1.83-7.9.72-8.68-3.19-2.24-7.21-2.16-11.25-.32-7.5,3.41-15.18,6.45-23,9.17-2.93,1-6.32.74-9.5,1l-.26-1.28c.94-.53,2.13-.86,2.76-1.65,1.16-1.42,3-3.36,2.71-4.64a8,8,0,0,0-4-5c-8.86-3.7-17.94-6.89-26.91-10.35-1.84-.71-3.54-1.78-6.06-3.07,1.47-.48,1.82-.73,2.08-.65,3.7,1,7.09.67,9-3,1.43-2.76-1.59-8.68-5.12-10.32-3.12-1.46-6.57-2.27-9.53-4a35.77,35.77,0,0,1-9.51-8,36.12,36.12,0,0,0,6.25,1.16c4.7.06,6.75-2.81,5.81-7.45-1.17-5.73-4.62-9.81-9.19-13.12-6.23-4.52-12.26-9.2-14.15-17.92l2.09.83c2.77,1.09,5.62,2.86,8.14-.32a7.92,7.92,0,0,0,.51-9.76c-3.4-5.52-7-10.94-10.29-16.51a77,77,0,0,1-3.42-7.67h65.32c.83,1.42,1.54,2.9,2.5,4.22,2.19,3,4.12,6.44,8.77,6.13A12,12,0,0,0,964.88,332c2.49-7.05,2.29-14.44-1.92-20.58-2.06-3-6.39-5.33-10.09-6.14-4-.88-7.33,1.91-9.38,5.92a6,6,0,0,1-4.49,2.6c-16.74.12-33.48,0-50.23,0-3.22,0-4.61-1.09-5-4.57-.53-4.56-2.18-9-3.07-13.52-1-4.93-1.6-9.92-2.38-14.89l1.45-.51c.66.61,1.29,1.27,2,1.83,3.44,2.76,6.82,2.34,7.55-1.86a93.38,93.38,0,0,0,1.21-20.59C890,249.83,891.71,240.68,896.89,232.06Zm129.5,115.23-1.26-.21-3.9,22.22,1.4.24Q1024.52,358.41,1026.39,347.29Zm2.56,14.32-1.86-.52q-1.58,6.8-3.13,13.59l1.26.33Q1027.08,368.31,1029,361.61Z"/><path class="cls-1" d="M757,323.37a30.18,30.18,0,0,1,8.52-23.55c6.41-6.62,14.74-9.14,24.16-6.22,8.31,2.57,12.86,7.82,14.41,16.51,1.82,10.2.88,19.92-1.39,30-2.36,10.47-16,15.1-24.44,13.74C763.86,351.53,756.69,340.49,757,323.37Zm22.79,10c6.46,0,10.26-3.93,10.26-10.71,0-4.88-3.77-7.83-10-7.82-4.88,0-8.87,4.47-8.93,10S774.13,333.38,779.82,333.4Z"/><path class="cls-1" d="M816.9,328.48V315.89c12,0,23.91,0,35.82,0s23.91.07,35.86.1l55.6.14a35,35,0,0,0,4.47-.06c4.38-.57,6.92,1.23,7.11,5.38.2,4.36-2.17,5.51-6.28,5.52-9.3,0-18.59.8-27.89.78-10.67,0-21.34-.87-32-.81-12.68.08-25.35.83-38,1.1-2.23,0-5.36,1.59-6.45-2.3a8.15,8.15,0,0,0-3.84.76c-2.38,1.51-4.41,3-6.62-.24-.35-.5-1.84-.42-2.75-.28C827.08,326.73,822.28,327.57,816.9,328.48Z"/><path class="cls-1" d="M1088.07,329.81c4.4.69,8,.94,11.43,1.87,4,1.1,7.14.2,9.73-3,3.29-4.09,2.9-14.41-1.25-17.5-1.66-1.24-4.64-1.26-6.92-1-4,.47-7.82,1.59-11.72,2.44l-1.33-1.32c1.31-3.92,2.4-7.92,4-11.72a36.35,36.35,0,0,1,4.49-7.72c3.58-4.75,10.22-4.84,14.31-.46,5.5,5.88,7.24,13.27,8.6,20.86,2,11,2,21.74-2.23,32.24-3.91,9.6-15.16,11.43-21.55,3.32A33.93,33.93,0,0,1,1088.07,329.81Z"/><path class="cls-1" d="M793,354.82c9.6-5,11.8-13,13.91-21.43,3-12,0-23.06-3.52-34.16A289.17,289.17,0,0,1,791,237.78c-.5-5.41-3-10.63-4.73-16.41,2.7-.53,5.75-1.32,8.14,3.42,5.62,11.11,6.21,23.27,8.39,35.13,2.38,13,5,26,8,38.95,3.16,13.69,5.66,27.27,1.28,41.19C809.64,347.76,801.14,355.06,793,354.82Z"/><path class="cls-1" d="M1115.79,353.05c1.93-5,4.2-9.42,5.31-14.08,3.17-13.35,1.27-26.44-2.07-39.64-3.08-12.18-5-24.67-7.08-37.1-1.62-9.94-2.42-20-4-30-.49-3.12-2.21-6-3.3-8.92,3.45-.35,7.53,3.09,8.28,7.66,2.26,13.92,4.25,27.88,6.83,41.74,1.85,9.94,4.48,19.73,6.74,29.59,2.62,11.39,4.34,23,2,34.48-1.06,5.15-5.09,9.79-8.23,14.35C1119.42,352.43,1116.94,352.61,1115.79,353.05Z"/><path class="cls-1" d="M1040.9,326.79c1.37-2.5,2.16-6.33,4.23-7.23,4.59-2,7.86,1.49,10.34,5.47l1.21-.41c.23-3.09.45-6.17.77-10.57h26c5.13,0,10.27.24,15.39,0,4.63-.23,6.85,1.82,7,6.25a7,7,0,0,1-7.23,7.64c-14.93.14-29.85.14-44.77.19-3.79,0-7.59,0-11.38,0Z"/><path class="cls-1" d="M945.74,330.81c3.64-1.32,7.57-2.23,10.86-4.21,1.15-.69,1.2-4.05.95-6.1-.7-5.59-3.81-7.37-12.74-8.26,1.91-1.54,3.76-4.25,5.76-4.36,3.17-.17,7.12.51,9.51,2.4,4.5,3.56,5.07,17.76,1.7,22.57C956.76,340,949.57,338.92,945.74,330.81Z"/><path class="cls-1" d="M772.91,244.5c.56,2.54,2,5.26,1.55,7.58-3.09,14.95-6.49,29.83-10.08,44.67-.48,2-2.56,3.62-3.9,5.41l-1.49-.52q5.91-28.45,11.81-56.89Z"/><path class="cls-1" d="M1093.66,246.39c.47,2.17,1.44,4.37,1.33,6.52q-.9,17.64-2.31,35.27c-.24,2.92-1.43,5.77-2.18,8.66l-1.79-.34q1.17-24.88,2.33-49.78Z"/><path class="cls-1" d="M775,244.09c9.35.78,13.22-3.28,10.84-11.18-1.23-4.09-4.45-5.28-8.11-3.12a24.76,24.76,0,0,1-3.73,1.48c.09-1.52-.19-3.2.35-4.55,1.75-4.37,6.63-5.37,10.12-2.27,6,5.36,6.27,17.74.23,22.82-1.3,1.1-3.87,2-5.19,1.47C777.67,248,776.46,245.71,775,244.09Z"/><path class="cls-1" d="M1093.41,240.36c3.8.47,8.59,2.51,9.9-3,1.12-4.75-2.9-5.53-6.77-5.48-1.45-3.31-1-6.64,2.23-7.43,1.62-.39,5.36,2.37,5.88,4.31a43.9,43.9,0,0,1,1.29,14.09c-.3,4.69-4.9,5.09-8,4.44-2.26-.47-4-3.59-5.94-5.52Z"/><path class="cls-1" d="M1227.63,380.9c.39,5,.92,8.54-4.07,11.39-5.23,3-5.93,9.82-3.07,14.64a12,12,0,0,0,14.59,4.92c10-3.57,12.15-10.35,6.12-19.52-2.9-4.41-.87-17.34,3.38-20.53,6.35-4.76,12.81-9.36,19.82-14.46,7.7,13.72,15.11,26.93,22.76,40.58-21.25,16.21-42.39,32.33-63.69,48.56-2.43-2.65-4.26-4.16-5.49-6.06-6.91-10.71-13.78-21.45-20.33-32.38-.62-1,.46-4.09,1.67-5.07C1208.45,395.6,1217.8,388.5,1227.63,380.9Zm41.2-1.31c-1.28,2-2.62,3.32-2.37,4,.57,1.4,1.94,2.47,3,3.68.87-.83,2.57-1.87,2.43-2.46C1271.5,383.26,1270.31,382,1268.83,379.59Zm-4.78-7.89c-1.49,1.94-2.91,3-2.9,4s1.25,2.83,2.2,3,2.89-1.28,3-2.12C1266.4,375.35,1265.2,374,1264.05,371.7Z"/><path class="cls-1" d="M1185.73,450.71l-10.48-15.44c5.64-3,12-6.71,18.69-9.71,1.22-.55,4.33,1.31,5.51,2.86,2.17,2.87,3.16,6.53.12,9.53C1194.9,442.56,1189.92,446.87,1185.73,450.71Z"/><path class="cls-1" d="M1230.86,351.05l8.18-1.12c-.43,7.92-1,15.49-1.22,23.06-.23,7.08-.06,14.17-.29,21.25-.1,3,.42,6.68-4.18,7-1,.07-2.7-.16-2.95-.75-.47-1-.13-2.47,0-3.73.11-1.41.47-2.81.47-4.22C1230.88,378.8,1230.86,365,1230.86,351.05Z"/><path class="cls-1" d="M1219.35,446.19l-13.43-3.49c2.73-7.17-.24-17.45-6.07-21.13-3.85-2.44-6.66-2.26-10,.95l-7.71-14.28c6.07-3.68,10.47-2.91,13.88,2.38,6.22,9.62,12.32,19.31,18.52,28.94C1215.89,441.62,1217.43,443.55,1219.35,446.19Z"/><path class="cls-1" d="M1186.27,402.29,1227,372.38l1.61,1c-1,1.82-1.48,4.17-2.95,5.38-9.21,7.61-18.72,14.86-27.92,22.49-3.42,2.84-6.91,3.13-10.81,2.37Z"/><path class="cls-1" d="M1181.2,453.31c-.46.72-1.34,3.59-2.7,3.84-2,.37-5.51-.43-6.43-1.92a52.88,52.88,0,0,1-5.19-12.56c-.35-1.16.92-3.71,2.07-4.21a6.78,6.78,0,0,1,5.34.4C1178.59,441.34,1181.27,446.88,1181.2,453.31Z"/><path class="cls-1" d="M1266,315.86c-6.92,5.29-13.68,10.84-20.91,15.67-1.57,1.05-4.83-.45-7.31-.77l-.4-1.9c7.38-5.13,14.64-10.46,22.25-15.25,1.48-.92,4.28.26,6.47.47C1266,314.67,1266,315.27,1266,315.86Z"/><path class="cls-1" d="M1227.94,391.89c.08,4.74-3.49,10.69,3.25,12.23,5.45,1.24,7.43-3.62,8.81-8.28,3.63,5,2.73,9.38-2.29,12.76-4.43,3-12.68,1.27-15.09-3.14C1220,400.6,1221.9,395,1227.94,391.89Z"/><path class="cls-1" d="M1213.61,350c0,8.52.32,17-.19,25.33-.16,2.64-2.52,5.15-4.65,7.37,2-6.68.33-13.2.26-19.65,0-3.31,0-6.62-.06-9.93C1208.86,349.33,1210.25,348.17,1213.61,350Z"/><path class="cls-1" d="M1240.82,371.35c-1-12.41,0-13.12,20.91-15.09Z"/><path class="cls-1" d="M1228.81,333c5-1.15,9.29-1.94,12.66,2.26,2.65,3.3,2.53,6.57-.88,10.34Z"/><path class="cls-1" d="M1277.48,309.23l-12.18-7.33c3.76-3.69,7.94-4.53,11.26-2.17C1279.26,301.65,1280.29,305.54,1277.48,309.23Z"/><path class="cls-1" d="M1227.68,335.63l10.15,11c-4.87,1.78-8.58.54-10.93-3.07-1.24-1.9-1-4.77-1.45-7.2Z"/><path class="cls-1" d="M1275.41,312.31c-2.59.25-5.54,1.39-7.7.54-3.26-1.28-4.91-4.5-4.71-9l12.65,5.62Z"/><path class="cls-1" d="M1216.2,338.09c-3.9-1.92-6.53-1.31-7,2.3s.79,6.13,5.38,5.33c-3.57,2.1-6-.29-7.8-2.43-2.7-3.21-.43-5.89,2.12-8C1212,332.77,1214.28,333.82,1216.2,338.09Z"/><path class="cls-1" d="M1222.9,342.72h-10.66c3.45-3.44,7.09-2.33,10.71-1.52C1222.93,341.71,1222.92,342.21,1222.9,342.72Z"/><path class="cls-1" d="M564.1,442.23l-9.94-8.84c4.35-5.41,8.19-9.93,11.74-14.67,4.73-6.32,9.37-12.73,13.78-19.27,2.69-4,5.33-4.27,9-1.37,3.9,3.07,8.2,5.62,12.07,8.71a6.71,6.71,0,0,1,2.24,4.47,176.15,176.15,0,0,1-.24,17.95c-.19,2.71-1.65,5.31-2.37,8-1.32,4.91.38,8.3,5.14,10.53,4.12,1.93,8.53,1.19,10.36-2.77,1.16-2.52,1.76-7.47.37-8.62-6.89-5.7-3.33-12.89-4.27-19.38l1.26-1.15,33.25,27.6-5.69,11.72L641,455a66.25,66.25,0,0,0-5.27,6.14c-3.25,4.82-6.1,9.9-9.38,14.69s-6.55,5.5-11.35,2c-10.34-7.45-20.4-15.29-30.78-22.67-6.56-4.65-13.5-8.76-20.27-13.11Zm6.19-10c1.23-1.91,2.69-3.23,2.46-4.07-.35-1.24-1.91-2.14-3-3.18-1,1.06-2.74,2.1-2.77,3.18S568.7,430.34,570.29,432.21Z"/><path class="cls-1" d="M656,439.78c-6.14,2.73-10.58,1.2-15-2.74-7.77-7-15.75-13.78-24.15-20-4.87-3.6-5.66-7.52-3.86-13.64C629.23,413.77,641.06,428.56,656,439.78Z"/><path class="cls-1" d="M658,484.55c-5.46-5.24-11.21-10.5-16.62-16.09-2.41-2.49-1.45-5.15,1.29-7.36l17.4,10.28.61-1-16-10.08c3.37-1.34,3.38-1.36,12,3.27,3.74,2,7.42,4.15,10.46,5.86C664.42,474,661.49,478.86,658,484.55Z"/><path class="cls-1" d="M610.3,370.11V432.2L605,430.36c0-9.7,0-19.3,0-28.91,0-8.28.21-16.58-.13-24.85C604.66,372.76,605.6,370.55,610.3,370.11Z"/><path class="cls-1" d="M634.58,419.17c-1.46-3-3.39-5.11-3.44-7.3-.27-13.6-.13-27.21-.1-40.82,0-.79,0-2,.53-2.32,4.31-3,2.42-5.75-.5-8.46,4.52-.68,6.93,1.07,6.8,5Q637,391.1,636,416.93C636,417.18,635.69,417.43,634.58,419.17Z"/><path class="cls-1" d="M640.81,455.14a47.36,47.36,0,0,0,4.19-5.26c3.85-6.52,6-7.53,14.58-5.93-2.53,4.78-5,9.37-7.52,14.19-5.69-2.15-10.14-1.28-13.13,3.91-2.29,4-1.12,7.27,2.16,9.93-3.71,7.46-3.71,7.46-13.39,6.64L641,455Z"/><path class="cls-1" d="M581.28,340.32c-.13,3.9-3.48,6.8-7.9,6.82-3.53,0-7.56-4.5-7.44-8.41.13-4.21,3-5.66,6.54-5.76C578.54,332.8,581.44,335.4,581.28,340.32Z"/><path class="cls-1" d="M599.2,358.75l-1.92,6.31c-3.63-2.76-7.25-5.63-11-8.33-3.58-2.58-7.29-5-11.24-7.67,3.15-2.27,5.85-3.22,9.17-.76C589.14,351.94,594.26,355.32,599.2,358.75Z"/><path class="cls-1" d="M663.64,487c-.54-.95-2.51-2.92-2.1-3.95a37,37,0,0,1,5.79-10.21c1-1.16,4.37-1.32,6-.54,1.11.53,1.78,3.67,1.38,5.33C673.32,483.22,669.31,486.77,663.64,487Z"/><path class="cls-1" d="M589.56,397c14,.2,14,.2,13.29,9.47Z"/><path class="cls-1" d="M612.87,363.52H633C627,368.17,614.47,367.9,612.87,363.52Z"/><path class="cls-1" d="M608.63,364.12l-7.39-1.82-.44,1.21,9.11,3.72c-2.72,2.47-5.18,2.51-7,.2-1.25-1.55-2.68-4.57-2-5.65,1-1.56,3.78-2.49,5.87-2.64,1-.07,2.08,2.38,3.13,3.68Z"/><path class="cls-1" d="M612.45,434.7l-8.32,9.17-1.72-.2c0-2.14-.88-5.08.19-6.27C604.84,434.9,607.89,432.51,612.45,434.7Z"/><path class="cls-1" d="M581.45,303.58v25.88l-.56,0V303.58Z"/><path class="cls-1" d="M615.71,438.17q-3.5,3.58-7,7.18l-1.58-1.45,6.61-7.58Z"/><path class="cls-1" d="M717.57,378l-13.75,1.68c-.68-3.61-1.29-7.3-2.08-10.95-1.59-7.27-3.19-14.54-5-21.76-.79-3.23.1-5,3.39-5.92,11.06-3,22.1-6,33.09-9.25,3.75-1.11,5.56,0,6.43,3.66,2.56,10.83,5.23,21.63,7.81,32.27-5.29,3.94-9.39,1.82-10.65-5.2-.8-4.49-2.27-8.32-7.19-9.76-5.9-1.73-17.79,3.84-18.68,9.77-.49,3.27,1.8,7,3.11,10.48C714.63,374.41,715.87,375.58,717.57,378Z"/><path class="cls-1" d="M735.29,329.05c-11,2.86-21.43,5.55-31.8,8.26-1.92.51-3.78,1.24-5.7,1.72-3.81,1-6.5-.92-6.55-4.9-.11-7.44,0-14.89.21-22.32a3.51,3.51,0,0,1,2.13-2.56c6.65-1.36,13.32-2.91,20.06-3.41,2.16-.16,5,2.26,6.71,4.23C725.37,316,730,322.22,735.29,329.05Z"/><path class="cls-1" d="M745.37,382c-9.17-1-16.37,1-19.72,10.1l-1.37.23c-2.77-8.22-5.8-16.37-8.17-24.71-.91-3.2.75-6.27,4.27-7.5s7.61-2.94,10.6.63c4.14,4.91,7.78,10.25,11.52,15.49A48.36,48.36,0,0,1,745.37,382Z"/><path class="cls-1" d="M683.35,346.32c-1-1.51-2.69-3-2.73-4.53-.35-12.5-.35-25-.52-37.51-.19-13.89-.24-27.79-.81-41.66-.12-3.08-1.89-6.23-3.42-9.07-1.7-3.14-1.53-6,1-8.11,2.71-2.23,6-1.89,8.68.5s2.82,4.86.32,7.8c-4.89,5.75-2.68,12.74-2.57,19.22.27,15.92,1.07,31.83,1.48,47.74.21,8.26,0,16.53,0,24.79Zm-3-100.82c-1.28,1.8-3.12,3.5-2.81,4.12.76,1.52,2.52,2.53,3.88,3.75,1.07-1.29,3.09-2.68,3-3.82C684.2,248.25,682.12,247.18,680.33,245.5Z"/><path class="cls-1" d="M675,358.85c-1.66-2.32-3.37-3.72-3.75-5.42a94.75,94.75,0,0,1-1.33-11.32c-.79-8.37-1.54-16.74-2.29-25,8.36,4.47,12,10.94,11,20.38-.46,4.14,0,8.42-3.37,12.11C673.94,351,675,354.57,675,358.85Z"/><path class="cls-1" d="M699.42,377.32l-19.07-15.87a19.65,19.65,0,0,0,2.52.31c7.32.08,9.83-3,8.89-10.17-.45-3.45-.08-7-.08-10.54L693,341q3.94,17.79,7.91,35.58Z"/><path class="cls-1" d="M729.14,393.28c-.68-6,4.48-7.36,8.46-8.38,2.7-.69,6.65.58,8.93,2.38,1.12.89.36,5.29-.72,7.54-1.56,3.22-8.92,5.29-12.49,4.33C730.38,398.36,728.54,396.84,729.14,393.28Z"/><path class="cls-1" d="M690.68,246.28c.27,2.36,1.68,5.69.62,6.94-5.8,6.88-3.78,14.72-3.67,22.38.16,11,.22,22.11.42,33.17.11,6.27.49,12.54.59,18.81.1,6.75,0,13.49,0,20.23l-1.22.09a26.08,26.08,0,0,1-.51-3.48c-.39-21.11-.71-42.22-1.11-63.33-.1-5.11-.32-10.22-.73-15.31-.36-4.48.26-8.43,3.19-12.16,1.27-1.63,1.08-4.4,1.56-6.65Z"/><path class="cls-1" d="M718.16,255.62c6.49-3.34,7.21-6.45,3.14-14.76,3.88,1.31,5.47,3.71,6,7.27.54,3.81-.62,6.51-3.37,7.46.87,19.34,1.72,38.2,2.57,57.07l-1.78.25c-.54-3.85-1.42-7.68-1.54-11.54-.32-9.64,0-19.31-.52-28.93C722.3,266.82,722.57,260.78,718.16,255.62Z"/><path class="cls-1" d="M723.19,238.57c-7.06-1.31-17.23-22-15.09-27.35Z"/><path class="cls-1" d="M694.56,248.45l22.54-3.67c.25.85.51,1.71.76,2.57-2,.86-3.94,2.16-6,2.51A130.83,130.83,0,0,1,698,251.29c-1.38.09-2.81-.77-4.22-1.19Z"/><path class="cls-1" d="M721,268.55v38.82c-3.31-2.4-.48-5.86-.88-8.63-.5-3.42-.18-6.95-.3-10.42-.12-3.31-.44-6.61-.54-9.92s0-6.59,0-9.88Z"/><path class="cls-1" d="M712.29,364.06c1.06-6.08,6.75-7.49,12.08-8.91,3.9-1,7.69-.48,9.14,3.35-3.57-.25-7.65-1.47-11.17-.55S715.6,362,712.29,364.06Z"/><path class="cls-1" d="M679.14,348.15c2,.22,4.61-.24,5.93.85,1.66,1.36,2.29,4,3.36,6.07L687,356l-8.16-5.83Z"/><path class="cls-1" d="M669.83,314.86c2.24-.78,3.27-1.23,4.36-1.5a29.47,29.47,0,0,1,3.35-.44v8.87Z"/><path class="cls-1" d="M677,352c2.94,1.85,5.42,3.41,7.89,5,.25.15.37.5.54.76C681,360.77,678.29,359.12,677,352Z"/><path class="cls-1" d="M716.56,252.24c4.71-3,4.37-6,0-10.32,4.63.78,5.64,4,5.1,7.24-.28,1.69-2.67,3-4.11,4.54Z"/><path class="cls-1" d="M1163.26,238.47l6.68.86c3.65,17.38,7.87,34.46,10.68,51.78,2.05,12.64,1.3,25.42-5.6,37-2.52,4.23-10.76,8.28-15.42,7.32-6.15-1.26-10.8-7-11.26-13.38,2.2,2.09,4.39,4.84,7.18,6.69,4.77,3.16,10.48,2.17,12.83-2.93,2.51-5.46,3.81-11.55,5-17.5a64.81,64.81,0,0,0,1-14c-.09-3.36-1.21-6.69-1.91-10-1.68-8.09-3.42-16.17-5.05-24.27C1166,253.09,1164.7,246.12,1163.26,238.47Z"/><path class="cls-1" d="M1172.07,221.17c3.85,2.93,4.92,8.47,2.6,12-2.48,3.76-7.91,5.07-11.38,2.76a8.11,8.11,0,0,1-2.27-11.08c2,2,4.14,5.95,6.14,5.86C1172.44,230.44,1171.19,224.92,1172.07,221.17Z"/><path class="cls-1" d="M1207.39,238.12h6.19c-1.27,4.32-2,8.66-3.82,12.56-2.75,6.06-3.89,12.38-5.3,18.81-1.21,5.48-.47,10.22.32,15.44,1.79,11.84,13.88,13.73,21.56,6.95.61-.54,1.19-1.12,1.91-1.8-1.38,7.15-10,10.51-18.06,8.3-14.07-3.88-16.59-20.54-12.15-33C1201.2,256.53,1204.15,247.59,1207.39,238.12Z"/><path class="cls-1" d="M1215.87,227.79c2.11,3.14,1.63,5.32-1.11,7-3.19,2-10.59,1-12.48-1.6-1.57-2.16-.8-4.52,2.25-6.9C1208.27,233.71,1211,234.18,1215.87,227.79Z"/><path class="cls-1" d="M817,716c-23.87.38-47,3.87-68,16.2-6,3.52-9,10.54-5.67,15.61a23.23,23.23,0,0,0,10.33,8,230.38,230.38,0,0,0,24.63,7.83c7.79,2.16,15.68,4,23.6,5.63,6.94,1.41,14,2.46,21,3.33,8.66,1.08,17.37,1.82,26.36,3.43-6.67,2.69-13.22,5.72-20,8-16.2,5.45-32.49,10.65-48.81,15.74-11.84,3.7-23.8,7-35.68,10.62-13.25,4-26,1.31-39.09-1.59-15.46-3.44-29.69-9.44-43.54-16.77-5-2.64-10.13-5-15.07-7.68-18-9.94-18.84-30.86-6.64-45.59,8.27-10,19.4-15.72,29.81-22.71,15.64-10.49,32.94-17,51.06-20.74,33.86-6.89,67.94-12.66,102-18.67,7.33-1.29,14.82-1.62,22.33-2.4,1.23,4.47,2.35,8.44,3.4,12.43,1.25,4.76,1.8,9.43-.75,14.07A9.57,9.57,0,0,0,847,706.1c1.24,11.24-5.16,18.56-11.95,26.36-4.71,5.41-9.51,7.59-16.24,6.89-1-.11-2,.54-3.07.84l.12,1.25h40.72l.06-1.43-7.55-.45L861,730c-1.31-.64-2.75-1.17-2.71-1.35.86-3.59,1.32-7.44,3-10.64a36.63,36.63,0,0,0,3.79-25c-1.67-8.35-1.16-16.41,4.66-23.56,3.43,5.13,7.3,10.18,10.27,15.7,1.48,2.76,1.56,6.37,1.86,9.64.65,7.2.82,14.46,1.59,21.65A21.82,21.82,0,0,1,872,737.69c-2.19,1.21-3.79,3.58-5.49,5.57-1.49,1.73-2.75,3.67-4.21,5.64,13.84,4.21,26.95-3.39,40.83-3.54l-.13-1.47-13.75.94-.6-.93,12.9-10.77-1.72-1.35c3-3.31.41-7.17.77-10.75.5-4.94-.51-10.2-1.72-15.12-2.76-11.26-4.79-22.36-.73-33.8,1.07-3,2.28-4.13,5.51-4.23,26.74-.85,53.47-1.72,80.19-3a272.19,272.19,0,0,1,47.5,1.94c5.91.76,11.95.59,17.92.61,5.33,0,7,3.27,5.3,8.53-3.18,10-5.89,20.07-8.38,30.23-1.26,5.17-3,9.55-7.45,13A70.55,70.55,0,0,0,1027,731.1c-.8,1,1.13,4.21,1.88,6.66l-12.89,1.62c.08.48.16,1,.23,1.44l44.46-2.37c0-.51,0-1,0-1.54h-14.13c3.73-5.4,7.23-10.28,13.32-12.94,2.11-.92,4.41-4.27,4.45-6.55.2-10.43,6.14-18.29,10.93-26.66,4.16-7.26,8.62-14.35,13.17-21.36a5.48,5.48,0,0,1,4.11-2.28c10.25,1,20.45,2.49,30.68,3.67,2.81.32,3.84,1.38,4,4.37.43,7.45,1.16,14.9,2.21,22.28.73,5.15-1,8.66-4.68,12.24-5.66,5.48-10.61,11.7-16.61,18.44L1100,729c0,.46.07.91.1,1.37,17.52.63,35.06,1.85,52.39-2.39-5.21-3.27-11,.8-17.42-.36,3.11-3.86,5.76-7.36,8.62-10.67,2.57-3,3.89-6.8,8.32-8.48,2.47-.93,4.36-4.72,1.16-7.91-.35-.35-.83-.75-.9-1.18-1.3-7.43-2.62-14.86-3.64-22.32-.08-.59,2.06-2.2,3-2.08,3.91.49,7.76,1.43,11.61,2.28,17.78,4,35.46,8.4,53.35,11.78,17.11,3.22,33.26,9.06,48.94,16.21,12.61,5.74,24.35,12.87,30.71,26.26,5.09,10.73,2,20.57-3.15,29.88-7.48,13.49-20.66,20.71-33.36,28.21-1.51.9-4.14.37-6.13-.06-10.68-2.28-21.31-4.78-32-7.09-1.74-.37-4-.82-5.38-.1-8.23,4.18-16.26,1.11-24.23-.49-22.1-4.45-44.19-9-66.2-13.92-16.68-3.71-33.28-7.8-49.83-12.07-12.33-3.18-24.49-7-36.81-10.26-2.11-.55-5.46-.35-6.69,1-1,1.12-.68,4.88.45,6.5,4,5.82,8.66,11.23,13.48,17.33l-29.55,2.12-.09,1a57.47,57.47,0,0,0,7.38.52c8.4-.43,16.79-1.35,25.19-1.48,3.05,0,6.12,1.6,9.18,2.47l-.38,1.6-3.21.8c.62.66.9,1.23,1.25,1.28,5.22.8,10.45,1.52,15.67,2.27.66.1,1.58.06,1.91.46,6.51,7.88,16.43,4.7,24.45,7.59.61.22,1.71,0,1.9.32,3.13,5.79,7.39,2.49,11.68,1.95a11.65,11.65,0,0,1,12.13,6.28c1.6,3,3.06,3.36,6.2,2.51,8.06-2.18,12.51-.62,16.95,4.15,5.84.27,11.36-1.06,14.64,1.06,4.81,3.12,8.89,5.2,14.89,5,3.89-.11,7.86,3.11,12.84,5.29-7.41,2-13.72,4.14-20.21,5.18-11,1.76-22,3.1-33,4-18.47,1.58-37,2.7-55.48,4-13.89,1-27.78,2.23-41.69,2.88-17,.81-34.12,1.43-51.19,1.55-14.78.1-29.56-.49-44.34-1-13.8-.46-27.6-1.92-41.38-1.63-16.46.34-32.71.51-49.11-2.22-11.63-1.94-23.75-.77-35.62-1.48-8-.48-16-1.84-24-2.8-.13-.56-.27-1.11-.4-1.66l17.74-7.14c.11-.14.67-1.53,1.61-1.85,13.63-4.73,27.32-9.29,41-14,7.62-2.6,15.34-4.43,23.45-3.4,3,.38,5.93,1.59,8.89,1.57,3.86,0,7.72-.84,11.57-1.4,11.61-1.68,23.22-3.39,34.83-6l-3.43-.75c9.89-5.18,19.93-10.15,29.66-15.67,4.42-2.51,8.31-6,12.24-9.33.9-.75,1-2.51,1.4-3.8-1.45-.41-3.14-1.5-4.31-1.09-3.26,1.13-6.28,2.93-9.43,4.39-7.08,3.27-14.12,6.62-21.27,9.73s-14.63,6.26-22.08,9c-3.14,1.16-6.63,1.4-10,2.06-.19-.53-.38-1.06-.58-1.59,3.07-1.35,6-3.19,9.24-4,14.37-3.57,27.27-10.26,39.64-18.13a55.54,55.54,0,0,0,8.08-5.77c1-.95,1.82-3.66,1.22-4.51a5.33,5.33,0,0,0-4.65-1.61,22.7,22.7,0,0,0-8.06,3.74c-10.13,7.89-21.57,12.83-33.89,16.11-4,1.06-7.68,3-11.59,4.31a55,55,0,0,1-6.92,1.35l-.43-1.47c3.35-1.34,6.79-2.5,10-4,13.92-6.58,27.83-13.18,41.59-20.09,1.4-.7,1.73-3.53,2.56-5.37-2.21-.49-4.92-2.06-6.57-1.3-10.06,4.58-19.72,10.09-29.86,14.5-8.34,3.62-17.13,6.22-25.79,9.08-1.5.5-3.32.07-5,.07l-.27-1.37c1.74-.62,3.52-1.16,5.22-1.87C903,757,917.31,751.18,931.41,745c2.74-1.2,7.44-3.2,5.34-6.93-2-3.51-6.25-1.16-9.39.25-10.12,4.55-20,9.67-30.4,13.6-9.05,3.42-18.86,4.87-27.83,8.45-5.65,2.25-10.36,6.84-15.51,10.35-1.13.77-2.39,2.09-3.51,2-10.6-.78-21.26-1.34-31.76-2.9a282.18,282.18,0,0,1-30.12-6.32c-10.41-2.72-20.7-6-30.85-9.57A31.28,31.28,0,0,1,747,747.39c-3.75-3.46-3.57-7.56.35-10.71a54.31,54.31,0,0,1,11.79-7.3c16.11-7.18,33.26-10,50.71-11.49,2.41-.2,4.75-1.28,7.12-2,9,0,17.87-.82,26.38-4.13a2.1,2.1,0,0,0-1.69-.66c-7.68.94-15.37,1.89-23,3C818,714.2,817.56,715.37,817,716Zm316.61,47.22c0,.36,0,.72,0,1.08,3.38-.59,6.78-1.08,10.13-1.79,5.51-1.16,11-2.51,16.48-3.68,9.22-2,18.56-3.52,27.65-6a13.54,13.54,0,0,0,9.53-10.64c1.14-5.52-1.1-10.19-6.23-13-3.48-1.89-6.92-4.22-10.67-5.15-10-2.47-20.11-4.3-30.19-6.38l-.42,1.49a18,18,0,0,0,3.74,1.56c4.87.9,9.93,1.1,14.64,2.51,7.69,2.31,15.47,4.73,22.62,8.3,5.86,2.93,6.33,9.8,1.78,14.79a18,18,0,0,1-6.81,4.66c-8.73,3.26-17.74,4.54-27.15,5.19C1150.25,756.84,1142,760.79,1133.65,763.26Zm-95.94-57.82c-16.84-4.81-122.31-2.58-133.23,1.84C948.87,705.24,993.24,702.28,1037.71,705.44Zm77.7,5.85.27-2-41.32-3.38-.15,1.84Zm-115.63,62.2c-8.76-2.35-16.11-.89-23.51-.15,0,.51.05,1,.08,1.53Z"/><path class="cls-1" d="M1143.77,614.81c-.34-1.88-.36-3.9-1.09-5.6-2.14-5-5.35-9.65-6.66-14.82-1.13-4.47-.16-9.47-.31-14.23,0-.95-1-1.87-1.45-2.82a4.15,4.15,0,0,1-.61-1.43c-1.83-21-3.23-42.09-5.65-63-.79-6.88-4.18-13.46-6.39-20.17-.71-2.17-1.4-4.34-2.1-6.5l-1.46.16c.46,3,.32,6.23,1.5,8.88,2.39,5.35,3.45,10.33,1.55,16.22-2,6.11-2.47,12.69-4.13,18.93-1,3.72-3,7.18-4.57,10.79.18.89,1,2.56.71,3.92-2.3,9.35-5,18.6-7.28,28-3.45,14.15-7.39,28.15-9,42.78-.9,8.35-3.5,16.47-.79,24.88a34.19,34.19,0,0,0,1.3,3.77c2.65,5.81,1.79,8.12-3.4,11.57a19,19,0,0,0-6.09,6.24c-6.27,11.37-11.34,23.51-18.53,34.24a44.32,44.32,0,0,0-7.65,21.67c-.17,1.85-5.13,3.24-7.89,4.85-1.19.7-2.33,1.5-3.56,2.13-3.18,1.61-6.27,3.61-9.65,4.54-1.5.41-3.62-1.39-5.45-2.19.94-1.61,1.49-3.94,2.9-4.72,5.53-3.07,8.42-7.88,9.88-13.67,1.84-7.33,3.23-14.77,5.09-22.09.84-3.33,2.55-6.43,3.52-9.73.72-2.48,1.58-5.24,1.18-7.68-1.92-11.42.45-22.45,2.82-33.42,1.2-5.55.24-10.3-1.94-15.37-4.1-9.56-7.66-19.34-11.38-29.06-.69-1.81-1-3.75-2.42-5.63-.11.84-.22,1.67-.46,3.42-7-6.92-14-13.46-24.53-11.12-1.79.4-3.28,2.18-4.67,3.86,4.85-2.61,10.05-3.55,14.69-1.12,4.41,2.3,8.86,5.47,11.79,9.38,3.38,4.5,5.15,10.23,7.57,15.44,2.56,5.54,5.11,11.09,7.6,16.66.8,1.78,1.38,3.66,2.38,6.37-8.47-.4-15.55-2.66-20.41-8.62-5.52-6.76-12.85-9.71-20.72-10.67-4.17-.51-8.84,1.9-13.08,3.52-4.86,1.87-9.51,4.31-14.24,6.52-7.75,3.62-15.65,1.36-23.55.82-3.25-.22-6.57.47-9.85.8-2.7.27-5.46,1.17-8.06.83-13.9-1.8-27.76-3.89-41.63-5.91a24,24,0,0,1-4.85-1c-3.5-1.26-5.48-2.81-4.39-7.57.93-4.12-.22-8.83-1-13.18a81.36,81.36,0,0,0-4.58-15.48,31.17,31.17,0,0,0,.05,5.47c1,5.52,3.54,11.09,3.1,16.45-.63,7.59-3.29,15-5.25,22.49-.79,3-2.11,5.85-3,8.82a37.37,37.37,0,0,0-.77,5,12.44,12.44,0,0,1,2,3c1.87,5,3.31,10.07,5.33,15,2.51,6.06,3.57,11.83.86,18.29-4.17,9.92-1.81,20.06.81,29.86,2,7.28,3.78,14.31,2.76,22s-1.91,9.47-8.94,12c0,7.38-12.72,13.62-22.09,8.85l3.58-5.48c4.42.69,7.22,6.45,12.43,2.87l-7.2-3.63a53.68,53.68,0,0,0,4-6c2.09-4.26,4-8.62,5.72-13.06.59-1.54.21-3.44.3-5.18.12-2.5.26-5,.4-7.54l-3.18,2c0-5.79-.36-10.81.1-15.74.51-5.49-1.75-9.65-4.23-14.29-3.81-7.12-11-13-9.63-22.34a.71.71,0,0,0-.07-.49c-6.64-7.37-3.72-17.57-7.6-25.69-1.46-3-3.54-6.31-6.23-8.18-5.32-3.69-8.22-8.79-9.79-14.56-1.27-4.67-6.17-8.17-4.4-13.87.19-.61-1.78-1.88-3.92-2.42,1.69,5.21,3.14,10.51,5.16,15.58a81,81,0,0,0,5.76,11c1,1.65,2.32,3.53,4,4.27,5.66,2.56,7.9,7.21,9,12.29-5.89-2.19-11.78-5-18-6.5s-12.4-1.67-18.63-2.28c-3.3-.32-6.79.24-9.92-.61-6.56-1.78-12.34-4-15.15-11.89s-8.59-14.51-12.25-22.1c-3-6.3-4.73-13.22-7.32-19.75-.72-1.83-2.51-3.23-3.8-4.84-1-1.19-1.88-2.41-3.45-4.43l14.28-1.1-.07-1.27H783l14.67-12.24-1.12-1.31c-2,1.6-3.95,3.16-5.86,4.81a23.69,23.69,0,0,1-10.9,5.74c-5.36,1.22-10.09,6.54-14.37,10.8-5,4.93-8.4,11.49-15.81,13.52a8.13,8.13,0,0,1-4.13.24l7.59-5.64-.84-1.2c-7,4-14,7.79-20.85,11.91-3.52,2.11-6.71,4.78-10.11,7.12-6.95,4.79-14.94,4.76-20.77-.87,10.19,1.38,19.45,1.75,25.79-6.48-.24-.62-.48-1.23-.71-1.85a26.92,26.92,0,0,0-4.87,2.31c-6.19,4.6-13.08,4.18-20,2.66-1.63-.36-3.32-2.29-4.18-3.92-1.82-3.48,1-13.06,3.57-16.21s5-6.76,6.05-10.56c1.84-6.86,3.86-14.1,3.4-21-.47-7.15,1.93-13.24,3.71-19.58,1-3.4,3.7-6.32,5.75-9.38,2.36-3.51,5.33-6.71,7.15-10.48,2.55-5.24,8-7.67,13-4.47a47.45,47.45,0,0,1,9.55,7.93c6.33,6.91,14.38,7.49,21.55,1.52a39.73,39.73,0,0,1,10.34-6.62c15.58-6.19,31.62-11.33,46.93-18.12a73.91,73.91,0,0,1,34.32-6.56,7.52,7.52,0,0,1,3,.29c11.93,6.41,23.64,1.48,35.43-.56,9.3-1.61,18.58-3.7,28-4.36,5.52-.38,11.38,1.05,16.77,2.69,6.77,2.08,13.54,1.54,20.24,1.07s13.27-2.37,19.93-3.42a21.69,21.69,0,0,1,5.77.34c8.88,1.1,17.39-.89,26-2.58,7.72-1.5,15.66-1.78,23.47-2.89,6.23-.88,12.38-2.31,18.6-3.27a77.65,77.65,0,0,1,11.86-1.12c10.12,0,20.26.2,30.37.66,3.35.14,6.65,1.34,10,2,1.74.35,3.52,1,5.23.89,7.24-.48,12.66,2.75,13.25,9.8,1.45,17.32,4.24,34.59,2.45,52.14-.54,5.28.57,10.89,1.77,16.16,3.8,16.71,8,33.35,12.1,50,.76,3.07,2.27,6,3.08,9,.29,1.1-.13,3.29-.79,3.55-1.14.44-2.72-.23-4.12-.44l-1.44,1.11c1.28.95,2.55,1.91,3.58,2.69-.25,2.49-.58,5.58-.89,8.62l-1.89-.83ZM756.9,509.54l-.3,2.7c2.1,0,4.26.32,6.28-.07a22.29,22.29,0,0,1,15.35,2.67c3.64,2,5.76,4.58,4.41,8.83-1.08,3.4-5.65,5.25-9.84,4.41-3.87-.78-7.79-1.35-11.68-2a35.8,35.8,0,0,0,7.17,3.67c5,2.12,12.77.77,15.66-3.66,1.45-2.23,2.16-6.22,1.12-8.44s-4.48-4.35-7.2-4.95C771,511.18,763.9,510.53,756.9,509.54Zm-27,35.86c5.66-1.19,14,6.29,16.51-5C740.24,539.57,733.56,537.65,729.9,545.4Zm48.3-21.48,1.8-.1c-.36-1.49-.23-3.49-1.17-4.39-6.22-6.07-15.39-6.27-21.59-.55-.56.52-.07,2.18-.07,3.31,3.43-4.52,7.14-6.09,11.6-6C773,516.31,777.39,520.08,778.2,523.92Zm-64.89,57.7,12.24-4.42C720.38,573.48,717.23,574.72,713.31,581.62Z"/><path class="cls-1" d="M935,739.38c-1.69,1.48-3.14,3.48-5.09,4.36C915,750.48,900.4,758.22,884.25,762a8.48,8.48,0,0,0-3.57,1.65,3.81,3.81,0,0,0-1.36,2.94,3.26,3.26,0,0,0,2.58,1.78,42,42,0,0,0,9.84-.8c15.79-4,30.4-10.85,44.58-18.73a79.63,79.63,0,0,1,10.07-4.35c.7-.27,1.71.25,3.76.61-2,1.69-3,3-4.32,3.65Q925.5,758.46,905.08,768c-2.84,1.32-6.05,1.87-8.85,3.24-1.18.57-1.76,2.36-2.62,3.6,1.27.74,2.55,2.13,3.81,2.1a30.76,30.76,0,0,0,8.11-1.37c3.18-.93,6.15-2.61,9.34-3.46,13.71-3.68,26.52-9.17,37.92-17.78,1.79-1.35,4.31-1.72,6.76-1.95-7.55,8.42-16.91,13.86-27.35,17.51-7.43,2.6-15,4.91-22.38,7.57a17.11,17.11,0,0,0-8.25,6.77c1.44.91,2.91,2.63,4.32,2.58a30.51,30.51,0,0,0,10.22-1.72c10.16-4,20.13-8.52,30.18-12.82,6.92-3,14.55-4.41,20.26-9.9.62-.6,2-.39,3-.56l.72,1.5c-7.76,4.58-15.49,9.21-23.28,13.74-2.28,1.32-4.81,2.22-7.06,3.57-19.08,11.46-40,13.83-61.75,13.59-8.49-.09-17,1.82-25.5,3-3.71.5-7.39,1.28-11,2.12a40.16,40.16,0,0,0-6.54,2.09c-12.43,5.25-24.82,10.6-37.24,15.87q-19.12,8.12-38.28,16.14c-8.7,3.65-17.27,7.68-26.17,10.75-18.16,6.26-36.38,12.37-54.8,17.79a362.56,362.56,0,0,1-36.75,8.38c-7.92,1.44-16.41,2.7-22-5.7a12.22,12.22,0,0,1-.8-1.91l9.48,4.2.63-1a11,11,0,0,0-2.22-1.8c-8.4-3.78-9.66-10.54-1.91-15.63a81.31,81.31,0,0,1,22-10.16c16.26-4.67,32.9-8,49.27-12.33,9.77-2.59,19.22-6.41,29-9,22.84-6.16,45.85-11.65,68.63-18,10-2.79,19.59-7.06,29.38-10.62,6.86-2.49,13.74-4.92,20.62-7.38,4.74-1.7,8.76-4,11.78-8.5,5.66-8.54,15.25-10.55,24.42-13.11,8.61-2.39,17.32-4.58,25.65-7.77,7.19-2.76,13.88-6.82,20.83-10.24,2.45-1.21,5-2.22,7.51-3.32Z"/><path class="cls-1" d="M1389,862c-12.49-2.24-24.54-3.8-36.27-6.63-19.32-4.66-38.45-10.12-57.65-15.28-23.84-6.4-47.7-12.76-71.5-19.31a141.44,141.44,0,0,1-15.15-5.4,12.43,12.43,0,0,1-8.13-13.53c.61-5.66,1.63-11,8.63-14.2,10.07-4.56,19.11-1.6,28.56.55,17.13,3.9,34.27,7.73,51.36,11.84,16,3.84,31.77,8.24,47.75,12,12.27,2.86,24.77,4.74,37,7.61,9.3,2.18,18.46,5,27.54,8,8,2.59,10,9.16,9.41,16.65-.54,7.16-3.87,12.78-10.93,15.28C1396.17,860.73,1392.4,861.22,1389,862Zm-168.85-69.68c-2.68,3.32-5.15,5-5.39,7-.39,3.21,2.25,5.23,5.46,5.1,2.79-.12,5.62-1.51,4.82-4.92C1224.57,797.41,1222.55,795.68,1220.17,792.31Z"/><path class="cls-1" d="M1058.24,631.17l-4.47,34.44c-51.48-5.1-102.74-2.48-153.92,0-1.87-5-3.94-10.11-5.75-15.34-4.14-12-5.8-20.22,2.4-34.3,12.92,2.16,25.84,4.73,38.87,6.36,9.75,1.23,19.57,3.61,29.51.73a13,13,0,0,1,5.88-.14c13.58,2.65,25.59-1.52,36.71-8.72,8.09-5.24,20.14-1.83,25.92,3.82C1040.58,625.1,1048.19,630.13,1058.24,631.17ZM896,640.33l0,1.46a24.65,24.65,0,0,0,3.18.39c8.8,0,17.6-.14,26.4-.12,12.55,0,25.1.3,37.64.22,18.84-.12,37.67-.52,56.5-.63,5.07,0,10.14.74,15.21.74,4.26,0,8.53-.5,12.78-.9a39.94,39.94,0,0,0,4.76-1.16Z"/><path class="cls-1" d="M1034.47,748.5l167.35,38.75c-6.18,8.24-11.11,16.85-2.31,26.72l-.75,1c-4.63-1.58-9.22-3.28-13.9-4.69-4.06-1.23-8.25-2-12.32-3.22-2.37-.69-5.14-1.24-6.82-2.83-3.66-3.45-7.64-3.23-12.07-2.84-2.14.18-4.39-1-6.58-1.55-4.23-1.11-8.42-3-12.69-3.16-3.68-.15-6.39.35-9.42-3.14-4.06-4.68-10.38-5.28-16.56-4.75-1.37.12-3.25.22-4.12-.55-4.92-4.35-10.94-3.93-16.81-4.53a32.85,32.85,0,0,1-7.19-2.07c-4.63-1.6-9.13-3.83-13.88-4.77-2.76-.54-5.08-.52-7.23-2.93-1.75-2-4.51-3.22-7-4.33-9.4-4.17-13.92-12.41-19-20.25Z"/><path class="cls-1" d="M1108,613.88c-1.51-5.09-1.19-5.88,3.22-8.74,1.28-.84,1.21-2.49.24-4.58-.36-.77,0-1.93.16-2.89.8-4.88,2-9.74,2.37-14.66a49.13,49.13,0,0,0-.31-13.11c-1.89-9.83-2.14-9.79,3.09-26.87,1.26,9.88,2.24,18.51,3.5,27.1,2.34,15.89,7.81,30.82,14.38,45.37.94,2.07,2.85,3.69,3.77,5.77,1.45,3.27,3,6.67,3.51,10.15,1.24,9.32,2,18.71,2.77,28.09.26,3.13-.22,6.34.19,9.44,1.3,9.82,2.81,19.6,4.4,29.38.19,1.2,1.77,2.18,1.92,3.37.19,1.41-.24,4.11-.79,4.22-4.66.9-6.7,4.41-9.2,7.8-2,2.73-4.9,4.82-7.41,7.18-.23.22-.6.34-.78.59-1,1.48-2.31,4.39-3.06,4.25-3.56-.62-7-2.06-11.82-3.66,3.91-4.38,6.27-8.2,9.65-10.49,4-2.68,5-5.87,4.51-10.05-.77-7.25-1.88-14.47-2.39-21.73-.37-5.4.47-10.91-.12-16.28-1.07-9.72-4.58-18.74-9.53-27.18-1.39-2.38-2.73-4.79-3.68-6.46-2.25-1.32-4.4-2.07-5.83-3.53a35.22,35.22,0,0,1-6.38-8.21C1103.17,615.78,1104,613.34,1108,613.88Z"/><path class="cls-1" d="M840.86,729.82l8,1.75.65-.6c-1.38-1.21-2.76-2.42-4.08-3.56,2-9.4,4.79-18.93,5.94-28.64.72-6.08-1-12.44-1.59-18.67q-1.87-17.93-3.82-35.85c-.46-4.22-1.05-8.43-1.75-14.06,5.49,2.81,10.56,4.8,14.86,7.87,2,1.42,2.62,4.9,3.58,7.55.71,2,.46,4.41,1.48,6.14,4.13,7,4.26,13.24.64,21.09-2.7,5.83-2.39,13.75-1.37,20.42a35.71,35.71,0,0,1-3.74,22.6c-2.21,4.35-4.29,9.14-4.72,13.89-.31,3.45-2,4.54-4.18,5-1.92.44-4.27-.18-6.23-.88-1.46-.52-2.59-1.94-3.87-3Z"/><path class="cls-1" d="M1101.74,620.19c15.46,12.49,26,27.63,25.55,48.95l-36.23-4-.63-1.63c1.84-1.9,3.47-4.11,5.58-5.64,5.46-4,6.66-8.12,3.64-14.13C1095.67,635.81,1096.44,627.75,1101.74,620.19Z"/><path class="cls-1" d="M1108.53,571.6c7.51,11,.17,33.89-8.06,44.56l-1.35-.25c1.25-5.89,2.52-11.78,3.75-17.68q2.46-11.81,4.89-23.61C1107.92,573.85,1108.15,573.09,1108.53,571.6Z"/><path class="cls-1" d="M712.86,512.59l-3.81-9c3.87-3.59,7.64-.54,12.69.66Z"/><path class="cls-1" d="M1045.75,731.07c-2.51,6.13-11.8,7.5-16,2.63a2.62,2.62,0,0,1-.61-2.11,2.26,2.26,0,0,1,1.91-.87c2.35.27,4.66,1,7,1.09A60.85,60.85,0,0,0,1045.75,731.07Z"/><path class="cls-1" d="M833.28,738.24l5-6.22,5.73,4.39,0,1.52-9.62,2.29C834,739.56,833.65,738.9,833.28,738.24Z"/><path class="cls-1" d="M1116.24,722l6.71,5.84h-11C1113.84,725.24,1115,723.65,1116.24,722Z"/><path class="cls-1" d="M620.51,624.64c4,6,7.52,11.61,11.27,17,5.57,8,11.2,16,17,23.91,4.38,6,4.55,6.5-1,11.36-10.61,9.29-21.35,18.44-33.52,27.36,1.29-6.61,1.82-13.5,4.06-19.78,2.58-7.22-1-14.22-9.16-15.18a13.75,13.75,0,0,0-15,10.75c-.85,3.74,1.21,5.8,3.22,8.29,1.3,1.6,2.65,3.8,2.63,5.72,0,6.65.44,13.63-1.44,19.83-1.34,4.41-5.83,8.11-9.51,11.49-3.11,2.86-7.07,4.8-11.42,7.65l-34.26-45.88Zm-47.59,57.59c-2.43-1.57-3.83-3.19-5.14-3.12s-2.53,1.83-3.79,2.85c1.36,1.08,2.6,2.68,4.14,3C569.12,685.25,570.55,683.68,572.92,682.23Zm-9.58,5.31c-1.68-1.36-3.23-3.16-3.72-2.91a8.15,8.15,0,0,0-3.23,3.56c-.17.32,1.94,2.56,2.75,2.42C560.45,690.38,561.56,688.93,563.34,687.54Z"/><path class="cls-1" d="M622.52,622.93c9.82,2.53,19.93-1.72,26.43,8-2.9,2.58-9.59,1.18-8.82,7.45.41,3.34,1.11,7,2.86,9.77,3.57,5.67,8.88,5.3,18.09-1.19,4.12,7.72,8.18,15.31,12.68,23.71-6.31.47-11.5,1-16.71,1.1-1.1,0-2.51-1.51-3.31-2.66-7.09-10.19-14-20.49-21.1-30.7-2.54-3.67-5.38-7.14-8-10.78C624,626.69,623.63,625.44,622.52,622.93Z"/><path class="cls-1" d="M614.58,722.94c-.32-1.83-.34-2-.37-2.15-2.73-12.26,7.47-16.82,14.13-23.29,7.6-7.39,15.16-15,23.7-21.15,4.1-3,10.41-2.88,16.15-3.32C652.59,692.08,631.52,704.69,614.58,722.94Z"/><path class="cls-1" d="M669.15,612.1c4.41,6.38,8.41,12.18,12.38,17.94-8.43,4.7-17.8,10.1-27.38,15.09-1.6.84-5.27.66-6-.4-1.35-2-2.61-6.11-1.55-7.39C654,628.44,661.94,620.05,669.15,612.1Z"/><path class="cls-1" d="M602.24,690.69l6.46.76v65.33l-9.08.47C600.49,735.2,601.35,713.29,602.24,690.69Z"/><path class="cls-1" d="M593.36,766.25l2.41,6.71c-8,5.54-17,8.27-25,13.17-8.45,5.2-17.44,9.53-26.7,14.51l-3.12-4.54Z"/><path class="cls-1" d="M574.94,791.82c-.15,7.95-3.2,13-8.58,16.24-7.61,4.65-15.51,8.83-23.82,13.51.6-1.46,1.16-2.77,1.66-4.11,1-2.78,2-5.57,3.07-8.35.38-1,.53-2.58,1.28-3C557.05,801.38,565.65,796.82,574.94,791.82Z"/><path class="cls-1" d="M689.3,622.19c0,4.83-2.38,6.48-6.65,4.07A17.44,17.44,0,0,1,673.21,611c-.13-3.83,2.25-5.34,5.75-3.94C684.66,609.3,689.31,616.11,689.3,622.19Z"/><path class="cls-1" d="M601.2,687.28c-4.55-2.31-6-5.18-4.34-9.31,1.76-4.36,7-6.77,14-5.74Z"/><path class="cls-1" d="M598.18,720.88c0,4.18.13,7.75-.09,11.29-.05.88-1.22,2.42-1.86,2.4-4.53-.09-9.07-.5-14.7-.88Z"/><path class="cls-1" d="M570.39,724.61c-6.74,12.29-3,23.41-.66,34.44.86,4,2.77,7.83,4,11.79a7.06,7.06,0,0,1-.33,3.93C566.75,761.14,559.09,734.37,570.39,724.61Z"/><path class="cls-1" d="M570.35,809.43c-5.47,3.72-11.41,6.92-16.27,11.32-4.59,4.16-8,9.59-11.51,13.88-1.49-5.9,1-11.2,7.36-14.84q9-5.2,18.14-10.28c.61-.33,1.57,0,2.36,0Z"/><path class="cls-1" d="M536.07,816V799.48c3.76.43,8.38,7.25,7.89,11S540.46,816.45,536.07,816Z"/><path class="cls-1" d="M595.94,777.17l-49.62,26.88-1-1.85L595,775.76Z"/><path class="cls-1" d="M532.53,799.17v16.71c-5.44.41-6.6-2.88-7.17-6.72C524.63,804.19,527.3,801.52,532.53,799.17Z"/><path class="cls-1" d="M597.84,763c5.53,3.51,10,6.35,14.84,9.42-3.47,3.09-6.58,4.52-10.88,2.17S597.25,768.67,597.84,763Z"/><path class="cls-1" d="M613.44,673.49c3.5,2.53,4.12,5.24,3.11,8.67-1.81,6.15-7.18,5-13,6.58Z"/><path class="cls-1" d="M612.42,690.25v65.26h-1.1V690.23Z"/><path class="cls-1" d="M613.74,770.59l-13.24-8.27-.13-1.42c2.13-.32,4.78-1.59,6.27-.77C610.12,762.05,614.46,764,613.74,770.59Z"/><path class="cls-1" d="M570.43,809.52a10.58,10.58,0,0,1,1.21-3A21.79,21.79,0,0,0,577,790.71c3,7.69.71,13.8-6.68,18.7Z"/><path class="cls-1" d="M644,635c-2.34,6.2.49,13.66,10.34,14.4-4.39,2.43-7.28.45-9.7-2A9.39,9.39,0,0,1,644,635Z"/><path class="cls-1" d="M1248.14,646.32c0-5.39.28-10-.05-14.53-.82-11.24-2.33-22.44-2.77-33.68-.42-10.71.11-21.46.32-32.19q.18-8.89.71-17.78c.18-3.18,1.64-4.94,5.25-5.33a51,51,0,0,0,11.55-2.87c6.2-2.19,7.77-1.76,8.55,4.86a273.48,273.48,0,0,1,2.19,29.28c.16,18.71-.3,37.42-.61,56.12a63,63,0,0,1-1.1,11c-.27,1.39-1.84,3.44-3,3.58C1262.5,645.52,1255.77,645.81,1248.14,646.32Z"/><path class="cls-1" d="M1245.36,540.59l-12.94-3.1-.32,1.13,11.4,3.48c-.21,18.12-.88,35.33-.48,52.53.39,17,1.87,33.94,2.86,50.72C1234.23,648,1227,642.7,1225.74,632a297.43,297.43,0,0,1-1.11-55.18c.64-9-.69-18.24-.08-27.29.32-4.74,1.68-10.41,4.68-13.76,7-7.86,9.31-16.63,8.76-26.65-.06-1,0-2,0-3.36l7.38,1.61Z"/><path class="cls-1" d="M1248.89,542.28c-.56-12.11-1.08-23.33-1.6-34.81l10.33-2.28c1.34,11.49,2.34,23,13.3,31.29Z"/><path class="cls-1" d="M1253.93,490.88c-4.68.32-9.36.8-14,.91-2.37.06-4.54,0-4.8-3.82-.25-3.61,1-5.92,3.93-6.24a81.58,81.58,0,0,1,18.14-.28c1.8.22,3.15,4.28,4.7,6.58-1.81,1-3.59,2-5.46,2.83a7.35,7.35,0,0,1-2.46.17Z"/><path class="cls-1" d="M1237,494.39l19.81-1.36c.43.55.75.78.81,1.06,2.17,10.59.83,8.59-8,10.82-1.85.47-4,.09-5.93-.07C1238.24,504.41,1237.46,503.19,1237,494.39Z"/><path class="cls-1" d="M1372.21,577.43c4.79,16.07,3.42,31.39,3.93,46.57a133.18,133.18,0,0,0,1.32,16.84c.63,3.87-1.47,5.2-4.18,5.89a55.05,55.05,0,0,1-9.19,1.08c-4.31.33-7-1.48-7.4-6-1.13-12.16-2.23-24.33-3.41-36.48-.67-6.91-1.4-13.82-2.25-20.7-.54-4.38,1.62-6.07,5.61-6.29C1361.82,578,1367,577.73,1372.21,577.43Z"/><path class="cls-1" d="M1360.31,574.58c0-5.58-.06-11.15,0-16.72,0-3.7-1.89-4.88-5.31-5-3.23-.07-6.45-.58-9.68-.89l.29-2.73c4.93.39,9.92.46,14.75,1.36,1.43.26,3.24,2.7,3.5,4.36a135.43,135.43,0,0,1,1.44,16.36c0,1.37-1.25,2.79-1.93,4.19Z"/><path class="cls-1" d="M1347,531c2.62.33,4.45,1.68,3.26,5.22-.79,2.36-1.47,4.76-2.45,7a13,13,0,0,1-2.31,2.83,15.88,15.88,0,0,1-2.66-2.43,29.72,29.72,0,0,1-2-4C1338.44,534.8,1341,530.79,1347,531Z"/><path class="cls-1" d="M1367.59,654.3a87.32,87.32,0,0,1-9-.62c-.89-.15-1.52-1.81-2.28-2.78.85-.56,1.67-1.56,2.54-1.61,5.52-.31,11.06-.56,16.6-.46,1.41,0,2.8,1.34,4.2,2.06-1.27,1-2.43,2.51-3.85,2.83C1373.23,654.29,1370.53,654.13,1367.59,654.3Z"/><path class="cls-1" d="M1310.72,576.34c5,0,9.89-.09,14.81.08a3.9,3.9,0,0,1,2.67,1.73c5.36,9,10.44,18.18,8.78,29.35a14.35,14.35,0,0,0,.39,3.39c1,8.68,2.34,17.34,2.75,26.05.31,6.73-1.16,8.76-7.57,9.42-7.64.78-15.45.44-23.15,0-3.37-.18-5.22-2.45-5.37-6.47-.34-9.75-1.47-19.47-2-29.22-.42-8.15-.16-16,5.64-23C1309.87,585.07,1309.7,580.49,1310.72,576.34Z"/><path class="cls-1" d="M1333.06,568.82h-28.75c0-.49,0-1-.07-1.46l28.62-1.35C1332.93,567,1333,567.88,1333.06,568.82Z"/><path class="cls-1" d="M1299.76,569.54c11.84,5.22,23.16-.42,35.18,1.47-2.28.78-4,1.79-5.79,1.89-4.75.29-9.53.14-14.29.25-3.1.07-6.19.4-9.29.4C1303.18,573.55,1300.17,574.25,1299.76,569.54Z"/><path d="M1026.39,347.29q-1.87,11.13-3.76,22.25l-1.4-.24,3.9-22.22Z"/><path d="M1029,361.61q-1.87,6.7-3.73,13.4l-1.26-.33q1.56-6.8,3.13-13.59Z"/><path d="M779.82,333.4c-5.69,0-8.71-3-8.66-8.56s4.05-10,8.93-10c6.22,0,10,2.94,10,7.82C790.08,329.47,786.28,333.43,779.82,333.4Zm.74-2.32L779,317.15c-4.45,2.1-6.31,4.65-5.52,8.89C774.12,329.58,776.29,330.9,780.56,331.08Zm1.82-1.22c4.38-.81,5.81-2.46,5.45-6.3-.37-4.07-2.29-6.66-7.06-6.5C781.32,321.4,781.83,325.45,782.38,329.86Z"/><path d="M1268.83,379.59c1.48,2.37,2.67,3.67,3,5.17.14.59-1.56,1.63-2.43,2.46-1-1.21-2.41-2.28-3-3.68C1266.21,382.91,1267.55,381.63,1268.83,379.59Z"/><path d="M1264.05,371.7c1.15,2.31,2.35,3.65,2.26,4.89-.07.84-2.07,2.29-3,2.12s-2.19-1.93-2.2-3S1262.56,373.64,1264.05,371.7Z"/><path d="M570.29,432.21c-1.59-1.87-3.29-3-3.27-4.07s1.78-2.12,2.77-3.18c1.05,1,2.61,1.94,3,3.18C573,429,571.52,430.3,570.29,432.21Z"/><path d="M680.33,245.5c1.79,1.68,3.87,2.75,4,4.05.14,1.14-1.88,2.53-3,3.82-1.36-1.22-3.12-2.23-3.88-3.75C677.21,249,679.05,247.3,680.33,245.5Z"/><path d="M1133.65,763.26c8.35-2.47,16.6-6.42,25.08-7,9.41-.65,18.42-1.93,27.15-5.19a18,18,0,0,0,6.81-4.66c4.55-5,4.08-11.86-1.78-14.79-7.15-3.57-14.93-6-22.62-8.3-4.71-1.41-9.77-1.61-14.64-2.51a18,18,0,0,1-3.74-1.56l.42-1.49c10.08,2.08,20.21,3.91,30.19,6.38,3.75.93,7.19,3.26,10.67,5.15,5.13,2.8,7.37,7.47,6.23,13a13.54,13.54,0,0,1-9.53,10.64c-9.09,2.45-18.43,4-27.65,6-5.51,1.17-11,2.52-16.48,3.68-3.35.71-6.75,1.2-10.13,1.79C1133.64,764,1133.65,763.62,1133.65,763.26Z"/><path d="M1037.71,705.44c-44.47-3.16-88.84-.2-133.23,1.84C915.4,702.86,1020.87,700.63,1037.71,705.44Z"/><path d="M1115.41,711.29l-41.2-3.52.15-1.84,41.32,3.38Z"/><path d="M817,716c.52-.67,1-1.84,1.56-1.93,7.66-1.08,15.35-2,23-3a2.1,2.1,0,0,1,1.69.66c-8.51,3.31-17.37,4.15-26.38,4.13Z"/><path d="M999.78,773.49l-23.43,1.38c0-.51-.05-1-.08-1.53C983.67,772.6,991,771.14,999.78,773.49Z"/><path d="M756.9,509.54c7,1,14.08,1.64,21,3.15,2.72.6,6.11,2.64,7.2,4.95s.33,6.21-1.12,8.44c-2.89,4.43-10.66,5.78-15.66,3.66a35.8,35.8,0,0,1-7.17-3.67c3.89.66,7.81,1.23,11.68,2,4.19.84,8.76-1,9.84-4.41,1.35-4.25-.77-6.85-4.41-8.83a22.29,22.29,0,0,0-15.35-2.67c-2,.39-4.18.07-6.28.07Z"/><path d="M729.9,545.4c3.66-7.75,10.34-5.83,16.51-5C743.94,551.69,735.56,544.21,729.9,545.4Z"/><path d="M778.2,523.92c-.81-3.84-5.19-7.61-9.43-7.71-4.46-.11-8.17,1.46-11.6,6,0-1.13-.49-2.79.07-3.31,6.2-5.72,15.37-5.52,21.59.55.94.9.81,2.9,1.17,4.39Z"/><path d="M713.31,581.62c3.92-6.9,7.07-8.14,12.24-4.42Z"/><path d="M1220.17,792.31c2.38,3.37,4.4,5.1,4.89,7.18.8,3.41-2,4.8-4.82,4.92-3.21.13-5.85-1.89-5.46-5.1C1215,797.33,1217.49,795.63,1220.17,792.31Z"/><path d="M896,640.33h156.43a39.94,39.94,0,0,1-4.76,1.16c-4.25.4-8.52.91-12.78.9-5.07,0-10.14-.77-15.21-.74-18.83.11-37.66.51-56.5.63-12.54.08-25.09-.19-37.64-.22-8.8,0-17.6.1-26.4.12a24.65,24.65,0,0,1-3.18-.39Z"/><path d="M572.92,682.23c-2.37,1.45-3.8,3-4.79,2.78-1.54-.37-2.78-2-4.14-3,1.26-1,2.48-2.78,3.79-2.85S570.49,680.66,572.92,682.23Z"/><path d="M563.34,687.54c-1.78,1.39-2.89,2.84-4.2,3.07-.81.14-2.92-2.1-2.75-2.42a8.15,8.15,0,0,1,3.23-3.56C560.11,684.38,561.66,686.18,563.34,687.54Z"/><path class="cls-1" d="M780.56,331.08c-4.27-.18-6.44-1.5-7.09-5-.79-4.24,1.07-6.79,5.52-8.89Z"/><path class="cls-1" d="M782.38,329.86c-.55-4.41-1.06-8.46-1.61-12.8,4.77-.16,6.69,2.43,7.06,6.5C788.19,327.4,786.76,329.05,782.38,329.86Z"/></svg>