<svg id="Layer_1" data-name="Layer 1" xmlns="http://www.w3.org/2000/svg" viewBox="0 0 450 450"><defs><style>.cls-1{fill:#fff;}</style></defs><title>Artboard 2</title><path d="M300.66,277.65c-10,9-20.2,16.32-32.09,21.45-5.24,2.26-9.93,6-14.57,9.41-10.56,7.85-22.87,11.76-35.19,15.35-5.14,1.51-11.08-.28-16.24,2.66-.31.18-2.61-1.81-2.7-2.89a6.92,6.92,0,0,1,1.65-4.53c11.2-13,21.43-27.15,34.13-38.51,10.63-9.51,18.28-21.41,28.8-30.78a14,14,0,0,0,3.5-5.34c.64-1.67,1.16-4.71.35-5.34-1.82-1.4-4.49-1.75-6.85-2.36-.74-.19-1.65.36-2.41.21-8.57-1.67-17.08-3.63-25.68-5-5.59-.93-11.31-1-17-1.65a36.15,36.15,0,0,1-4.7-1.23q-9.8-2.48-19.58-4.9c-.8-.2-1.77,0-2.45-.41-10.71-6-21.59-11.77-32-18.3-4.19-2.62-7.22-7-10.92-10.46-2.74-2.54-6.72-4.31-8.33-7.38-2.27-4.33-3-9.51-4.14-14.38s.39-9,4-12.5c.5-.48.33-2.27-.16-3.06-2.4-3.83-.9-7,2.08-9.15a59.38,59.38,0,0,1,12.65-7.15c8.11-3.18,16.31-6.9,24.81-8.17,11.06-1.66,22.44-1.57,33.67-1.5A238.88,238.88,0,0,1,272.73,140a52.47,52.47,0,0,1,9.48,4.11c9.7,4.86,19.47,9.64,29,14.85,4.73,2.59,9,6.05,13.41,9.16.67.47,1.09,1.35,1.79,1.72,14,7.42,16.79,21.76,21.18,34.92,3.16,9.46,5.11,19.33,2.58,29.31-.87,3.41-2.31,7.27-4.76,9.57-12.7,12-25.81,23.46-38.76,35.15C304.09,281.06,302.18,280.23,300.66,277.65ZM317,265.86c3.37-2.54,7.08-4.74,10-7.73,1.7-1.75,2.12-4.75,3.11-7.19q.45-5.58.88-11.16l2.6,5.77,1.1-.11.3-6.59,2.3,2.08,1.12-.4-1.5-8.77,4.23,4c-.33-3.48-.61-6.51-1-10.64l3.36,5.64.62-.26-2.28-8.79L339,223l-1.36-8.52,1-.76,1.35,3.64.91-.84c-.57-2.48-1.13-5-1.71-7.46l2-.64c-1-2.56-2.07-5.11-3.06-7.69-.38-1-1.11-2.77-.83-3,3.26-2.26.13-3.9-.68-5.73a26,26,0,0,0,.2,9.06,75.08,75.08,0,0,0,2.55,8.14l-4.27-3.34c-.77-1-1.54-1.91-2.3-2.87q-.93-6-1.82-11.9s.35-.08.43-.19c3.81-5.35,3.81-5.34-1.89-9.07-.82-.54-1.54-1.22-2.31-1.84.2-.34.41-.67.62-1l5.87,3.29c-4.52-6.43-12.29-6.39-19-8.52l.54-1.37,8.93,1.36.22-1.48-17.31-2.86c.68-1.32,1.17-2.25,1.87-3.62l2.45,3.86c.75-2,1.2-3.15,1.76-4.64H299l0-.91,9.77-1.62a9.7,9.7,0,0,0-5.69-1.51c-3.52.37-7,1.46-10.48,1.78-1.42.13-3-1-4.25-1.43L300.26,159c-.06-.53-.11-1.05-.17-1.58l-15.82,1.21L284.2,157l5.8-.27-2.29-1.41,2-1.58c-4.9-4.69-10.05,0-15.21-.87l5.16-2.3c-4.63-5.65-9.76-1.37-15.18-.7l3.62-5.82-10.71,1.81-.28-.65,4.56-3-.14-.77-17.44,1.73,7.73-4.08-.17-.52L234,140.81a4.66,4.66,0,0,0-.47-1.93c-1.57-2.44-3.48-1.37-5.57-.59-3.25,1.22-6.64,2.07-10,3.07l-.37-1.35,7.41-3-.91-1.9L214,140.87l-1.71-1.39,2.16-2.95-.71-1.36c-4.18,1.58-8.31,3.34-12.59,4.62-1.55.47-3.44-.23-5.18-.39l.17-1.38-6.38,2-.45-.92,6.6-4.54-23.72,7.52c.09-.8.22-2,.46-4.17l-14.1,9.59-.73-.63,4.37-6.55-1.8-1.8c-1.22,2.06-2.82,4-3.54,6.22-.58,1.83-.12,4-.12,5.56-2.69.11-6.27-.76-8.58.58-4.29,2.49-3.16-.91-4.45-2.67a11.36,11.36,0,0,0-1,5.89A147.66,147.66,0,0,0,146.08,169a20.72,20.72,0,0,0,3.39,6.26c1.24,1.68,3.72,2.7,4.4,4.49a8.52,8.52,0,0,0,10,4.83c.3,5.62,3.64,6.52,11.84,2.85l-1.08,3c2.61,1.87,4.7,3.37,6.79,4.85l-3.14,3.57-.61-3.6-1.63,2.8a5.5,5.5,0,0,1-1-2.69c-.12-.6-.36-1.18-.69-2.25-4.73,11.65-3.19,18.76,4.14,20.81,1.61-5.54,3.22-11.08,4.77-16.45-3.87,2.32-2.33-.52-1.92-2.28,1-.29,2-1,2.86-.79,3.28.64,6.5,1.57,10.76,2.64-.19,1.38-.48,3.57-.78,5.77l-1.15-.17c-.19-1.23-.39-2.46-.58-3.69h-.95c-.3,1.46-.59,2.92-1.21,6l-4.25-6.34c-6.4,10.7-3.13,19.89,8.4,20.95-.57-2.35-1.43-4.51-1.52-6.7s.53-4.62.85-6.94c1.73,12.28,4.45,18.85,14,17.45L201.73,216l3.35.31c.76-3.2,1.41-6,2.06-8.76l1.21.28c-1.16,12.92,1.37,18.19,9,17.68-.48-1.12-.91-2.95-1.32-2.94-4,0-1.67-2.51-1.5-3.81a29,29,0,0,1,1.6-5.37c.55-1.64,1.19-3.24,2.28-6.17,1.61,6.67,2.86,11.7,4,16.74,1.1,4.79,1.76,5.26,6.44,4.45-3.59-6.53.94-12,1.77-17.52,7.79,1.92,1.57,8.71,4.91,12.44.52-1.88,1-3.52,1.43-5.16l1,0,1.56,6.75,2-.88c.2,1.26.39,2.53.61,3.94h-6.67l-.12,1.83c2.27.18,4.68.85,6.74.28.77-.21.71-3.34,1.07-5.13.84-4.17,1.71-8.33,2.66-12.94l3.67,1.51-3.92,9.27,1.07.47,2-6.24,1.19.39-.8,7.68.88.57,1.44-3.51,1.42,5.79c1.32-3.63,2.24-6.44,3.36-9.17,2-4.8,3.31-5.1,5.25-2.2-1.11,1.89-2.93,3.57-2.73,5,.32,2.15,2.15,4.05,3,6.19.26.62-.56,1.68-1.14,3.24l-.7-3.72-2.36,2.93c-.29-1.28-.49-2.15-.68-3l-.5.06v4.51l5.58.44c2.12-5.81,1.5-13,8.59-17.63-1.69,4.43-3,7.89-4.31,11.34-.39,2.23-1.77,5-.9,6.54s4.57,2.86,6,2.17c3.7-1.81,8.06-3.54,8.95-8.53l8.64-6.17.67.74-4.87,9.68-1-.55.4-3.1-1.21-.36-2.84,7.27h-3.44l0,.72,5.95,2.46,6.38-8.89,2.32,3.31-8.79,8.31.88.81,5.23-4.38.95,1.32c-3.84,1.41-3.84,8.17-10.6,6-2.05-.66-7.18,1.46-7.2,2.41-.19,6.44-6.89,7.25-9.37,11.86-3.07,5.69-8.52,10.1-13,15a44.88,44.88,0,0,1-3.56,3.73c-3.81,3.36-8.1,6.28-11.45,10-3.74,4.19-6.4,9.33-10,13.65-2.74,3.27-6.34,5.81-9.4,8.83-2.56,2.53-4.89,5.3-7.33,8l1.71,1.52,11.89-11.6,1.6,3.24,3.68-10.05.67,1.45c1.19-.23,2.63-.13,3.49-.79s1.57-3.18,2-3.1c4.63.83,4.56-3,5.79-5.5,1-2,1.93-4,2.89-6l1,.39-4.32,15.31c8.41-5.21,7.75-14.95,12.1-23.54,1,5,1.66,8.7,2.35,12.36l1.78-.22c.77-5.63,1.55-11.27,2.37-17.22,6.51,5.42,2.45,11.83,2,17.77l1.27.19,1.36-7.44.79.11.45,3.76a19.74,19.74,0,0,0,3-8.77c.27-3-.17-6-.22-9s0-5.78,0-8.66c1,1.65.95,3.28,1,4.91.33,7.78,2.77,11.44,5.74,8.83.23.87.46,1.78.85,3.25l3-9.72,5.2,4c.16-2.91.3-5.34.43-7.77l1.27,0c.35,2.15.69,4.29,1.24,7.71l3.5-4.22-.67-.56-1.58,3.3c-3.35-6.86,2.35-7,4.5-9.63.54,1.71,1,3.26,1.53,4.81-4.46,4.44.5,10.57-3,15.19A18.21,18.21,0,0,0,291,265.81l2.57-3.45.73,4.23c4.06-2.83,8.1-5.91,12.4-8.58,10.53-6.57,17.09-16.47,24.41-27.74v9.59c-.36.33-1,1-1.06.93-4-3-4.91,1-6.79,2.63,1.12,2.2,2.11,4.14,3.09,6.08l.66-.19c-.32-2.3-.63-4.61-.95-6.92l1-.3,2.91,8.7c-1.85,2.41-3.25,5.93-5.68,6.89-2.12.84-2.34,2.71-4.39,4.28.47-4.44.84-8,1.22-11.64l-1.08-.18q-1.45,7.92-2.9,15.83l-11.26,4.85c.9-3.24,1.64-5.93,2.38-8.62-4.65,3.9-6.36,8.26-2.51,13.1Zm-150.13-57.8,5-15.84-1-.39L169,195.19l-1.92-3.51C161.09,196.78,160.9,203.66,166.91,208.06ZM270,292.79c2.62-4.42,4.81-8.14,7.68-13v5.95l1.27.42c1.69-3.49,3.37-7,5.53-11.46.39,2.6.6,4,1.05,7,1-3.76,1.55-6.06,2.13-8.35l-1-.87c-2.56,2.12-4.82,5.34-7.75,6.14C271.62,280.65,270.85,286.07,270,292.79ZM163,190.56l-4.26-2.89-1.65,1.88c.77.18,2.2.33,2.21.55.16,2.7.1,5.41.1,8.11l-1.3,0-1.58-3.3-1,.45,3.45,8.81Zm76.66,121.31L241.3,313l7.7-12.57-1.47-.93C241.65,301.51,244.4,309.13,239.68,311.87Zm29.74-26.37c-5.51,2.68-7.23,7-5.49,11.16Zm-8.1,7.14c-8.31.74-3.27,7.79-5.5,10.84Z"/><path class="cls-1" d="M331.12,239.86v-9.59c-7.32,11.27-13.88,21.17-24.41,27.74-4.3,2.67-8.34,5.75-12.4,8.58l-.73-4.23L291,265.81l.1.09-1.53-4.81c-2.15,2.65-7.85,2.77-4.5,9.63l1.58-3.3.67.56-3.5,4.22c-.55-3.42-.89-5.56-1.24-7.71l-1.27,0c-.13,2.43-.27,4.86-.43,7.77l-5.2-4-3,9.72c-.39-1.47-.62-2.38-.85-3.25-3,2.61-5.41-1.05-5.74-8.83-.07-1.63,0-3.26-1-4.91,0,2.88,0,5.77,0,8.66s.49,6,.22,9a19.74,19.74,0,0,1-3,8.77l-.45-3.76-.79-.11L259.73,291l-1.27-.19c.48-5.94,4.54-12.35-2-17.77-.82,5.95-1.6,11.59-2.37,17.22l-1.78.22c-.69-3.66-1.39-7.32-2.35-12.36-4.35,8.59-3.69,18.33-12.1,23.54l4.32-15.31-1-.39c-1,2-1.92,4-2.89,6-1.23,2.51-1.16,6.33-5.79,5.5-.43-.08-1,2.37-2,3.1s-2.3.56-3.49.79l-.67-1.45-3.68,10.05-1.6-3.24-11.89,11.6-1.71-1.52c2.44-2.67,4.77-5.44,7.33-8,3.06-3,6.66-5.56,9.4-8.83,3.62-4.32,6.28-9.46,10-13.65,3.35-3.76,7.64-6.68,11.45-10a44.88,44.88,0,0,0,3.56-3.73c4.44-4.94,9.89-9.35,13-15,2.48-4.61,9.18-5.42,9.37-11.86,0-.95,5.15-3.07,7.2-2.41,6.76,2.17,6.76-4.59,10.6-6l-.95-1.32-5.23,4.38-.88-.81,8.79-8.31-2.32-3.31-6.38,8.89-5.95-2.46,0-.72h3.44l2.84-7.27,1.21.36-.4,3.1,1,.55,4.87-9.68-.67-.74-8.64,6.17c-.83-1.7-1.66-3.4-2.95-6.06l-5.06,10.37-3.06-8.14-3.1,3.59.13.06c1.31-3.45,2.62-6.91,4.31-11.34-7.09,4.59-6.47,11.82-8.59,17.63l-5.58-.44v-4.51l.5-.06c.19.87.39,1.74.68,3l2.36-2.93.7,3.72c.58-1.56,1.4-2.62,1.14-3.24-.88-2.14-2.71-4-3-6.19-.2-1.39,1.62-3.07,2.73-5-1.94-2.9-3.27-2.6-5.25,2.2-1.12,2.73-2,5.54-3.36,9.17l-1.42-5.79-1.44,3.51-.88-.57.8-7.68-1.19-.39-2,6.24-1.07-.47,3.92-9.27L245.72,212c-.95,4.61-1.82,8.77-2.66,12.94-.36,1.79-.3,4.92-1.07,5.13-2.06.57-4.47-.1-6.74-.28l.12-1.83H242c-.22-1.41-.41-2.68-.61-3.94l-2,.88-1.56-6.75-1,0c-.46,1.64-.91,3.28-1.43,5.16-3.34-3.73,2.88-10.52-4.91-12.44-.83,5.52-5.36,11-1.77,17.52-4.68.81-5.34.34-6.44-4.45-1.16-5-2.41-10.07-4-16.74-1.09,2.93-1.73,4.53-2.28,6.17a29,29,0,0,0-1.6,5.37c-.17,1.3-2.49,3.84,1.5,3.81.41,0,.84,1.82,1.32,2.94-7.59.51-10.12-4.76-9-17.68l-1.21-.28c-.65,2.78-1.3,5.56-2.06,8.76l-3.35-.31,6.08,7.36c-9.57,1.4-12.29-5.17-14-17.45-.32,2.32-.95,4.64-.85,6.94s.95,4.35,1.52,6.7c-11.53-1.06-14.8-10.25-8.4-20.95l4.25,6.34c.62-3.08.91-4.54,1.21-6h.95c.19,1.23.39,2.46.58,3.69l1.15.17c.3-2.2.59-4.39.78-5.77-4.26-1.07-7.48-2-10.76-2.64-.86-.18-1.9.5-2.86.79l.12.11-6.8-4.87,1.08-3c-8.2,3.67-11.54,2.77-11.84-2.85a8.52,8.52,0,0,1-10-4.83c-.68-1.79-3.16-2.81-4.4-4.49a20.72,20.72,0,0,1-3.39-6.26,147.66,147.66,0,0,1-3.39-14.88,11.36,11.36,0,0,1,1-5.89c1.29,1.76.16,5.16,4.45,2.67,2.31-1.34,5.89-.47,8.58-.58,0-1.57-.46-3.73.12-5.56.72-2.22,2.32-4.16,3.54-6.22l1.8,1.8-4.37,6.55.73.63,14.1-9.59c-.24,2.19-.37,3.37-.46,4.17l23.72-7.52-6.6,4.54.45.92,6.38-2L196,139.4c1.74.16,3.63.86,5.18.39,4.28-1.28,8.41-3,12.59-4.62l.71,1.36-2.16,2.95,1.71,1.39,10.08-5.72.91,1.9-7.41,3,.37,1.35c3.33-1,6.72-1.85,10-3.07,2.09-.78,4-1.85,5.57.59a4.66,4.66,0,0,1,.47,1.93l17.66-2.26.17.52-7.73,4.08,17.44-1.73.14.77-4.56,3,.28.65L268.07,144l-3.62,5.82c5.42-.67,10.55-5,15.18.7l-5.16,2.3c5.16.88,10.31-3.82,15.21.87l-2,1.58,2.29,1.41-5.8.27.07,1.67,15.82-1.21c.06.53.11,1.05.17,1.58l-11.94,2.28c1.29.46,2.83,1.56,4.25,1.43,3.52-.32,7-1.41,10.48-1.78a9.7,9.7,0,0,1,5.69,1.51L299,164.09l0,.91h14.2c-.56,1.49-1,2.68-1.76,4.64l-2.45-3.86c-.7,1.37-1.19,2.3-1.87,3.62l17.31,2.86-.22,1.48-8.93-1.36-.54,1.37c6.67,2.13,14.44,2.09,19,8.52L327.78,179c-.21.34-.42.67-.62,1,.77.62,1.49,1.3,2.31,1.84,5.7,3.73,5.7,3.72,1.89,9.07-.08.11-.44.15-.43.19q.88,6,1.82,11.9l-.42,14.55,2.45.3c.27-1.19,1.17-2.88.69-3.49-3.38-4.33.94-2.57,2.47-3.16l-2.89-5.33,4.27,3.34-.15-.17,1.7,7.45-.91.84-1.35-3.64-1,.76L339,223l.1-.12c-1.1-1.27-2.19-2.55-3.29-3.83l-.69.51c.65,1.95,1.31,3.9,2.05,6.13l-3.8-1.53c-.32,4.77-.61,9.06-1,14.51l4.72-6.7-.18-.17,1.5,8.77-1.12.4-2.3-2.08-.3,6.59-1.1.11c-.86-1.92-1.73-3.85-2.6-5.77ZM227.6,181.35l3.51,1.27c-.76,1.67-1.44,3.15-2.12,4.63l1.42.75,7-12.07-9.87,5.46c.74-2.31,1.49-4.61,2.23-6.92l-1.39-.66c-2.87,5.55-5.8,11.08-8.51,16.72-.2.42,1.2,1.62,1.86,2.46l3-.27c-5.54-3.22-2.34-4.49-1-6.22S226.33,183.07,227.6,181.35ZM210.27,205.5l1.35,0c.25-3.34.49-6.67.65-8.83-3,.23-5.55.72-8,.54a65.33,65.33,0,0,1-8.2-1.61c.37,2.59.77,5.41,1.31,9.21l2.53-5.2.63,4.85,1-.14c.48-1.5,1-3,1.45-4.49l.88.18c.17,1.77.33,3.55.47,5.06,1.53-1.64,3-3.17,4.42-4.7l1.2.88Zm119.27-10.28-6.07,14.27L322.32,206l-1.13.22c.38,3,.75,6,1.16,9.38C328.12,209.9,331.65,203.91,329.54,195.22Zm-35.42,23.25-1.24-1.32-3.55,7.54.69.45,3.57-3.25c1.25.75,2.45.85,2.74.39,2.15-3.43,4.12-7,6.15-10.49l-1-.55Zm-3.35,41.44c5,.61,4.93-3.91,6-7,.53-1.49.09-3.33.09-5l-1.06-.09-1.12,2.52c-.76-1.12-1.41-2.1-2.1-3.11C292,251.58,291.39,255.56,290.77,259.91ZM214.23,197.5c-.18,3-.37,5.91-.56,9,3.52-4.63,3.53-4.58,11.1-5.67,1.19-.17,2.26-1.07,3.39-1.63l-.36-.91Zm-18.5-31.76-1.83-.68c-2.64,5.65-.88,14.19-9.76,16l6,1.18C191.89,177,193.81,171.37,195.73,165.74Zm-18.47,19.82c4.5-2.44,11.09-15.28,10-18.7C184,173,180.68,179.15,177.26,185.56Zm140.68,48.16c1.4-6.72.54-8.65-3.47-9-.14,3-.27,5.94-.41,8.9l.83.14c.57-1.24,1.15-2.47,1.85-4C317.18,231.25,317.56,232.48,317.94,233.72Zm-68.25-24.25c.8,0,3,.35,3.12-.06a56,56,0,0,0,1.83-7.4h-5.41C249.37,204.38,249.51,206.61,249.69,209.47Zm-34.42-24,5.24-1c.81-4.19,1.5-7.76,2.2-11.33l-1-.34Zm-49.83-25.42-8,13.07c2.81-1.38,6-2,7.18-3.82S165.2,164.11,165.44,160.07Zm6,17.52c2.3-4.19,4.31-7.85,6.33-11.5l-1.51-.86-7,9.41Zm151.59,46.49c0,2.79,0,4.71,0,6.62a9.1,9.1,0,0,0,.28,1.42c4.4-4.48,4.57-7.32.48-13.08.48,2.93.87,5.29,1.45,8.84ZM193.43,177.54v1.09l3.34.72-1.56,4.12,1.45.55q2.45-6.15,4.87-12.28l-1.57-.58-1.4,4.61Zm22.42-3.73-1.34-.59-5.07,10.88C213.28,181.51,216.63,178.69,215.85,173.81Zm28.58,28.32.25-1.37-14.83-2.08C234.31,204.46,239.86,200.8,244.43,202.13ZM275.67,267c1.51-3.16,3.24-5.17,3.11-7.05-.09-1.35-2.68-2.52-5-4.54C274.45,259.68,274.93,262.55,275.67,267ZM241,176.8l-6,11C239.87,185.75,241.85,182.07,241,176.8Zm-38,6.4c5.43-4.41,6.77-8.39,4.71-12.22C206.09,175.12,204.53,179.16,203,183.2Zm28.82,23.74c6.56,3,8,.73,8.21-5.12Zm-60.12-43.07-1.51-.78-6.39,11.73,1.71.89ZM198.57,208C196,213.09,197,217,201.2,219.3ZM174.9,178l1.42,1.07,7.26-12.38-1.48-.86Zm72.51,11.51c5,0,7.77-3.62,6.77-8.34Zm1.6-10-1.79-.8-4.44,9.53,1.63.75Z"/><path class="cls-1" d="M181.36,195.14c-.41,1.76-2,4.6,1.92,2.28-1.55,5.37-3.16,10.91-4.77,16.45-7.33-2.05-8.87-9.16-4.14-20.81.33,1.07.57,1.65.69,2.25a5.5,5.5,0,0,0,1,2.69l1.63-2.8.61,3.6,3.14-3.56Z"/><path class="cls-1" d="M166.91,208.06c-6-4.4-5.82-11.28.19-16.38l1.92,3.51,1.81-3.36,1,.39Z"/><path class="cls-1" d="M272.13,230.36,277.19,220c1.29,2.66,2.12,4.36,2.95,6.06-.89,5-5.25,6.72-8.95,8.53-1.42.69-5.14-.69-6-2.17s.51-4.31.9-6.54l-.13-.06.27,5.18.91-1c.73.5,1.46,1.39,2.21,1.42C270.27,231.42,271.2,230.73,272.13,230.36Z"/><path class="cls-1" d="M270,292.79c.84-6.72,1.61-12.14,8.94-14.16,2.93-.8,5.19-4,7.75-6.14l1,.87c-.58,2.29-1.17,4.59-2.13,8.35-.45-3-.66-4.4-1.05-7-2.16,4.48-3.84,8-5.53,11.46l-1.27-.42V279.8C274.82,284.65,272.63,288.37,270,292.79Z"/><path class="cls-1" d="M317.13,266q1.44-7.92,2.9-15.84l1.08.18c-.38,3.6-.75,7.2-1.22,11.64,2.05-1.57,2.27-3.44,4.39-4.28,2.43-1,3.83-4.48,5.68-6.89l.18.15c-1,2.44-1.41,5.44-3.11,7.19-2.91,3-6.62,5.19-10,7.73Z"/><path class="cls-1" d="M317,265.86l-11.3,9.44c-3.85-4.84-2.14-9.2,2.51-13.1-.74,2.69-1.48,5.38-2.38,8.62L317.13,266Z"/><path d="M335.05,205.86l2.89,5.33c-1.53.59-5.85-1.17-2.47,3.16.48.61-.42,2.3-.69,3.49l-2.45-.3.42-14.55C333.51,204,334.28,204.91,335.05,205.86Z"/><path class="cls-1" d="M331,239.78q-.43,5.58-.88,11.16l-.18-.15-2.91-8.7-1,.3c.32,2.31.63,4.62.95,6.92l-.66.19c-1-1.94-2-3.88-3.09-6.08,1.88-1.6,2.79-5.67,6.79-2.63.08.06.7-.6,1.06-.93Z"/><path class="cls-1" d="M163,190.56,159,204.19l-3.45-8.81,1-.45,1.58,3.3,1.3,0c0-2.7.06-5.41-.1-8.11,0-.22-1.44-.37-2.21-.55l1.65-1.88Z"/><path class="cls-1" d="M339,223l2.88-1.27,2.28,8.79-.62.26-3.36-5.64c.38,4.13.66,7.16,1,10.64l-4.23-4,.18.17,2-9.09Z"/><path class="cls-1" d="M239.68,311.87c4.72-2.74,2-10.36,7.85-12.34l1.47.93L241.3,313Z"/><path class="cls-1" d="M339.32,209.2a75.08,75.08,0,0,1-2.55-8.14,26,26,0,0,1-.2-9.06c.81,1.83,3.94,3.47.68,5.73-.28.19.45,2,.83,3,1,2.58,2,5.13,3.06,7.69l-2,.65Z"/><path class="cls-1" d="M269.42,285.5l-5.49,11.16C262.19,292.49,263.91,288.18,269.42,285.5Z"/><path class="cls-1" d="M261.32,292.64l-5.5,10.84C258.05,300.43,253,293.38,261.32,292.64Z"/><path class="cls-1" d="M291,265.81a18.21,18.21,0,0,1-2.87,15.28c3.47-4.62-1.49-10.75,3-15.19Z"/><path d="M210.27,205.5l-.39-4.28-1.2-.88c-1.44,1.53-2.89,3.06-4.42,4.7-.14-1.51-.3-3.29-.47-5.06l-.88-.18c-.49,1.49-1,3-1.45,4.49l-1,.14-.63-4.85-2.53,5.2c-.54-3.8-.94-6.62-1.31-9.21a65.33,65.33,0,0,0,8.2,1.61c2.48.18,5-.31,8-.54-.16,2.16-.4,5.49-.65,8.83Z"/><path d="M329.54,195.22c2.11,8.69-1.42,14.68-7.19,20.35-.41-3.34-.78-6.36-1.16-9.38l1.13-.22,1.15,3.52Z"/><path d="M339.1,222.84l-2,9.09-4.72,6.7c.36-5.45.65-9.74,1-14.51l3.8,1.53c-.74-2.23-1.4-4.18-2.05-6.13l.69-.51C336.91,220.29,338,221.57,339.1,222.84Z"/><path d="M294.12,218.47l7.38-7.23,1,.55c-2,3.51-4,7.06-6.15,10.49-.29.46-1.49.36-2.74-.39L290,225.14l-.69-.45,3.55-7.54Z"/><path d="M290.77,259.91c.62-4.35,1.19-8.33,1.81-12.65.69,1,1.34,2,2.1,3.11l1.12-2.52,1.06.09c0,1.68.44,3.52-.09,5C295.7,256,295.78,260.52,290.77,259.91Z"/><path d="M214.23,197.5l13.57.76.36.91c-1.13.56-2.2,1.46-3.39,1.63-7.57,1.09-7.58,1-11.1,5.67C213.86,203.41,214.05,200.46,214.23,197.5Z"/><path d="M195.73,165.74c-1.92,5.63-3.84,11.26-5.64,16.52l-6-1.18c8.88-1.83,7.12-10.37,9.76-16Z"/><path d="M227.59,181.36c-1.26,1.71-2.46,3.47-3.78,5.14s-4.57,3,1,6.22l-3,.27c-.66-.84-2.06-2-1.86-2.46,2.71-5.64,5.64-11.17,8.51-16.72l1.39.66c-.74,2.31-1.49,4.61-2.23,6.92Z"/><path d="M177.26,185.56c3.42-6.41,6.72-12.61,10-18.7C188.35,170.28,181.76,183.12,177.26,185.56Z"/><path d="M317.94,233.72c-.38-1.24-.76-2.47-1.2-3.94-.7,1.52-1.28,2.75-1.85,4l-.83-.14c.14-3,.27-5.92.41-8.9C318.48,225.07,319.34,227,317.94,233.72Z"/><path d="M249.69,209.47c-.18-2.86-.32-5.09-.46-7.46h5.41a56,56,0,0,1-1.83,7.4C252.66,209.82,250.49,209.47,249.69,209.47Z"/><path d="M227.58,181.39l9.87-5.46-7,12.07-1.42-.75c.68-1.48,1.36-3,2.12-4.63l-3.52-1.27A.23.23,0,0,1,227.58,181.39Z"/><path d="M215.27,185.49l6.47-12.68,1,.34c-.7,3.57-1.39,7.14-2.2,11.33Z"/><path d="M165.44,160.07c-.24,4,.43,7.24-.82,9.25s-4.37,2.44-7.18,3.82Z"/><path d="M171.47,177.59l-2.21-3,7-9.41,1.51.86C175.78,169.74,173.77,173.4,171.47,177.59Z"/><path d="M272.13,230.36c-.93.37-1.86,1.06-2.77,1-.75,0-1.48-.92-2.21-1.42l-.91,1-.27-5.18,3.1-3.59Z"/><path d="M323.06,224.08l2.22,3.8c-.58-3.55-1-5.91-1.45-8.84,4.09,5.76,3.92,8.6-.48,13.08a9.1,9.1,0,0,1-.28-1.42C323,228.79,323.06,226.87,323.06,224.08Z"/><path d="M193.43,177.54l5.14-1.77,1.4-4.61,1.57.58q-2.43,6.13-4.87,12.28l-1.45-.55,1.56-4.12-3.34-.72Z"/><path d="M215.85,173.81c.78,4.88-2.57,7.7-6.41,10.29l5.07-10.88Z"/><path d="M244.43,202.13c-4.57-1.33-10.12,2.33-14.58-3.45l14.83,2.08Z"/><path d="M275.67,267c-.74-4.42-1.22-7.29-1.93-11.59,2.36,2,4.95,3.19,5,4.54C278.91,261.8,277.18,263.81,275.67,267Z"/><path d="M241,176.8c.84,5.27-1.14,8.95-6,11Z"/><path d="M203,183.2c1.55-4,3.11-8.08,4.71-12.22C209.75,174.81,208.41,178.79,203,183.2Z"/><path d="M231.8,206.94l8.21-5.12C239.83,207.67,238.36,209.9,231.8,206.94Z"/><path d="M171.68,163.87l-6.19,11.84-1.71-.89,6.39-11.73Z"/><path d="M198.57,208l2.63,11.34C197,217,196,213.09,198.57,208Z"/><path d="M174.9,178l7.2-12.17,1.48.86-7.26,12.38Z"/><path d="M247.41,189.54l6.77-8.34C255.18,185.92,252.37,189.53,247.41,189.54Z"/><path d="M249,179.51l-4.6,9.48-1.63-.75,4.44-9.53Z"/></svg>