<svg id="Layer_1" data-name="Layer 1" xmlns="http://www.w3.org/2000/svg" viewBox="0 0 450 450"><defs><style>.cls-1{fill:#fff;}</style></defs><title>Artboard 1_1</title><path d="M255.76,51.23c15.66.65,26.12,9,34,20.28,15.83,22.85,31.92,45.63,45.92,69.6a126.58,126.58,0,0,1,17.52,58.67c.34,7.86,1.65,15.67,2,23.53.24,5.17-.47,10.38-.67,15.57-.23,5.76-.37,11.53-.54,17.29,0,.83.39,1.81.07,2.47-3.3,6.88-.48,13.8.27,20.53a85.54,85.54,0,0,0,5.25,20.57c2.11,5.55,5.75,10.52,8.72,15.74C372,322,375.62,328.57,379.46,335c2.58,4.34,5.38,8.55,8.22,12.71,3.86,5.64,3.37,9.2-1.84,13.59-10.75,9.08-21.43,18.24-32.17,27.34-.74.62-1.64,1.46-2.49,1.49-6.76.23-13.52.44-20.28.29-1.53,0-4.07-1.25-4.34-2.36-.85-3.48-3.25-3.78-6-4.77a34.62,34.62,0,0,1-20.55-19c-6.39-14.45-10.17-29.55-8.09-45.69a40.24,40.24,0,0,0-.91-13.37c-1.71-8-4.12-15.86-6.18-23.8-1.16-4.44-1.48-9.27-3.48-13.29-4.21-8.46-9.46-16.35-17.28-22.12-8-5.89-15.8-12-23.93-17.73-5.92-4.15-10.17-2.9-13.6,3.33-2.79,5.07-7.26,7.85-12.5,10-2.86,1.17-5.26,3.51-7.84,5.36-2.19,1.56-4.3,3.25-6.53,4.76-3,2-6.08,3.93-9.13,5.88-2.76,1.78-4.95,5.19-9.12,3-.52-.27-2,.45-2.49,1.12-2.85,4-6.53,3.92-9.19.7-4.53-5.49-10.36-6.27-16.78-7.11-7.63-1-15.12-3.08-22.65-4.81-1.56-.36-3.56-.81-4.41-1.93-3.79-5-9.47-5.36-14.73-7.21s-9.93-4.89-14.49-8c-2.55-1.73-4.52-3.5-7.94-4.2-8.48-1.74-15.21-7-21.2-13.16a22.71,22.71,0,0,0-6.23-4.49c-9-4.42-15.13-11.58-17.75-20.9-1-3.44,2-8,3.1-12,.64-2.34.88-4.81,1.7-7.08a36.79,36.79,0,0,1,3.5-7.26c6.44-10.09,15.18-17.88,24.82-24.83,18.5-13.34,36.55-27.32,55.38-40.16S170.4,73.77,192.25,66.2c14.73-5.1,30-8.73,45.15-12.51C243.6,52.15,250.13,52,255.76,51.23ZM186.68,238c-.42.87-.62,2.22-1.29,2.52-4.11,1.84-3.69,4.39,0,8.53h-7.24l.85,4.7-5.18,2.39.39,1.49c1.67-.3,3.92,0,4.92-1a89.53,89.53,0,0,0,8.23-9.77,6.16,6.16,0,0,0,1.23-4c-.22-1.7-1.25-3.3-1.92-4.93l4.22,2.61c4.78-5.52,4.62-10-.49-15l2.15,8.55-.83.2-1.57-3.1ZM314.3,345.5l-15.43,6.32c2.23-.13,3.33-.12,4.42-.27,1.52-.21,3.12-1,4.53-.71,4.6.87,8.89-1.39,10-5.71a16.83,16.83,0,0,0-1.67-.6,12.37,12.37,0,0,0-.87-2.68c-1-1.6.48-5.34-3.82-4.06-4.56,1.36-9.23,2.34-14.49,3.65h13.29l.21.77-12.05,2.9c0,.62,0,1.25,0,1.87C303.7,345,308.93,347.84,314.3,345.5Zm4.7,22-.11-.11-6.47,6.18.42.61,8.05-5.18c-.22,1.27-.42,2.37-.8,4.5l7.43-6.4.48.55-4.46,5.49c7.88,2.44,10-4.64,14.66-7.81l-4.13,6.34c-.12,1-.23,2-.35,3l1.06.73,6.28-5.74,10.56-11.74.66.53q-4.56,6.33-9.13,12.64l1.2,1.35,5.31-4.29,9.65,2.82-5,6.08,1.33,1.07a92,92,0,0,1,5.92-7.74c1-1,2.8-1.25,4.26-1.78.13-.05.41.29.63.45L364,371.68c3.11,2.84,5.68,2.31,8.32-.33,2.92-2.93,6-5.7,9.17-8.39,4.71-4,5-6.34.84-12.6.2,3.85.37,7.22.56,10.92-4.88-1.74-6.1-5-3.83-8.22,3-4.3.88-13.29-3.75-15.71-2.33-1.22-1.95-1.05-2.67,1.74-.41,1.6-2.43,2.94-4,4-.39.27-1.81-1-2.71-1.49l6.19-7.52-.85-.84-6.48,5.66a21.89,21.89,0,0,1,1.51-4.34,29.83,29.83,0,0,0,.82-4.09l-6.87.82c.66-.94,1.1-1.59,1.56-2.25-1.22-.56-2.38-1.11-3-1.4l2.26-4.61-1-1.19-8.67,5c1.56-2.91,3.46-6.46,5.37-10l-1.05-.57-2.86,3.32-.8-.53,2.92-5.77-3.89,1.62c.18-3.33.33-6.18.48-9.11l-3,2.41-.47-.58,4.59-5.61-.7-.76-5.41,3.52-.41-.52,5.28-6.19-6,1.94,3.7-5.73c-.22-.26-.43-.53-.64-.79l-9,4.42,11.2-11.84-8.42,2.46c.62-3.11,6.23-3.55,3.33-7.8l-4,1.73-.27-.65,4.48-4c-.16-.35-.31-.7-.46-1.06-1.3.11-2.59.21-3.9.3,2.53-3.52,5.06-7,8.33-11.59l-4.49,2.26c.33-1.19.52-1.86.82-2.91l-3.72,1.93,7.35-12c-2.23.59-3.95.53-4.67,1.35-1.34,1.53-1.1,1.74-2.53.48l8-14.8-.58-.32-7.69,8.32-.95-.88,4.54-5.55L344,242.24c1.52-.91,3.36-1.61,4.51-2.92.39-.45-.93-2.4-1.61-4L342,240.51l-.7-.55L351,224.59l-9.15,4.72-.83-.82,7.52-9.26-6-1.58,7.17-11.2-.9-.73-5.69,2.91c-3.18-6.09,4.87-9,3.25-14.86l-7.46,1.93,4.27-6.79-2.86-3.25c2-1.62,4.5-2.73,4.59-4,.2-2.81-.85-5.71-1.42-8.76a55.1,55.1,0,0,1-1.82,5.53,37.72,37.72,0,0,1-2.38,4.14l-3.76-4.09c3-1.22,6.36-2.78,5.88-7.75l-2.74.26q.57-5.53,1.12-11.06l-.93-.06c-1.14,3.93-2.27,7.87-3.46,12l-7.44-4.08.51-.82,3.66,1c4.11-4.43,6.25-9.21,4.88-13.94-2.16,1.72-4.5,3.6-7.16,5.74l3-16.66-1.15-.27-2.09,2.92c-.38-2-.63-3.31-.88-4.6l-2.22,9.32-1.32-.26c.34-2.57.68-5.14,1.1-8.39l-5.07,2v-20.9l-1.07,0-.64,13.9-.64-.16-2.7-20.26-1.45.09v13.32l-1.24.37c-.29-1.52-1.2-3.24-.78-4.52,2.22-6.9-1.62-12.33-3.39-18.25l-1.22.15c.22,3.37.44,6.75.76,11.58-1.17-2.22-2.7-3.82-2.36-4.7,2.2-5.78-.85-10.48-3-15.51v5.43l-.89.06c-.66-4.1-1.32-8.19-2.08-12.93L296.72,96c-4.37-6.37-1.51-15.25-8.23-20.34.26,3.54.5,6.69.74,9.84l-.76.08c-.86-4.24-1.72-8.47-2.85-14.08l-1,4.52c-1.58-3.77-3-7.09-4.37-10.42L279,66V73.7c-1.59-5-2.77-8.74-3.94-12.47l-1.29.38c.07,1.5.15,3,.2,3.93l-7.31-9-.41,9c-1.53-9.64-1.93-10.18-8-9.53-.11,1.83-.23,3.68-.39,6.23-2.22-6.79-2.22-6.79-7.5-7q.42,4,.82,8l-1,.15-1.76-8.15c-6.24,1.91-13.15,1.3-19.41,5.35-4.62-3.29-5.77-.73-4.58,4.86l-3.15-2.17,2.31-4.53c-6.18,2.79-3.7,7.5-5.79,10.79V61l-1-.75c-1.24,1.52-3,2.87-3.6,4.62-.72,2.14-.46,4.61-.63,6.94h-1.28V62.68c-4.87,2.4-4.87,2.4-6.54,14V65.06c-8,4.65-5.59,11.59-4.82,19-4.62-6-2.29-11.77-2.13-18.39-9.85,6.46-4.18,15.17-6.33,22.57-.65-5.84-1.29-11.68-2-18.3-7.66,7-2.78,14.9-2.4,22.17l-1.66.15c-1-6.15-2-12.3-3.1-19.3-5.8,7.39-3,15.15-2.36,22.61l-1.54.11L176.06,76c-8.61,7.78-3.87,16.84-2.12,25.51l-1.95.23Q170.1,93,168.2,84.25l-1.1,0v9.22h-1.92v-10c-2.35,7.16-5.57,14.22-1.62,21.7a28.72,28.72,0,0,1-3.84-9.68c-.54-3.43-.12-7-.12-10.53l-.82-.13-1.85,15.75-1.15-.1c.29-4.47.57-8.94.9-14.28-7,9.6-1.38,18.25.25,26.92l-1.45.35q-2.46-8.53-4.93-17.08l-.55.14q.57,7.09,1.12,14.18l-2,.13c-.32-5.42-.65-10.83-1-16.07-5.12,10.07,1.35,19,3.47,28.47-4.86-6.78-7.08-14.34-7.85-22.61V114.9l-1,.11-2.13-7-1.25.29c.73,3.84,1.18,7.76,2.26,11.5s2.76,7.22,4.7,12.13c-8.89-10.18-8.84-21.14-8-32.29l-2,.19c.44,8.06.88,16.12,1.41,25.65l-5-14c-.87,9,4,15,5.89,21.73-6.34-8-9.12-17.09-9.23-27.22-2.72,8.5-.63,16.66,1.25,25l-4.89-8.68-1.48.74,6.28,17.1c-7.62-8.15-8.12-18-9.28-27.54l-2.13.58q2.16,10.88,4.33,21.75l-1.26.39c-1.72-5.69-3.44-11.37-5.19-17.11-2.6,4.27.2,8.19,1.38,12.05s3.25,7.67,4.93,11.49l-1.14.45c-4.64-7.73-8.38-15.79-8.1-25.34l-1.84.39c.89,7.51,1.77,15,2.65,22.4-5.85-4.88-4.7-11.69-4.18-18.36-5.06,10.2,1.19,18,5.63,26.12-9.19-6.26-9.51-16-10-25.68-3.69,6.83-1,13.43.23,20.14a19.61,19.61,0,0,1-2.63-5.76c-.55-1.82-1-3.7-1.67-6.52-1.51,9.31,4.3,15.41,7,23.89-7.43-8.79-10.57-17.47-8.86-27.85-5.7,4-7.4,7.88-5.4,14.59,1.59,5.33,4.13,10.37,6.6,16.39-5.73-6.68-9.2-13.36-8.8-21.75l-1.57.3q.78,6.75,1.58,13.5l-.72.15-2.19-8-1.61.58c2.18,5.57,4.37,11.14,6.89,17.58-6.12-6.65-7.27-10.38-7.64-24.14-8.37,9.79-3.48,18.13.94,26.57-6-4.34-6.69-11.32-8.84-17.78-5.34,7.13-4.69,12.1,2.12,20.24a26.37,26.37,0,0,1,2.56,4.72c-5.57-6.55-12.25-12.76-10-22.62-7,10.4.91,19,3.57,28.21l-1.67.56-8.13-20.86-.91-.15L66.3,166.3l1.46.13c.24-1.36.48-2.73.85-4.79,1,2.4,2.24,4.07,2.26,5.74.08,7.86,3.26,14.07,9.16,19.07.17.15-.42,1-.26,1.37,1,2.16-1.52,1.89-2,3-1.2-1.1-3-2-3.46-3.35-.85-2.31-.36-5.17-1.4-7.34-2.71-5.64-5.93-11-8.95-16.52h-.47c1,4.47,2.05,8.95,3.06,13.39l-3.2-1.55c3.73,4.85,6.65,8.65,9.56,12.46l-1.23,1-8.4-10.59L58,163.5c-2,6.58-1.65,12,4,16.13-1.06,3,2.45,4.51,2,8.19-.38,3.26,4.85,7.43,8.12,10.68,1,1,3.73.35,6.32.48-2.49,3.62-1,5.58,2.58,6.65.67.21,1.09,1.12,1.71,1.59,2.43,1.81,4.87,3.6,7.36,5.33,1.66,1.16,3.4,2.2,5.1,3.3-.2.42-.4.85-.59,1.27l7.74.68c1.28,2.73,2.48,5.28,3.67,7.83s10,7.9,12.58,8a9.09,9.09,0,0,1,3.61,1.46,36.76,36.76,0,0,1,3.2,2.24c.22-.27.43-.55.65-.83-1.46-1.89-2.92-3.77-4.37-5.62l9.21,2.91-3.57-7,2.61-1.5c5.41,7.17,5.4,8.44,0,15.76-1.82,2.48-.63,4.07,1.92,4.73,8.77,2.28,17.58,4.44,27.16,6.84l-10.12-14.43,6.51-3,4.77,5.08c-.41-2.31-.76-4.22-1.18-6.55,1.84,1.72,3.22,3,4.61,4.29l.65-.62q-3.87-6.57-7.73-13.13l1-.56L165.84,236c.58-.74,1.42-1.79,2.57-3.23-1.61-1.4-3.36-2.37-4.27-3.86-1.07-1.74-2.37-4.26-1.83-5.85,1-3-.11-4.67-1.74-6.55-1.24-1.44-2.5-2.84-3.75-4.26l1.08-1,3.91,5.88,1.18-1-1.77-5,.92-.33q3.51,9,7,17.92l-4.94-5.87c-1.54,3.22-.16,5.42,8.49,11.73L169,228.54c.31-.7,1-1.45.87-2.1-.46-3.24-1.1-6.45-1.68-9.67,1.45,1.73,3.61,3.24,4.21,5.23,1.64,5.46,2.63,11.13,3.88,16.71l1.33-.31-3.06-13.3.46-.21,4.39,9.13,1.43-.67L173,217.47l2.84-2.11c2.32,6.84,4.51,13.3,6.69,19.76a9,9,0,0,0,0-6.65c-4.12-8.58-8.6-17-12.81-25.54-1.25-2.54-2-5.32-3-8l.45-.06L183,222.66l1.17-.48c-1.45-7.48-2.9-15-4.41-22.8,5.17,5.71,3.19,13.21,6.37,19.4v-8.43c2.35,4.41,4.12,7.71,5.89,11l1.16-.5L189,210.07l.9-.37,4.68,9.65,1.28-.65c-1.39-4.43-2.75-8.94-6.77-12-3.5-2.69-3.87-6.35-3.61-10.36l4.6,8c.28-3.43.53-6.44.77-9.44.17.1.79.24.95.58,2.9,6.28,5.9,12.52,8.5,18.92.91,2.25.78,4.91,1.13,7.45,3.11.09,6.09-1.26,4.67-5.7a94.78,94.78,0,0,0-5.57-12.61c-1.88-3.82-5.49-7.43-5.69-11.27-.29-5.66-3.65-8.9-6.26-13-1.21-1.89-1.45-4.4-2.13-6.63l.62,0,5.52,9.06c1.48-2.13,2.24-3.23,3-4.34-2.73,5.74-.5,9.59,5.1,13.48-.89-3.63-1.53-6.23-2.16-8.83l1-.51,5,10.58,1.32-.56L201.73,181c3.5,6,8.35,11.53,7.73,19.22L208,197l-.88.32c.23,2,.47,4,.87,7.45l-2.69-5.28-1.18.47c1.49,4,3,8,4.59,12.39,3.71-9.24,7.33-18.23,10.2-25.37-3-5.27-4.94-8.82-6.92-12.38,4,3.19,3.87-1.31,5.37-3.45.51,4.09.91,7.22,1.31,10.35l1.48.2q1.78-5.79,3.56-11.58h-.06c3.89-.15,2.84-2.82,2.86-3.75l-8-6.24c.39-.56.79-1.12,1.19-1.67l4.6,2.55,7.92-7.44-.19-.17c-.26,1.44-.18,3.07-.85,4.27-3.29,5.86-3.2,12.11-3,19.36,2-5.58,3.72-10.24,5.42-14.9.7,2.13-.19,3.93.14,5.47,1.15,5.48-.71,9.93-3.54,14.44-1.17,1.88-2.2,5.37-1.26,6.73,2.2,3.18.52,5-1.15,6.92-2.73,3.17-2,6.38-.32,9.89.69-1.42,1.37-2.85,2.2-4.58l.84,4.3,1,.05c.31-2.26.62-4.51,1-7.25,5.83,6.07-4.73,9.2-.52,14.92l3.26-7.5c2.86,3-2,8.12,3.62,11.83v-10.7l3.13-1.55c-.26-.74-.52-1.31-.67-1.91s-.29-1.53-.52-2.77c3.54,3.45,3.54,3.45,1.34,7.3s-1.44,7.13,2,7.3l-.87-4.6c4.19.68,4.23,3,3.39,6.08-.7,2.6-2.14,5.89,2.64,6.73,1.2-3.19,2.33-6.22,3.55-9.45l-3.67-3c8.73,2,5-4.13,6.63-7.09a16.73,16.73,0,0,1,.34,8.07c-1.46,6.25-3.28,12.42-5,18.62l1.87.43c.36-1.49.63-3,1.1-4.47.7-2.18,1.54-4.31,2.33-6.46,4.36,2,4.33-2.14,5.19-4l6.62,9.29-5.4,11.33c7.66-.23,5.57-8.15,10.16-9.75.63-.21.73-2,1.3-3.67,1.06,1,2.61,1.69,2.89,2.77a3.7,3.7,0,0,1-1.7,3.16c-5.83,2.77-5.4,8.33-7.12,12.93l1.65.87,4-7.09,4.91-3.68c1.29,1.74,2.15,3.37-1.27,5.56-2.32,1.48-3.69,4.44-5.48,6.74l1.24.9,7.71-8.11c-.76,4.94-1.32,8.6-1.87,12.19,5-1.53,8.5-8.62,16.2-5.69l-17.24,9.39.95,1.9,15.5-6.39-2.65,3.23.42.58,4.6-2.46c-.85,1.74-1.33,2.72-1.82,3.69-5.33-1.19-9.5,1.14-13.47,4.06l.55,1.47,12.78-5.68a11.06,11.06,0,0,1,.67,1.89c-2.56,1.46-5.22,2.74-7.78,4.18-1.46.82-2.78,1.87-4.16,2.82l.61.65,15.19-4.86.6.93-13.81,7.42c.19.49.38,1,.56,1.47l12.61-2.58.32,1.1-11.43,5.06c0,.2-.05.41-.08.61l14.07-.94-6.39,4.56.52,1,11-1.84c.09.25.19.49.28.73l-10.44,7.1,0,.67,11.53-3.54c.27,5.85-8.9,2-9.94,7.46h8.65l.21,1.27-10.35,4.73,12.27.91.42,2-10.27,3.54.24.88,8.76-1.07c.07.4.13.8.2,1.21l-3.94,1.42,3.53,5.26-5.4,1.37c.29,1.13.57,2.24,1.19,4.7l-8.56-6c.1,1.84-.31,3.48.32,4.39q5.7,8.26,11.83,16.22c3.17,4.13,6.88,7.86,9.84,12.11A7.41,7.41,0,0,1,315,351.19c-4,1.88-8.21,3.26-12.33,4.86l.12,1,19.15-3.83-11.24,5.85v.64l5.87-.72-2.3,6.24,11.88-8.57.72,1-11.41,8.58ZM218.54,230.79c-13.69-1.63-14.8-1.2-17.67,6Zm-156.89-42-8.18,14.55.83,1.14c1.19-.76,2.89-1.24,3.46-2.32C59.8,198.35,64.68,195.31,61.65,188.82Zm-1.47-1.32-1.83-1.34c-2.72,4-5.52,8-8,12.08-.3.5,1.1,2,2.08,3.7ZM207,243.39l-1.14-1.56-23.26,13.85.63,1.14ZM74.25,219.19l5.84-10.93c-5.31-1.64-5.16,3.31-7,5.33S70.14,217.93,74.25,219.19Zm-.08-16.57-1.25-.6c-6.73,6.36-7.43,9.15-3.12,13.42l4.38-7.31-.61-.45-3.91,3.69-.7-.55Zm127.16,35.77.51.92c3.33-.53,6.78-.66,9.94-1.7,3-1,5.6-2.89,8.39-4.39l-.49-.85Zm-119.45-14c1.13-3.53,5.82-6.26,3.07-10.6C83.24,217.21,78.6,219.82,81.88,224.41ZM60.53,207.26l-.8-.75,6.36-10.6-1.29-.8c-2.56,3.75-5.13,7.5-7.8,11.42l4.6,3.23c.5-1.45.9-2.59,1.46-4.19Zm161.76,13.8-.88-1.17-8.32,3.77c-2.6,1.17-5.21,2.31-7.81,3.47l.79,1.71Zm-26.84,4.12-.92,0c.07,1.21-.2,2.6.31,3.57.44.81,1.95,1.72,2.69,1.51a3.2,3.2,0,0,0,1.63-2.64,74.57,74.57,0,0,0-1.61-7.75l-1.4.33c.33,2.22.67,4.45,1.18,7.89C196.24,226.42,195.84,225.8,195.45,225.18ZM312.93,336.34c0-.62-.05-1.25-.07-1.87l-12.43,1.21C305.29,341.08,309.11,336.37,312.93,336.34ZM83.27,210.93l-1.55-.73c-2.7,3.26-5,6.67-5.62,10.9l1.7.79Q80.53,216.4,83.27,210.93Zm139.56-18.67,1.58.29a35,35,0,0,1,1.8-5.23c1.42-2.7,1.74-4.74-2.36-5.55C223.51,185.29,223.17,188.78,222.83,192.26Zm39.49,29.45c-6.2,1.6-7.53,4.28-5.19,9.58Zm35.37,110.4,0,1.25,11.67-.54c-1.19-1.6-1.79-2.42-2.11-2.84Zm-1.61-6.17c2.22,3.77,2.87,3.8,8.64.2l-3.89-3.09-.64.82,1.74,1.51a6,6,0,0,1-1.52.54C299.11,326,297.8,325.94,296.08,325.94Zm-121.67-82c-3.8,5-3.17,8.38.28,8.87-.51-1.8-1.06-3.72-1.61-5.64l1.15-.36c.66,1.54,1.31,3.07,2,4.6l1.36-.63Z"/><path class="cls-1" d="M295.34,253.67l1.81-3.7-4.6,2.46-.42-.58,2.65-3.23L279.28,255l-.95-1.9,17.24-9.39c-7.7-2.93-11.23,4.16-16.2,5.69.55-3.59,1.11-7.25,1.87-12.19l-7.71,8.11-1.24-.9c1.79-2.3,3.16-5.26,5.48-6.74,3.42-2.19,2.56-3.82,1.27-5.56l-4.91,3.68-4,7.09-1.65-.87c1.72-4.6,1.29-10.16,7.12-12.93a3.7,3.7,0,0,0,1.7-3.16c-.28-1.08-1.83-1.82-2.89-2.77-.57,1.72-.67,3.46-1.3,3.67-4.59,1.6-2.5,9.52-10.16,9.75l5.4-11.33L261.7,216c-.86,1.82-.83,6-5.19,4-.79,2.15-1.63,4.28-2.33,6.46-.47,1.46-.74,3-1.1,4.47l-1.87-.43c1.67-6.2,3.49-12.37,5-18.62a16.73,16.73,0,0,0-.34-8.07c-1.64,3,2.1,9-6.63,7.09l3.67,3c-1.22,3.23-2.35,6.26-3.55,9.45-4.78-.84-3.34-4.13-2.64-6.73.84-3.11.8-5.4-3.39-6.08l.87,4.6c-3.39-.17-4.16-3.44-2-7.3s2.2-3.85-1.34-7.3c.23,1.24.33,2,.52,2.77s.41,1.17.67,1.91l-3.13,1.55v10.7c-5.64-3.71-.76-8.79-3.62-11.83L232,213c-4.21-5.72,6.35-8.85.52-14.92-.38,2.74-.69,5-1,7.25l-1-.05-.84-4.3c-.83,1.73-1.51,3.16-2.2,4.58-1.66-3.51-2.41-6.72.32-9.89,1.67-1.93,3.35-3.74,1.15-6.92-.94-1.36.09-4.85,1.26-6.73,2.83-4.51,4.69-9,3.54-14.44-.33-1.54.56-3.34-.14-5.47-1.7,4.66-3.39,9.32-5.42,14.9-.25-7.25-.34-13.5,3-19.36.67-1.2.59-2.83.85-4.26,6.07-.09,8.28-5.86,13.34-7.42l-.75-1.05-4.48,1.35-2.81-3.89c1.12,6.38,1.12,6.38-3.64,7.87l-3.85-4.15-1.31.93,3.69,6.52L224.27,161l-4.6-2.55c-.4.55-.8,1.11-1.19,1.67l8,6.24c0,.93,1,3.6-2.87,3.76l-10.78-8c-3.12-6.17-5.8-11.45-8.47-16.72l-1.44.64,7.53,17.53c2.6,1.81,5.06,2.59,5.49,4,1.5,5,4.2,4.63,7.74,2.56q-1.78,5.79-3.56,11.58l-1.48-.2c-.4-3.13-.8-6.26-1.31-10.35-1.5,2.14-1.35,6.64-5.37,3.45,2,3.56,4,7.11,6.92,12.38-2.87,7.14-6.49,16.13-10.2,25.37C207,208,205.56,204,204.07,200l1.18-.47,2.69,5.28c-.4-3.41-.64-5.43-.87-7.45L208,197l1.51,3.22c.62-7.69-4.23-13.19-7.73-19.22l4.15,10.53-1.32.56-5-10.58-1,.51c.63,2.6,1.27,5.2,2.16,8.83-5.6-3.89-7.83-7.74-5.1-13.48-.76,1.11-1.52,2.21-3,4.34l-5.52-9.06-.62,0c.68,2.23.92,4.74,2.13,6.63,2.61,4.09,6,7.33,6.26,13,.2,3.84,3.81,7.45,5.69,11.27a94.78,94.78,0,0,1,5.57,12.61c1.42,4.44-1.56,5.79-4.67,5.7-.35-2.54-.22-5.2-1.13-7.45-2.6-6.4-5.6-12.64-8.5-18.92-.16-.34-.78-.48-.95-.58-.24,3-.49,6-.77,9.44l-4.6-8c-.26,4,.11,7.67,3.61,10.36,4,3.1,5.38,7.61,6.77,12l-1.28.65-4.68-9.65-.9.37,4.24,10.8-1.16.5c-1.77-3.31-3.54-6.61-5.89-11v8.43c-3.18-6.19-1.2-13.69-6.37-19.4,1.51,7.84,3,15.32,4.41,22.8l-1.17.48-15.88-27.78-.45.06c1,2.67,1.77,5.45,3,8,4.21,8.55,8.69,17,12.81,25.54a9,9,0,0,1,0,6.65c-2.18-6.46-4.37-12.92-6.69-19.76L173,217.47l.18.19c-.71-2.78-1.1-5.7-2.2-8.31-1.2-2.83-3.23-5.31-4.6-8.08a62.59,62.59,0,0,1-2.52-6.87c-.14,2.54.81,4.67,1.32,6.9.79,3.4,1.29,6.88,1.91,10.32.36,1.72.71,3.44,1.07,5.15.58,3.22,1.22,6.43,1.68,9.67.09.65-.56,1.4-.87,2.1l.19.19q-3.51-9-7-17.92l-.92.33,1.77,5-1.18,1-3.91-5.88-1.08,1c1.25,1.42,2.51,2.82,3.75,4.26,1.63,1.88,2.74,3.6,1.74,6.55-.54,1.59.76,4.11,1.83,5.85.91,1.49,2.66,2.46,4.27,3.86-1.15,1.44-2,2.49-2.57,3.23l-8.31-12.22-1,.56q3.87,6.55,7.73,13.13l-.65.62c-1.39-1.28-2.77-2.57-4.61-4.29.42,2.33.77,4.24,1.18,6.55l-4.77-5.08-6.51,3L159,252.68c-9.58-2.4-18.39-4.56-27.16-6.84-2.55-.66-3.74-2.25-1.92-4.73,5.37-7.32,5.38-8.59,0-15.76l-2.61,1.5L126,225.53l-1.76-9.22-1.56.29c.21,1.5.42,3,.66,4.68l-3.53.8,2.3,4.42c-.17,1.45-.33,2.9-.5,4.36l4.39,5.66c-.22.28-.43.56-.65.83a36.76,36.76,0,0,0-3.2-2.24,9.09,9.09,0,0,0-3.61-1.46c-2.6-.12-11.39-5.49-12.58-8s-2.39-5.1-3.67-7.83l-7.74-.68c.19-.42.39-.85.59-1.27-1.7-1.1-3.44-2.14-5.1-3.3-2.49-1.73-4.93-3.52-7.36-5.33-.62-.47-1-1.38-1.71-1.59-3.57-1.07-5.07-3-2.58-6.65-2.59-.13-5.3.54-6.32-.48-3.27-3.25-8.5-7.42-8.12-10.68.43-3.68-3.08-5.24-2-8.19l1.31-1.39,8.4,10.59,1.23-1c-2.91-3.81-5.83-7.61-9.56-12.46l3.2,1.55c-1-4.44-2-8.92-3.06-13.39h.47c3,5.49,6.24,10.88,8.95,16.52,1,2.17.55,5,1.4,7.34.5,1.36,2.26,2.25,3.46,3.35.51-1.09,3-.82,2-3-.16-.36.43-1.22.26-1.37-5.9-5-9.08-11.21-9.16-19.07,0-1.67-1.27-3.34-2.26-5.74-.37,2.06-.61,3.43-.85,4.79l-1.46-.13.92-12.56.91.15,8.13,20.86,1.67-.56C75.27,165,67.34,156.38,74.36,146c-2.2,9.86,4.48,16.07,10,22.62a26.37,26.37,0,0,0-2.56-4.72c-6.81-8.14-7.46-13.11-2.12-20.24,2.15,6.46,2.85,13.44,8.84,17.78-4.42-8.44-9.31-16.78-.94-26.57.37,13.76,1.52,17.49,7.64,24.14-2.52-6.44-4.71-12-6.89-17.58l1.61-.58,2.19,8,.72-.15q-.8-6.75-1.58-13.5l1.57-.3c-.4,8.39,3.07,15.07,8.8,21.75-2.47-6-5-11.06-6.6-16.39-2-6.71-.3-10.63,5.4-14.59-1.71,10.38,1.43,19.06,8.86,27.85-2.71-8.48-8.52-14.58-7-23.89.71,2.82,1.12,4.7,1.67,6.52a19.61,19.61,0,0,0,2.63,5.76c-1.25-6.71-3.92-13.31-.23-20.14.48,9.72.8,19.42,10,25.68-4.44-8.17-10.69-15.92-5.63-26.12-.52,6.67-1.67,13.48,4.18,18.36-.88-7.39-1.76-14.89-2.65-22.4l1.84-.39c-.28,9.55,3.46,17.61,8.1,25.34l1.14-.45c-1.68-3.82-3.72-7.53-4.93-11.49s-4-7.78-1.38-12.05c1.75,5.74,3.47,11.42,5.19,17.11l1.26-.39q-2.16-10.87-4.33-21.75l2.13-.58c1.16,9.57,1.66,19.39,9.28,27.54L124.32,123l1.48-.74,4.89,8.68c-1.88-8.3-4-16.46-1.25-25,.11,10.13,2.89,19.27,9.23,27.22-1.91-6.78-6.76-12.75-5.89-21.73l5,14c-.53-9.53-1-17.59-1.41-25.65l2-.19c-.84,11.15-.89,22.11,8,32.29-1.94-4.91-3.63-8.43-4.7-12.13s-1.53-7.66-2.26-11.5l1.25-.29,2.13,7,1-.11V100.64c.77,8.27,3,15.83,7.85,22.61-2.12-9.46-8.59-18.4-3.47-28.47.32,5.24.65,10.65,1,16.07l2-.13q-.56-7.09-1.12-14.18l.55-.14q2.46,8.55,4.93,17.08l1.45-.35c-1.63-8.67-7.29-17.32-.25-26.92-.33,5.34-.61,9.81-.9,14.28l1.15.1,1.85-15.75.82.13c0,3.52-.42,7.1.12,10.53a28.72,28.72,0,0,0,3.84,9.68c-3.95-7.48-.73-14.54,1.62-21.7v10h1.92V84.27l1.1,0Q170.09,93,172,101.74l1.95-.23c-1.75-8.67-6.49-17.73,2.12-25.51l2.38,19.69,1.54-.11c-.64-7.46-3.44-15.22,2.36-22.61,1.13,7,2.11,13.15,3.1,19.3l1.66-.15c-.38-7.27-5.26-15.16,2.4-22.17.72,6.62,1.36,12.46,2,18.3,2.15-7.4-3.52-16.11,6.33-22.57-.16,6.62-2.49,12.42,2.13,18.39-.77-7.42-3.2-14.36,4.82-19V76.67c1.67-11.59,1.67-11.59,6.54-14v9.08h1.28c.17-2.33-.09-4.8.63-6.94.59-1.75,2.36-3.1,3.6-4.62l1,.75v8.67c2.09-3.29-.39-8,5.79-10.79l-2.31,4.53,3.15,2.17c-1.19-5.59,0-8.15,4.58-4.86,6.26-4.05,13.17-3.44,19.41-5.35l1.76,8.15,1-.15q-.4-4-.82-8c5.28.2,5.28.2,7.5,7,.16-2.55.28-4.4.39-6.23,6-.65,6.44-.11,8,9.53l.41-9,7.31,9c-.05-.93-.13-2.43-.2-3.93l1.29-.38c1.17,3.73,2.35,7.46,3.94,12.47V66l1.26-.38c1.39,3.33,2.79,6.65,4.37,10.42l1-4.52c1.13,5.61,2,9.84,2.85,14.08l.76-.08c-.24-3.15-.48-6.3-.74-9.84,6.72,5.09,3.86,14,8.23,20.34l3.77-4.49c.76,4.74,1.42,8.83,2.08,12.93l.89-.06V99c2.13,5,5.18,9.73,3,15.51-.34.88,1.19,2.48,2.36,4.7-.32-4.83-.54-8.21-.76-11.58l1.22-.15c1.77,5.92,5.61,11.35,3.39,18.25-.42,1.28.49,3,.78,4.52l1.24-.37V116.55l1.45-.09,2.7,20.26.64.16.64-13.9,1.07,0v20.9l5.07-2c-.42,3.25-.76,5.82-1.1,8.39l1.32.26,2.22-9.32c.25,1.29.5,2.63.88,4.6l2.09-2.92,1.15.27-3,16.66c2.66-2.14,5-4,7.16-5.74,1.37,4.73-.77,9.51-4.88,13.94l-3.66-1-.51.82,7.44,4.08c1.19-4.11,2.32-8,3.46-12l.93.06q-.56,5.53-1.12,11.06l2.74-.26c.48,5-2.92,6.53-5.88,7.75l3.76,4.09a37.72,37.72,0,0,0,2.38-4.14,55.1,55.1,0,0,0,1.82-5.53c.57,3,1.62,5.95,1.42,8.76-.09,1.27-2.63,2.38-4.59,4l2.86,3.25-4.27,6.79,7.46-1.93c1.62,5.89-6.43,8.77-3.25,14.86l5.69-2.91.9.73-7.17,11.2,6,1.58L341,228.49l.83.82,9.15-4.72L341.34,240l.7.55,4.89-5.21c.68,1.62,2,3.57,1.61,4-1.15,1.31-3,2-4.51,2.92l1.89,1.07-4.54,5.55.95.88,7.69-8.32.58.32-8,14.8c1.43,1.26,1.19,1,2.53-.48.72-.82,2.44-.76,4.67-1.35l-7.35,12,3.72-1.93c-.3,1.05-.49,1.72-.82,2.91l4.49-2.26c-3.27,4.56-5.8,8.07-8.32,11.6l3.89-.31c.15.36.3.71.46,1.06l-4.48,4,.27.65,4-1.73c2.9,4.25-2.71,4.69-3.33,7.8l8.42-2.46-11.2,11.84,9-4.42c.21.26.42.53.64.79L345.5,300l6-1.94-5.28,6.19.41.52,5.41-3.52.7.76-4.59,5.61.47.58,3-2.41c-.15,2.93-.3,5.78-.48,9.11l3.89-1.62-2.92,5.77.8.53,2.86-3.32,1.05.57c-1.91,3.55-3.81,7.1-5.37,10l8.67-5,1,1.19-2.26,4.61c.61.29,1.77.84,3,1.4-.46.66-.9,1.31-1.56,2.25l6.87-.82a29.83,29.83,0,0,1-.82,4.09,21.89,21.89,0,0,0-1.51,4.34l6.48-5.66.85.84-6.19,7.52c.9.52,2.32,1.76,2.71,1.49,1.57-1.07,3.59-2.41,4-4,.72-2.79.34-3,2.67-1.74,4.63,2.42,6.78,11.41,3.75,15.71-2.27,3.23-1.05,6.48,3.83,8.22-.19-3.7-.36-7.07-.56-10.92,4.15,6.26,3.87,8.59-.84,12.6-3.15,2.69-6.25,5.46-9.17,8.39-2.64,2.64-5.21,3.17-8.32.33l2.41-2.63c-.22-.16-.5-.5-.63-.45-1.46.53-3.3.75-4.26,1.78a92,92,0,0,0-5.92,7.74l-1.33-1.07,5-6.08-9.65-2.82-5.31,4.29-1.2-1.35q4.56-6.31,9.13-12.64l-.66-.53-10.56,11.74,3.62-8.22-10.61,10.19,4.13-6.34c-4.66,3.17-6.78,10.25-14.66,7.81l4.46-5.49-.48-.55-7.43,6.4c.38-2.13.58-3.23.8-4.5l-8.05,5.18-.42-.61,6.47-6.18q9.42-6.5,18.8-13.06c.23-.16.08-.85.18-2.37-7.67,4.31-13.21,10-18.87,15.54l-3.58-1.23,11.41-8.58-.72-1-11.88,8.57,2.3-6.24-5.87.72v-.64l11.24-5.85-19.15,3.83-.12-1c4.12-1.6,8.35-3,12.33-4.86a7.41,7.41,0,0,0,3.11-10.85c-3-4.25-6.67-8-9.84-12.11q-6.12-8-11.83-16.22c-.63-.91-.22-2.55-.32-4.39l8.56,6c-.62-2.46-.9-3.57-1.19-4.7l5.4-1.37-3.53-5.26,3.94-1.42c-.07-.41-.13-.81-.2-1.21l-8.76,1.07-.24-.88,10.27-3.54-.42-2-12.27-.91L308,288.64l-.21-1.27h-8.65c1-5.47,10.21-1.61,9.94-7.46l-11.53,3.54,0-.67,10.44-7.1c-.09-.24-.19-.48-.28-.73l-11,1.84-.52-1,6.39-4.56-14.07.94c0-.2.05-.41.08-.61L300,266.53l-.32-1.1L287.07,268c-.18-.49-.37-1-.56-1.47l13.81-7.42-.6-.93-15.19,4.86-.61-.65c1.38-.95,2.7-2,4.16-2.82,2.56-1.44,5.22-2.72,7.78-4.18a11.06,11.06,0,0,0-.67-1.89Zm-90.48-76.51-1.13,1.18,6.61,13.54.73-.29L209,184.47l5.94,5,1.36-1L210.2,174.2l-1,.4,2.51,6.85Zm-3.21-11.59c-1.12,2.86-1.67,4.27-2.21,5.68l-.89-.27c.18-2.19.35-4.38.56-7L197,166.18c-1.05-1.4-2-2.6-2.86-3.81.36,7.17,3.47,12,11.16,12.9-.26-1.94-.59-4.43-1-7.33l-2.08,2.24C202.1,169,202,168,201.65,165.57Zm-60.41,39.18,1.17-.94c-6.43-6.81-8.75-17.62-19.27-19.74C129,190.72,135.1,197.74,141.24,204.75ZM144.13,216l1-.71,4.31,5c-1.27-3.46-2.56-6.9-4.8-9.52-1.89-2.2-4.88-3.46-7.39-5.14.66,2.62,2.6,4.33,3.68,6.46,1.29,2.57,1.85,5.52,2.73,8.3l1.06-.31Zm88.33-28.8,1.29.36,6.07-24.73C234.24,170.87,233.69,179.13,232.46,187.2Zm52.11,27.91c5.82-3.05,10-11.5,9.05-17.13C290.81,203.31,287.76,209.09,284.57,215.11ZM103.75,192l8.47,10.5-3.38-.68c-.08.33-.15.66-.23,1l3.75,1c-.57-3.19-1-5.7-1.48-8.29l2.74-.19c.07-.51.13-1,.2-1.54ZM273,203.25c5.74-2,10-10,9.28-18.07-1.43,3.6-2.4,6.68-3.86,9.51S274.94,200.26,273,203.25Zm-10.59-7.62c5.8-4.6,7.81-10.7,5.8-16.41Zm12.87-13.71-7,16.24C274.22,194.35,275.06,188.27,275.3,181.92Zm12.56,8.89L279,207.33C284.21,205.23,288.2,197.69,287.86,190.81ZM257,173.52c-1.39,6.21-2.6,11.66-3.82,17.11C256.52,185.55,259.52,180.39,257,173.52Zm7,4.17-1.7-.37q-2.33,6.85-4.66,13.71l2.47.77Q262,184.75,264,177.69ZM308,218.56l-9.95,12.29A13.33,13.33,0,0,0,308,218.56Zm-8.28-13.76-9.69,12.74C295.13,216.76,298.76,212.21,299.74,204.8ZM242,170.07l-1.77-.34q-1.95,8.66-3.91,17.31l1.39.32Zm-39.26,45.6,1.12-.53-8.7-18-1.21.58Zm92.52,7.43,1.61,1.09,8-13-1.24-.77Q299.44,216.79,295.26,223.1Zm-20.09-10.45-1.72-.28-.75,5.3h-8.18l0,1.48c3.11,0,6.38.54,9.25-.3C274.78,218.56,274.74,214.82,275.17,212.65ZM135,218l2.8,10.44,1.26-.35C137.35,224.87,142.47,219.56,135,218Zm98.72-24.81c3.73,3.35,6.23,1.88,8.22-.57,1.63-2,2.24-4.3-1.77-6.56C243.39,193.46,238,192.35,233.67,193.19Zm69.56,45c5.75-1.39,8.94-5.45,8.46-10.35ZM197,120.53c2.91,4.83,8.46,8.19,4.94,14.95l1.61-.32,1.21-7.36ZM97.25,143.8l1.82-.24-1.35-12.82-1.62.14Q96.67,137.35,97.25,143.8Zm211,109.25,1.36,1.09,8.76-11.06-1.15-.91Zm-127.84-90.5-1.78.09,2,13.15,1.57-.23Zm125,86.16c5.51-3.07,8.89-6.37,9.26-12.34ZM78.31,150.13c0,5.75,2.64,10.45,7.61,13.79Z"/><path class="cls-1" d="M314.3,345.5c-5.37,2.34-10.6-.47-16,1.48,0-.62,0-1.25,0-1.87l12.05-2.9-.21-.77H296.93c5.26-1.31,9.93-2.29,14.49-3.65,4.3-1.28,2.86,2.46,3.82,4.06a12.37,12.37,0,0,1,.87,2.68Z"/><path class="cls-1" d="M168.17,216.77c-.36-1.71-.71-3.43-1.07-5.15a25.84,25.84,0,0,1,3.88,2.62,17.15,17.15,0,0,1,2.21,3.42l-.18-.19,7.8,15.88-1.43.67L175,224.89l-.46.21,3.06,13.3-1.33.31C175,233.13,174,227.46,172.38,222,171.78,220,169.62,218.5,168.17,216.77Z"/><path class="cls-1" d="M186.65,237.94c.68,1.64,1.71,3.24,1.93,4.94a6.16,6.16,0,0,1-1.23,4,89.53,89.53,0,0,1-8.23,9.77c-1,1-3.25.72-4.92,1l-.39-1.49,5.18-2.39-.85-4.7h7.24c-3.68-4.14-4.1-6.69,0-8.53.67-.3.87-1.65,1.29-2.52Z"/><path class="cls-1" d="M218.54,230.79l-17.67,6C203.74,229.59,204.85,229.16,218.54,230.79Z"/><path class="cls-1" d="M61.65,188.82c3,6.49-1.85,9.53-3.89,13.37-.57,1.08-2.27,1.56-3.46,2.32l-.83-1.14Z"/><path class="cls-1" d="M186.68,238l3.46-6.79,1.57,3.1.83-.2c-.72-2.85-1.43-5.7-2.15-8.54,5.11,5,5.27,9.45.49,15l-4.23-2.62Z"/><path class="cls-1" d="M60.18,187.5l-7.77,14.44c-1-1.68-2.38-3.2-2.08-3.7,2.5-4.13,5.3-8.08,8-12.08Z"/><path class="cls-1" d="M63.25,178.24l-1.31,1.39c-5.63-4.14-6-9.55-4-16.13Z"/><path class="cls-1" d="M207,243.39l-23.77,13.43-.63-1.14,23.26-13.85Z"/><path class="cls-1" d="M74.25,219.19c-4.11-1.26-2.76-3.72-1.11-5.6s1.64-7,7-5.33Z"/><path class="cls-1" d="M74.17,202.62,69,210.82l.7.55,3.91-3.69.61.45-4.38,7.31c-4.31-4.27-3.61-7.06,3.12-13.42Z"/><path class="cls-1" d="M314.3,345.5l1.81-1a16.83,16.83,0,0,1,1.67.6c-1.07,4.32-5.36,6.58-10,5.71-1.41-.27-3,.5-4.53.71-1.09.15-2.19.14-4.42.27Z"/><path d="M334.07,371.63l10.61-10.19-3.62,8.22-6.28,5.74-1.06-.73C333.84,373.66,334,372.65,334.07,371.63Z"/><path class="cls-1" d="M126,225.53l1.27,1.32,3.57,7-9.22-2.93c.16-1.48.32-2.93.49-4.38Z"/><path class="cls-1" d="M201.33,238.39l18.35-6,.49.85c-2.79,1.5-5.43,3.42-8.39,4.39-3.16,1-6.61,1.17-9.94,1.7Z"/><path class="cls-1" d="M81.88,224.41c-3.28-4.59,1.36-7.2,3.07-10.6C87.7,218.15,83,220.88,81.88,224.41Z"/><path class="cls-1" d="M60.53,207.26l2.53-1.69c-.56,1.6-1,2.74-1.46,4.19L57,206.53c2.67-3.92,5.24-7.67,7.8-11.42l1.29.8-6.36,10.6Z"/><path class="cls-1" d="M222.29,221.06l-16.22,7.78-.79-1.71c2.6-1.16,5.21-2.3,7.81-3.47l8.32-3.77Z"/><path class="cls-1" d="M195.45,225.18c.39.62.79,1.24,1.88,2.93-.51-3.44-.85-5.67-1.18-7.89l1.4-.33a74.57,74.57,0,0,1,1.61,7.75,3.2,3.2,0,0,1-1.63,2.64c-.74.21-2.25-.7-2.69-1.51-.51-1-.24-2.36-.31-3.57Z"/><path class="cls-1" d="M312.93,336.34c-3.82,0-7.64,4.74-12.5-.66l12.43-1.21C312.88,335.09,312.91,335.72,312.93,336.34Z"/><path class="cls-1" d="M83.27,210.93q-2.74,5.48-5.47,11l-1.7-.79c.57-4.23,2.92-7.64,5.62-10.9Z"/><path class="cls-1" d="M222.83,192.26c.34-3.48.68-7,1-10.49,4.1.81,3.78,2.85,2.36,5.55a35,35,0,0,0-1.8,5.23Z"/><path class="cls-1" d="M295.19,253.51l-12.78,5.68-.55-1.47c4-2.92,8.14-5.25,13.48-4.06Z"/><path class="cls-1" d="M262.32,221.71l-5.19,9.58C254.79,226,256.12,223.31,262.32,221.71Z"/><path class="cls-1" d="M169,228.54l3.74,6.05c-8.65-6.31-10-8.51-8.49-11.73l4.94,5.87Z"/><path class="cls-1" d="M297.69,332.11l9.59-2.13c.32.42.92,1.24,2.11,2.84l-11.67.54Z"/><path class="cls-1" d="M296.08,325.94c1.72,0,3,.05,4.33,0a6,6,0,0,0,1.52-.54l-1.74-1.51.64-.82,3.89,3.09C299,329.74,298.3,329.71,296.08,325.94Z"/><path class="cls-1" d="M174.41,243.94l3.15,6.84-1.36.63c-.66-1.53-1.31-3.06-2-4.6l-1.15.36c.55,1.92,1.1,3.84,1.61,5.64C171.24,252.32,170.61,249,174.41,243.94Z"/><path d="M204.86,177.16l6.81,4.29-2.51-6.85,1-.4,6.09,14.29-1.36,1-5.94-5,2.08,7.12-.73.29-6.61-13.54Z"/><path d="M223.66,170.12c-3.54,2.07-6.24,2.41-7.74-2.56-.43-1.4-2.89-2.18-5.49-4L202.9,146l1.44-.64c2.67,5.27,5.35,10.55,8.47,16.72l10.78,8Z"/><path d="M201.65,165.57c.33,2.44.45,3.4.62,4.61l2.08-2.24c.38,2.9.71,5.39,1,7.33-7.69-.85-10.8-5.73-11.16-12.9.9,1.21,1.81,2.41,2.86,3.81l2.09-2.22c-.21,2.64-.38,4.83-.56,7l.89.27C200,169.84,200.53,168.43,201.65,165.57Z"/><path d="M141.24,204.75c-6.14-7-12.27-14-18.1-20.68,10.52,2.12,12.84,12.93,19.27,19.74Z"/><path d="M144.13,216l.63,4.06-1.06.31c-.88-2.78-1.44-5.73-2.73-8.3-1.08-2.13-3-3.84-3.68-6.46,2.51,1.68,5.5,2.94,7.39,5.14,2.24,2.62,3.53,6.06,4.8,9.52l-4.31-5Z"/><path d="M232.19,153.58l-3.69-6.52,1.31-.93,3.85,4.15c4.76-1.49,4.76-1.49,3.64-7.87l2.81,3.89,4.48-1.35.75,1.05c-5.06,1.56-7.27,7.33-13.34,7.42Z"/><path d="M232.46,187.2c1.23-8.07,1.78-16.33,7.36-24.37l-6.07,24.73Z"/><path d="M173.19,217.66a17.15,17.15,0,0,0-2.21-3.42,25.84,25.84,0,0,0-3.88-2.62c-.62-3.44-1.12-6.92-1.91-10.32-.51-2.23-1.46-4.36-1.32-6.9a62.59,62.59,0,0,0,2.52,6.87c1.37,2.77,3.4,5.25,4.6,8.08C172.09,212,172.48,214.88,173.19,217.66Z"/><path d="M284.57,215.11c3.19-6,6.24-11.8,9.05-17.13C294.61,203.61,290.39,212.06,284.57,215.11Z"/><path d="M319,367.46c5.66-5.53,11.2-11.23,18.87-15.54-.1,1.52.05,2.21-.18,2.37q-9.36,6.58-18.8,13.06Z"/><path d="M103.75,192l10.07,1.78c-.07.51-.13,1-.2,1.54l-2.74.19c.46,2.59.91,5.1,1.48,8.29l-3.75-1c.08-.33.15-.66.23-1l3.38.68Z"/><path d="M273,203.25c1.92-3,3.92-5.65,5.42-8.56s2.43-5.91,3.86-9.51C283,193.28,278.76,201.24,273,203.25Z"/><path d="M262.43,195.63l5.8-16.41C270.24,184.93,268.23,191,262.43,195.63Z"/><path d="M275.3,181.92c-.24,6.35-1.08,12.43-7,16.24Z"/><path d="M287.86,190.81c.34,6.88-3.65,14.42-8.87,16.52Z"/><path d="M126,225.53l-3.89,1-2.3-4.42,3.53-.8c-.24-1.69-.45-3.18-.66-4.68l1.56-.29Z"/><path d="M257,173.52c2.57,6.87-.43,12-3.82,17.11C254.35,185.18,255.56,179.73,257,173.52Z"/><path d="M264,177.69q-1.95,7-3.89,14.11L257.6,191q2.34-6.85,4.66-13.71Z"/><path d="M308,218.56a13.33,13.33,0,0,1-9.95,12.29Z"/><path d="M299.74,204.8c-1,7.41-4.61,12-9.69,12.74Z"/><path d="M242,170.07l-4.29,17.29-1.39-.32q2-8.65,3.91-17.31Z"/><path d="M202.74,215.67,194,197.75l1.21-.58,8.7,18Z"/><path d="M295.26,223.1q4.17-6.32,8.35-12.64l1.24.77-8,13Z"/><path d="M275.17,212.65c-.43,2.17-.39,5.91-1.37,6.2-2.87.84-6.14.3-9.25.3l0-1.48h8.18l.75-5.3Z"/><path d="M135,218c7.52,1.56,2.4,6.87,4.06,10.09l-1.26.35Z"/><path d="M233.67,193.19c4.32-.84,9.72.27,6.45-7.13,4,2.26,3.4,4.57,1.77,6.56C239.9,195.07,237.4,196.54,233.67,193.19Z"/><path d="M303.23,238.22l8.46-10.35C312.17,232.77,309,236.83,303.23,238.22Z"/><path d="M197,120.53l7.76,7.27-1.21,7.36-1.61.32C205.45,128.72,199.9,125.36,197,120.53Z"/><path d="M97.25,143.8q-.57-6.47-1.15-12.92l1.62-.14,1.35,12.82Z"/><path d="M308.28,253.05l9-10.88,1.15.91-8.76,11.06Z"/><path d="M180.44,162.55l1.74,13-1.57.23-2-13.15Z"/><path d="M305.4,248.71l9.26-12.34C314.29,242.34,310.91,245.64,305.4,248.71Z"/><path d="M78.31,150.13l7.61,13.79C81,160.58,78.26,155.88,78.31,150.13Z"/></svg>