<svg id="Layer_1" data-name="Layer 1" xmlns="http://www.w3.org/2000/svg" viewBox="0 0 450 450"><defs><style>.cls-1{fill:#fff;}</style></defs><title>Artboard 3</title><path d="M77,190.07l-3.18,4.21-1-.45c2.36-6.27,4.45-12.66,7.13-18.8,3.31-7.55,7.1-14.88,10.69-22.3a11.22,11.22,0,0,1,.78-1.28c3.36-5,21-9.92,25.51-6.78,2.28-5.88,6.16-7.08,12.54-6.21,7.61,1,15.56-.67,23.35-.51,18,.39,35.93,1,53.88,1.91,15.15.8,29.65-2.05,43.93-6.56,6.27-2,12.31-4.75,18.65-6.44,17.88-4.75,34.74-13.87,54.16-12.18,8.79.76,17.32,1.48,25,6.54,8,5.3,16.47,9.88,24.29,15.4,4.26,3,7.67,7.26,11.3,11.11a4.06,4.06,0,0,1,.69,3.23c-1.93,8.53-3.49,17.21-6.27,25.47-1.59,4.71-4.89,9-8.05,13-5.2,6.56-12.63,8.15-20.58,7.71-4.29-.24-8.56-1.12-12.84-1.22-2.69-.06-5.38.86-8.09,1.25-2.11.31-4.33,1-6.33.66-9.55-1.8-17.19,2.23-24.1,7.88-11.07,9.05-21.83,18.46-32.75,27.68-1.78,1.49-3.76,2.74-5.61,4.14-5.09,3.85-10.67,7.22-15.09,11.72-4.62,4.71-8.12,10.52-12.12,15.85-.49.66-.87,1.65-1.53,1.91-7.59,3-11.39,10.47-17.88,14.74-1.93,1.27-3.56,3-5.43,4.34-1.45,1.06-2.94,2.42-4.59,2.75-4.22.84-8,1.89-9.83,6.41-.46,1.12-2.33,2.5-3.41,2.38-4.45-.49-6.9,1.87-9.61,4.88-1.37,1.51-4.3,1.94-6.6,2.21-3.67.42-7.52-.77-9.77,4-.66,1.42-4.42,1.41-6.78,2-3.59.91-7.19,1.82-10.8,2.63a14.07,14.07,0,0,1-3.92.38c-4-.26-8.24-2-11.6,1.88-.16.19-.66.19-1,.12-13.24-3-27.7.52-40-7.95-2.58-1.78-6.63-1.48-10-2-5.88-.88-10.55-3.42-13.63-8.76-3.46-6-7.19-11.83-10.83-17.73-3-4.8-3.67-9.67-2.84-15.48.79-5.57-.42-11.52-1.31-17.22a19.6,19.6,0,0,1,2.88-14.22c.75-1.18,1.66-3.1,1.2-4.08-2.13-4.54.32-7.35,3.35-9.84,6.41-5.26,11.67-11.19,13.19-19.73.16-.85,1.2-1.55,1.86-2.34l2.23,4.91c1.53-4.25,2.53-7.05,3.58-10l-3-1.45,6.54-2.59-.33-1.07H78.86l8.64-4.61C79.83,180.91,78.31,185.38,77,190.07Zm150.8-32.28,5.89,8.93c-4.49-.11-6.15-3.82-8.19-6.92-4.26-6.46-10.28-10.71-16.93-11.46,2,2.35,3.66,5.93,5.67,6.17,4.61.56,5.5,3.87,7.52,6.5l-.76,1-4.93-3.81-.44.48c1.58,2.27,3.16,4.55,4.75,6.82-9.08-3.41-9.41-14.88-19.32-19.53,4.27,4.78-.9,2.89-1.46,5.24l11.73,17.35c-11-5.84-12-18.36-21.2-24.31.15,1.58.26,2.72.43,4.64l-7.35-6.21L198,168l-1.58,1.12c-7.32-6.66-7.74-18.75-17.27-24.19,1.1,1.92,2,3.49,2.88,5.06l-.82.65-6.06-4.09,10.6,25.11a26.78,26.78,0,0,1-6.87-8.54c-2.12-4.44-3.25-9.36-5.42-13.77-1.15-2.36-3.58-4.08-5.43-6.09l-1,1,3.55,3-.31,1.08-4.91-.67c4.2,7,2.35,16.33,10.34,21-2.35,2-3.89,2-5.39-1.13-2.21-4.57-3.65-9.51-5.62-14.2-1.3-3.08-3-6-4.46-9l-1,.64,1.54,4.1-1,.48-3.77-2.35-1.06.56c2.4,8.69,4.8,17.38,7.33,26.52-1.35-1.3-3.4-2.41-4.05-4.06a45.74,45.74,0,0,1-2.45-10c-.9-6.22-1.76-12.36-7.64-16.45.65,3.08,1.26,6,1.88,8.83l-1.1.4q-2.47-3.75-4.93-7.5c1.19,10.15-1.06,20.69,4.63,30.07-2.25-1.73-4.44-3.67-5.32-6.08-1.05-2.89-1.12-6.17-1.34-9.31-.2-2.93,0-5.88,0-10l-1.47,2.08-6.67-8.85c1.09,10.08,2.22,20.61,3.36,31.14l-1.29.47c-.71-1.81-1.85-3.58-2-5.43a61.13,61.13,0,0,1,0-10.48c.49-5.94-4.68-8.89-6.57-13.48v30.2l-.9.31-6.16-15-2,5.92c-.58-2.85-.94-4.64-1.31-6.43l-.66.11-.81,5.82c-5.48-5.23-2.09-12.2-5.07-18.44-1.63,11.71-3.23,22-4.45,32.32S103,200.76,97.74,210c6.73-18.26,8.7-37.09,7.46-56.65-.67,1.83-1.26,3.4-1.87,4.94-.55-.61-1.6-1.28-1.54-1.83a28.41,28.41,0,0,1,1.2-4.63l-1.12-.34L96.56,164l1,.75c1.08-1,2.22-2,3.22-3.14s1.69-2.22,2.52-3.33c-1.74,4.26-2.59,9.26-5.39,12.65A70.6,70.6,0,0,0,84,199.08c-1.14,4.46-2.16,9-3.22,13.44C79.51,217.88,78,222.91,73,226.38c-1.69,1.17-2.78,4-3.08,6.28C68,247,71.68,261,73,275.08c.14,1.66,1.43,3.33,2.48,4.78,3.65,5,7.72,9.73,11,14.94,2.64,4.11,9.54,7.63,13.9,6.43l1.6,3.58,5.26-4.28,3.22,4.57c.86-2.17,1.44-3.62,2-5.07l1.27,1.07-.85,5.74c4.39-1.28,5.19-3.4,2.89-5.61l4.19-2.86c.54,1.31,1.19,2.86,1.83,4.42l4-3.37,1,.18-4.31,11.66c3.07-.85,6.05-1.66,9-2.51.11,0,.11-.43.23-1l-3.94,1c1.42-4.14,2.43-7.92,4.09-11.39.49-1,2.83-1.15,4.32-1.69l.36,1.11-3.53,2.29.86,1.42,7.6-4.28c-.47,1.76-.95,3.54-1.37,5.1,5,2.66,4-2.94,6.23-4.38.33,2,.62,3.82,1.08,6.76l4.19-5,5.47,1.34c-4.06,2.64-4.06,2.64-3.33,6l7.37-8.31-.77-.59-5,2-.27-.67,8.14-7.09,5.17,1.28-4.9,2.53,1.5,3.92c2.44-3.56,5.29-7,10.53-5.44l-2.94,4.46,1.52.94c1.28-2.27,4.17-5.72,3.53-6.59-2-2.7.18-3.49,1.32-4.24,1.75-1.16,3.91-1.69,6-2.55l1.31-4.33,1.14.3,1,4.56c2.35-3.26,4-5.54,5.65-7.81l.73.39c-1,2.89-2,5.78-3.07,8.66l1.26.63c1.44-2.42,4.55-6.43,4-7-2.86-3-.26-3.73,1.4-4.83s3.73-2.09,5.61-3.12l1,2.29c1.29-2.19,2.13-5.63,3.81-6.1,4.14-1.17,5.28-4.31,7.21-7.3,1.7-2.64,4.18-4.8,6.32-7.17l1.41,1-1.32,7.57,1.19.6,8.71-16,1,.61-4,8.53c3.36-2.43,7-4.33,6.47-9.36-.18-1.62,2.08-3.71,3.58-5.24.94-1,3.14-.95,3.69-2,.66-1.19.16-3,.16-5,4.9,3.17.94,6.62.09,11,1.68-2.38,3.51-3.78,3.41-5-.69-8.39,7.89-10.12,10.94-15.75a1.58,1.58,0,0,1,1.28-.64c4,.47,4.78-2.5,5.77-5.34.64-1.84,1.53-3.59,2.31-5.37l1.27.5-5,14.64c5.35-7.63,9.95-14.21,14.55-20.78l.87.38L276,217.34l.79.29q3-6.33,6.05-12.67l1.11.44c-1,3-2,6-2.95,9l1,.77,10.61-12.69c-.05-.07.22.43.49.93L316.67,187c-.27,2.18-.39,3.18-.56,4.53l5.2-4.08.72.71-.82,2.46,13.1-4.46c-.08.68-.16,1.47-.31,2.82l2.52-3c6.67,4.83,7.42-3,9.82-4.26,1.54,2.3,2.54,5.57,4.49,6.3,3.71,1.39,5.27-1.69,5.44-5.29l3.81,2.3-7.33,6.4c.34.41.68.82,1,1.24l15.93-13.33.87.86q-3.82,4-7.66,8c5-1.15,10-4.39,9.44-8.62-.65-5,1.35-8.53,2.52-12.65.74-2.61,1.52-5.21,2.28-7.82l-1.17-.4q-4.43,10.09-8.84,20.19c-.81-11.21,10.6-18.89,7-29.49l7.52.73.12-1.47-11.64-8.9c.08.46.22,1.36.46,2.93-4.44-3.7-8.33-6.84-12.1-10.14-3-2.61-5.82-5.41-8.72-8.12L348.21,126a57.83,57.83,0,0,1,5.07,3.81,43.27,43.27,0,0,1,3.73,4.45l-1.1.89-8.71-9.47-1.21.91,5.8,8.49-1.11.82-6.13-6.69c.72,2.4,1.12,3.74,1.53,5.13l-12.31-11-.78.91,8.2,9.42-.91.76-8.62-7.95-.39.59q1.89,3,3.77,5.92c-3.22-1.88-5.59-4.43-8.31-6.51a91.48,91.48,0,0,0-8.15-5c2.25,4.54,9.83,4.46,8.2,11.36q-8-5.79-16-11.61l-.73,1,10.76,8.7-.5.64-17.15-9.57-.45.87,13.83,9.35-.87,1.39c-5.54-3.47-10.47-8.29-17.16-8.89l12.09,11.39c-4.06-1.49-7.17-4-10.5-6.12-6.95-4.46-7-4.38-10.75-3.44l8.17,6.24-.38.48-14-6.13-.44,1.15,11.57,8-.86,1.21a92.53,92.53,0,0,0-8.35-5,75.09,75.09,0,0,0-8.55-3c-.12.32-.23.64-.34,1l11.64,8.19-.69,1.11c-5.76-2.43-10.33-8.07-18.28-7.19,5.39,3.79,12,5.07,14.17,12.2-13.8-9.27-13.8-9.27-17.05-8l11.12,8.6-.5.51L256.67,137c-.25.59-.5,1.18-.76,1.77l16,7.36-.47,1-2.59-.31c.5,1.07.85,1.8,1.26,2.67-6-.87-8.48-8.39-16.72-6.64,3.52,2.45,5.86,4.19,8.32,5.76,1.4.89,3.63,1.13,4.32,2.33.87,1.52.55,3.73.79,6.06-7.57-2.93-10.41-15-21.06-13,4.54,5.2,8.91,10.21,13.3,15.21a13,13,0,0,0,2.39,2.46c5.54,3.56,11.14,7,16.72,10.52-.45.69-.91,1.38-1.37,2.07-2.31-1.67-4.61-3.34-6.94-5s-4.94-3.44-7.4-5.17-5.5-3.4-7.72-5.63-3.81-5.44-6-7.95c-2.42-2.84-5.16-5.42-9.87-4.5l13.39,11.29c-.32.35-.64.69-1,1l-2.3-1.05-.56.76,6.65,6.2L254,165.63l-8.19-6.79-1-2.06c-2.66-6.72-7.83-10.47-15.15-10.55l16,18.12-1.26,1.33c-1.79-1.58-4-2.86-5.3-4.79-5.49-8.42-12.53-13.07-23.69-14.63l10.45,8.63C226.48,155.86,227.14,156.82,227.8,157.79ZM74.12,300.63l6.34,1.23,1.94-7.15c-4.6,1-7.26-1.27-9.07-4.77-.14-.27,1.14-1.27,1.7-1.86l-6.48-1.5.12-.62,5.7-.33.06-.59-11.11-2.65c-.73,5.64,6.19,15.08,12.55,15.81ZM60.81,271.5l.12-.57a53.6,53.6,0,0,0,5.95-.08c.67-.08,1.24-1.08,1.85-1.66-.57-.45-1.12-1.28-1.7-1.31-3.28-.12-6.58-.06-9.83-.06-.58,9.24,4.16,13.26,14.27,12.54-2.38-4.29-9.93.36-11-6.55l7.11.66.11-1.2Zm3.53-17.89.22-.93-6.14-1.5,5.82-1.05-.23-.91H56c.65,4.09,1.24,7.76,1.88,11.74l8.75-.39,0-1.35-7.8-.92.14-1.21,5.72-.28,0-.62-7-1.05L58,254Zm-4.6-22.21c5.64.12,6.23-1.41,4.7-11.06C56.51,221.09,59.93,226.83,59.74,231.4ZM70.8,220.85l3.48-9.95-.82-.7-7.39,8.35c.94,2.56,1.63,4.46,2.56,7l.3-5.41Zm52.29-55.47,1.47-.08V153.54l-1.47,0Zm-55.6,101,0-1.43c-1.71,0-3.42.1-5.12,0a6.87,6.87,0,0,1-2.86-.88c-.56-.32-.84-1.13-1.24-1.73-.31.49-.92,1-.87,1.46.11.9.52,2.48.9,2.51C61.33,266.51,64.41,266.42,67.49,266.42Z"/><path class="cls-1" d="M225.83,154.89l-10.45-8.63c11.16,1.56,18.2,6.21,23.69,14.63,1.26,1.93,3.51,3.21,5.3,4.79l1.26-1.33-16-18.12c7.32.08,12.49,3.83,15.15,10.55l-8.7-7.5-1.34,1.57c2.53,2.33,5,4.75,7.64,6.92.86.7,2.26.73,3.42,1.07l8.19,6.79,1.18-1.36-6.65-6.2.56-.76,2.3,1.05c.31-.35.63-.69,1-1L239,146c4.71-.92,7.45,1.66,9.87,4.5,2.15,2.51,3.65,5.63,6,7.95s5.12,3.79,7.72,5.63,4.95,3.43,7.4,5.17,4.63,3.31,6.94,5c.46-.69.92-1.38,1.37-2.07-5.58-3.49-11.18-7-16.72-10.52a13,13,0,0,1-2.39-2.46c-4.39-5-8.76-10-13.3-15.21,10.65-2,13.49,10.07,21.06,13-.24-2.33.08-4.54-.79-6.06-.69-1.2-2.92-1.44-4.32-2.33-2.46-1.57-4.8-3.31-8.32-5.76,8.24-1.75,10.75,5.77,16.72,6.64-.41-.87-.76-1.6-1.26-2.67l2.59.31.47-1-16-7.36c.26-.59.51-1.18.76-1.77l19.91,8.88.5-.51L266,136.74c3.25-1.23,3.25-1.23,17.05,8-2.22-7.13-8.78-8.41-14.17-12.2,8-.88,12.52,4.76,18.28,7.19l.69-1.11-11.64-8.19c.11-.32.22-.64.34-1a75.09,75.09,0,0,1,8.55,3,92.53,92.53,0,0,1,8.35,5l.86-1.21-11.57-8,.44-1.15,14,6.13.38-.48-8.17-6.24c3.75-.94,3.8-1,10.75,3.44,3.33,2.13,6.44,4.63,10.5,6.12l-12.09-11.39c6.69.6,11.62,5.42,17.16,8.89l.87-1.39-13.83-9.35.45-.87,17.15,9.57.5-.64-10.76-8.7.73-1q8,5.81,16,11.61c1.63-6.9-5.95-6.82-8.2-11.36a91.48,91.48,0,0,1,8.15,5c2.72,2.08,5.09,4.63,8.31,6.51q-1.87-3-3.77-5.92l.39-.59,8.62,7.95.91-.76-8.2-9.42.78-.91,12.31,11c-.41-1.39-.81-2.73-1.53-5.13l6.13,6.69,1.11-.82-5.8-8.49,1.21-.91,8.71,9.47,1.1-.89a43.27,43.27,0,0,0-3.73-4.45,57.83,57.83,0,0,0-5.07-3.81l1.56-1.65c2.9,2.71,5.73,5.51,8.72,8.12,3.77,3.3,7.66,6.44,12.1,10.14-.24-1.57-.38-2.47-.46-2.93l11.64,8.9-.12,1.47-7.52-.73c3.6,10.6-7.81,18.28-7,29.49q4.41-10.09,8.84-20.19l1.17.4c-.76,2.61-1.54,5.21-2.28,7.82-1.17,4.12-3.17,7.66-2.52,12.65.55,4.23-4.44,7.47-9.44,8.62q3.83-4,7.66-8l-.87-.86-15.93,13.33c-.33-.42-.67-.83-1-1.24l7.33-6.4-3.81-2.3c-.17,3.6-1.73,6.68-5.44,5.29-1.95-.73-2.95-4-4.49-6.3-2.4,1.23-3.15,9.09-9.82,4.26L334,189c.15-1.35.23-2.14.31-2.82l-13.1,4.46.82-2.46-.72-.71-5.2,4.08c.17-1.35.29-2.35.56-4.53l-23.49,16.41c-.27-.5-.54-1-.49-.93l-10.61,12.69-1-.77c1-3,2-6,2.95-9l-1.11-.44q-3,6.34-6.05,12.67l-.79-.29,2.93-8.16-.87-.38c-4.6,6.57-9.2,13.15-14.55,20.78l5-14.64-1.27-.5c-.78,1.78-1.67,3.53-2.31,5.37-1,2.84-1.72,5.81-5.77,5.34a1.58,1.58,0,0,0-1.28.64c-3,5.63-11.63,7.36-10.94,15.75.1,1.24-1.73,2.64-3.41,5,.85-4.37,4.81-7.82-.09-11,0,2,.5,3.84-.16,5-.55,1-2.75,1-3.69,2-1.5,1.53-3.76,3.62-3.58,5.24.54,5-3.11,6.93-6.47,9.36l4-8.53-1-.61-8.71,16-1.19-.6,1.32-7.57-1.41-1c-2.14,2.37-4.62,4.53-6.32,7.17-1.93,3-3.07,6.13-7.21,7.3-1.68.47-2.52,3.91-3.81,6.1l-1-2.29c-1.88,1-3.83,1.95-5.61,3.12s-4.26,1.83-1.4,4.83c.52.55-2.59,4.56-4,7l-1.26-.63c1-2.88,2.05-5.77,3.07-8.66l-.73-.39c-1.65,2.27-3.3,4.55-5.65,7.81l-1-4.56-1.14-.3-1.31,4.33c-2.14.86-4.3,1.39-6,2.55-1.14.75-3.29,1.54-1.32,4.24.64.87-2.25,4.32-3.53,6.59l-1.52-.94,2.94-4.46c-5.24-1.52-8.09,1.88-10.53,5.44l-1.5-3.92,4.9-2.53-5.17-1.28-8.14,7.09.27.67,5-2,.77.59-7.37,8.31c-.73-3.36-.73-3.36,3.33-6l-5.47-1.34-4.19,5c-.46-2.94-.75-4.75-1.08-6.76-2.24,1.44-1.19,7-6.23,4.38.42-1.56.9-3.34,1.37-5.1l-7.6,4.28-.86-1.42,3.53-2.29-.36-1.11c-1.49.54-3.83.67-4.32,1.69-1.66,3.47-2.67,7.25-4.09,11.39l3.94-1c-.12.54-.12.94-.23,1-3,.85-5.94,1.66-9,2.51l4.31-11.66-1-.18-4,3.37c-.64-1.56-1.29-3.11-1.83-4.42l-4.19,2.86c2.3,2.21,1.5,4.33-2.89,5.61l.85-5.74L112.47,300c-.57,1.45-1.15,2.9-2,5.07l-3.22-4.57L102,304.81l-1.6-3.58c-4.36,1.2-11.26-2.32-13.9-6.43-3.33-5.21-7.4-9.93-11-14.94-1.05-1.45-2.34-3.12-2.48-4.78C71.68,261,68,247,69.89,232.66c.3-2.24,1.39-5.11,3.08-6.28,5-3.47,6.54-8.5,7.81-13.86,1.06-4.48,2.08-9,3.22-13.44a70.6,70.6,0,0,1,13.9-28.19c2.8-3.39,3.65-8.39,5.39-12.65l.07.07c.58-1.57,1.17-3.14,1.84-5,1.24,19.56-.73,38.39-7.46,56.65,5.22-9.23,6.92-19.29,8.13-29.55s2.82-20.61,4.45-32.32c3,6.24-.41,13.21,5.07,18.44l.81-5.82.66-.11c.37,1.79.73,3.58,1.31,6.43l2-5.92,6.16,15,.9-.31v-30.2c1.89,4.59,7.06,7.54,6.57,13.48a61.13,61.13,0,0,0,0,10.48c.18,1.85,1.32,3.62,2,5.43l1.29-.47c-1.14-10.53-2.27-21.06-3.36-31.14l6.67,8.85,1.47-2.08c0,4.08-.16,7,0,10,.22,3.14.29,6.42,1.34,9.31.88,2.41,3.07,4.35,5.32,6.08-5.69-9.38-3.44-19.92-4.63-30.07q2.46,3.75,4.93,7.5l1.1-.4c-.62-2.87-1.23-5.75-1.88-8.83,5.88,4.09,6.74,10.23,7.64,16.45a45.74,45.74,0,0,0,2.45,10c.65,1.65,2.7,2.76,4.05,4.06-2.53-9.14-4.93-17.83-7.33-26.52l1.06-.56,3.77,2.35,1-.48-1.54-4.1,1-.64c1.5,3,3.16,5.92,4.46,9,2,4.69,3.41,9.63,5.62,14.2,1.5,3.08,3,3.13,5.39,1.13-8-4.69-6.14-14-10.34-21l4.91.67.31-1.08-3.55-3,1-1c1.85,2,4.28,3.73,5.43,6.09,2.17,4.41,3.3,9.33,5.42,13.77a26.78,26.78,0,0,0,6.87,8.54l-10.6-25.11,6.06,4.09.82-.65c-.89-1.57-1.78-3.14-2.88-5.06,9.53,5.44,9.95,17.53,17.27,24.19L198,168l-14.83-25.35,7.35,6.21c-.17-1.92-.28-3.06-.43-4.64,9.18,5.95,10.18,18.47,21.2,24.31L199.6,151.2c.56-2.35,5.73-.46,1.46-5.24,9.91,4.65,10.24,16.12,19.32,19.53-1.59-2.27-3.17-4.55-4.75-6.82l.44-.48L221,162l.76-1c-2-2.63-2.91-5.94-7.52-6.5-2-.24-3.63-3.82-5.67-6.17,6.65.75,12.67,5,16.93,11.46,2,3.1,3.7,6.81,8.19,6.92l-5.89-8.93,4.42,3,.95-1-6.07-8.39-1.09.66Zm78.24,16.85c2.54-5.49-2.84-15.52-10.88-19.26ZM112.55,204.16l2.21.15c-.8-8.55,4-16.86-.09-25.58ZM311.1,169.75c4.11-2.79,4.15-5.83,2.15-9.21-2.71-4.55-5.32-9.16-8.69-15C304.11,155.42,315.58,160.17,311.1,169.75Zm-3.43,2.49c3.21-11.23-5.43-16.32-10-23.16a13.81,13.81,0,0,0,2.19,6.16c3.06,4.48,7.89,8.12,6.19,14.63C306,170.28,306.75,170.92,307.67,172.24ZM127.89,220.56c-2,10.43,2.1,17.93,6.9,25.25C132.6,237.77,130.4,229.73,127.89,220.56ZM110.6,172.62c-1.72,10.38-3.45,20.75-5.29,31.9C110.68,194,110.4,183.29,110.6,172.62Zm31.11,65.85-3.93-22.13C135.4,224.27,137.58,231.45,141.71,238.47Zm-18.8,11.37c-1.81-7.33-3.63-14.65-5.62-22.65C115.79,235,117.32,241.83,122.91,249.84ZM329,163.33c3.09-3.47,2.42-6.18-5.44-20.26-1.69,4.35,1.63,7,2.58,10.17S328,159.88,329,163.33Zm-4.75,2.52,2-.72q-3.53-9.84-7.07-19.68l-2,.72Q320.72,156,324.25,165.85ZM147.51,210.73c-2.38,7.83-1.36,15.44,1.47,23Zm171.14-44.27c1.74-7.64-3.28-13-6.2-19.12l-1.2.45Q315,157.12,318.65,166.46ZM155.34,204.41c-3.49,5.55-3.3,17.6,0,21.51Zm174.57-61.7-1.16.46c1.85,6.1,3.71,12.2,5.94,19.54C336.77,154.19,332.47,148.68,329.91,142.71Zm9,15.35c1.44-5.17-.95-11.93-6.84-17.5C334.35,146.32,336.6,152.09,338.93,158.06ZM113.77,255.89c-5.15-5.89-2.46-14-6.12-20.81C106.3,243.48,109.69,254.84,113.77,255.89Zm169-98.21-1.2,1.41,13.18,13,1.47-1.54ZM86.27,254.39l-1.37-.23c.4,3.52-8,2.93-4,8.13l1-.88,4,1.08C86,259.76,86.13,257.07,86.27,254.39ZM101.36,285c.25-2,.41-3.38.66-5.37H85.76C90.57,284.91,98.05,275.83,101.36,285ZM366.74,142.72c-1.73,5.48,2.44,9.19,4.44,13.55C372.72,150.85,367,147.59,366.74,142.72Zm-27.65-1.83-1.15.41c1.63,5,3.25,10,5.07,15.63C345.74,150.08,341.6,145.7,339.09,140.89ZM94.7,207.55c-5.38,7-6.94,13.36-4.86,17C91.33,219.35,92.91,213.82,94.7,207.55Zm194-51.46-1.59,1.23,9.8,11.41,1.47-1.3ZM125.5,185.76l-2-.26v12.79l1.36.06ZM343,140.33c1.81,4.38,3.63,8.77,5.48,13.22C350.11,150.22,348.57,145.53,343,140.33ZM231.65,246.49l0-1.53H219.25a5.83,5.83,0,0,0,1,2.35C224.46,251.25,227.58,244.4,231.65,246.49Zm127.54-72.13c1.26-3.85,2.55-7.77,4.2-12.82C356.93,168.17,356.46,170,359.19,174.36Zm-3.43-33.25-1.61.46,4.29,12.31C360.85,148.75,356.87,145.32,355.76,141.11Zm7,30.36,2.19.9,5-10-1.78-.94Zm-13-29.38c1.08,3.78,2.17,7.57,3.4,11.88C355.28,149.75,354.51,146.53,349.74,142.09ZM167.05,279.73c-8.3.25-11.17,2.23-11.29,6.58Zm27.28-127.29-2,1.26,5.59,9.05,1.71-1.05Zm11.93,1.2-1.58,1.21,5.58,7.71,1.81-1.37Q209.18,157.41,206.26,153.64ZM117.85,290.53l0-1.09c-2.11.81-4.5,1.26-6.2,2.59-.83.65-.35,3-.49,4.83ZM140.4,184.88l-1.72-.16v11.19l1,0Zm120.28-16.19-1,1.65,10.76,5.5.81-1.57ZM353,175.34c1.19-4.15,2-7.07,2.85-10C349.53,166.51,350.88,170.2,353,175.34ZM83.11,230.49l1.63,0,.9-12.44L83.86,218Zm158.53-44.94,1-1.59-10-6-.86,1.49ZM365,153.88l1.88-.75-4.41-9.48-1.64.75Z"/><path class="cls-1" d="M74.12,300.63l1.75-2.43c-6.36-.73-13.28-10.17-12.55-15.81L74.43,285l-.06.59-5.7.33-.12.62,6.48,1.5c-.56.59-1.84,1.59-1.7,1.86,1.81,3.5,4.47,5.76,9.07,4.77l-1.94,7.15Z"/><path class="cls-1" d="M60.81,271.5l6.9,1.77-.11,1.2-7.11-.66c1,6.91,8.6,2.26,11,6.55-10.11.72-14.85-3.3-14.27-12.54,3.25,0,6.55-.06,9.83.06.58,0,1.13.86,1.7,1.31-.61.58-1.18,1.58-1.85,1.66a53.6,53.6,0,0,1-5.95.08Z"/><path class="cls-1" d="M64.34,253.61,58,254l-.17,1.14,7,1.05,0,.62-5.72.28-.14,1.21,7.8.92,0,1.35L57.9,261c-.64-4-1.23-7.65-1.88-11.74h8l.23.91-5.82,1.05,6.14,1.5Z"/><path class="cls-1" d="M59.74,231.4c.19-4.57-3.23-10.31,4.7-11.06C66,230,65.38,231.52,59.74,231.4Z"/><path class="cls-1" d="M70.8,220.85l-1.87-.71-.3,5.41c-.93-2.54-1.62-4.44-2.56-7l7.39-8.35.82.7Z"/><path class="cls-1" d="M103.29,158.24c-.83,1.11-1.6,2.29-2.52,3.33s-2.14,2.1-3.22,3.14l-1-.75,5.31-12.48,1.12.34a28.41,28.41,0,0,0-1.2,4.63c-.06.55,1,1.22,1.55,1.85C103.36,158.31,103.29,158.24,103.29,158.24Z"/><path class="cls-1" d="M77,190.07c1.31-4.69,2.83-9.16,10.5-8.43l-8.64,4.61h4.21l.33,1.07-6.54,2.59Z"/><path d="M245.81,158.84c-1.16-.34-2.56-.37-3.42-1.07-2.66-2.17-5.11-4.59-7.64-6.92l1.34-1.57,8.7,7.5Z"/><path d="M225.83,154.89l.18-2.84,1.09-.66,6.07,8.39-.95,1-4.42-3C227.14,156.82,226.48,155.86,225.83,154.89Z"/><path class="cls-1" d="M123.09,165.38V153.56l1.47,0V165.3Z"/><path class="cls-1" d="M67.49,266.42c-3.08,0-6.16.09-9.22-.11-.38,0-.79-1.61-.9-2.51,0-.44.56-1,.87-1.46.4.6.68,1.41,1.24,1.73a6.87,6.87,0,0,0,2.86.88c1.7.14,3.41,0,5.12,0Z"/><path d="M304.07,171.74l-10.88-19.26C301.23,156.22,306.61,166.25,304.07,171.74Z"/><path d="M112.55,204.16l2.12-25.43c4.06,8.72-.71,17,.09,25.58Z"/><path d="M311.1,169.75c4.48-9.58-7-14.33-6.54-24.18,3.37,5.81,6,10.42,8.69,15C315.25,163.92,315.21,167,311.1,169.75Z"/><path d="M307.67,172.24c-.92-1.32-1.69-2-1.58-2.37,1.7-6.51-3.13-10.15-6.19-14.63a13.81,13.81,0,0,1-2.19-6.16C302.24,155.92,310.88,161,307.67,172.24Z"/><path d="M127.89,220.56c2.51,9.17,4.71,17.21,6.9,25.25C130,238.49,125.9,231,127.89,220.56Z"/><path d="M110.6,172.62c-.2,10.67.08,21.42-5.29,31.9C107.15,193.37,108.88,183,110.6,172.62Z"/><path d="M141.71,238.47c-4.13-7-6.31-14.2-3.93-22.13Z"/><path d="M122.91,249.84c-5.59-8-7.12-14.86-5.62-22.65C119.28,235.19,121.1,242.51,122.91,249.84Z"/><path d="M329,163.33c-1-3.45-1.88-6.78-2.86-10.09s-4.27-5.82-2.58-10.17C331.42,157.15,332.09,159.86,329,163.33Z"/><path d="M324.25,165.85q-3.53-9.84-7.07-19.68l2-.72q3.54,9.84,7.07,19.68Z"/><path d="M147.51,210.73l1.47,23C146.15,226.17,145.13,218.56,147.51,210.73Z"/><path d="M318.65,166.46q-3.69-9.35-7.4-18.67l1.2-.45C315.37,153.47,320.39,158.82,318.65,166.46Z"/><path d="M155.34,204.41v21.51C152,222,151.85,210,155.34,204.41Z"/><path d="M329.91,142.71c2.56,6,6.86,11.48,4.78,20-2.23-7.34-4.09-13.44-5.94-19.54Z"/><path d="M338.93,158.06c-2.33-6-4.58-11.74-6.84-17.5C338,146.13,340.37,152.89,338.93,158.06Z"/><path d="M113.77,255.89c-4.08-1-7.47-12.41-6.12-20.81C111.31,241.89,108.62,250,113.77,255.89Z"/><path d="M282.76,157.68l13.45,12.88-1.47,1.54-13.18-13Z"/><path d="M86.27,254.39c-.14,2.68-.28,5.37-.42,8.1l-4-1.08-1,.88c-4-5.2,4.43-4.61,4-8.13Z"/><path d="M101.36,285c-3.31-9.21-10.79-.13-15.6-5.37H102C101.77,281.66,101.61,283,101.36,285Z"/><path d="M366.74,142.72c.28,4.87,6,8.13,4.44,13.55C369.18,151.91,365,148.2,366.74,142.72Z"/><path d="M339.09,140.89c2.51,4.81,6.65,9.19,3.92,16-1.82-5.61-3.44-10.62-5.07-15.63Z"/><path d="M94.7,207.55c-1.79,6.27-3.37,11.8-4.86,17C87.76,220.91,89.32,214.51,94.7,207.55Z"/><path d="M288.74,156.09l9.68,11.34-1.47,1.3-9.8-11.41Z"/><path d="M125.5,185.76l-.63,12.59-1.36-.06V185.5Z"/><path d="M343,140.33c5.62,5.2,7.16,9.89,5.48,13.22C346.58,149.1,344.76,144.71,343,140.33Z"/><path d="M231.65,246.49c-4.07-2.09-7.19,4.76-11.37.82a5.83,5.83,0,0,1-1-2.35h12.44Z"/><path d="M359.19,174.36c-2.73-4.41-2.26-6.19,4.2-12.82C361.74,166.59,360.45,170.51,359.19,174.36Z"/><path d="M355.76,141.11c1.11,4.21,5.09,7.64,2.68,12.77l-4.29-12.31Z"/><path d="M362.73,171.47l5.4-10,1.78.94-5,10Z"/><path d="M349.74,142.09c4.77,4.44,5.54,7.66,3.4,11.88C351.91,149.66,350.82,145.87,349.74,142.09Z"/><path d="M167.05,279.73l-11.29,6.58C155.88,282,158.75,280,167.05,279.73Z"/><path d="M194.33,152.44l5.31,9.26-1.71,1.05-5.59-9.05Z"/><path d="M206.26,153.64q2.91,3.77,5.81,7.55l-1.81,1.37-5.58-7.71Z"/><path d="M117.85,290.53l-6.74,6.33c.14-1.87-.34-4.18.49-4.83,1.7-1.33,4.09-1.78,6.2-2.59Z"/><path d="M140.4,184.88l-.72,11-1,0V184.72Z"/><path d="M260.68,168.69l10.59,5.58-.81,1.57-10.76-5.5Z"/><path d="M353,175.34c-2.15-5.14-3.5-8.83,2.85-10C355.06,168.27,354.22,171.19,353,175.34Z"/><path d="M83.11,230.49,83.86,218l1.78.07-.9,12.44Z"/><path d="M241.64,185.55l-9.89-6.12.86-1.49,10,6Z"/><path d="M365,153.88l-4.17-9.48,1.64-.75,4.41,9.48Z"/></svg>