<svg id="Layer_1" data-name="Layer 1" xmlns="http://www.w3.org/2000/svg" viewBox="0 0 300 300"><defs><style>.cls-1{fill:#fff;}</style></defs><title>Artboard 2</title><path d="M109.76,242.23l1.26-.09.33-.6c.35.76.66,1.13,1.15.2.15-.28.62-.38.78-.66a6.12,6.12,0,0,0,.43-1.38l3.27-2.19c-.3-1.41.33-2.19,2.16-2.5l-.21.8c1.2-.44.08-2.35,2.11-2.14l-1.31-.83c3.31-1.39,7-1.77,9.13-5l1.29-.85-3.37-.54-.38.46,1.17.61-.19.35c-.45-.28-1.07-.47-1.34-.88-.53-.84-1.06-.65-1.66-.21-1.3.95-2.58,1.93-3.88,2.87a3.14,3.14,0,0,1-.85.27l0,0a15.86,15.86,0,0,1,1.38-1.65c.73-.68,1.55-1.26,2.33-1.89l-.18-.35-2.14.61.59.79c-2.46.33-6.35-2.65-6.78-4.45,1.75,1.75,3.31,3.38,5.8,3.61a2.37,2.37,0,0,0-.73-1.14c-.46-.36-1.14-.53-1.47-1-1.65-2.15-3.31-4.31-4.75-6.6-.32-.5-1.12-1.26-.52-2.15l0,0c1.27,2,2.48,4,3.85,5.86.86,1.2,1.56,2.54,3.06,3.26a4,4,0,0,0,3.43,0,1,1,0,0,0,.24-.91,25,25,0,0,1-1.64-2.59,7.65,7.65,0,0,1,2.25,1.45c.6.79,1.2.56,1.88.51a2.89,2.89,0,0,1,1.2.16c.87-.36.46-.9-.16-1.15-2.25-.93-3.7-2.81-5.38-4.41a.94.94,0,0,1-.17-.85l3.18,3,.3-.26-1.09-1.46.2-.17c1.17.91,2.4,1.76,3.5,2.74a3.8,3.8,0,0,0,4,.78c-.38-1.33-4-3.59-5.18-3.39-1-1.09-2-2-2.76-3.14s-1.47-2.36-2.19-3.55l.31-.19,2.86,4.15c.7-1.44,1.25-2.57,1.79-3.7l.42.16a13.58,13.58,0,0,1-1,2.71c-.57,1-.49,1.63.4,2.2a26,26,0,0,0,3.69,2l-.33-.56.18-.24c.39.27.79.52,1.15.81s1,1.09,1.14,1a4.47,4.47,0,0,0,2-1.41c1-1.47,1.65-3.13,2.61-4.61s.79-2.83.58-4.38c-.59,2-2.8,3.07-3.12,5.26a3,3,0,0,0-2.32-2.76l.39,1.57-.43.1-.64-2.17c-1,.48-1.1.61-.55,1.32.86,1.09,1.84,2.09,3,3.41l.5-1.51c.86.92.32,1.89.24,2.95-1.78-1.42-2.72-3.6-5.06-4.22-.42.73-.78,1.48-1.26,2.15-.19.25-.63.31-1,.46a3.16,3.16,0,0,1,.16-1c.53-.93,1.15-1.8,1.67-2.73a1.52,1.52,0,0,0-.06-.91c-.06-.22-.38-.47-.33-.61a4.24,4.24,0,0,0-.65-3.66,14.79,14.79,0,0,1-1.42-3.93,2.58,2.58,0,0,1,.53.51c.42.84.82,1.7,1.19,2.56s.88.89,1.44.15c-.35.78-1.09,1.61.44,2.22a5.24,5.24,0,0,0,.47-1.38c0-.51-.06-1.21-.94-.8a9.32,9.32,0,0,0,.66-2,11,11,0,0,0-.23-2.14l.68.26a14.72,14.72,0,0,0-3.08-4.74,45,45,0,0,1-7.39-11.83,5.88,5.88,0,0,0-1.1-1.57c.55,5,2.26,9.68,4,14.36-1.35-1-.85-3-2.19-3.82-.27-1.07-.2-2.51-.86-3.06-1-.83-.68-1.85-.94-2.71-.75-2.54-1.22-5.16-1.76-7.76-.84-4.12-1.77-8.22-2.4-12.37a51.2,51.2,0,0,1-.31-7.23,2.51,2.51,0,0,1,1.75-2.38c.07.85.19,1.68.21,2.52.09,2.62.27,5.25.2,7.88a30.07,30.07,0,0,0,3.66,14.54c.45.89.92,1.76,1.42,2.62.07.14.31.19.67.39,2.5,3.84,4.62,8.29,7.58,12.22l.37-.1a12.21,12.21,0,0,0,.2-1.21,10.87,10.87,0,0,0-1.65-6.88c-1.24-1.92-2-4.16-3.1-6.16s-2.49-3.83-3.74-5.75a6.1,6.1,0,0,1-.37-.93c1.28.69.94,2.63,2.93,2.63l-5.2-8.42-.32.1,1.17,6.7-.3.06c-1.41-4.15-1.86-8.49-2.41-12.81s-1-8.78.17-13.18c.09,3.33.17,6.67.25,10h.34c0-.37.11-.74.15-1.11s.07-.62.1-.93l.32,0a24.67,24.67,0,0,0,0,2.72,37.13,37.13,0,0,0,.82,5.26c1.33,5,4.34,9.09,7.09,13.3a44.28,44.28,0,0,0,5.66,6.54l-1-2.64.84.5-.29-3.19.24-.06c.39,1.32.8,2.64,1.16,4a13.07,13.07,0,0,0,2.77,5.77,16.15,16.15,0,0,1,1.35,2.64c.08-1.32.22-2.65.2-4a17.08,17.08,0,0,0-.44-2.31,5.17,5.17,0,0,1,0-.68,8.73,8.73,0,0,0-.13-2c-.27-1-.74-2-1.08-3-.59-1.84-1.1-3.71-1.73-5.54a48.55,48.55,0,0,0-2-5.39c-1.61-3.33-2.21-7-3.33-10.45a15.19,15.19,0,0,1-.21-3.59c-.15-2.35-.34-4.7-.49-7.05a5.55,5.55,0,0,1,.15-1.06l.93.86c-.27-1.08,1.12-2.3-.49-3.43L129,151.4l-1-.35c-.38,1.14-.74,2.3-1.15,3.43-.1.28-.39.48-.49.75a2.76,2.76,0,0,0-.15,1.14,6.44,6.44,0,0,0-.62,2c.08,1.81.33,3.61.53,5.42,0,.44.15.88.23,1.33l-.35.09c-.21-.64-.43-1.27-.62-1.91a13.78,13.78,0,0,1,.63-10c.59-1.25,1.36-2.41,2.07-3.6a3.25,3.25,0,0,0,.15-3.36,6.07,6.07,0,0,1-.35-1.3l.43-.19,1.3,2.47c2.15-2.54,4.6-4.83,5.85-8.06l.56.21c-5,8.63-6.31,17.64-3,27.19a4.39,4.39,0,0,0,.3-.45,1.84,1.84,0,0,0,.05-.35l.36-.06c.33,1.18.62,2.36,1,3.53s.48,2.58,1.66,3.52c.58-2-.74-3.84-.3-5.7l.39,0c.38,1.86.68,3.74,1.16,5.58.86,3.28,1.81,6.55,2.77,9.81.09.32.5.54.78.83V180l.05,0a12.43,12.43,0,0,0,0-2.59,10.73,10.73,0,0,0-1-2c-.19-.41-.65-1,.39-1,.1,0,.2-.42.36-.79l-1.45.16-.43-1.24,1.6,1a36.06,36.06,0,0,1,0-4.31,7.45,7.45,0,0,0-.37-4c-.27-.65.19-1.58.16-2.38-.07-2-.28-3.95-.31-5.93,0-1.08.34-2.18.25-3.25-.16-1.92-.57-3.81-.8-5.72-.06-.5.33-1.08.22-1.56a8.93,8.93,0,0,0-.88-2,21.75,21.75,0,0,1-1.48-3.38,44,44,0,0,1,2.77,3.48c.93,1.42,1.67,3,2.52,4.46.21.38.14,1.14,1,.88a1.77,1.77,0,0,1,.29.56c.65,2.09,1.27,4.19,1.94,6.28a2.2,2.2,0,0,0,.85,1.08v-1.93l.49,0-.24,2.76.49-.21c.33,1.53.33,1.53-.13,1.79a6.34,6.34,0,0,1,.56,1.1c.5,1.87.88,3.78,1.48,5.61a49.2,49.2,0,0,0,2,5.25c.72,1.62,1.61,3.18,2.43,4.78l-.93.72-1.84-3.93-.32.16c.48,1.19,1,2.37,1.42,3.58a5.37,5.37,0,0,1,.12,1.4l-.41.12,3.4,6.57c.94-3.71.92-3.8-.9-4.3l1.88-.46.23-.87h.16l.1,1.16c.59-2.86,2.09-5.61.88-8.84l-.48,5.41-.33.05a2.43,2.43,0,0,1-.2-.87c.64-3.29.09-6.53-.19-9.8a14.46,14.46,0,0,0-.88-4.62,48.9,48.9,0,0,0-3.14-6c-1-1.57-2.45-2.84-3.33-4.46a41.57,41.57,0,0,0-3.08-4.17,18.66,18.66,0,0,1-1.6-3.77l.41-.25c.55.66,1.05,1.37,1.65,2a19.41,19.41,0,0,0,1.95,1.66c3,2.27,4.56,5.45,6,8.78.54,1.32,1.14,2.62,1.72,3.93,1,2.24,1.95,4.49,3,6.8,1.48-.82,1-2.13,1.06-3.06a11,11,0,0,0-.49-4.26,43.44,43.44,0,0,0-2.79-7.33,29.57,29.57,0,0,1-1.83-4.78,29.59,29.59,0,0,0-2-4.62c-1.83-3.53-3.74-7-5.62-10.55-.25-.47-.45-1-.67-1.46,0,0,.11-.09.31-.28.73,1.37,1.43,2.71,2.16,4,1,1.85,2,3.71,3.15,5.52a4.22,4.22,0,0,0,1.56,1.28,94.22,94.22,0,0,0-6.59-15.13l.38-.21,5,7.92.28-.14-4.14-8.43.22-.17,2.44,3.26-.38-2.88,1.56.44-.77-1,.17.05-.92-4.2c1.41.88,1.84,2.2,2.47,3.58.65-1.92,1.38-3.82,1.92-5.77a2.93,2.93,0,0,0-.51-1.76c-.44-.88-1-1.7-1.51-2.55l.26-.2,2.22,2.57,1.36-7.42.23-.13a6.22,6.22,0,0,1,.43,1.35c.05.59-.11,1.19-.06,1.77a3.39,3.39,0,0,0,.48,1c.08.18.2.4.15.56a25.81,25.81,0,0,1-.8,2.49c-.66,1.63-.6,2.12.73,3.21.64.52,1.34.95,2.17,1.52l.35-3.27a48,48,0,0,0,1.23,6,32.06,32.06,0,0,0,2.76,5.49,25.32,25.32,0,0,0-2.8-12.45l.38-.17,1.59,3.27a22.1,22.1,0,0,1,2.08-10.12l.8,1.42-.3.1c-.06-.14-.12-.27-.24-.57-1,2.6-1.92,5-1.17,7.9l.26-1.3.28,0a24.25,24.25,0,0,1,0,3.19,23.57,23.57,0,0,0,1,9c.09.37.46.67.66,1a2.89,2.89,0,0,1,.54,1.1,23.32,23.32,0,0,0,1.65,7.3c.32.75-.08,1.81-.23,2.72-1.32-3.1-1.11-6.77-4.12-9.34,1.7,4.64,2.2,9.44,4.56,13.93l.24-1.16,1.38,6.44.41,0,.77-4,.63.07c-1.12,4.45-.53,8.83.4,13.32,3.16-4.73,3.59-10.23,4.82-15.51,1.36-.24,1.51-.49,1.5-.81a9,9,0,0,1,.45-1.56c.16-.33.56-.54.8-.85a1.49,1.49,0,0,0,.15-.62c.06-.54-.07-1.2.2-1.6,1.5-2.27.91-4.82,1.12-7.26a3.17,3.17,0,0,1,.21-1.27v9.64c-.92,1.36-1.59,3.91-1,4.83l3.16-8.6-.34-.18-1.1,2.54-.35-.12c.24-.76.45-1.52.73-2.27,2.12-5.63,4-11.33,4.58-17.37.1-1.06.2-2.12.37-3.16,0-.29.33-.78.5-.78.68,0,.08.54.14.59.9.9.23,1.7-.06,2.57a8.63,8.63,0,0,0-.17,1.92c-.22,2.14-.42,4.28-.66,6.42a40.22,40.22,0,0,0-.42,5.33c.66-2.19,1.32-4.37,2-6.56,0,0-.31-.11-.55-.19.43-.47,1.68-.61.7-1.66-.14-.14.26-.75.36-1.15.5-2.05,1-4.1,1.47-6.15,0-.14.18-.25.35-.49v1.87l.31-.15c.17.27.52.6.46.81-.57,2.12-1.23,4.22-1.85,6.33-.37,1.28-.72,2.58-1.1,3.94.87.09,1-1.5,2-.64h0l-2.89,4.67c-.11.16-.16.41-.31.48-2.12,1-2.63,3-3,5.06-.08.5-.07.83-.79,1.11s-.94,1.46-1.47,2.38c1.49-.18,1-1.7,2.1-2.15.77-.3,1.15-1.57,1.51-2.11A13.32,13.32,0,0,0,189.2,137c1-1.18,1.89-2.41,2.85-3.6.1-.12.33-.12.69-.24-.49,1.88-2.57,2.76-2.57,4.6a20.1,20.1,0,0,0-1.76,1.44,28.88,28.88,0,0,0-2.14,2.55,11.82,11.82,0,0,0-.78,1.45c-.15.25-.38.69-.53.67-1.79-.2-1.43,1.35-1.86,2.23a4.63,4.63,0,0,0-.22,1.12l.26.18,1.65-2.74.51.82c1.3-1.46,2.58-2.77,3.71-4.22s2.09-3,3.14-4.55c.36,1.71-.77,2.78-1.56,4-1.17,1.87-2.28,3.78-3.37,5.71-.82,1.43-1.57,2.9-2.34,4.37-.21.39-.36.83-.53,1.24l.33.2,5.4-7.54.14.68.63-.33a62.41,62.41,0,0,0-9.1,15.85,25.42,25.42,0,0,0,2.1-2.32c2.1-3,4.14-6,6.22-9a9.78,9.78,0,0,1,.85-1l0,0c-.54,1.08-1,2.2-1.63,3.24-.75,1.3-1.63,2.52-2.4,3.81a2.74,2.74,0,0,0-.14,1l.3.15.75-1-.13-.06c.46-.45.94-.88,1.37-1.35,1.66-1.8,3.31-3.6,5-5.39.08-.09.27-.08.41-.11l.22.26a13.49,13.49,0,0,0-2.37,2.27c-.54.83-1.84,1.28-1.77,2.84.76-.47.75-1.62,1.43-1.05a10.71,10.71,0,0,1,1.23-1.31c2.85-2,4.38-3.86,5.24-6.34l-1.52.74a27.2,27.2,0,0,0,2.44-3.64c1-2.17,1.77-4.42,2.54-6.67s1.36-4.41,2.06-6.6a9,9,0,0,0,.61-2.11l-3.82,6.11-.35-.2c2.69-5,5.52-10,6.47-15.8l-4.42,6.37-.29-.1a6.78,6.78,0,0,1,.5-1.58A68.4,68.4,0,0,0,209.17,108c.9-2.74,1.08-5.71,1.6-8.57.29-1.59.63-3.16.89-4.75a34.42,34.42,0,0,0,.82-6.33c-.06-1.56-1-3.09-1.6-5a8.81,8.81,0,0,0-.72,6c.19.7-.3,1.59-.47,2.4-.55,2.6-1.1,5.21-1.56,7.84,1.26-2.84,1.72-6,3.07-8.76l.49.15a16.25,16.25,0,0,1-.39,1.6q-1.65,4.89-3.34,9.76a.85.85,0,0,1-.4.37c-.84.36-1.75.48-2.11,1.64a32.31,32.31,0,0,1-1.86,4.12c-.08.18-.32.28-.62.36a70.93,70.93,0,0,0,6.11-29.75,5,5,0,0,1,1.48,3.22c.39.21.93.31,1,.58a38.56,38.56,0,0,1,1.82,5.67,5.86,5.86,0,0,1-.49,3.25c-1.13,2.61-1.25,5.38-1.6,8.12-.15,1.19-.43,2.36-.48,3.55-.13,3-.22,6-.21,9a41,41,0,0,1-2.12,13.5,70.58,70.58,0,0,1-2.43,6.66c-1.08,2.36-2.5,4.58-3.71,6.89a18.73,18.73,0,0,0-.55,2,34.4,34.4,0,0,1-5.89,9.45c-.27.33-.89.35-1.24.65-.7.59-1.31,1.27-2,1.91-1.85,1.78-3.77,3.48-5.52,5.36-1.35,1.43-2.44,3.11-3.72,4.61a9.39,9.39,0,0,1-1.73,1.29c-.57.4-1.14.81-1.73,1.19-.11.07-.3,0-.46,0,1.58-1.59,3.2-3.14,4.74-4.77a14.07,14.07,0,0,0,1.34-2l-.26-.2a13.16,13.16,0,0,0-1.59,1.37c-1.13,1.31-2.91,2-3.61,3.71-.25.63-.4,1.3-.6,1.95l-1.84,3.29.35.33c1.16-.87,2.6-1.53,3.42-2.65a29.68,29.68,0,0,1,7.66-7.86,2.09,2.09,0,0,1,1.18-.37L184,164.62l.29.36c3.09-2.44,6.32-4.73,9.23-7.37s5.32-5.48,8.21-8.5l-.23.87a27,27,0,0,1-.79,3.22,28.31,28.31,0,0,1-1.86,4.22c-.9,1.61-2,3.1-3,4.65a3.81,3.81,0,0,0-.18.88l4.58-3.9.19.17c-.62.7-1.25,1.39-1.85,2.11s-1.27.95-1.1,2c.06.36-.87.88-1.38,1.3-2,1.66-3.93,3.34-5.95,5-1.2,1-2.38,2.26-3.77,2.62-2.1.55-3.28,2.22-5,3.14s-3.52,2.16-5.27,3.26c-.09.06-.14.18-.11.44l3.68-1.77c2.75-1.33,5.54-2.58,8.22-4,2.89-1.56,5.75-3.22,7.2-6.45a7.21,7.21,0,0,1,1-1.34l.32.2-1,2,.16.11,1.93-2.73c.36,2.12-1,3.37-2,4.73-.74,1-.77,1.07-.46,1.63l-2,2.4.24.26,3.73-3.2.32.36-3,3c3.54-1,6.33-3.38,10-3.18l-7.31,6.37c-.09.08-.27.17-.26.22.43,1.84-1.26,2.15-2.19,2.9a5,5,0,0,0-1.88,2.28c-.15.42-.73.67-1,1.07a20.35,20.35,0,0,0-1.39,2.76c3.82-2.38,7.46-5.14,12.21-5.46a26.38,26.38,0,0,0-9.09,4.66h7.23l0,.17c-.8.16-1.6.35-2.4.47-2.44.35-4.89.62-7.31,1.06a2,2,0,0,0-1.39,1.17c-.31,1.36-1.5,1.68-2.34,2.41-.42.36-.9.66-1.32,1-1.3,1.13-2.59,2.28-4.08,3.59.45,0,.7,0,.8-.06.76-.76,1.9-1,2.54-2a9.12,9.12,0,0,1,2.13-1.84c.86-.7,1.74-1.37,2.57-2.11.2-.17.2-.56.34-1l1.48-.32c-2.59,4.61-6.91,7-10.92,9.68l.27.37,3.54-2.2a5.14,5.14,0,0,1,.67-.48c1.73-.69,3.44-1.44,5.22-2a11.16,11.16,0,0,1,7.07.44c-1,0-2.11.08-3.15,0a7.63,7.63,0,0,0-4.94,1.46c-1.45.9-3.12,1.45-4.59,2.32s-2.81,2-4.21,3a1.46,1.46,0,0,0-.59.79L191.35,197l.13.22-2.54,1.62,1.32.19.12.37c-1.06.53-2.1,1.11-3.19,1.58-2.23,1-4.58,1.75-6.72,2.91-1.27.69-2.19,2-3.35,3-1.54,1.25-3.11,2.47-4.74,3.58-1.93,1.31-3.92,2.53-5.93,3.71-3,1.8-6.11,3.53-9.16,5.3a4.46,4.46,0,0,0-1.27,1.08,73.44,73.44,0,0,0,9.94-4.3c3.21-1.7,6.55-3.15,10.08-4.82.32-1.06.65-1.26,2.21-1.24a2.48,2.48,0,0,0,1-.39c.41-.19.81-.41,1.22-.61l.37.32a6.08,6.08,0,0,1-1,1.46c-.88.73-1.89,1.13-2.36,2.47-.39,1.11-1.7,1.9-2.56,2.86a5,5,0,0,0-.51,1.1l-2.61,2.06.24.33c1.15-.58,2.29-1.19,3.46-1.74.29-.13.69,0,1-.08,1-.21,1.91-.44,2.85-.72a4.09,4.09,0,0,1,1.15-.35l-.4.6.06.34,7.34-1.86.12.36c-.19.16-.35.42-.56.48a4.79,4.79,0,0,0-2.78,2.29,1.78,1.78,0,0,1-.67.61c-2.36,1-4.74,2-7.11,3.09-.45.2-.85.52-1.29.68-2.69.36-5.11,1.75-7.59,2.1a2.88,2.88,0,0,1,0,.64c-.84.2-1.71.34-2.54.59-.32.09-.57.42-.85.63s-.35.34-.46.31c-1.59-.5-2.8.58-4.15,1a43.81,43.81,0,0,1-6.39,1.67,33.79,33.79,0,0,0-5.4,1.7,14.62,14.62,0,0,0-3.27,1.56l10.09-1.7.07.32c-1.6.34-3.2.7-4.81,1s-3.28.54-4.89.93-3.25,1-4.95,1.48c.25.91-.1,1.32-.92,1.41a3.56,3.56,0,0,0-2.54,1c-.62.66-1.84.75-2.78,1.12a2.26,2.26,0,0,0-.48.35c.22.1.49.33.66.27,2.19-.76,4.35-1.6,6.55-2.33,3.49-1.15,7-2.23,10.5-3.3.16,0,.42.26.46.29a9.73,9.73,0,0,1,1.56-1c1.05-.39,2.17-.57,3.19-1,1.86-.8,3.64-1.78,5.51-2.57,1.44-.6,2.95-1,4.43-1.53l.35.35-.81.3.07.22,7-2.43.09.16-2,1.08c5.19,0,10-1,14.83-.06v.34l-8.9.36-.06.25,1.23.54a7.89,7.89,0,0,1-1.28.11c-3.69-.33-7.08.95-10.43,2.14-.89.32-1.4,1.7-1.85,2.29l3.45-.54.07.41c-4.59,1.38-9.65,1.36-13.79,4.81.37-1.11,2.27-2.45,3.24-2.89,2.49-1.13,5.26-1.81,7-4.23.43-.59,1.31-.83,2-1.23l-.15-.3c-1.87.92-3.79,1.73-5.58,2.79-2.3,1.36-4.49,2.91-6.74,4.36a1.44,1.44,0,0,1-1.21.1L156.1,235l-.11-.2L128.1,243l.14.48L140.06,240c3.87-1.13,7.75-2.22,11.8-2.21l.08.57a22.21,22.21,0,0,0-2.83.26,21.09,21.09,0,0,0-3.05,1,18.66,18.66,0,0,0-2.75,1.39c1.66,0,3.33.09,4.86-.8.33-.19.84-.77,1.09.15a3,3,0,0,0,.83-.11c.41-.1.82-.24,1.22-.36l.16.31-6.33,3,.07.33H148v.2l-4.71.74,0,.17,1.62.51c-2.18.39-4.23.69-6.25,1.14s-4,1.08-6,1.64c-.25-.72-.62-.66-3.24.79l7.32-.49,0,.29c-1.07.23-2.13.5-3.21.68-.85.14-1.74.07-2.58.27-3,.72-6,1.48-9,2.31-1.8.5-3.55,1.19-5.35,1.7-.6.17-1.37.64-1.85-.45-.11-.24-1.11,0-1.68-.13-1.21-.25-2.4-.59-3.61-.86a2.26,2.26,0,0,0-.82,0c-.66.12-1.31.27-2.33.49a10.23,10.23,0,0,0,2.15,1.26,39,39,0,0,0,4.32.76,1,1,0,0,0,.75-.27c.71-.74,1.22-.47,1.66.24l-3.24.86c1.59,1,3.13.46,4.69.4l-1.26.51,1.69.56,0,.38c-4.59-.92-8.66,1.07-13,1.84l0,.39,2.54,1-.11.32c-1.23-.35-2.44-.73-3.68-1-1-.22-1.94-.24-2.89-.46a16.1,16.1,0,0,1-1.79-.74,2.55,2.55,0,0,0-1.15-.1c1,.94,2.43,1.19,3.52,2.18s2.81.94,4.2,1.59c-1.67.12-3.35.17-5,.36-1.45.17-2.88.55-4.32.72a6.75,6.75,0,0,1-1.62-.29,7,7,0,0,1-1.27-.21L87,261.4l-.08.25a3.84,3.84,0,0,1,.79.25,11.07,11.07,0,0,1,2.11,1.25,2.11,2.11,0,0,0,1.85.7,3.16,3.16,0,0,1,2.09.75c.84.65,1.6.31,2.42.17.43-.08.87-.08,1.31-.12l.06.38c-1.36.39-2.71.8-4.08,1.15a2.88,2.88,0,0,1-1-.1c-1.58-.23-3.09-1.12-4.79-.15-.45.25-1.49-.15-2-.54-1.29-.93-2.66-.4-4-.48a6.92,6.92,0,0,1-1.19-.22c-1.09-.25-1.27-.82-.66-1.74.15-.24.11-.6-.07-1.18a37.35,37.35,0,0,1-3.49,2A37.84,37.84,0,0,1,72.34,265l-3,.93c-.82.25-1.48.3-1.65-.85-.05-.4-.49-.75-.78-1.17a12,12,0,0,1,5.35-4.4c.53-.22.94-.75,1.47-1a24.9,24.9,0,0,1,2.65-.84l-.74,2.12c-1.47.71-2.94,1.39-4.37,2.15a1.05,1.05,0,0,0-.37.83c0,.13.51.4.72.35,1.32-.32,2.83-.44,3.87-1.19.7-.52,1.21-1.36,2.18-1.58.46-.1,1-.36,1.38-.23,2.11.65,3.59-.78,5.18-1.59,2.12-1.07,4.1-2.43,6.11-3.71a1.64,1.64,0,0,0,.42-1,11.62,11.62,0,0,0,.13-1.31l.93,1a5,5,0,0,1,.36.46c1-.58,1.85-1.11,2.73-1.68,1.31-.86,2.66-1.67,3.89-2.64,2.65-2.1,5.19-4.33,7.84-6.43,1.72-1.36,3.55-2.57,5.35-3.83.15-.11.43-.05.65-.07l.18.32a10.05,10.05,0,0,1-1.06.79c-.57.35-1.2.61-1.75,1-.16.11-.12.51-.17.77l-2.2,1.2.19.41,2.37-1.17ZM177.7,201.1c1.27.89-.61,1.13-.38,1.9a5.92,5.92,0,0,0,3.27-3l-2.86,1.14-3,1.35a2.6,2.6,0,0,0,1.35.12C176.88,202.38,177.78,202.24,177.7,201.1ZM138,219a5.41,5.41,0,0,0,3.11-3.23,18.15,18.15,0,0,0-2.53,1.65c-.36.34-.38,1.06-.57,1.6-1.16-.68-2.1-.23-2.7,1.33Zm24.89-48.65v-3l-.29,0-.47,3.57.3.07.49-.64c0,.16.07.35,0,.47-.67,1.31-.76,2.79-1.31,4.14a23.83,23.83,0,0,0-.78,3.72c-.55,2.43-1.07,4.88-1.74,7.28a14.69,14.69,0,0,1-1.33,2.66l-2.41-1.13a5.91,5.91,0,0,0,.41,1.4,12.63,12.63,0,0,0,1.07,1.27c.75.9,1.23.9,1.75-.14s1-2.39,1.58-3.65l.44.51a7.47,7.47,0,0,0,.59-1.16c1.15-3.76,3-7.35,2.9-11.44,0-.53.51-1.06.78-1.59l.29.14c-.09,2-.18,4-.28,6.19,1-1.26,1.26-10,.46-11.41l-1.12.81c.19-.73.44-1.45.57-2.19.24-1.34.15-1.6-.9-2.36l.34,4.53v2.25h-.17l-.46-1.18Zm-12.65,10.06c1.08,3.78,2.09,5.55,3.88,6a6.34,6.34,0,0,0-.19-1.85,59.58,59.58,0,0,0-2.78-5.88,6.73,6.73,0,0,1-1.13-3.33,1.45,1.45,0,0,0-.19-.55c-.48-1.1-1.06-2.16-1.44-3.28-.73-2.19-1.36-4.4-2.06-6.66l.94-.12c-.54-2.24-1-4.37-1.56-6.5s-1.88-3.54-2.53-5.46l-.36.17q1.25,5.52,2.5,11l-.37.09a10,10,0,0,1-.44-1.19c-.77-3-1.5-5.94-2.3-8.9-.34-1.24-.2-2.72-1.7-3.63l.32,2.32c.21,1.47.53,2.94.6,4.42.06,1.14-.26,2.29-.26,3.44a2.24,2.24,0,0,0,.6,1.56,1.32,1.32,0,0,1,.34,2c-.46.68-.33,1,.38,1.28.19.08.25.48.38.73l-.44.19a9.59,9.59,0,0,1,.45,1.16c.43,1.72.85,3.44,1.22,5.17.18.85,1.15,1.56.46,2.57-.07.1.09.38.16.56,1.12,2.73,2.17,5.48,3.37,8.17a27.48,27.48,0,0,0,2.11,3.3,8.72,8.72,0,0,0-1.29-6.27l1,1.13Zm-6.14,61.92-.15-.42a65.37,65.37,0,0,0-14.08,4.15l5.11-3.44.19.26-1,.91.21.31,4.48-2.67a.88.88,0,0,0-.81-.14,28.32,28.32,0,0,0-2.73.77c-2.83,1.07-6,1.31-8.51,3.22a1.25,1.25,0,0,1-.56.12c-.76.08-1.52.14-2.28.23-.5.05-1.34.33-1.42.17-.5-.9-1.24-.44-1.81-.39-2.57.22-5.13.55-7.84.85,4,1.9,8.2,1.5,12.33,1.52l0,.38L111,251.29l.8.47c1.8,1.11,3.64.3,5.37-.1,2.41-.57,4.72-1.52,7.09-2.27,1-.32,2.07-.5,3.07-.85q5.8-2,11.56-4.14C140.62,243.75,142.35,243,144.1,242.33Zm19.34-54.21.33.14c.31-.34.65-.66.93-1,1.7-2.24,3.33-4.53,5.09-6.72.77-1,1.34-1.85.84-3.11a.83.83,0,0,1,.18-.64c1.26-1.5,1.71-3.48,3.07-4.95a37.32,37.32,0,0,0,2.67-3.75c0-.06.13-.08.26-.15l.48.57.62-.89-.87-.12,2.63-3.69-.22-.15-2.82,1.63c.19-.54.21-.87.38-1,1-.8,2-1.52,2.93-2.37.4-.37.89-1.08.78-1.46-.24-.8.17-1.11.57-1.61.66-.83,1.2-1.76,1.79-2.65l-.33-.24c-1.5,1.7-3.4,3-4.45,5.17s-2.74,4.1-4,6.24a16.61,16.61,0,0,1-3.81,4.71l.21-1.42a16.38,16.38,0,0,0-1.32,2.32,6.33,6.33,0,0,1-1.09,1.83c-.47.46-.27,1.61-.36,2.45h.21l1.18-1.87-1.11,6.6-.55,0-.23-5.31a2.92,2.92,0,0,0-.51,1c-.9,2.2-1,4.64-2.18,6.77A23.18,23.18,0,0,0,163.44,188.12Zm2.9,2,.32.31c8-2.42,14.68-7.07,21.22-12.06a.64.64,0,0,0-.55.14c-3.11,2.18-6.18,4.44-9.76,5.85a9.53,9.53,0,0,1-1.72.35l-.08-.39a7.19,7.19,0,0,0,1.53-.57c1-.62,1.81-1.42,2.8-2,1.59-.89,3.28-1.58,4.86-2.46a26.6,26.6,0,0,0,2.94-2,9.88,9.88,0,0,0,1.17-1.21c-2.16.51-3.4,2.46-5.54,2-3.49,1.6-7,3.25-10.49,4.76-.89.38-1.9.43-2.39,1.43-.24.48-.43,1-.71,1.46-.6,1-1.25,1.89-2.06,3.09l-.17-1.58h-.23Zm3-42.84-.39.07a6.64,6.64,0,0,0,0,1.18,40.06,40.06,0,0,1,0,13.29,4.84,4.84,0,0,1-1.71,3.36l-.29-1.32-.43,0v11.86l.14.08,1.44-7.45h.17v3.31l.36.05,1.71-7.13.47.09-.34,2.75c1.8-2,1.51-4.21,1.64-6.51l.57,1c-.09-1.52.52-3.08-.75-4.43-.41-.43-.19-1.43-.31-2.17s-.28-1.43-.46-2.14c-.1-.37-.33-.69-.44-1.06C170.29,150.53,169.82,148.91,169.34,147.29Zm20.4,34.57c-2,1.06-3.8,2.08-5.66,3.06-1.5.79-3,1.58-4.54,2.28-.84.39-1.8.5-2.62.91a20,20,0,0,0-2.58,1.63,9.62,9.62,0,0,0-1,.9l1.05.1c-2,1.17-3.93,2.08-5.82,3.14A5.81,5.81,0,0,0,167,195.5c-.15.19,0,.59,0,.88a1.13,1.13,0,0,0,.48-.11c3.41-2.05,6.82-4.08,10.19-6.18a6.71,6.71,0,0,0,1.26-1.38l-.19-.28,1.46.23c-.13-.22-.28-.43-.27-.44,1.88-1.25,3.51-3,6-3.23-.07.17-.08.36-.18.43a107.07,107.07,0,0,1-19.52,12.26C170.45,197.51,189.31,184.86,189.74,181.86Zm-57.18,15.48-.29.18c.23,1.65-1,3.43.82,5.15l-1.28-.29.48,1.6.69-.16a25.38,25.38,0,0,0,2.38,5.33l-.91-.86v3.4h-.31c0-1.05-.06-2.11,0-3.16a2.2,2.2,0,0,0-1.24-2.43,1.4,1.4,0,0,0-.15.33c-.24,1.23.15,2.67-1.21,3.54-.13.09-.15.7,0,.77a10.14,10.14,0,0,0,2.54,1.38c1,.28,1.64-.59,2-1.39a46,46,0,0,0,1.7-5.09,10,10,0,0,0,0-2.51l-.39-.05-1.4,4c-.19-1.07.69-2-.16-2.84l.82-1.51Zm26.78-58,.51-.17c-1.13-4.12-2.25-8.25-3.45-12.64,2.78,3,3.33,6.81,5.39,9.83l.29-.08q-1.52-5-3-10l.47-.18,1.2,2.27c-1.07-3-1.77-6.21-4.07-8.7A25.89,25.89,0,0,0,156,123c-.48,3.17-1.27,6.34.67,9.35a8,8,0,0,1,.56,1.54C158,135.74,158.64,137.56,159.34,139.39Zm17,22.21.49.26c.58-.82,1.76-1.32,1.25-2.71,1.1-1,2.27-1.93,3.29-3s2.24-2,2.41-3.16a14.57,14.57,0,0,1,1.84-4.67c.65-1.28,1.29-2.58,2-3.94-1.93,1.38-3,3.44-5,4.57a1.86,1.86,0,0,0-.65.83c-.81,1.82-1.54,3.68-2.39,5.48C178.5,157.4,177.39,159.49,176.31,161.6ZM150.8,206.1l.32.25c.77-.74,1.56-1.46,2.29-2.24s1.7-1.87,2.51-2.84c1-1.14,1.29-2.86,3.06-3.3.27-.07.5-.5.67-.81.45-.85.85-1.74,1.29-2.61a8.16,8.16,0,0,0,.69-1.21c.43-1.32.8-2.67,1.2-4l-.61-1.09c-1,1.64-2,3.23-3,4.88-1.17,2.11-2.15,4.34-3.43,6.39a48,48,0,0,1-3.19,3.86C152,204.22,151.41,205.18,150.8,206.1Zm11.5-74c.93,2.67.8,5.56,2.46,7.94,0,0,0,.15.05.23.45,1.87.91,3.75,1.35,5.63.84,3.57,1.68,7.14,2.53,10.78C168.34,148,167.63,139.46,162.3,132.05ZM148,199.57c.48-.38.82-.51.87-.71.45-1.76.9-3.53,1.24-5.31.22-1.16-.26-1.6-1.55-1.7-.36,0-.71-.22-1.05-.2s-.61.26-.63.43a9.18,9.18,0,0,0,0,2.34c.06.42.51.79.78,1.18l.48-.1c-.28,1.46-.55,2.92-.85,4.38-.17.85.28,1.44,1.11,1.27a9.26,9.26,0,0,0,2.47-.85,1.78,1.78,0,0,0,.68-1.26,14.34,14.34,0,0,0-.11-2.44c0-.73-.12-1.46-.19-2.19h-.35c-.34,1.12-.66,2.25-1,3.36s-.07,2.35-1.43,3.06Zm-2.11-14.75-3.59-5.19a11.68,11.68,0,0,0,.06,2.07c0,.6-.13,1.21-.17,1.81a1.67,1.67,0,0,0,.07.71c.43,1.14.85,2.28,1.34,3.38a5.63,5.63,0,0,0,4.72,3.09c-.7-1.06-1.3-2-2-2.95-.39-.54-.94-1-1.32-1.49C144.41,185.4,144.63,185,145.88,184.82Zm17.26-30.15c1-2.83-3.47-15.38-7.11-19C158.41,142,160.79,148.4,163.14,154.67ZM136,199.92l.24-.22a6.26,6.26,0,0,1-.39-.51c-1-1.68-2.37-3.27-2.75-5.08a8.91,8.91,0,0,0-1.42-4.06c-.87-1.08-1.7-2.19-2.56-3.28-.68-.86-1.38-1.7-2.07-2.55l-.31.19L131,193.2l.14-1.36.46-.18c.46,1.44.5,3,1.43,4.31A18.94,18.94,0,0,0,136,199.92Zm18.2,9.28c.85.18,1.67.63,2.32.45,1.83-.5,3.59-1.25,5.36-1.92a16.16,16.16,0,0,0,1.45-.75,8.77,8.77,0,0,0-2.41-.07c-1.14.32-2.21,1.26-3.38,0l1.27-.4-.76-.83c.86-.42,2.07.48,2.37-.88-2.28-1.48-3.08,1.23-4.67,1.74C155.09,206.78,154.77,208.23,154.24,209.2Zm17.06,10.29-.32-.4-14.74,5.81a51.26,51.26,0,0,0,8.2-1.61,30.71,30.71,0,0,0,5.27-2.46A9,9,0,0,0,171.3,219.49ZM86,260.16c2.75.86,5.2,1.64,7.66,2.38.55.16,1.5.36,1.66.13.71-1,1.77-.55,2.63-.83a7,7,0,0,1,1.13-.19,13.46,13.46,0,0,0-2.5-.49c-.91-.19-1.63-1.18-2.78-.66l.79.9-.15.31c-.26-.09-.63-.1-.76-.28a3.19,3.19,0,0,0-2.48-1.22,5.31,5.31,0,0,1-2.61-.65C87.52,258.72,87,259.3,86,260.16Zm104.43-94.25-.28-.26-1.77,1.06c-2.56,1.58-5.13,3.15-7.67,4.77a4.92,4.92,0,0,0-.92,1.05,22.88,22.88,0,0,0,9.35-4.92A10.86,10.86,0,0,0,190.42,165.91Zm-50.58,43.61c-.81-1.44.82-1.09.92-1.77s.74-1.44,0-2.36l-.42.79-1-2a6.88,6.88,0,0,0-.78,1.72c-.14,2.49-.2,5-.29,7.54,1.52-.53,2.44-3,2.26-4.36,0-.13,0-.27-.1-.59Zm52.62-32.2-.25-.31-13.31,8.86C182,185.59,189.85,180.45,192.46,177.32Zm-51-8.14c-.53,5.1.4,9.75,4,13.58a9,9,0,0,0-.7-2.73c-.52-1.08-1.24-2.07-1.81-3.14-.09-.18.17-.55.25-.79ZM174.42,213c-1,.48-2,.94-3.06,1.45a14.49,14.49,0,0,0-1.73,1c-.23.17-.37.72-.54.71-2.19-.08-3.54,1.39-4.91,2.4a8,8,0,0,0-4.59,2.46A41.73,41.73,0,0,0,174.42,213Zm-45.07,27.89a11.38,11.38,0,0,0-2.54-.91,11.26,11.26,0,0,0-2.81.31c-.9.13-1.81.24-2.69.45s-1.72.55-2.57.83a2.62,2.62,0,0,0,1.21.15c1.52.06,3.28-1.58,4.48.66,0,.08.22.11.33.11,1,0,2.09,0,3.13,0A1.39,1.39,0,0,0,129.35,240.87ZM109,256.73c-1.07-.11-1.93-.24-2.8-.3-2-.14-2-.12-2.5-.71H111c-3.17-1.38-6.54-.44-9.81-1.07a29.75,29.75,0,0,0,3.54,3,1,1,0,0,0,.69.1C106.58,257.48,107.73,257.12,109,256.73Zm56.54-46.62-.15-.33a18.93,18.93,0,0,1-2.25,1.13c-2.13.73-3.8,2.48-6.14,2.72-.1,0-.19.21-.29.33,1.78.86,7.46-1,9.31-3.13l-1.68.31-.06-.15Zm-20.05,19.55c1.57,0,3.13.14,4.64-.8a31.26,31.26,0,0,1,4.5-2c-3.22-.64-6,1-9,1.48Zm-27.65,19a3.49,3.49,0,0,0-.54-.12c-2.64-.07-5.29-.16-7.93-.2-1.1,0-2.19.07-3.59.12C110,251.17,113.93,249.49,117.86,248.67Zm37.91-54.74,1.6-2.42c-.57-.66-1.07-1.31-1.65-1.89s-.89-.46-1.38.11.13,1,0,1.2C153.72,192.42,154.69,193.11,155.77,193.93Zm16.45,27.83.08.33c2.85-.08,11-2.93,12.15-4.34ZM170,204.67l-.06-.24-7.55.62,0,.48c1.68,1.18,3.62.46,5.43.48C168.57,206,169.3,205.14,170,204.67Zm-18.91-19.28a5.67,5.67,0,0,0,1.61,5.15c.77-1,1.39-2.08.92-3S152.11,186.17,151.11,185.39Zm26-8.07,7.25-5.19-.2-.28C181.64,173.39,178.15,173.6,177.14,177.32ZM137,180.14c-.29-2.73.4-5.79-2.4-7.71C135.41,175,135.52,177.79,137,180.14ZM137,220.39l-2.37,1.25.59,1c-.42.4-.88,1.14-1.2,1.09-1.6-.26-2.17,1.08-3.28,1.64.88.83,1,.82,1.5.12a1.85,1.85,0,0,1,.45-.51c1-.61,2-1.17,3-1.8.16-.11.15-.48.2-.67l1.78-.87ZM89.24,264l.23-.48a13.79,13.79,0,0,0-1.52-.9c-.6-.28-1.25-.46-1.88-.69s-1-1-1.52-.57a5.52,5.52,0,0,0-.15,1.42,4.51,4.51,0,0,0,.53,1.14l.89-.59a2.7,2.7,0,0,0,.3-.27C86.91,264.53,88.19,263.84,89.24,264Zm77.63-63.5a8.49,8.49,0,0,1-1.25.91,5.79,5.79,0,0,1-1.33.36c-.22,0-.46,0-.67,0-1.13.35-2.27.71-3.39,1.11-.25.09-.44.36-.66.55,1.74-.06,3.3-.53,4.88-.6S166.64,202,166.87,200.52Zm-20.24,12.07a12.1,12.1,0,0,0-5.92,5C143.16,216.5,145.32,215.26,146.63,212.59Zm-3.22-10.21.41.09c1.08-1.11,1.05-2.59,1.23-4,0-.39-.48-1,.43-1.22.22-.06.15-1.16.22-1.78l-.4,0v1.35c-.87-.57-1.08-.2-1.16.52s-.35,1.54-.46,2.31S143.5,201.46,143.41,202.38Zm41.28-11.73-.18-.25c-1.25.81-2.5,1.61-3.73,2.45s-2.45,1.75-3.68,2.62l.18.25C180.36,194.92,182.54,192.81,184.69,190.65Zm-31.88,4.91c-1.54.57,0,1.75-.65,2.45l.33.12,2.7-3.3-1.4-1.86-.33.19ZM146,205.18l.43.2,3.31-3.63-3-.18Zm27.16-6.71c-.35-.1-.62-.28-.84-.24-2,.42-4.79,2.69-5.38,4.55Zm-33.73-13.38.43-.11-2.13-8.8-.46.1c.16.78.29,1.57.49,2.34s.78,1.46.59,2C137.63,182.45,138.89,183.65,139.42,185.09ZM208,123l-.2,1.63a16.16,16.16,0,0,0,1.46-6.42l-.41-.12c-.66,1.7-1.32,3.4-2,5.25Zm-34.18,52.63.28.27c2.22-1.31,3.24-3.65,4.74-5.59a12.67,12.67,0,0,0-2.68,1.76c-.72.66-.46,2-1.54,2.5C174.29,174.77,174.11,175.29,173.85,175.65Zm-9.39-41.48.4-.15c-1.24-2.23-.38-5.25-2.7-7.07l-.49.18Zm-3,27.41a13,13,0,0,0-.68-7.67C160.33,156.52,161.25,159,161.43,161.58Zm8.63,44.28c2.51.59,3.83-1.23,5.42-2.45A9.22,9.22,0,0,0,170.06,205.86ZM163,230.39a13.57,13.57,0,0,0-6.53,3.2C159.17,233.27,160.93,231.58,163,230.39Zm-10.82-5.26,0-.48c-2.05-1.19-3.85,0-5.72.58l0,.42Zm16.14-6.2c2.46-.38,4.8-1,6.15-3.55ZM98.9,250.8l-.31-.38q-2.43,1.74-4.88,3.46l.23.37c.63-.54,1.8,0,2.1-1.25,0-.12.23-.32.32-.3C97.93,253,98.07,251.45,98.9,250.8Zm84.93-83.88c1.52-.22,7-4.59,7.87-6.17Zm-30.1,33.49-.38-.23-4.74,7.21.32.21c.85-1.12,1.75-2.21,2.52-3.38S153,201.68,153.73,200.41Zm1.85,17.1.1.18L153.61,219c2.09.39,3.07-1.38,4.7-2-1.29-.43-3.2,0-3.76.85ZM120,244.22l.17.41c3.69,0,5.86-.7,6.07-1.69Zm19.41-44.43.37,0c.7-1.82.5-3.69-.87-4.63Zm4.52,10-3.33,4.35A28.75,28.75,0,0,0,144.3,211C144.81,210.51,144.88,210.06,143.92,209.77ZM150,189.88l.25-.22-.63-2.17s0-.09,0-.12c-.3-.56-1.41-.45-2.37.36Zm-16.7-18.56-1.77-7.23-.36.09C131.58,166.65,131.9,169.13,133.34,171.32Zm57.84,8.92a5.88,5.88,0,0,0,4-4.6Zm-36.75,35.82.11.34c3.89-.31,5.11-.65,5.91-1.92Zm-23.79-66.33,2-5.12C130.61,146.33,129.86,148,130.64,149.73Zm39.43,60.11-.2-.26a12.66,12.66,0,0,0-4.81,3.8l.21.27ZM83.62,263.78c-.41-.8-.61-1.66-.93-1.71a2.76,2.76,0,0,0-1.66.65c-.17.12,0,.7,0,1.06ZM146.35,224c-1.37-1-2.39-1-3.44,0C143.5,225.22,144,225.23,146.35,224Zm-36.64,20.51,0,.58a10.74,10.74,0,0,0,5.72-.33Zm42.89-31c2.19.57,3.89-.7,5.74-1.36l-.09-.36Zm-11.49-3.42c1.79-.55,1.39-2.17,2.29-2.92l-1.63-.13ZM178.64,179c2-.38,4-.84,5.25-2.76Zm-3.88.93a4.71,4.71,0,0,0-4.2,3.18ZM146.3,222.7c1.85.71,4.3.16,5-1.15Zm-.14-2,3.92-.6A2.38,2.38,0,0,0,146.16,220.65Zm13.62-85.34-.4.11,1.93,6.43.44-.13C161.09,139.58,160.44,137.44,159.78,135.31ZM145,190.68l-.44.2.92,2.3c.34-.16.91-.26,1-.49C146.78,191.47,145.9,191,145,190.68Zm13.89-11.62-.44-.07c0,1.58-1.52,3-.71,4.66l.36,0C158.36,182.15,158.62,180.6,158.88,179.06Zm-78,82.78,2.2-.71c1.48-.44,1.48-.43,1.41-1.11C83.45,260.84,81.51,259.71,80.92,261.84Zm19.2-9.07-.1-.43a5.73,5.73,0,0,0-1.47.31,1,1,0,0,0-.26.91A13.13,13.13,0,0,0,99.71,255l.31-.27-.44-1.57Zm102.2-115.56.32.15c.31-1.24,1.94-2,1.16-3.61L205,133h-1.29Zm-34.43,54.17c-2.68-.09-3.19.24-3.09,1.73ZM173,177.21c-.62,1.29-2.2,2-2.26,3.58C171.72,179.73,173,178.87,173,177.21Zm-11.85,31.64c2.77,0,3.43-.34,4.22-1.85ZM97.5,256.77c-.61-.52-1.2-1.07-1.85-1.54-.15-.11-.51.07-.77.12a2.86,2.86,0,0,0,.19.79C95.61,257,96.53,256.94,97.5,256.77ZM128.31,239c1.56.42,2.86-.63,4.32-.83A5.36,5.36,0,0,0,128.31,239ZM101.49,250.7c.91.56,1.68,1.41,3,1C103.54,250.13,102.51,249.77,101.49,250.7ZM174.68,189c-2.22.45-4.05,1.64-4.61,2.94Zm-48.47,36.47a2.13,2.13,0,0,0,3.16-.08A3.07,3.07,0,0,0,126.21,225.43Zm79.36-95.12.36.19c1.47-1,.87-2.82,1.62-4.1l-.35-.14Zm-43.25,36.15c1.18-1.85.22-3.67,0-5.5ZM190.19,176c1.57-.06,2.37-1.15,2.58-3.07-.91.23-1.24.73-.75,1.5Zm-72,60.85.06.38,3.51-.17L120.57,236Zm45.22-92.31.29-.07c-.37-1.65-.24-3.43-1.62-4.79ZM173.34,179l.55.48,2.52-3.22-.34-.27Zm11.93,9.34.26.3,3.69-3.23-.29-.34Zm-28.14-38.24c.61,1.51,1.14,2.8,1.66,4.08C159,152.94,158,150.37,157.13,150.08Zm.16,33.82c-1,1.26-1.23,2.21-.77,3.18C156.7,185.9,158.41,185.4,157.29,183.9Zm30.17-52.26-.45-.09c-.3,1.16-.61,2.32-.91,3.48l.65.14ZM152.72,127l-.56.09,1,3.55.46-.12ZM165,145.16l-.29,0,.9,4.9L166,150Zm-9.37-7.51-.45.1.91,3.64.53-.14Zm-6.61,11.07-.45.37,2.48,2.89.33-.26Zm13.5,47.08,2.56-1C163.75,194.21,163,194.49,162.55,195.8Zm-15.81,11.11.31.31a6.67,6.67,0,0,0,2.29-3.43Zm-22,30.63c-.1-1.22-.1-1.22-2.55,0Zm6.88-30.31H132c-.13-.94,1.12-1.92-.37-3.05Zm2.7,25.28,0,.45,3.56-.17,0-.56Zm14.32-22.29-.37-.45-2.64,2.33.26.31Zm-4.92-2.48.4.1c.89-.65.79-1.55.74-2.44l-.41-.12Zm45.09-33.41-.19-.25-3.56,2.67.23.31ZM145.2,204.67c.17-.62.31-1,.41-1.5s.15-.92.27-1.69C144.65,203,144.51,203.61,145.2,204.67ZM91.84,259.49c-.36-1.14-1.13-1.2-2.64-.38Zm83.08-96-.28-.12-1.83,3.59.48.21C173.83,165.92,174.38,164.69,174.92,163.46Zm-70,86.18-.08.29,3.78.84.09-.44Zm27.35-10.42-.21-.33-1.17.88c-.6-.72-.69-.71-1.45.08C130.56,240.78,131.4,240,132.23,239.22Zm-19.17,3v.37c.23,0,.46,0,.68,0s.4.08.74.15l-1.22.44,0,.11,1.4-.19-.06-1.22Zm44.62-98.59-.39.12.81,2.33C159.32,144.76,158.1,144.29,157.68,143.59ZM129.89,230l-1.53,1.34.24.37,1.7-.56Zm17.28-32.83-.52-.09-.58,3,.33.06Zm-32.58,44,2.57.43C116.87,240.57,115.88,240.42,114.59,241.11Zm14.64-7.49,0,.64,2.19-.2v-.44Zm22.54-13.45c.82.71,1.59.54,2.35-.54Zm43.73-59.29a1.78,1.78,0,0,0-.26-.13l-1.94,2.44.34.26Zm-52.07,27.5-1-2.21C142.2,187.05,141.82,188,143.43,188.38Zm15.63-36.65.46-.1-.89-2.45-.49.17ZM141.33,230.5l.06-.08h3.48l0-.33ZM156.1,146l.37-.15-.91-2.5-.48.19Zm40.15,30.81,2.08-1.83C197,174.92,196.54,175.59,196.25,176.85ZM190,164.61c1.16.24,1.79-.22,2-1.45Z"/><path d="M96.19,177.24l-.29,3.69h.16c.13-.83.24-1.65.41-2.47a2.33,2.33,0,0,1,.42-.7c.07.25.14.5.2.76a5,5,0,0,1,.07.53l1.15.22-.16,3.45.29.1A2.73,2.73,0,0,0,99,182a44.67,44.67,0,0,0,1.36-5.74c.12-.93.49-.93,1-1.07-.86,1.53-.22,3.07,0,4.74.26-.32.64-.6.75-1a16.07,16.07,0,0,0,.52-2.68c.29-3.13.42-6.28.84-9.4a27.05,27.05,0,0,1,1.54-5.32c-.1.89-.22,1.78-.31,2.68-.27,2.72-.55,5.44-.77,8.17,0,.35.27.73.42,1.1l.39,0-.72,1.89.54.37-1.08.26-.09,1.46h.75c-.64,5.81-.82,11.52.86,17.15v-6.29l.29-.06a4.89,4.89,0,0,1,.21.72c.43,3.84.82,7.68,1.28,11.52a23.09,23.09,0,0,0,.66,2.94,9,9,0,0,0,.45,1.07l.47-.42c-.17-1.69-.35-3.38-.49-5.07s-.18-3.34-.36-5c-.16-1.42-.77-2.85-.65-4.23.36-4.19-.23-8.4.21-12.58.28-2.7.65-5.4,1-8.1.4-2.87.75-5.76,1.31-8.6a38.06,38.06,0,0,1,2-6.71,65.18,65.18,0,0,0-2.36,16.25c.42-4,3-7.58,2.39-11.93l.68-.07.38-1.4.21,0,.24,1.49,3.33-.87c-.21.26-.39.73-.63.76-1.32.13-1.49,1.17-1.54,2.08-.13,2.46-.15,4.93-.15,7.39a80.3,80.3,0,0,0,1.4,15.77,72.43,72.43,0,0,0,3.27,11c.67,1.83,1.55,3.58,2.21,5.41-4.54-7-6.31-15-8.06-23-.06.89-.16,1.77-.16,2.66s.08,2,.15,3,.12,1.89.26,2.82c.36,2.22.8,4.42,1.1,6.65.07.48-.51,1-.45,1.54a50.12,50.12,0,0,0,2.72,11.9,5.65,5.65,0,0,1,.24.8,2.56,2.56,0,0,1-.08.55,13.88,13.88,0,0,1-1.13-2.31c-.69-2.5-1.32-5-1.89-7.56s-1-5.16-1.57-7.89l-1.11.62.62-1.89c-.66,0-1,.4-.95,1.08a52.87,52.87,0,0,0,.34,5.49,40,40,0,0,0,1.19,4.61c.32,1.21.62,2.43.93,3.65l-.29.09-1-2.2-.38.12a16.55,16.55,0,0,1,.24,1.7c.13,3.41.13,6.83.39,10.24a12.62,12.62,0,0,0,1.26,3.34l0,0a8.06,8.06,0,0,1-.83-.42c-.38-.26-.73-.56-1.1-.84l-.38.32.94,1.73c.15.28.47.68.38.83-.51.88.19,1.42.47,2.07s.57,1.31.85,2l-.31.16-.82-1.35-.64.3c-.63-1.82-1.23-3.56-1.82-5.29l-.4.13.13,1c-1.38-1.64-1.81-3.7-3.59-4.73a.12.12,0,0,1,0-.11c.3-1.39-1-2-1.46-3.07-.18-.41-.74-.65-1.12-1-1-1.2.15-3.32-1.56-4.39l-.5.15.77,5.46c-2-4.45-2.34-9.12-3.67-13.54a3,3,0,0,0-.12,1.26,61.56,61.56,0,0,0,3.6,16.64c.64,1.63,1.13,3.31,1.73,5,.32.87.72,1.72,1.08,2.59-.44-.78-.87-1.56-1.34-2.32a11.62,11.62,0,0,0-1.76-2.58,3.26,3.26,0,0,1-1.25-1.79c-.2-.9-.69-1.26-1.69-.54-.81-2.93-1.61-5.78-2.4-8.64l-.17,0,.62,6.25-.89-.64-.34.2a34,34,0,0,0,2.58,8.89,1.43,1.43,0,0,1-.64-.68c-.77-1.83-1.57-3.65-2.26-5.51a14.73,14.73,0,0,1-.91-3.43c-.17-1.5.13-3.07-.13-4.55-.57-3.3-1.35-6.56-2.06-9.83,0-.15-.22-.27-.37-.43a22.53,22.53,0,0,0,.77,12.15c.45,1.39-.12,3.26,1.54,4.23,0,0,0,.23-.06.34-.69,1.93.79,3.26,1.41,4.79s1.54,2.63,1.69,4.53c-.47-.31-.84-.42-1-.65q-1.59-2.92-3.1-5.88c-.12-.24,0-.65-.16-.8-.65-.62-.68-.59,0-1.06l-1.42-.32.93-.53c-1.78-.52-1.54-2.21-2.09-3.39a31.54,31.54,0,0,1-1.27-3.85l-.5.12c.2,1,.4,2,.58,2.93a4.63,4.63,0,0,1,.1,1.17c0,.22-.36.44-.32.61a10.39,10.39,0,0,0,.57,1.68c.28.7.6,1.39.91,2.08l-.43.31-.57-.91-.26.13a33.59,33.59,0,0,0,1.87,4.4A41.82,41.82,0,0,0,94,221c1.76,2.33,3.49,4.7,5.24,7,.21.28.44.55.66.82l.36-.17a14.66,14.66,0,0,1-.55-2.58,13.71,13.71,0,0,1,.33-2.53l.44.05c0,1.63,0,3.26,0,4.89,0,.39.39.76.6,1.14l.35-.17c-.22,1.51-1.09,3.18,1.18,4.25l.08-1.87.66-.12v1.73l.63-.12,1.73,2.46.48-.19c0-1.67,1.21-3.2.46-5,.61,0,1-.26.44-1a13.55,13.55,0,0,0-1.08-1.39c-1-1-2.08-2-3.19-3,.07,0,.43-.27.61-.18.37.2.64.5.9-.08.19.11.43.18.55.35.51.73.93,1.53,1.48,2.22a6.38,6.38,0,0,0,1.36,1l.08-1.46.36-.07c.45.8-.53,2.1.75,2.63,1,.4,1.91.95,2.87,1.43a3.44,3.44,0,0,0,2.65.57l.07-.41-1.15-.22a7.41,7.41,0,0,0-.87-1.37c-.83-.85-1.73-1.63-2.61-2.43-.53-.49-1-1.24-1.69-.54l-.62-2.06v-.05l.84-.47c1.47,3.48,5.11,3.65,7.65,5.36l-.1.31-2.91-.87-.2.33a12.55,12.55,0,0,1,1.53,1.37,1.22,1.22,0,0,0,1.94.16l-.28,1.28c.51-.32.78-.49,1.06-.64l2.51-1.4,0,0c-.56.56-1.13,1.1-1.67,1.68a5.71,5.71,0,0,0-.56.92l-3.22,1.4,2.51,1.4h-2.92l-.31-.45-1.76.89-.15-.19.85-.78c-.77-.37-1.27,0-1.92.57-1.11,1-2.46,1.79-3.65,2.73-1.71,1.35-3.37,2.75-5,4.14-.39.32-.75.68-1.29,1.16l.33-1.63-4.56,3c-1.32-.26-2,1.34-3.27,2.12l-.32-1.43L91,245c1.77-.65,1.11-1.8.83-2.88-.18-.72-.22-1.48-.37-2.49l.6.79.43-5.38-1,.08-.1-.29,1.17-.51-1.47-3.94.3-.15A32.2,32.2,0,0,1,93.18,234a33.73,33.73,0,0,1,.88,4.41c2.39-2.48.72-4.67.21-7,.2.27.41.54.6.82s.36.56.55.85a1.93,1.93,0,0,0,.36-2.4c-1.48-1.62-3-3.21-4.49-4.8-.27-.29-.57-.53-.85-.8l-.29.23,3.93,5.19-.36.33A4.74,4.74,0,0,1,93,230c-.78-1.53-1.79-2.69-3.7-2.7a1.39,1.39,0,0,1-.88-.63c-1.17-1.71-2.27-3.47-3.44-5.18-.47-.68-1.06-1.28-1.54-2-.33-.45-.5-1-.83-1.46-.68-.92-1.41-1.8-2.16-2.73-.48,3.82,2,6.15,3.69,9.06l.56-1.22c.13.59.19.86.26,1.13.19.8.39,1.59.59,2.39a5.62,5.62,0,0,1,.22,1.94,6.78,6.78,0,0,0,1,3.38,45.12,45.12,0,0,0,2.56,3.85c-.8-.18-.67.35-.55,1a20.13,20.13,0,0,1,.39,3.13c-1.16-2.66-2.19-5.39-3.52-8s-3-5.08-4.62-7.76c-.62,1.36-.11,2.35.36,3.4a67,67,0,0,1,3.68,8.51c.72,2.39,2.14,4.32,3.16,6.49a2.4,2.4,0,0,0,.32.39L91,236.17c1,1.8-.72,2.7-.76,4,0,1.16-.26,2.31-.39,3.42l-.33-.55c-.12,1.85,1.67,2.68,2.3,4.29-1.54-.23-1.59-1.88-2.66-2.52l-1.1.75,0,0c-.59-1.63-1.15-3.27-1.79-4.88a1.44,1.44,0,0,0-.79-.72c-1.41-.47-1.39-1.65-1.73-2.82a7,7,0,0,0-1.87-2.39,3.38,3.38,0,0,0-1.14-.5l.28-.39c-.06.16-.21.37-.17.5A31.73,31.73,0,0,0,82.2,238c.66,1.3,1.58,2.43,1,4.09-.17.47.48,1.2.63,1.83s.84,1.43,0,2.32c-.69-2.24-1.49-4.32-3.69-5.74l.86,1.78a2.73,2.73,0,0,0-.5.24c-.18.12-.44.26-.47.43a.8.8,0,0,0,.22.68c.61.39.69.9.91,1.58.48,1.47,1,3.16,3.08,3.65l-.82.56c.31,1.1,2.65.9,1.81,2.91l-5.74-2.79-.72,1.35,5.27,1.9H82.5l-.06.38,1.71.34.09.25c-.32.1-.69.34-1,.26-1.29-.34-2.54-.78-3.82-1.14-.28-.08-.62.11-.93.08-1-.09-2-.23-3.35-.38,1.63,1.55,3.58,1.83,5.32,2.57-1.68.31-3.07-.57-4.61-1.11l-.32.86c.44.75,3.81,1.37,4.93.95-.27,1.07-2,1.43-5.93,1.3-2.42-.08-3.67-2.23-5.64-3.14-.32,1.42.85,2.54,3.23,3.13-1.54.56-4.19-1.16-3.91-2.75.21-1.13-.53-1.42-1-2a6.91,6.91,0,0,1-.83-1.45c2.35,1.55,4.15,3.8,6.92,4.73-5.2-3.75-7.35-8.6-5.43-15l.7.11a8.3,8.3,0,0,1-.1-.95,8.09,8.09,0,0,1,.15-1l.73,1.23.26-.08-.59-3.61c.89-.41,1-1.24.21-2.24a5.9,5.9,0,0,1-.91-1.63A17.62,17.62,0,0,1,74,239.39l.35-.22L72.83,235c.43.14.94.15,1.15.4.49.63.1,1.95,1.55,1.88.17,0,.37.62.56.95l1.49,2.67c.17-1.77-.29-3.5,1.42-4.52-.47,1.62-.93,3.22.46,4.93.05-2,.54-3.74-.31-5.45-.74-1.48-1.64-2.89-2.31-4.4a26.72,26.72,0,0,0-4-6.16c-.15-.18-.35-.41-.34-.62,0-1.55-1.24-2.26-2.09-3.22a1.83,1.83,0,0,0-1-.51c-2.83-.37-5.7-.56-8.49-1.11A30.52,30.52,0,0,1,56,218l.16-.4,5.8,1.84v-.9c1.75.86,3.42,1.44,5.28.91.14,0,.38.28.58.42l-.21.35,1.33.1.2-.27-3.41-2.93.38-.43c2.12,1.18,3.31,3.8,6.3,3.85a5.1,5.1,0,0,1-.45.52,3.07,3.07,0,0,1-.46.16l8,8c.46-1.15.45-1.17-1.17-3.81l.68-.5-.71-.89-.19.1.2.68-.2.26a19.5,19.5,0,0,1-3.26-2.92,14.77,14.77,0,0,0-4.18-3.48c-1.31-.87-2.72-2.14-4.13-2.19-1.85-.07-2.4-1.8-4-1.81l.1-.35,1.24-.32-1.17-.94.12-.33,3.35.91,0,0H64.4c1.67,1.16,3,2.46,5.07,2.12l-.19-.68,0,0c1.54,1,3.29.88,5.28.7l-.6.74L80.25,225a4.7,4.7,0,0,0-.58-3.63,7.22,7.22,0,0,0-2.07-2.56c-.94-.63-1.28-2.28-1.72-3.54-.69-1.93-1.23-3.9-1.82-5.86-.08-.25-.11-.52-.19-.77a5.56,5.56,0,0,0-.24-.61L74,205l.18,0,.4,1.41c1.46-.07,1.17,1.82,2.23,2.24l.66-.77,2,3.25.75-.92,2.8,4c-.54-2.93-.49-3.63.24-4.24a23.26,23.26,0,0,0,.9,4.07,29.6,29.6,0,0,0,5.12,8.63,36.11,36.11,0,0,0,3.54,3.57l-.63-1.89.17,0,4.37,6.37.42-.24a12.46,12.46,0,0,0-2-6.22,38.42,38.42,0,0,0-4.52-5.15l.15,1.5c-.25-.28-.66-.51-.68-.76-.13-2.73-1.66-4.95-2.6-7.39a62.74,62.74,0,0,1-1.74-6.25c-.7-2.57-1.43-5.13-2.06-7.72-.12-.52.19-1.12.22-1.69a9.58,9.58,0,0,0-.09-1.69c-.33-2.26-.7-4.52-1-6.79,0-.16.12-.34.26-.7l1.28,7.55.42-.05c.12-1.76.2-3.51.37-5.26a21.94,21.94,0,0,1,.54-3c0-.24.37-.41.61-.66L85.54,193l.34.06c.75-2.51,1.44-5.05,2.26-7.54s.14-5.06,1.59-7.26c-1.08,7-.23,13.95.23,20.91l.34.05a8.91,8.91,0,0,0,.26-1.11c.32-3.47.62-6.94,1-10.41a4.24,4.24,0,0,1,.49-1.12l.46.14c0,.45-.07.91-.13,1.36a28.55,28.55,0,0,0,1,10.28c.12.48.72.84.85,1.32.23.93.26,1.91.43,2.87.2,1.17.46,2.34.7,3.52l.35-.07c-.15-1.23-.33-2.45-.44-3.68-.15-1.71-.19-3.43-.37-5.13a12.69,12.69,0,0,0-.59-1.94,3.1,3.1,0,0,1,0-.75c0-1.4-.09-2.8,0-4.2.12-2.46.35-4.91.49-7.36a4,4,0,0,0-.33-1.27l1.71-11h.32a14.72,14.72,0,0,1,.12,2c-.11,1.2-.35,2.37-.49,3.56a4.56,4.56,0,0,0,.16,1.09ZM72.62,252.05c.38-1-.6-1.37-1-2,0-.08-.38-.06-.5,0s-.24.43-.19.48c.56.51,1.14,1,1.72,1.46l-1.41.4,3.4,2.9A3.28,3.28,0,0,0,72.62,252.05Zm38.9-87.38h-.41c-.33,1.19-.71,2.37-1,3.58s-.76,2.61-.45,3.73a3.62,3.62,0,0,1-.23,3c.36.61.79,1,.85,1.5.17,1.33.16,2.69.26,4s.25,2.66.38,4l.41,0c0-1.66,0-3.32,0-5,0-.78-.1-1.57,0-2.35s.29-1.43.34-2.15c0-.32-.31-.67-.3-1a12.9,12.9,0,0,0,.26-3.16A34.72,34.72,0,0,1,111.52,164.67Zm-1.19,44.13c-.61-5.81.3-11.83-2.28-17.38C108.43,197.26,108.49,203.14,110.33,208.8Zm-9.18,29.94L99.76,240c.15-1,0-2,.42-2.37.81-.79.36-1.64.47-2.44,0-.15-.29-.47-.47-.48a.75.75,0,0,0-.6.37q-1.06,2.34-2.06,4.7a1.52,1.52,0,0,0-.09.89,13.69,13.69,0,0,0,.61,1.56C99.08,241.12,101.35,241.15,101.15,238.74Zm-.81-7.8.25-.22A2.34,2.34,0,0,0,99.15,229l-1.78-2.35-.34.19c.28,1,.62,2,.84,3s.33,2.08.47,3l-1.11-.11,0,.3,1.3.75-.4.39-.71-.32-.31,1.9.8-.85.23.12-.76,2.74a16.28,16.28,0,0,0,1.87-3.28c.53-1.34,1.17-2.75-.19-4.07-.2-.19-.1-.67-.14-1l.33-.12ZM71.85,216.69a18.83,18.83,0,0,0,6.31,6.74C76.16,220.86,75.33,217.7,71.85,216.69Zm25.09,22.09c-.3.07-.36.07-.37.09-1.12,1.95-2.24,3.89-3.31,5.86a2.05,2.05,0,0,0,.59.51c.81-.72,1.91-1.34,2.3-2.26A18.53,18.53,0,0,0,96.94,238.78Zm8.83-1.75c2.14-.09,3.17-1.8,4.68-2.61l0-.4-2.63-.62c-.29.66-.5,1.28-.82,1.85S106.28,236.29,105.77,237ZM101,190.87c-.34,1.89.71,6.63,1.75,7.44C102.3,195.84,102.75,193.19,101,190.87ZM108.46,212l.29-.11-2.74-9.2-.44.13C105.66,206.13,107.37,209,108.46,212ZM106,237.7c-1.63-1.2-1.61-1.19-2.29.24-.1.22-.42.35-.63.52.74-2.26.74-2.26-.17-3l-1,4.43ZM75.83,249.14l-1.61-1.71.2-.19,1,.47c-.16-1.05-2-3-3.37-3.5.33.59.57,1,.79,1.43.13.26.33.56.29.81A2.67,2.67,0,0,0,75.83,249.14Zm-.57-10.29c.41,3.38,3,4.8,4.84,6.77l.32-.23Zm35-25.37c.47-2.37-.84-4.32-1.7-6.39C108.33,209.39,109.55,211.36,110.25,213.48Zm-.34-35.31-.37-.26a1.76,1.76,0,0,0-.24.66c.06,2.27.16,4.54.26,7.18.47-.53.85-.77.84-1C110.27,182.56,110.08,180.37,109.91,178.17Zm-7.18,4.49a18.1,18.1,0,0,0-.4,8l.4,0ZM69,243l-.5.25c.66,1.57,1.3,3.14,2,4.69.1.23.5.33.76.49,0-.34.17-.75,0-1C70.62,246,69.82,244.51,69,243ZM98.53,192.1l.66,0-.69-8.6-.42,0Zm9.23,38.72a7.21,7.21,0,0,0,3.72,2.51c.15.06.64-.27.63-.32-.12-.39-.23-1-.5-1.08C110.45,231.51,109.24,231.23,107.76,230.82ZM78.49,252.48l-4.3-2.88C74.2,251.43,75.89,252.62,78.49,252.48ZM73.34,241.8l.24-.13c-.66-1.41-1.31-2.82-2-4.34a7.85,7.85,0,0,0-.69,1.85c0,.36.33.77.51,1.15l.6-.6Zm10,8.95.28-.39L80.93,248l-.8,1.18Zm-15.11-6.7-.47.1c.21,1.15.37,2.32.65,3.45.06.24.56.36,1.1.68Zm8.24-34.44-.37.12,1.4,4.3C78.12,212.23,77.31,210.91,76.44,209.61ZM82,233.56l.35-.22-1.71-4-.3.1a18.23,18.23,0,0,0,.55,2.78C81.05,232.76,81.61,233.13,82,233.56Zm15.07-37.62-.39.06.93,6.75.37-.05Zm.36-15.75-.43,0-.53,5.75.41,0ZM69.4,217l3.12,2C71.8,217.05,71.15,216.6,69.4,217Zm31.24-36.44-.56,0,.24,4.11h.32ZM84.45,197.23l-.38.07.89,4.36A7.44,7.44,0,0,0,84.45,197.23ZM74,224.68l-.25.29,2.76,3.36.39-.34Zm8.75,7-.39.15L84,235.54l.27-.11Zm18.81-29,.55,0-.72-3.18-.34.09ZM95.7,237.81l-.46-.19-1.12,3.12.29.11ZM83,223.93l-.3.19L84.17,227l.41-.22Z"/><path d="M194.16,92.8l-.46-2.75-.41,0A185.61,185.61,0,0,0,194,114.8l-.56,0c-.34-3.62-.69-7.24-1-10.91l-.7.52c-.12-4.05-.24-7.91-.37-11.78l-.18,0-.45,4.08c-.79-4.66,0-9.32-.18-14-1.85,7.28-2.59,14.74-3.34,22.47-.56-2.42-.24-13.93,1-21.19-2.25,2.1-2.56,4.78-2.77,7.55-.13,1.68-.58,3.34-.78,5s-.24,3.15-.35,4.72a19.1,19.1,0,0,1-.5,3.75c0-2.37-.07-4.75,0-7.12s.35-4.8.39-7.24c-.8,1-1.8,1.65-1.84,3.17-.08,2.74-.64,5.48-.68,8.22a57.65,57.65,0,0,0,.61,7.28c.3,2.51.73,5,1.09,7.5a.83.83,0,0,1-.2.69c-1.45-7-3.64-14-2.36-21.43l-1.22,2.31-.33-.07a26.52,26.52,0,0,0-.09-5.5c-.29-1.32.71-2.27.4-3.46,0-.14.3-.48.53-.55a1.41,1.41,0,0,1,.88.07c.09,0,.12.43.07.63-.38,1.48-.78,3-1.17,4.46,1,0,2.33-3.12,1.86-4.11.26-.2.62-.34.74-.59a37.53,37.53,0,0,1,4.3-6.87c.63-.84,1.48-1.52,2.18-2.32.34-.38.5-.94.86-1.29s.9-.56,1.07-.43c.52.39,1.58.41,1.27,1.56-.27,1,.39,1.72.81,2.54a5.11,5.11,0,0,1,.39,2.08c0,1.47,0,2.94,0,4.42a.62.62,0,0,0,.25.48,41.29,41.29,0,0,0,0-5.22c-.46-3.68-.39-4.85,1.16-7.3-.16,5.5-.31,10.67-.47,15.83Z"/><path d="M206.17,89.34s.25.35.17.59c-.67,1.93-1.4,3.83-2.12,5.74a.8.8,0,0,1-.51.54c.42-2.6.84-5.2,1.31-8.13l-1.14,1.52-.4-.15.92-7.33-.37,0-2.95,12.58-.33,0,.42-2.49a34,34,0,0,0,.89-6.11c-.05-1.68.78-3,1-4.47a43.48,43.48,0,0,0,.11-5.48c0-.25.05-.7.15-.73,1.46-.34,1.5-1.91,2.47-2.63a10.48,10.48,0,0,0,0,1.85,4.42,4.42,0,0,0,.62,1.25,7.73,7.73,0,0,1,1.3,2.51,19.42,19.42,0,0,1-.81,8.69C206.65,87.72,206.45,88.45,206.17,89.34Z"/><path d="M169.78,117c0-.41.06-.82.05-1.23,0-2.16-.2-4.33-.1-6.49a22.12,22.12,0,0,1,2.44-9.71c.38-.69.68-1.42,1-2.14h1.12l.39-.47-.59-.44c.37,0,1.22.37,1.8.11s1-1.11,1.81-1.58c-.13.36-.16.83-.42,1.05a6.53,6.53,0,0,0-1.94,3.28,19.19,19.19,0,0,1-1.31,2.91l-.61-.8-.57,1.81.79.21c-.07.09-.12.18-.15.18-.77-.15-1,.33-1,1a4.2,4.2,0,0,0,.28,2.11c.33.66-.37,1.77-.37,2.68,0,2.2.13,4.4.17,6.59a5.58,5.58,0,0,1-.39,2.27c-.26-2.25-.51-4.5-.77-6.74-1.2,1.65-.86,3.68-1.34,5.49Z"/><path d="M137.64,153.57l-.4-7.47-.33-.07-1,2.12-.4-.19c.36-.86.75-1.71,1.07-2.58a2.08,2.08,0,0,0,.16-1.09c-.18-.9-.48-1.77-.68-2.66a2.2,2.2,0,0,1,.16-1.25A28.72,28.72,0,0,1,137.64,153.57Z"/><path d="M88,245.6c0,.63-.08,1.26-.13,1.89-.08.9-.14,1.8-.28,2.69,0,.18-.39.3-.72.53a10.15,10.15,0,0,1-.18-1.92,3.32,3.32,0,0,0-1-2.55c-.75-.92,0-1.94.17-2.91l.47,0v2.86l.82-1.14.86.56Z"/><path d="M81.49,266.46l.61-1.31c1.94,2,4.46,1.7,6.9,1.84C86.42,268.17,84,267.58,81.49,266.46Z"/><path d="M175.87,143.63l-1.17-12.37.29,0A45.94,45.94,0,0,1,175.87,143.63Z"/><path d="M123.39,145.89c-1,2.93-2,5.93-3.07,9C119.76,153.32,122.18,146.57,123.39,145.89Z"/><path d="M72.71,234.67c-1.71-.43-5.1-4.32-4.88-5.43Z"/><path d="M197.73,84.9l-2.23,8.48-.43-.11c.71-2.84,1.41-5.68,2.12-8.52Z"/><path d="M132.71,155.16l.91.74c-.75,1.42-.27,2.95-.55,4.67-.22-.27-.63-.53-.64-.8-.06-1.39,0-2.78,0-4.16C132.44,155.47,132.6,155.34,132.71,155.16Z"/><path d="M126,206c-1.11-1.48-2.22-3-3.34-4.45l.35-.26a17.11,17.11,0,0,1,3.33,4.45Z"/><path d="M126.53,228.73a6.11,6.11,0,0,1-5,2.35Z"/><path d="M137.3,157.92,137,153.8C137.78,154.42,137.91,157.11,137.3,157.92Z"/><path d="M192.54,128.81a3.64,3.64,0,0,1,.27-1.4c.72-1.06,1.56-2,2.35-3l.29.19-2.94,4.22Z"/><path d="M135.51,161.78l1,3.84c-.6-.25-1-.31-1-.43-.19-1.1-.33-2.21-.48-3.32Z"/><path d="M117.13,214.13l1.63,3C117.72,217.27,116.77,215.83,117.13,214.13Z"/><path d="M190.92,148.59l2.17-3.26.43.33c-.87,1-1.33,2.27-2.63,2.9Z"/><path d="M134.25,159.22l.9-.47.36,2.74-.42.14c-.1-.32-.2-.65-.31-1S134.47,159.82,134.25,159.22Z"/><path d="M185.1,215.58l-3.49.79C183.08,215.1,184.74,214.77,185.1,215.58Z"/><path d="M96.2,177.24a13.1,13.1,0,0,0,.89-1.35,8.67,8.67,0,0,1,.35-1c.41,2.19.11,2.69-1.25,2.36Z"/><path d="M119.29,158.37l.69-3.13.36.09-.62,3.1Z"/><path d="M84.55,212l2,2.36-.37.31-1.93-2.4Z"/><ellipse cx="106.05" cy="178.13" rx="0.16" ry="2.75"/><path d="M139.61,248.13l-2.62.52-.08-.49,2.64-.41Z"/><path d="M66.14,213.65a3.47,3.47,0,0,1,3.11,1.44l0,0-3.12-1.44Z"/><path d="M190.06,115.55l.24-2.59.39,0-.16,2.59Z"/><path d="M183.53,120.55l-.39-2.59.48,0v2.61Z"/><path class="cls-1" d="M104.8,220.62c-.36-.87-.76-1.72-1.08-2.59-.6-1.65-1.09-3.33-1.73-5a61.56,61.56,0,0,1-3.6-16.64,3,3,0,0,1,.12-1.26c1.33,4.42,1.71,9.09,3.67,13.54l-.77-5.46.5-.15c1.71,1.07.54,3.19,1.56,4.39.38.31.94.55,1.12,1,.46,1,1.76,1.68,1.46,3.07a.12.12,0,0,0,0,.11c1.78,1,2.21,3.09,3.59,4.73l-.13-1,.4-.13c.59,1.73,1.19,3.47,1.82,5.29l.64-.3.82,1.35.31-.16c-.28-.66-.56-1.31-.85-2s-1-1.19-.47-2.07c.09-.15-.23-.55-.38-.83l-.94-1.73.38-.32c.37.28.72.58,1.1.84a8.06,8.06,0,0,0,.83.42c-.6.89.2,1.65.52,2.15,1.44,2.29,3.1,4.45,4.75,6.6.33.44,1,.61,1.47,1a2.37,2.37,0,0,1,.73,1.14c-2.49-.23-4.05-1.86-5.8-3.61.43,1.8,4.32,4.78,6.78,4.45l-.59-.79,2.14-.61.18.35c-.78.63-1.6,1.21-2.33,1.89a15.86,15.86,0,0,0-1.38,1.65l-2.51,1.4c-.28.15-.55.32-1.06.64l.28-1.28a1.22,1.22,0,0,1-1.94-.16,12.55,12.55,0,0,0-1.53-1.37l.2-.33,2.91.87.1-.31c-2.54-1.71-6.18-1.88-7.65-5.36l-.84.47c-.16-.4-.31-.81-.48-1.28-1.3-.27-1.52-1.81-2.38-2.69Zm12.54,6.26c-2.8-1.37-5.74-2.51-7.77-5.1C111,225.25,114.09,226.21,117.34,226.88Z"/><path class="cls-1" d="M150.24,180.41l-.31,1.66-1-1.13a8.72,8.72,0,0,1,1.29,6.27,27.48,27.48,0,0,1-2.11-3.3c-1.2-2.69-2.25-5.44-3.37-8.17-.07-.18-.23-.46-.16-.56.69-1-.28-1.72-.46-2.57-.37-1.73-.79-3.45-1.22-5.17a9.59,9.59,0,0,0-.45-1.16l.44-.19c-.13-.25-.19-.65-.38-.73-.71-.29-.84-.6-.38-1.28a1.32,1.32,0,0,0-.34-2,2.24,2.24,0,0,1-.6-1.56c0-1.15.32-2.3.26-3.44-.07-1.48-.39-3-.6-4.42l-.32-2.32c1.5.91,1.36,2.39,1.7,3.63.8,3,1.53,5.94,2.3,8.9a10,10,0,0,0,.44,1.19l.37-.09q-1.26-5.5-2.5-11l.36-.17c.65,1.92,2,3.45,2.53,5.46s1,4.26,1.56,6.5l-.94.12c.7,2.26,1.33,4.47,2.06,6.66.38,1.12,1,2.18,1.44,3.28a1.45,1.45,0,0,1,.19.55,6.73,6.73,0,0,0,1.13,3.33,59.58,59.58,0,0,1,2.78,5.88,6.34,6.34,0,0,1,.19,1.85C152.33,186,151.32,184.19,150.24,180.41Z"/><path class="cls-1" d="M144.1,242.33c-1.75.69-3.48,1.42-5.24,2.07q-5.76,2.11-11.56,4.14c-1,.35-2.06.53-3.07.85-2.37.75-4.68,1.7-7.09,2.27-1.73.4-3.57,1.21-5.37.1l-.8-.47,14.27-3.13,0-.38c-4.13,0-8.32.38-12.33-1.52,2.71-.3,5.27-.63,7.84-.85.57,0,1.31-.51,1.81.39.08.16.92-.12,1.42-.17.76-.09,1.52-.15,2.28-.23a1.25,1.25,0,0,0,.56-.12c2.52-1.91,5.68-2.15,8.51-3.22a28.32,28.32,0,0,1,2.73-.77.88.88,0,0,1,.81.14l-4.48,2.67-.21-.31,1-.91-.19-.26-5.11,3.44A65.37,65.37,0,0,1,144,241.91Z"/><path class="cls-1" d="M163.44,188.12a23.18,23.18,0,0,1,1.35-3.75c1.21-2.13,1.28-4.57,2.18-6.77a2.92,2.92,0,0,1,.51-1l.23,5.31.55,0,1.11-6.6-1.18,1.87H168c.09-.84-.11-2,.36-2.45a6.33,6.33,0,0,0,1.09-1.83,16.38,16.38,0,0,1,1.32-2.32l-.21,1.42a16.61,16.61,0,0,0,3.81-4.71c1.21-2.14,2.9-4,4-6.24s2.95-3.47,4.45-5.17l.33.24c-.59.89-1.13,1.82-1.79,2.65-.4.5-.81.81-.57,1.61.11.38-.38,1.09-.78,1.46-.92.85-2,1.57-2.93,2.37-.17.15-.19.48-.38,1l2.82-1.63.22.15L177,167.47l.87.12-.62.89-.48-.57c-.13.07-.22.09-.26.15a37.32,37.32,0,0,1-2.67,3.75c-1.36,1.47-1.81,3.45-3.07,4.95a.83.83,0,0,0-.18.64c.5,1.26-.07,2.14-.84,3.11-1.76,2.19-3.39,4.48-5.09,6.72-.28.37-.62.69-.93,1Z"/><path class="cls-1" d="M166.34,190.13l1.14-2.83h.23l.17,1.58c.81-1.2,1.46-2.13,2.06-3.09.28-.46.47-1,.71-1.46.49-1,1.5-1.05,2.39-1.43,3.53-1.51,7-3.16,10.49-4.76,2.14.43,3.38-1.52,5.54-2a9.88,9.88,0,0,1-1.17,1.21,26.6,26.6,0,0,1-2.94,2c-1.58.88-3.27,1.57-4.86,2.46-1,.56-1.84,1.36-2.8,2a7.19,7.19,0,0,1-1.53.57l.08.39a9.53,9.53,0,0,0,1.72-.35c3.58-1.41,6.65-3.67,9.76-5.85a.64.64,0,0,1,.55-.14c-6.54,5-13.26,9.64-21.22,12.06Z"/><path class="cls-1" d="M169.34,147.29c.48,1.62.95,3.24,1.44,4.85.11.37.34.69.44,1.06.18.71.34,1.42.46,2.14s-.1,1.74.31,2.17c1.27,1.35.66,2.91.75,4.43l-.57-1c-.13,2.3.16,4.53-1.64,6.51l.34-2.75-.47-.09-1.71,7.13-.36-.05v-3.31h-.17l-1.44,7.45-.14-.08V163.89l.43,0,.29,1.32a4.84,4.84,0,0,0,1.71-3.36,40.06,40.06,0,0,0,0-13.29,6.64,6.64,0,0,1,0-1.18Z"/><path class="cls-1" d="M162.9,170.35l.71-.91.46,1.18h.17v-2.25l0,0,1.13-.81c.8,1.42.54,10.15-.46,11.41.1-2.16.19-4.17.28-6.19l-.29-.14c-.27.53-.78,1.06-.78,1.59.05,4.09-1.75,7.68-2.9,11.44a7.47,7.47,0,0,1-.59,1.16l-.44-.51c-.53,1.26-1,2.49-1.58,3.65s-1,1-1.75.14a12.63,12.63,0,0,1-1.07-1.27,5.91,5.91,0,0,1-.41-1.4l2.41,1.13a14.69,14.69,0,0,0,1.33-2.66c.67-2.4,1.19-4.85,1.74-7.28a23.83,23.83,0,0,1,.78-3.72c.55-1.35.64-2.83,1.31-4.14.06-.12,0-.31,0-.47Z"/><path class="cls-1" d="M189.74,181.86c-.43,3-19.29,15.65-23.52,15.82a107.07,107.07,0,0,0,19.52-12.26c.1-.07.11-.26.18-.43-2.51.24-4.14,2-6,3.23,0,0,.14.22.27.44l-1.46-.23.19.28a6.71,6.71,0,0,1-1.26,1.38c-3.37,2.1-6.78,4.13-10.19,6.18a1.13,1.13,0,0,1-.48.11c0-.29-.12-.69,0-.88a5.81,5.81,0,0,1,1.58-1.62c1.89-1.06,3.87-2,5.82-3.14l-1.05-.1a9.62,9.62,0,0,1,1-.9,20,20,0,0,1,2.58-1.63c.82-.41,1.78-.52,2.62-.91,1.54-.7,3-1.49,4.54-2.28C185.94,183.94,187.78,182.92,189.74,181.86Z"/><path class="cls-1" d="M132.56,197.34l4.09,5.33-.82,1.51c.85.82,0,1.77.16,2.84l1.4-4,.39.05a10,10,0,0,1,0,2.51,46,46,0,0,1-1.7,5.09c-.33.8-1,1.67-2,1.39a10.14,10.14,0,0,1-2.54-1.38c-.12-.07-.1-.68,0-.77,1.36-.87,1-2.31,1.21-3.54a1.4,1.4,0,0,1,.15-.33,2.2,2.2,0,0,1,1.24,2.43c-.08,1,0,2.11,0,3.16h.31v-3.4l.91.86a25.38,25.38,0,0,1-2.38-5.33l-.69.16-.48-1.6,1.28.29c-1.77-1.72-.59-3.5-.82-5.15Z"/><path class="cls-1" d="M159.34,139.39c-.7-1.83-1.39-3.65-2.08-5.48a8,8,0,0,0-.56-1.54c-1.94-3-1.15-6.18-.67-9.35a25.89,25.89,0,0,1,.64-3.25c2.3,2.49,3,5.68,4.07,8.7l-1.2-2.27-.47.18q1.5,5,3,10l-.29.08c-2.06-3-2.61-6.88-5.39-9.83,1.2,4.39,2.32,8.52,3.45,12.64Z"/><path class="cls-1" d="M176.31,161.6c1.08-2.11,2.19-4.2,3.21-6.35.85-1.8,1.58-3.66,2.39-5.48a1.86,1.86,0,0,1,.65-.83c2-1.13,3.08-3.19,5-4.57-.69,1.36-1.33,2.66-2,3.94a14.57,14.57,0,0,0-1.84,4.67c-.17,1.15-1.48,2.19-2.41,3.16s-2.19,2-3.29,3c.51,1.39-.67,1.89-1.25,2.71Z"/><path class="cls-1" d="M150.8,206.1c.61-.92,1.16-1.88,1.84-2.75a48,48,0,0,0,3.19-3.86c1.28-2.05,2.26-4.28,3.43-6.39.92-1.65,2-3.24,3-4.88l.61,1.09c-.4,1.36-.77,2.71-1.2,4a8.16,8.16,0,0,1-.69,1.21c-.44.87-.84,1.76-1.29,2.61-.17.31-.4.74-.67.81-1.77.44-2.09,2.16-3.06,3.3-.81,1-1.64,1.92-2.51,2.84s-1.52,1.5-2.29,2.24Z"/><path class="cls-1" d="M162.3,132.05c5.33,7.41,6,15.91,6.39,24.58-.85-3.64-1.69-7.21-2.53-10.78-.44-1.88-.9-3.76-1.35-5.63,0-.08,0-.18-.05-.23C163.1,137.61,163.23,134.72,162.3,132.05Z"/><path class="cls-1" d="M148,199.57l.42,1.26c1.36-.71,1.1-2,1.43-3.06s.67-2.24,1-3.36h.35c.07.73.14,1.46.19,2.19a14.34,14.34,0,0,1,.11,2.44,1.78,1.78,0,0,1-.68,1.26,9.26,9.26,0,0,1-2.47.85c-.83.17-1.28-.42-1.11-1.27.3-1.46.57-2.92.85-4.38l-.48.1c-.27-.39-.72-.76-.78-1.18a9.18,9.18,0,0,1,0-2.34c0-.17.4-.41.63-.43s.69.18,1.05.2c1.29.1,1.77.54,1.55,1.7-.34,1.78-.79,3.55-1.24,5.31C148.81,199.06,148.47,199.19,148,199.57Z"/><path class="cls-1" d="M145.88,184.82c-1.25.19-1.47.58-.86,1.43.38.53.93.95,1.32,1.49.67.92,1.27,1.89,2,2.95a5.63,5.63,0,0,1-4.72-3.09c-.49-1.1-.91-2.24-1.34-3.38a1.67,1.67,0,0,1-.07-.71c0-.6.18-1.21.17-1.81a11.68,11.68,0,0,1-.06-2.07Z"/><path class="cls-1" d="M163.14,154.67c-2.35-6.27-4.73-12.64-7.11-19C159.67,139.29,164.16,151.84,163.14,154.67Z"/><path class="cls-1" d="M136,199.92a18.94,18.94,0,0,1-3-3.95c-.93-1.3-1-2.87-1.43-4.31l-.46.18L131,193.2l-4.18-8.79.31-.19c.69.85,1.39,1.69,2.07,2.55.86,1.09,1.69,2.2,2.56,3.28a8.91,8.91,0,0,1,1.42,4.06c.38,1.81,1.78,3.4,2.75,5.08a6.26,6.26,0,0,0,.39.51Z"/><path class="cls-1" d="M154.24,209.2c.53-1,.85-2.42,1.55-2.65,1.59-.51,2.39-3.22,4.67-1.74-.3,1.36-1.51.46-2.37.88l.76.83-1.27.4c1.17,1.25,2.24.31,3.38,0a8.77,8.77,0,0,1,2.41.07,16.16,16.16,0,0,1-1.45.75c-1.77.67-3.53,1.42-5.36,1.92C155.91,209.83,155.09,209.38,154.24,209.2Z"/><path class="cls-1" d="M171.3,219.49a9,9,0,0,1-1.59,1.34,30.71,30.71,0,0,1-5.27,2.46,51.26,51.26,0,0,1-8.2,1.61L171,219.09Z"/><path class="cls-1" d="M86,260.16c1-.86,1.53-1.44,2.59-.6a5.31,5.31,0,0,0,2.61.65,3.19,3.19,0,0,1,2.48,1.22c.13.18.5.19.76.28l.15-.31-.79-.9c1.15-.52,1.87.47,2.78.66a13.46,13.46,0,0,1,2.5.49,7,7,0,0,0-1.13.19c-.86.28-1.92-.2-2.63.83-.16.23-1.11,0-1.66-.13C91.19,261.8,88.74,261,86,260.16Z"/><path class="cls-1" d="M190.42,165.91a10.86,10.86,0,0,1-1.29,1.7,22.88,22.88,0,0,1-9.35,4.92,4.92,4.92,0,0,1,.92-1.05c2.54-1.62,5.11-3.19,7.67-4.77l1.77-1.06Z"/><path class="cls-1" d="M139.84,209.52l.63-1.07c.05.32.08.46.1.59.18,1.35-.74,3.83-2.26,4.36.09-2.55.15-5.05.29-7.54a6.88,6.88,0,0,1,.78-1.72l1,2,.42-.79c.71.92.06,1.64,0,2.36S139,208.08,139.84,209.52Z"/><path class="cls-1" d="M192.46,177.32c-2.61,3.13-10.49,8.27-13.56,8.55L192.21,177Z"/><path class="cls-1" d="M141.48,169.18l1.78,6.92c-.08.24-.34.61-.25.79.57,1.07,1.29,2.06,1.81,3.14a9,9,0,0,1,.7,2.73C141.88,178.93,141,174.28,141.48,169.18Z"/><path class="cls-1" d="M174.42,213a41.73,41.73,0,0,1-14.83,8.07,8,8,0,0,1,4.59-2.46c1.37-1,2.72-2.48,4.91-2.4.17,0,.31-.54.54-.71a14.49,14.49,0,0,1,1.73-1C172.37,213.92,173.4,213.46,174.42,213Z"/><path class="cls-1" d="M129.35,240.87a1.39,1.39,0,0,1-1.46,1.58c-1,.06-2.08,0-3.13,0-.11,0-.29,0-.33-.11-1.2-2.24-3-.6-4.48-.66a2.62,2.62,0,0,1-1.21-.15c.85-.28,1.7-.61,2.57-.83s1.79-.32,2.69-.45a11.26,11.26,0,0,1,2.81-.31A11.38,11.38,0,0,1,129.35,240.87ZM125,242l2.37-.7-.1-.34C126.58,241.41,125.37,240.31,125,242Z"/><path class="cls-1" d="M109,256.73c-1.29.39-2.44.75-3.6,1.07a1,1,0,0,1-.69-.1,29.75,29.75,0,0,1-3.54-3c3.27.63,6.64-.31,9.81,1.07h-7.28c.48.59.48.57,2.5.71C107.09,256.49,108,256.62,109,256.73Z"/><path class="cls-1" d="M165.56,210.11l-1.26.88.06.15,1.68-.31c-1.85,2.1-7.53,4-9.31,3.13.1-.12.19-.32.29-.33,2.34-.24,4-2,6.14-2.72a18.93,18.93,0,0,0,2.25-1.13Z"/><path class="cls-1" d="M145.51,229.66l.16-1.29c3-.51,5.76-2.12,9-1.48a31.26,31.26,0,0,0-4.5,2C148.64,229.8,147.08,229.62,145.51,229.66Z"/><path class="cls-1" d="M117.86,248.67c-3.93.82-7.82,2.5-12.06-.2,1.4-.05,2.49-.14,3.59-.12,2.64,0,5.29.13,7.93.2A3.49,3.49,0,0,1,117.86,248.67Z"/><path class="cls-1" d="M155.77,193.93c-1.08-.82-2.05-1.51-1.39-3,.09-.21-.48-.68,0-1.2s.92-.58,1.38-.11,1.08,1.23,1.65,1.89Z"/><path class="cls-1" d="M179.58,166.06c.2-.65.35-1.32.6-1.95.7-1.72,2.48-2.4,3.61-3.71a13.16,13.16,0,0,1,1.59-1.37l.26.2a14.07,14.07,0,0,1-1.34,2c-1.54,1.63-3.16,3.18-4.74,4.77C179.56,166.05,179.58,166.06,179.58,166.06Z"/><path class="cls-1" d="M172.22,221.76l12.23-4c-1.14,1.41-9.3,4.26-12.15,4.34Z"/><path class="cls-1" d="M170,204.67c-.72.47-1.45,1.34-2.16,1.34-1.81,0-3.75.7-5.43-.48l0-.48,7.55-.62Z"/><path class="cls-1" d="M151.11,185.39c1,.78,2.13,1.26,2.53,2.1s-.15,2.09-.92,3A5.67,5.67,0,0,1,151.11,185.39Z"/><path class="cls-1" d="M177.14,177.32c1-3.72,4.5-3.93,7.05-5.47l.2.28Z"/><path class="cls-1" d="M137,180.14c-1.52-2.35-1.63-5.14-2.4-7.71C137.44,174.35,136.75,177.41,137,180.14Z"/><path class="cls-1" d="M137,220.39l.67,1.22-1.78.87c-.05.19,0,.56-.2.67-1,.63-2,1.19-3,1.8a1.85,1.85,0,0,0-.45.51c-.46.7-.62.71-1.5-.12,1.11-.56,1.68-1.9,3.28-1.64.32.05.78-.69,1.2-1.09l-.59-1Z"/><path class="cls-1" d="M89.24,264c-1-.18-2.33.51-3.12-.94a2.7,2.7,0,0,1-.3.27l-.89.59a4.51,4.51,0,0,1-.53-1.14,5.52,5.52,0,0,1,.15-1.42c.53-.46,1,.37,1.52.57s1.28.41,1.88.69a13.79,13.79,0,0,1,1.52.9Z"/><path class="cls-1" d="M134.32,214.9l-.5,1.51c-1.19-1.32-2.17-2.32-3-3.41-.55-.71-.43-.84.55-1.32l.64,2.17.43-.1-.39-1.57a3,3,0,0,1,2.32,2.76Z"/><path class="cls-1" d="M166.87,200.52c-.23,1.46-.84,2.3-2.42,2.37s-3.14.54-4.88.6c.22-.19.41-.46.66-.55,1.12-.4,2.26-.76,3.39-1.11.21-.06.45,0,.67,0a5.79,5.79,0,0,0,1.33-.36A8.49,8.49,0,0,0,166.87,200.52Z"/><path class="cls-1" d="M146.63,212.59c-1.31,2.67-3.47,3.91-5.92,5A12.1,12.1,0,0,1,146.63,212.59Z"/><path class="cls-1" d="M143.41,202.38c.09-.92.14-1.85.27-2.77s.36-1.53.46-2.31.29-1.09,1.16-.52v-1.35l.4,0c-.07.62,0,1.72-.22,1.78-.91.24-.39.83-.43,1.22-.18,1.43-.15,2.91-1.23,4Z"/><path class="cls-1" d="M184.69,190.65c-2.15,2.16-4.33,4.27-7.41,5.07l-.18-.25c1.23-.87,2.44-1.77,3.68-2.62s2.48-1.64,3.73-2.45Z"/><path class="cls-1" d="M152.81,195.56l.65-2.4.33-.19,1.4,1.86-2.7,3.3-.33-.12C152.84,197.31,151.27,196.13,152.81,195.56Z"/><path class="cls-1" d="M146,205.18l.74-3.61,3,.18-3.31,3.63Z"/><path class="cls-1" d="M173.15,198.47l-6.22,4.31c.59-1.86,3.4-4.13,5.38-4.55C172.53,198.19,172.8,198.37,173.15,198.47Z"/><path class="cls-1" d="M139.42,185.09c-.53-1.44-1.79-2.64-1.08-4.51.19-.5-.41-1.29-.59-2s-.33-1.56-.49-2.34l.46-.1,2.13,8.8Z"/><path class="cls-1" d="M208,123l-1.18.34c.71-1.85,1.37-3.55,2-5.25l.41.12a16.16,16.16,0,0,1-1.46,6.42Z"/><path class="cls-1" d="M173.85,175.65c.26-.36.44-.88.8-1.06,1.08-.54.82-1.84,1.54-2.5a12.67,12.67,0,0,1,2.68-1.76c-1.5,1.94-2.52,4.28-4.74,5.59Z"/><path class="cls-1" d="M164.46,134.17l-2.79-7,.49-.18c2.32,1.82,1.46,4.84,2.7,7.07Z"/><path class="cls-1" d="M161.43,161.58c-.18-2.56-1.1-5.06-.68-7.67A13,13,0,0,1,161.43,161.58Z"/><path class="cls-1" d="M170.06,205.86a9.22,9.22,0,0,1,5.42-2.45C173.89,204.63,172.57,206.45,170.06,205.86Z"/><path class="cls-1" d="M163,230.39c-2,1.19-3.78,2.88-6.53,3.2A13.57,13.57,0,0,1,163,230.39Z"/><path class="cls-1" d="M152.13,225.13l-5.72.52,0-.42c1.87-.56,3.67-1.77,5.72-.58Z"/><path class="cls-1" d="M168.27,218.93l6.15-3.55C173.07,218,170.73,218.55,168.27,218.93Z"/><path class="cls-1" d="M98.9,250.8c-.83.65-1,2.17-2.54,1.9-.09,0-.3.18-.32.3-.3,1.26-1.47.71-2.1,1.25l-.23-.37q2.45-1.73,4.88-3.46Z"/><path class="cls-1" d="M183.83,166.92l7.87-6.17C190.84,162.33,185.35,166.7,183.83,166.92Z"/><path class="cls-1" d="M153.73,200.41c-.75,1.27-1.46,2.58-2.28,3.81s-1.67,2.26-2.52,3.38l-.32-.21,4.74-7.21Z"/><path class="cls-1" d="M155.58,217.51l-1,.35c.56-.89,2.47-1.28,3.76-.85-1.63.58-2.61,2.35-4.7,2l2.07-1.28Z"/><path class="cls-1" d="M120,244.22l6.24-1.28c-.21,1-2.38,1.67-6.07,1.69Z"/><path class="cls-1" d="M139.4,199.79l-.5-4.59c1.37.94,1.57,2.81.87,4.63Z"/><path class="cls-1" d="M143.92,209.77c1,.29.89.74.38,1.23a28.75,28.75,0,0,1-3.71,3.12Z"/><path class="cls-1" d="M150,189.88l-2.76-2.15c1-.81,2.07-.92,2.37-.36,0,0,0,.08,0,.12l.63,2.17Z"/><path class="cls-1" d="M133.34,171.32c-1.44-2.19-1.76-4.67-2.13-7.14l.36-.09Z"/><path class="cls-1" d="M191.18,180.24l4-4.6A5.88,5.88,0,0,1,191.18,180.24Z"/><path class="cls-1" d="M154.43,216.06l6-1.58c-.8,1.27-2,1.61-5.91,1.92Z"/><path class="cls-1" d="M130.64,149.73c-.78-1.69,0-3.4,2-5.12Z"/><path class="cls-1" d="M170.07,209.84l-4.8,3.81-.21-.27a12.66,12.66,0,0,1,4.81-3.8Z"/><path class="cls-1" d="M83.62,263.78H81c0-.36-.14-.94,0-1.06a2.76,2.76,0,0,1,1.66-.65C83,262.12,83.21,263,83.62,263.78Z"/><path class="cls-1" d="M146.35,224c-2.32,1.19-2.85,1.18-3.44,0C144,223.08,145,223.06,146.35,224Z"/><path class="cls-1" d="M138,219c.18-.54.2-1.26.56-1.6a18.15,18.15,0,0,1,2.53-1.65A5.41,5.41,0,0,1,138,219Z"/><path class="cls-1" d="M109.71,244.55l5.69.25a10.74,10.74,0,0,1-5.72.33Z"/><path class="cls-1" d="M177.72,201.13l2.87-1.14a5.92,5.92,0,0,1-3.27,3c-.23-.77,1.65-1,.38-1.9Z"/><path class="cls-1" d="M152.6,213.58l5.65-1.72.09.36C156.49,212.88,154.79,214.15,152.6,213.58Z"/><path class="cls-1" d="M141.11,210.16l.66-3,1.63.13C142.5,208,142.9,209.61,141.11,210.16Z"/><path class="cls-1" d="M178.64,179l5.25-2.76C182.66,178.18,180.67,178.64,178.64,179Z"/><path class="cls-1" d="M174.76,180l-4.2,3.18A4.71,4.71,0,0,1,174.76,180Z"/><path class="cls-1" d="M146.3,222.7l5-1.15C150.6,222.86,148.15,223.41,146.3,222.7Z"/><path class="cls-1" d="M146.16,220.65a2.38,2.38,0,0,1,3.92-.6Z"/><path class="cls-1" d="M159.78,135.31c.66,2.13,1.31,4.27,2,6.41l-.44.13-1.93-6.43Z"/><path class="cls-1" d="M145,190.68c.91.36,1.79.79,1.45,2-.06.23-.63.33-1,.49l-.92-2.3Z"/><path class="cls-1" d="M158.88,179.06c-.26,1.54-.52,3.09-.79,4.64l-.36,0c-.81-1.68.68-3.08.71-4.66Z"/><path class="cls-1" d="M80.92,261.84c.59-2.13,2.53-1,3.61-1.82.07.68.07.67-1.41,1.11Z"/><path class="cls-1" d="M100.12,252.77l-.54.42.44,1.57-.31.27a13.13,13.13,0,0,1-1.42-1.47,1,1,0,0,1,.26-.91,5.73,5.73,0,0,1,1.47-.31Z"/><path class="cls-1" d="M202.32,137.21l1.41-4.18H205l-1.22.72c.78,1.64-.85,2.37-1.16,3.61Z"/><path class="cls-1" d="M167.89,191.38l-3.09,1.73C164.7,191.62,165.21,191.29,167.89,191.38Z"/><path class="cls-1" d="M164.24,168.36l-.34-4.53c1,.76,1.14,1,.9,2.36-.13.74-.38,1.46-.58,2.19Z"/><path class="cls-1" d="M173,177.21c0,1.66-1.29,2.52-2.26,3.58C170.81,179.17,172.39,178.5,173,177.21Z"/><path class="cls-1" d="M161.16,208.85l4.22-1.85C164.59,208.51,163.93,208.8,161.16,208.85Z"/><path class="cls-1" d="M97.5,256.77c-1,.17-1.89.26-2.43-.63a2.86,2.86,0,0,1-.19-.79c.26,0,.62-.23.77-.12C96.3,255.7,96.89,256.25,97.5,256.77Z"/><path class="cls-1" d="M128.31,239a5.36,5.36,0,0,1,4.32-.83C131.17,238.39,129.87,239.44,128.31,239Z"/><path class="cls-1" d="M101.49,250.7c1-.93,2.05-.57,3,1C103.17,252.11,102.4,251.26,101.49,250.7Z"/><path class="cls-1" d="M174.68,189l-4.61,2.94C170.63,190.6,172.46,189.41,174.68,189Z"/><path class="cls-1" d="M126.21,225.43a3.07,3.07,0,0,1,3.16-.08A2.13,2.13,0,0,1,126.21,225.43Z"/><path class="cls-1" d="M205.57,130.31l1.63-4,.35.14c-.75,1.28-.15,3.09-1.62,4.1Z"/><path class="cls-1" d="M162.32,166.46V161C162.54,162.79,163.5,164.61,162.32,166.46Z"/><path class="cls-1" d="M190.19,176l1.83-1.57c-.49-.77-.16-1.27.75-1.5C192.56,174.88,191.76,176,190.19,176Z"/><path class="cls-1" d="M118.21,236.88l2.36-.86,1.21,1.07-3.51.17Z"/><path class="cls-1" d="M163.43,144.57l-1.33-4.86c1.38,1.36,1.25,3.14,1.62,4.79Z"/><path class="cls-1" d="M173.34,179l2.73-3,.34.27-2.52,3.22Z"/><path class="cls-1" d="M185.27,188.32l3.66-3.27.29.34-3.69,3.23Z"/><path class="cls-1" d="M157.13,150.08c.9.29,1.91,2.86,1.66,4.08C158.27,152.88,157.74,151.59,157.13,150.08Z"/><path class="cls-1" d="M157.29,183.9c1.12,1.5-.59,2-.77,3.18C156.06,186.11,156.33,185.16,157.29,183.9Z"/><path class="cls-1" d="M129.78,206.67c.88-.41,1,.29.94.8a5.24,5.24,0,0,1-.47,1.38c-1.53-.61-.79-1.44-.44-2.22Z"/><path class="cls-1" d="M187.46,131.64l-.71,3.53-.65-.14c.3-1.16.61-2.32.91-3.48Z"/><path class="cls-1" d="M152.72,127l.85,3.52-.46.12-1-3.55Z"/><path class="cls-1" d="M165,145.16l1,4.87-.35.07-.9-4.9Z"/><path class="cls-1" d="M155.66,137.65l1,3.6-.53.14-.91-3.64Z"/><path class="cls-1" d="M177.7,201.1c.08,1.14-.82,1.28-1.59,1.5a2.6,2.6,0,0,1-1.35-.12l3-1.35Z"/><path class="cls-1" d="M149.05,148.72l2.36,3-.33.26-2.48-2.89Z"/><path class="cls-1" d="M162.92,170.31l-.49.64-.3-.07.47-3.57.29,0c0,1,0,2,0,3Z"/><path class="cls-1" d="M162.55,195.8c.46-1.31,1.2-1.59,2.56-1Z"/><path class="cls-1" d="M146.74,206.91l2.6-3.12a6.67,6.67,0,0,1-2.29,3.43Z"/><path class="cls-1" d="M124.76,237.54h-2.55C124.66,236.32,124.66,236.32,124.76,237.54Z"/><path class="cls-1" d="M131.64,207.23v-3.06c1.49,1.13.24,2.11.37,3.05Z"/><path class="cls-1" d="M134.34,232.51l3.56-.28,0,.56-3.56.17Z"/><path class="cls-1" d="M148.66,210.22l-2.75,2.19-.26-.31,2.64-2.33Z"/><path class="cls-1" d="M143.74,207.74l.73-2.46.41.12c.05.89.15,1.79-.74,2.44Z"/><path class="cls-1" d="M188.83,174.33l-3.52,2.73-.23-.31,3.56-2.67Z"/><path class="cls-1" d="M138,219l-2.69,1.35c.6-1.56,1.54-2,2.71-1.33Z"/><path class="cls-1" d="M145.2,204.67c-.69-1.06-.55-1.72.68-3.19-.12.77-.17,1.23-.27,1.69S145.37,204.05,145.2,204.67Z"/><path class="cls-1" d="M91.84,259.49l-2.64-.38C90.71,258.29,91.48,258.35,91.84,259.49Z"/><path class="cls-1" d="M174.92,163.46c-.54,1.23-1.09,2.46-1.63,3.68l-.48-.21,1.83-3.59Z"/><path class="cls-1" d="M104.88,249.64l3.79.69-.09.44-3.78-.84Z"/><path class="cls-1" d="M132.23,239.22c-.83.79-1.67,1.56-2.83.63.76-.79.85-.8,1.45-.08l1.17-.88Z"/><path class="cls-1" d="M113.06,242.18l1.59-.29.06,1.22-1.4.19,0-.11,1.22-.44c-.34-.07-.54-.13-.74-.15s-.45,0-.68,0Z"/><path class="cls-1" d="M157.68,143.59c.42.7,1.64,1.17.42,2.45l-.81-2.33Z"/><path class="cls-1" d="M129.89,230l.41,1.15-1.7.56-.24-.37Z"/><path class="cls-1" d="M147.17,197.12l-.77,2.95-.33-.06.58-3Z"/><path class="cls-1" d="M114.59,241.11c1.29-.69,2.28-.54,2.57.43Z"/><path class="cls-1" d="M129.23,233.62h2.21v.44l-2.19.2Z"/><path class="cls-1" d="M151.77,220.17l2.35-.54C153.36,220.71,152.59,220.88,151.77,220.17Z"/><path class="cls-1" d="M195.5,160.88l-1.86,2.57-.34-.26,1.94-2.44A1.78,1.78,0,0,1,195.5,160.88Z"/><path class="cls-1" d="M143.43,188.38c-1.61-.41-1.23-1.33-1-2.21Z"/><path class="cls-1" d="M159.06,151.73l-.92-2.38.49-.17.89,2.45Z"/><path class="cls-1" d="M141.33,230.5l3.52-.41,0,.33h-3.48Z"/><path class="cls-1" d="M156.1,146l-1-2.46.48-.19.91,2.5Z"/><path class="cls-1" d="M109.76,242.23l.4.41-2.37,1.17-.19-.41,2.2-1.2Z"/><path class="cls-1" d="M196.25,176.85c.29-1.26.76-1.93,2.08-1.83Z"/><path class="cls-1" d="M190,164.61l2-1.45C191.77,164.39,191.14,164.85,190,164.61Z"/><path class="cls-1" d="M107.63,224.59l.62,2.06c.68-.7,1.16,0,1.69.54.88.8,1.78,1.58,2.61,2.43a7.41,7.41,0,0,1,.87,1.37l1.15.22-.07.41a3.44,3.44,0,0,1-2.65-.57c-1-.48-1.89-1-2.87-1.43-1.28-.53-.3-1.83-.75-2.63l-.36.07-.08,1.46a6.38,6.38,0,0,1-1.36-1c-.55-.69-1-1.49-1.48-2.22-.12-.17-.36-.24-.55-.35-.26.58-.53.28-.9.08-.18-.09-.54.15-.61.18,1.11,1,2.17,2,3.19,3a13.55,13.55,0,0,1,1.08,1.39c.53.71.17.94-.44,1,.75,1.77-.45,3.3-.46,5l-.48.19-1.73-2.46-.63.12v-1.73l-.66.12-.08,1.87c-2.27-1.07-1.4-2.74-1.18-4.25l-.35.17c-.21-.38-.59-.75-.6-1.14-.07-1.63,0-3.26,0-4.89l-.44-.05a13.71,13.71,0,0,0-.33,2.53,14.66,14.66,0,0,0,.55,2.58l-.36.17c-.22-.27-.45-.54-.66-.82-1.75-2.34-3.48-4.71-5.24-7a41.82,41.82,0,0,1-3-3.83,33.59,33.59,0,0,1-1.87-4.4l.26-.13.57.91.43-.31c-.31-.69-.63-1.38-.91-2.08a10.39,10.39,0,0,1-.57-1.68c0-.17.31-.39.32-.61a4.63,4.63,0,0,0-.1-1.17c-.18-1-.38-1.95-.58-2.93l.5-.12a31.54,31.54,0,0,0,1.27,3.85c.55,1.18.31,2.87,2.09,3.39l-.93.53,1.42.32c-.7.47-.67.44,0,1.06.16.15,0,.56.16.8q1.52,3,3.1,5.88c.13.23.5.34,1,.65-.15-1.9-1.12-3.13-1.69-4.53s-2.1-2.86-1.41-4.79c0-.11.1-.32.06-.34-1.66-1-1.09-2.84-1.54-4.23a22.53,22.53,0,0,1-.77-12.15c.15.16.34.28.37.43.71,3.27,1.49,6.53,2.06,9.83.26,1.48,0,3.05.13,4.55a14.73,14.73,0,0,0,.91,3.43c.69,1.86,1.49,3.68,2.26,5.51a1.43,1.43,0,0,0,.64.68,34,34,0,0,1-2.58-8.89l.34-.2.89.64-.62-6.25.17,0c.79,2.86,1.59,5.71,2.4,8.64,1-.72,1.49-.36,1.69.54a3.26,3.26,0,0,0,1.25,1.79,11.62,11.62,0,0,1,1.76,2.58c.47.76.9,1.54,1.34,2.32l0-.05A6.32,6.32,0,0,0,107.63,224.59Z"/><path class="cls-1" d="M111.52,164.67a34.72,34.72,0,0,0,.1,6.21,12.9,12.9,0,0,1-.26,3.16c0,.32.32.67.3,1,0,.72-.29,1.43-.34,2.15s0,1.57,0,2.35c0,1.66,0,3.32,0,5l-.41,0c-.13-1.33-.27-2.66-.38-4s-.09-2.7-.26-4c-.06-.47-.49-.89-.85-1.5a3.62,3.62,0,0,0,.23-3c-.31-1.12.19-2.49.45-3.73s.63-2.39,1-3.58Z"/><path class="cls-1" d="M110.33,208.8c-1.84-5.66-1.9-11.54-2.28-17.38C110.63,197,109.72,203,110.33,208.8Z"/><path class="cls-1" d="M101.15,238.74c.2,2.41-2.07,2.38-3.11,3.48a13.69,13.69,0,0,1-.61-1.56,1.52,1.52,0,0,1,.09-.89q1-2.36,2.06-4.7a.75.75,0,0,1,.6-.37c.18,0,.49.33.47.48-.11.8.34,1.65-.47,2.44-.41.4-.27,1.37-.42,2.37Z"/><path class="cls-1" d="M100.34,230.94l-1.14-1.59-.33.12c0,.34-.06.82.14,1,1.36,1.32.72,2.73.19,4.07a16.28,16.28,0,0,1-1.87,3.28l.76-2.74-.23-.12-.8.85.31-1.9.71.32.4-.39-1.3-.75,0-.3,1.11.11c-.14-1-.24-2-.47-3s-.56-2-.84-3l.34-.19L99.15,229a2.34,2.34,0,0,1,1.44,1.72Z"/><path class="cls-1" d="M71.85,216.69c3.48,1,4.31,4.17,6.31,6.74A18.83,18.83,0,0,1,71.85,216.69Z"/><path class="cls-1" d="M96.94,238.78a18.53,18.53,0,0,1-.79,4.2c-.39.92-1.49,1.54-2.3,2.26a2.05,2.05,0,0,1-.59-.51c1.07-2,2.19-3.91,3.31-5.86C96.58,238.85,96.64,238.85,96.94,238.78Z"/><path class="cls-1" d="M105.77,237c.51-.74.91-1.23,1.21-1.78s.53-1.19.82-1.85l2.63.62,0,.4C108.94,235.23,107.91,236.94,105.77,237Z"/><path class="cls-1" d="M101,190.87c1.75,2.32,1.3,5,1.75,7.44C101.71,197.5,100.66,192.76,101,190.87Z"/><path class="cls-1" d="M108.46,212c-1.09-3-2.8-5.85-2.89-9.18l.44-.13,2.74,9.2Z"/><path class="cls-1" d="M106,237.7l-4.12,2.19,1-4.43c.91.74.91.74.17,3,.21-.17.53-.3.63-.52C104.36,236.51,104.34,236.5,106,237.7Z"/><path class="cls-1" d="M75.83,249.14a2.67,2.67,0,0,1-2.67-2.69c0-.25-.16-.55-.29-.81-.22-.42-.46-.84-.79-1.43,1.38.51,3.21,2.45,3.37,3.5l-1-.47-.2.19Z"/><path class="cls-1" d="M75.26,238.85l5.16,6.54-.32.23C78.26,243.65,75.67,242.23,75.26,238.85Z"/><path class="cls-1" d="M110.25,213.48c-.7-2.12-1.92-4.09-1.7-6.39C109.41,209.16,110.72,211.11,110.25,213.48Z"/><path class="cls-1" d="M109.91,178.17c.17,2.2.36,4.39.49,6.59,0,.22-.37.46-.84,1-.1-2.64-.2-4.91-.26-7.18a1.76,1.76,0,0,1,.24-.66Z"/><path class="cls-1" d="M102.73,182.66v8l-.4,0A18.1,18.1,0,0,1,102.73,182.66Z"/><path class="cls-1" d="M69,243c.78,1.47,1.58,2.92,2.31,4.41.13.27,0,.68,0,1-.26-.16-.66-.26-.76-.49-.71-1.55-1.35-3.12-2-4.69Z"/><path class="cls-1" d="M98.53,192.1l-.45-8.62.42,0,.69,8.6Z"/><path class="cls-1" d="M107.76,230.82c1.48.41,2.69.69,3.85,1.11.27.1.38.69.5,1.08,0,.05-.48.38-.63.32A7.21,7.21,0,0,1,107.76,230.82Z"/><path class="cls-1" d="M72.62,252.05a3.28,3.28,0,0,1,2,3.26l-3.4-2.9,1.41-.4Z"/><path class="cls-1" d="M66.16,213.62l3.12,1.44.19.68c-2.11.34-3.4-1-5.07-2.12Z"/><path class="cls-1" d="M78.49,252.48c-2.6.14-4.29-1-4.3-2.88Z"/><path class="cls-1" d="M73.34,241.8,72,239.73l-.6.6c-.18-.38-.55-.79-.51-1.15a7.85,7.85,0,0,1,.69-1.85c.7,1.52,1.35,2.93,2,4.34Z"/><path class="cls-1" d="M83.31,250.75l-3.18-1.57.8-1.18,2.66,2.36Z"/><path class="cls-1" d="M68.2,244.05l1.28,4.23c-.54-.32-1-.44-1.1-.68-.28-1.13-.44-2.3-.65-3.45Z"/><path class="cls-1" d="M76.44,209.61c.87,1.3,1.68,2.62,1,4.42l-1.4-4.3Z"/><path class="cls-1" d="M82,233.56c-.38-.43-.94-.8-1.11-1.3a18.23,18.23,0,0,1-.55-2.78l.3-.1,1.71,4Z"/><path class="cls-1" d="M97.06,195.94,98,202.7l-.37.05L96.67,196Z"/><path class="cls-1" d="M97.42,180.19,96.87,186l-.41,0,.53-5.75Z"/><path class="cls-1" d="M69.4,217c1.75-.39,2.4.06,3.12,2Z"/><path class="cls-1" d="M100.64,180.55v4.12h-.32l-.24-4.11Z"/><path class="cls-1" d="M84.45,197.23a7.44,7.44,0,0,1,.51,4.43l-.89-4.36Z"/><path d="M107.63,224.59a6.32,6.32,0,0,1-2.85-4c.86.88,1.08,2.42,2.38,2.69.17.47.32.88.48,1.28Z"/><path class="cls-1" d="M74,224.68,76.9,228l-.39.34L73.75,225Z"/><path class="cls-1" d="M72.66,252c-.58-.48-1.16-.95-1.72-1.46,0-.05.07-.38.19-.48s.46-.1.5,0c.39.63,1.37,1,1,2Z"/><path class="cls-1" d="M82.75,231.65l1.52,3.78-.27.11-1.64-3.74Z"/><path class="cls-1" d="M101.56,202.66l-.51-3.07.34-.09.72,3.18Z"/><path class="cls-1" d="M95.7,237.81l-1.29,3-.29-.11,1.12-3.12Z"/><path class="cls-1" d="M83,223.93l1.59,2.88-.41.22-1.48-2.91Z"/><path d="M117.34,226.88c-3.25-.67-6.32-1.63-7.77-5.1C111.6,224.37,114.54,225.51,117.34,226.88Z"/><path d="M125,242c.33-1.71,1.54-.61,2.27-1l.1.34Z"/></svg>