<svg id="Layer_1" data-name="Layer 1" xmlns="http://www.w3.org/2000/svg" viewBox="0 0 720 720"><defs><style>.cls-1{fill:#fff;}</style></defs><title>Artboard 1_1</title><path d="M126.64,327.4c-1.89-2-4.08-3.82-5.62-6.07-7.46-10.9-14.33-22.18-15.58-35.7-1-10.91,3.91-19.87,11.67-26.95A343,343,0,0,1,144,236.46c13.48-10,28.08-15.41,45.37-10.15,12.37,3.77,25.1,6.41,37.74,9.27,23.08,5.21,40.95,18.69,56.61,35.56,7.21,7.75,15.8,13,25.42,17.14,21.89,9.34,43.58,19.17,65.52,28.37,14.12,5.91,28.55,11.07,42.84,16.58,1.67.65,3.3,1.42,4.95,2.14-2.26-.4-4.69-.4-6.78-1.26q-37.12-15.32-74.15-30.86c-3.69-1.54-7.2-3.55-11-4.76-21.21-6.81-40.35-16.47-55.58-33.64-14.21-16-33.06-24.78-54-29.2-10.87-2.31-21.72-4.85-32.43-7.83a44.62,44.62,0,0,0-29.23,1.58c-12.5,4.82-20.65,14.93-30.48,23-.89.73-.78,2.68-1.13,4.07l1.5-.9L139.77,262c-.06.22-.12.44-.17.66l-6.7-1.07-.3.95,4.72,2.65a50.9,50.9,0,0,1-11-1.5c-4.76-1-6.89,2.84-9.13,5.54-1.08,1.31-.63,4.64.2,6.61,1.57,3.72,3.91,7.12,6.22,11.14.06-.18.5-1.37,1-2.64l6.39,5.5-.48.55-4.66-2.5c-.81,5.54,4.3,7.17,5.21,9.23-.9,2.77-2.1,4.54-1.63,5.53.56,1.17,2.55,1.66,3.91,2.44l1.25-.5c1,8,2.9,16,2.86,24,0,5.43,3.45,6.87,6.75,10.65-.36-3.05-.58-4.89-.82-6.88,6.44,1.82,7.37,6.69,8,11.86a9.87,9.87,0,0,0,1.67,4.54c.63.84,2.2,1.13,3.4,1.29.39.05,1.41-1.21,1.32-1.7a9.19,9.19,0,0,0-1.51-2.84c-1.68-2.66-3.4-5.3-5.1-8l1.48-1c4.27,5.78,14.37,4.63,15,14.54,7.17-6.68-1-12.4,1.26-18.59,1.92,5.52,3.83,11,6.17,17.8l2.71-5.7,12.37,16.52c1.08-2.38,1.56-3.42,2.37-5.2,3,5.16,3.46,12.7,11.3,10.51,2.5,1.83,4.68,4.25,7.38,5.2,3.42,1.2,6.88,1.69,10.34,3.54,12.6,6.74,25.48,13.06,38.62,18.68,16.18,6.92,32.79,12.81,49.07,19.51,5.33,2.2,10.17,5.56,15.12,8.32l1.19-3.5,1.64-.05c-.31,5.8-4.57,12.37,2.63,17l3.38-2.73-3.88-1.05c1.63-4.26,3.18-8.32,4.74-12.38l1.58.57-1.28,5.86,1,.88,6.28-6.65,1,.79-3.34,6.11,1.09.9,8.57-6.63.89,1.08c-1.87,1.95-3.73,3.91-5.6,5.87l1.1,1.28,11-8.2.93,1.21-12.28,10.16c.47.53.95,1.06,1.42,1.6l17.06-14.54,1.19,1.47c-2.63,2.15-5.35,4.19-7.86,6.47-2.34,2.13-4.45,4.5-6.66,6.77l1.11,1.11a38.84,38.84,0,0,0,5.11-2.92c6.37-5,11.85-11.75,21.63-9.74l2,3.74,3.55-5c1.22,1.44,2.15,2.55,3.1,3.66,2-3.68,2.74-3.77,5.25-.92.32.36,1.37,0,2,.2,3,1,6,2.06,9.12,3.13l-1.59,3.25,1.29.89c1.43-1.87,2.86-3.75,5-6.6,1,2.33,1.89,4.26,2.86,6.47l3.3-4,12.21,23.59-1.13.66-6.57-11.63-.85.52,3.74,9.33-1.15.44-7-15.76-1.26.53,4.47,11.39c-2.5-2.67-3.84-5.83-5.48-8.82-.36-.65-1.81-.7-2.76-1,0,.88-.26,1.93.12,2.62,1.07,2,2.41,3.78,3.38,5.25-5.22,1.82-8.56-6.6-14.36-2l3.53-3.19c-.05-.52-.11-1-.16-1.56-1.3.11-3.48-.19-3.77.41-2,4.09-3.52,1.77-5.07-.28l-7.11,4.71,4.8,7.32-2.94,2.35c-1.5-1.94-3-3.88-4.51-5.83l-1.72.07c0,1.58-.69,3.53,0,4.66a104.63,104.63,0,0,0,6.75,8.9l-.69.59-9.11-10.14-1.18.95,8.66,11.92-.94.71-9.7-12c.34,5.56,6.52,7.41,4.26,13.37l-7.29-8.93c-2.17,1.78-3.86,3.14-5.83,4.75.72,1.32,1.58,2.87,2.44,4.42-5.09.36-5.59-4.48-7.91-7.15-3-3.48-2.85-3.64-5.94-.29h-4.32l-1.92,7.76,4.82-4.4,3.56,6.09c4.34-4.49,8.53-3,11.14,3.32l1.35-.17-1-5.33,6.3,6.66c2.22-1.57,4.37-3,6.41-4.56,3.9-3,5,.31,6.3,3.4l3.84-6.88,1.26.65-2.35,6.18,1,.48,9-14.62.9.6-.71,8.62,1-.17,7.36-10.67,2.12,3.5c7.1-4.93,11.93-2.31,14.75,5.29l5.45-5.09,3.49,6.52,8.39-4.32c3.36,12.36,6-1.43,9.1.11.48,1.37.94,2.66,1.59,4.53l6.78-6.51c.26.26.51.53.77.8-.46,1.38-.91,2.77-1.6,4.86l5.16-2c-.22,2-.38,3.52-.66,6.17l7-7.79.93.8c-.5,1.36-1,2.72-1.48,4.07l.84.45,4-5.48c3.08,5.66,4.85-1.58,7.87-.52l-2.07,5.3c2.61-1.66,4.23-3.87,6.06-5.9s3.94-3.95,5.93-5.92l1.33,1.35c-1.43,1.42-3,2.75-4.25,4.29a39.68,39.68,0,0,0-2.72,4.27l1.57,1,7.32-6.31c4.18,4.42,8.52,4,15.2-.61a72.61,72.61,0,0,0,7.86,1.05c9,.14,17.9.07,26.85.14,9.52.07,18-2.47,24.69-9.63.81-.86,1.06-2.24,1.82-3.94l-10.84,4.82c2.78-4.08,4.76-9.74,11.6-5.83L579,432.8l-1.21-.71-8.88,8-4.9-6.76-1,.71c.52,1.42,1,2.84,1.88,5.11l-3.39-2.31-7.82,6.52c-.13-1.95-.23-3.59-.34-5.23l-1.89-1-2.63,4.77-5.49-3.65c-.53,1.65-1.07,3.3-1.6,5l-2.35-1.26c-.07,1.35-.12,2.32-.2,3.73l-6.67-7.11-.87.76q1.3,2.7,2.62,5.39l-.44.2L526,435.94l-1.43,1.23q4,6.54,8,13.09c-3.37-2.95-5.81-6.47-8.45-9.85-.56-.71-2.25-1.45-2.7-1.14a5.06,5.06,0,0,0-1.71,3c-.17.8.45,1.76.86,3.1l-4.94-3.73c.12,2,.18,3.2.33,5.82-2.06-2.84-3.33-4.62-4.63-6.37s-2.7-4.09-5.33-1c.52.82,1,1.49,1.37,2.21s.78,1.61,1.67,3.46c-5.15-4.89-5.15-4.89-7.79-3.1.88,1.51,1.76,3,2.65,4.54-6.1-4.91-6.79-4.9-9.06.62-3.18-3.16-5.19-8.25-11.53-7l6.41,9.47-1.25.74-7.21-9.39-1.24.79c.82,2,1.65,4,2.47,6l-.64.26-7.85-10-.75.53c.67,2.06,1.35,4.11,2,6.17l-1.11.35c-1.19-1.87-2.38-3.73-3.56-5.6l-.54.36,1.89,5.12-.68.22-4.85-5.91-1.69,1.38C466,450,476.85,451,480.79,459.05l-15.86-11.51-.83,1,6.13,6.66-1,.83-12-11.23,6.6-1c-4.62-5.65-13.43-3-16.31-10.41h-5.62l15.88-6.69c.37,4.68,2.94,4.26,6,3.19,4-1.42,8.11-2.63,13.22-4.26-1.27,2.29-1.9,3.44-3,5.42l21.39-7.79v3.6l17.26,2.19c3.79-4.5,8.65-5.69,14.48-1.22-.15-2.19-.24-3.55-.38-5.6l8,5.88,1-.88-2.25-5.67.84-.6,3.58,3.21c3.54-1.61,6.59-3.08,9.71-4.37,1.22-.5,2.88-.21,3.87-.93,4.77-3.44,8.09-3,11.42,1.9,4.59-3.59-3.36-5.37-.82-9.3l7.19,8.54,1.16-.58a53.37,53.37,0,0,0-2.74-5.45c-5.23-8.09-12.55-3.54-19.43-2.85,2.69-3,5.8-5.15,8.28-7.85,3.8-4.16,4.08-7.61,1.26-10-3.75,6.86-8.62,12.64-15.67,16.3l9.32-9.72-1-.84L536,411.38l-.86-1.07,8.13-6.83-1.14-1.35L528,412.79l-.86-1.17c2.2-1.7,4.48-3.29,6.56-5.11s3.83-3.78,5.74-5.68l-1.5-1.52c-.91.71-1.85,1.4-2.74,2.15-3.8,3.22-7.48,6.62-11.47,9.59-1.11.83-3.14.43-4.75.6-.08-.49-.17-1-.26-1.48l8.64-7.18c-5.23-5-10.13-6.73-13.62-4.28l8.43,4.46c-.12.44-.23.88-.35,1.32-4.65-.35-7.48,7.44-13.49,2.58l4.88-6.31-.94-.85-8.07,4.69-.54-.82,5-5.28-.54-.34-11.32,5.52-.59-1,2.25-2.06c-.92-1.42-1.4-2.77-2.36-3.5a4.3,4.3,0,0,0-3.37-.81c-1.3.44-2.32,1.71-3,2.26-3.26-1.08-6.12-1.89-8.86-3-.88-.35-1.45-1.46-2.17-2.22l-2.44,3.44c-5.9-3.17-12.37-4.29-19.19-1.55-1.91-5-3.91-5.28-9.74-.66L455,406.26c-7-3.62-10.1-9.19-8.66-15.07l-9.55-6c.93,2,1.37,2.95,1.8,3.89l-.85.66-8.56-6.66.89-1c8.34,3.22,16.7,5.82,23.19,1.71l16.41,2.94v3.67l6.42-5.43,1.76,3.68,14.33-5.34-4.17,5.46,1,1.34,10.51-6.38c.19.35.39.69.58,1l-3.78,4c5.29,4,6.42-4.08,10.34-2.88l2.58,3.26,3-3.63a47.9,47.9,0,0,0,14.54,0c3.65-.54,7.19-1.86,10.78-2.85,4.28-1.19,9.14-1.13,12.38-5.18-10.94-9.07-11.65-9.16-16.57-2.21l4,5.16c-5.09-2-7-8.09-13.59-6.49l3.5,4.89c-2.62-.92-4.45-2.65-6.6-3.75-1.46-.75-3.64-1.23-5-.66-1,.4-1.13,2.76-1.72,4.42l-9.42-7.56c-.46.36-.91.73-1.36,1.1l4.07,6.54-.54.37-8.31-6.56L497,374l5.65,6.48-.48.54-7.52-5.14-.71.93c.28,1,.57,2,1.06,3.77L488.75,376c-1.87.8-4.39,2.3-4.69,1.95-3.11-3.76-5.55-.78-8.15.52-3.46,1.73-7,4.75-9.86-.85-.17-.33-1.24-.35-1.85-.27-4.32.62-8.63,1.31-13.1,2,.21-2.16.29-2.92.36-3.68-1.16.33-2.87.28-3.39,1-2.94,4.3-5.05,3.08-7.75-1.76l12.36-4.58-13.09-13.95,1.79-1.41c3.42,7.05,12.63,9.68,13,19.08l8.49-5c1,1.81,1.81,3.22,2.14,3.81,3.76-1.68,6.95-4.43,9.59-4,3.18.55,6.2-.73,8.34-.34,6.11,1.1,6.92-4.41,10.61-5.47-5.36-5.85-10.18-11.23-15.19-16.43-.59-.61-2.24-.21-3.4-.27l-.63,1.13,11.41,13.2-1.43,1.2c-4.07-5-8.1-9.95-12.24-14.85a5.18,5.18,0,0,0-2.76-1.59c-11.26-2.21-22.57-4.22-33.81-6.53-4.49-.92-8.84-2.47-13.25-3.74,9.8,1.86,19.53,4.3,29.41,5.46,19.31,2.27,38.69,4,58.07,5.6,7.1.61,14.31,0,21.39.77a13.68,13.68,0,0,1,8.14,4.29,148.24,148.24,0,0,1,11.5,16c6,9.33,11.27,19.22,17.81,28.17,9.69,13.24,12.6,28.05,13.45,44,.73,13.45-5.53,22-15,30.65-13.31,12.17-28.08,18.13-45.88,18.27-12.74.1-26-.8-38.12,2.16-22.63,5.5-45.1,5.54-67.9,3.46-5.14-.46-10.37-.32-15.43-1.18-12.43-2.12-24.76-4.79-37.18-7-10.3-1.83-21.13-1.93-30.89-5.26-14.42-4.93-28.18-11.83-42.05-18.28-15.23-7.09-30.57-14-45.28-22.13-11.16-6.13-21.53-13.74-32-21.06-11.83-8.26-23.37-16.93-35-25.45-.32-.24-.37-.85-.55-1.29l-.12.12,5.72,2,1.7-1.94c-2.26-1.57-4.51-3.16-6.79-4.7-7-4.73-14.14-9.28-21-14.22a19.92,19.92,0,0,1-6.3-6.79c-4-8.18-7.54-16.6-11-25-3-7.12-12.7-20.29-17.86-23.55l5.54,9.21Zm262,156.19-5.91-3.37-1,1,3.29,5.45-.67.43-8.57-8.08,1.1,4.26-1.25.81-4.39-6.62-1.1.83v1.94c-1.94-.1-3.82-.72-5.25-.16-4.6,1.79-8.24.55-11.33-3.25-.44,1.23-.68,1.91-.63,1.76-2.63-.6-4.77-1-6.87-1.59a34.32,34.32,0,0,0-5-.65c-4.22-.51-8.38-2.25-12.33-4-2.61-1.17-4.8-3.26-7.18-5,.18-.39.37-.79.55-1.19l-4.74,1.2c1.12-1.54,1.86-2.56,3.4-4.66l-7.63,2.83c1.33-2,3.72-3,4.4-4.65s-.46-4-1-7.42l9,6.67c3.82-2.07,8-.05,12.22,3.86,1.78-4,4.09-1.47,6.07-.37,3.51-2.45,3.84-5,1.64-8.27s-3.82-6.61-5.89-9.82c-.6-.94-2.22-2.32-2.71-2.09-4.66,2.21-5.24-1.54-6.58-4.22a19.35,19.35,0,0,0,3.33,2.72,2.63,2.63,0,0,0,2.47-.59,2.79,2.79,0,0,0-.15-2.47,40.52,40.52,0,0,0-3.23-4.21l-2.25,4.71-5.15-5.77-.84.69,5.16,10.28L329,445l-7.54-9.1-1,.76c1.8,2.39,3.9,4.63,5.32,7.24,1.34,2.46,2,5.31,2.89,8l-1.53.58-4.92-4.44c-.28,1.55-.47,2.63-.79,4.44-1.61-2.07-2.7-3.48-3.81-4.89,3.21-.55,2-2.59,1-3.94-2.39-3.22-5.07-6.23-7.63-9.33l-1.5.93a46.48,46.48,0,0,0,3,6.1,78.46,78.46,0,0,0,5.3,6.42L313,444.84c.2,2.18.37,4,.67,7.2-3.9-5.3-1.61-13.6-10.44-13.33,1.64,5.64,3.25,11.22,4.87,16.81l-1.48.5c-1-2.87-1.73-5.9-3.1-8.59s-3.37-5-5.09-7.44l-1.36.73,2.61,9.07-7.5-10-.93.45.42,4.45c-3.43-14.85-17.84-22.15-23.76-35.09,3.62,11.09,12.07,19.18,17.8,29-2.66-2.42-4.74-5.3-7.15-7.89-1.09-1.16-2.83-1.72-4.27-2.55-.43,1.35-.86,2.69-1,3.21l-10.21-13.84-1.61,1.05c1.37,3.4,2.75,6.79,4.2,10.38-3.18-3.28-6-6.3-9-9.18a2.62,2.62,0,0,0-2.4-.53,3.16,3.16,0,0,0-1.19,2.32,8.25,8.25,0,0,0,.53,2.56l-10.27-10.36c.49,2.91.72,4.24.95,5.58-2.57-8.32-6.06-15.93-13.47-21.26l8.6,12.27-4.91-2.8c.89,2.65,1.56,4.63,2.22,6.61l-1.89.77c-1.12-2.2-2.66-4.29-3.29-6.62a55.24,55.24,0,0,0-10.05-19.25l-1.38.79,8.59,13.76-1,.89c-1.61-1.27-4-2.22-4.66-3.86-1.47-3.72-3.32-6.26-8.45-6.05,1.38,2.71,2.61,5.16,3.85,7.61l-1.59.74c-1.34-2.71-2.83-5.36-4-8.16-1.34-3.22-2.2-6.76-7-6.34.11,1.42.21,2.64.43,5.37l-8-11.66v7l-1.54.84-14.31-22.95-.82.31,1.41,9.34-1.16.24-7.41-12.68-1.57.9q3.48,6.31,7,12.62l-.81.55-6-8.58-1.45,1.11,15.89,22.2,1.12-.57c-.21-1.74-.42-3.48-.75-6.25,2.6,4.35,4.64,7.74,7,11.63l1.75-3.45,6,10.7,1.18-.58c-.33-1.83-.66-3.67-1.1-6.15l9.42,15.48-.45.55-6.19-4.36-.89,1.12a15.64,15.64,0,0,0,2.21,2.31c20.6,14.44,41.43,28.53,64.61,38.58,9.15,4,17.84,10.38,29.06,6.31l.27,1.9-6,2.77c6.82,3.33,13.44,6.73,20.2,9.82,14.24,6.5,29.25,9.43,44.84,11.1,16.78,1.79,32.88,8.33,50.13,7.79,5.69-.17,6.82-.8,7.31-8.13-1.51,2.4-2.54,4.05-3.76,6-.54-2.06-1-3.68-1.64-6.31l-3.69,6.42-.93-.43,1.25-4.88c-3.89,4.6-6.91,4-12.62-1.75-2.09,3.73-4.48,5.66-7.31.68,1.88.36,4.63,2.4,5-1,.24-2.15-1.53-4.53-2.44-6.93C386.05,478,386.65,480.68,388.68,483.59Zm37.63,6.47-.58-.42q.91-2.73,1.81-5.46l-1.16-.47c-1,1.68-2,3.37-3.2,5.32-.61-1.95-1.08-3.44-1.64-5.2l-4.3,7.74c.35.26.59.58.87.61,23,3.07,45.78,2.81,68.06-4.7,3.79-1.28,2.26-3,.67-5.37l-5.93,5.11L474,480.63c-1.31,1.58-2.44,2.95-3.58,4.31l-3.08-1.55c-1.31,1.67-2.46,3.14-3.34,4.28-1.35-2.47-2.57-4.73-4.06-7.46l-3.8,4c.07-1.22.09-1.67.12-2.11.1-1.45.21-2.89.31-4.34a40.36,40.36,0,0,0-3.24,3.44c-1.71,2.26-3.25,4.65-5.52,7.93.58-3.9.94-6.36,1.31-8.83l-1.86-.48c-1.56,2.34-3.13,4.67-4.85,7.22l-1.9-5.25c-4.15,2.25-4.8,11.29-11.7,4.92Zm64.49-5.23c11.45,3.67,40.33,2.66,46.58-.7a41.32,41.32,0,0,0-2.78-3.83,34.17,34.17,0,0,0-3.28-2.85c-5.19,6-5.77,6.16-10.12,2.82-2.36,2.74-9.83,4.8-11.56,3.2.29-1.3.57-2.59.85-3.88l-1.1-.72c-.91.88-1.91,1.71-2.73,2.67-1.87,2.19-3.33,3.85-7,2.41C497.2,483,493.79,484.45,490.8,484.83ZM496.05,350l1.32-1.09,7.16,8,.65-.66c-.56-1.31-1.12-2.62-1.67-3.94l.92-.63,6.78,6.35c2.34-3.18,2-4.91-1.37-5.92-2.38-.71-4.63-1.9-7-2.42-6.62-1.44-13.3-2.64-19.95-3.93L481.6,348c3.76,3.74,7.45,7.56,11.35,11.16.83.76,2.43.69,3.68,1-.52-1.27-.71-2.87-1.61-3.76-2.17-2.13-4.66-3.94-7-5.88l1.37-1.61,12.36,10.49.9-1ZM194.74,385.77l2.4-1-6.87-17-2.55,1Zm176.09,39.71-1-1.38-12.39,9.06C363,433.94,368.59,430.15,370.83,425.48Zm2.4,17a64,64,0,0,1,4.81-5.83,33.65,33.65,0,0,1,4.5-3.07l-.84-1.39-7.94,4.65-.39-.7,2.21-2.67-.8-.88-5.45,5,4.86,1.59C374,439.67,373.84,440.38,373.23,442.44ZM250.67,403.92l-1.79,1.17q4.83,7.25,9.64,14.5c.64-.41,1.27-.83,1.9-1.25Zm45.26,23.53-2.47,1.25q2.85,5.43,5.69,10.85l2.17-1.1ZM249,417.76l1.77-1.31L243.44,406l-2,1.48Zm115.19,16.72c5.72,1.48,9.91-1.43,8.56-6.3Zm-203.94-85.7c-1.37,7.15,4.14,6.66,7,8.73l1.1-1.13Zm367.59,22.58c4.58,4,5.91,0,8.17-2.3C531.72,364.58,530.67,369.51,527.83,371.36Zm-87.34,101,2.93-.32L443,466.9l-3.51.5C439.82,469.05,440.16,470.71,440.49,472.36ZM434,476.29c-3,3.48-.56,5.21,1.87,7.27C439.43,479.83,437.43,478,434,476.29Z"/><path d="M176.68,392.39c-3.19-1.26-6.71-2-9.5-3.88-6.48-4.32-12.75-9-18.78-13.88a20.78,20.78,0,0,1-6-7.67c-5.48-13.09-10.53-26.35-15.74-39.56l-.1.1c.95.78,2.35,1.36,2.77,2.36,4.82,11.39,9.74,22.75,14.1,34.32A22.45,22.45,0,0,0,152.6,376c8.16,5.23,16,11,24,16.53Z"/><path class="cls-1" d="M367.79,465.54c-.86-1.55-1.72-3.1-2.44-4.42,2-1.61,3.66-3,5.83-4.75l7.29,8.93c2.26-6-3.92-7.81-4.26-13.37l9.7,12,.94-.71-8.66-11.92,1.18-.95,9.11,10.14.69-.59a104.63,104.63,0,0,1-6.75-8.9c-.7-1.13-.05-3.08,0-4.66l1.72-.07c1.5,2,3,3.89,4.51,5.83l2.94-2.35-4.8-7.32,7.11-4.71c1.55,2,3.08,4.37,5.07.28.29-.6,2.47-.3,3.77-.41,0,.52.11,1,.16,1.56l-3.53,3.19c5.8-4.65,9.14,3.77,14.36,2-1-1.47-2.31-3.29-3.38-5.25-.38-.69-.1-1.74-.12-2.62.95.32,2.4.37,2.76,1,1.64,3,3,6.15,5.48,8.82L412,434.87l1.26-.53,7,15.76,1.15-.44-3.74-9.33.85-.52,6.57,11.63,1.13-.66L414,427.19l-3.3,4c-1-2.21-1.83-4.14-2.86-6.47-2.16,2.85-3.59,4.73-5,6.6l-1.29-.89,1.59-3.25C400,426.08,397,425,394,424c-.64-.21-1.69.16-2-.2-2.51-2.85-3.25-2.76-5.25.92-.95-1.11-1.88-2.22-3.1-3.66l-3.55,5-2-3.74c-9.78-2-15.26,4.74-21.63,9.74a38.84,38.84,0,0,1-5.11,2.92l-1.11-1.11c2.21-2.27,4.32-4.64,6.66-6.77,2.51-2.28,5.23-4.32,7.86-6.47l-1.19-1.47-17.06,14.54c-.47-.54-.95-1.07-1.42-1.6L357.35,422l-.93-1.21-11,8.2-1.1-1.28c1.87-2,3.73-3.92,5.6-5.87l-.89-1.08-8.57,6.63-1.09-.9,3.34-6.11-1-.79-6.28,6.65-1-.88,1.28-5.86-1.58-.57c-1.56,4.06-3.11,8.12-4.74,12.38l3.88,1.05-3.38,2.73c-7.2-4.62-2.94-11.19-2.63-17l-1.64.05-1.19,3.5c-5-2.76-9.79-6.12-15.12-8.32-16.28-6.7-32.89-12.59-49.07-19.51-13.14-5.62-26-11.94-38.62-18.68-3.46-1.85-6.92-2.34-10.34-3.54-2.7-.95-4.88-3.37-7.38-5.2-7.84,2.19-8.26-5.35-11.3-10.51-.81,1.78-1.29,2.82-2.37,5.2l-12.37-16.52-2.71,5.7c-2.34-6.76-4.25-12.28-6.17-17.8-2.28,6.19,5.91,11.91-1.26,18.59-.64-9.91-10.74-8.76-15-14.54l-1.48,1c1.7,2.65,3.42,5.29,5.1,8a9.19,9.19,0,0,1,1.51,2.84c.09.49-.93,1.75-1.32,1.7-1.2-.16-2.77-.45-3.4-1.29a9.87,9.87,0,0,1-1.67-4.54c-.63-5.17-1.56-10-8-11.86.24,2,.46,3.83.82,6.88-3.3-3.78-6.78-5.22-6.75-10.65,0-8-1.82-16-2.86-24l-1.25.5c-1.36-.78-3.35-1.27-3.91-2.44-.47-1,.73-2.76,1.63-5.53-.91-2.06-6-3.69-5.21-9.23l4.66,2.5.48-.55-6.39-5.5c-.47,1.27-.91,2.46-1,2.64-2.31-4-4.65-7.42-6.22-11.14-.83-2-1.28-5.3-.2-6.61,2.24-2.7,4.37-6.58,9.13-5.54a50.9,50.9,0,0,0,11,1.5l-4.72-2.65.3-.95,6.7,1.07c.05-.22.11-.44.17-.66l-10.61-6.37-1.5.9c.35-1.39.24-3.34,1.13-4.07,9.83-8.08,18-18.19,30.48-23a44.62,44.62,0,0,1,29.23-1.58c10.71,3,21.56,5.52,32.43,7.83,20.92,4.42,39.77,13.18,54,29.2,15.23,17.17,34.37,26.83,55.58,33.64,3.78,1.21,7.29,3.22,11,4.76q37,15.48,74.15,30.86c2.09.86,4.52.86,6.78,1.26l-.19-.15c4.41,1.26,8.76,2.81,13.25,3.73,11.24,2.31,22.55,4.32,33.81,6.53a5.18,5.18,0,0,1,2.76,1.59c4.14,4.9,8.17,9.89,12.24,14.85l1.43-1.2-11.41-13.2.63-1.13c1.16.06,2.81-.34,3.4.27,5,5.2,9.83,10.58,15.19,16.43-3.69,1.06-4.5,6.57-10.61,5.47-2.14-.39-5.16.89-8.34.34-2.64-.46-5.83,2.29-9.59,4-.33-.59-1.13-2-2.14-3.81l-8.49,5c-.33-9.4-9.54-12-13-19.08l-1.79,1.41,13.09,13.95L440.32,375c2.7,4.84,4.81,6.06,7.75,1.76.52-.76,2.23-.71,3.39-1-.07.76-.15,1.52-.36,3.68,4.47-.69,8.78-1.38,13.1-2,.61-.08,1.68-.06,1.85.27,2.87,5.6,6.4,2.58,9.86.85,2.6-1.3,5-4.28,8.15-.52.3.35,2.82-1.15,4.69-1.95l6.24,4.57c-.49-1.75-.78-2.76-1.06-3.77l.71-.93,7.52,5.14.48-.54L497,374l1.39-1.27,8.31,6.56.54-.37-4.07-6.54c.45-.37.9-.74,1.36-1.1l9.42,7.56c.59-1.66.75-4,1.72-4.42,1.38-.57,3.56-.09,5,.66,2.15,1.1,4,2.83,6.6,3.75l-3.5-4.89c6.59-1.6,8.5,4.47,13.59,6.49l-4-5.16c4.92-6.95,5.63-6.86,16.57,2.21-3.24,4-8.1,4-12.38,5.18-3.59,1-7.13,2.31-10.78,2.85a47.9,47.9,0,0,1-14.54,0l-3,3.63-2.58-3.26c-3.92-1.2-5.05,6.91-10.34,2.88l3.78-4c-.19-.34-.39-.68-.58-1l-10.51,6.38-1-1.34,4.17-5.46-14.33,5.34-1.76-3.68-6.42,5.43v-3.67l-16.41-2.94c-6.49,4.11-14.85,1.51-23.19-1.71l-.89,1,8.56,6.66.85-.66c-.43-.94-.87-1.88-1.8-3.89l9.55,6c-1.44,5.88,1.69,11.45,8.66,15.07l-7.76-11.69c5.83-4.62,7.83-4.37,9.74.66,6.82-2.74,13.29-1.62,19.19,1.55l2.44-3.44c.72.76,1.29,1.87,2.17,2.22,2.74,1.1,5.6,1.91,8.86,3,.68-.55,1.7-1.82,3-2.26a4.3,4.3,0,0,1,3.37.81c1,.73,1.44,2.08,2.36,3.5l-2.25,2.06.59,1,11.32-5.52.54.34-5,5.28.54.82,8.07-4.69.94.85-4.88,6.31c6,4.86,8.84-2.93,13.49-2.58.12-.44.23-.88.35-1.32l-8.43-4.46c3.49-2.45,8.39-.75,13.62,4.28l-8.64,7.18c.09.5.18,1,.26,1.48,1.61-.17,3.64.23,4.75-.6,4-3,7.67-6.37,11.47-9.59.89-.75,1.83-1.44,2.74-2.15l1.5,1.52c-1.91,1.9-3.72,3.91-5.74,5.68s-4.36,3.41-6.56,5.11l.86,1.17,14.11-10.66,1.14,1.35-8.13,6.83.86,1.07,14.54-12.31,1,.84-9.32,9.72c7-3.66,11.92-9.44,15.67-16.3,2.82,2.35,2.54,5.8-1.26,10-2.48,2.7-5.59,4.83-8.28,7.85,6.88-.69,14.2-5.24,19.43,2.85a53.37,53.37,0,0,1,2.74,5.45l-1.16.58-7.19-8.54c-2.54,3.93,5.41,5.71.82,9.3-3.33-4.92-6.65-5.34-11.42-1.9-1,.72-2.65.43-3.87.93-3.12,1.29-6.17,2.76-9.71,4.37L534.31,421l-.84.6,2.25,5.67-1,.88-8-5.88c.14,2.05.23,3.41.38,5.6-5.83-4.47-10.69-3.28-14.48,1.22l-17.26-2.19v-3.6l-21.39,7.79c1.09-2,1.72-3.13,3-5.42-5.11,1.63-9.21,2.84-13.22,4.26-3.06,1.07-5.63,1.49-6-3.19l-15.88,6.69h5.62c2.88,7.4,11.69,4.76,16.31,10.41l-6.6,1,12,11.23,1-.83-6.13-6.66.83-1,15.86,11.51c-3.94-8.1-14.8-9.08-16.05-17.82l1.69-1.38,4.85,5.91.68-.22-1.89-5.12.54-.36c1.18,1.87,2.37,3.73,3.56,5.6l1.11-.35c-.68-2.06-1.36-4.11-2-6.17l.75-.53,7.85,10,.64-.26c-.82-2-1.65-4-2.47-6l1.24-.79,7.21,9.39,1.25-.74-6.41-9.47c6.34-1.24,8.35,3.85,11.53,7,2.27-5.52,3-5.53,9.06-.62-.89-1.51-1.77-3-2.65-4.54,2.64-1.79,2.64-1.79,7.79,3.1-.89-1.85-1.24-2.68-1.67-3.46s-.85-1.39-1.37-2.21c2.63-3.06,3.95-.79,5.33,1s2.57,3.53,4.63,6.37c-.15-2.62-.21-3.78-.33-5.82l4.94,3.73c-.41-1.34-1-2.3-.86-3.1a5.06,5.06,0,0,1,1.71-3c.45-.31,2.14.43,2.7,1.14,2.64,3.38,5.08,6.9,8.45,9.85q-4-6.56-8-13.09l1.43-1.23,7.82,8.91.44-.2q-1.32-2.68-2.62-5.39l.87-.76,6.67,7.11c.08-1.41.13-2.38.2-3.73l2.35,1.26c.53-1.67,1.07-3.32,1.6-5l5.49,3.65,2.63-4.77,1.89,1c.11,1.64.21,3.28.34,5.23l7.82-6.52,3.39,2.31c-.84-2.27-1.36-3.69-1.88-5.11l1-.71,4.9,6.76,8.88-8,1.21.71-6.19,11.69c-6.84-3.91-8.82,1.75-11.6,5.83L572,445.5c-.76,1.7-1,3.08-1.82,3.94-6.66,7.16-15.17,9.7-24.69,9.63-9-.07-17.9,0-26.85-.14a72.61,72.61,0,0,1-7.86-1.05c-6.68,4.62-11,5-15.2.61l-7.32,6.31-1.57-1a39.68,39.68,0,0,1,2.72-4.27c1.28-1.54,2.82-2.87,4.25-4.29l-1.33-1.35c-2,2-4.06,3.85-5.93,5.92s-3.45,4.24-6.06,5.9l2.07-5.3c-3-1.06-4.79,6.18-7.87.52l-4,5.48-.84-.45c.49-1.35,1-2.71,1.48-4.07l-.93-.8-7,7.79c.28-2.65.44-4.15.66-6.17l-5.16,2c.69-2.09,1.14-3.48,1.6-4.86-.26-.27-.51-.54-.77-.8l-6.78,6.51c-.65-1.87-1.11-3.16-1.59-4.53-3.13-1.54-5.74,12.25-9.1-.11l-8.39,4.32-3.49-6.52-5.45,5.09c-2.82-7.6-7.65-10.22-14.75-5.29l-2.12-3.5-7.36,10.67-1,.17.71-8.62-.9-.6-9,14.62-1-.48,2.35-6.18-1.26-.65-3.84,6.88c-1.32-3.09-2.4-6.4-6.3-3.4-2,1.57-4.19,3-6.41,4.56l-6.3-6.66ZM275.48,273.89l7.94,8.82c2.55-7.56-6.1-7.26-7.67-12.07-.06.95-.11,1.89-.17,2.84-.86-1.53-1.61-3.14-2.62-4.58-1.53-2.2-3.24-4.28-4.88-6.41l-1.69,1.12c.76,2.59,1.53,5.17,2.42,8.18.68-1,1.08-1.64,1.56-2.36,1.32,2.43,2.58,4.73,4.5,8.24C275.24,275.4,275.36,274.64,275.48,273.89Zm27.8,22.49,10.05,4.81c.1-.58.27-1.52.44-2.45,1,1.11,1.73,2.94,2.89,3.21,5.14,1.22,10.38,2,15.59,2.93l.55-1.09a89.45,89.45,0,0,0-9.05-4.72,31.32,31.32,0,0,0-7.8-1.58c-.63-.08-1.38.91-2.08,1.38L300.3,288.5c1.22,3.25,2.1,5.58,3,7.9-1.58-2.31-3.74-4.41-4.58-7-1.25-3.81-3.26-4.53-7.29-3l4,7.95,1.11-.47q-.64-2.53-1.3-5.07c1.81,1.33,2.48,3.21,3.72,4.59S301.8,295.42,303.28,296.38ZM184.72,285l20.16,4c.08-.38.15-.75.23-1.12l-30.94-7.12c-.15.72-.31,1.43-.46,2.15,3.71.72,7.43,1.44,11.19,2.19l-3.53,2.29,27.26,5.86a24.73,24.73,0,0,0-6.86-2.94ZM467.63,405.47l-2.76-4-1.07.55c.44,1.78.88,3.55,1.33,5.33l-.7.19-4.22-8.7-1.12.42v4.59L452.48,396l-1.14,1.1c3.64,8.67,12,11.88,19.83,16.61l-3.67-8.38,8.31,11.15.75-.46c-2.42-4.42-4.83-8.85-7.66-14.05C468.26,403.73,467.94,404.6,467.63,405.47ZM225.81,246.64l-1.21.48v10l-1.49.1c-1.07-5-2.14-9.93-3.41-15.84L214,246.79c-1.24-3.25-2.77-4.94-5.13-.74l-4.16-5.2-4.56,6.07,5.78-1.29v7.93l6.56-4.86c-.6,3.75-1,6-1.34,8.32l2-2.07c.86,2.16,1.73,4.31,2.64,6.56,5.73-3.64,6.26,1.36,8,4.15.85,1.37,1.79,4.3,2,4.24,5.31-1.7,5.42,4.09,8.34,5.88.17-1.8.32-3.38.46-4.95l1,0c.7,1.92,1.39,3.85,2.14,5.92l4.39-4.65v7.2l8.35-7.8c.24,4.66.43,8.33.62,12l.9-.05,1.42-15.86,1.42.14c1.28,4.55,2.42,9.15,3.87,13.65.85,2.66,2.37,5.12,3.19,7.78.35,1.11-.32,2.53-.53,3.81l-1.31,0c-1.07-2.35-2.15-4.7-3.71-8.1-1.19,7.71,1.29,10.63,7.31,9.94,2,3.42,1.58,10.17,9.75,5.94-1.23,2.14-1.78,3.11-2.17,3.8l4.47.89c.87-1.57,1.71-3.1,2.22-4l4.87,4.89-2,3.43a19.09,19.09,0,0,0,3.82-1.25c3-1.85,5,0,6.09,2.22,1.56,3.22,4.15,4.25,7.19,5,.88.22,2.27.48,2.47,1.05,1.39,4,3.6,2.36,5.81,1a45.92,45.92,0,0,1,4.7-2.81,19.31,19.31,0,0,1,3.85-.91c-.59,1.31-1.16,2.63-1.79,3.92a8.3,8.3,0,0,1-1,1.3c8.18-1.19,5,7.94,10.11,10.53-.53-1.81-1.24-3-1.14-4.2a21,21,0,0,1,1.41-4.51,16.29,16.29,0,0,1,3.7,2.17c1.28,1.28,2.19,2.95,4,5.47-.3-2.68-.46-4-.61-5.35l1-.38,2.56,4.55-5.43,3.43h8.4c.28-.88.65-2,1-3.2,1.1.55,2.57.82,3.23,1.7,1.68,2.23,3,4.73,4.46,7.13l.51-1.43,24.57,4.9-.3.9,6.54-1.31c.09-.64.27-1.9.58-4.05l8.81,9.55c-5.57-10.47-5.57-10.47-4.36-12.2l11.83,12.53c-2.3-6-9.28-9-8.22-16.54l11,15.47a150.83,150.83,0,0,0-7.87-17c-.62-1.15-2.5-2.77-3.16-2.52a12.94,12.94,0,0,0-4.65,3.53c-.88,1-1.12,2.51-1.84,4.28l-4.6-10.85-3.23,3-5.06-6-1.12.77c.13,1.85.25,3.69.37,5.54l-1.33.15-1.14-4.08-4.09,2.24c-.86-2.39-1.56-4.36-1.78-5L344,315.49l-1,5.05-1.62,0c-.19-1.8-1.17-4-.44-5.32,2.77-4.94-1.53-6.35-3.82-8.8,0,1.8.9,3.25,1.51,4.8a2.76,2.76,0,0,1-.27,2.13c-.17.29-1.17.28-1.74.14-2.33-.59-4.64-1.28-7.79-2.16l-1.59-3.83-6.55.77c-.62,1.82-1.3,3.85-2,5.88l-2.39-.84c1-2.79,1.95-5.59,2.92-8.39-.37-.3-.74-.6-1.1-.91l-6.51,7.11c-1.17-3.12-2.15-5.69-3.31-8.77L305,306.25c-.43-2.22-.71-3.67-1.18-6.12-1.74,2.13-2.69,3.7-4,4.8-1.09.89-2.66,1.2-4,1.77-.25-1.69-.95-3.47-.62-5s1.7-2.86,2.71-4.41l-8.65,1.27a14,14,0,0,0-2.36-16.64c.95,3.46,1.56,5.75,2.22,8,.85,2.9.27,5.13-2.43,6.44-2.52-1.11-.73-7.12-6.19-3.73.36-2.19.59-3.61.71-4.39l-5.32-6-1,.47,2.43,8.62c-6.39-2.92-1.48-11.54-8.59-14,.11,2,.19,3.64.27,5.27l-.61.12-2.52-6.28-1.36.43q1,5.72,2.09,11.42l-2.05.4c-.37-6.83-8.71-10.64-6.34-19.61l3.25,7.81,1.28-.49c-1.6-4.24-3.31-8.44-4.74-12.74a12.74,12.74,0,0,1-.84-5.74c.62-4-.58-6.81-4.33-8.23-4.51-1.71-9.12-3.18-14-4.87.26,5.77,5.44,5.65,8.71,7.49,2.2,1.24,6.28,1.33,6.8,2.85.72,2.16-1.2,5.13-1.74,7.81a15.36,15.36,0,0,1-8.1,11c-1.69-4.62,2-6.25,3.63-8.81s4.21-4.61,2.69-8.21l-5.87,9.19-1.63-.79c.85-3.08,1.69-6.17,2.7-9.87l-2.9-.26-5,10c-4.71-4.47,3.32-10.26-3.45-13.57l-3.08,3.61C229.54,252.25,227.67,249.45,225.81,246.64Zm80.84,110.42,1-.25L305,347.48l1.3-.4q2,4.57,4,9.15l.85-.43q-3.74-12.72-7.46-25.43l-1.66.45q1.75,6.49,3.5,13l-1.35.38-3.24-10.82-.94.21-.51,4.49c-2.81-4.22-1.25-10.71-8-12.88.37,2.82.72,5.45,1.06,8.09l-1.36.43c-3.66-3.19-2-8.87-5.29-13.74-.15,3.23-.25,5.21-.35,7.37-6.78.32-2.33-6.66-6.22-8.58v7.76a3.73,3.73,0,0,1-1.75-2.79c-.75-8-.73-8-8.43-7.21-.21,0-.48-.39-.05,0q-.31-4.14-.48-6.42L254,307l2.25-1.75-3-5.23-3.05,4-.77-8.73-1,.83c-1.68-1.23-3.31-2.54-5.06-3.67a50.75,50.75,0,0,0-6.42-3.72c-.4-.19-1.47,1-2.22,1.62-.55.43-1.09.88-1.63,1.33-.38-.78-1.14-1.58-1.08-2.31.23-2.79.72-5.56,1.18-8.76-2,1.24-3.25,2-4.55,2.72-.07,0-1.07-1.21-.94-1.41a36.63,36.63,0,0,1,2.58-3.35l-3.05-4-3,1.94c-.94-2-1.31-3.77-2.39-4.83a69.32,69.32,0,0,0-6.72-5.21l-1.36,2.68c-.5-2.75-.85-4.62-1.19-6.49l-1.18.08-.77,4.93-1.46.49c-.58-1.5-1.6-3-1.65-4.52-.16-4.77-3.17-5.32-6.6-4.37s-4-.54-4.24-3.86l10.46,1.45.2-1.16-14.45-3.25c.13-.48.26-1,.38-1.45l5.59.85.15-.94L182.17,245c.18-.51.36-1,.55-1.51h4.95l-10.13-5,.38-1.26,5.34-.39.1-1.2-13.89-2.39v11.84c1.17-.72,1.24-1.55,1.64-2.18a37.31,37.31,0,0,1,2.44-3c.64,1.21,1.65,2.38,1.84,3.66a58,58,0,0,1,.15,6.47c0,.35.47.68.82,1.15.62-1.44,1.15-2.65,2.14-4.92.6,2.38.64,3.79,1.28,4.82,1.66,2.65,3.06,6.31,5.53,7.41,4.23,1.88,7.5,3.62,7.51,8.74,0,.21.64.41,1.41.86-.16-2.67-.29-4.9-.43-7.12l1.2-.28c.61,2.24,1.17,4.51,1.85,6.73.52,1.71.8,3.72,1.88,5,1.5,1.75,3.67,2.94,5.46,4.31l1-2.74.9.15c.3,1.71.6,3.41.78,4.47l13.75,9.93,2.64-2c.21,1.19.41,2.39.63,3.58.33,1.78.67,3.55,1,5.49l3.65-4.11c.22,3.8.35,6.12.5,8.8l2.08-2.2c2.13,2,3.72,4.58,5.17,4.5,4.34-.23,4.75,1.88,4.41,5.18a20,20,0,0,0,0,2.79l5.17-1.93c.66,1.77,1.31,3.54,2.15,5.81l1.44-5.38,1.21.13q.64,5.16,1.28,10.31h.59c.5-2.08,1-4.15,1.52-6.23l1.28.27,1,13.3,4.77-2.1,2,8.7.89-.11V326l1.17-.12c.43,2.75.86,5.51,1.3,8.26.9-1.34.64-2.57,1-3.62a37.08,37.08,0,0,1,2.12-4.69c.68,1.48,1.69,2.91,2,4.46.52,3,.62,6.08.89,9.12l.87-.09c.16-3.29.33-6.58.49-9.87l1.85-.33q2.36,7.31,4.69,14.61l.82-.25q-.74-4.29-1.45-8.6l1.4-.36,3.85,9,.9-.3c-.63-2.58-1.26-5.16-2-8.06,7.71-.45,4.89,7,8.4,9.27l.86-5.35,7.46,13.3.9-.26v-4.92l1.13-.32Q304.62,352,306.65,357.06ZM162,283.29l4.84-1.73c-7.48,1-7.79-5.38-9.71-10l-1.31.71,1.68,7.45c-2-.2-4,.2-4.77-.6-2.07-2.19-3.6-4.89-5.35-7.4l-.21,1.21c-2.16-.22-4.31-.43-6.46-.69a12.11,12.11,0,0,0-1.71-.41c-3,.08-6,.23-9,.38-1.69.08-4.65-.23-4.85.38-.61,1.81-.89,4.46,0,5.94,2.9,4.61,5.81,9.58,9.89,13s6.6,10.2,14.11,7.41c.94-.35,2.63,1.16,3.91,1.92s2.35,1.61,3.52,2.43l.55-.46c-.53-.79-1.06-1.59-1.6-2.38l.69-1.09,9.49,4.45c-.22-.94-.44-1.88-.58-2.51L176.45,300l3.28,2.18.5-.62Zm-21.69-29.51c-.08.34-.15.69-.23,1l3.54,1.28L141.05,259h6.27l.08.73-5.61,2.06,13,1.5-.27,1.44-4.26,1.13-.15,1.22c4.61-.27,8.37,2.18,12.19,3.33,10.47,3.14,21.57,4.13,32.44,6L180.06,265l1.54-1.62c-3.44-1.53-9,.76-8.9-5.24l-6.43-2.92.93-1.8c9.86,0,13.94,10.34,22.37,13.44-.21-.63-.22-1.2-.5-1.45q-14.16-12.34-28.38-24.62a2.5,2.5,0,0,0-1.42-.35c-5.25-.16-10.33.24-14.54,4.35l8.55,1.27-.21,2H142.84l-.06,1.06,5.54,2.21c0,.42-.09.84-.14,1.27Zm32.33,74.46c2,1.08,4,1.64,5.26,2.92,2.18,2.2,3.27,5.29,7.57,4.64,2.76-.42,5.77.86,8.68,1.31,5.34.82,10.67,1.6,17.39,2.61L206,336l.71-1.48,8.43,2.66c3.25-.36,5.19-1.06,6.8-.59a4.75,4.75,0,0,1,2.62,3.44c.36,3.28-.07,6.65.09,10,.28,5.79.75,11.57,1.14,17.35l1-.1v-32l6.28,4,1-.56q-3.45-5.65-6.89-11.3L226,328l2,6.36c-7.35,1.33-6.53-6.59-11.37-8.17,1.09,2.26,2.17,4.51,3.25,6.77l-.86.49-7-9.49-2.62,4.11c-2-2.57-3.54-4.63-5.13-6.69l-1,.51q.65,2.52,1.3,5l-.76.36-4.44-5.82-.79.39q.58,2.63,1.16,5.25l-1,.66-5.69-6.26c.52,2.42.76,3.54,1,4.65l-.7.26-3.13-4.16-.74.5,1,4.4-1,.54-5-6.24c-1.17,2-2.08,3.54-3,5.06l-1.87-2.36Zm-15.15-10.05c15.36,1.64,29.47,2.79,45-.35L188.3,308.5l6.93.31c-13-4.78-26.07-2.71-39.11-1.65-.09.45-.19.89-.29,1.34l8.15,3.35h-5.23l2.79,5Zm238.83,93.62c-4.55-9.84-13.62-10.95-21.79-14.39l2.35,3.63-14.41-7.47-.64.86,7.36,8.39,1.81-2.16,13.23,8.06c.38-.9.69-1.61,1-2.31,0,0,.28.07.43.1l-.2.45Zm49.56,9.52.63-2c-3-1.68-5.77-3.81-8.93-4.94-6.06-2.17-13,0-18.92-4.11-2.8-1.95-6.85-2.12-10.59-3.17,3.53,3,6.65,6.33,10.38,8.64a13.45,13.45,0,0,0,8.33,1.74c4.53-.62,8.52-1.35,12.38,2.28C440.56,421.15,443.55,420.86,445.83,421.33ZM309.4,332.19l-2.53,1.22c3.56,9.15,7.12,18.3,11,28.4l2.75-4.25,2.82,3.82c-2.74-6.11-5.88-13.33-9.22-20.46C312.85,337.91,311,335.1,309.4,332.19Zm50.42,65.22-1.4,1.59-14.76-9.92-.7,1,19.64,17.76.91-1L359.22,402l.45-.66,8.16,4.29c-5.08-5.65-8.37-12.9-15.86-15.6Zm10-32.34-1,.91c-4.6-6.36-9.2-12.71-13.56-18.75-.84,7.22,13.69,22.89,19.65,21.4l-14.44-22c-.18.82-.59,1.56-.37,1.94C363.23,354.08,366.52,359.57,369.79,365.07Zm-85-13.46c4,14.14,14.56,22.08,26.23,20.17l-10.68-3.15.28-1.15,7.63.95c-4.76-2.24-10.25-2.8-14.29-5.53C290.11,360.31,287.78,355.47,284.79,351.61Zm-21.45,31.28,1.38,0V363.94l1.58-.15c.94,9.26,1.89,18.51,2.88,28.25,0-8.21-.14-15.8.05-23.39.12-4.51-1.67-6.89-5.89-7.32Zm80.89-36.49-.88,1.59c3.87,9.5,11.26,15.83,19.62,21.32q-7.53-7.77-15.05-15.53l1.44-1.36,10.19,11a127.45,127.45,0,0,0-10.76-15.31C347.9,347,345.78,346.94,344.23,346.4Zm-96.36,25.83,2.12-.18V342.89l-.86-.12c-.37,2.54-.74,5.07-1.27,8.74-1-2.75-1.47-4.24-2-5.72l-1.72.41Q246,359.21,247.87,372.23Zm100.91-7.79c-3.26-3.64-6.23-6.36-8.44-9.6s-3.49-6.84-5.19-10.29l-1.32.56L339,357l-1,.61-9.9-15.77C327.94,349.55,339.56,362.89,348.78,364.44Zm52.77-32.07c-.38.44-.75.89-1.12,1.33,5.09,5.89,9.63,12.53,18.68,13.19v-2.7l4.81,3.39.88-.95c-1.65-2.69-3.63-6.07-6.94-6-5.7.07-10.37-.81-13.61-5.93C403.65,333.71,402.46,333.13,401.55,332.37ZM460,454.52l.87-.86c-3-3.42-5.71-7.23-9.16-10.14-3.19-2.69-7.18-4.42-10.82-6.57l-1.07,1,14.4,18.88,1-.66q-4.23-6.41-8.47-12.79l.76-.69Zm-80.49-105.7c1.63,11,8.87,17.95,17.72,23.24L385.87,351.3l-1.21.49L389.53,364l-1.09.5Zm-60.22,51.67,1.35-.55,6.18,12.93.95-.45c-3.12-7.22-6.25-14.45-9.31-21.55-3.73.66-4.32,2.36-2.84,5.36,1.62,3.28,2.83,6.75,4.31,10.09,1.07,2.42,2.27,4.78,3.42,7.17l1.07-.5Zm95.89-28.74L406.91,364l.77-.87,14,11.52.82-1.13-22.41-19.55-1.31,1.4C402.92,362,407.94,367.89,415.15,371.75Zm-102.49,37,1-.17-2-10.55.5-.14,6.68,14.4a223.22,223.22,0,0,0-7.35-23.22c-.29-.79-1.56-1.22-2.38-1.82-.58,1-1.82,2.13-1.63,2.92C309.05,396.39,310.89,402.55,312.66,408.74Zm2.1-28.64c.31,1.43.28,1.91.45,2,5.44,2.87,10.82,5.88,16.42,8.39,1.22.55,3.24-.68,4.89-1.09-1-1.13-1.85-2.33-2.9-3.37-.42-.41-1.45-.27-1.79-.7C327.26,379.62,320.6,382.64,314.76,380.1Zm-96.24-77.28c-8.53-5.43-16.72-9.13-25.91-10.15,0,.84.14,1.25.39,1.33,3,.9,6.08,1.67,9.08,2.64,1.2.39,2.73.88,3.33,1.82C208.86,303.91,211.31,304.93,218.52,302.82Zm108.67,87.95L324.83,392q4.83,11.22,9.67,22.43l1.37-.56-6.33-14.18,1.1-.51L339.76,414l1.3-.83Q334.13,402,327.19,390.77Zm31.15,21.66,1.27-1.44c-5.83-5.49-9.3-13.83-20-15.49,4.83,6.28,8.93,11.63,13,17l.85-.56-6.85-10.63,1.15-1Zm60.34-63-1.42,1.41q7.13,7.8,14.26,15.58l1-.79-7-8.47,1-.84c1.44,1.61,2.85,3.25,4.33,4.81,1.33,1.4,2.74,2.73,4.11,4.08-3.56-7-4.69-7.88-11.4-10.59-.83-.34-1.36-1.41-2-2.13ZM165.35,338.53c-3.78-15.14-3.78-15.14-8.92-14.23C157.83,330,158.06,336.1,165.35,338.53ZM210,346c-1.89,1.16-4.17,1.9-4.18,2.66-.06,4.89.38,9.78.66,14.67l1.39-.11v-6.61l.82-.13q.76,3,1.54,6l1-.15C210.84,357.26,210.47,352.16,210,346Zm182.64,55.72-1.16,1.69,18.2,13.36,1.13-1.54C407.33,407.2,397.61,407.78,392.66,401.74ZM242.11,339.81l-2,.17q1.35,16.23,2.71,32.48l1.38-.12Q243.13,356.08,242.11,339.81Zm-42.23-56c-10.27-4.15-20.81-7-31.83-7.56l-.26,1.23ZM466.37,419.53a40.53,40.53,0,0,0-5.34-.65c-1.91,0-4,1-5.69.45a112.83,112.83,0,0,1-10.92-5C450.45,420.7,457.06,425.23,466.37,419.53Zm71.32,34.12c.23.54.46,1.07.7,1.61,2.84-.53,5.85-1.93,8.48-1.4,5.28,1.07,5.16-2.86,7-5-.24-.36-.49-.71-.74-1.06ZM403.9,399.53l1.38-.76C402.11,388,397,381.2,390.52,381l10.38,8.8-1.1.43ZM255.42,351.17l-2.4.24,2.22,30,.18-.13Zm-19.24,17.56c.64-11,1.2-20.51,1.76-30.06l-1.76-.06Zm152.57,1.91-15.73-22C373.58,354.25,381.9,365.69,388.75,370.64ZM264,345.4c-2.86-2.65-2-9.63-8.79-8l-4.38-7.93C250,339.24,260.06,339.77,264,345.4Zm-4.63,38.26.88,0V356.75l-.88.06Zm171.73-42.28c1.77,6.53,6.22,9.26,13.07,8.22ZM323,339.83c1.75,9.24,7.26,16.2,13.84,22.52Q329.92,351.08,323,339.83Zm99.2,91.5-2,1.11,13,20.93,1.05-.62ZM318.11,336.24c-.42,7.33,5.25,18.67,10.17,22Zm87,56.46c-.33.54-.66,1.08-1,1.62l11.6,6.24C413.41,393,411,391.37,405.15,392.7ZM273,365.91l-.75.1V388.4H273Zm8.72,2.93-2.17.39q2.37,12.31,4.72,24.63l1.21-.23Q283.61,381.24,281.74,368.84Zm4.78,2.88-2,.52,7,23.06,1.27-.36Q289.61,383.33,286.52,371.72Zm-8.63,19.5,1.48-.13-2.91-22.42-1.93.27Zm18.94,6.64,1.44-.59q-3.61-10.42-7.24-20.85l-1.9.7Q293,387.48,296.83,397.86Zm144.86,57.45,1.15-.77-12.79-20.21-1.7,1.1Q435,445.38,441.69,455.31ZM408.9,351.75l-1.8,1.8,19.06,16c-.22.23-.43.47-.65.71Zm100.16,67.08c-2.07-3.09-3.78-5.76-7.1-2.43l-6.32-4.63-.82,1.37C498.6,416.76,501.67,421.9,509.06,418.83Zm-277.5-76.1-1.91.09q.51,11.32,1,22.65l.88-.07Zm241.72,58.55-1.85,1.31,13.19,18.09,1-.72ZM321.67,377.85,302,374.29l-.36,2.15A55.71,55.71,0,0,0,321.67,377.85Zm-23.17,4.68-1.95.6,5.43,19.8,1.42-.34Q300.94,392.55,298.5,382.53Zm94.29-26.79c-.32,5.46,6.11,14.78,11.11,16.9C400.39,367.29,396.72,361.72,392.79,355.74ZM145.14,327.41l1.55-.43-5.49-19.32-2,.63Q142.16,317.85,145.14,327.41Zm76.45,18.47-2.09.17q.92,10,1.85,19.93l1.48-.15Q222.21,355.86,221.59,345.88Zm85.82,59.35,1.23-.54q-2.82-10-5.62-19.95l-1.95.62Q304.25,395.31,307.41,405.23Zm83.17-9.57c-1.13-6.31-6.11-9.12-11.25-6.39Zm11.64-48.53,1.13-.67-10.19-17.25-1.86,1.13Zm14.27,7.07-.72.63L430.46,369l-.42.42Zm-81.73,39.17-1.58,1.14q6,8.87,12,17.75l.9-.6Zm127.63-43.26c1.8,3.89,7.73,6.78,12.75,10.56Zm-185.8,7.15c1.12-6.73-6.26-5.15-8.24-9.78C268.18,353,268.18,353,276.59,357.26Zm179-10.36L454,348.26l12,12.39,1.07-1Zm-255,15.69,1.46,0L201.12,345l-2,.13Q199.84,353.86,200.57,362.59Zm16.62.52.46-.15V342.8l-1.82.15Q216.51,353,217.19,363.11Zm215,27.92L420,380.31l-1,1.24C422,386.34,426.94,388.84,432.14,391ZM183.5,231.84l.06-.66L167.44,230l-.12,1.88Zm140.21,161.8-1.69.52q4.26,9.46,8.53,18.92l1.07-.45Q327.66,403.14,323.71,393.64ZM490.86,421l1.2-1-9.23-11.77-1.74,1.43Q486,415.34,490.86,421ZM452,359.23c.05,4.8.62,5.19,10.62,5.92Zm-211.73-28,1.32-.22-3.33-14.38-2.08.54Q238.18,324.2,240.23,331.22ZM366,348.58l-1.53.68a24.39,24.39,0,0,0,8.86,12.32Q369.66,355.07,366,348.58Zm196.22,95-1.41-.85-6.88,10C557.57,450.35,561.19,447.93,562.21,443.62Zm-327.58-117,1.48-.3q-1.4-6.92-2.81-13.81l-1.79.41Zm30.6-55.7,1.47-.26-3.45-12.36L261,259Zm99.65,105.82c-3.87,2.94-7.3,5.56-11.3,8.59C360.27,384.06,363.57,381.58,364.88,376.71ZM148.39,327l1.38-.41-3.69-13.8-1.84.55Zm300.87,26.59,1.74-1.33-5.91-8.07-1.92,1.4ZM441.7,365l1.09-1L434,353.25l-1.43,1.24ZM196.46,345.08l-2.16.38,2.22,11.66,1.41-.29Zm31.66-36.54-2.28.44q1.07,5.53,2.12,11.08l1.54-.26Zm125,72c-.37-.55-.75-1.1-1.12-1.66l-9.4,5.7c.23.41.47.81.71,1.22Zm90.75,26,1.19-.87-6.32-9.18L437,397.71ZM370.31,381l-1.2-1.71-8.86,6.37.88,1.25Zm47.82,9.52,1.32-1.44L412,382.63c-.46.5-.91,1-1.36,1.51Zm72.74,19.66-1.8,1.6,7,7.86,1.2-1.1ZM152.52,318.87l-2.09.61,3.06,9.78,1.39-.42Q153.7,323.86,152.52,318.87Z"/><path class="cls-1" d="M388.5,483.4c2.83,5,5.22,3.05,7.31-.68,5.71,5.74,8.73,6.35,12.62,1.75l-1.25,4.88.93.43,3.69-6.42c.68,2.63,1.1,4.25,1.64,6.31,1.22-1.92,2.25-3.57,3.76-6-.49,7.33-1.62,8-7.31,8.13-17.25.54-33.35-6-50.13-7.79-15.59-1.67-30.6-4.6-44.84-11.1-6.76-3.09-13.38-6.49-20.2-9.82l6-2.77-.27-1.9c-11.22,4.07-19.91-2.35-29.06-6.31-23.18-10.05-44-24.14-64.61-38.58a15.64,15.64,0,0,1-2.21-2.31l.89-1.12,6.19,4.36.45-.55-9.42-15.48c.44,2.48.77,4.32,1.1,6.15l-1.18.58-6-10.7-1.75,3.45c-2.33-3.89-4.37-7.28-7-11.63.33,2.77.54,4.51.75,6.25l-1.12.57-15.89-22.2,1.45-1.11,6,8.58.81-.55q-3.48-6.3-7-12.62l1.57-.9L181.87,377l1.16-.24-1.41-9.34.82-.31,14.31,22.95,1.54-.84v-7l8,11.66c-.22-2.73-.32-3.95-.43-5.37,4.81-.42,5.67,3.12,7,6.34,1.16,2.8,2.65,5.45,4,8.16l1.59-.74c-1.24-2.45-2.47-4.9-3.85-7.61,5.13-.21,7,2.33,8.45,6.05.65,1.64,3.05,2.59,4.66,3.86l1-.89-8.59-13.76,1.38-.79a55.24,55.24,0,0,1,10.05,19.25c.63,2.33,2.17,4.42,3.29,6.62l1.89-.77c-.66-2-1.33-4-2.22-6.61l4.91,2.8-8.6-12.27c7.41,5.33,10.9,12.94,13.47,21.26-.23-1.34-.46-2.67-.95-5.58l10.27,10.36a8.25,8.25,0,0,1-.53-2.56,3.16,3.16,0,0,1,1.19-2.32,2.62,2.62,0,0,1,2.4.53c3,2.88,5.82,5.9,9,9.18-1.45-3.59-2.83-7-4.2-10.38l1.61-1.05,10.21,13.84c.16-.52.59-1.86,1-3.21,1.44.83,3.18,1.39,4.27,2.55,2.41,2.59,4.49,5.47,7.15,7.89-5.73-9.85-14.18-17.94-17.8-29,5.92,12.94,20.33,20.24,23.76,35.09l-.42-4.45.93-.45,7.5,10-2.61-9.07,1.36-.73c1.72,2.47,3.73,4.79,5.09,7.44s2.09,5.72,3.1,8.59l1.48-.5c-1.62-5.59-3.23-11.17-4.87-16.81,8.83-.27,6.54,8,10.44,13.33-.3-3.21-.47-5-.67-7.2l4.86,2.94-.15-.17,3.79,4.88c.32-1.81.51-2.89.79-4.44l4.92,4.44,1.53-.58c-.93-2.69-1.55-5.54-2.89-8-1.42-2.61-3.52-4.85-5.32-7.24l1-.76L329,445l.66-.38-5.16-10.28.84-.69,5.15,5.77-.18-.17c1.35,2.69,1.93,6.44,6.59,4.23.49-.23,2.11,1.15,2.71,2.09,2.07,3.21,3.75,6.67,5.89,9.82s1.87,5.82-1.64,8.27c-2-1.1-4.29-3.66-6.07.37-4.25-3.91-8.4-5.93-12.22-3.86l-9-6.67c.57,3.44,1.69,5.79,1,7.42s-3.07,2.68-4.4,4.65l7.63-2.83c-1.54,2.1-2.28,3.12-3.4,4.66l4.74-1.2c-.18.4-.37.8-.55,1.19,2.38,1.69,4.57,3.78,7.18,5,3.95,1.79,8.11,3.53,12.33,4a34.32,34.32,0,0,1,5,.65c2.1.57,4.24,1,6.87,1.59-.05.15.19-.53.63-1.76,3.09,3.8,6.73,5,11.33,3.25,1.43-.56,3.31.06,5.25.16v-1.94l1.1-.83,4.39,6.62,1.25-.81-1.1-4.26,8.57,8.08.67-.43-3.29-5.45,1-1,5.91,3.37ZM265.34,443.16l11.35,7.54.42-.7-4.42-6.26L289,455.59l1-1.27-12.35-13c.37,1.74.6,2.82,1,4.93l-5.09-5.5c-.35.55-.69,1.1-1,1.64L266.85,433l-1.32.63,3.9,9.36-.74.35-6.35-7.41-.55.46c1.2,2.28,2.4,4.56,3.55,6.8l-15.09-16c1.16,3.89,2.63,7.75,5.32,10.35S262,441.35,265.34,443.16Zm-54.53-39.64c1.81,11.41,9.46,17.75,20.08,22.82l-12.18-16.56-.4.12c1.18,2.76,2.36,5.51,3.53,8.27a23,23,0,0,1-6.6-6.5A92.69,92.69,0,0,1,210.81,403.52Zm21.49,17.67c1.24,2.06,2,4.31,3.58,5.76,4.26,4,8.83,7.66,13.31,11.43.1.09.53-.21.93-.38-2.38-3.69-3.33-8.07-9-9.34C237.9,427.94,235.42,424,232.3,421.19Z"/><path class="cls-1" d="M426.31,490.06l2.52-3.33c6.9,6.37,7.55-2.67,11.7-4.92l1.9,5.25c1.72-2.55,3.29-4.88,4.85-7.22l1.86.48c-.37,2.47-.73,4.93-1.31,8.83,2.27-3.28,3.81-5.67,5.52-7.93a40.36,40.36,0,0,1,3.24-3.44c-.1,1.45-.21,2.89-.31,4.34,0,.44,0,.89-.12,2.11l3.8-4c1.49,2.73,2.71,5,4.06,7.46.88-1.14,2-2.61,3.34-4.28l3.08,1.55c1.14-1.36,2.27-2.73,3.58-4.31l6.89,6.59,5.93-5.11c1.59,2.34,3.12,4.09-.67,5.37-22.28,7.51-45.05,7.77-68.06,4.7-.28,0-.52-.35-.87-.61l4.3-7.74c.56,1.76,1,3.25,1.64,5.2,1.17-1.95,2.18-3.64,3.2-5.32l1.16.47q-.9,2.73-1.81,5.46Z"/><path class="cls-1" d="M176.56,392.51c-8-5.54-15.8-11.3-24-16.53a22.45,22.45,0,0,1-9.19-11.8c-4.36-11.57-9.28-22.93-14.1-34.32-.42-1-1.82-1.58-2.77-2.36L121,318.29c5.16,3.26,14.91,16.43,17.86,23.55,3.49,8.42,7,16.84,11,25a19.92,19.92,0,0,0,6.3,6.79c6.86,4.94,14,9.49,21,14.22,2.28,1.54,4.53,3.13,6.79,4.7l-1.7,1.94Z"/><path class="cls-1" d="M490.8,484.83c3-.38,6.4-1.85,8.85-.88,3.68,1.44,5.14-.22,7-2.41.82-1,1.82-1.79,2.73-2.67l1.1.72c-.28,1.29-.56,2.58-.85,3.88,1.73,1.6,9.2-.46,11.56-3.2,4.35,3.34,4.93,3.17,10.12-2.82a34.17,34.17,0,0,1,3.28,2.85,41.32,41.32,0,0,1,2.78,3.83C531.13,487.49,502.25,488.5,490.8,484.83Z"/><path class="cls-1" d="M496.05,350l6.57,8.47-.9,1L489.36,348.9,488,350.51c2.37,1.94,4.86,3.75,7,5.88.9.89,1.09,2.49,1.61,3.76-1.25-.32-2.85-.25-3.68-1-3.9-3.6-7.59-7.42-11.35-11.16l1.25-2.3c6.65,1.29,13.33,2.49,19.95,3.93,2.41.52,4.66,1.71,7,2.42,3.36,1,3.71,2.74,1.37,5.92l-6.78-6.35-.92.63c.55,1.32,1.11,2.63,1.67,3.94l-.65.66-7.16-8Z"/><path class="cls-1" d="M367.61,465.37l1,5.33-1.35.17c-2.61-6.36-6.8-7.81-11.14-3.32l-3.56-6.09-4.82,4.4,1.92-7.76h4.32c3.09-3.35,2.91-3.19,5.94.29,2.32,2.67,2.82,7.51,7.91,7.15Z"/><path class="cls-1" d="M194.74,385.77l-7-16.92,2.55-1,6.87,17Z"/><path class="cls-1" d="M370.83,425.48c-2.24,4.67-7.88,8.46-13.43,7.68l12.39-9.06Z"/><path class="cls-1" d="M317.85,447.78a78.46,78.46,0,0,1-5.3-6.42,46.48,46.48,0,0,1-3-6.1l1.5-.93c2.56,3.1,5.24,6.11,7.63,9.33,1,1.35,2.18,3.39-1,3.94Z"/><path class="cls-1" d="M388.68,483.59c-2-2.91-2.63-5.58,2.41-8.15.91,2.4,2.68,4.78,2.44,6.93-.4,3.43-3.15,1.39-5,1Z"/><path class="cls-1" d="M373.23,442.44c.61-2.06.81-2.77,1-3.26l-4.86-1.59,5.45-5,.8.88-2.21,2.67.39.7,7.94-4.65.84,1.39a33.65,33.65,0,0,0-4.5,3.07A64,64,0,0,0,373.23,442.44Z"/><path class="cls-1" d="M250.67,403.92l9.75,14.42c-.63.42-1.26.84-1.9,1.25q-4.81-7.24-9.64-14.5Z"/><path class="cls-1" d="M295.93,427.45l5.39,11-2.17,1.1q-2.85-5.42-5.69-10.85Z"/><path class="cls-1" d="M249,417.76l-7.57-10.24,2-1.48,7.32,10.41Z"/><path class="cls-1" d="M364.18,434.48l8.56-6.3C374.09,433.05,369.9,436,364.18,434.48Z"/><path class="cls-1" d="M160.24,348.78l8.1,7.6-1.1,1.13C164.38,355.44,158.87,355.93,160.24,348.78Z"/><path class="cls-1" d="M527.83,371.36c2.84-1.85,3.89-6.78,8.17-2.3C533.74,371.35,532.41,375.33,527.83,371.36Z"/><path class="cls-1" d="M330.51,439.43l2.25-4.71a40.52,40.52,0,0,1,3.23,4.21,2.79,2.79,0,0,1,.15,2.47,2.63,2.63,0,0,1-2.47.59,19,19,0,0,1-3.33-2.73Z"/><path class="cls-1" d="M440.49,472.36c-.33-1.65-.67-3.31-1-5l3.51-.5.42,5.14Z"/><path class="cls-1" d="M434,476.29c3.4,1.69,5.4,3.54,1.87,7.27C433.47,481.5,431,479.77,434,476.29Z"/><path d="M225.81,246.64c1.86,2.81,3.73,5.61,5.71,8.61l3.08-3.61c6.77,3.31-1.26,9.1,3.45,13.57l5-10,2.9.26c-1,3.7-1.85,6.79-2.7,9.87l1.63.79,5.87-9.19c1.52,3.6-1.15,5.75-2.69,8.21s-5.32,4.19-3.63,8.81a15.36,15.36,0,0,0,8.1-11c.54-2.68,2.46-5.65,1.74-7.81-.52-1.52-4.6-1.61-6.8-2.85-3.27-1.84-8.45-1.72-8.71-7.49,4.9,1.69,9.51,3.16,14,4.87,3.75,1.42,5,4.23,4.33,8.23a12.74,12.74,0,0,0,.84,5.74c1.43,4.3,3.14,8.5,4.74,12.74l-1.28.49-3.25-7.81c-2.37,9,6,12.78,6.34,19.61l2.05-.4q-1.05-5.72-2.09-11.42l1.36-.43,2.52,6.28.61-.12c-.08-1.63-.16-3.27-.27-5.27,7.11,2.44,2.2,11.06,8.59,14l-2.43-8.62,1-.47,5.32,6c-.12.78-.35,2.2-.71,4.39,5.46-3.39,3.67,2.62,6.19,3.73,2.7-1.31,3.28-3.54,2.43-6.44-.66-2.27-1.27-4.56-2.22-8a14,14,0,0,1,2.36,16.64l8.65-1.27c-1,1.55-2.38,2.87-2.71,4.41s.37,3.35.62,5c1.36-.57,2.93-.88,4-1.77,1.35-1.1,2.3-2.67,4-4.8.47,2.45.75,3.9,1.18,6.12l3.25-3.94c1.16,3.08,2.14,5.65,3.31,8.77l6.51-7.11c.36.31.73.61,1.1.91-1,2.8-1.95,5.6-2.92,8.39l2.39.84c.69-2,1.37-4.06,2-5.88l6.55-.77,1.59,3.83c3.15.88,5.46,1.57,7.79,2.16.57.14,1.57.15,1.74-.14a2.76,2.76,0,0,0,.27-2.13c-.61-1.55-1.47-3-1.51-4.8,2.29,2.45,6.59,3.86,3.82,8.8-.73,1.28.25,3.52.44,5.32l1.62,0,1-5.05,12.1,3.05c.22.62.92,2.59,1.78,5l4.09-2.24,1.14,4.08,1.33-.15c-.12-1.85-.24-3.69-.37-5.54l1.12-.77,5.06,6,3.23-3L378,332.7c.72-1.77,1-3.31,1.84-4.28a12.94,12.94,0,0,1,4.65-3.53c.66-.25,2.54,1.37,3.16,2.52a150.83,150.83,0,0,1,7.87,17l-11-15.47c-1.06,7.55,5.92,10.57,8.22,16.54l-11.83-12.53c-1.21,1.73-1.21,1.73,4.36,12.2l-8.81-9.55c-.31,2.15-.49,3.41-.58,4.05l-6.54,1.31.3-.9-24.57-4.9-.51,1.43c-1.46-2.4-2.78-4.9-4.46-7.13-.66-.88-2.13-1.15-3.23-1.7-.36,1.16-.73,2.32-1,3.2h-8.4l5.43-3.43-2.56-4.55-1,.38c.15,1.34.31,2.67.61,5.35-1.8-2.52-2.71-4.19-4-5.47a16.29,16.29,0,0,0-3.7-2.17,21,21,0,0,0-1.41,4.51c-.1,1.16.61,2.39,1.14,4.2-5.09-2.59-1.93-11.72-10.11-10.53a8.3,8.3,0,0,0,1-1.3c.63-1.29,1.2-2.61,1.79-3.92a19.31,19.31,0,0,0-3.85.91,45.92,45.92,0,0,0-4.7,2.81c-2.21,1.33-4.42,3-5.81-1-.2-.57-1.59-.83-2.47-1.05-3-.75-5.63-1.78-7.19-5-1.05-2.18-3.05-4.07-6.09-2.22a19.09,19.09,0,0,1-3.82,1.25l2-3.43-4.87-4.89c-.51.91-1.35,2.44-2.22,4l-4.47-.89c.39-.69.94-1.66,2.17-3.8-8.17,4.23-7.8-2.52-9.75-5.94-6,.69-8.5-2.23-7.31-9.94,1.56,3.4,2.64,5.75,3.71,8.1l1.31,0c.21-1.28.88-2.7.53-3.81-.82-2.66-2.34-5.12-3.19-7.78-1.45-4.5-2.59-9.1-3.87-13.65l-1.42-.14L252,283.4l-.9.05c-.19-3.66-.38-7.33-.62-12l-8.35,7.8v-7.2l-4.39,4.65c-.75-2.07-1.44-4-2.14-5.92l-1,0c-.14,1.57-.29,3.15-.46,4.95-2.92-1.79-3-7.58-8.34-5.88-.17.06-1.11-2.87-2-4.24-1.74-2.79-2.27-7.79-8-4.15-.91-2.25-1.78-4.4-2.64-6.56l-2,2.07c.37-2.28.74-4.57,1.34-8.32L206,253.56v-7.93l-5.78,1.29,4.56-6.07,4.16,5.2c2.36-4.2,3.89-2.51,5.13.74l5.66-5.38c1.27,5.91,2.34,10.87,3.41,15.84l1.49-.1v-10Z"/><path d="M306.65,357.06q-2-5.07-4.06-10.15l-1.13.32v4.92l-.9.26-7.46-13.3-.86,5.35c-3.51-2.26-.69-9.72-8.4-9.27.72,2.9,1.35,5.48,2,8.06l-.9.3-3.85-9-1.4.36q.72,4.31,1.45,8.6l-.82.25q-2.34-7.31-4.69-14.61l-1.85.33c-.16,3.29-.33,6.58-.49,9.87l-.87.09c-.27-3-.37-6.12-.89-9.12-.27-1.55-1.28-3-2-4.46a37.08,37.08,0,0,0-2.12,4.69c-.32,1.05-.06,2.28-1,3.62-.44-2.75-.87-5.51-1.3-8.26L264,326v7.32l-.89.11-2-8.7-4.77,2.1-1-13.3-1.28-.27c-.51,2.08-1,4.15-1.52,6.23H252q-.63-5.14-1.28-10.31l-1.21-.13-1.44,5.38c-.84-2.27-1.49-4-2.15-5.81l-5.17,1.93a20,20,0,0,1,0-2.79c.34-3.3-.07-5.41-4.41-5.18-1.45.08-3-2.55-5.17-4.5l-2.08,2.2c-.15-2.68-.28-5-.5-8.8L225,295.6c-.37-1.94-.71-3.71-1-5.49-.22-1.19-.42-2.39-.63-3.58l-2.64,2-13.75-9.93c-.18-1.06-.48-2.76-.78-4.47l-.9-.15-1,2.74c-1.79-1.37-4-2.56-5.46-4.31-1.08-1.27-1.36-3.28-1.88-5-.68-2.22-1.24-4.49-1.85-6.73l-1.2.28c.14,2.22.27,4.45.43,7.12-.77-.45-1.41-.65-1.41-.86,0-5.12-3.28-6.86-7.51-8.74-2.47-1.1-3.87-4.76-5.53-7.41-.64-1-.68-2.44-1.28-4.82-1,2.27-1.52,3.48-2.14,4.92-.35-.47-.81-.8-.82-1.15a58,58,0,0,0-.15-6.47c-.19-1.28-1.2-2.45-1.84-3.66a37.31,37.31,0,0,0-2.44,3c-.4.63-.47,1.46-1.64,2.18V233.3l13.89,2.39-.1,1.2-5.34.39-.38,1.26,10.13,5h-4.95c-.19.5-.37,1-.55,1.51L199,250.9l-.15.94-5.59-.85c-.12.48-.25,1-.38,1.45l14.45,3.25-.2,1.16-10.46-1.45c.22,3.32.83,4.8,4.24,3.86s6.44-.4,6.6,4.37c.05,1.52,1.07,3,1.65,4.52l1.46-.49.77-4.93,1.18-.08c.34,1.87.69,3.74,1.19,6.49l1.36-2.68a69.32,69.32,0,0,1,6.72,5.21c1.08,1.06,1.45,2.85,2.39,4.83l3-1.94,3.05,4a36.63,36.63,0,0,0-2.58,3.35c-.13.2.87,1.44.94,1.41,1.3-.68,2.54-1.48,4.55-2.72-.46,3.2-.95,6-1.18,8.76-.06.73.7,1.53,1.08,2.31.54-.45,1.08-.9,1.63-1.33.75-.59,1.82-1.81,2.22-1.62a50.75,50.75,0,0,1,6.42,3.72c1.75,1.13,3.38,2.44,5.06,3.67l1-.83.77,8.73,3.05-4,3,5.23L254,307l14.58,3.13q.16,2.28.48,6.42c-.43-.37-.16,0,.05,0,7.7-.76,7.68-.76,8.43,7.21a3.73,3.73,0,0,0,1.75,2.79v-7.76c3.89,1.92-.56,8.9,6.22,8.58.1-2.16.2-4.14.35-7.37,3.27,4.87,1.63,10.55,5.29,13.74l1.36-.43c-.34-2.64-.69-5.27-1.06-8.09,6.72,2.17,5.16,8.66,8,12.88l.51-4.49.94-.21,3.24,10.82,1.35-.38q-1.74-6.49-3.5-13l1.66-.45q3.74,12.7,7.46,25.43l-.85.43q-2-4.58-4-9.15l-1.3.4,2.64,9.33Z"/><path d="M162,283.29l18.28,18.28-.5.62L176.45,300l-11.33,1.31c.14.63.36,1.57.58,2.51l-9.49-4.45-.69,1.09c.54.79,1.07,1.59,1.6,2.38l-.55.46c-1.17-.82-2.3-1.7-3.52-2.43s-3-2.27-3.91-1.92c-7.51,2.79-10.17-4.11-14.11-7.41s-7-8.39-9.89-13c-.93-1.48-.65-4.13,0-5.94.2-.61,3.16-.3,4.85-.38,3-.15,6-.3,9-.38a12.11,12.11,0,0,1,1.71.41c2.15.26,4.3.47,6.46.69l.21-1.21c1.75,2.51,3.28,5.21,5.35,7.4.76.8,2.78.4,4.77.6l-1.68-7.45,1.31-.71c1.92,4.6,2.23,11,9.71,10Zm-21.28,8.56.74-1.55-8.62-9.75a20.2,20.2,0,0,0-3-4.28,23.5,23.5,0,0,0-2.57-2.07c-.07,1.35-.72,3.09-.11,4a151.13,151.13,0,0,0,9.47,12.63C137.28,291.7,139.26,291.53,140.67,291.85Zm-1.21-8.11c2.54,7.15,5.53,9.48,11.71,8.59l-6-2.94C146.75,284.44,143.57,284.08,139.46,283.74Zm17.34,4.35,8.39,4,.7-1.51C164.12,287.24,162,284.55,156.8,288.09Z"/><path d="M140.26,253.78l7.92-1.14c0-.43.09-.85.14-1.27l-5.54-2.21.06-1.06h10.23l.21-2-8.55-1.27c4.21-4.11,9.29-4.51,14.54-4.35a2.5,2.5,0,0,1,1.42.35q14.22,12.27,28.38,24.62c.28.25.29.82.5,1.45-8.43-3.1-12.51-13.47-22.37-13.44l-.93,1.8,6.43,2.92c-.07,6,5.46,3.71,8.9,5.24L180.06,265l14.69,11.37c-10.87-1.84-22-2.83-32.44-6-3.82-1.15-7.58-3.6-12.19-3.33l.15-1.22,4.26-1.13.27-1.44-13-1.5,5.61-2.06-.08-.73h-6.27l2.52-2.93L140,254.82C140.11,254.47,140.18,254.12,140.26,253.78Zm47.48,19.85c-6-5.6-17.43-7.84-23.54-4.5Z"/><path d="M172.59,328.24l7.24-4.08,1.87,2.36c.9-1.52,1.81-3.06,3-5.06l5,6.24,1-.54-1-4.4.74-.5,3.13,4.16.7-.26c-.23-1.11-.47-2.23-1-4.65l5.69,6.26,1-.66q-.57-2.62-1.16-5.25l.79-.39,4.44,5.82.76-.36q-.66-2.52-1.3-5l1-.51c1.59,2.06,3.17,4.12,5.13,6.69l2.62-4.11,7,9.49L220,333c-1.08-2.26-2.16-4.51-3.25-6.77,4.84,1.58,4,9.5,11.37,8.17L226,328l1.19-.53q3.45,5.64,6.89,11.3l-1,.56-6.28-4v32l-1,.1c-.39-5.78-.86-11.56-1.14-17.35-.16-3.31.27-6.68-.09-10a4.75,4.75,0,0,0-2.62-3.44c-1.61-.47-3.55.23-6.8.59l-8.43-2.66L206,336l5.5,3.69c-6.72-1-12.05-1.79-17.39-2.61-2.91-.45-5.92-1.73-8.68-1.31-4.3.65-5.39-2.44-7.57-4.64C176.59,329.88,174.61,329.32,172.59,328.24Z"/><path d="M157.44,318.19l4.1-1.32-2.79-5H164l-8.15-3.35c.1-.45.2-.89.29-1.34,13-1.06,26.08-3.13,39.11,1.65l-6.93-.31,14.13,9.34C186.91,321,172.8,319.83,157.44,318.19Z"/><path d="M396.27,411.81,385.43,407l.2-.45c-.15,0-.42-.13-.43-.1-.33.7-.64,1.41-1,2.31L371,400.67l-1.81,2.16-7.36-8.39.64-.86,14.41,7.47-2.35-3.63C382.65,400.86,391.72,402,396.27,411.81Z"/><path d="M445.83,421.33c-2.28-.47-5.27-.18-6.72-1.54-3.86-3.63-7.85-2.9-12.38-2.28a13.45,13.45,0,0,1-8.33-1.74c-3.73-2.31-6.85-5.62-10.38-8.64,3.74,1.05,7.79,1.22,10.59,3.17,5.93,4.15,12.86,1.94,18.92,4.11,3.16,1.13,6,3.26,8.93,4.94Z"/><path d="M309.4,332.19c1.63,2.91,3.45,5.72,4.86,8.73,3.34,7.13,6.48,14.35,9.22,20.46l-2.82-3.82-2.75,4.25c-3.92-10.1-7.48-19.25-11-28.4Z"/><path d="M359.82,397.41,352,390.05c7.49,2.7,10.78,9.95,15.86,15.6l-8.16-4.29-.45.66,4.29,4.84-.91,1L343,390.07l.7-1L358.42,399Z"/><path d="M369.79,365.07c-3.27-5.5-6.56-11-9.76-16.52-.22-.38.19-1.12.37-1.94l14.44,22c-6,1.49-20.49-14.18-19.65-21.4,4.36,6,9,12.39,13.56,18.75Z"/><path d="M284.79,351.61c3,3.86,5.32,8.7,9.17,11.29,4,2.73,9.53,3.29,14.29,5.53l-7.63-.95-.28,1.15L311,371.78C299.35,373.69,288.77,365.75,284.79,351.61Z"/><path d="M263.34,382.89V361.33c4.22.43,6,2.81,5.89,7.32-.19,7.59-.05,15.18-.05,23.39-1-9.74-1.94-19-2.88-28.25l-1.58.15v18.93Z"/><path d="M344.23,346.4c1.55.54,3.67.61,4.56,1.7a127.45,127.45,0,0,1,10.76,15.31l-10.19-11-1.44,1.36q7.51,7.77,15.05,15.53c-8.36-5.49-15.75-11.82-19.62-21.32Z"/><path d="M247.87,372.23q-1.86-13-3.71-26l1.72-.41c.51,1.48,1,3,2,5.72.53-3.67.9-6.2,1.27-8.74l.86.12v29.16Z"/><path d="M348.78,364.44c-9.22-1.55-20.84-14.89-20.64-22.62l9.9,15.77,1-.61-5.21-11.87,1.32-.56c1.7,3.45,3.05,7.14,5.19,10.29S345.52,360.8,348.78,364.44Z"/><path d="M401.55,332.37c.91.76,2.1,1.34,2.7,2.3,3.24,5.12,7.91,6,13.61,5.93,3.31,0,5.29,3.34,6.94,6l-.88.95-4.81-3.39v2.7c-9.05-.66-13.59-7.3-18.68-13.19C400.8,333.26,401.17,332.81,401.55,332.37Z"/><path d="M467.5,405.32l3.67,8.38c-7.81-4.73-16.19-7.94-19.83-16.61l1.14-1.1,6.61,7.86v-4.59l1.12-.42,4.22,8.7.7-.19c-.45-1.78-.89-3.55-1.33-5.33l1.07-.55,2.76,4Z"/><path d="M460,454.52l-12.45-11.84-.76.69q4.23,6.39,8.47,12.79l-1,.66-14.4-18.88,1.07-1c3.64,2.15,7.63,3.88,10.82,6.57,3.45,2.91,6.14,6.72,9.16,10.14Z"/><path d="M379.48,348.82l9,15.71,1.09-.5-4.87-12.24,1.21-.49,11.33,20.76C388.35,366.77,381.11,359.84,379.48,348.82Z"/><path d="M319.26,400.49l5.13,12.5-1.07.5c-1.15-2.39-2.35-4.75-3.42-7.17-1.48-3.34-2.69-6.81-4.31-10.09-1.48-3-.89-4.7,2.84-5.36,3.06,7.1,6.19,14.33,9.31,21.55l-.95.45-6.18-12.93Z"/><path d="M415.15,371.75c-7.21-3.86-12.23-9.75-16.4-16.41l1.31-1.4,22.41,19.55-.82,1.13-14-11.52-.77.87Z"/><path d="M312.66,408.74c-1.77-6.19-3.61-12.35-5.19-18.58-.19-.79,1-1.94,1.63-2.92.82.6,2.09,1,2.38,1.82a223.22,223.22,0,0,1,7.35,23.22l-6.68-14.4-.5.14,2,10.55Z"/><path d="M314.76,380.1c5.84,2.54,12.5-.48,17.07,5.23.34.43,1.37.29,1.79.7,1.05,1,1.94,2.24,2.9,3.37-1.65.41-3.67,1.64-4.89,1.09-5.6-2.51-11-5.52-16.42-8.39C315,382,315.07,381.53,314.76,380.1Z"/><path d="M218.52,302.82c-7.21,2.11-9.66,1.09-13.11-4.36-.6-.94-2.13-1.43-3.33-1.82-3-1-6.06-1.74-9.08-2.64-.25-.08-.41-.49-.39-1.33C201.8,293.69,210,297.39,218.52,302.82Z"/><path d="M327.19,390.77q6.93,11.21,13.87,22.39l-1.3.83-9.12-14.83-1.1.51,6.33,14.18-1.37.56q-4.85-11.21-9.67-22.43Z"/><path d="M358.34,412.43l-10.57-12.12-1.15,1,6.85,10.63-.85.56c-4.1-5.34-8.2-10.69-13-17,10.72,1.66,14.19,10,20,15.49Z"/><path d="M418.68,349.45l2.85,3.06c.68.72,1.21,1.79,2,2.13,6.71,2.71,7.84,3.59,11.4,10.59-1.37-1.35-2.78-2.68-4.11-4.08-1.48-1.56-2.89-3.2-4.33-4.81l-1,.84,7,8.47-1,.79q-7.14-7.79-14.26-15.58Z"/><path d="M165.35,338.53c-7.29-2.43-7.52-8.57-8.92-14.23C161.57,323.39,161.57,323.39,165.35,338.53Z"/><path d="M210,346c.45,6.14.82,11.24,1.2,16.35l-1,.15q-.78-3-1.54-6l-.82.13v6.61l-1.39.11c-.28-4.89-.72-9.78-.66-14.67C205.85,347.92,208.13,347.18,210,346Z"/><path d="M392.66,401.74c4.95,6,14.67,5.46,18.17,13.51l-1.13,1.54-18.2-13.36Z"/><path d="M242.11,339.81q1,16.26,2,32.53l-1.38.12q-1.35-16.24-2.71-32.48Z"/><path d="M199.88,283.84l-32.09-6.33.26-1.23C179.07,276.84,189.61,279.69,199.88,283.84Z"/><path d="M313.88,298.89c.69-.49,1.44-1.48,2.07-1.4a31.32,31.32,0,0,1,7.8,1.58,89.45,89.45,0,0,1,9.05,4.72l-.55,1.09c-5.21-.94-10.45-1.71-15.59-2.93-1.16-.27-1.94-2.1-2.89-3.21Z"/><path d="M466.37,419.53c-9.31,5.7-15.92,1.17-21.95-5.19a112.83,112.83,0,0,0,10.92,5c1.65.56,3.78-.46,5.69-.45A40.53,40.53,0,0,1,466.37,419.53Z"/><path d="M537.69,453.65l15.48-5.84c.25.35.5.7.74,1.06-1.88,2.13-1.76,6.06-7,5-2.63-.53-5.64.87-8.48,1.4C538.15,454.72,537.92,454.19,537.69,453.65Z"/><path d="M403.9,399.53l-4.1-9.3,1.1-.43L390.52,381c6.46.2,11.59,7,14.76,17.77Z"/><path d="M255.42,351.17v30.1l-.18.13-2.22-30Z"/><path d="M184.85,285l-11.14-2.16c.15-.72.31-1.43.46-2.15l30.94,7.12c-.08.37-.15.74-.23,1.12l-20.16-4Z"/><path d="M313.77,298.74c-.17.93-.34,1.87-.44,2.45l-10.05-4.81v0c-.88-2.33-1.76-4.66-3-7.91l13.58,10.38Z"/><path d="M236.18,368.73V338.61l1.76.06C237.38,348.22,236.82,357.76,236.18,368.73Z"/><path d="M388.75,370.64c-6.85-4.95-15.17-16.39-15.73-22Z"/><path d="M264,345.4c-4-5.63-14-6.16-13.17-15.94l4.38,7.93C262,335.77,261.18,342.75,264,345.4Z"/><path d="M259.41,383.66V356.81l.88-.06v26.87Z"/><path d="M431.14,341.38l13.07,8.22C437.36,350.64,432.91,347.91,431.14,341.38Z"/><path d="M275.48,273.89c-.12.75-.24,1.51-.61,3.78-1.92-3.51-3.18-5.81-4.5-8.24-.48.72-.88,1.32-1.56,2.36-.89-3-1.66-5.59-2.42-8.18l1.69-1.12c1.64,2.13,3.35,4.21,4.88,6.41,1,1.44,1.76,3.05,2.62,4.57Z"/><path d="M323,339.83q6.93,11.25,13.84,22.52C330.25,356,324.74,349.07,323,339.83Z"/><path d="M422.19,431.33l12.07,21.42-1.05.62-13-20.93Z"/><path d="M184.72,285l17.05,5.27a24.73,24.73,0,0,1,6.86,2.94l-27.26-5.86c1.61-1,2.57-1.67,3.51-2.31Z"/><path d="M318.11,336.24l10.17,22C323.36,354.91,317.69,343.57,318.11,336.24Z"/><path d="M405.15,392.7c5.8-1.33,8.26.25,10.62,7.86l-11.6-6.24C404.49,393.78,404.82,393.24,405.15,392.7Z"/><path d="M273,365.91v22.48h-.75V366Z"/><path d="M281.74,368.84q1.88,12.41,3.76,24.79l-1.21.23q-2.35-12.32-4.72-24.63Z"/><path d="M286.52,371.72q3.09,11.61,6.19,23.22l-1.27.36-7-23.06Z"/><path d="M277.89,391.22l-3.36-22.28,1.93-.27,2.91,22.42Z"/><path d="M296.83,397.86q-3.85-10.38-7.7-20.74l1.9-.7q3.63,10.43,7.24,20.85Z"/><path d="M303.28,296.38c-1.48-1-3.23-1.69-4.37-3s-1.91-3.26-3.72-4.59q.66,2.54,1.3,5.07l-1.11.47-4-7.95c4-1.51,6-.79,7.29,3,.84,2.55,3,4.65,4.58,7Z"/><path d="M441.69,455.31q-6.68-9.93-13.34-19.88l1.7-1.1,12.79,20.21Z"/><path d="M408.9,351.75l16.61,18.5c.22-.24.43-.48.65-.71l-19.06-16Z"/><path d="M509.06,418.83c-7.39,3.07-10.46-2.07-14.24-5.69l.82-1.37L502,416.4C505.28,413.07,507,415.74,509.06,418.83Z"/><path d="M231.56,342.73V365.4l-.88.07q-.51-11.33-1-22.65Z"/><path d="M473.28,401.28,485.65,420l-1,.72-13.19-18.09Z"/><path d="M321.67,377.85a55.71,55.71,0,0,1-20-1.41l.36-2.15Z"/><path d="M298.5,382.53q2.44,10,4.9,20.06l-1.42.34-5.43-19.8Z"/><path d="M392.79,355.74c3.93,6,7.6,11.55,11.11,16.9C398.9,370.52,392.47,361.2,392.79,355.74Z"/><path d="M145.14,327.41q-3-9.56-6-19.12l2-.63L146.69,327Z"/><path d="M221.59,345.88q.61,10,1.24,19.95l-1.48.15q-.93-10-1.85-19.93Z"/><path d="M275.48,273.89l.1-.42c.06-.94.11-1.88.17-2.83,1.57,4.81,10.22,4.51,7.67,12.07Z"/><path d="M307.41,405.23q-3.17-9.93-6.34-19.87l1.95-.62q2.81,10,5.62,19.95Z"/><path d="M390.58,395.66l-11.25-6.39C384.47,386.54,389.45,389.35,390.58,395.66Z"/><path d="M402.22,347.13,391.3,330.34l1.86-1.13,10.19,17.25Z"/><path d="M416.49,354.2,430,369.39l.42-.42-14.69-14.14Z"/><path d="M334.76,393.37l11.31,18.29-.9.6q-6-8.88-12-17.75Z"/><path d="M462.39,350.11l12.75,10.56C470.12,356.89,464.19,354,462.39,350.11Z"/><path d="M276.59,357.26c-8.41-4.27-8.41-4.27-8.24-9.78C270.33,352.11,277.71,350.53,276.59,357.26Z"/><path d="M455.6,346.9,467,359.62l-1.07,1-12-12.39Z"/><path d="M200.57,362.59q-.72-8.74-1.45-17.48l2-.13.91,17.59Z"/><path d="M217.19,363.11Q216.52,353,215.83,343l1.82-.15V363Z"/><path d="M432.14,391c-5.2-2.19-10.13-4.69-13.14-9.48l1-1.24Z"/><path d="M183.5,231.84H167.32l.12-1.88,16.12,1.22Z"/><path d="M323.71,393.64q3.94,9.5,7.91,19l-1.07.45q-4.26-9.46-8.53-18.92Z"/><path d="M490.86,421q-4.87-5.67-9.77-11.33l1.74-1.43L492.06,420Z"/><path d="M452,359.23l10.62,5.92C452.58,364.42,452,364,452,359.23Z"/><path d="M240.23,331.22q-2.05-7-4.09-14.06l2.08-.54L241.55,331Z"/><path d="M467.63,405.47c.31-.87.63-1.74,1.27-3.51,2.83,5.2,5.24,9.63,7.66,14.05l-.75.46-8.31-11.15Z"/><path d="M366,348.58q3.67,6.5,7.33,13a24.39,24.39,0,0,1-8.86-12.32Z"/><path d="M562.21,443.62c-1,4.31-4.64,6.73-8.29,9.15l6.88-10Z"/><path d="M234.63,326.59l-3.12-13.7,1.79-.41q1.41,6.9,2.81,13.81Z"/><path d="M265.23,270.89,261,259l2.28-.72,3.45,12.36Z"/><path d="M364.88,376.71c-1.31,4.87-4.61,7.35-11.3,8.59C357.58,382.27,361,379.65,364.88,376.71Z"/><path d="M148.39,327l-4.15-13.66,1.84-.55,3.69,13.8Z"/><path d="M449.26,353.59l-6.09-8,1.92-1.4,5.91,8.07Z"/><path d="M441.7,365l-9.1-10.47,1.43-1.24L442.79,364Z"/><path d="M196.46,345.08l1.47,11.75-1.41.29-2.22-11.66Z"/><path d="M228.12,308.54l1.38,11.26-1.54.26q-1.05-5.55-2.12-11.08Z"/><path d="M353.12,380.54l-9.81,5.26c-.24-.41-.48-.81-.71-1.22l9.4-5.7C352.37,379.44,352.75,380,353.12,380.54Z"/><path d="M443.87,406.52,437,397.71l1.71-1.24,6.32,9.18Z"/><path d="M370.31,381l-9.18,5.91-.88-1.25,8.86-6.37Z"/><path d="M418.13,390.55l-7.46-6.41c.45-.51.9-1,1.36-1.51l7.42,6.48Z"/><path d="M490.87,410.21l6.36,8.36-1.2,1.1-7-7.86Z"/><path d="M152.52,318.87q1.17,5,2.36,10l-1.39.42-3.06-9.78Z"/><path d="M210.81,403.52a92.69,92.69,0,0,0,4.43,8.15,23,23,0,0,0,6.6,6.5c-1.17-2.76-2.35-5.51-3.53-8.27l.4-.12,12.18,16.56C220.27,421.27,212.62,414.93,210.81,403.52Z"/><path d="M272.69,443.74l4.42,6.26-.42.7-11.35-7.54,0,.07q-1.78-3.42-3.59-6.84l.55-.46,6.35,7.41.74-.35-3.9-9.36,1.32-.63,5.69,9.37Z"/><path d="M272.69,443.74l-.15-1.37c.35-.54.69-1.09,1-1.64l5.09,5.5c-.44-2.11-.67-3.19-1-4.93l12.35,13-1,1.27Z"/><path d="M232.3,421.19c3.12,2.78,5.6,6.75,8.82,7.47,5.67,1.27,6.62,5.65,9,9.34-.4.17-.83.47-.93.38-4.48-3.77-9.05-7.43-13.31-11.43C234.33,425.5,233.54,423.25,232.3,421.19Z"/><path d="M265.34,443.16c-3.31-1.81-7.16-3.07-9.77-5.6s-4.16-6.46-5.32-10.35l15.11,16S265.34,443.16,265.34,443.16Z"/><path class="cls-1" d="M140.67,291.85c-1.41-.32-3.39-.15-4.13-1a151.13,151.13,0,0,1-9.47-12.63c-.61-.9,0-2.64.11-4a23.5,23.5,0,0,1,2.57,2.07,20.2,20.2,0,0,1,3,4.28l8.62,9.75Z"/><path class="cls-1" d="M139.46,283.74c4.11.34,7.29.7,5.68,5.65l6,2.94C145,293.22,142,290.89,139.46,283.74Z"/><path class="cls-1" d="M156.8,288.09c5.24-3.54,7.32-.85,9.09,2.45l-.7,1.51Z"/><path class="cls-1" d="M187.74,273.63l-23.54-4.5C170.31,265.79,181.72,268,187.74,273.63Z"/></svg>